<svg xmlns="http://www.w3.org/2000/svg" width="211.801" height="187" viewBox="0 0 211.801 187"><g id="empathy" transform="translate(3.5 3.5)"><path id="Path_1" data-name="Path 1" d="M204.8,169a18.021,18.021,0,0,0-18-18H126.4a6.007,6.007,0,0,1-6-6V101.565c17.37-14.7,29.64-25.9,29.64-42.006,0-15.547-11.05-28.56-26.759-28.56-7.693,0-14.908,3.42-20.88,9.771C96.43,34.42,89.213,31,81.52,31c-15.73,0-26.76,13.035-26.76,28.56,0,16.1,12.266,27.306,29.64,42.006V145a6.007,6.007,0,0,1-6,6H18A18.021,18.021,0,0,0,0,169v36a6,6,0,0,0,6,6H66.4a6,6,0,0,0,6-6V169a6.007,6.007,0,0,1,6-6,18.021,18.021,0,0,0,18-18V111.745l2.07,1.785a6,6,0,0,0,7.868,0q1.045-.907,2.07-1.785V145a18.021,18.021,0,0,0,18,18,6.007,6.007,0,0,1,6,6v36a6,6,0,0,0,5.991,6h60.4a6,6,0,0,0,6-6ZM60.4,169v30H12V169a6.013,6.013,0,0,1,6-6H61.428a17.967,17.967,0,0,0-1.028,6Zm49.293-74.1c-2.364,1.994-4.782,4.033-7.29,6.181-2.511-2.147-4.928-4.186-7.29-6.18-17.677-14.91-28.35-23.91-28.35-35.341,0-8.23,5.07-16.56,14.76-16.56,7.4,0,12.69,5.863,15.818,10.782a6,6,0,0,0,10.123,0C110.595,48.862,115.88,43,123.283,43c9.69,0,14.76,8.33,14.76,16.56,0,11.43-10.67,20.43-28.35,35.341ZM144.4,199V169a17.922,17.922,0,0,0-1.028-6H186.8a6.007,6.007,0,0,1,6,6v30Z" transform="translate(0 -31)" fill="#f6872f" stroke="#fff" stroke-width="7"></path><path id="Path_2" data-name="Path 2" d="M70.759,230.879a19.879,19.879,0,1,0-19.879,19.879A19.879,19.879,0,0,0,70.759,230.879Zm-19.879,9.94a9.94,9.94,0,1,1,9.94-9.94,9.94,9.94,0,0,1-9.94,9.94Z" transform="translate(-20.729 -134.505)" fill="#f6872f" stroke="#fff" stroke-width="6"></path><path id="Path_3" data-name="Path 3" d="M400.759,230.879a19.879,19.879,0,1,0-19.879,19.879A19.879,19.879,0,0,0,400.759,230.879Zm-19.879,9.94a9.94,9.94,0,1,1,9.94-9.94,9.94,9.94,0,0,1-9.94,9.94Z" transform="translate(-206.229 -134.505)" fill="#f6872f" stroke="#fff" stroke-width="6"></path></g></svg>