<svg xmlns="http://www.w3.org/2000/svg" width="161.343" height="184.072" viewBox="0 0 161.343 184.072"><g id="human" transform="translate(2.001 2)"><path id="Path_10" data-name="Path 10" d="M113.368,144.031a14.511,14.511,0,0,1-.775,4.735c-2.632,11.877-26.435,26.84-26.435,26.84s-23.827-14.964-26.469-26.84a14.836,14.836,0,0,1-.778-4.735A15.391,15.391,0,0,1,86.144,134.2a15.4,15.4,0,0,1,27.229,9.832Zm51.431-9.972V175.6a4.226,4.226,0,0,1-8.447,0v-41.54c0-27.309-12.022-40.984-39.788-45.509-7.926,11.066-18.484,19.139-30.433,19.139S63.636,99.615,55.7,88.55c-27.784,4.508-39.79,18.163-39.79,45.509V175.6a4.226,4.226,0,1,1-8.446,0v-41.54c0-38.643,23.226-49.419,43.287-53.289-6.318-11.5-10.035-24.7-10.035-35.375a45.4,45.4,0,1,1,90.81,0c0,10.676-3.71,23.87-10.046,35.371,20.184,3.87,43.321,14.713,43.321,53.292Zm-41.7-88.67a36.955,36.955,0,1,0-73.91,0c0,20.77,16.9,53.844,36.955,53.844S123.1,66.159,123.1,45.389Zm-81.484,91.5a4.233,4.233,0,0,0-4.226,4.226V175.6a4.226,4.226,0,1,0,8.446,0V141.111a4.208,4.208,0,0,0-4.22-4.223Zm89.048,0a4.226,4.226,0,0,0-4.226,4.226V175.6a4.226,4.226,0,1,0,8.447,0V141.111a4.213,4.213,0,0,0-4.221-4.223Z" transform="translate(-7.457 0.009)" fill="#f6872f" stroke="#fff" stroke-width="4"></path></g></svg>