<svg xmlns="http://www.w3.org/2000/svg" width="200.000000pt" height="200.000000pt" viewBox="0 0 200.000000 200.000000" preserveAspectRatio="xMidYMid meet"><metadata>
Created by potrace 1.16, written by Peter Selinger 2001-2019
</metadata><g transform="translate(0.000000,200.000000) scale(0.100000,-0.100000)" fill="#000000" stroke="none"><path d="M673 1952 c-10 -6 -7 -33 12 -118 27 -120 29 -136 15 -114 -17 27 -10 -3 11 -47 12 -25 32 -92 44 -151 25 -118 67 -238 73 -209 2 9 -8 53 -22 95 -15 43 -29 92 -31 108 -3 16 -8 49 -11 74 -4 25 -12 48 -18 52 -6 4 -13 45 -14 91 -4 77 -2 86 20 112 l25 28 64 -12 c163 -32 223 -95 169 -176 -27 -41 -27 -64 0 -40 24 22 24 23 5 -39 -15 -50 -12 -73 6 -46 5 8 12 27 16 43 3 15 9 27 13 27 13 0 -7 -70 -25 -90 -10 -11 -20 -39 -22 -63 -4 -36 -1 -49 14 -64 19 -19 27 -83 11 -83 -5 0 -8 5 -8 10 0 6 -6 10 -14 10 -8 0 -13 -8 -12 -17 2 -10 7 -18 12 -18 5 0 14 -4 21 -8 6 -4 18 -5 25 -2 9 4 15 0 15 -9 0 -8 -3 -14 -6 -14 -7 1 -40 -10 -61 -21 -32 -17 -22 -58 13 -52 4 1 24 -7 45 -18 39 -20 142 -35 142 -21 0 13 -39 22 -65 16 -17 -4 -32 1 -51 17 -33 29 -25 47 22 47 32 0 34 1 23 21 -6 12 -20 24 -31 26 -16 5 -18 11 -12 37 3 17 10 35 14 40 14 14 30 -4 30 -35 0 -28 13 -39 25 -19 14 23 -82 129 -105 115 -7 -5 -5 -12 7 -20 10 -7 15 -16 12 -19 -10 -10 -59 34 -59 54 0 9 7 23 16 30 29 25 45 83 46 165 1 111 -15 143 -94 190 -35 21 -80 49 -100 63 -36 24 -53 25 -103 6 -15 -6 -16 -4 -6 14 6 11 11 26 11 33 0 27 -16 -6 -41 -84 l-27 -82 -6 60 c-10 88 -19 116 -33 107z"></path><path d="M1726 1678 c-2 -7 -11 -35 -21 -63 -9 -27 -18 -61 -20 -75 -1 -14 -11 -41 -21 -61 -10 -20 -28 -52 -38 -72 -11 -20 -16 -40 -13 -44 8 -8 77 56 77 72 0 17 44 59 94 91 25 16 46 35 46 42 0 17 -5 16 -58 -15 -28 -16 -42 -21 -34 -11 9 11 10 18 2 23 -7 5 -4 18 10 42 19 33 20 37 5 59 -17 27 -24 30 -29 12z"></path><path d="M183 1482 c5 -20 3 -21 -10 -10 -13 10 -22 5 -59 -34 -49 -52 -53 -64 -24 -73 13 -4 20 -15 20 -31 0 -13 5 -24 11 -24 7 0 8 -14 4 -40 -6 -38 7 -57 18 -27 3 6 3 -6 0 -28 l-5 -40 21 25 c25 30 29 75 6 66 -13 -5 -14 -2 -1 22 8 16 21 34 30 41 12 10 17 8 29 -16 39 -76 21 -108 -94 -168 -56 -29 -73 -34 -85 -24 -11 9 -11 15 -3 25 6 7 8 17 5 23 -4 5 3 12 14 16 22 7 27 30 7 38 -7 2 -13 17 -15 33 -1 15 -4 30 -7 32 -13 13 -20 -16 -20 -79 0 -51 -3 -68 -13 -64 -23 9 -12 -17 21 -49 42 -41 79 -86 55 -67 -16 12 -18 11 -18 -5 0 -11 4 -25 9 -33 8 -13 12 -13 27 0 10 8 2 -8 -17 -36 -41 -59 -72 -125 -60 -125 11 0 29 23 102 125 27 39 54 69 59 67 6 -1 9 1 8 5 -2 13 14 43 23 43 23 0 5 -36 -36 -73 -51 -46 -55 -57 -22 -57 13 0 34 14 50 32 16 18 25 26 21 18 -4 -8 -15 -24 -24 -35 -21 -24 -32 -55 -21 -55 5 0 32 19 61 43 28 23 54 41 56 40 2 -2 3 -4 2 -5 -1 -2 4 -13 10 -25 11 -20 7 -27 -48 -74 -61 -54 -77 -76 -63 -90 12 -12 111 58 128 91 15 29 40 45 65 41 8 -2 16 -4 18 -6 6 -6 -73 -94 -105 -116 -16 -11 -20 -22 -16 -37 5 -22 6 -22 40 8 33 30 53 32 53 6 0 -7 -18 -27 -40 -45 -42 -34 -50 -51 -24 -51 10 0 14 6 10 15 -7 19 -4 19 38 -2 l35 -16 -25 -20 c-26 -20 -26 -20 -52 0 -15 11 -32 30 -38 42 -7 13 -25 31 -41 41 -36 21 -107 106 -100 118 3 4 2 14 -3 22 -7 11 -12 12 -21 3 -6 -6 -18 -9 -27 -5 -11 4 -14 1 -9 -12 5 -12 0 -19 -18 -26 -14 -5 -28 -17 -31 -25 -12 -29 5 -28 31 3 33 39 52 32 65 -22 6 -22 15 -48 20 -58 6 -11 5 -20 -6 -29 -26 -22 -76 -99 -72 -113 2 -7 24 10 53 42 38 42 49 61 47 83 -1 16 1 29 4 29 3 0 32 -23 63 -51 l56 -52 -48 -51 c-64 -68 -111 -140 -96 -145 13 -4 130 119 123 130 -2 3 7 16 20 28 20 19 28 21 45 12 28 -15 26 -23 -6 -43 -41 -24 -77 -65 -64 -72 6 -4 30 11 54 34 24 22 47 40 51 40 14 0 4 -24 -21 -55 -27 -30 -61 -87 -63 -103 -1 -4 -9 -15 -17 -24 -9 -10 -13 -18 -10 -18 3 0 36 38 72 85 65 83 86 104 65 66 -13 -25 -13 -54 0 -46 6 3 10 -5 10 -19 0 -14 -4 -27 -9 -30 -5 -3 -11 -16 -14 -28 -6 -22 -6 -22 13 2 17 22 19 23 26 7 4 -12 0 -23 -11 -31 -13 -9 -15 -15 -6 -20 6 -4 14 -1 17 7 3 10 17 15 37 14 27 -2 32 -7 39 -37 4 -21 1 -57 -7 -90 -27 -111 -28 -129 -7 -127 15 1 19 9 19 42 1 88 6 116 20 130 8 8 10 15 5 15 -5 0 -17 23 -27 52 -18 56 -15 101 12 197 12 43 13 64 4 107 -9 48 -7 62 15 131 58 180 158 280 297 299 43 6 51 4 77 -21 26 -25 29 -34 25 -69 -5 -40 -5 -40 5 -9 6 18 12 33 14 33 1 0 3 -21 4 -46 1 -106 111 -194 243 -194 140 0 439 176 520 307 18 28 20 39 11 54 -20 31 7 34 39 3 24 -23 26 -30 16 -43 -6 -8 -7 -12 -1 -8 11 6 81 -26 131 -60 15 -11 37 -23 48 -26 l20 -7 -20 16 c-11 8 -50 33 -87 55 -37 21 -75 49 -85 62 -27 35 -63 55 -120 67 -28 6 -57 18 -63 25 -18 22 33 79 110 125 68 40 160 115 125 102 -11 -4 -49 -23 -85 -44 -36 -20 -83 -44 -105 -55 -26 -12 -47 -32 -61 -58 -26 -46 -34 -81 -18 -78 16 3 124 -85 124 -101 0 -24 -143 -149 -225 -198 -185 -108 -337 -146 -385 -98 -11 11 -20 28 -20 38 0 9 -9 35 -20 57 l-19 40 2 -34 c1 -19 -3 -36 -9 -38 -13 -4 -26 28 -29 75 -2 26 1 32 14 27 8 -3 -16 27 -55 67 -78 81 -110 123 -115 152 -3 12 -14 20 -29 22 -14 1 -72 18 -129 38 -57 20 -110 36 -118 36 -18 0 -98 -54 -115 -79 -17 -24 -56 -44 -74 -37 -16 6 -64 -13 -64 -25 0 -4 -14 -11 -32 -14 -33 -8 -148 -111 -148 -133 0 -9 -5 -9 -20 0 -29 19 -25 41 16 77 26 24 39 30 47 22 17 -17 27 -13 37 14 5 14 24 34 42 44 76 45 113 76 96 79 -9 2 -31 -7 -48 -20 -26 -19 -32 -20 -40 -8 -5 8 -10 34 -10 57 0 23 -5 54 -10 69 -7 18 -7 30 1 40 8 10 1 23 -31 56 -35 36 -41 39 -37 20z m392 -250 c0 -10 7 -16 17 -14 12 2 15 -3 11 -17 -10 -37 -31 -46 -62 -28 -28 16 -29 16 -55 -10 -14 -14 -26 -29 -26 -34 0 -4 -18 -29 -41 -55 -29 -34 -39 -54 -36 -70 5 -28 -15 -37 -40 -19 -13 10 -15 18 -8 28 6 8 26 39 47 68 20 30 66 85 102 124 53 55 68 67 78 57 7 -7 13 -20 13 -30z m149 -75 c9 -21 16 -40 14 -41 -2 -1 -40 -27 -86 -57 -71 -47 -82 -57 -77 -77 6 -25 -32 -72 -60 -72 -24 0 -18 24 20 76 30 42 65 107 65 121 0 2 -4 1 -10 -2 -14 -9 -12 1 5 35 9 17 12 30 8 30 -5 0 -1 6 8 13 9 7 34 13 56 13 37 1 41 -1 57 -39z"></path><path d="M1517 1247 c3 -6 -1 -15 -9 -21 -8 -6 -24 -29 -36 -51 -27 -53 -51 -74 -151 -134 -64 -38 -88 -48 -102 -41 -12 7 -21 5 -29 -5 -11 -13 -5 -15 38 -15 38 0 67 9 123 38 83 42 129 85 158 147 30 64 35 92 17 92 -8 0 -12 -5 -9 -10z"></path><path d="M1787 1016 c-31 -19 -83 -57 -114 -84 -32 -27 -96 -72 -143 -100 -94 -57 -148 -94 -236 -163 -95 -74 -224 -159 -237 -156 -7 1 -11 -4 -9 -11 1 -6 -16 -24 -39 -40 -22 -15 -55 -39 -71 -55 -36 -32 -45 -33 -77 -8 -32 25 -18 49 62 102 90 61 119 87 106 94 -6 4 -13 4 -16 1 -4 -3 -15 1 -25 11 -11 9 -18 11 -18 5 0 -7 -4 -12 -10 -12 -5 0 -13 18 -16 41 -8 46 -39 73 -76 66 -21 -4 -20 -4 4 -6 17 0 34 -10 44 -26 15 -23 14 -28 -17 -92 -17 -38 -37 -75 -44 -83 -7 -8 -25 -39 -40 -68 -28 -52 -28 -76 -1 -53 31 26 95 -25 80 -63 -8 -20 0 -20 31 0 23 15 26 14 50 -10 14 -14 25 -35 26 -48 0 -15 7 -6 19 27 66 179 74 196 101 216 34 24 62 18 86 -17 24 -37 19 -70 -21 -148 -20 -39 -56 -129 -81 -201 l-44 -130 39 -3 c50 -4 101 33 258 188 64 63 110 110 102 103 -9 -6 -28 -17 -43 -22 l-28 -11 33 45 c18 25 38 53 43 63 6 9 24 35 41 57 58 76 94 134 139 222 65 130 153 222 266 279 52 26 89 50 89 59 0 20 -1 20 -70 -15 -33 -17 -60 -26 -60 -22 0 12 34 42 48 42 19 0 3 25 -27 43 -38 22 -38 22 -104 -17z m68 -38 c-59 -52 -168 -187 -215 -265 -18 -32 -47 -75 -63 -95 -16 -21 -24 -38 -18 -38 17 0 -11 -49 -46 -82 -15 -14 -70 -54 -121 -88 -101 -67 -118 -92 -28 -40 31 17 56 27 56 22 0 -6 -7 -12 -15 -16 -8 -3 -15 -13 -15 -23 0 -9 -10 -27 -22 -40 -12 -13 -23 -36 -24 -52 -1 -15 -13 -46 -28 -67 -38 -58 -148 -145 -163 -130 -12 11 58 138 102 185 60 64 43 75 -19 13 -42 -41 -96 -125 -102 -158 -1 -6 -9 -24 -18 -40 -23 -39 -16 -13 29 116 20 58 53 132 74 166 37 59 38 61 26 108 -11 43 -11 49 6 59 30 19 22 27 -13 15 -24 -8 -33 -8 -36 0 -6 19 -1 25 69 77 36 28 103 78 148 112 45 34 107 76 139 93 31 17 98 62 147 102 112 88 143 108 174 108 21 0 19 -4 -24 -42z"></path><path d="M1946 729 c-14 -17 -26 -37 -26 -46 0 -22 -32 -73 -47 -73 -6 0 -15 -5 -18 -10 -4 -6 -3 -10 2 -9 21 4 22 -4 4 -38 -20 -40 -86 -113 -136 -150 -67 -51 -155 -124 -155 -130 0 -4 10 3 23 15 13 12 31 22 40 22 15 0 16 -2 0 -34 -9 -19 -26 -40 -39 -47 -13 -6 -21 -16 -18 -21 3 -5 -2 -19 -13 -30 l-18 -21 34 19 c50 28 224 203 244 246 10 21 22 40 27 43 15 10 70 122 63 129 -3 3 1 22 10 41 10 19 25 52 34 73 9 20 19 40 21 45 8 17 -8 5 -32 -24z"></path><path d="M558 160 c-6 -18 86 -110 110 -110 9 0 52 11 96 25 45 14 101 30 125 36 23 6 40 13 37 16 -3 3 -82 5 -176 4 -169 -2 -170 -2 -179 20 -6 17 -9 19 -13 9z"></path></g></svg>