<svg xmlns="http://www.w3.org/2000/svg" id="Layer_1" data-name="Layer 1" viewBox="0 0 40.37 40.37"><defs><style>.cls-1{fill:#345c7e;}</style></defs><path class="cls-1" d="M11.43,16.56a1.58,1.58,0,0,1-3.15,0h0a1.58,1.58,0,1,1,3.15,0Zm13.72,0h0a1.58,1.58,0,1,0-3.15,0h0a1.58,1.58,0,0,0,3.15,0Zm6.86,0h0a1.58,1.58,0,1,0-3.15,0h0a1.58,1.58,0,0,0,3.15,0ZM11.43,23.42a1.58,1.58,0,1,0-3.15,0h0a1.58,1.58,0,0,0,3.15,0ZM9.86,28.7a1.57,1.57,0,0,0-1.58,1.58h0a1.58,1.58,0,0,0,3.15,0h0A1.57,1.57,0,0,0,9.86,28.7Zm8.43-12.14a1.58,1.58,0,1,0-3.15,0h0a1.58,1.58,0,0,0,3.15,0Zm0,6.86a1.58,1.58,0,1,0-3.15,0h0a1.58,1.58,0,0,0,3.15,0ZM16.71,28.7a1.57,1.57,0,0,0-1.57,1.58h0a1.58,1.58,0,0,0,3.15,0h0A1.57,1.57,0,0,0,16.71,28.7Zm23.66,2.13a9.54,9.54,0,1,1-9.54-9.54A9.55,9.55,0,0,1,40.37,30.83Zm-3.16,0a6.39,6.39,0,1,0-6.38,6.38A6.39,6.39,0,0,0,37.21,30.83Zm-4.1-1.58H32.4V27.59a1.58,1.58,0,0,0-3.15,0v3.24a1.57,1.57,0,0,0,1.58,1.57h2.28a1.58,1.58,0,1,0,0-3.15Zm1-26.1H32V1.58a1.58,1.58,0,1,0-3.15,0V3.15H21.68V1.58a1.58,1.58,0,1,0-3.15,0V3.15h-7.1V1.58a1.58,1.58,0,1,0-3.15,0V3.15h-2A6.32,6.32,0,0,0,0,9.46v24.6a6.32,6.32,0,0,0,6.31,6.31H18.37a1.58,1.58,0,0,0,0-3.16H6.31a3.16,3.16,0,0,1-3.16-3.15V9.46A3.16,3.16,0,0,1,6.31,6.31h2V7.88a1.58,1.58,0,1,0,3.15,0V6.31h7.1V7.88a1.58,1.58,0,1,0,3.15,0V6.31h7.18V7.88a1.58,1.58,0,1,0,3.15,0V6.31h2.05a3.15,3.15,0,0,1,3.15,3.15v9a1.58,1.58,0,0,0,3.16,0v-9A6.32,6.32,0,0,0,34.06,3.15Z"></path></svg>