<svg xmlns="http://www.w3.org/2000/svg" id="Layer_1" data-name="Layer 1" viewBox="0 0 240.12 63.99"><defs><style>.cls-1{fill:#fff;}</style></defs><path class="cls-1" d="M219.9,50.31l-.35.07-.35.11-.34.13-.32.15-.32.18-.3.2-.29.21-.26.25-.24.25-.22.27-.19.3-.15.3-.13.32-.09.32-.06.34v.36l0,.36.07.36.12.38.09.19.09.18.1.18.12.18.12.16.12.16.13.16.14.16.14.16.14.16.14.15.14.16.14.14.15.16.14.16.13.16.13.17.12.17.12.17.1.18.13.25.09.25,0,.25,0,.24v.24l0,.23-.05.22-.07.22-.1.22-.12.19-.14.18-.17.17-.16.15-.2.15-.21.12-.22.1-.24.09-.24.06-.26,0-.26,0-.26,0-.26,0-.23-.06-.23-.06-.21-.09-.2-.11-.19-.1-.2-.12-.17-.13-.17-.13-.16-.13-.17-.13-.15-.13-.14-.12-.15-.1-.13-.1-.14-.08-.14-.07-.13,0-.13,0-.27,0-.21.13-.14.2-.1.2-.08.2-.05.18,0,.17v.17l0,.16.05.16.07.15.09.14.12.13.12.12.14.13.15.12.16.11.17.11.19.1.18.09.19.1.19.09.3.13.3.1.3.1.3.09.31.07.3.06.32,0,.31,0h.61l.3,0,.31,0,.3,0,.29-.09.3-.09.29-.12.28-.14.28-.15.27-.18.27-.2.28-.25.24-.25.23-.26.19-.29.16-.28.15-.29.11-.31.09-.3,0-.31,0-.31v-.32l0-.31,0-.32-.08-.31-.09-.32-.13-.31-.14-.31-.17-.3-.2-.3-.22-.29-.11-.12-.12-.13-.12-.13-.12-.12-.13-.13-.14-.14-.13-.14-.12-.14-.13-.15-.12-.14-.12-.15-.11-.15-.09-.16L219,54.7l-.08-.16-.06-.17,0-.17,0-.18v-.36l0-.17,0-.16.07-.16L219,53l.1-.13.09-.12.12-.11.13-.1.14-.09.15-.08.15-.06.16-.06.16,0,.17,0,.16,0h.34l.16,0,.16,0,.17,0,.26.1.24.12.24.16.23.17.21.19.21.17.21.19.1.08.1,0,.09,0,.1,0h.19l.09,0,.09,0,.09,0,.08-.05.08-.06.08-.07.07-.07.07-.08.06-.08.05-.1,0-.1.05-.09.07-.23v-.22l0-.22-.1-.2-.14-.2-.18-.19-.23-.17-.25-.16-.27-.16L223,50.9l-.3-.13-.31-.11-.32-.11-.32-.08-.3-.08-.28-.06-.27,0-.25,0h-.22l-.18,0Zm-14.52,6.48.22-.39.24-.42.28-.4.3-.41.33-.39.35-.38.38-.37.4-.35.41-.32.43-.29.44-.27.46-.23.46-.19.46-.14.47-.1.47,0,.47,0,.47.07.46.12.25.1.2.12.18.12.15.13.15.14.12.13.11.15.12.16.12.16.13.17.14.16.16.17.17.15.18,0,.26-.07.15-.08.15-.14.14-.2.13-.2.1-.21.06-.21,0-.17v-.14l0-.15,0-.14-.06-.13-.08-.14-.08-.13-.1-.13-.11-.12-.12-.12-.13-.11-.14-.11-.13-.11-.14-.09-.15-.09-.14-.09L214.5,51l-.14-.07-.13-.07-.12-.06-.12-.05-.6-.23-.6-.15-.61-.09-.62,0-.62,0-.62.09-.61.14-.6.18-.6.24-.58.28-.56.32-.55.35-.52.38-.49.42-.47.44-.44.47-.4.48-.37.5-.32.51-.28.53-.16.35-.15.37-.14.37-.13.39-.12.39-.09.41-.08.4,0,.4,0,.4v.4l0,.41,0,.39.08.39.11.37.15.36.19.34.21.33.27.32.3.29.36.26.26.17.29.16.33.14.36.13.37.13.4.09.41.09.42.06.41,0h.82l.4,0,.38-.07.36-.11.33-.14.31-.18.26-.23.23-.26.17-.32.13-.36,0-.21v-.12l-.09-.07-.15,0-.17,0h-.34l-.18,0-.18,0-.18,0-.18,0-.18,0-.18,0L209,62l-.19.05-.18,0-.18,0-.18,0h-.54l-.39-.06L207,62l-.33-.13-.3-.14-.28-.17-.24-.19-.22-.22-.19-.24-.16-.24-.13-.27-.11-.29-.08-.29-.06-.31,0-.32v-.33l0-.34,0-.33.08-.34.09-.34.13-.35Zm-10.64,1.7-.09.13-.12.07-.12,0-.14,0-.12-.07-.1-.11-.08-.13-3.7-7.52-.07-.11-.06-.09-.07-.08-.08-.05-.08,0-.08,0h-.16l-.08,0-.09,0-.08,0-.08,0-.08,0-.07.07-.07.07-.07.08-.06.09-.06.09L183,61.66l-.18.36-.18.4-.11.38V63l0,.12.07.07.14.06.21,0h.12l.12,0H184l.15,0,.14-.05.14,0,.13,0,.12-.06.1-.08.1-.1.07-.1,4.16-7.46.11-.12.15,0,.16,0,.11.12,3.76,7.53,0,.09.06.09.07.08.06.08.07.06.08.05.07,0,.08,0,.08,0h.16l.08,0,.08,0,.08,0,.08,0,.07-.06.07-.07.07-.09.06-.1,6.61-12,.07-.15,0-.12,0-.09-.1-.1-.17-.1L201,50.4l-.11,0-.13,0-.13,0-.13,0h-.26l-.13,0-.14,0-.13,0-.13,0-.12,0-.13,0-.11.07-.12.07-.1.07-.1.09-.08.08-.07.1-.07.1Zm1.59,3.87-.07.14,0,.14v.13l0,.11.06.11.08.09.13.07.15.05.11,0,.11,0h.73l.12,0,.12,0,.12,0,.11,0,.11,0,.1-.06.09-.07.09-.07.07-.1.07-.1L205,51.21l.08-.21,0-.19L205,50.6l-.13-.13-.12-.07-.12-.06-.13,0-.13,0-.14,0h-.28l-.14,0-.14,0-.13,0-.14,0-.13.06-.12.07-.12.07-.1.09-.11.08-.1.1-.09.11-.08.1-.07.11Zm-47.08-.48,0-.16-.09-.18-.15-.13-.17,0L147,61.9l-.31.07-.3,0h-.3l-.29,0-.29-.06-.29-.08-.27-.11-.26-.13-.24-.16-.24-.17-.21-.19-.18-.22-.18-.23-.14-.25-.11-.26-.1-.28,0-.29,0-.29V59l0-.31.08-.4.12-.4.14-.39.16-.38.18-.39.19-.36.22-.36.24-.36.25-.34.27-.33.29-.32.29-.3L146,54l.33-.28.34-.24.35-.23.35-.22.37-.2.37-.16.38-.15.25-.08.25-.06.26-.07.25,0,.25,0,.25,0h.25l.25,0,.24,0,.23,0,.23.06.22.08.22.11.2.11.2.14.18.17.17.18.17.21.14.24.13.25L153,54l.23.08h.24l.19-.13.29-.38.22-.35.13-.34.06-.32v-.3l-.08-.28-.12-.25-.17-.24-.21-.21-.27-.2-.29-.18-.31-.16-.35-.13-.35-.12-.36-.1-.37-.06-.37-.06-.36,0-.34,0h-.32l-.46,0-.46.06-.45.08-.43.12-.43.13-.42.15L147,51l-.4.19-.39.22-.38.22-.37.26-.35.26-.35.28-.34.3-.32.31-.31.32-.3.34-.3.35-.27.36-.27.37-.23.34-.21.35-.21.37-.2.38-.18.39-.16.39-.15.41-.13.41-.1.41-.07.42,0,.42,0,.41,0,.41,0,.41.08.39.13.4.16.38.21.37.26.36.3.34.18.17.2.15.21.15.21.13.22.1.23.1.23.09.24.07.24.06.25,0,.25,0,.25,0h.26l.25,0h1l.24,0,.24,0h.33l.18,0,.19,0,.19,0,.18,0,.17-.07.15-.1.13-.1.11-.14Zm7.59-11.56h-.25l-.19,0-.14,0-.11,0-.09.08-.07.11-.08.15-.4.9-.09.22,0,.13,0,.09.12,0,.18,0,1.62.11.25,0,.11.09,0,.21,0,.33-.1.32-4.68,8.06-.24.48-.21.51-.09.29v.17l.14.11.28.07.11,0,.12,0,.11,0h.37l.12,0h.12l.12,0,.11,0,.12,0,.11,0,.1-.06.1-.06.09-.07.09-.08.07-.09.07-.11,5.22-9,.28-.39.32-.37.2-.17.24-.08.21,0,.21,0h1.35l.17,0,.17,0,.16,0,.15-.07.15-.09.14-.12.13-.13.12-.16.11-.19.09-.22.09-.27,0-.2,0-.16-.11-.1-.23-.09-.46-.09-.51,0h-.49Zm-19,0h-.13l-.12,0-.1,0-.09,0-.1.09-.09.12-.1.16L137,51l-.15.26-6.2,11-.07.16,0,.12,0,.1.09.11.16.13L131,63l.15.06,5.14-.07h.12l.12,0,.12,0,.12,0,.12-.06.11-.08.1-.09.1-.09.1-.1.08-.11.08-.11.05-.11.06-.11,0-.13,0-.11,0-.24-.05-.15-.15-.09-.23,0-2.72-.11-.14-.05-.1-.12-.06-.17,0-.17,0-.17.05-.14L135.52,58l.15-.27.12-.16.12-.1.13,0h.17l3.54-.05.14,0,.14-.08.14-.12.14-.16.13-.17.12-.18.1-.17.07-.16,0-.13,0-.19v-.12l-.1-.1-.18-.1-.19-.07-.21,0-.23,0-.24,0h-1.56l-.25,0-.21,0-.19,0-.09-.08V55.2l0-.25,0-.11,0-.12,0-.14.07-.15.08-.16.09-.17.09-.18.09-.19.11-.18.12-.18.11-.17.13-.17.12-.16.12-.15.12-.13.13-.11.12-.09.12-.08.12,0h.11l3.21,0,.14,0,.12,0,.13-.06.11-.07.11-.1.1-.1.1-.11.08-.12.08-.12.06-.13.06-.13.06-.13,0-.13,0-.11,0-.19-.05-.12-.16-.12-.28-.11-.33,0-.31,0ZM123.4,62.15l-.07.14,0,.14v.13l0,.12.07.1.1.09.11.06.13,0h.15l4.65,0h.16l.14,0,.14-.07.12-.09.12-.1.11-.12.1-.12.09-.13.09-.14.07-.13.06-.13.07-.27,0-.19-.14-.19-.15-.07-2.25-.12-.15,0L127,61l-.07-.11,0-.13v-.15l0-.15,0-.15.05-.14.06-.12,5.06-8.7.06-.16.06-.15,0-.18v-.17l-.06-.13-.14-.11-.12,0-.12,0-.13,0-.13,0-.13,0-.14,0h-.42l-.13,0-.14,0-.13,0-.13,0-.12.06-.12.06-.11.07-.1.09-.09.09-.09.1-.07.12Zm-1.08-11.83h-.13l-.11,0-.1,0-.09.07-.1.12-.11.16-.13.21-.14.26-6.15,11-.07.13,0,.12v.21l0,.09,0,.08,0,.07.08.06.08,0,.1,0h.11l.12,0h.13l5.46-.07.16,0,.14-.05.13-.08.12-.1.11-.12.1-.13.07-.15.08-.15.06-.14.05-.13,0-.14v-.14l-.05-.12-.06-.11-.09-.1-.11-.06-.13-.05h-.15l-2.57,0H119l-.13-.06-.1-.13,0-.06-.08-.15,0-.17.13-.27,1-1.81.08-.15.11-.18.12-.19.15-.19.15-.17.17-.14.17-.11.18,0,3.53,0,.16,0,.16-.08.14-.1.14-.12.12-.15.11-.15.09-.17.07-.15,0-.15,0-.15V56l0-.15-.1-.12-.14-.08-.17,0-2.73-.06-.15,0-.11-.06-.08-.07-.06-.1,0-.11,0-.12v-.12l0-.13,0-.12.06-.11,1-1.8.12-.2.11-.14.11-.1.13,0,.16,0H124l3.7,0,.15-.06L128,52l.18-.22.17-.23.15-.24.11-.21.06-.15,0-.16,0-.13-.07-.11-.1-.09-.11-.08-.14-.06-.14,0-.15,0h-.15Zm-12.85,0h-.14l-.14,0-.12.08-.12.09-.11.11-.1.12-.1.14-.08.14-.07.15-.07.13,0,.14,0,.12-.06.23V52l0,.08.08.05.15,0,1.86.15.21.05.14.18,0,0,0,.17,0,.19-.17.32-5.08,9-.11.21v.15l.06.15.05.09.1.13.13.06.2,0,1.12,0h.16l.13,0,.11,0,.1-.08.1-.11.1-.16.13-.22L113.22,53l.16-.22.17-.18.18-.14.21-.1.21-.06.22-.05.23,0h1l.23,0,.23,0,.22-.06.21-.09.19-.12.19-.17.15-.21.15-.26.13-.31,0-.24,0-.14-.11-.07-.29-.07-.16-.06-.16,0Zm-50.25,12-.06.16,0,.13,0,.13,0,.1.09.08.11.07.13.05H61l.13,0,.12-.08.12-.16.14-.23L64.16,58l.13-.22.12-.17.1-.1.11-.06.12,0h.16l3.72,0,.33.06.33.09.25.09.09.11v.2l-.08.34-.13.35-.17.3-1.95,3.36-.07.16,0,.16,0,.16.07.13.12.1.17,0h.12l.12,0h.43l.15,0h.29l.15,0L69,63l.13-.05.12-.07.11-.08.09-.09.08-.1,6.66-11.49.06-.14,0-.12V50.7l0-.11-.07-.1-.08-.08-.1-.07-.11-.05-.13,0H75.6l-1,0h-.17l-.14,0-.1.05-.11.1-.1.14-.13.21-2.35,4.06L71.4,55l-.2.19-.22.19-.24.12-.21,0-4,0-.23,0-.17-.13-.06-.19v-.29l.1-.34.16-.32,1.88-3.17.09-.23,0-.21-.14-.14-.25-.11-.12,0-.12,0-.12,0-.13,0h-.48l-.12,0-.12,0-.11,0-.12,0-.1,0-.11.05-.1.07-.09.07-.09.08-.08.09-.08.11-.07.11Zm33.34-.6-.21.22-.19.25-.14.27,0,.18.08.11.24.07.12,0,.15,0h.17l.19,0h.63l.22,0,.2,0,.2,0,.17,0,.16,0,.13-.07.1-.07,2.16-2,.17-.14.16-.09.2,0h.3l3,0H101l.18,0,.16.06.13.09.11.14.08.17,0,.08v.48l0,.12v.72l0,.14,0,.12,0,.11,0,.1.06.08.08.07.1,0,.13,0h.15l1-.08.19,0,.14,0,.09-.06.07-.11,0-.14,0-.2,1.83-11.45V50.6l0-.12-.07-.1-.08-.07-.1,0-.11,0h-.12l-.12,0-.12,0-.11.06-.11.08Zm7.18-3.2-.12-.16,0-.2.09-.16,2-1.94.11-.11.12-.09.13-.07.12,0h.11l.09.05.06.1v.42l0,.27,0,.28,0,.29,0,.29-.07.28-.08.24-.11.21-.17.18-.22.15-.24.06-1.47,0Zm-29.38,4-.11.17,0,.2.13.17.19,0,1.78,0,.21,0,.18-.08.24-.21,2.21-2,.2-.15.18-.08h.28l3.22,0,.32.08.28.19.13.2.07.23-.17,1.29v.27l0,.1,0,.08,0,0,.06.05L80,63h1.62l.14,0,.09-.06.07-.11,0-.16,0-.22,1.88-11.29,0-.12v-.27l0-.13,0-.12-.05-.1-.08-.08-.1-.06-.13,0-.16,0-.16.08-.15.1-.33.26-.32.26ZM78,58.21l.07-.08.16-.21.17-.2.17-.2.19-.21.18-.2.2-.2.21-.19.21-.18.21-.17.21-.15.21-.14.21-.12.1,0,.09.09,0,.14v.25l0,.25v.24l0,.23,0,.22,0,.21,0,.21-.06.19-.07.17-.09.15-.1.14-.11.12-.14.1-.14.09-.18.06-.22,0h-.48l-.28,0-.31-.07L78,58.66l-.12-.08,0-.11,0-.18Zm101.45-7.93-.52,0-.51.08-.52.12-.51.14-.5.17-.5.2-.48.22-.48.24-.47.27-.44.3-.43.3-.42.34-.39.35-.37.37-.35.4-.33.4-.29.42-.27.44-.23.45-.28.65-.24.65-.16.63-.1.62-.06.61v.59l.07.56.12.54.19.51.23.49.29.45.35.4.4.38.44.34.5.28.55.23.6.2.65.13.69.08.75,0,.51,0,.52-.08.52-.12.52-.15.52-.19.51-.24.51-.25.49-.3.48-.32.47-.35.45-.36.41-.4.41-.42.37-.42.35-.45.31-.45.28-.48.24-.47.2-.49.16-.48.13-.55.1-.56.08-.54,0-.54v-.51l0-.51-.09-.49-.12-.47-.16-.43-.21-.42-.24-.39-.3-.36-.32-.32-.38-.29-.41-.25-.47-.2-.5-.17-.55-.12-.6-.07-.64,0Zm-1,2,.39-.08.38,0,.38,0,.38,0,.36.06.35.09.32.12.32.16.29.18.26.21.24.24.22.27.18.28.15.32.11.34.08.37,0,.39v.42l-.06.43-.07.34-.1.34-.13.35-.13.35-.17.33-.19.35-.19.32-.22.32-.22.32-.25.3-.26.3-.27.27-.28.27-.29.26-.3.23-.31.23-.31.2-.32.19-.32.16-.32.14-.38.15-.39.11L177,62l-.4.06-.4,0h-.4L175.4,62l-.37-.07-.37-.1-.34-.14-.32-.17-.28-.19-.27-.23-.22-.26-.19-.3-.14-.33-.1-.36,0-.4V59l.07-.46.09-.41.11-.42.13-.4.16-.39.18-.39.18-.37.22-.36.23-.36.24-.34.26-.33.28-.31.29-.31.31-.28.32-.26.34-.26.36-.22.35-.22.38-.2.39-.17.4-.16ZM158.91,62l-.14.29-.14.34,0,.33,0,.18.09.1.22.07.11,0,.11,0,.11,0h.48l.12,0,.12,0,.11,0,.12,0,.1-.05.11-.06.1-.06.09-.07.08-.08.08-.09.06-.1,2.24-3.86.08-.12.08-.09.08-.08.09,0,.09,0h.17l.09,0,.07.05.07.07.06.09.05.11,0,.13.93,3.7.12.23.19.2.22.12.22.08.24,0,.26,0,.27,0,.24,0,.23-.07.16-.1.11-.16.08-.2v-.17l-.78-3.34-.05-.22v-.15l0-.12.07-.08.12-.08.18-.06,1.5-.49.36-.13.35-.19.34-.21.32-.27L170,57l.29-.32.26-.34.25-.36.22-.38.18-.39.15-.4.11-.41.08-.4,0-.4,0-.4-.07-.39-.1-.39-.16-.35-.23-.35-.28-.32-.11-.1-.12-.1-.13-.1-.14-.09-.14-.08-.14-.08-.16-.07-.16-.07-.15-.06-.16-.05-.16,0-.16,0-.16,0-.15,0h-.16l-2.57,0h-.23l-.17,0-.12.06-.11.12-.12.2Zm9.19-9.46h.17l.15,0,.14.05.12.07.1.09.11.1L169,53l.07.12.05.13,0,.14,0,.15V54l0,.15,0,.15,0,.14,0,.13,0,.13-.06.11-.13.22-.13.19-.15.19-.14.17-.16.16-.17.17-.17.14-.18.12-.19.13-.19.1-.2.09-.21.08-.21.08-.21,0-.22,0-.23,0h-.46l-.24,0-.24,0-.15,0-.11-.1-.07-.14-.05-.15v-.17l0-.16.07-.15,1.83-3,.11-.16.14-.07.23,0ZM82.89,62.26l0,.12,0,.13v.13l0,.12.05.11.07.09L83,63l.12,0h1.32l.14,0,.12-.06.11-.09.1-.13.12-.19,2.27-3.89.08-.12.08-.09.09-.06.09-.05.09,0h.09l.09,0,.09,0,.07.06.08.07.06.09.07.1,0,.11,0,.12.86,3.59.06.19,0,.13.07.09.11.05.14,0h1.17L91,63l.1,0,.1-.06.08-.08.06-.11.06-.11,0-.11,0-.13,0-.13V62l0-.11,0-.11,0-.09-.09-.14-.07-.15-.08-.15-.08-.16L91,60.92l-.06-.17-.06-.18-.06-.17,0-.18,0-.18,0-.18,0-.18,0-.18,0-.18,0-.18v-.5l0-.2.07-.12.16-.11.38-.18.41-.13.4-.11.4-.14.23-.1.21-.1.23-.12.2-.13.21-.13.2-.13.19-.15.18-.16.18-.15.17-.18.16-.17L94.7,56l.15-.19.15-.19.13-.21.13-.2.11-.21.12-.22.1-.23.1-.23.08-.24.06-.24,0-.26,0-.25v-.54l0-.26,0-.26L95.75,52l-.09-.25-.11-.23-.12-.21-.14-.2-.18-.19-.17-.16-.2-.14-.22-.12-.24-.08L94,50.33l-.28,0-3.37-.06-.23,0-.26.12-.24.17-.16.18Zm7.8-9.4.1-.15.12-.14.14-.11.15-.09.16-.08.17-.06.18-.06.18,0h.37l.18,0,.18,0,.17.06.16.07.16.1.14.11.12.11.1.16.08.15.07.18,0,.28v.26l0,.26-.1.26-.13.26-.17.24L93,55l-.22.22-.24.21-.26.21-.28.18-.29.16-.3.14-.3.11-.3.1-.29.06-.29,0H90l-.26,0-.24-.06-.15-.09-.11-.12-.08-.15,0-.16v-.17l.07-.16ZM59.58,57.09V57l.09-.13.16-.16L61.62,55l.18-.17.15-.2.13-.21.12-.22.1-.23.08-.24,0-.25,0-.26,0-.25v-.25l0-.25,0-.25L62.34,52l-.08-.23-.1-.22L62,51.36l-.15-.19L61.71,51l-.19-.15-.22-.14-.16-.08L61,50.56l-.16-.07-.18,0-.17-.05-.18,0-.18,0h-.2l-.18,0-.19,0H56.91l-.14,0-.13,0-.13,0-.13,0-.12.06-.11.06-.1.07-.09.08-.08.11-.08.11-6.53,11.5-.11.24v.17l.11.17.15.09.33.08.32,0,6.1-.07.27,0,.28-.05.29-.1.29-.11.3-.15.29-.17.28-.19.28-.23.27-.23.26-.24.24-.28.21-.27.19-.28.17-.3.14-.3.1-.3.07-.3,0-.3V59l-.06-.28-.43-1.44ZM54.15,58l.11-.16.14-.14.14-.11.18-.09.18-.07.2,0,.21,0h.22l.22,0,.21,0,.22.05.21.06.21.08.2.09.19.11.18.11.15.12.14.13.12.14.1.14.06.13,0,.15,0,.15,0,.16v.16l0,.16,0,.16,0,.16,0,.15-.07.15-.06.13-.08.11-.16.19-.18.17-.18.16-.19.14-.21.12-.2.1-.22.1-.21.07-.24.07-.23.06-.23,0-.24,0-.24,0H54l-.24,0-.25,0-.24,0-.25,0-.23-.08-.15-.14V61l0-.37v-.09l0-.08ZM58,52.27l.19,0h.36l.17,0,.17,0,.17,0,.16.07.14.08.12.09.12.11.1.12.09.12.06.14,0,.15,0,.15v.18l0,.18-.06.19-.09.19-.1.18-.11.16-.13.16-.12.13-.14.13L59,55l-.16.1-.17.1-.17.07-.17.07-.19.06-.18.05-.19,0-.19,0H57l-.19,0-.19,0-.19,0-.19,0-.11-.05L56,55.24v-.33l0-.1,0-.12,0-.13.06-.15.07-.15.08-.15.09-.17.09-.16.1-.16.11-.17.11-.17.11-.15.12-.15.11-.14.12-.14.1-.11.11-.1.1-.07.1-.06.09,0ZM84.42,29.84l.15.06.17.19,0,.19-.08.3-.12.32-.14.3-5.31,9.37-.07.16v.15l0,.14.08.12.12.09.14.05.11,0,.13,0h.72l.11,0,.12,0,.11,0,.11,0,.11-.05.1-.06.1-.06.09-.07.08-.08.08-.09.08-.1.06-.1,5.85-10.23.14-.23.12-.15.11-.08.14,0,.19,0,5.29-.08.33,0,.33.09.17.1.14.14.08.1.06.11.06.12,0,.12,0,.13v.52l0,.15,0,.13,0,.14,0,.13,0,.13,0,.13,0,.13,0,.12,0,.12,0,.11-.09.27-.11.24-.12.24-.14.23-.14.22-.16.2-.18.19-.19.19-.19.16-.21.15-.21.15-.22.12-.24.12-.24.09-.25.08-.25.06-.26,0-.27,0h-.54l-.31,0-.36,0-.34-.06-.33-.07L88.65,35l-2.09-1.15-.18-.08h-.12l-.13.11h0L86,34l0,.12,0,.19.1.29,1.13,2.93.28.44.46.65.33.44.19.22.19.19.19.19.18.18.19.17.19.15.18.14.2.13.19.13.2.11.2.1.21.1.22.08.22.07.23.08.24.06.24,0,.27.05.28,0,.28,0,.18,0,.18,0h.84l.16,0,.16,0,.14,0,.14-.05.12-.06.13-.08.12-.09.11-.12.1-.12.1-.14.08-.16.07-.17.07-.21,0-.19,0-.13-.12-.08L95,39.54l-.38-.07h-.41l-.41,0-.41,0-.19,0-.19,0-.18,0-.19,0-.19,0-.18,0-.19-.06-.19-.07-.17-.07L91.55,39l-.17-.09-.16-.1-.17-.09-.14-.12-.15-.13-.13-.13-.13-.15L90.38,38l-.1-.16-.09-.18-.06-.2.06-.19.15-.1.29,0,.35,0,.34,0,.35-.06L92,37l.33-.08.33-.1.32-.09.31-.13.3-.12.3-.16.28-.15.27-.19.27-.19.25-.22.25-.23.22-.25.21-.26.2-.29.19-.31.17-.32.14-.3.15-.32.12-.33.11-.33,0-.34.15-1.92v-.12l0-.11,0-.08L97,30l0-.06,0-.05.07,0,.07,0,.09,0,.11,0,.13,0h.52l12.68.07.16,0,.14.07.11.12.08.15,0,.16,0,.15-.74,1.29-.11.19-.13.11-.16.05-.26,0-7.07.11-.52,0-.52.1-.54.17-.53.21-.51.26-.51.31-.49.35-.46.4-.43.42-.39.46-.34.46L97.2,36l-.24.51-.18.52-.12.53,0,.55,0,.53.12.54.21.52.3.5.18.23.23.2.25.19.28.16.31.14.33.12.33.1.36.07.36,0h.71l.34,0,.34-.08.31-.09.3-.14.26-.16.23-.19.2-.24.16-.27.11-.31,0-.23,0-.16-.12-.11-.21-.06-.13,0h-.27l-.14,0h-.29l-.14,0-.15,0h-.15l-.14,0h-.57l-.14,0-.13,0-.14,0-.12-.06-.12-.08-.11-.1-.26-.29-.18-.32-.11-.31,0-.31,0-.33.09-.32.13-.31.19-.32.23-.29.25-.29.3-.27.31-.27.34-.23.33-.22.35-.18.36-.17.34-.13.34-.1.32-.06.3,0,4.65-.07h.26l.15.06.12.16,0,.16,0,.27-.08.29-.11.25-2.87,5-.06.17v.16l0,.14.1.11.13.08.17.06.11,0h.11l.11,0H107l.12,0,.12,0,.12,0,.11,0,.11,0,.11-.07.1-.06.09-.07.08-.08.07-.09.07-.1,5.66-10.06.07-.12.09-.12.1-.1.11-.08.11-.09.12-.08.12-.06.13-.06.12-.06.12-.06.12-.05.12-.05.11,0,.11-.07.09-.06.08-.06.08-.07.07-.07,0-.09,0-.09,0-.22-.07-.16-.13-.12-.19,0L78,28.52l-.27.06-.27.17-.21.18-.08.11-.06.12,0,.12v.12l0,.11.06.09.09.07.13.06.16,0,2.08.06.15,0,.11,0,.09.05L80,30l0,.08,0,.09,0,.1v.21l0,.11,0,.11,0,.11,0,.1L79.9,31l-1.64,2.89-.14.15-.2.12-.23.06-.23,0h-.2l-.24,0-.11-.09-.06-.2,0-.25,0-.24v-.46l0-.21,0-.21,0-.21,0-.21,0-.2v-.6l0-.21-.06-.21-.07-.22-.1-.23-.13-.24L76.34,30l-.21-.26-.24-.28-.3-.26-.33-.23-.38-.21-.4-.16L74,28.42l-.44-.1-.46-.06-.47,0h-.49l-.47.05-.46.08-.45.12-.42.15-.4.2-.36.23-.34.27-.28.31-.24.34-.18.4-.12.42,0,.19v.54l0,.19,0,.16,0,.17.06.16.08.15.08.15.1.15.1.13.13.13.12.12.14.11.14.1.17.09.16.08.17.07.18.06.15,0,.15,0,.16,0h.65l.16,0,.14,0,.15,0,.14,0,.13-.07.11-.09.11-.09.1-.11.08-.12.07-.14,0-.17,0-.17v-.19l0-.21-.15-.08L71.9,32l-.49-.1-.15-.08-.15-.11L71,31.53l-.08-.14,0-.14,0-.14,0-.12.06-.13.07-.12.1-.11.11-.1.14-.1.13-.09.15-.08.16-.07.16-.07.16-.05.16,0,.16,0,.14,0h.26l.2,0,.19,0,.17.06.16.07.16.08.14.09.14.09.12.11.12.12.1.13.09.14.09.14.06.16.06.16,0,.16,0,.17,0,.18v.78l0,.11,0,.12,0,.12,0,.11,0,.12,0,.12,0,.12,0,.11-.06.11-.07.09-.07.09L74.2,34l-.08.07-.1.07-.1,0-.11,0-.12,0h-.13l-5.45.09-.53,0-.51.11-.48.17-.46.22-.44.28-.41.33-.37.35-.34.39-.28.41-.24.43-.19.44-.14.44-.08.45v.44l.06.43.12.39.21.38.28.35.36.31.46.26.4.17.42.14.41.1.42.08.42,0h.43l.43,0,.42,0,.42-.08.42-.11.42-.12.41-.16.39-.17.39-.19.39-.21.37-.22.37-.24.34-.25.33-.27.32-.27.11-.1.13-.13.13-.16.14-.17.16-.18.16-.2L74,38l.17-.2.18-.21.17-.2.17-.2L74.9,37l.18-.17.17-.16.17-.15.15-.12.16-.09.15-.07.15,0h.13l.16,0,.12.06.11.06.06.09,0,.11v.12l0,.15-.06.15-2,3.54-.1.26V41l.14.18.19.09.16,0h.15l.15,0h.28l.13,0,.13,0,.13,0,.12,0,.12,0,.11-.06.11-.07.11-.07.1-.09.1-.09.08-.1.1-.12.09-.12.09-.12.08-.14,5.69-10,.11-.17L83,29.9l.16,0,.25,0Zm-12.6,6.23H72l.13.06.11.09.06.12,0,.13,0,.15-.06.15-.14.21-.17.24-.21.24-.24.25-.27.24-.29.24-.3.24-.32.23-.34.21-.35.19-.35.18-.35.14-.35.12-.34.07-.34.05h-.32l-.31,0L67,39.48l-.28-.16-.23-.22-.14-.19-.12-.19-.07-.2,0-.2v-.2l0-.2,0-.2.08-.2.11-.18.12-.19.13-.18.16-.15.17-.15.18-.15.19-.11.2-.1.2-.08.2-.07.21,0h.2ZM188.56,24.91h-.31l-.16,0-.17,0-.17.05-.19.05-.19.06-.18.07-.19.08-.17.09-.18.09-.17.09-.17.11-.17.1-.15.11-.14.11-.14.12-.12.11-.1.12-.09.12-1,1.45-.13.18-.11.13-.1.09-.11.06-.14,0-.16,0h-.21l-34.35,0h-.21l-.17,0-.14,0-.12-.07-.1-.09-.11-.14-.13-.17-1.53-2.18-.16-.19-.13-.11-.18,0h-1.56l-.16,0-.11.07-.08.11,0,.13,0,.14,0,.14.05.14.21.33.23.31.24.31.22.31.19.34,0,.15V28l0,.12-.06.09-.08.07-.09,0-.12.05-.12,0-.13,0h-.14l-24.08-.21-.26.07-.26.17-.2.19-.08.12,0,.12v.21l0,.09,0,.08.07.07.09.05.1.05.11,0,.12,0h.13l6.75.07.32,0,.16.07.09.18,0,.24-.08.33-.17.32-.08.11-.12.09-.23,0-.28,0-.32-.05-.33-.08-.33-.09-.31-.08-.26,0-.38-.05-.39,0-.4,0-.42,0-.42,0h-.85l-.43,0-.42.05-.41.07-.4.09-.4.12-.38.14-.36.17-.34.21-.32.23-.29.27-.26.31-.24.33-.2.39-.2.51-.07.44v.4l.1.33.19.29.25.24.32.2.36.18.41.14.45.11.46.09.49.07.48.05.49,0,.48,0,.46,0,.42,0,.38,0,.34.06.29.08.15.06.13.07.12.09.1.1.08.1.07.11.06.12,0,.12,0,.14v.27l0,.13,0,.14-.05.13-.06.13-.07.12-.08.12-.1.11-.1.1-.12.09-.23.11h-.2l-.16-.11-.16-.25-.22-.34-.25-.31-.28-.27-.31-.25-.33-.21-.36-.17-.36-.15-.39-.11-.39-.09-.41,0-.42,0h-.41l-.41,0-.4.06-.4.09-.39.11-.37.13-.36.16-.33.18-.32.22-.17.16-.13.2-.12.24-.09.24-.08.26,0,.22,0,.2,0,.18v.18l0,.18,0,.16,0,.16.06.16.08.15.1.15.1.13.11.13.12.13.13.12.13.11.15.11.15.1L117,41l.15.09.15.08.17.07.22.13.12.1.06.13v.2l-.07.41-.08.41,0,.22.07.13.11.09.21.06.36.08.31.06.28,0h.26l.22,0,.19,0,.16-.06.14-.07.14-.08.11-.11.11-.11.11-.11.11-.12.11-.13.11-.13.13-.12.14-.13.15-.12.17-.12.2-.1.4-.16.41-.15.42-.13.42-.13.42-.12.42-.13.4-.16.28-.12.27-.16.28-.17.26-.19.26-.23.24-.23.23-.26.22-.26.2-.28.17-.3.16-.29.14-.31.09-.31.07-.32,0-.32v-.32l0-.32-.07-.31-.12-.31-.16-.3-.23-.31-.25-.24-.29-.2-.31-.15-.32-.12-.34-.08-.35-.06-.36,0h-2.19l-.33,0-.32,0-.29-.06-.26-.09L121,34l-.2-.16-.12-.17,0-.2,0-.18.12-.19.18-.17.2-.14.21-.11.24-.09.23,0,.4,0,.24,0h.9l.22,0h1.29l.21,0,.23,0,.21,0,.21,0,.21,0,.2.06.21.06.19.08.21.09.18.11.19.12.08,0,.1.06.1,0,.12,0,.1.05.13,0,.12,0h.23l.11,0,.1,0,.1,0,.1-.08.08-.08.07-.11,1.6-3,.11-.2.1-.15.1-.11.1-.07.11,0,.14,0h.18l14.13,0h.14l.12,0,.12.05.09.08.08.09.06.09.05.11v.12l0,.13-.06.14-1.4,2.62-.1.14-.12.11-.13.09-.14,0h-.15l-.14,0-.13-.11-.25-.2-.25-.17-.26-.13-.26-.1-.28-.07-.28,0-.28,0h-.29l-.29,0-.29,0-.29.07-.29.07-.28.09-.29.09-.28.11-.28.1-.27.11-.26.11-.26.11-.25.11-.23,0-.22-.12-.32-.22-.3-.25-.31-.22-.33-.19-.36-.14-.54-.12-.55-.06h-.58l-.58.06-.58.1-.58.17-.57.2-.56.25-.52.3-.51.33-.47.37-.44.41-.37.44-.34.47-.27.49-.21.52-.14.54-.07.55,0,.58.11.58.1.32.16.3.18.29.23.28.25.26.28.23.3.21.32.19.32.16.34.12.34.08.33,0h.33l.31,0,.31-.09.28-.14.25-.19.23-.24.19-.31.15-.36.06-.24v-.15l-.12-.11-.19-.07-.3,0h-.61l-.3,0-.3-.06-.29-.13-.37-.3-.26-.32-.13-.37,0-.37.06-.4.15-.4.21-.4.28-.39.33-.36.36-.34.4-.31.42-.26.43-.22.43-.15.41-.1.4,0,.36.07.32.15.27.26.2.35,0,.16,0,.14v.27l0,.14,0,.13,0,.12-.06.12,0,.14-.07.12-.07.12-.07.12-.08.13-.06.12-.07.12,0,.12-.05.14,0,.13,0,.13v.14l0,.19.1.1.24.08.18,0,.21,0,.23,0,.24,0h.24l.24,0,.22,0,.2,0,.17-.08.15-.11.14-.11.13-.14.11-.14.11-.16.1-.17L138,37l.11-.17.1-.18.11-.18.1-.19.12-.17.13-.17.14-.18.15-.16.17-.15.18-.14.19-.14.23-.11L140,35l.2,0,.2-.06.21,0h.43l.2,0,.2,0,.19.06.18.08.16.09.15.11.13.12.11.14.08.15.06.17,0,.19v.19l0,.21-.07.23-.11.24-2,3.72-.07.22.08.22,0,.05.1.14.13.06h1.54l.15,0,.11-.08.12-.14.13-.23,5.88-10.47.12-.22.11-.16.1-.12.1-.09.11,0,.12,0h.16l6.74,0,.32.07.29.14.13.1,0,.12,0,.22-.05.22-.09.24-.12.22-.13.2-.15.19-.18.15-.15.08-.16,0h-.28l-.32,0-.36-.06-.37-.07-.37-.06-.37,0h-.34l-.28,0-.3,0-.29,0-.28.05-.29.06-.28.07-.28.07-.28.08-.28.11-.28.1-.27.11-.26.12-.27.14-.24.13-.26.15-.24.16-.24.16-.23.19-.23.18-.21.18-.2.2-.21.21-.21.23-.21.23-.2.25-.19.25-.19.28-.18.27-.16.28-.14.3-.12.28-.1.3-.07.3-.05.3,0,.3,0,.3.05.29.09.3.15.29.17.29.15.17.14.17.15.17.15.15.17.14.18.12.18.11.2.1.21.08.22.07.22,0,.23,0,.22,0h.67l.22,0,.22,0,.23,0,.22,0,.22,0,.22,0h.21l.12.08.06.11,0,.16V41l0,.15.06.09.11.06.17,0,.36,0h.33l.3,0,.27-.08.25-.11.22-.14.2-.17.18-.2.17-.21.15-.23.15-.25.14-.26.14-.26.12-.28.14-.27.15-.27.15-.27.15-.26.18-.24.19-.24.26-.29L156,37l.25-.25.25-.23.25-.21.24-.21.24-.18.24-.18.25-.15.25-.15.25-.14.26-.13.27-.13.27-.13.29-.11.3-.12.31-.12.32-.11.34-.12.36-.12.1-.05.09,0,.09-.06.1-.07.09-.08.09-.08.09-.1.08-.1.08-.11.07-.1.07-.12.06-.12.05-.11,0-.12,0-.12,0-.12,0-.11V32.4l-.06-.22-.18-.1-.25-.06-.31,0H161l-.3,0-.26.07-1.76.56h-.17l-.14-.1-.08-.16.05-.16,1.15-2.07.13-.23.12-.12.14-.05h.21l11.72,0H172l.3,0,.28.09.21.14.14.2,0,.23-.05.11,0,.11-.05.11-.07.1-.07.11-.06.09-.08.09-.09.07-.09.07-.1,0-.11.05-.11,0h-.24l-.13,0-.29-.06-.29-.05-.29-.05-.29,0-.3,0h-1.76l-.44,0-.44,0-.44.06-.44.08-.44.11-.44.12-.43.14-.42.16-.41.18-.4.21-.39.21-.36.25L163,33l-.33.28-.32.32-.28.34-.27.35-.24.38-.2.41-.19.43-.08.21L161,36l-.06.22-.06.23,0,.24,0,.23,0,.24,0,.23v.47l0,.23,0,.23.06.22.06.22L161,39l.09.21.12.21.13.2.14.19.18.2.2.19.21.17.22.15.24.15.24.14.24.12.24.11.26.11.25.12.24.11.15.09.09.1,0,.11v.11l-.05.1-.07.11-.1.11-.11.09-.1.09-.13.11-.09.11-.06.12,0,.1,0,.1.1.08.17.06.18,0,.18,0h.49l.15,0,.16,0,.14,0,.15,0,.15-.06.15,0,.15-.06.15-.06.16-.06.16-.06.16-.06.22-.08.13,0,.14.13.12.12.13.12.12.1.14.08.14.06.15,0,.16,0h.17l.19,0,.14,0,.14-.09.16-.25.06-.27,0-.3,0-.28.13-.25.23-.17.12-.08.13-.07.13-.06.12-.07.13-.07.12-.08.11-.08.12-.09.1-.08.11-.09.1-.09.09-.1.09-.12.08-.11.07-.12.06-.12.05-.15,0-.14,0-.15,0-.17v-.19l0-.12L170.9,39l-.12,0h-.19l-.54.08-.53.15-.53.13-.27,0-.28.05-.27,0-.27,0-.27,0-.27,0-.26,0h-.52l-.26,0-.26,0-.25,0-.26,0-.24-.07-.24-.09-.24-.1-.24-.12-.24-.15-.22-.16-.23-.2-.08-.09-.08-.09-.08-.09-.06-.1-.06-.1,0-.12,0-.11,0-.11,0-.12,0-.11v-.61l0-.13,0-.11,0-.12,0-.11,0-.12.17-.4.2-.37.23-.34.26-.3.3-.28.32-.25.34-.21.36-.2.38-.16.39-.14.41-.13.41-.1.42-.08.42-.07.42,0,.42,0h1.22l.39,0h.15l.16,0,.18,0,.18.06.2.05.19.06.21.06.2.05.22,0,.21,0,.2,0,.2,0,.19,0h.19l.17,0,.16,0,.15-.06.14-.08.12-.12.1-.14,1.55-2.77.17-.29.12-.2L176,30l.11-.07.12,0H178l.22,0,.14.17v0l.08.15v.16l-.11.21-5.49,10.11-.1.23,0,.14.07.16h0l.09.14.12.06h1.77l.11,0,.1,0,.09-.06.08-.1.08-.12.1-.16.12-.2,5.69-10.33.07-.13.09-.1.1-.08.11-.08.12-.06.12,0,.13,0,.14,0h.55l.13,0,.14.06.11.1.08.13,0,.15v.15l0,.17-.05.14-5.49,10.05-.08.2.09.22,0,.08.1.14.12.06h1.56l.13,0,.11,0,.1-.06.08-.09.08-.12.09-.15,6-10.88L186,30l.07-.09.09-.07.12,0,.15,0,.2,0h.58l12.52.06.2,0,.16.06.13.1.09.14,0,.18,0,.16,0,.16,0,.14-.05.16-.06.14-.08.14-.08.13-.09.13-.1.12-.11.11-.11.1-.12.11-.12.08-.13.08-.14.07-.14,0-.14.05-.15,0-.15,0h-.15l-8.83,0-.36,0-.36,0-.35.06-.35.08-.36.11-.33.13-.33.14-.33.17-.31.18-.31.21-.3.21-.28.24-.26.24-.26.27-.24.27-.22.29-.21.3-.17.31-.17.32-.14.33-.09.24-.08.25-.06.25,0,.27,0,.26,0,.28v.52l0,.28,0,.26.05.26.08.25.1.25.12.23.13.21.15.22.18.2.2.17.21.17L185,41l.33.16.34.14.35.11.38.09.38.06.38,0,.38,0H188l.38,0,.39-.06.38-.09.36-.1.37-.15.33-.16.33-.19.31-.22.29-.24.27-.27.23-.31.22-.32.08-.15.09-.15.1-.16.08-.17.09-.17.09-.18.09-.19.08-.18.07-.18.05-.2,0-.19,0-.19,0-.19v-.37l0-.19-.05-.18-.09-.17-.1-.17-.13-.16-.08-.06-.09-.06-.1-.05-.12,0-.14,0-.13,0-.15,0-.15,0h-.44l-.14,0-.13,0-.12,0-.11.07-.1.07-.08.08-.06.09,0,.11V37.2l0,.33-.09.34-.1.22-.11.19-.12.2-.14.17-.15.16-.16.15-.17.12-.18.12-.19.1-.2.07-.2.06-.2,0-.21,0h-.2l-.21,0-.21-.05-.2-.07-.19-.1-.19-.12-.18-.15-.11-.1-.09-.12-.07-.11-.07-.12-.05-.13,0-.13,0-.14,0-.13v-.42l0-.14v-.14l0-.14,0-.14.05-.13.05-.13.06-.13.06-.12.07-.11.14-.22.16-.21.17-.18.17-.19.19-.16.2-.14.2-.15.2-.12.22-.11.22-.11.23-.08.23-.08.24-.06.24-.06.24-.05.25,0,.25,0,.26,0h.5l6.26,0h.13l.12,0,.12,0,.11,0,.09.06.09.06.06.08.05.09,0,.1V35l0,.12-.06.13-2.88,5.41-.05.13,0,.14V41l0,.13,0,.11.08.1.11.08.15.05.11,0,.11,0H196l.13,0,.13,0,.13,0,.13,0,.12,0,.11-.06.11-.06.1-.07.09-.08.07-.09.07-.1L203,30.28l.12-.19.1-.12.11-.07.14,0,.22,0,8.34,0,.15.05.17.15.07.16,0,.25-.06.23-.08.2-.11.18-.13.14-.14.11-.16.1-.18.07-.18,0-.2,0-.21,0h-.64l-.22,0-.22,0-.23,0h-.21l-.2,0h-.39l-.34,0-.36,0-.37.05-.38.07-.4.09-.4.09-.41.11-.41.13-.41.14-.4.15-.4.17-.38.18-.38.19-.36.21-.34.22-.31.23-.3.25-.27.25-.24.27-.2.29-.19.29-.19.32-.18.33-.17.33-.15.36-.14.36-.12.35-.09.36-.07.37,0,.34v.35l0,.33.08.33.12.31.16.28.23.26.27.25.33.21.39.18.45.16.22,0,.21,0,.22,0,.19,0h.77l.18,0,.19,0,.18,0,.18,0,.18,0,.19,0,.19,0,.18,0,.2,0,.19,0,.2,0h.39l.11,0,.05.14,0,.24v.21l0,.13.07.09.14.06.19.05.12,0,.12,0h.14l.14,0h.59l.15,0,.15,0,.13,0,.14,0,.12-.07.11-.07.1-.08.08-.09.3-.46.28-.5.24-.51.27-.49.12-.2.13-.2.13-.19.14-.19.16-.19.15-.17.17-.19.16-.16.17-.17.18-.17.18-.15.19-.16.19-.15.19-.15.2-.15.19-.13.19-.13.2-.13.2-.13.2-.12.23-.13.25-.13.25-.11.27-.1.27-.1.27-.1.27-.1.27-.09.27-.11.26-.1.25-.11.24-.11.23-.13.21-.13.19-.14.18-.17.15-.17.13-.19.1-.21.06-.23,0-.24,0-.16-.11-.11-.22-.1-.15,0-.2,0h-.45l-.24,0-.25,0-.25,0-.25,0-.23.05-.21.06-.19.05-.15,0-1.2.49H214l-.13-.1-.08-.14,0-.14,1.4-2.52.12-.17.18-.16.2-.15.21-.11.2,0,10.11,0,.13,0,.12,0,.1.05.09.07.07.09.07.1,0,.11,0,.12,0,.12,0,.13v.12l0,.14v.53l0,.19,0,.18,0,.19-.06.18-.06.17-.07.18-.08.17-.08.16-.09.17-.1.16-.11.15-.11.15-.13.14-.11.14-.13.13-.14.14-.14.12-.15.11-.15.12-.2.13-.21.13-.21.12-.21.11-.21.1-.21.08-.23.08-.22.07-.23.06-.22,0-.23,0-.22,0h-.71l-.23,0-.23,0-.24,0-.23,0-.24-.07-.28-.1-.27-.14-.28-.15-.27-.15-.29-.14-.27-.11-.28-.05h-.19l-.13,0-.06.06,0,.11v.18l.07.33.11.36.15.35.15.34.14.3.16.34.16.32.17.33.18.32.19.33.19.31.21.31.21.3.22.29.24.28.24.27.27.24.27.23.28.23.3.19.31.18.33.15.34.13.36.1.37.08.23,0,.23,0,.24,0,.23,0,.22,0,.24,0h.44l.21,0,.2,0,.2-.05.2-.06.18-.09.18-.09.17-.12.15-.14.14-.18.14-.18.13-.23.11-.24.07-.26,0-.17-.13-.13-.24-.09-.16,0H225.1l-.28,0-.27,0-.27-.06-.25-.07-.26-.1-.24-.14-.21-.16-.2-.18-.19-.23-.16-.27-.11-.29,0-.21.14-.17.22-.09.34-.08.33-.06.33-.07.32-.07.32-.1.32-.1.32-.12.31-.15.2-.11.21-.14.22-.14.22-.14.21-.12.24-.09.23-.05h.22l3.54.49.18,0,.12,0,.09,0,0,.07,0,.12-.07.15-.11.19L229,40.64l-.09.19V41l.07.15,0,0,.1.15.16.06h1.42l.18,0,.18-.06.17-.08.16-.11.14-.13.13-.14.12-.15.09-.16L237.69,30l.23-.22.28-.14.14,0,.13,0,.13,0,.14,0,.13,0,.13,0,.12,0,.12-.05.11-.06.1-.08.09-.09.08-.11.06-.13.06-.16,0-.19,0-.12-.13-.12-.28-.11-.34-.06h-.3l-31.62.36h-.9l-.46,0-.47-.05-.45-.07-.17-.05-.09-.07,0-.12v-.2l.09-.44.1-.42v-.45l0-.14,0-.13-.05-.12-.07-.13-.07-.12-.08-.1-.08-.11-.1-.09-.11-.1-.11-.09-.11-.07-.12-.07-.13-.07-.12-.05-.13-.05-.14,0-.13,0L203,25l-.14,0h-.13ZM119.71,40.1h-.17l-.17,0-.17,0L119,40l-.14-.08-.14-.09-.13-.11-.12-.13-.1-.14-.07-.16,0-.26,0-.21.07-.18.12-.15.15-.11.18-.09.21-.06.22,0h.23l.24,0,.23.05.21.08.2.1.17.13.15.14.09.17.06.18v.21l-.05.22-.13.25-.08.1-.12.08-.3.11-.31.07Zm90.39-6.54.22,0,.14.19,0,.06.07.16,0,.15-.11.21-1.72,3-.09.12-.13.12-.19.12-.25.13-.25.13-.3.12-.33.12-.34.12-.35.1-.36.08-.36.08-.36,0-.35,0h-.33l-.32,0-.28-.06-.25-.09-.21-.12-.18-.17-.12-.21-.1-.38,0-.37,0-.37.12-.35.18-.34.24-.33.29-.31.32-.3.36-.28.4-.26.42-.24.43-.21.43-.2.44-.17.44-.15.43-.11.41-.08.38-.06.36,0h.31Zm-58.62.18.12,0,.13-.05.14,0,.16,0,.17,0,.18,0,.18,0,.19,0,.18,0,.19,0H154l.14,0,.13,0,.11,0,.09,0,.2.16.06.24,0,.28-.09.29-.13.27-.15.28-.15.26-.14.25-.13.25-.14.24-.13.25-.14.23-.16.24-.16.23-.18.21-.18.21-.2.18-.13.09-.14.1-.15.09-.16.07-.17.08-.18.06-.19.07-.19.05-.19,0-.2,0-.2,0-.2,0-.19,0h-.39l-.18,0-.18,0-.18,0-.16-.05-.15,0-.23-.11-.17-.12-.14-.14-.09-.16-.06-.18v-.18l0-.19,0-.2.06-.2.09-.21.11-.2.12-.2.12-.21.14-.18.14-.18.14-.18.14-.16.13-.14.12-.14.09-.1.27-.24.31-.23.33-.19.33-.19.32-.16Zm82.89-4.11.19,0,.16.13.08.17v.23l0,.11,0,.14-.07.18-.09.19-.11.22-.12.24-.12.25-.14.26-.15.26-.14.25-.15.26-.15.23-.15.22-.14.21-.11.17-.12.14-.09.12-.08.07-.13.08-.16.07-.19.06-.22.07-.23,0-.24.05-.24,0-.23,0-.23,0h-.38l-.14,0-1.22-.28-.12,0-.06-.09,0-.15,0-.28.4-2.92,0-.22,0-.18,0-.13.06-.09.07-.06.09,0,.13,0h4.48Zm-46.9-1.28-.14,0-.12-.15,0-.16.09-.24.09-.15.11-.15.13-.13.14-.1.16-.09.16-.08.17-.08.18-.05.19,0,.19,0,.19,0,.2,0h.39l.19,0h.91l10.43.08.14,0,.13.06.12.09.1.12.06.14,0,.14,0,.14,0,.14-.07.18-.12.15-.16.13-.18.09-.19,0Zm-6.74-.91h.18l.18,0,.17,0,.17,0,.17-.05.17-.06.16-.08.16-.08.16-.08.14-.1.14-.11.14-.12.13-.12.12-.12.11-.14.1-.14.09-.16.09-.16.08-.16.06-.16.06-.25,0-.18-.13-.14-.23-.1-.21,0-.19,0-.18,0h-.15l-.16,0-.14,0-.12.06-.14.06-.11.07-.11.08-.11.08-.11.09-.11.09-.11.11-.11.1-.12.09-.12.09-.13.1-.14.08-.15.08-.29.09-.29,0h-.31l-.3,0-.3,0h-.3l-.16,0-.1-.07-.08-.15-.09-.27-.06-.26-.1-.23-.2-.15-.18-.07-.2-.05-.21,0h-.42l-.21,0-.2.05-.18.09-.26.19-.18.26-.1.21-.09.22-.06.21-.05.21v.22l0,.24.07.2.12.16.17.12.32.13.36.11.33,0Z"></path><path class="cls-1" d="M3.69,44.76H2.12l-.22,0H1.21l-.12,0-.12,0-.09,0-.09,0L.72,45l0,0-.05.05-.05,0,0,0,0,.07-.78,1.21-.05.16,0,.16.12.12.16,0H54.82l.14-.07.12-.14.16-.26,6.57-11.62.06-.17v-.14l-.08-.11-.11-.08-.16,0-.16,0H45.21l-.19,0-.12.06-.1.1-.1.17L43.27,37.5l-.32.6-.38.6-.4.58-.45.56-.48.53-.52.52-.53.49-.57.47-.6.42-.6.41-.64.38-.65.34-.67.31-.67.27-.68.24-.7.2-.69.15-.7.12-.7.07-.69,0Zm72.34.4H75.3l-.74,0-.74,0-.74,0H64.15l-.75,0H63l-.21,0h-.22l-.24,0H60.89l-.24,0-.25,0-.21,0-.21,0-.2.06-.17.09-.16.09-.13.11-.11.13-.06.12,0,.13v.25l0,.1.07.09.09.06.13,0,.15,0,170.51-.09.22,0,.19-.1.17-.14.14-.16.09-.14v-.14l-.09-.2-.11-.21-.11-.12-.14,0H219l-1.41,0h-2.82l-1.4,0h-2.82l-1.4,0h-7ZM14,22.44H13.9l-.12,0-.12,0-.13.05-.12.05-.12.06-.13.07-.11.09-.12.09-.11.1-.1.1-.1.11-.08.11-.08.11-.06.13-.06.12,0,.13,0,.12v.25l0,.2.16.05.24,0,.24,0,27.93.08h.3l.28,0,.29,0,.3.07.29.09.29.09.29.12.28.13.27.14.27.17.25.18.24.18.24.2.22.22.19.23.19.23.16.26.14.26.13.27.09.27.52,1.78.06.17.08.1.12,0,.2,0L64,30h.19l.15,0,.12-.05.1-.09.1-.13.12-.19,6.6-11.61.07-.19,0-.17-.11-.1-.24-.09-.4-.08-.4,0-15.58,0h-.18l-.13.07-.17.16-2.2,2.35-.4.33-.45.29-.22.17-.23.17-.23.14-.25.15-.26.13-.26.12-.27.13-.27.12-.28.1-.29.12-.28.09-.29.1-.29.08-.3.07-.29.08-.3.06-.29.06-.29,0-.29,0-.29,0h-.57ZM27.55,0h-.19l-.29,0h-.35l-.37,0L26,.12l-.26.07-.13.09-.77,1.28-.14.26,0,.17.07.16.08.12.12.06.2,0h.33l23.92,0h.94l.19,0,.18,0,.2,0,.19,0,.19,0,.18,0,.2,0,.19,0,.18.05.19,0,.18,0,.18.05.17.07.17.07.18.07.38.19.36.22.36.26.34.27.32.31.3.33.28.35.26.38.24.38.21.4.2.41.16.43.14.43.12.44.08.44.06.44,0,.45v.44l0,.43-.07.43-.46,2.1,0,.18,0,.11.13,0h.25l16.86.15h.2l.15,0L74.1,13l.11-.13.12-.19L81.05,1l.08-.15,0-.16V.58l0-.14L81,.34,80.86.28,80.11.23l-.76,0h-.74Z"></path></svg>