<svg xmlns="http://www.w3.org/2000/svg" xmlns:xlink="http://www.w3.org/1999/xlink" id="Layer_1" data-name="Layer 1" viewBox="0 0 957.09 300"><defs><style>.cls-1,.cls-3{fill:none;}.cls-2{fill:#fff;}.cls-3{stroke:#55cdd5;}.cls-4{clip-path:url(#clip-path);}</style><clipPath id="clip-path"><rect class="cls-1" x="513.47" y="32.37" width="420.17" height="243.24"></rect></clipPath></defs><path class="cls-2" d="M29.7,31.55h5L42,52.43l7.31-20.88h5L44,60H40Zm-2.68,0H32l.9,20.35V60H27Zm24.94,0h5V60H51.06V51.9ZM73.11,55.22V45.81a4.16,4.16,0,0,0-.33-1.74,2.4,2.4,0,0,0-1-1.15A3.38,3.38,0,0,0,70,42.51a3.66,3.66,0,0,0-1.62.33,2.33,2.33,0,0,0-1.06.92,2.58,2.58,0,0,0-.37,1.38H61.3a5.59,5.59,0,0,1,.62-2.56,6.39,6.39,0,0,1,1.82-2.12A8.83,8.83,0,0,1,66.57,39a12.27,12.27,0,0,1,3.71-.53,11.18,11.18,0,0,1,4.38.82,6.69,6.69,0,0,1,3,2.46,7.13,7.13,0,0,1,1.12,4.11v9A15.82,15.82,0,0,0,79,57.74a7.38,7.38,0,0,0,.63,1.91V60H73.93a8.23,8.23,0,0,1-.62-2.15A17.78,17.78,0,0,1,73.11,55.22Zm.75-8.1,0,3.18H70.75a6.5,6.5,0,0,0-1.93.25,3.49,3.49,0,0,0-1.35.73,2.83,2.83,0,0,0-.78,1,3.58,3.58,0,0,0-.24,1.33A2.54,2.54,0,0,0,66.79,55a2.5,2.5,0,0,0,.95.9,3.38,3.38,0,0,0,1.47.31,4.53,4.53,0,0,0,2.2-.51,4,4,0,0,0,1.45-1.25A2.65,2.65,0,0,0,73.41,53l1.48,2.39A9.79,9.79,0,0,1,74,57.06a7.75,7.75,0,0,1-1.35,1.62,7,7,0,0,1-2,1.23,7.29,7.29,0,0,1-2.73.47,8.32,8.32,0,0,1-3.66-.8,6.62,6.62,0,0,1-2.57-2.25,5.86,5.86,0,0,1-.94-3.28,6.77,6.77,0,0,1,.62-2.95,5.8,5.8,0,0,1,1.84-2.17,8.58,8.58,0,0,1,3.07-1.35,17.39,17.39,0,0,1,4.25-.46Zm14.88-3.66V60H83.11V38.85h5.3Zm6.37-4.74L95,43.93c-.27,0-.61-.07-1-.1s-.72,0-1,0a6.1,6.1,0,0,0-2.07.31,3.61,3.61,0,0,0-1.45.88,3.84,3.84,0,0,0-.86,1.42,7.28,7.28,0,0,0-.31,1.92L87.16,48a15.84,15.84,0,0,1,.41-3.77,10.36,10.36,0,0,1,1.19-3,5.9,5.9,0,0,1,1.95-2,5,5,0,0,1,2.64-.71,6.43,6.43,0,0,1,1,.08A3.53,3.53,0,0,1,95.11,38.72ZM103.39,30V60H97.76V30Zm13.32,8.88-9.18,10.47-4.92,5-2-4.06,3.9-5L110,38.85ZM110.87,60l-6.25-9.77,3.88-3.4L117.35,60Zm17.6.39a11.84,11.84,0,0,1-4.42-.78,9.46,9.46,0,0,1-5.39-5.47,11,11,0,0,1-.72-4v-.78a13.61,13.61,0,0,1,.68-4.39,10.54,10.54,0,0,1,1.95-3.46,8.71,8.71,0,0,1,3.13-2.25,10.29,10.29,0,0,1,4.14-.8,10,10,0,0,1,4,.75,7.89,7.89,0,0,1,2.91,2.1,9.18,9.18,0,0,1,1.79,3.29,13.59,13.59,0,0,1,.61,4.21v2.35h-16.8V47.41h11.27V47a4.82,4.82,0,0,0-.43-2.09,3.31,3.31,0,0,0-1.25-1.49,3.92,3.92,0,0,0-2.15-.54,3.55,3.55,0,0,0-1.91.49,3.72,3.72,0,0,0-1.31,1.36,7.42,7.42,0,0,0-.74,2.07,12.86,12.86,0,0,0-.24,2.58v.78a7.67,7.67,0,0,0,.35,2.35,5.85,5.85,0,0,0,1,1.85,4.67,4.67,0,0,0,1.64,1.21,5.38,5.38,0,0,0,2.21.43,6.86,6.86,0,0,0,2.83-.58,6.14,6.14,0,0,0,2.28-1.82l2.74,3a8.3,8.3,0,0,1-1.82,1.84,9.78,9.78,0,0,1-2.73,1.44A11.15,11.15,0,0,1,128.47,60.38Zm22.22-21.53v4h-12.3v-4Zm-9.26-5.21h5.63v20a3.5,3.5,0,0,0,.23,1.41,1.42,1.42,0,0,0,.75.68,3.55,3.55,0,0,0,1.23.18c.35,0,.66,0,.93,0l.73-.12,0,4.14a10.31,10.31,0,0,1-1.57.37,11.61,11.61,0,0,1-1.85.14,7.9,7.9,0,0,1-3.24-.61,4.38,4.38,0,0,1-2.11-2,7.45,7.45,0,0,1-.75-3.59Zm33.83,21.58V45.81a4.16,4.16,0,0,0-.33-1.74,2.45,2.45,0,0,0-1-1.15,3.38,3.38,0,0,0-1.78-.41,3.66,3.66,0,0,0-1.62.33,2.33,2.33,0,0,0-1.06.92,2.58,2.58,0,0,0-.37,1.38h-5.62a5.47,5.47,0,0,1,.62-2.56,6.39,6.39,0,0,1,1.82-2.12A8.83,8.83,0,0,1,168.72,39a12.27,12.27,0,0,1,3.71-.53,11.18,11.18,0,0,1,4.38.82,6.74,6.74,0,0,1,3,2.46,7.13,7.13,0,0,1,1.12,4.11v9a15.82,15.82,0,0,0,.21,2.85,7,7,0,0,0,.63,1.91V60h-5.69a8.23,8.23,0,0,1-.62-2.15A17.78,17.78,0,0,1,175.26,55.22Zm.74-8.1,0,3.18H172.9a6.5,6.5,0,0,0-1.93.25,3.49,3.49,0,0,0-1.35.73,2.83,2.83,0,0,0-.78,1,3.58,3.58,0,0,0-.24,1.33,2.63,2.63,0,0,0,.33,1.31,2.53,2.53,0,0,0,1,.9,3.38,3.38,0,0,0,1.47.31,4.53,4.53,0,0,0,2.2-.51A4,4,0,0,0,175,54.42a2.65,2.65,0,0,0,.55-1.41L177,55.4a9.79,9.79,0,0,1-.86,1.66,7.75,7.75,0,0,1-1.35,1.62,7,7,0,0,1-2,1.23,7.29,7.29,0,0,1-2.73.47,8.29,8.29,0,0,1-3.66-.8,6.62,6.62,0,0,1-2.57-2.25,5.86,5.86,0,0,1-.94-3.28,6.77,6.77,0,0,1,.62-2.95,5.8,5.8,0,0,1,1.84-2.17,8.58,8.58,0,0,1,3.07-1.35,17.39,17.39,0,0,1,4.25-.46ZM194,56a4.15,4.15,0,0,0,1.84-.39,3.11,3.11,0,0,0,1.25-1.13,3.41,3.41,0,0,0,.49-1.74h5.29a7,7,0,0,1-1.19,4,8.17,8.17,0,0,1-3.15,2.71,9.79,9.79,0,0,1-4.41,1,10.61,10.61,0,0,1-4.3-.82,8.28,8.28,0,0,1-3-2.27,9.86,9.86,0,0,1-1.82-3.4,14.13,14.13,0,0,1-.61-4.18v-.56A14,14,0,0,1,185,45a9.59,9.59,0,0,1,1.82-3.4,8.22,8.22,0,0,1,3-2.29,10.38,10.38,0,0,1,4.26-.82,9.94,9.94,0,0,1,4.55,1,7.34,7.34,0,0,1,3.09,2.85,8.31,8.31,0,0,1,1.15,4.36h-5.29a4.63,4.63,0,0,0-.45-1.92,3.25,3.25,0,0,0-1.21-1.36,3.33,3.33,0,0,0-1.94-.53,3.46,3.46,0,0,0-2,.53,3.32,3.32,0,0,0-1.21,1.4,6.75,6.75,0,0,0-.6,2,16.17,16.17,0,0,0-.16,2.35v.56a16.55,16.55,0,0,0,.16,2.37,6.74,6.74,0,0,0,.58,2A3.61,3.61,0,0,0,192,55.48,3.74,3.74,0,0,0,194,56Zm22.48-17.13v4h-12.3v-4Zm-9.25-5.21h5.62v20a3.31,3.31,0,0,0,.24,1.41,1.37,1.37,0,0,0,.74.68,3.55,3.55,0,0,0,1.23.18c.35,0,.66,0,.94,0l.72-.12,0,4.14a10.18,10.18,0,0,1-1.56.37,11.74,11.74,0,0,1-1.86.14,7.9,7.9,0,0,1-3.24-.61,4.42,4.42,0,0,1-2.11-2,7.46,7.46,0,0,1-.74-3.59Zm11.05,16v-.41a13.29,13.29,0,0,1,.66-4.28,9.9,9.9,0,0,1,1.94-3.42A8.78,8.78,0,0,1,224,39.28a10.58,10.58,0,0,1,4.26-.82,10.71,10.71,0,0,1,4.28.82,8.68,8.68,0,0,1,3.14,2.25,9.78,9.78,0,0,1,2,3.42,13.29,13.29,0,0,1,.66,4.28v.41a13.36,13.36,0,0,1-.66,4.27,10.15,10.15,0,0,1-2,3.42,8.78,8.78,0,0,1-3.12,2.25,10.75,10.75,0,0,1-4.26.8,10.89,10.89,0,0,1-4.28-.8,9,9,0,0,1-3.14-2.25,10.28,10.28,0,0,1-1.94-3.42A13.36,13.36,0,0,1,218.27,49.64Zm5.63-.41v.41a12.22,12.22,0,0,0,.23,2.48,6.88,6.88,0,0,0,.74,2,3.82,3.82,0,0,0,1.37,1.34,4,4,0,0,0,2,.49,3.89,3.89,0,0,0,2-.49,3.69,3.69,0,0,0,1.35-1.34,6.61,6.61,0,0,0,.74-2,11.51,11.51,0,0,0,.26-2.48v-.41a11.11,11.11,0,0,0-.26-2.43,6.38,6.38,0,0,0-.76-2,3.71,3.71,0,0,0-1.35-1.4,4.3,4.3,0,0,0-4.06,0,3.87,3.87,0,0,0-1.35,1.4,6.88,6.88,0,0,0-.74,2A11.79,11.79,0,0,0,223.9,49.23Zm23.47-5.77V60h-5.62V38.85H247Zm6.37-4.74-.1,5.21c-.27,0-.6-.07-1-.1s-.73,0-1,0a6.18,6.18,0,0,0-2.07.31,3.75,3.75,0,0,0-1.45.88,3.82,3.82,0,0,0-.85,1.42,6.88,6.88,0,0,0-.32,1.92L245.79,48a16.37,16.37,0,0,1,.41-3.77,10.36,10.36,0,0,1,1.19-3,6.09,6.09,0,0,1,2-2,5,5,0,0,1,2.64-.71,6.43,6.43,0,0,1,1,.08A3.53,3.53,0,0,1,253.74,38.72Zm14.08,15.43a1.87,1.87,0,0,0-.35-1.1,3.16,3.16,0,0,0-1.31-.9,13.48,13.48,0,0,0-2.71-.78,19.4,19.4,0,0,1-3-.88,10.33,10.33,0,0,1-2.38-1.3,5.71,5.71,0,0,1-1.57-1.8A5.06,5.06,0,0,1,256,45a5.75,5.75,0,0,1,.56-2.5,6.54,6.54,0,0,1,1.66-2.07A7.79,7.79,0,0,1,260.83,39a11.22,11.22,0,0,1,3.55-.53,11.64,11.64,0,0,1,4.73.88,7.12,7.12,0,0,1,3.05,2.42,6,6,0,0,1,1.07,3.48h-5.62a2.93,2.93,0,0,0-.36-1.46,2.3,2.3,0,0,0-1.05-1,3.78,3.78,0,0,0-1.84-.39,3.72,3.72,0,0,0-1.62.33,2.57,2.57,0,0,0-1.05.86,2,2,0,0,0-.35,1.17,1.93,1.93,0,0,0,.19.88,2.15,2.15,0,0,0,.69.69,6,6,0,0,0,1.21.58,14.06,14.06,0,0,0,1.87.47,20.91,20.91,0,0,1,4.08,1.23,7.2,7.2,0,0,1,2.86,2,5.08,5.08,0,0,1,1.05,3.34,5.46,5.46,0,0,1-.62,2.58,6.24,6.24,0,0,1-1.8,2.05,9.29,9.29,0,0,1-2.81,1.35,13.31,13.31,0,0,1-3.66.47,10.77,10.77,0,0,1-5-1.06,7.89,7.89,0,0,1-3.08-2.67,6.26,6.26,0,0,1-1-3.36h5.33a3.16,3.16,0,0,0,.59,1.85,3.2,3.2,0,0,0,1.43,1,5.51,5.51,0,0,0,1.89.31,5,5,0,0,0,1.82-.29,2.6,2.6,0,0,0,1.09-.82A2,2,0,0,0,267.82,54.15Z"></path><path class="cls-2" d="M33.92,128.34v-.26a1.25,1.25,0,0,1,.34-.9,1.3,1.3,0,0,1,2.25.9v.26a1.25,1.25,0,0,1-.35.9,1.29,1.29,0,0,1-.95.34,1.26,1.26,0,0,1-.94-.34A1.21,1.21,0,0,1,33.92,128.34Zm13.36-4.6V133H46.05v-9.25Zm3.87,4.16v1H47v-1Zm.63-4.16v1H47v-1Zm5.12,8.07v-3.53a1.46,1.46,0,0,0-.17-.71,1.15,1.15,0,0,0-.48-.47,1.76,1.76,0,0,0-.8-.16,1.87,1.87,0,0,0-.78.15,1.25,1.25,0,0,0-.52.4A.82.82,0,0,0,54,128H52.79a1.53,1.53,0,0,1,.19-.73,2.1,2.1,0,0,1,.55-.65,2.54,2.54,0,0,1,.86-.47,3.35,3.35,0,0,1,1.13-.18,3.2,3.2,0,0,1,1.32.26,2,2,0,0,1,.9.76,2.32,2.32,0,0,1,.33,1.28v3.2a4.78,4.78,0,0,0,.06.73,2.61,2.61,0,0,0,.18.66V133H57.09a2.1,2.1,0,0,1-.14-.54A3.66,3.66,0,0,1,56.9,131.81Zm.2-3v.83H55.92a4.74,4.74,0,0,0-.89.08,2,2,0,0,0-.66.24,1.1,1.1,0,0,0-.41.39,1.13,1.13,0,0,0-.14.56,1.2,1.2,0,0,0,.15.59,1,1,0,0,0,.44.42,1.61,1.61,0,0,0,.73.16,2,2,0,0,0,1-.23,2.11,2.11,0,0,0,.65-.56,1.17,1.17,0,0,0,.27-.64l.5.56a1.67,1.67,0,0,1-.24.59,2.54,2.54,0,0,1-.53.62,2.6,2.6,0,0,1-.77.49,2.48,2.48,0,0,1-1,.19,2.65,2.65,0,0,1-1.23-.27,2,2,0,0,1-.81-.73,1.93,1.93,0,0,1-.29-1,2.05,2.05,0,0,1,.22-1,1.89,1.89,0,0,1,.62-.7,3,3,0,0,1,1-.43,5,5,0,0,1,1.27-.15Zm6.82,2.34a1,1,0,0,0-.12-.47.94.94,0,0,0-.45-.39,3.42,3.42,0,0,0-1-.32,7.7,7.7,0,0,1-1-.29,3.17,3.17,0,0,1-.78-.4,1.71,1.71,0,0,1-.49-.55,1.58,1.58,0,0,1-.17-.74,1.71,1.71,0,0,1,.18-.77,2,2,0,0,1,.51-.64,2.52,2.52,0,0,1,.81-.44,3.52,3.52,0,0,1,2.45.13,2.3,2.3,0,0,1,.9.78,1.94,1.94,0,0,1,.31,1.08H63.85a1,1,0,0,0-.18-.56,1.31,1.31,0,0,0-.48-.45,1.73,1.73,0,0,0-.78-.17,1.84,1.84,0,0,0-.8.15A.9.9,0,0,0,61,128a.93.93,0,0,0,.06.34.7.7,0,0,0,.25.27,1.79,1.79,0,0,0,.48.23c.21.07.47.14.79.22a6,6,0,0,1,1.39.45,2,2,0,0,1,.81.66,1.58,1.58,0,0,1,.27.94,1.74,1.74,0,0,1-.19.82,1.76,1.76,0,0,1-.54.65,2.55,2.55,0,0,1-.84.42,4,4,0,0,1-1.08.14,3.28,3.28,0,0,1-1.54-.32A2.38,2.38,0,0,1,60,132a1.94,1.94,0,0,1-.32-1.08h1.18a1.15,1.15,0,0,0,.28.76,1.31,1.31,0,0,0,.62.4,2.33,2.33,0,0,0,.73.12,2.06,2.06,0,0,0,.8-.13,1,1,0,0,0,.5-.35A.78.78,0,0,0,63.92,131.16Zm5.59-5v.9H65.8v-.9Zm-2.46-1.67h1.18v6.84a1,1,0,0,0,.1.52.58.58,0,0,0,.28.24,1.14,1.14,0,0,0,.37,0,1.67,1.67,0,0,0,.31,0l.24-.05v1a3.72,3.72,0,0,1-.37.08,2.83,2.83,0,0,1-.54,0,1.73,1.73,0,0,1-.79-.17,1.27,1.27,0,0,1-.58-.57,2.37,2.37,0,0,1-.21-1.09Zm6.69,8.66a3.43,3.43,0,0,1-1.31-.24,2.85,2.85,0,0,1-1-.69,3.12,3.12,0,0,1-.64-1.05,4.09,4.09,0,0,1-.22-1.34v-.26a4,4,0,0,1,.25-1.49,3.28,3.28,0,0,1,.67-1.12,2.79,2.79,0,0,1,1-.69,2.71,2.71,0,0,1,1.11-.24,2.9,2.9,0,0,1,1.27.26,2.22,2.22,0,0,1,.89.71,3.15,3.15,0,0,1,.5,1.06,5.12,5.12,0,0,1,.17,1.34v.52H71.28v-1h4v-.08A2.67,2.67,0,0,0,75,128a1.51,1.51,0,0,0-.5-.71,1.48,1.48,0,0,0-1-.28,1.61,1.61,0,0,0-1.31.66,2.33,2.33,0,0,0-.37.81,4,4,0,0,0-.14,1.1v.26a3,3,0,0,0,.14.92,2.08,2.08,0,0,0,.4.75,1.77,1.77,0,0,0,.64.51,2,2,0,0,0,.86.18,2,2,0,0,0,1-.25,2.57,2.57,0,0,0,.76-.68l.71.57a3.69,3.69,0,0,1-.57.64,2.55,2.55,0,0,1-.84.49A3.19,3.19,0,0,1,73.74,133.11ZM79,127.2V133H77.78v-6.87h1.14Zm2.15-1.12v1.09l-.28,0h-.29a1.81,1.81,0,0,0-.72.13,1.45,1.45,0,0,0-.52.35,1.84,1.84,0,0,0-.35.55,2.49,2.49,0,0,0-.15.69l-.33.19a5.39,5.39,0,0,1,.12-1.17,3.12,3.12,0,0,1,.38-1,2.08,2.08,0,0,1,.66-.66,1.89,1.89,0,0,1,1-.24l.29,0Zm1.36,5.51v.95a2.81,2.81,0,0,1-.29,1.21,2.78,2.78,0,0,1-.82,1.08l-.66-.46a4.28,4.28,0,0,0,.34-.57,3,3,0,0,0,.21-.6,2.69,2.69,0,0,0,.08-.65v-1Zm4.72-8.35h1.18v8.41l-.1,1.34H87.18ZM93,129.5v.13a5.14,5.14,0,0,1-.18,1.39,3.39,3.39,0,0,1-.52,1.1,2.31,2.31,0,0,1-.83.73,2.37,2.37,0,0,1-1.14.26,2.74,2.74,0,0,1-1.15-.22,2.29,2.29,0,0,1-.83-.65,3.45,3.45,0,0,1-.53-1,5.94,5.94,0,0,1-.28-1.36v-.58a5.92,5.92,0,0,1,.28-1.37,3.45,3.45,0,0,1,.53-1,2.29,2.29,0,0,1,.83-.65,2.7,2.7,0,0,1,1.14-.23,2.53,2.53,0,0,1,1.15.26,2.18,2.18,0,0,1,.83.71,3.35,3.35,0,0,1,.52,1.11A5.23,5.23,0,0,1,93,129.5Zm-1.18.13v-.13a4.92,4.92,0,0,0-.09-1,2.72,2.72,0,0,0-.31-.8,1.5,1.5,0,0,0-.55-.54A1.6,1.6,0,0,0,90,127a1.86,1.86,0,0,0-.77.15,1.65,1.65,0,0,0-.55.42,2.33,2.33,0,0,0-.38.58,4,4,0,0,0-.21.67v1.53a3.33,3.33,0,0,0,.33.86,2.12,2.12,0,0,0,.63.67,1.73,1.73,0,0,0,1,.26,1.7,1.7,0,0,0,.81-.19,1.5,1.5,0,0,0,.55-.54,2.48,2.48,0,0,0,.32-.8A4.22,4.22,0,0,0,91.82,129.63Zm5.52,3.48a3.35,3.35,0,0,1-1.3-.24,2.8,2.8,0,0,1-1-.69,3.12,3.12,0,0,1-.64-1.05,4.09,4.09,0,0,1-.22-1.34v-.26a4,4,0,0,1,.25-1.49,3.28,3.28,0,0,1,.67-1.12,2.79,2.79,0,0,1,1-.69,2.71,2.71,0,0,1,1.11-.24,2.87,2.87,0,0,1,1.27.26,2.22,2.22,0,0,1,.89.71,3.15,3.15,0,0,1,.5,1.06,5.12,5.12,0,0,1,.17,1.34v.52H94.88v-1h4v-.08a2.67,2.67,0,0,0-.19-.89,1.51,1.51,0,0,0-.5-.71,1.48,1.48,0,0,0-1-.28,1.61,1.61,0,0,0-1.31.66,2.33,2.33,0,0,0-.37.81,4,4,0,0,0-.14,1.1v.26a3,3,0,0,0,.14.92,2.08,2.08,0,0,0,.4.75,1.77,1.77,0,0,0,.64.51,2,2,0,0,0,.86.18,2,2,0,0,0,1-.25,2.57,2.57,0,0,0,.76-.68l.71.57a4.07,4.07,0,0,1-.56.64,2.6,2.6,0,0,1-.85.49A3.19,3.19,0,0,1,97.34,133.11Zm6.92-7v.9h-3.72v-.9Zm-2.46-1.67H103v6.84a1,1,0,0,0,.11.52.54.54,0,0,0,.28.24,1.11,1.11,0,0,0,.37,0,1.51,1.51,0,0,0,.3,0l.25-.05v1l-.37.08a2.83,2.83,0,0,1-.54,0,1.73,1.73,0,0,1-.79-.17,1.19,1.19,0,0,1-.58-.57,2.37,2.37,0,0,1-.21-1.09Zm6.71,1.67v.9H104.8v-.9Zm-2.46-1.67h1.18v6.84a1,1,0,0,0,.1.52.58.58,0,0,0,.28.24,1.14,1.14,0,0,0,.37,0,1.67,1.67,0,0,0,.31,0l.24-.05v1a3.72,3.72,0,0,1-.37.08,2.83,2.83,0,0,1-.54,0,1.73,1.73,0,0,1-.79-.17,1.27,1.27,0,0,1-.58-.57,2.37,2.37,0,0,1-.21-1.09Zm6.69,8.66a3.43,3.43,0,0,1-1.31-.24,2.85,2.85,0,0,1-1-.69,3.12,3.12,0,0,1-.64-1.05,4.09,4.09,0,0,1-.22-1.34v-.26a4,4,0,0,1,.25-1.49,3.28,3.28,0,0,1,.67-1.12,2.79,2.79,0,0,1,1-.69,2.71,2.71,0,0,1,1.11-.24,2.9,2.9,0,0,1,1.27.26,2.22,2.22,0,0,1,.89.71,3.15,3.15,0,0,1,.5,1.06,5.12,5.12,0,0,1,.17,1.34v.52h-5.13v-1h4v-.08A2.67,2.67,0,0,0,114,128a1.51,1.51,0,0,0-.5-.71,1.48,1.48,0,0,0-1-.28,1.61,1.61,0,0,0-1.31.66,2.33,2.33,0,0,0-.37.81,4,4,0,0,0-.14,1.1v.26a3,3,0,0,0,.14.92,2.08,2.08,0,0,0,.4.75,1.77,1.77,0,0,0,.64.51,2,2,0,0,0,.86.18,2,2,0,0,0,1-.25,2.57,2.57,0,0,0,.76-.68l.71.57a3.69,3.69,0,0,1-.57.64,2.55,2.55,0,0,1-.84.49A3.19,3.19,0,0,1,112.74,133.11ZM118,127.2V133h-1.17v-6.87h1.14Zm2.15-1.12v1.09l-.28,0h-.29a1.81,1.81,0,0,0-.72.13,1.45,1.45,0,0,0-.52.35,1.84,1.84,0,0,0-.35.55,2.49,2.49,0,0,0-.15.69l-.33.19a5.39,5.39,0,0,1,.12-1.17,3.12,3.12,0,0,1,.38-1,2.08,2.08,0,0,1,.66-.66,1.89,1.89,0,0,1,1-.24l.29,0Zm1.36,5.51v.95a2.81,2.81,0,0,1-.29,1.21,2.78,2.78,0,0,1-.82,1.08l-.66-.46a4.28,4.28,0,0,0,.34-.57,3,3,0,0,0,.21-.6,2.69,2.69,0,0,0,.08-.65v-1Zm7.48.56a1.84,1.84,0,0,0,.77-.17,1.59,1.59,0,0,0,.58-.47,1.28,1.28,0,0,0,.26-.69h1.12a2.11,2.11,0,0,1-.41,1.13,2.81,2.81,0,0,1-2.32,1.16,3.2,3.2,0,0,1-1.36-.27,2.69,2.69,0,0,1-1-.75,3.22,3.22,0,0,1-.56-1.09,4.37,4.37,0,0,1-.19-1.31v-.27a4.32,4.32,0,0,1,.19-1.31,3.27,3.27,0,0,1,.56-1.1,2.93,2.93,0,0,1,1-.75,3.2,3.2,0,0,1,1.36-.27,2.87,2.87,0,0,1,1.4.33,2.4,2.4,0,0,1,.95.89,2.59,2.59,0,0,1,.38,1.27h-1.12a1.7,1.7,0,0,0-.24-.77,1.39,1.39,0,0,0-.56-.54,1.53,1.53,0,0,0-.81-.21,1.8,1.8,0,0,0-.91.21,1.59,1.59,0,0,0-.58.57,2.65,2.65,0,0,0-.3.8,4.24,4.24,0,0,0-.09.88v.27a4.31,4.31,0,0,0,.09.88,2.32,2.32,0,0,0,.29.8,1.76,1.76,0,0,0,.58.57A1.84,1.84,0,0,0,128.94,132.15Zm5.23-8.91V133H133v-9.75Zm-.28,6-.49,0a3.9,3.9,0,0,1,.21-1.3,3.13,3.13,0,0,1,.57-1,2.6,2.6,0,0,1,.87-.68,2.57,2.57,0,0,1,1.14-.25,3,3,0,0,1,.92.14,1.65,1.65,0,0,1,.69.43,2,2,0,0,1,.44.78,3.77,3.77,0,0,1,.15,1.15V133h-1.18v-4.52a1.91,1.91,0,0,0-.16-.86,1,1,0,0,0-.46-.48,1.86,1.86,0,0,0-1.55,0,2,2,0,0,0-.61.5,2.46,2.46,0,0,0-.4.75A2.48,2.48,0,0,0,133.89,129.29Zm9.11,3.82a3.38,3.38,0,0,1-1.3-.24,2.89,2.89,0,0,1-1-.69,3.27,3.27,0,0,1-.63-1.05,3.85,3.85,0,0,1-.22-1.34v-.26a4.27,4.27,0,0,1,.24-1.49,3.3,3.3,0,0,1,.68-1.12,2.67,2.67,0,0,1,1-.69,2.72,2.72,0,0,1,1.12-.24,2.94,2.94,0,0,1,1.27.26,2.19,2.19,0,0,1,.88.71,3,3,0,0,1,.51,1.06,5.13,5.13,0,0,1,.16,1.34v.52h-5.12v-1h3.95v-.08a3,3,0,0,0-.19-.89,1.61,1.61,0,0,0-.51-.71,1.45,1.45,0,0,0-1-.28,1.58,1.58,0,0,0-1.31.66,2.34,2.34,0,0,0-.38.81,4,4,0,0,0-.13,1.1v.26a3,3,0,0,0,.13.92,2.24,2.24,0,0,0,.4.75,1.86,1.86,0,0,0,.64.51,2,2,0,0,0,.87.18,2,2,0,0,0,1.05-.25,2.42,2.42,0,0,0,.75-.68l.72.57a3.69,3.69,0,0,1-.57.64,2.66,2.66,0,0,1-.84.49A3.25,3.25,0,0,1,143,133.11Zm8.1-1.3v-3.53a1.46,1.46,0,0,0-.17-.71,1.15,1.15,0,0,0-.48-.47,1.76,1.76,0,0,0-.8-.16,1.87,1.87,0,0,0-.78.15,1.25,1.25,0,0,0-.52.4.82.82,0,0,0-.19.53H147a1.53,1.53,0,0,1,.19-.73,2.21,2.21,0,0,1,.54-.65,2.69,2.69,0,0,1,.87-.47,3.35,3.35,0,0,1,1.13-.18,3.2,3.2,0,0,1,1.32.26,2,2,0,0,1,.9.76,2.32,2.32,0,0,1,.33,1.28v3.2a4.78,4.78,0,0,0,.06.73,2.61,2.61,0,0,0,.18.66V133h-1.22a2.1,2.1,0,0,1-.14-.54A3.66,3.66,0,0,1,151.1,131.81Zm.2-3v.83h-1.19a4.74,4.74,0,0,0-.89.08,2,2,0,0,0-.66.24,1.1,1.1,0,0,0-.41.39,1.13,1.13,0,0,0-.14.56,1.2,1.2,0,0,0,.15.59,1,1,0,0,0,.44.42,1.61,1.61,0,0,0,.73.16,2,2,0,0,0,.95-.23,2.11,2.11,0,0,0,.65-.56,1.17,1.17,0,0,0,.27-.64l.5.56a1.67,1.67,0,0,1-.24.59,2.54,2.54,0,0,1-.53.62,2.6,2.6,0,0,1-.77.49,2.48,2.48,0,0,1-1,.19,2.65,2.65,0,0,1-1.23-.27,2,2,0,0,1-.81-.73,1.93,1.93,0,0,1-.29-1,2.05,2.05,0,0,1,.22-1,1.89,1.89,0,0,1,.62-.7,3,3,0,0,1,1-.43,5,5,0,0,1,1.27-.15Zm4-1.38v8.19h-1.18v-9.51h1.08Zm4.63,2.06v.13a5.14,5.14,0,0,1-.18,1.39,3.39,3.39,0,0,1-.52,1.1,2.23,2.23,0,0,1-.83.73,2.34,2.34,0,0,1-1.14.26,3,3,0,0,1-1.15-.21,2.33,2.33,0,0,1-.85-.63,3.19,3.19,0,0,1-.56-1,5.52,5.52,0,0,1-.28-1.3v-.71a5.92,5.92,0,0,1,.28-1.37,3.5,3.5,0,0,1,.56-1,2.32,2.32,0,0,1,.84-.65,2.73,2.73,0,0,1,1.14-.23,2.47,2.47,0,0,1,1.15.26,2.24,2.24,0,0,1,.85.71,3.15,3.15,0,0,1,.51,1.11A5.23,5.23,0,0,1,159.92,129.5Zm-1.18.13v-.13a4.23,4.23,0,0,0-.11-1,2.3,2.3,0,0,0-.34-.8,1.55,1.55,0,0,0-.57-.54,1.57,1.57,0,0,0-.83-.21,1.82,1.82,0,0,0-.77.15,1.79,1.79,0,0,0-.56.42,2.3,2.3,0,0,0-.37.58,4,4,0,0,0-.21.67v1.65a3.43,3.43,0,0,0,.36.84,1.87,1.87,0,0,0,.6.62,1.8,1.8,0,0,0,1,.24,1.63,1.63,0,0,0,.82-.2,1.58,1.58,0,0,0,.57-.55,2.3,2.3,0,0,0,.34-.8A4.3,4.3,0,0,0,158.74,129.63Zm5.53,3.48a3.35,3.35,0,0,1-1.3-.24,2.8,2.8,0,0,1-1-.69,3.12,3.12,0,0,1-.64-1.05,4.09,4.09,0,0,1-.22-1.34v-.26a4,4,0,0,1,.25-1.49,3.28,3.28,0,0,1,.67-1.12,2.79,2.79,0,0,1,1-.69,2.71,2.71,0,0,1,1.11-.24,2.87,2.87,0,0,1,1.27.26,2.22,2.22,0,0,1,.89.71,3.15,3.15,0,0,1,.5,1.06,5.12,5.12,0,0,1,.17,1.34v.52h-5.13v-1h3.95v-.08a2.67,2.67,0,0,0-.19-.89,1.51,1.51,0,0,0-.5-.71,1.48,1.48,0,0,0-1-.28,1.61,1.61,0,0,0-1.31.66,2.33,2.33,0,0,0-.37.81,4,4,0,0,0-.14,1.1v.26a3,3,0,0,0,.14.92,2.08,2.08,0,0,0,.4.75,1.77,1.77,0,0,0,.64.51,2,2,0,0,0,.86.18,2,2,0,0,0,1-.25,2.57,2.57,0,0,0,.76-.68l.71.57a4.07,4.07,0,0,1-.56.64,2.6,2.6,0,0,1-.85.49A3.19,3.19,0,0,1,164.27,133.11Zm5.21-5.91V133h-1.17v-6.87h1.14Zm2.15-1.12v1.09l-.28,0h-.29a1.73,1.73,0,0,0-.71.13,1.4,1.4,0,0,0-.53.35,1.64,1.64,0,0,0-.34.55,2.18,2.18,0,0,0-.16.69L169,129a5.39,5.39,0,0,1,.12-1.17,3.12,3.12,0,0,1,.38-1,2.08,2.08,0,0,1,.66-.66,1.91,1.91,0,0,1,1-.24l.29,0Zm1.36,5.51v.95a2.81,2.81,0,0,1-.29,1.21,2.68,2.68,0,0,1-.82,1.08l-.66-.46a4.28,4.28,0,0,0,.34-.57,3,3,0,0,0,.21-.6,2.69,2.69,0,0,0,.08-.65v-1Zm8.78.22v-3.53a1.46,1.46,0,0,0-.17-.71,1,1,0,0,0-.48-.47,1.76,1.76,0,0,0-.8-.16,1.87,1.87,0,0,0-.78.15,1.32,1.32,0,0,0-.52.4.88.88,0,0,0-.19.53h-1.17a1.53,1.53,0,0,1,.19-.73,2.1,2.1,0,0,1,.55-.65,2.64,2.64,0,0,1,.86-.47,3.35,3.35,0,0,1,1.13-.18,3.2,3.2,0,0,1,1.32.26,1.87,1.87,0,0,1,.9.76,2.32,2.32,0,0,1,.33,1.28v3.2a4.78,4.78,0,0,0,.06.73,2.61,2.61,0,0,0,.18.66V133H182a2.1,2.1,0,0,1-.14-.54A3.66,3.66,0,0,1,181.77,131.81Zm.2-3v.83H180.8a4.78,4.78,0,0,0-.9.08,2,2,0,0,0-.66.24,1.1,1.1,0,0,0-.41.39,1.13,1.13,0,0,0-.14.56,1.2,1.2,0,0,0,.15.59,1,1,0,0,0,.44.42,1.61,1.61,0,0,0,.73.16,1.94,1.94,0,0,0,1-.23,2,2,0,0,0,.65-.56,1.17,1.17,0,0,0,.27-.64l.5.56a1.67,1.67,0,0,1-.24.59,2.54,2.54,0,0,1-.53.62,2.6,2.6,0,0,1-.77.49,2.48,2.48,0,0,1-1,.19,2.65,2.65,0,0,1-1.23-.27,2,2,0,0,1-.81-.73,1.93,1.93,0,0,1-.29-1,2.18,2.18,0,0,1,.22-1,1.89,1.89,0,0,1,.62-.7,3,3,0,0,1,1-.43,5.05,5.05,0,0,1,1.28-.15Zm4-1.24V133h-1.17v-6.87h1.11Zm-.28,1.71-.49,0a4.48,4.48,0,0,1,.21-1.3,3.34,3.34,0,0,1,.58-1,2.56,2.56,0,0,1,2-.93,2.85,2.85,0,0,1,.91.14,1.65,1.65,0,0,1,.69.43,1.87,1.87,0,0,1,.45.78,3.77,3.77,0,0,1,.15,1.15V133H189v-4.52a1.91,1.91,0,0,0-.16-.86,1,1,0,0,0-.46-.48,1.73,1.73,0,0,0-.75-.15,1.66,1.66,0,0,0-.8.19,2,2,0,0,0-.62.5,2.69,2.69,0,0,0-.4.75A2.74,2.74,0,0,0,185.68,129.29Zm10.62,2.36v-8.41h1.18V133H196.4Zm-4.62-2v-.13a5.21,5.21,0,0,1,.19-1.43,3.6,3.6,0,0,1,.55-1.11,2.52,2.52,0,0,1,.86-.71,2.46,2.46,0,0,1,1.12-.26,2.65,2.65,0,0,1,1.13.23,2.26,2.26,0,0,1,.82.65,3.25,3.25,0,0,1,.54,1,6.49,6.49,0,0,1,.28,1.37v.58a5.94,5.94,0,0,1-.28,1.36,3.25,3.25,0,0,1-.54,1,2.26,2.26,0,0,1-.82.65,2.73,2.73,0,0,1-1.14.22,2.3,2.3,0,0,1-1.11-.26,2.58,2.58,0,0,1-.86-.73,3.66,3.66,0,0,1-.55-1.1A5.13,5.13,0,0,1,191.68,129.63Zm1.18-.13v.13a4.87,4.87,0,0,0,.1,1,3,3,0,0,0,.33.8,1.63,1.63,0,0,0,.57.54,1.92,1.92,0,0,0,1.78-.06,2,2,0,0,0,.61-.65,3.84,3.84,0,0,0,.35-.89V128.8a3.28,3.28,0,0,0-.22-.67,2.05,2.05,0,0,0-.37-.58,1.65,1.65,0,0,0-.55-.42,1.82,1.82,0,0,0-.77-.15,1.57,1.57,0,0,0-.83.21,1.63,1.63,0,0,0-.57.54,3,3,0,0,0-.33.8A4.9,4.9,0,0,0,192.86,129.5Zm13.68,1.66a1,1,0,0,0-.12-.47.94.94,0,0,0-.45-.39,3.42,3.42,0,0,0-1-.32,7.7,7.7,0,0,1-1-.29,3.17,3.17,0,0,1-.78-.4,1.71,1.71,0,0,1-.49-.55,1.58,1.58,0,0,1-.17-.74,1.71,1.71,0,0,1,.18-.77,2,2,0,0,1,.51-.64,2.52,2.52,0,0,1,.81-.44,3.11,3.11,0,0,1,1-.16,3.16,3.16,0,0,1,1.41.29,2.3,2.3,0,0,1,.9.78,1.94,1.94,0,0,1,.31,1.08h-1.17a1,1,0,0,0-.18-.56,1.31,1.31,0,0,0-.48-.45A1.74,1.74,0,0,0,205,127a1.79,1.79,0,0,0-.79.15,1.09,1.09,0,0,0-.44.37,1,1,0,0,0-.13.49.93.93,0,0,0,.06.34.76.76,0,0,0,.24.27,2.05,2.05,0,0,0,.49.23c.2.07.47.14.79.22a6,6,0,0,1,1.39.45,2,2,0,0,1,.81.66,1.58,1.58,0,0,1,.27.94,1.74,1.74,0,0,1-.19.82,1.76,1.76,0,0,1-.54.65,2.55,2.55,0,0,1-.84.42,4,4,0,0,1-1.08.14,3.28,3.28,0,0,1-1.54-.32,2.38,2.38,0,0,1-1-.84,2,2,0,0,1-.33-1.08h1.19a1.2,1.2,0,0,0,.27.76,1.39,1.39,0,0,0,.63.4,2.33,2.33,0,0,0,.73.12,2.06,2.06,0,0,0,.8-.13,1,1,0,0,0,.5-.35A.78.78,0,0,0,206.54,131.16Zm5.46,1a1.85,1.85,0,0,0,.78-.17,1.67,1.67,0,0,0,.58-.47,1.36,1.36,0,0,0,.26-.69h1.12a2,2,0,0,1-.42,1.13,2.8,2.8,0,0,1-1,.85,2.87,2.87,0,0,1-1.34.31,3.13,3.13,0,0,1-1.35-.27,2.6,2.6,0,0,1-1-.75,3.43,3.43,0,0,1-.57-1.09,4.71,4.71,0,0,1-.18-1.31v-.27a4.66,4.66,0,0,1,.18-1.31,3.49,3.49,0,0,1,.57-1.1,2.83,2.83,0,0,1,1-.75A3.13,3.13,0,0,1,212,126a2.88,2.88,0,0,1,1.41.33,2.47,2.47,0,0,1,1,.89,2.59,2.59,0,0,1,.38,1.27h-1.12a1.7,1.7,0,0,0-.24-.77,1.45,1.45,0,0,0-.56-.54A1.56,1.56,0,0,0,212,127a1.83,1.83,0,0,0-.91.21,1.56,1.56,0,0,0-.57.57,2.66,2.66,0,0,0-.31.8,4.24,4.24,0,0,0-.09.88v.27a4.31,4.31,0,0,0,.09.88,2.55,2.55,0,0,0,.3.8,1.67,1.67,0,0,0,.58.57A1.8,1.8,0,0,0,212,132.15Zm8.11-.34v-3.53a1.46,1.46,0,0,0-.17-.71,1,1,0,0,0-.48-.47,1.76,1.76,0,0,0-.8-.16,1.87,1.87,0,0,0-.78.15,1.32,1.32,0,0,0-.52.4.88.88,0,0,0-.19.53H216a1.53,1.53,0,0,1,.19-.73,2.1,2.1,0,0,1,.55-.65,2.64,2.64,0,0,1,.86-.47,3.35,3.35,0,0,1,1.13-.18,3.2,3.2,0,0,1,1.32.26,1.92,1.92,0,0,1,.9.76,2.32,2.32,0,0,1,.33,1.28v3.2a4.78,4.78,0,0,0,.06.73,2.61,2.61,0,0,0,.18.66V133H220.3a2.1,2.1,0,0,1-.14-.54A3.66,3.66,0,0,1,220.11,131.81Zm.2-3v.83h-1.18a4.78,4.78,0,0,0-.9.08,2,2,0,0,0-.66.24,1.1,1.1,0,0,0-.41.39,1.13,1.13,0,0,0-.14.56,1.2,1.2,0,0,0,.15.59,1,1,0,0,0,.44.42,1.61,1.61,0,0,0,.73.16,1.94,1.94,0,0,0,1-.23,2,2,0,0,0,.65-.56,1.17,1.17,0,0,0,.27-.64l.5.56a1.67,1.67,0,0,1-.24.59,2.54,2.54,0,0,1-.53.62,2.6,2.6,0,0,1-.77.49,2.48,2.48,0,0,1-1,.19,2.65,2.65,0,0,1-1.23-.27,2,2,0,0,1-.81-.73,1.93,1.93,0,0,1-.29-1,2.18,2.18,0,0,1,.22-1,1.89,1.89,0,0,1,.62-.7,3,3,0,0,1,1-.43,5.05,5.05,0,0,1,1.28-.15Zm4.09-5.58V133h-1.18v-9.75Zm5.94,8.57v-3.53a1.46,1.46,0,0,0-.17-.71,1,1,0,0,0-.48-.47,1.73,1.73,0,0,0-.8-.16,1.94,1.94,0,0,0-.78.15,1.32,1.32,0,0,0-.52.4.87.87,0,0,0-.18.53h-1.18a1.65,1.65,0,0,1,.19-.73,2.1,2.1,0,0,1,.55-.65,2.64,2.64,0,0,1,.86-.47A3.39,3.39,0,0,1,229,126a3.2,3.2,0,0,1,1.32.26,1.87,1.87,0,0,1,.9.76,2.32,2.32,0,0,1,.33,1.28v3.2a4.78,4.78,0,0,0,.06.73,2.61,2.61,0,0,0,.18.66V133h-1.22a2.1,2.1,0,0,1-.14-.54A5,5,0,0,1,230.34,131.81Zm.2-3,0,.83h-1.19a4.86,4.86,0,0,0-.9.08,2,2,0,0,0-.66.24,1.07,1.07,0,0,0-.4.39,1,1,0,0,0-.14.56,1.31,1.31,0,0,0,.14.59,1.05,1.05,0,0,0,.44.42,1.61,1.61,0,0,0,.73.16,1.94,1.94,0,0,0,.95-.23,2,2,0,0,0,.66-.56,1.23,1.23,0,0,0,.26-.64l.51.56a1.53,1.53,0,0,1-.25.59,2.49,2.49,0,0,1-.52.62,2.79,2.79,0,0,1-.78.49,2.44,2.44,0,0,1-1,.19,2.68,2.68,0,0,1-1.23-.27,2.12,2.12,0,0,1-.81-.73,1.92,1.92,0,0,1-.28-1,2.17,2.17,0,0,1,.21-1,2,2,0,0,1,.62-.7,3.13,3.13,0,0,1,1-.43,5.05,5.05,0,0,1,1.28-.15Zm2.81-5.58h1.19v8.41l-.11,1.34h-1.08Zm5.83,6.26v.13A5.14,5.14,0,0,1,239,131a3.39,3.39,0,0,1-.52,1.1,2.35,2.35,0,0,1-2,1,2.78,2.78,0,0,1-1.15-.22,2.26,2.26,0,0,1-.82-.65,3.25,3.25,0,0,1-.54-1,6.55,6.55,0,0,1-.27-1.36v-.58a6.52,6.52,0,0,1,.27-1.37,3.25,3.25,0,0,1,.54-1,2.26,2.26,0,0,1,.82-.65,2.73,2.73,0,0,1,1.14-.23,2.53,2.53,0,0,1,1.15.26,2.28,2.28,0,0,1,.84.71,3.35,3.35,0,0,1,.52,1.11A5.23,5.23,0,0,1,239.18,129.5Zm-1.19.13v-.13a4.92,4.92,0,0,0-.09-1,2.47,2.47,0,0,0-.31-.8,1.43,1.43,0,0,0-.55-.54,1.59,1.59,0,0,0-.84-.21,1.87,1.87,0,0,0-.78.15,1.75,1.75,0,0,0-.55.42,2.05,2.05,0,0,0-.37.58,2.74,2.74,0,0,0-.21.67v1.53a3.33,3.33,0,0,0,.33.86,2,2,0,0,0,.62.67,1.75,1.75,0,0,0,1,.26,1.67,1.67,0,0,0,.81-.19,1.53,1.53,0,0,0,.56-.54,2.47,2.47,0,0,0,.31-.8A4.22,4.22,0,0,0,238,129.63Zm3.95-6.39V133h-1.18v-9.75Zm4.73,9.87a3.38,3.38,0,0,1-1.3-.24,2.89,2.89,0,0,1-1-.69,3.27,3.27,0,0,1-.63-1.05,3.85,3.85,0,0,1-.22-1.34v-.26a4.27,4.27,0,0,1,.24-1.49,3.3,3.3,0,0,1,.68-1.12,2.67,2.67,0,0,1,1-.69,2.72,2.72,0,0,1,1.12-.24,2.94,2.94,0,0,1,1.27.26,2.19,2.19,0,0,1,.88.71,3,3,0,0,1,.51,1.06,5.13,5.13,0,0,1,.16,1.34v.52h-5.12v-1h3.95v-.08A3,3,0,0,0,248,128a1.61,1.61,0,0,0-.51-.71,1.45,1.45,0,0,0-.95-.28,1.58,1.58,0,0,0-1.31.66,2.34,2.34,0,0,0-.38.81,4,4,0,0,0-.13,1.1v.26a3,3,0,0,0,.13.92,2.24,2.24,0,0,0,.4.75,1.86,1.86,0,0,0,.64.51,2,2,0,0,0,.87.18,2,2,0,0,0,1-.25,2.42,2.42,0,0,0,.75-.68l.72.57a3.69,3.69,0,0,1-.57.64,2.66,2.66,0,0,1-.84.49A3.25,3.25,0,0,1,246.67,133.11Zm11.72-7h1.07v6.72a3.12,3.12,0,0,1-.37,1.55,2.41,2.41,0,0,1-1,1,3.32,3.32,0,0,1-1.51.34,3.53,3.53,0,0,1-.84-.12,3.23,3.23,0,0,1-.94-.37,2.48,2.48,0,0,1-.77-.71l.62-.69a2.64,2.64,0,0,0,.9.72,2.48,2.48,0,0,0,.94.2,2.06,2.06,0,0,0,1-.21,1.35,1.35,0,0,0,.63-.62,1.92,1.92,0,0,0,.23-1v-5.27Zm-4.73,3.51v-.13a5.23,5.23,0,0,1,.18-1.43,3.59,3.59,0,0,1,.54-1.11,2.43,2.43,0,0,1,.86-.71,2.47,2.47,0,0,1,1.13-.26,2.65,2.65,0,0,1,1.13.23,2.29,2.29,0,0,1,.83.65,3.71,3.71,0,0,1,.54,1,6.52,6.52,0,0,1,.27,1.37v.58a6.55,6.55,0,0,1-.27,1.36,3.71,3.71,0,0,1-.54,1,2.29,2.29,0,0,1-.83.65,2.7,2.7,0,0,1-1.14.22,2.34,2.34,0,0,1-1.12-.26,2.46,2.46,0,0,1-.85-.73,3.44,3.44,0,0,1-.55-1.1A5.14,5.14,0,0,1,253.66,129.63Zm1.18-.13v.13a4.22,4.22,0,0,0,.1,1,2.73,2.73,0,0,0,.32.8,1.63,1.63,0,0,0,.57.54,1.7,1.7,0,0,0,.81.19,1.79,1.79,0,0,0,1-.25,1.87,1.87,0,0,0,.6-.65,4.36,4.36,0,0,0,.36-.89V128.8a3.28,3.28,0,0,0-.22-.67,1.85,1.85,0,0,0-.37-.58,1.55,1.55,0,0,0-.55-.42,1.86,1.86,0,0,0-.77-.15,1.57,1.57,0,0,0-.83.21,1.63,1.63,0,0,0-.57.54,2.73,2.73,0,0,0-.32.8A4.25,4.25,0,0,0,254.84,129.5Zm6.09.13v-.15a4.32,4.32,0,0,1,.21-1.37,3.5,3.5,0,0,1,.63-1.12,2.83,2.83,0,0,1,1-.73,3.26,3.26,0,0,1,2.6,0,2.78,2.78,0,0,1,1,.73,3.5,3.5,0,0,1,.63,1.12,4.32,4.32,0,0,1,.21,1.37v.15A4.43,4.43,0,0,1,267,131a3.56,3.56,0,0,1-.63,1.11,2.78,2.78,0,0,1-1,.73,3,3,0,0,1-1.29.26,3,3,0,0,1-1.3-.26,2.78,2.78,0,0,1-1-.73,3.56,3.56,0,0,1-.63-1.11A4.43,4.43,0,0,1,260.93,129.63Zm1.17-.15v.15a3.79,3.79,0,0,0,.12,1,2.35,2.35,0,0,0,.37.8,1.78,1.78,0,0,0,.61.55,1.82,1.82,0,0,0,.86.2,1.74,1.74,0,0,0,.84-.2,1.7,1.7,0,0,0,.61-.55,2.54,2.54,0,0,0,.36-.8,3.39,3.39,0,0,0,.13-1v-.15a3.32,3.32,0,0,0-.13-1,2.54,2.54,0,0,0-.36-.8,1.91,1.91,0,0,0-.61-.56,1.93,1.93,0,0,0-1.71,0,1.78,1.78,0,0,0-.6.56,2.35,2.35,0,0,0-.37.8A3.71,3.71,0,0,0,262.1,129.48Zm8.54,2.45,1.88-5.81h1.2L271.25,133h-.79Zm-1.57-5.81L271,132l.13,1h-.78l-2.49-6.87Zm8.22,2.46v1H274.2v-1Zm4-2.46v.9H277.6v-.9Zm-2.46-1.67H280v6.84a1,1,0,0,0,.1.52.58.58,0,0,0,.28.24,1.14,1.14,0,0,0,.37,0,1.67,1.67,0,0,0,.31,0l.24-.05v1a3.72,3.72,0,0,1-.37.08,2.83,2.83,0,0,1-.54,0,1.73,1.73,0,0,1-.79-.17,1.23,1.23,0,0,1-.58-.57,2.37,2.37,0,0,1-.21-1.09Zm6.68,8.66a3.42,3.42,0,0,1-1.3-.24,2.85,2.85,0,0,1-1-.69,3.12,3.12,0,0,1-.64-1.05,3.85,3.85,0,0,1-.22-1.34v-.26a4,4,0,0,1,.25-1.49,3.28,3.28,0,0,1,.67-1.12,2.89,2.89,0,0,1,2.08-.93,2.9,2.9,0,0,1,1.27.26,2.12,2.12,0,0,1,.88.71,3,3,0,0,1,.51,1.06,5.12,5.12,0,0,1,.17,1.34v.52h-5.13v-1h4v-.08a2.67,2.67,0,0,0-.19-.89,1.44,1.44,0,0,0-1.46-1,1.61,1.61,0,0,0-1.31.66,2.53,2.53,0,0,0-.38.81,4.49,4.49,0,0,0-.13,1.1v.26a3.35,3.35,0,0,0,.13.92,2.44,2.44,0,0,0,.4.75,1.89,1.89,0,0,0,.65.51,2,2,0,0,0,.86.18,2,2,0,0,0,1.05-.25,2.57,2.57,0,0,0,.76-.68l.71.57a3.69,3.69,0,0,1-.57.64,2.55,2.55,0,0,1-.84.49A3.21,3.21,0,0,1,285.54,133.11Zm6.8-1a1.81,1.81,0,0,0,.77-.17,1.71,1.71,0,0,0,.59-.47,1.46,1.46,0,0,0,.26-.69h1.11a2.11,2.11,0,0,1-.41,1.13,2.77,2.77,0,0,1-2.32,1.16,3.2,3.2,0,0,1-1.36-.27,2.69,2.69,0,0,1-1-.75,3.22,3.22,0,0,1-.56-1.09,4.71,4.71,0,0,1-.19-1.31v-.27a4.66,4.66,0,0,1,.19-1.31A3.27,3.27,0,0,1,290,127a2.93,2.93,0,0,1,1-.75,3.2,3.2,0,0,1,1.36-.27,2.94,2.94,0,0,1,1.41.33,2.44,2.44,0,0,1,.94.89,2.59,2.59,0,0,1,.38,1.27H294a1.84,1.84,0,0,0-.25-.77,1.43,1.43,0,0,0-.55-.54,1.59,1.59,0,0,0-.82-.21,1.8,1.8,0,0,0-.91.21,1.67,1.67,0,0,0-.58.57,2.65,2.65,0,0,0-.3.8,4.24,4.24,0,0,0-.09.88v.27a4.31,4.31,0,0,0,.09.88,2.55,2.55,0,0,0,.3.8,1.64,1.64,0,0,0,.57.57A1.84,1.84,0,0,0,292.34,132.15Zm5.23-8.91V133h-1.18v-9.75Zm-.28,6-.49,0A3.9,3.9,0,0,1,297,128a3.13,3.13,0,0,1,.57-1,2.64,2.64,0,0,1,.88-.68,2.5,2.5,0,0,1,1.13-.25,2.91,2.91,0,0,1,.92.14,1.65,1.65,0,0,1,.69.43,2,2,0,0,1,.44.78,3.77,3.77,0,0,1,.15,1.15V133h-1.18v-4.52a2.07,2.07,0,0,0-.15-.86,1,1,0,0,0-.47-.48,1.86,1.86,0,0,0-1.55,0,2,2,0,0,0-.61.5,2.69,2.69,0,0,0-.4.75A2.48,2.48,0,0,0,297.29,129.29Zm13.82,2.36v-8.41h1.18V133h-1.08Zm-4.62-2v-.13a4.85,4.85,0,0,1,.19-1.43,3.39,3.39,0,0,1,.55-1.11,2.43,2.43,0,0,1,.86-.71,2.39,2.39,0,0,1,1.11-.26,2.65,2.65,0,0,1,1.13.23,2.29,2.29,0,0,1,.83.65,3.25,3.25,0,0,1,.54,1,6.52,6.52,0,0,1,.27,1.37v.58a6.55,6.55,0,0,1-.27,1.36,3.25,3.25,0,0,1-.54,1,2.29,2.29,0,0,1-.83.65,2.67,2.67,0,0,1-1.14.22,2.26,2.26,0,0,1-1.1-.26,2.49,2.49,0,0,1-.86-.73,3.44,3.44,0,0,1-.55-1.1A4.77,4.77,0,0,1,306.49,129.63Zm1.18-.13v.13a4.22,4.22,0,0,0,.1,1,2.5,2.5,0,0,0,.33.8,1.61,1.61,0,0,0,.56.54,1.92,1.92,0,0,0,1.78-.06,1.9,1.9,0,0,0,.61-.65,4.36,4.36,0,0,0,.36-.89V128.8a4.08,4.08,0,0,0-.23-.67,1.85,1.85,0,0,0-.37-.58,1.55,1.55,0,0,0-.55-.42,1.79,1.79,0,0,0-.77-.15,1.59,1.59,0,0,0-1.39.75,2.5,2.5,0,0,0-.33.8A4.25,4.25,0,0,0,307.67,129.5Zm9.3,3.61a3.43,3.43,0,0,1-1.31-.24,2.85,2.85,0,0,1-1-.69,3.12,3.12,0,0,1-.64-1.05,4.09,4.09,0,0,1-.22-1.34v-.26a4,4,0,0,1,.25-1.49,3.28,3.28,0,0,1,.67-1.12,2.79,2.79,0,0,1,1-.69,2.71,2.71,0,0,1,1.11-.24,2.9,2.9,0,0,1,1.27.26,2.22,2.22,0,0,1,.89.71,3.15,3.15,0,0,1,.5,1.06,5.12,5.12,0,0,1,.17,1.34v.52h-5.13v-1h3.95v-.08a2.67,2.67,0,0,0-.19-.89,1.51,1.51,0,0,0-.5-.71,1.48,1.48,0,0,0-1-.28,1.61,1.61,0,0,0-1.31.66,2.33,2.33,0,0,0-.37.81,4,4,0,0,0-.14,1.1v.26a3,3,0,0,0,.14.92,2.23,2.23,0,0,0,.39.75,1.89,1.89,0,0,0,.65.51,2,2,0,0,0,.86.18,2,2,0,0,0,1.05-.25,2.57,2.57,0,0,0,.76-.68l.71.57a3.69,3.69,0,0,1-.57.64,2.55,2.55,0,0,1-.84.49A3.19,3.19,0,0,1,317,133.11Zm5.32-9.87V133H321.1v-9.75Zm3.16,2.88V133h-1.18v-6.87Zm-1.27-1.82a.72.72,0,0,1,.17-.49.67.67,0,0,1,.52-.19.66.66,0,0,1,.51.19.69.69,0,0,1,.19.49.64.64,0,0,1-.19.47.69.69,0,0,1-.51.19.7.7,0,0,1-.52-.19A.67.67,0,0,1,324.18,124.3Zm5.24,7.63,1.88-5.81h1.2L330,133h-.79Zm-1.57-5.81,1.94,5.84.13,1h-.79l-2.48-6.87Zm8.54,7a3.38,3.38,0,0,1-1.3-.24,2.8,2.8,0,0,1-1-.69,3.27,3.27,0,0,1-.63-1.05,3.85,3.85,0,0,1-.23-1.34v-.26a4.27,4.27,0,0,1,.25-1.49,3.3,3.3,0,0,1,.68-1.12,2.67,2.67,0,0,1,1-.69,2.72,2.72,0,0,1,1.12-.24,2.94,2.94,0,0,1,1.27.26,2.19,2.19,0,0,1,.88.71,3,3,0,0,1,.51,1.06,5.13,5.13,0,0,1,.16,1.34v.52h-5.13v-1h4v-.08a3,3,0,0,0-.19-.89,1.61,1.61,0,0,0-.51-.71,1.45,1.45,0,0,0-.95-.28,1.55,1.55,0,0,0-.74.17,1.59,1.59,0,0,0-.58.49,2.53,2.53,0,0,0-.37.81,4,4,0,0,0-.13,1.1v.26a3,3,0,0,0,.13.92,2.24,2.24,0,0,0,.4.75,1.86,1.86,0,0,0,.64.51,2,2,0,0,0,.86.18,2.05,2.05,0,0,0,1.06-.25,2.54,2.54,0,0,0,.75-.68l.71.57a3.25,3.25,0,0,1-.56.64,2.6,2.6,0,0,1-.85.49A3.19,3.19,0,0,1,336.39,133.11Zm5.22-5.91V133h-1.18v-6.87h1.15Zm2.14-1.12v1.09l-.28,0h-.29a1.78,1.78,0,0,0-.72.13,1.49,1.49,0,0,0-.53.35,1.82,1.82,0,0,0-.34.55,2.9,2.9,0,0,0-.16.69l-.33.19a5.39,5.39,0,0,1,.12-1.17,2.9,2.9,0,0,1,.39-1,1.9,1.9,0,0,1,.66-.66,1.85,1.85,0,0,1,1-.24l.29,0Zm3.13,6.2,1.91-6.16h1.26l-2.76,7.93a3.19,3.19,0,0,1-.25.54,2.63,2.63,0,0,1-.39.57,1.83,1.83,0,0,1-.59.43,1.86,1.86,0,0,1-1.16.13l-.3-.06v-.95h.32a1.76,1.76,0,0,0,.68-.11,1,1,0,0,0,.47-.34,2.2,2.2,0,0,0,.33-.67Zm-1.4-6.16,1.78,5.33.31,1.24-.85.43-2.52-7Zm11.73,0v.9H353.5v-.9Zm-2.46-1.67h1.18v6.84a.94.94,0,0,0,.11.52.52.52,0,0,0,.27.24,1.14,1.14,0,0,0,.37,0,1.67,1.67,0,0,0,.31,0l.25-.05v1a3.17,3.17,0,0,1-.37.08,2.7,2.7,0,0,1-.54,0,1.75,1.75,0,0,1-.79-.17,1.27,1.27,0,0,1-.58-.57,2.37,2.37,0,0,1-.21-1.09Zm5-1.21V133h-1.17v-9.75Zm-.28,6-.49,0a4.48,4.48,0,0,1,.21-1.3,3.53,3.53,0,0,1,.57-1,2.64,2.64,0,0,1,.88-.68,2.51,2.51,0,0,1,1.14-.25,2.85,2.85,0,0,1,.91.14,1.65,1.65,0,0,1,.69.43,1.87,1.87,0,0,1,.45.78,3.77,3.77,0,0,1,.15,1.15V133h-1.18v-4.52a1.91,1.91,0,0,0-.16-.86,1,1,0,0,0-.46-.48,1.73,1.73,0,0,0-.75-.15,1.66,1.66,0,0,0-.8.19,2,2,0,0,0-.62.5,2.69,2.69,0,0,0-.4.75A2.74,2.74,0,0,0,359.48,129.29Zm7.44-2.09V133h-1.17v-6.87h1.14Zm2.15-1.12v1.09l-.28,0h-.29a1.81,1.81,0,0,0-.72.13,1.45,1.45,0,0,0-.52.35,1.84,1.84,0,0,0-.35.55,2.9,2.9,0,0,0-.16.69l-.33.19a5.39,5.39,0,0,1,.12-1.17,3.4,3.4,0,0,1,.39-1,2.08,2.08,0,0,1,.66-.66,1.86,1.86,0,0,1,1-.24l.29,0Zm.64,3.55v-.15a4.32,4.32,0,0,1,.22-1.37,3.3,3.3,0,0,1,.62-1.12,2.78,2.78,0,0,1,1-.73,3,3,0,0,1,1.29-.27,3,3,0,0,1,1.3.27,2.78,2.78,0,0,1,1,.73,3.16,3.16,0,0,1,.63,1.12,4.06,4.06,0,0,1,.22,1.37v.15a4.16,4.16,0,0,1-.22,1.38,3.21,3.21,0,0,1-.63,1.11,2.83,2.83,0,0,1-1,.73,3,3,0,0,1-1.3.26,3.05,3.05,0,0,1-1.3-.26,3,3,0,0,1-1-.73,3.35,3.35,0,0,1-.62-1.11A4.43,4.43,0,0,1,369.71,129.63Zm1.18-.15v.15a3.79,3.79,0,0,0,.12,1,2.54,2.54,0,0,0,.36.8,1.81,1.81,0,0,0,.62.55,1.78,1.78,0,0,0,.85.2,1.75,1.75,0,0,0,.85-.2,1.78,1.78,0,0,0,.61-.55,2.54,2.54,0,0,0,.36-.8,3.79,3.79,0,0,0,.13-1v-.15a3.71,3.71,0,0,0-.13-1,2.35,2.35,0,0,0-.37-.8,1.72,1.72,0,0,0-.61-.56,1.65,1.65,0,0,0-.85-.2,1.7,1.7,0,0,0-.85.2,1.91,1.91,0,0,0-.61.56,2.54,2.54,0,0,0-.36.8A3.71,3.71,0,0,0,370.89,129.48Zm10.75,1.92v-5.28h1.18V133H381.7Zm.22-1.45h.49a5.61,5.61,0,0,1-.14,1.27,2.87,2.87,0,0,1-.46,1,2.11,2.11,0,0,1-.83.67,3.32,3.32,0,0,1-2.17.09,1.87,1.87,0,0,1-.71-.45,2.1,2.1,0,0,1-.47-.8,3.94,3.94,0,0,1-.16-1.17v-4.43h1.18v4.44a2.4,2.4,0,0,0,.1.77,1.26,1.26,0,0,0,.29.48,1.1,1.1,0,0,0,.4.24,1.84,1.84,0,0,0,.47.07,2.16,2.16,0,0,0,1.19-.29,1.62,1.62,0,0,0,.63-.78A3,3,0,0,0,381.86,130Zm7.2-3.83h1.07v6.72a3,3,0,0,1-.37,1.55,2.36,2.36,0,0,1-1,1,3.29,3.29,0,0,1-1.51.34,3.59,3.59,0,0,1-.84-.12,3.34,3.34,0,0,1-.94-.37,2.34,2.34,0,0,1-.76-.71l.61-.69a2.64,2.64,0,0,0,.9.72,2.48,2.48,0,0,0,.94.2,2.07,2.07,0,0,0,1-.21,1.45,1.45,0,0,0,.63-.62,2,2,0,0,0,.22-1v-5.27Zm-4.73,3.51v-.13a4.85,4.85,0,0,1,.19-1.43,3.19,3.19,0,0,1,.54-1.11,2.31,2.31,0,0,1,.85-.71A2.5,2.5,0,0,1,387,126a2.62,2.62,0,0,1,1.13.23,2.29,2.29,0,0,1,.83.65,3.25,3.25,0,0,1,.54,1,6.52,6.52,0,0,1,.27,1.37v.58a6,6,0,0,1-.27,1.36,3.25,3.25,0,0,1-.54,1,2.29,2.29,0,0,1-.83.65,2.67,2.67,0,0,1-1.14.22,2.34,2.34,0,0,1-1.12-.26,2.46,2.46,0,0,1-.85-.73,3.42,3.42,0,0,1-.54-1.1A4.77,4.77,0,0,1,384.33,129.63Zm1.18-.13v.13a4.22,4.22,0,0,0,.1,1,2.73,2.73,0,0,0,.32.8,1.63,1.63,0,0,0,.57.54,1.92,1.92,0,0,0,1.78-.06,1.7,1.7,0,0,0,.6-.65,3.46,3.46,0,0,0,.36-.89V128.8a3.28,3.28,0,0,0-.22-.67,2,2,0,0,0-.36-.58,1.68,1.68,0,0,0-.56-.42,1.82,1.82,0,0,0-.77-.15,1.57,1.57,0,0,0-.83.21,1.63,1.63,0,0,0-.57.54,2.73,2.73,0,0,0-.32.8A4.25,4.25,0,0,0,385.51,129.5Zm7.58-6.26V133h-1.18v-9.75Zm-.28,6-.49,0a3.9,3.9,0,0,1,.21-1.3,3.13,3.13,0,0,1,.57-1,2.64,2.64,0,0,1,.88-.68,2.5,2.5,0,0,1,1.13-.25,2.91,2.91,0,0,1,.92.14,1.65,1.65,0,0,1,.69.43,2,2,0,0,1,.44.78,3.77,3.77,0,0,1,.15,1.15V133h-1.18v-4.52a2.07,2.07,0,0,0-.15-.86,1,1,0,0,0-.47-.48,1.86,1.86,0,0,0-1.55,0,2,2,0,0,0-.61.5,2.46,2.46,0,0,0-.4.75A2.48,2.48,0,0,0,392.81,129.29ZM405,133h-1.93v-1H405a3.1,3.1,0,0,0,1.65-.41,2.58,2.58,0,0,0,1-1.17,4.35,4.35,0,0,0,.33-1.76v-.57a4.67,4.67,0,0,0-.19-1.41,2.79,2.79,0,0,0-.56-1,2.37,2.37,0,0,0-.9-.65,3,3,0,0,0-1.21-.22H403v-1h2.08a4.42,4.42,0,0,1,1.66.31,3.59,3.59,0,0,1,1.29.87,3.79,3.79,0,0,1,.83,1.37,5.07,5.07,0,0,1,.3,1.8v.56a5.11,5.11,0,0,1-.3,1.8,3.67,3.67,0,0,1-.84,1.37,3.54,3.54,0,0,1-1.32.87A4.72,4.72,0,0,1,405,133Zm-1.28-9.25V133h-1.22v-9.25Zm8.4,2.38V133h-1.18v-6.87Zm-1.26-1.82a.72.72,0,0,1,.17-.49.79.79,0,0,1,1,0,.73.73,0,0,1,.19.49.68.68,0,0,1-.19.47.69.69,0,0,1-.51.19.69.69,0,0,1-.52-.19A.67.67,0,0,1,410.84,124.3Zm7.6,1.82h1.07v6.72a3.12,3.12,0,0,1-.37,1.55,2.41,2.41,0,0,1-1,1,3.32,3.32,0,0,1-1.51.34,3.53,3.53,0,0,1-.84-.12,3.23,3.23,0,0,1-.94-.37,2.48,2.48,0,0,1-.77-.71l.62-.69a2.64,2.64,0,0,0,.9.72,2.48,2.48,0,0,0,.94.2,2.06,2.06,0,0,0,1-.21,1.4,1.4,0,0,0,.63-.62,1.92,1.92,0,0,0,.23-1v-5.27Zm-4.73,3.51v-.13a5.23,5.23,0,0,1,.18-1.43,3.59,3.59,0,0,1,.54-1.11,2.43,2.43,0,0,1,.86-.71,2.47,2.47,0,0,1,1.13-.26,2.65,2.65,0,0,1,1.13.23,2.29,2.29,0,0,1,.83.65,3.71,3.71,0,0,1,.54,1,6.52,6.52,0,0,1,.27,1.37v.58a6.55,6.55,0,0,1-.27,1.36,3.71,3.71,0,0,1-.54,1,2.29,2.29,0,0,1-.83.65,2.73,2.73,0,0,1-1.14.22,2.34,2.34,0,0,1-1.12-.26,2.46,2.46,0,0,1-.85-.73,3.44,3.44,0,0,1-.55-1.1A5.14,5.14,0,0,1,413.71,129.63Zm1.17-.13v.13a4.21,4.21,0,0,0,.11,1,2.73,2.73,0,0,0,.32.8,1.63,1.63,0,0,0,.57.54,1.7,1.7,0,0,0,.81.19,1.81,1.81,0,0,0,1-.25,1.87,1.87,0,0,0,.6-.65,4.36,4.36,0,0,0,.36-.89V128.8a3.28,3.28,0,0,0-.22-.67,1.85,1.85,0,0,0-.37-.58,1.55,1.55,0,0,0-.55-.42,1.86,1.86,0,0,0-.77-.15,1.55,1.55,0,0,0-.83.21,1.63,1.63,0,0,0-.57.54,2.73,2.73,0,0,0-.32.8A4.23,4.23,0,0,0,414.88,129.5Zm7.69-3.38V133h-1.19v-6.87Zm-1.27-1.82a.72.72,0,0,1,.17-.49.67.67,0,0,1,.52-.19.66.66,0,0,1,.51.19.73.73,0,0,1,.19.49.68.68,0,0,1-.19.47.69.69,0,0,1-.51.19.7.7,0,0,1-.52-.19A.67.67,0,0,1,421.3,124.3Zm6,1.82v.9h-3.72v-.9Zm-2.46-1.67H426v6.84a1,1,0,0,0,.11.52.54.54,0,0,0,.28.24,1.14,1.14,0,0,0,.37,0,1.51,1.51,0,0,0,.3,0l.25-.05v1l-.37.08a2.83,2.83,0,0,1-.54,0,1.73,1.73,0,0,1-.79-.17,1.23,1.23,0,0,1-.58-.57,2.37,2.37,0,0,1-.21-1.09Zm7.88,7.36v-3.53a1.46,1.46,0,0,0-.16-.71,1.15,1.15,0,0,0-.48-.47,1.78,1.78,0,0,0-.8-.16,1.87,1.87,0,0,0-.78.15,1.35,1.35,0,0,0-.53.4.87.87,0,0,0-.18.53h-1.17a1.53,1.53,0,0,1,.19-.73,2.06,2.06,0,0,1,.54-.65,2.59,2.59,0,0,1,.87-.47,3.31,3.31,0,0,1,1.13-.18,3.2,3.2,0,0,1,1.32.26,2,2,0,0,1,.9.76,2.32,2.32,0,0,1,.33,1.28v3.2a6.4,6.4,0,0,0,.05.73,3.08,3.08,0,0,0,.19.66V133h-1.23a2.61,2.61,0,0,1-.14-.54A5,5,0,0,1,432.75,131.81Zm.21-3v.83h-1.19a4.74,4.74,0,0,0-.89.08,1.82,1.82,0,0,0-.66.24,1,1,0,0,0-.41.39,1.13,1.13,0,0,0-.14.56,1.2,1.2,0,0,0,.15.59,1,1,0,0,0,.44.42,1.58,1.58,0,0,0,.73.16,2,2,0,0,0,.95-.23,2.11,2.11,0,0,0,.65-.56,1.17,1.17,0,0,0,.27-.64l.5.56a1.67,1.67,0,0,1-.24.59,2.54,2.54,0,0,1-.53.62,2.6,2.6,0,0,1-.77.49,2.49,2.49,0,0,1-1,.19,2.64,2.64,0,0,1-1.22-.27,2,2,0,0,1-.81-.73,1.93,1.93,0,0,1-.29-1,2.05,2.05,0,0,1,.22-1,1.89,1.89,0,0,1,.62-.7,3,3,0,0,1,1-.43,5,5,0,0,1,1.27-.15Zm4.09-5.58V133h-1.18v-9.75ZM49.46,144.36H47v-1h2.47a2.54,2.54,0,0,0,1.16-.23,1.44,1.44,0,0,0,.65-.64,2.08,2.08,0,0,0,0-1.82,1.5,1.5,0,0,0-.65-.67,2.19,2.19,0,0,0-1.16-.26H47.28V148H46.05v-9.25h3.41a3.8,3.8,0,0,1,1.77.37,2.49,2.49,0,0,1,1.1,1,2.8,2.8,0,0,1,.38,1.45,2.9,2.9,0,0,1-.38,1.52,2.36,2.36,0,0,1-1.1,1A4.41,4.41,0,0,1,49.46,144.36Zm8.82,2v-5.28h1.18V148H58.34ZM58.5,145H59a5.08,5.08,0,0,1-.15,1.27,2.69,2.69,0,0,1-.45,1,2.11,2.11,0,0,1-.83.67,3,3,0,0,1-1.25.23,3,3,0,0,1-.93-.14,2,2,0,0,1-.71-.45,2.22,2.22,0,0,1-.46-.8,3.63,3.63,0,0,1-.16-1.17v-4.43h1.18v4.44a2.4,2.4,0,0,0,.1.77,1.24,1.24,0,0,0,.28.48,1.23,1.23,0,0,0,.41.24,1.84,1.84,0,0,0,.47.07,2.18,2.18,0,0,0,1.19-.29,1.54,1.54,0,0,0,.62-.78A2.8,2.8,0,0,0,58.5,145Zm2.74-6.71h1.18v8.41l-.1,1.34H61.24Zm5.82,6.26v.13a5.14,5.14,0,0,1-.17,1.39,3.61,3.61,0,0,1-.52,1.1,2.35,2.35,0,0,1-2,1,2.78,2.78,0,0,1-1.15-.22,2.26,2.26,0,0,1-.82-.65,3.25,3.25,0,0,1-.54-1,6.55,6.55,0,0,1-.27-1.36v-.58a6.52,6.52,0,0,1,.27-1.37,3.25,3.25,0,0,1,.54-1,2.26,2.26,0,0,1,.82-.65,2.73,2.73,0,0,1,1.14-.23,2.53,2.53,0,0,1,1.15.26,2.28,2.28,0,0,1,.84.71,3.56,3.56,0,0,1,.52,1.11A5.24,5.24,0,0,1,67.06,144.5Zm-1.18.13v-.13a4.92,4.92,0,0,0-.09-1,2.47,2.47,0,0,0-.31-.8,1.61,1.61,0,0,0-.55-.55,1.68,1.68,0,0,0-.84-.2,1.87,1.87,0,0,0-.78.15,1.75,1.75,0,0,0-.55.42,2.05,2.05,0,0,0-.37.58,2.74,2.74,0,0,0-.21.67v1.53a2.74,2.74,0,0,0,.33.86,2,2,0,0,0,.62.67,1.75,1.75,0,0,0,1,.26,1.67,1.67,0,0,0,.81-.19,1.53,1.53,0,0,0,.56-.54,2.72,2.72,0,0,0,.31-.8A4.22,4.22,0,0,0,65.88,144.63Zm4-6.39V148H68.65v-9.75ZM73,141.12V148H71.81v-6.87Zm-1.27-1.82a.72.72,0,0,1,.17-.49.67.67,0,0,1,.52-.19.64.64,0,0,1,.51.19.69.69,0,0,1,.19.49.64.64,0,0,1-.19.47.68.68,0,0,1-.51.19.7.7,0,0,1-.52-.19A.67.67,0,0,1,71.72,139.3Zm5.9,7.85a1.85,1.85,0,0,0,.78-.17,1.67,1.67,0,0,0,.58-.47,1.36,1.36,0,0,0,.26-.69h1.12a2,2,0,0,1-.42,1.13,2.8,2.8,0,0,1-1,.85,2.87,2.87,0,0,1-1.34.31,3.13,3.13,0,0,1-1.35-.27,2.6,2.6,0,0,1-1-.75,3.43,3.43,0,0,1-.57-1.09,4.71,4.71,0,0,1-.18-1.31v-.27a4.66,4.66,0,0,1,.18-1.31,3.49,3.49,0,0,1,.57-1.1,2.83,2.83,0,0,1,1-.75,3.13,3.13,0,0,1,1.35-.27,2.88,2.88,0,0,1,1.41.33,2.47,2.47,0,0,1,1,.89,2.59,2.59,0,0,1,.38,1.27H79.24a1.7,1.7,0,0,0-.24-.77,1.45,1.45,0,0,0-.56-.54,1.56,1.56,0,0,0-.82-.21,1.83,1.83,0,0,0-.91.21,1.56,1.56,0,0,0-.57.57,2.57,2.57,0,0,0-.31.8,4.24,4.24,0,0,0-.09.88v.27a4.31,4.31,0,0,0,.09.88,2.55,2.55,0,0,0,.3.8,1.67,1.67,0,0,0,.58.57A1.8,1.8,0,0,0,77.62,147.15Zm14.29-3.77v3.39a2.84,2.84,0,0,1-.55.57,3.19,3.19,0,0,1-1,.54,5,5,0,0,1-1.69.23,3.93,3.93,0,0,1-1.55-.29,3.65,3.65,0,0,1-1.23-.86,4,4,0,0,1-.8-1.39,5.58,5.58,0,0,1-.28-1.85V143a6.46,6.46,0,0,1,.24-1.84,3.86,3.86,0,0,1,.73-1.38,2.92,2.92,0,0,1,1.16-.86,4,4,0,0,1,1.59-.3,3.74,3.74,0,0,1,1.77.37,2.72,2.72,0,0,1,1.12,1,3.69,3.69,0,0,1,.52,1.46H90.68a2.42,2.42,0,0,0-.33-.92,1.83,1.83,0,0,0-.69-.66,2.35,2.35,0,0,0-1.16-.25,2.39,2.39,0,0,0-1.11.24,2,2,0,0,0-.77.67,2.94,2.94,0,0,0-.46,1.06A6,6,0,0,0,86,143v.73a4.85,4.85,0,0,0,.19,1.43,2.92,2.92,0,0,0,.54,1.07,2.32,2.32,0,0,0,.83.67,2.52,2.52,0,0,0,1.08.23,4.36,4.36,0,0,0,1.06-.11,2.37,2.37,0,0,0,.63-.27,1.55,1.55,0,0,0,.35-.3v-2.07H88.55v-1Zm1.54,1.25v-.15a4.06,4.06,0,0,1,.22-1.37,3.3,3.3,0,0,1,.62-1.12,2.83,2.83,0,0,1,1-.73,3.26,3.26,0,0,1,2.6,0,2.78,2.78,0,0,1,1,.73,3.32,3.32,0,0,1,.63,1.12,4.32,4.32,0,0,1,.21,1.37v.15a4.43,4.43,0,0,1-.21,1.38,3.37,3.37,0,0,1-.63,1.11,2.83,2.83,0,0,1-1,.73,3,3,0,0,1-1.3.26,3.05,3.05,0,0,1-1.3-.26,2.78,2.78,0,0,1-1-.73,3.35,3.35,0,0,1-.62-1.11A4.16,4.16,0,0,1,93.45,144.63Zm1.18-.15v.15a3.79,3.79,0,0,0,.12,1,2.54,2.54,0,0,0,.36.8,1.78,1.78,0,0,0,.61.55,1.85,1.85,0,0,0,.86.2,1.81,1.81,0,0,0,.85-.2,1.75,1.75,0,0,0,.6-.55,2.35,2.35,0,0,0,.37-.8,3.79,3.79,0,0,0,.12-1v-.15a3.71,3.71,0,0,0-.12-1,2.56,2.56,0,0,0-.37-.8,1.72,1.72,0,0,0-.61-.56,1.91,1.91,0,0,0-1.7,0,1.72,1.72,0,0,0-.61.56,2.54,2.54,0,0,0-.36.8A3.71,3.71,0,0,0,94.63,144.48Zm6.24.15v-.15a4.32,4.32,0,0,1,.21-1.37,3.48,3.48,0,0,1,.62-1.12,2.78,2.78,0,0,1,1-.73,3.24,3.24,0,0,1,2.59,0,2.78,2.78,0,0,1,1,.73,3.16,3.16,0,0,1,.63,1.12,4.06,4.06,0,0,1,.22,1.37v.15a4.16,4.16,0,0,1-.22,1.38,3.21,3.21,0,0,1-.63,1.11,2.74,2.74,0,0,1-1,.73,3,3,0,0,1-1.29.26,3.07,3.07,0,0,1-1.31-.26,3,3,0,0,1-1-.73,3.54,3.54,0,0,1-.62-1.11A4.43,4.43,0,0,1,100.87,144.63Zm1.17-.15v.15a3.79,3.79,0,0,0,.12,1,2.54,2.54,0,0,0,.36.8,1.81,1.81,0,0,0,.62.55,1.79,1.79,0,0,0,.86.2,1.74,1.74,0,0,0,.84-.2,1.78,1.78,0,0,0,.61-.55,2.54,2.54,0,0,0,.36-.8,3.39,3.39,0,0,0,.13-1v-.15a3.32,3.32,0,0,0-.13-1,2.35,2.35,0,0,0-.37-.8A1.68,1.68,0,0,0,104,142a1.7,1.7,0,0,0-.85.2,1.8,1.8,0,0,0-.61.56,2.54,2.54,0,0,0-.36.8A3.71,3.71,0,0,0,102,144.48Zm10.88,2.17v-8.41h1.18V148H113Zm-4.62-2v-.13a4.85,4.85,0,0,1,.19-1.43A3.39,3.39,0,0,1,109,142a2.47,2.47,0,0,1,2-1,2.68,2.68,0,0,1,1.13.23,2.26,2.26,0,0,1,.82.65,3.25,3.25,0,0,1,.54,1,6.52,6.52,0,0,1,.27,1.37v.58a5.46,5.46,0,0,1-.27,1.36,3.25,3.25,0,0,1-.54,1,2.26,2.26,0,0,1-.82.65,2.74,2.74,0,0,1-1.15.22,2.26,2.26,0,0,1-1.1-.26,2.49,2.49,0,0,1-.86-.73,3.44,3.44,0,0,1-.55-1.1A4.77,4.77,0,0,1,108.3,144.63Zm1.18-.13v.13a4.22,4.22,0,0,0,.1,1,2.5,2.5,0,0,0,.33.8,1.63,1.63,0,0,0,.57.54,1.71,1.71,0,0,0,.82.19,1.74,1.74,0,0,0,1-.25,1.81,1.81,0,0,0,.61-.65,3.86,3.86,0,0,0,.36-.89V143.8a4,4,0,0,0-.22-.67,2.3,2.3,0,0,0-.37-.58,1.65,1.65,0,0,0-.55-.42,1.86,1.86,0,0,0-.77-.15,1.67,1.67,0,0,0-.83.2,1.76,1.76,0,0,0-.57.55,2.5,2.5,0,0,0-.33.8A4.25,4.25,0,0,0,109.48,144.5Zm10.45,1.66a1,1,0,0,0-.12-.47.94.94,0,0,0-.45-.39,3.42,3.42,0,0,0-1-.32,8.14,8.14,0,0,1-1-.29,3.17,3.17,0,0,1-.78-.4,1.71,1.71,0,0,1-.49-.55,1.58,1.58,0,0,1-.17-.74,1.71,1.71,0,0,1,.18-.77,2,2,0,0,1,.51-.64,2.63,2.63,0,0,1,.81-.44,3.13,3.13,0,0,1,1-.16,3.19,3.19,0,0,1,1.41.29,2.27,2.27,0,0,1,.89.78,1.94,1.94,0,0,1,.31,1.08h-1.17a1.07,1.07,0,0,0-.17-.56,1.34,1.34,0,0,0-.49-.45,1.67,1.67,0,0,0-.78-.17,1.84,1.84,0,0,0-.8.15.94.94,0,0,0-.57.86.77.77,0,0,0,.07.34.61.61,0,0,0,.24.27,1.79,1.79,0,0,0,.48.23c.21.07.47.14.79.22a5.82,5.82,0,0,1,1.39.45,2.06,2.06,0,0,1,.82.66,1.65,1.65,0,0,1,.26.94,1.74,1.74,0,0,1-.19.82,1.76,1.76,0,0,1-.54.65,2.55,2.55,0,0,1-.84.42,4,4,0,0,1-1.08.14,3.28,3.28,0,0,1-1.54-.32,2.45,2.45,0,0,1-1-.84,1.94,1.94,0,0,1-.32-1.08h1.18a1.15,1.15,0,0,0,.28.76,1.36,1.36,0,0,0,.62.4,2.33,2.33,0,0,0,.73.12,2.15,2.15,0,0,0,.81-.13,1.1,1.1,0,0,0,.5-.35A.82.82,0,0,0,119.93,146.16Zm2.73,1.2a.76.76,0,0,1,.19-.5.69.69,0,0,1,.54-.21.67.67,0,0,1,.54.21.71.71,0,0,1,.19.5.69.69,0,0,1-.19.5.7.7,0,0,1-.54.2.72.72,0,0,1-.54-.2A.74.74,0,0,1,122.66,147.36Zm-88.74,26v-.26a1.25,1.25,0,0,1,.34-.9,1.3,1.3,0,0,1,2.25.9v.26a1.25,1.25,0,0,1-.35.9,1.29,1.29,0,0,1-.95.34,1.26,1.26,0,0,1-.94-.34A1.21,1.21,0,0,1,33.92,173.34Zm18,3.65v1H47v-1Zm-4.65-8.25V178H46.05v-9.25Zm4,4v1H47v-1Zm.58-4v1H47v-1Zm2.2,2.38,1.5,2.5,1.53-2.5h1.37l-2.24,3.39L58.53,178H57.17l-1.58-2.58L54,178H52.64L55,174.51l-2.24-3.39Zm8.53,0v.9H58.88v-.9Zm-2.46-1.67h1.18v6.84a.94.94,0,0,0,.11.52.52.52,0,0,0,.27.24,1.14,1.14,0,0,0,.37,0,1.67,1.67,0,0,0,.31,0l.24-.05v1a3.17,3.17,0,0,1-.37.08,2.7,2.7,0,0,1-.54,0,1.75,1.75,0,0,1-.79-.17,1.27,1.27,0,0,1-.58-.57,2.37,2.37,0,0,1-.21-1.09Zm6.69,8.66a3.38,3.38,0,0,1-1.3-.24,2.8,2.8,0,0,1-1-.69,3.12,3.12,0,0,1-.64-1.05,4.09,4.09,0,0,1-.22-1.34v-.26a4,4,0,0,1,.25-1.49,3.28,3.28,0,0,1,.67-1.12,2.79,2.79,0,0,1,1-.69,2.71,2.71,0,0,1,1.11-.24,2.87,2.87,0,0,1,1.27.26,2.22,2.22,0,0,1,.89.71,3,3,0,0,1,.5,1.06,5.12,5.12,0,0,1,.17,1.34v.52H64.36v-1h4v-.08a3,3,0,0,0-.2-.89,1.51,1.51,0,0,0-.5-.71,1.48,1.48,0,0,0-1-.28,1.61,1.61,0,0,0-1.31.66,2.53,2.53,0,0,0-.37.81,4,4,0,0,0-.14,1.1v.26a3,3,0,0,0,.14.92,2.08,2.08,0,0,0,.4.75A1.77,1.77,0,0,0,66,177a2.24,2.24,0,0,0,1.91-.07,2.57,2.57,0,0,0,.76-.68l.71.57a4.07,4.07,0,0,1-.56.64,2.6,2.6,0,0,1-.85.49A3.19,3.19,0,0,1,66.82,178.11ZM72,172.58V178H70.86v-6.87H72Zm-.27,1.71-.49,0a3.9,3.9,0,0,1,.21-1.3,3.13,3.13,0,0,1,.57-1.05,2.51,2.51,0,0,1,.87-.68,2.57,2.57,0,0,1,1.14-.25,2.85,2.85,0,0,1,.91.14,1.68,1.68,0,0,1,.7.43,2,2,0,0,1,.44.78,3.77,3.77,0,0,1,.15,1.15V178H75.08v-4.52a1.91,1.91,0,0,0-.16-.86,1,1,0,0,0-.46-.48,1.86,1.86,0,0,0-1.55,0,1.84,1.84,0,0,0-.61.5,2.46,2.46,0,0,0-.4.75A2.48,2.48,0,0,0,71.76,174.29Zm10.29,1.87a1,1,0,0,0-.12-.47.94.94,0,0,0-.45-.39,3.4,3.4,0,0,0-1-.32,8,8,0,0,1-1-.29,3,3,0,0,1-.78-.4A1.51,1.51,0,0,1,78,173a1.71,1.71,0,0,1,.18-.77,2,2,0,0,1,.51-.64,2.52,2.52,0,0,1,.81-.44,3.11,3.11,0,0,1,1-.16,3.19,3.19,0,0,1,1.41.29,2.3,2.3,0,0,1,.9.78,1.94,1.94,0,0,1,.31,1.08H82a1,1,0,0,0-.18-.56,1.31,1.31,0,0,0-.48-.45,1.74,1.74,0,0,0-.79-.17,1.79,1.79,0,0,0-.79.15,1.09,1.09,0,0,0-.44.37,1,1,0,0,0-.13.49.93.93,0,0,0,.06.34.76.76,0,0,0,.24.27,2.05,2.05,0,0,0,.49.23c.2.07.47.14.79.22a6,6,0,0,1,1.39.45,2,2,0,0,1,.81.66,1.58,1.58,0,0,1,.27.94,1.74,1.74,0,0,1-.19.82,1.76,1.76,0,0,1-.54.65,2.55,2.55,0,0,1-.84.42,4,4,0,0,1-1.08.14,3.28,3.28,0,0,1-1.54-.32,2.38,2.38,0,0,1-1-.84,2,2,0,0,1-.33-1.08h1.18a1.21,1.21,0,0,0,.28.76,1.39,1.39,0,0,0,.63.4,2.28,2.28,0,0,0,.73.12,2.06,2.06,0,0,0,.8-.13,1,1,0,0,0,.5-.35A.78.78,0,0,0,82.05,176.16Zm4-5V178H84.86v-6.87Zm-1.27-1.82a.77.77,0,0,1,.17-.49.67.67,0,0,1,.52-.19.64.64,0,0,1,.51.19.69.69,0,0,1,.19.49.64.64,0,0,1-.19.47.68.68,0,0,1-.51.19.7.7,0,0,1-.52-.19A.71.71,0,0,1,84.77,169.3ZM90,176.93l1.88-5.81h1.2L90.62,178h-.79Zm-1.57-5.81L90.38,177l.13,1h-.78l-2.49-6.87Zm8.54,7a3.38,3.38,0,0,1-1.3-.24,2.8,2.8,0,0,1-1-.69,3.27,3.27,0,0,1-.63-1.05,3.85,3.85,0,0,1-.22-1.34v-.26a4.27,4.27,0,0,1,.24-1.49,3.3,3.3,0,0,1,.68-1.12,2.67,2.67,0,0,1,1-.69,2.72,2.72,0,0,1,1.12-.24,2.94,2.94,0,0,1,1.27.26A2.19,2.19,0,0,1,99,172a3,3,0,0,1,.51,1.06,5.13,5.13,0,0,1,.16,1.34v.52H94.52v-1h4v-.08a3,3,0,0,0-.19-.89,1.61,1.61,0,0,0-.51-.71,1.45,1.45,0,0,0-1-.28,1.55,1.55,0,0,0-.74.17,1.67,1.67,0,0,0-.58.49,2.53,2.53,0,0,0-.37.81,4,4,0,0,0-.13,1.1v.26a3,3,0,0,0,.13.92,2.24,2.24,0,0,0,.4.75,1.86,1.86,0,0,0,.64.51,2,2,0,0,0,.86.18,2.05,2.05,0,0,0,1.06-.25,2.42,2.42,0,0,0,.75-.68l.71.57a3.25,3.25,0,0,1-.56.64,2.66,2.66,0,0,1-.84.49A3.25,3.25,0,0,1,97,178.11Zm10.14-7v.9h-3.71v-.9Zm-2.45-1.67h1.17v6.84a1,1,0,0,0,.11.52.54.54,0,0,0,.28.24,1.11,1.11,0,0,0,.37,0,1.51,1.51,0,0,0,.3,0l.25-.05v1l-.37.08a2.83,2.83,0,0,1-.54,0,1.73,1.73,0,0,1-.79-.17,1.19,1.19,0,0,1-.58-.57,2.37,2.37,0,0,1-.21-1.09Zm5,2.75V178H108.5v-6.87h1.14Zm2.14-1.12v1.09l-.28,0h-.3a1.73,1.73,0,0,0-.71.13,1.4,1.4,0,0,0-.53.35,1.82,1.82,0,0,0-.34.55,2.49,2.49,0,0,0-.16.69l-.33.19a5.39,5.39,0,0,1,.12-1.17,2.9,2.9,0,0,1,.39-1,1.9,1.9,0,0,1,.66-.66,1.85,1.85,0,0,1,1-.24l.29,0Zm4.88,5.73v-3.53a1.46,1.46,0,0,0-.16-.71,1.15,1.15,0,0,0-.48-.47,1.78,1.78,0,0,0-.8-.16,1.87,1.87,0,0,0-.78.15,1.35,1.35,0,0,0-.53.4.87.87,0,0,0-.18.53H112.6a1.53,1.53,0,0,1,.19-.73,2.06,2.06,0,0,1,.54-.65,2.59,2.59,0,0,1,.87-.47,3.31,3.31,0,0,1,1.13-.18,3.2,3.2,0,0,1,1.32.26,2,2,0,0,1,.9.76,2.32,2.32,0,0,1,.33,1.28v3.2a6.4,6.4,0,0,0,.05.73,3.08,3.08,0,0,0,.19.66V178h-1.23a2.61,2.61,0,0,1-.14-.54A5,5,0,0,1,116.7,176.81Zm.21-3v.83h-1.19a4.74,4.74,0,0,0-.89.08,1.82,1.82,0,0,0-.66.24,1,1,0,0,0-.41.39,1.13,1.13,0,0,0-.14.56,1.2,1.2,0,0,0,.15.59,1,1,0,0,0,.44.42,1.58,1.58,0,0,0,.73.16,2,2,0,0,0,1-.23,2.11,2.11,0,0,0,.65-.56,1.25,1.25,0,0,0,.27-.64l.5.56a1.67,1.67,0,0,1-.24.59,2.54,2.54,0,0,1-.53.62,2.6,2.6,0,0,1-.77.49,2.49,2.49,0,0,1-1,.19,2.64,2.64,0,0,1-1.22-.27,2,2,0,0,1-.81-.73,1.93,1.93,0,0,1-.29-1,2.05,2.05,0,0,1,.22-1,1.89,1.89,0,0,1,.62-.7,2.94,2.94,0,0,1,1-.43,5,5,0,0,1,1.27-.15Zm4.09-2.7V178h-1.18v-6.87Zm-1.27-1.82a.77.77,0,0,1,.17-.49.81.81,0,0,1,1,0,.72.72,0,0,1,.18.49.67.67,0,0,1-.18.47.81.81,0,0,1-1,0A.71.71,0,0,1,119.73,169.3Zm4.33,3.28V178h-1.17v-6.87H124Zm-.28,1.71-.49,0a4.48,4.48,0,0,1,.21-1.3,3.53,3.53,0,0,1,.57-1.05,2.64,2.64,0,0,1,.88-.68,2.51,2.51,0,0,1,1.14-.25,2.9,2.9,0,0,1,.91.14,1.65,1.65,0,0,1,.69.43,2,2,0,0,1,.45.78,3.77,3.77,0,0,1,.15,1.15V178h-1.18v-4.52a2.06,2.06,0,0,0-.16-.86,1,1,0,0,0-.46-.48,1.73,1.73,0,0,0-.75-.15,1.63,1.63,0,0,0-.8.19,1.88,1.88,0,0,0-.62.5,2.69,2.69,0,0,0-.4.75A2.74,2.74,0,0,0,123.78,174.29Zm7.57-3.17V178h-1.18v-6.87Zm-1.27-1.82a.77.77,0,0,1,.17-.49.67.67,0,0,1,.52-.19.64.64,0,0,1,.51.19.69.69,0,0,1,.19.49.64.64,0,0,1-.19.47.68.68,0,0,1-.51.19.7.7,0,0,1-.52-.19A.71.71,0,0,1,130.08,169.3Zm4.33,3.28V178h-1.18v-6.87h1.11Zm-.28,1.71-.49,0a3.9,3.9,0,0,1,.21-1.3,3.13,3.13,0,0,1,.57-1.05,2.64,2.64,0,0,1,.88-.68,2.5,2.5,0,0,1,1.13-.25,2.91,2.91,0,0,1,.92.14,1.65,1.65,0,0,1,.69.43,2,2,0,0,1,.44.78,3.77,3.77,0,0,1,.15,1.15V178h-1.18v-4.52a2.07,2.07,0,0,0-.15-.86,1,1,0,0,0-.47-.48,1.86,1.86,0,0,0-1.55,0,2,2,0,0,0-.61.5,2.46,2.46,0,0,0-.4.75A2.48,2.48,0,0,0,134.13,174.29Zm10.74-3.17h1.06v6.72a3.12,3.12,0,0,1-.36,1.55,2.41,2.41,0,0,1-1,1,3.32,3.32,0,0,1-1.51.34,3.53,3.53,0,0,1-.84-.12,3.23,3.23,0,0,1-.94-.37,2.48,2.48,0,0,1-.77-.71l.62-.69a2.64,2.64,0,0,0,.9.72,2.48,2.48,0,0,0,.94.2,2.06,2.06,0,0,0,1-.21,1.45,1.45,0,0,0,.63-.62,2,2,0,0,0,.23-1v-5.27Zm-4.73,3.51v-.13a5.23,5.23,0,0,1,.18-1.43,3.59,3.59,0,0,1,.54-1.11,2.47,2.47,0,0,1,2-1,2.65,2.65,0,0,1,1.13.23,2.18,2.18,0,0,1,.82.65,3.25,3.25,0,0,1,.54,1,5.92,5.92,0,0,1,.28,1.37v.58a5.94,5.94,0,0,1-.28,1.36,3.25,3.25,0,0,1-.54,1,2.18,2.18,0,0,1-.82.65,2.73,2.73,0,0,1-1.14.22,2.31,2.31,0,0,1-1.12-.26,2.46,2.46,0,0,1-.85-.73,3.44,3.44,0,0,1-.55-1.1A5.14,5.14,0,0,1,140.14,174.63Zm1.17-.13v.13a4.21,4.21,0,0,0,.11,1,2.48,2.48,0,0,0,.32.8,1.7,1.7,0,0,0,.56.54,1.77,1.77,0,0,0,.82.19,1.81,1.81,0,0,0,1-.25,1.87,1.87,0,0,0,.6-.65,4.36,4.36,0,0,0,.36-.89V173.8a3.28,3.28,0,0,0-.22-.67,2.05,2.05,0,0,0-.37-.58,1.65,1.65,0,0,0-.55-.42,1.86,1.86,0,0,0-.77-.15,1.71,1.71,0,0,0-.84.2,1.83,1.83,0,0,0-.56.55,2.48,2.48,0,0,0-.32.8A4.23,4.23,0,0,0,141.31,174.5ZM155,176.81v-3.53a1.46,1.46,0,0,0-.16-.71,1.15,1.15,0,0,0-.48-.47,1.78,1.78,0,0,0-.8-.16,2,2,0,0,0-.79.15,1.32,1.32,0,0,0-.52.4.87.87,0,0,0-.18.53h-1.17a1.53,1.53,0,0,1,.19-.73,2.06,2.06,0,0,1,.54-.65,2.59,2.59,0,0,1,.87-.47,3.31,3.31,0,0,1,1.13-.18,3.27,3.27,0,0,1,1.32.26,2,2,0,0,1,.9.76,2.32,2.32,0,0,1,.33,1.28v3.2a6.4,6.4,0,0,0,.05.73,3.08,3.08,0,0,0,.19.66V178h-1.23a2.61,2.61,0,0,1-.14-.54A5,5,0,0,1,155,176.81Zm.21-3v.83H154a4.74,4.74,0,0,0-.89.08,1.82,1.82,0,0,0-.66.24,1,1,0,0,0-.41.39,1.13,1.13,0,0,0-.14.56,1.2,1.2,0,0,0,.15.59,1,1,0,0,0,.43.42,1.64,1.64,0,0,0,.73.16,2,2,0,0,0,1-.23,2.11,2.11,0,0,0,.65-.56,1.25,1.25,0,0,0,.27-.64l.5.56a1.67,1.67,0,0,1-.24.59,2.54,2.54,0,0,1-.53.62,2.74,2.74,0,0,1-.77.49,2.49,2.49,0,0,1-1,.19,2.64,2.64,0,0,1-1.22-.27,2,2,0,0,1-.81-.73,1.93,1.93,0,0,1-.29-1,2.05,2.05,0,0,1,.22-1,1.89,1.89,0,0,1,.62-.7,2.94,2.94,0,0,1,1-.43,5,5,0,0,1,1.27-.15Zm4-1.24V178H158v-6.87h1.12Zm-.28,1.71-.49,0a3.9,3.9,0,0,1,.21-1.3,3.53,3.53,0,0,1,.57-1.05,2.64,2.64,0,0,1,.88-.68,2.5,2.5,0,0,1,1.13-.25,2.91,2.91,0,0,1,.92.14,1.65,1.65,0,0,1,.69.43,2,2,0,0,1,.44.78,3.47,3.47,0,0,1,.16,1.15V178h-1.18v-4.52a2.06,2.06,0,0,0-.16-.86,1,1,0,0,0-.47-.48,1.86,1.86,0,0,0-1.55,0,2,2,0,0,0-.61.5,2.69,2.69,0,0,0-.4.75A2.74,2.74,0,0,0,158.91,174.29Zm10.62,2.36v-8.41h1.18V178h-1.08Zm-4.62-2v-.13a4.85,4.85,0,0,1,.19-1.43,3.39,3.39,0,0,1,.55-1.11,2.43,2.43,0,0,1,.86-.71,2.39,2.39,0,0,1,1.11-.26,2.62,2.62,0,0,1,1.13.23,2.21,2.21,0,0,1,.83.65,3.25,3.25,0,0,1,.54,1,6.52,6.52,0,0,1,.27,1.37v.58a6,6,0,0,1-.27,1.36,3.25,3.25,0,0,1-.54,1,2.21,2.21,0,0,1-.83.65,2.67,2.67,0,0,1-1.14.22,2.26,2.26,0,0,1-1.1-.26,2.49,2.49,0,0,1-.86-.73,3.44,3.44,0,0,1-.55-1.1A4.77,4.77,0,0,1,164.91,174.63Zm1.18-.13v.13a4.22,4.22,0,0,0,.1,1,2.5,2.5,0,0,0,.33.8,1.63,1.63,0,0,0,.57.54,1.7,1.7,0,0,0,.81.19,1.75,1.75,0,0,0,1-.25,1.81,1.81,0,0,0,.61-.65,4.36,4.36,0,0,0,.36-.89V173.8a4,4,0,0,0-.22-.67,2.3,2.3,0,0,0-.37-.58,1.68,1.68,0,0,0-.56-.42,1.78,1.78,0,0,0-.76-.15,1.64,1.64,0,0,0-.83.2,1.76,1.76,0,0,0-.57.55,2.5,2.5,0,0,0-.33.8A4.25,4.25,0,0,0,166.09,174.5Zm14,2.15v-8.41h1.18V178h-1.08Zm-4.62-2v-.13a4.85,4.85,0,0,1,.19-1.43,3.6,3.6,0,0,1,.55-1.11,2.47,2.47,0,0,1,2-1,2.65,2.65,0,0,1,1.13.23,2.26,2.26,0,0,1,.82.65,3.25,3.25,0,0,1,.54,1,6.52,6.52,0,0,1,.27,1.37v.58a5.46,5.46,0,0,1-.27,1.36,3.25,3.25,0,0,1-.54,1,2.26,2.26,0,0,1-.82.65,2.74,2.74,0,0,1-1.15.22,2.26,2.26,0,0,1-1.1-.26,2.49,2.49,0,0,1-.86-.73,3.66,3.66,0,0,1-.55-1.1A4.77,4.77,0,0,1,175.47,174.63Zm1.18-.13v.13a4.22,4.22,0,0,0,.1,1,2.5,2.5,0,0,0,.33.8,1.63,1.63,0,0,0,.57.54,1.74,1.74,0,0,0,.82.19,1.69,1.69,0,0,0,.95-.25,1.81,1.81,0,0,0,.61-.65,3.46,3.46,0,0,0,.36-.89V173.8a4,4,0,0,0-.22-.67,2.3,2.3,0,0,0-.37-.58,1.65,1.65,0,0,0-.55-.42,1.82,1.82,0,0,0-.77-.15,1.67,1.67,0,0,0-.83.2,1.76,1.76,0,0,0-.57.55,2.5,2.5,0,0,0-.33.8A4.25,4.25,0,0,0,176.65,174.5Zm6.14.13v-.15a4.32,4.32,0,0,1,.21-1.37,3.5,3.5,0,0,1,.63-1.12,2.83,2.83,0,0,1,1-.73,3.26,3.26,0,0,1,2.6,0,2.78,2.78,0,0,1,1,.73,3.5,3.5,0,0,1,.63,1.12,4.32,4.32,0,0,1,.21,1.37v.15a4.43,4.43,0,0,1-.21,1.38,3.56,3.56,0,0,1-.63,1.11,2.78,2.78,0,0,1-1,.73,3,3,0,0,1-1.29.26,3,3,0,0,1-1.3-.26,2.78,2.78,0,0,1-1-.73A3.56,3.56,0,0,1,183,176,4.43,4.43,0,0,1,182.79,174.63Zm1.17-.15v.15a3.79,3.79,0,0,0,.12,1,2.56,2.56,0,0,0,.37.8,1.78,1.78,0,0,0,.61.55,1.82,1.82,0,0,0,.86.2,1.74,1.74,0,0,0,.84-.2,1.7,1.7,0,0,0,.61-.55,2.54,2.54,0,0,0,.36-.8,3.39,3.39,0,0,0,.13-1v-.15a3.32,3.32,0,0,0-.13-1,2.54,2.54,0,0,0-.36-.8,1.8,1.8,0,0,0-.61-.56,1.67,1.67,0,0,0-.85-.2,1.68,1.68,0,0,0-1.46.76,2.56,2.56,0,0,0-.37.8A3.71,3.71,0,0,0,184,174.48Zm9.3,2.67A1.85,1.85,0,0,0,194,177a1.67,1.67,0,0,0,.58-.47,1.36,1.36,0,0,0,.26-.69H196a2.11,2.11,0,0,1-.41,1.13,2.81,2.81,0,0,1-2.33,1.16,3.19,3.19,0,0,1-1.35-.27,2.6,2.6,0,0,1-.95-.75,3.43,3.43,0,0,1-.57-1.09,4.71,4.71,0,0,1-.18-1.31v-.27a4.66,4.66,0,0,1,.18-1.31A3.49,3.49,0,0,1,191,172a2.83,2.83,0,0,1,.95-.75,3.19,3.19,0,0,1,1.35-.27,2.88,2.88,0,0,1,1.41.33,2.47,2.47,0,0,1,1,.89,2.59,2.59,0,0,1,.38,1.27h-1.12a1.7,1.7,0,0,0-.24-.77,1.45,1.45,0,0,0-.56-.54,1.54,1.54,0,0,0-.82-.21,1.76,1.76,0,0,0-.9.21,1.51,1.51,0,0,0-.58.57,2.84,2.84,0,0,0-.31.8,4.24,4.24,0,0,0-.09.88v.27a4.31,4.31,0,0,0,.09.88,2.55,2.55,0,0,0,.3.8,1.67,1.67,0,0,0,.58.57A1.8,1.8,0,0,0,193.26,177.15Zm8.26-.75v-5.28h1.18V178h-1.12Zm.22-1.45h.49a5.61,5.61,0,0,1-.14,1.27,2.87,2.87,0,0,1-.46,1,2.11,2.11,0,0,1-.83.67,3.32,3.32,0,0,1-2.17.09,1.8,1.8,0,0,1-.71-.45,2.1,2.1,0,0,1-.47-.8,3.94,3.94,0,0,1-.16-1.17v-4.43h1.18v4.44a2.4,2.4,0,0,0,.1.77,1.26,1.26,0,0,0,.29.48,1.1,1.1,0,0,0,.4.24,1.84,1.84,0,0,0,.47.07,2.16,2.16,0,0,0,1.19-.29,1.62,1.62,0,0,0,.63-.78A3,3,0,0,0,201.74,175Zm3.92-2.47V178h-1.18v-6.87h1.12Zm-.24,1.81-.55,0a4.85,4.85,0,0,1,.19-1.3,3.23,3.23,0,0,1,.52-1.05,2.51,2.51,0,0,1,.87-.68,2.73,2.73,0,0,1,1.21-.25,2.81,2.81,0,0,1,.89.14,1.75,1.75,0,0,1,.7.43,1.89,1.89,0,0,1,.47.75,3.23,3.23,0,0,1,.16,1.1V178h-1.17v-4.52a1.7,1.7,0,0,0-.19-.87,1.11,1.11,0,0,0-.51-.47,1.82,1.82,0,0,0-.77-.15,1.75,1.75,0,0,0-.87.19,1.5,1.5,0,0,0-.56.5,2.27,2.27,0,0,0-.3.75A4,4,0,0,0,205.42,174.29Zm4.45-.65-.79.25a3.62,3.62,0,0,1,.19-1.09,2.83,2.83,0,0,1,.52-.93,2.52,2.52,0,0,1,.86-.64,2.67,2.67,0,0,1,1.16-.24,3,3,0,0,1,1,.15,1.58,1.58,0,0,1,.72.45,1.83,1.83,0,0,1,.45.77,3.63,3.63,0,0,1,.15,1.11V178h-1.18v-4.53a1.82,1.82,0,0,0-.18-.89,1,1,0,0,0-.51-.46,2.17,2.17,0,0,0-.77-.13,1.84,1.84,0,0,0-.69.13,1.55,1.55,0,0,0-.5.37,1.76,1.76,0,0,0-.31.53A1.89,1.89,0,0,0,209.87,173.64Zm8.87,4.47a3.38,3.38,0,0,1-1.3-.24,2.89,2.89,0,0,1-1-.69,3.27,3.27,0,0,1-.63-1.05,3.85,3.85,0,0,1-.22-1.34v-.26a4,4,0,0,1,.25-1.49,3.13,3.13,0,0,1,.67-1.12,2.67,2.67,0,0,1,1-.69,2.72,2.72,0,0,1,1.12-.24,2.94,2.94,0,0,1,1.27.26,2.19,2.19,0,0,1,.88.71,3,3,0,0,1,.51,1.06,5.13,5.13,0,0,1,.16,1.34v.52h-5.12v-1h4v-.08a3,3,0,0,0-.19-.89,1.61,1.61,0,0,0-.51-.71,1.45,1.45,0,0,0-.95-.28,1.58,1.58,0,0,0-1.31.66,2.53,2.53,0,0,0-.38.81,4,4,0,0,0-.13,1.1v.26a3,3,0,0,0,.13.92,2.24,2.24,0,0,0,.4.75,1.86,1.86,0,0,0,.64.51,2,2,0,0,0,.87.18,2,2,0,0,0,1.05-.25,2.42,2.42,0,0,0,.75-.68l.72.57a3.69,3.69,0,0,1-.57.64,2.66,2.66,0,0,1-.84.49A3.21,3.21,0,0,1,218.74,178.11Zm5.22-5.53V178h-1.17v-6.87h1.11Zm-.28,1.71-.49,0a4.48,4.48,0,0,1,.21-1.3,3.53,3.53,0,0,1,.57-1.05,2.64,2.64,0,0,1,.88-.68A2.5,2.5,0,0,1,226,171a2.91,2.91,0,0,1,.92.14,1.65,1.65,0,0,1,.69.43,2,2,0,0,1,.45.78,3.77,3.77,0,0,1,.15,1.15V178H227v-4.52a2.06,2.06,0,0,0-.16-.86,1,1,0,0,0-.47-.48,1.65,1.65,0,0,0-.74-.15,1.63,1.63,0,0,0-.8.19,1.88,1.88,0,0,0-.62.5,2.69,2.69,0,0,0-.4.75A2.74,2.74,0,0,0,223.68,174.29Zm9.17-3.17v.9h-3.72v-.9Zm-2.46-1.67h1.17v6.84a1,1,0,0,0,.11.52.54.54,0,0,0,.28.24,1.14,1.14,0,0,0,.37,0,1.51,1.51,0,0,0,.3,0l.25-.05v1a3.72,3.72,0,0,1-.37.08,2.83,2.83,0,0,1-.54,0,1.73,1.73,0,0,1-.79-.17,1.23,1.23,0,0,1-.58-.57,2.37,2.37,0,0,1-.21-1.09Zm7.88,7.36v-3.53a1.46,1.46,0,0,0-.16-.71,1.15,1.15,0,0,0-.48-.47,1.78,1.78,0,0,0-.8-.16,1.87,1.87,0,0,0-.78.15,1.25,1.25,0,0,0-.52.4.82.82,0,0,0-.19.53h-1.17a1.53,1.53,0,0,1,.19-.73,2.06,2.06,0,0,1,.54-.65,2.59,2.59,0,0,1,.87-.47,3.35,3.35,0,0,1,1.13-.18,3.2,3.2,0,0,1,1.32.26,2,2,0,0,1,.9.76,2.32,2.32,0,0,1,.33,1.28v3.2a4.78,4.78,0,0,0,.06.73,2.61,2.61,0,0,0,.18.66V178h-1.23a3.46,3.46,0,0,1-.14-.54A5,5,0,0,1,238.27,176.81Zm.21-3v.83H237.3a4.74,4.74,0,0,0-.89.08,2,2,0,0,0-.66.24,1,1,0,0,0-.41.39,1.13,1.13,0,0,0-.14.56,1.2,1.2,0,0,0,.15.59,1,1,0,0,0,.44.42,1.58,1.58,0,0,0,.73.16,2,2,0,0,0,.95-.23,2.11,2.11,0,0,0,.65-.56,1.17,1.17,0,0,0,.27-.64l.5.56a1.67,1.67,0,0,1-.24.59,2.54,2.54,0,0,1-.53.62,2.6,2.6,0,0,1-.77.49,2.49,2.49,0,0,1-1,.19,2.64,2.64,0,0,1-1.22-.27,2,2,0,0,1-.81-.73,1.93,1.93,0,0,1-.29-1,2.05,2.05,0,0,1,.22-1,1.89,1.89,0,0,1,.62-.7,3,3,0,0,1,1-.43,5,5,0,0,1,1.27-.15Zm5.69-2.7v.9h-3.71v-.9Zm-2.46-1.67h1.18v6.84a.94.94,0,0,0,.11.52.5.5,0,0,0,.28.24,1,1,0,0,0,.36,0,1.67,1.67,0,0,0,.31,0l.25-.05v1a3.17,3.17,0,0,1-.37.08,2.7,2.7,0,0,1-.54,0,1.75,1.75,0,0,1-.79-.17,1.27,1.27,0,0,1-.58-.57,2.37,2.37,0,0,1-.21-1.09Zm5.11,1.67V178h-1.18v-6.87Zm-1.27-1.82a.72.72,0,0,1,.18-.49.79.79,0,0,1,1,0,.72.72,0,0,1,.18.49.67.67,0,0,1-.18.47.69.69,0,0,1-.51.19.69.69,0,0,1-.52-.19A.67.67,0,0,1,245.55,169.3Zm2.85,5.33v-.15a4.32,4.32,0,0,1,.21-1.37,3.5,3.5,0,0,1,.63-1.12,2.83,2.83,0,0,1,1-.73,3.26,3.26,0,0,1,2.6,0,2.78,2.78,0,0,1,1,.73,3.5,3.5,0,0,1,.63,1.12,4.32,4.32,0,0,1,.21,1.37v.15a4.43,4.43,0,0,1-.21,1.38,3.56,3.56,0,0,1-.63,1.11,2.78,2.78,0,0,1-1,.73,3,3,0,0,1-1.29.26,3,3,0,0,1-1.3-.26,2.78,2.78,0,0,1-1-.73,3.56,3.56,0,0,1-.63-1.11A4.43,4.43,0,0,1,248.4,174.63Zm1.17-.15v.15a3.79,3.79,0,0,0,.12,1,2.35,2.35,0,0,0,.37.8,1.78,1.78,0,0,0,.61.55,1.82,1.82,0,0,0,.86.2,1.74,1.74,0,0,0,.84-.2,1.7,1.7,0,0,0,.61-.55,2.54,2.54,0,0,0,.36-.8,3.39,3.39,0,0,0,.13-1v-.15a3.32,3.32,0,0,0-.13-1,2.54,2.54,0,0,0-.36-.8,1.8,1.8,0,0,0-.61-.56,1.74,1.74,0,0,0-2.31.56,2.35,2.35,0,0,0-.37.8A3.71,3.71,0,0,0,249.57,174.48Zm7.73-1.9V178h-1.18v-6.87h1.11Zm-.28,1.71-.49,0a3.9,3.9,0,0,1,.21-1.3,3.32,3.32,0,0,1,.57-1.05,2.64,2.64,0,0,1,.88-.68,2.5,2.5,0,0,1,1.13-.25,2.91,2.91,0,0,1,.92.14,1.65,1.65,0,0,1,.69.43,2,2,0,0,1,.44.78,3.75,3.75,0,0,1,.16,1.15V178h-1.19v-4.52a2.07,2.07,0,0,0-.15-.86,1,1,0,0,0-.47-.48,1.86,1.86,0,0,0-1.55,0,2,2,0,0,0-.61.5,2.69,2.69,0,0,0-.4.75A2.74,2.74,0,0,0,257,174.29Zm11.25,2.48,1.77-5.65h.77l-.15,1.12-1.8,5.75h-.75Zm-1.18-5.65,1.5,5.71.11,1.16h-.8l-2-6.87Zm5.41,5.67,1.44-5.67h1.16l-2,6.87h-.79ZM271,171.12l1.73,5.55.2,1.32h-.75l-1.85-5.76-.15-1.11Zm6.61,0V178H276.4v-6.87Zm-1.27-1.82a.72.72,0,0,1,.17-.49.67.67,0,0,1,.52-.19.66.66,0,0,1,.51.19.73.73,0,0,1,.19.49.68.68,0,0,1-.19.47.69.69,0,0,1-.51.19.7.7,0,0,1-.52-.19A.67.67,0,0,1,276.32,169.3Zm6,1.82v.9h-3.72v-.9Zm-2.46-1.67h1.17v6.84a1,1,0,0,0,.11.52.54.54,0,0,0,.28.24,1.11,1.11,0,0,0,.37,0,1.51,1.51,0,0,0,.3,0l.25-.05v1l-.37.08a2.83,2.83,0,0,1-.54,0,1.73,1.73,0,0,1-.79-.17,1.23,1.23,0,0,1-.58-.57,2.37,2.37,0,0,1-.21-1.09Zm5-1.21V178h-1.18v-9.75Zm-.28,6-.49,0a3.9,3.9,0,0,1,.21-1.3,3.13,3.13,0,0,1,.57-1.05,2.64,2.64,0,0,1,.88-.68,2.5,2.5,0,0,1,1.13-.25,2.91,2.91,0,0,1,.92.14,1.65,1.65,0,0,1,.69.43,2,2,0,0,1,.44.78,3.75,3.75,0,0,1,.16,1.15V178h-1.19v-4.52a2.07,2.07,0,0,0-.15-.86,1,1,0,0,0-.47-.48,1.86,1.86,0,0,0-1.55,0,2,2,0,0,0-.61.5,2.69,2.69,0,0,0-.4.75A2.48,2.48,0,0,0,284.62,174.29Zm13.54,2.52v-3.53a1.46,1.46,0,0,0-.17-.71,1,1,0,0,0-.48-.47,1.76,1.76,0,0,0-.8-.16,1.87,1.87,0,0,0-.78.15,1.32,1.32,0,0,0-.52.4.87.87,0,0,0-.18.53h-1.18a1.53,1.53,0,0,1,.19-.73,2.1,2.1,0,0,1,.55-.65,2.64,2.64,0,0,1,.86-.47,3.39,3.39,0,0,1,1.13-.18,3.2,3.2,0,0,1,1.32.26,1.87,1.87,0,0,1,.9.76,2.32,2.32,0,0,1,.33,1.28v3.2a4.78,4.78,0,0,0,.06.73,2.61,2.61,0,0,0,.18.66V178h-1.22a2.1,2.1,0,0,1-.14-.54A3.66,3.66,0,0,1,298.16,176.81Zm.2-3v.83h-1.18a4.78,4.78,0,0,0-.9.08,2,2,0,0,0-.66.24,1,1,0,0,0-.4.39,1,1,0,0,0-.14.56,1.2,1.2,0,0,0,.14.59,1,1,0,0,0,.44.42,1.61,1.61,0,0,0,.73.16,1.94,1.94,0,0,0,1-.23,2.15,2.15,0,0,0,.66-.56,1.23,1.23,0,0,0,.26-.64l.5.56a1.67,1.67,0,0,1-.24.59,2.49,2.49,0,0,1-.52.62,2.79,2.79,0,0,1-.78.49,2.48,2.48,0,0,1-1,.19,2.65,2.65,0,0,1-1.23-.27,2.12,2.12,0,0,1-.81-.73,1.93,1.93,0,0,1-.29-1,2.18,2.18,0,0,1,.22-1,1.89,1.89,0,0,1,.62-.7,3,3,0,0,1,1-.43,5.05,5.05,0,0,1,1.28-.15Zm4-1.24V178h-1.17v-6.87h1.11Zm-.28,1.71-.48,0a4.17,4.17,0,0,1,.2-1.3,3.34,3.34,0,0,1,.58-1.05,2.51,2.51,0,0,1,.87-.68,2.54,2.54,0,0,1,1.14-.25,2.85,2.85,0,0,1,.91.14,1.65,1.65,0,0,1,.69.43,1.87,1.87,0,0,1,.45.78,3.77,3.77,0,0,1,.15,1.15V178H305.4v-4.52a1.91,1.91,0,0,0-.16-.86,1,1,0,0,0-.46-.48,1.86,1.86,0,0,0-1.55,0,2,2,0,0,0-.62.5,2.69,2.69,0,0,0-.4.75A2.74,2.74,0,0,0,302.07,174.29Zm13.57,2.52v-3.53a1.46,1.46,0,0,0-.17-.71,1,1,0,0,0-.48-.47,1.73,1.73,0,0,0-.8-.16,1.94,1.94,0,0,0-.78.15,1.32,1.32,0,0,0-.52.4.87.87,0,0,0-.18.53h-1.18a1.65,1.65,0,0,1,.19-.73,2.1,2.1,0,0,1,.55-.65,2.64,2.64,0,0,1,.86-.47,3.39,3.39,0,0,1,1.13-.18,3.2,3.2,0,0,1,1.32.26,1.87,1.87,0,0,1,.9.76,2.32,2.32,0,0,1,.33,1.28v3.2a4.78,4.78,0,0,0,.06.73,2.61,2.61,0,0,0,.18.66V178h-1.22a2.1,2.1,0,0,1-.14-.54A5,5,0,0,1,315.64,176.81Zm.2-3,0,.83h-1.19a4.86,4.86,0,0,0-.9.08,2,2,0,0,0-.66.24,1.07,1.07,0,0,0-.4.39,1,1,0,0,0-.14.56,1.31,1.31,0,0,0,.14.59,1.05,1.05,0,0,0,.44.42,1.61,1.61,0,0,0,.73.16,1.94,1.94,0,0,0,.95-.23,2,2,0,0,0,.66-.56,1.23,1.23,0,0,0,.26-.64l.5.56a1.5,1.5,0,0,1-.24.59,2.49,2.49,0,0,1-.52.62,2.79,2.79,0,0,1-.78.49,2.44,2.44,0,0,1-1,.19,2.68,2.68,0,0,1-1.23-.27,2.12,2.12,0,0,1-.81-.73,1.92,1.92,0,0,1-.28-1,2.17,2.17,0,0,1,.21-1,2,2,0,0,1,.62-.7,3.13,3.13,0,0,1,1-.43,5.05,5.05,0,0,1,1.28-.15Zm5.57,3.33a1.77,1.77,0,0,0,.77-.17,1.62,1.62,0,0,0,.59-.47,1.36,1.36,0,0,0,.26-.69h1.12a2.12,2.12,0,0,1-.42,1.13,2.77,2.77,0,0,1-2.32,1.16,3.13,3.13,0,0,1-1.35-.27,2.6,2.6,0,0,1-.95-.75,3.43,3.43,0,0,1-.57-1.09,4.71,4.71,0,0,1-.18-1.31v-.27a4.66,4.66,0,0,1,.18-1.31,3.49,3.49,0,0,1,.57-1.1,2.83,2.83,0,0,1,.95-.75,3.13,3.13,0,0,1,1.35-.27,2.88,2.88,0,0,1,1.41.33,2.37,2.37,0,0,1,.94.89,2.6,2.6,0,0,1,.39,1.27H323a1.7,1.7,0,0,0-.24-.77,1.45,1.45,0,0,0-.56-.54,1.56,1.56,0,0,0-.82-.21,1.83,1.83,0,0,0-.91.21,1.67,1.67,0,0,0-.58.57,2.55,2.55,0,0,0-.3.8,4.24,4.24,0,0,0-.09.88v.27a4.31,4.31,0,0,0,.09.88,2.55,2.55,0,0,0,.3.8,1.59,1.59,0,0,0,.58.57A1.8,1.8,0,0,0,321.41,177.15Zm6.93-6v.9h-3.71v-.9Zm-2.46-1.67h1.18v6.84a.94.94,0,0,0,.11.52.5.5,0,0,0,.28.24,1,1,0,0,0,.36,0,1.67,1.67,0,0,0,.31,0l.25-.05v1a3.17,3.17,0,0,1-.37.08,2.7,2.7,0,0,1-.54,0,1.75,1.75,0,0,1-.79-.17,1.27,1.27,0,0,1-.58-.57,2.37,2.37,0,0,1-.21-1.09Zm5.11,1.67V178h-1.18v-6.87Zm-1.27-1.82a.72.72,0,0,1,.18-.49.79.79,0,0,1,1,0,.72.72,0,0,1,.18.49.67.67,0,0,1-.18.47.69.69,0,0,1-.51.19.69.69,0,0,1-.52-.19A.67.67,0,0,1,329.72,169.3Zm5.25,7.63,1.88-5.81h1.2L335.58,178h-.79Zm-1.57-5.81,1.94,5.84.13,1h-.79l-2.49-6.87Zm8.54,7a3.38,3.38,0,0,1-1.3-.24,2.8,2.8,0,0,1-1-.69,3.12,3.12,0,0,1-.64-1.05,4.09,4.09,0,0,1-.22-1.34v-.26A4.27,4.27,0,0,1,339,173a3.44,3.44,0,0,1,.67-1.12,2.79,2.79,0,0,1,1-.69,2.72,2.72,0,0,1,1.12-.24,2.86,2.86,0,0,1,1.26.26,2.22,2.22,0,0,1,.89.71,3,3,0,0,1,.5,1.06,5.12,5.12,0,0,1,.17,1.34v.52h-5.13v-1h4v-.08a3,3,0,0,0-.19-.89,1.61,1.61,0,0,0-.51-.71,1.47,1.47,0,0,0-.95-.28,1.61,1.61,0,0,0-1.32.66,2.53,2.53,0,0,0-.37.81,4,4,0,0,0-.14,1.1v.26a3,3,0,0,0,.14.92,2.08,2.08,0,0,0,.4.75,1.77,1.77,0,0,0,.64.51,2.24,2.24,0,0,0,1.91-.07,2.57,2.57,0,0,0,.76-.68l.71.57a4.07,4.07,0,0,1-.56.64,2.6,2.6,0,0,1-.85.49A3.19,3.19,0,0,1,341.94,178.11Zm10-1a1.85,1.85,0,0,0,.78-.17,1.59,1.59,0,0,0,.58-.47,1.36,1.36,0,0,0,.26-.69h1.12a2.11,2.11,0,0,1-.41,1.13,2.81,2.81,0,0,1-2.33,1.16,3.19,3.19,0,0,1-1.35-.27,2.6,2.6,0,0,1-1-.75,3.22,3.22,0,0,1-.56-1.09,4.37,4.37,0,0,1-.19-1.31v-.27a4.32,4.32,0,0,1,.19-1.31,3.27,3.27,0,0,1,.56-1.1,2.83,2.83,0,0,1,1-.75A3.19,3.19,0,0,1,352,171a2.88,2.88,0,0,1,1.41.33,2.4,2.4,0,0,1,.95.89,2.59,2.59,0,0,1,.38,1.27h-1.12a1.7,1.7,0,0,0-.24-.77,1.39,1.39,0,0,0-.56-.54A1.54,1.54,0,0,0,352,172a1.76,1.76,0,0,0-.9.21,1.59,1.59,0,0,0-.58.57,2.84,2.84,0,0,0-.31.8,4.24,4.24,0,0,0-.08.88v.27a4.3,4.3,0,0,0,.08.88,2.55,2.55,0,0,0,.3.8,1.76,1.76,0,0,0,.58.57A1.83,1.83,0,0,0,352,177.15Zm3.75-2.52v-.15a4.06,4.06,0,0,1,.22-1.37,3.3,3.3,0,0,1,.62-1.12,2.83,2.83,0,0,1,1-.73,3.26,3.26,0,0,1,2.6,0,2.78,2.78,0,0,1,1,.73,3.5,3.5,0,0,1,.63,1.12,4.32,4.32,0,0,1,.21,1.37v.15a4.43,4.43,0,0,1-.21,1.38,3.56,3.56,0,0,1-.63,1.11,2.78,2.78,0,0,1-1,.73,3,3,0,0,1-1.29.26,3,3,0,0,1-1.3-.26,2.78,2.78,0,0,1-1-.73,3.35,3.35,0,0,1-.62-1.11A4.16,4.16,0,0,1,355.7,174.63Zm1.17-.15v.15a3.79,3.79,0,0,0,.12,1,2.56,2.56,0,0,0,.37.8,1.78,1.78,0,0,0,.61.55,1.82,1.82,0,0,0,.86.2,1.74,1.74,0,0,0,.84-.2,1.7,1.7,0,0,0,.61-.55,2.54,2.54,0,0,0,.36-.8,3.39,3.39,0,0,0,.13-1v-.15a3.32,3.32,0,0,0-.13-1,2.54,2.54,0,0,0-.36-.8,1.72,1.72,0,0,0-.61-.56,1.67,1.67,0,0,0-.85-.2,1.68,1.68,0,0,0-1.46.76,2.56,2.56,0,0,0-.37.8A3.71,3.71,0,0,0,356.87,174.48Zm7.72-2V178h-1.18v-6.87h1.12Zm-.24,1.81-.54,0A4.49,4.49,0,0,1,364,173a3.06,3.06,0,0,1,.53-1.05,2.34,2.34,0,0,1,.87-.68,2.65,2.65,0,0,1,1.2-.25,2.81,2.81,0,0,1,.89.14,1.79,1.79,0,0,1,.71.43,2,2,0,0,1,.46.75,3.23,3.23,0,0,1,.16,1.1V178h-1.17v-4.52a1.82,1.82,0,0,0-.18-.87,1.11,1.11,0,0,0-.51-.47,1.87,1.87,0,0,0-.78-.15,1.8,1.8,0,0,0-.87.19,1.5,1.5,0,0,0-.56.5,2.51,2.51,0,0,0-.3.75A4,4,0,0,0,364.35,174.29Zm4.45-.65-.79.25a3.62,3.62,0,0,1,.19-1.09,3,3,0,0,1,.52-.93,2.62,2.62,0,0,1,.86-.64,2.7,2.7,0,0,1,1.16-.24,2.93,2.93,0,0,1,1,.15,1.58,1.58,0,0,1,.72.45,2,2,0,0,1,.46.77,3.63,3.63,0,0,1,.15,1.11V178h-1.18v-4.53a1.71,1.71,0,0,0-.19-.89,1,1,0,0,0-.51-.46,2.17,2.17,0,0,0-.77-.13,1.84,1.84,0,0,0-.69.13,1.67,1.67,0,0,0-.5.37,1.76,1.76,0,0,0-.31.53A1.89,1.89,0,0,0,368.8,173.64Zm7.19-1.16V178h-1.18v-6.87h1.12Zm-.24,1.81-.54,0a4.49,4.49,0,0,1,.18-1.3,3.06,3.06,0,0,1,.53-1.05,2.34,2.34,0,0,1,.87-.68A2.68,2.68,0,0,1,378,171a2.81,2.81,0,0,1,.89.14,1.79,1.79,0,0,1,.71.43,2,2,0,0,1,.46.75,3.23,3.23,0,0,1,.16,1.1V178H379v-4.52a1.82,1.82,0,0,0-.18-.87,1.11,1.11,0,0,0-.51-.47,1.87,1.87,0,0,0-.78-.15,1.8,1.8,0,0,0-.87.19,1.4,1.4,0,0,0-.55.5,2.28,2.28,0,0,0-.31.75A4,4,0,0,0,375.75,174.29Zm4.45-.65-.79.25a3.62,3.62,0,0,1,.19-1.09,2.85,2.85,0,0,1,.53-.93,2.48,2.48,0,0,1,.85-.64,2.7,2.7,0,0,1,1.16-.24,2.93,2.93,0,0,1,1,.15,1.58,1.58,0,0,1,.72.45,2,2,0,0,1,.46.77,3.63,3.63,0,0,1,.15,1.11V178h-1.18v-4.53a1.71,1.71,0,0,0-.19-.89,1,1,0,0,0-.5-.46,2.27,2.27,0,0,0-.78-.13,1.75,1.75,0,0,0-.68.13,1.59,1.59,0,0,0-.51.37,1.76,1.76,0,0,0-.31.53A2.19,2.19,0,0,0,380.2,173.64Zm10.23,2.76v-5.28h1.18V178h-1.13Zm.22-1.45h.49a5.08,5.08,0,0,1-.15,1.27,2.69,2.69,0,0,1-.45,1,2.14,2.14,0,0,1-.84.67,2.94,2.94,0,0,1-1.25.23,3,3,0,0,1-.92-.14,2,2,0,0,1-.71-.45,2.08,2.08,0,0,1-.46-.8,3.63,3.63,0,0,1-.16-1.17v-4.43h1.17v4.44a2.37,2.37,0,0,0,.11.77,1.24,1.24,0,0,0,.28.48,1.14,1.14,0,0,0,.41.24,1.84,1.84,0,0,0,.47.07,2.12,2.12,0,0,0,1.18-.29,1.51,1.51,0,0,0,.63-.78A3,3,0,0,0,390.65,175Zm3.92-2.37V178H393.4v-6.87h1.11Zm-.28,1.71-.49,0A4.48,4.48,0,0,1,394,173a3.34,3.34,0,0,1,.58-1.05,2.56,2.56,0,0,1,2-.93,2.85,2.85,0,0,1,.91.14,1.65,1.65,0,0,1,.69.43,1.87,1.87,0,0,1,.45.78,3.77,3.77,0,0,1,.15,1.15V178h-1.18v-4.52a1.91,1.91,0,0,0-.16-.86,1,1,0,0,0-.46-.48,1.73,1.73,0,0,0-.75-.15,1.66,1.66,0,0,0-.8.19,2,2,0,0,0-.62.5,2.69,2.69,0,0,0-.4.75A2.74,2.74,0,0,0,394.29,174.29Zm7.57-3.17V178h-1.18v-6.87Zm-1.27-1.82a.77.77,0,0,1,.17-.49.81.81,0,0,1,1,0,.72.72,0,0,1,.18.49.67.67,0,0,1-.18.47.81.81,0,0,1-1,0A.71.71,0,0,1,400.59,169.3Zm6,1.82v.9h-3.71v-.9Zm-2.46-1.67h1.18v6.84a.94.94,0,0,0,.11.52.5.5,0,0,0,.28.24,1,1,0,0,0,.36,0,1.67,1.67,0,0,0,.31,0l.25-.05v1a3.17,3.17,0,0,1-.37.08,2.7,2.7,0,0,1-.54,0,1.75,1.75,0,0,1-.79-.17,1.27,1.27,0,0,1-.58-.57,2.37,2.37,0,0,1-.21-1.09Zm5.77,7.83,1.91-6.16h1.25l-2.75,7.93a4.23,4.23,0,0,1-.25.54,3.09,3.09,0,0,1-.4.57,1.79,1.79,0,0,1-.58.43,1.83,1.83,0,0,1-.81.17,1.7,1.7,0,0,1-.35,0l-.31-.06v-.95H408a1.7,1.7,0,0,0,.68-.11.94.94,0,0,0,.47-.34,2.2,2.2,0,0,0,.34-.67Zm-1.41-6.16,1.79,5.33.3,1.24-.84.43-2.53-7ZM419.13,178H418v-7.6a2.78,2.78,0,0,1,.26-1.25,1.87,1.87,0,0,1,.78-.77,2.57,2.57,0,0,1,1.21-.27,2.83,2.83,0,0,1,.41,0l.4.07-.06,1-.31,0h-.33a1.32,1.32,0,0,0-.64.15,1,1,0,0,0-.41.43,1.65,1.65,0,0,0-.14.7Zm1.46-6.87v.9h-3.72v-.9Zm1,3.51v-.15a4.32,4.32,0,0,1,.21-1.37,3.5,3.5,0,0,1,.63-1.12,2.74,2.74,0,0,1,1-.73,3,3,0,0,1,1.29-.27,3.07,3.07,0,0,1,1.31.27,2.78,2.78,0,0,1,1,.73,3.3,3.3,0,0,1,.62,1.12,4.06,4.06,0,0,1,.22,1.37v.15a4.16,4.16,0,0,1-.22,1.38,3.35,3.35,0,0,1-.62,1.11,2.78,2.78,0,0,1-1,.73,3.36,3.36,0,0,1-2.59,0,2.78,2.78,0,0,1-1-.73,3.56,3.56,0,0,1-.63-1.11A4.43,4.43,0,0,1,421.59,174.63Zm1.17-.15v.15a3.79,3.79,0,0,0,.12,1,2.54,2.54,0,0,0,.36.8,1.74,1.74,0,0,0,1.48.75,1.74,1.74,0,0,0,.84-.2,1.7,1.7,0,0,0,.61-.55,2.54,2.54,0,0,0,.36-.8,3.39,3.39,0,0,0,.13-1v-.15a3.32,3.32,0,0,0-.13-1,2.35,2.35,0,0,0-.37-.8,1.69,1.69,0,0,0-.6-.56,1.93,1.93,0,0,0-1.71,0,1.8,1.8,0,0,0-.61.56,2.54,2.54,0,0,0-.36.8A3.71,3.71,0,0,0,422.76,174.48Zm7.73-2.28V178h-1.18v-6.87h1.15Zm2.14-1.12v1.09l-.28,0h-.29a1.78,1.78,0,0,0-.72.13,1.4,1.4,0,0,0-.53.35,1.82,1.82,0,0,0-.34.55,2.9,2.9,0,0,0-.16.69L430,174a5.39,5.39,0,0,1,.12-1.17,2.9,2.9,0,0,1,.39-1,1.9,1.9,0,0,1,.66-.66,1.85,1.85,0,0,1,1-.24l.29,0ZM49.88,191.16a1,1,0,0,0-.12-.47.94.94,0,0,0-.45-.39,3.4,3.4,0,0,0-1-.32,8,8,0,0,1-1-.29,3.17,3.17,0,0,1-.78-.4,1.51,1.51,0,0,1-.66-1.29,1.71,1.71,0,0,1,.18-.77,2,2,0,0,1,.51-.64,2.52,2.52,0,0,1,.81-.44,3.11,3.11,0,0,1,1-.16,3.19,3.19,0,0,1,1.41.29,2.3,2.3,0,0,1,.9.78,1.94,1.94,0,0,1,.31,1.08H49.81a1,1,0,0,0-.18-.56,1.31,1.31,0,0,0-.48-.45,1.74,1.74,0,0,0-.79-.17,1.79,1.79,0,0,0-.79.15,1.09,1.09,0,0,0-.44.37A1,1,0,0,0,47,188a.93.93,0,0,0,.06.34.76.76,0,0,0,.24.27,2.05,2.05,0,0,0,.49.23c.2.07.47.14.79.22a6,6,0,0,1,1.39.45,2,2,0,0,1,.81.66,1.58,1.58,0,0,1,.27.94,1.74,1.74,0,0,1-.19.82,1.76,1.76,0,0,1-.54.65,2.55,2.55,0,0,1-.84.42,4,4,0,0,1-1.08.14,3.28,3.28,0,0,1-1.54-.32,2.38,2.38,0,0,1-1-.84,2,2,0,0,1-.33-1.08h1.18a1.21,1.21,0,0,0,.28.76,1.39,1.39,0,0,0,.63.4,2.28,2.28,0,0,0,.73.12,2.06,2.06,0,0,0,.8-.13,1,1,0,0,0,.5-.35A.78.78,0,0,0,49.88,191.16Zm6.91.24v-5.28H58V193H56.85ZM57,190h.49a5.08,5.08,0,0,1-.15,1.27,2.7,2.7,0,0,1-.46,1,2.11,2.11,0,0,1-.83.67,2.94,2.94,0,0,1-1.25.23,3,3,0,0,1-.92-.14,1.87,1.87,0,0,1-.71-.45,2.08,2.08,0,0,1-.46-.8,3.63,3.63,0,0,1-.16-1.17v-4.43h1.17v4.44a2.4,2.4,0,0,0,.1.77,1.26,1.26,0,0,0,.29.48,1.19,1.19,0,0,0,.4.24,1.91,1.91,0,0,0,.47.07,2.16,2.16,0,0,0,1.19-.29,1.62,1.62,0,0,0,.63-.78A3,3,0,0,0,57,190Zm3.92-2.51v8.19H59.76v-9.51h1.08Zm4.63,2.06v.13a5.14,5.14,0,0,1-.18,1.39,3.39,3.39,0,0,1-.52,1.1,2.31,2.31,0,0,1-.83.73,2.34,2.34,0,0,1-1.14.26,2.91,2.91,0,0,1-1.15-.21,2.46,2.46,0,0,1-.86-.63,3.38,3.38,0,0,1-.55-1,5.52,5.52,0,0,1-.28-1.3v-.71a5.92,5.92,0,0,1,.28-1.37,3.73,3.73,0,0,1,.55-1,2.45,2.45,0,0,1,.85-.65,2.73,2.73,0,0,1,1.14-.23,2.5,2.5,0,0,1,1.15.26,2.21,2.21,0,0,1,.84.71,3.35,3.35,0,0,1,.52,1.11A5.23,5.23,0,0,1,65.57,189.5Zm-1.18.13v-.13a4.23,4.23,0,0,0-.11-1,2.51,2.51,0,0,0-.34-.8,1.76,1.76,0,0,0-.57-.55,1.67,1.67,0,0,0-.83-.2,1.87,1.87,0,0,0-.78.15,1.75,1.75,0,0,0-.55.42,2.05,2.05,0,0,0-.37.58,2.74,2.74,0,0,0-.21.67v1.65a3.83,3.83,0,0,0,.35.84,2,2,0,0,0,.61.62,1.8,1.8,0,0,0,1,.24,1.63,1.63,0,0,0,.82-.2,1.66,1.66,0,0,0,.57-.55,2.51,2.51,0,0,0,.34-.8A4.3,4.3,0,0,0,64.39,189.63Zm3.85-2.19v8.19H67.06v-9.51h1.08Zm4.63,2.06v.13a5.14,5.14,0,0,1-.18,1.39,3.39,3.39,0,0,1-.52,1.1,2.31,2.31,0,0,1-.83.73,2.34,2.34,0,0,1-1.14.26,2.91,2.91,0,0,1-1.15-.21,2.46,2.46,0,0,1-.86-.63,3.38,3.38,0,0,1-.55-1,5.52,5.52,0,0,1-.28-1.3v-.71a5.92,5.92,0,0,1,.28-1.37,3.73,3.73,0,0,1,.55-1,2.45,2.45,0,0,1,.85-.65,2.73,2.73,0,0,1,1.14-.23,2.5,2.5,0,0,1,1.15.26,2.21,2.21,0,0,1,.84.71,3.35,3.35,0,0,1,.52,1.11A5.23,5.23,0,0,1,72.87,189.5Zm-1.18.13v-.13a4.23,4.23,0,0,0-.11-1,2.51,2.51,0,0,0-.34-.8,1.76,1.76,0,0,0-.57-.55,1.67,1.67,0,0,0-.83-.2,1.87,1.87,0,0,0-.78.15,1.75,1.75,0,0,0-.55.42,2.05,2.05,0,0,0-.37.58,2.74,2.74,0,0,0-.21.67v1.65a3.83,3.83,0,0,0,.35.84,2,2,0,0,0,.61.62,1.8,1.8,0,0,0,1,.24,1.63,1.63,0,0,0,.82-.2,1.66,1.66,0,0,0,.57-.55,2.51,2.51,0,0,0,.34-.8A4.3,4.3,0,0,0,71.69,189.63Zm2.36,0v-.15a4.32,4.32,0,0,1,.22-1.37,3.3,3.3,0,0,1,.62-1.12,2.78,2.78,0,0,1,1-.73,3,3,0,0,1,1.29-.27,3,3,0,0,1,1.3.27,2.78,2.78,0,0,1,1,.73,3.16,3.16,0,0,1,.63,1.12,4.32,4.32,0,0,1,.22,1.37v.15a4.43,4.43,0,0,1-.22,1.38,3.21,3.21,0,0,1-.63,1.11,2.83,2.83,0,0,1-1,.73,3,3,0,0,1-1.3.26,3.05,3.05,0,0,1-1.3-.26,3,3,0,0,1-1-.73,3.35,3.35,0,0,1-.62-1.11A4.43,4.43,0,0,1,74.05,189.63Zm1.18-.15v.15a3.79,3.79,0,0,0,.12,1,2.54,2.54,0,0,0,.36.8,1.81,1.81,0,0,0,.62.55,1.77,1.77,0,0,0,2.31-.55,2.54,2.54,0,0,0,.36-.8,3.79,3.79,0,0,0,.13-1v-.15a3.71,3.71,0,0,0-.13-1,2.35,2.35,0,0,0-.37-.8,1.68,1.68,0,0,0-1.46-.76,1.67,1.67,0,0,0-.85.2,1.8,1.8,0,0,0-.61.56,2.54,2.54,0,0,0-.36.8A3.71,3.71,0,0,0,75.23,189.48ZM83,187.2V193H81.78v-6.87h1.14Zm2.15-1.12v1.09l-.28,0h-.29a1.81,1.81,0,0,0-.72.13,1.45,1.45,0,0,0-.52.35,1.84,1.84,0,0,0-.35.55,2.49,2.49,0,0,0-.15.69l-.33.19a5.39,5.39,0,0,1,.12-1.17,3.12,3.12,0,0,1,.38-1,2.08,2.08,0,0,1,.66-.66,1.89,1.89,0,0,1,1-.24l.29,0Zm4.28,0v.9H85.66v-.9Zm-2.46-1.67h1.17v6.84a1,1,0,0,0,.11.52.54.54,0,0,0,.28.24,1.14,1.14,0,0,0,.37,0,1.51,1.51,0,0,0,.3,0l.25-.05v1a3.72,3.72,0,0,1-.37.08,2.83,2.83,0,0,1-.54,0,1.73,1.73,0,0,1-.79-.17,1.23,1.23,0,0,1-.58-.57,2.37,2.37,0,0,1-.21-1.09Zm3.85,7.91a.71.71,0,0,1,.19-.5.69.69,0,0,1,.54-.21.67.67,0,0,1,.54.21.71.71,0,0,1,.19.5.69.69,0,0,1-.19.5.7.7,0,0,1-.54.2.72.72,0,0,1-.54-.2A.69.69,0,0,1,90.77,192.36Zm-56.85,26v-.26a1.25,1.25,0,0,1,.34-.9,1.3,1.3,0,0,1,2.25.9v.26a1.25,1.25,0,0,1-.35.9,1.29,1.29,0,0,1-.95.34,1.26,1.26,0,0,1-.94-.34A1.21,1.21,0,0,1,33.92,218.34Zm19.24-4.6V223H51.93l-4.65-7.13V223H46.05v-9.25h1.23L52,220.89v-7.15Zm1.69,5.89v-.15a4.32,4.32,0,0,1,.21-1.37,3.48,3.48,0,0,1,.62-1.12,2.78,2.78,0,0,1,1-.73A3,3,0,0,1,58,216a3,3,0,0,1,1.3.27,2.78,2.78,0,0,1,1,.73,3.16,3.16,0,0,1,.63,1.12,4.06,4.06,0,0,1,.22,1.37v.15a4.16,4.16,0,0,1-.22,1.38,3.21,3.21,0,0,1-.63,1.11,2.83,2.83,0,0,1-1,.73,3,3,0,0,1-1.3.26,3.05,3.05,0,0,1-1.3-.26,3,3,0,0,1-1-.73,3.54,3.54,0,0,1-.62-1.11A4.43,4.43,0,0,1,54.85,219.63Zm1.17-.15v.15a3.79,3.79,0,0,0,.12,1,2.54,2.54,0,0,0,.36.8,1.81,1.81,0,0,0,.62.55,1.78,1.78,0,0,0,.85.2,1.75,1.75,0,0,0,.85-.2,1.78,1.78,0,0,0,.61-.55,2.54,2.54,0,0,0,.36-.8,3.79,3.79,0,0,0,.13-1v-.15a3.71,3.71,0,0,0-.13-1,2.35,2.35,0,0,0-.37-.8A1.68,1.68,0,0,0,58,217a1.7,1.7,0,0,0-.85.2,1.8,1.8,0,0,0-.61.56,2.54,2.54,0,0,0-.36.8A3.71,3.71,0,0,0,56,219.48Zm11.86,2.45,1.88-5.81H71L68.49,223h-.78Zm-1.56-5.81L68.25,222l.13,1H67.6l-2.49-6.87Zm8.53,7a3.42,3.42,0,0,1-1.3-.24,2.76,2.76,0,0,1-1-.69,3.12,3.12,0,0,1-.64-1.05,3.85,3.85,0,0,1-.22-1.34v-.26A4,4,0,0,1,72,218a3.28,3.28,0,0,1,.67-1.12,2.67,2.67,0,0,1,1-.69A2.75,2.75,0,0,1,74.7,216a2.94,2.94,0,0,1,1.27.26,2.19,2.19,0,0,1,.88.71,3,3,0,0,1,.51,1.06,5.12,5.12,0,0,1,.17,1.34v.52H72.4v-1h3.95v-.08a3,3,0,0,0-.19-.89,1.44,1.44,0,0,0-1.46-1,1.58,1.58,0,0,0-1.31.66,2.53,2.53,0,0,0-.38.81,4,4,0,0,0-.13,1.1v.26a3,3,0,0,0,.13.92,2.44,2.44,0,0,0,.4.75,1.86,1.86,0,0,0,.64.51A2.27,2.27,0,0,0,76,221.9a2.57,2.57,0,0,0,.76-.68l.71.57a3.69,3.69,0,0,1-.57.64,2.66,2.66,0,0,1-.84.49A3.21,3.21,0,0,1,74.85,223.11Zm5.22-5.53V223H78.9v-6.87H80Zm-.28,1.71-.49,0a4.48,4.48,0,0,1,.21-1.3,3.53,3.53,0,0,1,.57-1.05,2.64,2.64,0,0,1,.88-.68A2.51,2.51,0,0,1,82.1,216a2.9,2.9,0,0,1,.91.14,1.65,1.65,0,0,1,.69.43,2,2,0,0,1,.45.78,3.77,3.77,0,0,1,.15,1.15V223H83.12v-4.52a2.06,2.06,0,0,0-.16-.86,1,1,0,0,0-.46-.48,1.73,1.73,0,0,0-.75-.15,1.63,1.63,0,0,0-.8.19,1.88,1.88,0,0,0-.62.5,2.69,2.69,0,0,0-.4.75A2.74,2.74,0,0,0,79.79,219.29Zm10.62,2.36v-8.41h1.18V223H90.51Zm-4.62-2v-.13a4.85,4.85,0,0,1,.19-1.43,3.6,3.6,0,0,1,.55-1.11,2.47,2.47,0,0,1,2-1,2.65,2.65,0,0,1,1.13.23,2.26,2.26,0,0,1,.82.65,3.25,3.25,0,0,1,.54,1,6.52,6.52,0,0,1,.27,1.37v.58a5.46,5.46,0,0,1-.27,1.36,3.25,3.25,0,0,1-.54,1,2.26,2.26,0,0,1-.82.65,2.74,2.74,0,0,1-1.15.22,2.26,2.26,0,0,1-1.1-.26,2.49,2.49,0,0,1-.86-.73A3.66,3.66,0,0,1,86,221,4.77,4.77,0,0,1,85.79,219.63ZM87,219.5v.13a4.22,4.22,0,0,0,.1,1,2.5,2.5,0,0,0,.33.8,1.63,1.63,0,0,0,.57.54,1.74,1.74,0,0,0,.82.19,1.69,1.69,0,0,0,.95-.25,1.81,1.81,0,0,0,.61-.65,3.46,3.46,0,0,0,.36-.89V218.8a4,4,0,0,0-.22-.67,2.3,2.3,0,0,0-.37-.58,1.65,1.65,0,0,0-.55-.42,1.82,1.82,0,0,0-.77-.15,1.67,1.67,0,0,0-.83.2,1.76,1.76,0,0,0-.57.55,2.5,2.5,0,0,0-.33.8A4.25,4.25,0,0,0,87,219.5Zm6.14.13v-.15a4.32,4.32,0,0,1,.21-1.37A3.5,3.5,0,0,1,94,217a2.83,2.83,0,0,1,1-.73,3.26,3.26,0,0,1,2.6,0,2.78,2.78,0,0,1,1,.73,3.5,3.5,0,0,1,.63,1.12,4.32,4.32,0,0,1,.21,1.37v.15a4.43,4.43,0,0,1-.21,1.38,3.56,3.56,0,0,1-.63,1.11,2.78,2.78,0,0,1-1,.73,3,3,0,0,1-1.29.26,3,3,0,0,1-1.3-.26,2.78,2.78,0,0,1-1-.73,3.56,3.56,0,0,1-.63-1.11A4.43,4.43,0,0,1,93.11,219.63Zm1.17-.15v.15a3.79,3.79,0,0,0,.12,1,2.56,2.56,0,0,0,.37.8,1.78,1.78,0,0,0,.61.55,1.82,1.82,0,0,0,.86.2,1.74,1.74,0,0,0,.84-.2,1.7,1.7,0,0,0,.61-.55,2.54,2.54,0,0,0,.36-.8,3.39,3.39,0,0,0,.13-1v-.15a3.32,3.32,0,0,0-.13-1,2.54,2.54,0,0,0-.36-.8,1.8,1.8,0,0,0-.61-.56,1.67,1.67,0,0,0-.85-.2,1.68,1.68,0,0,0-1.46.76,2.56,2.56,0,0,0-.37.8A3.71,3.71,0,0,0,94.28,219.48ZM102,217.2V223h-1.18v-6.87H102Zm2.14-1.12v1.09l-.28,0h-.29a1.81,1.81,0,0,0-.72.13,1.49,1.49,0,0,0-.53.35,1.82,1.82,0,0,0-.34.55,2.9,2.9,0,0,0-.16.69l-.33.19a5.39,5.39,0,0,1,.12-1.17,3.13,3.13,0,0,1,.39-1,1.9,1.9,0,0,1,.66-.66,1.85,1.85,0,0,1,1-.24l.3,0A.9.9,0,0,1,104.15,216.08Zm5.59-2.84V223h-1.18v-9.75Zm1.57,6.39v-.15a4.32,4.32,0,0,1,.22-1.37,3.3,3.3,0,0,1,.62-1.12,2.78,2.78,0,0,1,1-.73,3,3,0,0,1,1.29-.27,3,3,0,0,1,1.3.27,2.78,2.78,0,0,1,1,.73,3.16,3.16,0,0,1,.63,1.12,4.32,4.32,0,0,1,.22,1.37v.15a4.43,4.43,0,0,1-.22,1.38,3.21,3.21,0,0,1-.63,1.11,2.83,2.83,0,0,1-1,.73,3,3,0,0,1-1.3.26,3.05,3.05,0,0,1-1.3-.26,3,3,0,0,1-1-.73,3.35,3.35,0,0,1-.62-1.11A4.43,4.43,0,0,1,111.31,219.63Zm1.18-.15v.15a3.79,3.79,0,0,0,.12,1,2.54,2.54,0,0,0,.36.8,1.81,1.81,0,0,0,.62.55,1.78,1.78,0,0,0,.85.2,1.75,1.75,0,0,0,.85-.2,1.78,1.78,0,0,0,.61-.55,2.54,2.54,0,0,0,.36-.8,3.79,3.79,0,0,0,.13-1v-.15a3.71,3.71,0,0,0-.13-1,2.35,2.35,0,0,0-.37-.8,1.68,1.68,0,0,0-1.46-.76,1.7,1.7,0,0,0-.85.2,1.8,1.8,0,0,0-.61.56,2.54,2.54,0,0,0-.36.8A3.71,3.71,0,0,0,112.49,219.48Zm9.3,2.67a1.77,1.77,0,0,0,.77-.17,1.71,1.71,0,0,0,.59-.47,1.36,1.36,0,0,0,.26-.69h1.11a2.11,2.11,0,0,1-.41,1.13,2.77,2.77,0,0,1-2.32,1.16,3.13,3.13,0,0,1-1.35-.27,2.63,2.63,0,0,1-1-.75,3.41,3.41,0,0,1-.56-1.09,4.71,4.71,0,0,1-.19-1.31v-.27a4.66,4.66,0,0,1,.19-1.31,3.46,3.46,0,0,1,.56-1.1,2.87,2.87,0,0,1,1-.75,3.13,3.13,0,0,1,1.35-.27,2.91,2.91,0,0,1,1.41.33,2.44,2.44,0,0,1,.94.89,2.49,2.49,0,0,1,.38,1.27h-1.11a1.83,1.83,0,0,0-.24-.77,1.53,1.53,0,0,0-.56-.54,1.59,1.59,0,0,0-.82-.21,1.83,1.83,0,0,0-.91.21,1.67,1.67,0,0,0-.58.57,2.55,2.55,0,0,0-.3.8,4.24,4.24,0,0,0-.09.88v.27a4.31,4.31,0,0,0,.09.88,2.55,2.55,0,0,0,.3.8,1.64,1.64,0,0,0,.57.57A1.84,1.84,0,0,0,121.79,222.15Zm5.23-8.91V223h-1.18v-9.75Zm4.2,2.88-3,3.2-1.67,1.74-.1-1.25,1.2-1.43,2.14-2.26ZM130.15,223l-2.45-3.28.61-1.05,3.22,4.33Zm4.73-4.42v1h-3.1v-1Zm2.42-2.45V223h-1.18v-6.87ZM136,214.3a.77.77,0,0,1,.17-.49.68.68,0,0,1,.52-.19.67.67,0,0,1,.52.19.72.72,0,0,1,.18.49.67.67,0,0,1-.18.47.7.7,0,0,1-.52.19.62.62,0,0,1-.69-.66Zm4.33,3.28V223h-1.17v-6.87h1.11Zm-.28,1.71-.49,0a4.48,4.48,0,0,1,.21-1.3,3.53,3.53,0,0,1,.57-1.05,2.64,2.64,0,0,1,.88-.68,2.51,2.51,0,0,1,1.14-.25,2.9,2.9,0,0,1,.91.14,1.65,1.65,0,0,1,.69.43,1.87,1.87,0,0,1,.45.78,3.77,3.77,0,0,1,.15,1.15V223h-1.18v-4.52a1.91,1.91,0,0,0-.16-.86,1,1,0,0,0-.46-.48A1.73,1.73,0,0,0,142,217a1.66,1.66,0,0,0-.8.19,2,2,0,0,0-.62.5,2.69,2.69,0,0,0-.4.75A2.74,2.74,0,0,0,140.08,219.29Zm10.29,1.87a1.12,1.12,0,0,0-.11-.47.94.94,0,0,0-.45-.39,3.61,3.61,0,0,0-1-.32,8,8,0,0,1-1-.29,2.85,2.85,0,0,1-.78-.4,1.5,1.5,0,0,1-.49-.55,1.47,1.47,0,0,1-.17-.74,1.7,1.7,0,0,1,.17-.77,2.12,2.12,0,0,1,.52-.64,2.47,2.47,0,0,1,.8-.44,3.55,3.55,0,0,1,2.46.13,2.3,2.3,0,0,1,.9.78,2,2,0,0,1,.31,1.08H150.3a1.07,1.07,0,0,0-.17-.56,1.26,1.26,0,0,0-.49-.45,1.67,1.67,0,0,0-.78-.17,1.79,1.79,0,0,0-.79.15,1,1,0,0,0-.44.37,1,1,0,0,0-.13.49.93.93,0,0,0,.06.34.76.76,0,0,0,.24.27,2.16,2.16,0,0,0,.48.23c.21.07.48.14.8.22a6.13,6.13,0,0,1,1.39.45,2.1,2.1,0,0,1,.81.66,1.58,1.58,0,0,1,.27.94,1.87,1.87,0,0,1-.19.82,2,2,0,0,1-.54.65,2.76,2.76,0,0,1-.84.42,4.06,4.06,0,0,1-1.09.14,3.26,3.26,0,0,1-1.53-.32,2.48,2.48,0,0,1-1-.84,2,2,0,0,1-.32-1.08h1.18a1.21,1.21,0,0,0,.28.76,1.42,1.42,0,0,0,.62.4,2.37,2.37,0,0,0,.73.12,2.15,2.15,0,0,0,.81-.13,1,1,0,0,0,.5-.35A.82.82,0,0,0,150.37,221.16Zm7.68.61,1.77-5.65h.77l-.15,1.12-1.8,5.75h-.75Zm-1.18-5.65,1.5,5.71.11,1.16h-.8l-2-6.87Zm5.41,5.67,1.43-5.67h1.17l-2,6.87h-.79Zm-1.52-5.67,1.73,5.55.2,1.32h-.75l-1.85-5.76-.15-1.11Zm6.6,0V223h-1.18v-6.87Zm-1.27-1.82a.72.72,0,0,1,.18-.49.79.79,0,0,1,1,0,.72.72,0,0,1,.18.49.67.67,0,0,1-.18.47.69.69,0,0,1-.51.19.69.69,0,0,1-.52-.19A.67.67,0,0,1,166.09,214.3Zm6,1.82v.9h-3.72v-.9Zm-2.46-1.67h1.17v6.84a1,1,0,0,0,.11.52.54.54,0,0,0,.28.24,1.11,1.11,0,0,0,.37,0,1.51,1.51,0,0,0,.3,0l.25-.05v1l-.37.08a2.83,2.83,0,0,1-.54,0,1.73,1.73,0,0,1-.79-.17,1.19,1.19,0,0,1-.58-.57,2.37,2.37,0,0,1-.21-1.09Zm5-1.21V223H173.5v-9.75Zm-.28,6-.49,0a3.9,3.9,0,0,1,.21-1.3,3.13,3.13,0,0,1,.57-1.05,2.54,2.54,0,0,1,.88-.68,2.5,2.5,0,0,1,1.13-.25,3,3,0,0,1,.92.14,1.65,1.65,0,0,1,.69.43,2,2,0,0,1,.44.78,3.77,3.77,0,0,1,.15,1.15V223h-1.18v-4.52a1.91,1.91,0,0,0-.16-.86,1,1,0,0,0-.46-.48,1.86,1.86,0,0,0-1.55,0,2,2,0,0,0-.61.5,2.46,2.46,0,0,0-.4.75A2.48,2.48,0,0,0,174.4,219.29Zm9.18.34v-.15a4.32,4.32,0,0,1,.21-1.37,3.48,3.48,0,0,1,.62-1.12,2.78,2.78,0,0,1,1-.73,3.24,3.24,0,0,1,2.59,0,2.78,2.78,0,0,1,1,.73,3.16,3.16,0,0,1,.63,1.12,4.06,4.06,0,0,1,.22,1.37v.15a4.16,4.16,0,0,1-.22,1.38,3.21,3.21,0,0,1-.63,1.11,2.74,2.74,0,0,1-1,.73,3,3,0,0,1-1.29.26,3.07,3.07,0,0,1-1.31-.26,3,3,0,0,1-1-.73,3.54,3.54,0,0,1-.62-1.11A4.43,4.43,0,0,1,183.58,219.63Zm1.17-.15v.15a3.79,3.79,0,0,0,.12,1,2.54,2.54,0,0,0,.36.8,1.81,1.81,0,0,0,.62.55,1.79,1.79,0,0,0,.86.2,1.74,1.74,0,0,0,.84-.2,1.7,1.7,0,0,0,.61-.55,2.54,2.54,0,0,0,.36-.8,3.39,3.39,0,0,0,.13-1v-.15a3.32,3.32,0,0,0-.13-1,2.35,2.35,0,0,0-.37-.8,1.68,1.68,0,0,0-1.46-.76,1.7,1.7,0,0,0-.85.2,1.8,1.8,0,0,0-.61.56,2.54,2.54,0,0,0-.36.8A3.71,3.71,0,0,0,184.75,219.48Zm7.73-2v8.19h-1.19v-9.51h1.08Zm4.62,2.06v.13a5.57,5.57,0,0,1-.17,1.39,3.41,3.41,0,0,1-.53,1.1,2.23,2.23,0,0,1-.83.73,2.33,2.33,0,0,1-1.13.26,3,3,0,0,1-1.16-.21,2.42,2.42,0,0,1-.85-.63,3.4,3.4,0,0,1-.56-1,6.08,6.08,0,0,1-.28-1.3v-.71a5.91,5.91,0,0,1,.29-1.37,3.48,3.48,0,0,1,.55-1,2.36,2.36,0,0,1,.85-.65,2.73,2.73,0,0,1,1.14-.23,2.53,2.53,0,0,1,1.15.26,2.28,2.28,0,0,1,.84.71,3.35,3.35,0,0,1,.52,1.11A5.66,5.66,0,0,1,197.1,219.5Zm-1.18.13v-.13a3.74,3.74,0,0,0-.11-1,2.5,2.5,0,0,0-.33-.8,1.76,1.76,0,0,0-.57-.55,1.7,1.7,0,0,0-.83-.2,1.87,1.87,0,0,0-.78.15,1.75,1.75,0,0,0-.55.42,2.33,2.33,0,0,0-.38.58,4,4,0,0,0-.21.67v1.65a4.43,4.43,0,0,0,.36.84,1.9,1.9,0,0,0,.61.62,1.75,1.75,0,0,0,1,.24,1.63,1.63,0,0,0,.82-.2,1.66,1.66,0,0,0,.57-.55,2.5,2.5,0,0,0,.33-.8A3.8,3.8,0,0,0,195.92,219.63Zm5.53,3.48a3.38,3.38,0,0,1-1.3-.24,2.8,2.8,0,0,1-1-.69,3.27,3.27,0,0,1-.63-1.05,3.85,3.85,0,0,1-.22-1.34v-.26a4.27,4.27,0,0,1,.24-1.49,3.3,3.3,0,0,1,.68-1.12,2.67,2.67,0,0,1,1-.69,2.72,2.72,0,0,1,1.12-.24,2.94,2.94,0,0,1,1.27.26,2.19,2.19,0,0,1,.88.71A3,3,0,0,1,204,218a5.13,5.13,0,0,1,.16,1.34v.52H199v-1h4v-.08a3,3,0,0,0-.19-.89,1.61,1.61,0,0,0-.51-.71,1.45,1.45,0,0,0-.95-.28,1.55,1.55,0,0,0-.74.17,1.67,1.67,0,0,0-.58.49,2.53,2.53,0,0,0-.37.81,4,4,0,0,0-.13,1.1v.26a3,3,0,0,0,.13.92,2.24,2.24,0,0,0,.4.75,1.86,1.86,0,0,0,.64.51,2,2,0,0,0,.86.18,2.05,2.05,0,0,0,1.06-.25,2.42,2.42,0,0,0,.75-.68l.71.57a3.25,3.25,0,0,1-.56.64,2.66,2.66,0,0,1-.84.49A3.25,3.25,0,0,1,201.45,223.11Zm5.22-5.53V223h-1.18v-6.87h1.12Zm-.28,1.71-.49,0a4.17,4.17,0,0,1,.21-1.3,3.53,3.53,0,0,1,.57-1.05,2.64,2.64,0,0,1,.88-.68,2.5,2.5,0,0,1,1.13-.25,2.91,2.91,0,0,1,.92.14,1.65,1.65,0,0,1,.69.43,2,2,0,0,1,.44.78,3.47,3.47,0,0,1,.16,1.15V223h-1.18v-4.52a2.06,2.06,0,0,0-.16-.86,1,1,0,0,0-.47-.48,1.86,1.86,0,0,0-1.55,0,2,2,0,0,0-.61.5,2.69,2.69,0,0,0-.4.75A2.74,2.74,0,0,0,206.39,219.29Zm13.51,1.87a1,1,0,0,0-.11-.47.94.94,0,0,0-.45-.39,3.51,3.51,0,0,0-1-.32,8,8,0,0,1-1-.29,2.85,2.85,0,0,1-.78-.4,1.6,1.6,0,0,1-.49-.55,1.47,1.47,0,0,1-.17-.74,1.71,1.71,0,0,1,.18-.77,2,2,0,0,1,.51-.64,2.42,2.42,0,0,1,.81-.44,3.11,3.11,0,0,1,1-.16,3.19,3.19,0,0,1,1.41.29,2.3,2.3,0,0,1,.9.78,2,2,0,0,1,.31,1.08h-1.18a1,1,0,0,0-.17-.56,1.26,1.26,0,0,0-.49-.45,1.67,1.67,0,0,0-.78-.17,1.79,1.79,0,0,0-.79.15,1,1,0,0,0-.44.37,1,1,0,0,0-.13.49.93.93,0,0,0,.06.34.76.76,0,0,0,.24.27,2.05,2.05,0,0,0,.49.23c.2.07.47.14.79.22a6,6,0,0,1,1.39.45,2.1,2.1,0,0,1,.81.66,1.58,1.58,0,0,1,.27.94,1.87,1.87,0,0,1-.19.82,1.76,1.76,0,0,1-.54.65,2.55,2.55,0,0,1-.84.42,4,4,0,0,1-1.09.14,3.26,3.26,0,0,1-1.53-.32,2.38,2.38,0,0,1-.95-.84,2,2,0,0,1-.33-1.08h1.18a1.21,1.21,0,0,0,.28.76,1.42,1.42,0,0,0,.62.4,2.37,2.37,0,0,0,.73.12,2.08,2.08,0,0,0,.81-.13,1,1,0,0,0,.5-.35A.77.77,0,0,0,219.9,221.16Zm2.41-1.53v-.15a4.06,4.06,0,0,1,.22-1.37,3.3,3.3,0,0,1,.62-1.12,2.83,2.83,0,0,1,1-.73,3.26,3.26,0,0,1,2.6,0,2.78,2.78,0,0,1,1,.73,3.5,3.5,0,0,1,.63,1.12,4.32,4.32,0,0,1,.21,1.37v.15a4.43,4.43,0,0,1-.21,1.38,3.56,3.56,0,0,1-.63,1.11,2.78,2.78,0,0,1-1,.73,3,3,0,0,1-1.29.26,3,3,0,0,1-1.3-.26,2.78,2.78,0,0,1-1-.73,3.35,3.35,0,0,1-.62-1.11A4.16,4.16,0,0,1,222.31,219.63Zm1.17-.15v.15a3.79,3.79,0,0,0,.12,1,2.56,2.56,0,0,0,.37.8,1.78,1.78,0,0,0,.61.55,1.82,1.82,0,0,0,.86.2,1.74,1.74,0,0,0,.84-.2,1.7,1.7,0,0,0,.61-.55,2.54,2.54,0,0,0,.36-.8,3.39,3.39,0,0,0,.13-1v-.15a3.32,3.32,0,0,0-.13-1,2.54,2.54,0,0,0-.36-.8,1.72,1.72,0,0,0-.61-.56,1.67,1.67,0,0,0-.85-.2,1.68,1.68,0,0,0-1.46.76,2.56,2.56,0,0,0-.37.8A3.71,3.71,0,0,0,223.48,219.48Zm10.76,1.92v-5.28h1.18V223h-1.13Zm.22-1.45H235a5.08,5.08,0,0,1-.15,1.27,2.55,2.55,0,0,1-.46,1,2,2,0,0,1-.83.67,2.94,2.94,0,0,1-1.25.23,3,3,0,0,1-.92-.14,2,2,0,0,1-.71-.45,2.08,2.08,0,0,1-.46-.8,3.63,3.63,0,0,1-.16-1.17v-4.43h1.17v4.44a2.37,2.37,0,0,0,.11.77,1.24,1.24,0,0,0,.28.48,1.14,1.14,0,0,0,.41.24,1.84,1.84,0,0,0,.47.07,2.12,2.12,0,0,0,1.18-.29,1.51,1.51,0,0,0,.63-.78A3,3,0,0,0,234.46,220Zm3.92-2.75V223h-1.17v-6.87h1.14Zm2.15-1.12v1.09l-.28,0H240a1.81,1.81,0,0,0-.72.13,1.45,1.45,0,0,0-.52.35,1.84,1.84,0,0,0-.35.55,2.9,2.9,0,0,0-.16.69l-.33.19a5.39,5.39,0,0,1,.12-1.17,3.4,3.4,0,0,1,.39-1,2.08,2.08,0,0,1,.66-.66,1.86,1.86,0,0,1,1-.24l.29,0Zm3.7,6.07A1.85,1.85,0,0,0,245,222a1.59,1.59,0,0,0,.58-.47,1.28,1.28,0,0,0,.26-.69H247a2.11,2.11,0,0,1-.41,1.13,2.81,2.81,0,0,1-2.33,1.16,3.19,3.19,0,0,1-1.35-.27,2.6,2.6,0,0,1-.95-.75,3.22,3.22,0,0,1-.56-1.09,4.37,4.37,0,0,1-.19-1.31v-.27a4.32,4.32,0,0,1,.19-1.31,3.27,3.27,0,0,1,.56-1.1,2.83,2.83,0,0,1,.95-.75,3.19,3.19,0,0,1,1.35-.27,2.88,2.88,0,0,1,1.41.33,2.4,2.4,0,0,1,1,.89,2.59,2.59,0,0,1,.38,1.27h-1.12a1.7,1.7,0,0,0-.24-.77,1.39,1.39,0,0,0-.56-.54,1.54,1.54,0,0,0-.82-.21,1.76,1.76,0,0,0-.9.21,1.59,1.59,0,0,0-.58.57,2.84,2.84,0,0,0-.31.8,5.05,5.05,0,0,0-.08.88v.27a5.14,5.14,0,0,0,.08.88,2.55,2.55,0,0,0,.3.8,1.76,1.76,0,0,0,.58.57A1.83,1.83,0,0,0,244.23,222.15Zm6.91,1a3.38,3.38,0,0,1-1.3-.24,2.8,2.8,0,0,1-1-.69,3.27,3.27,0,0,1-.63-1.05,3.85,3.85,0,0,1-.22-1.34v-.26a4.27,4.27,0,0,1,.24-1.49,3.3,3.3,0,0,1,.68-1.12,2.67,2.67,0,0,1,1-.69A2.72,2.72,0,0,1,251,216a2.94,2.94,0,0,1,1.27.26,2.19,2.19,0,0,1,.88.71,3,3,0,0,1,.51,1.06,5.13,5.13,0,0,1,.16,1.34v.52h-5.13v-1h4v-.08a3,3,0,0,0-.19-.89,1.61,1.61,0,0,0-.51-.71A1.45,1.45,0,0,0,251,217a1.55,1.55,0,0,0-.74.17,1.67,1.67,0,0,0-.58.49,2.53,2.53,0,0,0-.37.81,4,4,0,0,0-.13,1.1v.26a3,3,0,0,0,.13.92,2.24,2.24,0,0,0,.4.75,1.86,1.86,0,0,0,.64.51,2,2,0,0,0,.86.18,2.05,2.05,0,0,0,1.06-.25,2.42,2.42,0,0,0,.75-.68l.71.57a3.25,3.25,0,0,1-.56.64,2.6,2.6,0,0,1-.85.49A3.19,3.19,0,0,1,251.14,223.11Zm8.44-5.67v8.19H258.4v-9.51h1.08Zm4.63,2.06v.13A5.14,5.14,0,0,1,264,221a3.39,3.39,0,0,1-.52,1.1,2.23,2.23,0,0,1-.83.73,2.34,2.34,0,0,1-1.14.26,3,3,0,0,1-1.15-.21,2.33,2.33,0,0,1-.85-.63,3.4,3.4,0,0,1-.56-1,5.52,5.52,0,0,1-.28-1.3v-.71a5.91,5.91,0,0,1,.29-1.37,3.48,3.48,0,0,1,.55-1,2.32,2.32,0,0,1,.84-.65,2.74,2.74,0,0,1,1.15-.23,2.46,2.46,0,0,1,1.14.26,2.24,2.24,0,0,1,.85.71,3.15,3.15,0,0,1,.51,1.11A5.23,5.23,0,0,1,264.21,219.5Zm-1.18.13v-.13a4.23,4.23,0,0,0-.11-1,2.5,2.5,0,0,0-.33-.8,1.7,1.7,0,0,0-.58-.55,1.67,1.67,0,0,0-.83-.2,1.86,1.86,0,0,0-.77.15,1.65,1.65,0,0,0-.55.42,2.08,2.08,0,0,0-.38.58,4,4,0,0,0-.21.67v1.65a4.43,4.43,0,0,0,.36.84,1.81,1.81,0,0,0,.61.62,1.75,1.75,0,0,0,1,.24,1.6,1.6,0,0,0,1.39-.75,2.5,2.5,0,0,0,.33-.8A4.3,4.3,0,0,0,263,219.63Zm4-6.39V223H265.8v-9.75Zm5.94,8.57v-3.53a1.46,1.46,0,0,0-.17-.71,1,1,0,0,0-.48-.47,1.73,1.73,0,0,0-.8-.16,1.94,1.94,0,0,0-.78.15,1.32,1.32,0,0,0-.52.4.87.87,0,0,0-.18.53h-1.18a1.65,1.65,0,0,1,.19-.73,2.1,2.1,0,0,1,.55-.65,2.64,2.64,0,0,1,.86-.47,3.39,3.39,0,0,1,1.13-.18,3.2,3.2,0,0,1,1.32.26,1.87,1.87,0,0,1,.9.76,2.32,2.32,0,0,1,.33,1.28v3.2a4.78,4.78,0,0,0,.06.73,2.24,2.24,0,0,0,.19.66V223h-1.23a2.1,2.1,0,0,1-.14-.54A5,5,0,0,1,272.92,221.81Zm.2-3,0,.83H272a4.86,4.86,0,0,0-.9.08,2,2,0,0,0-.66.24,1.07,1.07,0,0,0-.4.39,1,1,0,0,0-.14.56,1.31,1.31,0,0,0,.14.59,1.05,1.05,0,0,0,.44.42,1.61,1.61,0,0,0,.73.16,1.94,1.94,0,0,0,.95-.23,2,2,0,0,0,.66-.56,1.23,1.23,0,0,0,.26-.64l.51.56a1.53,1.53,0,0,1-.25.59,2.49,2.49,0,0,1-.52.62,2.79,2.79,0,0,1-.78.49,2.44,2.44,0,0,1-1,.19,2.68,2.68,0,0,1-1.23-.27,2.12,2.12,0,0,1-.81-.73,1.92,1.92,0,0,1-.28-1,2.17,2.17,0,0,1,.21-1,2,2,0,0,1,.62-.7,3.13,3.13,0,0,1,1-.43,5.05,5.05,0,0,1,1.28-.15Zm5.7-2.7v.9H275.1v-.9Zm-2.46-1.67h1.17v6.84a1,1,0,0,0,.11.52.54.54,0,0,0,.28.24,1.14,1.14,0,0,0,.37,0,1.51,1.51,0,0,0,.3,0l.25-.05v1a3.72,3.72,0,0,1-.37.08,2.83,2.83,0,0,1-.54,0,1.73,1.73,0,0,1-.79-.17,1.23,1.23,0,0,1-.58-.57,2.37,2.37,0,0,1-.21-1.09ZM282,223h-1.18v-7.6a2.65,2.65,0,0,1,.27-1.25,1.76,1.76,0,0,1,.78-.77,2.53,2.53,0,0,1,1.2-.27,2.73,2.73,0,0,1,.41,0l.41.07-.07,1-.3,0h-.33a1.33,1.33,0,0,0-.65.15.93.93,0,0,0-.4.43,1.51,1.51,0,0,0-.14.7Zm1.46-6.87v.9h-3.72v-.9Zm1,3.51v-.15a4.06,4.06,0,0,1,.22-1.37,3.3,3.3,0,0,1,.62-1.12,2.83,2.83,0,0,1,1-.73,3.05,3.05,0,0,1,1.3-.27,3,3,0,0,1,1.3.27,2.78,2.78,0,0,1,1,.73,3.16,3.16,0,0,1,.63,1.12,4.32,4.32,0,0,1,.21,1.37v.15a4.43,4.43,0,0,1-.21,1.38,3.21,3.21,0,0,1-.63,1.11,2.83,2.83,0,0,1-1,.73,3,3,0,0,1-1.3.26,3.05,3.05,0,0,1-1.3-.26,3,3,0,0,1-1-.73,3.35,3.35,0,0,1-.62-1.11A4.16,4.16,0,0,1,284.4,219.63Zm1.18-.15v.15a3.79,3.79,0,0,0,.12,1,2.54,2.54,0,0,0,.36.8,1.78,1.78,0,0,0,.61.55,1.85,1.85,0,0,0,.86.2,1.81,1.81,0,0,0,.85-.2,1.88,1.88,0,0,0,.61-.55,2.54,2.54,0,0,0,.36-.8,3.79,3.79,0,0,0,.12-1v-.15a3.71,3.71,0,0,0-.12-1,2.56,2.56,0,0,0-.37-.8,1.64,1.64,0,0,0-.61-.56,1.91,1.91,0,0,0-1.7,0,1.72,1.72,0,0,0-.61.56,2.54,2.54,0,0,0-.36.8A3.71,3.71,0,0,0,285.58,219.48Zm7.72-2.28V223h-1.17v-6.87h1.14Zm2.15-1.12v1.09l-.28,0h-.29a1.81,1.81,0,0,0-.72.13,1.45,1.45,0,0,0-.52.35,1.84,1.84,0,0,0-.35.55,2.9,2.9,0,0,0-.16.69l-.33.19a5.39,5.39,0,0,1,.12-1.17,3.4,3.4,0,0,1,.39-1,2.08,2.08,0,0,1,.66-.66,1.86,1.86,0,0,1,1-.24l.29,0Zm2.25,1.4V223h-1.18v-6.87h1.12Zm-.24,1.81-.55,0a4.85,4.85,0,0,1,.19-1.3,3.23,3.23,0,0,1,.52-1.05,2.51,2.51,0,0,1,.87-.68,2.73,2.73,0,0,1,1.21-.25,2.81,2.81,0,0,1,.89.14,1.75,1.75,0,0,1,.7.43,1.89,1.89,0,0,1,.47.75,3.23,3.23,0,0,1,.16,1.1V223h-1.17v-4.52a1.7,1.7,0,0,0-.19-.87,1,1,0,0,0-.5-.47,1.87,1.87,0,0,0-.78-.15,1.75,1.75,0,0,0-.87.19,1.5,1.5,0,0,0-.56.5,2.27,2.27,0,0,0-.3.75A4,4,0,0,0,297.46,219.29Zm4.45-.65-.79.25a3.62,3.62,0,0,1,.19-1.09,2.83,2.83,0,0,1,.52-.93,2.62,2.62,0,0,1,.86-.64,2.7,2.7,0,0,1,1.16-.24,2.93,2.93,0,0,1,1,.15,1.58,1.58,0,0,1,.72.45,1.83,1.83,0,0,1,.45.77,3.34,3.34,0,0,1,.16,1.11V223H305v-4.53a1.81,1.81,0,0,0-.19-.89,1,1,0,0,0-.51-.46,2.17,2.17,0,0,0-.77-.13,1.84,1.84,0,0,0-.69.13,1.55,1.55,0,0,0-.5.37,1.76,1.76,0,0,0-.31.53A1.89,1.89,0,0,0,301.91,218.64Zm10,2.52a1.12,1.12,0,0,0-.11-.47.94.94,0,0,0-.45-.39,3.61,3.61,0,0,0-1-.32,8,8,0,0,1-1-.29,2.85,2.85,0,0,1-.78-.4,1.5,1.5,0,0,1-.49-.55,1.47,1.47,0,0,1-.17-.74,1.84,1.84,0,0,1,.17-.77,2.12,2.12,0,0,1,.52-.64,2.47,2.47,0,0,1,.8-.44,3.55,3.55,0,0,1,2.46.13,2.3,2.3,0,0,1,.9.78,2,2,0,0,1,.31,1.08h-1.18a1,1,0,0,0-.17-.56,1.26,1.26,0,0,0-.49-.45,1.67,1.67,0,0,0-.78-.17,1.79,1.79,0,0,0-.79.15,1,1,0,0,0-.44.37,1,1,0,0,0-.13.49.93.93,0,0,0,.06.34.76.76,0,0,0,.24.27,2.16,2.16,0,0,0,.48.23c.21.07.48.14.8.22a6.13,6.13,0,0,1,1.39.45,2.1,2.1,0,0,1,.81.66,1.58,1.58,0,0,1,.27.94,1.87,1.87,0,0,1-.19.82,2,2,0,0,1-.54.65,2.76,2.76,0,0,1-.84.42,4,4,0,0,1-1.09.14,3.26,3.26,0,0,1-1.53-.32,2.48,2.48,0,0,1-1-.84,2,2,0,0,1-.32-1.08h1.18a1.21,1.21,0,0,0,.28.76,1.42,1.42,0,0,0,.62.4,2.37,2.37,0,0,0,.73.12,2.15,2.15,0,0,0,.81-.13,1,1,0,0,0,.5-.35A.77.77,0,0,0,311.93,221.16Zm2.74,1.2a.75.75,0,0,1,.18-.5.71.71,0,0,1,.55-.21.7.7,0,0,1,.54.21.76.76,0,0,1,.19.5.77.77,0,0,1-1.28.5A.73.73,0,0,1,314.67,222.36Z"></path><line class="cls-3" x1="24.95" y1="95.13" x2="176.95" y2="95.13"></line><g class="cls-4"><image width="1000" height="737" transform="translate(513.47 32.37) scale(0.42)" xlink:href="../../../../../Downloads/merge.jpeg"></image></g></svg>