<svg xmlns="http://www.w3.org/2000/svg" id="Layer_1" data-name="Layer 1" viewBox="0 0 177 166"><defs><style>.cls-1{fill:#61686d;}.cls-2{fill:#fff;}</style></defs><path class="cls-1" d="M140.43,69.15c-2.59,1.8-3,3.76-3.07,4.31l-1.14.65c.55-.91,1.06-1.84,1.54-2.8a43.14,43.14,0,0,0,2.06-5l.18-.57a14,14,0,0,1,2-3.92c.06-.07.12-.16.17-.23,7.24-4,3.92-12,3.92-12,.11,1.78-1.61,3.15-3.38,6.4-1.51,2.77-1,4.71-.82,5.23-.37.57-.72,1.07-1,1.49.12-.52.23-1,.33-1.57a36.87,36.87,0,0,0,.63-5.34l0-.67c0-.23,0-.45,0-.68V53.08c0-.44,0-.89-.06-1.34,0-.22,0-.44,0-.67l-.06-.66a4.56,4.56,0,0,1,.06-1.33l.53-2.56c5.28-6.35-.78-12.64-.78-12.64.75,1.62-.35,3.52-.8,7.2-.38,3.12.8,4.75,1.16,5.16-.15.74-.31,1.39-.44,1.92l0-.42c-.05-.45-.16-.88-.24-1.32l-.13-.66c0-.22-.08-.44-.13-.65-.22-.87-.41-1.74-.69-2.59l-.2-.64-.09-.32-.12-.31L139.32,40c-.28-.73-.58-1.46-.9-2.17a11.71,11.71,0,0,1-1-4.07c0-.33,0-.65-.07-1,2.84-7.76-5-11.66-5-11.66,1.26,1.28.86,3.44,1.67,7.05.69,3.08,2.35,4.2,2.83,4.47.15,1.05.24,1.94.28,2.55,0,0,0,0,0-.06l-.32-.6c-.1-.19-.23-.38-.34-.57l-.69-1.14L135,31.72l-.37-.55-.4-.53c-.41-.57-.84-1.12-1.29-1.66-.63-.79-1.48-1.94-2.23-2.77a5.94,5.94,0,0,1-.88-1.28c-3.25-6.86-11.2-4.93-11.2-4.93,1.79.11,2.93,2,5.93,4.15a6.65,6.65,0,0,0,4.95,1.49l.27.08.91,1A39.88,39.88,0,0,1,134,30.79l.38.54c.12.19.24.37.35.56l.71,1.12.3.53a21.42,21.42,0,0,0-2.37-1.77c-4.29-7.06-12.22-3.37-12.22-3.37,1.78-.19,3.22,1.47,6.55,3.09,2.83,1.38,4.75.79,5.26.58,1.13.67,2.07,1.31,2.62,1.71a2.71,2.71,0,0,1,.83.95h0l.3.59a37.59,37.59,0,0,1,2.07,4.85l.41,1.25.11.31.09.32.17.63c.25.84.43,1.7.61,2.56,0,.21.09.43.13.64v0a24.34,24.34,0,0,0-1.67-2.25c-2-8-10.69-6.81-10.69-6.81,1.76.34,2.65,2.35,5.36,4.87,2.3,2.15,4.31,2.15,4.85,2.1.62.68,1.13,1.28,1.51,1.75a4.24,4.24,0,0,1,.94,2.26v0l.15,1.3,0,.33,0,.33,0,.65,0,.65c0,.22,0,.44,0,.65,0,.44,0,.88,0,1.32l0,1.31c0,.22,0,.44,0,.65l-.05.66c-.07.94-.17,1.89-.3,2.82a21.91,21.91,0,0,0-.66-2.24c1-8.2-7.55-10.17-7.55-10.17,1.52.94,1.63,3.14,3.26,6.46a6.56,6.56,0,0,0,3.79,3.7c.21.51.38,1,.53,1.39a5.91,5.91,0,0,1,.2,3.2h0a38,38,0,0,1-1.44,5,39.74,39.74,0,0,1-2.11,4.77c-.24.45-.49.89-.74,1.33a23.58,23.58,0,0,0,.26-2.67c3.9-7.28-3.31-12.23-3.31-12.23,1.07,1.44.37,3.52.67,7.21.25,3.14,1.74,4.5,2.17,4.83v.35a9.81,9.81,0,0,1-1.77,5.59,0,0,0,0,0,0,0,36.33,36.33,0,0,1-3.31,4c-.31.31-.59.63-.91.93l-.94.9,0,0c.29-.51.54-1,.78-1.51,6.41-5.2,1.69-12.55,1.69-12.55.43,1.73-1,3.38-2.18,6.9-1,3-.14,4.82.13,5.29-.19.45-.38.87-.54,1.24a6.25,6.25,0,0,1-1.82,2.32,0,0,0,0,1,0,0,36.3,36.3,0,0,1-4.25,3c-.87.52-1.75,1-2.66,1.44a15.61,15.61,0,0,0,1-1.17c6.15-2.83,3.89-9.63,3.89-9.63,0,1.47-1.5,2.48-3.13,5.05a5.3,5.3,0,0,0-1,4.22c-.21.26-.39.52-.57.74a5.74,5.74,0,0,1-2.21,1.69h0a40.06,40.06,0,0,1-4.87,1.69h0a1.07,1.07,0,0,0-.79,1,1.09,1.09,0,0,0,1.41,1.1,42.33,42.33,0,0,0,5.1-1.92,40.92,40.92,0,0,0,4.79-2.59c.92-.58,1.82-1.2,2.69-1.86a7.82,7.82,0,0,1,4.06-1.56c7.71,3,11.73-4.8,11.73-4.8-1.3,1.24-3.45.81-7.08,1.56-3.08.64-4.24,2.28-4.51,2.76-.75.09-1.4.16-1.94.19.49-.43,1-.88,1.44-1.33l.95-1c.32-.32.62-.67.93-1A38.44,38.44,0,0,0,135,75.93a.7.7,0,0,0,.06-.09,5.36,5.36,0,0,1,2-1.73l.38-.2c8.25-.3,8.89-9,8.89-9C145.62,66.58,143.46,67,140.43,69.15Z"></path><path class="cls-1" d="M37.45,69.15c2.58,1.8,3,3.76,3.07,4.31l1.14.65c-.55-.91-1.06-1.84-1.54-2.8a43.14,43.14,0,0,1-2.06-5l-.19-.57a13.72,13.72,0,0,0-2-3.92l-.18-.23c-7.24-4-3.92-12-3.92-12-.11,1.78,1.62,3.15,3.39,6.4,1.51,2.77,1,4.71.82,5.23.37.57.71,1.07,1,1.49-.12-.52-.23-1-.32-1.57a36.87,36.87,0,0,1-.63-5.34l0-.67c0-.23,0-.45,0-.68V53.08c0-.44,0-.89.05-1.34,0-.22,0-.44,0-.67l.06-.66a4.56,4.56,0,0,0-.07-1.33l-.52-2.56c-5.28-6.35.78-12.64.78-12.64-.76,1.62.35,3.52.8,7.2.38,3.12-.8,4.75-1.16,5.16.15.74.3,1.39.44,1.92l0-.42c.05-.45.15-.88.24-1.32l.12-.66c0-.22.09-.44.14-.65.22-.87.41-1.74.69-2.59l.19-.64.1-.32.11-.31L38.55,40c.29-.73.59-1.46.91-2.17a11.7,11.7,0,0,0,1-4.07c0-.33,0-.65.08-1-2.84-7.76,5-11.66,5-11.66-1.25,1.28-.85,3.44-1.66,7.05-.69,3.08-2.35,4.2-2.83,4.47-.16,1.05-.24,1.94-.28,2.55l0-.06.32-.6.34-.57.69-1.14.75-1.11.37-.55.4-.53c.41-.57.84-1.12,1.29-1.66.62-.79,1.48-1.94,2.22-2.77a5.65,5.65,0,0,0,.89-1.28C51.3,18.07,59.25,20,59.25,20c-1.79.11-2.93,2-5.94,4.15a6.64,6.64,0,0,1-5,1.49l-.26.08-.91,1a37.4,37.4,0,0,0-3.32,4.12l-.38.54c-.13.19-.24.37-.36.56L42.42,33l-.3.53a21.42,21.42,0,0,1,2.37-1.77c4.29-7.06,12.22-3.37,12.22-3.37-1.78-.19-3.22,1.47-6.55,3.09-2.83,1.38-4.75.79-5.26.58-1.13.67-2.07,1.31-2.62,1.71a2.71,2.71,0,0,0-.83.95h0l-.3.59a37.59,37.59,0,0,0-2.07,4.85l-.41,1.25-.11.31-.09.32-.17.63c-.25.84-.43,1.7-.61,2.56,0,.21-.09.43-.13.64v0a24.34,24.34,0,0,1,1.67-2.25c2-8,10.69-6.81,10.69-6.81-1.76.34-2.65,2.35-5.36,4.87-2.3,2.15-4.31,2.15-4.85,2.1-.62.68-1.14,1.28-1.51,1.75a4.24,4.24,0,0,0-.94,2.26v0l-.15,1.3,0,.33,0,.33,0,.65,0,.65c0,.22,0,.44,0,.65,0,.44,0,.88,0,1.32l0,1.31c0,.22,0,.44,0,.65l0,.66c.07.94.17,1.89.3,2.82A21.91,21.91,0,0,1,38,56.27c-1-8.2,7.55-10.17,7.55-10.17C44,47,43.93,49.24,42.3,52.56a6.56,6.56,0,0,1-3.79,3.7c-.21.51-.38,1-.53,1.39a5.91,5.91,0,0,0-.2,3.2h0a36.55,36.55,0,0,0,1.44,5,39.74,39.74,0,0,0,2.11,4.77c.24.45.49.89.74,1.33a23.58,23.58,0,0,1-.26-2.67c-3.9-7.28,3.31-12.23,3.31-12.23-1.07,1.44-.37,3.52-.67,7.21-.25,3.14-1.74,4.5-2.17,4.83v.35a9.81,9.81,0,0,0,1.77,5.59,0,0,0,0,1,0,0,37.58,37.58,0,0,0,3.32,4c.3.31.59.63.91.93l.94.9s0,0,0,0c-.28-.51-.54-1-.77-1.51-6.42-5.2-1.69-12.55-1.69-12.55-.43,1.73,1,3.38,2.18,6.9,1,3,.14,4.82-.13,5.29.19.45.37.87.54,1.24a6.33,6.33,0,0,0,1.81,2.32h0a35.48,35.48,0,0,0,4.25,3c.87.52,1.75,1,2.65,1.44-.37-.39-.72-.78-1-1.17C51,83,53.21,76.21,53.21,76.21c0,1.47,1.49,2.48,3.12,5.05a5.32,5.32,0,0,1,1,4.22c.2.26.39.52.57.74a5.74,5.74,0,0,0,2.21,1.69h0A40.21,40.21,0,0,0,65,89.6h0a1.07,1.07,0,0,1,.79,1,1.1,1.1,0,0,1-1.41,1.1,42.48,42.48,0,0,1-5.11-1.92,40.79,40.79,0,0,1-4.78-2.59c-.93-.58-1.82-1.2-2.69-1.86a7.82,7.82,0,0,0-4.07-1.56C40,86.73,36,79,36,79c1.29,1.24,3.45.81,7.07,1.56,3.09.64,4.24,2.28,4.52,2.76.74.09,1.4.16,1.94.19-.49-.43-1-.88-1.45-1.33l-1-1c-.32-.32-.61-.67-.92-1a37.29,37.29,0,0,1-3.34-4.26.31.31,0,0,1-.07-.09,5.25,5.25,0,0,0-2-1.73l-.38-.2c-8.25-.3-8.89-9-8.89-9C32.26,66.58,34.41,67,37.45,69.15Z"></path><path class="cls-2" d="M78.2,42.39l-2.06,7.36H74.65l2.71-8.53h.92Zm1.65,7.36-2.07-7.36-.1-1.17h.94l2.72,8.53Zm0-3.17v1.19h-4V46.58Zm3.54-1.88v5H82.06V43.41h1.28Zm-.22,1.65h-.46a5.22,5.22,0,0,1,.11-1.22,3.29,3.29,0,0,1,.4-1,1.87,1.87,0,0,1,1.62-.87,1.59,1.59,0,0,1,.66.13,1.24,1.24,0,0,1,.52.39,1.88,1.88,0,0,1,.36.69,3.76,3.76,0,0,1,.12,1v4.23H85.16v-4.1a2,2,0,0,0-.1-.71.73.73,0,0,0-.3-.38.92.92,0,0,0-.46-.11.85.85,0,0,0-.51.15,1.06,1.06,0,0,0-.34.41,2.08,2.08,0,0,0-.19.61A4.15,4.15,0,0,0,83.2,46.35ZM86.44,46l-.64.15A3.84,3.84,0,0,1,85.92,45a2.88,2.88,0,0,1,.39-.91,1.89,1.89,0,0,1,.65-.61,2,2,0,0,1,1.65-.1,1.51,1.51,0,0,1,.56.41,2,2,0,0,1,.34.74,4.13,4.13,0,0,1,.12,1.08v4.1H88.26V45.64a2,2,0,0,0-.1-.73.62.62,0,0,0-.3-.35.83.83,0,0,0-.46-.11.73.73,0,0,0-.41.12,1,1,0,0,0-.3.33,1.52,1.52,0,0,0-.19.49A2.81,2.81,0,0,0,86.44,46Zm5.94-1.35v5.12H91V43.41h1.3Zm1.53-1.26v1.34a1.09,1.09,0,0,0-.26,0H93.4a1.07,1.07,0,0,0-.49.1,1,1,0,0,0-.35.28,1.88,1.88,0,0,0-.22.45,2.7,2.7,0,0,0-.09.6H92a6.33,6.33,0,0,1,.1-1.1,3.07,3.07,0,0,1,.28-.9,1.63,1.63,0,0,1,.48-.6,1,1,0,0,1,.67-.22l.24,0ZM98,48.25V43.41h1.36v6.34H98.06Zm.19-1.32h.43a5.41,5.41,0,0,1-.11,1.17,2.84,2.84,0,0,1-.37.94,1.75,1.75,0,0,1-.62.62,1.89,1.89,0,0,1-.92.21,1.8,1.8,0,0,1-.71-.13,1.43,1.43,0,0,1-.56-.42,1.92,1.92,0,0,1-.36-.73,3.8,3.8,0,0,1-.13-1.08V43.41h1.36v4.1a2.26,2.26,0,0,0,.06.57,1.42,1.42,0,0,0,.17.37.67.67,0,0,0,.23.19.93.93,0,0,0,.29,0,1,1,0,0,0,.73-.23,1.14,1.14,0,0,0,.39-.63A3.16,3.16,0,0,0,98.17,46.93Zm5.1-3.52v1.05h-3.11V43.41ZM101,41.85h1.36V48a1.25,1.25,0,0,0,.06.44.38.38,0,0,0,.18.21.78.78,0,0,0,.28,0l.23,0,.17,0v1.1a1.71,1.71,0,0,1-.36.1,2.21,2.21,0,0,1-.48,0,1.52,1.52,0,0,1-.74-.17,1.26,1.26,0,0,1-.52-.57,2.54,2.54,0,0,1-.18-1ZM77.83,53.39l-2.06,7.36H74.28L77,52.22h.93Zm1.65,7.36-2.07-7.36-.1-1.17h1L81,60.75Zm0-3.17v1.19h-4V57.58ZM83,59.33l1.24-4.92h.87L85,55.91l-1.24,4.84H83Zm-.52-4.92,1,4.94v1.4h-.86L81.2,54.41Zm3.63,4.88.91-4.88h1.33L87,60.75h-.85Zm-.86-4.88,1.23,4.85.08,1.49h-.76l-1.26-4.84-.16-1.5Zm7,5.05V56.3a1.3,1.3,0,0,0-.09-.53.62.62,0,0,0-.26-.29,1,1,0,0,0-.89,0,.74.74,0,0,0-.27.31.85.85,0,0,0-.1.43H89.29a1.83,1.83,0,0,1,.15-.73,2,2,0,0,1,.45-.63,2.11,2.11,0,0,1,.71-.43,2.52,2.52,0,0,1,.93-.16,2.85,2.85,0,0,1,1.08.2,1.52,1.52,0,0,1,.74.65,2.17,2.17,0,0,1,.28,1.18v3a6,6,0,0,0,.05.78,2.79,2.79,0,0,0,.16.59v.1H92.45a2.56,2.56,0,0,1-.14-.59A5.62,5.62,0,0,1,92.26,59.46Zm.19-2.57v.88H91.8a1.74,1.74,0,0,0-.53.08,1.18,1.18,0,0,0-.4.22,1,1,0,0,0-.25.35,1.33,1.33,0,0,0-.08.45,1.36,1.36,0,0,0,.08.49.64.64,0,0,0,.26.28.86.86,0,0,0,.41.09,1.08,1.08,0,0,0,.94-.5.56.56,0,0,0,.11-.37l.31.57a2.14,2.14,0,0,1-.18.47,2.3,2.3,0,0,1-.32.47,1.89,1.89,0,0,1-.48.36,1.51,1.51,0,0,1-.65.13,2,2,0,0,1-1-.22,1.63,1.63,0,0,1-.66-.64,2.09,2.09,0,0,1-.23-1,2.2,2.2,0,0,1,.16-.86,1.79,1.79,0,0,1,.46-.66,2.1,2.1,0,0,1,.78-.43,3.73,3.73,0,0,1,1.11-.15Zm4-1.26v5.12H95V54.41h1.3Zm1.53-1.26v1.34a1,1,0,0,0-.25,0h-.26a1.07,1.07,0,0,0-.49.1.91.91,0,0,0-.34.28,1.59,1.59,0,0,0-.23.45,2.7,2.7,0,0,0-.09.6H96a6.36,6.36,0,0,1,.09-1.1,3.41,3.41,0,0,1,.28-.9,1.63,1.63,0,0,1,.48-.6,1.06,1.06,0,0,1,.67-.22l.24,0Zm4,5.05V51.75h1.37v9h-1.24Zm-3.4-1.59v-.49A5.9,5.9,0,0,1,98.67,56a2.81,2.81,0,0,1,.41-1,1.68,1.68,0,0,1,.66-.56,2.05,2.05,0,0,1,.87-.18,1.46,1.46,0,0,1,.82.22,1.7,1.7,0,0,1,.59.6,3.24,3.24,0,0,1,.38.94,6,6,0,0,1,.2,1.2V58a7.83,7.83,0,0,1-.2,1.18,3.36,3.36,0,0,1-.39.92,1.7,1.7,0,0,1-.59.6,1.53,1.53,0,0,1-.81.21,1.86,1.86,0,0,1-.87-.19,1.8,1.8,0,0,1-.66-.57,2.76,2.76,0,0,1-.41-1A5.75,5.75,0,0,1,98.53,57.83Zm1.36-.49v.49a5,5,0,0,0,.06.84,1.65,1.65,0,0,0,.19.58.92.92,0,0,0,.34.34,1.13,1.13,0,0,0,.51.1.93.93,0,0,0,.61-.19A1.19,1.19,0,0,0,102,59a3,3,0,0,0,.19-.71V56.92a2.39,2.39,0,0,0-.12-.57,1.87,1.87,0,0,0-.23-.47.87.87,0,0,0-.35-.31.85.85,0,0,0-.46-.12,1,1,0,0,0-.51.12.8.8,0,0,0-.34.34,1.94,1.94,0,0,0-.2.59A5,5,0,0,0,99.89,57.34Z"></path><path class="cls-2" d="M28.75,108l-2.83,7.78H24.77L28,107.22h.75Zm2.36,7.78L28.28,108v-.75H29l3.26,8.53ZM31,112.59v.92H26.18v-.92Zm3.37-1.83v5H33.25v-6.34h1Zm-.26,1.58-.45,0a3.82,3.82,0,0,1,.19-1.2,3,3,0,0,1,.53-1,2.47,2.47,0,0,1,.81-.63,2.38,2.38,0,0,1,1.05-.23,2.47,2.47,0,0,1,.84.13,1.48,1.48,0,0,1,.64.4,1.71,1.71,0,0,1,.41.71,3.58,3.58,0,0,1,.14,1.06v4.16H37.15v-4.17a1.81,1.81,0,0,0-.15-.8.9.9,0,0,0-.42-.44,1.73,1.73,0,0,0-1.43,0,1.84,1.84,0,0,0-.57.47,2.29,2.29,0,0,0-.37.69A2.37,2.37,0,0,0,34.08,112.34Zm9.8,2.18v-7.77H45v9H44Zm-4.26-1.87v-.13a4.83,4.83,0,0,1,.17-1.31,3.2,3.2,0,0,1,.51-1,2.21,2.21,0,0,1,1.82-.89,2.46,2.46,0,0,1,1.05.21,2.11,2.11,0,0,1,.76.6,3.06,3.06,0,0,1,.5,1,6.24,6.24,0,0,1,.25,1.26v.54a5.74,5.74,0,0,1-.25,1.26,3.06,3.06,0,0,1-.5,1,2.11,2.11,0,0,1-.76.6,2.51,2.51,0,0,1-1.06.2,2.19,2.19,0,0,1-1-.24,2.4,2.4,0,0,1-.79-.67,3.25,3.25,0,0,1-.51-1A4.72,4.72,0,0,1,39.62,112.65Zm1.09-.13v.13a4.26,4.26,0,0,0,.09.89,2.66,2.66,0,0,0,.3.73,1.58,1.58,0,0,0,.53.5,1.49,1.49,0,0,0,.75.17,1.61,1.61,0,0,0,.89-.22,1.82,1.82,0,0,0,.56-.61,3.62,3.62,0,0,0,.33-.81v-1.41a3.33,3.33,0,0,0-.21-.63,1.9,1.9,0,0,0-.34-.54,1.42,1.42,0,0,0-.51-.38,1.7,1.7,0,0,0-.71-.14,1.53,1.53,0,0,0-.76.19,1.58,1.58,0,0,0-.53.5,2.73,2.73,0,0,0-.3.74A4.26,4.26,0,0,0,40.71,112.52Zm7-5.77v9H46.66v-9Zm-.25,5.59-.46,0a3.82,3.82,0,0,1,.2-1.2,2.84,2.84,0,0,1,.53-1,2.33,2.33,0,0,1,.8-.63,2.45,2.45,0,0,1,1-.23,2.49,2.49,0,0,1,.85.13,1.48,1.48,0,0,1,.64.4,2,2,0,0,1,.41.71,3.58,3.58,0,0,1,.14,1.06v4.16H50.56v-4.17a1.81,1.81,0,0,0-.15-.8.92.92,0,0,0-.43-.44,1.6,1.6,0,0,0-.69-.14,1.64,1.64,0,0,0-.74.17,1.84,1.84,0,0,0-.57.47,2.53,2.53,0,0,0-.37.69A2.64,2.64,0,0,0,47.49,112.34Zm6.86-1.94v5.35H53.27v-6.34h1Zm2-1v1l-.26,0H55.8a1.69,1.69,0,0,0-.66.12,1.41,1.41,0,0,0-.49.33,1.51,1.51,0,0,0-.31.5,2.08,2.08,0,0,0-.15.63l-.31.18A4.7,4.7,0,0,1,54,111a2.81,2.81,0,0,1,.35-.89,1.87,1.87,0,0,1,.61-.61,1.7,1.7,0,0,1,.89-.22l.27,0A.64.64,0,0,1,56.33,109.37Zm4.51,5.29V111.4a1.33,1.33,0,0,0-.15-.65,1.06,1.06,0,0,0-.45-.44,1.62,1.62,0,0,0-.74-.15,1.81,1.81,0,0,0-.72.14,1.4,1.4,0,0,0-.48.37.83.83,0,0,0-.17.49H57.05a1.51,1.51,0,0,1,.17-.67,2,2,0,0,1,.51-.6,2.52,2.52,0,0,1,.79-.44,3.17,3.17,0,0,1,1-.16,3.12,3.12,0,0,1,1.22.23,1.92,1.92,0,0,1,.83.71,2.18,2.18,0,0,1,.3,1.18v3A4.18,4.18,0,0,0,62,115a2,2,0,0,0,.17.61v.1H61a2.29,2.29,0,0,1-.12-.5A3.13,3.13,0,0,1,60.84,114.66ZM61,111.9v.76h-1.1a4,4,0,0,0-.82.08,1.81,1.81,0,0,0-.61.22,1,1,0,0,0-.38.37,1,1,0,0,0-.13.51,1.09,1.09,0,0,0,.14.54.89.89,0,0,0,.4.39,1.42,1.42,0,0,0,.68.14,1.82,1.82,0,0,0,.88-.21,1.89,1.89,0,0,0,.6-.51,1.12,1.12,0,0,0,.24-.59l.47.52a1.5,1.5,0,0,1-.23.54,2.79,2.79,0,0,1-.48.58,2.59,2.59,0,0,1-.72.45,2.25,2.25,0,0,1-.92.17,2.38,2.38,0,0,1-1.13-.25,2,2,0,0,1-.75-.67,1.78,1.78,0,0,1-.27-1,1.92,1.92,0,0,1,.2-.89,1.73,1.73,0,0,1,.58-.65,2.65,2.65,0,0,1,.9-.4,4.71,4.71,0,0,1,1.18-.14Zm8.89.5H67.64v-.92h2.28a2.37,2.37,0,0,0,1.07-.21,1.37,1.37,0,0,0,.6-.59,1.93,1.93,0,0,0,.19-.85,2,2,0,0,0-.19-.83,1.49,1.49,0,0,0-.6-.62,2.12,2.12,0,0,0-1.07-.24h-2v7.61H66.77v-8.53h3.15a3.67,3.67,0,0,1,1.63.33,2.32,2.32,0,0,1,1,.92,2.64,2.64,0,0,1,.35,1.35,2.72,2.72,0,0,1-.35,1.4,2.19,2.19,0,0,1-1,.88A4,4,0,0,1,69.92,112.4Zm5.34-2v5.35H74.18v-6.34h1Zm2-1v1l-.25,0h-.27a1.78,1.78,0,0,0-.67.12,1.37,1.37,0,0,0-.48.33,1.71,1.71,0,0,0-.32.5,2.42,2.42,0,0,0-.14.63l-.31.18A5.34,5.34,0,0,1,74.9,111a3.08,3.08,0,0,1,.36-.89,1.78,1.78,0,0,1,.61-.61,1.7,1.7,0,0,1,.89-.22l.27,0A.64.64,0,0,1,77.24,109.37Zm4.51,5.29V111.4a1.33,1.33,0,0,0-.16-.65,1,1,0,0,0-.44-.44,1.65,1.65,0,0,0-.74-.15,1.81,1.81,0,0,0-.72.14,1.4,1.4,0,0,0-.48.37.83.83,0,0,0-.17.49H78a1.4,1.4,0,0,1,.18-.67,2.16,2.16,0,0,1,.5-.6,2.58,2.58,0,0,1,.8-.44,3.4,3.4,0,0,1,2.26.07,1.81,1.81,0,0,1,.83.71,2.1,2.1,0,0,1,.31,1.18v3a5.59,5.59,0,0,0,0,.68,2.8,2.8,0,0,0,.17.61v.1H81.92a2.24,2.24,0,0,1-.13-.5A4.18,4.18,0,0,1,81.75,114.66Zm.18-2.76v.76H80.85a4.1,4.1,0,0,0-.83.08,2,2,0,0,0-.61.22,1,1,0,0,0-.37.37.92.92,0,0,0-.13.51,1.08,1.08,0,0,0,.13.54.91.91,0,0,0,.41.39,1.38,1.38,0,0,0,.67.14,1.79,1.79,0,0,0,.88-.21,1.69,1.69,0,0,0,.6-.51,1.07,1.07,0,0,0,.25-.59l.46.52a1.46,1.46,0,0,1-.22.54,2.56,2.56,0,0,1-.49.58,2.4,2.4,0,0,1-.71.45,2.27,2.27,0,0,1-.93.17,2.41,2.41,0,0,1-1.13-.25,2,2,0,0,1-.75-.67,1.87,1.87,0,0,1-.26-1,1.92,1.92,0,0,1,.2-.89,1.62,1.62,0,0,1,.57-.65,2.62,2.62,0,0,1,.91-.4,4.69,4.69,0,0,1,1.17-.14Zm6.6,2.62v-7.77h1.09v9h-1Zm-4.27-1.87v-.13a4.46,4.46,0,0,1,.18-1.31,3.2,3.2,0,0,1,.51-1,2.37,2.37,0,0,1,.79-.66,2.33,2.33,0,0,1,1-.23,2.46,2.46,0,0,1,1,.21,2.11,2.11,0,0,1,.76.6,3.29,3.29,0,0,1,.5,1,6.24,6.24,0,0,1,.25,1.26v.54a6.39,6.39,0,0,1-.25,1.26,3.29,3.29,0,0,1-.5,1,2.11,2.11,0,0,1-.76.6,2.54,2.54,0,0,1-1.06.2,2.19,2.19,0,0,1-1-.24A2.4,2.4,0,0,1,85,115a3.25,3.25,0,0,1-.51-1A4.35,4.35,0,0,1,84.26,112.65Zm1.09-.13v.13a4.26,4.26,0,0,0,.1.89,2.39,2.39,0,0,0,.3.73,1.39,1.39,0,0,0,1.28.67,1.63,1.63,0,0,0,.89-.22,1.82,1.82,0,0,0,.56-.61,3.62,3.62,0,0,0,.33-.81v-1.41a3.33,3.33,0,0,0-.21-.63,2.15,2.15,0,0,0-.34-.54,1.62,1.62,0,0,0-.51-.38,1.7,1.7,0,0,0-.71-.14,1.6,1.6,0,0,0-.77.19,1.55,1.55,0,0,0-.52.5,2.45,2.45,0,0,0-.3.74A4.26,4.26,0,0,0,85.35,112.52Zm8.59,3.34a3.09,3.09,0,0,1-1.2-.22,2.59,2.59,0,0,1-.92-.64,2.81,2.81,0,0,1-.59-1,3.78,3.78,0,0,1-.2-1.23v-.25a3.68,3.68,0,0,1,.23-1.37,3,3,0,0,1,.62-1,2.5,2.5,0,0,1,.89-.63,2.45,2.45,0,0,1,1-.22,2.81,2.81,0,0,1,1.17.23,2.19,2.19,0,0,1,.81.66,2.7,2.7,0,0,1,.47,1,4.81,4.81,0,0,1,.16,1.23v.49H91.67V112h3.65v-.09a2.61,2.61,0,0,0-.17-.82,1.54,1.54,0,0,0-.47-.65,1.4,1.4,0,0,0-.88-.26,1.42,1.42,0,0,0-.68.16,1.3,1.3,0,0,0-.53.46,2.21,2.21,0,0,0-.35.74,3.83,3.83,0,0,0-.12,1v.25a3,3,0,0,0,.12.85,2.29,2.29,0,0,0,.37.69,1.68,1.68,0,0,0,.59.47,2,2,0,0,0,1.77-.07,2.29,2.29,0,0,0,.7-.62l.65.52a2.83,2.83,0,0,1-.52.59,2.48,2.48,0,0,1-.78.46A2.92,2.92,0,0,1,93.94,115.86Zm7.42-1.8a.91.91,0,0,0-.1-.43.92.92,0,0,0-.42-.37,3.5,3.5,0,0,0-.94-.29,8.55,8.55,0,0,1-1-.26,3.46,3.46,0,0,1-.72-.37,1.54,1.54,0,0,1-.45-.51,1.41,1.41,0,0,1-.16-.69,1.57,1.57,0,0,1,.16-.71,1.92,1.92,0,0,1,.48-.59,2.1,2.1,0,0,1,.74-.4,3,3,0,0,1,1-.15,2.87,2.87,0,0,1,1.3.27,2.09,2.09,0,0,1,.83.72,1.81,1.81,0,0,1,.28,1H101.3a.88.88,0,0,0-.16-.51,1.15,1.15,0,0,0-.45-.42,1.47,1.47,0,0,0-.72-.16,1.66,1.66,0,0,0-.73.14,1,1,0,0,0-.41.35.88.88,0,0,0-.12.44.83.83,0,0,0,.06.32.63.63,0,0,0,.22.25,2.28,2.28,0,0,0,.44.21,7.45,7.45,0,0,0,.74.2,6.39,6.39,0,0,1,1.28.42,1.88,1.88,0,0,1,.75.61,1.48,1.48,0,0,1,.25.86,1.61,1.61,0,0,1-.18.76,1.68,1.68,0,0,1-.5.6,2.23,2.23,0,0,1-.77.39,3.46,3.46,0,0,1-1,.13,3.07,3.07,0,0,1-1.42-.3,2.08,2.08,0,0,1-.88-.77,1.85,1.85,0,0,1-.3-1h1.09a1.13,1.13,0,0,0,.26.71,1.44,1.44,0,0,0,.57.37,2.45,2.45,0,0,0,1.42,0,1,1,0,0,0,.46-.33A.71.71,0,0,0,101.36,114.06Zm3.59-7.31v9h-1.08v-9Zm-.25,5.59-.45,0a3.55,3.55,0,0,1,.19-1.2,2.84,2.84,0,0,1,.53-1,2.33,2.33,0,0,1,.8-.63,2.45,2.45,0,0,1,1-.23,2.49,2.49,0,0,1,.85.13,1.48,1.48,0,0,1,.64.4,1.82,1.82,0,0,1,.41.71,3.58,3.58,0,0,1,.14,1.06v4.16h-1.09v-4.17a1.81,1.81,0,0,0-.15-.8.92.92,0,0,0-.43-.44,1.57,1.57,0,0,0-.69-.14,1.68,1.68,0,0,0-.74.17,1.84,1.84,0,0,0-.57.47,2.51,2.51,0,0,0-.36.69A2.37,2.37,0,0,0,104.7,112.34Zm8.75-5.59h1.09v7.77l-.09,1.23h-1Zm5.37,5.77v.13a4.72,4.72,0,0,1-.16,1.28,3.21,3.21,0,0,1-.48,1,2.16,2.16,0,0,1-1.82.91,2.48,2.48,0,0,1-1.06-.2,2.15,2.15,0,0,1-.77-.6,3.27,3.27,0,0,1-.49-1,6.36,6.36,0,0,1-.26-1.26v-.54a6.22,6.22,0,0,1,.26-1.26,3.27,3.27,0,0,1,.49-1,2.15,2.15,0,0,1,.77-.6,2.46,2.46,0,0,1,1-.21,2.43,2.43,0,0,1,1.06.23,2.21,2.21,0,0,1,.77.66,3.16,3.16,0,0,1,.48,1A4.85,4.85,0,0,1,118.82,112.52Zm-1.09.13v-.13a5.08,5.08,0,0,0-.08-.89,2.43,2.43,0,0,0-.29-.74,1.29,1.29,0,0,0-.51-.5,1.54,1.54,0,0,0-.77-.19,1.74,1.74,0,0,0-.72.14,1.62,1.62,0,0,0-.51.38,2.15,2.15,0,0,0-.34.54,2.72,2.72,0,0,0-.2.63v1.41a3.09,3.09,0,0,0,.31.79,1.75,1.75,0,0,0,.57.61,1.59,1.59,0,0,0,.9.24,1.49,1.49,0,0,0,.75-.17,1.44,1.44,0,0,0,.51-.5,2.37,2.37,0,0,0,.29-.73A4.26,4.26,0,0,0,117.73,112.65Zm6.2,2V111.4a1.33,1.33,0,0,0-.15-.65,1.1,1.1,0,0,0-.44-.44,1.65,1.65,0,0,0-.74-.15,1.74,1.74,0,0,0-.72.14,1.23,1.23,0,0,0-.48.37.77.77,0,0,0-.17.49h-1.09a1.4,1.4,0,0,1,.18-.67,1.86,1.86,0,0,1,.5-.6,2.47,2.47,0,0,1,.8-.44,3.4,3.4,0,0,1,2.26.07,1.86,1.86,0,0,1,.83.71,2.1,2.1,0,0,1,.31,1.18v3a4.11,4.11,0,0,0,0,.68,2.8,2.8,0,0,0,.17.61v.1h-1.13a1.8,1.8,0,0,1-.13-.5A4.27,4.27,0,0,1,123.93,114.66Zm.19-2.76v.76H123a4.1,4.1,0,0,0-.83.08,1.9,1.9,0,0,0-.61.22,1,1,0,0,0-.37.37.92.92,0,0,0-.13.51,1.08,1.08,0,0,0,.13.54.91.91,0,0,0,.41.39,1.36,1.36,0,0,0,.67.14,1.82,1.82,0,0,0,.88-.21,1.89,1.89,0,0,0,.6-.51,1.14,1.14,0,0,0,.25-.59l.46.52a1.66,1.66,0,0,1-.22.54,2.56,2.56,0,0,1-.49.58,2.69,2.69,0,0,1-.71.45,2.3,2.3,0,0,1-.93.17,2.41,2.41,0,0,1-1.13-.25,2,2,0,0,1-.75-.67,1.87,1.87,0,0,1-.26-1,1.8,1.8,0,0,1,.2-.89,1.62,1.62,0,0,1,.57-.65,2.65,2.65,0,0,1,.9-.4,4.77,4.77,0,0,1,1.18-.14Zm6.71-2.49h1v6.2a2.78,2.78,0,0,1-.34,1.43,2.21,2.21,0,0,1-.94.9,3.14,3.14,0,0,1-1.4.31,3.39,3.39,0,0,1-.77-.11,3,3,0,0,1-.87-.34,2.2,2.2,0,0,1-.71-.65l.57-.65a2.27,2.27,0,0,0,.83.67,2.1,2.1,0,0,0,.87.19,1.92,1.92,0,0,0,.89-.2,1.33,1.33,0,0,0,.58-.57,1.88,1.88,0,0,0,.21-.93V110.8Zm-4.37,3.24v-.13a4.83,4.83,0,0,1,.17-1.31,3.41,3.41,0,0,1,.5-1,2.21,2.21,0,0,1,1.84-.89,2.41,2.41,0,0,1,1,.21,2.11,2.11,0,0,1,.76.6,3.06,3.06,0,0,1,.5,1,6.24,6.24,0,0,1,.25,1.26v.54a5.74,5.74,0,0,1-.25,1.26,3.06,3.06,0,0,1-.5,1,2.11,2.11,0,0,1-.76.6,2.48,2.48,0,0,1-1.06.2,2.23,2.23,0,0,1-1-.24,2.37,2.37,0,0,1-.78-.67,3.25,3.25,0,0,1-.51-1A4.72,4.72,0,0,1,126.46,112.65Zm1.09-.13v.13a4.26,4.26,0,0,0,.09.89,2.66,2.66,0,0,0,.3.73,1.55,1.55,0,0,0,.52.5,1.52,1.52,0,0,0,.76.17,1.63,1.63,0,0,0,.89-.22,1.82,1.82,0,0,0,.56-.61,3.18,3.18,0,0,0,.32-.81v-1.41a2.72,2.72,0,0,0-.2-.63,1.7,1.7,0,0,0-.34-.54,1.47,1.47,0,0,0-.5-.38,1.81,1.81,0,0,0-.72-.14,1.57,1.57,0,0,0-.77.19,1.55,1.55,0,0,0-.52.5,2.73,2.73,0,0,0-.3.74A4.26,4.26,0,0,0,127.55,112.52Zm10-3.11h1v6.2a2.78,2.78,0,0,1-.34,1.43,2.18,2.18,0,0,1-1,.9,3.06,3.06,0,0,1-1.39.31,3.39,3.39,0,0,1-.77-.11,2.91,2.91,0,0,1-.87-.34,2.2,2.2,0,0,1-.71-.65l.57-.65a2.2,2.2,0,0,0,.83.67,2.1,2.1,0,0,0,.87.19,1.92,1.92,0,0,0,.89-.2,1.33,1.33,0,0,0,.58-.57,1.88,1.88,0,0,0,.21-.93V110.8Zm-4.37,3.24v-.13a4.83,4.83,0,0,1,.17-1.31,3.41,3.41,0,0,1,.5-1,2.27,2.27,0,0,1,.79-.66,2.37,2.37,0,0,1,1-.23,2.46,2.46,0,0,1,1.05.21,2.11,2.11,0,0,1,.76.6,3.06,3.06,0,0,1,.5,1,6.24,6.24,0,0,1,.25,1.26v.54a5.74,5.74,0,0,1-.25,1.26,3.06,3.06,0,0,1-.5,1,2.11,2.11,0,0,1-.76.6,2.48,2.48,0,0,1-1.06.2,2.2,2.2,0,0,1-1-.24,2.37,2.37,0,0,1-.78-.67,3.25,3.25,0,0,1-.51-1A4.72,4.72,0,0,1,133.2,112.65Zm1.09-.13v.13a4.26,4.26,0,0,0,.09.89,2.66,2.66,0,0,0,.3.73,1.55,1.55,0,0,0,.52.5,1.5,1.5,0,0,0,.76.17,1.63,1.63,0,0,0,.89-.22,1.7,1.7,0,0,0,.55-.61,3.62,3.62,0,0,0,.33-.81v-1.41a2.72,2.72,0,0,0-.2-.63,1.9,1.9,0,0,0-.34-.54,1.42,1.42,0,0,0-.51-.38,1.73,1.73,0,0,0-.71-.14,1.57,1.57,0,0,0-.77.19,1.55,1.55,0,0,0-.52.5,2.73,2.73,0,0,0-.3.74A4.26,4.26,0,0,0,134.29,112.52Zm8.54,3.34a3.09,3.09,0,0,1-1.2-.22,2.59,2.59,0,0,1-.92-.64,2.81,2.81,0,0,1-.59-1,3.78,3.78,0,0,1-.2-1.23v-.25a3.68,3.68,0,0,1,.23-1.37,3.16,3.16,0,0,1,.62-1,2.59,2.59,0,0,1,.89-.63,2.45,2.45,0,0,1,1-.22,2.81,2.81,0,0,1,1.17.23,2.3,2.3,0,0,1,.82.66,2.86,2.86,0,0,1,.46,1,4.41,4.41,0,0,1,.16,1.23v.49h-4.74V112h3.65v-.09a2.61,2.61,0,0,0-.17-.82,1.54,1.54,0,0,0-.47-.65,1.4,1.4,0,0,0-.88-.26,1.42,1.42,0,0,0-.68.16,1.3,1.3,0,0,0-.53.46,2.21,2.21,0,0,0-.35.74,3.83,3.83,0,0,0-.12,1v.25a3,3,0,0,0,.12.85,2.29,2.29,0,0,0,.37.69,1.68,1.68,0,0,0,.59.47,1.88,1.88,0,0,0,.8.17,1.84,1.84,0,0,0,1-.24,2.29,2.29,0,0,0,.7-.62l.65.52a2.83,2.83,0,0,1-.52.59,2.48,2.48,0,0,1-.78.46A2.92,2.92,0,0,1,142.83,115.86Zm7.73-1.34v-7.77h1.09v9h-1Zm-4.27-1.87v-.13a4.46,4.46,0,0,1,.18-1.31,3.2,3.2,0,0,1,.51-1,2.27,2.27,0,0,1,.79-.66,2.33,2.33,0,0,1,1-.23,2.38,2.38,0,0,1,1,.21,2.15,2.15,0,0,1,.77.6,3,3,0,0,1,.49,1,6.22,6.22,0,0,1,.26,1.26v.54a5.72,5.72,0,0,1-.26,1.26,3,3,0,0,1-.49,1,2.15,2.15,0,0,1-.77.6,2.46,2.46,0,0,1-1.05.2,2.19,2.19,0,0,1-1-.24A2.3,2.3,0,0,1,147,115a3.25,3.25,0,0,1-.51-1A4.35,4.35,0,0,1,146.29,112.65Zm1.09-.13v.13a3.68,3.68,0,0,0,.1.89,2.16,2.16,0,0,0,.3.73,1.55,1.55,0,0,0,.52.5,1.52,1.52,0,0,0,.76.17,1.57,1.57,0,0,0,.88-.22,1.75,1.75,0,0,0,.57-.61,3.18,3.18,0,0,0,.32-.81v-1.41a2.72,2.72,0,0,0-.2-.63,2.15,2.15,0,0,0-.34-.54,1.62,1.62,0,0,0-.51-.38,1.73,1.73,0,0,0-.71-.14,1.57,1.57,0,0,0-.77.19,1.55,1.55,0,0,0-.52.5,2.22,2.22,0,0,0-.3.74A3.68,3.68,0,0,0,147.38,112.52ZM39.89,123.41v.83H36.46v-.83Zm-2.27-1.54H38.7v6.31a1,1,0,0,0,.1.48.5.5,0,0,0,.26.22,1.27,1.27,0,0,0,.34.05l.28,0,.23,0v.89l-.34.07a2.47,2.47,0,0,1-.5,0,1.73,1.73,0,0,1-.73-.15,1.2,1.2,0,0,1-.54-.53,2.22,2.22,0,0,1-.19-1Zm4.62-1.12v9H41.16v-9ZM42,126.34l-.45,0a3.82,3.82,0,0,1,.2-1.2,3,3,0,0,1,.52-1,2.53,2.53,0,0,1,2.7-.73,1.42,1.42,0,0,1,.64.4,1.71,1.71,0,0,1,.41.71,3.28,3.28,0,0,1,.14,1.06v4.16H45.05v-4.17a1.82,1.82,0,0,0-.14-.8.92.92,0,0,0-.43-.44,1.6,1.6,0,0,0-.69-.14,1.64,1.64,0,0,0-.74.17,1.84,1.84,0,0,0-.57.47,2.53,2.53,0,0,0-.37.69A2.64,2.64,0,0,0,42,126.34Zm8.42,3.52a3.09,3.09,0,0,1-1.2-.22,2.5,2.5,0,0,1-.92-.64,2.81,2.81,0,0,1-.59-1,3.53,3.53,0,0,1-.2-1.23v-.25a3.9,3.9,0,0,1,.22-1.37,3.18,3.18,0,0,1,.63-1,2.5,2.5,0,0,1,.89-.63,2.45,2.45,0,0,1,1-.22,2.81,2.81,0,0,1,1.17.23,2.19,2.19,0,0,1,.81.66,2.88,2.88,0,0,1,.47,1,4.82,4.82,0,0,1,.15,1.23v.49H48.13V126h3.65v-.09a2.63,2.63,0,0,0-.18-.82,1.44,1.44,0,0,0-.46-.65,1.53,1.53,0,0,0-2.1.36,2.41,2.41,0,0,0-.34.74,3.83,3.83,0,0,0-.12,1v.25a3,3,0,0,0,.12.85,2.09,2.09,0,0,0,.37.69,1.68,1.68,0,0,0,.59.47,2,2,0,0,0,1.77-.07,2.41,2.41,0,0,0,.7-.62l.65.52a2.83,2.83,0,0,1-.52.59,2.48,2.48,0,0,1-.78.46A2.92,2.92,0,0,1,50.4,129.86Zm10.45-1.2V125.4a1.33,1.33,0,0,0-.16-.65,1,1,0,0,0-.44-.44,1.65,1.65,0,0,0-.74-.15,1.81,1.81,0,0,0-.72.14,1.4,1.4,0,0,0-.48.37.77.77,0,0,0-.17.49H57.05a1.4,1.4,0,0,1,.18-.67,2,2,0,0,1,.5-.6,2.58,2.58,0,0,1,.8-.44,3.4,3.4,0,0,1,2.26.07,1.81,1.81,0,0,1,.83.71,2.1,2.1,0,0,1,.31,1.18v3a5.59,5.59,0,0,0,0,.68,2.8,2.8,0,0,0,.17.61v.1H61a2.24,2.24,0,0,1-.13-.5A4.18,4.18,0,0,1,60.85,128.66ZM61,125.9v.76H60a4.1,4.1,0,0,0-.83.08,2,2,0,0,0-.61.22,1,1,0,0,0-.37.37.92.92,0,0,0-.13.51,1.08,1.08,0,0,0,.13.54.91.91,0,0,0,.41.39,1.38,1.38,0,0,0,.67.14,1.82,1.82,0,0,0,1.48-.72,1.07,1.07,0,0,0,.25-.59l.46.52a1.46,1.46,0,0,1-.22.54,2.56,2.56,0,0,1-.49.58,2.4,2.4,0,0,1-.71.45,2.27,2.27,0,0,1-.93.17,2.41,2.41,0,0,1-1.13-.25,2,2,0,0,1-.75-.67,1.87,1.87,0,0,1-.26-1,1.92,1.92,0,0,1,.2-.89,1.62,1.62,0,0,1,.57-.65,2.62,2.62,0,0,1,.91-.4,4.69,4.69,0,0,1,1.17-.14Zm4.21,2.72,1.63-5.21h.71l-.14,1-1.66,5.31h-.69Zm-1.1-5.21,1.39,5.27.1,1.07H64.9l-1.84-6.34Zm5,5.23,1.33-5.23h1.07l-1.84,6.34H69Zm-1.4-5.23,1.6,5.12.18,1.22h-.69l-1.71-5.32-.14-1Zm8.66,5.25V125.4a1.23,1.23,0,0,0-.16-.65,1,1,0,0,0-.44-.44,1.65,1.65,0,0,0-.74-.15,1.81,1.81,0,0,0-.72.14,1.4,1.4,0,0,0-.48.37.83.83,0,0,0-.17.49H72.6a1.4,1.4,0,0,1,.18-.67,2.16,2.16,0,0,1,.5-.6,2.58,2.58,0,0,1,.8-.44,3.11,3.11,0,0,1,1-.16,3.05,3.05,0,0,1,1.22.23,1.89,1.89,0,0,1,.84.71,2.18,2.18,0,0,1,.3,1.18v3a5.59,5.59,0,0,0,0,.68,2.8,2.8,0,0,0,.17.61v.1H76.57a2.24,2.24,0,0,1-.13-.5A4.18,4.18,0,0,1,76.4,128.66Zm.18-2.76,0,.76H75.5a4.17,4.17,0,0,0-.83.08,2,2,0,0,0-.61.22,1,1,0,0,0-.37.37.92.92,0,0,0-.13.51,1.08,1.08,0,0,0,.13.54.91.91,0,0,0,.41.39,1.38,1.38,0,0,0,.67.14,1.79,1.79,0,0,0,.88-.21,1.83,1.83,0,0,0,.61-.51,1.12,1.12,0,0,0,.24-.59l.46.52a1.46,1.46,0,0,1-.22.54,2.79,2.79,0,0,1-.48.58,2.59,2.59,0,0,1-.72.45,2.27,2.27,0,0,1-.93.17,2.41,2.41,0,0,1-1.13-.25,2,2,0,0,1-.75-.67,1.87,1.87,0,0,1-.26-1,1.92,1.92,0,0,1,.2-.89,1.62,1.62,0,0,1,.57-.65,2.62,2.62,0,0,1,.91-.4,4.69,4.69,0,0,1,1.17-.14Zm3.69-1.5v5.35H79.18v-6.34h1.06Zm2-1v1l-.25,0h-.27a1.78,1.78,0,0,0-.67.12,1.37,1.37,0,0,0-.48.33,1.53,1.53,0,0,0-.32.5,2.91,2.91,0,0,0-.15.63l-.3.18a5.34,5.34,0,0,1,.11-1.08,3.08,3.08,0,0,1,.36-.89,1.78,1.78,0,0,1,.61-.61,1.7,1.7,0,0,1,.89-.22l.27,0A.64.64,0,0,1,82.25,123.37Zm4.88,5.15v-7.77h1.09v9h-1Zm-4.27-1.87v-.13a4.46,4.46,0,0,1,.18-1.31,3.2,3.2,0,0,1,.51-1,2.37,2.37,0,0,1,.79-.66,2.33,2.33,0,0,1,1-.23,2.46,2.46,0,0,1,1,.21,2.11,2.11,0,0,1,.76.6,3.29,3.29,0,0,1,.5,1,6.24,6.24,0,0,1,.25,1.26v.54a6.39,6.39,0,0,1-.25,1.26,3.29,3.29,0,0,1-.5.95,2.11,2.11,0,0,1-.76.6,2.54,2.54,0,0,1-1.06.2,2.19,2.19,0,0,1-1-.24,2.4,2.4,0,0,1-.79-.67,3.25,3.25,0,0,1-.51-1A4.35,4.35,0,0,1,82.86,126.65Zm1.09-.13v.13a4.26,4.26,0,0,0,.1.89,2.39,2.39,0,0,0,.3.73,1.39,1.39,0,0,0,1.28.67,1.57,1.57,0,0,0,.88-.22,1.75,1.75,0,0,0,.57-.61,3.62,3.62,0,0,0,.33-.81v-1.41a3.33,3.33,0,0,0-.21-.63,1.93,1.93,0,0,0-.34-.53,1.51,1.51,0,0,0-.51-.39,1.7,1.7,0,0,0-.71-.14,1.6,1.6,0,0,0-.77.19,1.55,1.55,0,0,0-.52.5,2.45,2.45,0,0,0-.3.74A4.26,4.26,0,0,0,84,126.52Zm10.55,3.23H93.42v-7a2.55,2.55,0,0,1,.24-1.16,1.7,1.7,0,0,1,.72-.71,2.47,2.47,0,0,1,1.12-.25,3.74,3.74,0,0,1,.75.1l-.06.88-.28,0H95.6a1.2,1.2,0,0,0-.59.14.87.87,0,0,0-.38.4,1.39,1.39,0,0,0-.13.65Zm1.35-6.34v.83H92.42v-.83Zm.92,3.24v-.14a4,4,0,0,1,.2-1.27,2.9,2.9,0,0,1,.57-1,2.53,2.53,0,0,1,.91-.68,2.74,2.74,0,0,1,1.2-.25,2.77,2.77,0,0,1,1.2.25,2.45,2.45,0,0,1,.91.68,2.92,2.92,0,0,1,.58,1,4,4,0,0,1,.2,1.27v.14a4,4,0,0,1-.2,1.27,3,3,0,0,1-.58,1,2.56,2.56,0,0,1-.91.68,3.1,3.1,0,0,1-2.39,0,2.69,2.69,0,0,1-.92-.68,3,3,0,0,1-.57-1A4,4,0,0,1,96.77,126.65Zm1.08-.14v.14a3.68,3.68,0,0,0,.11.89,2.4,2.4,0,0,0,.34.74,1.55,1.55,0,0,0,.57.51,1.8,1.8,0,0,0,1.57,0,1.6,1.6,0,0,0,.56-.51,2.17,2.17,0,0,0,.33-.74,3.24,3.24,0,0,0,.12-.89v-.14a3.12,3.12,0,0,0-.12-.88,2.14,2.14,0,0,0-.34-.75,1.45,1.45,0,0,0-.56-.51,1.5,1.5,0,0,0-.78-.19,1.57,1.57,0,0,0-.79.19,1.6,1.6,0,0,0-.56.51,2.57,2.57,0,0,0-.34.75A3.53,3.53,0,0,0,97.85,126.51ZM105,124.4v5.35H103.9v-6.34h1Zm2-1v1l-.26,0h-.27a1.69,1.69,0,0,0-.66.12,1.4,1.4,0,0,0-.8.83,2.08,2.08,0,0,0-.15.63l-.31.18a4.7,4.7,0,0,1,.12-1.08,2.81,2.81,0,0,1,.35-.89,1.87,1.87,0,0,1,.61-.61,1.7,1.7,0,0,1,.89-.22l.27,0A.57.57,0,0,1,107,123.37Zm7.86,4.91v-4.87h1.09v6.34h-1ZM115,127l.45,0a4.83,4.83,0,0,1-.14,1.18,2.35,2.35,0,0,1-.42.92,2,2,0,0,1-.77.62,2.81,2.81,0,0,1-1.15.21,2.57,2.57,0,0,1-.85-.13,1.77,1.77,0,0,1-.66-.42,1.85,1.85,0,0,1-.42-.73,3.43,3.43,0,0,1-.15-1.08v-4.09H112v4.1a2.09,2.09,0,0,0,.1.71,1.12,1.12,0,0,0,.26.44,1,1,0,0,0,.38.22,1.54,1.54,0,0,0,.43.06,1.91,1.91,0,0,0,1.09-.26,1.54,1.54,0,0,0,.59-.72A2.75,2.75,0,0,0,115,127Zm3.62-2.55v5.35h-1.09v-6.34h1.06Zm2-1v1l-.26,0h-.26a1.74,1.74,0,0,0-.67.12,1.37,1.37,0,0,0-.48.33,1.53,1.53,0,0,0-.32.5,2.91,2.91,0,0,0-.15.63l-.3.18a5.34,5.34,0,0,1,.11-1.08,3.08,3.08,0,0,1,.36-.89,1.78,1.78,0,0,1,.61-.61,1.68,1.68,0,0,1,.89-.22l.27,0A.64.64,0,0,1,120.63,123.37Zm1-2.62h1.09v7.77l-.09,1.23h-1Zm5.38,5.77v.13a4.72,4.72,0,0,1-.17,1.28,3.21,3.21,0,0,1-.48,1,2.24,2.24,0,0,1-.77.67,2.2,2.2,0,0,1-1,.24,2.51,2.51,0,0,1-1.06-.2,2.11,2.11,0,0,1-.76-.6,3.29,3.29,0,0,1-.5-.95,6.39,6.39,0,0,1-.25-1.26v-.54a6.24,6.24,0,0,1,.25-1.26,3.29,3.29,0,0,1,.5-1,2.11,2.11,0,0,1,.76-.6,2.46,2.46,0,0,1,1-.21,2.39,2.39,0,0,1,1.06.23,2,2,0,0,1,.77.66,3.16,3.16,0,0,1,.48,1A4.83,4.83,0,0,1,127,126.52Zm-1.09.13v-.13a4.26,4.26,0,0,0-.09-.89,2.42,2.42,0,0,0-.28-.74,1.44,1.44,0,0,0-.51-.5,1.55,1.55,0,0,0-.78-.19,1.81,1.81,0,0,0-.72.14,1.73,1.73,0,0,0-.51.39,1.93,1.93,0,0,0-.34.53,2.7,2.7,0,0,0-.19.63v1.41a3.05,3.05,0,0,0,.3.79,1.85,1.85,0,0,0,.57.61,1.63,1.63,0,0,0,.9.24,1.49,1.49,0,0,0,.75-.17,1.44,1.44,0,0,0,.51-.5,2.37,2.37,0,0,0,.29-.73A3.68,3.68,0,0,0,125.91,126.65Zm6.2,2V125.4a1.23,1.23,0,0,0-.16-.65,1,1,0,0,0-.44-.44,1.65,1.65,0,0,0-.74-.15,1.81,1.81,0,0,0-.72.14,1.4,1.4,0,0,0-.48.37.83.83,0,0,0-.17.49h-1.08a1.39,1.39,0,0,1,.17-.67,2,2,0,0,1,.51-.6,2.42,2.42,0,0,1,.79-.44,3.17,3.17,0,0,1,1.05-.16,3,3,0,0,1,1.21.23,1.89,1.89,0,0,1,.84.71,2.18,2.18,0,0,1,.3,1.18v3a5.59,5.59,0,0,0,.05.68,2.8,2.8,0,0,0,.17.61v.1h-1.13a3,3,0,0,1-.13-.5A4.18,4.18,0,0,1,132.11,128.66Zm.18-2.76,0,.76h-1.1a4.17,4.17,0,0,0-.83.08,1.83,1.83,0,0,0-.6.22,1,1,0,0,0-.38.37.92.92,0,0,0-.13.51,1.09,1.09,0,0,0,.14.54.89.89,0,0,0,.4.39,1.38,1.38,0,0,0,.67.14,1.76,1.76,0,0,0,.88-.21,1.83,1.83,0,0,0,.61-.51,1.12,1.12,0,0,0,.24-.59l.47.52a1.71,1.71,0,0,1-.23.54,2.79,2.79,0,0,1-.48.58,2.59,2.59,0,0,1-.72.45,2.25,2.25,0,0,1-.92.17,2.38,2.38,0,0,1-1.13-.25,1.82,1.82,0,0,1-.75-.67,1.78,1.78,0,0,1-.27-1,1.92,1.92,0,0,1,.2-.89,1.62,1.62,0,0,1,.57-.65,2.7,2.7,0,0,1,.91-.4,4.69,4.69,0,0,1,1.17-.14Zm3.69-1.14v5H134.9v-6.34h1Zm-.26,1.58-.45,0a4.13,4.13,0,0,1,.19-1.2,3.23,3.23,0,0,1,.53-1,2.53,2.53,0,0,1,2.7-.73,1.42,1.42,0,0,1,.64.4,1.71,1.71,0,0,1,.41.71,3.28,3.28,0,0,1,.14,1.06v4.16h-1.09v-4.17a2,2,0,0,0-.14-.8.92.92,0,0,0-.43-.44,1.6,1.6,0,0,0-.69-.14,1.64,1.64,0,0,0-.74.17,1.84,1.84,0,0,0-.57.47,2.29,2.29,0,0,0-.37.69A2.64,2.64,0,0,0,135.72,126.34ZM52.25,137.41v.83H48.82v-.83ZM50,135.87h1.09v6.31a.9.9,0,0,0,.1.48.48.48,0,0,0,.25.22,1.27,1.27,0,0,0,.34.05l.28,0,.23,0v.89l-.34.07a2.41,2.41,0,0,1-.5,0,1.77,1.77,0,0,1-.73-.15,1.23,1.23,0,0,1-.53-.53,2.21,2.21,0,0,1-.2-1Zm4.62,2.53v5.35H53.52v-6.34h1.06Zm2-1v1l-.26,0h-.27a1.69,1.69,0,0,0-.66.12,1.51,1.51,0,0,0-.49.33,1.69,1.69,0,0,0-.31.5,2.08,2.08,0,0,0-.15.63l-.3.18a4.71,4.71,0,0,1,.11-1.08,3.06,3.06,0,0,1,.35-.89,1.87,1.87,0,0,1,.61-.61,1.7,1.7,0,0,1,.89-.22l.27,0A.64.64,0,0,1,56.59,137.37Zm4.5,5.29V139.4a1.33,1.33,0,0,0-.15-.65,1.06,1.06,0,0,0-.45-.44,1.61,1.61,0,0,0-.73-.15,1.83,1.83,0,0,0-.73.14,1.4,1.4,0,0,0-.48.37.83.83,0,0,0-.17.49H57.3a1.4,1.4,0,0,1,.18-.67,1.86,1.86,0,0,1,.5-.6,2.47,2.47,0,0,1,.8-.44,3.4,3.4,0,0,1,2.26.07,1.92,1.92,0,0,1,.83.71,2.18,2.18,0,0,1,.31,1.18v3a4.11,4.11,0,0,0,0,.68,2.33,2.33,0,0,0,.17.61v.1H61.27a1.8,1.8,0,0,1-.13-.5A4.27,4.27,0,0,1,61.09,142.66Zm.19-2.76v.76h-1.1a4.07,4.07,0,0,0-.82.08,1.9,1.9,0,0,0-.61.22,1.12,1.12,0,0,0-.38.37,1,1,0,0,0-.12.51,1.08,1.08,0,0,0,.13.54.89.89,0,0,0,.4.39,1.42,1.42,0,0,0,.68.14,1.82,1.82,0,0,0,.88-.21,1.89,1.89,0,0,0,.6-.51,1.24,1.24,0,0,0,.25-.59l.46.52a1.66,1.66,0,0,1-.22.54,2.85,2.85,0,0,1-.49.58,2.69,2.69,0,0,1-.71.45,2.33,2.33,0,0,1-.93.17,2.38,2.38,0,0,1-1.13-.25,2,2,0,0,1-.75-.67,1.78,1.78,0,0,1-.26-1,1.91,1.91,0,0,1,.19-.89,1.73,1.73,0,0,1,.58-.65,2.65,2.65,0,0,1,.9-.4A4.77,4.77,0,0,1,60,139.9ZM65,138.76v5H63.88v-6.34h1Zm-.25,1.58-.45,0a3.55,3.55,0,0,1,.19-1.2,2.84,2.84,0,0,1,.53-1,2.33,2.33,0,0,1,.8-.63,2.45,2.45,0,0,1,1-.23,2.49,2.49,0,0,1,.85.13,1.48,1.48,0,0,1,.64.4,1.82,1.82,0,0,1,.41.71,3.58,3.58,0,0,1,.14,1.06v4.16H67.78v-4.17a1.81,1.81,0,0,0-.15-.8.92.92,0,0,0-.43-.44,1.6,1.6,0,0,0-.69-.14,1.68,1.68,0,0,0-.74.17,1.84,1.84,0,0,0-.57.47,2.51,2.51,0,0,0-.36.69A2.37,2.37,0,0,0,64.71,140.34Zm9.49,1.72a.91.91,0,0,0-.1-.43.92.92,0,0,0-.42-.37,3.41,3.41,0,0,0-.93-.29,8.76,8.76,0,0,1-1-.26,3.46,3.46,0,0,1-.72-.37,1.54,1.54,0,0,1-.45-.51,1.41,1.41,0,0,1-.16-.69,1.57,1.57,0,0,1,.16-.71,2.08,2.08,0,0,1,.48-.59,2.19,2.19,0,0,1,.74-.4,3,3,0,0,1,1-.15,2.87,2.87,0,0,1,1.3.27,2,2,0,0,1,.83.72,1.81,1.81,0,0,1,.28,1H74.14a.88.88,0,0,0-.16-.51,1.15,1.15,0,0,0-.45-.42,1.42,1.42,0,0,0-.72-.16,1.66,1.66,0,0,0-.73.14,1,1,0,0,0-.41.35.88.88,0,0,0-.12.44.83.83,0,0,0,.06.32.72.72,0,0,0,.22.25,2.41,2.41,0,0,0,.45.21,6.5,6.5,0,0,0,.73.2,6.18,6.18,0,0,1,1.28.42,1.88,1.88,0,0,1,.75.61,1.41,1.41,0,0,1,.25.86,1.71,1.71,0,0,1-.68,1.36,2.23,2.23,0,0,1-.77.39,3.46,3.46,0,0,1-1,.13,3.07,3.07,0,0,1-1.42-.3,2.08,2.08,0,0,1-.88-.77,1.83,1.83,0,0,1-.3-1h1.09a1.13,1.13,0,0,0,.26.71,1.41,1.41,0,0,0,.58.37,2.42,2.42,0,0,0,1.41,0,1,1,0,0,0,.47-.33A.75.75,0,0,0,74.2,142.06Zm4.13,1.69H77.25v-7a2.55,2.55,0,0,1,.24-1.16,1.7,1.7,0,0,1,.72-.71,2.44,2.44,0,0,1,1.12-.25,2.31,2.31,0,0,1,.37,0,2.53,2.53,0,0,1,.38.07l-.06.88-.28,0h-.31a1.27,1.27,0,0,0-.6.14.85.85,0,0,0-.37.4,1.39,1.39,0,0,0-.13.65Zm1.35-6.34v.83H76.24v-.83Zm.92,3.24v-.14a3.76,3.76,0,0,1,.2-1.27,2.9,2.9,0,0,1,.57-1,2.45,2.45,0,0,1,.91-.68,2.7,2.7,0,0,1,1.19-.25,2.79,2.79,0,0,1,1.21.25,2.53,2.53,0,0,1,.91.68,2.92,2.92,0,0,1,.58,1,4,4,0,0,1,.2,1.27v.14a4,4,0,0,1-.2,1.27,3,3,0,0,1-.58,1,2.56,2.56,0,0,1-.91.68,2.84,2.84,0,0,1-1.19.24,2.94,2.94,0,0,1-1.21-.24,2.65,2.65,0,0,1-.91-.68,3,3,0,0,1-.57-1A3.76,3.76,0,0,1,80.6,140.65Zm1.08-.14v.14a3.68,3.68,0,0,0,.11.89,2.4,2.4,0,0,0,.34.74,1.6,1.6,0,0,0,.56.51,1.69,1.69,0,0,0,.8.18,1.59,1.59,0,0,0,.77-.18,1.55,1.55,0,0,0,.57-.51,2.17,2.17,0,0,0,.33-.74,3.24,3.24,0,0,0,.12-.89v-.14a3.12,3.12,0,0,0-.12-.88,2.33,2.33,0,0,0-.34-.75,1.52,1.52,0,0,0-.56-.51,1.72,1.72,0,0,0-1.57,0,1.6,1.6,0,0,0-.56.51,2.57,2.57,0,0,0-.34.75A3.53,3.53,0,0,0,81.68,140.51Zm7.13-2.11v5.35H87.73v-6.34h1Zm2-1v1l-.26,0h-.27a1.69,1.69,0,0,0-.66.12,1.41,1.41,0,0,0-.49.33,1.71,1.71,0,0,0-.32.5,2.42,2.42,0,0,0-.14.63l-.31.18a5.34,5.34,0,0,1,.11-1.08,3.08,3.08,0,0,1,.36-.89,1.87,1.87,0,0,1,.61-.61,1.7,1.7,0,0,1,.89-.22l.27,0A.64.64,0,0,1,90.79,137.37Zm2.08,1.3v5.08H91.78v-6.34h1Zm-.22,1.67-.5,0a4.14,4.14,0,0,1,.17-1.2,2.94,2.94,0,0,1,.48-1,2.24,2.24,0,0,1,.8-.63,2.67,2.67,0,0,1,1.12-.23,2.43,2.43,0,0,1,.82.13,1.6,1.6,0,0,1,.65.39,2,2,0,0,1,.43.69,3,3,0,0,1,.15,1v4.23H95.68v-4.18a1.52,1.52,0,0,0-.17-.79.94.94,0,0,0-.46-.44,1.81,1.81,0,0,0-.72-.14,1.72,1.72,0,0,0-.8.17,1.39,1.39,0,0,0-.52.47,2.13,2.13,0,0,0-.28.69A4.12,4.12,0,0,0,92.65,140.34Zm4.11-.6L96,140a3,3,0,0,1,.17-1,2.71,2.71,0,0,1,.49-.86,2.34,2.34,0,0,1,.79-.59,2.44,2.44,0,0,1,1.07-.22,2.75,2.75,0,0,1,.9.13,1.6,1.6,0,0,1,.67.42,1.84,1.84,0,0,1,.42.71,3.47,3.47,0,0,1,.14,1v4.17H99.59v-4.18a1.71,1.71,0,0,0-.17-.83.85.85,0,0,0-.47-.41,1.75,1.75,0,0,0-.72-.13,1.42,1.42,0,0,0-.63.13,1.2,1.2,0,0,0-.46.34,1.47,1.47,0,0,0-.29.48A1.92,1.92,0,0,0,96.76,139.74Zm9.3,2.92V139.4a1.23,1.23,0,0,0-.16-.65,1,1,0,0,0-.44-.44,1.65,1.65,0,0,0-.74-.15,1.81,1.81,0,0,0-.72.14,1.4,1.4,0,0,0-.48.37.83.83,0,0,0-.17.49h-1.09a1.4,1.4,0,0,1,.18-.67,2.16,2.16,0,0,1,.5-.6,2.58,2.58,0,0,1,.8-.44,3.11,3.11,0,0,1,1-.16,3.05,3.05,0,0,1,1.22.23,1.89,1.89,0,0,1,.84.71,2.18,2.18,0,0,1,.3,1.18v3a5.59,5.59,0,0,0,0,.68,2.8,2.8,0,0,0,.17.61v.1h-1.13a2.24,2.24,0,0,1-.13-.5A4.18,4.18,0,0,1,106.06,142.66Zm.18-2.76,0,.76h-1.1a4.17,4.17,0,0,0-.83.08,2,2,0,0,0-.61.22,1,1,0,0,0-.37.37.92.92,0,0,0-.13.51,1.08,1.08,0,0,0,.13.54.91.91,0,0,0,.41.39,1.38,1.38,0,0,0,.67.14,1.79,1.79,0,0,0,.88-.21,1.83,1.83,0,0,0,.61-.51,1.12,1.12,0,0,0,.24-.59l.46.52a1.46,1.46,0,0,1-.22.54,2.79,2.79,0,0,1-.48.58,2.59,2.59,0,0,1-.72.45,2.27,2.27,0,0,1-.93.17,2.44,2.44,0,0,1-1.13-.25,2,2,0,0,1-.75-.67,1.87,1.87,0,0,1-.26-1,1.92,1.92,0,0,1,.2-.89,1.62,1.62,0,0,1,.57-.65,2.62,2.62,0,0,1,.91-.4,4.69,4.69,0,0,1,1.17-.14Zm5.26-2.49v.83h-3.43v-.83Zm-2.27-1.54h1.09v6.31a.9.9,0,0,0,.1.48.48.48,0,0,0,.25.22,1.27,1.27,0,0,0,.34.05l.28,0,.23,0v.89l-.34.07a2.41,2.41,0,0,1-.5,0,1.77,1.77,0,0,1-.73-.15,1.23,1.23,0,0,1-.53-.53,2.21,2.21,0,0,1-.2-1Zm4.72,1.54v6.34h-1.09v-6.34Zm-1.17-1.68a.68.68,0,0,1,.15-.45.63.63,0,0,1,.49-.18.61.61,0,0,1,.47.18.64.64,0,0,1,.17.45.63.63,0,0,1-.17.43.61.61,0,0,1-.47.17.62.62,0,0,1-.49-.17A.66.66,0,0,1,112.78,135.73Zm2.62,4.92v-.14a4,4,0,0,1,.2-1.27,2.92,2.92,0,0,1,.58-1,2.5,2.5,0,0,1,.9-.68,3,3,0,0,1,2.4,0,2.45,2.45,0,0,1,.91.68,2.77,2.77,0,0,1,.58,1,3.76,3.76,0,0,1,.2,1.27v.14a3.76,3.76,0,0,1-.2,1.27,2.86,2.86,0,0,1-.58,1,2.62,2.62,0,0,1-.9.68,3.12,3.12,0,0,1-2.4,0,2.56,2.56,0,0,1-.91-.68,3,3,0,0,1-.58-1A4,4,0,0,1,115.4,140.65Zm1.09-.14v.14a3.24,3.24,0,0,0,.11.89,2.17,2.17,0,0,0,.33.74,1.55,1.55,0,0,0,.57.51,1.67,1.67,0,0,0,.79.18,1.61,1.61,0,0,0,.78-.18,1.52,1.52,0,0,0,.56-.51,2.4,2.4,0,0,0,.34-.74,3.68,3.68,0,0,0,.11-.89v-.14a3.53,3.53,0,0,0-.11-.88,2.57,2.57,0,0,0-.34-.75,1.55,1.55,0,0,0-.57-.51,1.5,1.5,0,0,0-.78-.19,1.57,1.57,0,0,0-.79.19,1.6,1.6,0,0,0-.56.51,2.32,2.32,0,0,0-.33.75A3.12,3.12,0,0,0,116.49,140.51Zm7.13-1.75v5h-1.09v-6.34h1Zm-.26,1.58-.45,0a3.82,3.82,0,0,1,.19-1.2,3,3,0,0,1,.53-1,2.28,2.28,0,0,1,.81-.63,2.38,2.38,0,0,1,1-.23,2.47,2.47,0,0,1,.84.13,1.48,1.48,0,0,1,.64.4,1.82,1.82,0,0,1,.41.71,3.58,3.58,0,0,1,.14,1.06v4.16h-1.09v-4.17a1.81,1.81,0,0,0-.15-.8.9.9,0,0,0-.42-.44,1.73,1.73,0,0,0-1.43,0,1.84,1.84,0,0,0-.57.47,2.29,2.29,0,0,0-.37.69A2.37,2.37,0,0,0,123.36,140.34Z"></path><path class="cls-2" d="M81.61,94.49v1.26h-5V94.67l2.32-3a8.37,8.37,0,0,0,.55-.84,3.1,3.1,0,0,0,.28-.65,2.15,2.15,0,0,0,0-1.23.86.86,0,0,0-.29-.45.67.67,0,0,0-.46-.17.84.84,0,0,0-.57.2,1.05,1.05,0,0,0-.33.53,2.6,2.6,0,0,0-.11.77h-1.5a3.16,3.16,0,0,1,.29-1.38,2.56,2.56,0,0,1,.87-1A2.45,2.45,0,0,1,79,87.09a2.55,2.55,0,0,1,1.28.3,1.84,1.84,0,0,1,.79.82,2.8,2.8,0,0,1,.28,1.27,2.74,2.74,0,0,1-.12.81,3.5,3.5,0,0,1-.31.79,6.27,6.27,0,0,1-.48.8c-.19.26-.4.54-.64.82l-1.29,1.79Zm5.92-3.74v1.44a7.43,7.43,0,0,1-.17,1.68,3.53,3.53,0,0,1-.5,1.14,2,2,0,0,1-.76.65,2.31,2.31,0,0,1-1,.2,2.36,2.36,0,0,1-.8-.13,1.91,1.91,0,0,1-.68-.41,2.46,2.46,0,0,1-.52-.71,3.9,3.9,0,0,1-.32-1,7.25,7.25,0,0,1-.11-1.39V90.75a6.79,6.79,0,0,1,.17-1.68,3.38,3.38,0,0,1,.5-1.13,2.12,2.12,0,0,1,.77-.64,2.47,2.47,0,0,1,1-.2,2.36,2.36,0,0,1,.8.13,1.84,1.84,0,0,1,.67.4,2.35,2.35,0,0,1,.51.7,3.53,3.53,0,0,1,.33,1A7,7,0,0,1,87.53,90.75ZM86,92.4V90.52a7,7,0,0,0,0-.84,2.73,2.73,0,0,0-.12-.61,1.2,1.2,0,0,0-.18-.41.64.64,0,0,0-.27-.23.67.67,0,0,0-.7,0,.87.87,0,0,0-.29.37,2.35,2.35,0,0,0-.19.67,7.11,7.11,0,0,0-.06,1V92.4a7.42,7.42,0,0,0,0,.86,4,4,0,0,0,.12.62,1.65,1.65,0,0,0,.19.42.8.8,0,0,0,.26.23.72.72,0,0,0,.32.08.65.65,0,0,0,.39-.12.89.89,0,0,0,.29-.38,2.46,2.46,0,0,0,.18-.68A7.52,7.52,0,0,0,86,92.4Zm6.2-5.21v8.56H90.72V89.06l-1.66.66V88.44l3-1.25Zm7.36,6.22a2.67,2.67,0,0,1-.32,1.35,2,2,0,0,1-.86.83,2.71,2.71,0,0,1-1.23.27,2.79,2.79,0,0,1-1.24-.27,2.08,2.08,0,0,1-.86-.83,2.67,2.67,0,0,1-.32-1.35,2.54,2.54,0,0,1,.18-1,2.15,2.15,0,0,1,.5-.74,2.26,2.26,0,0,1,.76-.49,2.78,2.78,0,0,1,1-.17,2.5,2.5,0,0,1,1.24.3,2.15,2.15,0,0,1,.86.83A2.38,2.38,0,0,1,99.59,93.41Zm-1.51-.1a2,2,0,0,0-.11-.69,1.06,1.06,0,0,0-.32-.46.75.75,0,0,0-.48-.16.76.76,0,0,0-.49.16,1.13,1.13,0,0,0-.31.46,2,2,0,0,0-.1.69,2.11,2.11,0,0,0,.1.7,1,1,0,0,0,.32.44.76.76,0,0,0,.49.16.74.74,0,0,0,.49-.16A1,1,0,0,0,98,94,2.1,2.1,0,0,0,98.08,93.31Zm1.36-3.84a2.28,2.28,0,0,1-.29,1.15,2.14,2.14,0,0,1-.8.78,2.58,2.58,0,0,1-2.34,0,2,2,0,0,1-.81-.78,2.31,2.31,0,0,1-.29-1.15,2.67,2.67,0,0,1,.29-1.29,2,2,0,0,1,.81-.81,2.58,2.58,0,0,1,2.34,0,1.9,1.9,0,0,1,.8.81A2.67,2.67,0,0,1,99.44,89.47Zm-1.51.07a2.28,2.28,0,0,0-.08-.62.94.94,0,0,0-.26-.42.58.58,0,0,0-.41-.15.59.59,0,0,0-.41.15.89.89,0,0,0-.27.41,2,2,0,0,0-.08.63,2,2,0,0,0,.08.63,1,1,0,0,0,.26.42.64.64,0,0,0,.42.15.58.58,0,0,0,.41-.15.89.89,0,0,0,.26-.42A2.35,2.35,0,0,0,97.93,89.54Z"></path></svg>