<svg xmlns="http://www.w3.org/2000/svg" id="Layer_1" data-name="Layer 1" viewBox="0 0 126.88 124.12"><defs><style>.cls-1{fill:#61686d;}.cls-2{fill:#fff;}</style></defs><path class="cls-1" d="M115.66,49.4c-2.59,1.81-3,3.77-3.07,4.31-.41.25-.79.46-1.14.65.55-.91,1.06-1.84,1.54-2.79a43.29,43.29,0,0,0,2.06-5l.18-.56a13.88,13.88,0,0,1,2-3.92l.17-.24c7.24-4,3.92-12,3.92-12,.11,1.79-1.61,3.15-3.38,6.4-1.51,2.77-1,4.71-.82,5.23-.37.57-.72,1.07-1,1.49.11-.52.22-1,.32-1.56A37,37,0,0,0,117,36l0-.67a5,5,0,0,0,0-.67V33.34c0-.45,0-.9-.06-1.35,0-.22,0-.44,0-.66l-.06-.67a4.26,4.26,0,0,1,.07-1.33l.52-2.55c5.28-6.35-.78-12.65-.78-12.65.76,1.62-.35,3.52-.8,7.2-.38,3.13.8,4.75,1.16,5.16-.15.75-.31,1.39-.44,1.92L116.6,28c0-.44-.16-.88-.24-1.32l-.12-.66c0-.22-.09-.44-.14-.65-.22-.87-.41-1.74-.69-2.59l-.2-.63-.09-.32L115,21.5l-.46-1.25c-.28-.73-.58-1.46-.9-2.18a11.66,11.66,0,0,1-1-4.07c0-.33,0-.65-.07-1,2.84-7.75-5-11.65-5-11.65,1.26,1.27.86,3.43,1.67,7,.69,3.08,2.35,4.21,2.83,4.48.15,1.05.24,1.93.28,2.55,0,0,0,0,0-.07L112,14.8c-.1-.2-.23-.38-.34-.58L111,13.08l-.75-1.1c-.12-.18-.24-.37-.37-.55l-.4-.54c-.41-.57-.84-1.12-1.29-1.66-.63-.79-1.48-1.94-2.22-2.76a5.7,5.7,0,0,1-.89-1.29C101.81-1.68,93.86.25,93.86.25c1.79.11,2.93,2,5.94,4.15a6.62,6.62,0,0,0,4.94,1.49L105,6l.91,1a37.63,37.63,0,0,1,3.32,4.12l.38.54c.13.18.24.37.35.55l.71,1.12.3.53A21.3,21.3,0,0,0,108.61,12C104.32,5,96.39,8.65,96.39,8.65c1.78-.19,3.22,1.47,6.55,3.09,2.83,1.38,4.75.79,5.26.58,1.13.67,2.07,1.32,2.62,1.71a2.71,2.71,0,0,1,.83,1h0l.3.59A36.93,36.93,0,0,1,114,20.42l.41,1.25.1.31.09.32.17.63c.25.84.43,1.71.62,2.56,0,.22.09.43.12.65h0a22.66,22.66,0,0,0-1.67-2.25c-2-8-10.69-6.8-10.69-6.8,1.76.34,2.65,2.35,5.36,4.87,2.3,2.15,4.31,2.15,4.85,2.1.62.67,1.14,1.28,1.51,1.75a4.18,4.18,0,0,1,.94,2.26h0L116,29.4l0,.32,0,.33,0,.65,0,.66c0,.21,0,.43,0,.65,0,.44,0,.87,0,1.31l0,1.31c0,.22,0,.44,0,.66l0,.65q-.1,1.43-.3,2.82c-.19-.78-.4-1.53-.65-2.24,1-8.19-7.56-10.17-7.56-10.17,1.52.95,1.63,3.14,3.26,6.46,1.39,2.84,3.27,3.55,3.8,3.7.2.52.37,1,.52,1.4a5.88,5.88,0,0,1,.2,3.19s0,0,0,0a36.41,36.41,0,0,1-1.44,5,39.74,39.74,0,0,1-2.11,4.77c-.24.45-.49.89-.74,1.33a23.15,23.15,0,0,0,.26-2.67c3.9-7.28-3.31-12.23-3.31-12.23,1.07,1.44.37,3.52.67,7.22.25,3.14,1.74,4.49,2.18,4.82v.35A9.87,9.87,0,0,1,109,55.32s0,0,0,0a38.29,38.29,0,0,1-3.31,4c-.31.3-.59.63-.91.93l-.94.89,0,0c.29-.5.54-1,.78-1.51,6.41-5.2,1.69-12.55,1.69-12.55.43,1.74-1,3.38-2.18,6.91-1,3-.14,4.81.13,5.28-.19.46-.38.87-.54,1.24a6.29,6.29,0,0,1-1.82,2.33h0a36.59,36.59,0,0,1-4.25,2.95c-.87.52-1.75,1-2.66,1.44.38-.39.73-.78,1-1.16,6.14-2.84,3.88-9.63,3.88-9.63,0,1.46-1.49,2.48-3.13,5a5.3,5.3,0,0,0-1,4.22c-.2.27-.39.52-.57.74A5.65,5.65,0,0,1,93,68.16h0a40,40,0,0,1-4.87,1.68h0a1.08,1.08,0,0,0-.79,1A1.09,1.09,0,0,0,88.73,72,40.65,40.65,0,0,0,93.83,70a40.2,40.2,0,0,0,4.79-2.6c.93-.57,1.82-1.2,2.69-1.86A7.81,7.81,0,0,1,105.38,64c7.7,3,11.72-4.81,11.72-4.81-1.3,1.24-3.45.81-7.08,1.56a6.52,6.52,0,0,0-4.51,2.76c-.75.1-1.4.16-1.94.19.49-.43,1-.88,1.44-1.32l1-1c.32-.32.61-.67.92-1a40.4,40.4,0,0,0,3.34-4.26l.06-.09a5.18,5.18,0,0,1,2-1.73l.38-.2c8.25-.31,8.89-9,8.89-9C120.85,46.84,118.69,47.28,115.66,49.4Z"></path><path class="cls-1" d="M12.68,49.4c2.59,1.81,3,3.77,3.07,4.31.41.25.79.46,1.14.65-.55-.91-1.06-1.84-1.54-2.79a43.29,43.29,0,0,1-2.06-5L13.1,46a13.6,13.6,0,0,0-2-3.92L11,41.86c-7.24-4-3.91-12-3.91-12-.12,1.79,1.61,3.15,3.38,6.4,1.51,2.77,1,4.71.82,5.23.37.57.71,1.07,1,1.49-.11-.52-.23-1-.32-1.56A37,37,0,0,1,11.31,36l0-.67c0-.22,0-.44,0-.67V33.34c0-.45,0-.9.06-1.35,0-.22,0-.44,0-.66l.06-.67a4.58,4.58,0,0,0-.07-1.33l-.52-2.55c-5.28-6.35.78-12.65.78-12.65-.76,1.62.35,3.52.8,7.2.38,3.13-.8,4.75-1.16,5.16.15.75.3,1.39.44,1.92l.05-.42c0-.44.16-.88.24-1.32L12.1,26c.05-.22.09-.44.14-.65.22-.87.41-1.74.69-2.59l.2-.63.09-.32.11-.32.46-1.25c.28-.73.58-1.46.9-2.18a11.88,11.88,0,0,0,1-4.07c0-.33,0-.65.07-1-2.84-7.75,5-11.65,5-11.65-1.25,1.27-.85,3.43-1.66,7-.69,3.08-2.35,4.21-2.83,4.48C16.11,14,16,14.84,16,15.46l0-.07.32-.59c.1-.2.22-.38.34-.58l.68-1.14.75-1.1c.12-.18.24-.37.37-.55l.4-.54c.41-.57.84-1.12,1.29-1.66.63-.79,1.48-1.94,2.22-2.76a5.7,5.7,0,0,0,.89-1.29C26.53-1.68,34.48.25,34.48.25c-1.79.11-2.93,2-5.94,4.15A6.62,6.62,0,0,1,23.6,5.89L23.33,6l-.91,1a36.48,36.48,0,0,0-3.32,4.12l-.38.54c-.13.18-.24.37-.36.55l-.71,1.12-.3.53A20.49,20.49,0,0,1,19.73,12C24,5,31.94,8.65,31.94,8.65c-1.78-.19-3.22,1.47-6.54,3.09-2.84,1.38-4.76.79-5.26.58C19,13,18.06,13.64,17.51,14a2.71,2.71,0,0,0-.83,1h0l-.3.59a36.88,36.88,0,0,0-2.07,4.84l-.41,1.25-.11.31-.09.32-.17.63c-.25.84-.43,1.71-.61,2.56-.05.22-.09.43-.13.65h0a24.34,24.34,0,0,1,1.67-2.25c2-8,10.69-6.8,10.69-6.8-1.76.34-2.64,2.35-5.35,4.87-2.31,2.15-4.32,2.15-4.86,2.1-.62.67-1.13,1.28-1.51,1.75a4.18,4.18,0,0,0-.94,2.26h0l-.15,1.31,0,.32,0,.33,0,.65,0,.66c0,.21,0,.43,0,.65,0,.44,0,.87,0,1.31l0,1.31c0,.22,0,.44,0,.66l0,.65q.11,1.43.3,2.82c.19-.78.41-1.53.66-2.24-1-8.19,7.56-10.17,7.56-10.17-1.53.95-1.64,3.14-3.27,6.46-1.39,2.84-3.27,3.55-3.79,3.7-.2.52-.38,1-.52,1.4A5.78,5.78,0,0,0,13,41.1s0,0,0,0a37.86,37.86,0,0,0,1.44,5,41.39,41.39,0,0,0,2.11,4.77c.24.45.49.89.74,1.33a25.61,25.61,0,0,1-.26-2.67c-3.9-7.28,3.31-12.23,3.31-12.23-1.07,1.44-.37,3.52-.67,7.22-.25,3.14-1.74,4.49-2.17,4.82v.35a9.79,9.79,0,0,0,1.77,5.59s0,0,0,0a38.29,38.29,0,0,0,3.31,4c.31.3.59.63.91.93l.94.89,0,0c-.29-.5-.55-1-.78-1.51C17.31,54.45,22,47.1,22,47.1c-.43,1.74,1,3.38,2.18,6.91,1,3,.14,4.81-.13,5.28.19.46.37.87.54,1.24a6.36,6.36,0,0,0,1.81,2.33h0a36.59,36.59,0,0,0,4.25,2.95c.87.52,1.75,1,2.65,1.44-.37-.39-.72-.78-1-1.16-6.14-2.84-3.88-9.63-3.88-9.63,0,1.46,1.49,2.48,3.13,5a5.34,5.34,0,0,1,1,4.22c.2.27.39.52.57.74a5.65,5.65,0,0,0,2.21,1.69,0,0,0,0,1,0,0,40.75,40.75,0,0,0,4.88,1.68h0a1.08,1.08,0,0,1,.79,1A1.09,1.09,0,0,1,39.61,72a38.82,38.82,0,0,1-9.89-4.51c-.93-.57-1.82-1.2-2.69-1.86A7.81,7.81,0,0,0,23,64c-7.7,3-11.72-4.81-11.72-4.81,1.29,1.24,3.45.81,7.08,1.56a6.52,6.52,0,0,1,4.51,2.76c.75.1,1.4.16,1.94.19-.49-.43-1-.88-1.45-1.32l-.95-1c-.32-.32-.61-.67-.92-1a39.13,39.13,0,0,1-3.34-4.26L18,56.1a5.08,5.08,0,0,0-1.95-1.73l-.38-.2c-8.25-.31-8.89-9-8.89-9C7.49,46.84,9.64,47.28,12.68,49.4Z"></path><path class="cls-2" d="M53.43,22.64,51.37,30H49.88l2.71-8.53h.93ZM55.08,30,53,22.64l-.1-1.17h1L56.57,30Zm0-3.17V28h-4v-1.2ZM58.65,25V30H57.29V23.66h1.28Zm-.22,1.65H58a4.72,4.72,0,0,1,.12-1.22,3.4,3.4,0,0,1,.39-1,1.87,1.87,0,0,1,1.62-.87,1.76,1.76,0,0,1,.66.13,1.33,1.33,0,0,1,.53.39,2,2,0,0,1,.35.7,3.76,3.76,0,0,1,.12,1V30H60.39V25.9a2,2,0,0,0-.1-.71.77.77,0,0,0-.29-.38,1,1,0,0,0-.47-.11.8.8,0,0,0-.51.16.93.93,0,0,0-.34.41,2,2,0,0,0-.19.6A4.23,4.23,0,0,0,58.43,26.6Zm3.24-.36-.64.14a4.29,4.29,0,0,1,.12-1.09,3.06,3.06,0,0,1,.39-.9,1.83,1.83,0,0,1,.65-.62,1.87,1.87,0,0,1,.92-.23,1.91,1.91,0,0,1,.74.14,1.35,1.35,0,0,1,.55.41,2,2,0,0,1,.34.73,4.2,4.2,0,0,1,.13,1.08V30H63.49V25.9a2,2,0,0,0-.1-.73.64.64,0,0,0-.29-.36,1,1,0,0,0-.47-.11.67.67,0,0,0-.41.13.85.85,0,0,0-.3.32,1.74,1.74,0,0,0-.19.5A2.74,2.74,0,0,0,61.67,26.24Zm5.94-1.36V30H66.25V23.66h1.3Zm1.53-1.26V25l-.26,0h-.25a1.07,1.07,0,0,0-.49.1,1,1,0,0,0-.35.29,1.57,1.57,0,0,0-.22.45,2.53,2.53,0,0,0-.09.6h-.29a6.4,6.4,0,0,1,.09-1.11,3.66,3.66,0,0,1,.28-.9,1.72,1.72,0,0,1,.48-.6,1.12,1.12,0,0,1,.67-.22l.24,0A.56.56,0,0,1,69.14,23.62Zm4.07,4.89V23.66h1.36V30H73.29Zm.19-1.33h.44a5.55,5.55,0,0,1-.12,1.18,3.17,3.17,0,0,1-.36.94,1.75,1.75,0,0,1-.63.61,1.9,1.9,0,0,1-.92.22A1.8,1.8,0,0,1,71.1,30a1.51,1.51,0,0,1-.56-.41,2.22,2.22,0,0,1-.36-.74,3.78,3.78,0,0,1-.13-1.07v-4.1h1.37v4.11a3.1,3.1,0,0,0,0,.57,1.34,1.34,0,0,0,.17.36.67.67,0,0,0,.23.19.72.72,0,0,0,.29.06,1.1,1.1,0,0,0,.73-.23,1.28,1.28,0,0,0,.4-.64A3.46,3.46,0,0,0,73.4,27.18Zm5.1-3.52v1.05H75.39V23.66Zm-2.26-1.55H77.6v6.12a1.32,1.32,0,0,0,.06.45.4.4,0,0,0,.18.2.61.61,0,0,0,.28.05h.23l.17-.05V30a2.47,2.47,0,0,1-.35.1,3.32,3.32,0,0,1-.48,0,1.54,1.54,0,0,1-.75-.18,1.19,1.19,0,0,1-.51-.57,2.38,2.38,0,0,1-.19-1.05ZM53.06,33.64,51,41H49.51l2.71-8.53h.93ZM54.71,41l-2.07-7.36-.1-1.17h1L56.21,41Zm0-3.17V39h-4v-1.2Zm3.52,1.75,1.25-4.92h.86l-.17,1.51L59,41h-.76Zm-.52-4.92,1,4.94V41h-.86l-1.42-6.34Zm3.63,4.88.91-4.88h1.33L62.19,41h-.85Zm-.86-4.88,1.23,4.86L61.84,41h-.77l-1.26-4.83-.16-1.51Zm7,5.05V36.55a1.23,1.23,0,0,0-.1-.52.53.53,0,0,0-.26-.29.91.91,0,0,0-.43-.1.85.85,0,0,0-.46.12.66.66,0,0,0-.27.3,1,1,0,0,0-.1.43H64.52a1.87,1.87,0,0,1,.15-.73,2,2,0,0,1,1.16-1.06,2.75,2.75,0,0,1,.93-.16,2.63,2.63,0,0,1,1.08.21,1.53,1.53,0,0,1,.75.65,2.25,2.25,0,0,1,.27,1.17v3a6,6,0,0,0,0,.78,3.69,3.69,0,0,0,.16.6V41H67.68a2.44,2.44,0,0,1-.14-.59A5.48,5.48,0,0,1,67.5,39.71Zm.18-2.57V38H67a1.47,1.47,0,0,0-.53.09,1,1,0,0,0-.4.22.92.92,0,0,0-.24.34,1.27,1.27,0,0,0,0,.94.53.53,0,0,0,.25.28.86.86,0,0,0,.41.09,1.15,1.15,0,0,0,.57-.14,1.25,1.25,0,0,0,.37-.35.54.54,0,0,0,.11-.38l.31.57a1.62,1.62,0,0,1-.18.47,2.3,2.3,0,0,1-.32.47,1.44,1.44,0,0,1-.48.36,1.51,1.51,0,0,1-.65.14,2,2,0,0,1-1-.23,1.6,1.6,0,0,1-.66-.63,2.15,2.15,0,0,1-.23-1,2.13,2.13,0,0,1,.16-.86,1.74,1.74,0,0,1,.47-.67,2.12,2.12,0,0,1,.77-.43,3.73,3.73,0,0,1,1.11-.15Zm3.95-1.26V41H70.26V34.66h1.3Zm1.53-1.26V36l-.25,0h-.26a1.07,1.07,0,0,0-.49.1.94.94,0,0,0-.34.29,1.18,1.18,0,0,0-.22.45,2.5,2.5,0,0,0-.1.6H71.2a6.4,6.4,0,0,1,.09-1.11,4.14,4.14,0,0,1,.28-.9,1.72,1.72,0,0,1,.48-.6,1.14,1.14,0,0,1,.67-.22l.24,0A.64.64,0,0,1,73.16,34.62Zm4,5.06V32h1.37v9H77.29Zm-3.4-1.59v-.5a5.9,5.9,0,0,1,.14-1.35,2.68,2.68,0,0,1,.41-1,1.71,1.71,0,0,1,.66-.57,2.07,2.07,0,0,1,.88-.18,1.57,1.57,0,0,1,.82.22,1.76,1.76,0,0,1,.58.6,3.36,3.36,0,0,1,.38.94,6,6,0,0,1,.2,1.21v.69a7.83,7.83,0,0,1-.2,1.18,3.54,3.54,0,0,1-.38.92,1.84,1.84,0,0,1-.6.61,1.53,1.53,0,0,1-.81.21,1.89,1.89,0,0,1-.87-.2,1.8,1.8,0,0,1-.66-.57,2.7,2.7,0,0,1-.41-.94A5.75,5.75,0,0,1,73.76,38.09Zm1.36-.5v.5a5.17,5.17,0,0,0,.06.84,2.08,2.08,0,0,0,.19.58.9.9,0,0,0,.34.33,1.13,1.13,0,0,0,.51.11,1,1,0,0,0,.61-.19,1.3,1.3,0,0,0,.37-.51,3,3,0,0,0,.19-.71V37.17a2.62,2.62,0,0,0-.12-.57,1.87,1.87,0,0,0-.23-.47,1,1,0,0,0-.34-.31.91.91,0,0,0-.47-.12,1,1,0,0,0-.51.12.77.77,0,0,0-.34.35,1.87,1.87,0,0,0-.2.58A5.17,5.17,0,0,0,75.12,37.59Z"></path><path class="cls-2" d="M4,88.22,1.15,96H0l3.25-8.53H4ZM6.35,96,3.52,88.22l0-.75h.74L7.51,96ZM6.2,92.84v.93H1.41v-.93ZM9.57,91v5H8.48V89.66h1Zm-.26,1.58-.45,0a3.87,3.87,0,0,1,.19-1.2,3.13,3.13,0,0,1,.53-1,2.47,2.47,0,0,1,.81-.63,2.41,2.41,0,0,1,1-.23,2.74,2.74,0,0,1,.84.13,1.58,1.58,0,0,1,.64.4,1.68,1.68,0,0,1,.41.72,3.54,3.54,0,0,1,.14,1.06V96H12.38V91.83a1.76,1.76,0,0,0-.15-.79.86.86,0,0,0-.42-.44,1.47,1.47,0,0,0-.69-.14,1.52,1.52,0,0,0-.74.17,1.71,1.71,0,0,0-.57.47,2.12,2.12,0,0,0-.37.68A2.41,2.41,0,0,0,9.31,92.59Zm9.8,2.18V87H20.2v9h-1ZM14.85,92.9v-.12A4.86,4.86,0,0,1,15,91.46a3.2,3.2,0,0,1,.51-1,2.43,2.43,0,0,1,.79-.65,2.24,2.24,0,0,1,1-.24,2.44,2.44,0,0,1,1,.21,2,2,0,0,1,.76.61,3,3,0,0,1,.5,1,6.24,6.24,0,0,1,.25,1.26v.54a5.64,5.64,0,0,1-.25,1.25,3,3,0,0,1-.5,1,2.11,2.11,0,0,1-.76.6,2.47,2.47,0,0,1-1.06.21,2.19,2.19,0,0,1-1-.24,2.54,2.54,0,0,1-.79-.68,3.25,3.25,0,0,1-.51-1A4.72,4.72,0,0,1,14.85,92.9Zm1.09-.12v.12a4.19,4.19,0,0,0,.09.89,2.3,2.3,0,0,0,.31.73,1.46,1.46,0,0,0,.52.5,1.49,1.49,0,0,0,.75.18A1.61,1.61,0,0,0,18.5,95a1.7,1.7,0,0,0,.56-.6,3.7,3.7,0,0,0,.33-.82V92.14a3.23,3.23,0,0,0-.21-.62,1.66,1.66,0,0,0-.34-.54,1.32,1.32,0,0,0-.51-.38,1.55,1.55,0,0,0-.71-.14,1.53,1.53,0,0,0-.76.18,1.49,1.49,0,0,0-.52.51,2.36,2.36,0,0,0-.31.74A4.13,4.13,0,0,0,15.94,92.78ZM23,87v9H21.89V87Zm-.25,5.59-.45,0a3.59,3.59,0,0,1,.19-1.2,2.94,2.94,0,0,1,.53-1,2.33,2.33,0,0,1,.8-.63,2.45,2.45,0,0,1,1.05-.23,2.76,2.76,0,0,1,.85.13,1.58,1.58,0,0,1,.64.4,1.79,1.79,0,0,1,.41.72,3.54,3.54,0,0,1,.14,1.06V96H25.79V91.83a1.76,1.76,0,0,0-.15-.79.88.88,0,0,0-.43-.44,1.44,1.44,0,0,0-.69-.14,1.55,1.55,0,0,0-.74.17,1.71,1.71,0,0,0-.57.47,2.31,2.31,0,0,0-.36.68A2.41,2.41,0,0,0,22.72,92.59Zm6.86-1.93V96H28.5V89.66h1.05Zm2-1v1l-.26,0H31a1.69,1.69,0,0,0-.66.11,1.51,1.51,0,0,0-.49.33,1.45,1.45,0,0,0-.31.51,2.08,2.08,0,0,0-.15.63l-.3.17a4.57,4.57,0,0,1,.11-1.07,2.77,2.77,0,0,1,.35-.9,1.75,1.75,0,0,1,.61-.6,1.71,1.71,0,0,1,.89-.23l.27,0Zm4.51,5.3V91.65a1.36,1.36,0,0,0-.15-.65,1,1,0,0,0-.45-.43,1.62,1.62,0,0,0-.74-.15,1.65,1.65,0,0,0-.72.14,1.19,1.19,0,0,0-.48.37.81.81,0,0,0-.17.49H32.28a1.44,1.44,0,0,1,.18-.68,1.86,1.86,0,0,1,.5-.6,2.45,2.45,0,0,1,.8-.43,3.11,3.11,0,0,1,1-.17,2.92,2.92,0,0,1,1.22.24,1.8,1.8,0,0,1,.83.71,2.12,2.12,0,0,1,.3,1.17v3a4.06,4.06,0,0,0,.06.67,2.53,2.53,0,0,0,.17.62V96H36.25a1.8,1.8,0,0,1-.13-.5A4.13,4.13,0,0,1,36.07,94.92Zm.19-2.76v.76h-1.1a4.11,4.11,0,0,0-.82.07,1.9,1.9,0,0,0-.61.22,1,1,0,0,0-.38.37,1,1,0,0,0-.13.51,1.09,1.09,0,0,0,.14.54,1,1,0,0,0,.4.4,1.55,1.55,0,0,0,.68.14,1.82,1.82,0,0,0,.88-.21,1.91,1.91,0,0,0,.6-.52,1.2,1.2,0,0,0,.25-.59l.46.52a1.62,1.62,0,0,1-.22.55,2.86,2.86,0,0,1-.49.57,2.59,2.59,0,0,1-.72.45,2.25,2.25,0,0,1-.92.18,2.51,2.51,0,0,1-1.13-.25,2,2,0,0,1-.75-.68,1.73,1.73,0,0,1-.27-1,2,2,0,0,1,.2-.9,1.81,1.81,0,0,1,.58-.65,2.65,2.65,0,0,1,.9-.4A4.74,4.74,0,0,1,35,92.16Zm8.89.49H42.87v-.92h2.28a2.34,2.34,0,0,0,1.07-.21,1.35,1.35,0,0,0,.6-.58,1.84,1.84,0,0,0,.19-.86,1.77,1.77,0,0,0-.19-.82,1.51,1.51,0,0,0-.6-.63,2.09,2.09,0,0,0-1.07-.24h-2V96H42V87.47h3.15a3.64,3.64,0,0,1,1.63.33,2.34,2.34,0,0,1,1,.93,2.51,2.51,0,0,1,.35,1.34,2.6,2.6,0,0,1-.35,1.4,2.2,2.2,0,0,1-1,.89A4.13,4.13,0,0,1,45.15,92.65Zm5.34-2V96H49.41V89.66h1.05Zm2-1v1l-.25,0h-.27a1.69,1.69,0,0,0-.66.11,1.32,1.32,0,0,0-.49.33,1.64,1.64,0,0,0-.32.51,2.42,2.42,0,0,0-.14.63l-.31.17a5.17,5.17,0,0,1,.11-1.07,3,3,0,0,1,.36-.9,1.67,1.67,0,0,1,.61-.6,1.71,1.71,0,0,1,.89-.23l.27,0ZM57,94.92V91.65a1.25,1.25,0,0,0-.16-.65.92.92,0,0,0-.44-.43,1.91,1.91,0,0,0-1.46,0,1.19,1.19,0,0,0-.48.37.81.81,0,0,0-.17.49H53.19a1.43,1.43,0,0,1,.17-.68,2,2,0,0,1,.51-.6,2.4,2.4,0,0,1,.79-.43,3.12,3.12,0,0,1,1.05-.17,2.87,2.87,0,0,1,1.21.24,1.77,1.77,0,0,1,.84.71,2.12,2.12,0,0,1,.3,1.17v3a5.43,5.43,0,0,0,0,.67,3.07,3.07,0,0,0,.17.62V96H57.15a2.24,2.24,0,0,1-.13-.5A4,4,0,0,1,57,94.92Zm.18-2.76,0,.76h-1.1a4.21,4.21,0,0,0-.83.07,2,2,0,0,0-.61.22,1.09,1.09,0,0,0-.37.37.92.92,0,0,0-.13.51,1.09,1.09,0,0,0,.14.54,1,1,0,0,0,.4.4,1.51,1.51,0,0,0,.67.14,1.76,1.76,0,0,0,.88-.21,1.85,1.85,0,0,0,.61-.52,1.09,1.09,0,0,0,.24-.59l.46.52a1.44,1.44,0,0,1-.22.55,2.51,2.51,0,0,1-.48.57,2.59,2.59,0,0,1-.72.45,2.25,2.25,0,0,1-.92.18,2.58,2.58,0,0,1-1.14-.25,2,2,0,0,1-.75-.68,1.81,1.81,0,0,1-.26-1,2,2,0,0,1,.2-.9,1.69,1.69,0,0,1,.57-.65,2.62,2.62,0,0,1,.91-.4,4.71,4.71,0,0,1,1.17-.13Zm6.6,2.61V87h1.09v9h-1ZM59.5,92.9v-.12a4.49,4.49,0,0,1,.17-1.32,3.2,3.2,0,0,1,.51-1,2.33,2.33,0,0,1,.79-.65,2.2,2.2,0,0,1,1-.24,2.46,2.46,0,0,1,1,.21,2,2,0,0,1,.76.61,3,3,0,0,1,.5,1,6.24,6.24,0,0,1,.25,1.26v.54a5.64,5.64,0,0,1-.25,1.25,3,3,0,0,1-.5,1,2.11,2.11,0,0,1-.76.6,2.51,2.51,0,0,1-1.06.21,2.19,2.19,0,0,1-1-.24,2.43,2.43,0,0,1-.79-.68,3.25,3.25,0,0,1-.51-1A4.36,4.36,0,0,1,59.5,92.9Zm1.09-.12v.12a4.19,4.19,0,0,0,.09.89,2.54,2.54,0,0,0,.3.73,1.46,1.46,0,0,0,1.28.68,1.61,1.61,0,0,0,.89-.23,1.7,1.7,0,0,0,.56-.6,3.7,3.7,0,0,0,.33-.82V92.14a3.23,3.23,0,0,0-.21-.62,1.66,1.66,0,0,0-.34-.54A1.32,1.32,0,0,0,63,90.6a1.55,1.55,0,0,0-.71-.14,1.44,1.44,0,0,0-1.29.69,2.61,2.61,0,0,0-.3.74A4.13,4.13,0,0,0,60.59,92.78Zm8.58,3.34a3.09,3.09,0,0,1-1.2-.23,2.69,2.69,0,0,1-.92-.63,2.85,2.85,0,0,1-.59-1,3.69,3.69,0,0,1-.2-1.23v-.24a3.7,3.7,0,0,1,.23-1.38,3,3,0,0,1,.62-1A2.62,2.62,0,0,1,69,89.54a2.66,2.66,0,0,1,1.17.24,2.18,2.18,0,0,1,.82.65,2.82,2.82,0,0,1,.46,1,4.31,4.31,0,0,1,.16,1.23v.48H66.9v-.88h3.65v-.08a2.55,2.55,0,0,0-.17-.82,1.51,1.51,0,0,0-.47-.66,1.4,1.4,0,0,0-.88-.26,1.55,1.55,0,0,0-.68.16,1.37,1.37,0,0,0-.53.46,2.21,2.21,0,0,0-.35.74,3.91,3.91,0,0,0-.12,1v.24a2.91,2.91,0,0,0,.12.85,2.29,2.29,0,0,0,.37.69,1.68,1.68,0,0,0,.59.47,1.74,1.74,0,0,0,.8.17,1.93,1.93,0,0,0,1-.23,2.46,2.46,0,0,0,.7-.63l.65.52a2.59,2.59,0,0,1-.52.59,2.48,2.48,0,0,1-.78.46A2.91,2.91,0,0,1,69.17,96.12Zm7.42-1.8a1,1,0,0,0-.1-.44.91.91,0,0,0-.42-.36,3,3,0,0,0-.94-.3,6.81,6.81,0,0,1-.95-.26,3,3,0,0,1-.72-.37,1.37,1.37,0,0,1-.45-.51,1.38,1.38,0,0,1-.16-.69,1.53,1.53,0,0,1,.16-.7,2.12,2.12,0,0,1,.48-.6,2.38,2.38,0,0,1,.74-.4,3,3,0,0,1,1-.15,2.87,2.87,0,0,1,1.3.27,2.09,2.09,0,0,1,.83.72,1.81,1.81,0,0,1,.28,1H76.53a.93.93,0,0,0-.16-.51,1.2,1.2,0,0,0-.45-.41,1.47,1.47,0,0,0-.72-.17,1.66,1.66,0,0,0-.73.14,1,1,0,0,0-.41.35.89.89,0,0,0-.12.45.78.78,0,0,0,.06.31.64.64,0,0,0,.22.25,1.46,1.46,0,0,0,.45.21,4.89,4.89,0,0,0,.73.2,5.61,5.61,0,0,1,1.28.43,1.78,1.78,0,0,1,.75.6,1.46,1.46,0,0,1,.25.87,1.64,1.64,0,0,1-.18.76,1.68,1.68,0,0,1-.5.6,2.41,2.41,0,0,1-.77.38,3.45,3.45,0,0,1-1,.14,3.07,3.07,0,0,1-1.42-.3,2.17,2.17,0,0,1-.88-.78,1.83,1.83,0,0,1-.3-1h1.09a1.11,1.11,0,0,0,.26.71,1.34,1.34,0,0,0,.57.37,2.35,2.35,0,0,0,.68.11,2,2,0,0,0,.74-.12,1.12,1.12,0,0,0,.47-.32A.8.8,0,0,0,76.59,94.32ZM80.19,87v9H79.1V87Zm-.26,5.59-.45,0a3.59,3.59,0,0,1,.19-1.2,2.94,2.94,0,0,1,.53-1,2.28,2.28,0,0,1,.81-.63,2.37,2.37,0,0,1,1-.23,2.76,2.76,0,0,1,.85.13,1.58,1.58,0,0,1,.64.4,1.79,1.79,0,0,1,.41.72,3.54,3.54,0,0,1,.14,1.06V96H83V91.83a1.76,1.76,0,0,0-.15-.79.88.88,0,0,0-.43-.44,1.41,1.41,0,0,0-.69-.14,1.55,1.55,0,0,0-.74.17,1.78,1.78,0,0,0-.56.47,2.12,2.12,0,0,0-.37.68A2.41,2.41,0,0,0,79.93,92.59ZM88.68,87h1.09v7.77L89.68,96h-1Zm5.37,5.78v.12a4.72,4.72,0,0,1-.16,1.28,3.21,3.21,0,0,1-.48,1,2.13,2.13,0,0,1-1.82.92,2.51,2.51,0,0,1-1.06-.21,2,2,0,0,1-.76-.6,3,3,0,0,1-.5-1A5.64,5.64,0,0,1,89,93.11v-.54a5.62,5.62,0,0,1,.25-1.26,3,3,0,0,1,.5-1,2,2,0,0,1,.76-.61,2.46,2.46,0,0,1,1-.21,2.3,2.3,0,0,1,1.06.24,2.1,2.1,0,0,1,.77.65,3.16,3.16,0,0,1,.48,1A4.87,4.87,0,0,1,94.05,92.78ZM93,92.9v-.12a4.15,4.15,0,0,0-.08-.89,2.59,2.59,0,0,0-.28-.74,1.46,1.46,0,0,0-.51-.51,1.58,1.58,0,0,0-.78-.18,1.6,1.6,0,0,0-.72.14,1.48,1.48,0,0,0-.51.38,1.84,1.84,0,0,0-.34.54,3.21,3.21,0,0,0-.2.62v1.41a3.33,3.33,0,0,0,.31.79,1.78,1.78,0,0,0,.57.62,1.59,1.59,0,0,0,.9.24,1.49,1.49,0,0,0,.75-.18,1.44,1.44,0,0,0,.51-.5,2.28,2.28,0,0,0,.29-.73A4.19,4.19,0,0,0,93,92.9Zm6.2,2V91.65A1.36,1.36,0,0,0,99,91a1,1,0,0,0-.44-.43,1.65,1.65,0,0,0-.74-.15,1.6,1.6,0,0,0-.72.14,1.07,1.07,0,0,0-.48.37.75.75,0,0,0-.17.49H95.37a1.44,1.44,0,0,1,.18-.68,2,2,0,0,1,.5-.6,2.56,2.56,0,0,1,.8-.43,3.11,3.11,0,0,1,1-.17,2.92,2.92,0,0,1,1.22.24,1.75,1.75,0,0,1,.83.71,2,2,0,0,1,.31,1.17v3a5.43,5.43,0,0,0,0,.67,3.07,3.07,0,0,0,.17.62V96H99.34a2.24,2.24,0,0,1-.13-.5A4.13,4.13,0,0,1,99.16,94.92Zm.19-2.76v.76H98.27a4.15,4.15,0,0,0-.83.07,2,2,0,0,0-.61.22,1,1,0,0,0-.37.37.92.92,0,0,0-.13.51,1.08,1.08,0,0,0,.13.54,1,1,0,0,0,.41.4,1.51,1.51,0,0,0,.67.14,1.79,1.79,0,0,0,.88-.21,1.91,1.91,0,0,0,.6-.52,1,1,0,0,0,.25-.59l.46.52a1.44,1.44,0,0,1-.22.55,2.33,2.33,0,0,1-.49.57,2.53,2.53,0,0,1-.71.45,2.27,2.27,0,0,1-.93.18,2.54,2.54,0,0,1-1.13-.25,2,2,0,0,1-.75-.68,1.81,1.81,0,0,1-.26-1,1.87,1.87,0,0,1,.2-.9,1.69,1.69,0,0,1,.57-.65,2.65,2.65,0,0,1,.9-.4,4.85,4.85,0,0,1,1.18-.13Zm6.71-2.5h1v6.21a2.87,2.87,0,0,1-.34,1.42,2.23,2.23,0,0,1-.95.9,3,3,0,0,1-1.4.31,3.39,3.39,0,0,1-.77-.1,3.52,3.52,0,0,1-.87-.35,2.2,2.2,0,0,1-.71-.65l.57-.64a2.24,2.24,0,0,0,.83.66,2.14,2.14,0,0,0,.87.19,1.91,1.91,0,0,0,.89-.19,1.35,1.35,0,0,0,.58-.58,1.84,1.84,0,0,0,.21-.92V91.05ZM101.7,92.9v-.12a4.49,4.49,0,0,1,.17-1.32,3.17,3.17,0,0,1,.49-1,2.33,2.33,0,0,1,.79-.65,2.26,2.26,0,0,1,1-.24,2.41,2.41,0,0,1,1,.21,2,2,0,0,1,.76.61,3,3,0,0,1,.5,1,5.62,5.62,0,0,1,.25,1.26v.54a5.13,5.13,0,0,1-.25,1.25,3,3,0,0,1-.5,1,2,2,0,0,1-.76.6,2.46,2.46,0,0,1-1,.21,2.24,2.24,0,0,1-1-.24,2.4,2.4,0,0,1-.78-.68,3,3,0,0,1-.5-1A4.36,4.36,0,0,1,101.7,92.9Zm1.08-.12v.12a4.19,4.19,0,0,0,.09.89,2.54,2.54,0,0,0,.3.73,1.55,1.55,0,0,0,.52.5,1.53,1.53,0,0,0,.76.18,1.61,1.61,0,0,0,.89-.23,1.7,1.7,0,0,0,.56-.6,3.25,3.25,0,0,0,.32-.82V92.14a2.62,2.62,0,0,0-.19-.62,1.84,1.84,0,0,0-.34-.54,1.48,1.48,0,0,0-.51-.38,1.65,1.65,0,0,0-.72-.14,1.57,1.57,0,0,0-.77.18,1.58,1.58,0,0,0-.52.51,2.61,2.61,0,0,0-.3.74A4.13,4.13,0,0,0,102.78,92.78Zm10-3.12h1v6.21a2.77,2.77,0,0,1-.34,1.42,2.12,2.12,0,0,1-1,.9,2.94,2.94,0,0,1-1.39.31,3.32,3.32,0,0,1-.77-.1,3.24,3.24,0,0,1-.87-.35,2.2,2.2,0,0,1-.71-.65l.57-.64a2.16,2.16,0,0,0,.83.66,2.1,2.1,0,0,0,.87.19,1.91,1.91,0,0,0,.89-.19,1.35,1.35,0,0,0,.58-.58,1.84,1.84,0,0,0,.21-.92V91.05Zm-4.37,3.24v-.12a4.86,4.86,0,0,1,.17-1.32,3.41,3.41,0,0,1,.5-1,2.28,2.28,0,0,1,1.84-.89,2.44,2.44,0,0,1,1,.21,2,2,0,0,1,.76.61,3,3,0,0,1,.5,1,6.24,6.24,0,0,1,.25,1.26v.54a5.64,5.64,0,0,1-.25,1.25,3,3,0,0,1-.5,1,2.11,2.11,0,0,1-.76.6,2.47,2.47,0,0,1-1.06.21,2.23,2.23,0,0,1-1-.24,2.4,2.4,0,0,1-.78-.68,3.25,3.25,0,0,1-.51-1A4.72,4.72,0,0,1,108.43,92.9Zm1.09-.12v.12a4.19,4.19,0,0,0,.09.89,2.54,2.54,0,0,0,.3.73,1.55,1.55,0,0,0,.52.5,1.5,1.5,0,0,0,.76.18,1.63,1.63,0,0,0,.89-.23,1.7,1.7,0,0,0,.56-.6,3.25,3.25,0,0,0,.32-.82V92.14a2.64,2.64,0,0,0-.2-.62,1.66,1.66,0,0,0-.34-.54,1.32,1.32,0,0,0-.51-.38,1.52,1.52,0,0,0-2,.55,2.61,2.61,0,0,0-.3.74A4.13,4.13,0,0,0,109.52,92.78Zm8.54,3.34a3.09,3.09,0,0,1-1.2-.23,2.69,2.69,0,0,1-.92-.63,3,3,0,0,1-.59-1,3.69,3.69,0,0,1-.2-1.23v-.24a3.7,3.7,0,0,1,.23-1.38,3,3,0,0,1,.62-1,2.62,2.62,0,0,1,1.92-.86,2.66,2.66,0,0,1,1.17.24,2.1,2.1,0,0,1,.82.65,3,3,0,0,1,.47,1,4.71,4.71,0,0,1,.15,1.23v.48h-4.74v-.88h3.65v-.08a2.55,2.55,0,0,0-.17-.82,1.51,1.51,0,0,0-.47-.66,1.4,1.4,0,0,0-.88-.26,1.55,1.55,0,0,0-.68.16,1.45,1.45,0,0,0-.53.46,2.21,2.21,0,0,0-.35.74,3.91,3.91,0,0,0-.12,1v.24a2.91,2.91,0,0,0,.12.85,2.29,2.29,0,0,0,.37.69,1.68,1.68,0,0,0,.59.47,1.74,1.74,0,0,0,.8.17,1.93,1.93,0,0,0,1-.23,2.46,2.46,0,0,0,.7-.63l.66.52a2.65,2.65,0,0,1-.53.59,2.48,2.48,0,0,1-.78.46A2.91,2.91,0,0,1,118.06,96.12Zm7.73-1.35V87h1.09v9h-1Zm-4.27-1.87v-.12a4.48,4.48,0,0,1,.18-1.32,3.2,3.2,0,0,1,.51-1,2.33,2.33,0,0,1,.79-.65,2.2,2.2,0,0,1,1-.24,2.38,2.38,0,0,1,1,.21,2,2,0,0,1,.77.61,2.94,2.94,0,0,1,.49,1,5.6,5.6,0,0,1,.26,1.26v.54a5.63,5.63,0,0,1-.26,1.25,2.94,2.94,0,0,1-.49,1,2.06,2.06,0,0,1-.77.6,2.46,2.46,0,0,1-1,.21,2.19,2.19,0,0,1-1-.24,2.43,2.43,0,0,1-.79-.68,3.25,3.25,0,0,1-.51-1A4.35,4.35,0,0,1,121.52,92.9Zm1.09-.12v.12a3.62,3.62,0,0,0,.1.89,2.29,2.29,0,0,0,.3.73,1.55,1.55,0,0,0,.52.5,1.53,1.53,0,0,0,.76.18,1.57,1.57,0,0,0,.88-.23,1.64,1.64,0,0,0,.57-.6,3.25,3.25,0,0,0,.32-.82V92.14a2.64,2.64,0,0,0-.2-.62,1.84,1.84,0,0,0-.34-.54,1.48,1.48,0,0,0-.51-.38,1.52,1.52,0,0,0-2,.55,2.35,2.35,0,0,0-.3.74A3.57,3.57,0,0,0,122.61,92.78ZM15.12,103.66v.83H11.69v-.83Zm-2.27-1.54h1.08v6.31a1.06,1.06,0,0,0,.1.49.47.47,0,0,0,.26.21,1,1,0,0,0,.34.06l.28,0,.23,0V110l-.34.08a3.49,3.49,0,0,1-.5,0,1.74,1.74,0,0,1-.73-.16,1.2,1.2,0,0,1-.54-.53,2.19,2.19,0,0,1-.19-1ZM17.47,101v9H16.39v-9Zm-.26,5.59-.45,0a3.87,3.87,0,0,1,.2-1.2,3.11,3.11,0,0,1,.52-1,2.38,2.38,0,0,1,1.86-.86,2.81,2.81,0,0,1,.85.13,1.48,1.48,0,0,1,.63.4,1.68,1.68,0,0,1,.41.72,3.24,3.24,0,0,1,.14,1.06V110H20.29v-4.17a1.76,1.76,0,0,0-.15-.79.88.88,0,0,0-.43-.44,1.47,1.47,0,0,0-.69-.14,1.52,1.52,0,0,0-.74.17,1.71,1.71,0,0,0-.57.47,2.33,2.33,0,0,0-.37.68A2.69,2.69,0,0,0,17.21,106.59Zm8.42,3.53a3.09,3.09,0,0,1-1.2-.23,2.69,2.69,0,0,1-.92-.63,2.85,2.85,0,0,1-.59-1,3.69,3.69,0,0,1-.2-1.23v-.24a3.7,3.7,0,0,1,.23-1.38,2.87,2.87,0,0,1,.62-1,2.53,2.53,0,0,1,.89-.64,2.45,2.45,0,0,1,1-.22,2.66,2.66,0,0,1,1.17.24,2.07,2.07,0,0,1,.81.65,2.67,2.67,0,0,1,.47,1,4.7,4.7,0,0,1,.16,1.23v.49H23.36v-.89H27v-.08a2.55,2.55,0,0,0-.17-.82,1.51,1.51,0,0,0-.47-.66,1.4,1.4,0,0,0-.88-.26,1.55,1.55,0,0,0-.68.16,1.37,1.37,0,0,0-.53.46,2.21,2.21,0,0,0-.35.74,3.91,3.91,0,0,0-.12,1v.24a2.91,2.91,0,0,0,.12.85,2.29,2.29,0,0,0,.37.69,1.68,1.68,0,0,0,.59.47,1.71,1.71,0,0,0,.8.17,2,2,0,0,0,1-.23,2.46,2.46,0,0,0,.7-.63l.65.52a2.59,2.59,0,0,1-.52.59,2.48,2.48,0,0,1-.78.46A2.91,2.91,0,0,1,25.63,110.12Zm10.45-1.2v-3.27a1.25,1.25,0,0,0-.16-.65.92.92,0,0,0-.44-.43,1.91,1.91,0,0,0-1.46,0,1.19,1.19,0,0,0-.48.37.81.81,0,0,0-.17.49H32.29a1.43,1.43,0,0,1,.17-.68,2.16,2.16,0,0,1,.5-.6,2.56,2.56,0,0,1,.8-.43,3.11,3.11,0,0,1,1-.17,2.89,2.89,0,0,1,1.22.24,1.77,1.77,0,0,1,.84.71,2.12,2.12,0,0,1,.3,1.17v3a5.43,5.43,0,0,0,.05.67,3.07,3.07,0,0,0,.17.62V110H36.25a2.24,2.24,0,0,1-.13-.5A4,4,0,0,1,36.08,108.92Zm.18-2.76,0,.76h-1.1a4.21,4.21,0,0,0-.83.07,2,2,0,0,0-.61.22,1.09,1.09,0,0,0-.37.37.92.92,0,0,0-.13.51,1.27,1.27,0,0,0,.13.55,1,1,0,0,0,.41.39,1.51,1.51,0,0,0,.67.14,1.76,1.76,0,0,0,.88-.21,1.85,1.85,0,0,0,.61-.52,1.09,1.09,0,0,0,.24-.59l.46.52a1.44,1.44,0,0,1-.22.55,2.74,2.74,0,0,1-.48.57,2.59,2.59,0,0,1-.72.45,2.27,2.27,0,0,1-.93.18,2.44,2.44,0,0,1-1.13-.26,1.88,1.88,0,0,1-.75-.67,1.81,1.81,0,0,1-.26-1,2,2,0,0,1,.2-.9,1.69,1.69,0,0,1,.57-.65,2.62,2.62,0,0,1,.91-.4,4.71,4.71,0,0,1,1.17-.13Zm4.21,2.71,1.63-5.21h.71l-.14,1L41,110h-.7Zm-1.1-5.21,1.39,5.27.1,1.07h-.73l-1.84-6.34Zm5,5.23,1.33-5.23h1.08L44.94,110h-.73ZM43,103.66l1.6,5.13.18,1.21h-.69l-1.71-5.31-.14-1Zm8.66,5.26v-3.27a1.25,1.25,0,0,0-.16-.65.92.92,0,0,0-.44-.43,1.91,1.91,0,0,0-1.46,0,1.19,1.19,0,0,0-.48.37.81.81,0,0,0-.17.49H47.84a1.43,1.43,0,0,1,.17-.68,2,2,0,0,1,.51-.6,2.4,2.4,0,0,1,.79-.43,3.12,3.12,0,0,1,1-.17,2.87,2.87,0,0,1,1.21.24,1.77,1.77,0,0,1,.84.71,2.12,2.12,0,0,1,.3,1.17v3a5.43,5.43,0,0,0,0,.67,3.07,3.07,0,0,0,.17.62V110H51.8a3,3,0,0,1-.13-.5A4,4,0,0,1,51.63,108.92Zm.18-2.76,0,.76h-1.1a4.21,4.21,0,0,0-.83.07,2,2,0,0,0-.61.22,1.09,1.09,0,0,0-.37.37.92.92,0,0,0-.13.51,1.15,1.15,0,0,0,.14.55,1,1,0,0,0,.4.39,1.51,1.51,0,0,0,.67.14,1.76,1.76,0,0,0,.88-.21,1.85,1.85,0,0,0,.61-.52,1.09,1.09,0,0,0,.24-.59l.47.52a1.66,1.66,0,0,1-.23.55,2.74,2.74,0,0,1-.48.57,2.59,2.59,0,0,1-.72.45,2.25,2.25,0,0,1-.92.18,2.46,2.46,0,0,1-1.14-.26,1.88,1.88,0,0,1-.75-.67,1.81,1.81,0,0,1-.26-1,2,2,0,0,1,.2-.9,1.69,1.69,0,0,1,.57-.65,2.7,2.7,0,0,1,.91-.4,4.71,4.71,0,0,1,1.17-.13Zm3.69-1.5V110H54.42v-6.34h1Zm2-1v1l-.25,0H57a1.69,1.69,0,0,0-.66.11,1.32,1.32,0,0,0-.49.33,1.64,1.64,0,0,0-.32.51,2.42,2.42,0,0,0-.14.63l-.31.17a5.17,5.17,0,0,1,.11-1.07,3,3,0,0,1,.36-.9,1.67,1.67,0,0,1,.61-.6,1.71,1.71,0,0,1,.89-.23l.27,0Zm4.88,5.15V101h1.09v9h-1ZM58.1,106.9v-.12a4.49,4.49,0,0,1,.17-1.32,3.2,3.2,0,0,1,.51-1,2.33,2.33,0,0,1,.79-.65,2.2,2.2,0,0,1,1-.24,2.46,2.46,0,0,1,1,.21,2,2,0,0,1,.76.61,3,3,0,0,1,.5,1,6.24,6.24,0,0,1,.25,1.26v.54a5.64,5.64,0,0,1-.25,1.25,3,3,0,0,1-.5,1,2.11,2.11,0,0,1-.76.6,2.51,2.51,0,0,1-1.06.21,2.19,2.19,0,0,1-1-.24,2.43,2.43,0,0,1-.79-.68,3.25,3.25,0,0,1-.51-1A4.36,4.36,0,0,1,58.1,106.9Zm1.09-.12v.12a4.19,4.19,0,0,0,.09.89,2.54,2.54,0,0,0,.3.73,1.46,1.46,0,0,0,1.28.68,1.61,1.61,0,0,0,.89-.23,1.73,1.73,0,0,0,.56-.61,3.62,3.62,0,0,0,.33-.81v-1.41a3.23,3.23,0,0,0-.21-.62,1.77,1.77,0,0,0-.34-.54,1.32,1.32,0,0,0-.51-.38,1.55,1.55,0,0,0-.71-.14,1.44,1.44,0,0,0-1.29.69,2.61,2.61,0,0,0-.3.74A4.13,4.13,0,0,0,59.19,106.78ZM69.73,110H68.65v-7a2.51,2.51,0,0,1,.24-1.15,1.64,1.64,0,0,1,.73-.72,2.39,2.39,0,0,1,1.11-.24l.37,0,.38.07-.06.89-.28,0h-.31a1.2,1.2,0,0,0-.59.14.92.92,0,0,0-.38.4,1.57,1.57,0,0,0-.13.65Zm1.35-6.34v.83H67.65v-.83ZM72,106.9v-.13a4.09,4.09,0,0,1,.2-1.28,3,3,0,0,1,.57-1,2.65,2.65,0,0,1,.91-.68,3,3,0,0,1,2.4,0,2.56,2.56,0,0,1,.91.68,2.86,2.86,0,0,1,.58,1,3.82,3.82,0,0,1,.2,1.28v.13a3.72,3.72,0,0,1-.2,1.27,3,3,0,0,1-.58,1,2.69,2.69,0,0,1-.91.68,2.84,2.84,0,0,1-3.31-.68,3.14,3.14,0,0,1-.57-1A4,4,0,0,1,72,106.9Zm1.08-.13v.13a3.26,3.26,0,0,0,.12.9,2.36,2.36,0,0,0,.33.74,1.61,1.61,0,0,0,.57.5,1.54,1.54,0,0,0,.79.19,1.5,1.5,0,0,0,.78-.19,1.67,1.67,0,0,0,.56-.5,2.36,2.36,0,0,0,.33-.74,3.26,3.26,0,0,0,.12-.9v-.13a3.19,3.19,0,0,0-.12-.89,2,2,0,0,0-.34-.74,1.55,1.55,0,0,0-.56-.52,1.61,1.61,0,0,0-.78-.19,1.68,1.68,0,0,0-.79.19,1.74,1.74,0,0,0-.56.52,2.17,2.17,0,0,0-.33.74A3.19,3.19,0,0,0,73.08,106.77Zm7.13-2.11V110H79.13v-6.34h1.06Zm2-1v1l-.26,0h-.27a1.69,1.69,0,0,0-.66.11,1.51,1.51,0,0,0-.49.33,1.62,1.62,0,0,0-.31.51,2.08,2.08,0,0,0-.15.63l-.3.17a4.57,4.57,0,0,1,.11-1.07,3,3,0,0,1,.35-.9,1.75,1.75,0,0,1,.61-.6,1.71,1.71,0,0,1,.89-.23l.27,0Zm7.85,4.92v-4.88h1.09V110h-1Zm.21-1.34h.45a4.81,4.81,0,0,1-.14,1.17,2.47,2.47,0,0,1-.42.93,2,2,0,0,1-.77.61,2.81,2.81,0,0,1-1.15.22,2.57,2.57,0,0,1-.85-.14,1.65,1.65,0,0,1-1.08-1.15,3.43,3.43,0,0,1-.15-1.08v-4.09h1.08v4.1a2.33,2.33,0,0,0,.1.71,1.12,1.12,0,0,0,.26.44.92.92,0,0,0,.38.22,1.25,1.25,0,0,0,.43.07,2,2,0,0,0,1.1-.27,1.52,1.52,0,0,0,.58-.72A2.71,2.71,0,0,0,90.26,107.2Zm3.62-2.54V110H92.79v-6.34h1.06Zm2-1v1l-.25,0h-.27a1.78,1.78,0,0,0-.67.11,1.37,1.37,0,0,0-.48.33,1.48,1.48,0,0,0-.32.51,2.91,2.91,0,0,0-.15.63l-.3.17a5.17,5.17,0,0,1,.11-1.07,3,3,0,0,1,.36-.9,1.67,1.67,0,0,1,.61-.6,1.71,1.71,0,0,1,.89-.23l.27,0Zm1-2.62H98v7.77l-.1,1.23h-1Zm5.37,5.78v.12a4.72,4.72,0,0,1-.17,1.28,2.83,2.83,0,0,1-.48,1,2.13,2.13,0,0,1-1.82.92,2.54,2.54,0,0,1-1.06-.21,2.11,2.11,0,0,1-.76-.6,3.17,3.17,0,0,1-.5-1,6.28,6.28,0,0,1-.25-1.25v-.54a6.24,6.24,0,0,1,.25-1.26,3.17,3.17,0,0,1,.5-1,2,2,0,0,1,.76-.61,2.46,2.46,0,0,1,1-.21,2.27,2.27,0,0,1,1.06.24,2,2,0,0,1,.77.65,2.8,2.8,0,0,1,.48,1A4.86,4.86,0,0,1,102.23,106.78Zm-1.09.12v-.12a4.13,4.13,0,0,0-.09-.89,2.33,2.33,0,0,0-.28-.74,1.46,1.46,0,0,0-.51-.51,1.55,1.55,0,0,0-.78-.18,1.58,1.58,0,0,0-.71.14,1.48,1.48,0,0,0-.51.38,2,2,0,0,0-.35.54,2.62,2.62,0,0,0-.19.62v1.41a2.92,2.92,0,0,0,.3.79,1.91,1.91,0,0,0,.58.62,1.58,1.58,0,0,0,.89.24,1.39,1.39,0,0,0,1.26-.68,2.29,2.29,0,0,0,.3-.73A4.19,4.19,0,0,0,101.14,106.9Zm6.2,2v-3.27a1.36,1.36,0,0,0-.15-.65,1,1,0,0,0-.45-.43,1.62,1.62,0,0,0-.74-.15,1.65,1.65,0,0,0-.72.14,1.19,1.19,0,0,0-.48.37.81.81,0,0,0-.17.49h-1.08a1.55,1.55,0,0,1,.17-.68,2,2,0,0,1,.51-.6,2.5,2.5,0,0,1,.79-.43,3.17,3.17,0,0,1,1-.17,3,3,0,0,1,1.22.24,1.8,1.8,0,0,1,.83.71,2.12,2.12,0,0,1,.3,1.17v3a5.43,5.43,0,0,0,0,.67,3.07,3.07,0,0,0,.17.62V110h-1.13a2.29,2.29,0,0,1-.12-.5A3,3,0,0,1,107.34,108.92Zm.19-2.76v.76h-1.1a4,4,0,0,0-.82.07,1.81,1.81,0,0,0-.61.22,1,1,0,0,0-.38.37,1,1,0,0,0-.13.51,1.15,1.15,0,0,0,.14.55,1,1,0,0,0,.4.39,1.52,1.52,0,0,0,.68.14,1.75,1.75,0,0,0,.87-.21,1.85,1.85,0,0,0,.61-.52,1.09,1.09,0,0,0,.24-.59l.47.52a1.47,1.47,0,0,1-.23.55,2.74,2.74,0,0,1-.48.57,2.59,2.59,0,0,1-.72.45,2.25,2.25,0,0,1-.92.18,2.39,2.39,0,0,1-1.13-.26,1.88,1.88,0,0,1-.75-.67,1.73,1.73,0,0,1-.27-1,2,2,0,0,1,.2-.9,1.72,1.72,0,0,1,.58-.65,2.65,2.65,0,0,1,.9-.4,4.74,4.74,0,0,1,1.18-.13Zm3.68-1.15v5h-1.08v-6.34h1Zm-.26,1.58-.45,0a3.87,3.87,0,0,1,.2-1.2,3.11,3.11,0,0,1,.52-1,2.38,2.38,0,0,1,1.86-.86,2.74,2.74,0,0,1,.84.13,1.52,1.52,0,0,1,.64.4,1.68,1.68,0,0,1,.41.72,3.24,3.24,0,0,1,.14,1.06V110H114v-4.17a1.93,1.93,0,0,0-.14-.79.88.88,0,0,0-.43-.44,1.47,1.47,0,0,0-.69-.14,1.52,1.52,0,0,0-.74.17,1.71,1.71,0,0,0-.57.47,2.33,2.33,0,0,0-.37.68A2.69,2.69,0,0,0,111,106.59ZM27.48,117.66v.83H24.05v-.83Zm-2.27-1.54H26.3v6.31a.94.94,0,0,0,.1.49.42.42,0,0,0,.25.21,1,1,0,0,0,.34.06l.29,0,.22,0V124l-.34.08a3.37,3.37,0,0,1-.5,0,1.77,1.77,0,0,1-.73-.16,1.18,1.18,0,0,1-.53-.53,2.18,2.18,0,0,1-.2-1Zm4.63,2.54V124H28.75v-6.34h1.06Zm2-1v1l-.26,0h-.27a1.69,1.69,0,0,0-.66.11,1.51,1.51,0,0,0-.49.33,1.62,1.62,0,0,0-.31.51,2.42,2.42,0,0,0-.15.63l-.3.17a4.57,4.57,0,0,1,.11-1.07,3,3,0,0,1,.36-.9,1.71,1.71,0,0,1,1.5-.83l.27,0Zm4.5,5.3v-3.27a1.36,1.36,0,0,0-.15-.65,1,1,0,0,0-.45-.43,1.58,1.58,0,0,0-.73-.15,1.6,1.6,0,0,0-.72.14,1.07,1.07,0,0,0-.48.37.75.75,0,0,0-.17.49H32.53a1.44,1.44,0,0,1,.18-.68,1.86,1.86,0,0,1,.5-.6,2.45,2.45,0,0,1,.8-.43,3.11,3.11,0,0,1,1-.17,2.92,2.92,0,0,1,1.22.24,1.8,1.8,0,0,1,.83.71,2.12,2.12,0,0,1,.31,1.17v3a4,4,0,0,0,.05.67,2.53,2.53,0,0,0,.17.62V124H36.5a1.8,1.8,0,0,1-.13-.5A4.13,4.13,0,0,1,36.32,122.92Zm.19-2.76v.76H35.43a4.15,4.15,0,0,0-.83.07,1.9,1.9,0,0,0-.61.22,1,1,0,0,0-.37.37.92.92,0,0,0-.13.51,1.14,1.14,0,0,0,.13.55A1,1,0,0,0,34,123a1.48,1.48,0,0,0,.67.14,1.82,1.82,0,0,0,.88-.21,1.91,1.91,0,0,0,.6-.52,1.11,1.11,0,0,0,.25-.59l.46.52a1.62,1.62,0,0,1-.22.55,2.81,2.81,0,0,1-.49.57,2.69,2.69,0,0,1-.71.45,2.34,2.34,0,0,1-.93.18,2.39,2.39,0,0,1-1.13-.26,1.88,1.88,0,0,1-.75-.67,1.72,1.72,0,0,1-.26-1,1.87,1.87,0,0,1,.2-.9,1.69,1.69,0,0,1,.57-.65,2.65,2.65,0,0,1,.9-.4,4.79,4.79,0,0,1,1.18-.13ZM40.2,119v5H39.11v-6.34h1Zm-.26,1.58-.45,0a3.59,3.59,0,0,1,.19-1.2,2.94,2.94,0,0,1,.53-1,2.28,2.28,0,0,1,.81-.63,2.37,2.37,0,0,1,1-.23,2.76,2.76,0,0,1,.85.13,1.58,1.58,0,0,1,.64.4,1.79,1.79,0,0,1,.41.72,3.54,3.54,0,0,1,.14,1.06V124H43v-4.17a1.76,1.76,0,0,0-.15-.79.88.88,0,0,0-.43-.44,1.41,1.41,0,0,0-.69-.14,1.55,1.55,0,0,0-.74.17,1.78,1.78,0,0,0-.56.47,2.12,2.12,0,0,0-.37.68A2.41,2.41,0,0,0,39.94,120.59Zm9.5,1.73a.89.89,0,0,0-.11-.43.87.87,0,0,0-.42-.37,3.06,3.06,0,0,0-.93-.3,7,7,0,0,1-1-.26,3,3,0,0,1-.72-.37,1.67,1.67,0,0,1-.45-.51,1.35,1.35,0,0,1-.16-.69,1.54,1.54,0,0,1,.17-.7,1.92,1.92,0,0,1,.47-.6,2.5,2.5,0,0,1,.74-.4,3,3,0,0,1,1-.15,2.87,2.87,0,0,1,1.3.27,2,2,0,0,1,.83.72,1.82,1.82,0,0,1,.29,1H49.37a.93.93,0,0,0-.16-.51,1.2,1.2,0,0,0-.45-.41,1.42,1.42,0,0,0-.72-.17,1.69,1.69,0,0,0-.73.14,1,1,0,0,0-.41.35.88.88,0,0,0-.12.44.79.79,0,0,0,.06.32.64.64,0,0,0,.22.25,1.58,1.58,0,0,0,.45.21,4.89,4.89,0,0,0,.73.2,5.61,5.61,0,0,1,1.28.43,1.78,1.78,0,0,1,.75.6,1.46,1.46,0,0,1,.25.87,1.64,1.64,0,0,1-.18.76,1.75,1.75,0,0,1-.49.6,2.58,2.58,0,0,1-.78.38,3.4,3.4,0,0,1-1,.14,3.07,3.07,0,0,1-1.42-.3,2.24,2.24,0,0,1-.88-.78,1.83,1.83,0,0,1-.3-1h1.09a1.17,1.17,0,0,0,.26.71,1.32,1.32,0,0,0,.58.37,2.24,2.24,0,0,0,.67.11,1.94,1.94,0,0,0,.74-.12,1.12,1.12,0,0,0,.47-.32A.81.81,0,0,0,49.44,122.32ZM53.56,124H52.48v-7a2.51,2.51,0,0,1,.24-1.15,1.67,1.67,0,0,1,.72-.72,2.46,2.46,0,0,1,1.12-.24l.37,0,.38.07-.06.89-.28,0h-.31a1.27,1.27,0,0,0-.6.14,1,1,0,0,0-.37.4,1.42,1.42,0,0,0-.13.65Zm1.35-6.34v.83H51.47v-.83Zm.92,3.24v-.13a3.82,3.82,0,0,1,.2-1.28,3,3,0,0,1,.57-1,2.56,2.56,0,0,1,.91-.68,2.74,2.74,0,0,1,1.2-.25,2.77,2.77,0,0,1,1.2.25,2.56,2.56,0,0,1,.91.68,3,3,0,0,1,.58,1,4.09,4.09,0,0,1,.2,1.28v.13a4,4,0,0,1-.2,1.27,3.16,3.16,0,0,1-.58,1,2.69,2.69,0,0,1-.91.68,2.84,2.84,0,0,1-3.31-.68,3.14,3.14,0,0,1-.57-1A3.72,3.72,0,0,1,55.83,120.9Zm1.08-.13v.13a3.7,3.7,0,0,0,.11.9,2.63,2.63,0,0,0,.34.74,1.61,1.61,0,0,0,.57.5,1.72,1.72,0,0,0,1.57,0,1.67,1.67,0,0,0,.56-.5,2.36,2.36,0,0,0,.33-.74,3.26,3.26,0,0,0,.12-.9v-.13a3.19,3.19,0,0,0-.12-.89,2,2,0,0,0-.34-.74,1.64,1.64,0,0,0-.56-.52,1.61,1.61,0,0,0-.78-.19,1.68,1.68,0,0,0-.79.19,1.74,1.74,0,0,0-.56.52,2.4,2.4,0,0,0-.34.74A3.62,3.62,0,0,0,56.91,120.77ZM64,118.66V124H63v-6.34H64Zm2-1v1l-.26,0h-.27a1.69,1.69,0,0,0-.66.11,1.41,1.41,0,0,0-.49.33,1.45,1.45,0,0,0-.31.51,2.08,2.08,0,0,0-.15.63l-.31.17a4.55,4.55,0,0,1,.12-1.07,2.77,2.77,0,0,1,.35-.9,1.75,1.75,0,0,1,.61-.6,1.71,1.71,0,0,1,.89-.23l.27,0Zm2.08,1.3V124H67v-6.34h1Zm-.22,1.67-.5,0a4.19,4.19,0,0,1,.17-1.2,3,3,0,0,1,.48-1,2.28,2.28,0,0,1,.81-.63,2.59,2.59,0,0,1,1.11-.23,2.66,2.66,0,0,1,.82.13,1.71,1.71,0,0,1,.65.39,1.81,1.81,0,0,1,.43.7,3,3,0,0,1,.15,1V124H70.92v-4.17a1.67,1.67,0,0,0-.17-.8,1,1,0,0,0-.47-.43,1.62,1.62,0,0,0-.72-.14,1.61,1.61,0,0,0-.8.17,1.31,1.31,0,0,0-.52.47,2.21,2.21,0,0,0-.28.68A4.2,4.2,0,0,0,67.88,120.59ZM72,120l-.73.22a3.38,3.38,0,0,1,.17-1,2.66,2.66,0,0,1,.49-.85,2.22,2.22,0,0,1,.79-.59,2.44,2.44,0,0,1,1.07-.23,2.74,2.74,0,0,1,.9.14,1.68,1.68,0,0,1,.67.41,1.79,1.79,0,0,1,.42.71,3.51,3.51,0,0,1,.14,1V124H74.82v-4.18a1.67,1.67,0,0,0-.17-.82.91.91,0,0,0-.47-.42,1.94,1.94,0,0,0-.72-.12,1.61,1.61,0,0,0-.63.12,1.32,1.32,0,0,0-.46.34,1.42,1.42,0,0,0-.29.49A1.85,1.85,0,0,0,72,120Zm9.3,2.93v-3.27a1.25,1.25,0,0,0-.16-.65.92.92,0,0,0-.44-.43,1.91,1.91,0,0,0-1.46,0,1.19,1.19,0,0,0-.48.37.81.81,0,0,0-.17.49H77.5a1.43,1.43,0,0,1,.17-.68,2,2,0,0,1,.51-.6,2.4,2.4,0,0,1,.79-.43,3.17,3.17,0,0,1,1-.17,2.87,2.87,0,0,1,1.21.24,1.77,1.77,0,0,1,.84.71,2.12,2.12,0,0,1,.3,1.17v3a5.43,5.43,0,0,0,0,.67,3.07,3.07,0,0,0,.17.62V124H81.46a3,3,0,0,1-.13-.5A4,4,0,0,1,81.29,122.92Zm.18-2.76,0,.76h-1.1a4.21,4.21,0,0,0-.83.07,1.83,1.83,0,0,0-.6.22,1,1,0,0,0-.38.37.92.92,0,0,0-.13.51,1.15,1.15,0,0,0,.14.55,1,1,0,0,0,.4.39,1.51,1.51,0,0,0,.67.14,1.76,1.76,0,0,0,.88-.21,1.85,1.85,0,0,0,.61-.52,1.09,1.09,0,0,0,.24-.59l.47.52a1.66,1.66,0,0,1-.23.55,2.74,2.74,0,0,1-.48.57,2.59,2.59,0,0,1-.72.45,2.25,2.25,0,0,1-.92.18,2.46,2.46,0,0,1-1.14-.26,1.88,1.88,0,0,1-.75-.67,1.81,1.81,0,0,1-.26-1,2,2,0,0,1,.2-.9,1.69,1.69,0,0,1,.57-.65,2.7,2.7,0,0,1,.91-.4,4.71,4.71,0,0,1,1.17-.13Zm5.26-2.5v.83H83.3v-.83Zm-2.27-1.54h1.09v6.31a.94.94,0,0,0,.1.49.42.42,0,0,0,.25.21,1,1,0,0,0,.34.06l.29,0,.22,0V124l-.34.08a3.37,3.37,0,0,1-.5,0,1.77,1.77,0,0,1-.73-.16,1.18,1.18,0,0,1-.53-.53,2.18,2.18,0,0,1-.2-1Zm4.72,1.54V124H88.09v-6.34ZM88,116a.64.64,0,0,1,.16-.45.62.62,0,0,1,.48-.18.61.61,0,0,1,.47.18.64.64,0,0,1,.17.45.67.67,0,0,1-1.12.43A.6.6,0,0,1,88,116Zm2.62,4.92v-.13a4.09,4.09,0,0,1,.2-1.28,3,3,0,0,1,.58-1,2.62,2.62,0,0,1,.9-.68,2.77,2.77,0,0,1,1.2-.25,2.71,2.71,0,0,1,1.2.25,2.56,2.56,0,0,1,.91.68,3,3,0,0,1,.59,1,4.09,4.09,0,0,1,.19,1.28v.13a4,4,0,0,1-.19,1.27,3.18,3.18,0,0,1-.59,1,2.75,2.75,0,0,1-.9.68,2.86,2.86,0,0,1-1.2.24,2.92,2.92,0,0,1-1.2-.24,2.69,2.69,0,0,1-.91-.68,3.16,3.16,0,0,1-.58-1A4,4,0,0,1,90.63,120.9Zm1.09-.13v.13a3.27,3.27,0,0,0,.11.9,2.36,2.36,0,0,0,.33.74,1.61,1.61,0,0,0,.57.5,1.57,1.57,0,0,0,.79.19,1.5,1.5,0,0,0,.78-.19,1.58,1.58,0,0,0,.56-.5,2.63,2.63,0,0,0,.34-.74,3.27,3.27,0,0,0,.11-.9v-.13a3.19,3.19,0,0,0-.11-.89,2.4,2.4,0,0,0-.34-.74,1.67,1.67,0,0,0-.57-.52,1.61,1.61,0,0,0-.78-.19,1.68,1.68,0,0,0-.79.19,1.74,1.74,0,0,0-.56.52,2.17,2.17,0,0,0-.33.74A3.19,3.19,0,0,0,91.72,120.77ZM98.85,119v5H97.76v-6.34h1Zm-.26,1.58-.45,0a3.87,3.87,0,0,1,.19-1.2,3.13,3.13,0,0,1,.53-1,2.47,2.47,0,0,1,.81-.63,2.38,2.38,0,0,1,1-.23,2.74,2.74,0,0,1,.84.13,1.58,1.58,0,0,1,.64.4,1.68,1.68,0,0,1,.41.72,3.54,3.54,0,0,1,.14,1.06V124h-1.09v-4.17a1.76,1.76,0,0,0-.15-.79.86.86,0,0,0-.42-.44,1.48,1.48,0,0,0-.7-.14,1.51,1.51,0,0,0-.73.17,1.71,1.71,0,0,0-.57.47,2.12,2.12,0,0,0-.37.68A2.41,2.41,0,0,0,98.59,120.59Z"></path><path class="cls-2" d="M56.84,74.75V76h-5V74.92l2.32-3a7.79,7.79,0,0,0,.55-.85,3.1,3.1,0,0,0,.28-.65,1.87,1.87,0,0,0,.09-.56,2.2,2.2,0,0,0-.1-.67,1,1,0,0,0-.3-.45.66.66,0,0,0-.46-.16.84.84,0,0,0-.57.19,1.14,1.14,0,0,0-.33.53,2.67,2.67,0,0,0-.11.78h-1.5a3.18,3.18,0,0,1,.3-1.39,2.33,2.33,0,0,1,2.23-1.37,2.53,2.53,0,0,1,1.28.29,1.9,1.9,0,0,1,.79.82,2.69,2.69,0,0,1,.28,1.28,3.09,3.09,0,0,1-.11.8,5.27,5.27,0,0,1-.31.8,7.74,7.74,0,0,1-.49.79c-.19.27-.4.54-.64.82l-1.29,1.8ZM62.76,71v1.44a6.85,6.85,0,0,1-.17,1.68,3.53,3.53,0,0,1-.5,1.14,2,2,0,0,1-.76.65,2.31,2.31,0,0,1-1,.21,2.63,2.63,0,0,1-.8-.13,2.06,2.06,0,0,1-.68-.41,2.45,2.45,0,0,1-.51-.72,4.3,4.3,0,0,1-.33-1,7.19,7.19,0,0,1-.11-1.39V71a6.76,6.76,0,0,1,.17-1.67,3.2,3.2,0,0,1,.51-1.13,1.84,1.84,0,0,1,.76-.64,2.31,2.31,0,0,1,1-.21,2.36,2.36,0,0,1,.8.13,2,2,0,0,1,.67.4,2.27,2.27,0,0,1,.51.71,3.46,3.46,0,0,1,.33,1A7.15,7.15,0,0,1,62.76,71Zm-1.5,1.65V70.77a7,7,0,0,0,0-.84,2.91,2.91,0,0,0-.11-.61,1.3,1.3,0,0,0-.19-.41.72.72,0,0,0-.27-.23.74.74,0,0,0-.7,0,.94.94,0,0,0-.29.37,2.35,2.35,0,0,0-.19.67,7.21,7.21,0,0,0-.06,1v1.88a7.31,7.31,0,0,0,0,.86,4,4,0,0,0,.12.62,1.65,1.65,0,0,0,.19.42.73.73,0,0,0,.26.24.76.76,0,0,0,.71,0,.88.88,0,0,0,.29-.38,2.56,2.56,0,0,0,.18-.68A7.68,7.68,0,0,0,61.26,72.65Zm6.2-5.2V76H66V69.31L64.29,70V68.69l3-1.24Zm7.36,6.22A2.7,2.7,0,0,1,74.5,75a2.06,2.06,0,0,1-.86.82,2.57,2.57,0,0,1-1.23.28,2.66,2.66,0,0,1-1.24-.28,2.12,2.12,0,0,1-.86-.82A2.7,2.7,0,0,1,70,73.67a2.47,2.47,0,0,1,.18-1,2.29,2.29,0,0,1,.5-.75,2.36,2.36,0,0,1,.77-.49,2.69,2.69,0,0,1,1-.17,2.5,2.5,0,0,1,1.24.3,2.15,2.15,0,0,1,.86.83A2.42,2.42,0,0,1,74.82,73.67Zm-1.51-.1a2.1,2.1,0,0,0-.11-.7,1.06,1.06,0,0,0-.32-.46.8.8,0,0,0-1,0,1,1,0,0,0-.31.46,2.1,2.1,0,0,0-.11.7,2,2,0,0,0,.11.69,1.07,1.07,0,0,0,.31.45.81.81,0,0,0,.49.15.77.77,0,0,0,.49-.15,1.16,1.16,0,0,0,.31-.45A2,2,0,0,0,73.31,73.57Zm1.36-3.85a2.26,2.26,0,0,1-.29,1.15,2,2,0,0,1-.8.78,2.33,2.33,0,0,1-1.17.28,2.36,2.36,0,0,1-1.17-.28,2,2,0,0,1-.81-.78,2.28,2.28,0,0,1-.29-1.15,2.67,2.67,0,0,1,.29-1.29,2,2,0,0,1,.81-.81,2.46,2.46,0,0,1,1.17-.27,2.5,2.5,0,0,1,1.18.27,1.87,1.87,0,0,1,.79.81A2.67,2.67,0,0,1,74.67,69.72Zm-1.51.07a2.33,2.33,0,0,0-.08-.62.91.91,0,0,0-.26-.41.58.58,0,0,0-.41-.15.59.59,0,0,0-.41.14,1,1,0,0,0-.27.41,2.52,2.52,0,0,0,0,1.26,1,1,0,0,0,.26.42.6.6,0,0,0,.42.16.54.54,0,0,0,.41-.16.89.89,0,0,0,.26-.42A2.35,2.35,0,0,0,73.16,69.79Z"></path></svg>