<svg xmlns="http://www.w3.org/2000/svg" id="Layer_1" data-name="Layer 1" viewBox="0 0 854 480"><defs><style>.cls-1{fill:#13191d;}.cls-1,.cls-4{stroke:#55cdd5;}.cls-2{fill:#fff;}.cls-3{fill:#55cdd5;}.cls-4{fill:none;}</style></defs><rect class="cls-1" x="351.5" y="168.5" width="151" height="143"></rect><path class="cls-2" d="M414.27,269.9h.84a4.06,4.06,0,0,1-.55,1.73,3,3,0,0,1-1.23,1.12,4.18,4.18,0,0,1-1.88.39,3.66,3.66,0,0,1-1.54-.32,3.5,3.5,0,0,1-1.18-.91,4.23,4.23,0,0,1-.75-1.43,5.86,5.86,0,0,1-.27-1.83V267.4a5.86,5.86,0,0,1,.27-1.83,4,4,0,0,1,.76-1.42,3.39,3.39,0,0,1,1.2-.92,3.76,3.76,0,0,1,1.57-.32,4,4,0,0,1,1.83.39,2.85,2.85,0,0,1,1.22,1.11,4,4,0,0,1,.55,1.75h-.84a3.4,3.4,0,0,0-.42-1.37,2.13,2.13,0,0,0-.91-.85,2.94,2.94,0,0,0-1.43-.3,2.75,2.75,0,0,0-1.24.26,2.47,2.47,0,0,0-.93.77,3.44,3.44,0,0,0-.59,1.18,5.63,5.63,0,0,0-.2,1.54v1.26a5.58,5.58,0,0,0,.19,1.51,3.75,3.75,0,0,0,.56,1.19,2.68,2.68,0,0,0,.92.79,2.59,2.59,0,0,0,1.23.28,3.35,3.35,0,0,0,1.47-.28,2.1,2.1,0,0,0,.92-.85A3.61,3.61,0,0,0,414.27,269.9Zm7.2,1.77v-3.81a1.75,1.75,0,0,0-.22-.91,1.47,1.47,0,0,0-.64-.59,2.49,2.49,0,0,0-1.05-.2,2.54,2.54,0,0,0-1,.2,1.77,1.77,0,0,0-.71.54,1.21,1.21,0,0,0-.25.75h-.82a1.8,1.8,0,0,1,.2-.81,2.26,2.26,0,0,1,.59-.69,2.84,2.84,0,0,1,.89-.49,3.84,3.84,0,0,1,2.55.08,2.14,2.14,0,0,1,.95.8,2.42,2.42,0,0,1,.34,1.34v3.58a5.46,5.46,0,0,0,.06.79,3.05,3.05,0,0,0,.17.68V273h-.87a3.56,3.56,0,0,1-.13-.61A6.13,6.13,0,0,1,421.47,271.67Zm.19-3v.63h-1.6a4.84,4.84,0,0,0-1.13.12,2.33,2.33,0,0,0-.83.33,1.53,1.53,0,0,0-.53.51,1.3,1.3,0,0,0-.18.68,1.4,1.4,0,0,0,.2.73,1.51,1.51,0,0,0,.57.52,1.91,1.91,0,0,0,.89.19,2.73,2.73,0,0,0,1.21-.25,2.64,2.64,0,0,0,.87-.66,2.13,2.13,0,0,0,.45-.9l.36.48a2.44,2.44,0,0,1-.33.7,3.17,3.17,0,0,1-.61.67,3.64,3.64,0,0,1-.89.51,3.36,3.36,0,0,1-1.14.19,2.67,2.67,0,0,1-1.27-.28,2.06,2.06,0,0,1-.83-.74,2,2,0,0,1-.3-1.08,2.08,2.08,0,0,1,.23-1,2.15,2.15,0,0,1,.67-.74,3.36,3.36,0,0,1,1.07-.46,5.56,5.56,0,0,1,1.41-.17Zm3.63-1.86V273h-.81v-7.4h.79Zm2.62-1.28,0,.75-.27,0-.28,0a2.16,2.16,0,0,0-.94.2,2,2,0,0,0-.67.54,2.38,2.38,0,0,0-.41.81,3.79,3.79,0,0,0-.17,1l-.3.12a5.82,5.82,0,0,1,.15-1.35,3.58,3.58,0,0,1,.46-1.09,2.3,2.3,0,0,1,.79-.73,2.34,2.34,0,0,1,1.12-.26l.31,0Zm4,7.59a3.18,3.18,0,0,1-2.39-1,3.33,3.33,0,0,1-.69-1.15,4.3,4.3,0,0,1-.24-1.46v-.3a4.4,4.4,0,0,1,.25-1.54,3.6,3.6,0,0,1,.7-1.19,3.32,3.32,0,0,1,1-.75,3.09,3.09,0,0,1,2.46,0,2.42,2.42,0,0,1,.91.7,3.18,3.18,0,0,1,.57,1.08,4.47,4.47,0,0,1,.19,1.36v.5h-5.6v-.7h4.79v-.1a3,3,0,0,0-.26-1.16,2.09,2.09,0,0,0-.69-.89,2,2,0,0,0-1.16-.34,2.05,2.05,0,0,0-1,.22,2.15,2.15,0,0,0-.75.63,3.32,3.32,0,0,0-.48,1,4.7,4.7,0,0,0-.16,1.23v.3a3.49,3.49,0,0,0,.18,1.14,2.64,2.64,0,0,0,.52.93,2.43,2.43,0,0,0,.8.63,2.36,2.36,0,0,0,1,.23,2.67,2.67,0,0,0,1.16-.24,2.52,2.52,0,0,0,.91-.77l.51.39a3.09,3.09,0,0,1-.6.66,2.69,2.69,0,0,1-.85.48A3.45,3.45,0,0,1,431.92,273.14Zm7.24,0a3.23,3.23,0,0,1-1.33-.27,3.41,3.41,0,0,1-1.06-.75,3.67,3.67,0,0,1-.69-1.15,4.3,4.3,0,0,1-.23-1.46v-.3a4.4,4.4,0,0,1,.25-1.54,3.6,3.6,0,0,1,.7-1.19,3.21,3.21,0,0,1,1-.75,3.07,3.07,0,0,1,2.45,0,2.45,2.45,0,0,1,.92.7,3,3,0,0,1,.56,1.08,4.46,4.46,0,0,1,.2,1.36v.5h-5.6v-.7h4.78v-.1a3,3,0,0,0-.25-1.16,2.19,2.19,0,0,0-.7-.89,1.94,1.94,0,0,0-1.16-.34,2.08,2.08,0,0,0-1,.22,2.21,2.21,0,0,0-.74.63,2.88,2.88,0,0,0-.48,1,4.31,4.31,0,0,0-.16,1.23v.3a3.78,3.78,0,0,0,.17,1.14,3,3,0,0,0,.52.93,2.47,2.47,0,0,0,.81.63,2.33,2.33,0,0,0,1,.23,2.7,2.7,0,0,0,1.16-.24,2.52,2.52,0,0,0,.91-.77l.51.39a3.09,3.09,0,0,1-.6.66,2.75,2.75,0,0,1-.86.48A3.41,3.41,0,0,1,439.16,273.14Zm5.2-6.31V273h-.81v-7.4h.79Zm2.62-1.28,0,.75-.27,0-.28,0a2.12,2.12,0,0,0-.93.2,1.86,1.86,0,0,0-.67.54,2.4,2.4,0,0,0-.42.81,3.79,3.79,0,0,0-.16,1l-.3.12a5.82,5.82,0,0,1,.15-1.35,3.57,3.57,0,0,1,.45-1.09,2.39,2.39,0,0,1,.79-.73,2.34,2.34,0,0,1,1.12-.26l.31,0Zm-56.13,22.12v-3.81a1.86,1.86,0,0,0-.22-.91,1.5,1.5,0,0,0-.65-.59,2.47,2.47,0,0,0-1-.2,2.56,2.56,0,0,0-1,.2,1.74,1.74,0,0,0-.7.54,1.22,1.22,0,0,0-.26.75h-.81a1.68,1.68,0,0,1,.2-.81,2.23,2.23,0,0,1,.58-.69,2.78,2.78,0,0,1,.9-.49,3.51,3.51,0,0,1,1.15-.18,3.6,3.6,0,0,1,1.4.26,2.19,2.19,0,0,1,.95.8,2.51,2.51,0,0,1,.34,1.34v3.58a7.29,7.29,0,0,0,0,.79,3.05,3.05,0,0,0,.17.68V289H391a2.81,2.81,0,0,1-.13-.61A6.13,6.13,0,0,1,390.85,287.67Zm.19-3v.63h-1.61a4.75,4.75,0,0,0-1.12.12,2.46,2.46,0,0,0-.84.33,1.62,1.62,0,0,0-.53.51,1.4,1.4,0,0,0-.17.68,1.32,1.32,0,0,0,.2.73,1.37,1.37,0,0,0,.57.52,1.91,1.91,0,0,0,.89.19,2.68,2.68,0,0,0,1.2-.25,2.64,2.64,0,0,0,.87-.66,2.15,2.15,0,0,0,.46-.9l.35.48a2.44,2.44,0,0,1-.33.7,2.87,2.87,0,0,1-.6.67,3.64,3.64,0,0,1-.89.51,3.42,3.42,0,0,1-1.15.19,2.73,2.73,0,0,1-1.27-.28,2.13,2.13,0,0,1-.83-.74A2,2,0,0,1,386,287a2.08,2.08,0,0,1,.23-1,2.05,2.05,0,0,1,.67-.74,3.27,3.27,0,0,1,1.07-.46,5.48,5.48,0,0,1,1.4-.17Zm7.62,2.87V278.5h.82V289h-.77Zm-5.14-2.18v-.15a5.71,5.71,0,0,1,.2-1.55,3.76,3.76,0,0,1,.57-1.19,2.62,2.62,0,0,1,.9-.76,2.7,2.7,0,0,1,1.19-.26,2.91,2.91,0,0,1,1.15.21,2.37,2.37,0,0,1,.86.61,3.17,3.17,0,0,1,.58.94,5,5,0,0,1,.32,1.22v1.82a4.2,4.2,0,0,1-.3,1.16,3.07,3.07,0,0,1-.58.91,2.53,2.53,0,0,1-.87.59,3.05,3.05,0,0,1-1.17.21,2.42,2.42,0,0,1-1.18-.28,2.56,2.56,0,0,1-.9-.77,3.82,3.82,0,0,1-.57-1.2A5.52,5.52,0,0,1,393.52,285.38Zm.83-.15v.15a5.08,5.08,0,0,0,.13,1.2,2.77,2.77,0,0,0,.39,1,1.92,1.92,0,0,0,.68.65,2,2,0,0,0,1,.23,2.37,2.37,0,0,0,1.18-.27,2.22,2.22,0,0,0,.77-.72,3,3,0,0,0,.41-1v-2.13a3.66,3.66,0,0,0-.24-.73,2.16,2.16,0,0,0-.43-.69,1.79,1.79,0,0,0-.68-.52,2.31,2.31,0,0,0-1-.2,1.89,1.89,0,0,0-1.66.89,2.77,2.77,0,0,0-.39,1A5.08,5.08,0,0,0,394.35,285.23Zm9.46,3,2.37-6.61H407l-2.76,7.4h-.6Zm-2.14-6.61,2.4,6.63.13.77h-.61l-2.77-7.4Zm11.09,6.07v-3.81a1.75,1.75,0,0,0-.22-.91,1.47,1.47,0,0,0-.64-.59,2.49,2.49,0,0,0-1-.2,2.54,2.54,0,0,0-1,.2,1.77,1.77,0,0,0-.71.54,1.21,1.21,0,0,0-.25.75h-.82a1.69,1.69,0,0,1,.21-.81,2.1,2.1,0,0,1,.58-.69,2.84,2.84,0,0,1,.89-.49,3.57,3.57,0,0,1,1.16-.18,3.52,3.52,0,0,1,1.39.26,2.08,2.08,0,0,1,1,.8,2.42,2.42,0,0,1,.34,1.34v3.58a5.46,5.46,0,0,0,.06.79,3.05,3.05,0,0,0,.17.68V289h-.87a3.56,3.56,0,0,1-.13-.61A6.13,6.13,0,0,1,412.76,287.67Zm.19-3,0,.63h-1.61a4.84,4.84,0,0,0-1.13.12,2.33,2.33,0,0,0-.83.33,1.53,1.53,0,0,0-.53.51,1.3,1.3,0,0,0-.18.68,1.4,1.4,0,0,0,.2.73,1.47,1.47,0,0,0,.58.52,1.87,1.87,0,0,0,.88.19,2.73,2.73,0,0,0,1.21-.25,2.64,2.64,0,0,0,.87-.66,2.13,2.13,0,0,0,.45-.9l.36.48a2.44,2.44,0,0,1-.33.7,2.92,2.92,0,0,1-.61.67,3.46,3.46,0,0,1-.89.51,3.36,3.36,0,0,1-1.14.19,2.67,2.67,0,0,1-1.27-.28,2.13,2.13,0,0,1-.83-.74,2.11,2.11,0,0,1-.06-2.06,2,2,0,0,1,.66-.74,3.36,3.36,0,0,1,1.07-.46,5.56,5.56,0,0,1,1.41-.17Zm3.63-1.51V289h-.81v-7.4h.78Zm-.18,1.66-.36-.2a3.8,3.8,0,0,1,.26-1.23,3.21,3.21,0,0,1,.61-1,2.93,2.93,0,0,1,.91-.69,2.77,2.77,0,0,1,1.16-.24,3,3,0,0,1,1,.15,1.86,1.86,0,0,1,.75.48,2.06,2.06,0,0,1,.46.84,4.1,4.1,0,0,1,.17,1.25V289h-.82v-4.82a2.65,2.65,0,0,0-.22-1.2,1.25,1.25,0,0,0-.6-.62,2.16,2.16,0,0,0-.92-.18,1.93,1.93,0,0,0-1,.26,2.46,2.46,0,0,0-.74.66,3,3,0,0,0-.45.87A2.85,2.85,0,0,0,416.4,284.84Zm9.79,3.59a2.4,2.4,0,0,0,1-.19,1.82,1.82,0,0,0,.76-.58,1.76,1.76,0,0,0,.34-1H429a2.41,2.41,0,0,1-.43,1.26,2.72,2.72,0,0,1-1,.86,3.19,3.19,0,0,1-1.39.31,3.24,3.24,0,0,1-1.36-.28,2.82,2.82,0,0,1-1-.78,3.75,3.75,0,0,1-.6-1.18,5.24,5.24,0,0,1-.2-1.45v-.29a5.18,5.18,0,0,1,.2-1.45,3.75,3.75,0,0,1,.6-1.18,2.71,2.71,0,0,1,1-.78,3.06,3.06,0,0,1,1.36-.28,3,3,0,0,1,1.42.32,2.46,2.46,0,0,1,1,.91,2.71,2.71,0,0,1,.42,1.39h-.78a2.08,2.08,0,0,0-.32-1,1.84,1.84,0,0,0-.74-.67,2.24,2.24,0,0,0-1-.23,2.16,2.16,0,0,0-1.08.25,2.07,2.07,0,0,0-.72.66,3.2,3.2,0,0,0-.41,1,5.06,5.06,0,0,0-.12,1.12v.29a5.22,5.22,0,0,0,.12,1.13,3.13,3.13,0,0,0,.4.95,2,2,0,0,0,.73.66A2.27,2.27,0,0,0,426.19,288.43Zm7.35.71a3.18,3.18,0,0,1-2.38-1,3.33,3.33,0,0,1-.69-1.15,4.3,4.3,0,0,1-.24-1.46v-.3a4.4,4.4,0,0,1,.25-1.54,3.6,3.6,0,0,1,.7-1.19,3.21,3.21,0,0,1,1-.75,3.07,3.07,0,0,1,2.45,0,2.45,2.45,0,0,1,.92.7,3.18,3.18,0,0,1,.57,1.08,4.8,4.8,0,0,1,.19,1.36v.5h-5.6v-.7h4.78v-.1a3,3,0,0,0-.25-1.16,2.11,2.11,0,0,0-.7-.89,1.94,1.94,0,0,0-1.16-.34,2.11,2.11,0,0,0-1,.22,2.21,2.21,0,0,0-.74.63,3.09,3.09,0,0,0-.48,1,4.31,4.31,0,0,0-.16,1.23v.3a3.49,3.49,0,0,0,.18,1.14,2.79,2.79,0,0,0,.51.93,2.47,2.47,0,0,0,.81.63,2.33,2.33,0,0,0,1,.23,2.7,2.7,0,0,0,1.16-.24,2.52,2.52,0,0,0,.91-.77l.51.39a3.09,3.09,0,0,1-.6.66,2.75,2.75,0,0,1-.86.48A3.41,3.41,0,0,1,433.54,289.14Zm5.16-6V289h-.82v-7.4h.79Zm-.15,1.7-.39-.2a4.4,4.4,0,0,1,.24-1.23,3.16,3.16,0,0,1,.59-1,2.78,2.78,0,0,1,.9-.69,2.86,2.86,0,0,1,1.2-.24,3.05,3.05,0,0,1,1,.15,1.82,1.82,0,0,1,.75.46,1.93,1.93,0,0,1,.48.8,3.53,3.53,0,0,1,.18,1.2V289h-.82v-4.89a2.46,2.46,0,0,0-.23-1.16,1.22,1.22,0,0,0-.64-.59,2.27,2.27,0,0,0-.93-.18,2,2,0,0,0-1.07.26,2.11,2.11,0,0,0-.7.66,3.12,3.12,0,0,0-.4.87A3.5,3.5,0,0,0,438.55,284.84Zm4.92-.64h-.55a3.11,3.11,0,0,1,.25-1,2.9,2.9,0,0,1,1.49-1.49,3,3,0,0,1,1.18-.22,3.22,3.22,0,0,1,1,.15,1.73,1.73,0,0,1,.76.49,2.16,2.16,0,0,1,.48.84,4,4,0,0,1,.17,1.23V289h-.82v-4.83a2.49,2.49,0,0,0-.24-1.21,1.24,1.24,0,0,0-.63-.61,2.26,2.26,0,0,0-.94-.17,2.16,2.16,0,0,0-.94.2,1.94,1.94,0,0,0-.67.49,2.13,2.13,0,0,0-.56,1.33Zm9.73,4.94a3.18,3.18,0,0,1-2.38-1,3.33,3.33,0,0,1-.69-1.15,4.3,4.3,0,0,1-.24-1.46v-.3a4.4,4.4,0,0,1,.25-1.54,3.6,3.6,0,0,1,.7-1.19,3.21,3.21,0,0,1,1-.75,3.07,3.07,0,0,1,2.45,0,2.45,2.45,0,0,1,.92.7,3.18,3.18,0,0,1,.57,1.08,4.8,4.8,0,0,1,.19,1.36v.5h-5.6v-.7h4.78v-.1a3,3,0,0,0-.25-1.16,2.11,2.11,0,0,0-.7-.89,1.94,1.94,0,0,0-1.16-.34,2,2,0,0,0-.95.22,2.15,2.15,0,0,0-.75.63,2.88,2.88,0,0,0-.48,1,4.31,4.31,0,0,0-.16,1.23v.3a3.49,3.49,0,0,0,.18,1.14,2.79,2.79,0,0,0,.51.93,2.47,2.47,0,0,0,.81.63,2.33,2.33,0,0,0,1,.23,2.7,2.7,0,0,0,1.16-.24,2.52,2.52,0,0,0,.91-.77l.51.39a3.09,3.09,0,0,1-.6.66,2.75,2.75,0,0,1-.86.48A3.41,3.41,0,0,1,453.2,289.14Zm5.2-6V289h-.81v-7.4h.78Zm-.18,1.66-.36-.2a4.08,4.08,0,0,1,.26-1.23,3.4,3.4,0,0,1,.61-1,3,3,0,0,1,.91-.69,2.77,2.77,0,0,1,1.16-.24,3.13,3.13,0,0,1,1,.15,1.83,1.83,0,0,1,.74.48,2.2,2.2,0,0,1,.47.84,4.47,4.47,0,0,1,.16,1.25V289h-.82v-4.82a2.81,2.81,0,0,0-.21-1.2,1.29,1.29,0,0,0-.6-.62,2.24,2.24,0,0,0-.93-.18,2,2,0,0,0-1,.26,2.46,2.46,0,0,0-.74.66,3.27,3.27,0,0,0-.45.87A3.18,3.18,0,0,0,458.22,284.84Zm9.86-3.24v.67h-3.7v-.67Zm-2.34-1.9h.81v7.5a1.78,1.78,0,0,0,.14.78.7.7,0,0,0,.36.34,1.19,1.19,0,0,0,.47.09l.35,0,.31-.05,0,.69a2.53,2.53,0,0,1-.39.07,3.57,3.57,0,0,1-.47,0,2,2,0,0,1-.84-.17,1.26,1.26,0,0,1-.57-.61,2.81,2.81,0,0,1-.2-1.16Z"></path><path class="cls-3" d="M437.69,200a1.31,1.31,0,0,0-.78.38l-3.5,3.5a1.31,1.31,0,0,0-.44,1,1.32,1.32,0,0,0,1.36,1.34,1.31,1.31,0,0,0,.94-.44l1.29-1.29v4.74a1.31,1.31,0,0,0,.37.94,1.33,1.33,0,0,0,.94.39,1.31,1.31,0,0,0,1.31-1.33v-4.68l1.23,1.23a1.31,1.31,0,0,0,.94.44,1.28,1.28,0,0,0,1-.38,1.32,1.32,0,0,0-.06-1.91l-3.5-3.5a1.28,1.28,0,0,0-1.08-.38Zm-3.89,12.25a1.31,1.31,0,0,0-.85.42,1.38,1.38,0,0,0-.33.89v27.12a1.31,1.31,0,0,0,1.31,1.31h7.88a1.31,1.31,0,0,0,1.31-1.31V213.57a1.31,1.31,0,0,0-.39-.93,1.28,1.28,0,0,0-.92-.38h-8Zm1.44,2.62h5.25v24.5h-5.25ZM422,217.94a1.37,1.37,0,0,0-.85.43,1.35,1.35,0,0,0-.33.88v21.44a1.31,1.31,0,0,0,1.31,1.31H430a1.31,1.31,0,0,0,1.31-1.31V219.25a1.33,1.33,0,0,0-1.31-1.31h-8Zm1.44,2.63h5.25v18.81h-5.25Zm-9.18.43a4.4,4.4,0,0,0-4.37,4.38,4.35,4.35,0,0,0,1.64,3.4,5.28,5.28,0,0,0-2.52,4.48v7.43a1.3,1.3,0,0,0,1.31,1.31h7.87a1.32,1.32,0,0,0,.93-.38,1.31,1.31,0,0,0,.39-.93v-7.43a5.28,5.28,0,0,0-2.52-4.48,4.35,4.35,0,0,0,1.64-3.4,4.4,4.4,0,0,0-4.37-4.38Zm0,2.63a1.75,1.75,0,1,1-1.75,1.75A1.73,1.73,0,0,1,414.25,223.63Zm0,7a2.59,2.59,0,0,1,2.62,2.63v6.12h-5.25v-6.12a2.6,2.6,0,0,1,2.63-2.63Z"></path><rect class="cls-1" x="351.5" y="0.5" width="151" height="143"></rect><path class="cls-2" d="M397.68,101.9h.84a4.06,4.06,0,0,1-.55,1.73,3,3,0,0,1-1.23,1.12,4.18,4.18,0,0,1-1.88.39,3.66,3.66,0,0,1-1.54-.32,3.5,3.5,0,0,1-1.18-.91,4.23,4.23,0,0,1-.75-1.43,5.86,5.86,0,0,1-.27-1.83V99.4a5.86,5.86,0,0,1,.27-1.83,4,4,0,0,1,.76-1.42,3.39,3.39,0,0,1,1.2-.92,3.76,3.76,0,0,1,1.57-.32,4,4,0,0,1,1.83.39A2.91,2.91,0,0,1,398,96.41a4,4,0,0,1,.55,1.75h-.84a3.4,3.4,0,0,0-.42-1.37,2.19,2.19,0,0,0-.91-.85,3.09,3.09,0,0,0-1.43-.31,2.8,2.8,0,0,0-1.25.27,2.63,2.63,0,0,0-.93.77,3.52,3.52,0,0,0-.58,1.18,5.27,5.27,0,0,0-.2,1.54v1.26a5.58,5.58,0,0,0,.19,1.51,3.64,3.64,0,0,0,.56,1.19,2.68,2.68,0,0,0,.92.79,2.59,2.59,0,0,0,1.23.28,3.38,3.38,0,0,0,1.47-.28,2.1,2.1,0,0,0,.92-.85A3.61,3.61,0,0,0,397.68,101.9Zm2.25-.48v-.23a4.75,4.75,0,0,1,.23-1.49,3.59,3.59,0,0,1,.67-1.18,2.94,2.94,0,0,1,1-.77,3.18,3.18,0,0,1,1.36-.28,3.11,3.11,0,0,1,1.35.28,3,3,0,0,1,1.05.77,3.42,3.42,0,0,1,.67,1.18,4.48,4.48,0,0,1,.23,1.49v.23a4.48,4.48,0,0,1-.23,1.49,3.38,3.38,0,0,1-.67,1.17,2.85,2.85,0,0,1-1,.78,3.42,3.42,0,0,1-2.71,0,2.89,2.89,0,0,1-1.05-.78,3.54,3.54,0,0,1-.67-1.17A4.75,4.75,0,0,1,399.93,101.42Zm.81-.23v.23a4,4,0,0,0,.17,1.15,3.26,3.26,0,0,0,.48,1,2.23,2.23,0,0,0,.78.65,2.48,2.48,0,0,0,2.13,0,2.23,2.23,0,0,0,.78-.65,3.24,3.24,0,0,0,.47-1,4,4,0,0,0,.16-1.15v-.23a3.88,3.88,0,0,0-.16-1.14,2.89,2.89,0,0,0-.48-1,2.18,2.18,0,0,0-.78-.67,2.39,2.39,0,0,0-2.13,0,2.18,2.18,0,0,0-.78.67,3.09,3.09,0,0,0-.48,1A4.24,4.24,0,0,0,400.74,101.19ZM409,99.13V105h-.82V97.6H409Zm-.15,1.71-.4-.2a4.41,4.41,0,0,1,.25-1.23,3.27,3.27,0,0,1,.59-1,2.64,2.64,0,0,1,.9-.69,2.86,2.86,0,0,1,1.2-.24,3,3,0,0,1,1,.15,1.79,1.79,0,0,1,.76.46,1.93,1.93,0,0,1,.48.8,3.81,3.81,0,0,1,.17,1.2V105H413v-4.89a2.46,2.46,0,0,0-.23-1.16,1.26,1.26,0,0,0-.64-.59,2.28,2.28,0,0,0-.94-.18,2,2,0,0,0-1.06.26,2.24,2.24,0,0,0-.71.66,3.09,3.09,0,0,0-.39.87A3.5,3.5,0,0,0,408.85,100.84Zm4.92-.64h-.55a3,3,0,0,1,.24-1,2.94,2.94,0,0,1,.6-.87,2.79,2.79,0,0,1,.89-.62,3,3,0,0,1,1.19-.22,3.22,3.22,0,0,1,1,.15,1.79,1.79,0,0,1,.76.49,2.16,2.16,0,0,1,.48.84,4,4,0,0,1,.16,1.23V105h-.82v-4.83a2.5,2.5,0,0,0-.23-1.21,1.24,1.24,0,0,0-.63-.61,2.29,2.29,0,0,0-.94-.17,2.13,2.13,0,0,0-.94.2,1.85,1.85,0,0,0-.67.49,2.15,2.15,0,0,0-.41.65A1.9,1.9,0,0,0,413.77,100.2ZM421.45,99v8.81h-.82V97.6h.76Zm5.14,2.2v.15a5.53,5.53,0,0,1-.19,1.51,3.79,3.79,0,0,1-.55,1.2,2.52,2.52,0,0,1-.89.77,2.46,2.46,0,0,1-1.19.28,3.19,3.19,0,0,1-1.19-.21,2.69,2.69,0,0,1-.89-.58,2.91,2.91,0,0,1-.6-.89,4.71,4.71,0,0,1-.3-1.12v-1.89a5,5,0,0,1,.33-1.22,3.22,3.22,0,0,1,.6-.94,2.33,2.33,0,0,1,.87-.61,3,3,0,0,1,1.16-.21,2.71,2.71,0,0,1,1.2.26,2.62,2.62,0,0,1,.9.76,3.73,3.73,0,0,1,.55,1.19A5.72,5.72,0,0,1,426.59,101.23Zm-.82.15v-.15a5.06,5.06,0,0,0-.14-1.2,2.78,2.78,0,0,0-.4-1,1.89,1.89,0,0,0-1.66-.89,2.39,2.39,0,0,0-1,.2,2,2,0,0,0-.68.52,2.49,2.49,0,0,0-.43.69,3.61,3.61,0,0,0-.23.73v2.18a3.08,3.08,0,0,0,.41,1,2.16,2.16,0,0,0,.77.7,2.39,2.39,0,0,0,1.18.26,1.86,1.86,0,0,0,1-.23,1.92,1.92,0,0,0,.68-.65,2.92,2.92,0,0,0,.4-1A5.06,5.06,0,0,0,425.77,101.38Zm5.5,3.76a3.18,3.18,0,0,1-2.39-1,3.43,3.43,0,0,1-.69-1.15,4.3,4.3,0,0,1-.24-1.46v-.3a4.65,4.65,0,0,1,.25-1.54,3.46,3.46,0,0,1,.7-1.18,3.2,3.2,0,0,1,1-.76,3.09,3.09,0,0,1,2.46,0,2.42,2.42,0,0,1,.91.7,3.09,3.09,0,0,1,.57,1.08,4.47,4.47,0,0,1,.19,1.36v.5h-5.6v-.7h4.79v-.1A3.21,3.21,0,0,0,433,99.4a2.19,2.19,0,0,0-.7-.89,1.91,1.91,0,0,0-1.17-.34,2,2,0,0,0-.95.22,2.26,2.26,0,0,0-.75.63,3.32,3.32,0,0,0-.48,1,4.7,4.7,0,0,0-.16,1.23v.3a3.49,3.49,0,0,0,.18,1.14,2.64,2.64,0,0,0,.52.93,2.43,2.43,0,0,0,.8.63,2.36,2.36,0,0,0,1,.23,2.67,2.67,0,0,0,1.16-.24,2.52,2.52,0,0,0,.91-.77l.51.39a3.09,3.09,0,0,1-.6.66,2.69,2.69,0,0,1-.85.48A3.41,3.41,0,0,1,431.27,105.14Zm7.18-7.54v.67h-3.71V97.6Zm-2.34-1.9h.81v7.5a1.58,1.58,0,0,0,.14.77.7.7,0,0,0,.35.35,1.23,1.23,0,0,0,.47.09l.36,0,.31,0,0,.69a2.53,2.53,0,0,1-.39.07,3.88,3.88,0,0,1-.48,0,2,2,0,0,1-.83-.17,1.26,1.26,0,0,1-.57-.61,2.68,2.68,0,0,1-.2-1.17Zm5,1.9V105h-.82V97.6Zm-1-2.14a.6.6,0,0,1,.14-.39.53.53,0,0,1,.41-.16.51.51,0,0,1,.41.16.56.56,0,0,1,0,.78.51.51,0,0,1-.41.16.53.53,0,0,1-.41-.16A.6.6,0,0,1,440.12,95.46Zm6,2.14v.67H442.4V97.6Zm-2.35-1.9h.82v7.5a1.72,1.72,0,0,0,.13.77.68.68,0,0,0,.36.35,1.19,1.19,0,0,0,.47.09l.35,0,.31,0,0,.69a2.53,2.53,0,0,1-.39.07,3.88,3.88,0,0,1-.48,0,2,2,0,0,1-.84-.17,1.2,1.2,0,0,1-.56-.61,2.66,2.66,0,0,1-.21-1.17Zm5,1.9V105h-.81V97.6Zm-1-2.14a.56.56,0,0,1,.15-.39.51.51,0,0,1,.41-.16.53.53,0,0,1,.41.16.56.56,0,0,1,0,.78.53.53,0,0,1-.41.16.51.51,0,0,1-.41-.16A.56.56,0,0,1,447.77,95.46Zm5.38,8.75,2.37-6.61h.84l-2.77,7.4H453ZM451,97.6l2.4,6.63.13.77h-.6l-2.78-7.4Zm9.47,7.54a3.23,3.23,0,0,1-1.33-.27,3.19,3.19,0,0,1-1.06-.75,3.79,3.79,0,0,1-.69-1.15,4.3,4.3,0,0,1-.24-1.46v-.3a4.4,4.4,0,0,1,.26-1.54,3.6,3.6,0,0,1,.69-1.18,3.32,3.32,0,0,1,1-.76,3,3,0,0,1,1.21-.26,2.94,2.94,0,0,1,1.25.25,2.42,2.42,0,0,1,.91.7,2.94,2.94,0,0,1,.57,1.08,4.47,4.47,0,0,1,.19,1.36v.5h-5.59v-.7h4.78v-.1a3,3,0,0,0-.25-1.16,2.19,2.19,0,0,0-.7-.89,1.9,1.9,0,0,0-1.16-.34,2.05,2.05,0,0,0-1,.22,2.22,2.22,0,0,0-.74.63,2.88,2.88,0,0,0-.48,1,4.3,4.3,0,0,0-.17,1.23v.3a3.49,3.49,0,0,0,.18,1.14,2.8,2.8,0,0,0,.52.93,2.47,2.47,0,0,0,.81.63,2.31,2.31,0,0,0,1,.23,2.72,2.72,0,0,0,1.17-.24,2.58,2.58,0,0,0,.9-.77l.52.39a2.9,2.9,0,0,1-.61.66,2.69,2.69,0,0,1-.85.48A3.41,3.41,0,0,1,460.47,105.14Zm-46.34,14a1.26,1.26,0,0,0-.15-.59,1.39,1.39,0,0,0-.58-.54,4.4,4.4,0,0,0-1.25-.42,7.76,7.76,0,0,1-1.1-.31,3.07,3.07,0,0,1-.81-.41,1.59,1.59,0,0,1-.5-.57,1.64,1.64,0,0,1-.17-.79,1.75,1.75,0,0,1,.18-.78,1.86,1.86,0,0,1,.52-.64,2.66,2.66,0,0,1,.82-.44,3.61,3.61,0,0,1,1.08-.15,3.47,3.47,0,0,1,1.47.29,2.08,2.08,0,0,1,.93.79,2,2,0,0,1,.33,1.13h-.81a1.31,1.31,0,0,0-.23-.73,1.64,1.64,0,0,0-.65-.56,2.19,2.19,0,0,0-1-.22,2.49,2.49,0,0,0-1,.19,1.36,1.36,0,0,0-.58.49,1.14,1.14,0,0,0-.18.61,1.33,1.33,0,0,0,.08.45,1,1,0,0,0,.28.37,2.62,2.62,0,0,0,.61.32,6.78,6.78,0,0,0,1,.29,6.37,6.37,0,0,1,1.46.49,2.07,2.07,0,0,1,.85.69,2,2,0,0,1,.08,1.84,1.89,1.89,0,0,1-.55.65,2.53,2.53,0,0,1-.87.43,3.84,3.84,0,0,1-1.12.15,3.74,3.74,0,0,1-1.58-.31,2.36,2.36,0,0,1-1-.82,2,2,0,0,1-.33-1.09h.82a1.33,1.33,0,0,0,.36.91,1.73,1.73,0,0,0,.78.47,3.42,3.42,0,0,0,.93.13,2.76,2.76,0,0,0,1.06-.18,1.63,1.63,0,0,0,.64-.49A1.11,1.11,0,0,0,414.13,119.11Zm7.16.56v-3.81a1.78,1.78,0,0,0-.22-.91,1.41,1.41,0,0,0-.64-.59,2.47,2.47,0,0,0-1-.2,2.56,2.56,0,0,0-1,.2,1.77,1.77,0,0,0-.71.54,1.27,1.27,0,0,0-.25.75h-.82a1.69,1.69,0,0,1,.21-.81,2.1,2.1,0,0,1,.58-.69,2.84,2.84,0,0,1,.89-.49,3.57,3.57,0,0,1,1.16-.18,3.52,3.52,0,0,1,1.39.26,2.08,2.08,0,0,1,.95.8,2.43,2.43,0,0,1,.35,1.34v3.58a5.41,5.41,0,0,0,.05.79,3.2,3.2,0,0,0,.17.68V121h-.87a3.56,3.56,0,0,1-.13-.61C421.31,120.13,421.29,119.9,421.29,119.67Zm.19-3,0,.63h-1.61a4.9,4.9,0,0,0-1.13.12,2.4,2.4,0,0,0-.83.33,1.53,1.53,0,0,0-.53.51,1.3,1.3,0,0,0-.17.68,1.4,1.4,0,0,0,.19.73,1.47,1.47,0,0,0,.58.52,1.89,1.89,0,0,0,.89.19,2.71,2.71,0,0,0,1.2-.25,2.64,2.64,0,0,0,.87-.66,2.27,2.27,0,0,0,.46-.9l.35.48a2.44,2.44,0,0,1-.33.7,2.92,2.92,0,0,1-.61.67,3.26,3.26,0,0,1-.88.5,3.19,3.19,0,0,1-1.15.2,2.67,2.67,0,0,1-1.27-.28,2.13,2.13,0,0,1-.83-.74,2.11,2.11,0,0,1-.06-2.06,2.05,2.05,0,0,1,.67-.74,3.21,3.21,0,0,1,1.06-.46,5.56,5.56,0,0,1,1.41-.17Zm3.73-6.19V121h-.81V110.5Zm6.73,9.17v-3.81a1.78,1.78,0,0,0-.22-.91,1.41,1.41,0,0,0-.64-.59,2.47,2.47,0,0,0-1-.2,2.56,2.56,0,0,0-1,.2,1.67,1.67,0,0,0-.7.54,1.22,1.22,0,0,0-.26.75h-.82a1.69,1.69,0,0,1,.21-.81,2.1,2.1,0,0,1,.58-.69,2.84,2.84,0,0,1,.89-.49,3.62,3.62,0,0,1,1.16-.18,3.52,3.52,0,0,1,1.39.26,2.08,2.08,0,0,1,1,.8,2.43,2.43,0,0,1,.35,1.34v3.58a5.41,5.41,0,0,0,.05.79,3.2,3.2,0,0,0,.17.68V121h-.87a4.87,4.87,0,0,1-.13-.61C432,120.13,431.94,119.9,431.94,119.67Zm.19-3,0,.63h-1.61a4.9,4.9,0,0,0-1.13.12,2.4,2.4,0,0,0-.83.33,1.62,1.62,0,0,0-.53.51,1.3,1.3,0,0,0-.17.68,1.4,1.4,0,0,0,.19.73,1.47,1.47,0,0,0,.58.52,1.89,1.89,0,0,0,.89.19,2.71,2.71,0,0,0,1.2-.25,2.64,2.64,0,0,0,.87-.66,2.27,2.27,0,0,0,.46-.9l.35.48a2.44,2.44,0,0,1-.33.7,2.92,2.92,0,0,1-.61.67,3.26,3.26,0,0,1-.88.5,3.19,3.19,0,0,1-1.15.2,2.67,2.67,0,0,1-1.27-.28,2.13,2.13,0,0,1-.83-.74,2.11,2.11,0,0,1-.06-2.06,2.05,2.05,0,0,1,.67-.74,3.21,3.21,0,0,1,1.06-.46,5.56,5.56,0,0,1,1.41-.17Zm3.63-1.86V121H435v-7.4h.79Zm2.62-1.28,0,.75-.26,0-.29,0a2.12,2.12,0,0,0-.93.2,1.86,1.86,0,0,0-.67.54,2.59,2.59,0,0,0-.42.81,3.79,3.79,0,0,0-.16,1l-.3.12a5.82,5.82,0,0,1,.15-1.35,3.68,3.68,0,0,1,.45-1.09,2.39,2.39,0,0,1,.79-.73,2.34,2.34,0,0,1,1.12-.26l.31,0Zm3.6,6.71,2.31-6.66h.88L442,122.19c-.06.17-.15.35-.25.56a2.37,2.37,0,0,1-.38.59A1.85,1.85,0,0,1,440,124a1.61,1.61,0,0,1-.34,0,1.84,1.84,0,0,1-.28,0v-.69l.22,0,.2,0a1.65,1.65,0,0,0,.74-.15,1.25,1.25,0,0,0,.51-.46,3.1,3.1,0,0,0,.37-.73Zm-2.15-6.66,2.36,6.35.22.86-.6.33-2.87-7.54Z"></path><path class="cls-3" d="M428.17,36.43A4.67,4.67,0,0,0,424.7,38a5.64,5.64,0,0,0,0,7.44,4.59,4.59,0,0,0,6.95,0,5.64,5.64,0,0,0,0-7.44A4.67,4.67,0,0,0,428.17,36.43Zm2.17,7.85a2.82,2.82,0,0,1-2.17,1,2.78,2.78,0,0,1-2.15-1,3.9,3.9,0,0,1,0-5.08,2.82,2.82,0,0,1,2.15-1,2.86,2.86,0,0,1,2.17,1,3.93,3.93,0,0,1,0,5.08Z"></path><path class="cls-3" d="M411.35,51.48H444a.88.88,0,0,0,.63-.26.85.85,0,0,0,.26-.62V32.89A.89.89,0,0,0,444,32H411.35a.89.89,0,0,0-.89.89V50.6a.85.85,0,0,0,.26.62A.88.88,0,0,0,411.35,51.48Zm31.81-7.77a6.94,6.94,0,0,0-6,6h-19a6.91,6.91,0,0,0-6-6V39.86a6.93,6.93,0,0,0,6-6.09h18.93a6.93,6.93,0,0,0,6,6.09ZM412.23,45.5a5.13,5.13,0,0,1,4.19,4.21h-4.19ZM439,49.71a5.15,5.15,0,0,1,1.43-2.77,5.1,5.1,0,0,1,2.77-1.44v4.21Zm4.2-11.64a5.14,5.14,0,0,1-4.21-4.3h4.21Zm-26.72-4.3a5.14,5.14,0,0,1-4.21,4.3v-4.3Z"></path><path class="cls-3" d="M447.39,56.89a.9.9,0,0,0-1-.54,39.8,39.8,0,0,0-4.2.93L442,57.1a12.7,12.7,0,0,0-6.43-2.38,9.42,9.42,0,0,0-5,.73h0a9.32,9.32,0,0,1-4.63.77c-2.86-.24-5.54-.21-6.79,2.79a3.27,3.27,0,0,0-.24,1.51c-2.4-1.12-5-2.31-6-2.69-1.49-.54-4.26-1.56-6,.45A3.27,3.27,0,0,0,406,61a5.54,5.54,0,0,0,2.86,3.62c2.9,1.71,11.27,6.2,14.65,7.58,2.84,1.17,5.95,1.57,12.65-.07,5.83-1.43,7,1.25,7.08,1.32a.89.89,0,0,0,.52.52.81.81,0,0,0,.31.06,1,1,0,0,0,.41-.1c2.89-1.52,3.73-7.88,3.92-9.8h0a17.2,17.2,0,0,0-1.05-7.21ZM446.66,64c-.4,4.11-1.4,6.75-2.36,7.89a6.28,6.28,0,0,0-5-1.93,15.41,15.41,0,0,0-3.51.44c-6.26,1.54-9,1.23-11.55.16-3.2-1.33-11.52-5.76-14.43-7.46a3.87,3.87,0,0,1-2-2.38,1.48,1.48,0,0,1,.38-1.24c.69-.79,1.79-.77,4.07.06,1.22.45,4.94,2.22,7.66,3.47l1.29.61a10.7,10.7,0,0,0,1.62.73,8.44,8.44,0,0,0,7,.16.89.89,0,0,0-.74-1.62,6.59,6.59,0,0,1-5.61-.18c-.25-.1-.79-.35-1.48-.67a3.1,3.1,0,0,1-1.28-1.23,1.28,1.28,0,0,1,0-1.08c.66-1.6,1.77-2,5-1.71a11.23,11.23,0,0,0,5.4-.89,7.51,7.51,0,0,1,4.15-.64,11.15,11.15,0,0,1,5.62,2.06,1.78,1.78,0,0,0,1.58.51,35,35,0,0,1,3.46-.81,15,15,0,0,1,.69,5.73Z"></path><rect class="cls-1" x="0.5" y="168.5" width="151" height="143"></rect><path class="cls-2" d="M53.2,270.37l2.16-7.32H56l-.54,2.17L53.18,273h-.65Zm-2.51-7.32,1.81,7.25.55,2.7h-.67l-2.55-9.95Zm8.25,7.25,1.8-7.25h.86L59.05,273h-.67Zm-2.83-7.25,2.13,7.32L58.9,273h-.65L56,265.22l-.55-2.17Zm6.25,6.37v-.23a4.75,4.75,0,0,1,.23-1.49,3.59,3.59,0,0,1,.67-1.18,3,3,0,0,1,1-.77,3.44,3.44,0,0,1,2.72,0,3,3,0,0,1,1,.77,3.27,3.27,0,0,1,.67,1.18,4.48,4.48,0,0,1,.24,1.49v.23a4.48,4.48,0,0,1-.24,1.49,3.23,3.23,0,0,1-.67,1.17,2.77,2.77,0,0,1-1,.78,3.11,3.11,0,0,1-1.35.28,3.18,3.18,0,0,1-1.36-.28,3,3,0,0,1-1.05-.78,3.54,3.54,0,0,1-.67-1.17A4.75,4.75,0,0,1,62.36,269.42Zm.82-.23v.23a4,4,0,0,0,.16,1.15,3.14,3.14,0,0,0,.48,1,2.23,2.23,0,0,0,.78.65,2.31,2.31,0,0,0,1.07.24,2.25,2.25,0,0,0,1.84-.89,2.92,2.92,0,0,0,.47-1,4,4,0,0,0,.17-1.15v-.23a3.88,3.88,0,0,0-.17-1.14,2.71,2.71,0,0,0-.48-1,2.18,2.18,0,0,0-.78-.67,2.16,2.16,0,0,0-1.06-.25,2.2,2.2,0,0,0-1.07.25,2.37,2.37,0,0,0-.78.67,3.09,3.09,0,0,0-.48,1A4.24,4.24,0,0,0,63.18,269.19Zm8.29-2.36V273h-.81v-7.4h.79Zm2.62-1.28,0,.75-.26,0-.28,0a2.13,2.13,0,0,0-.94.2,1.86,1.86,0,0,0-.67.54,2.59,2.59,0,0,0-.42.81,3.79,3.79,0,0,0-.16,1l-.3.12a5.82,5.82,0,0,1,.15-1.35,3.35,3.35,0,0,1,.46-1.09,2.14,2.14,0,0,1,1.9-1l.31,0Zm2.1-3.05V273h-.81V262.5Zm4.64,3.1L77.37,269l-1.47,1.42-.12-.8L77,268.38l2.84-2.78Zm-.71,7.4L77,269.16l.45-.71L81.11,273Zm6.45-10.5V273h-.82V262.5Zm3.14,3.1V273H88.9v-7.4Zm-.95-2.14a.55.55,0,0,1,.14-.39.61.61,0,0,1,.82,0,.56.56,0,0,1,0,.78.61.61,0,0,1-.82,0A.55.55,0,0,1,88.76,263.46ZM93.35,273h-.81v-8.31a2.76,2.76,0,0,1,.26-1.28,1.74,1.74,0,0,1,.75-.79,2.52,2.52,0,0,1,1.17-.26l.43,0a3.12,3.12,0,0,1,.44.09l-.06.69a2,2,0,0,0-.35-.06l-.4,0a1.47,1.47,0,0,0-.77.19,1.28,1.28,0,0,0-.49.54,2.09,2.09,0,0,0-.17.88Zm1.76-7.4v.67h-3.8v-.67Zm4.17,7.54a3.18,3.18,0,0,1-2.39-1A3.33,3.33,0,0,1,96.2,271a4.3,4.3,0,0,1-.24-1.46v-.3a4.65,4.65,0,0,1,.25-1.54,3.6,3.6,0,0,1,.7-1.19,3.32,3.32,0,0,1,1-.75,3,3,0,0,1,1.21-.26,2.94,2.94,0,0,1,1.25.25,2.42,2.42,0,0,1,.91.7,3.18,3.18,0,0,1,.57,1.08,4.47,4.47,0,0,1,.19,1.36v.5h-5.6v-.7h4.79v-.1a3.21,3.21,0,0,0-.25-1.16,2.19,2.19,0,0,0-.7-.89,2,2,0,0,0-1.16-.34,2.05,2.05,0,0,0-1,.22,2.15,2.15,0,0,0-.75.63,3.07,3.07,0,0,0-.47,1,4.3,4.3,0,0,0-.17,1.23v.3a3.49,3.49,0,0,0,.18,1.14,2.8,2.8,0,0,0,.52.93,2.47,2.47,0,0,0,.81.63,2.31,2.31,0,0,0,1,.23,2.64,2.64,0,0,0,1.16-.24,2.52,2.52,0,0,0,.91-.77l.51.39a2.64,2.64,0,0,1-.6.66,2.69,2.69,0,0,1-.85.48A3.41,3.41,0,0,1,99.28,273.14ZM53,278.5h.82v9.06L53.78,289H53Zm6,6.73v.15a5.52,5.52,0,0,1-.2,1.51,3.58,3.58,0,0,1-.55,1.2,2.52,2.52,0,0,1-.89.77,2.41,2.41,0,0,1-1.19.28,3.07,3.07,0,0,1-1.18-.21,2.67,2.67,0,0,1-.88-.59,3.29,3.29,0,0,1-.58-.91,5.05,5.05,0,0,1-.3-1.16v-1.82a5,5,0,0,1,.32-1.22,3.39,3.39,0,0,1,.58-.94,2.41,2.41,0,0,1,.87-.61,3,3,0,0,1,1.15-.21,2.71,2.71,0,0,1,1.2.26,2.44,2.44,0,0,1,.9.76,3.53,3.53,0,0,1,.55,1.19A5.71,5.71,0,0,1,59,285.23Zm-.83.15v-.15A5.68,5.68,0,0,0,58,284a3.22,3.22,0,0,0-.39-1,1.89,1.89,0,0,0-.67-.65,2,2,0,0,0-1-.24,2.31,2.31,0,0,0-1,.2,2,2,0,0,0-.69.52,2.32,2.32,0,0,0-.42.69,3.61,3.61,0,0,0-.23.73v2.13a2.88,2.88,0,0,0,.4,1,2.28,2.28,0,0,0,.77.74,2.42,2.42,0,0,0,1.18.27,2,2,0,0,0,1-.23,1.89,1.89,0,0,0,.67-.65,2.77,2.77,0,0,0,.39-1A5.66,5.66,0,0,0,58.16,285.38Zm7.13,2.29v-3.81a1.85,1.85,0,0,0-.21-.91,1.5,1.5,0,0,0-.65-.59,2.47,2.47,0,0,0-1-.2,2.56,2.56,0,0,0-1,.2,1.74,1.74,0,0,0-.7.54,1.21,1.21,0,0,0-.25.75h-.83a1.69,1.69,0,0,1,.21-.81,2.23,2.23,0,0,1,.58-.69,2.78,2.78,0,0,1,.9-.49,3.51,3.51,0,0,1,1.15-.18,3.57,3.57,0,0,1,1.4.26,2.19,2.19,0,0,1,1,.8,2.51,2.51,0,0,1,.34,1.34v3.58a7.29,7.29,0,0,0,0,.79,3.05,3.05,0,0,0,.17.68V289h-.86a2.81,2.81,0,0,1-.13-.61A6.23,6.23,0,0,1,65.29,287.67Zm.2-3v.63H63.89a4.75,4.75,0,0,0-1.12.12,2.46,2.46,0,0,0-.84.33,1.5,1.5,0,0,0-.52.51,1.4,1.4,0,0,0,0,1.41,1.37,1.37,0,0,0,.57.52,1.91,1.91,0,0,0,.89.19,2.68,2.68,0,0,0,1.2-.25,2.64,2.64,0,0,0,.87-.66,2.15,2.15,0,0,0,.46-.9l.35.48a2.69,2.69,0,0,1-.32.7,3.17,3.17,0,0,1-.61.67A3.64,3.64,0,0,1,64,289a3.42,3.42,0,0,1-1.15.19,2.66,2.66,0,0,1-1.26-.28A1.94,1.94,0,0,1,60.41,287a2,2,0,0,1,.23-1,2.05,2.05,0,0,1,.67-.74,3.27,3.27,0,0,1,1.07-.46,5.48,5.48,0,0,1,1.4-.17Zm3.72-6.19V289H68.4V278.5ZM76,287.67v-3.81a1.86,1.86,0,0,0-.22-.91,1.5,1.5,0,0,0-.65-.59,2.47,2.47,0,0,0-1-.2,2.59,2.59,0,0,0-1,.2,1.74,1.74,0,0,0-.7.54,1.21,1.21,0,0,0-.25.75h-.82a1.68,1.68,0,0,1,.2-.81,2.23,2.23,0,0,1,.58-.69,2.78,2.78,0,0,1,.9-.49,3.51,3.51,0,0,1,1.15-.18,3.57,3.57,0,0,1,1.4.26,2.19,2.19,0,0,1,1,.8,2.51,2.51,0,0,1,.34,1.34v3.58a7.29,7.29,0,0,0,0,.79,3.05,3.05,0,0,0,.17.68V289h-.86a2.81,2.81,0,0,1-.13-.61A6.13,6.13,0,0,1,76,287.67Zm.19-3v.63H74.54a4.75,4.75,0,0,0-1.12.12,2.46,2.46,0,0,0-.84.33,1.5,1.5,0,0,0-.52.51,1.4,1.4,0,0,0,0,1.41,1.37,1.37,0,0,0,.57.52,1.91,1.91,0,0,0,.89.19,2.68,2.68,0,0,0,1.2-.25,2.64,2.64,0,0,0,.87-.66,2.15,2.15,0,0,0,.46-.9l.35.48a2.4,2.4,0,0,1-.32.7,3.17,3.17,0,0,1-.61.67,3.64,3.64,0,0,1-.89.51,3.42,3.42,0,0,1-1.15.19,2.66,2.66,0,0,1-1.26-.28,2.08,2.08,0,0,1-.9-2.8,2.05,2.05,0,0,1,.67-.74,3.27,3.27,0,0,1,1.07-.46,5.54,5.54,0,0,1,1.4-.17Zm3.63-1.51V289H79v-7.4h.78Zm-.19,1.66-.36-.2a4.09,4.09,0,0,1,.27-1.23,3.38,3.38,0,0,1,.6-1,3,3,0,0,1,.91-.69,2.78,2.78,0,0,1,1.17-.24,3,3,0,0,1,1,.15,1.76,1.76,0,0,1,.74.48,2.07,2.07,0,0,1,.47.84,4.13,4.13,0,0,1,.16,1.25V289h-.82v-4.82a2.81,2.81,0,0,0-.21-1.2,1.25,1.25,0,0,0-.6-.62,2.2,2.2,0,0,0-.93-.18,2,2,0,0,0-1,.26,2.46,2.46,0,0,0-.74.66,3.59,3.59,0,0,0-.45.87A3.18,3.18,0,0,0,79.58,284.84Zm9.8,3.59a2.43,2.43,0,0,0,1-.19,1.86,1.86,0,0,0,.75-.58,1.68,1.68,0,0,0,.34-1h.78a2.25,2.25,0,0,1-.43,1.26,2.76,2.76,0,0,1-1,.86,3.22,3.22,0,0,1-1.39.31,3.28,3.28,0,0,1-1.37-.28,2.78,2.78,0,0,1-1-.78,3.57,3.57,0,0,1-.61-1.18,5.24,5.24,0,0,1-.19-1.45v-.29a5.19,5.19,0,0,1,.19-1.45,3.57,3.57,0,0,1,.61-1.18,2.67,2.67,0,0,1,1-.78,3.09,3.09,0,0,1,1.36-.28,3,3,0,0,1,1.42.32,2.4,2.4,0,0,1,1,.91,2.62,2.62,0,0,1,.42,1.39h-.78a2.08,2.08,0,0,0-.31-1,2,2,0,0,0-.74-.67,2.31,2.31,0,0,0-1-.23,2.09,2.09,0,0,0-1.07.25,2,2,0,0,0-.73.66,3.19,3.19,0,0,0-.4,1,4.52,4.52,0,0,0-.13,1.12v.29a5.22,5.22,0,0,0,.12,1.13,2.91,2.91,0,0,0,.41.95,1.91,1.91,0,0,0,.72.66A2.28,2.28,0,0,0,89.38,288.43Zm7.35.71a3.18,3.18,0,0,1-2.39-1,3.33,3.33,0,0,1-.69-1.15,4.3,4.3,0,0,1-.24-1.46v-.3a4.65,4.65,0,0,1,.25-1.54,3.78,3.78,0,0,1,.7-1.19,3.32,3.32,0,0,1,1-.75,3,3,0,0,1,1.21-.26,2.94,2.94,0,0,1,1.25.25,2.42,2.42,0,0,1,.91.7,3.18,3.18,0,0,1,.57,1.08,4.47,4.47,0,0,1,.19,1.36v.5H93.9v-.7h4.79v-.1a3,3,0,0,0-.25-1.16,2.19,2.19,0,0,0-.7-.89,2,2,0,0,0-1.16-.34,2.05,2.05,0,0,0-1,.22,2.15,2.15,0,0,0-.75.63,3.07,3.07,0,0,0-.47,1,4.3,4.3,0,0,0-.17,1.23v.3a3.49,3.49,0,0,0,.18,1.14,2.8,2.8,0,0,0,.52.93,2.47,2.47,0,0,0,.81.63,2.31,2.31,0,0,0,1,.23,2.64,2.64,0,0,0,1.16-.24,2.52,2.52,0,0,0,.91-.77l.51.39a2.85,2.85,0,0,1-.6.66,2.69,2.69,0,0,1-.85.48A3.41,3.41,0,0,1,96.73,289.14Z"></path><path class="cls-3" d="M70.9,200H59.6a2.61,2.61,0,0,0-2.6,2.66v11.52a2.61,2.61,0,0,0,2.6,2.66H70.9a2.6,2.6,0,0,0,2.6-2.66V202.66A2.63,2.63,0,0,0,70.9,200Zm.52,14.18a.5.5,0,0,1-.52.53H59.6a.5.5,0,0,1-.52-.53V202.66a.5.5,0,0,1,.52-.54H70.9a.5.5,0,0,1,.52.54Z"></path><path class="cls-3" d="M92.4,200H81.1a2.61,2.61,0,0,0-2.6,2.66v11.52a2.61,2.61,0,0,0,2.6,2.66H92.4a2.6,2.6,0,0,0,2.6-2.66V202.66A2.67,2.67,0,0,0,92.4,200Zm.52,14.18a.5.5,0,0,1-.52.53H81.1a.5.5,0,0,1-.52-.53V202.66a.5.5,0,0,1,.52-.54H92.4a.5.5,0,0,1,.52.54Z"></path><path class="cls-3" d="M70.9,221.94H59.6A2.61,2.61,0,0,0,57,224.6v11.52a2.61,2.61,0,0,0,2.6,2.66H70.9a2.6,2.6,0,0,0,2.6-2.66V224.6A2.6,2.6,0,0,0,70.9,221.94Zm.52,14.18a.5.5,0,0,1-.52.53H59.6a.5.5,0,0,1-.52-.53V224.6a.5.5,0,0,1,.52-.54H70.9a.5.5,0,0,1,.52.54Z"></path><path class="cls-3" d="M92.4,221.94H81.1a2.61,2.61,0,0,0-2.6,2.66v11.52a2.61,2.61,0,0,0,2.6,2.66H92.4a2.6,2.6,0,0,0,2.6-2.66V224.6A2.63,2.63,0,0,0,92.4,221.94Z"></path><rect class="cls-1" x="702.5" y="168.5" width="151" height="143"></rect><path class="cls-2" d="M731.17,283.55a1.9,1.9,0,0,0-.14-.73,1.5,1.5,0,0,0-.45-.57,2.86,2.86,0,0,0-.84-.48,10.41,10.41,0,0,0-1.29-.45,11.17,11.17,0,0,1-1.35-.46,4.55,4.55,0,0,1-1-.58,2.16,2.16,0,0,1-.88-1.8,2.2,2.2,0,0,1,.25-1.05,2.41,2.41,0,0,1,.69-.81,3.18,3.18,0,0,1,1.06-.52,4.43,4.43,0,0,1,1.34-.19,3.81,3.81,0,0,1,1.81.4,2.92,2.92,0,0,1,1.18,1.07,2.79,2.79,0,0,1,.43,1.5h-.85a2.22,2.22,0,0,0-.3-1.15,2,2,0,0,0-.88-.8,3,3,0,0,0-1.39-.29,3.37,3.37,0,0,0-1.38.25,1.94,1.94,0,0,0-.84.66,1.64,1.64,0,0,0-.28.92,1.58,1.58,0,0,0,.14.65,1.72,1.72,0,0,0,.44.56,3.36,3.36,0,0,0,.83.47,8.57,8.57,0,0,0,1.27.42,11.33,11.33,0,0,1,1.4.49,4.13,4.13,0,0,1,1,.61,2.35,2.35,0,0,1,.65.8,2.55,2.55,0,0,1,.22,1.07,2.28,2.28,0,0,1-.26,1.09,2.44,2.44,0,0,1-.72.82A3.54,3.54,0,0,1,730,286a4.92,4.92,0,0,1-1.36.18,5.43,5.43,0,0,1-1.32-.17,4.06,4.06,0,0,1-1.2-.53,2.77,2.77,0,0,1-.87-.93,2.65,2.65,0,0,1-.32-1.35h.83a2.06,2.06,0,0,0,.26,1.06,2,2,0,0,0,.67.69,3,3,0,0,0,.92.39,4.59,4.59,0,0,0,1,.12,3.72,3.72,0,0,0,1.36-.23,2.06,2.06,0,0,0,.9-.65A1.61,1.61,0,0,0,731.17,283.55Zm3.29-8.05V286h-.82V275.5Zm4.64,3.1L735.64,282l-1.47,1.42-.13-.8,1.19-1.28,2.83-2.78Zm-.71,7.4-3.09-3.84.45-.71,3.62,4.55Zm3-7.4V286h-.81v-7.4Zm-.95-2.14a.6.6,0,0,1,.14-.39.55.55,0,1,1,0,.78A.6.6,0,0,1,740.46,276.46Zm4.1-1V286h-.82V275.5Zm3.14,0V286h-.81V275.5Zm10.46,9.06V275.5H759V286h-.76ZM753,282.38v-.15a5.34,5.34,0,0,1,.2-1.55,3.75,3.75,0,0,1,.56-1.19,2.56,2.56,0,0,1,.91-.76,2.67,2.67,0,0,1,1.19-.26,2.9,2.9,0,0,1,1.14.21,2.29,2.29,0,0,1,.86.61,3.17,3.17,0,0,1,.58.94,5.44,5.44,0,0,1,.33,1.22v1.82a5.05,5.05,0,0,1-.3,1.16,3.29,3.29,0,0,1-.58.91,2.67,2.67,0,0,1-.88.59,3.05,3.05,0,0,1-1.17.21,2.42,2.42,0,0,1-1.18-.28,2.65,2.65,0,0,1-.9-.77,3.8,3.8,0,0,1-.56-1.2A5.16,5.16,0,0,1,753,282.38Zm.82-.15v.15a5.08,5.08,0,0,0,.13,1.2,3,3,0,0,0,.4,1,1.89,1.89,0,0,0,.67.65,2,2,0,0,0,1,.23,2.41,2.41,0,0,0,1.19-.27,2.19,2.19,0,0,0,.76-.72,3.3,3.3,0,0,0,.42-1v-2.13a5.65,5.65,0,0,0-.24-.73,2.58,2.58,0,0,0-.43-.69,1.91,1.91,0,0,0-.69-.52,2.27,2.27,0,0,0-1-.2,1.9,1.9,0,0,0-1,.24,1.84,1.84,0,0,0-.68.65,3,3,0,0,0-.4,1A5.08,5.08,0,0,0,753.85,282.23ZM764,286.14a3.18,3.18,0,0,1-2.38-1,3.33,3.33,0,0,1-.69-1.15,4.3,4.3,0,0,1-.24-1.46v-.3a4.4,4.4,0,0,1,.25-1.54,3.6,3.6,0,0,1,.7-1.19,3.21,3.21,0,0,1,1-.75,3.07,3.07,0,0,1,2.45,0,2.45,2.45,0,0,1,.92.7,3.18,3.18,0,0,1,.57,1.08,4.47,4.47,0,0,1,.19,1.36v.5h-5.6v-.7H766v-.1a3,3,0,0,0-.26-1.16,2.09,2.09,0,0,0-.69-.89,2,2,0,0,0-1.17-.34,2,2,0,0,0-1,.22,2.15,2.15,0,0,0-.75.63,3.32,3.32,0,0,0-.48,1,4.31,4.31,0,0,0-.16,1.23v.3a3.49,3.49,0,0,0,.18,1.14,2.64,2.64,0,0,0,.52.93,2.34,2.34,0,0,0,1.83.86,2.67,2.67,0,0,0,1.16-.24,2.52,2.52,0,0,0,.91-.77l.51.39a3.09,3.09,0,0,1-.6.66,2.81,2.81,0,0,1-.85.48A3.51,3.51,0,0,1,764,286.14Zm6.48-.93,2.37-6.61h.84l-2.77,7.4h-.59Zm-2.15-6.61,2.4,6.63.13.77h-.6l-2.78-7.4Zm9.47,7.54a3.22,3.22,0,0,1-2.39-1,3.67,3.67,0,0,1-.69-1.15,4.3,4.3,0,0,1-.24-1.46v-.3a4.4,4.4,0,0,1,.26-1.54,3.58,3.58,0,0,1,.69-1.19,3.45,3.45,0,0,1,1-.75,3,3,0,0,1,1.21-.26,2.94,2.94,0,0,1,1.25.25,2.42,2.42,0,0,1,.91.7,3.18,3.18,0,0,1,.57,1.08,4.47,4.47,0,0,1,.19,1.36v.5H775v-.7h4.78v-.1a3,3,0,0,0-.25-1.16,2.19,2.19,0,0,0-.7-.89,2,2,0,0,0-1.16-.34,2.05,2.05,0,0,0-1,.22,2.11,2.11,0,0,0-.74.63,2.88,2.88,0,0,0-.48,1,4.3,4.3,0,0,0-.17,1.23v.3a3.49,3.49,0,0,0,.18,1.14,2.8,2.8,0,0,0,.52.93,2.47,2.47,0,0,0,.81.63,2.31,2.31,0,0,0,1,.23,2.64,2.64,0,0,0,1.16-.24,2.52,2.52,0,0,0,.91-.77l.52.39a2.9,2.9,0,0,1-.61.66,2.69,2.69,0,0,1-.85.48A3.41,3.41,0,0,1,777.79,286.14Zm5.3-10.64V286h-.82V275.5Zm1.78,6.92v-.23a4.75,4.75,0,0,1,.23-1.49,3.59,3.59,0,0,1,.67-1.18,3,3,0,0,1,1-.77,3.44,3.44,0,0,1,2.72,0,3,3,0,0,1,1,.77,3.42,3.42,0,0,1,.67,1.18,4.48,4.48,0,0,1,.23,1.49v.23a4.48,4.48,0,0,1-.23,1.49,3.38,3.38,0,0,1-.67,1.17,2.85,2.85,0,0,1-1,.78,3.42,3.42,0,0,1-2.71,0,2.89,2.89,0,0,1-1.05-.78,3.54,3.54,0,0,1-.67-1.17A4.75,4.75,0,0,1,784.87,282.42Zm.81-.23v.23a4,4,0,0,0,.17,1.15,3.14,3.14,0,0,0,.48,1,2.29,2.29,0,0,0,.77.65,2.32,2.32,0,0,0,1.08.24,2.27,2.27,0,0,0,1.06-.24,2.23,2.23,0,0,0,.78-.65,3.12,3.12,0,0,0,.47-1,4,4,0,0,0,.16-1.15v-.23a3.88,3.88,0,0,0-.16-1.14,3.09,3.09,0,0,0-.48-1,2.24,2.24,0,0,0-1.85-.92,2.16,2.16,0,0,0-1.06.25,2.18,2.18,0,0,0-.78.67,3.09,3.09,0,0,0-.48,1A4.24,4.24,0,0,0,785.68,282.19ZM794,280v8.82h-.82V278.6h.76Zm5.14,2.21v.15a5.52,5.52,0,0,1-.2,1.51,3.58,3.58,0,0,1-.55,1.2,2.48,2.48,0,0,1-2.08,1.05,3.14,3.14,0,0,1-1.18-.21,2.45,2.45,0,0,1-.89-.58,2.91,2.91,0,0,1-.6-.89,4.29,4.29,0,0,1-.31-1.12v-1.89a5,5,0,0,1,.34-1.22,3.2,3.2,0,0,1,.59-.94,2.45,2.45,0,0,1,.88-.61,3,3,0,0,1,1.15-.21,2.79,2.79,0,0,1,1.21.26,2.5,2.5,0,0,1,.89.76,3.35,3.35,0,0,1,.55,1.19A5.71,5.71,0,0,1,799.12,282.23Zm-.82.15v-.15a5.06,5.06,0,0,0-.14-1.2,3,3,0,0,0-.4-1,1.87,1.87,0,0,0-.69-.65,1.9,1.9,0,0,0-1-.24,2.35,2.35,0,0,0-1,.2,2,2,0,0,0-.68.52,2.16,2.16,0,0,0-.43.69,3.66,3.66,0,0,0-.24.73v2.19a3.42,3.42,0,0,0,.42,1,2.17,2.17,0,0,0,.77.7,2.37,2.37,0,0,0,1.18.26,1.88,1.88,0,0,0,1-.23,1.92,1.92,0,0,0,.68-.65,3.14,3.14,0,0,0,.4-1A5.06,5.06,0,0,0,798.3,282.38Zm3.41-2.24V286h-.82v-7.4h.78Zm-.15,1.7-.4-.2a4.41,4.41,0,0,1,.25-1.23,3.14,3.14,0,0,1,.58-1,2.64,2.64,0,0,1,2.1-.93,3,3,0,0,1,1,.15,1.7,1.7,0,0,1,.75.46,2.05,2.05,0,0,1,.49.8,3.81,3.81,0,0,1,.17,1.2V286h-.82v-4.89a2.34,2.34,0,0,0-.23-1.16,1.24,1.24,0,0,0-.63-.59,2.28,2.28,0,0,0-.94-.18,2,2,0,0,0-1.07.26,2.21,2.21,0,0,0-.7.66,3.12,3.12,0,0,0-.4.87A3.46,3.46,0,0,0,801.56,281.84Zm4.91-.64h-.55a3.38,3.38,0,0,1,.25-1,2.94,2.94,0,0,1,.6-.87,2.79,2.79,0,0,1,.89-.62,3,3,0,0,1,1.18-.22,3.24,3.24,0,0,1,1,.15,1.85,1.85,0,0,1,.76.49,2.16,2.16,0,0,1,.48.84,4,4,0,0,1,.16,1.23V286h-.82v-4.83a2.63,2.63,0,0,0-.23-1.21,1.24,1.24,0,0,0-.63-.61,2.29,2.29,0,0,0-.94-.17,2.13,2.13,0,0,0-.94.2,2,2,0,0,0-.68.49,2.37,2.37,0,0,0-.41.65A2.14,2.14,0,0,0,806.47,281.2Zm9.74,4.94a3.18,3.18,0,0,1-2.39-1,3.33,3.33,0,0,1-.69-1.15,4.3,4.3,0,0,1-.24-1.46v-.3a4.4,4.4,0,0,1,.25-1.54,3.6,3.6,0,0,1,.7-1.19,3.32,3.32,0,0,1,1-.75,3.09,3.09,0,0,1,2.46,0,2.42,2.42,0,0,1,.91.7,3.18,3.18,0,0,1,.57,1.08,4.47,4.47,0,0,1,.19,1.36v.5h-5.6v-.7h4.79v-.1a2.85,2.85,0,0,0-.26-1.16,2.09,2.09,0,0,0-.69-.89,2,2,0,0,0-1.16-.34,2.05,2.05,0,0,0-1,.22,2.15,2.15,0,0,0-.75.63,3.07,3.07,0,0,0-.47,1,4.3,4.3,0,0,0-.17,1.23v.3a3.49,3.49,0,0,0,.18,1.14,2.64,2.64,0,0,0,.52.93,2.47,2.47,0,0,0,.81.63,2.31,2.31,0,0,0,1,.23,2.64,2.64,0,0,0,1.16-.24,2.52,2.52,0,0,0,.91-.77l.51.39a3.09,3.09,0,0,1-.6.66,2.69,2.69,0,0,1-.85.48A3.45,3.45,0,0,1,816.21,286.14Zm5.2-6V286h-.82v-7.4h.78Zm-.19,1.66-.36-.2a4.09,4.09,0,0,1,.27-1.23,3.21,3.21,0,0,1,.61-1,2.93,2.93,0,0,1,.91-.69,2.74,2.74,0,0,1,1.16-.24,3,3,0,0,1,1,.15,1.76,1.76,0,0,1,.74.48,2.07,2.07,0,0,1,.47.84,4.13,4.13,0,0,1,.16,1.25V286h-.82v-4.82a2.81,2.81,0,0,0-.21-1.2,1.25,1.25,0,0,0-.6-.62,2.19,2.19,0,0,0-.92-.18,2,2,0,0,0-1,.26,2.42,2.42,0,0,0-.73.66,3,3,0,0,0-.45.87A2.88,2.88,0,0,0,821.22,281.84Zm9.87-3.24v.67h-3.71v-.67Zm-2.35-1.9h.82v7.5a1.8,1.8,0,0,0,.13.78.7.7,0,0,0,.36.34,1.23,1.23,0,0,0,.47.09l.36,0,.3-.05,0,.69a2.53,2.53,0,0,1-.39.07,3.88,3.88,0,0,1-.48,0,2,2,0,0,1-.83-.17,1.22,1.22,0,0,1-.57-.61,2.64,2.64,0,0,1-.21-1.16Z"></path><path class="cls-3" d="M772.9,204H761.6a2.61,2.61,0,0,0-2.6,2.66v11.52a2.61,2.61,0,0,0,2.6,2.66h11.3a2.6,2.6,0,0,0,2.6-2.66V206.66A2.63,2.63,0,0,0,772.9,204Zm.52,14.18a.5.5,0,0,1-.52.53H761.6a.5.5,0,0,1-.52-.53V206.66a.5.5,0,0,1,.52-.54h11.3a.5.5,0,0,1,.52.54Z"></path><path class="cls-3" d="M794.4,204H783.1a2.61,2.61,0,0,0-2.6,2.66v11.52a2.61,2.61,0,0,0,2.6,2.66h11.3a2.6,2.6,0,0,0,2.6-2.66V206.66A2.67,2.67,0,0,0,794.4,204Zm.52,14.18a.5.5,0,0,1-.52.53H783.1a.5.5,0,0,1-.52-.53V206.66a.5.5,0,0,1,.52-.54h11.3a.5.5,0,0,1,.52.54Z"></path><path class="cls-3" d="M772.9,225.94H761.6a2.61,2.61,0,0,0-2.6,2.66v11.52a2.61,2.61,0,0,0,2.6,2.66h11.3a2.6,2.6,0,0,0,2.6-2.66V228.6A2.6,2.6,0,0,0,772.9,225.94Zm.52,14.18a.5.5,0,0,1-.52.53H761.6a.5.5,0,0,1-.52-.53V228.6a.5.5,0,0,1,.52-.54h11.3a.5.5,0,0,1,.52.54Z"></path><path class="cls-3" d="M794.4,225.94H783.1a2.61,2.61,0,0,0-2.6,2.66v11.52a2.61,2.61,0,0,0,2.6,2.66h11.3a2.6,2.6,0,0,0,2.6-2.66V228.6A2.64,2.64,0,0,0,794.4,225.94Z"></path><rect class="cls-1" x="351.5" y="336.5" width="151" height="143"></rect><path class="cls-2" d="M393.46,431.05h.84l3.68,8.76,3.69-8.76h.84L398.3,441h-.64Zm-.26,0h.74l.09,5.6V441h-.83Zm8.84,0h.74V441h-.84v-4.35Zm7.58,8.62v-3.81a1.86,1.86,0,0,0-.22-.91,1.53,1.53,0,0,0-.64-.59,2.55,2.55,0,0,0-1.05-.2,2.59,2.59,0,0,0-1,.2,1.74,1.74,0,0,0-.7.54,1.21,1.21,0,0,0-.25.75h-.82a1.8,1.8,0,0,1,.2-.81,2.23,2.23,0,0,1,.58-.69,2.78,2.78,0,0,1,.9-.49,3.51,3.51,0,0,1,1.15-.18,3.57,3.57,0,0,1,1.4.26,2.19,2.19,0,0,1,.95.8,2.42,2.42,0,0,1,.34,1.34v3.58a7.29,7.29,0,0,0,.05.79,3.05,3.05,0,0,0,.17.68V441h-.86a2.81,2.81,0,0,1-.13-.61A6.13,6.13,0,0,1,409.62,439.67Zm.19-3v.63h-1.61a4.81,4.81,0,0,0-1.12.12,2.46,2.46,0,0,0-.84.33,1.5,1.5,0,0,0-.52.51,1.4,1.4,0,0,0,0,1.41,1.44,1.44,0,0,0,.57.52,1.91,1.91,0,0,0,.89.19,2.63,2.63,0,0,0,2.07-.91,2.15,2.15,0,0,0,.46-.9l.36.48a2.44,2.44,0,0,1-.33.7,3.17,3.17,0,0,1-.61.67,3.64,3.64,0,0,1-.89.51,3.42,3.42,0,0,1-1.15.19,2.66,2.66,0,0,1-1.26-.28,2.08,2.08,0,0,1-.9-2.8,2.15,2.15,0,0,1,.67-.74,3.27,3.27,0,0,1,1.07-.46,5.56,5.56,0,0,1,1.41-.17Zm5.61-3.09v.67h-3.71v-.67Zm-2.34-1.9h.81v7.5a1.8,1.8,0,0,0,.13.78.73.73,0,0,0,.36.34,1.23,1.23,0,0,0,.47.09l.36,0,.31-.05,0,.69a2.53,2.53,0,0,1-.39.07,3.88,3.88,0,0,1-.48,0,2,2,0,0,1-.83-.17,1.26,1.26,0,0,1-.57-.61,2.66,2.66,0,0,1-.2-1.16Zm6.91,9.44a3.18,3.18,0,0,1-2.38-1,3.33,3.33,0,0,1-.69-1.15,4.3,4.3,0,0,1-.24-1.46v-.3a4.4,4.4,0,0,1,.25-1.54,3.6,3.6,0,0,1,.7-1.19,3.21,3.21,0,0,1,1-.75,3.07,3.07,0,0,1,2.45,0,2.45,2.45,0,0,1,.92.7,3.18,3.18,0,0,1,.57,1.08,4.8,4.8,0,0,1,.19,1.36v.5h-5.6v-.7H422v-.1a2.84,2.84,0,0,0-.25-1.16,2.09,2.09,0,0,0-.69-.89,2,2,0,0,0-1.17-.34,2,2,0,0,0-.95.22,2.15,2.15,0,0,0-.75.63,3.32,3.32,0,0,0-.48,1,4.31,4.31,0,0,0-.16,1.23v.3a3.49,3.49,0,0,0,.18,1.14,2.64,2.64,0,0,0,.52.93,2.34,2.34,0,0,0,1.83.86,2.7,2.7,0,0,0,1.16-.24,2.52,2.52,0,0,0,.91-.77l.51.39a3.09,3.09,0,0,1-.6.66,2.75,2.75,0,0,1-.86.48A3.41,3.41,0,0,1,420,441.14Zm5.21-6.31V441h-.82v-7.4h.79Zm2.61-1.28,0,.75-.26,0-.28,0a2.13,2.13,0,0,0-.94.2,2,2,0,0,0-.67.54,2.59,2.59,0,0,0-.42.81,3.79,3.79,0,0,0-.16,1l-.3.12a5.82,5.82,0,0,1,.15-1.35,3.35,3.35,0,0,1,.46-1.09,2.14,2.14,0,0,1,1.9-1l.31,0Zm2.1,1.63V441h-.81v-7.4h.78Zm-.18,1.66-.37-.2a4.09,4.09,0,0,1,.27-1.23,3.21,3.21,0,0,1,.61-1,2.93,2.93,0,0,1,.91-.69,2.77,2.77,0,0,1,1.16-.24,3,3,0,0,1,1,.15,1.86,1.86,0,0,1,.75.48,2.06,2.06,0,0,1,.46.84,4.1,4.1,0,0,1,.17,1.25V441h-.82v-4.82a2.65,2.65,0,0,0-.22-1.2,1.25,1.25,0,0,0-.6-.62,2.16,2.16,0,0,0-.92-.18,1.93,1.93,0,0,0-1,.26,2.46,2.46,0,0,0-.74.66,3,3,0,0,0-.45.87A2.85,2.85,0,0,0,429.73,436.84Zm8-3.24V441h-.81v-7.4Zm-.95-2.14a.6.6,0,0,1,.14-.39.53.53,0,0,1,.41-.16.51.51,0,0,1,.41.16.56.56,0,0,1,0,.78.51.51,0,0,1-.41.16.53.53,0,0,1-.41-.16A.6.6,0,0,1,436.75,431.46Zm6,2.14v.67H439v-.67Zm-2.35-1.9h.81v7.5a1.78,1.78,0,0,0,.14.78.7.7,0,0,0,.36.34,1.19,1.19,0,0,0,.47.09l.35,0,.31-.05,0,.69a2.53,2.53,0,0,1-.39.07,3.88,3.88,0,0,1-.48,0,2,2,0,0,1-.84-.17,1.2,1.2,0,0,1-.56-.61,2.64,2.64,0,0,1-.21-1.16Zm6.26,8.56,2.3-6.66h.88l-3.13,8.59a5.15,5.15,0,0,1-.25.56,2.56,2.56,0,0,1-.38.59,1.85,1.85,0,0,1-1.44.65,1.47,1.47,0,0,1-.33,0l-.29-.05v-.69l.22,0,.2,0a1.65,1.65,0,0,0,.74-.15,1.27,1.27,0,0,0,.52-.46,3.54,3.54,0,0,0,.36-.73Zm-2.16-6.66,2.36,6.35.22.86-.59.33-2.88-7.54Zm11.63,2,1.6-1.2a3.39,3.39,0,0,0,.72-.69,1.41,1.41,0,0,0,.29-.88,1.27,1.27,0,0,0-.35-.87,1.29,1.29,0,0,0-1-.38,1.42,1.42,0,0,0-.8.21,1.29,1.29,0,0,0-.5.56,1.77,1.77,0,0,0-.16.77,1.94,1.94,0,0,0,.13.68,4.68,4.68,0,0,0,.38.73,7.68,7.68,0,0,0,.61.79l4.84,5.65h-1l-4.13-4.79c-.33-.39-.63-.76-.88-1.09a4.67,4.67,0,0,1-.59-1,2.53,2.53,0,0,1-.2-1,2.43,2.43,0,0,1,.28-1.21,2,2,0,0,1,.79-.78,2.57,2.57,0,0,1,1.21-.28,2.14,2.14,0,0,1,1.14.28,1.73,1.73,0,0,1,.73.71,1.88,1.88,0,0,1,.26,1,1.85,1.85,0,0,1-.2.83,2.76,2.76,0,0,1-.5.69,5.59,5.59,0,0,1-.63.57l-1.82,1.4a4.52,4.52,0,0,0-.88.87,2.66,2.66,0,0,0-.37.7,1.87,1.87,0,0,0,.16,1.51,1.76,1.76,0,0,0,.75.73,2.68,2.68,0,0,0,1.27.27,3,3,0,0,0,1.25-.27,3.42,3.42,0,0,0,1.07-.79,3.83,3.83,0,0,0,.75-1.23,4.3,4.3,0,0,0,.28-1.6h.76a5.85,5.85,0,0,1-.13,1.22,4.1,4.1,0,0,1-1,1.93.59.59,0,0,0-.08.11.24.24,0,0,1-.07.09,4,4,0,0,1-1.28.91,3.82,3.82,0,0,1-1.57.34,3.78,3.78,0,0,1-1.64-.34,2.4,2.4,0,0,1-1.07-.94,2.59,2.59,0,0,1-.37-1.4,2.39,2.39,0,0,1,.25-1.08,3.48,3.48,0,0,1,.69-.91A10.45,10.45,0,0,1,456.12,435.63ZM384.45,451v8.82h-.82V449.6h.77Zm5.14,2.21v.15a5.53,5.53,0,0,1-.19,1.51,3.79,3.79,0,0,1-.55,1.2,2.48,2.48,0,0,1-2.08,1.05,3.1,3.1,0,0,1-1.18-.21,2.49,2.49,0,0,1-.9-.58,3.07,3.07,0,0,1-.59-.89,4.29,4.29,0,0,1-.31-1.12v-1.89a5.44,5.44,0,0,1,.33-1.22,3.44,3.44,0,0,1,.6-.94,2.45,2.45,0,0,1,.88-.61,3,3,0,0,1,1.15-.21,2.71,2.71,0,0,1,1.2.26,2.44,2.44,0,0,1,.9.76,3.35,3.35,0,0,1,.55,1.19A5.72,5.72,0,0,1,389.59,453.23Zm-.82.15v-.15a5.08,5.08,0,0,0-.13-1.2,2.79,2.79,0,0,0-.41-1,1.77,1.77,0,0,0-.68-.65,1.9,1.9,0,0,0-1-.24,2.35,2.35,0,0,0-1,.2,2,2,0,0,0-.69.52,2.58,2.58,0,0,0-.43.69,4.38,4.38,0,0,0-.23.73v2.19a3.42,3.42,0,0,0,.42,1,2.14,2.14,0,0,0,.76.7,2.43,2.43,0,0,0,1.19.26,1.91,1.91,0,0,0,1-.23,1.81,1.81,0,0,0,.67-.65,2.93,2.93,0,0,0,.41-1A5.08,5.08,0,0,0,388.77,453.38Zm7.14,2.29v-3.81a1.75,1.75,0,0,0-.22-.91,1.47,1.47,0,0,0-.64-.59,2.49,2.49,0,0,0-1.05-.2,2.54,2.54,0,0,0-1,.2,1.77,1.77,0,0,0-.71.54,1.27,1.27,0,0,0-.25.75h-.82a1.8,1.8,0,0,1,.2-.81,2.26,2.26,0,0,1,.59-.69,2.84,2.84,0,0,1,.89-.49,3.57,3.57,0,0,1,1.16-.18,3.52,3.52,0,0,1,1.39.26,2.14,2.14,0,0,1,.95.8,2.42,2.42,0,0,1,.34,1.34v3.58a5.46,5.46,0,0,0,.06.79,3.05,3.05,0,0,0,.17.68V457h-.87a3.56,3.56,0,0,1-.13-.61A6.13,6.13,0,0,1,395.91,455.67Zm.19-3v.63h-1.6a4.84,4.84,0,0,0-1.13.12,2.33,2.33,0,0,0-.83.33,1.53,1.53,0,0,0-.53.51,1.3,1.3,0,0,0-.18.68,1.4,1.4,0,0,0,.2.73,1.51,1.51,0,0,0,.57.52,1.94,1.94,0,0,0,.89.19,2.73,2.73,0,0,0,1.21-.25,2.64,2.64,0,0,0,.87-.66,2.13,2.13,0,0,0,.45-.9l.36.48a2.44,2.44,0,0,1-.33.7,2.92,2.92,0,0,1-.61.67,3.64,3.64,0,0,1-.89.51,3.36,3.36,0,0,1-1.14.19,2.67,2.67,0,0,1-1.27-.28,2.13,2.13,0,0,1-.83-.74,2.11,2.11,0,0,1-.06-2.06,2,2,0,0,1,.66-.74,3.36,3.36,0,0,1,1.07-.46,5.56,5.56,0,0,1,1.41-.17Zm5.61-3.09v.67H398v-.67Zm-2.34-1.9h.81v7.5a1.78,1.78,0,0,0,.14.78.72.72,0,0,0,.35.34,1.28,1.28,0,0,0,.48.09l.35,0,.31-.05,0,.69a2.53,2.53,0,0,1-.39.07,3.57,3.57,0,0,1-.47,0,2,2,0,0,1-.84-.17,1.26,1.26,0,0,1-.57-.61,2.81,2.81,0,0,1-.2-1.16Zm6.92,9.44a3.18,3.18,0,0,1-2.39-1,3.67,3.67,0,0,1-.69-1.15,4.3,4.3,0,0,1-.24-1.46v-.3a4.4,4.4,0,0,1,.26-1.54,3.58,3.58,0,0,1,.69-1.19,3.32,3.32,0,0,1,1-.75,3,3,0,0,1,1.21-.26,2.94,2.94,0,0,1,1.25.25,2.42,2.42,0,0,1,.91.7,3.18,3.18,0,0,1,.57,1.08,4.47,4.47,0,0,1,.19,1.36v.5h-5.6v-.7h4.79v-.1a3,3,0,0,0-.25-1.16,2.19,2.19,0,0,0-.7-.89,2,2,0,0,0-1.16-.34,2.05,2.05,0,0,0-1,.22,2.15,2.15,0,0,0-.75.63,3.07,3.07,0,0,0-.47,1,4.3,4.3,0,0,0-.17,1.23v.3a3.49,3.49,0,0,0,.18,1.14,2.8,2.8,0,0,0,.52.93,2.47,2.47,0,0,0,.81.63,2.31,2.31,0,0,0,1,.23,2.64,2.64,0,0,0,1.16-.24,2.52,2.52,0,0,0,.91-.77l.51.39a2.64,2.64,0,0,1-.6.66,2.69,2.69,0,0,1-.85.48A3.41,3.41,0,0,1,406.29,457.14Zm5.2-6.31V457h-.81v-7.4h.79Zm2.62-1.28,0,.75-.27,0-.28,0a2.13,2.13,0,0,0-.94.2,2,2,0,0,0-.67.54,2.38,2.38,0,0,0-.41.81,3.79,3.79,0,0,0-.17,1l-.3.12a5.82,5.82,0,0,1,.15-1.35,3.35,3.35,0,0,1,.46-1.09,2.3,2.3,0,0,1,.79-.73,2.34,2.34,0,0,1,1.12-.26l.31,0Zm2.1,1.63V457h-.82v-7.4h.78Zm-.19,1.66-.36-.2a3.8,3.8,0,0,1,.27-1.23,3.38,3.38,0,0,1,.6-1,3,3,0,0,1,.91-.69,2.78,2.78,0,0,1,1.17-.24,3.07,3.07,0,0,1,1,.15,1.76,1.76,0,0,1,.74.48,2.07,2.07,0,0,1,.47.84,4.13,4.13,0,0,1,.16,1.25V457h-.82v-4.82a2.81,2.81,0,0,0-.21-1.2,1.25,1.25,0,0,0-.6-.62,2.2,2.2,0,0,0-.93-.18,2,2,0,0,0-1,.26,2.46,2.46,0,0,0-.74.66,3.59,3.59,0,0,0-.45.87A3.18,3.18,0,0,0,416,452.84Zm8-3.24V457h-.81v-7.4Zm-1-2.14a.56.56,0,0,1,.15-.39.51.51,0,0,1,.41-.16.53.53,0,0,1,.41.16.58.58,0,0,1,0,.78.53.53,0,0,1-.41.16.51.51,0,0,1-.41-.16A.56.56,0,0,1,423,447.46Zm6,2.14v.67h-3.7v-.67Zm-2.34-1.9h.81v7.5a1.78,1.78,0,0,0,.14.78.72.72,0,0,0,.35.34,1.23,1.23,0,0,0,.47.09l.36,0,.31-.05,0,.69a2.53,2.53,0,0,1-.39.07,3.88,3.88,0,0,1-.48,0,2,2,0,0,1-.83-.17,1.26,1.26,0,0,1-.57-.61,2.66,2.66,0,0,1-.2-1.16Zm6.25,8.56,2.3-6.66h.89L433,458.19a5,5,0,0,1-.24.56,3,3,0,0,1-.38.59,1.81,1.81,0,0,1-.59.46,1.74,1.74,0,0,1-.86.19,1.6,1.6,0,0,1-.33,0l-.29-.05v-.69l.21,0,.2,0a1.67,1.67,0,0,0,.75-.15,1.31,1.31,0,0,0,.51-.46,2.76,2.76,0,0,0,.36-.73Zm-2.15-6.66,2.36,6.35.21.86-.59.33-2.87-7.54Zm10.94-3.1V457h-.81V446.5Zm5.09,10.64a3.18,3.18,0,0,1-2.38-1,3.33,3.33,0,0,1-.69-1.15,4.3,4.3,0,0,1-.24-1.46v-.3a4.4,4.4,0,0,1,.25-1.54,3.6,3.6,0,0,1,.7-1.19,3.32,3.32,0,0,1,1-.75,3,3,0,0,1,1.2-.26,2.91,2.91,0,0,1,1.25.25,2.38,2.38,0,0,1,.92.7,3.18,3.18,0,0,1,.57,1.08,4.47,4.47,0,0,1,.19,1.36v.5H444v-.7h4.79v-.1a3,3,0,0,0-.26-1.16,2.09,2.09,0,0,0-.69-.89,2,2,0,0,0-1.17-.34,2,2,0,0,0-.95.22,2.15,2.15,0,0,0-.75.63,3.32,3.32,0,0,0-.48,1,4.31,4.31,0,0,0-.16,1.23v.3a3.49,3.49,0,0,0,.18,1.14,2.64,2.64,0,0,0,.52.93,2.34,2.34,0,0,0,1.83.86,2.67,2.67,0,0,0,1.16-.24,2.52,2.52,0,0,0,.91-.77l.51.39a3.09,3.09,0,0,1-.6.66,2.81,2.81,0,0,1-.85.48A3.47,3.47,0,0,1,446.82,457.14Zm8.89-1.47v-3.81a1.75,1.75,0,0,0-.22-.91,1.47,1.47,0,0,0-.64-.59,2.49,2.49,0,0,0-1.05-.2,2.54,2.54,0,0,0-1,.2,1.77,1.77,0,0,0-.71.54,1.27,1.27,0,0,0-.25.75H451a1.69,1.69,0,0,1,.21-.81,2.1,2.1,0,0,1,.58-.69,2.84,2.84,0,0,1,.89-.49,3.57,3.57,0,0,1,1.16-.18,3.52,3.52,0,0,1,1.39.26,2.14,2.14,0,0,1,.95.8,2.42,2.42,0,0,1,.34,1.34v3.58a5.46,5.46,0,0,0,.06.79,3.05,3.05,0,0,0,.17.68V457h-.87a3.56,3.56,0,0,1-.13-.61C455.73,456.13,455.71,455.9,455.71,455.67Zm.19-3,0,.63h-1.61a4.84,4.84,0,0,0-1.13.12,2.4,2.4,0,0,0-.83.33,1.53,1.53,0,0,0-.53.51,1.3,1.3,0,0,0-.18.68,1.4,1.4,0,0,0,.2.73,1.47,1.47,0,0,0,.58.52,1.87,1.87,0,0,0,.88.19,2.73,2.73,0,0,0,1.21-.25,2.64,2.64,0,0,0,.87-.66,2.13,2.13,0,0,0,.45-.9l.36.48a2.44,2.44,0,0,1-.33.7,2.92,2.92,0,0,1-.61.67,3.46,3.46,0,0,1-.89.51,3.36,3.36,0,0,1-1.14.19,2.67,2.67,0,0,1-1.27-.28,2.13,2.13,0,0,1-.83-.74,2.11,2.11,0,0,1-.06-2.06,2,2,0,0,1,.67-.74,3.21,3.21,0,0,1,1.06-.46,5.56,5.56,0,0,1,1.41-.17Zm4.89,3.52,2.37-6.61H464l-2.77,7.4h-.59Zm-2.15-6.61,2.4,6.63.13.77h-.6l-2.77-7.4Zm9.47,7.54a3.18,3.18,0,0,1-2.38-1A3.33,3.33,0,0,1,465,455a4.3,4.3,0,0,1-.24-1.46v-.3a4.4,4.4,0,0,1,.25-1.54,3.6,3.6,0,0,1,.7-1.19,3.21,3.21,0,0,1,1-.75,3.07,3.07,0,0,1,2.45,0,2.45,2.45,0,0,1,.92.7,3.18,3.18,0,0,1,.57,1.08,4.8,4.8,0,0,1,.19,1.36v.5h-5.6v-.7h4.78v-.1a3,3,0,0,0-.25-1.16,2.11,2.11,0,0,0-.7-.89,1.94,1.94,0,0,0-1.16-.34,2.08,2.08,0,0,0-1,.22,2.21,2.21,0,0,0-.74.63,2.88,2.88,0,0,0-.48,1,4.31,4.31,0,0,0-.16,1.23v.3a3.49,3.49,0,0,0,.17,1.14,3,3,0,0,0,.52.93,2.47,2.47,0,0,0,.81.63,2.33,2.33,0,0,0,1,.23,2.7,2.7,0,0,0,1.16-.24,2.61,2.61,0,0,0,.91-.77l.51.39a3.09,3.09,0,0,1-.6.66,2.75,2.75,0,0,1-.86.48A3.41,3.41,0,0,1,468.11,457.14Z"></path><path class="cls-3" d="M426.47,368A14.5,14.5,0,0,0,412,382.42v13.11a14.47,14.47,0,1,0,28.93,0V382.47A14.48,14.48,0,0,0,426.47,368Zm-10,35.19a13,13,0,0,1-2.56-7.66v-8a21.67,21.67,0,0,0,10.36,9.29c.09.05.14.05.18.09a30.92,30.92,0,0,0-8,6.26Zm7.38-24.13a3.73,3.73,0,0,0,6.39-2.66,2.17,2.17,0,0,0-.09-.75,6.59,6.59,0,0,1,2.66,3.78.89.89,0,0,0,.88.7h.75a.94.94,0,0,1,0,1.87h-.7a.91.91,0,0,0-.89.7,6.53,6.53,0,0,1-12.64,0,.91.91,0,0,0-.89-.7h-.75a.94.94,0,0,1,0-1.87h.7a.9.9,0,0,0,.89-.7,6.59,6.59,0,0,1,6.35-4.9,1.69,1.69,0,0,1,1.3.56,1.83,1.83,0,0,1,.56,1.31,1.75,1.75,0,0,1-.56,1.31,2,2,0,0,1-2.66,0,.88.88,0,0,0-1.3,0,1,1,0,0,0,0,1.35Zm-1.17,9.47a8.25,8.25,0,0,0,7.65,0,4.22,4.22,0,0,1,3.74,2.52,20.74,20.74,0,0,1-6.12,4.11l-1.49.7-1.49-.7a21.42,21.42,0,0,1-6.12-4.11,4.47,4.47,0,0,1,3.83-2.52Zm16.43,7a12.62,12.62,0,0,1-21.38,9.06c.94-1.12,4.3-4.67,11-7.75a22.16,22.16,0,0,0,10.36-9.29Zm-3.69-5.92a5.9,5.9,0,0,0-3-2.52,9.48,9.48,0,0,0,2-3.22,2.8,2.8,0,0,0,0-5.6,8.42,8.42,0,0,0-15.87,0,2.8,2.8,0,1,0,0,5.6,8.68,8.68,0,0,0,2.06,3.22,5.92,5.92,0,0,0-3,2.52,17.13,17.13,0,0,1-3.68-7.24,12.6,12.6,0,0,1,25.2,0,17.21,17.21,0,0,1-3.69,7.24Z"></path><path class="cls-4" d="M174.5,78.5h151v143h-151Z"></path><path class="cls-2" d="M226.08,173.05V183h-.84v-9.95Zm3.33,4.13V183h-.81v-7.4h.78Zm-.18,1.66-.37-.2a4.09,4.09,0,0,1,.27-1.23,3.21,3.21,0,0,1,.61-1,2.64,2.64,0,0,1,2.07-.93,3,3,0,0,1,1,.15,1.86,1.86,0,0,1,.75.48,2.06,2.06,0,0,1,.46.84,4.1,4.1,0,0,1,.17,1.25V183h-.83v-4.82a2.81,2.81,0,0,0-.21-1.2,1.29,1.29,0,0,0-.6-.62,2.19,2.19,0,0,0-.92-.18,1.93,1.93,0,0,0-1,.26,2.35,2.35,0,0,0-.74.66,3,3,0,0,0-.45.87A2.85,2.85,0,0,0,229.23,178.84Zm11.29-6.34V183h-.81V172.5Zm-.18,6.34-.36-.2a4.41,4.41,0,0,1,.26-1.23,3.63,3.63,0,0,1,.61-1,2.89,2.89,0,0,1,.91-.69,2.78,2.78,0,0,1,1.17-.24,3.12,3.12,0,0,1,1,.15,1.76,1.76,0,0,1,.74.48,2.07,2.07,0,0,1,.47.84,4.13,4.13,0,0,1,.16,1.25V183h-.82v-4.82a2.81,2.81,0,0,0-.21-1.2,1.29,1.29,0,0,0-.6-.62,2.2,2.2,0,0,0-.93-.18,2,2,0,0,0-1,.26,2.46,2.46,0,0,0-.74.66,3.59,3.59,0,0,0-.45.87A3.18,3.18,0,0,0,240.34,178.84Zm6.6.58v-.23a4.48,4.48,0,0,1,.24-1.49,3.4,3.4,0,0,1,.66-1.18,3,3,0,0,1,1-.77,3.11,3.11,0,0,1,1.35-.28,3.18,3.18,0,0,1,1.36.28,3.07,3.07,0,0,1,1.05.77,3.59,3.59,0,0,1,.67,1.18,4.75,4.75,0,0,1,.23,1.49v.23a4.75,4.75,0,0,1-.23,1.49,3.54,3.54,0,0,1-.67,1.17,2.94,2.94,0,0,1-1,.78,3.44,3.44,0,0,1-2.72,0,2.94,2.94,0,0,1-1-.78,3.23,3.23,0,0,1-.67-1.17A4.48,4.48,0,0,1,246.94,179.42Zm.82-.23v.23a4,4,0,0,0,.16,1.15,3.14,3.14,0,0,0,.48,1,2.23,2.23,0,0,0,.78.65,2.31,2.31,0,0,0,1.07.24,2.25,2.25,0,0,0,1.84-.89,2.92,2.92,0,0,0,.47-1,4,4,0,0,0,.17-1.15v-.23a3.88,3.88,0,0,0-.17-1.14,2.87,2.87,0,0,0-.47-1,2.35,2.35,0,0,0-2.92-.67,2.37,2.37,0,0,0-.78.67,3.09,3.09,0,0,0-.48,1A4.24,4.24,0,0,0,247.76,179.19Zm12.22,2.1V175.6h.82V183H260Zm.15-1.37h.42a4.8,4.8,0,0,1-.16,1.29,2.88,2.88,0,0,1-.51,1,2.29,2.29,0,0,1-.9.68,3.38,3.38,0,0,1-1.34.24,3.12,3.12,0,0,1-1-.15,1.94,1.94,0,0,1-.76-.5,2.2,2.2,0,0,1-.5-.86,4.14,4.14,0,0,1-.17-1.3V175.6H256v4.75a3.17,3.17,0,0,0,.13,1,1.66,1.66,0,0,0,.37.64,1.49,1.49,0,0,0,.55.34,2.28,2.28,0,0,0,.66.1,2.55,2.55,0,0,0,1.42-.35,1.85,1.85,0,0,0,.74-.92A3.13,3.13,0,0,0,260.13,179.92Zm7.24,1.19a1.26,1.26,0,0,0-.15-.59,1.33,1.33,0,0,0-.58-.54,4.29,4.29,0,0,0-1.25-.42,8.16,8.16,0,0,1-1.1-.31,3.07,3.07,0,0,1-.81-.41,1.69,1.69,0,0,1-.5-.57,1.77,1.77,0,0,1-.17-.79,1.75,1.75,0,0,1,.18-.78,2,2,0,0,1,.52-.64,2.79,2.79,0,0,1,.82-.44,3.64,3.64,0,0,1,1.09-.15,3.46,3.46,0,0,1,1.46.29,2.08,2.08,0,0,1,.93.79,2,2,0,0,1,.33,1.13h-.81a1.31,1.31,0,0,0-.23-.73,1.57,1.57,0,0,0-.65-.56,2.15,2.15,0,0,0-1-.22,2.54,2.54,0,0,0-1,.19,1.36,1.36,0,0,0-.58.49,1.14,1.14,0,0,0-.18.61,1.33,1.33,0,0,0,.08.45,1,1,0,0,0,.29.37,2.34,2.34,0,0,0,.6.32,6.78,6.78,0,0,0,1,.29,6.2,6.2,0,0,1,1.46.49,2,2,0,0,1,.85.69,2,2,0,0,1,.08,1.84,1.89,1.89,0,0,1-.55.65,2.77,2.77,0,0,1-.86.43,3.94,3.94,0,0,1-1.12.15,3.75,3.75,0,0,1-1.59-.31,2.43,2.43,0,0,1-1-.82,2,2,0,0,1-.33-1.09h.82a1.39,1.39,0,0,0,.36.91,1.76,1.76,0,0,0,.79.47,3.31,3.31,0,0,0,.93.13,2.67,2.67,0,0,0,1.05-.18,1.56,1.56,0,0,0,.64-.49A1,1,0,0,0,267.37,181.11Zm5.52,2a3.18,3.18,0,0,1-2.38-1,3.43,3.43,0,0,1-.69-1.15,4.3,4.3,0,0,1-.24-1.46v-.3a4.4,4.4,0,0,1,.25-1.54,3.46,3.46,0,0,1,.7-1.18,3.2,3.2,0,0,1,1-.76,3.07,3.07,0,0,1,2.45,0,2.45,2.45,0,0,1,.92.7,3.18,3.18,0,0,1,.57,1.08,4.47,4.47,0,0,1,.19,1.36v.5h-5.6v-.7h4.79v-.1a3,3,0,0,0-.26-1.16,2.11,2.11,0,0,0-.7-.89,1.92,1.92,0,0,0-1.16-.34,2,2,0,0,0-.95.22,2.15,2.15,0,0,0-.75.63,3.32,3.32,0,0,0-.48,1,4.31,4.31,0,0,0-.16,1.23v.3a3.49,3.49,0,0,0,.18,1.14,2.78,2.78,0,0,0,.52.94,2.43,2.43,0,0,0,.8.62,2.33,2.33,0,0,0,1,.23,2.7,2.7,0,0,0,1.16-.24,2.52,2.52,0,0,0,.91-.77l.51.39a3.09,3.09,0,0,1-.6.66,2.81,2.81,0,0,1-.85.48A3.47,3.47,0,0,1,272.89,183.14Zm-37.63,5.36V199h-.81V188.5Zm7,8.79V191.6h.82V199h-.78Zm.15-1.37h.43a5.24,5.24,0,0,1-.16,1.29,2.9,2.9,0,0,1-.52,1,2.29,2.29,0,0,1-.9.68,3.33,3.33,0,0,1-1.33.24,3.22,3.22,0,0,1-1-.15,1.94,1.94,0,0,1-.76-.5,2.33,2.33,0,0,1-.5-.86,4.46,4.46,0,0,1-.17-1.3V191.6h.81v4.75a3.5,3.5,0,0,0,.13,1,1.8,1.8,0,0,0,.37.64,1.49,1.49,0,0,0,.55.34,2.34,2.34,0,0,0,.66.1,2.53,2.53,0,0,0,1.42-.35,1.93,1.93,0,0,0,.75-.92A3.32,3.32,0,0,0,242.38,195.92Zm3.63-2.74V199h-.82v-7.4H246Zm-.19,1.66-.36-.2a4.09,4.09,0,0,1,.27-1.23,3.21,3.21,0,0,1,.61-1,2.85,2.85,0,0,1,.9-.69,2.81,2.81,0,0,1,1.17-.24,3,3,0,0,1,1,.15,1.76,1.76,0,0,1,.74.48,2.07,2.07,0,0,1,.47.84,4.13,4.13,0,0,1,.16,1.25V199H250v-4.82a2.81,2.81,0,0,0-.21-1.2,1.29,1.29,0,0,0-.6-.62,2.19,2.19,0,0,0-.92-.18,2,2,0,0,0-1,.26,2.42,2.42,0,0,0-.73.66,3.3,3.3,0,0,0-.46.87A3.18,3.18,0,0,0,245.82,194.84Zm9.8,3.59a2.43,2.43,0,0,0,1-.19,1.88,1.88,0,0,0,.75-.58,1.68,1.68,0,0,0,.34-.95h.78A2.25,2.25,0,0,1,258,198a2.76,2.76,0,0,1-1,.86,3.22,3.22,0,0,1-1.39.31,3.28,3.28,0,0,1-1.37-.28,2.78,2.78,0,0,1-1-.78,3.38,3.38,0,0,1-.6-1.18,4.89,4.89,0,0,1-.2-1.45v-.29a4.84,4.84,0,0,1,.2-1.45,3.38,3.38,0,0,1,.6-1.18,2.67,2.67,0,0,1,1-.78,3.09,3.09,0,0,1,1.36-.28,3,3,0,0,1,1.42.32,2.43,2.43,0,0,1,1,.91,2.71,2.71,0,0,1,.41,1.39h-.78a2,2,0,0,0-.31-1,1.91,1.91,0,0,0-.74-.67,2.25,2.25,0,0,0-1-.23,2.12,2.12,0,0,0-1.07.25,2,2,0,0,0-.73.66,3.19,3.19,0,0,0-.4,1,4.52,4.52,0,0,0-.13,1.12v.29a5.22,5.22,0,0,0,.12,1.13,2.91,2.91,0,0,0,.41.95,2,2,0,0,0,.72.66A2.31,2.31,0,0,0,255.62,198.43Zm5.3-9.93V199h-.81V188.5Zm-.18,6.34-.36-.2a3.8,3.8,0,0,1,.26-1.23,3.4,3.4,0,0,1,.61-1,2.89,2.89,0,0,1,.91-.69,2.77,2.77,0,0,1,1.16-.24,3,3,0,0,1,1,.15,1.79,1.79,0,0,1,.75.48,2,2,0,0,1,.46.84,4.1,4.1,0,0,1,.17,1.25V199h-.82v-4.82a2.81,2.81,0,0,0-.21-1.2,1.31,1.31,0,0,0-.61-.62,2.13,2.13,0,0,0-.92-.18,2,2,0,0,0-1,.26,2.46,2.46,0,0,0-.74.66,3.59,3.59,0,0,0-.45.87A2.85,2.85,0,0,0,260.74,194.84Z"></path><path class="cls-3" d="M278.34,134.54a.68.68,0,0,0-.26-.18c-.05-3-2.25-5.48-4.95-5.48a4.36,4.36,0,0,0-2.19.59A6.09,6.09,0,0,0,265.6,126a5.53,5.53,0,0,0-2,.4,7.07,7.07,0,0,0-5.77-3.15,6.59,6.59,0,0,0-2.4.45,7.31,7.31,0,0,0-10.16,0,6.53,6.53,0,0,0-2.26-.4,7.07,7.07,0,0,0-5.81,3.2A5.68,5.68,0,0,0,235,126a6.06,6.06,0,0,0-5.27,3.35,4.5,4.5,0,0,0-2-.49c-2.68,0-4.87,2.42-4.95,5.43a.82.82,0,0,0-.49.22.79.79,0,0,0-.23.56c0,.21.46,20.44,28.22,20.51h.13c27.76-.07,28.21-20.3,28.22-20.51a.75.75,0,0,0-.23-.55Zm-50.66-4.09a3,3,0,0,1,1.86.67.79.79,0,0,0,1.22-.33,4.68,4.68,0,0,1,4.21-3.2,4,4,0,0,1,2.07.58.79.79,0,0,0,.6.09.81.81,0,0,0,.48-.37,5.66,5.66,0,0,1,4.85-3,5.05,5.05,0,0,1,2.11.46.78.78,0,0,0,.89-.16,5.8,5.8,0,0,1,8.68,0,.77.77,0,0,0,.91.16,5.12,5.12,0,0,1,2.23-.51,5.64,5.64,0,0,1,4.81,3,.79.79,0,0,0,1,.29,3.9,3.9,0,0,1,2-.52,4.69,4.69,0,0,1,4.27,3.34.8.8,0,0,0,.54.5.77.77,0,0,0,.71-.18,3.05,3.05,0,0,1,2-.8,3.7,3.7,0,0,1,3.37,3.85H224.3c.08-2.13,1.55-3.85,3.38-3.85ZM250.28,154c-23.44,0-26.31-14.53-26.66-18.16H277C276.6,139.5,273.73,154,250.28,154Z"></path><path class="cls-3" d="M238.24,132.85a.81.81,0,0,1-.5-.18l-2.35-2a.79.79,0,0,1-.1-1.11.8.8,0,0,1,1.11-.1l2.35,2a.8.8,0,0,1,.1,1.11.81.81,0,0,1-.61.28Z"></path><path class="cls-3" d="M243.86,129.24a.8.8,0,0,1-.62-.31.78.78,0,0,1,.15-1.1l2.61-2a.79.79,0,0,1,1.1.15.78.78,0,0,1-.15,1.1l-2.61,2A.78.78,0,0,1,243.86,129.24Z"></path><path class="cls-3" d="M247,132.5a.76.76,0,0,1-.61-.3.78.78,0,0,1,.13-1.1l.78-.62a.8.8,0,0,1,1.11.14.79.79,0,0,1-.14,1.1l-.78.61a.83.83,0,0,1-.49.17Z"></path><path class="cls-3" d="M255.35,130.81a.71.71,0,0,1-.41-.13l-2.36-1.48a.79.79,0,0,1-.24-1.08.78.78,0,0,1,1.08-.25l2.35,1.49a.78.78,0,0,1,.25,1.08.79.79,0,0,1-.67.37Z"></path><path class="cls-3" d="M258.49,133.37A.78.78,0,0,1,258,132l2-1.51a.79.79,0,1,1,.95,1.25l-2,1.5a.76.76,0,0,1-.47.16Z"></path><path class="cls-3" d="M267.63,132.85a.78.78,0,0,1-.48-.17l-2.48-2a.78.78,0,1,1,1-1.23l2.48,2a.78.78,0,0,1,.13,1.1.79.79,0,0,1-.62.3Z"></path><path class="cls-3" d="M268.68,122.14A1.29,1.29,0,0,1,268,122l-.45-.24a1.38,1.38,0,0,1-.67-.81,1.37,1.37,0,0,1,.11-1.05l2.41-4.49a.17.17,0,0,0,0-.15.15.15,0,0,0-.07-.09.2.2,0,0,0-.23.09l-2.41,4.49a1.41,1.41,0,0,1-1.86.56l-.45-.24a1.38,1.38,0,0,1-.56-1.86l2.42-4.49a.29.29,0,0,0,0-.15.15.15,0,0,0-.07-.09c-.12,0-.19,0-.23.1L263.61,118a1.4,1.4,0,0,1-1.86.56l-.45-.24a1.33,1.33,0,0,1-.66-.81,1.37,1.37,0,0,1,.1-1l2.67-5c.06-.11.09-.18.12-.22h0l.86-1.61a2.11,2.11,0,0,1,1.94-1.19,3.93,3.93,0,0,1,1.91.6c.11,0,.14,0,.15-.05.27-.56,6.71-13.79,7.69-15.62.52-1,.82-1.31,1.59-1.43a3.38,3.38,0,0,1,1.75.41,3.54,3.54,0,0,1,1.44,1.5,2.29,2.29,0,0,1-.21,2c-1,1.83-8.47,14.49-8.79,15,0,0,0,.06,0,.09a.12.12,0,0,0,.06.06,3.51,3.51,0,0,1,1.81,1.79,2.17,2.17,0,0,1-.18,1.75l-.88,1.63h0l-.36.68-2.41,4.48a1.36,1.36,0,0,1-1.21.72Zm.61-8.13a1.31,1.31,0,0,1,.61.15,1.27,1.27,0,0,1,.64.82,1.31,1.31,0,0,1-.12,1L268,120.49a.2.2,0,0,0,0,.15.18.18,0,0,0,.09.11l.45.25.09,0a.21.21,0,0,0,.18-.1l2.58-4.8a2.75,2.75,0,0,1,.2-.36h0s.06-.1.41-.76l.46-.86a1,1,0,0,0,.11-.82,2.34,2.34,0,0,0-1.17-1.09,1.27,1.27,0,0,1-.71-.78,1.3,1.3,0,0,1,.13-1c.07-.13,7.78-13.18,8.76-15a2.16,2.16,0,0,0,.28-1c0-.44-.51-.88-.72-1s-1.09-.56-1.51-.19a3.14,3.14,0,0,0-.55.79c-1,1.81-7.6,15.44-7.67,15.58a1.29,1.29,0,0,1-1.85.51,2.8,2.8,0,0,0-1.26-.4,1,1,0,0,0-.91.57l-.81,1.51s-.05.08-.06.11l-2.78,5.17a.2.2,0,0,0,0,.15.22.22,0,0,0,.09.12l.45.24a.19.19,0,0,0,.26-.08l2.42-4.49a1.38,1.38,0,0,1,1.82-.58,1.27,1.27,0,0,1,.64.82,1.35,1.35,0,0,1-.11,1l-2.42,4.49a.2.2,0,0,0,0,.15.18.18,0,0,0,.09.11l.45.25a.2.2,0,0,0,.27-.09l2.41-4.48a1.37,1.37,0,0,1,1.21-.73Z"></path><path class="cls-4" d="M174.5,246.5h151v143h-151Z"></path><path class="cls-2" d="M208.47,341.64,205,351h-.88l3.76-9.95h.61ZM211.6,351l-3.45-9.36-.05-.59h.61l3.77,9.95Zm-.61-3.51v.72H205.7v-.72Zm3.59-2.31V351h-.82v-7.4h.78Zm-.19,1.66-.36-.2a4.09,4.09,0,0,1,.27-1.23,3.38,3.38,0,0,1,.6-1,3,3,0,0,1,.91-.69,2.78,2.78,0,0,1,1.17-.24,3,3,0,0,1,1,.15,1.76,1.76,0,0,1,.74.48,2.07,2.07,0,0,1,.47.84,4.13,4.13,0,0,1,.16,1.25V351h-.82v-4.82a2.81,2.81,0,0,0-.21-1.2,1.25,1.25,0,0,0-.6-.62,2.2,2.2,0,0,0-.93-.18,2,2,0,0,0-1,.26,2.46,2.46,0,0,0-.74.66,3.59,3.59,0,0,0-.45.87A3.18,3.18,0,0,0,214.39,346.84Zm7.88-1.66V351h-.81v-7.4h.78Zm-.18,1.66-.36-.2a3.8,3.8,0,0,1,.26-1.23,3.4,3.4,0,0,1,.61-1,2.93,2.93,0,0,1,.91-.69,2.77,2.77,0,0,1,1.16-.24,3,3,0,0,1,1,.15,1.79,1.79,0,0,1,.75.48,2.06,2.06,0,0,1,.46.84,4.1,4.1,0,0,1,.17,1.25V351h-.82v-4.82A2.81,2.81,0,0,0,226,345a1.27,1.27,0,0,0-.61-.62,2.13,2.13,0,0,0-.92-.18,1.93,1.93,0,0,0-1,.26,2.46,2.46,0,0,0-.74.66,3.27,3.27,0,0,0-.45.87A2.85,2.85,0,0,0,222.09,346.84Zm11.81,2.45V343.6h.81V351h-.78Zm.14-1.37h.43a4.79,4.79,0,0,1-.17,1.29,2.72,2.72,0,0,1-.51,1,2.29,2.29,0,0,1-.9.68,3.33,3.33,0,0,1-1.33.24,3.12,3.12,0,0,1-1-.15,1.91,1.91,0,0,1-.77-.5,2.33,2.33,0,0,1-.5-.86,4.46,4.46,0,0,1-.17-1.3V343.6h.81v4.75a3.44,3.44,0,0,0,.13,1,1.8,1.8,0,0,0,.37.64,1.49,1.49,0,0,0,.55.34,2,2,0,0,0,.66.1,2.53,2.53,0,0,0,1.42-.35,1.87,1.87,0,0,0,.75-.92A3.32,3.32,0,0,0,234,347.92Zm7.31,1.75v-3.81a1.75,1.75,0,0,0-.22-.91,1.47,1.47,0,0,0-.64-.59,2.47,2.47,0,0,0-1-.2,2.56,2.56,0,0,0-1,.2,1.67,1.67,0,0,0-.7.54,1.22,1.22,0,0,0-.26.75h-.82a1.69,1.69,0,0,1,.21-.81,2.1,2.1,0,0,1,.58-.69,2.84,2.84,0,0,1,.89-.49,3.62,3.62,0,0,1,1.16-.18,3.52,3.52,0,0,1,1.39.26,2.08,2.08,0,0,1,.95.8,2.43,2.43,0,0,1,.35,1.34v3.58a5.41,5.41,0,0,0,.05.79,3.05,3.05,0,0,0,.17.68V351h-.87a4.87,4.87,0,0,1-.13-.61C241.37,350.13,241.35,349.9,241.35,349.67Zm.19-3,0,.63H240a4.9,4.9,0,0,0-1.13.12,2.4,2.4,0,0,0-.83.33,1.62,1.62,0,0,0-.53.51,1.3,1.3,0,0,0-.17.68,1.4,1.4,0,0,0,.19.73,1.47,1.47,0,0,0,.58.52,1.89,1.89,0,0,0,.89.19,2.71,2.71,0,0,0,1.2-.25,2.64,2.64,0,0,0,.87-.66,2.27,2.27,0,0,0,.46-.9l.35.48a2.44,2.44,0,0,1-.33.7,2.87,2.87,0,0,1-.6.67,3.83,3.83,0,0,1-.89.51,3.42,3.42,0,0,1-1.15.19,2.67,2.67,0,0,1-1.27-.28,2.13,2.13,0,0,1-.83-.74,2.11,2.11,0,0,1-.06-2.06,2.05,2.05,0,0,1,.67-.74,3.21,3.21,0,0,1,1.06-.46,5.56,5.56,0,0,1,1.41-.17Zm3.73-6.19V351h-.81V340.5Zm5.2,6.92v-.23a4.75,4.75,0,0,1,.23-1.49,3.59,3.59,0,0,1,.67-1.18,3,3,0,0,1,1-.77,3.44,3.44,0,0,1,2.72,0,3,3,0,0,1,1,.77,3.42,3.42,0,0,1,.67,1.18,4.48,4.48,0,0,1,.24,1.49v.23a4.48,4.48,0,0,1-.24,1.49,3.38,3.38,0,0,1-.67,1.17,2.77,2.77,0,0,1-1,.78,3.11,3.11,0,0,1-1.35.28,3.18,3.18,0,0,1-1.36-.28,3,3,0,0,1-1-.78,3.54,3.54,0,0,1-.67-1.17A4.75,4.75,0,0,1,250.47,347.42Zm.82-.23v.23a4,4,0,0,0,.16,1.15,3.14,3.14,0,0,0,.48,1,2.23,2.23,0,0,0,.78.65,2.31,2.31,0,0,0,1.07.24,2.25,2.25,0,0,0,1.84-.89,2.92,2.92,0,0,0,.47-1,4,4,0,0,0,.17-1.15v-.23a3.88,3.88,0,0,0-.17-1.14,2.71,2.71,0,0,0-.48-1,2.18,2.18,0,0,0-.78-.67,2.16,2.16,0,0,0-1.06-.25,2.2,2.2,0,0,0-1.07.25,2.27,2.27,0,0,0-.78.67,3.09,3.09,0,0,0-.48,1A4.24,4.24,0,0,0,251.29,347.19Zm8.88,3.81h-.81v-8.31a2.89,2.89,0,0,1,.26-1.28,1.85,1.85,0,0,1,.75-.79,2.52,2.52,0,0,1,1.17-.26l.44,0a3,3,0,0,1,.43.09l-.06.69a2,2,0,0,0-.35-.06l-.4,0a1.47,1.47,0,0,0-.77.19,1.35,1.35,0,0,0-.49.54,2.09,2.09,0,0,0-.17.88Zm1.77-7.4v.67h-3.8v-.67Zm2.87,7.4H264v-8.31a2.89,2.89,0,0,1,.26-1.28,1.81,1.81,0,0,1,.76-.79,2.45,2.45,0,0,1,1.16-.26l.44,0a3.12,3.12,0,0,1,.44.09l-.06.69a2.14,2.14,0,0,0-.35-.06l-.41,0a1.43,1.43,0,0,0-.76.19,1.28,1.28,0,0,0-.49.54,2,2,0,0,0-.17.88Zm1.76-7.4v.67h-3.8v-.67Zm5.9,5.51a1.26,1.26,0,0,0-.15-.59,1.39,1.39,0,0,0-.58-.54,4,4,0,0,0-1.25-.42,8.16,8.16,0,0,1-1.1-.31,3.07,3.07,0,0,1-.81-.41,1.69,1.69,0,0,1-.5-.57,1.77,1.77,0,0,1-.17-.79,1.75,1.75,0,0,1,.18-.78,1.86,1.86,0,0,1,.52-.64,2.66,2.66,0,0,1,.82-.44,3.64,3.64,0,0,1,1.09-.15,3.46,3.46,0,0,1,1.46.29,2.08,2.08,0,0,1,.93.79,2,2,0,0,1,.33,1.12h-.81a1.31,1.31,0,0,0-.23-.72,1.57,1.57,0,0,0-.65-.56,2.18,2.18,0,0,0-1-.22,2.39,2.39,0,0,0-1,.19,1.36,1.36,0,0,0-.58.49,1.14,1.14,0,0,0-.18.61,1.33,1.33,0,0,0,.08.45,1,1,0,0,0,.29.37,2.34,2.34,0,0,0,.6.32,7.15,7.15,0,0,0,1,.29,6.2,6.2,0,0,1,1.46.49,2,2,0,0,1,.85.69,2,2,0,0,1,.08,1.84,1.89,1.89,0,0,1-.55.65,2.77,2.77,0,0,1-.86.43,3.94,3.94,0,0,1-1.12.15,3.75,3.75,0,0,1-1.59-.31,2.36,2.36,0,0,1-1-.82,2,2,0,0,1-.33-1.09h.82a1.45,1.45,0,0,0,.36.91,1.85,1.85,0,0,0,.79.47,3.31,3.31,0,0,0,.93.13,2.67,2.67,0,0,0,1.05-.18,1.56,1.56,0,0,0,.64-.49A1,1,0,0,0,272.47,349.11Zm3.58-5.51V351h-.82v-7.4Zm-1-2.14a.6.6,0,0,1,.14-.39.53.53,0,0,1,.41-.16.51.51,0,0,1,.41.16.56.56,0,0,1,0,.78.51.51,0,0,1-.41.16.53.53,0,0,1-.41-.16A.6.6,0,0,1,275.09,341.46Zm6,2.14v.67h-3.71v-.67Zm-2.35-1.9h.82v7.5a1.8,1.8,0,0,0,.13.78.7.7,0,0,0,.36.34,1.19,1.19,0,0,0,.47.09l.35,0,.31-.05,0,.69a2.53,2.53,0,0,1-.39.07,3.88,3.88,0,0,1-.48,0,2,2,0,0,1-.84-.17,1.2,1.2,0,0,1-.56-.61,2.64,2.64,0,0,1-.21-1.16Zm6.92,9.44a3.23,3.23,0,0,1-1.33-.27,3.3,3.3,0,0,1-1.06-.75,3.67,3.67,0,0,1-.69-1.15,4.3,4.3,0,0,1-.24-1.46v-.3a4.4,4.4,0,0,1,.26-1.54,3.76,3.76,0,0,1,.69-1.19,3.37,3.37,0,0,1,1-.75,3.07,3.07,0,0,1,2.45,0,2.54,2.54,0,0,1,.92.7,3,3,0,0,1,.56,1.08,4.47,4.47,0,0,1,.19,1.36v.5h-5.59v-.7h4.78v-.1a3,3,0,0,0-.25-1.16,2.19,2.19,0,0,0-.7-.89,2,2,0,0,0-1.16-.34,2.05,2.05,0,0,0-1,.22,2.21,2.21,0,0,0-.74.63,2.88,2.88,0,0,0-.48,1,4.3,4.3,0,0,0-.17,1.23v.3a3.49,3.49,0,0,0,.18,1.14,2.8,2.8,0,0,0,.52.93,2.47,2.47,0,0,0,.81.63,2.31,2.31,0,0,0,1,.23,2.72,2.72,0,0,0,1.17-.24,2.61,2.61,0,0,0,.91-.77l.51.39a3.09,3.09,0,0,1-.6.66,2.86,2.86,0,0,1-.86.48A3.41,3.41,0,0,1,285.65,351.14Zm8.82-2a1.26,1.26,0,0,0-.15-.59,1.39,1.39,0,0,0-.58-.54,4.09,4.09,0,0,0-1.26-.42,8.43,8.43,0,0,1-1.09-.31,3.07,3.07,0,0,1-.81-.41,1.59,1.59,0,0,1-.5-.57,1.64,1.64,0,0,1-.17-.79,1.75,1.75,0,0,1,.18-.78,1.86,1.86,0,0,1,.52-.64,2.66,2.66,0,0,1,.82-.44,3.61,3.61,0,0,1,1.08-.15,3.47,3.47,0,0,1,1.47.29,2.08,2.08,0,0,1,.93.79,2,2,0,0,1,.33,1.12h-.81a1.31,1.31,0,0,0-.23-.72,1.64,1.64,0,0,0-.65-.56,2.19,2.19,0,0,0-1-.22,2.34,2.34,0,0,0-1,.19,1.36,1.36,0,0,0-.58.49,1.14,1.14,0,0,0-.18.61,1.33,1.33,0,0,0,.08.45,1,1,0,0,0,.28.37,2.62,2.62,0,0,0,.61.32,6.78,6.78,0,0,0,1,.29,6.37,6.37,0,0,1,1.46.49,2.07,2.07,0,0,1,.85.69,2,2,0,0,1,.08,1.84,1.89,1.89,0,0,1-.55.65,2.72,2.72,0,0,1-.87.43,3.84,3.84,0,0,1-1.12.15,3.74,3.74,0,0,1-1.58-.31,2.36,2.36,0,0,1-1-.82,2,2,0,0,1-.33-1.09h.82a1.35,1.35,0,0,0,.36.91,1.82,1.82,0,0,0,.78.47,3.42,3.42,0,0,0,.93.13,2.76,2.76,0,0,0,1.06-.18,1.63,1.63,0,0,0,.64-.49A1.11,1.11,0,0,0,294.47,349.11ZM223,361.63l1.6-1.2a3.39,3.39,0,0,0,.72-.69,1.41,1.41,0,0,0,.29-.88,1.25,1.25,0,0,0-1.36-1.25,1.44,1.44,0,0,0-.8.21,1.29,1.29,0,0,0-.5.56,1.77,1.77,0,0,0-.16.77,1.94,1.94,0,0,0,.13.68,4.68,4.68,0,0,0,.38.73,7.68,7.68,0,0,0,.61.79l4.84,5.65h-1l-4.13-4.79c-.33-.39-.63-.76-.88-1.09a4.67,4.67,0,0,1-.59-1,2.53,2.53,0,0,1-.2-1,2.43,2.43,0,0,1,.28-1.21,2,2,0,0,1,.79-.78,2.6,2.6,0,0,1,1.21-.28,2.14,2.14,0,0,1,1.14.28,1.81,1.81,0,0,1,.74.71,2,2,0,0,1,.25,1,1.85,1.85,0,0,1-.2.83,2.76,2.76,0,0,1-.5.69,5.59,5.59,0,0,1-.63.57l-1.82,1.4a4.82,4.82,0,0,0-.88.87,2.66,2.66,0,0,0-.37.7,1.87,1.87,0,0,0,.16,1.51,1.82,1.82,0,0,0,.75.73,2.68,2.68,0,0,0,1.27.27,3,3,0,0,0,1.25-.27,3.42,3.42,0,0,0,1.07-.79,3.83,3.83,0,0,0,.75-1.23,4.3,4.3,0,0,0,.28-1.6h.75a5.87,5.87,0,0,1-.12,1.22,4.1,4.1,0,0,1-1,1.93.59.59,0,0,0-.08.11.24.24,0,0,1-.07.09,4,4,0,0,1-1.28.91,4,4,0,0,1-3.21,0,2.46,2.46,0,0,1-1.07-.94,2.59,2.59,0,0,1-.37-1.4,2.39,2.39,0,0,1,.25-1.08,3.48,3.48,0,0,1,.69-.91A11.91,11.91,0,0,1,223,361.63Zm11.25-.8V367h-.81v-7.4h.79Zm2.62-1.28,0,.75-.26,0-.29,0a2.12,2.12,0,0,0-.93.2,1.86,1.86,0,0,0-.67.54,2.59,2.59,0,0,0-.42.81,3.79,3.79,0,0,0-.16,1l-.3.12a5.82,5.82,0,0,1,.15-1.35,3.57,3.57,0,0,1,.45-1.09,2.39,2.39,0,0,1,.79-.73,2.34,2.34,0,0,1,1.12-.26l.31,0Zm4,7.59a3.18,3.18,0,0,1-2.39-1,3.67,3.67,0,0,1-.69-1.15,4.3,4.3,0,0,1-.24-1.46v-.3a4.65,4.65,0,0,1,.25-1.54,3.78,3.78,0,0,1,.7-1.19,3.45,3.45,0,0,1,1-.75,3,3,0,0,1,1.21-.26,2.94,2.94,0,0,1,1.25.25,2.42,2.42,0,0,1,.91.7,3.18,3.18,0,0,1,.57,1.08,4.47,4.47,0,0,1,.19,1.36v.5h-5.6v-.7h4.79v-.1a3,3,0,0,0-.25-1.16,2.19,2.19,0,0,0-.7-.89,2,2,0,0,0-1.16-.34,2.05,2.05,0,0,0-1,.22,2,2,0,0,0-.74.63,2.88,2.88,0,0,0-.48,1,4.3,4.3,0,0,0-.17,1.23v.3a3.49,3.49,0,0,0,.18,1.14,2.8,2.8,0,0,0,.52.93,2.47,2.47,0,0,0,.81.63,2.31,2.31,0,0,0,1,.23,2.64,2.64,0,0,0,1.16-.24,2.52,2.52,0,0,0,.91-.77l.52.39a2.9,2.9,0,0,1-.61.66,2.69,2.69,0,0,1-.85.48A3.41,3.41,0,0,1,240.89,367.14Zm7.18-7.54v.67h-3.7v-.67Zm-2.34-1.9h.81v7.5a1.78,1.78,0,0,0,.14.78.72.72,0,0,0,.35.34,1.28,1.28,0,0,0,.48.09l.35,0,.31-.05,0,.69a2.53,2.53,0,0,1-.39.07,3.88,3.88,0,0,1-.48,0,2,2,0,0,1-.83-.17,1.26,1.26,0,0,1-.57-.61,2.81,2.81,0,0,1-.2-1.16Zm4.87,3.13V367h-.81v-7.4h.79Zm2.62-1.28,0,.75-.27,0-.28,0a2.12,2.12,0,0,0-.93.2,1.86,1.86,0,0,0-.67.54,2.4,2.4,0,0,0-.42.81,3.79,3.79,0,0,0-.17,1l-.3.12a5.82,5.82,0,0,1,.15-1.35,3.58,3.58,0,0,1,.46-1.09,2.3,2.3,0,0,1,.79-.73,2.34,2.34,0,0,1,1.12-.26l.31,0Zm4,7.59a3.18,3.18,0,0,1-2.39-1,3.33,3.33,0,0,1-.69-1.15,4.3,4.3,0,0,1-.24-1.46v-.3a4.4,4.4,0,0,1,.25-1.54,3.6,3.6,0,0,1,.7-1.19,3.32,3.32,0,0,1,1-.75,3,3,0,0,1,1.21-.26,2.94,2.94,0,0,1,1.25.25,2.42,2.42,0,0,1,.91.7,3.18,3.18,0,0,1,.57,1.08,4.47,4.47,0,0,1,.19,1.36v.5h-5.6v-.7h4.79v-.1a3,3,0,0,0-.26-1.16,2.09,2.09,0,0,0-.69-.89,2,2,0,0,0-1.16-.34,2.05,2.05,0,0,0-1,.22,2.15,2.15,0,0,0-.75.63,3.07,3.07,0,0,0-.47,1,4.3,4.3,0,0,0-.17,1.23v.3a3.49,3.49,0,0,0,.18,1.14,2.64,2.64,0,0,0,.52.93,2.43,2.43,0,0,0,.8.63,2.36,2.36,0,0,0,1,.23,2.67,2.67,0,0,0,1.16-.24,2.52,2.52,0,0,0,.91-.77l.51.39a3.09,3.09,0,0,1-.6.66,2.69,2.69,0,0,1-.85.48A3.45,3.45,0,0,1,257.23,367.14Zm8.88-1.47v-3.81a1.75,1.75,0,0,0-.22-.91,1.47,1.47,0,0,0-.64-.59,2.49,2.49,0,0,0-1.05-.2,2.54,2.54,0,0,0-1,.2,1.67,1.67,0,0,0-.7.54,1.22,1.22,0,0,0-.26.75h-.82a1.69,1.69,0,0,1,.21-.81,2.1,2.1,0,0,1,.58-.69,2.84,2.84,0,0,1,.89-.49,3.57,3.57,0,0,1,1.16-.18,3.52,3.52,0,0,1,1.39.26,2.08,2.08,0,0,1,.95.8,2.43,2.43,0,0,1,.35,1.34v3.58a5.41,5.41,0,0,0,.05.79,3.05,3.05,0,0,0,.17.68V367h-.87a3.56,3.56,0,0,1-.13-.61C266.13,366.13,266.11,365.9,266.11,365.67Zm.19-3,0,.63h-1.61a4.9,4.9,0,0,0-1.13.12,2.49,2.49,0,0,0-.83.33,1.62,1.62,0,0,0-.53.51,1.3,1.3,0,0,0-.17.68,1.4,1.4,0,0,0,.19.73,1.47,1.47,0,0,0,.58.52,1.89,1.89,0,0,0,.89.19,2.71,2.71,0,0,0,1.2-.25,2.64,2.64,0,0,0,.87-.66,2,2,0,0,0,.45-.9l.36.48a2.44,2.44,0,0,1-.33.7,2.92,2.92,0,0,1-.61.67,3.57,3.57,0,0,1-.88.51,3.42,3.42,0,0,1-1.15.19,2.67,2.67,0,0,1-1.27-.28,2.13,2.13,0,0,1-.83-.74,2.18,2.18,0,0,1-.06-2.06,2,2,0,0,1,.67-.74,3.21,3.21,0,0,1,1.06-.46,5.56,5.56,0,0,1,1.41-.17Zm5.62-3.09v.67h-3.71v-.67Zm-2.35-1.9h.82v7.5a1.8,1.8,0,0,0,.13.78.7.7,0,0,0,.36.34,1.19,1.19,0,0,0,.47.09l.35,0,.31-.05,0,.69a2.53,2.53,0,0,1-.39.07,3.88,3.88,0,0,1-.48,0,2,2,0,0,1-.84-.17,1.2,1.2,0,0,1-.56-.61,2.64,2.64,0,0,1-.21-1.16Zm8.49,7.41a1.26,1.26,0,0,0-.15-.59,1.33,1.33,0,0,0-.58-.54,4,4,0,0,0-1.25-.42,8.16,8.16,0,0,1-1.1-.31,3.07,3.07,0,0,1-.81-.41,1.69,1.69,0,0,1-.5-.57,1.77,1.77,0,0,1-.17-.79,1.75,1.75,0,0,1,.18-.78,2,2,0,0,1,.52-.64,2.79,2.79,0,0,1,.82-.44,3.64,3.64,0,0,1,1.09-.15,3.42,3.42,0,0,1,1.46.29,2.16,2.16,0,0,1,.94.79,2,2,0,0,1,.32,1.12H278a1.29,1.29,0,0,0-.22-.72,1.71,1.71,0,0,0-.65-.56,2.22,2.22,0,0,0-1-.22,2.39,2.39,0,0,0-1,.19,1.42,1.42,0,0,0-.58.49,1.22,1.22,0,0,0-.17.61,1.33,1.33,0,0,0,.07.45,1.07,1.07,0,0,0,.29.37,2.34,2.34,0,0,0,.6.32,7.15,7.15,0,0,0,1,.29,6,6,0,0,1,1.46.49,2,2,0,0,1,.85.69,1.87,1.87,0,0,1-.47,2.49,2.67,2.67,0,0,1-.86.43,3.89,3.89,0,0,1-1.12.15,3.75,3.75,0,0,1-1.59-.31,2.43,2.43,0,0,1-1-.82,2,2,0,0,1-.32-1.09h.81a1.45,1.45,0,0,0,.36.91,1.92,1.92,0,0,0,.79.47,3.31,3.31,0,0,0,.93.13,2.67,2.67,0,0,0,1.05-.18,1.56,1.56,0,0,0,.64-.49A1,1,0,0,0,278.06,365.11Z"></path><path class="cls-3" d="M266.65,307.46a.5.5,0,0,0,0,.12l.39,2.05L263,307.32a.88.88,0,0,0-.89,0l-4.06,2.3.38-2.05,0-.12.94-5a6.35,6.35,0,0,0,6.31,0l.95,5Zm2,.79h3.48a.9.9,0,0,0,.9-.9V279.2a.9.9,0,0,0-.9-.9H228.9a.9.9,0,0,0-.9.9v28.15a.9.9,0,0,0,.9.9h27.57l-.55,2.95a.85.85,0,0,0,.1.6.9.9,0,0,0,1.22.34l5.31-3,5.28,3a.9.9,0,0,0,1.34-.93l-.55-2.95Zm-11.81-1.79h-27V280.09h41.42v26.37h-2.93l-1-5.3a6.36,6.36,0,0,0-9.23-8.74,6.38,6.38,0,0,0-1.86,4.5,6.31,6.31,0,0,0,1.62,4.24l-1,5.3Zm2.51-12.77a4.56,4.56,0,1,1-1.34,3.23A4.57,4.57,0,0,1,259.32,293.69Zm-8.15,1.47a.9.9,0,1,0,0-1.8H235.61a.9.9,0,1,0,0,1.8Zm0-6.27a.9.9,0,1,0,0-1.79H235.61a.9.9,0,1,0,0,1.79Z"></path><path class="cls-4" d="M526.5,78.5h151v143h-151Z"></path><path class="cls-2" d="M577,173.05h.85l3.67,8.76,3.69-8.76H586L581.83,183h-.64Zm-.26,0h.74l.09,5.6V183h-.83Zm8.84,0h.74V183h-.84v-4.35Zm2.63,6.37v-.23a4.75,4.75,0,0,1,.23-1.49,3.76,3.76,0,0,1,.66-1.18,3.07,3.07,0,0,1,1-.77,3.42,3.42,0,0,1,2.71,0,3,3,0,0,1,1,.77,3.59,3.59,0,0,1,.67,1.18,4.75,4.75,0,0,1,.23,1.49v.23a4.75,4.75,0,0,1-.23,1.49,3.54,3.54,0,0,1-.67,1.17,2.85,2.85,0,0,1-1,.78,3.42,3.42,0,0,1-2.71,0,2.89,2.89,0,0,1-1-.78,3.54,3.54,0,0,1-.67-1.17A4.75,4.75,0,0,1,588.2,179.42Zm.81-.23v.23a4,4,0,0,0,.17,1.15,3.12,3.12,0,0,0,.47,1,2.23,2.23,0,0,0,.78.65,2.32,2.32,0,0,0,1.08.24,2.27,2.27,0,0,0,1.06-.24,2.23,2.23,0,0,0,.78-.65,3.36,3.36,0,0,0,.47-1,4,4,0,0,0,.16-1.15v-.23a3.88,3.88,0,0,0-.16-1.14,3.09,3.09,0,0,0-.48-1,2.24,2.24,0,0,0-1.85-.92,2.16,2.16,0,0,0-1.06.25,2.18,2.18,0,0,0-.78.67,3.09,3.09,0,0,0-.48,1A3.88,3.88,0,0,0,589,179.19Zm8.3-2V183h-.81v-7.4h.78Zm-.18,1.66-.37-.2a4.09,4.09,0,0,1,.27-1.23,3.21,3.21,0,0,1,.61-1,2.64,2.64,0,0,1,2.07-.93,3,3,0,0,1,1,.15,1.86,1.86,0,0,1,.75.48,2.06,2.06,0,0,1,.46.84,4.1,4.1,0,0,1,.17,1.25V183h-.82v-4.82A2.79,2.79,0,0,0,601,177a1.29,1.29,0,0,0-.6-.62,2.19,2.19,0,0,0-.92-.18,1.93,1.93,0,0,0-1,.26,2.46,2.46,0,0,0-.74.66,3,3,0,0,0-.45.87A2.85,2.85,0,0,0,597.13,178.84ZM607,175.6v.67h-3.71v-.67Zm-2.34-1.9h.81v7.5a1.78,1.78,0,0,0,.14.78.68.68,0,0,0,.35.34,1.23,1.23,0,0,0,.47.09l.36,0,.31,0,0,.69a2.53,2.53,0,0,1-.39.07,3.88,3.88,0,0,1-.48,0,2,2,0,0,1-.83-.17,1.26,1.26,0,0,1-.57-.61,2.66,2.66,0,0,1-.2-1.16Zm4.87-1.2V183h-.81V172.5Zm-.18,6.34-.37-.2a4.09,4.09,0,0,1,.27-1.23,3.21,3.21,0,0,1,.61-1,2.78,2.78,0,0,1,.91-.69,2.74,2.74,0,0,1,1.16-.24,3,3,0,0,1,1,.15,1.86,1.86,0,0,1,.75.48,2.06,2.06,0,0,1,.46.84,4.13,4.13,0,0,1,.16,1.25V183h-.82v-4.82a2.81,2.81,0,0,0-.21-1.2,1.29,1.29,0,0,0-.6-.62,2.19,2.19,0,0,0-.92-.18,1.93,1.93,0,0,0-1,.26,2.35,2.35,0,0,0-.74.66,3,3,0,0,0-.45.87A2.58,2.58,0,0,0,609.34,178.84Zm8-6.34V183h-.82V172.5Zm4.43,9.76,2.3-6.66h.88l-3.13,8.59a5.87,5.87,0,0,1-.24.56,2.74,2.74,0,0,1-.39.59,1.8,1.8,0,0,1-1.44.65,1.47,1.47,0,0,1-.33,0l-.29,0v-.69l.22,0,.2,0a1.5,1.5,0,0,0,.74-.16,1.25,1.25,0,0,0,.52-.45,2.76,2.76,0,0,0,.36-.73Zm-2.15-6.66,2.35,6.35.22.86-.59.33-2.87-7.54Zm-63.17,16v.67h-3.7v-.67Zm-2.34-1.9h.81v7.5a1.65,1.65,0,0,0,.14.78.72.72,0,0,0,.35.34,1.23,1.23,0,0,0,.47.09l.36,0,.31,0,0,.69a2.53,2.53,0,0,1-.39.07,3.88,3.88,0,0,1-.48,0,2,2,0,0,1-.83-.17,1.26,1.26,0,0,1-.57-.61,2.81,2.81,0,0,1-.2-1.16Zm3.47,5.72v-.23a4.75,4.75,0,0,1,.23-1.49,3.76,3.76,0,0,1,.66-1.18,3.15,3.15,0,0,1,2.4-1.05,3.12,3.12,0,0,1,1.36.28,3,3,0,0,1,1,.77,3.42,3.42,0,0,1,.67,1.18,4.48,4.48,0,0,1,.23,1.49v.23a4.48,4.48,0,0,1-.23,1.49,3.38,3.38,0,0,1-.67,1.17,2.85,2.85,0,0,1-1,.78,3.42,3.42,0,0,1-2.71,0,2.89,2.89,0,0,1-1-.78,3.54,3.54,0,0,1-.67-1.17A4.75,4.75,0,0,1,557.54,195.42Zm.81-.23v.23a4,4,0,0,0,.17,1.15,3.12,3.12,0,0,0,.47,1,2.42,2.42,0,0,0,.78.65,2.32,2.32,0,0,0,1.08.24,2.27,2.27,0,0,0,1.06-.24,2.23,2.23,0,0,0,.78-.65,3.12,3.12,0,0,0,.47-1,4,4,0,0,0,.16-1.15v-.23a3.88,3.88,0,0,0-.16-1.14,3.09,3.09,0,0,0-.48-1,2.24,2.24,0,0,0-1.85-.92,2.16,2.16,0,0,0-1.06.25,2.18,2.18,0,0,0-.78.67,3.09,3.09,0,0,0-.48,1A4.24,4.24,0,0,0,558.35,195.19Zm9.54,2.08,1.78-5.67h.58l-.34,1.53L568,199h-.57ZM566,191.6l1.56,5.7.34,1.7h-.6l-2.14-7.4Zm6.43,5.68L574,191.6h.84l-2.14,7.4h-.59Zm-2.11-5.68,1.76,5.62.44,1.78H572l-1.91-5.88-.32-1.52Zm6.86,1.58V199h-.81v-7.4h.78Zm-.19,1.66-.36-.2a4.09,4.09,0,0,1,.27-1.23,3.21,3.21,0,0,1,.61-1,2.64,2.64,0,0,1,2.07-.93,3,3,0,0,1,1,.15,1.76,1.76,0,0,1,.74.48,2,2,0,0,1,.47.84,4.13,4.13,0,0,1,.16,1.25V199h-.82v-4.82A2.81,2.81,0,0,0,581,193a1.29,1.29,0,0,0-.6-.62,2.19,2.19,0,0,0-.92-.18,1.93,1.93,0,0,0-1,.26,2.35,2.35,0,0,0-.74.66,3,3,0,0,0-.45.87A2.88,2.88,0,0,0,577,194.84Zm7.89-6.34V199h-.82V188.5Zm-.19,6.34-.36-.2a4.09,4.09,0,0,1,.27-1.23,3.38,3.38,0,0,1,.6-1,3,3,0,0,1,.91-.69,2.81,2.81,0,0,1,1.17-.24,3,3,0,0,1,1,.15,1.76,1.76,0,0,1,.74.48,2.07,2.07,0,0,1,.47.84,4.13,4.13,0,0,1,.16,1.25V199h-.82v-4.82a2.81,2.81,0,0,0-.21-1.2,1.29,1.29,0,0,0-.6-.62,2.2,2.2,0,0,0-.93-.18,2,2,0,0,0-1,.26,2.46,2.46,0,0,0-.74.66,3.59,3.59,0,0,0-.45.87A3.18,3.18,0,0,0,584.73,194.84Zm11.55,2.83v-3.81a1.88,1.88,0,0,0-.21-.91,1.5,1.5,0,0,0-.65-.59,2.47,2.47,0,0,0-1-.2,2.56,2.56,0,0,0-1,.2,1.74,1.74,0,0,0-.7.54,1.21,1.21,0,0,0-.25.75h-.82a1.68,1.68,0,0,1,.2-.81,2.23,2.23,0,0,1,.58-.69,2.78,2.78,0,0,1,.9-.49,3.51,3.51,0,0,1,1.15-.18,3.57,3.57,0,0,1,1.4.26,2.19,2.19,0,0,1,1,.8,2.54,2.54,0,0,1,.34,1.34v3.58a7.29,7.29,0,0,0,0,.79,3.2,3.2,0,0,0,.17.68V199h-.86a2.78,2.78,0,0,1-.13-.62A5.92,5.92,0,0,1,596.28,197.67Zm.2-3v.63h-1.61a4.81,4.81,0,0,0-1.12.12,2.46,2.46,0,0,0-.84.33,1.5,1.5,0,0,0-.52.51,1.4,1.4,0,0,0,0,1.41,1.37,1.37,0,0,0,.57.52,1.91,1.91,0,0,0,.89.19,2.63,2.63,0,0,0,2.07-.91,2.15,2.15,0,0,0,.46-.9l.35.48a2.69,2.69,0,0,1-.32.7,3.17,3.17,0,0,1-.61.67,3.34,3.34,0,0,1-.89.51,3.42,3.42,0,0,1-1.15.19,2.66,2.66,0,0,1-1.26-.28,2.09,2.09,0,0,1-.84-.74,2.18,2.18,0,0,1-.06-2.06,2.05,2.05,0,0,1,.67-.74,3.27,3.27,0,0,1,1.07-.46,5.48,5.48,0,0,1,1.4-.17Zm3.72-6.19V199h-.81V188.5Zm3.15,0V199h-.82V188.5Zm7.24,5.13,1.6-1.2a3.39,3.39,0,0,0,.72-.69,1.41,1.41,0,0,0,.29-.88,1.27,1.27,0,0,0-.35-.87,1.31,1.31,0,0,0-1-.38,1.47,1.47,0,0,0-.8.21,1.29,1.29,0,0,0-.5.56,1.89,1.89,0,0,0,0,1.45,4.68,4.68,0,0,0,.38.73,9.41,9.41,0,0,0,.61.79l4.84,5.65h-1l-4.13-4.79c-.33-.39-.63-.76-.88-1.09a4.6,4.6,0,0,1-.58-1,2.37,2.37,0,0,1-.21-1,2.43,2.43,0,0,1,.28-1.21,2,2,0,0,1,.79-.78,2.6,2.6,0,0,1,1.21-.28,2.14,2.14,0,0,1,1.14.28,1.81,1.81,0,0,1,.74.71,1.87,1.87,0,0,1,.25,1,1.85,1.85,0,0,1-.2.83,2.76,2.76,0,0,1-.5.69,5.59,5.59,0,0,1-.63.57l-1.82,1.4a5.57,5.57,0,0,0-.88.87,2.66,2.66,0,0,0-.37.7,2.52,2.52,0,0,0-.09.54,2,2,0,0,0,.25,1,1.82,1.82,0,0,0,.75.73,2.7,2.7,0,0,0,1.28.27,3,3,0,0,0,1.24-.27,3.42,3.42,0,0,0,1.07-.79,3.83,3.83,0,0,0,.75-1.23,4.3,4.3,0,0,0,.28-1.6h.76a5.85,5.85,0,0,1-.13,1.22,4.35,4.35,0,0,1-.37,1.05,4.77,4.77,0,0,1-.61.88.59.59,0,0,0-.08.11.24.24,0,0,1-.07.09,4,4,0,0,1-1.28.91,4,4,0,0,1-3.21,0,2.5,2.5,0,0,1-1.07-.93,2.65,2.65,0,0,1-.37-1.41,2.39,2.39,0,0,1,.25-1.08,3.48,3.48,0,0,1,.69-.91A11.91,11.91,0,0,1,610.59,193.63Zm11.25-.61v8.82H621V191.6h.76Zm5.14,2.21v.15a6.08,6.08,0,0,1-.19,1.52,4,4,0,0,1-.56,1.19,2.41,2.41,0,0,1-.88.77,2.46,2.46,0,0,1-1.19.28,3.16,3.16,0,0,1-1.19-.21,2.69,2.69,0,0,1-.89-.58,2.91,2.91,0,0,1-.6-.89,4.71,4.71,0,0,1-.31-1.12v-1.89a5,5,0,0,1,.34-1.22,3.2,3.2,0,0,1,.59-.94,2.45,2.45,0,0,1,.88-.61,3,3,0,0,1,1.16-.21,2.71,2.71,0,0,1,1.2.26,2.5,2.5,0,0,1,.89.76,3.54,3.54,0,0,1,.56,1.19A6.15,6.15,0,0,1,627,195.23Zm-.82.15v-.15A5.06,5.06,0,0,0,626,194a3,3,0,0,0-.4-1,1.92,1.92,0,0,0-1.66-.89,2.39,2.39,0,0,0-1,.2,2,2,0,0,0-.68.52,2.35,2.35,0,0,0-.43.69,4.44,4.44,0,0,0-.24.73v2.19a3.42,3.42,0,0,0,.42,1,2.17,2.17,0,0,0,.77.7,2.39,2.39,0,0,0,1.18.26,2,2,0,0,0,1-.23,1.92,1.92,0,0,0,.68-.65,3.14,3.14,0,0,0,.4-1A5.06,5.06,0,0,0,626.16,195.38Zm7.13,2.29v-3.81a1.88,1.88,0,0,0-.21-.91,1.5,1.5,0,0,0-.65-.59,2.47,2.47,0,0,0-1-.2,2.59,2.59,0,0,0-1,.2,1.74,1.74,0,0,0-.7.54,1.21,1.21,0,0,0-.25.75h-.82a1.68,1.68,0,0,1,.2-.81,2.23,2.23,0,0,1,.58-.69,2.78,2.78,0,0,1,.9-.49,3.51,3.51,0,0,1,1.15-.18,3.6,3.6,0,0,1,1.4.26,2.19,2.19,0,0,1,.95.8,2.54,2.54,0,0,1,.34,1.34v3.58a7.29,7.29,0,0,0,0,.79,3.2,3.2,0,0,0,.17.68V199h-.86a2.78,2.78,0,0,1-.13-.62A5.92,5.92,0,0,1,633.29,197.67Zm.2-3v.63h-1.61a4.75,4.75,0,0,0-1.12.12,2.46,2.46,0,0,0-.84.33,1.5,1.5,0,0,0-.52.51,1.4,1.4,0,0,0,0,1.41,1.37,1.37,0,0,0,.57.52,1.91,1.91,0,0,0,.89.19,2.71,2.71,0,0,0,1.2-.25,2.64,2.64,0,0,0,.87-.66,2.15,2.15,0,0,0,.46-.9l.35.48a2.69,2.69,0,0,1-.32.7,3.17,3.17,0,0,1-.61.67,3.34,3.34,0,0,1-.89.51,3.42,3.42,0,0,1-1.15.19,2.73,2.73,0,0,1-1.27-.28,2.13,2.13,0,0,1-.83-.74,2.08,2.08,0,0,1-.29-1.08,2,2,0,0,1,.23-1,2.05,2.05,0,0,1,.67-.74,3.27,3.27,0,0,1,1.07-.46,5.48,5.48,0,0,1,1.4-.17Zm3.63-1.86V199h-.82v-7.4h.8Zm2.61-1.28,0,.75-.26,0-.28,0a2.13,2.13,0,0,0-.94.2,2,2,0,0,0-.67.54,2.59,2.59,0,0,0-.42.81,3.79,3.79,0,0,0-.16,1l-.3.12a5.76,5.76,0,0,1,.15-1.35,3.35,3.35,0,0,1,.46-1.09,2.14,2.14,0,0,1,1.9-1l.31,0Zm4.43,0v.67h-3.71v-.67Zm-2.35-1.9h.82v7.5a1.8,1.8,0,0,0,.13.78.7.7,0,0,0,.36.34,1.19,1.19,0,0,0,.47.09l.36,0,.3,0,0,.69a2.53,2.53,0,0,1-.39.07,3.88,3.88,0,0,1-.48,0,2,2,0,0,1-.83-.17,1.18,1.18,0,0,1-.57-.61,2.64,2.64,0,0,1-.21-1.16Zm6.26,8.56,2.3-6.66h.88l-3.13,8.59a5.87,5.87,0,0,1-.24.56,2.74,2.74,0,0,1-.39.59,1.8,1.8,0,0,1-1.44.65,1.47,1.47,0,0,1-.33,0l-.29,0v-.69l.22,0,.2,0a1.5,1.5,0,0,0,.74-.16,1.25,1.25,0,0,0,.52-.45,3.54,3.54,0,0,0,.36-.73Zm-2.16-6.66,2.36,6.35.22.86-.59.33L645,191.6Z"></path><path class="cls-4" d="M526.5,246.5h151v143h-151Z"></path><path class="cls-2" d="M546.16,341.05H547l3.67,8.76,3.69-8.76h.84L551,351h-.64Zm-.26,0h.74l.09,5.6V351h-.83Zm8.84,0h.74V351h-.84v-4.35Zm5.94,10.09a3.18,3.18,0,0,1-2.39-1,3.49,3.49,0,0,1-.69-1.15,4.3,4.3,0,0,1-.24-1.46v-.3a4.65,4.65,0,0,1,.25-1.54,3.78,3.78,0,0,1,.7-1.19,3.45,3.45,0,0,1,1-.75,3,3,0,0,1,1.21-.26,2.94,2.94,0,0,1,1.25.25,2.42,2.42,0,0,1,.91.7,3.18,3.18,0,0,1,.57,1.08,4.47,4.47,0,0,1,.19,1.36v.5h-5.6v-.7h4.79v-.1a3.21,3.21,0,0,0-.25-1.16,2.19,2.19,0,0,0-.7-.89,2,2,0,0,0-1.16-.34,2.05,2.05,0,0,0-1,.22,2.15,2.15,0,0,0-.75.63,3.07,3.07,0,0,0-.47,1,4.3,4.3,0,0,0-.17,1.23v.3a3.49,3.49,0,0,0,.18,1.14,2.8,2.8,0,0,0,.52.93,2.47,2.47,0,0,0,.81.63,2.28,2.28,0,0,0,1,.23,2.64,2.64,0,0,0,1.16-.24,2.52,2.52,0,0,0,.91-.77l.51.39a2.85,2.85,0,0,1-.6.66,2.69,2.69,0,0,1-.85.48A3.41,3.41,0,0,1,560.68,351.14Zm9.19-1.58V340.5h.82V351h-.76Zm-5.13-2.18v-.15a5.34,5.34,0,0,1,.2-1.55,3.75,3.75,0,0,1,.56-1.19,2.56,2.56,0,0,1,.91-.76,2.66,2.66,0,0,1,1.18-.26,2.91,2.91,0,0,1,1.15.21,2.29,2.29,0,0,1,.86.61,3.17,3.17,0,0,1,.58.94,5.44,5.44,0,0,1,.33,1.22v1.82a5.05,5.05,0,0,1-.3,1.16,3.1,3.1,0,0,1-.59.91,2.53,2.53,0,0,1-.87.59,3.05,3.05,0,0,1-1.17.21,2.42,2.42,0,0,1-1.18-.28,2.65,2.65,0,0,1-.9-.77,3.8,3.8,0,0,1-.56-1.2A5.16,5.16,0,0,1,564.74,347.38Zm.82-.15v.15a5.08,5.08,0,0,0,.13,1.2,3,3,0,0,0,.39,1,2,2,0,0,0,.68.65,2,2,0,0,0,1,.23,2.37,2.37,0,0,0,1.18-.27,2.13,2.13,0,0,0,.77-.72,3.3,3.3,0,0,0,.42-1v-2.13a5.65,5.65,0,0,0-.24-.73,2.58,2.58,0,0,0-.43-.69,1.91,1.91,0,0,0-.69-.52,2.28,2.28,0,0,0-1-.2,1.89,1.89,0,0,0-1,.24,1.94,1.94,0,0,0-.69.65,3,3,0,0,0-.39,1A5.08,5.08,0,0,0,565.56,347.23Zm8.19-3.63V351h-.81v-7.4Zm-1-2.14a.55.55,0,0,1,.14-.39.55.55,0,1,1,0,.78A.55.55,0,0,1,572.8,341.46Zm5.92,9a2.43,2.43,0,0,0,1-.19,1.86,1.86,0,0,0,.75-.58,1.76,1.76,0,0,0,.34-1h.78a2.33,2.33,0,0,1-.43,1.26,2.72,2.72,0,0,1-1,.86,3.17,3.17,0,0,1-1.38.31,3.28,3.28,0,0,1-1.37-.28,2.91,2.91,0,0,1-1-.78,3.75,3.75,0,0,1-.6-1.18,5.24,5.24,0,0,1-.19-1.45v-.29a5.19,5.19,0,0,1,.19-1.45,3.75,3.75,0,0,1,.6-1.18,2.79,2.79,0,0,1,1-.78,3.09,3.09,0,0,1,1.36-.28,3,3,0,0,1,1.42.32,2.4,2.4,0,0,1,1,.91,2.62,2.62,0,0,1,.42,1.39h-.78a2.08,2.08,0,0,0-.31-1,2,2,0,0,0-.74-.67,2.31,2.31,0,0,0-1-.23,2.09,2.09,0,0,0-1.07.25,2,2,0,0,0-.73.66,3,3,0,0,0-.4,1,4.52,4.52,0,0,0-.13,1.12v.29a5.22,5.22,0,0,0,.12,1.13,2.91,2.91,0,0,0,.41.95,1.91,1.91,0,0,0,.72.66A2.28,2.28,0,0,0,578.72,350.43Zm9-.76v-3.81a1.86,1.86,0,0,0-.22-.91,1.5,1.5,0,0,0-.65-.59,2.47,2.47,0,0,0-1-.2,2.59,2.59,0,0,0-1,.2,1.74,1.74,0,0,0-.7.54,1.21,1.21,0,0,0-.25.75H583a1.68,1.68,0,0,1,.2-.81,2.23,2.23,0,0,1,.58-.69,2.78,2.78,0,0,1,.9-.49,3.51,3.51,0,0,1,1.15-.18,3.57,3.57,0,0,1,1.4.26,2.19,2.19,0,0,1,.95.8,2.42,2.42,0,0,1,.34,1.34v3.58a7.29,7.29,0,0,0,.05.79,3.05,3.05,0,0,0,.17.68V351h-.86a2.81,2.81,0,0,1-.13-.61A6.13,6.13,0,0,1,587.71,349.67Zm.19-3v.63H586.3a4.81,4.81,0,0,0-1.12.12,2.46,2.46,0,0,0-.84.33,1.5,1.5,0,0,0-.52.51,1.3,1.3,0,0,0-.18.68,1.4,1.4,0,0,0,.2.73,1.37,1.37,0,0,0,.57.52,1.91,1.91,0,0,0,.89.19,2.63,2.63,0,0,0,2.07-.91,2.15,2.15,0,0,0,.46-.9l.35.48a2.4,2.4,0,0,1-.32.7,3.17,3.17,0,0,1-.61.67,3.64,3.64,0,0,1-.89.51,3.42,3.42,0,0,1-1.15.19,2.66,2.66,0,0,1-1.26-.28,2.08,2.08,0,0,1-.9-2.8,2.15,2.15,0,0,1,.67-.74,3.27,3.27,0,0,1,1.07-.46,5.56,5.56,0,0,1,1.41-.17Zm3.72-6.19V351h-.81V340.5Zm6.57,3.1V351h-.82v-7.4Zm-1-2.14a.6.6,0,0,1,.14-.39.53.53,0,0,1,.41-.16.51.51,0,0,1,.41.16.56.56,0,0,1,0,.78.51.51,0,0,1-.41.16.53.53,0,0,1-.41-.16A.6.6,0,0,1,597.23,341.46Zm4,3.72V351h-.81v-7.4h.78Zm-.18,1.66-.36-.2a4.08,4.08,0,0,1,.26-1.23,3.4,3.4,0,0,1,.61-1,2.93,2.93,0,0,1,.91-.69,2.77,2.77,0,0,1,1.16-.24,3,3,0,0,1,1,.15,1.79,1.79,0,0,1,.75.48,2.07,2.07,0,0,1,.47.84,4.47,4.47,0,0,1,.16,1.25V351h-.82v-4.82A2.81,2.81,0,0,0,605,345a1.27,1.27,0,0,0-.61-.62,2.16,2.16,0,0,0-.92-.18,2,2,0,0,0-1,.26,2.46,2.46,0,0,0-.74.66,3.59,3.59,0,0,0-.45.87A3.18,3.18,0,0,0,601.05,346.84Zm11.5,2.27a1.26,1.26,0,0,0-.15-.59,1.39,1.39,0,0,0-.58-.54,4.11,4.11,0,0,0-1.25-.42,8.16,8.16,0,0,1-1.1-.31,3.07,3.07,0,0,1-.81-.41,1.59,1.59,0,0,1-.5-.57,1.64,1.64,0,0,1-.17-.79,1.75,1.75,0,0,1,.18-.78,1.86,1.86,0,0,1,.52-.64,2.66,2.66,0,0,1,.82-.44,3.61,3.61,0,0,1,1.08-.15,3.47,3.47,0,0,1,1.47.29,2.08,2.08,0,0,1,.93.79,2,2,0,0,1,.33,1.12h-.81a1.31,1.31,0,0,0-.23-.72,1.57,1.57,0,0,0-.65-.56,2.19,2.19,0,0,0-1-.22,2.37,2.37,0,0,0-1,.19,1.36,1.36,0,0,0-.58.49,1.14,1.14,0,0,0-.18.61,1.33,1.33,0,0,0,.08.45,1,1,0,0,0,.28.37,2.43,2.43,0,0,0,.61.32,6.78,6.78,0,0,0,1,.29,6.37,6.37,0,0,1,1.46.49,2.07,2.07,0,0,1,.85.69,2,2,0,0,1,.08,1.84,1.89,1.89,0,0,1-.55.65,2.77,2.77,0,0,1-.86.43,4,4,0,0,1-1.13.15,3.74,3.74,0,0,1-1.58-.31,2.36,2.36,0,0,1-1-.82,2,2,0,0,1-.33-1.09h.82a1.35,1.35,0,0,0,.36.91,1.82,1.82,0,0,0,.78.47,3.42,3.42,0,0,0,.93.13,2.76,2.76,0,0,0,1.06-.18,1.63,1.63,0,0,0,.64-.49A1.11,1.11,0,0,0,612.55,349.11Zm7.4.18V343.6h.82V351H620Zm.15-1.37h.43a4.79,4.79,0,0,1-.17,1.29,2.88,2.88,0,0,1-.51,1,2.29,2.29,0,0,1-.9.68,3.38,3.38,0,0,1-1.34.24,3.12,3.12,0,0,1-1-.15,1.94,1.94,0,0,1-.76-.5,2.2,2.2,0,0,1-.5-.86,4.14,4.14,0,0,1-.17-1.3V343.6H616v4.75a3.13,3.13,0,0,0,.13,1,1.66,1.66,0,0,0,.37.64,1.49,1.49,0,0,0,.55.34,2,2,0,0,0,.66.1,2.55,2.55,0,0,0,1.42-.35,1.93,1.93,0,0,0,.75-.92A3.32,3.32,0,0,0,620.1,347.92Zm3.62-3.09V351h-.81v-7.4h.79Zm2.62-1.28,0,.75-.26,0-.28,0a2.13,2.13,0,0,0-.94.2,2,2,0,0,0-.67.54,2.59,2.59,0,0,0-.42.81,3.79,3.79,0,0,0-.16,1l-.3.12a5.82,5.82,0,0,1,.15-1.35,3.35,3.35,0,0,1,.46-1.09,2.27,2.27,0,0,1,.78-.73,2.34,2.34,0,0,1,1.12-.26l.31,0Zm5.51,6.12v-3.81a1.75,1.75,0,0,0-.22-.91,1.47,1.47,0,0,0-.64-.59,2.47,2.47,0,0,0-1-.2,2.56,2.56,0,0,0-1,.2,1.67,1.67,0,0,0-.7.54,1.22,1.22,0,0,0-.26.75h-.82a1.69,1.69,0,0,1,.21-.81,2.1,2.1,0,0,1,.58-.69,2.84,2.84,0,0,1,.89-.49,3.57,3.57,0,0,1,1.16-.18,3.52,3.52,0,0,1,1.39.26,2.08,2.08,0,0,1,1,.8,2.43,2.43,0,0,1,.35,1.34v3.58a5.41,5.41,0,0,0,.05.79,3.05,3.05,0,0,0,.17.68V351H632a3.56,3.56,0,0,1-.13-.61C631.87,350.13,631.85,349.9,631.85,349.67Zm.19-3,0,.63h-1.61a4.9,4.9,0,0,0-1.13.12,2.4,2.4,0,0,0-.83.33,1.62,1.62,0,0,0-.53.51,1.3,1.3,0,0,0-.18.68,1.4,1.4,0,0,0,.2.73,1.47,1.47,0,0,0,.58.52,1.89,1.89,0,0,0,.89.19,2.71,2.71,0,0,0,1.2-.25,2.64,2.64,0,0,0,.87-.66,2.27,2.27,0,0,0,.46-.9l.35.48a2.44,2.44,0,0,1-.33.7,2.87,2.87,0,0,1-.6.67,3.83,3.83,0,0,1-.89.51,3.42,3.42,0,0,1-1.15.19,2.67,2.67,0,0,1-1.27-.28,2.13,2.13,0,0,1-.83-.74,2.18,2.18,0,0,1-.06-2.06,2.05,2.05,0,0,1,.67-.74,3.21,3.21,0,0,1,1.06-.46,5.56,5.56,0,0,1,1.41-.17Zm3.63-1.51V351h-.81v-7.4h.78Zm-.18,1.66-.36-.2a3.8,3.8,0,0,1,.26-1.23,3.4,3.4,0,0,1,.61-1,3,3,0,0,1,.91-.69,2.77,2.77,0,0,1,1.16-.24,3,3,0,0,1,1,.15,1.79,1.79,0,0,1,.75.48,2,2,0,0,1,.46.84,4.1,4.1,0,0,1,.17,1.25V351h-.82v-4.82a2.81,2.81,0,0,0-.21-1.2,1.27,1.27,0,0,0-.61-.62,2.16,2.16,0,0,0-.92-.18,2,2,0,0,0-1,.26,2.46,2.46,0,0,0-.74.66,3.27,3.27,0,0,0-.45.87A2.85,2.85,0,0,0,635.49,346.84Zm9.79,3.59a2.45,2.45,0,0,0,1-.19,1.86,1.86,0,0,0,.75-.58,1.76,1.76,0,0,0,.34-1h.78a2.33,2.33,0,0,1-.43,1.26,2.72,2.72,0,0,1-1,.86,3.19,3.19,0,0,1-1.39.31,3.24,3.24,0,0,1-1.36-.28,2.91,2.91,0,0,1-1-.78,3.75,3.75,0,0,1-.6-1.18,5.24,5.24,0,0,1-.2-1.45v-.29a5.18,5.18,0,0,1,.2-1.45,3.75,3.75,0,0,1,.6-1.18,2.79,2.79,0,0,1,1-.78,3.06,3.06,0,0,1,1.36-.28,3,3,0,0,1,1.42.32,2.46,2.46,0,0,1,1,.91,2.62,2.62,0,0,1,.42,1.39h-.78a2,2,0,0,0-.32-1,1.88,1.88,0,0,0-.73-.67,2.31,2.31,0,0,0-1-.23,2.09,2.09,0,0,0-1.07.25,2,2,0,0,0-.73.66,3,3,0,0,0-.4,1,4.52,4.52,0,0,0-.13,1.12v.29a5.22,5.22,0,0,0,.12,1.13,3.13,3.13,0,0,0,.4.95,2,2,0,0,0,.73.66A2.27,2.27,0,0,0,645.28,350.43Zm7.35.71a3.18,3.18,0,0,1-2.38-1,3.33,3.33,0,0,1-.69-1.15,4.3,4.3,0,0,1-.24-1.46v-.3a4.4,4.4,0,0,1,.25-1.54,3.6,3.6,0,0,1,.7-1.19,3.32,3.32,0,0,1,1-.75,3.07,3.07,0,0,1,2.45,0,2.45,2.45,0,0,1,.92.7,3.18,3.18,0,0,1,.57,1.08,4.8,4.8,0,0,1,.19,1.36v.5h-5.6v-.7h4.79v-.1a3,3,0,0,0-.26-1.16,2.09,2.09,0,0,0-.69-.89,2,2,0,0,0-1.17-.34,2,2,0,0,0-1,.22,2.15,2.15,0,0,0-.75.63,3.32,3.32,0,0,0-.48,1,4.31,4.31,0,0,0-.16,1.23v.3a3.49,3.49,0,0,0,.18,1.14,2.64,2.64,0,0,0,.52.93,2.34,2.34,0,0,0,1.83.86,2.7,2.7,0,0,0,1.16-.24,2.52,2.52,0,0,0,.91-.77l.51.39a3.09,3.09,0,0,1-.6.66,2.81,2.81,0,0,1-.85.48A3.47,3.47,0,0,1,652.63,351.14ZM577.9,366.43a2.43,2.43,0,0,0,1-.19,1.86,1.86,0,0,0,.75-.58,1.76,1.76,0,0,0,.34-1h.78a2.33,2.33,0,0,1-.43,1.26,2.72,2.72,0,0,1-1,.86,3.17,3.17,0,0,1-1.38.31,3.28,3.28,0,0,1-1.37-.28,2.91,2.91,0,0,1-1-.78,3.75,3.75,0,0,1-.6-1.18,5.24,5.24,0,0,1-.2-1.45v-.29a5.18,5.18,0,0,1,.2-1.45,3.75,3.75,0,0,1,.6-1.18,2.79,2.79,0,0,1,1-.78,3.09,3.09,0,0,1,1.36-.28,3,3,0,0,1,1.42.32,2.46,2.46,0,0,1,1,.91,2.62,2.62,0,0,1,.42,1.39H580a2.08,2.08,0,0,0-.31-1,2,2,0,0,0-.74-.67,2.31,2.31,0,0,0-1-.23,2.09,2.09,0,0,0-1.07.25,2,2,0,0,0-.73.66,3.19,3.19,0,0,0-.4,1,4.52,4.52,0,0,0-.13,1.12v.29a5.22,5.22,0,0,0,.12,1.13,2.91,2.91,0,0,0,.41.95,1.91,1.91,0,0,0,.72.66A2.28,2.28,0,0,0,577.9,366.43Zm4-3v-.23a4.48,4.48,0,0,1,.23-1.49,3.4,3.4,0,0,1,.66-1.18,3,3,0,0,1,1-.77,3.11,3.11,0,0,1,1.35-.28,3.15,3.15,0,0,1,1.36.28,3,3,0,0,1,1,.77,3.59,3.59,0,0,1,.67,1.18,4.75,4.75,0,0,1,.23,1.49v.23a4.75,4.75,0,0,1-.23,1.49,3.54,3.54,0,0,1-.67,1.17,2.94,2.94,0,0,1-1,.78,3.18,3.18,0,0,1-1.36.28,3.11,3.11,0,0,1-1.35-.28,2.89,2.89,0,0,1-1-.78,3.38,3.38,0,0,1-.67-1.17A4.48,4.48,0,0,1,581.94,363.42Zm.81-.23v.23a4,4,0,0,0,.16,1.15,3.14,3.14,0,0,0,.48,1,2.23,2.23,0,0,0,.78.65,2.31,2.31,0,0,0,1.07.24,2.25,2.25,0,0,0,1.84-.89,3.14,3.14,0,0,0,.48-1,4.32,4.32,0,0,0,.16-1.15v-.23a4.24,4.24,0,0,0-.16-1.14,3.09,3.09,0,0,0-.48-1,2.35,2.35,0,0,0-2.92-.67,2.24,2.24,0,0,0-.77.67,3.09,3.09,0,0,0-.48,1A3.88,3.88,0,0,0,582.75,363.19Zm9.56,3,2.37-6.61h.84l-2.77,7.4h-.59Zm-2.15-6.61,2.4,6.63.13.77h-.6l-2.78-7.4Zm9.47,7.54a3.31,3.31,0,0,1-1.34-.27,3.26,3.26,0,0,1-1-.75,3.67,3.67,0,0,1-.69-1.15,4.3,4.3,0,0,1-.24-1.46v-.3a4.4,4.4,0,0,1,.26-1.54,3.58,3.58,0,0,1,.69-1.19,3.45,3.45,0,0,1,1-.75,3,3,0,0,1,1.21-.26,2.94,2.94,0,0,1,1.25.25,2.54,2.54,0,0,1,.92.7,3.17,3.17,0,0,1,.56,1.08,4.47,4.47,0,0,1,.19,1.36v.5h-5.6v-.7h4.79v-.1a3,3,0,0,0-.25-1.16,2.19,2.19,0,0,0-.7-.89,2,2,0,0,0-1.16-.34,2.05,2.05,0,0,0-1,.22,2,2,0,0,0-.74.63,2.88,2.88,0,0,0-.48,1,4.3,4.3,0,0,0-.17,1.23v.3a3.49,3.49,0,0,0,.18,1.14,2.8,2.8,0,0,0,.52.93,2.47,2.47,0,0,0,.81.63,2.31,2.31,0,0,0,1,.23,2.64,2.64,0,0,0,1.16-.24,2.44,2.44,0,0,0,.91-.77l.52.39a3.09,3.09,0,0,1-.6.66,2.86,2.86,0,0,1-.86.48A3.41,3.41,0,0,1,599.63,367.14Zm5.2-6.31V367H604v-7.4h.79Zm2.62-1.28,0,.75-.27,0-.28,0a2.16,2.16,0,0,0-.94.2,2,2,0,0,0-.67.54,2.38,2.38,0,0,0-.41.81,3.79,3.79,0,0,0-.17,1l-.3.12a5.82,5.82,0,0,1,.15-1.35,3.58,3.58,0,0,1,.46-1.09,2.3,2.3,0,0,1,.79-.73,2.34,2.34,0,0,1,1.12-.26l.31,0Zm5.51,6.12v-3.81a1.75,1.75,0,0,0-.22-.91,1.53,1.53,0,0,0-.64-.59,2.78,2.78,0,0,0-2.07,0,1.7,1.7,0,0,0-.71.54,1.21,1.21,0,0,0-.25.75h-.82a1.8,1.8,0,0,1,.2-.81,2.23,2.23,0,0,1,.58-.69,2.78,2.78,0,0,1,.9-.49,3.84,3.84,0,0,1,2.55.08,2.14,2.14,0,0,1,.95.8,2.42,2.42,0,0,1,.34,1.34v3.58a5.46,5.46,0,0,0,.06.79,2.59,2.59,0,0,0,.17.68V367h-.87a2.81,2.81,0,0,1-.13-.61A6.13,6.13,0,0,1,613,365.67Zm.19-3v.63h-1.6a4.84,4.84,0,0,0-1.13.12,2.46,2.46,0,0,0-.84.33,1.59,1.59,0,0,0-.52.51,1.3,1.3,0,0,0-.18.68,1.4,1.4,0,0,0,.2.73,1.51,1.51,0,0,0,.57.52,1.91,1.91,0,0,0,.89.19,2.73,2.73,0,0,0,1.21-.25,2.5,2.5,0,0,0,.86-.66,2.15,2.15,0,0,0,.46-.9l.36.48a2.44,2.44,0,0,1-.33.7,3.17,3.17,0,0,1-.61.67,3.64,3.64,0,0,1-.89.51,3.42,3.42,0,0,1-1.15.19,2.66,2.66,0,0,1-1.26-.28,2.16,2.16,0,0,1-.84-.74,2.18,2.18,0,0,1-.06-2.06,2.15,2.15,0,0,1,.67-.74,3.27,3.27,0,0,1,1.07-.46,5.56,5.56,0,0,1,1.41-.17Zm7.68-3.09h.76v7.27a3.41,3.41,0,0,1-.37,1.65,2.45,2.45,0,0,1-1,1.06,3.12,3.12,0,0,1-1.57.37,3.57,3.57,0,0,1-.94-.14,3.26,3.26,0,0,1-.91-.42,2.82,2.82,0,0,1-.72-.7l.46-.5a3.06,3.06,0,0,0,1,.8,2.45,2.45,0,0,0,1.11.26,2.33,2.33,0,0,0,1.19-.28,1.88,1.88,0,0,0,.74-.81,2.86,2.86,0,0,0,.26-1.26v-5.67Zm-5.19,3.78v-.15a5.72,5.72,0,0,1,.19-1.55,3.56,3.56,0,0,1,.57-1.19,2.5,2.5,0,0,1,.89-.76,2.78,2.78,0,0,1,1.2-.26,3,3,0,0,1,1.15.21,2.37,2.37,0,0,1,.86.61,3.17,3.17,0,0,1,.58.94,5.44,5.44,0,0,1,.33,1.22v1.82a5.05,5.05,0,0,1-.3,1.16,3.29,3.29,0,0,1-.58.91,2.67,2.67,0,0,1-.88.59,3.05,3.05,0,0,1-1.17.21,2.46,2.46,0,0,1-1.19-.28,2.52,2.52,0,0,1-.89-.77,3.61,3.61,0,0,1-.57-1.2A5.53,5.53,0,0,1,615.64,363.38Zm.82-.15v.15a5.08,5.08,0,0,0,.13,1.2,3,3,0,0,0,.39,1,2,2,0,0,0,.68.65,2,2,0,0,0,1,.23,2.41,2.41,0,0,0,1.19-.27,2.1,2.1,0,0,0,.76-.72,3.56,3.56,0,0,0,.41-1v-2.13a3.66,3.66,0,0,0-.24-.73,2.32,2.32,0,0,0-.42-.69,2,2,0,0,0-.68-.52,2.35,2.35,0,0,0-1-.2,2,2,0,0,0-1,.24,1.92,1.92,0,0,0-.68.65,3,3,0,0,0-.39,1A5.08,5.08,0,0,0,616.46,363.23Zm10.13,3.91a3.23,3.23,0,0,1-1.33-.27,3.19,3.19,0,0,1-1.06-.75,3.67,3.67,0,0,1-.69-1.15,4.3,4.3,0,0,1-.24-1.46v-.3a4.4,4.4,0,0,1,.26-1.54,3.76,3.76,0,0,1,.69-1.19,3.45,3.45,0,0,1,1-.75,3,3,0,0,1,1.21-.26,2.91,2.91,0,0,1,1.25.25,2.42,2.42,0,0,1,.91.7,3,3,0,0,1,.57,1.08,4.47,4.47,0,0,1,.19,1.36v.5h-5.59v-.7h4.78v-.1a3,3,0,0,0-.25-1.16,2.19,2.19,0,0,0-.7-.89,2,2,0,0,0-1.16-.34,2.05,2.05,0,0,0-1,.22,2.11,2.11,0,0,0-.74.63,2.88,2.88,0,0,0-.48,1,4.3,4.3,0,0,0-.17,1.23v.3a3.49,3.49,0,0,0,.18,1.14,3,3,0,0,0,.52.93,2.47,2.47,0,0,0,.81.63,2.31,2.31,0,0,0,1,.23,2.64,2.64,0,0,0,1.16-.24,2.52,2.52,0,0,0,.91-.77l.52.39a2.9,2.9,0,0,1-.61.66,2.69,2.69,0,0,1-.85.48A3.41,3.41,0,0,1,626.59,367.14Z"></path><path class="cls-3" d="M618.65,307.46a.5.5,0,0,0,0,.12l.39,2.05L615,307.32a.88.88,0,0,0-.89,0l-4.06,2.3.38-2.05,0-.12.94-5a6.36,6.36,0,0,0,6.32,0l.94,5Zm2,.79h3.48a.9.9,0,0,0,.9-.9V279.2a.9.9,0,0,0-.9-.9H580.9a.9.9,0,0,0-.9.9v28.15a.9.9,0,0,0,.9.9h27.57l-.55,2.95a.85.85,0,0,0,.1.6.9.9,0,0,0,1.22.34l5.3-3,5.29,3a.9.9,0,0,0,1.34-.93l-.55-2.95Zm-11.81-1.79h-27V280.09h41.42v26.37h-2.93l-1-5.3a6.36,6.36,0,1,0-9.47,0l-1,5.3Zm2.51-12.77a4.56,4.56,0,1,1-1.34,3.23A4.54,4.54,0,0,1,611.32,293.69Zm-8.15,1.47a.9.9,0,1,0,0-1.8H587.61a.9.9,0,0,0,0,1.8Zm0-6.27a.9.9,0,1,0,0-1.79H587.61a.9.9,0,1,0,0,1.79Z"></path><path class="cls-3" d="M619.76,125l1.58-.38,1.14,1.08.16-1.57,1.36-.82-1.47-.6-.32-1.57-1,1.19-1.58-.16.82,1.36Z"></path><path class="cls-3" d="M618.84,135a2.8,2.8,0,0,0,0-5.6,2.84,2.84,0,0,0-2.82,2.83A2.79,2.79,0,0,0,618.84,135Z"></path><path class="cls-3" d="M612.81,125.06A1.09,1.09,0,1,0,613.9,124,1.09,1.09,0,0,0,612.81,125.06Z"></path><path class="cls-3" d="M607.55,114.58a2.54,2.54,0,0,0,1.42.54,5.9,5.9,0,0,0,1,.11,4.08,4.08,0,0,1,.22,1.63,6.1,6.1,0,0,1-1.31,3.42l1.14.87a7.71,7.71,0,0,0,1.63-4.24,5.71,5.71,0,0,0-.22-1.68,10.89,10.89,0,0,0,4.73-1.47l-.71-1.25a10.05,10.05,0,0,1-4.51,1.36,4.38,4.38,0,0,0-1-1.25,2.18,2.18,0,0,0-1.79-.59,1.38,1.38,0,0,0-1,.65,1.47,1.47,0,0,0,.38,1.9Zm1.42-.93h0a.74.74,0,0,1-.49-.16.21.21,0,0,0-.06-.11A1.28,1.28,0,0,1,609,113.65Z"></path><path class="cls-3" d="M596.09,130.11a2.07,2.07,0,1,0,2.07,2.07A2.15,2.15,0,0,0,596.09,130.11Zm0,2.66a.65.65,0,0,1-.65-.59.67.67,0,0,1,.65-.66.62.62,0,0,1,.6.66A.6.6,0,0,1,596.09,132.77Z"></path><path class="cls-3" d="M599,123.54l.27-1.41a5.55,5.55,0,0,1-3.75-2.56,5.93,5.93,0,0,1-.87-4.45,4.79,4.79,0,0,1,2-2.93,4.54,4.54,0,0,1,3.47-.65,3.46,3.46,0,0,1,2.29,1.52,3.35,3.35,0,0,1,.49,2.66,2.72,2.72,0,0,1-3.16,2.12,1.91,1.91,0,0,1-1.24-.87,1.87,1.87,0,0,1-.33-1.52,1.43,1.43,0,0,1,.65-.93,1.55,1.55,0,0,1,1.09-.21l.27-1.42a2.79,2.79,0,0,0-2.17.44,2.92,2.92,0,0,0-1.25,1.85,3.66,3.66,0,0,0,.49,2.6,3.36,3.36,0,0,0,2.17,1.47,4.18,4.18,0,0,0,4.89-3.26,5.08,5.08,0,0,0-.71-3.75,4.78,4.78,0,0,0-3.15-2.12,6.17,6.17,0,0,0-4.56.87,5.73,5.73,0,0,0-2.55,3.86,7.33,7.33,0,0,0,1.08,5.54,7,7,0,0,0,4.62,3.15Z"></path><path class="cls-3" d="M616,144.34a4.66,4.66,0,0,0-1.25-3.42,7.88,7.88,0,0,0-5.16-2.77h0a15.75,15.75,0,0,0-2.45-4.4l2.93-1.14-3.31-2-.22-4-2.93,2.55-1.19-.33a17.13,17.13,0,0,0-5-2.71c-2.66-.87-4.83-.65-6.13.7a4.34,4.34,0,0,0-1.15,2.39c-11.46,24.72-10.26,25.91-9.88,26.29a1.58,1.58,0,0,0,1.14.33c4.18,0,17.11-6.19,25.09-10.21a4.34,4.34,0,0,0,2.45-1.14c1.14-1.14,1.46-2.88,1-4.95a6.3,6.3,0,0,1,3.64,2.18,3.8,3.8,0,0,1,.92,2.28,3.43,3.43,0,0,0-2.6.65,1.46,1.46,0,0,0-.6,1.08,1.17,1.17,0,0,0,.27.87,1.22,1.22,0,0,0,.65.38,2.78,2.78,0,0,0,2.17-.27,3.41,3.41,0,0,0,1.09-1.08l.49.16a31.75,31.75,0,0,1,6.9,3l.7-1.25a35.59,35.59,0,0,0-7.22-3.15.69.69,0,0,0-.38-.11Zm-13.53-13.58-.16-.43,1.09.27.6.16.32-.27,1-.87.11,1.74,1.46.87-.65.27-.71.27-.27.11-.11.55-.27,1.14-1.08-1.31-1.74.17.92-1.47Zm5.49,12.77c-.92.92-2.61,1-4.67.38a18.35,18.35,0,0,1-6.85-4.51,19,19,0,0,1-4.5-6.84,7.06,7.06,0,0,1-.38-2.88,2.67,2.67,0,0,1,.76-1.79,3,3,0,0,1,2.28-.82,8.35,8.35,0,0,1,2.39.43,13.36,13.36,0,0,1,3.2,1.58l1.14,2.72-2.06,3.25,3.86-.32,2.44,3,.65-2.83A17.4,17.4,0,0,1,608,138.1a7.17,7.17,0,0,0-3.91,1.63l.93,1.08a5.57,5.57,0,0,1,3.47-1.3,7.21,7.21,0,0,1,.27,1.79,3.37,3.37,0,0,1-.81,2.23Zm5.81,2a2,2,0,0,1-.76.22,1.81,1.81,0,0,1,.82-.28A.06.06,0,0,0,613.74,145.54Z"></path><path class="cls-3" d="M590.77,123.92a1.09,1.09,0,1,0-1.08-1.09A1.09,1.09,0,0,0,590.77,123.92Z"></path></svg>