<svg xmlns="http://www.w3.org/2000/svg" id="Layer_1" data-name="Layer 1" viewBox="0 0 337.86 292.6"><defs><style>.cls-1{fill:none;stroke:#55cdd5;}.cls-2{fill:#fff;}</style></defs><path class="cls-1" d="M85.33,145.8,168.93,1l83.6,144.8Z"></path><path class="cls-1" d="M.87,292.1,84.46,147.31l83.6,144.79Z"></path><path class="cls-1" d="M169.8,292.1l83.59-144.79L337,292.1Z"></path><path class="cls-2" d="M152.23,74h-2.54v-1.6h2.54a2,2,0,0,0,1-.19,1.2,1.2,0,0,0,.54-.55,1.66,1.66,0,0,0,.17-.78,1.9,1.9,0,0,0-.17-.83,1.35,1.35,0,0,0-.54-.62,1.78,1.78,0,0,0-1-.23H150.4v8.35h-2.05v-10h3.88a4.41,4.41,0,0,1,2,.43,3,3,0,0,1,1.28,1.15,3.21,3.21,0,0,1,.45,1.69,3,3,0,0,1-.45,1.67,2.87,2.87,0,0,1-1.28,1.09A4.85,4.85,0,0,1,152.23,74Zm9.4,1.78V70.11h2v7.4h-1.85Zm.21-1.52h.59a5,5,0,0,1-.18,1.37,3.13,3.13,0,0,1-.51,1.09,2.31,2.31,0,0,1-.86.72,2.74,2.74,0,0,1-1.22.25,3.18,3.18,0,0,1-1-.15,2,2,0,0,1-.78-.48,2.48,2.48,0,0,1-.51-.86,4.22,4.22,0,0,1-.17-1.26V70.11h2V74.9a1.79,1.79,0,0,0,.08.56.93.93,0,0,0,.23.37.79.79,0,0,0,.33.2,1.51,1.51,0,0,0,.44.06,1.71,1.71,0,0,0,1-.24,1.32,1.32,0,0,0,.49-.67A2.93,2.93,0,0,0,161.84,74.22ZM165.1,67h2v8.8l-.2,1.7H165.1Zm6.65,6.72v.15a6.09,6.09,0,0,1-.18,1.52,3.4,3.4,0,0,1-.53,1.19,2.6,2.6,0,0,1-.9.78,2.78,2.78,0,0,1-1.26.27,2.48,2.48,0,0,1-1.18-.27,2.32,2.32,0,0,1-.82-.77,3.94,3.94,0,0,1-.54-1.17A8.73,8.73,0,0,1,166,74v-.32a8.73,8.73,0,0,1,.31-1.46,3.94,3.94,0,0,1,.54-1.17,2.32,2.32,0,0,1,.82-.77,2.4,2.4,0,0,1,1.16-.28,2.84,2.84,0,0,1,1.28.28,2.6,2.6,0,0,1,.9.78,3.4,3.4,0,0,1,.53,1.19A6,6,0,0,1,171.75,73.73Zm-2,.15v-.15a4.46,4.46,0,0,0-.07-.84,2.11,2.11,0,0,0-.22-.71,1.18,1.18,0,0,0-1.12-.66,1.42,1.42,0,0,0-.68.14,1.24,1.24,0,0,0-.47.38,1.88,1.88,0,0,0-.26.59,3.29,3.29,0,0,0-.11.73v.9a2.83,2.83,0,0,0,.18,1,1.46,1.46,0,0,0,.49.65,1.52,1.52,0,0,0,.87.23,1.46,1.46,0,0,0,.69-.16,1.13,1.13,0,0,0,.42-.47,2.06,2.06,0,0,0,.22-.7A6.23,6.23,0,0,0,169.78,73.88ZM175.05,67v10.5h-2V67Zm3.71,3.1v7.4h-2v-7.4Zm-2.1-1.93a.94.94,0,0,1,.3-.71,1.3,1.3,0,0,1,1.61,0,.94.94,0,0,1,.3.71.91.91,0,0,1-.3.71,1.3,1.3,0,0,1-1.61,0A.91.91,0,0,1,176.66,68.18Zm6.78,7.93a1.47,1.47,0,0,0,.64-.14,1.14,1.14,0,0,0,.44-.4,1.09,1.09,0,0,0,.17-.61h1.85a2.44,2.44,0,0,1-.41,1.39,2.9,2.9,0,0,1-1.1,1,3.46,3.46,0,0,1-1.55.34,3.65,3.65,0,0,1-1.5-.28,2.84,2.84,0,0,1-1.06-.8,3.26,3.26,0,0,1-.64-1.19,4.91,4.91,0,0,1-.21-1.46v-.2a4.91,4.91,0,0,1,.21-1.46,3.26,3.26,0,0,1,.64-1.19,2.84,2.84,0,0,1,1.06-.8,3.6,3.6,0,0,1,1.49-.29,3.51,3.51,0,0,1,1.59.35,2.67,2.67,0,0,1,1.08,1,2.9,2.9,0,0,1,.4,1.53h-1.85a1.47,1.47,0,0,0-.16-.67,1,1,0,0,0-.42-.48,1.14,1.14,0,0,0-.68-.19,1.18,1.18,0,0,0-.7.19,1.21,1.21,0,0,0-.43.49,2.39,2.39,0,0,0-.21.7,7.22,7.22,0,0,0-.05.82v.2a7.4,7.4,0,0,0,.05.83,2.39,2.39,0,0,0,.21.7,1.21,1.21,0,0,0,.43.49A1.27,1.27,0,0,0,183.44,76.11Zm-32.53,19.4h-2.17v-1.6h2.16a2.46,2.46,0,0,0,1.36-.36,2.28,2.28,0,0,0,.83-1.08,4.51,4.51,0,0,0,.29-1.7v-.49a4.9,4.9,0,0,0-.17-1.34,2.56,2.56,0,0,0-.47-1,1.94,1.94,0,0,0-.77-.59,2.52,2.52,0,0,0-1-.21H148.7V85.55h2.23a4.69,4.69,0,0,1,1.82.35,4.09,4.09,0,0,1,1.45,1,4.42,4.42,0,0,1,.93,1.5,5.45,5.45,0,0,1,.34,1.94v.47a5.39,5.39,0,0,1-.34,1.93,4.08,4.08,0,0,1-2.38,2.47A4.75,4.75,0,0,1,150.91,95.51Zm-1-10v10h-2.05v-10Zm9,2.56v7.4h-2v-7.4Zm-2.1-1.93a.94.94,0,0,1,.3-.71,1.3,1.3,0,0,1,1.61,0,.92.92,0,0,1,.31.71.89.89,0,0,1-.31.71,1.3,1.3,0,0,1-1.61,0A.91.91,0,0,1,156.81,86.18Zm8.41,1.93H167v7.15a3,3,0,0,1-.46,1.72,2.76,2.76,0,0,1-1.24,1.07,4.56,4.56,0,0,1-2.84.25,4,4,0,0,1-1-.39,2.61,2.61,0,0,1-.78-.65l.87-1.16a2.58,2.58,0,0,0,.79.61,2.23,2.23,0,0,0,1,.23,1.87,1.87,0,0,0,.9-.2,1.31,1.31,0,0,0,.57-.57,1.89,1.89,0,0,0,.2-.89V89.82Zm-5,3.79v-.15a5.24,5.24,0,0,1,.21-1.53A3.74,3.74,0,0,1,161,89a2.72,2.72,0,0,1,1-.77,2.8,2.8,0,0,1,1.25-.28,2.61,2.61,0,0,1,1.24.28,2.26,2.26,0,0,1,.82.78,4.11,4.11,0,0,1,.5,1.18,11.81,11.81,0,0,1,.28,1.48V92a9.74,9.74,0,0,1-.3,1.43,4.68,4.68,0,0,1-.54,1.17,2.53,2.53,0,0,1-.84.76,2.41,2.41,0,0,1-1.17.27,2.66,2.66,0,0,1-1.24-.28,2.61,2.61,0,0,1-.94-.78,3.81,3.81,0,0,1-.6-1.19A5.06,5.06,0,0,1,160.24,91.9Zm2-.15v.15a3.82,3.82,0,0,0,.09.85,2.24,2.24,0,0,0,.28.71,1.41,1.41,0,0,0,.47.47,1.3,1.3,0,0,0,.67.16,1.61,1.61,0,0,0,.89-.22,1.55,1.55,0,0,0,.51-.64,2.89,2.89,0,0,0,.2-.93v-.89a3,3,0,0,0-.12-.78,1.71,1.71,0,0,0-.29-.59,1.17,1.17,0,0,0-.47-.38,1.54,1.54,0,0,0-.7-.14,1.25,1.25,0,0,0-.68.18,1.41,1.41,0,0,0-.47.47,2.39,2.39,0,0,0-.28.71A4,4,0,0,0,162.21,91.75Zm8.4-3.64v7.4h-2v-7.4Zm-2.09-1.93a.94.94,0,0,1,.3-.71,1.16,1.16,0,0,1,.8-.28,1.14,1.14,0,0,1,.8.28.92.92,0,0,1,.31.71.89.89,0,0,1-.31.71,1.1,1.1,0,0,1-.8.28,1.12,1.12,0,0,1-.8-.28A.91.91,0,0,1,168.52,86.18Zm7.34,1.93v1.4h-4.3v-1.4Zm-3.24-1.82h2v7a1.07,1.07,0,0,0,.09.49.44.44,0,0,0,.26.24,1.27,1.27,0,0,0,.43.06h.32l.26,0v1.45c-.16,0-.35.09-.54.13a4.45,4.45,0,0,1-.65,0,2.86,2.86,0,0,1-1.14-.21,1.59,1.59,0,0,1-.74-.69,2.68,2.68,0,0,1-.26-1.26ZM181,93.84v-3.3a1.37,1.37,0,0,0-.12-.6.9.9,0,0,0-.36-.41,1.43,1.43,0,0,0-1.19,0,.83.83,0,0,0-.37.32.84.84,0,0,0-.13.48h-2a2,2,0,0,1,.22-.89,2.27,2.27,0,0,1,.64-.75,3,3,0,0,1,1-.51A4.38,4.38,0,0,1,180,88a3.9,3.9,0,0,1,1.53.29,2.35,2.35,0,0,1,1,.86,2.52,2.52,0,0,1,.39,1.44v3.16a5.38,5.38,0,0,0,.08,1,2.78,2.78,0,0,0,.21.67v.12h-2a2.67,2.67,0,0,1-.22-.75A5.79,5.79,0,0,1,181,93.84Zm.26-2.84v1.12h-1.1a2.33,2.33,0,0,0-.68.09,1.32,1.32,0,0,0-.47.25,1,1,0,0,0-.27.37,1.14,1.14,0,0,0-.08.46,1,1,0,0,0,.11.46.88.88,0,0,0,.34.32,1.16,1.16,0,0,0,.51.1,1.56,1.56,0,0,0,.77-.17,1.48,1.48,0,0,0,.51-.44.89.89,0,0,0,.19-.49l.52.83a2.92,2.92,0,0,1-.3.58,2.74,2.74,0,0,1-.47.57,2.38,2.38,0,0,1-.69.43,2.54,2.54,0,0,1-1,.16,2.83,2.83,0,0,1-1.28-.28,2.28,2.28,0,0,1-.9-.78,2.06,2.06,0,0,1-.33-1.15,2.26,2.26,0,0,1,.22-1,2,2,0,0,1,.64-.76,3,3,0,0,1,1.08-.47A5.93,5.93,0,0,1,180.1,91Zm5.32-6v10.5h-2V85Zm-44,24.95H140v-1.6h2.53a2.08,2.08,0,0,0,1-.19,1.2,1.2,0,0,0,.54-.55,1.79,1.79,0,0,0,.17-.78A2.05,2.05,0,0,0,144,106a1.35,1.35,0,0,0-.54-.62,1.84,1.84,0,0,0-1-.23h-1.82v8.35h-2.05v-10h3.87a4.45,4.45,0,0,1,2,.43,3.05,3.05,0,0,1,1.28,1.15,3.21,3.21,0,0,1,.45,1.69,3,3,0,0,1-.45,1.67,2.93,2.93,0,0,1-1.28,1.09A4.9,4.9,0,0,1,142.53,110Zm7.11-6.95v10.5h-2V103Zm5.61,8.83v-3.3a1.37,1.37,0,0,0-.11-.6.9.9,0,0,0-.36-.41,1.28,1.28,0,0,0-.63-.14,1.25,1.25,0,0,0-.56.12.78.78,0,0,0-.37.32.84.84,0,0,0-.13.48h-2a1.86,1.86,0,0,1,.22-.89,2.24,2.24,0,0,1,.63-.75,3.09,3.09,0,0,1,1-.51,4.38,4.38,0,0,1,1.3-.19,3.83,3.83,0,0,1,1.53.29,2.37,2.37,0,0,1,1.06.86,2.52,2.52,0,0,1,.39,1.44v3.16a5.5,5.5,0,0,0,.07,1,2.77,2.77,0,0,0,.22.67v.12h-2a3.05,3.05,0,0,1-.22-.75A7.26,7.26,0,0,1,155.25,111.84Zm.26-2.84,0,1.12h-1.1a2.29,2.29,0,0,0-.68.09,1.11,1.11,0,0,0-.47.25.89.89,0,0,0-.27.37,1.14,1.14,0,0,0-.09.46.9.9,0,0,0,.12.46.92.92,0,0,0,.33.32,1.21,1.21,0,0,0,.52.1,1.59,1.59,0,0,0,.77-.17,1.48,1.48,0,0,0,.51-.44,1,1,0,0,0,.19-.49l.52.83a4.6,4.6,0,0,1-.3.58,2.8,2.8,0,0,1-.48.57,2.38,2.38,0,0,1-.69.43,2.49,2.49,0,0,1-.95.16,2.83,2.83,0,0,1-1.28-.28,2.28,2.28,0,0,1-.9-.78,2.06,2.06,0,0,1-.33-1.15,2.26,2.26,0,0,1,.22-1,2,2,0,0,1,.64-.76,2.92,2.92,0,0,1,1.07-.47,6,6,0,0,1,1.49-.17Zm6.87-2.89v1.4h-4.31v-1.4Zm-3.24-1.82h2v7a1.09,1.09,0,0,0,.08.49.47.47,0,0,0,.26.24,1.31,1.31,0,0,0,.43.06h.33l.25,0v1.45l-.55.13a4.36,4.36,0,0,1-.65,0,2.81,2.81,0,0,1-1.13-.21,1.55,1.55,0,0,1-.74-.69,2.57,2.57,0,0,1-.26-1.26Zm6.87,9.22h-2v-8.06a2.78,2.78,0,0,1,.32-1.41,2.22,2.22,0,0,1,.94-.88,3.25,3.25,0,0,1,1.44-.3,4.55,4.55,0,0,1,.53,0l.49.09,0,1.49a1.28,1.28,0,0,0-.27,0h-.34a1.41,1.41,0,0,0-.61.12.79.79,0,0,0-.37.35,1.08,1.08,0,0,0-.13.56Zm1.47-7.4v1.4h-4.56v-1.4Zm.72,3.77v-.14a4.81,4.81,0,0,1,.23-1.5,3.4,3.4,0,0,1,.68-1.19,3.09,3.09,0,0,1,1.09-.79,4,4,0,0,1,3,0,3,3,0,0,1,1.1.79,3.42,3.42,0,0,1,.69,1.19,4.81,4.81,0,0,1,.23,1.5v.14a4.81,4.81,0,0,1-.23,1.5,3.56,3.56,0,0,1-.69,1.2,2.87,2.87,0,0,1-1.09.78,3.67,3.67,0,0,1-1.49.28,3.75,3.75,0,0,1-1.5-.28,3,3,0,0,1-1.1-.78,3.54,3.54,0,0,1-.68-1.2A4.81,4.81,0,0,1,168.2,109.88Zm2-.14v.14a4.77,4.77,0,0,0,.08.87,2.38,2.38,0,0,0,.26.71,1.3,1.3,0,0,0,1.2.65,1.39,1.39,0,0,0,.7-.17,1.27,1.27,0,0,0,.47-.48,2.14,2.14,0,0,0,.26-.71,4,4,0,0,0,.09-.87v-.14a3.89,3.89,0,0,0-.09-.85,2.22,2.22,0,0,0-.26-.71,1.38,1.38,0,0,0-.47-.49,1.51,1.51,0,0,0-1.43,0,1.47,1.47,0,0,0-.47.49,2.49,2.49,0,0,0-.26.71A4.63,4.63,0,0,0,170.17,109.74Zm8.22-2v5.79h-2v-7.4h1.85Zm2.23-1.66,0,1.83-.35,0-.36,0a2.18,2.18,0,0,0-.72.11,1.32,1.32,0,0,0-.51.31,1.39,1.39,0,0,0-.3.5,2.68,2.68,0,0,0-.11.67l-.4-.12A5.44,5.44,0,0,1,178,108a3.5,3.5,0,0,1,.41-1.06,2.1,2.1,0,0,1,.69-.7A1.76,1.76,0,0,1,180,106l.34,0Zm2.89,1.58v5.87h-2v-7.4h1.85Zm-.27,1.91h-.55a5.24,5.24,0,0,1,.19-1.42,3.56,3.56,0,0,1,.55-1.14,2.64,2.64,0,0,1,.91-.75,2.77,2.77,0,0,1,1.25-.27,2.57,2.57,0,0,1,.9.15,1.78,1.78,0,0,1,.71.46,2.12,2.12,0,0,1,.46.81,3.72,3.72,0,0,1,.17,1.18v4.94h-2v-4.72a1.78,1.78,0,0,0-.14-.78.76.76,0,0,0-.39-.38,1.48,1.48,0,0,0-.59-.11,1.3,1.3,0,0,0-.67.16,1.38,1.38,0,0,0-.47.43,2.12,2.12,0,0,0-.27.65A3.29,3.29,0,0,0,183.24,109.55Zm4.4-.23-.7.09a4.77,4.77,0,0,1,.18-1.34,3.32,3.32,0,0,1,.54-1.1,2.51,2.51,0,0,1,.89-.73,2.71,2.71,0,0,1,1.23-.27,2.94,2.94,0,0,1,1,.16,1.72,1.72,0,0,1,.75.49,2.1,2.1,0,0,1,.48.86,4.41,4.41,0,0,1,.17,1.3v4.73h-2v-4.73A1.8,1.8,0,0,0,190,108a.74.74,0,0,0-.39-.37,1.46,1.46,0,0,0-.58-.11,1.39,1.39,0,0,0-.63.14,1.26,1.26,0,0,0-.44.39,1.67,1.67,0,0,0-.27.57A2.58,2.58,0,0,0,187.64,109.32Zm10,2.14a.64.64,0,0,0-.12-.38,1.08,1.08,0,0,0-.46-.31,4.25,4.25,0,0,0-1-.28,8,8,0,0,1-1-.3,4.36,4.36,0,0,1-.83-.46,2.19,2.19,0,0,1-.55-.63,1.79,1.79,0,0,1-.19-.84,2.05,2.05,0,0,1,.19-.88,2.33,2.33,0,0,1,.58-.72,2.77,2.77,0,0,1,.93-.5,4,4,0,0,1,1.25-.19,4.12,4.12,0,0,1,1.65.31,2.49,2.49,0,0,1,1.07.85,2.08,2.08,0,0,1,.38,1.22h-2a1,1,0,0,0-.13-.52.81.81,0,0,0-.37-.36,1.29,1.29,0,0,0-.64-.14,1.26,1.26,0,0,0-.57.12.77.77,0,0,0-.36.3.67.67,0,0,0-.13.41.62.62,0,0,0,.07.31.69.69,0,0,0,.24.24,2.06,2.06,0,0,0,.42.2,5.19,5.19,0,0,0,.66.17,7.53,7.53,0,0,1,1.43.43,2.49,2.49,0,0,1,1,.71,1.82,1.82,0,0,1,.37,1.17,1.93,1.93,0,0,1-.22.9,2.37,2.37,0,0,1-.63.72,3.13,3.13,0,0,1-1,.47,4.5,4.5,0,0,1-1.27.16,3.84,3.84,0,0,1-1.75-.36,2.71,2.71,0,0,1-1.08-.94,2.13,2.13,0,0,1-.37-1.18h1.87a1.14,1.14,0,0,0,.2.65,1.19,1.19,0,0,0,.5.36,2.09,2.09,0,0,0,.67.11,1.65,1.65,0,0,0,.63-.11.81.81,0,0,0,.38-.28A.67.67,0,0,0,197.67,111.46Z"></path><path class="cls-2" d="M77.06,225.63v.47a6.16,6.16,0,0,1-.31,2,4.38,4.38,0,0,1-.86,1.53,3.78,3.78,0,0,1-1.34,1,4.65,4.65,0,0,1-3.44,0,3.87,3.87,0,0,1-1.34-1,4.58,4.58,0,0,1-.88-1.53,6.43,6.43,0,0,1-.31-2v-.47a6.43,6.43,0,0,1,.31-2,4.72,4.72,0,0,1,.87-1.54,4,4,0,0,1,1.34-1,4.36,4.36,0,0,1,1.72-.33,4.27,4.27,0,0,1,1.71.33,3.82,3.82,0,0,1,1.34,1,4.56,4.56,0,0,1,.88,1.54A6.16,6.16,0,0,1,77.06,225.63ZM75,226.1v-.49a6.4,6.4,0,0,0-.14-1.39,3,3,0,0,0-.43-1,1.75,1.75,0,0,0-.68-.62,2.14,2.14,0,0,0-1.85,0,1.8,1.8,0,0,0-.67.62,3,3,0,0,0-.42,1,5.83,5.83,0,0,0-.14,1.39v.49a5.83,5.83,0,0,0,.14,1.39,3.3,3.3,0,0,0,.42,1,2,2,0,0,0,2.53.62,1.75,1.75,0,0,0,.68-.62,3.3,3.3,0,0,0,.42-1A6.4,6.4,0,0,0,75,226.1Zm5.39-1.24v8.82h-2V223.44h1.83Zm4.69,2.2v.14a5.5,5.5,0,0,1-.2,1.5,3.66,3.66,0,0,1-.54,1.2,2.53,2.53,0,0,1-.9.79,2.59,2.59,0,0,1-1.23.28A2.42,2.42,0,0,1,81,230.7a2.46,2.46,0,0,1-.84-.77,4.53,4.53,0,0,1-.54-1.15,9.71,9.71,0,0,1-.32-1.41V227a9.84,9.84,0,0,1,.32-1.48,4.52,4.52,0,0,1,.54-1.17,2.3,2.3,0,0,1,2-1,2.73,2.73,0,0,1,1.24.27,2.38,2.38,0,0,1,.9.77,3.35,3.35,0,0,1,.55,1.19A5.61,5.61,0,0,1,85.07,227.06Zm-2,.14v-.14a4.6,4.6,0,0,0-.08-.87,2.21,2.21,0,0,0-.25-.71,1.15,1.15,0,0,0-.44-.46,1.17,1.17,0,0,0-.64-.17A1.6,1.6,0,0,0,81,225a1.2,1.2,0,0,0-.46.37,1.78,1.78,0,0,0-.27.59,3.57,3.57,0,0,0-.11.78v.95a3.05,3.05,0,0,0,.19.9,1.35,1.35,0,0,0,.49.63,1.41,1.41,0,0,0,.86.24,1.16,1.16,0,0,0,.66-.18,1.34,1.34,0,0,0,.43-.48,2.47,2.47,0,0,0,.24-.71A4.79,4.79,0,0,0,83.09,227.2Zm6.6,3.77a4.15,4.15,0,0,1-1.54-.27,3.36,3.36,0,0,1-1.16-.77,3.42,3.42,0,0,1-.73-1.14,3.86,3.86,0,0,1-.25-1.4v-.27a4.74,4.74,0,0,1,.24-1.54,3.76,3.76,0,0,1,.68-1.21,3.13,3.13,0,0,1,1.1-.79,3.68,3.68,0,0,1,1.45-.28,3.59,3.59,0,0,1,1.39.26,2.83,2.83,0,0,1,1,.74,3.13,3.13,0,0,1,.63,1.15,4.85,4.85,0,0,1,.21,1.48v.82H86.85v-1.32h3.94v-.15a1.73,1.73,0,0,0-.15-.73,1.15,1.15,0,0,0-.43-.52,1.45,1.45,0,0,0-.76-.19,1.33,1.33,0,0,0-.67.17,1.48,1.48,0,0,0-.45.48,2.51,2.51,0,0,0-.26.73,4.19,4.19,0,0,0-.08.9v.27a2.66,2.66,0,0,0,.12.82,2,2,0,0,0,.36.65,1.72,1.72,0,0,0,.57.43,1.94,1.94,0,0,0,.78.15,2.38,2.38,0,0,0,1-.21,2.12,2.12,0,0,0,.8-.64l1,1a3,3,0,0,1-.64.65,3.34,3.34,0,0,1-1,.5A3.87,3.87,0,0,1,89.69,231ZM95.78,225v5.82h-2v-7.4h1.84Zm-.29,1.86H95a4.85,4.85,0,0,1,.21-1.48,3.46,3.46,0,0,1,.59-1.13,2.59,2.59,0,0,1,.91-.71,2.76,2.76,0,0,1,1.19-.26,2.83,2.83,0,0,1,1,.15,1.76,1.76,0,0,1,.74.48,2.14,2.14,0,0,1,.48.87,4.55,4.55,0,0,1,.17,1.32v4.72h-2v-4.73a1.75,1.75,0,0,0-.14-.76.74.74,0,0,0-.4-.38,1.52,1.52,0,0,0-.64-.12,1.35,1.35,0,0,0-.69.16,1.25,1.25,0,0,0-.48.43,1.91,1.91,0,0,0-.28.65A2.85,2.85,0,0,0,95.49,226.88Zm-27.31,22H66l0-1.6h2.15a2.44,2.44,0,0,0,1.36-.36,2.3,2.3,0,0,0,.84-1.08,4.52,4.52,0,0,0,.28-1.7v-.49a4.92,4.92,0,0,0-.16-1.34,2.71,2.71,0,0,0-.47-1,2,2,0,0,0-.78-.59,2.46,2.46,0,0,0-1-.21H66v-1.61H68.2a4.7,4.7,0,0,1,1.83.35,4.14,4.14,0,0,1,1.44,1,4.29,4.29,0,0,1,.94,1.5,5.45,5.45,0,0,1,.33,1.94v.47a5.39,5.39,0,0,1-.33,1.93A4.15,4.15,0,0,1,70,248.5,4.8,4.8,0,0,1,68.18,248.84Zm-1-10v10H65.13v-10Zm9,2.56v7.4h-2v-7.4Zm-2.1-1.93a.94.94,0,0,1,.3-.71,1.17,1.17,0,0,1,.81-.28,1.14,1.14,0,0,1,.79.28.92.92,0,0,1,.31.71.89.89,0,0,1-.31.71,1.09,1.09,0,0,1-.79.28,1.13,1.13,0,0,1-.81-.28A.91.91,0,0,1,74.09,239.51Zm8.41,1.93h1.78v7.15a3.12,3.12,0,0,1-.45,1.72,2.79,2.79,0,0,1-1.25,1.07,4.3,4.3,0,0,1-1.85.37,4.45,4.45,0,0,1-1-.12,3.93,3.93,0,0,1-1-.39,2.61,2.61,0,0,1-.78-.65l.87-1.17a2.36,2.36,0,0,0,.79.62,2.2,2.2,0,0,0,1,.23,1.93,1.93,0,0,0,.9-.2,1.42,1.42,0,0,0,.57-.57,1.9,1.9,0,0,0,.19-.9v-5.45Zm-5,3.79v-.15a5.61,5.61,0,0,1,.2-1.53,3.75,3.75,0,0,1,.6-1.2,2.68,2.68,0,0,1,.94-.77,2.83,2.83,0,0,1,1.25-.28,2.56,2.56,0,0,1,1.24.28,2.19,2.19,0,0,1,.82.78,3.85,3.85,0,0,1,.5,1.18,11.42,11.42,0,0,1,.29,1.48v.32a8.58,8.58,0,0,1-.31,1.43,4.6,4.6,0,0,1-.54,1.16,2.35,2.35,0,0,1-.83.77,2.42,2.42,0,0,1-1.18.27,2.66,2.66,0,0,1-1.24-.28,2.77,2.77,0,0,1-.93-.78,4.05,4.05,0,0,1-.61-1.19A5.42,5.42,0,0,1,77.52,245.23Zm2-.15v.15a3.82,3.82,0,0,0,.09.85,2.5,2.5,0,0,0,.27.71,1.62,1.62,0,0,0,.47.47,1.34,1.34,0,0,0,.68.16,1.57,1.57,0,0,0,.88-.22,1.4,1.4,0,0,0,.51-.64,2.65,2.65,0,0,0,.2-.93v-.89a3.57,3.57,0,0,0-.11-.78,1.91,1.91,0,0,0-.29-.59,1.13,1.13,0,0,0-.48-.38,1.54,1.54,0,0,0-.7-.14,1.22,1.22,0,0,0-.67.18,1.43,1.43,0,0,0-.48.47,2.7,2.7,0,0,0-.28.71A4,4,0,0,0,79.49,245.08Zm8.4-3.64v7.4h-2v-7.4Zm-2.1-1.93a.94.94,0,0,1,.3-.71,1.3,1.3,0,0,1,1.61,0,1,1,0,0,1,.31.71.92.92,0,0,1-.31.71,1.3,1.3,0,0,1-1.61,0A.91.91,0,0,1,85.79,239.51Zm7.35,1.93v1.4H88.83v-1.4Zm-3.24-1.82h2v7a1.24,1.24,0,0,0,.08.49.55.55,0,0,0,.26.24,1.31,1.31,0,0,0,.43.06H93l.25,0v1.45l-.55.13a4.28,4.28,0,0,1-.65,0,2.81,2.81,0,0,1-1.13-.21,1.52,1.52,0,0,1-.74-.7,2.61,2.61,0,0,1-.26-1.25Zm8.35,7.55v-3.3a1.53,1.53,0,0,0-.11-.6.87.87,0,0,0-.37-.41,1.24,1.24,0,0,0-.62-.14,1.26,1.26,0,0,0-.57.12.8.8,0,0,0-.36.32.82.82,0,0,0-.13.48h-2a1.86,1.86,0,0,1,.22-.89A2.13,2.13,0,0,1,95,242a3.09,3.09,0,0,1,1-.51,4.38,4.38,0,0,1,1.3-.19,3.83,3.83,0,0,1,1.53.29,2.37,2.37,0,0,1,1.06.86,2.52,2.52,0,0,1,.39,1.44v3.16a5.5,5.5,0,0,0,.07,1,2.4,2.4,0,0,0,.22.67v.12h-2a2.67,2.67,0,0,1-.22-.75A7.26,7.26,0,0,1,98.25,247.17Zm.26-2.84,0,1.12h-1.1a2.29,2.29,0,0,0-.68.09,1.11,1.11,0,0,0-.47.25.91.91,0,0,0-.28.37,1.34,1.34,0,0,0-.08.46.9.9,0,0,0,.12.46.82.82,0,0,0,.33.31,1.08,1.08,0,0,0,.52.11,1.71,1.71,0,0,0,.77-.17,1.36,1.36,0,0,0,.5-.44.91.91,0,0,0,.2-.49l.51.83a2.92,2.92,0,0,1-.3.58,2.74,2.74,0,0,1-.47.57,2.38,2.38,0,0,1-.69.43,2.54,2.54,0,0,1-1,.16,2.82,2.82,0,0,1-1.27-.28,2.39,2.39,0,0,1-.91-.78,2.14,2.14,0,0,1-.32-1.15,2.4,2.4,0,0,1,.21-1,2,2,0,0,1,.65-.76,2.85,2.85,0,0,1,1.07-.47,6,6,0,0,1,1.49-.17Zm5.32-6v10.5h-2v-10.5ZM54,265.24v1.6h-5.3v-1.6Zm-4.63-8.36v10h-2v-10Zm3.94,4.06v1.56H48.73v-1.56Zm.68-4.06v1.61H48.73v-1.61Zm4,8.56a1.51,1.51,0,0,0,.65-.14,1.11,1.11,0,0,0,.43-.4,1.09,1.09,0,0,0,.17-.61h1.86a2.53,2.53,0,0,1-.42,1.39,2.83,2.83,0,0,1-1.1.95,3.43,3.43,0,0,1-1.55.34,3.68,3.68,0,0,1-1.5-.28,2.92,2.92,0,0,1-1.06-.8,3.39,3.39,0,0,1-.63-1.19,4.6,4.6,0,0,1-.22-1.46V263a4.6,4.6,0,0,1,.22-1.46,3.39,3.39,0,0,1,.63-1.19,2.92,2.92,0,0,1,1.06-.8,3.6,3.6,0,0,1,1.49-.29,3.45,3.45,0,0,1,1.59.35,2.61,2.61,0,0,1,1.08,1,2.9,2.9,0,0,1,.41,1.52H59.27a1.45,1.45,0,0,0-.15-.66,1.2,1.2,0,0,0-1.1-.67,1.17,1.17,0,0,0-1.13.68,2.39,2.39,0,0,0-.21.7,5.46,5.46,0,0,0-.06.82v.2a5.59,5.59,0,0,0,.06.83,2.12,2.12,0,0,0,.2.7,1.29,1.29,0,0,0,.43.49A1.27,1.27,0,0,0,58,265.44ZM62,263.21v-.14a4.54,4.54,0,0,1,.24-1.5,3.38,3.38,0,0,1,.67-1.19,3,3,0,0,1,1.1-.79,4,4,0,0,1,3,0,3,3,0,0,1,1.1.79,3.27,3.27,0,0,1,.69,1.19,4.81,4.81,0,0,1,.23,1.5v.14a4.81,4.81,0,0,1-.23,1.5,3.4,3.4,0,0,1-.69,1.2,3,3,0,0,1-1.09.78,3.67,3.67,0,0,1-1.49.28,3.75,3.75,0,0,1-1.5-.28,3.1,3.1,0,0,1-1.1-.78,3.52,3.52,0,0,1-.67-1.2A4.54,4.54,0,0,1,62,263.21Zm2-.14v.14a4.77,4.77,0,0,0,.08.87,2.69,2.69,0,0,0,.26.71,1.43,1.43,0,0,0,.48.47,1.37,1.37,0,0,0,.72.18,1.3,1.3,0,0,0,.7-.18,1.27,1.27,0,0,0,.48-.47,2.69,2.69,0,0,0,.26-.71,4,4,0,0,0,.09-.87v-.14a3.89,3.89,0,0,0-.09-.85,2.5,2.5,0,0,0-.27-.71,1.38,1.38,0,0,0-.47-.49,1.34,1.34,0,0,0-.71-.18,1.31,1.31,0,0,0-.71.18,1.41,1.41,0,0,0-.48.49,2.83,2.83,0,0,0-.26.71A4.63,4.63,0,0,0,63.92,263.07Zm10.25,1.72a.64.64,0,0,0-.12-.38,1.15,1.15,0,0,0-.46-.31,4.42,4.42,0,0,0-1-.28,6.44,6.44,0,0,1-1-.31,3.63,3.63,0,0,1-.83-.45,2.05,2.05,0,0,1-.55-.63,1.8,1.8,0,0,1-.2-.84,2.06,2.06,0,0,1,.2-.88,2.33,2.33,0,0,1,.58-.72,2.77,2.77,0,0,1,.93-.5A4,4,0,0,1,73,259.3a4.12,4.12,0,0,1,1.65.31,2.49,2.49,0,0,1,1.07.85,2,2,0,0,1,.37,1.22h-2a1.08,1.08,0,0,0-.12-.52.86.86,0,0,0-.37-.36,1.32,1.32,0,0,0-.64-.14,1.26,1.26,0,0,0-.57.12.85.85,0,0,0-.37.3.73.73,0,0,0-.12.41.62.62,0,0,0,.07.31.69.69,0,0,0,.24.24,2.06,2.06,0,0,0,.42.2,5.19,5.19,0,0,0,.66.17,7.53,7.53,0,0,1,1.43.43,2.38,2.38,0,0,1,1,.71,1.75,1.75,0,0,1,.37,1.17,1.93,1.93,0,0,1-.21.9,2.37,2.37,0,0,1-.63.72,3.24,3.24,0,0,1-1,.47A4.57,4.57,0,0,1,73,267a3.77,3.77,0,0,1-1.75-.37,2.75,2.75,0,0,1-1.08-.93,2.2,2.2,0,0,1-.36-1.18h1.87a1.07,1.07,0,0,0,.2.65,1.13,1.13,0,0,0,.5.36,2.08,2.08,0,0,0,.66.11,1.67,1.67,0,0,0,.64-.11.81.81,0,0,0,.38-.28A.74.74,0,0,0,74.17,264.79ZM79.56,266l2-6.56h2.11l-3,8.51a5,5,0,0,1-.26.6,2.51,2.51,0,0,1-.43.61,2,2,0,0,1-.68.48,2.43,2.43,0,0,1-1,.18,2.86,2.86,0,0,1-.46,0,3.1,3.1,0,0,1-.42-.1v-1.44h.31a1.93,1.93,0,0,0,.64-.09.91.91,0,0,0,.39-.27,1.38,1.38,0,0,0,.24-.47Zm-.82-6.56,1.6,5.36.28,2.08-1.34.15-2.66-7.59Zm9.68,5.35a.65.65,0,0,0-.13-.38,1,1,0,0,0-.46-.31,4.09,4.09,0,0,0-1-.28,6.32,6.32,0,0,1-1-.31,3.71,3.71,0,0,1-.84-.45,2,2,0,0,1-.54-.63,1.8,1.8,0,0,1-.2-.84,2.06,2.06,0,0,1,.2-.88A2.2,2.2,0,0,1,85,260a2.59,2.59,0,0,1,.93-.5,4,4,0,0,1,1.24-.19,4.13,4.13,0,0,1,1.66.31,2.46,2.46,0,0,1,1.06.85,2.06,2.06,0,0,1,.38,1.22h-2a1.08,1.08,0,0,0-.12-.52.86.86,0,0,0-.37-.36,1.35,1.35,0,0,0-.64-.14,1.26,1.26,0,0,0-.57.12.85.85,0,0,0-.37.3.73.73,0,0,0-.12.41.75.75,0,0,0,.06.31.69.69,0,0,0,.24.24,1.93,1.93,0,0,0,.43.2,5,5,0,0,0,.65.17,7.32,7.32,0,0,1,1.43.43,2.49,2.49,0,0,1,1,.71,1.75,1.75,0,0,1,.37,1.17,1.82,1.82,0,0,1-.22.9,2.13,2.13,0,0,1-.63.72,3.08,3.08,0,0,1-1,.47,4.62,4.62,0,0,1-1.28.16,3.74,3.74,0,0,1-1.75-.37,2.75,2.75,0,0,1-1.08-.93,2.2,2.2,0,0,1-.36-1.18h1.86a1.07,1.07,0,0,0,.21.65,1.13,1.13,0,0,0,.5.36,2,2,0,0,0,.66.11,1.67,1.67,0,0,0,.64-.11.92.92,0,0,0,.38-.28A.74.74,0,0,0,88.42,264.79Zm6.81-5.35v1.4H90.92v-1.4ZM92,257.62h2v7a1.24,1.24,0,0,0,.08.49.55.55,0,0,0,.26.24,1.35,1.35,0,0,0,.43.06h.33l.25,0v1.45l-.55.13a4.28,4.28,0,0,1-.65,0,2.81,2.81,0,0,1-1.13-.21,1.52,1.52,0,0,1-.74-.7,2.61,2.61,0,0,1-.26-1.25ZM99.76,267a4.2,4.2,0,0,1-1.55-.27,3.46,3.46,0,0,1-1.16-.77,3.59,3.59,0,0,1-.73-1.14,4.08,4.08,0,0,1-.25-1.4v-.27a4.74,4.74,0,0,1,.24-1.54,3.76,3.76,0,0,1,.68-1.21,3.22,3.22,0,0,1,1.1-.79,3.71,3.71,0,0,1,1.45-.28,3.55,3.55,0,0,1,1.39.26,2.74,2.74,0,0,1,1,.74,3.13,3.13,0,0,1,.63,1.15,4.85,4.85,0,0,1,.21,1.48v.82H96.91v-1.32h4v-.15a1.73,1.73,0,0,0-.15-.73,1.18,1.18,0,0,0-.44-.52,1.44,1.44,0,0,0-.75-.19,1.28,1.28,0,0,0-.67.17,1.41,1.41,0,0,0-.46.48,2.84,2.84,0,0,0-.26.73,4.19,4.19,0,0,0-.08.9v.27a2.66,2.66,0,0,0,.12.82,2.14,2.14,0,0,0,.36.65,1.66,1.66,0,0,0,.58.43,1.89,1.89,0,0,0,.77.15,2.31,2.31,0,0,0,1-.21,2.05,2.05,0,0,0,.8-.64l1,1a3,3,0,0,1-.64.65,3.34,3.34,0,0,1-1,.5A3.81,3.81,0,0,1,99.76,267Zm6.12-6v5.87h-2v-7.4h1.85Zm-.27,1.91h-.55a4.88,4.88,0,0,1,.19-1.42,3.36,3.36,0,0,1,.55-1.14,2.64,2.64,0,0,1,.91-.75,2.77,2.77,0,0,1,1.25-.27,2.57,2.57,0,0,1,.9.15,1.78,1.78,0,0,1,.71.46,2.12,2.12,0,0,1,.46.81,3.72,3.72,0,0,1,.17,1.18v4.94h-2v-4.72a1.78,1.78,0,0,0-.14-.78.76.76,0,0,0-.39-.38,1.48,1.48,0,0,0-.59-.11,1.32,1.32,0,0,0-1.14.59,2.12,2.12,0,0,0-.27.65A3.29,3.29,0,0,0,105.61,262.88Zm4.4-.23-.7.09a5.17,5.17,0,0,1,.17-1.34,3.76,3.76,0,0,1,.54-1.1,2.55,2.55,0,0,1,.9-.73,2.71,2.71,0,0,1,1.23-.27,2.94,2.94,0,0,1,1,.16,1.78,1.78,0,0,1,.75.49,2,2,0,0,1,.47.86,4.08,4.08,0,0,1,.18,1.3v4.73h-2v-4.73a1.78,1.78,0,0,0-.14-.78A.69.69,0,0,0,112,261a1.48,1.48,0,0,0-.59-.11,1.38,1.38,0,0,0-.62.14,1.1,1.1,0,0,0-.44.39,1.67,1.67,0,0,0-.27.57A2.58,2.58,0,0,0,110,262.65Zm10,2.14a.64.64,0,0,0-.12-.38,1.15,1.15,0,0,0-.46-.31,4.42,4.42,0,0,0-.95-.28,6.44,6.44,0,0,1-1.05-.31,3.43,3.43,0,0,1-.83-.45,2.05,2.05,0,0,1-.55-.63,1.8,1.8,0,0,1-.2-.84,2.06,2.06,0,0,1,.2-.88,2.33,2.33,0,0,1,.58-.72,2.77,2.77,0,0,1,.93-.5,4,4,0,0,1,1.25-.19,4.12,4.12,0,0,1,1.65.31,2.55,2.55,0,0,1,1.07.85,2,2,0,0,1,.37,1.22h-2a1.08,1.08,0,0,0-.12-.52.86.86,0,0,0-.37-.36,1.32,1.32,0,0,0-.64-.14,1.26,1.26,0,0,0-.57.12.85.85,0,0,0-.37.3.73.73,0,0,0-.12.41.62.62,0,0,0,.07.31.69.69,0,0,0,.24.24,2.06,2.06,0,0,0,.42.2,5.19,5.19,0,0,0,.66.17,7.53,7.53,0,0,1,1.43.43,2.45,2.45,0,0,1,1,.71,1.75,1.75,0,0,1,.37,1.17,1.82,1.82,0,0,1-.22.9,2.21,2.21,0,0,1-.62.72,3.24,3.24,0,0,1-1,.47,4.57,4.57,0,0,1-1.28.16,3.74,3.74,0,0,1-1.75-.37,2.75,2.75,0,0,1-1.08-.93,2.2,2.2,0,0,1-.36-1.18h1.87a1.07,1.07,0,0,0,.2.65,1.13,1.13,0,0,0,.5.36,2.08,2.08,0,0,0,.66.11,1.67,1.67,0,0,0,.64-.11.81.81,0,0,0,.38-.28A.74.74,0,0,0,120,264.79Z"></path><path class="cls-2" d="M235,235.91v1.6h-5.3v-1.6Zm-4.63-8.36v10h-2.05v-10Zm3.94,4.06v1.56H229.7v-1.56Zm.68-4.06v1.61H229.7v-1.61Zm3,4.14v5.82h-2v-7.4h1.85Zm-.29,1.86h-.53a4.85,4.85,0,0,1,.21-1.48A3.16,3.16,0,0,1,238,231a2.35,2.35,0,0,1,.91-.72,2.69,2.69,0,0,1,1.18-.26,2.83,2.83,0,0,1,.95.15,1.76,1.76,0,0,1,.74.48,2.14,2.14,0,0,1,.48.87,4.23,4.23,0,0,1,.17,1.32v4.72h-2v-4.73a1.75,1.75,0,0,0-.14-.76.74.74,0,0,0-.4-.38,1.52,1.52,0,0,0-.64-.12,1.35,1.35,0,0,0-.69.16,1.41,1.41,0,0,0-.48.43,2.13,2.13,0,0,0-.28.65A2.85,2.85,0,0,0,237.71,233.55Zm10.2,2.29v-3.3a1.53,1.53,0,0,0-.11-.6.87.87,0,0,0-.37-.41,1.24,1.24,0,0,0-.62-.14,1.26,1.26,0,0,0-.57.12.83.83,0,0,0-.37.32.93.93,0,0,0-.13.48h-2a2,2,0,0,1,.21-.89,2.27,2.27,0,0,1,.64-.75,3.09,3.09,0,0,1,1-.51,4.38,4.38,0,0,1,1.3-.19,3.87,3.87,0,0,1,1.53.29,2.29,2.29,0,0,1,1.05.86,2.52,2.52,0,0,1,.39,1.44v3.16a5.38,5.38,0,0,0,.08,1,2.4,2.4,0,0,0,.22.67v.12h-2a2.67,2.67,0,0,1-.22-.75A5.79,5.79,0,0,1,247.91,235.84Zm.26-2.84,0,1.12h-1.11a2.22,2.22,0,0,0-.67.09,1.11,1.11,0,0,0-.47.25.91.91,0,0,0-.28.37,1.34,1.34,0,0,0-.08.46.9.9,0,0,0,.12.46.85.85,0,0,0,.33.32,1.19,1.19,0,0,0,.51.1,1.6,1.6,0,0,0,.78-.17,1.44,1.44,0,0,0,.5-.44.82.82,0,0,0,.19-.49l.52.83a2.92,2.92,0,0,1-.3.58,2.74,2.74,0,0,1-.47.57,2.38,2.38,0,0,1-.69.43,2.54,2.54,0,0,1-1,.16,2.79,2.79,0,0,1-1.27-.28,2.39,2.39,0,0,1-.91-.78,2.06,2.06,0,0,1-.32-1.15,2.4,2.4,0,0,1,.21-1,2,2,0,0,1,.65-.76,2.85,2.85,0,0,1,1.07-.47A6,6,0,0,1,247,233Zm3.24-6h2v8.8l-.2,1.7h-1.77Zm6.65,6.72v.15a6.61,6.61,0,0,1-.17,1.52,3.61,3.61,0,0,1-.54,1.19,2.6,2.6,0,0,1-.9.78,2.75,2.75,0,0,1-1.26.27,2.41,2.41,0,0,1-1.17-.27,2.35,2.35,0,0,1-.83-.77,4.52,4.52,0,0,1-.54-1.17,8.73,8.73,0,0,1-.31-1.46v-.32a8.73,8.73,0,0,1,.31-1.46,4.52,4.52,0,0,1,.54-1.17,2.3,2.3,0,0,1,2-1.05,2.8,2.8,0,0,1,1.27.28,2.51,2.51,0,0,1,.9.78,3.61,3.61,0,0,1,.54,1.19A6.46,6.46,0,0,1,258.06,233.73Zm-2,.15v-.15a5.53,5.53,0,0,0-.06-.84,2.37,2.37,0,0,0-.22-.71,1.33,1.33,0,0,0-.43-.48,1.22,1.22,0,0,0-.69-.18,1.47,1.47,0,0,0-.69.14,1.21,1.21,0,0,0-.46.38,1.69,1.69,0,0,0-.27.59,4,4,0,0,0-.11.73v.9a3.09,3.09,0,0,0,.18,1,1.46,1.46,0,0,0,.49.65,1.54,1.54,0,0,0,.87.23,1.41,1.41,0,0,0,.69-.16,1.13,1.13,0,0,0,.42-.47,2.06,2.06,0,0,0,.22-.7A6.23,6.23,0,0,0,256.09,233.88Zm5.27-6.87v10.5h-2V227Zm3.71,3.1v7.4h-2v-7.4Zm-2.1-1.93a.94.94,0,0,1,.3-.71,1.3,1.3,0,0,1,1.61,0,1,1,0,0,1,.31.71.92.92,0,0,1-.31.71,1.3,1.3,0,0,1-1.61,0A.91.91,0,0,1,263,228.18Zm5.65,3.51v5.82h-2v-7.4h1.84Zm-.28,1.86h-.54a4.85,4.85,0,0,1,.22-1.48,3.31,3.31,0,0,1,.59-1.12,2.51,2.51,0,0,1,.91-.72,2.73,2.73,0,0,1,1.19-.26,2.87,2.87,0,0,1,1,.15,1.83,1.83,0,0,1,.74.48,2.14,2.14,0,0,1,.48.87,4.55,4.55,0,0,1,.17,1.32v4.72h-2v-4.73a1.75,1.75,0,0,0-.14-.76.78.78,0,0,0-.4-.38,1.57,1.57,0,0,0-.65-.12,1.36,1.36,0,0,0-1.17.59,2.41,2.41,0,0,0-.28.65A3.29,3.29,0,0,0,268.34,233.55Zm10.89-3.44H281v7.15a3.12,3.12,0,0,1-.45,1.72,2.82,2.82,0,0,1-1.24,1.07,4.38,4.38,0,0,1-1.86.37,4.45,4.45,0,0,1-1-.12,3.93,3.93,0,0,1-1-.39,2.61,2.61,0,0,1-.78-.65l.87-1.16a2.47,2.47,0,0,0,.79.61,2.2,2.2,0,0,0,1,.23,1.93,1.93,0,0,0,.9-.2,1.31,1.31,0,0,0,.57-.57,1.89,1.89,0,0,0,.2-.89v-5.46Zm-5,3.79v-.15a5.24,5.24,0,0,1,.21-1.53,3.74,3.74,0,0,1,.59-1.2,2.68,2.68,0,0,1,.94-.77,2.83,2.83,0,0,1,1.25-.28,2.56,2.56,0,0,1,1.24.28,2.19,2.19,0,0,1,.82.78,3.85,3.85,0,0,1,.5,1.18,11.76,11.76,0,0,1,.29,1.48V234a8.58,8.58,0,0,1-.31,1.43,4.68,4.68,0,0,1-.54,1.17,2.29,2.29,0,0,1-2,1,2.69,2.69,0,0,1-1.24-.28,2.66,2.66,0,0,1-.93-.78,3.81,3.81,0,0,1-.6-1.19A5.06,5.06,0,0,1,274.25,233.9Zm2-.15v.15a3.82,3.82,0,0,0,.09.85,2.5,2.5,0,0,0,.27.71,1.62,1.62,0,0,0,.47.47,1.34,1.34,0,0,0,.68.16,1.57,1.57,0,0,0,.88-.22,1.4,1.4,0,0,0,.51-.64,2.65,2.65,0,0,0,.2-.93v-.89a3.06,3.06,0,0,0-.11-.78,1.91,1.91,0,0,0-.29-.59,1.13,1.13,0,0,0-.48-.38,1.51,1.51,0,0,0-.7-.14,1.22,1.22,0,0,0-.67.18,1.32,1.32,0,0,0-.47.47,2.15,2.15,0,0,0-.28.71A3.46,3.46,0,0,0,276.22,233.75ZM236.11,252h-2.53v-1.6h2.53a2.08,2.08,0,0,0,1-.19,1.2,1.2,0,0,0,.54-.55,1.79,1.79,0,0,0,.17-.78,2.05,2.05,0,0,0-.17-.83,1.35,1.35,0,0,0-.54-.62,1.84,1.84,0,0,0-1-.23h-1.82v8.35h-2v-10h3.87a4.45,4.45,0,0,1,2,.43,3.05,3.05,0,0,1,1.28,1.15,3.21,3.21,0,0,1,.45,1.69,3,3,0,0,1-.45,1.67,2.93,2.93,0,0,1-1.28,1.09A4.9,4.9,0,0,1,236.11,252Zm4.62-.08v-.14a4.54,4.54,0,0,1,.23-1.5,3.25,3.25,0,0,1,.68-1.19,3,3,0,0,1,1.09-.79,3.67,3.67,0,0,1,1.49-.29,3.75,3.75,0,0,1,1.5.29,3.13,3.13,0,0,1,1.1.79,3.25,3.25,0,0,1,.68,1.19,4.54,4.54,0,0,1,.23,1.5v.14a4.54,4.54,0,0,1-.23,1.5,3.38,3.38,0,0,1-.68,1.2,2.91,2.91,0,0,1-1.1.78,4.1,4.1,0,0,1-3,0,2.91,2.91,0,0,1-1.1-.78,3.38,3.38,0,0,1-.68-1.2A4.54,4.54,0,0,1,240.73,251.88Zm2-.14v.14a4,4,0,0,0,.08.87,2.14,2.14,0,0,0,.26.71,1.38,1.38,0,0,0,.48.48,1.41,1.41,0,0,0,.71.17,1.27,1.27,0,0,0,1.18-.65,2.38,2.38,0,0,0,.26-.71,4,4,0,0,0,.09-.87v-.14a3.89,3.89,0,0,0-.09-.85,2.23,2.23,0,0,0-.27-.71,1.28,1.28,0,0,0-1.18-.67,1.34,1.34,0,0,0-.71.18,1.38,1.38,0,0,0-.47.49,2.22,2.22,0,0,0-.26.71A3.89,3.89,0,0,0,242.7,251.74ZM251,245v10.5h-2V245Zm3.71,3.1v7.4h-2v-7.4Zm-2.1-1.93a.94.94,0,0,1,.3-.71,1.3,1.3,0,0,1,1.61,0,.94.94,0,0,1,.3.71.91.91,0,0,1-.3.71,1.3,1.3,0,0,1-1.61,0A.91.91,0,0,1,252.63,246.18Zm6.78,7.93a1.44,1.44,0,0,0,.64-.14,1.07,1.07,0,0,0,.44-.4,1.09,1.09,0,0,0,.17-.61h1.85a2.44,2.44,0,0,1-.41,1.39,2.9,2.9,0,0,1-1.1,1,3.43,3.43,0,0,1-1.55.34,3.68,3.68,0,0,1-1.5-.28,2.84,2.84,0,0,1-1.06-.8,3.26,3.26,0,0,1-.64-1.19,4.91,4.91,0,0,1-.21-1.46v-.2a4.91,4.91,0,0,1,.21-1.46,3.26,3.26,0,0,1,.64-1.19,2.84,2.84,0,0,1,1.06-.8,3.6,3.6,0,0,1,1.49-.29,3.51,3.51,0,0,1,1.59.35,2.67,2.67,0,0,1,1.08,1,2.9,2.9,0,0,1,.4,1.53h-1.85a1.47,1.47,0,0,0-.16-.67,1,1,0,0,0-.42-.48,1.14,1.14,0,0,0-.68-.19,1.17,1.17,0,0,0-1.12.68,2.13,2.13,0,0,0-.22.7,7.22,7.22,0,0,0-.05.82v.2a7.4,7.4,0,0,0,.05.83,2.39,2.39,0,0,0,.21.7,1.21,1.21,0,0,0,.43.49A1.27,1.27,0,0,0,259.41,254.11Zm6.32-6v7.4h-2v-7.4Zm-2.1-1.93a.92.92,0,0,1,.31-.71,1.14,1.14,0,0,1,.8-.28,1.16,1.16,0,0,1,.8.28.92.92,0,0,1,.31.71.89.89,0,0,1-.31.71,1.12,1.12,0,0,1-.8.28,1.1,1.1,0,0,1-.8-.28A.89.89,0,0,1,263.63,246.18Zm7.13,9.46a4.18,4.18,0,0,1-1.54-.27,3.36,3.36,0,0,1-1.16-.77,3.42,3.42,0,0,1-.73-1.14,3.86,3.86,0,0,1-.25-1.4v-.27a4.74,4.74,0,0,1,.24-1.54A3.76,3.76,0,0,1,268,249a3.13,3.13,0,0,1,1.1-.79,3.68,3.68,0,0,1,1.45-.28,3.59,3.59,0,0,1,1.39.26,2.74,2.74,0,0,1,1,.74,3.13,3.13,0,0,1,.63,1.15,4.9,4.9,0,0,1,.21,1.48v.82h-5.88v-1.31h3.94V251a1.73,1.73,0,0,0-.15-.73,1.15,1.15,0,0,0-.43-.52,1.44,1.44,0,0,0-.75-.19,1.28,1.28,0,0,0-.67.17,1.41,1.41,0,0,0-.46.48,2.51,2.51,0,0,0-.26.73,4.19,4.19,0,0,0-.08.9v.27a2.66,2.66,0,0,0,.12.82,2.14,2.14,0,0,0,.36.65,1.72,1.72,0,0,0,.57.43,1.94,1.94,0,0,0,.78.15,2.38,2.38,0,0,0,1-.21,2.12,2.12,0,0,0,.8-.63l1,1a3,3,0,0,1-.64.65,3.34,3.34,0,0,1-1,.5A3.87,3.87,0,0,1,270.76,255.64Zm8.16-2.18a.64.64,0,0,0-.12-.38,1.15,1.15,0,0,0-.46-.31,4.42,4.42,0,0,0-.95-.28,7.62,7.62,0,0,1-1.05-.3,4.08,4.08,0,0,1-.83-.46,2.05,2.05,0,0,1-.55-.63,1.8,1.8,0,0,1-.2-.84,2.06,2.06,0,0,1,.2-.88,2.33,2.33,0,0,1,.58-.72,2.77,2.77,0,0,1,.93-.5,4,4,0,0,1,1.25-.19,4.12,4.12,0,0,1,1.65.31,2.49,2.49,0,0,1,1.07.85,2.07,2.07,0,0,1,.37,1.22h-2a1.08,1.08,0,0,0-.12-.52.86.86,0,0,0-.37-.36,1.32,1.32,0,0,0-.64-.14,1.26,1.26,0,0,0-.57.12.85.85,0,0,0-.37.3.73.73,0,0,0-.12.41.62.62,0,0,0,.07.31.69.69,0,0,0,.24.24,2.06,2.06,0,0,0,.42.2,5.19,5.19,0,0,0,.66.17,7.53,7.53,0,0,1,1.43.43,2.38,2.38,0,0,1,1,.71,1.76,1.76,0,0,1,.37,1.17,1.82,1.82,0,0,1-.22.9,2.21,2.21,0,0,1-.62.72,3.24,3.24,0,0,1-1,.47,4.57,4.57,0,0,1-1.28.16,3.9,3.9,0,0,1-1.75-.36,2.86,2.86,0,0,1-1.08-.94,2.2,2.2,0,0,1-.36-1.18h1.87a1.07,1.07,0,0,0,.2.65,1.13,1.13,0,0,0,.5.36,2.08,2.08,0,0,0,.66.11,1.67,1.67,0,0,0,.64-.11.81.81,0,0,0,.38-.28A.74.74,0,0,0,278.92,253.46Z"></path></svg>