<svg xmlns="http://www.w3.org/2000/svg" id="Layer_1" data-name="Layer 1" viewBox="0 0 177 259.18"><defs><style>.cls-1{fill:#61686d;}.cls-2{fill:#fff;}</style></defs><path class="cls-1" d="M113.42,91.76a42.33,42.33,0,0,0,5.1-1.92,40.13,40.13,0,0,0,4.79-2.59c.92-.58,1.82-1.2,2.69-1.86a7.82,7.82,0,0,1,4.07-1.56c7.7,3,11.72-4.8,11.72-4.8-1.3,1.24-3.45.81-7.08,1.56-3.08.63-4.24,2.28-4.51,2.75-.75.1-1.4.16-1.94.2.49-.43,1-.88,1.44-1.33l1-1c.32-.32.62-.67.93-1A40.4,40.4,0,0,0,134.92,76l.06-.09a5.36,5.36,0,0,1,2-1.73l.38-.2c8.25-.3,8.89-9,8.89-9-.67,1.69-2.83,2.14-5.86,4.25-2.59,1.81-3,3.77-3.07,4.32l-1.14.65c.55-.91,1.06-1.85,1.54-2.8a42.57,42.57,0,0,0,2.06-5l.18-.56a14,14,0,0,1,2-3.92c.06-.07.12-.16.17-.23,7.24-4,3.92-12.05,3.92-12.05.11,1.78-1.61,3.15-3.38,6.4-1.51,2.77-1,4.71-.82,5.23-.37.57-.72,1.07-1,1.49.11-.53.22-1.05.32-1.57a36.87,36.87,0,0,0,.63-5.34l0-.67a5.15,5.15,0,0,0,0-.68V53.14c0-.44,0-.9-.06-1.34,0-.22,0-.45,0-.67l-.06-.66a4.56,4.56,0,0,1,.06-1.33l.53-2.56c5.28-6.35-.78-12.64-.78-12.64.75,1.61-.35,3.52-.8,7.19-.38,3.13.8,4.76,1.16,5.17-.15.74-.31,1.39-.44,1.91l-.05-.41c0-.45-.16-.88-.24-1.32l-.13-.66c0-.23-.08-.44-.13-.66-.22-.86-.41-1.73-.69-2.58l-.2-.64-.09-.32-.11-.31-.46-1.26c-.28-.73-.58-1.46-.9-2.17a11.77,11.77,0,0,1-1-4.08c0-.32,0-.64-.07-.95,2.84-7.76-5-11.66-5-11.66,1.26,1.27.86,3.44,1.67,7,.69,3.08,2.35,4.2,2.83,4.47.15,1,.24,1.93.28,2.55,0,0,0,0,0-.07l-.32-.59c-.1-.19-.23-.38-.34-.57l-.69-1.14-.74-1.11c-.12-.18-.24-.37-.37-.55l-.4-.53c-.41-.57-.84-1.12-1.29-1.66-.63-.79-1.48-1.94-2.22-2.77a5.65,5.65,0,0,1-.89-1.28c-3.25-6.86-11.2-4.94-11.2-4.94,1.79.11,2.93,2,5.93,4.16a6.7,6.7,0,0,0,5,1.49l.27.08.91.95a39.88,39.88,0,0,1,3.32,4.12l.38.54c.12.18.24.37.35.56l.71,1.12.3.53a21.42,21.42,0,0,0-2.37-1.77c-4.29-7.06-12.22-3.38-12.22-3.38,1.78-.18,3.22,1.48,6.55,3.1,2.83,1.38,4.75.79,5.26.58,1.13.67,2.07,1.31,2.62,1.71a2.77,2.77,0,0,1,.83.94h0l.3.59a38.07,38.07,0,0,1,2.07,4.84l.41,1.25.11.32.09.32.17.63c.25.84.43,1.7.61,2.56.05.21.1.43.13.64v0a22.66,22.66,0,0,0-1.67-2.25c-2-8-10.69-6.81-10.69-6.81,1.76.34,2.65,2.35,5.36,4.87,2.3,2.15,4.31,2.15,4.85,2.1.62.68,1.13,1.28,1.51,1.75a4.21,4.21,0,0,1,.94,2.26h0l.15,1.31,0,.33,0,.32,0,.66,0,.65c0,.22,0,.44,0,.65,0,.44,0,.88,0,1.32l0,1.31c0,.22,0,.44,0,.65l0,.66c-.07.94-.17,1.89-.3,2.82a21.91,21.91,0,0,0-.66-2.24c1-8.2-7.55-10.17-7.55-10.17,1.52.94,1.63,3.14,3.26,6.46a6.6,6.6,0,0,0,3.79,3.7c.21.51.38,1,.53,1.39a5.91,5.91,0,0,1,.2,3.2s0,0,0,0a38.44,38.44,0,0,1-1.44,5,39.74,39.74,0,0,1-2.11,4.77l-.74,1.33a23.58,23.58,0,0,0,.26-2.67c3.9-7.28-3.31-12.23-3.31-12.23,1.07,1.44.37,3.52.67,7.21.25,3.14,1.74,4.5,2.18,4.82v.36a9.84,9.84,0,0,1-1.78,5.58s0,0,0,0a36.33,36.33,0,0,1-3.31,4c-.31.31-.59.63-.91.93l-.94.9s0,0,0,0c.29-.51.54-1,.78-1.51C135.71,74.26,131,66.9,131,66.9c.43,1.74-1,3.39-2.18,6.91-1,3-.14,4.82.13,5.29-.19.45-.38.87-.54,1.24a6.25,6.25,0,0,1-1.82,2.32,0,0,0,0,1,0,0,37.55,37.55,0,0,1-4.25,3c-.87.51-1.75,1-2.66,1.44q.57-.58,1-1.17c6.14-2.83,3.88-9.63,3.88-9.63,0,1.47-1.49,2.48-3.13,5a5.3,5.3,0,0,0-1,4.22l-.57.74A5.62,5.62,0,0,1,117.72,88h0a40.06,40.06,0,0,1-4.87,1.69h0a1.06,1.06,0,0,0-.79,1A1.1,1.1,0,0,0,113.42,91.76Z"></path><path class="cls-1" d="M35.65,61.67l.18.23a13.72,13.72,0,0,1,2,3.92c.07.19.13.38.19.56a42.57,42.57,0,0,0,2.06,5c.48.95,1,1.89,1.54,2.8l-1.14-.65C40.37,73,40,71,37.37,69.2c-3-2.11-5.19-2.56-5.86-4.25,0,0,.64,8.72,8.89,9l.38.2a5.25,5.25,0,0,1,1.95,1.73l.07.09a39.13,39.13,0,0,0,3.34,4.26c.31.33.6.68.92,1l.95,1c.48.45,1,.9,1.45,1.33-.54,0-1.2-.1-1.94-.2A6.49,6.49,0,0,0,43,80.59c-3.63-.75-5.79-.32-7.08-1.56,0,0,4,7.76,11.72,4.8a7.82,7.82,0,0,1,4.07,1.56c.87.66,1.76,1.28,2.69,1.86a40.79,40.79,0,0,0,4.78,2.59,42.48,42.48,0,0,0,5.11,1.92,1.1,1.1,0,0,0,1.41-1.1,1.06,1.06,0,0,0-.79-1h0A40.81,40.81,0,0,1,60,88a0,0,0,0,0,0,0,5.62,5.62,0,0,1-2.21-1.68l-.57-.74a5.34,5.34,0,0,0-1-4.22c-1.64-2.57-3.12-3.58-3.13-5,0,0-2.26,6.8,3.88,9.63.32.39.67.78,1,1.17-.9-.45-1.78-.93-2.65-1.44a36.67,36.67,0,0,1-4.25-3h0a6.33,6.33,0,0,1-1.81-2.32c-.17-.37-.35-.79-.54-1.24.27-.47,1.12-2.29.13-5.29-1.16-3.52-2.61-5.17-2.18-6.91,0,0-4.73,7.36,1.69,12.56.23.49.49,1,.78,1.51,0,0,0,0,0,0l-.94-.9c-.32-.3-.6-.62-.91-.93a36.33,36.33,0,0,1-3.31-4l0,0a9.76,9.76,0,0,1-1.77-5.58v-.36c.43-.32,1.92-1.68,2.17-4.82.3-3.69-.4-5.77.67-7.21,0,0-7.21,5-3.31,12.23A26.14,26.14,0,0,0,42,72.05l-.74-1.33A41.39,41.39,0,0,1,39.15,66a38.44,38.44,0,0,1-1.44-5s0,0,0,0a5.82,5.82,0,0,1,.21-3.2c.14-.41.31-.88.52-1.39a6.6,6.6,0,0,0,3.79-3.7c1.63-3.32,1.74-5.52,3.27-6.46,0,0-8.52,2-7.56,10.17a21.91,21.91,0,0,0-.66,2.24c-.13-.93-.23-1.88-.3-2.82l0-.66c0-.21,0-.43,0-.65l0-1.31c0-.44,0-.88,0-1.32,0-.21,0-.43,0-.65l0-.65,0-.66,0-.32,0-.33.15-1.31h0a4.21,4.21,0,0,1,.94-2.26c.38-.47.89-1.07,1.51-1.75.54.05,2.55.05,4.86-2.1,2.7-2.52,3.59-4.53,5.35-4.87,0,0-8.66-1.2-10.69,6.81A24.34,24.34,0,0,0,37.48,46v0c0-.21.08-.43.13-.64.18-.86.36-1.72.61-2.56l.17-.63.09-.32.11-.32L39,40.22a38.07,38.07,0,0,1,2.07-4.84l.3-.59h0a2.77,2.77,0,0,1,.83-.94c.55-.4,1.49-1,2.63-1.71.5.21,2.42.8,5.26-.58,3.32-1.62,4.76-3.28,6.54-3.1,0,0-7.93-3.68-12.21,3.38A20.61,20.61,0,0,0,42,33.6l.3-.53L43.05,32c.12-.19.23-.38.36-.56l.38-.54a37.4,37.4,0,0,1,3.32-4.12l.91-.95.27-.08a6.67,6.67,0,0,0,4.94-1.49c3-2.16,4.15-4.05,5.94-4.16,0,0-8-1.92-11.2,4.94a5.65,5.65,0,0,1-.89,1.28c-.74.83-1.59,2-2.22,2.77-.45.54-.88,1.09-1.29,1.66l-.4.53c-.13.18-.25.37-.37.55l-.75,1.11L41.37,34c-.12.19-.24.38-.35.57l-.31.59,0,.07c0-.62.13-1.5.28-2.55.48-.27,2.14-1.39,2.83-4.47.81-3.61.41-5.78,1.66-7,0,0-7.82,3.9-5,11.66,0,.31-.05.63-.07.95a12,12,0,0,1-1,4.08c-.32.71-.62,1.44-.91,2.17L38,41.31l-.11.31-.1.32-.19.64c-.28.85-.47,1.72-.69,2.58,0,.22-.09.43-.14.66l-.12.66c-.08.44-.19.87-.24,1.32l0,.41c-.14-.52-.29-1.17-.44-1.91.36-.41,1.54-2,1.16-5.17-.45-3.67-1.56-5.58-.8-7.19,0,0-6.06,6.29-.78,12.64L36,49.14a4.56,4.56,0,0,1,.07,1.33l-.06.66c0,.22,0,.45,0,.67,0,.44-.05.9-.06,1.34v1.34c0,.23,0,.45,0,.68l0,.67a36.87,36.87,0,0,0,.63,5.34c.09.52.21,1,.32,1.57-.3-.42-.64-.92-1-1.49.18-.52.69-2.46-.82-5.23-1.77-3.25-3.5-4.62-3.38-6.4C31.74,49.62,28.41,57.7,35.65,61.67Z"></path><path class="cls-2" d="M96.09,45.48a1.59,1.59,0,0,1,.18-.37,1.09,1.09,0,0,1,.35-.29,1.17,1.17,0,0,1,.48-.1l.26,0a1,1,0,0,1,.25,0V43.42l-.19-.05-.24,0a1.09,1.09,0,0,0-.67.21,1.77,1.77,0,0,0-.46.57l0-.66H94.72V49.8h1.37Z"></path><path class="cls-2" d="M95.23,56.48a1.6,1.6,0,0,1,.19-.37,1.05,1.05,0,0,1,.34-.29,1.22,1.22,0,0,1,.49-.1l.26,0a1,1,0,0,1,.25,0V54.42l-.19-.05-.24,0a1.11,1.11,0,0,0-.67.21,1.63,1.63,0,0,0-.45.57l0-.66h-1.3V60.8h1.36Z"></path><path class="cls-2" d="M89.55,49.19a2.08,2.08,0,0,0,.81.55,3.13,3.13,0,0,0,1.1.18,2.66,2.66,0,0,0,.94-.14,2.2,2.2,0,0,0,.7-.36,2,2,0,0,0,.46-.45l-.6-.83a2.09,2.09,0,0,1-.6.46,1.74,1.74,0,0,1-.82.18,1.7,1.7,0,0,1-.57-.09,1.12,1.12,0,0,1-.41-.31,1.5,1.5,0,0,1-.25-.54,2.89,2.89,0,0,1-.08-.77h3.4v-.69a5.63,5.63,0,0,0-.14-1.3,2.64,2.64,0,0,0-.42-1,1.77,1.77,0,0,0-.72-.58,2.57,2.57,0,0,0-1-.19,2.63,2.63,0,0,0-1,.18,2,2,0,0,0-.77.56,2.74,2.74,0,0,0-.52,1,4.62,4.62,0,0,0-.18,1.38V47A4,4,0,0,0,89,48.29,2.35,2.35,0,0,0,89.55,49.19Zm.94-4.27a.8.8,0,0,1,.34-.32,1,1,0,0,1,.47-.1.83.83,0,0,1,.57.17,1,1,0,0,1,.31.48,3,3,0,0,1,.1.74V46h-2a3.56,3.56,0,0,1,.06-.52A1.93,1.93,0,0,1,90.49,44.92Z"></path><path class="cls-2" d="M98.47,53.56a.79.79,0,0,0,.56-1.3.82.82,0,0,0-1.12,0,.81.81,0,0,0-.2.55.72.72,0,0,0,.76.75Z"></path><path class="cls-2" d="M100.91,59.13a2.54,2.54,0,0,0,.18,1,1.26,1.26,0,0,0,.52.57,1.64,1.64,0,0,0,.74.17,2.21,2.21,0,0,0,.48,0l.36-.1v-1.1l-.17,0-.23,0a.78.78,0,0,1-.28-.05.38.38,0,0,1-.18-.21,1.25,1.25,0,0,1-.06-.44V55.52h.9V54.47h-.9V52.91h-1.36v1.56h-.85v1.05h.85Z"></path><path class="cls-2" d="M101.83,49.15a2.13,2.13,0,0,0,.79.58,2.61,2.61,0,0,0,1,.19,2.53,2.53,0,0,0,1-.19,2.06,2.06,0,0,0,.79-.58,2.49,2.49,0,0,0,.52-.95,4.32,4.32,0,0,0,.18-1.31v-.51a4.3,4.3,0,0,0-.18-1.3,2.49,2.49,0,0,0-.52-.95,2.09,2.09,0,0,0-.8-.58,2.65,2.65,0,0,0-2,0,2.17,2.17,0,0,0-.8.58,2.61,2.61,0,0,0-.51.95,4,4,0,0,0-.19,1.3v.51a4,4,0,0,0,.19,1.31A2.49,2.49,0,0,0,101.83,49.15Zm.66-2.77a4,4,0,0,1,.08-.82,1.78,1.78,0,0,1,.24-.59,1.1,1.1,0,0,1,.35-.36,1,1,0,0,1,.47-.11,1,1,0,0,1,.46.11,1,1,0,0,1,.37.36,2,2,0,0,1,.24.59,4,4,0,0,1,.08.82v.51a4,4,0,0,1-.07.83,1.77,1.77,0,0,1-.22.59.9.9,0,0,1-.35.35,1,1,0,0,1-.5.12.94.94,0,0,1-.47-.12,1,1,0,0,1-.36-.35,1.78,1.78,0,0,1-.24-.59,4,4,0,0,1-.08-.83Z"></path><path class="cls-2" d="M107.74,49.8h1.37V44.52h1V43.47h-1v-.61a1.47,1.47,0,0,1,.09-.55.79.79,0,0,1,.28-.34.78.78,0,0,1,.44-.12l.23,0a.94.94,0,0,1,.2,0l0-1.11a1.77,1.77,0,0,0-.33-.08,2.19,2.19,0,0,0-.36,0,2.16,2.16,0,0,0-1,.25,1.72,1.72,0,0,0-.67.74,2.66,2.66,0,0,0-.24,1.19v.61H107v1.05h.79Z"></path><rect class="cls-2" x="97.78" y="54.47" width="1.37" height="6.34"></rect><path class="cls-2" d="M83.41,49.15a1.74,1.74,0,0,0,.66.58,1.89,1.89,0,0,0,.87.19,1.53,1.53,0,0,0,.81-.21,1.78,1.78,0,0,0,.58-.58l.06.68h1.24v-9H86.26v3.25a1.76,1.76,0,0,0-.49-.49,1.56,1.56,0,0,0-.82-.21,2.07,2.07,0,0,0-.88.18,1.68,1.68,0,0,0-.66.56,2.73,2.73,0,0,0-.41,1,5.87,5.87,0,0,0-.14,1.34v.5A5.75,5.75,0,0,0,83,48.21,2.62,2.62,0,0,0,83.41,49.15Zm.81-2.76a5,5,0,0,1,.06-.83,1.94,1.94,0,0,1,.2-.59.75.75,0,0,1,.34-.34,1,1,0,0,1,.51-.12,1,1,0,0,1,.81.43,1.45,1.45,0,0,1,.12.25v2.93a1.14,1.14,0,0,1-.33.44.93.93,0,0,1-.61.19,1,1,0,0,1-.51-.11.83.83,0,0,1-.34-.33,1.88,1.88,0,0,1-.19-.58,5,5,0,0,1-.06-.84Z"></path><path class="cls-2" d="M88.69,60.19a2.08,2.08,0,0,0,.81.55,3.13,3.13,0,0,0,1.1.18,2.75,2.75,0,0,0,1-.14,2.31,2.31,0,0,0,.7-.36A1.92,1.92,0,0,0,92.7,60l-.6-.83a2.09,2.09,0,0,1-.6.46,1.7,1.7,0,0,1-.81.18,1.62,1.62,0,0,1-.57-.09,1,1,0,0,1-.41-.31,1.51,1.51,0,0,1-.26-.54,3.37,3.37,0,0,1-.08-.77h3.4v-.69a5.13,5.13,0,0,0-.14-1.3,2.64,2.64,0,0,0-.42-1,1.77,1.77,0,0,0-.72-.58,2.54,2.54,0,0,0-1-.19,2.67,2.67,0,0,0-1,.18,2.09,2.09,0,0,0-.77.56,2.58,2.58,0,0,0-.51,1A4.3,4.3,0,0,0,88,57.43V58a4,4,0,0,0,.18,1.25A2.64,2.64,0,0,0,88.69,60.19Zm1-4.27A.75.75,0,0,1,90,55.6a1,1,0,0,1,.47-.1.84.84,0,0,1,.57.17.9.9,0,0,1,.3.48,3,3,0,0,1,.11.74V57H89.38a3.56,3.56,0,0,1,.06-.52A1.91,1.91,0,0,1,89.64,55.92Z"></path><path class="cls-2" d="M72.9,49a2.56,2.56,0,0,0,.95.68,3.35,3.35,0,0,0,2.44,0,2.41,2.41,0,0,0,.93-.68,3.12,3.12,0,0,0,.6-1.13A5.4,5.4,0,0,0,78,46.3V44.84a5.49,5.49,0,0,0-.21-1.6,3.22,3.22,0,0,0-.6-1.15,2.53,2.53,0,0,0-1-.7,3,3,0,0,0-1.21-.23,3,3,0,0,0-1.22.23,2.58,2.58,0,0,0-.94.7,3.22,3.22,0,0,0-.6,1.15,5.16,5.16,0,0,0-.22,1.6V46.3a5.07,5.07,0,0,0,.22,1.58A3.12,3.12,0,0,0,72.9,49Zm.6-4.18a5.13,5.13,0,0,1,.1-1.11,2.15,2.15,0,0,1,.3-.76,1.27,1.27,0,0,1,.49-.44,1.47,1.47,0,0,1,.67-.15,1.4,1.4,0,0,1,.66.15,1.23,1.23,0,0,1,.5.44,2,2,0,0,1,.29.76,5.08,5.08,0,0,1,.11,1.11V46.3a5.09,5.09,0,0,1-.1,1.1,2.35,2.35,0,0,1-.3.75,1.17,1.17,0,0,1-.49.42,1.4,1.4,0,0,1-.66.15,1.47,1.47,0,0,1-.67-.15,1.23,1.23,0,0,1-.49-.42,2.15,2.15,0,0,1-.31-.75,5.09,5.09,0,0,1-.1-1.1Z"></path><polygon class="cls-2" points="80.59 57.7 80.49 54.78 82.41 60.8 83.48 60.8 85.41 54.55 85.3 57.7 85.3 60.8 86.69 60.8 86.69 52.27 86.11 52.27 85.48 52.27 84.91 52.27 82.95 58.62 80.98 52.27 80.4 52.27 79.69 52.27 79.2 52.27 79.2 60.8 80.59 60.8 80.59 57.7"></polygon><path class="cls-2" d="M80.73,45.48a1.28,1.28,0,0,1,.18-.37,1.05,1.05,0,0,1,.34-.29,1.22,1.22,0,0,1,.49-.1l.26,0a1,1,0,0,1,.25,0V43.42l-.2-.05-.24,0a1.13,1.13,0,0,0-.67.21,1.63,1.63,0,0,0-.45.57l0-.66h-1.3V49.8h1.37Z"></path><path class="cls-2" d="M61,137.57a2.86,2.86,0,0,1-.14.89,3.55,3.55,0,0,1-.42.79l.62.43a2.55,2.55,0,0,0,.55-.63,3.19,3.19,0,0,0,.35-.75,2.55,2.55,0,0,0,.12-.75v-.75H61Z"></path><path class="cls-2" d="M120.86,224.24a2.3,2.3,0,0,0-.82-.66,2.81,2.81,0,0,0-1.17-.23,2.6,2.6,0,0,0-1,.21,2.76,2.76,0,0,0-.89.64,3.11,3.11,0,0,0-.62,1,3.77,3.77,0,0,0-.23,1.38v.25a3.78,3.78,0,0,0,.2,1.23,3,3,0,0,0,.59,1,2.72,2.72,0,0,0,.92.64,3.09,3.09,0,0,0,1.2.22,3.14,3.14,0,0,0,1.08-.17,2.48,2.48,0,0,0,.78-.46,3.1,3.1,0,0,0,.52-.59l-.65-.52a2.29,2.29,0,0,1-.7.62,1.84,1.84,0,0,1-1,.24,1.88,1.88,0,0,1-.8-.17,1.81,1.81,0,0,1-.59-.47,2.29,2.29,0,0,1-.37-.69,3.18,3.18,0,0,1-.12-.77h4.29v-.49a4.41,4.41,0,0,0-.16-1.23A2.77,2.77,0,0,0,120.86,224.24Zm-.47,1.81h-3.17a3,3,0,0,1,.09-.45,2.26,2.26,0,0,1,.35-.75,1.49,1.49,0,0,1,1.21-.61,1.34,1.34,0,0,1,.88.26,1.54,1.54,0,0,1,.47.65,2.61,2.61,0,0,1,.17.82Z"></path><rect class="cls-2" x="55.92" y="195.46" width="1.09" height="6.34"></rect><path class="cls-2" d="M57,193.34a.73.73,0,0,0-1,0,.68.68,0,0,0,0,.88.76.76,0,0,0,1,0,.65.65,0,0,0,0-.88Z"></path><path class="cls-2" d="M61.61,168.27a2.56,2.56,0,0,0-.91-.68,3.12,3.12,0,0,0-2.4,0,2.65,2.65,0,0,0-.91.68,3,3,0,0,0-.57,1,4,4,0,0,0-.2,1.27v.13a4,4,0,0,0,.2,1.28,3,3,0,0,0,.57,1,2.69,2.69,0,0,0,.92.68,3.1,3.1,0,0,0,2.39,0,2.56,2.56,0,0,0,.91-.68,2.86,2.86,0,0,0,.58-1,4,4,0,0,0,.2-1.28v-.13a4,4,0,0,0-.2-1.27A2.82,2.82,0,0,0,61.61,168.27Zm-.31,2.43a3.26,3.26,0,0,1-.12.9,2.26,2.26,0,0,1-.33.74,1.82,1.82,0,0,1-.56.51,1.8,1.8,0,0,1-1.57,0,1.75,1.75,0,0,1-.57-.51,2.51,2.51,0,0,1-.34-.74,3.7,3.7,0,0,1-.11-.9v-.13a3.53,3.53,0,0,1,.11-.88,2.45,2.45,0,0,1,.34-.75,1.6,1.6,0,0,1,.56-.51,1.57,1.57,0,0,1,.79-.19,1.5,1.5,0,0,1,.78.19,1.45,1.45,0,0,1,.56.51,2.06,2.06,0,0,1,.34.75,3.12,3.12,0,0,1,.12.88Z"></path><polygon class="cls-2" points="49.47 152.94 49.61 153.59 51.36 159.81 51.58 159.81 52.18 159.81 52.39 159.81 54.45 151.27 53.32 151.27 52 157.1 51.82 158.26 51.58 157.23 49.93 151.27 49.81 151.27 49.13 151.27 48.99 151.27 47.3 157.23 47.06 158.24 46.89 157.11 45.55 151.27 44.42 151.27 46.49 159.81 46.7 159.81 47.3 159.81 47.51 159.81 49.34 153.59 49.47 152.94"></polygon><path class="cls-2" d="M45.47,179.31a3.19,3.19,0,0,0-.35.75,2.55,2.55,0,0,0-.12.75v.71h1.07v-.73a2.5,2.5,0,0,1,.15-.88,3.35,3.35,0,0,1,.42-.79l-.62-.43A2.52,2.52,0,0,0,45.47,179.31Z"></path><path class="cls-2" d="M123.3,215.71a2.46,2.46,0,0,1-.16-.61,4.18,4.18,0,0,1-.06-.68v-2.95a2.15,2.15,0,0,0-.3-1.18,1.86,1.86,0,0,0-.83-.71,3.12,3.12,0,0,0-1.22-.23,3.17,3.17,0,0,0-1,.16,2.52,2.52,0,0,0-.79.44,1.92,1.92,0,0,0-.51.6,1.51,1.51,0,0,0-.17.67h1.08a.83.83,0,0,1,.17-.49,1.29,1.29,0,0,1,.48-.37,1.81,1.81,0,0,1,.72-.14,1.62,1.62,0,0,1,.74.15,1,1,0,0,1,.45.44,1.33,1.33,0,0,1,.15.65v.5h-1.07a4.71,4.71,0,0,0-1.18.14,2.85,2.85,0,0,0-.9.39,1.8,1.8,0,0,0-.58.65,2,2,0,0,0-.2.9,1.78,1.78,0,0,0,.27,1,2,2,0,0,0,.75.67,2.38,2.38,0,0,0,1.13.25,2.43,2.43,0,0,0,.92-.17,2.87,2.87,0,0,0,.72-.46c.06,0,.11-.11.17-.17a1.15,1.15,0,0,1,0,.19,2.81,2.81,0,0,0,.13.49h1.13Zm-2-1a1.75,1.75,0,0,1-.87.21,1.42,1.42,0,0,1-.68-.14,1,1,0,0,1-.4-.39,1.12,1.12,0,0,1-.14-.55,1.07,1.07,0,0,1,.13-.51,1,1,0,0,1,.38-.36,1.81,1.81,0,0,1,.61-.22,4,4,0,0,1,.82-.08h.9V214a2.1,2.1,0,0,1-.14.24A1.83,1.83,0,0,1,121.25,214.76Z"></path><path class="cls-2" d="M49.26,141.31a1.51,1.51,0,0,1,.3-.47,1.32,1.32,0,0,1,.49-.33,1.69,1.69,0,0,1,.66-.12H51l.25,0v-1a.64.64,0,0,0-.21-.05l-.27,0a1.66,1.66,0,0,0-1.5.83v0l0-.74h-1v6.34h1.08Z"></path><path class="cls-2" d="M48.73,179.34a.73.73,0,0,0-1,0,.68.68,0,0,0,0,.88.76.76,0,0,0,1,0,.65.65,0,0,0,0-.88Z"></path><rect class="cls-2" x="47.7" y="181.46" width="1.09" height="6.34"></rect><path class="cls-2" d="M53.36,137.34a.61.61,0,0,0-.47-.18.62.62,0,0,0-.48.18.69.69,0,0,0,0,.88.65.65,0,0,0,.48.17.62.62,0,0,0,.47-1Z"></path><path class="cls-2" d="M59.14,153.59a3.1,3.1,0,0,0-2.39,0,2.56,2.56,0,0,0-.91.68,3,3,0,0,0-.57,1,3.72,3.72,0,0,0-.2,1.27v.13a3.78,3.78,0,0,0,.2,1.28,3,3,0,0,0,.57,1,2.65,2.65,0,0,0,.91.68,2.94,2.94,0,0,0,1.21.24,2.84,2.84,0,0,0,1.19-.24,2.56,2.56,0,0,0,.91-.68,3,3,0,0,0,.58-1,4,4,0,0,0,.2-1.28v-.13a4,4,0,0,0-.2-1.27,3,3,0,0,0-.58-1A2.6,2.6,0,0,0,59.14,153.59Zm.61,3.11a3.26,3.26,0,0,1-.12.9,2.26,2.26,0,0,1-.33.74,1.75,1.75,0,0,1-.57.51A1.59,1.59,0,0,1,58,159a1.69,1.69,0,0,1-.8-.18,1.82,1.82,0,0,1-.56-.51,2.51,2.51,0,0,1-.34-.74,3.7,3.7,0,0,1-.11-.9v-.13a3.53,3.53,0,0,1,.11-.88,2.45,2.45,0,0,1,.34-.75,1.6,1.6,0,0,1,.56-.51,1.72,1.72,0,0,1,1.57,0,1.52,1.52,0,0,1,.56.51,2.24,2.24,0,0,1,.34.75,3.12,3.12,0,0,1,.12.88Z"></path><path class="cls-2" d="M41.47,131.67a2.38,2.38,0,0,0,1.13.25,2.43,2.43,0,0,0,.92-.17,2.87,2.87,0,0,0,.72-.46,1.37,1.37,0,0,0,.17-.17c0,.06,0,.12,0,.19a1.72,1.72,0,0,0,.13.49h1.13v-.09a2.45,2.45,0,0,1-.17-.61,4.18,4.18,0,0,1-.06-.68v-2.95a2.15,2.15,0,0,0-.3-1.18,1.86,1.86,0,0,0-.83-.71,3.12,3.12,0,0,0-1.22-.23,3.17,3.17,0,0,0-1,.16,2.52,2.52,0,0,0-.79.44,1.92,1.92,0,0,0-.51.6,1.51,1.51,0,0,0-.17.67h1.08a.83.83,0,0,1,.17-.49,1.29,1.29,0,0,1,.48-.37,1.81,1.81,0,0,1,.72-.14,1.62,1.62,0,0,1,.74.15,1,1,0,0,1,.45.44,1.33,1.33,0,0,1,.15.65v.5H43.31a4.71,4.71,0,0,0-1.18.14,2.85,2.85,0,0,0-.9.39,1.89,1.89,0,0,0-.58.65,2,2,0,0,0-.2.9,1.78,1.78,0,0,0,.27,1A2,2,0,0,0,41.47,131.67Zm.2-2.29a1,1,0,0,1,.38-.36,1.81,1.81,0,0,1,.61-.22,4,4,0,0,1,.82-.08h.9V130a2.1,2.1,0,0,1-.14.24,1.89,1.89,0,0,1-.6.51,1.82,1.82,0,0,1-.88.21,1.42,1.42,0,0,1-.68-.14,1,1,0,0,1-.4-.39,1.12,1.12,0,0,1-.14-.55A1.07,1.07,0,0,1,41.67,129.38Z"></path><path class="cls-2" d="M64.78,153.35a1.66,1.66,0,0,0-1.5.83v0l0-.74h-1v6.34h1.08v-4.49a1.72,1.72,0,0,1,.3-.47,1.41,1.41,0,0,1,.49-.33,1.69,1.69,0,0,1,.66-.12H65l.26,0v-1a.64.64,0,0,0-.21-.05Z"></path><path class="cls-2" d="M54.32,126.24a3.13,3.13,0,0,0-.5,1,5,5,0,0,0-.17,1.32v.12a4.79,4.79,0,0,0,.17,1.29,3.24,3.24,0,0,0,.5,1,2.3,2.3,0,0,0,.79.67,2.2,2.2,0,0,0,1,.24,2.62,2.62,0,0,0,1-.2,2.22,2.22,0,0,0,.72-.56v.56a1.88,1.88,0,0,1-.21.93,1.33,1.33,0,0,1-.58.57,1.89,1.89,0,0,1-.89.2,2.27,2.27,0,0,1-.86-.19,2.41,2.41,0,0,1-.84-.67l-.56.64a2.1,2.1,0,0,0,.7.66,3.48,3.48,0,0,0,.87.34,3.54,3.54,0,0,0,.77.11,3.1,3.1,0,0,0,1.4-.31,2.29,2.29,0,0,0,.95-.9,2.8,2.8,0,0,0,.34-1.43v-6.21H58l0,.71h0a2.15,2.15,0,0,0-.77-.6,2.38,2.38,0,0,0-1-.21,2.34,2.34,0,0,0-1,.23A2.17,2.17,0,0,0,54.32,126.24Zm1.33.21a1.43,1.43,0,0,1,.76-.19,1.74,1.74,0,0,1,.72.14,1.62,1.62,0,0,1,.51.38,1.79,1.79,0,0,1,.27.44V130a1,1,0,0,1-.06.16,1.62,1.62,0,0,1-.56.6,1.53,1.53,0,0,1-.89.23,1.6,1.6,0,0,1-.75-.17,1.55,1.55,0,0,1-.52-.5,2.16,2.16,0,0,1-.3-.73,3.71,3.71,0,0,1-.1-.9v-.12a3.68,3.68,0,0,1,.1-.89,2.13,2.13,0,0,1,.3-.74A1.46,1.46,0,0,1,55.65,126.45Z"></path><path class="cls-2" d="M127.08,237.87a1.46,1.46,0,0,0-.63-.39,2.53,2.53,0,0,0-.85-.13,2.31,2.31,0,0,0-1,.23,2.34,2.34,0,0,0-.81.63V234.8h-1.08v9h1.08v-4.45a2.73,2.73,0,0,1,.24-.45,1.71,1.71,0,0,1,.57-.47,1.64,1.64,0,0,1,.74-.17,1.6,1.6,0,0,1,.69.14.92.92,0,0,1,.43.44,1.82,1.82,0,0,1,.14.8v4.16h1.1v-4.15a3.26,3.26,0,0,0-.15-1.06A1.81,1.81,0,0,0,127.08,237.87Z"></path><path class="cls-2" d="M36,201a2.56,2.56,0,0,0,.91.68,2.92,2.92,0,0,0,1.2.24,2.86,2.86,0,0,0,1.2-.24,2.62,2.62,0,0,0,.9-.68,3,3,0,0,0,.59-1A4,4,0,0,0,41,198.7v-.13a4,4,0,0,0-.19-1.27,3,3,0,0,0-.59-1,2.56,2.56,0,0,0-.91-.68,2.86,2.86,0,0,0-1.2-.24,2.92,2.92,0,0,0-1.2.24,2.62,2.62,0,0,0-.9.68,3,3,0,0,0-.58,1,4,4,0,0,0-.2,1.27v.13a4,4,0,0,0,.2,1.28A3,3,0,0,0,36,201Zm.31-2.43a3.12,3.12,0,0,1,.11-.88,2.22,2.22,0,0,1,.33-.75,1.6,1.6,0,0,1,.56-.51,1.57,1.57,0,0,1,.79-.19,1.5,1.5,0,0,1,.78.19,1.55,1.55,0,0,1,.57.51,2.45,2.45,0,0,1,.34.75,3.12,3.12,0,0,1,.11.88v.13a3.27,3.27,0,0,1-.11.9,2.51,2.51,0,0,1-.34.74,1.71,1.71,0,0,1-.56.51,1.61,1.61,0,0,1-.78.18,1.67,1.67,0,0,1-.79-.18,1.75,1.75,0,0,1-.57-.51,2.26,2.26,0,0,1-.33-.74,3.27,3.27,0,0,1-.11-.9Z"></path><path class="cls-2" d="M125.81,228.91a2,2,0,0,1-.74.12,2.22,2.22,0,0,1-.67-.1,1.41,1.41,0,0,1-.58-.37,1.15,1.15,0,0,1-.26-.71h-1.09a1.85,1.85,0,0,0,.3,1,2.15,2.15,0,0,0,.88.77,3.07,3.07,0,0,0,1.42.3,3.46,3.46,0,0,0,1-.13,2.65,2.65,0,0,0,.77-.39,1.68,1.68,0,0,0,.5-.6,1.61,1.61,0,0,0,.18-.76,1.46,1.46,0,0,0-.25-.87,1.86,1.86,0,0,0-.75-.6,6.18,6.18,0,0,0-1.28-.42,6.5,6.5,0,0,1-.73-.2,2.41,2.41,0,0,1-.45-.21.72.72,0,0,1-.22-.25.83.83,0,0,1-.06-.32.92.92,0,0,1,.12-.45.94.94,0,0,1,.41-.34,1.53,1.53,0,0,1,.73-.14,1.42,1.42,0,0,1,.72.16,1.15,1.15,0,0,1,.45.42.88.88,0,0,1,.16.51h1.08a1.76,1.76,0,0,0-.28-1,2.09,2.09,0,0,0-.83-.72,2.87,2.87,0,0,0-1.3-.27,3.24,3.24,0,0,0-1,.14,2.4,2.4,0,0,0-.74.41,1.92,1.92,0,0,0-.48.59,1.57,1.57,0,0,0-.16.71,1.34,1.34,0,0,0,.16.68,1.37,1.37,0,0,0,.45.51,2.71,2.71,0,0,0,.72.37,6.77,6.77,0,0,0,1,.27,3.39,3.39,0,0,1,.94.29.92.92,0,0,1,.42.37.91.91,0,0,1,.1.43.78.78,0,0,1-.15.47A1,1,0,0,1,125.81,228.91Z"></path><path class="cls-2" d="M64.85,168.21l0,0,0-.8h-1v6.34h1.08v-4.45a2.73,2.73,0,0,1,.24-.45,1.71,1.71,0,0,1,.57-.47,1.68,1.68,0,0,1,.74-.17,1.57,1.57,0,0,1,.69.14.92.92,0,0,1,.43.44,1.81,1.81,0,0,1,.15.8v4.16h1.09v-4.15a3.58,3.58,0,0,0-.14-1.06,1.94,1.94,0,0,0-.41-.72,1.56,1.56,0,0,0-.64-.39,2.49,2.49,0,0,0-.85-.13,2.31,2.31,0,0,0-1,.23A2.22,2.22,0,0,0,64.85,168.21Z"></path><rect class="cls-2" x="66.35" y="150.8" width="1.09" height="9"></rect><path class="cls-2" d="M59.17,137.57a2.6,2.6,0,0,1-.14.89,3.18,3.18,0,0,1-.42.79l.62.43a2.55,2.55,0,0,0,.55-.63,2.84,2.84,0,0,0,.35-.75,2.55,2.55,0,0,0,.12-.75v-.75H59.17Z"></path><path class="cls-2" d="M64.88,117.8v-4.15a3.26,3.26,0,0,0-.15-1.06,1.71,1.71,0,0,0-.41-.71,1.39,1.39,0,0,0-.63-.4,2.53,2.53,0,0,0-.85-.13,2.31,2.31,0,0,0-1.05.23,2.34,2.34,0,0,0-.81.63l0,.05,0-.79h-1v6.33H61v-4.45a2.73,2.73,0,0,1,.24-.45,1.84,1.84,0,0,1,.57-.47,1.64,1.64,0,0,1,.74-.17,1.6,1.6,0,0,1,.69.14.92.92,0,0,1,.43.44,1.81,1.81,0,0,1,.15.8v4.16Z"></path><path class="cls-2" d="M56.91,113.31a1.35,1.35,0,0,1,.3-.47,1.37,1.37,0,0,1,.48-.33,1.69,1.69,0,0,1,.66-.12h.27l.26,0v-1a.64.64,0,0,0-.21-.05l-.27,0a1.68,1.68,0,0,0-.89.22,1.78,1.78,0,0,0-.61.61v0l0-.73H55.82v6.33h1.09Z"></path><path class="cls-2" d="M109.92,228.23a2.21,2.21,0,0,0,.2,1,1.16,1.16,0,0,0,.53.52,1.63,1.63,0,0,0,.73.16,2.41,2.41,0,0,0,.5,0,1.9,1.9,0,0,0,.34-.08v-.88L112,229l-.28,0a1.27,1.27,0,0,1-.34-.05.48.48,0,0,1-.25-.22.92.92,0,0,1-.1-.49V224.3h1.18v-.84H111v-1.54h-1.09v1.54h-1.16v.84h1.16Z"></path><path class="cls-2" d="M71,122.8v3.31a2,2,0,0,0-.71-.55,2.44,2.44,0,0,0-1-.21,2.25,2.25,0,0,0-1.83.89,3.61,3.61,0,0,0-.51,1,5,5,0,0,0-.17,1.32v.12a4.79,4.79,0,0,0,.17,1.29,3.75,3.75,0,0,0,.51,1,2.43,2.43,0,0,0,.8.67,2.12,2.12,0,0,0,1,.24,2.64,2.64,0,0,0,1.06-.2,2.11,2.11,0,0,0,.76-.6l0,.68h1v-9Zm-.61,8a1.53,1.53,0,0,1-.89.23,1.6,1.6,0,0,1-.75-.17,1.55,1.55,0,0,1-.52-.5,2.4,2.4,0,0,1-.31-.73,4.29,4.29,0,0,1-.09-.9v-.12a4.26,4.26,0,0,1,.09-.89,2.36,2.36,0,0,1,.31-.74,1.46,1.46,0,0,1,.52-.5,1.44,1.44,0,0,1,.77-.19,1.65,1.65,0,0,1,.7.14,1.42,1.42,0,0,1,.51.38,1.63,1.63,0,0,1,.27.43V130s0,.09,0,.13A1.7,1.7,0,0,1,70.39,130.77Z"></path><path class="cls-2" d="M55.39,211.31a1.72,1.72,0,0,1,.3-.47,1.51,1.51,0,0,1,.49-.33,1.69,1.69,0,0,1,.66-.12h.27l.26,0v-1a.64.64,0,0,0-.22-.05l-.27,0a1.7,1.7,0,0,0-.89.22,1.87,1.87,0,0,0-.61.61v0l0-.74H54.31v6.34h1.08Z"></path><path class="cls-2" d="M105,228.85a2,2,0,0,0,.38-1h-1a1.22,1.22,0,0,1-.24.64,1.43,1.43,0,0,1-.54.43,1.58,1.58,0,0,1-.72.16,1.68,1.68,0,0,1-.84-.19,1.58,1.58,0,0,1-.53-.53,2.46,2.46,0,0,1-.28-.73,4.56,4.56,0,0,1-.08-.82v-.25a4.28,4.28,0,0,1,.08-.81,2.52,2.52,0,0,1,.28-.74,1.5,1.5,0,0,1,.54-.52,1.53,1.53,0,0,1,.83-.2,1.45,1.45,0,0,1,.76.19,1.32,1.32,0,0,1,.51.51,1.53,1.53,0,0,1,.23.7h1a2.46,2.46,0,0,0-.35-1.17,2.18,2.18,0,0,0-.88-.82,2.68,2.68,0,0,0-1.3-.3,2.83,2.83,0,0,0-1.24.25,2.42,2.42,0,0,0-.88.69,3.14,3.14,0,0,0-.53,1,4.37,4.37,0,0,0-.16,1.21v.25a4.37,4.37,0,0,0,.16,1.21,3.14,3.14,0,0,0,.53,1,2.42,2.42,0,0,0,.88.69,2.83,2.83,0,0,0,1.24.25,2.73,2.73,0,0,0,1.24-.29A2.66,2.66,0,0,0,105,228.85Z"></path><path class="cls-2" d="M51.61,183.35a2.14,2.14,0,0,1,.24-.45,1.71,1.71,0,0,1,.57-.47,1.64,1.64,0,0,1,.74-.17,1.6,1.6,0,0,1,.69.14.92.92,0,0,1,.43.44,2,2,0,0,1,.14.8v4.16h1.09v-4.15a3.28,3.28,0,0,0-.14-1.06,1.81,1.81,0,0,0-.41-.72,1.5,1.5,0,0,0-.64-.39,2.47,2.47,0,0,0-.84-.13,2.31,2.31,0,0,0-1,.23,2.34,2.34,0,0,0-.81.63l0,0,0-.8h-1v6.34h1.08Z"></path><path class="cls-2" d="M71.27,169.7a2.52,2.52,0,0,1,.28-.74,1.47,1.47,0,0,1,.53-.52,1.58,1.58,0,0,1,.84-.2,1.45,1.45,0,0,1,.76.19,1.39,1.39,0,0,1,.51.51,1.52,1.52,0,0,1,.22.7h1a2.37,2.37,0,0,0-.36-1.17,2.22,2.22,0,0,0-.87-.82,2.68,2.68,0,0,0-1.3-.3,2.88,2.88,0,0,0-1.25.25,2.6,2.6,0,0,0-.88.69,3.12,3.12,0,0,0-.52,1,4.37,4.37,0,0,0-.17,1.21v.25a4.37,4.37,0,0,0,.17,1.21,3.12,3.12,0,0,0,.52,1,2.6,2.6,0,0,0,.88.69,2.88,2.88,0,0,0,1.25.25,2.73,2.73,0,0,0,1.24-.29,2.63,2.63,0,0,0,.9-.78,1.88,1.88,0,0,0,.39-1h-1a1.22,1.22,0,0,1-.24.64,1.48,1.48,0,0,1-.53.43,1.58,1.58,0,0,1-.72.16,1.63,1.63,0,0,1-.84-.19,1.61,1.61,0,0,1-.54-.53,2.2,2.2,0,0,1-.27-.73,3.8,3.8,0,0,1-.08-.82v-.25A3.59,3.59,0,0,1,71.27,169.7Z"></path><path class="cls-2" d="M73.27,137.92v1.54H72.11v.84h1.16v3.93a2.22,2.22,0,0,0,.19,1,1.16,1.16,0,0,0,.53.52,1.66,1.66,0,0,0,.73.16,2.35,2.35,0,0,0,.5,0,1.71,1.71,0,0,0,.34-.08v-.88l-.23.05-.28,0a1.21,1.21,0,0,1-.34-.05.5.5,0,0,1-.26-.22.92.92,0,0,1-.1-.49V140.3h1.18v-.84H74.35v-1.54Z"></path><path class="cls-2" d="M129.36,208.39a.63.63,0,0,0,.47-.17.62.62,0,0,0-.47-1.06.62.62,0,0,0-.48.18.69.69,0,0,0,0,.88A.65.65,0,0,0,129.36,208.39Z"></path><path class="cls-2" d="M65.19,187.68a2.92,2.92,0,0,0,1.2.24,2.86,2.86,0,0,0,1.2-.24,2.65,2.65,0,0,0,.91-.68,3.19,3.19,0,0,0,.58-1,4,4,0,0,0,.2-1.28v-.13a4,4,0,0,0-.2-1.27,3.13,3.13,0,0,0-.58-1,2.6,2.6,0,0,0-.92-.68,3.1,3.1,0,0,0-2.39,0,2.56,2.56,0,0,0-.91.68,3.13,3.13,0,0,0-.58,1,4,4,0,0,0-.2,1.27v.13a4,4,0,0,0,.2,1.28,3.19,3.19,0,0,0,.58,1A2.65,2.65,0,0,0,65.19,187.68Zm-.6-3.11a3.53,3.53,0,0,1,.11-.88,2.44,2.44,0,0,1,.33-.75,1.63,1.63,0,0,1,.57-.51,1.5,1.5,0,0,1,.78-.19,1.57,1.57,0,0,1,.79.19,1.6,1.6,0,0,1,.56.51,2.45,2.45,0,0,1,.34.75,3.12,3.12,0,0,1,.12.88v.13a3.26,3.26,0,0,1-.12.9,2.51,2.51,0,0,1-.34.74,1.54,1.54,0,0,1-1.34.69,1.67,1.67,0,0,1-.79-.18,2,2,0,0,1-.57-.51,2.49,2.49,0,0,1-.33-.74,3.7,3.7,0,0,1-.11-.9Z"></path><path class="cls-2" d="M69.6,154.24a3.15,3.15,0,0,0-.51,1,4.58,4.58,0,0,0-.18,1.32v.12a4.42,4.42,0,0,0,.18,1.29,3.25,3.25,0,0,0,.51,1,2.3,2.3,0,0,0,.79.67,2.19,2.19,0,0,0,1,.24,2.62,2.62,0,0,0,1-.2,2.11,2.11,0,0,0,.76-.6l0,.68h1v-9H73.18v3.31a2.16,2.16,0,0,0-.72-.55,2.38,2.38,0,0,0-1-.21,2.33,2.33,0,0,0-1,.23A2.17,2.17,0,0,0,69.6,154.24Zm1.32.21a1.47,1.47,0,0,1,.77-.19,1.73,1.73,0,0,1,.71.14,1.62,1.62,0,0,1,.51.38,2.39,2.39,0,0,1,.27.43V158s0,.09-.05.13a1.73,1.73,0,0,1-.57.6,1.5,1.5,0,0,1-.88.23,1.39,1.39,0,0,1-1.28-.67,2.16,2.16,0,0,1-.3-.73,3.71,3.71,0,0,1-.1-.9v-.12a3.68,3.68,0,0,1,.1-.89,2.13,2.13,0,0,1,.3-.74A1.55,1.55,0,0,1,70.92,154.45Z"></path><path class="cls-2" d="M58.24,183.35a2.73,2.73,0,0,1,.24-.45,1.71,1.71,0,0,1,.57-.47,1.64,1.64,0,0,1,.74-.17,1.6,1.6,0,0,1,.69.14.92.92,0,0,1,.43.44,1.81,1.81,0,0,1,.15.8v4.16h1.08v-4.15a3.28,3.28,0,0,0-.14-1.06,1.81,1.81,0,0,0-.41-.72,1.46,1.46,0,0,0-.63-.39,2.53,2.53,0,0,0-.85-.13,2.31,2.31,0,0,0-1,.23,2.34,2.34,0,0,0-.81.63l0,0,0-.8h-1v6.34h1.08Z"></path><path class="cls-2" d="M107.31,238.11a2.16,2.16,0,0,0-.72-.55,2.38,2.38,0,0,0-1-.21,2.33,2.33,0,0,0-1,.23,2.25,2.25,0,0,0-.79.66,3.15,3.15,0,0,0-.51,1,4.58,4.58,0,0,0-.18,1.32v.12a4.42,4.42,0,0,0,.18,1.29,3.25,3.25,0,0,0,.51,1,2.4,2.4,0,0,0,.79.67,2.19,2.19,0,0,0,1,.24,2.62,2.62,0,0,0,1-.2,2.11,2.11,0,0,0,.76-.6l.05.68h1v-9h-1.09Zm-.62,4.66a1.5,1.5,0,0,1-.88.23,1.39,1.39,0,0,1-1.28-.67,2.16,2.16,0,0,1-.3-.73,3.71,3.71,0,0,1-.1-.9v-.12a3.68,3.68,0,0,1,.1-.89,2.13,2.13,0,0,1,.3-.74,1.55,1.55,0,0,1,.52-.5,1.47,1.47,0,0,1,.77-.19,1.73,1.73,0,0,1,.71.14,1.62,1.62,0,0,1,.51.38,2.39,2.39,0,0,1,.27.43V242s0,.09,0,.13A1.64,1.64,0,0,1,106.69,242.77Z"></path><path class="cls-2" d="M114.56,238.24a2.19,2.19,0,0,0-.81-.66,2.81,2.81,0,0,0-1.17-.23,2.6,2.6,0,0,0-1,.21,2.8,2.8,0,0,0-.9.64,3.29,3.29,0,0,0-.62,1,4,4,0,0,0-.22,1.38v.25a3.53,3.53,0,0,0,.2,1.23,2.81,2.81,0,0,0,.59,1,2.62,2.62,0,0,0,.92.64,3.09,3.09,0,0,0,1.2.22,3.14,3.14,0,0,0,1.08-.17,2.48,2.48,0,0,0,.78-.46,3.1,3.1,0,0,0,.52-.59l-.65-.52a2.41,2.41,0,0,1-.7.62,2,2,0,0,1-1.77.07,1.81,1.81,0,0,1-.59-.47,2.09,2.09,0,0,1-.37-.69,2.76,2.76,0,0,1-.12-.77h4.28v-.49a4.82,4.82,0,0,0-.15-1.23A2.79,2.79,0,0,0,114.56,238.24Zm-.46,1.81h-3.17a3,3,0,0,1,.09-.45,2.47,2.47,0,0,1,.34-.75,1.45,1.45,0,0,1,.54-.45,1.39,1.39,0,0,1,.68-.16,1.34,1.34,0,0,1,.88.26,1.44,1.44,0,0,1,.46.65,2.63,2.63,0,0,1,.18.82Z"></path><path class="cls-2" d="M53.94,112.24a2.3,2.3,0,0,0-.82-.66,2.81,2.81,0,0,0-1.17-.23,2.6,2.6,0,0,0-1,.21,2.76,2.76,0,0,0-.89.64,3.11,3.11,0,0,0-.62,1,3.77,3.77,0,0,0-.23,1.38v.25a3.78,3.78,0,0,0,.2,1.23,3,3,0,0,0,.59,1,2.72,2.72,0,0,0,.92.64,3.09,3.09,0,0,0,1.2.22,3.14,3.14,0,0,0,1.08-.17,2.48,2.48,0,0,0,.78-.46,3.1,3.1,0,0,0,.52-.59l-.65-.52a2.29,2.29,0,0,1-.7.62,1.84,1.84,0,0,1-1,.24,1.88,1.88,0,0,1-.8-.17,1.81,1.81,0,0,1-.59-.47,2.29,2.29,0,0,1-.37-.69,3.18,3.18,0,0,1-.12-.77h4.29v-.49a4.41,4.41,0,0,0-.16-1.23A2.77,2.77,0,0,0,53.94,112.24Zm-.47,1.81H50.3a3,3,0,0,1,.09-.45,2.26,2.26,0,0,1,.35-.75,1.49,1.49,0,0,1,1.21-.61,1.34,1.34,0,0,1,.88.26,1.54,1.54,0,0,1,.47.65,2.61,2.61,0,0,1,.17.82Z"></path><path class="cls-2" d="M116.68,215.88a1.9,1.9,0,0,0,.34-.08v-.88l-.23.05-.28,0a1.27,1.27,0,0,1-.34-.05.54.54,0,0,1-.26-.22,1,1,0,0,1-.09-.49V210.3H117v-.84h-1.18v-1.54h-1.09v1.54h-1.16v.84h1.16v3.93a2.36,2.36,0,0,0,.19,1,1.18,1.18,0,0,0,.54.52,1.6,1.6,0,0,0,.73.16A2.41,2.41,0,0,0,116.68,215.88Z"></path><path class="cls-2" d="M55.55,144.23a2.22,2.22,0,0,0,.19,1,1.16,1.16,0,0,0,.53.52,1.67,1.67,0,0,0,.74.16,2.31,2.31,0,0,0,.49,0,1.71,1.71,0,0,0,.34-.08v-.88l-.23.05-.28,0a1.21,1.21,0,0,1-.34-.05.5.5,0,0,1-.26-.22.92.92,0,0,1-.1-.49V140.3h1.18v-.84H56.63v-1.54H55.55v1.54H54.39v.84h1.16Z"></path><path class="cls-2" d="M47.58,126.24a3.13,3.13,0,0,0-.5,1,5,5,0,0,0-.17,1.32v.12a4.79,4.79,0,0,0,.17,1.29,3.47,3.47,0,0,0,.5,1,2.3,2.3,0,0,0,.79.67,2.2,2.2,0,0,0,1,.24,2.71,2.71,0,0,0,1.06-.2,2.33,2.33,0,0,0,.72-.56v.56a1.88,1.88,0,0,1-.21.93,1.39,1.39,0,0,1-.58.57,1.93,1.93,0,0,1-.9.2,2.27,2.27,0,0,1-.86-.19,2.3,2.3,0,0,1-.83-.67l-.57.64a2,2,0,0,0,.71.66,3.28,3.28,0,0,0,.86.34,3.54,3.54,0,0,0,.78.11A3.09,3.09,0,0,0,51,134a2.29,2.29,0,0,0,1-.9,2.8,2.8,0,0,0,.34-1.43v-6.21h-1l-.05.71h0a2.11,2.11,0,0,0-.76-.6,2.46,2.46,0,0,0-1.05-.21,2.37,2.37,0,0,0-1,.23A2.17,2.17,0,0,0,47.58,126.24Zm1.33.21a1.44,1.44,0,0,1,.77-.19,1.73,1.73,0,0,1,.71.14,1.62,1.62,0,0,1,.51.38,2.2,2.2,0,0,1,.28.44V130c0,.05,0,.11-.07.16a1.67,1.67,0,0,1-.55.6,1.81,1.81,0,0,1-1.65.06,1.55,1.55,0,0,1-.52-.5,2.16,2.16,0,0,1-.3-.73,4.28,4.28,0,0,1-.1-.9v-.12a4.26,4.26,0,0,1,.1-.89,2.13,2.13,0,0,1,.3-.74A1.46,1.46,0,0,1,48.91,126.45Z"></path><path class="cls-2" d="M120.23,240.57a6.39,6.39,0,0,0-1.28-.42,6.76,6.76,0,0,1-.74-.2,2,2,0,0,1-.44-.21.63.63,0,0,1-.22-.25.83.83,0,0,1-.06-.32.92.92,0,0,1,.12-.45,1,1,0,0,1,.4-.34,1.6,1.6,0,0,1,.74-.14,1.47,1.47,0,0,1,.72.16,1.15,1.15,0,0,1,.45.42,1,1,0,0,1,.16.51h1.08a1.77,1.77,0,0,0-.29-1,2,2,0,0,0-.82-.72,2.9,2.9,0,0,0-1.3-.27,3.24,3.24,0,0,0-1,.14,2.29,2.29,0,0,0-.74.41,1.79,1.79,0,0,0-.48.59,1.57,1.57,0,0,0-.16.71,1.34,1.34,0,0,0,.16.68,1.37,1.37,0,0,0,.45.51,2.71,2.71,0,0,0,.72.37,6.77,6.77,0,0,0,1,.27,3.5,3.5,0,0,1,.94.29.92.92,0,0,1,.42.37.91.91,0,0,1,.1.43.72.72,0,0,1-.16.47.93.93,0,0,1-.46.32,2,2,0,0,1-.74.12,2.29,2.29,0,0,1-.68-.1,1.38,1.38,0,0,1-.57-.37,1.15,1.15,0,0,1-.26-.71h-1.09a1.85,1.85,0,0,0,.3,1,2.15,2.15,0,0,0,.88.77,3,3,0,0,0,1.42.3,3.46,3.46,0,0,0,1-.13,2.65,2.65,0,0,0,.77-.39,1.68,1.68,0,0,0,.5-.6,1.6,1.6,0,0,0,.17-.76,1.53,1.53,0,0,0-.24-.87A2,2,0,0,0,120.23,240.57Z"></path><polygon class="cls-2" points="45.82 116.32 44.21 111.47 43.1 111.47 45.39 117.81 45.49 117.81 46.12 117.81 46.22 117.81 48.5 111.47 47.39 111.47 45.82 116.32"></polygon><path class="cls-2" d="M50.25,195.46H49.16v4.6a1.49,1.49,0,0,1-.56.68,2,2,0,0,1-1.09.26,1.67,1.67,0,0,1-.44-.06,1,1,0,0,1-.37-.23,1,1,0,0,1-.26-.43,2.09,2.09,0,0,1-.1-.71v-4.11H45.26v4.09a3.8,3.8,0,0,0,.14,1.09,2.08,2.08,0,0,0,.43.73,1.7,1.7,0,0,0,.66.42,2.57,2.57,0,0,0,.85.13,2.65,2.65,0,0,0,1.15-.22,1.88,1.88,0,0,0,.7-.54l0,.64h1Z"></path><path class="cls-2" d="M44.23,180.79a2.75,2.75,0,0,1,.14-.88,3.35,3.35,0,0,1,.42-.79l-.62-.43a2.75,2.75,0,0,0-.55.62,3.19,3.19,0,0,0-.35.75,2.55,2.55,0,0,0-.12.75v.71h1.08Z"></path><path class="cls-2" d="M52.3,173.92a3.55,3.55,0,0,0,1.71-.37,2.79,2.79,0,0,0,1.06-1,3.64,3.64,0,0,0,.46-1.45H54.4a3.28,3.28,0,0,1-.31,1,1.51,1.51,0,0,1-.65.65,2.31,2.31,0,0,1-1.14.23,2.07,2.07,0,0,1-1-.23,2,2,0,0,1-.68-.66,3.15,3.15,0,0,1-.41-1,5.44,5.44,0,0,1-.13-1.17v-.86a4.73,4.73,0,0,1,.15-1.24,3,3,0,0,1,.43-1,2.1,2.1,0,0,1,.72-.61,2.16,2.16,0,0,1,1-.22,2.13,2.13,0,0,1,1.08.24,1.6,1.6,0,0,1,.63.66,3,3,0,0,1,.3,1h1.13a3.63,3.63,0,0,0-.46-1.48,2.66,2.66,0,0,0-1-1,3.83,3.83,0,0,0-3.06-.08,2.93,2.93,0,0,0-1.08.8,3.7,3.7,0,0,0-.69,1.25,5.53,5.53,0,0,0-.23,1.63V170a5.58,5.58,0,0,0,.23,1.63,3.71,3.71,0,0,0,.68,1.24,2.94,2.94,0,0,0,1,.8A3.23,3.23,0,0,0,52.3,173.92Z"></path><rect class="cls-2" x="52.33" y="139.46" width="1.09" height="6.34"></rect><path class="cls-2" d="M42.32,145.06a2.82,2.82,0,0,0,.92.64,3.09,3.09,0,0,0,1.2.22,3.24,3.24,0,0,0,1.09-.17,2.48,2.48,0,0,0,.78-.46,3.49,3.49,0,0,0,.52-.59l-.66-.52a2.29,2.29,0,0,1-.7.62,1.81,1.81,0,0,1-1,.24,1.75,1.75,0,0,1-1.39-.64,2.29,2.29,0,0,1-.37-.69,2.76,2.76,0,0,1-.11-.77h4.28v-.49a4.82,4.82,0,0,0-.15-1.23,2.79,2.79,0,0,0-.47-1,2.14,2.14,0,0,0-.82-.66,2.74,2.74,0,0,0-1.17-.23,2.64,2.64,0,0,0-1,.21,2.76,2.76,0,0,0-.89.64,3.11,3.11,0,0,0-.62,1,4,4,0,0,0-.23,1.38v.25a3.53,3.53,0,0,0,.21,1.23A2.79,2.79,0,0,0,42.32,145.06Zm.77-4.21a1.5,1.5,0,0,1,.53-.45,1.45,1.45,0,0,1,.68-.16,1.32,1.32,0,0,1,.88.26,1.46,1.46,0,0,1,.47.65,2.94,2.94,0,0,1,.18.82v.08H42.66a3,3,0,0,1,.08-.45A2.48,2.48,0,0,1,43.09,140.85Z"></path><path class="cls-2" d="M50.13,212.45a4.41,4.41,0,0,0-.16-1.23,2.77,2.77,0,0,0-.46-1,2.22,2.22,0,0,0-.82-.66,2.81,2.81,0,0,0-1.17-.23,2.6,2.6,0,0,0-1,.21,2.76,2.76,0,0,0-.89.64,3.11,3.11,0,0,0-.62,1,3.77,3.77,0,0,0-.23,1.38v.25a3.78,3.78,0,0,0,.2,1.23,3,3,0,0,0,.59,1,2.72,2.72,0,0,0,.92.64,3.09,3.09,0,0,0,1.2.22,3.14,3.14,0,0,0,1.08-.17,2.48,2.48,0,0,0,.78-.46,3.57,3.57,0,0,0,.53-.59l-.66-.52a2.29,2.29,0,0,1-.7.62,1.84,1.84,0,0,1-1,.24,1.88,1.88,0,0,1-.8-.17,1.81,1.81,0,0,1-.59-.47,2.29,2.29,0,0,1-.37-.69,3.18,3.18,0,0,1-.12-.77h4.29Zm-1.09-.4H45.87a3,3,0,0,1,.09-.45,2.26,2.26,0,0,1,.35-.75,1.49,1.49,0,0,1,1.21-.61,1.34,1.34,0,0,1,.88.26,1.54,1.54,0,0,1,.47.65A2.61,2.61,0,0,1,49,212Z"></path><path class="cls-2" d="M144.08,196.27a2.6,2.6,0,0,0-.92-.68,3.1,3.1,0,0,0-2.39,0,2.56,2.56,0,0,0-.91.68,3.13,3.13,0,0,0-.58,1,4,4,0,0,0-.2,1.27v.13a4,4,0,0,0,.2,1.28,3.19,3.19,0,0,0,.58,1,2.65,2.65,0,0,0,.91.68,2.92,2.92,0,0,0,1.2.24,2.86,2.86,0,0,0,1.2-.24,2.65,2.65,0,0,0,.91-.68,3.19,3.19,0,0,0,.58-1,4,4,0,0,0,.2-1.28v-.13a4,4,0,0,0-.2-1.27A3.13,3.13,0,0,0,144.08,196.27Zm-.31,2.43a3.26,3.26,0,0,1-.12.9,2.49,2.49,0,0,1-.33.74,1.75,1.75,0,0,1-.57.51,1.61,1.61,0,0,1-.78.18,1.67,1.67,0,0,1-.79-.18,2,2,0,0,1-.57-.51,2.26,2.26,0,0,1-.33-.74,3.7,3.7,0,0,1-.11-.9v-.13a3.53,3.53,0,0,1,.11-.88,2.22,2.22,0,0,1,.33-.75,1.63,1.63,0,0,1,.57-.51,1.5,1.5,0,0,1,.78-.19,1.57,1.57,0,0,1,.79.19,1.6,1.6,0,0,1,.56.51,2.24,2.24,0,0,1,.34.75,3.12,3.12,0,0,1,.12.88Z"></path><path class="cls-2" d="M113.88,195.46h-1l0,.71h0a2,2,0,0,0-.76-.6,2.38,2.38,0,0,0-1-.21,2.34,2.34,0,0,0-1,.23,2.09,2.09,0,0,0-.79.66,3,3,0,0,0-.5,1,4.59,4.59,0,0,0-.17,1.32v.12a4.42,4.42,0,0,0,.17,1.29,3,3,0,0,0,.5,1,2.3,2.3,0,0,0,.79.67,2.2,2.2,0,0,0,1,.24,2.62,2.62,0,0,0,1-.2,2.22,2.22,0,0,0,.72-.56v.56a1.88,1.88,0,0,1-.21.93,1.33,1.33,0,0,1-.58.57,1.89,1.89,0,0,1-.89.2,2.36,2.36,0,0,1-.87-.19,2.47,2.47,0,0,1-.83-.67l-.57.64a2.23,2.23,0,0,0,.71.66,3.72,3.72,0,0,0,1.64.45,3.1,3.1,0,0,0,1.4-.31,2.35,2.35,0,0,0,1-.9,2.91,2.91,0,0,0,.34-1.43Zm-1.15,4.71a1.62,1.62,0,0,1-.56.6,1.53,1.53,0,0,1-.89.23,1.42,1.42,0,0,1-1.28-.67,2.37,2.37,0,0,1-.29-.73,3.71,3.71,0,0,1-.1-.9v-.12a3.68,3.68,0,0,1,.1-.89A2.33,2.33,0,0,1,110,197a1.49,1.49,0,0,1,.53-.5,1.43,1.43,0,0,1,.76-.19,1.74,1.74,0,0,1,.72.14,1.62,1.62,0,0,1,.51.38,1.79,1.79,0,0,1,.27.44V200A1,1,0,0,1,112.73,200.17Z"></path><path class="cls-2" d="M37.47,117a2.56,2.56,0,0,0,.91.68,3.12,3.12,0,0,0,2.4,0,2.62,2.62,0,0,0,.9-.68,2.86,2.86,0,0,0,.58-1,3.76,3.76,0,0,0,.2-1.27v-.14a3.72,3.72,0,0,0-.2-1.27,2.82,2.82,0,0,0-.58-1,2.56,2.56,0,0,0-.91-.68,3.12,3.12,0,0,0-2.4,0,2.62,2.62,0,0,0-.9.68,3,3,0,0,0-.58,1,4,4,0,0,0-.2,1.27v.14a4,4,0,0,0,.2,1.27A3,3,0,0,0,37.47,117Zm.31-2.43a3.12,3.12,0,0,1,.11-.88,2.22,2.22,0,0,1,.33-.75,1.6,1.6,0,0,1,.56-.51,1.57,1.57,0,0,1,.79-.19,1.5,1.5,0,0,1,.78.19,1.55,1.55,0,0,1,.57.51,2.45,2.45,0,0,1,.34.75,3.53,3.53,0,0,1,.11.88v.14a3.68,3.68,0,0,1-.11.89,2.4,2.4,0,0,1-.34.74,1.71,1.71,0,0,1-.56.51,1.61,1.61,0,0,1-.78.18,1.67,1.67,0,0,1-.79-.18,1.75,1.75,0,0,1-.57-.51,2.17,2.17,0,0,1-.33-.74,3.24,3.24,0,0,1-.11-.89Z"></path><path class="cls-2" d="M115.88,187.8v-4.08a1.47,1.47,0,0,1,.08-.51,1.6,1.6,0,0,1,.28-.49,1.5,1.5,0,0,1,.47-.34,1.54,1.54,0,0,1,.63-.12,1.94,1.94,0,0,1,.72.12.89.89,0,0,1,.46.42,1.61,1.61,0,0,1,.17.83v4.17h1.09v-4.16a3.17,3.17,0,0,0-.14-1,1.71,1.71,0,0,0-.41-.71,1.66,1.66,0,0,0-.67-.42,2.75,2.75,0,0,0-.9-.13,2.48,2.48,0,0,0-1.08.22,2.31,2.31,0,0,0-.79.59l-.15.22a1.82,1.82,0,0,0-.34-.51,1.7,1.7,0,0,0-.66-.39,2.39,2.39,0,0,0-.82-.13,2.45,2.45,0,0,0-1.11.23,2.3,2.3,0,0,0-.76.58l0-.7h-1v6.34H112v-4.56a3.45,3.45,0,0,1,.14-.34,1.31,1.31,0,0,1,.52-.47,1.92,1.92,0,0,1,1.51,0,1,1,0,0,1,.47.44,1.6,1.6,0,0,1,.17.79v4.17Z"></path><path class="cls-2" d="M126.47,187.71a3,3,0,0,1-.17-.61,4.11,4.11,0,0,1,0-.68v-2.95a2.07,2.07,0,0,0-.31-1.18,1.86,1.86,0,0,0-.83-.71,3.4,3.4,0,0,0-2.26-.07,2.47,2.47,0,0,0-.8.44,1.77,1.77,0,0,0-.5.6,1.4,1.4,0,0,0-.18.67h1.09a.82.82,0,0,1,.16-.49,1.25,1.25,0,0,1,.49-.37,1.74,1.74,0,0,1,.72-.14,1.65,1.65,0,0,1,.74.15,1,1,0,0,1,.44.44,1.33,1.33,0,0,1,.15.65v.5h-1.07a4.77,4.77,0,0,0-1.18.14,2.85,2.85,0,0,0-.9.39,1.77,1.77,0,0,0-.57.65,1.87,1.87,0,0,0-.2.9,1.78,1.78,0,0,0,.26,1,2,2,0,0,0,.75.67,2.41,2.41,0,0,0,1.13.25,2.52,2.52,0,0,0,.93-.17,3,3,0,0,0,.71-.46.91.91,0,0,0,.17-.17c0,.06,0,.12,0,.19a1.72,1.72,0,0,0,.13.49h1.13Zm-2-1a1.82,1.82,0,0,1-.88.21,1.36,1.36,0,0,1-.67-.14,1,1,0,0,1-.41-.39,1.12,1.12,0,0,1-.13-.55,1,1,0,0,1,.13-.51,1,1,0,0,1,.37-.36,1.9,1.9,0,0,1,.61-.22,4.1,4.1,0,0,1,.83-.08h.89V186a2.18,2.18,0,0,1-.14.25A1.89,1.89,0,0,1,124.42,186.76Z"></path><path class="cls-2" d="M99.08,201.24a1.16,1.16,0,0,0,.53.52,1.63,1.63,0,0,0,.73.16,2.41,2.41,0,0,0,.5,0,1.9,1.9,0,0,0,.34-.08v-.88L101,201l-.29,0a1.27,1.27,0,0,1-.34-.05.48.48,0,0,1-.25-.22.92.92,0,0,1-.1-.49V196.3h1.18v-.84H100v-1.54H98.88v1.54H97.72v.84h1.16v3.93A2.21,2.21,0,0,0,99.08,201.24Z"></path><path class="cls-2" d="M106.44,212.45a4.41,4.41,0,0,0-.16-1.23,2.63,2.63,0,0,0-.47-1,2.19,2.19,0,0,0-.81-.66,2.81,2.81,0,0,0-1.17-.23,2.6,2.6,0,0,0-1,.21,2.76,2.76,0,0,0-.89.64,3,3,0,0,0-.62,1,3.77,3.77,0,0,0-.23,1.38v.25a3.78,3.78,0,0,0,.2,1.23,2.81,2.81,0,0,0,.59,1,2.72,2.72,0,0,0,.92.64,3.09,3.09,0,0,0,1.2.22,3.14,3.14,0,0,0,1.08-.17,2.48,2.48,0,0,0,.78-.46,3.1,3.1,0,0,0,.52-.59l-.65-.52a2.29,2.29,0,0,1-.7.62,2,2,0,0,1-1.77.07,1.81,1.81,0,0,1-.59-.47,2.29,2.29,0,0,1-.37-.69,3.18,3.18,0,0,1-.12-.77h4.29Zm-1.09-.4h-3.17a3,3,0,0,1,.09-.45,2.26,2.26,0,0,1,.35-.75,1.35,1.35,0,0,1,.53-.45,1.42,1.42,0,0,1,.68-.16,1.34,1.34,0,0,1,.88.26,1.54,1.54,0,0,1,.47.65,2.61,2.61,0,0,1,.17.82Z"></path><path class="cls-2" d="M112.69,215.8v-4.15a3.58,3.58,0,0,0-.14-1.06,1.94,1.94,0,0,0-.41-.72,1.56,1.56,0,0,0-.64-.39,2.49,2.49,0,0,0-.85-.13,2.24,2.24,0,0,0-1,.23,2.17,2.17,0,0,0-.81.63l0,0,0-.8h-1v6.34h1.09v-4.45a1.63,1.63,0,0,1,.8-.92,1.68,1.68,0,0,1,.74-.17,1.54,1.54,0,0,1,.69.14.92.92,0,0,1,.43.44,1.81,1.81,0,0,1,.15.8v4.16Z"></path><path class="cls-2" d="M142.91,209.87a1.56,1.56,0,0,0-.64-.39,2.47,2.47,0,0,0-.84-.13,2.28,2.28,0,0,0-1.05.23,2.34,2.34,0,0,0-.81.63.1.1,0,0,1,0,0l0-.8h-1v6.34h1.09v-4.45a2.14,2.14,0,0,1,.24-.45,1.71,1.71,0,0,1,.57-.47,1.64,1.64,0,0,1,.74-.17,1.6,1.6,0,0,1,.69.14.9.9,0,0,1,.42.44,1.81,1.81,0,0,1,.15.8v4.16h1.09v-4.15a3.58,3.58,0,0,0-.14-1.06A1.81,1.81,0,0,0,142.91,209.87Z"></path><rect class="cls-2" x="106.71" y="223.46" width="1.09" height="6.34"></rect><path class="cls-2" d="M107.74,221.34a.73.73,0,0,0-1,0,.68.68,0,0,0,0,.88.76.76,0,0,0,1,0,.65.65,0,0,0,0-.88Z"></path><path class="cls-2" d="M114.58,221.34a.61.61,0,0,0-.47-.18.59.59,0,0,0-.48.18.68.68,0,0,0,0,.88.62.62,0,0,0,.48.17.62.62,0,0,0,.47-1Z"></path><rect class="cls-2" x="140.86" y="111.47" width="1.09" height="6.34"></rect><path class="cls-2" d="M143.27,124.15a.87.87,0,0,1,.38-.4,1.16,1.16,0,0,1,.6-.14h.3l.28,0,.06-.88a2.21,2.21,0,0,0-.37-.08l-.38,0a2.28,2.28,0,0,0-1.11.25,1.6,1.6,0,0,0-.72.71,2.4,2.4,0,0,0-.25,1.16v.66h-1v.84h1v5.5h1.09v-5.5h1.34v-.84h-1.34v-.66A1.54,1.54,0,0,1,143.27,124.15Z"></path><path class="cls-2" d="M155.38,112.59a1.71,1.71,0,0,0-.41-.71,1.48,1.48,0,0,0-.64-.4,2.47,2.47,0,0,0-.84-.13,2.38,2.38,0,0,0-1.86.86.1.1,0,0,1,0,.05l0-.79h-1v6.33h1.09v-4.45a2.14,2.14,0,0,1,.24-.45,1.84,1.84,0,0,1,.57-.47,1.63,1.63,0,0,1,.73-.17,1.62,1.62,0,0,1,.7.14.9.9,0,0,1,.42.44,1.81,1.81,0,0,1,.15.8v4.16h1.09v-4.15A3.58,3.58,0,0,0,155.38,112.59Z"></path><path class="cls-2" d="M145.08,111.59a2.62,2.62,0,0,0-.9.68,3,3,0,0,0-.58,1,4,4,0,0,0-.2,1.27v.14a4,4,0,0,0,.2,1.27,3,3,0,0,0,.58,1,2.56,2.56,0,0,0,.91.68,2.92,2.92,0,0,0,1.2.24,2.86,2.86,0,0,0,1.2-.24,2.65,2.65,0,0,0,.91-.68,3,3,0,0,0,.57-1,3.76,3.76,0,0,0,.2-1.27v-.14a3.72,3.72,0,0,0-.2-1.27,3,3,0,0,0-.57-1,2.6,2.6,0,0,0-.92-.68,3.12,3.12,0,0,0-2.4,0Zm2.55,1.35a2.45,2.45,0,0,1,.34.75,3.53,3.53,0,0,1,.11.88v.14a3.68,3.68,0,0,1-.11.89,2.4,2.4,0,0,1-.34.74,1.71,1.71,0,0,1-.56.51,1.61,1.61,0,0,1-.78.18,1.67,1.67,0,0,1-.79-.18,1.75,1.75,0,0,1-.57-.51,2.17,2.17,0,0,1-.33-.74,3.24,3.24,0,0,1-.11-.89v-.14a3.12,3.12,0,0,1,.11-.88,2.22,2.22,0,0,1,.33-.75,1.6,1.6,0,0,1,.56-.51,1.74,1.74,0,0,1,1.58,0A1.6,1.6,0,0,1,147.63,112.94Z"></path><path class="cls-2" d="M146.67,144.8a1.73,1.73,0,0,0,.17-.76,1.53,1.53,0,0,0-.24-.87,2,2,0,0,0-.75-.6,6.51,6.51,0,0,0-1.29-.42,7.17,7.17,0,0,1-.73-.2,2,2,0,0,1-.44-.21.76.76,0,0,1-.23-.25.83.83,0,0,1-.06-.32.93.93,0,0,1,.13-.45.91.91,0,0,1,.4-.34,1.56,1.56,0,0,1,.73-.14,1.42,1.42,0,0,1,.72.16,1.25,1.25,0,0,1,.46.42,1,1,0,0,1,.15.51h1.09a1.77,1.77,0,0,0-.29-1,2,2,0,0,0-.83-.72,2.87,2.87,0,0,0-1.3-.27,3.22,3.22,0,0,0-1,.14,2.46,2.46,0,0,0-.75.41,1.89,1.89,0,0,0-.47.59,1.58,1.58,0,0,0-.17.71,1.45,1.45,0,0,0,.16.68,1.57,1.57,0,0,0,.45.51,2.71,2.71,0,0,0,.72.37,7.34,7.34,0,0,0,1,.27,3.5,3.5,0,0,1,.94.29.84.84,0,0,1,.41.37.92.92,0,0,1,.11.43.72.72,0,0,1-.16.47,1,1,0,0,1-.46.32,2,2,0,0,1-.75.12,2.27,2.27,0,0,1-.67-.1,1.31,1.31,0,0,1-.57-.37,1.1,1.1,0,0,1-.26-.71H141.8a1.85,1.85,0,0,0,.3,1,2.12,2.12,0,0,0,.87.77,3.07,3.07,0,0,0,1.42.3,3.53,3.53,0,0,0,1-.13,2.78,2.78,0,0,0,.77-.39A1.79,1.79,0,0,0,146.67,144.8Z"></path><path class="cls-2" d="M141.42,110.39a.62.62,0,0,0,.47-1,.72.72,0,0,0-.95,0,.69.69,0,0,0,0,.88A.64.64,0,0,0,141.42,110.39Z"></path><path class="cls-2" d="M125.17,207.92v1.54H124v.84h1.16v3.93a2.21,2.21,0,0,0,.2,1,1.16,1.16,0,0,0,.53.52,1.63,1.63,0,0,0,.73.16,2.41,2.41,0,0,0,.5,0,1.71,1.71,0,0,0,.34-.08v-.88l-.22.05-.28,0a1.16,1.16,0,0,1-.34-.05.47.47,0,0,1-.26-.22.92.92,0,0,1-.1-.49V210.3h1.18v-.84h-1.18v-1.54Z"></path><path class="cls-2" d="M125,195.35a1.7,1.7,0,0,0-.89.22,1.78,1.78,0,0,0-.61.61v0l0-.74h-1v6.34h1.08v-4.49a1.72,1.72,0,0,1,.3-.47,1.32,1.32,0,0,1,.49-.33,1.69,1.69,0,0,1,.66-.12h.27l.26,0v-1a.64.64,0,0,0-.21-.05Z"></path><path class="cls-2" d="M137,194.15a.85.85,0,0,1,.37-.4,1.16,1.16,0,0,1,.6-.14h.3l.28,0,.06-.88a2.21,2.21,0,0,0-.37-.08l-.38,0a2.28,2.28,0,0,0-1.11.25,1.7,1.7,0,0,0-.72.71,2.52,2.52,0,0,0-.25,1.16v.66h-1v.84h1v5.5h1.09v-5.5h1.34v-.84h-1.34v-.66A1.39,1.39,0,0,1,137,194.15Z"></path><path class="cls-2" d="M148.8,195.35a1.66,1.66,0,0,0-1.5.83v0l0-.74h-1.06v6.34h1.09v-4.49a1.51,1.51,0,0,1,.3-.47,1.37,1.37,0,0,1,.48-.33,1.78,1.78,0,0,1,.67-.12H149l.25,0v-1a.64.64,0,0,0-.21-.05Z"></path><path class="cls-2" d="M132.89,187.24a1.16,1.16,0,0,0,.53.52,1.67,1.67,0,0,0,.74.16,2.31,2.31,0,0,0,.49,0,1.71,1.71,0,0,0,.34-.08v-.88l-.23.05-.28,0a1.21,1.21,0,0,1-.34-.05.5.5,0,0,1-.26-.22,1,1,0,0,1-.1-.49V182.3H135v-.84h-1.18v-1.54H132.7v1.54h-1.16v.84h1.16v3.93A2.22,2.22,0,0,0,132.89,187.24Z"></path><rect class="cls-2" x="113.55" y="223.46" width="1.09" height="6.34"></rect><path class="cls-2" d="M128.61,200.21,127,195.46h-1.19l2.27,6.28-.24.64a1.92,1.92,0,0,1-.31.61,1,1,0,0,1-.44.33,1.87,1.87,0,0,1-.62.1l-.15,0h-.14v.88l.28.06a2.43,2.43,0,0,0,.33,0,1.73,1.73,0,0,0,.75-.16,1.65,1.65,0,0,0,.53-.4,2.92,2.92,0,0,0,.37-.52,3.69,3.69,0,0,0,.23-.51l2.54-7.32h-1.16Z"></path><path class="cls-2" d="M53,201.76a1.6,1.6,0,0,0,.73.16,2.47,2.47,0,0,0,.5,0,1.9,1.9,0,0,0,.34-.08v-.88l-.23.05-.28,0a1.27,1.27,0,0,1-.34-.05.54.54,0,0,1-.26-.22,1,1,0,0,1-.1-.49V196.3h1.19v-.84H53.37v-1.54H52.29v1.54H51.13v.84h1.16v3.93a2.22,2.22,0,0,0,.19,1A1.18,1.18,0,0,0,53,201.76Z"></path><path class="cls-2" d="M86.57,197.7a2.52,2.52,0,0,1,.28-.74,1.5,1.5,0,0,1,.54-.52,1.53,1.53,0,0,1,.83-.2,1.43,1.43,0,0,1,.76.19,1.41,1.41,0,0,1,.52.51,1.52,1.52,0,0,1,.22.7h1a2.46,2.46,0,0,0-.35-1.17,2.22,2.22,0,0,0-.87-.82,2.75,2.75,0,0,0-1.31-.3,2.83,2.83,0,0,0-1.24.25,2.51,2.51,0,0,0-.88.69,2.94,2.94,0,0,0-.52,1,4,4,0,0,0-.17,1.21v.25a4,4,0,0,0,.17,1.21,2.94,2.94,0,0,0,.52,1,2.51,2.51,0,0,0,.88.69,2.83,2.83,0,0,0,1.24.25,2.7,2.7,0,0,0,1.24-.29,2.57,2.57,0,0,0,.91-.78,2,2,0,0,0,.38-1h-1a1.22,1.22,0,0,1-.24.64,1.43,1.43,0,0,1-.54.43,1.58,1.58,0,0,1-.72.16,1.68,1.68,0,0,1-.84-.19,1.58,1.58,0,0,1-.53-.53,2.46,2.46,0,0,1-.28-.73,4.56,4.56,0,0,1-.08-.82v-.25A4.28,4.28,0,0,1,86.57,197.7Z"></path><path class="cls-2" d="M52.51,207.34a.61.61,0,0,0-.47-.18.62.62,0,0,0-.48.18.68.68,0,0,0,0,.88.65.65,0,0,0,.48.17.64.64,0,0,0,.47-.17.65.65,0,0,0,0-.88Z"></path><rect class="cls-2" x="51.48" y="209.46" width="1.09" height="6.34"></rect><rect class="cls-2" x="128.8" y="209.46" width="1.09" height="6.34"></rect><path class="cls-2" d="M33.9,122.8v9h1l.06-.73,0,0a2.14,2.14,0,0,0,.76.61,2.71,2.71,0,0,0,1.06.2,2.2,2.2,0,0,0,1.05-.24,2.27,2.27,0,0,0,.78-.67,3.21,3.21,0,0,0,.48-1,4.8,4.8,0,0,0,.16-1.29v-.12a5,5,0,0,0-.16-1.32,3.11,3.11,0,0,0-.48-1,2.06,2.06,0,0,0-.78-.66,2.39,2.39,0,0,0-1.06-.23,2.46,2.46,0,0,0-1,.21,1.82,1.82,0,0,0-.75.6V122.8Zm1.4,4a1.62,1.62,0,0,1,.51-.38,1.73,1.73,0,0,1,.71-.14,1.46,1.46,0,0,1,.78.19,1.44,1.44,0,0,1,.51.5,2.33,2.33,0,0,1,.28.74,4.26,4.26,0,0,1,.09.89v.12a4.29,4.29,0,0,1-.09.9,2.39,2.39,0,0,1-.3.73,1.52,1.52,0,0,1-.51.5,1.54,1.54,0,0,1-.75.17,1.58,1.58,0,0,1-.89-.24,1.88,1.88,0,0,1-.58-.61A1.22,1.22,0,0,1,35,130v-2.71A1.77,1.77,0,0,1,35.3,126.78Z"></path><path class="cls-2" d="M64,200a4,4,0,0,0,.2-1.28v-.13a4,4,0,0,0-.2-1.27,2.82,2.82,0,0,0-.58-1,2.56,2.56,0,0,0-.91-.68,2.92,2.92,0,0,0-1.2-.24,2.89,2.89,0,0,0-1.2.24,2.65,2.65,0,0,0-.91.68,3,3,0,0,0-.57,1,4,4,0,0,0-.2,1.27v.13a4,4,0,0,0,.2,1.28,3,3,0,0,0,.57,1,2.69,2.69,0,0,0,.92.68,3.1,3.1,0,0,0,2.39,0,2.56,2.56,0,0,0,.91-.68A2.86,2.86,0,0,0,64,200Zm-.89-1.28a3.26,3.26,0,0,1-.12.9,2.26,2.26,0,0,1-.33.74,1.82,1.82,0,0,1-.56.51,1.8,1.8,0,0,1-1.57,0,1.75,1.75,0,0,1-.57-.51,2.51,2.51,0,0,1-.34-.74,3.7,3.7,0,0,1-.11-.9v-.13a3.53,3.53,0,0,1,.11-.88,2.45,2.45,0,0,1,.34-.75,1.6,1.6,0,0,1,.56-.51,1.57,1.57,0,0,1,.79-.19,1.5,1.5,0,0,1,.78.19,1.45,1.45,0,0,1,.56.51,2.06,2.06,0,0,1,.34.75,3.12,3.12,0,0,1,.12.88Z"></path><path class="cls-2" d="M45.55,225.7a2.27,2.27,0,0,1,.28-.74,1.47,1.47,0,0,1,.53-.52,1.58,1.58,0,0,1,.84-.2,1.39,1.39,0,0,1,.75.19,1.41,1.41,0,0,1,.52.51,1.52,1.52,0,0,1,.22.7h1a2.36,2.36,0,0,0-.35-1.17,2.22,2.22,0,0,0-.87-.82,2.71,2.71,0,0,0-1.3-.3,2.88,2.88,0,0,0-1.25.25,2.6,2.6,0,0,0-.88.69,3.12,3.12,0,0,0-.52,1,4.37,4.37,0,0,0-.17,1.21v.25a4.37,4.37,0,0,0,.17,1.21,3.12,3.12,0,0,0,.52,1,2.6,2.6,0,0,0,.88.69,2.88,2.88,0,0,0,1.25.25,2.66,2.66,0,0,0,1.23-.29,2.57,2.57,0,0,0,.91-.78,1.87,1.87,0,0,0,.38-1h-1a1.22,1.22,0,0,1-.24.64,1.43,1.43,0,0,1-.54.43,1.54,1.54,0,0,1-.71.16,1.7,1.7,0,0,1-.85-.19,1.58,1.58,0,0,1-.53-.53,2.2,2.2,0,0,1-.27-.73,3.81,3.81,0,0,1-.09-.82v-.25A3.59,3.59,0,0,1,45.55,225.7Z"></path><polygon class="cls-2" points="36.17 145.81 38.97 138.91 38.87 142.48 38.87 145.81 39.99 145.81 39.99 137.27 39.64 137.27 39.02 137.27 38.54 137.27 35.75 144.23 32.95 137.27 32.47 137.27 31.86 137.27 31.5 137.27 31.5 145.81 32.63 145.81 32.63 142.48 32.52 138.9 35.31 145.81 36.17 145.81"></polygon><path class="cls-2" d="M130,242.57a.63.63,0,0,0-.67.66.64.64,0,0,0,.17.46.65.65,0,0,0,.5.18.67.67,0,0,0,.5-.18.64.64,0,0,0,.17-.46.63.63,0,0,0-.17-.46A.64.64,0,0,0,130,242.57Z"></path><path class="cls-2" d="M70.58,201.8v-4.15a3.58,3.58,0,0,0-.14-1.06,1.94,1.94,0,0,0-.41-.72,1.56,1.56,0,0,0-.64-.39,2.49,2.49,0,0,0-.85-.13,2.31,2.31,0,0,0-1.05.23,2.22,2.22,0,0,0-.8.63l0,0,0-.8h-1v6.34h1.08v-4.45a2.73,2.73,0,0,1,.24-.45,1.71,1.71,0,0,1,.57-.47,1.68,1.68,0,0,1,.74-.17,1.6,1.6,0,0,1,.69.14.92.92,0,0,1,.43.44,1.81,1.81,0,0,1,.15.8v4.16Z"></path><rect class="cls-2" x="132.01" y="223.46" width="1.09" height="6.34"></rect><polygon class="cls-2" points="80.56 229.81 80.56 221.23 80.39 221.23 77.29 222.4 77.29 223.38 79.47 222.58 79.47 229.81 80.56 229.81"></polygon><path class="cls-2" d="M136.34,215a3.19,3.19,0,0,0,.58-1,4,4,0,0,0,.2-1.28v-.13a4,4,0,0,0-.2-1.27,3.13,3.13,0,0,0-.58-1,2.6,2.6,0,0,0-.92-.68,3.1,3.1,0,0,0-2.39,0,2.56,2.56,0,0,0-.91.68,3.13,3.13,0,0,0-.58,1,4,4,0,0,0-.2,1.27v.13a4,4,0,0,0,.2,1.28,3.19,3.19,0,0,0,.58,1,2.65,2.65,0,0,0,.91.68,2.92,2.92,0,0,0,1.2.24,2.86,2.86,0,0,0,1.2-.24A2.65,2.65,0,0,0,136.34,215Zm-1.33-.15a1.61,1.61,0,0,1-.78.18,1.67,1.67,0,0,1-.79-.18,1.85,1.85,0,0,1-.57-.51,2.26,2.26,0,0,1-.33-.74,3.27,3.27,0,0,1-.11-.9v-.13a3.12,3.12,0,0,1,.11-.88,2.22,2.22,0,0,1,.33-.75,1.63,1.63,0,0,1,.57-.51,1.5,1.5,0,0,1,.78-.19,1.57,1.57,0,0,1,.79.19,1.6,1.6,0,0,1,.56.51,2.45,2.45,0,0,1,.34.75,3.12,3.12,0,0,1,.12.88v.13a3.26,3.26,0,0,1-.12.9,2.77,2.77,0,0,1-.33.74A1.75,1.75,0,0,1,135,214.85Z"></path><path class="cls-2" d="M89.55,212.45a4.82,4.82,0,0,0-.15-1.23,2.79,2.79,0,0,0-.47-1,2.14,2.14,0,0,0-.82-.66,2.77,2.77,0,0,0-1.17-.23,2.64,2.64,0,0,0-1,.21,2.76,2.76,0,0,0-.89.64,3.11,3.11,0,0,0-.62,1,4,4,0,0,0-.23,1.38v.25a3.53,3.53,0,0,0,.21,1.23,2.79,2.79,0,0,0,.58,1,2.82,2.82,0,0,0,.92.64,3.09,3.09,0,0,0,1.2.22,3.24,3.24,0,0,0,1.09-.17,2.72,2.72,0,0,0,.78-.46,3.49,3.49,0,0,0,.52-.59l-.66-.52a2.29,2.29,0,0,1-.7.62,1.84,1.84,0,0,1-1,.24,1.88,1.88,0,0,1-.8-.17,1.92,1.92,0,0,1-.59-.47,2.29,2.29,0,0,1-.37-.69,2.76,2.76,0,0,1-.11-.77h4.28Zm-1.08-.4H85.29a3,3,0,0,1,.09-.45,2.48,2.48,0,0,1,.35-.75,1.5,1.5,0,0,1,.53-.45,1.45,1.45,0,0,1,.68-.16,1.32,1.32,0,0,1,.88.26,1.46,1.46,0,0,1,.47.65,2.94,2.94,0,0,1,.18.82Z"></path><path class="cls-2" d="M139.27,223.87a1.5,1.5,0,0,0-.64-.39,2.47,2.47,0,0,0-.84-.13,2.31,2.31,0,0,0-1,.23,2.34,2.34,0,0,0-.81.63l0,0,0-.8h-1v6.34h1.08v-4.45a2.14,2.14,0,0,1,.24-.45,1.71,1.71,0,0,1,.57-.47,1.64,1.64,0,0,1,.74-.17,1.6,1.6,0,0,1,.69.14.92.92,0,0,1,.43.44,2,2,0,0,1,.14.8v4.16h1.09v-4.15a3.28,3.28,0,0,0-.14-1.06A1.81,1.81,0,0,0,139.27,223.87Z"></path><path class="cls-2" d="M80.78,182.29a1.86,1.86,0,0,0-.83-.71,3.12,3.12,0,0,0-1.22-.23,3.17,3.17,0,0,0-1,.16,2.52,2.52,0,0,0-.79.44,1.92,1.92,0,0,0-.51.6,1.51,1.51,0,0,0-.17.67h1.08a.83.83,0,0,1,.17-.49,1.29,1.29,0,0,1,.48-.37,1.81,1.81,0,0,1,.72-.14,1.62,1.62,0,0,1,.74.15,1,1,0,0,1,.45.44,1.33,1.33,0,0,1,.15.65v.5H78.93a4.71,4.71,0,0,0-1.18.14,2.85,2.85,0,0,0-.9.39,1.8,1.8,0,0,0-.58.65,2,2,0,0,0-.2.9,1.78,1.78,0,0,0,.27,1,2,2,0,0,0,.75.67,2.38,2.38,0,0,0,1.13.25,2.43,2.43,0,0,0,.92-.17,2.87,2.87,0,0,0,.72-.46c.06,0,.11-.11.17-.17s0,.12,0,.19a2.19,2.19,0,0,0,.12.49h1.14v-.09a2.09,2.09,0,0,1-.17-.61,4.18,4.18,0,0,1-.06-.68v-2.95A2.15,2.15,0,0,0,80.78,182.29Zm-1.53,4.47a1.75,1.75,0,0,1-.87.21,1.42,1.42,0,0,1-.68-.14,1,1,0,0,1-.4-.39,1.12,1.12,0,0,1-.14-.55,1.07,1.07,0,0,1,.13-.51,1,1,0,0,1,.38-.36,1.81,1.81,0,0,1,.61-.22,4,4,0,0,1,.82-.08H80V186a2.1,2.1,0,0,1-.14.24A1.83,1.83,0,0,1,79.25,186.76Z"></path><path class="cls-2" d="M62.47,207.34a.6.6,0,0,0-.47-.18.62.62,0,0,0-.48.18.68.68,0,0,0,0,.88.65.65,0,0,0,.48.17.63.63,0,0,0,.47-.17.65.65,0,0,0,0-.88Z"></path><rect class="cls-2" x="61.44" y="209.46" width="1.09" height="6.34"></rect><path class="cls-2" d="M79.51,210.24a2.06,2.06,0,0,0-.78-.66,2.39,2.39,0,0,0-1.06-.23,2.46,2.46,0,0,0-1,.21,2.1,2.1,0,0,0-.78.6l0-.7h-1v8.78h1.09v-3.06a2.08,2.08,0,0,0,.74.54,2.59,2.59,0,0,0,1.07.2,2.16,2.16,0,0,0,1.82-.91,3.21,3.21,0,0,0,.48-1,4.8,4.8,0,0,0,.16-1.29v-.12a5,5,0,0,0-.16-1.32A3.11,3.11,0,0,0,79.51,210.24Zm-.45,2.46a3.71,3.71,0,0,1-.1.9,2.46,2.46,0,0,1-.31.74,1.62,1.62,0,0,1-.53.51,1.49,1.49,0,0,1-.75.18,1.56,1.56,0,0,1-1.45-.8s0-.06,0-.09v-3a2.06,2.06,0,0,1,.25-.4,1.62,1.62,0,0,1,.51-.38,1.74,1.74,0,0,1,.72-.14,1.43,1.43,0,0,1,.76.19,1.49,1.49,0,0,1,.53.5,2.36,2.36,0,0,1,.31.74,3.68,3.68,0,0,1,.1.89Z"></path><path class="cls-2" d="M73.15,215.8v-4.16a3.17,3.17,0,0,0-.14-1,1.71,1.71,0,0,0-.41-.71,1.6,1.6,0,0,0-.67-.42,2.75,2.75,0,0,0-.9-.13,2.44,2.44,0,0,0-1.07.22,2.25,2.25,0,0,0-.8.59l-.15.22a1.82,1.82,0,0,0-.34-.51,1.66,1.66,0,0,0-.65-.39,2.43,2.43,0,0,0-.82-.13,2.46,2.46,0,0,0-1.12.23,2.3,2.3,0,0,0-.76.58l0-.7h-1v6.34h1.09v-4.56a3.45,3.45,0,0,1,.14-.34,1.31,1.31,0,0,1,.52-.47,1.92,1.92,0,0,1,1.51,0,1,1,0,0,1,.47.44,1.5,1.5,0,0,1,.17.79v4.17h1.09v-4.08a1.47,1.47,0,0,1,.08-.51,1.44,1.44,0,0,1,.29-.49,1.35,1.35,0,0,1,.46-.34,1.54,1.54,0,0,1,.63-.12,1.94,1.94,0,0,1,.72.12.86.86,0,0,1,.46.42,1.61,1.61,0,0,1,.17.83v4.17Z"></path><path class="cls-2" d="M132.56,221.16a.62.62,0,0,0-.48.18.68.68,0,0,0,0,.88.76.76,0,0,0,1,0,.65.65,0,0,0,0-.88A.62.62,0,0,0,132.56,221.16Z"></path><path class="cls-2" d="M43,228.42v-2.95a2.16,2.16,0,0,0-.31-1.18,1.86,1.86,0,0,0-.83-.71,3.4,3.4,0,0,0-2.26-.07,2.47,2.47,0,0,0-.8.44,1.77,1.77,0,0,0-.5.6,1.4,1.4,0,0,0-.18.67h1.08a.83.83,0,0,1,.17-.49,1.29,1.29,0,0,1,.48-.37,1.83,1.83,0,0,1,.73-.14,1.61,1.61,0,0,1,.73.15,1,1,0,0,1,.45.44,1.33,1.33,0,0,1,.15.65v.5H40.8a4.77,4.77,0,0,0-1.18.14,2.85,2.85,0,0,0-.9.39,1.89,1.89,0,0,0-.58.65,2,2,0,0,0-.19.9,1.78,1.78,0,0,0,.26,1,2,2,0,0,0,.75.67,2.38,2.38,0,0,0,1.13.25,2.52,2.52,0,0,0,.93-.17,3,3,0,0,0,.71-.46,1.37,1.37,0,0,0,.17-.17c0,.06,0,.12,0,.19a1.72,1.72,0,0,0,.13.49h1.13v-.09a2.45,2.45,0,0,1-.17-.61A4.11,4.11,0,0,1,43,228.42Zm-1.83.34a1.82,1.82,0,0,1-.88.21,1.42,1.42,0,0,1-.68-.14,1,1,0,0,1-.4-.39,1.12,1.12,0,0,1-.13-.55,1.07,1.07,0,0,1,.12-.51,1.1,1.1,0,0,1,.38-.36,1.9,1.9,0,0,1,.61-.22,4.07,4.07,0,0,1,.82-.08h.9V228a2.1,2.1,0,0,1-.14.24A1.89,1.89,0,0,1,41.13,228.76Z"></path><path class="cls-2" d="M116.82,144.91a1.94,1.94,0,0,1-.74.12,2.22,2.22,0,0,1-.67-.1,1.41,1.41,0,0,1-.58-.37,1.22,1.22,0,0,1-.26-.71h-1.09a1.85,1.85,0,0,0,.3,1,2.22,2.22,0,0,0,.88.77,3.07,3.07,0,0,0,1.42.3,3.41,3.41,0,0,0,1-.13,2.85,2.85,0,0,0,.78-.39,1.75,1.75,0,0,0,.49-.6,1.61,1.61,0,0,0,.18-.76,1.46,1.46,0,0,0-.25-.87,1.86,1.86,0,0,0-.75-.6,6.18,6.18,0,0,0-1.28-.42,6.5,6.5,0,0,1-.73-.2,2.41,2.41,0,0,1-.45-.21.72.72,0,0,1-.22-.25.83.83,0,0,1-.06-.32.92.92,0,0,1,.12-.45,1,1,0,0,1,.41-.34,1.56,1.56,0,0,1,.73-.14,1.42,1.42,0,0,1,.72.16,1.15,1.15,0,0,1,.45.42.88.88,0,0,1,.16.51h1.09a1.77,1.77,0,0,0-.29-1,2,2,0,0,0-.83-.72,2.87,2.87,0,0,0-1.3-.27,3.29,3.29,0,0,0-1,.14,2.52,2.52,0,0,0-.74.41,1.89,1.89,0,0,0-.47.59,1.58,1.58,0,0,0-.17.71,1.34,1.34,0,0,0,.16.68,1.57,1.57,0,0,0,.45.51,2.71,2.71,0,0,0,.72.37,7.34,7.34,0,0,0,1,.27,3.41,3.41,0,0,1,.93.29.87.87,0,0,1,.42.37.92.92,0,0,1,.11.43.78.78,0,0,1-.16.47A1,1,0,0,1,116.82,144.91Z"></path><path class="cls-2" d="M123.3,151.34a.58.58,0,0,0-.47-.18.62.62,0,0,0-.48.18.69.69,0,0,0,0,.88.65.65,0,0,0,.48.17.61.61,0,0,0,.47-.17.65.65,0,0,0,0-.88Z"></path><path class="cls-2" d="M59.6,229a3.19,3.19,0,0,0,.58-1,4,4,0,0,0,.2-1.28v-.13a4,4,0,0,0-.2-1.27,3.13,3.13,0,0,0-.58-1,2.6,2.6,0,0,0-.92-.68,3.1,3.1,0,0,0-2.39,0,2.56,2.56,0,0,0-.91.68,3.13,3.13,0,0,0-.58,1,4,4,0,0,0-.2,1.27v.13a4,4,0,0,0,.2,1.28,3.19,3.19,0,0,0,.58,1,2.65,2.65,0,0,0,.91.68,2.92,2.92,0,0,0,1.2.24,2.86,2.86,0,0,0,1.2-.24A2.65,2.65,0,0,0,59.6,229Zm-1.33-.15a1.61,1.61,0,0,1-.78.18,1.67,1.67,0,0,1-.79-.18,1.85,1.85,0,0,1-.57-.51,2.26,2.26,0,0,1-.33-.74,3.27,3.27,0,0,1-.11-.9v-.13a3.12,3.12,0,0,1,.11-.88,2.22,2.22,0,0,1,.33-.75,1.63,1.63,0,0,1,.57-.51,1.5,1.5,0,0,1,.78-.19,1.57,1.57,0,0,1,.79.19,1.6,1.6,0,0,1,.56.51,2.45,2.45,0,0,1,.34.75,3.12,3.12,0,0,1,.12.88v.13a3.26,3.26,0,0,1-.12.9,2.51,2.51,0,0,1-.34.74A1.62,1.62,0,0,1,58.27,228.85Z"></path><path class="cls-2" d="M127.86,141.65a3.58,3.58,0,0,0-.14-1.06,1.94,1.94,0,0,0-.41-.72,1.56,1.56,0,0,0-.64-.39,2.47,2.47,0,0,0-.84-.13,2.25,2.25,0,0,0-1,.23,2.17,2.17,0,0,0-.81.63l0,0,0-.8h-1v6.34H124v-4.45a1.76,1.76,0,0,1,.24-.45,1.59,1.59,0,0,1,1.3-.64,1.54,1.54,0,0,1,.69.14.92.92,0,0,1,.43.44,1.81,1.81,0,0,1,.15.8v4.16h1.09Z"></path><path class="cls-2" d="M125.68,159.24a1.18,1.18,0,0,0,.54.52,1.6,1.6,0,0,0,.73.16,2.41,2.41,0,0,0,.5,0,1.9,1.9,0,0,0,.34-.08v-.88l-.23.05-.28,0a1.27,1.27,0,0,1-.34-.05.54.54,0,0,1-.26-.22,1,1,0,0,1-.09-.49V154.3h1.18v-.84h-1.18v-1.54h-1.09v1.54h-1.16v.84h1.16v3.93A2.22,2.22,0,0,0,125.68,159.24Z"></path><path class="cls-2" d="M114.19,173.24a1.18,1.18,0,0,0,.54.52,1.6,1.6,0,0,0,.73.16,2.47,2.47,0,0,0,.5,0,1.9,1.9,0,0,0,.34-.08v-.88l-.23.05-.28,0a1.27,1.27,0,0,1-.34-.05.54.54,0,0,1-.26-.22,1,1,0,0,1-.1-.49V168.3h1.19v-.84h-1.19v-1.54H114v1.54h-1.16v.84H114v3.93A2.22,2.22,0,0,0,114.19,173.24Z"></path><path class="cls-2" d="M115.52,153.87a3,3,0,0,1,.43-1,2.1,2.1,0,0,1,.72-.61,2.16,2.16,0,0,1,1-.22,2.13,2.13,0,0,1,1.08.24,1.6,1.6,0,0,1,.63.66,3,3,0,0,1,.3,1h1.13a3.63,3.63,0,0,0-.46-1.48,2.66,2.66,0,0,0-1-1,3.83,3.83,0,0,0-3.06-.08,2.93,2.93,0,0,0-1.08.8,3.7,3.7,0,0,0-.69,1.25,5.22,5.22,0,0,0-.23,1.63V156a5.27,5.27,0,0,0,.23,1.63,3.71,3.71,0,0,0,.68,1.24,2.94,2.94,0,0,0,1,.8,3.18,3.18,0,0,0,1.36.28,3.56,3.56,0,0,0,1.72-.37,2.79,2.79,0,0,0,1.06-1,3.64,3.64,0,0,0,.46-1.45h-1.13a3.28,3.28,0,0,1-.31,1,1.51,1.51,0,0,1-.65.65,2.32,2.32,0,0,1-1.15.23,2.06,2.06,0,0,1-1-.23,2,2,0,0,1-.69-.66,3.14,3.14,0,0,1-.4-1,4.88,4.88,0,0,1-.13-1.17v-.86A4.73,4.73,0,0,1,115.52,153.87Z"></path><path class="cls-2" d="M128.81,125.35a1.68,1.68,0,0,0-.89.22,1.7,1.7,0,0,0-.61.61v0l0-.74h-1.06v6.34h1.09v-4.49a1.35,1.35,0,0,1,.3-.47,1.37,1.37,0,0,1,.48-.33,1.69,1.69,0,0,1,.66-.12H129l.26,0v-1a.64.64,0,0,0-.21-.05Z"></path><polygon class="cls-2" points="72.31 187.81 72.93 187.81 73.03 187.81 75.31 181.47 74.2 181.47 72.63 186.32 71.02 181.47 69.91 181.47 72.21 187.81 72.31 187.81"></polygon><path class="cls-2" d="M127.54,112.11a2.12,2.12,0,0,0-.71-.55,2.46,2.46,0,0,0-1-.21,2.33,2.33,0,0,0-1,.23,2.25,2.25,0,0,0-.79.66,3.15,3.15,0,0,0-.51,1,4.59,4.59,0,0,0-.17,1.32v.13a4.4,4.4,0,0,0,.17,1.28,3.25,3.25,0,0,0,.51,1,2.4,2.4,0,0,0,.79.67,2.19,2.19,0,0,0,1,.24,2.67,2.67,0,0,0,1.06-.2,2.08,2.08,0,0,0,.75-.6l.06.68h1v-9h-1.09Zm-.61,4.66a1.53,1.53,0,0,1-.89.23,1.6,1.6,0,0,1-.75-.17,1.58,1.58,0,0,1-.53-.5,2.66,2.66,0,0,1-.3-.73,4.26,4.26,0,0,1-.09-.89v-.13a4.26,4.26,0,0,1,.09-.89,2.61,2.61,0,0,1,.3-.74,1.58,1.58,0,0,1,.53-.5,1.43,1.43,0,0,1,.76-.19,1.7,1.7,0,0,1,.71.14,1.52,1.52,0,0,1,.51.38,2.39,2.39,0,0,1,.27.43V116s0,.09-.05.13A1.7,1.7,0,0,1,126.93,116.77Z"></path><path class="cls-2" d="M121.32,125.56a2.76,2.76,0,0,0-.89.64,3.11,3.11,0,0,0-.62,1,3.77,3.77,0,0,0-.23,1.38v.25a3.78,3.78,0,0,0,.2,1.23,3,3,0,0,0,.59,1,2.72,2.72,0,0,0,.92.64,3.09,3.09,0,0,0,1.2.22,3.24,3.24,0,0,0,1.09-.17,2.54,2.54,0,0,0,.77-.46,3.17,3.17,0,0,0,.53-.59l-.66-.52a2.29,2.29,0,0,1-.7.62,1.84,1.84,0,0,1-1,.24,1.88,1.88,0,0,1-.8-.17,1.81,1.81,0,0,1-.59-.47,2.29,2.29,0,0,1-.37-.69,3.18,3.18,0,0,1-.12-.77H125v-.49a4.41,4.41,0,0,0-.16-1.23,2.77,2.77,0,0,0-.46-1,2.3,2.3,0,0,0-.82-.66,2.81,2.81,0,0,0-1.17-.23A2.6,2.6,0,0,0,121.32,125.56Zm2.38,1.59a2.61,2.61,0,0,1,.17.82v.08H120.7a3,3,0,0,1,.09-.45,2.26,2.26,0,0,1,.35-.75,1.49,1.49,0,0,1,1.21-.61,1.34,1.34,0,0,1,.88.26A1.54,1.54,0,0,1,123.7,127.15Z"></path><rect class="cls-2" x="122.27" y="153.46" width="1.09" height="6.34"></rect><path class="cls-2" d="M107.44,200.7l-.66-.52a2.29,2.29,0,0,1-.7.62,1.84,1.84,0,0,1-1,.24,1.88,1.88,0,0,1-.8-.17,1.92,1.92,0,0,1-.59-.47,2.29,2.29,0,0,1-.37-.69,2.76,2.76,0,0,1-.11-.77h4.28v-.49a4.82,4.82,0,0,0-.15-1.23,2.79,2.79,0,0,0-.47-1,2.14,2.14,0,0,0-.82-.66,2.74,2.74,0,0,0-1.17-.23,2.64,2.64,0,0,0-1,.21,2.76,2.76,0,0,0-.89.64,3.11,3.11,0,0,0-.62,1,4,4,0,0,0-.23,1.38v.25a3.53,3.53,0,0,0,.21,1.23,2.79,2.79,0,0,0,.58,1,2.82,2.82,0,0,0,.92.64,3.09,3.09,0,0,0,1.2.22,3.24,3.24,0,0,0,1.09-.17,2.48,2.48,0,0,0,.78-.46A3.49,3.49,0,0,0,107.44,200.7Zm-3.74-3.85a1.5,1.5,0,0,1,.53-.45,1.45,1.45,0,0,1,.68-.16,1.32,1.32,0,0,1,.88.26,1.46,1.46,0,0,1,.47.65,2.94,2.94,0,0,1,.18.82v.08h-3.18c0-.16,0-.31.09-.45A2.48,2.48,0,0,1,103.7,196.85Z"></path><path class="cls-2" d="M72.53,228.8a1.61,1.61,0,0,0,.18-.76,1.46,1.46,0,0,0-.25-.87,1.86,1.86,0,0,0-.75-.6,6.18,6.18,0,0,0-1.28-.42,6.5,6.5,0,0,1-.73-.2,2.41,2.41,0,0,1-.45-.21.72.72,0,0,1-.22-.25.83.83,0,0,1-.06-.32.92.92,0,0,1,.12-.45.94.94,0,0,1,.41-.34,1.56,1.56,0,0,1,.73-.14,1.42,1.42,0,0,1,.72.16,1.15,1.15,0,0,1,.45.42.88.88,0,0,1,.16.51h1.08a1.76,1.76,0,0,0-.28-1,2,2,0,0,0-.83-.72,2.87,2.87,0,0,0-1.3-.27,3.29,3.29,0,0,0-1,.14,2.4,2.4,0,0,0-.74.41,1.89,1.89,0,0,0-.47.59,1.58,1.58,0,0,0-.17.71,1.34,1.34,0,0,0,.16.68,1.46,1.46,0,0,0,.45.51,2.71,2.71,0,0,0,.72.37,6.93,6.93,0,0,0,1,.27,3.41,3.41,0,0,1,.93.29.85.85,0,0,1,.53.8.78.78,0,0,1-.16.47,1,1,0,0,1-.47.32,1.94,1.94,0,0,1-.74.12,2.22,2.22,0,0,1-.67-.1,1.41,1.41,0,0,1-.58-.37,1.22,1.22,0,0,1-.26-.71H67.66a1.85,1.85,0,0,0,.3,1,2.22,2.22,0,0,0,.88.77,3.07,3.07,0,0,0,1.42.3,3.41,3.41,0,0,0,1-.13,2.85,2.85,0,0,0,.78-.39A1.75,1.75,0,0,0,72.53,228.8Z"></path><path class="cls-2" d="M74.63,237.35a1.66,1.66,0,0,0-1.5.83v0l0-.74h-1v6.34h1.08v-4.49a1.51,1.51,0,0,1,.3-.47,1.32,1.32,0,0,1,.49-.33,1.69,1.69,0,0,1,.66-.12h.27l.26,0v-1a.64.64,0,0,0-.21-.05Z"></path><path class="cls-2" d="M129.45,141.23a4,4,0,0,0-.23,1.38v.25a3.53,3.53,0,0,0,.21,1.23,3,3,0,0,0,.58,1,2.82,2.82,0,0,0,.92.64,3.11,3.11,0,0,0,1.21.22,3.22,3.22,0,0,0,1.08-.17,2.48,2.48,0,0,0,.78-.46,3.49,3.49,0,0,0,.52-.59l-.66-.52a2.37,2.37,0,0,1-.69.62,1.87,1.87,0,0,1-1,.24,1.83,1.83,0,0,1-.79-.17,2,2,0,0,1-.6-.47,2.26,2.26,0,0,1-.36-.69,2.76,2.76,0,0,1-.12-.77h4.28v-.49a4.82,4.82,0,0,0-.15-1.23,2.79,2.79,0,0,0-.47-1,2.19,2.19,0,0,0-.81-.66,2.82,2.82,0,0,0-1.18-.23,2.64,2.64,0,0,0-1,.21,2.76,2.76,0,0,0-.89.64A3.11,3.11,0,0,0,129.45,141.23Zm1.33-.38a1.45,1.45,0,0,1,.54-.45,1.38,1.38,0,0,1,.67-.16,1.3,1.3,0,0,1,.88.26,1.46,1.46,0,0,1,.47.65,2.94,2.94,0,0,1,.18.82v.08h-3.17a3,3,0,0,1,.09-.45A2.25,2.25,0,0,1,130.78,140.85Z"></path><path class="cls-2" d="M69.87,237.87a1.5,1.5,0,0,0-.64-.39,2.47,2.47,0,0,0-.84-.13,2.31,2.31,0,0,0-1,.23,2.34,2.34,0,0,0-.81.63V234.8H65.44v9h1.08v-4.45a2.73,2.73,0,0,1,.24-.45,1.71,1.71,0,0,1,.57-.47,1.64,1.64,0,0,1,.74-.17,1.6,1.6,0,0,1,.69.14.92.92,0,0,1,.43.44,1.82,1.82,0,0,1,.14.8v4.16h1.09v-4.15a3.28,3.28,0,0,0-.14-1.06A1.81,1.81,0,0,0,69.87,237.87Z"></path><path class="cls-2" d="M99.08,187.75a2.6,2.6,0,0,0,.78-.46,3.49,3.49,0,0,0,.52-.59l-.66-.52a2.29,2.29,0,0,1-.7.62,1.84,1.84,0,0,1-1,.24,1.88,1.88,0,0,1-.8-.17,1.92,1.92,0,0,1-.59-.47,2.29,2.29,0,0,1-.37-.69,2.76,2.76,0,0,1-.11-.77h4.28v-.49a4.82,4.82,0,0,0-.15-1.23,2.79,2.79,0,0,0-.47-1,2.14,2.14,0,0,0-.82-.66,2.74,2.74,0,0,0-1.17-.23,2.64,2.64,0,0,0-1,.21,2.76,2.76,0,0,0-.89.64,3.11,3.11,0,0,0-.62,1,4,4,0,0,0-.23,1.38v.25a3.53,3.53,0,0,0,.21,1.23,2.79,2.79,0,0,0,.58,1,2.82,2.82,0,0,0,.92.64,3.09,3.09,0,0,0,1.2.22A3.24,3.24,0,0,0,99.08,187.75Zm-2.44-4.9a1.5,1.5,0,0,1,.53-.45,1.45,1.45,0,0,1,.68-.16,1.32,1.32,0,0,1,.88.26,1.46,1.46,0,0,1,.47.65,2.94,2.94,0,0,1,.18.82v.08H96.2a3,3,0,0,1,.09-.45A2.48,2.48,0,0,1,96.64,182.85Z"></path><path class="cls-2" d="M134.09,124.26a3.81,3.81,0,0,0-.71,1.29,5.72,5.72,0,0,0-.24,1.72v.54a5.41,5.41,0,0,0,.25,1.72,3.79,3.79,0,0,0,.71,1.3,3.2,3.2,0,0,0,1.09.81,3.62,3.62,0,0,0,2.79,0,3.11,3.11,0,0,0,1.09-.81,3.75,3.75,0,0,0,.69-1.3,5.72,5.72,0,0,0,.24-1.72v-.54a5.41,5.41,0,0,0-.25-1.72,3.48,3.48,0,0,0-.7-1.29,2.88,2.88,0,0,0-1.08-.82,3.37,3.37,0,0,0-1.4-.28,3.32,3.32,0,0,0-1.39.28A3,3,0,0,0,134.09,124.26Zm1.52.06a2.29,2.29,0,0,1,1-.2,2.34,2.34,0,0,1,1,.2,2,2,0,0,1,.73.61,2.69,2.69,0,0,1,.45,1,5,5,0,0,1,.16,1.35v.55a5.6,5.6,0,0,1-.15,1.36,3.23,3.23,0,0,1-.45,1,2,2,0,0,1-.73.6,2.32,2.32,0,0,1-1.93,0,2.2,2.2,0,0,1-.73-.6,3,3,0,0,1-.47-1,5.13,5.13,0,0,1-.16-1.36v-.55a5,5,0,0,1,.16-1.35,2.87,2.87,0,0,1,.46-1A2.11,2.11,0,0,1,135.61,124.32Z"></path><path class="cls-2" d="M62.66,238.11a2.12,2.12,0,0,0-.71-.55,2.46,2.46,0,0,0-1.05-.21,2.33,2.33,0,0,0-1,.23,2.25,2.25,0,0,0-.79.66,3.15,3.15,0,0,0-.51,1,4.58,4.58,0,0,0-.18,1.32v.12a4.42,4.42,0,0,0,.18,1.29,3.25,3.25,0,0,0,.51,1,2.4,2.4,0,0,0,.79.67,2.19,2.19,0,0,0,1,.24,2.71,2.71,0,0,0,1.06-.2,2.08,2.08,0,0,0,.75-.6l0,.68h1v-9H62.66Zm-.61,4.66a1.55,1.55,0,0,1-.89.23,1.39,1.39,0,0,1-1.28-.67,2.39,2.39,0,0,1-.3-.73,4.28,4.28,0,0,1-.1-.9v-.12a4.26,4.26,0,0,1,.1-.89,2.35,2.35,0,0,1,.3-.74,1.55,1.55,0,0,1,.52-.5,1.49,1.49,0,0,1,.77-.19,1.7,1.7,0,0,1,.71.14,1.62,1.62,0,0,1,.51.38,2.39,2.39,0,0,1,.27.43V242s0,.09,0,.13A1.7,1.7,0,0,1,62.05,242.77Z"></path><path class="cls-2" d="M66.33,228.8a1.61,1.61,0,0,0,.18-.76,1.46,1.46,0,0,0-.25-.87,1.86,1.86,0,0,0-.75-.6,6.18,6.18,0,0,0-1.28-.42,6.5,6.5,0,0,1-.73-.2,2.41,2.41,0,0,1-.45-.21.72.72,0,0,1-.22-.25.83.83,0,0,1-.06-.32.92.92,0,0,1,.12-.45,1,1,0,0,1,.41-.34,1.56,1.56,0,0,1,.73-.14,1.42,1.42,0,0,1,.72.16,1.15,1.15,0,0,1,.45.42.88.88,0,0,1,.16.51h1.09a1.77,1.77,0,0,0-.29-1,2,2,0,0,0-.83-.72,2.87,2.87,0,0,0-1.3-.27,3.29,3.29,0,0,0-1,.14,2.52,2.52,0,0,0-.74.41,1.89,1.89,0,0,0-.47.59,1.58,1.58,0,0,0-.17.71,1.34,1.34,0,0,0,.16.68,1.57,1.57,0,0,0,.45.51,2.71,2.71,0,0,0,.72.37,7.34,7.34,0,0,0,1,.27,3.3,3.3,0,0,1,.93.29.87.87,0,0,1,.42.37.92.92,0,0,1,.11.43.78.78,0,0,1-.16.47,1,1,0,0,1-.46.32,2,2,0,0,1-.75.12,2.22,2.22,0,0,1-.67-.1,1.41,1.41,0,0,1-.58-.37,1.15,1.15,0,0,1-.25-.71H61.47a1.84,1.84,0,0,0,.29,1,2.22,2.22,0,0,0,.88.77,3.07,3.07,0,0,0,1.42.3,3.41,3.41,0,0,0,1-.13,2.85,2.85,0,0,0,.78-.39A1.65,1.65,0,0,0,66.33,228.8Z"></path><path class="cls-2" d="M133,114a4.69,4.69,0,0,0-1.17.14,2.91,2.91,0,0,0-.91.39,1.77,1.77,0,0,0-.57.65,2,2,0,0,0-.2.9,1.78,1.78,0,0,0,.27,1,2,2,0,0,0,.75.67,2.38,2.38,0,0,0,1.13.25,2.43,2.43,0,0,0,.92-.17,2.85,2.85,0,0,0,.72-.45l.17-.18c0,.06,0,.12,0,.19a2.81,2.81,0,0,0,.13.49h1.13v-.09a3,3,0,0,1-.17-.61,5.59,5.59,0,0,1-.05-.68v-3a2.15,2.15,0,0,0-.3-1.18,1.83,1.83,0,0,0-.84-.71,3,3,0,0,0-1.21-.23,3.13,3.13,0,0,0-1,.16,2.42,2.42,0,0,0-.79.44,2,2,0,0,0-.51.6,1.51,1.51,0,0,0-.17.67h1.08a.83.83,0,0,1,.17-.49,1.4,1.4,0,0,1,.48-.37,1.81,1.81,0,0,1,.72-.14,1.65,1.65,0,0,1,.74.15.94.94,0,0,1,.44.44,1.23,1.23,0,0,1,.16.65v.5Zm.33,2.8a1.76,1.76,0,0,1-.88.21,1.38,1.38,0,0,1-.67-.14,1,1,0,0,1-.4-.39,1.12,1.12,0,0,1-.14-.55.91.91,0,0,1,.13-.5,1,1,0,0,1,.37-.37,2,2,0,0,1,.61-.22,4.17,4.17,0,0,1,.83-.08h.9V116a1.49,1.49,0,0,1-.14.24A1.83,1.83,0,0,1,133.31,116.76Z"></path><path class="cls-2" d="M137.23,109.92v1.55h-1.16v.83h1.16v3.93a2.21,2.21,0,0,0,.2,1,1.16,1.16,0,0,0,.53.52,1.63,1.63,0,0,0,.73.16,2.41,2.41,0,0,0,.5,0,1.9,1.9,0,0,0,.34-.08v-.88l-.23,0-.28,0a1.27,1.27,0,0,1-.34,0,.48.48,0,0,1-.25-.22.92.92,0,0,1-.1-.49V112.3h1.18v-.83h-1.18v-1.55Z"></path><path class="cls-2" d="M133.73,153.46h-1.15l-1.48,4.75-1.58-4.75h-1.19l2.27,6.28-.24.64a1.92,1.92,0,0,1-.31.61,1,1,0,0,1-.43.33,2,2,0,0,1-.63.1l-.15,0h-.14v.88l.28.06a2.63,2.63,0,0,0,.33,0,1.65,1.65,0,0,0,.74-.16,1.59,1.59,0,0,0,.54-.4,2.92,2.92,0,0,0,.37-.52,5.45,5.45,0,0,0,.23-.51Z"></path><path class="cls-2" d="M36.94,215l-.28,0a1.27,1.27,0,0,1-.34-.05.54.54,0,0,1-.26-.22,1,1,0,0,1-.09-.49V210.3h1.18v-.84H36v-1.54H34.88v1.54H33.72v.84h1.16v3.93a2.36,2.36,0,0,0,.19,1,1.23,1.23,0,0,0,.54.52,1.6,1.6,0,0,0,.73.16,2.41,2.41,0,0,0,.5,0,1.9,1.9,0,0,0,.34-.08v-.88Z"></path><path class="cls-2" d="M65.12,126.24a2.19,2.19,0,0,0-.81-.66,2.81,2.81,0,0,0-1.17-.23,2.68,2.68,0,0,0-1,.21,2.76,2.76,0,0,0-.89.64,3.11,3.11,0,0,0-.62,1,4,4,0,0,0-.23,1.38v.25a3.53,3.53,0,0,0,.21,1.23,3,3,0,0,0,.58,1,2.82,2.82,0,0,0,.92.64,3.11,3.11,0,0,0,1.21.22,3.18,3.18,0,0,0,1.08-.17,2.48,2.48,0,0,0,.78-.46,3.49,3.49,0,0,0,.52-.59l-.66-.52a2.25,2.25,0,0,1-.69.62,1.87,1.87,0,0,1-1,.24,1.83,1.83,0,0,1-.79-.17,1.81,1.81,0,0,1-.59-.47,2.09,2.09,0,0,1-.37-.69,2.76,2.76,0,0,1-.12-.77h4.28v-.49a4.82,4.82,0,0,0-.15-1.23A2.79,2.79,0,0,0,65.12,126.24Zm-.46,1.81H61.49a3,3,0,0,1,.09-.45,2.25,2.25,0,0,1,.34-.75,1.45,1.45,0,0,1,.54-.45,1.39,1.39,0,0,1,.68-.16,1.29,1.29,0,0,1,.87.26,1.39,1.39,0,0,1,.47.65,2.94,2.94,0,0,1,.18.82Z"></path><path class="cls-2" d="M110.27,111.47v4.08a3.8,3.8,0,0,0,.14,1.09,2.08,2.08,0,0,0,.43.73,1.7,1.7,0,0,0,.66.42,2.57,2.57,0,0,0,.85.13,2.81,2.81,0,0,0,1.15-.21,2,2,0,0,0,.7-.55l0,.64h1v-6.33h-1.09v4.59a1.49,1.49,0,0,1-.56.68,2,2,0,0,1-1.09.26,1.61,1.61,0,0,1-.44-.06,1.17,1.17,0,0,1-.37-.22,1.12,1.12,0,0,1-.26-.44,2.09,2.09,0,0,1-.1-.71v-4.1Z"></path><path class="cls-2" d="M86.36,111.35a2.31,2.31,0,0,0-1,.23,2.34,2.34,0,0,0-.81.63l0,.05,0-.79h-1v6.33h1.08v-4.45a2.73,2.73,0,0,1,.24-.45,1.84,1.84,0,0,1,.57-.47,1.64,1.64,0,0,1,.74-.17,1.6,1.6,0,0,1,.69.14.92.92,0,0,1,.43.44,1.81,1.81,0,0,1,.15.8v4.16h1.08v-4.15a3.28,3.28,0,0,0-.14-1.06,1.71,1.71,0,0,0-.41-.71,1.39,1.39,0,0,0-.63-.4A2.53,2.53,0,0,0,86.36,111.35Z"></path><path class="cls-2" d="M42.86,209.87a1.56,1.56,0,0,0-.64-.39,2.49,2.49,0,0,0-.85-.13,2.31,2.31,0,0,0-1,.23,2.22,2.22,0,0,0-.8.63l0,0V206.8H38.42v9H39.5v-4.45a2.73,2.73,0,0,1,.24-.45,1.71,1.71,0,0,1,.57-.47,1.68,1.68,0,0,1,.74-.17,1.57,1.57,0,0,1,.69.14.92.92,0,0,1,.43.44,1.81,1.81,0,0,1,.15.8v4.16h1.09v-4.15a3.58,3.58,0,0,0-.14-1.06A1.94,1.94,0,0,0,42.86,209.87Z"></path><path class="cls-2" d="M34.1,200a1.54,1.54,0,0,0-.25-.87,1.86,1.86,0,0,0-.75-.6,6.39,6.39,0,0,0-1.28-.42,7.45,7.45,0,0,1-.74-.2,2,2,0,0,1-.44-.21.63.63,0,0,1-.22-.25.83.83,0,0,1-.06-.32.92.92,0,0,1,.12-.45.94.94,0,0,1,.41-.34,1.53,1.53,0,0,1,.73-.14,1.47,1.47,0,0,1,.72.16,1.15,1.15,0,0,1,.45.42,1,1,0,0,1,.16.51H34a1.69,1.69,0,0,0-.29-1,2,2,0,0,0-.82-.72,2.87,2.87,0,0,0-1.3-.27,3.24,3.24,0,0,0-1,.14,2.29,2.29,0,0,0-.74.41,1.92,1.92,0,0,0-.48.59,1.57,1.57,0,0,0-.16.71,1.34,1.34,0,0,0,.16.68,1.37,1.37,0,0,0,.45.51,2.71,2.71,0,0,0,.72.37,6.77,6.77,0,0,0,.95.27,3.5,3.5,0,0,1,.94.29.92.92,0,0,1,.42.37.91.91,0,0,1,.1.43.72.72,0,0,1-.16.47.93.93,0,0,1-.46.32,2,2,0,0,1-.74.12,2.29,2.29,0,0,1-.68-.1,1.44,1.44,0,0,1-.57-.37,1.15,1.15,0,0,1-.26-.71H29.05a1.85,1.85,0,0,0,.3,1,2.15,2.15,0,0,0,.88.77,3.07,3.07,0,0,0,1.42.3,3.46,3.46,0,0,0,1-.13,2.65,2.65,0,0,0,.77-.39,1.68,1.68,0,0,0,.5-.6A1.61,1.61,0,0,0,34.1,200Z"></path><path class="cls-2" d="M69,142a4.71,4.71,0,0,0-1.18.14,2.85,2.85,0,0,0-.9.39,1.89,1.89,0,0,0-.58.65,2,2,0,0,0-.2.9,1.78,1.78,0,0,0,.27,1,2,2,0,0,0,.75.67,2.38,2.38,0,0,0,1.13.25,2.43,2.43,0,0,0,.92-.17,2.87,2.87,0,0,0,.72-.46,1.37,1.37,0,0,0,.17-.17c0,.06,0,.12,0,.19a1.72,1.72,0,0,0,.13.49H71.4v-.09a2.45,2.45,0,0,1-.17-.61,4.18,4.18,0,0,1-.06-.68v-2.95a2.15,2.15,0,0,0-.3-1.18,1.86,1.86,0,0,0-.83-.71,3.4,3.4,0,0,0-2.26-.07,2.47,2.47,0,0,0-.8.44,1.92,1.92,0,0,0-.51.6,1.51,1.51,0,0,0-.17.67h1.08a.83.83,0,0,1,.17-.49,1.29,1.29,0,0,1,.48-.37,1.81,1.81,0,0,1,.72-.14,1.62,1.62,0,0,1,.74.15,1,1,0,0,1,.45.44,1.33,1.33,0,0,1,.15.65v.5Zm.33,2.8a1.82,1.82,0,0,1-.88.21,1.42,1.42,0,0,1-.68-.14,1,1,0,0,1-.4-.39,1.12,1.12,0,0,1-.14-.55,1.07,1.07,0,0,1,.13-.51,1,1,0,0,1,.38-.36,1.9,1.9,0,0,1,.61-.22,4.07,4.07,0,0,1,.82-.08h.9V144a2.1,2.1,0,0,1-.14.24A1.89,1.89,0,0,1,69.35,144.76Z"></path><path class="cls-2" d="M26.91,112.24a2.19,2.19,0,0,0-.81-.66,2.81,2.81,0,0,0-1.17-.23,2.68,2.68,0,0,0-1,.21,2.87,2.87,0,0,0-.89.64,3.29,3.29,0,0,0-.62,1,4,4,0,0,0-.23,1.38v.25a3.53,3.53,0,0,0,.21,1.23,2.81,2.81,0,0,0,.59,1,2.62,2.62,0,0,0,.92.64,3.06,3.06,0,0,0,1.2.22,3.18,3.18,0,0,0,1.08-.17,2.48,2.48,0,0,0,.78-.46,3.49,3.49,0,0,0,.52-.59l-.65-.52a2.41,2.41,0,0,1-.7.62,2,2,0,0,1-1.77.07,1.81,1.81,0,0,1-.59-.47,2.09,2.09,0,0,1-.37-.69,2.76,2.76,0,0,1-.12-.77h4.28v-.49a4.82,4.82,0,0,0-.15-1.23A2.79,2.79,0,0,0,26.91,112.24Zm-.46,1.81H23.28a3,3,0,0,1,.09-.45,2.25,2.25,0,0,1,.34-.75,1.45,1.45,0,0,1,.54-.45,1.39,1.39,0,0,1,.68-.16,1.34,1.34,0,0,1,.88.26,1.44,1.44,0,0,1,.46.65,2.63,2.63,0,0,1,.18.82Z"></path><path class="cls-2" d="M30.81,117.65a3.77,3.77,0,0,0,1.44.27,4.82,4.82,0,0,0,1.56-.21,3,3,0,0,0,.95-.5,3,3,0,0,0,.51-.53v-3.12h-3.1v.91h2v1.91a1.55,1.55,0,0,1-.32.28,2.24,2.24,0,0,1-.59.24,3.7,3.7,0,0,1-1,.1,2.33,2.33,0,0,1-1-.21,2.15,2.15,0,0,1-.77-.61,3.29,3.29,0,0,1-.5-1,4.86,4.86,0,0,1-.17-1.32v-.68A5.6,5.6,0,0,1,30,111.9a2.82,2.82,0,0,1,.42-1,1.87,1.87,0,0,1,.72-.62,2.19,2.19,0,0,1,1-.22,2.09,2.09,0,0,1,1.07.24,1.57,1.57,0,0,1,.64.61,2.35,2.35,0,0,1,.31.84h1.13a3.41,3.41,0,0,0-.48-1.35,2.56,2.56,0,0,0-1-.92,3.52,3.52,0,0,0-1.64-.34,3.69,3.69,0,0,0-1.46.27,2.78,2.78,0,0,0-1.08.8,3.58,3.58,0,0,0-.67,1.27,6,6,0,0,0-.22,1.71v.66a5.12,5.12,0,0,0,.26,1.71,3.82,3.82,0,0,0,.73,1.28A3.3,3.3,0,0,0,30.81,117.65Z"></path><path class="cls-2" d="M67.6,113.24a3.45,3.45,0,0,1,.14-.34,1.39,1.39,0,0,1,.52-.47,1.92,1.92,0,0,1,1.51,0,1,1,0,0,1,.47.44,1.52,1.52,0,0,1,.17.79v4.17H71.5v-4.08a1.47,1.47,0,0,1,.08-.51,1.44,1.44,0,0,1,.29-.49,1.21,1.21,0,0,1,.46-.33,1.39,1.39,0,0,1,.63-.13,1.75,1.75,0,0,1,.72.13.8.8,0,0,1,.46.41,1.61,1.61,0,0,1,.17.83v4.17H75.4v-4.16a3.17,3.17,0,0,0-.14-1,1.71,1.71,0,0,0-.41-.71,1.6,1.6,0,0,0-.67-.42,2.75,2.75,0,0,0-.9-.13,2.44,2.44,0,0,0-1.07.22,2.38,2.38,0,0,0-.8.59l-.15.22a1.82,1.82,0,0,0-.34-.51,1.66,1.66,0,0,0-.65-.39,2.43,2.43,0,0,0-.82-.13,2.46,2.46,0,0,0-1.12.23,2.3,2.3,0,0,0-.76.58l0-.69h-1v6.33H67.6Z"></path><path class="cls-2" d="M140,145.4a1.79,1.79,0,0,0,.5-.6,1.73,1.73,0,0,0,.17-.76,1.53,1.53,0,0,0-.24-.87,2,2,0,0,0-.75-.6,6.51,6.51,0,0,0-1.29-.42,7.17,7.17,0,0,1-.73-.2,2,2,0,0,1-.44-.21.76.76,0,0,1-.23-.25.83.83,0,0,1-.06-.32.93.93,0,0,1,.13-.45.91.91,0,0,1,.4-.34,1.56,1.56,0,0,1,.73-.14,1.49,1.49,0,0,1,.73.16,1.3,1.3,0,0,1,.45.42,1,1,0,0,1,.15.51h1.09a1.77,1.77,0,0,0-.29-1,2,2,0,0,0-.83-.72,2.84,2.84,0,0,0-1.3-.27,3.22,3.22,0,0,0-1,.14,2.46,2.46,0,0,0-.75.41,1.89,1.89,0,0,0-.47.59,1.57,1.57,0,0,0-.16.71,1.45,1.45,0,0,0,.15.68,1.57,1.57,0,0,0,.45.51,2.63,2.63,0,0,0,.73.37,6.77,6.77,0,0,0,.95.27,3.5,3.5,0,0,1,.94.29.84.84,0,0,1,.41.37.92.92,0,0,1,.11.43.72.72,0,0,1-.16.47,1,1,0,0,1-.46.32,2,2,0,0,1-.75.12,2.27,2.27,0,0,1-.67-.1,1.31,1.31,0,0,1-.57-.37,1.1,1.1,0,0,1-.26-.71H135.6a1.85,1.85,0,0,0,.3,1,2.15,2.15,0,0,0,.88.77,3,3,0,0,0,1.41.3,3.48,3.48,0,0,0,1-.13A2.78,2.78,0,0,0,140,145.4Z"></path><path class="cls-2" d="M121.35,111.88a1.48,1.48,0,0,0-.64-.4,2.47,2.47,0,0,0-.84-.13,2.25,2.25,0,0,0-1.05.23,2.17,2.17,0,0,0-.81.63s0,0,0,.05l0-.79h-1v6.33H118v-4.45a2.14,2.14,0,0,1,.24-.45,1.84,1.84,0,0,1,.57-.47,1.6,1.6,0,0,1,.73-.17,1.54,1.54,0,0,1,.69.14.92.92,0,0,1,.43.44,1.81,1.81,0,0,1,.15.8v4.16h1.09v-4.15a3.58,3.58,0,0,0-.14-1.06A1.82,1.82,0,0,0,121.35,111.88Z"></path><path class="cls-2" d="M94.64,198a4.71,4.71,0,0,0-1.18.14,2.85,2.85,0,0,0-.9.39,1.8,1.8,0,0,0-.58.65,2,2,0,0,0-.2.9,1.78,1.78,0,0,0,.27,1,1.82,1.82,0,0,0,.75.67,2.38,2.38,0,0,0,1.13.25,2.43,2.43,0,0,0,.92-.17,2.87,2.87,0,0,0,.72-.46c.06,0,.11-.11.17-.17s0,.12,0,.19a2.81,2.81,0,0,0,.13.49H97v-.09a3,3,0,0,1-.17-.61,5.59,5.59,0,0,1,0-.68v-2.95a2.15,2.15,0,0,0-.3-1.18,1.83,1.83,0,0,0-.84-.71,3,3,0,0,0-1.21-.23,3.17,3.17,0,0,0-1,.16,2.42,2.42,0,0,0-.79.44,1.92,1.92,0,0,0-.51.6,1.39,1.39,0,0,0-.17.67H93a.83.83,0,0,1,.17-.49,1.29,1.29,0,0,1,.48-.37,1.81,1.81,0,0,1,.72-.14,1.65,1.65,0,0,1,.74.15,1,1,0,0,1,.45.44,1.33,1.33,0,0,1,.15.65v.5Zm.32,2.8a1.76,1.76,0,0,1-.88.21,1.38,1.38,0,0,1-.67-.14,1,1,0,0,1-.4-.39,1.12,1.12,0,0,1-.14-.55,1,1,0,0,1,.13-.51,1,1,0,0,1,.38-.36,1.83,1.83,0,0,1,.6-.22,4.17,4.17,0,0,1,.83-.08h.9V200a2.1,2.1,0,0,1-.14.24A1.83,1.83,0,0,1,95,200.76Z"></path><path class="cls-2" d="M116.37,125.56a2.46,2.46,0,0,0-1.05-.21,2.36,2.36,0,0,0-1,.23,2.25,2.25,0,0,0-.79.66,3.15,3.15,0,0,0-.51,1,5,5,0,0,0-.17,1.32v.12A4.79,4.79,0,0,0,113,130a3.25,3.25,0,0,0,.51,1,2.4,2.4,0,0,0,.79.67,2.19,2.19,0,0,0,1,.24,2.64,2.64,0,0,0,1.06-.2,2,2,0,0,0,.75-.6l.06.68h1v-9h-1.09v3.31A2.12,2.12,0,0,0,116.37,125.56Zm.71,1.65V130s0,.09,0,.13a1.7,1.7,0,0,1-.56.6,1.53,1.53,0,0,1-.89.23,1.6,1.6,0,0,1-.75-.17,1.55,1.55,0,0,1-.52-.5,2.4,2.4,0,0,1-.31-.73,4.29,4.29,0,0,1-.09-.9v-.12a4.26,4.26,0,0,1,.09-.89,2.36,2.36,0,0,1,.31-.74,1.46,1.46,0,0,1,.52-.5,1.43,1.43,0,0,1,.76-.19,1.7,1.7,0,0,1,.71.14,1.42,1.42,0,0,1,.51.38A1.94,1.94,0,0,1,117.08,127.21Z"></path><path class="cls-2" d="M52.32,224.84a1.51,1.51,0,0,1,.49-.33,1.69,1.69,0,0,1,.66-.12h.27l.26,0v-1a.64.64,0,0,0-.21-.05l-.27,0a1.68,1.68,0,0,0-.89.22,1.7,1.7,0,0,0-.61.61v0l0-.74H50.94v6.34H52v-4.49A1.49,1.49,0,0,1,52.32,224.84Z"></path><rect class="cls-2" x="120.04" y="139.46" width="1.09" height="6.34"></rect><path class="cls-2" d="M121.07,137.34a.6.6,0,0,0-.47-.18.62.62,0,0,0-.48.18.68.68,0,0,0,0,.88.65.65,0,0,0,.48.17.63.63,0,0,0,.47-.17.65.65,0,0,0,0-.88Z"></path><path class="cls-2" d="M47.54,235.27H46.8l-3.25,8.53H44.7l.81-2.23h3.57l.81,2.23h1.16l-3.26-8.53Zm-1.69,5.38,1.44-4,1.45,4Z"></path><path class="cls-2" d="M116,201a2.65,2.65,0,0,0,.91.68,2.94,2.94,0,0,0,1.21.24,2.84,2.84,0,0,0,1.19-.24,2.56,2.56,0,0,0,.91-.68,3,3,0,0,0,.58-1,4,4,0,0,0,.2-1.28v-.13a4,4,0,0,0-.2-1.27,3,3,0,0,0-.58-1,2.6,2.6,0,0,0-.92-.68,3.1,3.1,0,0,0-2.39,0,2.56,2.56,0,0,0-.91.68,3,3,0,0,0-.57,1,3.72,3.72,0,0,0-.2,1.27v.13a3.78,3.78,0,0,0,.2,1.28A3,3,0,0,0,116,201Zm.31-2.43a3.53,3.53,0,0,1,.11-.88,2.45,2.45,0,0,1,.34-.75,1.6,1.6,0,0,1,.56-.51,1.72,1.72,0,0,1,1.57,0,1.52,1.52,0,0,1,.56.51,2.24,2.24,0,0,1,.34.75,3.12,3.12,0,0,1,.12.88v.13a3.26,3.26,0,0,1-.12.9,2.26,2.26,0,0,1-.33.74,1.75,1.75,0,0,1-.57.51,1.59,1.59,0,0,1-.77.18,1.69,1.69,0,0,1-.8-.18,1.82,1.82,0,0,1-.56-.51,2.51,2.51,0,0,1-.34-.74,3.7,3.7,0,0,1-.11-.9Z"></path><path class="cls-2" d="M129,183.31a1.49,1.49,0,0,1,.29-.47,1.51,1.51,0,0,1,.49-.33,1.69,1.69,0,0,1,.66-.12h.27l.26,0v-1a.64.64,0,0,0-.22-.05l-.26,0a1.68,1.68,0,0,0-.89.22,1.7,1.7,0,0,0-.61.61v0l0-.74H128v6.34H129Z"></path><path class="cls-2" d="M127.86,173.75a2.48,2.48,0,0,0,.78-.46,3.1,3.1,0,0,0,.52-.59l-.65-.52a2.29,2.29,0,0,1-.7.62,2,2,0,0,1-1.77.07,1.81,1.81,0,0,1-.59-.47,2.29,2.29,0,0,1-.37-.69,3.18,3.18,0,0,1-.12-.77h4.29v-.49a4.41,4.41,0,0,0-.16-1.23,2.63,2.63,0,0,0-.47-1,2.19,2.19,0,0,0-.81-.66,2.81,2.81,0,0,0-1.17-.23,2.6,2.6,0,0,0-1,.21,2.76,2.76,0,0,0-.89.64,3.11,3.11,0,0,0-.62,1,3.77,3.77,0,0,0-.23,1.38v.25a3.78,3.78,0,0,0,.2,1.23,2.81,2.81,0,0,0,.59,1,2.72,2.72,0,0,0,.92.64,3.09,3.09,0,0,0,1.2.22A3.14,3.14,0,0,0,127.86,173.75Zm-2.43-4.9a1.49,1.49,0,0,1,1.21-.61,1.34,1.34,0,0,1,.88.26,1.54,1.54,0,0,1,.47.65,2.61,2.61,0,0,1,.17.82v.08H125a3,3,0,0,1,.09-.45A2.26,2.26,0,0,1,125.43,168.85Z"></path><path class="cls-2" d="M121.29,168.84a1.81,1.81,0,0,1,.15.8v4.16h1.09v-4.15a3.58,3.58,0,0,0-.14-1.06,2,2,0,0,0-.42-.72,1.46,1.46,0,0,0-.63-.39,2.49,2.49,0,0,0-.85-.13,2.31,2.31,0,0,0-1,.23,2.22,2.22,0,0,0-.8.63l0,0V164.8h-1.08v9h1.08v-4.45a2.73,2.73,0,0,1,.24-.45,1.71,1.71,0,0,1,.57-.47,1.64,1.64,0,0,1,.74-.17,1.6,1.6,0,0,1,.69.14A.92.92,0,0,1,121.29,168.84Z"></path><rect class="cls-2" x="42.45" y="192.8" width="1.09" height="9"></rect><path class="cls-2" d="M56.47,237.87a1.56,1.56,0,0,0-.64-.39,2.49,2.49,0,0,0-.85-.13,2.24,2.24,0,0,0-1,.23,2.17,2.17,0,0,0-.81.63l0,0,0-.8H52v6.34h1.09v-4.45a1.63,1.63,0,0,1,.8-.92,1.68,1.68,0,0,1,.74-.17,1.54,1.54,0,0,1,.69.14.92.92,0,0,1,.43.44,1.81,1.81,0,0,1,.15.8v4.16H57v-4.15a3.58,3.58,0,0,0-.14-1.06A1.94,1.94,0,0,0,56.47,237.87Z"></path><path class="cls-2" d="M110.22,127.31a1.51,1.51,0,0,1,.3-.47,1.32,1.32,0,0,1,.49-.33,1.69,1.69,0,0,1,.66-.12h.27l.26,0v-1a.64.64,0,0,0-.21-.05l-.27,0a1.66,1.66,0,0,0-1.5.83v0l0-.74h-1v6.34h1.08Z"></path><path class="cls-2" d="M102.21,165.34a.73.73,0,0,0-1,0,.69.69,0,0,0,0,.88.76.76,0,0,0,1,0,.65.65,0,0,0,0-.88Z"></path><path class="cls-2" d="M84.79,141.35a2.14,2.14,0,0,1,.24-.45,1.71,1.71,0,0,1,.57-.47,1.64,1.64,0,0,1,.74-.17,1.6,1.6,0,0,1,.69.14.92.92,0,0,1,.43.44,1.82,1.82,0,0,1,.14.8v4.16h1.09v-4.15a3.28,3.28,0,0,0-.14-1.06,1.81,1.81,0,0,0-.41-.72,1.5,1.5,0,0,0-.64-.39,2.47,2.47,0,0,0-.84-.13,2.31,2.31,0,0,0-1,.23,2.34,2.34,0,0,0-.81.63V136.8H83.71v9h1.08Z"></path><path class="cls-2" d="M92.7,112.3v-.83H91.51v-1.55H90.43v1.55H89.27v.83h1.16v3.93a2.22,2.22,0,0,0,.19,1,1.16,1.16,0,0,0,.53.52,1.67,1.67,0,0,0,.74.16,2.47,2.47,0,0,0,.5,0,1.59,1.59,0,0,0,.33-.08v-.88l-.23,0-.28,0a1.21,1.21,0,0,1-.34,0,.5.5,0,0,1-.26-.22,1,1,0,0,1-.1-.49V112.3Z"></path><path class="cls-2" d="M108.55,144.71a1,1,0,0,1-.26-.43,2.09,2.09,0,0,1-.1-.71v-4.11h-1.08v4.09a3.46,3.46,0,0,0,.15,1.09,1.92,1.92,0,0,0,.42.73,1.77,1.77,0,0,0,.66.42,2.57,2.57,0,0,0,.85.13,2.65,2.65,0,0,0,1.15-.22,1.81,1.81,0,0,0,.7-.54l0,.64h1v-6.34H111v4.6a1.53,1.53,0,0,1-.55.68,2.06,2.06,0,0,1-1.1.26,1.54,1.54,0,0,1-.43-.06A1,1,0,0,1,108.55,144.71Z"></path><rect class="cls-2" x="101.17" y="167.46" width="1.09" height="6.34"></rect><path class="cls-2" d="M104.19,155.31a1.72,1.72,0,0,1,.3-.47,1.41,1.41,0,0,1,.49-.33,1.69,1.69,0,0,1,.66-.12h.27l.26,0v-1a.64.64,0,0,0-.21-.05l-.27,0a1.7,1.7,0,0,0-.89.22,1.78,1.78,0,0,0-.61.61v0l0-.74h-1v6.34h1.08Z"></path><path class="cls-2" d="M99.29,122.69a2.34,2.34,0,0,0-.55.62,2.84,2.84,0,0,0-.35.75,2.55,2.55,0,0,0-.12.75v.71h1.07v-.73a2.5,2.5,0,0,1,.15-.88,3,3,0,0,1,.41-.79Z"></path><path class="cls-2" d="M95.54,237.35a1.68,1.68,0,0,0-.89.22,1.7,1.7,0,0,0-.61.61v0l0-.74H93v6.34H94v-4.49a1.35,1.35,0,0,1,.3-.47,1.37,1.37,0,0,1,.48-.33,1.69,1.69,0,0,1,.66-.12h.27l.26,0v-1a.64.64,0,0,0-.21-.05Z"></path><path class="cls-2" d="M104.3,145.52a2.22,2.22,0,0,0,1-.83,2.51,2.51,0,0,0,.35-1.35,2.23,2.23,0,0,0-.23-1,1.89,1.89,0,0,0-.65-.75,2,2,0,0,0-.65-.28c.09,0,.19-.07.28-.12a2.09,2.09,0,0,0,.75-.69,1.73,1.73,0,0,0,.27-.95,2.49,2.49,0,0,0-.19-1,1.72,1.72,0,0,0-.55-.7,2.19,2.19,0,0,0-.87-.41,4.69,4.69,0,0,0-1.17-.14h-2.8v8.53h3A3.6,3.6,0,0,0,104.3,145.52Zm-1.68-7.32a2.66,2.66,0,0,1,.92.14,1,1,0,0,1,.55.43,1.45,1.45,0,0,1,.18.76,1.27,1.27,0,0,1-.21.74,1.24,1.24,0,0,1-.56.47,2,2,0,0,1-.85.17H101V138.2ZM101,141.81h1.91a2.12,2.12,0,0,1,.94.19,1.18,1.18,0,0,1,.53.53,1.81,1.81,0,0,1,.17.83,1.52,1.52,0,0,1-.2.81,1.3,1.3,0,0,1-.58.53,2.08,2.08,0,0,1-.91.18H101Z"></path><path class="cls-2" d="M94.27,229.73a2,2,0,0,0,.85-.64,2.91,2.91,0,0,0,.54-1.16,6.89,6.89,0,0,0,.19-1.77v-1.3a6.94,6.94,0,0,0-.13-1.46,3.92,3.92,0,0,0-.35-1.05,2.07,2.07,0,0,0-1.31-1.07,3.28,3.28,0,0,0-.91-.12,3.33,3.33,0,0,0-1.12.18,2.12,2.12,0,0,0-.84.62,3.19,3.19,0,0,0-.55,1.14,7.27,7.27,0,0,0-.18,1.76v1.3a7.75,7.75,0,0,0,.12,1.46,3.63,3.63,0,0,0,.36,1.07,2.4,2.4,0,0,0,.56.72,2.07,2.07,0,0,0,.75.39,3.28,3.28,0,0,0,.91.12A3,3,0,0,0,94.27,229.73Zm-2.13-1.1a1.85,1.85,0,0,1-.32-.52,3.46,3.46,0,0,1-.21-.76,7.52,7.52,0,0,1-.06-1v-1.66a6.23,6.23,0,0,1,.1-1.23,2.32,2.32,0,0,1,.31-.81,1.13,1.13,0,0,1,.5-.45,1.52,1.52,0,0,1,.69-.15,1.7,1.7,0,0,1,.57.09,1.2,1.2,0,0,1,.45.29,1.31,1.31,0,0,1,.32.5,3.39,3.39,0,0,1,.2.75,7.27,7.27,0,0,1,.07,1v1.66a7.28,7.28,0,0,1-.1,1.23,2.36,2.36,0,0,1-.31.83,1.19,1.19,0,0,1-.49.48,1.57,1.57,0,0,1-.7.15,1.7,1.7,0,0,1-.57-.09A1.25,1.25,0,0,1,92.14,228.63Z"></path><path class="cls-2" d="M101.61,242.42v-2.95a2.07,2.07,0,0,0-.31-1.18,1.8,1.8,0,0,0-.83-.71,3.4,3.4,0,0,0-2.26-.07,2.58,2.58,0,0,0-.8.44,1.89,1.89,0,0,0-.5.6,1.4,1.4,0,0,0-.18.67h1.09a.77.77,0,0,1,.17-.49,1.15,1.15,0,0,1,.48-.37,1.74,1.74,0,0,1,.72-.14,1.65,1.65,0,0,1,.74.15,1,1,0,0,1,.44.44,1.33,1.33,0,0,1,.15.65v.5H99.45a4.83,4.83,0,0,0-1.18.14,2.85,2.85,0,0,0-.9.39,1.77,1.77,0,0,0-.57.65,2,2,0,0,0,.06,1.86,2,2,0,0,0,.75.67,2.41,2.41,0,0,0,1.13.25,2.49,2.49,0,0,0,.93-.17,2.8,2.8,0,0,0,.71-.46,1.45,1.45,0,0,0,.18-.17,1.28,1.28,0,0,0,0,.19,1.72,1.72,0,0,0,.13.49h1.13v-.09a3,3,0,0,1-.17-.61A5.59,5.59,0,0,1,101.61,242.42Zm-1.83.34a1.79,1.79,0,0,1-.88.21,1.38,1.38,0,0,1-.67-.14,1,1,0,0,1-.41-.39,1.12,1.12,0,0,1-.13-.55,1,1,0,0,1,.13-.51,1,1,0,0,1,.37-.36,2,2,0,0,1,.61-.22,4.1,4.1,0,0,1,.83-.08h.89V242a1.23,1.23,0,0,1-.14.24A1.89,1.89,0,0,1,99.78,242.76Z"></path><path class="cls-2" d="M105.09,169.35a2.14,2.14,0,0,1,.24-.45,1.71,1.71,0,0,1,.57-.47,1.64,1.64,0,0,1,.74-.17,1.6,1.6,0,0,1,.69.14.9.9,0,0,1,.42.44,1.81,1.81,0,0,1,.15.8v4.16H109v-4.15a3.58,3.58,0,0,0-.14-1.06,1.81,1.81,0,0,0-.41-.72,1.56,1.56,0,0,0-.64-.39,2.47,2.47,0,0,0-.84-.13,2.25,2.25,0,0,0-1,.23,2.34,2.34,0,0,0-.81.63.1.1,0,0,1,0,0l0-.8h-1v6.34h1.09Z"></path><path class="cls-2" d="M97.25,210.26a1.94,1.94,0,0,1,.72.12.91.91,0,0,1,.47.42,1.71,1.71,0,0,1,.17.83v4.17H99.7v-4.16a3.47,3.47,0,0,0-.14-1,1.84,1.84,0,0,0-.42-.71,1.6,1.6,0,0,0-.67-.42,2.75,2.75,0,0,0-.9-.13,2.44,2.44,0,0,0-1.07.22,2.22,2.22,0,0,0-.79.59c-.06.07-.11.15-.16.22a1.82,1.82,0,0,0-.34-.51,1.6,1.6,0,0,0-.65-.39,2.39,2.39,0,0,0-.82-.13,2.45,2.45,0,0,0-1.11.23,2.11,2.11,0,0,0-.76.58l0-.7h-1v6.34h1.09v-4.56a3.45,3.45,0,0,1,.14-.34,1.31,1.31,0,0,1,.52-.47,1.72,1.72,0,0,1,.8-.17,1.78,1.78,0,0,1,.72.14,1,1,0,0,1,.47.44,1.6,1.6,0,0,1,.17.79v4.17h1.08v-4.08a2.17,2.17,0,0,1,.08-.51,1.63,1.63,0,0,1,.29-.49,1.45,1.45,0,0,1,.46-.34A1.61,1.61,0,0,1,97.25,210.26Z"></path><path class="cls-2" d="M80.36,145.24a1.16,1.16,0,0,0,.53.52,1.67,1.67,0,0,0,.74.16,2.47,2.47,0,0,0,.5,0,1.9,1.9,0,0,0,.34-.08v-.88l-.23.05L82,145a1.27,1.27,0,0,1-.34-.05.5.5,0,0,1-.26-.22,1,1,0,0,1-.1-.49V140.3h1.19v-.84H81.25v-1.54H80.17v1.54H79v.84h1.16v3.93A2.22,2.22,0,0,0,80.36,145.24Z"></path><path class="cls-2" d="M75.55,201.79a2.65,2.65,0,0,0,.77-.39,1.68,1.68,0,0,0,.5-.6A1.61,1.61,0,0,0,77,200a1.46,1.46,0,0,0-.25-.87,1.86,1.86,0,0,0-.75-.6,6.18,6.18,0,0,0-1.28-.42A6.5,6.5,0,0,1,74,198a2.41,2.41,0,0,1-.45-.21.72.72,0,0,1-.22-.25.83.83,0,0,1-.06-.32.92.92,0,0,1,.12-.45.94.94,0,0,1,.41-.34,1.53,1.53,0,0,1,.73-.14,1.42,1.42,0,0,1,.72.16,1.15,1.15,0,0,1,.45.42.88.88,0,0,1,.16.51h1.08a1.76,1.76,0,0,0-.28-1,2,2,0,0,0-.83-.72,2.87,2.87,0,0,0-1.3-.27,3.24,3.24,0,0,0-1,.14,2.4,2.4,0,0,0-.74.41,2.08,2.08,0,0,0-.48.59,1.57,1.57,0,0,0-.16.71,1.34,1.34,0,0,0,.16.68,1.37,1.37,0,0,0,.45.51,2.71,2.71,0,0,0,.72.37,6.93,6.93,0,0,0,1,.27,3.41,3.41,0,0,1,.93.29.92.92,0,0,1,.42.37.91.91,0,0,1,.1.43.78.78,0,0,1-.15.47,1,1,0,0,1-.47.32,2,2,0,0,1-.74.12,2.22,2.22,0,0,1-.67-.1,1.41,1.41,0,0,1-.58-.37,1.15,1.15,0,0,1-.26-.71H72a1.85,1.85,0,0,0,.3,1,2.15,2.15,0,0,0,.88.77,3.07,3.07,0,0,0,1.42.3A3.46,3.46,0,0,0,75.55,201.79Z"></path><path class="cls-2" d="M80.7,242.42v-2.95a2.15,2.15,0,0,0-.3-1.18,1.83,1.83,0,0,0-.84-.71,3,3,0,0,0-1.21-.23,3.17,3.17,0,0,0-1,.16,2.42,2.42,0,0,0-.79.44,1.92,1.92,0,0,0-.51.6,1.51,1.51,0,0,0-.17.67h1.08a.83.83,0,0,1,.17-.49,1.29,1.29,0,0,1,.48-.37,1.81,1.81,0,0,1,.72-.14,1.65,1.65,0,0,1,.74.15,1,1,0,0,1,.45.44,1.33,1.33,0,0,1,.15.65v.5H78.55a4.71,4.71,0,0,0-1.18.14,2.85,2.85,0,0,0-.9.39,1.8,1.8,0,0,0-.58.65,2,2,0,0,0-.2.9,1.78,1.78,0,0,0,.27,1,2,2,0,0,0,.75.67,2.38,2.38,0,0,0,1.13.25,2.43,2.43,0,0,0,.92-.17,2.87,2.87,0,0,0,.72-.46c.06,0,.11-.11.17-.17s0,.12,0,.19a2.81,2.81,0,0,0,.13.49h1.13v-.09a3,3,0,0,1-.17-.61A5.59,5.59,0,0,1,80.7,242.42Zm-1.83.34A1.76,1.76,0,0,1,78,243a1.38,1.38,0,0,1-.67-.14,1,1,0,0,1-.4-.39,1.12,1.12,0,0,1-.14-.55,1,1,0,0,1,.13-.51,1,1,0,0,1,.38-.36,1.83,1.83,0,0,1,.6-.22,4.17,4.17,0,0,1,.83-.08h.9V242a2.1,2.1,0,0,1-.14.24A1.83,1.83,0,0,1,78.87,242.76Z"></path><path class="cls-2" d="M80.64,159.76a4.5,4.5,0,0,0,2.38,0,3,3,0,0,0,1-.46,2.07,2.07,0,0,0,.6-.72,2.09,2.09,0,0,0,.21-.94,2.24,2.24,0,0,0-.17-.89,1.87,1.87,0,0,0-.51-.71,3.64,3.64,0,0,0-.87-.57A8.08,8.08,0,0,0,82,155c-.35-.1-.66-.2-.91-.3a2.74,2.74,0,0,1-.62-.35,1.34,1.34,0,0,1-.36-.4,1.18,1.18,0,0,1-.11-.5,1.27,1.27,0,0,1,.19-.7,1.3,1.3,0,0,1,.58-.5,2.45,2.45,0,0,1,1-.18,2.22,2.22,0,0,1,1.06.22,1.45,1.45,0,0,1,.62.58,1.81,1.81,0,0,1,.2.85h1.13a2.35,2.35,0,0,0-.36-1.25,2.54,2.54,0,0,0-1-.95,3.3,3.3,0,0,0-1.63-.37,3.72,3.72,0,0,0-1.19.17,3,3,0,0,0-.92.49,2.17,2.17,0,0,0-.58.74,2,2,0,0,0-.21.92,1.93,1.93,0,0,0,.19.88,2.16,2.16,0,0,0,.56.69,4,4,0,0,0,.87.53,10,10,0,0,0,1.15.42,8,8,0,0,1,1,.34,2.2,2.2,0,0,1,.62.36.91.91,0,0,1,.32.42,1.44,1.44,0,0,1,.09.53,1.22,1.22,0,0,1-.21.72,1.37,1.37,0,0,1-.62.47,2.74,2.74,0,0,1-1,.16,3.48,3.48,0,0,1-.79-.09,2.16,2.16,0,0,1-.67-.31,1.4,1.4,0,0,1-.46-.51,1.52,1.52,0,0,1-.17-.76H78.58a2.2,2.2,0,0,0,.28,1.13,2.49,2.49,0,0,0,.74.81A3.68,3.68,0,0,0,80.64,159.76Z"></path><rect class="cls-2" x="76.75" y="164.8" width="1.09" height="9"></rect><path class="cls-2" d="M78.51,193.57a2.6,2.6,0,0,1-.15.89,3.14,3.14,0,0,1-.41.79l.62.43a2.77,2.77,0,0,0,.55-.63,3.19,3.19,0,0,0,.35-.75,2.55,2.55,0,0,0,.12-.75v-.75H78.51Z"></path><path class="cls-2" d="M76,126.3h1.16v3.93a2.21,2.21,0,0,0,.2,1,1.16,1.16,0,0,0,.53.52,1.63,1.63,0,0,0,.73.16,2.35,2.35,0,0,0,.5,0,1.71,1.71,0,0,0,.34-.08v-.88l-.23.05-.28,0a1.21,1.21,0,0,1-.34-.05.47.47,0,0,1-.26-.22.92.92,0,0,1-.1-.49V126.3h1.18v-.84H78.23v-1.54H77.14v1.54H76Z"></path><path class="cls-2" d="M81.52,112.24a2.19,2.19,0,0,0-.81-.66,2.81,2.81,0,0,0-1.17-.23,2.68,2.68,0,0,0-1,.21,2.87,2.87,0,0,0-.89.64,3.11,3.11,0,0,0-.62,1,4,4,0,0,0-.23,1.38v.25a3.53,3.53,0,0,0,.21,1.23,2.81,2.81,0,0,0,.59,1,2.68,2.68,0,0,0,.91.64,3.11,3.11,0,0,0,1.21.22,3.18,3.18,0,0,0,1.08-.17,2.48,2.48,0,0,0,.78-.46,3.49,3.49,0,0,0,.52-.59l-.66-.52a2.25,2.25,0,0,1-.69.62,1.87,1.87,0,0,1-1,.24,1.83,1.83,0,0,1-.79-.17,1.81,1.81,0,0,1-.59-.47,2.09,2.09,0,0,1-.37-.69,2.76,2.76,0,0,1-.12-.77h4.28v-.49a4.82,4.82,0,0,0-.15-1.23A2.79,2.79,0,0,0,81.52,112.24Zm-.46,1.81H77.89a3,3,0,0,1,.09-.45,2.25,2.25,0,0,1,.34-.75,1.45,1.45,0,0,1,.54-.45,1.39,1.39,0,0,1,.68-.16,1.29,1.29,0,0,1,.87.26,1.39,1.39,0,0,1,.47.65,2.94,2.94,0,0,1,.18.82Z"></path><path class="cls-2" d="M81.78,126.21V122.8H80.68v9h1.09v-4.45a2.14,2.14,0,0,1,.24-.45,1.71,1.71,0,0,1,.57-.47,1.63,1.63,0,0,1,.73-.17,1.62,1.62,0,0,1,.7.14.9.9,0,0,1,.42.44,1.81,1.81,0,0,1,.15.8v4.16h1.09v-4.15a3.58,3.58,0,0,0-.14-1.06,1.81,1.81,0,0,0-.41-.72,1.56,1.56,0,0,0-.64-.39,2.47,2.47,0,0,0-.84-.13,2.25,2.25,0,0,0-1,.23A2.34,2.34,0,0,0,81.78,126.21Z"></path><path class="cls-2" d="M94.79,140.24a2.19,2.19,0,0,0-.81-.66,2.81,2.81,0,0,0-1.17-.23,2.6,2.6,0,0,0-1,.21,2.66,2.66,0,0,0-.89.64,3.13,3.13,0,0,0-.63,1,4,4,0,0,0-.22,1.38v.25a3.53,3.53,0,0,0,.2,1.23,2.81,2.81,0,0,0,.59,1,2.62,2.62,0,0,0,.92.64,3.09,3.09,0,0,0,1.2.22,3.14,3.14,0,0,0,1.08-.17,2.48,2.48,0,0,0,.78-.46,3.1,3.1,0,0,0,.52-.59l-.65-.52a2.41,2.41,0,0,1-.7.62,2,2,0,0,1-1.77.07,1.81,1.81,0,0,1-.59-.47,2.09,2.09,0,0,1-.37-.69,2.76,2.76,0,0,1-.12-.77h4.28v-.49a4.82,4.82,0,0,0-.15-1.23A2.79,2.79,0,0,0,94.79,140.24Zm-.46,1.81H91.16a3,3,0,0,1,.09-.45,2.47,2.47,0,0,1,.34-.75,1.45,1.45,0,0,1,.54-.45,1.39,1.39,0,0,1,.68-.16,1.34,1.34,0,0,1,.88.26,1.44,1.44,0,0,1,.46.65,2.63,2.63,0,0,1,.18.82Z"></path><path class="cls-2" d="M80.31,193.57a2.6,2.6,0,0,1-.15.89,3.14,3.14,0,0,1-.41.79l.62.43a2.77,2.77,0,0,0,.55-.63,2.8,2.8,0,0,0,.34-.75,2.28,2.28,0,0,0,.13-.75v-.75H80.31Z"></path><path class="cls-2" d="M87.86,126.2a3.11,3.11,0,0,0-.62,1,4,4,0,0,0-.23,1.38v.25a3.53,3.53,0,0,0,.21,1.23,2.79,2.79,0,0,0,.58,1,2.82,2.82,0,0,0,.92.64,3.09,3.09,0,0,0,1.2.22,3.24,3.24,0,0,0,1.09-.17,2.48,2.48,0,0,0,.78-.46,3.49,3.49,0,0,0,.52-.59l-.66-.52a2.37,2.37,0,0,1-.69.62,1.87,1.87,0,0,1-1,.24,1.83,1.83,0,0,1-.79-.17,2,2,0,0,1-.6-.47,2.29,2.29,0,0,1-.37-.69,2.76,2.76,0,0,1-.11-.77h4.28v-.49a4.82,4.82,0,0,0-.15-1.23,2.79,2.79,0,0,0-.47-1,2.19,2.19,0,0,0-.81-.66,2.82,2.82,0,0,0-1.18-.23,2.64,2.64,0,0,0-1,.21A2.76,2.76,0,0,0,87.86,126.2Zm1.24.2a1.45,1.45,0,0,1,.68-.16,1.32,1.32,0,0,1,.88.26,1.46,1.46,0,0,1,.47.65,2.94,2.94,0,0,1,.18.82v.08H88.14c0-.16,0-.31.08-.45a2.48,2.48,0,0,1,.35-.75A1.5,1.5,0,0,1,89.1,126.4Z"></path><path class="cls-2" d="M83.18,173.29l.17-.17c0,.06,0,.12,0,.19a1.72,1.72,0,0,0,.13.49h1.13v-.09a2.45,2.45,0,0,1-.17-.61,4.18,4.18,0,0,1-.06-.68v-2.95a2.15,2.15,0,0,0-.3-1.18,1.86,1.86,0,0,0-.83-.71,3.4,3.4,0,0,0-2.26-.07,2.47,2.47,0,0,0-.8.44,1.77,1.77,0,0,0-.5.6,1.4,1.4,0,0,0-.18.67h1.08a.83.83,0,0,1,.17-.49,1.29,1.29,0,0,1,.48-.37,1.81,1.81,0,0,1,.72-.14,1.62,1.62,0,0,1,.74.15,1,1,0,0,1,.45.44,1.33,1.33,0,0,1,.15.65v.5H82.25a4.71,4.71,0,0,0-1.18.14,2.85,2.85,0,0,0-.9.39,1.89,1.89,0,0,0-.58.65,2,2,0,0,0-.2.9,1.78,1.78,0,0,0,.27,1,2,2,0,0,0,.75.67,2.38,2.38,0,0,0,1.13.25,2.52,2.52,0,0,0,.93-.17A3,3,0,0,0,83.18,173.29ZM81,172.83a1,1,0,0,1-.4-.39,1.12,1.12,0,0,1-.14-.55,1.07,1.07,0,0,1,.13-.51A1,1,0,0,1,81,171a1.9,1.9,0,0,1,.61-.22,4.07,4.07,0,0,1,.82-.08h.9V172a2.1,2.1,0,0,1-.14.24,1.89,1.89,0,0,1-.6.51,1.82,1.82,0,0,1-.88.21A1.42,1.42,0,0,1,81,172.83Z"></path><path class="cls-2" d="M91,159.8v-4.08a2.17,2.17,0,0,1,.08-.51,1.86,1.86,0,0,1,.29-.49,1.57,1.57,0,0,1,.46-.34,1.62,1.62,0,0,1,.64-.12,1.92,1.92,0,0,1,.71.12.91.91,0,0,1,.47.42,1.71,1.71,0,0,1,.17.83v4.17h1.09v-4.16a3.47,3.47,0,0,0-.14-1,1.73,1.73,0,0,0-1.08-1.13,2.86,2.86,0,0,0-.91-.13,2.44,2.44,0,0,0-1.07.22,2.22,2.22,0,0,0-.79.59c-.06.07-.1.15-.16.22a1.82,1.82,0,0,0-.34-.51,1.6,1.6,0,0,0-.65-.39,2.39,2.39,0,0,0-.82-.13,2.45,2.45,0,0,0-1.11.23,2.3,2.3,0,0,0-.76.58l0-.7h-1v6.34h1.09v-4.56a1.43,1.43,0,0,1,.14-.34,1.28,1.28,0,0,1,.51-.47,1.95,1.95,0,0,1,1.52,0,1,1,0,0,1,.47.44,1.6,1.6,0,0,1,.17.79v4.17Z"></path><path class="cls-2" d="M95.41,167.58a2.81,2.81,0,0,0-1.17-.23,2.6,2.6,0,0,0-1,.21,2.8,2.8,0,0,0-.9.64,3.29,3.29,0,0,0-.62,1,4,4,0,0,0-.22,1.38v.25a3.53,3.53,0,0,0,.2,1.23,2.81,2.81,0,0,0,.59,1,2.62,2.62,0,0,0,.92.64,3.09,3.09,0,0,0,1.2.22,3.14,3.14,0,0,0,1.08-.17,2.48,2.48,0,0,0,.78-.46,3.1,3.1,0,0,0,.52-.59l-.65-.52a2.41,2.41,0,0,1-.7.62,2,2,0,0,1-1.77.07,1.81,1.81,0,0,1-.59-.47,2.09,2.09,0,0,1-.37-.69,2.76,2.76,0,0,1-.12-.77h4.28v-.49a4.82,4.82,0,0,0-.15-1.23,2.79,2.79,0,0,0-.47-1A2.19,2.19,0,0,0,95.41,167.58Zm.35,2.47H92.59a3,3,0,0,1,.09-.45,2.47,2.47,0,0,1,.34-.75,1.45,1.45,0,0,1,.54-.45,1.39,1.39,0,0,1,.68-.16,1.34,1.34,0,0,1,.88.26,1.44,1.44,0,0,1,.46.65,2.63,2.63,0,0,1,.18.82Z"></path><polygon class="cls-2" points="91.39 187.81 92.02 187.81 92.12 187.81 94.4 181.47 93.29 181.47 91.72 186.32 90.11 181.47 89 181.47 91.3 187.81 91.39 187.81"></polygon><rect class="cls-2" x="86.8" y="181.46" width="1.09" height="6.34"></rect><polygon class="cls-2" points="87.78 173.81 88.41 173.81 88.51 173.81 90.79 167.47 89.68 167.47 88.11 172.32 86.5 167.47 85.38 167.47 87.68 173.81 87.78 173.81"></polygon><path class="cls-2" d="M87.83,179.34a.61.61,0,0,0-.47-.18.62.62,0,0,0-.48.18.69.69,0,0,0,0,.88.65.65,0,0,0,.48.17.64.64,0,0,0,.47-.17.65.65,0,0,0,0-.88Z"></path><polygon class="cls-2" points="97.99 109.27 97.11 109.27 97.11 117.81 98.24 117.81 98.24 114.04 101.81 114.04 101.81 113.11 98.24 113.11 98.24 110.2 102.39 110.2 102.39 109.27 98.24 109.27 97.99 109.27"></polygon><polygon class="cls-2" points="86.22 229.81 87.31 229.81 87.31 221.23 87.14 221.23 84.04 222.4 84.04 223.38 86.22 222.58 86.22 229.81"></polygon><path class="cls-2" d="M108.15,112.27a2.56,2.56,0,0,0-.91-.68,3.12,3.12,0,0,0-2.4,0,2.65,2.65,0,0,0-.91.68,3,3,0,0,0-.57,1,4,4,0,0,0-.2,1.27v.14a4,4,0,0,0,.2,1.27,3,3,0,0,0,.57,1,2.69,2.69,0,0,0,.92.68,3.1,3.1,0,0,0,2.39,0,2.56,2.56,0,0,0,.91-.68,2.86,2.86,0,0,0,.58-1,3.76,3.76,0,0,0,.2-1.27v-.14a3.72,3.72,0,0,0-.2-1.27A2.82,2.82,0,0,0,108.15,112.27Zm-.31,2.44a3.24,3.24,0,0,1-.12.89,2.17,2.17,0,0,1-.33.74,1.71,1.71,0,0,1-.56.51,1.61,1.61,0,0,1-.78.18,1.65,1.65,0,0,1-.79-.18,1.75,1.75,0,0,1-.57-.51,2.17,2.17,0,0,1-.33-.74,3.24,3.24,0,0,1-.12-.89v-.14a3.12,3.12,0,0,1,.12-.88,2.22,2.22,0,0,1,.33-.75,1.6,1.6,0,0,1,.56-.51,1.57,1.57,0,0,1,.79-.19,1.5,1.5,0,0,1,.78.19,1.55,1.55,0,0,1,.57.51,2.22,2.22,0,0,1,.33.75,3.12,3.12,0,0,1,.12.88Z"></path><path class="cls-2" d="M107.77,186.91a2,2,0,0,1-.74.12,2.33,2.33,0,0,1-.68-.1,1.44,1.44,0,0,1-.57-.37,1.15,1.15,0,0,1-.26-.71h-1.09a1.85,1.85,0,0,0,.3,1,2.15,2.15,0,0,0,.88.77,3.07,3.07,0,0,0,1.42.3,3.46,3.46,0,0,0,1-.13,2.65,2.65,0,0,0,.77-.39,1.68,1.68,0,0,0,.5-.6,1.61,1.61,0,0,0,.18-.76,1.54,1.54,0,0,0-.25-.87,1.86,1.86,0,0,0-.75-.6,6.39,6.39,0,0,0-1.28-.42,6.5,6.5,0,0,1-.73-.2,2.13,2.13,0,0,1-.45-.21.63.63,0,0,1-.22-.25.83.83,0,0,1-.06-.32.92.92,0,0,1,.12-.45.94.94,0,0,1,.41-.34,1.53,1.53,0,0,1,.73-.14,1.47,1.47,0,0,1,.72.16,1.15,1.15,0,0,1,.45.42.88.88,0,0,1,.16.51h1.08a1.76,1.76,0,0,0-.28-1,2.09,2.09,0,0,0-.83-.72,2.87,2.87,0,0,0-1.3-.27,3.24,3.24,0,0,0-1,.14,2.29,2.29,0,0,0-.74.41,1.92,1.92,0,0,0-.48.59,1.57,1.57,0,0,0-.16.71,1.34,1.34,0,0,0,.16.68,1.37,1.37,0,0,0,.45.51,2.71,2.71,0,0,0,.72.37,6.77,6.77,0,0,0,1,.27,3.5,3.5,0,0,1,.94.29.92.92,0,0,1,.42.37.91.91,0,0,1,.1.43.72.72,0,0,1-.16.47A.93.93,0,0,1,107.77,186.91Z"></path><rect class="cls-2" x="81.62" y="206.8" width="1.09" height="9"></rect><path class="cls-2" d="M90.33,235.61a3.55,3.55,0,0,0-1.64-.34H85.55v8.53h1.13v-3.34h2a4,4,0,0,0,1.64-.3,2.24,2.24,0,0,0,1-.88,2.73,2.73,0,0,0,.35-1.41,2.6,2.6,0,0,0-.35-1.34A2.38,2.38,0,0,0,90.33,235.61Zm0,3.13a1.3,1.3,0,0,1-.59.59,2.39,2.39,0,0,1-1.08.21h-2V236.2h2a2.13,2.13,0,0,1,1.08.24,1.41,1.41,0,0,1,.59.62,1.86,1.86,0,0,1,0,1.68Z"></path><path class="cls-2" d="M110.15,159.8v-.88l-.22.05-.28,0a1.16,1.16,0,0,1-.34-.05.47.47,0,0,1-.26-.22.92.92,0,0,1-.1-.49V154.3h1.18v-.84h-1.18v-1.54h-1.09v1.54h-1.16v.84h1.16v3.93a2.21,2.21,0,0,0,.2,1,1.16,1.16,0,0,0,.53.52,1.63,1.63,0,0,0,.73.16,2.41,2.41,0,0,0,.5,0A1.9,1.9,0,0,0,110.15,159.8Z"></path><path class="cls-2" d="M101.7,124.26a3.81,3.81,0,0,0-.71,1.29,5.72,5.72,0,0,0-.24,1.72v.54a5.41,5.41,0,0,0,.25,1.72,3.79,3.79,0,0,0,.71,1.3,3.2,3.2,0,0,0,1.09.81,3.62,3.62,0,0,0,2.79,0,3.11,3.11,0,0,0,1.09-.81,3.75,3.75,0,0,0,.69-1.3,5.72,5.72,0,0,0,.24-1.72v-.54a5.41,5.41,0,0,0-.25-1.72,3.48,3.48,0,0,0-.7-1.29,2.88,2.88,0,0,0-1.08-.82,3.38,3.38,0,0,0-1.41-.28,3.31,3.31,0,0,0-1.38.28A3,3,0,0,0,101.7,124.26Zm1.52.06a2.24,2.24,0,0,1,1-.2,2.35,2.35,0,0,1,1,.2,2,2,0,0,1,.73.61,2.69,2.69,0,0,1,.45,1,5,5,0,0,1,.16,1.35v.55a5.6,5.6,0,0,1-.15,1.36,3.23,3.23,0,0,1-.45,1,2,2,0,0,1-.73.6,2.32,2.32,0,0,1-1.93,0,2.2,2.2,0,0,1-.73-.6,3,3,0,0,1-.47-1,5.13,5.13,0,0,1-.16-1.36v-.55a5,5,0,0,1,.16-1.35,2.87,2.87,0,0,1,.46-1A2.11,2.11,0,0,1,103.22,124.32Z"></path><path class="cls-2" d="M96.54,124.06a2.55,2.55,0,0,0-.12.75v.71h1.07v-.73a2.5,2.5,0,0,1,.15-.88,3.35,3.35,0,0,1,.42-.79l-.62-.43a2.52,2.52,0,0,0-.55.62A3.19,3.19,0,0,0,96.54,124.06Z"></path><path class="cls-2" d="M99.25,156a4.71,4.71,0,0,0-1.18.14,2.85,2.85,0,0,0-.9.39,1.8,1.8,0,0,0-.58.65,2,2,0,0,0-.2.9,1.78,1.78,0,0,0,.27,1,2,2,0,0,0,.75.67,2.38,2.38,0,0,0,1.13.25,2.43,2.43,0,0,0,.92-.17,2.87,2.87,0,0,0,.72-.46l.17-.17c0,.06,0,.12,0,.19a2.19,2.19,0,0,0,.12.49h1.14v-.09a2.09,2.09,0,0,1-.17-.61,4.18,4.18,0,0,1-.06-.68v-2.95a2.15,2.15,0,0,0-.3-1.18,1.86,1.86,0,0,0-.83-.71,3.12,3.12,0,0,0-1.22-.23,3.17,3.17,0,0,0-1,.16,2.52,2.52,0,0,0-.79.44,1.92,1.92,0,0,0-.51.6,1.51,1.51,0,0,0-.17.67h1.08a.83.83,0,0,1,.17-.49,1.29,1.29,0,0,1,.48-.37,1.81,1.81,0,0,1,.72-.14,1.62,1.62,0,0,1,.74.15,1,1,0,0,1,.45.44,1.33,1.33,0,0,1,.15.65v.5Zm.32,2.8a1.75,1.75,0,0,1-.87.21,1.42,1.42,0,0,1-.68-.14,1,1,0,0,1-.4-.39,1.12,1.12,0,0,1-.14-.55,1.07,1.07,0,0,1,.13-.51A1,1,0,0,1,98,157a1.81,1.81,0,0,1,.61-.22,4,4,0,0,1,.82-.08h.9V158a2.1,2.1,0,0,1-.14.24A1.83,1.83,0,0,1,99.57,158.76Z"></path><path class="cls-2" d="M85.13,187.88a1.71,1.71,0,0,0,.34-.08v-.88l-.23.05L85,187a1.16,1.16,0,0,1-.34-.05.47.47,0,0,1-.26-.22.92.92,0,0,1-.1-.49V182.3h1.18v-.84H84.26v-1.54H83.17v1.54H82v.84h1.16v3.93a2.21,2.21,0,0,0,.2,1,1.16,1.16,0,0,0,.53.52,1.63,1.63,0,0,0,.73.16A2.41,2.41,0,0,0,85.13,187.88Z"></path><polygon class="cls-2" points="88.98 88.5 88.98 89.78 90.64 89.11 90.64 95.81 92.15 95.81 92.15 87.25 91.97 87.25 88.98 88.5"></polygon><polygon class="cls-2" points="94.5 88.53 98.02 88.53 95.26 95.81 96.85 95.81 99.6 88.14 99.6 87.27 94.5 87.27 94.5 88.53"></polygon><path class="cls-2" d="M83.55,95.38a1.91,1.91,0,0,0,.68.41,2.36,2.36,0,0,0,.8.13,2.47,2.47,0,0,0,1-.2,2,2,0,0,0,.76-.65,3.5,3.5,0,0,0,.5-1.15,7.28,7.28,0,0,0,.17-1.67V90.81a7.19,7.19,0,0,0-.11-1.39,3.56,3.56,0,0,0-.33-1,2.22,2.22,0,0,0-.51-.7,1.84,1.84,0,0,0-.67-.4,2.36,2.36,0,0,0-.8-.13,2.31,2.31,0,0,0-1,.2,1.92,1.92,0,0,0-.76.64,3.2,3.2,0,0,0-.51,1.13,6.79,6.79,0,0,0-.17,1.68v1.44a7.32,7.32,0,0,0,.11,1.39,3.9,3.9,0,0,0,.33,1A2.27,2.27,0,0,0,83.55,95.38Zm.55-4.8a7.36,7.36,0,0,1,.06-1,2.27,2.27,0,0,1,.19-.66.81.81,0,0,1,.29-.37.72.72,0,0,1,1,.19,1.2,1.2,0,0,1,.19.41,2.81,2.81,0,0,1,.11.6,7.24,7.24,0,0,1,0,.85v1.88a7.52,7.52,0,0,1-.06,1,2.46,2.46,0,0,1-.18.68.82.82,0,0,1-.29.38.65.65,0,0,1-.39.12.72.72,0,0,1-.32-.08.8.8,0,0,1-.26-.23,1.65,1.65,0,0,1-.19-.42,4.17,4.17,0,0,1-.12-.63,7.13,7.13,0,0,1,0-.85Z"></path><path class="cls-2" d="M76.72,88.53a3.31,3.31,0,0,0-.29,1.38h1.5a2.55,2.55,0,0,1,.11-.77,1.13,1.13,0,0,1,.33-.54.84.84,0,0,1,.57-.19.71.71,0,0,1,.46.16,1,1,0,0,1,.3.46,2.18,2.18,0,0,1,.1.66,2,2,0,0,1-.09.57,3.34,3.34,0,0,1-.28.65,7.79,7.79,0,0,1-.55.84l-2.32,3V95.8h5V94.55H78.47l1.29-1.79c.24-.28.45-.56.64-.82a7.84,7.84,0,0,0,.49-.8,4.79,4.79,0,0,0,.31-.79,3.22,3.22,0,0,0,.11-.81A2.67,2.67,0,0,0,81,88.27a1.92,1.92,0,0,0-.79-.83A2.63,2.63,0,0,0,79,87.15a2.45,2.45,0,0,0-1.37.38A2.56,2.56,0,0,0,76.72,88.53Z"></path></svg>