<svg xmlns="http://www.w3.org/2000/svg" id="Layer_1" data-name="Layer 1" viewBox="0 0 177 166"><defs><style>.cls-1{fill:#61686d;}.cls-2{fill:#fff;}</style></defs><path class="cls-1" d="M140.74,69.15c-2.58,1.8-3,3.76-3.07,4.31l-1.14.65c.55-.91,1.06-1.84,1.54-2.8a43.14,43.14,0,0,0,2.06-5c.06-.19.12-.38.19-.57a13.72,13.72,0,0,1,2-3.92l.18-.23c7.24-4,3.92-12,3.92-12,.11,1.78-1.62,3.15-3.39,6.4-1.51,2.77-1,4.71-.82,5.23-.37.57-.71,1.07-1,1.49.12-.52.23-1,.32-1.57a36.87,36.87,0,0,0,.63-5.34l0-.67c0-.23,0-.45,0-.68V53.08c0-.44,0-.89-.05-1.34,0-.22,0-.44,0-.67l-.06-.66a4.56,4.56,0,0,1,.07-1.33l.52-2.56c5.28-6.35-.78-12.64-.78-12.64.76,1.62-.35,3.52-.8,7.2-.38,3.12.8,4.75,1.16,5.16-.15.74-.3,1.39-.44,1.92l0-.42c-.05-.45-.15-.88-.24-1.32l-.12-.66c0-.22-.09-.44-.14-.65-.22-.87-.41-1.74-.69-2.59l-.19-.64-.1-.32-.11-.31L139.64,40c-.29-.73-.59-1.46-.91-2.17a11.71,11.71,0,0,1-1-4.07c0-.33,0-.65-.07-1,2.84-7.76-5-11.66-5-11.66,1.25,1.28.85,3.44,1.66,7.05.69,3.08,2.35,4.2,2.83,4.47.16,1.05.24,1.94.28,2.55l0-.06-.32-.6-.34-.57-.69-1.14-.75-1.11-.37-.55-.4-.53c-.41-.57-.84-1.12-1.29-1.66-.62-.79-1.48-1.94-2.22-2.77a5.65,5.65,0,0,1-.89-1.28c-3.25-6.86-11.2-4.93-11.2-4.93,1.79.11,2.93,2,5.94,4.15a6.62,6.62,0,0,0,4.94,1.49l.27.08.91,1a37.4,37.4,0,0,1,3.32,4.12l.38.54c.13.19.24.37.36.56l.71,1.12.29.53a21.42,21.42,0,0,0-2.37-1.77c-4.29-7.06-12.22-3.37-12.22-3.37,1.78-.19,3.22,1.47,6.55,3.09,2.83,1.38,4.75.79,5.26.58,1.13.67,2.08,1.31,2.62,1.71a2.61,2.61,0,0,1,.83.95h0l.3.59a37.65,37.65,0,0,1,2.08,4.85l.41,1.25.1.31.09.32.18.63c.25.84.42,1.7.61,2.56.05.21.09.43.12.64v0A22.66,22.66,0,0,0,139,43.65c-2-8-10.69-6.81-10.69-6.81,1.76.34,2.65,2.35,5.36,4.87,2.31,2.15,4.31,2.15,4.86,2.1.61.68,1.13,1.28,1.5,1.75a4.24,4.24,0,0,1,.94,2.26v0l.15,1.3,0,.33,0,.33,0,.65,0,.65c0,.22,0,.44,0,.65,0,.44,0,.88,0,1.32l0,1.31c0,.22,0,.44,0,.65l-.05.66c-.07.94-.18,1.89-.31,2.82a21.93,21.93,0,0,0-.65-2.24c1-8.2-7.56-10.17-7.56-10.17,1.52.94,1.63,3.14,3.26,6.46,1.39,2.84,3.27,3.54,3.8,3.7.2.51.37,1,.52,1.39a5.82,5.82,0,0,1,.2,3.2h0a36.55,36.55,0,0,1-1.44,5,39.74,39.74,0,0,1-2.11,4.77c-.23.45-.48.89-.74,1.33a21.49,21.49,0,0,0,.26-2.67c3.9-7.28-3.3-12.23-3.3-12.23,1.07,1.44.36,3.52.66,7.21.25,3.14,1.74,4.5,2.18,4.83v.35a9.9,9.9,0,0,1-1.78,5.59s0,0,0,0a37.58,37.58,0,0,1-3.32,4c-.3.31-.59.63-.91.93l-.94.9,0,0c.29-.51.55-1,.78-1.51,6.42-5.2,1.69-12.55,1.69-12.55.43,1.73-1,3.38-2.18,6.9-1,3-.14,4.82.13,5.29-.19.45-.37.87-.54,1.24A6.33,6.33,0,0,1,127,82.6h0a35.48,35.48,0,0,1-4.25,3c-.87.52-1.75,1-2.65,1.44.37-.39.72-.78,1-1.17C127.24,83,125,76.21,125,76.21c0,1.47-1.49,2.48-3.12,5.05a5.32,5.32,0,0,0-1,4.22c-.2.27-.39.52-.57.74a5.74,5.74,0,0,1-2.21,1.69h0a40.21,40.21,0,0,1-4.88,1.69h0a1.07,1.07,0,0,0-.79,1,1.1,1.1,0,0,0,1.41,1.1,42.48,42.48,0,0,0,5.11-1.92,40.79,40.79,0,0,0,4.78-2.59c.93-.58,1.82-1.2,2.69-1.86a7.82,7.82,0,0,1,4.07-1.56c7.7,3,11.72-4.8,11.72-4.8-1.29,1.24-3.45.81-7.07,1.56-3.09.64-4.24,2.28-4.52,2.76-.74.09-1.4.16-1.94.19.49-.43,1-.88,1.45-1.33l1-1c.32-.32.61-.67.92-1a37.29,37.29,0,0,0,3.34-4.26l.07-.09a5.25,5.25,0,0,1,2-1.73l.38-.2c8.25-.3,8.89-9,8.89-9C145.93,66.58,143.78,67,140.74,69.15Z"></path><path class="cls-1" d="M37.76,69.15c2.59,1.8,3,3.76,3.07,4.31l1.14.65c-.55-.91-1.06-1.84-1.54-2.8a43.14,43.14,0,0,1-2.06-5l-.18-.57a13.75,13.75,0,0,0-2-3.92c-.06-.07-.12-.16-.17-.23-7.24-4-3.92-12-3.92-12-.11,1.78,1.61,3.15,3.38,6.4,1.51,2.77,1,4.71.82,5.23.37.57.72,1.07,1,1.49-.12-.52-.23-1-.33-1.57a36.87,36.87,0,0,1-.63-5.34l0-.67c0-.23,0-.45,0-.68V53.08c0-.44,0-.89.06-1.34,0-.22,0-.44,0-.67l.07-.66a4.94,4.94,0,0,0-.07-1.33l-.53-2.56c-5.28-6.35.78-12.64.78-12.64-.75,1.62.35,3.52.8,7.2.38,3.12-.8,4.75-1.16,5.16.15.74.31,1.39.44,1.92l0-.42c0-.45.16-.88.24-1.32l.13-.66c0-.22.08-.44.14-.65.21-.87.41-1.74.68-2.59l.2-.64.09-.32.12-.31L38.87,40c.28-.73.58-1.46.9-2.17a11.71,11.71,0,0,0,1-4.07c0-.33,0-.65.07-1-2.84-7.76,5-11.66,5-11.66-1.26,1.28-.86,3.44-1.67,7.05-.69,3.08-2.35,4.2-2.83,4.47-.15,1.05-.24,1.94-.28,2.55,0,0,0,0,0-.06l.32-.6c.1-.19.23-.38.34-.57l.69-1.14.74-1.11.37-.55.4-.53c.41-.57.84-1.12,1.29-1.66.63-.79,1.48-1.94,2.23-2.77a5.94,5.94,0,0,0,.88-1.28C51.61,18.07,59.56,20,59.56,20c-1.79.11-2.93,2-5.93,4.15a6.65,6.65,0,0,1-5,1.49l-.27.08-.91,1a39.88,39.88,0,0,0-3.32,4.12l-.38.54-.36.56L42.73,33l-.3.53a21.51,21.51,0,0,1,2.38-1.77C49.1,24.71,57,28.4,57,28.4c-1.78-.19-3.21,1.47-6.54,3.09-2.84,1.38-4.75.79-5.26.58-1.13.67-2.08,1.31-2.63,1.71a2.59,2.59,0,0,0-.82.95h0l-.3.59a37.65,37.65,0,0,0-2.08,4.85L39,41.42l-.11.31-.09.32-.17.63c-.25.84-.42,1.7-.61,2.56,0,.21-.09.43-.13.64v0a24.34,24.34,0,0,1,1.67-2.25c2-8,10.69-6.81,10.69-6.81-1.75.34-2.64,2.35-5.35,4.87-2.31,2.15-4.32,2.15-4.86,2.1-.62.68-1.13,1.28-1.51,1.75a4.15,4.15,0,0,0-.93,2.26v0l-.16,1.3,0,.33,0,.33,0,.65,0,.65c0,.22,0,.44,0,.65,0,.44,0,.88,0,1.32l0,1.31c0,.22,0,.44,0,.65l0,.66c.07.94.17,1.89.31,2.82a19.65,19.65,0,0,1,.65-2.24c-1-8.2,7.56-10.17,7.56-10.17-1.52.94-1.63,3.14-3.27,6.46-1.39,2.84-3.26,3.54-3.79,3.7-.2.51-.38,1-.52,1.39a5.82,5.82,0,0,0-.2,3.2h0a39.58,39.58,0,0,0,1.44,5,43.19,43.19,0,0,0,2.11,4.77c.24.45.49.89.75,1.33a23.68,23.68,0,0,1-.27-2.67C38.24,62,45.44,57.09,45.44,57.09c-1.07,1.44-.37,3.52-.67,7.21-.25,3.14-1.73,4.5-2.17,4.83v.35a9.75,9.75,0,0,0,1.78,5.59l0,0a36.33,36.33,0,0,0,3.31,4c.31.31.59.63.91.93l.94.9,0,0c-.29-.51-.54-1-.78-1.51-6.41-5.2-1.69-12.55-1.69-12.55-.43,1.73,1,3.38,2.18,6.9,1,3,.14,4.82-.13,5.29.19.45.38.87.54,1.24a6.25,6.25,0,0,0,1.82,2.32,0,0,0,0,0,0,0,36.3,36.3,0,0,0,4.25,3c.87.52,1.75,1,2.66,1.44a15.61,15.61,0,0,1-1-1.17c-6.15-2.83-3.89-9.63-3.89-9.63,0,1.47,1.5,2.48,3.13,5.05a5.3,5.3,0,0,1,1,4.22c.21.27.39.52.57.74a5.74,5.74,0,0,0,2.21,1.69h0a40.06,40.06,0,0,0,4.87,1.69h0a1.07,1.07,0,0,1,.79,1,1.09,1.09,0,0,1-1.41,1.1,42.33,42.33,0,0,1-5.1-1.92,40.92,40.92,0,0,1-4.79-2.59c-.92-.58-1.82-1.2-2.69-1.86a7.82,7.82,0,0,0-4.06-1.56c-7.71,3-11.73-4.8-11.73-4.8,1.3,1.24,3.45.81,7.08,1.56,3.08.64,4.24,2.28,4.51,2.76.75.09,1.4.16,1.94.19-.49-.43-1-.88-1.44-1.33l-.95-1c-.33-.32-.62-.67-.93-1a38.44,38.44,0,0,1-3.34-4.26l-.06-.09a5.36,5.36,0,0,0-2-1.73l-.38-.2c-8.25-.3-8.89-9-8.89-9C32.57,66.58,34.73,67,37.76,69.15Z"></path><path class="cls-2" d="M81.16,46.54a1.73,1.73,0,0,0-.06-.47.88.88,0,0,0-.2-.38,1.86,1.86,0,0,0-.44-.33,4.38,4.38,0,0,0-.71-.33,7.41,7.41,0,0,1-.94-.43,4,4,0,0,1-.77-.52,2.37,2.37,0,0,1-.52-.7,2.23,2.23,0,0,1-.19-.93,2.3,2.3,0,0,1,.19-1,2.26,2.26,0,0,1,.52-.74,2.59,2.59,0,0,1,.82-.49,3.21,3.21,0,0,1,1-.17,2.73,2.73,0,0,1,1.41.35,2.35,2.35,0,0,1,.91.94,2.76,2.76,0,0,1,.31,1.32H81.13A2.08,2.08,0,0,0,81,42a1.08,1.08,0,0,0-.4-.51,1.23,1.23,0,0,0-.7-.18,1.28,1.28,0,0,0-.65.15.94.94,0,0,0-.37.42,1.46,1.46,0,0,0-.12.6.88.88,0,0,0,.1.43,1.14,1.14,0,0,0,.28.35,3.67,3.67,0,0,0,.46.3c.18.09.39.18.62.27a5.7,5.7,0,0,1,1,.48,2.9,2.9,0,0,1,.73.59,2.07,2.07,0,0,1,.43.73,2.67,2.67,0,0,1,.15.93,2.49,2.49,0,0,1-.18,1,1.91,1.91,0,0,1-.52.73,2.31,2.31,0,0,1-.82.48,3.31,3.31,0,0,1-1.08.16,3.45,3.45,0,0,1-1.06-.16,2.84,2.84,0,0,1-.9-.5,2.33,2.33,0,0,1-.63-.85,2.78,2.78,0,0,1-.23-1.19h1.42a2.41,2.41,0,0,0,.1.7,1.17,1.17,0,0,0,.29.47,1,1,0,0,0,.45.27,1.83,1.83,0,0,0,.59.09,1.39,1.39,0,0,0,.65-.14.94.94,0,0,0,.38-.41A1.4,1.4,0,0,0,81.16,46.54Zm4-6.79v9H83.75v-9Zm3.28,2.66-2.25,3.06L84.78,47l-.34-1.2,1-1.43,1.32-2ZM87,48.75l-1.56-3,.85-1,2.28,4Zm2.11-2.92v-.51a4.3,4.3,0,0,1,.18-1.3,2.61,2.61,0,0,1,.51-1,2.17,2.17,0,0,1,.8-.58,2.53,2.53,0,0,1,1-.2,2.61,2.61,0,0,1,1,.2,2.06,2.06,0,0,1,.79.58A2.64,2.64,0,0,1,94,44a4.3,4.3,0,0,1,.18,1.3v.51A4.32,4.32,0,0,1,94,47.14a2.78,2.78,0,0,1-.53,1,2.14,2.14,0,0,1-.79.57,2.78,2.78,0,0,1-2,0,2.17,2.17,0,0,1-.8-.57,2.61,2.61,0,0,1-.52-1A4.32,4.32,0,0,1,89.14,45.83Zm1.36-.51v.51a4.13,4.13,0,0,0,.08.84,2,2,0,0,0,.24.58.92.92,0,0,0,.36.35.94.94,0,0,0,.47.12,1,1,0,0,0,.5-.12.84.84,0,0,0,.35-.35,1.71,1.71,0,0,0,.22-.58,4.19,4.19,0,0,0,.07-.84v-.51a4,4,0,0,0-.08-.82,2.14,2.14,0,0,0-.23-.59,1,1,0,0,0-.37-.35,1,1,0,0,0-.94,0,1,1,0,0,0-.35.35,2.14,2.14,0,0,0-.24.59A4,4,0,0,0,90.5,45.32Zm7.08,2.4a1,1,0,0,0,.47-.11.77.77,0,0,0,.34-.35,1.5,1.5,0,0,0,.13-.62h1.29a2.39,2.39,0,0,1-.32,1.18,2,2,0,0,1-.79.77,2.27,2.27,0,0,1-1.1.27,2.62,2.62,0,0,1-1.09-.2,1.88,1.88,0,0,1-.77-.59,2.7,2.7,0,0,1-.46-.93,5,5,0,0,1-.14-1.28v-.57A4.94,4.94,0,0,1,95.28,44a2.66,2.66,0,0,1,.46-.94,2,2,0,0,1,.77-.59,2.75,2.75,0,0,1,1.09-.2,2.23,2.23,0,0,1,1.15.28,1.89,1.89,0,0,1,.77.81,3,3,0,0,1,.29,1.31H98.52A2.14,2.14,0,0,0,98.4,44a.88.88,0,0,0-.32-.42.8.8,0,0,0-.5-.14,1,1,0,0,0-.55.13.83.83,0,0,0-.33.36,2.19,2.19,0,0,0-.16.59,5.88,5.88,0,0,0,0,.77v.57a6.21,6.21,0,0,0,0,.79,2.13,2.13,0,0,0,.15.58.82.82,0,0,0,.34.37A1.12,1.12,0,0,0,97.58,47.72Zm4.63-8v9h-1.36v-9Zm-.24,5.6h-.44a5.17,5.17,0,0,1,.14-1.22,3.07,3.07,0,0,1,.43-1,1.92,1.92,0,0,1,.66-.64,1.71,1.71,0,0,1,.87-.23,1.75,1.75,0,0,1,.7.13,1.51,1.51,0,0,1,.56.41,2,2,0,0,1,.35.74,4.31,4.31,0,0,1,.13,1.1v4.08H104V44.66a2,2,0,0,0-.1-.71.67.67,0,0,0-.28-.38.88.88,0,0,0-.48-.12.89.89,0,0,0-.5.15,1.34,1.34,0,0,0-.37.41,2.09,2.09,0,0,0-.23.61A3.35,3.35,0,0,0,102,45.35Zm-21.82,7-2.07,7.36H76.6l2.7-8.53h.93Zm1.64,7.36-2.06-7.36-.1-1.17h.94l2.72,8.53Zm0-3.17v1.19h-4V56.58Zm3.53,1.75,1.24-4.92h.86l-.17,1.5-1.24,4.84h-.76Zm-.53-4.92,1,4.94v1.4h-.86l-1.42-6.34Zm3.63,4.88.91-4.88H90.7l-1.42,6.34h-.86Zm-.85-4.88,1.22,4.85.09,1.49h-.76L86.9,54.91l-.17-1.5Zm7,5.05V55.3a1.14,1.14,0,0,0-.1-.53.53.53,0,0,0-.26-.29,1,1,0,0,0-.88,0,.76.76,0,0,0-.28.31,1,1,0,0,0-.09.43H91.6a1.83,1.83,0,0,1,.15-.73,1.9,1.9,0,0,1,.46-.63,2.06,2.06,0,0,1,.7-.43,2.52,2.52,0,0,1,.93-.16,2.77,2.77,0,0,1,1.08.2,1.58,1.58,0,0,1,.75.65,2.27,2.27,0,0,1,.27,1.18v3a4.58,4.58,0,0,0,.06.78,3.61,3.61,0,0,0,.15.59v.1H94.77a2.13,2.13,0,0,1-.14-.59A4.2,4.2,0,0,1,94.58,58.46Zm.18-2.57v.88h-.66a1.74,1.74,0,0,0-.53.08,1.29,1.29,0,0,0-.4.22,1.09,1.09,0,0,0-.24.35,1.12,1.12,0,0,0-.08.45,1.17,1.17,0,0,0,.08.49.62.62,0,0,0,.25.28.86.86,0,0,0,.41.09,1.15,1.15,0,0,0,.57-.14,1.07,1.07,0,0,0,.37-.36.51.51,0,0,0,.11-.37l.31.57a1.73,1.73,0,0,1-.18.47,2.3,2.3,0,0,1-.32.47,1.59,1.59,0,0,1-.48.36,1.48,1.48,0,0,1-.65.13,2,2,0,0,1-1-.22,1.6,1.6,0,0,1-.65-.64,2,2,0,0,1-.24-1,2.2,2.2,0,0,1,.16-.86,1.71,1.71,0,0,1,.47-.66A2,2,0,0,1,92.9,56a3.61,3.61,0,0,1,1.1-.15Zm3.95-1.26v5.12H97.34V53.41h1.3Zm1.53-1.26v1.34a1,1,0,0,0-.25,0h-.26a1,1,0,0,0-.48.1.87.87,0,0,0-.35.28,1.57,1.57,0,0,0-.22.45,3.41,3.41,0,0,0-.1.6h-.29a5.49,5.49,0,0,1,.1-1.1,3.07,3.07,0,0,1,.28-.9,1.63,1.63,0,0,1,.48-.6,1,1,0,0,1,.67-.22l.24,0Zm4,5.05V50.75h1.36v9h-1.23Zm-3.41-1.59v-.49A5.9,5.9,0,0,1,101,55a3,3,0,0,1,.41-1,1.78,1.78,0,0,1,.67-.56,2,2,0,0,1,.87-.18,1.48,1.48,0,0,1,.82.22,1.76,1.76,0,0,1,.58.6,3.54,3.54,0,0,1,.39.94,6.86,6.86,0,0,1,.19,1.2V57a7.83,7.83,0,0,1-.2,1.18,3.35,3.35,0,0,1-.38.92,1.78,1.78,0,0,1-.59.6,1.56,1.56,0,0,1-.82.21,1.92,1.92,0,0,1-.87-.19,2,2,0,0,1-.66-.57,3,3,0,0,1-.41-1A5.75,5.75,0,0,1,100.84,56.83Zm1.37-.49v.49a5,5,0,0,0,.06.84,1.89,1.89,0,0,0,.18.58.92.92,0,0,0,.34.34,1.13,1.13,0,0,0,.51.1.91.91,0,0,0,.61-.19,1.12,1.12,0,0,0,.37-.5,3,3,0,0,0,.19-.71V55.92a2.39,2.39,0,0,0-.12-.57,1.58,1.58,0,0,0-.23-.47,1,1,0,0,0-.81-.43,1,1,0,0,0-.51.12.85.85,0,0,0-.34.34,1.71,1.71,0,0,0-.19.59A5,5,0,0,0,102.21,56.34Z"></path><path class="cls-2" d="M49.79,109.22v8.53H48.65l-4.29-6.58v6.58H43.23v-8.53h1.13l4.31,6.59v-6.59Zm5.58,7.44V113.4a1.33,1.33,0,0,0-.16-.65,1,1,0,0,0-.44-.44,1.65,1.65,0,0,0-.74-.15,1.81,1.81,0,0,0-.72.14,1.4,1.4,0,0,0-.48.37.83.83,0,0,0-.17.49H51.57a1.4,1.4,0,0,1,.18-.67,2.16,2.16,0,0,1,.5-.6,2.58,2.58,0,0,1,.8-.44,3.11,3.11,0,0,1,1-.16,3.05,3.05,0,0,1,1.22.23,1.81,1.81,0,0,1,.83.71,2.1,2.1,0,0,1,.31,1.18v3a5.59,5.59,0,0,0,0,.68,2.8,2.8,0,0,0,.17.61v.1H55.54a2.24,2.24,0,0,1-.13-.5A4.18,4.18,0,0,1,55.37,116.66Zm.18-2.76v.76H54.47a4.17,4.17,0,0,0-.83.08A2,2,0,0,0,53,115a1,1,0,0,0-.37.37.92.92,0,0,0-.13.51,1.08,1.08,0,0,0,.13.54.91.91,0,0,0,.41.39,1.38,1.38,0,0,0,.67.14,1.79,1.79,0,0,0,.88-.21,1.83,1.83,0,0,0,.61-.51,1.12,1.12,0,0,0,.24-.59l.46.52a1.46,1.46,0,0,1-.22.54,2.79,2.79,0,0,1-.48.58,2.59,2.59,0,0,1-.72.45,2.27,2.27,0,0,1-.93.17,2.41,2.41,0,0,1-1.13-.25,2,2,0,0,1-.75-.67,1.87,1.87,0,0,1-.26-1,1.92,1.92,0,0,1,.2-.89,1.62,1.62,0,0,1,.57-.65,2.62,2.62,0,0,1,.91-.4,4.69,4.69,0,0,1,1.17-.14Zm6.71-2.49h1v6.2a2.88,2.88,0,0,1-.34,1.43,2.29,2.29,0,0,1-.95.9,3.1,3.1,0,0,1-1.4.31,3.46,3.46,0,0,1-.77-.11,3.14,3.14,0,0,1-.87-.34,2.2,2.2,0,0,1-.71-.65l.57-.65a2.27,2.27,0,0,0,.83.67,2.17,2.17,0,0,0,.87.19,1.92,1.92,0,0,0,.89-.2,1.33,1.33,0,0,0,.58-.57,1.88,1.88,0,0,0,.21-.93V112.8Zm-4.36,3.24v-.13a4.47,4.47,0,0,1,.17-1.31,3.17,3.17,0,0,1,.49-1,2.25,2.25,0,0,1,1.84-.89,2.41,2.41,0,0,1,1,.21,2,2,0,0,1,.76.6,3.06,3.06,0,0,1,.5,1,5.62,5.62,0,0,1,.25,1.26v.54a5.21,5.21,0,0,1-.25,1.26,3.06,3.06,0,0,1-.5,1,2,2,0,0,1-.76.6,2.46,2.46,0,0,1-1,.2,2.17,2.17,0,0,1-1-.24,2.3,2.3,0,0,1-.79-.67,3,3,0,0,1-.5-1A4.36,4.36,0,0,1,57.9,114.65Zm1.08-.13v.13a4.26,4.26,0,0,0,.09.89,2.66,2.66,0,0,0,.3.73,1.39,1.39,0,0,0,1.28.67,1.61,1.61,0,0,0,.89-.22,1.72,1.72,0,0,0,.56-.61,3.62,3.62,0,0,0,.33-.81v-1.41a3.3,3.3,0,0,0-.2-.63,2.15,2.15,0,0,0-.34-.54,1.62,1.62,0,0,0-.51-.38,1.78,1.78,0,0,0-.72-.14,1.6,1.6,0,0,0-.77.19,1.55,1.55,0,0,0-.52.5,2.73,2.73,0,0,0-.3.74A4.26,4.26,0,0,0,59,114.52Zm7-1.89v7.55H64.89v-8.77h1Zm4.27,1.89v.13a4.72,4.72,0,0,1-.17,1.28,3,3,0,0,1-.48,1,2.12,2.12,0,0,1-.76.67,2.26,2.26,0,0,1-1,.24,2.59,2.59,0,0,1-1.07-.2,2,2,0,0,1-.78-.58,2.78,2.78,0,0,1-.52-.91,5.89,5.89,0,0,1-.26-1.2v-.66a5.59,5.59,0,0,1,.27-1.26,3.31,3.31,0,0,1,.51-1,2.1,2.1,0,0,1,.78-.6,2.46,2.46,0,0,1,1-.21,2.39,2.39,0,0,1,1.06.23,2.15,2.15,0,0,1,.78.66,3,3,0,0,1,.47,1A4.83,4.83,0,0,1,70.25,114.52Zm-1.09.13v-.13a3.68,3.68,0,0,0-.1-.89,2.46,2.46,0,0,0-.31-.74,1.49,1.49,0,0,0-.53-.5,1.54,1.54,0,0,0-.77-.19,1.73,1.73,0,0,0-.71.14,1.62,1.62,0,0,0-.51.38,2.18,2.18,0,0,0-.35.54,3.28,3.28,0,0,0-.19.63v1.51a3.58,3.58,0,0,0,.33.78,1.82,1.82,0,0,0,.56.58,1.7,1.7,0,0,0,.89.21,1.49,1.49,0,0,0,.75-.18,1.44,1.44,0,0,0,.53-.51,2.36,2.36,0,0,0,.31-.74A3.68,3.68,0,0,0,69.16,114.65Zm6.35,1.63v-4.87H76.6v6.34h-1Zm.21-1.33.45,0a4.83,4.83,0,0,1-.14,1.18,2.35,2.35,0,0,1-.42.92,2.05,2.05,0,0,1-.77.62,2.81,2.81,0,0,1-1.15.21,2.57,2.57,0,0,1-.85-.13,1.7,1.7,0,0,1-.66-.42,2,2,0,0,1-.43-.73,3.78,3.78,0,0,1-.14-1.08v-4.09h1.08v4.1a2.09,2.09,0,0,0,.1.71,1.12,1.12,0,0,0,.26.44,1,1,0,0,0,.37.22,1.61,1.61,0,0,0,.44.06,1.93,1.93,0,0,0,1.09-.26,1.46,1.46,0,0,0,.58-.72A2.75,2.75,0,0,0,75.72,115Zm3.62-2.55v5.35H78.25v-6.34h1.06Zm2-1v1l-.26,0h-.27a1.69,1.69,0,0,0-.66.12,1.37,1.37,0,0,0-.48.33,1.53,1.53,0,0,0-.32.5,2.42,2.42,0,0,0-.15.63l-.3.18A4.71,4.71,0,0,1,79,113a3.08,3.08,0,0,1,.36-.89,1.78,1.78,0,0,1,.61-.61,1.68,1.68,0,0,1,.89-.22l.27,0A.64.64,0,0,1,81.32,111.37Zm4.5-2.15h1.09l2.8,7,2.79-7h1.1l-3.47,8.53h-.86Zm-.36,0h1l.15,5.2v3.33H85.46Zm7.52,0h1v8.53H92.82v-3.33Zm6.67,7.06v-4.87h1.09v6.34h-1Zm.21-1.33.45,0a4.83,4.83,0,0,1-.14,1.18,2.35,2.35,0,0,1-.42.92,2,2,0,0,1-.77.62,2.81,2.81,0,0,1-1.15.21,2.57,2.57,0,0,1-.85-.13,1.77,1.77,0,0,1-.66-.42,2,2,0,0,1-.43-.73,3.78,3.78,0,0,1-.14-1.08v-4.09h1.08v4.1a2.09,2.09,0,0,0,.1.71,1.12,1.12,0,0,0,.26.44,1,1,0,0,0,.37.22,1.67,1.67,0,0,0,.44.06,1.93,1.93,0,0,0,1.09-.26,1.46,1.46,0,0,0,.58-.72A2.56,2.56,0,0,0,99.86,115Zm3.62-2.19v5h-1.09v-6.34h1Zm-.26,1.58-.45,0a3.82,3.82,0,0,1,.19-1.2,3,3,0,0,1,.53-1,2.38,2.38,0,0,1,1.86-.86,2.47,2.47,0,0,1,.84.13,1.48,1.48,0,0,1,.64.4,1.82,1.82,0,0,1,.41.71,3.58,3.58,0,0,1,.14,1.06v4.16h-1.09v-4.17a1.81,1.81,0,0,0-.15-.8.9.9,0,0,0-.42-.44,1.73,1.73,0,0,0-1.43,0,1.84,1.84,0,0,0-.57.47,2.29,2.29,0,0,0-.37.69A2.37,2.37,0,0,0,103.22,114.34Zm7-2.93v6.34h-1.09v-6.34ZM109,109.72a.63.63,0,0,1,.16-.44.62.62,0,0,1,.48-.18.58.58,0,0,1,.47.18.65.65,0,0,1,0,.88.58.58,0,0,1-.47.17.61.61,0,0,1-.48-.17A.63.63,0,0,1,109,109.72Zm5.45,7.25a1.58,1.58,0,0,0,.72-.16,1.48,1.48,0,0,0,.53-.43,1.16,1.16,0,0,0,.25-.64h1a2,2,0,0,1-.38,1.05,2.76,2.76,0,0,1-.91.78,2.6,2.6,0,0,1-1.24.29,2.88,2.88,0,0,1-1.25-.25,2.6,2.6,0,0,1-.88-.69,3.12,3.12,0,0,1-.52-1,4.31,4.31,0,0,1-.17-1.21v-.25a4.3,4.3,0,0,1,.17-1.2,3.17,3.17,0,0,1,.52-1,2.6,2.6,0,0,1,.88-.69,2.88,2.88,0,0,1,1.25-.25,2.68,2.68,0,0,1,1.3.3,2.29,2.29,0,0,1,.87.82,2.37,2.37,0,0,1,.36,1.18h-1a1.53,1.53,0,0,0-.23-.71,1.39,1.39,0,0,0-.51-.51,1.45,1.45,0,0,0-.76-.19,1.68,1.68,0,0,0-.84.2,1.42,1.42,0,0,0-.53.53,2.46,2.46,0,0,0-.28.73,3.65,3.65,0,0,0-.08.81v.25a3.74,3.74,0,0,0,.08.82,2.45,2.45,0,0,0,.27.73,1.52,1.52,0,0,0,.54.53A1.63,1.63,0,0,0,114.48,117Zm4.92-5.56v6.34h-1.09v-6.34Zm-1.17-1.69a.63.63,0,0,1,.16-.44.62.62,0,0,1,.48-.18.62.62,0,1,1,0,1.23.61.61,0,0,1-.48-.17A.63.63,0,0,1,118.23,109.72Zm4,2.91v7.55h-1.09v-8.77h1Zm4.27,1.89v.13a4.72,4.72,0,0,1-.17,1.28,3.21,3.21,0,0,1-.48,1,2.12,2.12,0,0,1-.76.67,2.26,2.26,0,0,1-1,.24,2.59,2.59,0,0,1-1.07-.2,2,2,0,0,1-.78-.58,2.78,2.78,0,0,1-.52-.91,5.89,5.89,0,0,1-.26-1.2v-.66a5.59,5.59,0,0,1,.27-1.26,3.08,3.08,0,0,1,.51-1,2.1,2.1,0,0,1,.78-.6,2.46,2.46,0,0,1,1-.21,2.39,2.39,0,0,1,1.06.23,2.15,2.15,0,0,1,.78.66,3,3,0,0,1,.47,1A4.83,4.83,0,0,1,126.5,114.52Zm-1.09.13v-.13a3.68,3.68,0,0,0-.1-.89,2.46,2.46,0,0,0-.31-.74,1.49,1.49,0,0,0-.53-.5,1.54,1.54,0,0,0-.77-.19,1.73,1.73,0,0,0-.71.14,1.62,1.62,0,0,0-.51.38,2.18,2.18,0,0,0-.35.54,3.28,3.28,0,0,0-.19.63v1.51a3.58,3.58,0,0,0,.33.78,1.82,1.82,0,0,0,.56.58,1.7,1.7,0,0,0,.89.21,1.49,1.49,0,0,0,.75-.18,1.44,1.44,0,0,0,.53-.51,2.36,2.36,0,0,0,.31-.74A3.68,3.68,0,0,0,125.41,114.65Zm6.21,2V113.4a1.33,1.33,0,0,0-.15-.65,1.06,1.06,0,0,0-.45-.44,1.62,1.62,0,0,0-.74-.15,1.81,1.81,0,0,0-.72.14,1.4,1.4,0,0,0-.48.37.83.83,0,0,0-.17.49h-1.08a1.51,1.51,0,0,1,.17-.67,2,2,0,0,1,.51-.6,2.47,2.47,0,0,1,.8-.44,3.4,3.4,0,0,1,2.26.07,1.92,1.92,0,0,1,.83.71,2.18,2.18,0,0,1,.3,1.18v3a4.18,4.18,0,0,0,.06.68,2.33,2.33,0,0,0,.17.61v.1H131.8a1.8,1.8,0,0,1-.13-.5A4.27,4.27,0,0,1,131.62,116.66Zm.19-2.76v.76h-1.1a4,4,0,0,0-.82.08,1.81,1.81,0,0,0-.61.22,1,1,0,0,0-.38.37,1,1,0,0,0-.13.51,1.09,1.09,0,0,0,.14.54.89.89,0,0,0,.4.39,1.42,1.42,0,0,0,.68.14,1.82,1.82,0,0,0,.88-.21,1.89,1.89,0,0,0,.6-.51,1.12,1.12,0,0,0,.24-.59l.47.52a1.66,1.66,0,0,1-.22.54,3.21,3.21,0,0,1-.49.58,2.59,2.59,0,0,1-.72.45,2.25,2.25,0,0,1-.92.17,2.38,2.38,0,0,1-1.13-.25,2,2,0,0,1-.75-.67,1.78,1.78,0,0,1-.27-1,1.92,1.92,0,0,1,.2-.89,1.73,1.73,0,0,1,.58-.65,2.65,2.65,0,0,1,.9-.4,4.71,4.71,0,0,1,1.18-.14Zm3.78-5.15v9H134.5v-9ZM27.19,129h1.13a3.59,3.59,0,0,1-.46,1.45,2.71,2.71,0,0,1-1.06,1,3.56,3.56,0,0,1-1.72.37,3.18,3.18,0,0,1-1.36-.28,3,3,0,0,1-1-.79,3.86,3.86,0,0,1-.68-1.25,5.22,5.22,0,0,1-.23-1.63v-.85a5.11,5.11,0,0,1,.23-1.62,3.65,3.65,0,0,1,.69-1.26,3,3,0,0,1,1.08-.8,3.83,3.83,0,0,1,3.06.08,2.66,2.66,0,0,1,1,1,3.63,3.63,0,0,1,.46,1.48H27.19a2.92,2.92,0,0,0-.3-1,1.57,1.57,0,0,0-.63-.67,2.13,2.13,0,0,0-1.08-.24,2.3,2.3,0,0,0-1,.22,2.13,2.13,0,0,0-.72.62,2.86,2.86,0,0,0-.43,1,4.73,4.73,0,0,0-.15,1.24v.86a5,5,0,0,0,.13,1.18,3.08,3.08,0,0,0,.4,1,2,2,0,0,0,.69.66,2,2,0,0,0,1,.23,2.48,2.48,0,0,0,1.15-.22,1.59,1.59,0,0,0,.65-.66A3.28,3.28,0,0,0,27.19,129Zm2.22-.38v-.14a4,4,0,0,1,.2-1.27,2.9,2.9,0,0,1,.57-1,2.45,2.45,0,0,1,.91-.68,2.74,2.74,0,0,1,1.2-.25,2.77,2.77,0,0,1,1.2.25,2.45,2.45,0,0,1,.91.68,2.92,2.92,0,0,1,.58,1,4,4,0,0,1,.2,1.27v.14a4,4,0,0,1-.2,1.27,3,3,0,0,1-.58,1,2.56,2.56,0,0,1-.91.68,3.1,3.1,0,0,1-2.39,0,2.69,2.69,0,0,1-.92-.68,3,3,0,0,1-.57-1A4,4,0,0,1,29.41,128.65Zm1.08-.14v.14a3.68,3.68,0,0,0,.11.89,2.4,2.4,0,0,0,.34.74,1.55,1.55,0,0,0,.57.51,1.8,1.8,0,0,0,1.57,0,1.6,1.6,0,0,0,.56-.51,2.17,2.17,0,0,0,.33-.74,3.24,3.24,0,0,0,.12-.89v-.14a3.12,3.12,0,0,0-.12-.88,2.14,2.14,0,0,0-.34-.75,1.52,1.52,0,0,0-.56-.51,1.5,1.5,0,0,0-.78-.19,1.57,1.57,0,0,0-.79.19,1.6,1.6,0,0,0-.56.51,2.57,2.57,0,0,0-.34.75A3.53,3.53,0,0,0,30.49,128.51Zm7.13-2.11v5.35H36.54v-6.34h1.05Zm2-1v1l-.26,0h-.27a1.69,1.69,0,0,0-.66.12,1.4,1.4,0,0,0-.8.83,2.08,2.08,0,0,0-.15.63l-.31.18a4.7,4.7,0,0,1,.12-1.08,2.81,2.81,0,0,1,.35-.89,1.87,1.87,0,0,1,.61-.61,1.7,1.7,0,0,1,.89-.22l.27,0A.64.64,0,0,1,39.6,125.37Zm2.09,1.26v7.55H40.6v-8.77h1ZM46,128.52v.13a4.72,4.72,0,0,1-.16,1.28,3.21,3.21,0,0,1-.48,1,2.16,2.16,0,0,1-1.82.91,2.59,2.59,0,0,1-1.07-.2,2,2,0,0,1-.78-.58,2.78,2.78,0,0,1-.52-.91,5.3,5.3,0,0,1-.25-1.2v-.66a5.1,5.1,0,0,1,.26-1.26,3.31,3.31,0,0,1,.51-1,2.1,2.1,0,0,1,.78-.6,2.46,2.46,0,0,1,1-.21,2.39,2.39,0,0,1,1.06.23,2.15,2.15,0,0,1,.78.66,3.16,3.16,0,0,1,.48,1A4.85,4.85,0,0,1,46,128.52Zm-1.09.13v-.13a3.68,3.68,0,0,0-.1-.89,2.23,2.23,0,0,0-.31-.74,1.49,1.49,0,0,0-.53-.5,1.53,1.53,0,0,0-.76-.19,1.74,1.74,0,0,0-.72.14,1.51,1.51,0,0,0-.51.39,1.93,1.93,0,0,0-.34.53,3.3,3.3,0,0,0-.2.63v1.51a3.58,3.58,0,0,0,.33.78,1.82,1.82,0,0,0,.56.58,1.72,1.72,0,0,0,.89.21,1.49,1.49,0,0,0,.75-.18,1.44,1.44,0,0,0,.53-.51,2.14,2.14,0,0,0,.31-.74A3.68,3.68,0,0,0,44.87,128.65Zm2.19,0v-.14a3.76,3.76,0,0,1,.2-1.27,2.9,2.9,0,0,1,.57-1,2.45,2.45,0,0,1,.91-.68,2.7,2.7,0,0,1,1.19-.25,2.79,2.79,0,0,1,1.21.25,2.53,2.53,0,0,1,.91.68,2.92,2.92,0,0,1,.58,1,4,4,0,0,1,.2,1.27v.14a4,4,0,0,1-.2,1.27,3,3,0,0,1-.58,1,2.56,2.56,0,0,1-.91.68,2.84,2.84,0,0,1-1.19.24,2.94,2.94,0,0,1-1.21-.24,2.65,2.65,0,0,1-.91-.68,3,3,0,0,1-.57-1A3.76,3.76,0,0,1,47.06,128.65Zm1.08-.14v.14a3.68,3.68,0,0,0,.11.89,2.4,2.4,0,0,0,.34.74,1.6,1.6,0,0,0,.56.51,1.69,1.69,0,0,0,.8.18,1.66,1.66,0,0,0,.78-.18,1.6,1.6,0,0,0,.56-.51,2.17,2.17,0,0,0,.33-.74,3.24,3.24,0,0,0,.12-.89v-.14a3.12,3.12,0,0,0-.12-.88,2.33,2.33,0,0,0-.34-.75,1.52,1.52,0,0,0-.56-.51,1.72,1.72,0,0,0-1.57,0,1.6,1.6,0,0,0-.56.51,2.57,2.57,0,0,0-.34.75A3.53,3.53,0,0,0,48.14,128.51Zm7.13-2.11v5.35H54.19v-6.34h1.05Zm2-1v1l-.26,0h-.27a1.69,1.69,0,0,0-.66.12,1.41,1.41,0,0,0-.49.33,1.71,1.71,0,0,0-.32.5,2.42,2.42,0,0,0-.14.63l-.31.18a5.34,5.34,0,0,1,.11-1.08,3.08,3.08,0,0,1,.36-.89,1.87,1.87,0,0,1,.61-.61,1.7,1.7,0,0,1,.89-.22l.27,0A.64.64,0,0,1,57.25,125.37Zm4.51,5.29V127.4a1.33,1.33,0,0,0-.15-.65,1.06,1.06,0,0,0-.45-.44,1.62,1.62,0,0,0-.74-.15,1.81,1.81,0,0,0-.72.14,1.4,1.4,0,0,0-.48.37.83.83,0,0,0-.17.49H58a1.51,1.51,0,0,1,.17-.67,2,2,0,0,1,.51-.6,2.52,2.52,0,0,1,.79-.44,3.17,3.17,0,0,1,1.05-.16,3.12,3.12,0,0,1,1.22.23,1.92,1.92,0,0,1,.83.71,2.18,2.18,0,0,1,.3,1.18v3a5.59,5.59,0,0,0,0,.68,2.8,2.8,0,0,0,.17.61v.1H61.93a2.29,2.29,0,0,1-.12-.5A3.13,3.13,0,0,1,61.76,130.66ZM62,127.9v.76h-1.1a4,4,0,0,0-.82.08,1.81,1.81,0,0,0-.61.22,1,1,0,0,0-.38.37,1,1,0,0,0-.13.51,1.09,1.09,0,0,0,.14.54.89.89,0,0,0,.4.39,1.4,1.4,0,0,0,.68.14,1.75,1.75,0,0,0,.87-.21,1.83,1.83,0,0,0,.61-.51,1.12,1.12,0,0,0,.24-.59l.47.52a1.5,1.5,0,0,1-.23.54,2.79,2.79,0,0,1-.48.58,2.59,2.59,0,0,1-.72.45,2.25,2.25,0,0,1-.92.17,2.38,2.38,0,0,1-1.13-.25,2,2,0,0,1-.75-.67,1.78,1.78,0,0,1-.27-1,1.92,1.92,0,0,1,.2-.89,1.65,1.65,0,0,1,.58-.65,2.65,2.65,0,0,1,.9-.4,4.71,4.71,0,0,1,1.18-.14Zm5.25-2.49v.83H63.77v-.83Zm-2.27-1.54H66v6.31a.9.9,0,0,0,.1.48.47.47,0,0,0,.26.22,1.16,1.16,0,0,0,.34.05l.28,0,.23,0v.89l-.34.07a2.41,2.41,0,0,1-.5,0,1.77,1.77,0,0,1-.73-.15,1.23,1.23,0,0,1-.53-.53,2.21,2.21,0,0,1-.2-1Zm4.72,1.54v6.34H68.56v-6.34Zm-1.17-1.68a.64.64,0,0,1,.16-.45.62.62,0,0,1,.48-.18.61.61,0,0,1,.47.18.6.6,0,0,1,.17.45.59.59,0,0,1-.17.43.61.61,0,0,1-.47.17.61.61,0,0,1-.48-.17A.62.62,0,0,1,68.48,123.73Zm2.62,4.92v-.14a4,4,0,0,1,.2-1.27,3.09,3.09,0,0,1,.58-1,2.45,2.45,0,0,1,.91-.68,3,3,0,0,1,2.39,0,2.48,2.48,0,0,1,.92.68,3.09,3.09,0,0,1,.58,1,4,4,0,0,1,.2,1.27v.14a4,4,0,0,1-.2,1.27,3.19,3.19,0,0,1-.58,1,2.65,2.65,0,0,1-.91.68,2.86,2.86,0,0,1-1.2.24,2.92,2.92,0,0,1-1.2-.24,2.65,2.65,0,0,1-.91-.68,3.19,3.19,0,0,1-.58-1A4,4,0,0,1,71.1,128.65Zm1.09-.14v.14a3.68,3.68,0,0,0,.11.89,2.17,2.17,0,0,0,.33.74,1.72,1.72,0,0,0,.57.51A1.67,1.67,0,0,0,74,131a1.61,1.61,0,0,0,.78-.18,1.45,1.45,0,0,0,.56-.51,2.4,2.4,0,0,0,.34-.74,3.24,3.24,0,0,0,.12-.89v-.14a3.12,3.12,0,0,0-.12-.88,2.57,2.57,0,0,0-.34-.75,1.6,1.6,0,0,0-.56-.51,1.57,1.57,0,0,0-.79-.19,1.5,1.5,0,0,0-.78.19,1.63,1.63,0,0,0-.57.51,2.32,2.32,0,0,0-.33.75A3.53,3.53,0,0,0,72.19,128.51Zm7.13-1.75v5H78.23v-6.34h1Zm-.26,1.58-.45,0a3.82,3.82,0,0,1,.19-1.2,3,3,0,0,1,.53-1,2.53,2.53,0,0,1,2.7-.73,1.48,1.48,0,0,1,.64.4,1.71,1.71,0,0,1,.41.71,3.58,3.58,0,0,1,.14,1.06v4.16H82.13v-4.17a1.81,1.81,0,0,0-.15-.8.9.9,0,0,0-.42-.44,1.6,1.6,0,0,0-.69-.14,1.64,1.64,0,0,0-.74.17,1.84,1.84,0,0,0-.57.47,2.29,2.29,0,0,0-.37.69A2.37,2.37,0,0,0,79.06,128.34Zm10.39,2.28,1.63-5.21h.71l-.14,1L90,131.75H89.3Zm-1.1-5.21,1.39,5.27.1,1.07h-.73l-1.84-6.34Zm5,5.23,1.33-5.23h1.07l-1.84,6.34h-.72ZM92,125.41l1.6,5.12.18,1.22H93l-1.71-5.32-.14-1Zm8.66,5.25V127.4a1.23,1.23,0,0,0-.16-.65,1,1,0,0,0-.44-.44,1.65,1.65,0,0,0-.74-.15,1.81,1.81,0,0,0-.72.14,1.4,1.4,0,0,0-.48.37.83.83,0,0,0-.17.49H96.81a1.4,1.4,0,0,1,.18-.67,2.16,2.16,0,0,1,.5-.6,2.58,2.58,0,0,1,.8-.44,3.11,3.11,0,0,1,1-.16,3.05,3.05,0,0,1,1.22.23,1.89,1.89,0,0,1,.84.71,2.18,2.18,0,0,1,.3,1.18v3a5.59,5.59,0,0,0,0,.68,2.8,2.8,0,0,0,.17.61v.1h-1.13a2.24,2.24,0,0,1-.13-.5A4.18,4.18,0,0,1,100.61,130.66Zm.18-2.76,0,.76h-1.1a4.17,4.17,0,0,0-.83.08,2,2,0,0,0-.61.22,1,1,0,0,0-.37.37.92.92,0,0,0-.13.51,1.08,1.08,0,0,0,.13.54.91.91,0,0,0,.41.39,1.38,1.38,0,0,0,.67.14,1.79,1.79,0,0,0,.88-.21,1.83,1.83,0,0,0,.61-.51,1.12,1.12,0,0,0,.24-.59l.46.52a1.46,1.46,0,0,1-.22.54,2.79,2.79,0,0,1-.48.58,2.59,2.59,0,0,1-.72.45,2.27,2.27,0,0,1-.93.17,2.41,2.41,0,0,1-1.13-.25,2,2,0,0,1-.75-.67,1.87,1.87,0,0,1-.26-1,1.92,1.92,0,0,1,.2-.89,1.62,1.62,0,0,1,.57-.65,2.62,2.62,0,0,1,.91-.4,4.69,4.69,0,0,1,1.17-.14Zm6.3,2.16a.92.92,0,0,0-.11-.43.87.87,0,0,0-.42-.37,3.3,3.3,0,0,0-.93-.29,9.42,9.42,0,0,1-1-.26,3.46,3.46,0,0,1-.72-.37,1.8,1.8,0,0,1-.45-.51,1.41,1.41,0,0,1-.16-.69,1.58,1.58,0,0,1,.17-.71,1.89,1.89,0,0,1,.47-.59,2.24,2.24,0,0,1,.75-.4,3.21,3.21,0,0,1,2.26.12,2,2,0,0,1,.83.72,1.82,1.82,0,0,1,.29,1H107a.88.88,0,0,0-.16-.51,1.15,1.15,0,0,0-.45-.42,1.42,1.42,0,0,0-.72-.16,1.69,1.69,0,0,0-.73.14.93.93,0,0,0-.4.35.8.8,0,0,0-.13.44.83.83,0,0,0,.06.32.72.72,0,0,0,.22.25,2.41,2.41,0,0,0,.45.21,6.5,6.5,0,0,0,.73.2,6.18,6.18,0,0,1,1.28.42,1.88,1.88,0,0,1,.75.61,1.41,1.41,0,0,1,.25.86,1.61,1.61,0,0,1-.18.76,1.57,1.57,0,0,1-.49.6,2.38,2.38,0,0,1-.78.39,3.41,3.41,0,0,1-1,.13,3.07,3.07,0,0,1-1.42-.3,2.14,2.14,0,0,1-.88-.77,1.9,1.9,0,0,1-.29-1h1.09a1.13,1.13,0,0,0,.25.71,1.41,1.41,0,0,0,.58.37,2.22,2.22,0,0,0,.67.1,2.28,2.28,0,0,0,.75-.11,1.07,1.07,0,0,0,.46-.33A.76.76,0,0,0,107.09,130.06Zm9.22.6V127.4a1.33,1.33,0,0,0-.15-.65,1.06,1.06,0,0,0-.45-.44,1.62,1.62,0,0,0-.74-.15,1.81,1.81,0,0,0-.72.14,1.4,1.4,0,0,0-.48.37.83.83,0,0,0-.17.49h-1.08a1.51,1.51,0,0,1,.17-.67,2,2,0,0,1,.51-.6,2.52,2.52,0,0,1,.79-.44,3.17,3.17,0,0,1,1.05-.16,3.12,3.12,0,0,1,1.22.23,1.92,1.92,0,0,1,.83.71,2.18,2.18,0,0,1,.3,1.18v3a4.18,4.18,0,0,0,.06.68,2,2,0,0,0,.17.61v.1h-1.14a2.29,2.29,0,0,1-.12-.5A3.13,3.13,0,0,1,116.31,130.66Zm.19-2.76v.76h-1.1a4,4,0,0,0-.82.08,1.81,1.81,0,0,0-.61.22,1,1,0,0,0-.38.37,1,1,0,0,0-.13.51,1.09,1.09,0,0,0,.14.54.89.89,0,0,0,.4.39,1.42,1.42,0,0,0,.68.14,1.75,1.75,0,0,0,.87-.21,1.83,1.83,0,0,0,.61-.51,1.12,1.12,0,0,0,.24-.59l.47.52a1.5,1.5,0,0,1-.23.54,2.79,2.79,0,0,1-.48.58,2.59,2.59,0,0,1-.72.45,2.25,2.25,0,0,1-.92.17,2.38,2.38,0,0,1-1.13-.25,2,2,0,0,1-.75-.67,1.78,1.78,0,0,1-.27-1,1.92,1.92,0,0,1,.2-.89,1.73,1.73,0,0,1,.58-.65,2.65,2.65,0,0,1,.9-.4,4.71,4.71,0,0,1,1.18-.14Zm4.2,2.72,1.63-5.21h.72l-.14,1-1.66,5.31h-.7Zm-1.09-5.21,1.39,5.27.1,1.07h-.74l-1.84-6.34Zm5,5.23,1.32-5.23H127l-1.84,6.34h-.73Zm-1.4-5.23,1.59,5.12.18,1.22h-.69l-1.71-5.32-.14-1Zm8.65,5.25V127.4a1.33,1.33,0,0,0-.15-.65,1.06,1.06,0,0,0-.45-.44,1.62,1.62,0,0,0-.74-.15,1.81,1.81,0,0,0-.72.14,1.4,1.4,0,0,0-.48.37.83.83,0,0,0-.17.49h-1.08a1.51,1.51,0,0,1,.17-.67,2,2,0,0,1,.51-.6,2.47,2.47,0,0,1,.8-.44,3.4,3.4,0,0,1,2.26.07,1.92,1.92,0,0,1,.83.71,2.18,2.18,0,0,1,.3,1.18v3a4.18,4.18,0,0,0,.06.68,2.33,2.33,0,0,0,.17.61v.1H132a1.8,1.8,0,0,1-.13-.5A4.27,4.27,0,0,1,131.86,130.66Zm.19-2.76v.76H131a4,4,0,0,0-.82.08,1.81,1.81,0,0,0-.61.22,1,1,0,0,0-.38.37,1,1,0,0,0-.13.51,1.09,1.09,0,0,0,.14.54.89.89,0,0,0,.4.39,1.42,1.42,0,0,0,.68.14,1.82,1.82,0,0,0,.88-.21,1.89,1.89,0,0,0,.6-.51,1.24,1.24,0,0,0,.25-.59l.46.52a1.66,1.66,0,0,1-.22.54,3.21,3.21,0,0,1-.49.58,2.59,2.59,0,0,1-.72.45,2.25,2.25,0,0,1-.92.17,2.38,2.38,0,0,1-1.13-.25,2,2,0,0,1-.75-.67,1.78,1.78,0,0,1-.27-1,1.92,1.92,0,0,1,.2-.89,1.73,1.73,0,0,1,.58-.65,2.65,2.65,0,0,1,.9-.4,4.71,4.71,0,0,1,1.18-.14Zm3.68-1.5v5.35h-1.08v-6.34h1Zm2-1v1l-.26,0h-.27a1.69,1.69,0,0,0-.66.12,1.41,1.41,0,0,0-.49.33,1.51,1.51,0,0,0-.31.5,2.08,2.08,0,0,0-.15.63l-.31.18a4.7,4.7,0,0,1,.12-1.08,2.81,2.81,0,0,1,.35-.89,1.87,1.87,0,0,1,.61-.61,1.7,1.7,0,0,1,.89-.22l.27,0A.64.64,0,0,1,137.71,125.37Zm4.88,5.15v-7.77h1.09v9h-1Zm-4.26-1.87v-.13a4.83,4.83,0,0,1,.17-1.31,3.67,3.67,0,0,1,.51-1,2.4,2.4,0,0,1,.8-.66,2.29,2.29,0,0,1,1-.23,2.44,2.44,0,0,1,1,.21,2.11,2.11,0,0,1,.76.6,3.06,3.06,0,0,1,.5,1,6.24,6.24,0,0,1,.25,1.26v.54a5.74,5.74,0,0,1-.25,1.26,3.06,3.06,0,0,1-.5.95,2.11,2.11,0,0,1-.76.6,2.48,2.48,0,0,1-1.06.2,2.12,2.12,0,0,1-1-.24,2.43,2.43,0,0,1-.8-.67,3.75,3.75,0,0,1-.51-1A4.72,4.72,0,0,1,138.33,128.65Zm1.09-.13v.13a4.26,4.26,0,0,0,.09.89,2.4,2.4,0,0,0,.31.73,1.46,1.46,0,0,0,.52.5,1.49,1.49,0,0,0,.75.17,1.61,1.61,0,0,0,.89-.22,1.82,1.82,0,0,0,.56-.61,3.62,3.62,0,0,0,.33-.81v-1.41a3.33,3.33,0,0,0-.21-.63,1.55,1.55,0,0,0-.34-.53,1.34,1.34,0,0,0-.51-.39,1.65,1.65,0,0,0-.7-.14,1.54,1.54,0,0,0-.77.19,1.46,1.46,0,0,0-.52.5,2.46,2.46,0,0,0-.31.74A4.26,4.26,0,0,0,139.42,128.52Zm8.58,3.34a3.09,3.09,0,0,1-1.2-.22,2.68,2.68,0,0,1-.92-.64,2.79,2.79,0,0,1-.58-1,3.53,3.53,0,0,1-.21-1.23v-.25a3.9,3.9,0,0,1,.23-1.37,3.16,3.16,0,0,1,.62-1,2.59,2.59,0,0,1,.89-.63,2.48,2.48,0,0,1,1-.22,2.77,2.77,0,0,1,1.17.23,2.14,2.14,0,0,1,.82.66,2.88,2.88,0,0,1,.47,1,4.82,4.82,0,0,1,.15,1.23v.49h-4.74V128h3.66v-.09a2.94,2.94,0,0,0-.18-.82,1.46,1.46,0,0,0-.47-.65,1.38,1.38,0,0,0-.88-.26,1.45,1.45,0,0,0-.68.16,1.36,1.36,0,0,0-.53.46,2.42,2.42,0,0,0-.35.74,3.83,3.83,0,0,0-.12,1v.25a3,3,0,0,0,.12.85,2.29,2.29,0,0,0,.37.69,1.78,1.78,0,0,0,.59.47,1.88,1.88,0,0,0,.8.17,1.84,1.84,0,0,0,1-.24,2.29,2.29,0,0,0,.7-.62l.66.52a3.15,3.15,0,0,1-.52.59,2.72,2.72,0,0,1-.78.46A3,3,0,0,1,148,131.86Zm7.73-1.34v-7.77h1.09v9h-1Zm-4.26-1.87v-.13a4.47,4.47,0,0,1,.17-1.31,3.2,3.2,0,0,1,.51-1,2.37,2.37,0,0,1,.79-.66,2.33,2.33,0,0,1,1-.23,2.46,2.46,0,0,1,1.05.21,2.11,2.11,0,0,1,.76.6,3.29,3.29,0,0,1,.5,1,6.24,6.24,0,0,1,.25,1.26v.54a6.39,6.39,0,0,1-.25,1.26,3.29,3.29,0,0,1-.5.95,2.11,2.11,0,0,1-.76.6,2.51,2.51,0,0,1-1.06.2,2.19,2.19,0,0,1-1-.24,2.4,2.4,0,0,1-.79-.67,3.25,3.25,0,0,1-.51-1A4.36,4.36,0,0,1,151.47,128.65Zm1.09-.13v.13a4.26,4.26,0,0,0,.09.89,2.66,2.66,0,0,0,.3.73,1.39,1.39,0,0,0,1.28.67,1.61,1.61,0,0,0,.89-.22,1.82,1.82,0,0,0,.56-.61,3.62,3.62,0,0,0,.33-.81v-1.41a3.33,3.33,0,0,0-.21-.63,1.72,1.72,0,0,0-.34-.53,1.51,1.51,0,0,0-.51-.39,1.7,1.7,0,0,0-.71-.14,1.6,1.6,0,0,0-.77.19,1.55,1.55,0,0,0-.52.5,2.73,2.73,0,0,0-.3.74A4.26,4.26,0,0,0,152.56,128.52ZM46.9,145.75H45.81v-7a2.55,2.55,0,0,1,.25-1.16,1.7,1.7,0,0,1,.72-.71,2.55,2.55,0,0,1,1.49-.22,2.2,2.2,0,0,1,.37.07l0,.88-.28,0H48a1.27,1.27,0,0,0-.6.14.85.85,0,0,0-.37.4,1.39,1.39,0,0,0-.13.65Zm1.35-6.34v.83H44.81v-.83Zm.92,3.24v-.14a3.76,3.76,0,0,1,.2-1.27,2.9,2.9,0,0,1,.57-1,2.45,2.45,0,0,1,.91-.68,3,3,0,0,1,2.39,0,2.48,2.48,0,0,1,.92.68,2.92,2.92,0,0,1,.58,1,4,4,0,0,1,.2,1.27v.14a4,4,0,0,1-.2,1.27,3,3,0,0,1-.58,1,2.56,2.56,0,0,1-.91.68,2.84,2.84,0,0,1-1.19.24,2.94,2.94,0,0,1-1.21-.24,2.65,2.65,0,0,1-.91-.68,3,3,0,0,1-.57-1A3.76,3.76,0,0,1,49.17,142.65Zm1.08-.14v.14a3.68,3.68,0,0,0,.11.89,2.4,2.4,0,0,0,.34.74,1.6,1.6,0,0,0,.56.51,1.69,1.69,0,0,0,.8.18,1.59,1.59,0,0,0,.77-.18,1.55,1.55,0,0,0,.57-.51,2.17,2.17,0,0,0,.33-.74,3.24,3.24,0,0,0,.12-.89v-.14a3.12,3.12,0,0,0-.12-.88,2.33,2.33,0,0,0-.34-.75,1.52,1.52,0,0,0-.56-.51,1.72,1.72,0,0,0-1.57,0,1.6,1.6,0,0,0-.56.51,2.57,2.57,0,0,0-.34.75A3.53,3.53,0,0,0,50.25,142.51Zm7.13-2.11v5.35H56.3v-6.34h1.05Zm2-1v1l-.26,0h-.27a1.69,1.69,0,0,0-.66.12,1.41,1.41,0,0,0-.49.33,1.71,1.71,0,0,0-.32.5,2.42,2.42,0,0,0-.14.63l-.31.18A5.34,5.34,0,0,1,57,141a3.08,3.08,0,0,1,.36-.89,1.78,1.78,0,0,1,.61-.61,1.7,1.7,0,0,1,.89-.22l.27,0A.64.64,0,0,1,59.36,139.37ZM66,145.86a3.09,3.09,0,0,1-1.2-.22,2.59,2.59,0,0,1-.92-.64,3,3,0,0,1-.59-1,3.78,3.78,0,0,1-.2-1.23v-.25a3.9,3.9,0,0,1,.23-1.37,3.16,3.16,0,0,1,.62-1,2.59,2.59,0,0,1,.89-.63,2.48,2.48,0,0,1,1-.22,2.81,2.81,0,0,1,1.17.23,2.22,2.22,0,0,1,.82.66,3.07,3.07,0,0,1,.47,1,4.82,4.82,0,0,1,.15,1.23v.49H63.7V142h3.65v-.09a2.61,2.61,0,0,0-.17-.82,1.54,1.54,0,0,0-.47-.65,1.4,1.4,0,0,0-.88-.26,1.42,1.42,0,0,0-.68.16,1.36,1.36,0,0,0-.53.46,2.21,2.21,0,0,0-.35.74,3.83,3.83,0,0,0-.12,1v.25a3,3,0,0,0,.12.85,2.29,2.29,0,0,0,.37.69,1.78,1.78,0,0,0,.59.47,1.88,1.88,0,0,0,.8.17,1.84,1.84,0,0,0,1-.24,2.29,2.29,0,0,0,.7-.62l.66.52a2.89,2.89,0,0,1-.53.59,2.54,2.54,0,0,1-.77.46A3,3,0,0,1,66,145.86Zm6-4.19v.89H69.1v-.89Zm5.17-2.26h1v6.2a2.78,2.78,0,0,1-.34,1.43,2.18,2.18,0,0,1-1,.9,3.06,3.06,0,0,1-1.39.31,3.54,3.54,0,0,1-.78-.11,3,3,0,0,1-.86-.34,2.2,2.2,0,0,1-.71-.65l.57-.65a2.2,2.2,0,0,0,.83.67,2.1,2.1,0,0,0,.87.19,1.92,1.92,0,0,0,.89-.2,1.33,1.33,0,0,0,.58-.57,1.88,1.88,0,0,0,.21-.93V140.8Zm-4.37,3.24v-.13a4.83,4.83,0,0,1,.17-1.31,3.41,3.41,0,0,1,.5-1,2.27,2.27,0,0,1,.79-.66,2.37,2.37,0,0,1,1-.23,2.46,2.46,0,0,1,1,.21,2.11,2.11,0,0,1,.76.6,3.06,3.06,0,0,1,.5,1,6.24,6.24,0,0,1,.25,1.26v.54a5.74,5.74,0,0,1-.25,1.26,3.06,3.06,0,0,1-.5.95,2.11,2.11,0,0,1-.76.6,2.51,2.51,0,0,1-1.06.2,2.2,2.2,0,0,1-1-.24,2.27,2.27,0,0,1-.78-.67,3.25,3.25,0,0,1-.51-1A4.72,4.72,0,0,1,72.76,142.65Zm1.09-.13v.13a4.26,4.26,0,0,0,.09.89,2.66,2.66,0,0,0,.3.73,1.55,1.55,0,0,0,.52.5,1.5,1.5,0,0,0,.76.17,1.63,1.63,0,0,0,.89-.22,1.7,1.7,0,0,0,.55-.61,3.62,3.62,0,0,0,.33-.81v-1.41a2.72,2.72,0,0,0-.2-.63,1.72,1.72,0,0,0-.34-.53,1.34,1.34,0,0,0-.51-.39,1.73,1.73,0,0,0-.71-.14,1.57,1.57,0,0,0-.77.19,1.55,1.55,0,0,0-.52.5,2.73,2.73,0,0,0-.3.74A4.26,4.26,0,0,0,73.85,142.52Zm5.62.13v-.14a4,4,0,0,1,.2-1.27,2.9,2.9,0,0,1,.57-1,2.53,2.53,0,0,1,.91-.68,3,3,0,0,1,2.4,0,2.45,2.45,0,0,1,.91.68,2.77,2.77,0,0,1,.58,1,3.76,3.76,0,0,1,.2,1.27v.14a3.76,3.76,0,0,1-.2,1.27,2.86,2.86,0,0,1-.58,1,2.62,2.62,0,0,1-.9.68,2.89,2.89,0,0,1-1.2.24,2.86,2.86,0,0,1-1.2-.24,2.69,2.69,0,0,1-.92-.68,3,3,0,0,1-.57-1A4,4,0,0,1,79.47,142.65Zm1.09-.14v.14a3.24,3.24,0,0,0,.11.89,2.17,2.17,0,0,0,.33.74,1.55,1.55,0,0,0,.57.51,1.67,1.67,0,0,0,.79.18,1.61,1.61,0,0,0,.78-.18,1.52,1.52,0,0,0,.56-.51,2.4,2.4,0,0,0,.34-.74,3.68,3.68,0,0,0,.11-.89v-.14a3.53,3.53,0,0,0-.11-.88,2.57,2.57,0,0,0-.34-.75,1.55,1.55,0,0,0-.57-.51,1.5,1.5,0,0,0-.78-.19,1.57,1.57,0,0,0-.79.19,1.6,1.6,0,0,0-.56.51,2.32,2.32,0,0,0-.33.75A3.12,3.12,0,0,0,80.56,142.51Zm7.88,2.26,1.73-5.36h1.11L89,145.75h-.73ZM87,139.41l1.79,5.39.12.95h-.73l-2.29-6.34Zm7.88,6.45a3.09,3.09,0,0,1-1.2-.22,2.59,2.59,0,0,1-.92-.64,2.81,2.81,0,0,1-.59-1,3.78,3.78,0,0,1-.2-1.23v-.25a3.68,3.68,0,0,1,.23-1.37,3.16,3.16,0,0,1,.62-1,2.59,2.59,0,0,1,.89-.63,2.45,2.45,0,0,1,1-.22,2.81,2.81,0,0,1,1.17.23,2.3,2.3,0,0,1,.82.66,2.86,2.86,0,0,1,.46,1,4.41,4.41,0,0,1,.16,1.23v.49H92.6V142h3.65v-.09a2.61,2.61,0,0,0-.17-.82,1.54,1.54,0,0,0-.47-.65,1.4,1.4,0,0,0-.88-.26,1.42,1.42,0,0,0-.68.16,1.3,1.3,0,0,0-.53.46,2.21,2.21,0,0,0-.35.74,3.83,3.83,0,0,0-.12,1v.25a3,3,0,0,0,.12.85,2.29,2.29,0,0,0,.37.69,1.68,1.68,0,0,0,.59.47,1.88,1.88,0,0,0,.8.17,1.84,1.84,0,0,0,1-.24,2.29,2.29,0,0,0,.7-.62l.65.52a2.83,2.83,0,0,1-.52.59,2.48,2.48,0,0,1-.78.46A2.92,2.92,0,0,1,94.87,145.86Zm4.82-5.46v5.35H98.6v-6.34h1.06Zm2-1v1l-.26,0h-.27a1.69,1.69,0,0,0-.66.12,1.51,1.51,0,0,0-.49.33,1.69,1.69,0,0,0-.31.5,2.42,2.42,0,0,0-.15.63l-.3.18a4.71,4.71,0,0,1,.11-1.08,3.08,3.08,0,0,1,.36-.89,1.78,1.78,0,0,1,.61-.61,1.68,1.68,0,0,1,.89-.22l.27,0A.64.64,0,0,1,101.67,139.37Zm2.08,1.39v5h-1.08v-6.34h1Zm-.26,1.58-.45,0a3.82,3.82,0,0,1,.2-1.2,3,3,0,0,1,.52-1,2.38,2.38,0,0,1,1.86-.86,2.53,2.53,0,0,1,.85.13,1.39,1.39,0,0,1,.63.4,1.71,1.71,0,0,1,.41.71,3.28,3.28,0,0,1,.14,1.06v4.16h-1.09v-4.17a1.82,1.82,0,0,0-.14-.8.92.92,0,0,0-.43-.44,1.6,1.6,0,0,0-.69-.14,1.64,1.64,0,0,0-.74.17,1.84,1.84,0,0,0-.57.47,2.53,2.53,0,0,0-.37.69A2.64,2.64,0,0,0,103.49,142.34Zm9.55,2.32V141.4a1.33,1.33,0,0,0-.15-.65,1.06,1.06,0,0,0-.45-.44,1.62,1.62,0,0,0-.74-.15,1.81,1.81,0,0,0-.72.14,1.4,1.4,0,0,0-.48.37.83.83,0,0,0-.17.49h-1.08a1.51,1.51,0,0,1,.17-.67,2,2,0,0,1,.51-.6,2.47,2.47,0,0,1,.8-.44,3.4,3.4,0,0,1,2.26.07,1.92,1.92,0,0,1,.83.71,2.18,2.18,0,0,1,.3,1.18v3a4.18,4.18,0,0,0,.06.68,2.33,2.33,0,0,0,.17.61v.1h-1.13a1.8,1.8,0,0,1-.13-.5A4.27,4.27,0,0,1,113,144.66Zm.19-2.76v.76h-1.1a4,4,0,0,0-.82.08,1.81,1.81,0,0,0-.61.22,1,1,0,0,0-.38.37,1,1,0,0,0-.13.51,1.09,1.09,0,0,0,.14.54.89.89,0,0,0,.4.39,1.42,1.42,0,0,0,.68.14,1.82,1.82,0,0,0,.88-.21,1.89,1.89,0,0,0,.6-.51,1.12,1.12,0,0,0,.24-.59l.47.52a1.66,1.66,0,0,1-.22.54,3.21,3.21,0,0,1-.49.58,2.59,2.59,0,0,1-.72.45,2.25,2.25,0,0,1-.92.17,2.38,2.38,0,0,1-1.13-.25,2,2,0,0,1-.75-.67,1.78,1.78,0,0,1-.27-1,1.92,1.92,0,0,1,.2-.89,1.73,1.73,0,0,1,.58-.65,2.65,2.65,0,0,1,.9-.4,4.71,4.71,0,0,1,1.18-.14Zm3.68-1.14v5h-1.08v-6.34h1Zm-.26,1.58-.45,0a3.82,3.82,0,0,1,.2-1.2,3,3,0,0,1,.52-1,2.38,2.38,0,0,1,1.86-.86,2.53,2.53,0,0,1,.85.13,1.39,1.39,0,0,1,.63.4,1.71,1.71,0,0,1,.41.71,3.28,3.28,0,0,1,.14,1.06v4.16h-1.08v-4.17a1.81,1.81,0,0,0-.15-.8.92.92,0,0,0-.43-.44,1.6,1.6,0,0,0-.69-.14,1.64,1.64,0,0,0-.74.17,1.84,1.84,0,0,0-.57.47,2.53,2.53,0,0,0-.37.69A2.64,2.64,0,0,0,116.65,142.34ZM125,145a1.54,1.54,0,0,0,.71-.16,1.43,1.43,0,0,0,.54-.43,1.22,1.22,0,0,0,.24-.64h1a1.87,1.87,0,0,1-.38,1,2.57,2.57,0,0,1-.91.78,2.54,2.54,0,0,1-1.23.29,2.88,2.88,0,0,1-1.25-.25,2.6,2.6,0,0,1-.88-.69,3.12,3.12,0,0,1-.52-1,4.31,4.31,0,0,1-.17-1.21v-.25a4.3,4.3,0,0,1,.17-1.2,3.17,3.17,0,0,1,.52-1,2.6,2.6,0,0,1,.88-.69,2.88,2.88,0,0,1,1.25-.25,2.71,2.71,0,0,1,1.3.3,2.29,2.29,0,0,1,.87.82,2.36,2.36,0,0,1,.35,1.18h-1a1.52,1.52,0,0,0-.22-.71,1.49,1.49,0,0,0-.52-.51,1.39,1.39,0,0,0-.75-.19,1.68,1.68,0,0,0-.84.2,1.42,1.42,0,0,0-.53.53,2.22,2.22,0,0,0-.28.73,3.66,3.66,0,0,0-.09.81v.25a3.75,3.75,0,0,0,.09.82,2.2,2.2,0,0,0,.27.73,1.5,1.5,0,0,0,.53.53A1.7,1.7,0,0,0,125,145Zm6.37.89a3.09,3.09,0,0,1-1.2-.22,2.68,2.68,0,0,1-.92-.64,2.79,2.79,0,0,1-.58-1,3.53,3.53,0,0,1-.21-1.23v-.25a3.9,3.9,0,0,1,.23-1.37,3.16,3.16,0,0,1,.62-1,2.59,2.59,0,0,1,.89-.63,2.48,2.48,0,0,1,1-.22,2.74,2.74,0,0,1,1.17.23,2.14,2.14,0,0,1,.82.66,2.88,2.88,0,0,1,.47,1,4.82,4.82,0,0,1,.15,1.23v.49h-4.73V142h3.65v-.09a2.94,2.94,0,0,0-.18-.82,1.46,1.46,0,0,0-.47-.65,1.38,1.38,0,0,0-.88-.26,1.46,1.46,0,0,0-1.21.62,2.42,2.42,0,0,0-.35.74,3.83,3.83,0,0,0-.12,1v.25a3,3,0,0,0,.12.85,2.29,2.29,0,0,0,.37.69,1.72,1.72,0,0,0,.6.47,2,2,0,0,0,1.76-.07,2.29,2.29,0,0,0,.7-.62l.66.52a3.15,3.15,0,0,1-.52.59,2.48,2.48,0,0,1-.78.46A3,3,0,0,1,131.37,145.86Z"></path><path class="cls-2" d="M81.92,94.49v1.26H77V94.67l2.32-3a6.92,6.92,0,0,0,.55-.84,3.19,3.19,0,0,0,.29-.65,2.36,2.36,0,0,0,.08-.56,2.2,2.2,0,0,0-.1-.67,1,1,0,0,0-.29-.45.7.7,0,0,0-.47-.17.84.84,0,0,0-.57.2,1.12,1.12,0,0,0-.33.53,2.6,2.6,0,0,0-.11.77h-1.5a3.17,3.17,0,0,1,.3-1.38,2.36,2.36,0,0,1,2.23-1.38,2.5,2.5,0,0,1,1.28.3,1.84,1.84,0,0,1,.79.82,2.67,2.67,0,0,1,.28,1.27,3.1,3.1,0,0,1-.11.81,4.79,4.79,0,0,1-.31.79,7.84,7.84,0,0,1-.49.8c-.19.26-.4.54-.64.82l-1.29,1.79Zm5.93-3.74v1.44a6.86,6.86,0,0,1-.18,1.68,3.33,3.33,0,0,1-.5,1.14,2,2,0,0,1-.76.65,2.26,2.26,0,0,1-1,.2,2.37,2.37,0,0,1-.81-.13,2,2,0,0,1-.68-.41,2.27,2.27,0,0,1-.51-.71,4.3,4.3,0,0,1-.33-1A8.16,8.16,0,0,1,83,92.19V90.75a7.31,7.31,0,0,1,.17-1.68,3.38,3.38,0,0,1,.51-1.13,2,2,0,0,1,.77-.64,2.38,2.38,0,0,1,1-.2,2.32,2.32,0,0,1,.8.13,1.76,1.76,0,0,1,.67.4,2.55,2.55,0,0,1,.52.7,3.86,3.86,0,0,1,.32,1A7,7,0,0,1,87.85,90.75Zm-1.5,1.65V90.52c0-.32,0-.6,0-.84a3.45,3.45,0,0,0-.12-.61,1.2,1.2,0,0,0-.19-.41.69.69,0,0,0-.26-.23.72.72,0,0,0-.32-.08.69.69,0,0,0-.39.12.87.87,0,0,0-.29.37,2.73,2.73,0,0,0-.19.67,7.11,7.11,0,0,0-.06,1V92.4a7.42,7.42,0,0,0,0,.86,4,4,0,0,0,.12.62,1.64,1.64,0,0,0,.2.42.77.77,0,0,0,.25.23.73.73,0,0,0,.33.08.64.64,0,0,0,.38-.12.91.91,0,0,0,.3-.38,2.91,2.91,0,0,0,.17-.68A7.35,7.35,0,0,0,86.35,92.4Zm6.19-5.21v8.56H91V89.06l-1.66.66V88.44l3-1.25Zm7.56,5.42v1.26H94.89l0-1,3-5.68H99l-1.21,2.32-1.44,3.07Zm-.77-5.39v8.53H97.82V87.22Z"></path></svg>