<svg xmlns="http://www.w3.org/2000/svg" id="Layer_1" data-name="Layer 1" viewBox="0 0 455 407"><defs><style>.cls-1{fill:none;stroke:#55cdd5;}.cls-2{fill:#13191d;}.cls-3{fill:#fff;}.cls-4{fill:#55cdd5;}</style></defs><circle class="cls-1" cx="227" cy="233" r="170.5"></circle><circle class="cls-2" cx="226.5" cy="61.5" r="61.5"></circle><circle class="cls-2" cx="61.5" cy="343.5" r="61.5"></circle><circle class="cls-2" cx="393.5" cy="345.5" r="61.5"></circle><path class="cls-3" d="M198.82,79.8a3.13,3.13,0,0,0-.23-1.25,2.47,2.47,0,0,0-.77-1,5.56,5.56,0,0,0-1.43-.82,17.71,17.71,0,0,0-2.23-.77,20,20,0,0,1-2.31-.79,7.81,7.81,0,0,1-1.77-1A4,4,0,0,1,189,72.88a3.85,3.85,0,0,1-.39-1.77,3.78,3.78,0,0,1,.42-1.79,4.3,4.3,0,0,1,1.19-1.4A5.68,5.68,0,0,1,192,67a8.11,8.11,0,0,1,2.31-.32,6.66,6.66,0,0,1,3.1.68,5.08,5.08,0,0,1,2,1.84,4.7,4.7,0,0,1,.73,2.58h-1.44a3.76,3.76,0,0,0-.53-2,3.45,3.45,0,0,0-1.5-1.37,5.08,5.08,0,0,0-2.38-.5,5.72,5.72,0,0,0-2.36.43,3.31,3.31,0,0,0-1.45,1.14,2.7,2.7,0,0,0-.48,1.57,2.62,2.62,0,0,0,.24,1.12,2.75,2.75,0,0,0,.76,1,6.34,6.34,0,0,0,1.42.82,16.16,16.16,0,0,0,2.17.72,17.75,17.75,0,0,1,2.41.83,7.21,7.21,0,0,1,1.78,1A3.88,3.88,0,0,1,199.9,78a4.24,4.24,0,0,1,.38,1.83,3.9,3.9,0,0,1-.45,1.88,4.07,4.07,0,0,1-1.23,1.39,5.72,5.72,0,0,1-1.86.88,8.59,8.59,0,0,1-2.33.3,8.78,8.78,0,0,1-2.27-.29,6.79,6.79,0,0,1-2.06-.9,4.92,4.92,0,0,1-1.49-1.59,4.75,4.75,0,0,1-.55-2.33h1.43a3.53,3.53,0,0,0,.44,1.82,3.64,3.64,0,0,0,1.14,1.2,5.51,5.51,0,0,0,1.6.66,7.48,7.48,0,0,0,1.76.2,6.15,6.15,0,0,0,2.33-.4,3.42,3.42,0,0,0,1.53-1.11A2.68,2.68,0,0,0,198.82,79.8Zm12,1.93V75.19a3.11,3.11,0,0,0-.38-1.56,2.4,2.4,0,0,0-1.1-1,4.14,4.14,0,0,0-1.79-.35,4.29,4.29,0,0,0-1.76.35,3.09,3.09,0,0,0-1.21.93,2,2,0,0,0-.43,1.27H202.7a3,3,0,0,1,.35-1.38,4,4,0,0,1,1-1.2,4.83,4.83,0,0,1,1.54-.83,6.53,6.53,0,0,1,4.37.14,3.65,3.65,0,0,1,1.63,1.37,4.2,4.2,0,0,1,.58,2.3v6.13a9.18,9.18,0,0,0,.1,1.36,4.89,4.89,0,0,0,.29,1.16V84h-1.49a5.62,5.62,0,0,1-.22-1A10.58,10.58,0,0,1,210.78,81.73Zm.33-5.11,0,1.08h-2.75a8.21,8.21,0,0,0-1.94.2,4.32,4.32,0,0,0-1.43.56,2.62,2.62,0,0,0-.9.88,2.27,2.27,0,0,0-.31,1.17,2.41,2.41,0,0,0,.34,1.24,2.61,2.61,0,0,0,1,.9,3.31,3.31,0,0,0,1.52.33,4.63,4.63,0,0,0,2.06-.43,4.29,4.29,0,0,0,1.49-1.14,3.74,3.74,0,0,0,.79-1.53l.61.8a4.08,4.08,0,0,1-.56,1.21A5.34,5.34,0,0,1,210,83a5.25,5.25,0,0,1-3.49,1.19,4.78,4.78,0,0,1-2.17-.46,3.7,3.7,0,0,1-1.43-1.28,3.54,3.54,0,0,1-.5-1.85A3.43,3.43,0,0,1,204,77.7a5.32,5.32,0,0,1,1.82-.8,9.52,9.52,0,0,1,2.42-.28ZM217.26,74V84h-1.41V71.32h1.35ZM217,76.88l-.68-.36a8,8,0,0,1,.42-2.11,5.62,5.62,0,0,1,1-1.73,4.57,4.57,0,0,1,1.55-1.17,4.78,4.78,0,0,1,2-.42,5.18,5.18,0,0,1,1.67.25,3.15,3.15,0,0,1,1.29.79,3.38,3.38,0,0,1,.83,1.38,6.24,6.24,0,0,1,.3,2V84H224V75.61a4,4,0,0,0-.4-2,2.16,2.16,0,0,0-1.09-1,4,4,0,0,0-1.6-.31,3.5,3.5,0,0,0-1.83.45,3.77,3.77,0,0,0-1.21,1.14,5.3,5.3,0,0,0-.68,1.49A6.29,6.29,0,0,0,217,76.88Zm8.43-1.11-.94,0a5.33,5.33,0,0,1,.42-1.77,4.86,4.86,0,0,1,1-1.5,4.72,4.72,0,0,1,1.53-1.06,5.1,5.1,0,0,1,2-.38,5.62,5.62,0,0,1,1.76.26,3,3,0,0,1,1.3.84,3.61,3.61,0,0,1,.82,1.44,6.87,6.87,0,0,1,.28,2.11V84h-1.4V75.73a4.53,4.53,0,0,0-.4-2.09,2.14,2.14,0,0,0-1.08-1,4,4,0,0,0-1.62-.3,3.81,3.81,0,0,0-1.6.35,3.3,3.3,0,0,0-1.16.84,3.88,3.88,0,0,0-.71,1.11A3.62,3.62,0,0,0,225.43,75.77Zm19.5,6V75.19a3.11,3.11,0,0,0-.38-1.56,2.45,2.45,0,0,0-1.1-1,4.17,4.17,0,0,0-1.79-.35,4.25,4.25,0,0,0-1.76.35,3.09,3.09,0,0,0-1.21.93,2,2,0,0,0-.43,1.27h-1.41a3,3,0,0,1,.35-1.38,4,4,0,0,1,1-1.2,4.89,4.89,0,0,1,1.53-.83,6,6,0,0,1,2-.31,6,6,0,0,1,2.4.45,3.63,3.63,0,0,1,1.62,1.37,4.2,4.2,0,0,1,.59,2.3v6.13a10.7,10.7,0,0,0,.09,1.36,4.86,4.86,0,0,0,.3,1.16V84h-1.49a4.92,4.92,0,0,1-.22-1A10.58,10.58,0,0,1,244.93,81.73Zm.32-5.11,0,1.08h-2.76a8.12,8.12,0,0,0-1.93.2,4.32,4.32,0,0,0-1.43.56,2.62,2.62,0,0,0-.9.88,2.18,2.18,0,0,0-.31,1.17,2.41,2.41,0,0,0,.34,1.24,2.61,2.61,0,0,0,1,.9,3.28,3.28,0,0,0,1.52.33,4.63,4.63,0,0,0,2.06-.43,4.38,4.38,0,0,0,1.49-1.14,3.87,3.87,0,0,0,.79-1.53l.61.8a4.12,4.12,0,0,1-.57,1.21,5,5,0,0,1-1,1.15,5.25,5.25,0,0,1-3.49,1.19,4.78,4.78,0,0,1-2.17-.46,3.63,3.63,0,0,1-1.43-1.28,3.54,3.54,0,0,1,1-4.79,5.46,5.46,0,0,1,1.83-.8,9.52,9.52,0,0,1,2.42-.28Zm12.54,5.11V75.19a3.1,3.1,0,0,0-.37-1.56,2.45,2.45,0,0,0-1.1-1,4.68,4.68,0,0,0-3.55,0,3.09,3.09,0,0,0-1.21.93,2,2,0,0,0-.44,1.27h-1.4a3,3,0,0,1,.35-1.38,3.89,3.89,0,0,1,1-1.2,4.89,4.89,0,0,1,1.53-.83,6,6,0,0,1,2-.31,5.89,5.89,0,0,1,2.39.45,3.6,3.6,0,0,1,1.63,1.37,4.2,4.2,0,0,1,.59,2.3v6.13a10.7,10.7,0,0,0,.09,1.36,5.43,5.43,0,0,0,.29,1.16V84h-1.48a5.55,5.55,0,0,1-.23-1C257.82,82.52,257.79,82.11,257.79,81.73Zm.33-5.11,0,1.08h-2.75a8.12,8.12,0,0,0-1.93.2,4.23,4.23,0,0,0-1.43.56,2.74,2.74,0,0,0-.91.88,2.26,2.26,0,0,0-.3,1.17,2.31,2.31,0,0,0,.34,1.24,2.51,2.51,0,0,0,1,.9,3.32,3.32,0,0,0,1.53.33,4.63,4.63,0,0,0,2.06-.43,4.38,4.38,0,0,0,1.49-1.14,3.72,3.72,0,0,0,.78-1.53l.61.8a4.08,4.08,0,0,1-.56,1.21A5,5,0,0,1,257,83a5.3,5.3,0,0,1-3.49,1.19,4.75,4.75,0,0,1-2.17-.46,3.63,3.63,0,0,1-1.43-1.28,3.46,3.46,0,0,1-.51-1.85A3.43,3.43,0,0,1,251,77.7a5.46,5.46,0,0,1,1.83-.8,9.44,9.44,0,0,1,2.41-.28Zm4.93-5.3h1.41V85.51a4.49,4.49,0,0,1-.39,2A2.61,2.61,0,0,1,263,88.7a3.63,3.63,0,0,1-1.82.42,3.7,3.7,0,0,1-.63-.06,3.5,3.5,0,0,1-.62-.16l0-1.17a4.19,4.19,0,0,0,.51.1,2.57,2.57,0,0,0,.55.06,2.3,2.3,0,0,0,1.15-.27,1.62,1.62,0,0,0,.7-.78,3.26,3.26,0,0,0,.24-1.33Zm-.24-3.67a1,1,0,1,1,1.93,0,.94.94,0,0,1-.27.67,1,1,0,0,1-1.4,0A.93.93,0,0,1,262.81,67.65Z"></path><path class="cls-3" d="M221.1,30.39l1.16-.29.08-.27a5,5,0,0,1,.47-1.12l.15-.24-.61-1,1-.95,1,.6.25-.14a4.64,4.64,0,0,1,1.15-.47l.27-.07.3-1.13h1.37l.29,1.13.28.07a4.87,4.87,0,0,1,1.16.47l.25.14,1-.6,1,.94-.61,1,.15.24a4.62,4.62,0,0,1,.48,1.12l.07.27,1.16.29v1.33l-1.16.29-.07.27a4.62,4.62,0,0,1-.48,1.12l-.15.24.61,1-1,.94-1-.6-.25.15a4.84,4.84,0,0,1-1.16.46l-.27.07-.3,1.14h-1.36l-.3-1.14-.28-.07a4.77,4.77,0,0,1-1.15-.46l-.25-.15-1,.6-1-.94.61-1-.14-.24a4.62,4.62,0,0,1-.48-1.12l-.07-.27-1.17-.29Zm.72,3.24-.71,1.17,2,2,1.2-.7a5.24,5.24,0,0,0,.85.35l.34,1.31h2.9l.34-1.31a6.32,6.32,0,0,0,.85-.35l1.2.7,2-2-.71-1.17a5.94,5.94,0,0,0,.35-.82l1.35-.34V29.65l-1.35-.34a5.42,5.42,0,0,0-.35-.83l.71-1.17-2-2-1.2.69a6.28,6.28,0,0,0-.85-.34l-.34-1.32h-2.9l-.34,1.32a4.9,4.9,0,0,0-.85.35l-1.2-.7-2,2,.71,1.17a5.42,5.42,0,0,0-.35.83l-1.35.34v2.82l1.35.34A4.93,4.93,0,0,0,221.82,33.63Z"></path><path class="cls-3" d="M227,29.18a2.13,2.13,0,0,1,1.11.31,1.9,1.9,0,0,1,.74.85,1.82,1.82,0,0,1-.43,2.05,2.07,2.07,0,0,1-1,.52,2.18,2.18,0,0,1-1.16-.11,2,2,0,0,1-.89-.69,1.83,1.83,0,0,1-.34-1.05,1.81,1.81,0,0,1,.59-1.33A2.06,2.06,0,0,1,227,29.18Zm0,4.7a3.17,3.17,0,0,0,1.67-.47,2.82,2.82,0,0,0,1.1-1.27,2.61,2.61,0,0,0,.17-1.63,2.76,2.76,0,0,0-.82-1.45,3.09,3.09,0,0,0-1.54-.77,3.19,3.19,0,0,0-1.73.16,2.9,2.9,0,0,0-1.34,1,2.68,2.68,0,0,0,.37,3.56A3.08,3.08,0,0,0,227,33.88Z"></path><path class="cls-3" d="M216,50.2h4.78v2.85H216Zm4.78-1H216V40.72h4.77Zm5.72,3.8h-2.38V47.83a.45.45,0,0,1,.14-.33.47.47,0,0,1,.33-.14h1.91Zm1-5.69h1.91a.47.47,0,0,1,.33.14.45.45,0,0,1,.14.33v5.22h-2.38Zm4.77-7.59V53.05h-1.43V47.83a1.47,1.47,0,0,0-.43-1,1.42,1.42,0,0,0-1-.42h-4.78a1.42,1.42,0,0,0-1,.42,1.46,1.46,0,0,0-.42,1v5.22h-1.43V39.76ZM238,49.26H233.2V40.72H238Zm0,3.79H233.2V50.21H238Zm1-13.28H233.2v-1H220.8v1h-5.73V53.05h-.95v1h25.76v-1h-.95Z"></path><path class="cls-3" d="M223.65,40.59h-1.06v1.06h1.06Z"></path><path class="cls-3" d="M225.41,40.59h-.7v1.06h.7Z"></path><path class="cls-3" d="M227.53,40.59h-1.06v1.06h1.06Z"></path><path class="cls-3" d="M229.29,40.59h-.7v1.06h.7Z"></path><path class="cls-3" d="M231.41,40.59h-1.06v1.06h1.06Z"></path><path class="cls-3" d="M223.65,42.71h-1.06v.7h1.06Z"></path><path class="cls-3" d="M225.41,42.71h-.7v.7h.7Z"></path><path class="cls-3" d="M227.53,42.71h-1.06v.7h1.06Z"></path><path class="cls-3" d="M229.29,42.71h-.7v.7h.7Z"></path><path class="cls-3" d="M231.41,42.71h-1.06v.7h1.06Z"></path><path class="cls-3" d="M223.65,44.47h-1.06v1.06h1.06Z"></path><path class="cls-3" d="M225.41,44.47h-.7v1.06h.7Z"></path><path class="cls-3" d="M227.53,44.47h-1.06v1.06h1.06Z"></path><path class="cls-3" d="M229.29,44.47h-.7v1.06h.7Z"></path><path class="cls-3" d="M231.41,44.47h-1.06v1.06h1.06Z"></path><path class="cls-3" d="M235.29,41.65h-1.06v1.06h1.06Z"></path><path class="cls-3" d="M237.06,41.65H236v1.06h1.06Z"></path><path class="cls-3" d="M235.29,43.41h-1.06v1.06h1.06Z"></path><path class="cls-3" d="M237.06,43.41H236v1.06h1.06Z"></path><path class="cls-3" d="M235.29,45.53h-1.06v.71h1.06Z"></path><path class="cls-3" d="M237.06,45.53H236v.71h1.06Z"></path><path class="cls-3" d="M235.29,47.29h-1.06v1.06h1.06Z"></path><path class="cls-3" d="M237.06,47.29H236v1.06h1.06Z"></path><path class="cls-3" d="M219.77,41.65h-1.06v1.06h1.06Z"></path><path class="cls-3" d="M218,41.65h-1.06v1.06H218Z"></path><path class="cls-3" d="M219.77,43.41h-1.06v1.06h1.06Z"></path><path class="cls-3" d="M218,43.41h-1.06v1.06H218Z"></path><path class="cls-3" d="M219.77,45.53h-1.06v.71h1.06Z"></path><path class="cls-3" d="M218,45.53h-1.06v.71H218Z"></path><path class="cls-3" d="M219.77,47.29h-1.06v1.06h1.06Z"></path><path class="cls-3" d="M218,47.29h-1.06v1.06H218Z"></path><path class="cls-3" d="M237.06,37.76H236v1.06h1.06Z"></path><path class="cls-3" d="M238.12,24l-3.89,4.63h2v8.25h.95V27.66h-.87l1.82-2.17,1.81,2.17h-.86V38.82h1V28.63h2Z"></path><path class="cls-3" d="M218,37.76h-1.06v1.06H218Z"></path><path class="cls-3" d="M214,38.82h.94V27.65h-.86l1.82-2.16,1.82,2.16h-.87v9.24h.95V28.63h2L215.88,24,212,28.63h2Z"></path><path class="cls-3" d="M34.82,361.8a3.13,3.13,0,0,0-.23-1.25,2.54,2.54,0,0,0-.77-1,5.56,5.56,0,0,0-1.43-.82,17.71,17.71,0,0,0-2.23-.77,20,20,0,0,1-2.31-.79,7.81,7.81,0,0,1-1.77-1A4,4,0,0,1,25,354.88a4.12,4.12,0,0,1,0-3.56,4.3,4.3,0,0,1,1.19-1.4A5.68,5.68,0,0,1,28,349a8.11,8.11,0,0,1,2.31-.32,6.66,6.66,0,0,1,3.1.68,5.08,5.08,0,0,1,2,1.84,4.7,4.7,0,0,1,.73,2.58H34.72a3.76,3.76,0,0,0-.53-2,3.45,3.45,0,0,0-1.5-1.37,5.08,5.08,0,0,0-2.38-.5,5.72,5.72,0,0,0-2.36.43,3.31,3.31,0,0,0-1.45,1.14,2.7,2.7,0,0,0-.48,1.57,2.62,2.62,0,0,0,.24,1.12,2.75,2.75,0,0,0,.76,1,6.34,6.34,0,0,0,1.42.82,16.47,16.47,0,0,0,2.16.72,17.45,17.45,0,0,1,2.42.83,7.21,7.21,0,0,1,1.78,1.05A3.88,3.88,0,0,1,35.9,360a4.24,4.24,0,0,1,.38,1.83,3.9,3.9,0,0,1-.45,1.88,4.07,4.07,0,0,1-1.23,1.39,5.72,5.72,0,0,1-1.86.88,8.59,8.59,0,0,1-2.33.3,8.71,8.71,0,0,1-2.26-.29,6.85,6.85,0,0,1-2.07-.9,4.92,4.92,0,0,1-1.49-1.59,4.75,4.75,0,0,1-.55-2.33h1.43a3.53,3.53,0,0,0,.44,1.82,3.64,3.64,0,0,0,1.14,1.2,5.51,5.51,0,0,0,1.6.66,7.48,7.48,0,0,0,1.76.2,6.35,6.35,0,0,0,2.33-.39,3.51,3.51,0,0,0,1.53-1.12A2.68,2.68,0,0,0,34.82,361.8Zm12,1.93v-6.54a3.11,3.11,0,0,0-.38-1.56,2.46,2.46,0,0,0-1.1-1,4.14,4.14,0,0,0-1.79-.35,4.29,4.29,0,0,0-1.76.35,3.09,3.09,0,0,0-1.21.93,2.05,2.05,0,0,0-.43,1.27H38.7a3,3,0,0,1,.35-1.38,4,4,0,0,1,1-1.2,5,5,0,0,1,1.54-.83,6.53,6.53,0,0,1,4.37.14,3.65,3.65,0,0,1,1.63,1.37,4.2,4.2,0,0,1,.58,2.3v6.13a9.18,9.18,0,0,0,.1,1.36,4.89,4.89,0,0,0,.29,1.16V366H47.07a5.62,5.62,0,0,1-.22-1.05A10.58,10.58,0,0,1,46.78,363.73Zm.32-5.11,0,1.08H44.38a8.8,8.8,0,0,0-1.94.19,4.55,4.55,0,0,0-1.43.57,2.62,2.62,0,0,0-.9.88,2.27,2.27,0,0,0-.31,1.17,2.32,2.32,0,0,0,.35,1.24,2.51,2.51,0,0,0,1,.9,3.31,3.31,0,0,0,1.52.33,4.63,4.63,0,0,0,2.06-.43,4.29,4.29,0,0,0,1.49-1.14,3.87,3.87,0,0,0,.79-1.53l.61.8a4.08,4.08,0,0,1-.56,1.21A5.34,5.34,0,0,1,46,365a5.25,5.25,0,0,1-3.49,1.19,4.78,4.78,0,0,1-2.17-.46,3.7,3.7,0,0,1-1.43-1.28,3.54,3.54,0,0,1-.5-1.85A3.43,3.43,0,0,1,40,359.7a5.32,5.32,0,0,1,1.82-.8,9.52,9.52,0,0,1,2.42-.28Zm6.23-3.2V366h-1.4V353.32h1.36Zm4.49-2.19,0,1.29-.46-.06a3.43,3.43,0,0,0-.48,0,3.66,3.66,0,0,0-1.6.34,3.24,3.24,0,0,0-1.15.93,4.1,4.1,0,0,0-.71,1.38,6.57,6.57,0,0,0-.29,1.69l-.51.2a9.39,9.39,0,0,1,.26-2.31,5.79,5.79,0,0,1,.78-1.86A3.87,3.87,0,0,1,55,353.54a4,4,0,0,1,1.92-.45,3.08,3.08,0,0,1,.53,0A1.76,1.76,0,0,1,57.82,353.23ZM61.41,348v18H60V348Zm8,5.32-5.93,5.88-2.52,2.44-.21-1.37,2-2.19,4.86-4.76ZM68.15,366l-5.3-6.59.78-1.2L69.84,366Zm11.35-2.27v-6.54a3.11,3.11,0,0,0-.38-1.56,2.51,2.51,0,0,0-1.1-1,4.14,4.14,0,0,0-1.79-.35,4.25,4.25,0,0,0-1.76.35,3.09,3.09,0,0,0-1.21.93,2.05,2.05,0,0,0-.43,1.27H71.42a3,3,0,0,1,.35-1.38,4,4,0,0,1,1-1.2,5.1,5.1,0,0,1,1.53-.83,6.06,6.06,0,0,1,2-.31,6,6,0,0,1,2.39.45,3.63,3.63,0,0,1,1.62,1.37,4.12,4.12,0,0,1,.59,2.3v6.13A10.7,10.7,0,0,0,81,364.7a4.86,4.86,0,0,0,.3,1.16V366H79.79a5.62,5.62,0,0,1-.22-1.05A10.58,10.58,0,0,1,79.5,363.73Zm.32-5.11,0,1.08H77.09a8.77,8.77,0,0,0-1.93.19,4.55,4.55,0,0,0-1.43.57,2.62,2.62,0,0,0-.9.88,2.18,2.18,0,0,0-.31,1.17,2.41,2.41,0,0,0,.34,1.24,2.61,2.61,0,0,0,1,.9,3.31,3.31,0,0,0,1.52.33,4.63,4.63,0,0,0,2.06-.43,4.29,4.29,0,0,0,1.49-1.14,3.87,3.87,0,0,0,.79-1.53l.61.8a4.12,4.12,0,0,1-.57,1.21,5,5,0,0,1-1,1.15,5.25,5.25,0,0,1-3.49,1.19,4.78,4.78,0,0,1-2.17-.46,3.63,3.63,0,0,1-1.43-1.28,3.54,3.54,0,0,1-.5-1.85,3.45,3.45,0,0,1,1.54-2.94,5.46,5.46,0,0,1,1.83-.8,9.52,9.52,0,0,1,2.42-.28Zm12.54,5.11v-6.54a3.1,3.1,0,0,0-.37-1.56,2.51,2.51,0,0,0-1.1-1,4.68,4.68,0,0,0-3.55,0,3.09,3.09,0,0,0-1.21.93,2.05,2.05,0,0,0-.43,1.27H84.29a3,3,0,0,1,.35-1.38,4,4,0,0,1,1-1.2,5.1,5.1,0,0,1,1.53-.83,6,6,0,0,1,2-.31,5.89,5.89,0,0,1,2.39.45,3.6,3.6,0,0,1,1.63,1.37,4.2,4.2,0,0,1,.59,2.3v6.13a10.7,10.7,0,0,0,.09,1.36,5.43,5.43,0,0,0,.29,1.16V366H92.66a5.55,5.55,0,0,1-.23-1.05C92.39,364.52,92.36,364.11,92.36,363.73Zm.33-5.11,0,1.08H90a8.7,8.7,0,0,0-1.93.19,4.45,4.45,0,0,0-1.43.57,2.62,2.62,0,0,0-.9.88,2.18,2.18,0,0,0-.31,1.17,2.31,2.31,0,0,0,.34,1.24,2.51,2.51,0,0,0,1,.9,3.35,3.35,0,0,0,1.53.33,4.63,4.63,0,0,0,2.06-.43,4.38,4.38,0,0,0,1.49-1.14,3.72,3.72,0,0,0,.78-1.53l.61.8a4.08,4.08,0,0,1-.56,1.21,5,5,0,0,1-1,1.15,5.3,5.3,0,0,1-3.49,1.19,4.78,4.78,0,0,1-2.17-.46,3.63,3.63,0,0,1-1.43-1.28,3.46,3.46,0,0,1-.51-1.85,3.43,3.43,0,0,1,1.55-2.94,5.46,5.46,0,0,1,1.83-.8,9.44,9.44,0,0,1,2.41-.28Zm6.22-3.2V366H97.52V353.32h1.36Zm4.49-2.19,0,1.29-.46-.06a3.64,3.64,0,0,0-.48,0,3.74,3.74,0,0,0-1.61.34,3.21,3.21,0,0,0-1.14.93,4,4,0,0,0-.72,1.38,6.57,6.57,0,0,0-.28,1.69l-.52.2a9.9,9.9,0,0,1,.26-2.31,5.8,5.8,0,0,1,.79-1.86,3.68,3.68,0,0,1,3.27-1.71,3,3,0,0,1,.52,0A1.63,1.63,0,0,1,103.4,353.23Z"></path><path class="cls-3" d="M53.5,331a.41.41,0,0,0-.32.23,1.47,1.47,0,0,0-.17.57,1.85,1.85,0,0,0,.05.67.85.85,0,0,0,.25.45.27.27,0,0,0,.33,0,.74.74,0,0,0,.28-.4,2,2,0,0,0,.08-.66,1.61,1.61,0,0,0-.15-.61.58.58,0,0,0-.16-.21A.29.29,0,0,0,53.5,331Z"></path><path class="cls-3" d="M53.5,327a.41.41,0,0,0-.19,0,.44.44,0,0,0-.16.1.36.36,0,0,0-.11.16.34.34,0,0,0,0,.18v2a.44.44,0,0,0,.15.33.51.51,0,0,0,.7,0,.44.44,0,0,0,.15-.33v-2.06a.44.44,0,0,0-.15-.33.5.5,0,0,0-.35-.14"></path><path class="cls-3" d="M57.5,327a.58.58,0,0,0-.19,0,.51.51,0,0,0-.16.13.52.52,0,0,0-.11.19.57.57,0,0,0,0,.22v4.84a.61.61,0,0,0,.15.41.45.45,0,0,0,.7,0,.61.61,0,0,0,.15-.41v-4.84a.61.61,0,0,0-.15-.41A.46.46,0,0,0,57.5,327Z"></path><path class="cls-3" d="M60.5,327a.58.58,0,0,0-.19,0,.51.51,0,0,0-.16.13.52.52,0,0,0-.11.19.57.57,0,0,0,0,.22v4.84a.61.61,0,0,0,.15.41.45.45,0,0,0,.7,0,.61.61,0,0,0,.15-.41v-4.84a.57.57,0,0,0,0-.22.52.52,0,0,0-.11-.19.38.38,0,0,0-.16-.12A.41.41,0,0,0,60.5,327Z"></path><path class="cls-3" d="M63.5,327a.58.58,0,0,0-.19,0,.51.51,0,0,0-.16.13.52.52,0,0,0-.11.19.57.57,0,0,0,0,.22v4.84a.61.61,0,0,0,.15.41.45.45,0,0,0,.7,0,.61.61,0,0,0,.15-.41v-4.84a.57.57,0,0,0,0-.22.52.52,0,0,0-.11-.19.51.51,0,0,0-.16-.13A.58.58,0,0,0,63.5,327Z"></path><path class="cls-3" d="M66.5,327a.58.58,0,0,0-.19,0,.51.51,0,0,0-.16.13.52.52,0,0,0-.11.19.57.57,0,0,0,0,.22v4.84a.61.61,0,0,0,.15.41.45.45,0,0,0,.7,0,.61.61,0,0,0,.15-.41v-4.84a.57.57,0,0,0,0-.22.52.52,0,0,0-.11-.19.51.51,0,0,0-.16-.13A.58.58,0,0,0,66.5,327Z"></path><path class="cls-3" d="M70.51,327a.63.63,0,0,0-.19,0,.45.45,0,0,0-.17.11.46.46,0,0,0-.11.16.52.52,0,0,0,0,.4.46.46,0,0,0,.11.16.45.45,0,0,0,.17.11.63.63,0,0,0,.19,0,.41.41,0,0,0,.19,0,.42.42,0,0,0,.16-.11.47.47,0,0,0,.13-.25.48.48,0,0,0,0-.29.47.47,0,0,0-.45-.31Z"></path><path class="cls-3" d="M70.5,329a.41.41,0,0,0-.19.05.43.43,0,0,0-.16.14.56.56,0,0,0-.11.2.69.69,0,0,0,0,.25v2.72a.7.7,0,0,0,.15.45.42.42,0,0,0,.7,0,.7.7,0,0,0,.15-.45v-2.72a.69.69,0,0,0,0-.25.56.56,0,0,0-.11-.2.43.43,0,0,0-.16-.14A.41.41,0,0,0,70.5,329Z"></path><path class="cls-3" d="M56.5,321a.41.41,0,0,0-.19,0,.44.44,0,0,0-.16.1.42.42,0,0,0-.11.16.43.43,0,0,0,0,.19v1a.43.43,0,0,0,0,.19.42.42,0,0,0,.11.16.44.44,0,0,0,.16.1.47.47,0,0,0,.38,0,.44.44,0,0,0,.16-.1.42.42,0,0,0,.11-.16.43.43,0,0,0,0-.19v-1a.49.49,0,0,0-.15-.35A.5.5,0,0,0,56.5,321Z"></path><path class="cls-3" d="M58.5,321a.41.41,0,0,0-.19,0,.44.44,0,0,0-.16.1.42.42,0,0,0-.11.16.41.41,0,0,0,0,.19v1a.63.63,0,0,0,0,.19.45.45,0,0,0,.11.17.46.46,0,0,0,.16.11.52.52,0,0,0,.4,0,.46.46,0,0,0,.16-.11.45.45,0,0,0,.11-.17.63.63,0,0,0,0-.19v-1a.47.47,0,0,0-.15-.35A.5.5,0,0,0,58.5,321Z"></path><path class="cls-3" d="M60.5,321a.41.41,0,0,0-.19,0,.44.44,0,0,0-.16.1.42.42,0,0,0-.11.16.43.43,0,0,0,0,.19v1a.43.43,0,0,0,0,.19.42.42,0,0,0,.11.16.44.44,0,0,0,.16.1.47.47,0,0,0,.38,0,.44.44,0,0,0,.16-.1.42.42,0,0,0,.11-.16.43.43,0,0,0,0-.19v-1a.43.43,0,0,0,0-.19.42.42,0,0,0-.11-.16.44.44,0,0,0-.16-.1A.41.41,0,0,0,60.5,321Z"></path><path class="cls-3" d="M63.5,321a.41.41,0,0,0-.19,0,.44.44,0,0,0-.16.1.42.42,0,0,0-.11.16.43.43,0,0,0,0,.19v1a.43.43,0,0,0,0,.19.42.42,0,0,0,.11.16.44.44,0,0,0,.16.1.47.47,0,0,0,.38,0,.44.44,0,0,0,.16-.1.42.42,0,0,0,.11-.16.43.43,0,0,0,0-.19v-1a.49.49,0,0,0-.15-.35A.5.5,0,0,0,63.5,321Z"></path><path class="cls-3" d="M65.5,321a.41.41,0,0,0-.19,0,.44.44,0,0,0-.16.1.42.42,0,0,0-.11.16.43.43,0,0,0,0,.19v1a.43.43,0,0,0,0,.19.42.42,0,0,0,.11.16.44.44,0,0,0,.16.1.47.47,0,0,0,.38,0,.44.44,0,0,0,.16-.1.42.42,0,0,0,.11-.16.43.43,0,0,0,0-.19v-1a.49.49,0,0,0-.15-.35A.5.5,0,0,0,65.5,321Z"></path><path class="cls-3" d="M67.5,321a.41.41,0,0,0-.19,0,.44.44,0,0,0-.16.1.42.42,0,0,0-.11.16.43.43,0,0,0,0,.19v1a.49.49,0,0,0,.15.35.51.51,0,0,0,.7,0,.49.49,0,0,0,.15-.35v-1a.49.49,0,0,0-.15-.35A.5.5,0,0,0,67.5,321Z"></path><path class="cls-3" d="M75.82,333.83H74.06V327h1.76Zm-24.73-7.39v-1.29H72.88v8.68H51.09Zm-2.93.59h1.76v6.8H48.16Zm6.21-7H69.61v4H54.37Zm1.23-4.22H68.38v3.05H55.6Zm1.51-1.68a4.88,4.88,0,1,1,9.76,0v.51H57.11ZM76.4,325.85H74.06v-1.28a.59.59,0,0,0,0-.23.62.62,0,0,0-.32-.32.57.57,0,0,0-.22,0h-2.7v-4h.41a.57.57,0,0,0,.41-.17.57.57,0,0,0,0-.83.57.57,0,0,0-.41-.17H69.55v-3.06a.51.51,0,0,0,.38-.2.56.56,0,0,0,.14-.41.53.53,0,0,0-.18-.39.56.56,0,0,0-.4-.17H68v-.5a6.06,6.06,0,0,0-5.47-6v-2.47a.59.59,0,0,0-.17-.42A.58.58,0,0,0,62,305a.58.58,0,0,0-.59.59v2.47a6.06,6.06,0,0,0-5.46,6v.51H54.5a.59.59,0,0,0-.4.16.55.55,0,0,0-.18.39.58.58,0,0,0,.52.62v3.05H52.8a.58.58,0,0,0-.41.17.57.57,0,0,0,0,.83.58.58,0,0,0,.41.17h.41v4H50.52a.59.59,0,0,0-.42.17.58.58,0,0,0-.17.41v1.29H47.59a.58.58,0,0,0-.59.59v8a.58.58,0,0,0,.17.41.59.59,0,0,0,.42.17H76.41a.85.85,0,0,0,.23,0,.62.62,0,0,0,.32-.32.57.57,0,0,0,0-.22v-8a.59.59,0,0,0,0-.23.62.62,0,0,0-.32-.32.85.85,0,0,0-.23,0"></path><path class="cls-3" d="M367,357.8h-4.81l0-1.22h4.14a5.52,5.52,0,0,0,2.15-.37,2.76,2.76,0,0,0,1.35-1.07,3.26,3.26,0,0,0,.47-1.78,3.2,3.2,0,0,0-.46-1.79,2.69,2.69,0,0,0-1.37-1.05,6.54,6.54,0,0,0-2.29-.34h-3.59V366h-1.44V348.94h5a9.28,9.28,0,0,1,2.33.26,4.78,4.78,0,0,1,1.75.8,3.53,3.53,0,0,1,1.11,1.4,4.65,4.65,0,0,1,.38,2,3.84,3.84,0,0,1-.47,1.91,3.79,3.79,0,0,1-1.32,1.38,4.68,4.68,0,0,1-2,.66Zm-.11,8.2h-5.15l.74-1.23h4.41a5,5,0,0,0,2.16-.42,3.18,3.18,0,0,0,1.38-1.23,3.93,3.93,0,0,0,.06-3.65,3,3,0,0,0-1.29-1.22,4.76,4.76,0,0,0-2.2-.45h-3l0-1.22h4.23l.26.43a4.19,4.19,0,0,1,2,.72,3.93,3.93,0,0,1,1.33,1.48,4.21,4.21,0,0,1,.48,2,4.76,4.76,0,0,1-.69,2.62,4.37,4.37,0,0,1-1.91,1.63A6.8,6.8,0,0,1,366.93,366Zm16.34-2.27v-6.54a3.1,3.1,0,0,0-.37-1.56,2.48,2.48,0,0,0-1.11-1,4.14,4.14,0,0,0-1.79-.35,4.29,4.29,0,0,0-1.76.35,3.09,3.09,0,0,0-1.21.93,2.11,2.11,0,0,0-.43,1.27h-1.4a2.89,2.89,0,0,1,.35-1.38,3.85,3.85,0,0,1,1-1.2,5,5,0,0,1,1.54-.83,6.53,6.53,0,0,1,4.37.14,3.6,3.6,0,0,1,1.63,1.37,4.2,4.2,0,0,1,.58,2.3v6.13a10.76,10.76,0,0,0,.1,1.36,5.43,5.43,0,0,0,.29,1.16V366h-1.49a6.56,6.56,0,0,1-.22-1.05A10.58,10.58,0,0,1,383.27,363.73Zm.33-5.11,0,1.08h-2.75a8.8,8.8,0,0,0-1.94.19,4.65,4.65,0,0,0-1.43.57,2.62,2.62,0,0,0-.9.88,2.26,2.26,0,0,0-.3,1.17,2.31,2.31,0,0,0,.34,1.24,2.51,2.51,0,0,0,1,.9,3.32,3.32,0,0,0,1.53.33,4.66,4.66,0,0,0,2.06-.43,4.48,4.48,0,0,0,1.49-1.14,3.72,3.72,0,0,0,.78-1.53l.61.8a4.08,4.08,0,0,1-.56,1.21,5.34,5.34,0,0,1-1,1.15,5.6,5.6,0,0,1-1.52.87,5.73,5.73,0,0,1-2,.32,4.78,4.78,0,0,1-2.17-.46,3.67,3.67,0,0,1-1.42-1.28,3.52,3.52,0,0,1,1-4.79,5.37,5.37,0,0,1,1.83-.8,9.38,9.38,0,0,1,2.41-.28Zm14,6.17V366h-9.46v-1.21Zm-.52-10.43L388.47,366h-.85V365l8.56-11.63h.88Zm-.62-1v1.22h-8.59v-1.22Zm11.39,10.41v-6.54a3.1,3.1,0,0,0-.37-1.56,2.48,2.48,0,0,0-1.11-1,4.14,4.14,0,0,0-1.79-.35,4.32,4.32,0,0,0-1.76.35,3.13,3.13,0,0,0-1.2.93,2.06,2.06,0,0,0-.44,1.27h-1.4a3,3,0,0,1,.35-1.38,4,4,0,0,1,1-1.2,5.15,5.15,0,0,1,1.54-.83,6.53,6.53,0,0,1,4.37.14,3.6,3.6,0,0,1,1.63,1.37,4.2,4.2,0,0,1,.59,2.3v6.13a10.7,10.7,0,0,0,.09,1.36,5.43,5.43,0,0,0,.29,1.16V366h-1.49a6.56,6.56,0,0,1-.22-1.05A10.58,10.58,0,0,1,407.83,363.73Zm.33-5.11,0,1.08h-2.75a8.7,8.7,0,0,0-1.93.19,4.45,4.45,0,0,0-1.43.57,2.74,2.74,0,0,0-.91.88,2.26,2.26,0,0,0-.3,1.17,2.31,2.31,0,0,0,.34,1.24,2.51,2.51,0,0,0,1,.9,3.32,3.32,0,0,0,1.53.33,4.63,4.63,0,0,0,2.06-.43,4.38,4.38,0,0,0,1.49-1.14,3.72,3.72,0,0,0,.78-1.53l.61.8a4.08,4.08,0,0,1-.56,1.21,5.29,5.29,0,0,1-1,1.15,5.3,5.3,0,0,1-3.5,1.19,4.74,4.74,0,0,1-2.16-.46,3.63,3.63,0,0,1-1.43-1.28,3.46,3.46,0,0,1-.51-1.85A3.43,3.43,0,0,1,401,359.7a5.46,5.46,0,0,1,1.83-.8,9.44,9.44,0,0,1,2.41-.28Zm12.54,5.11v-6.54a3.11,3.11,0,0,0-.38-1.56,2.46,2.46,0,0,0-1.1-1,4.14,4.14,0,0,0-1.79-.35,4.29,4.29,0,0,0-1.76.35,3,3,0,0,0-1.2.93,2.06,2.06,0,0,0-.44,1.27h-1.41a2.9,2.9,0,0,1,.36-1.38,3.85,3.85,0,0,1,1-1.2,5,5,0,0,1,1.54-.83,6.53,6.53,0,0,1,4.37.14,3.65,3.65,0,0,1,1.63,1.37,4.2,4.2,0,0,1,.58,2.3v6.13a9.18,9.18,0,0,0,.1,1.36,4.89,4.89,0,0,0,.29,1.16V366H421a5.62,5.62,0,0,1-.22-1.05A10.58,10.58,0,0,1,420.7,363.73Zm.33-5.11,0,1.08H418.3a8.8,8.8,0,0,0-1.94.19,4.55,4.55,0,0,0-1.43.57,2.62,2.62,0,0,0-.9.88,2.26,2.26,0,0,0-.3,1.17,2.31,2.31,0,0,0,.34,1.24,2.51,2.51,0,0,0,1,.9,3.31,3.31,0,0,0,1.52.33,4.7,4.7,0,0,0,2.07-.43,4.35,4.35,0,0,0,1.48-1.14,3.62,3.62,0,0,0,.79-1.53l.61.8a4.08,4.08,0,0,1-.56,1.21,5.34,5.34,0,0,1-1,1.15,5.6,5.6,0,0,1-1.52.87,5.73,5.73,0,0,1-2,.32,4.78,4.78,0,0,1-2.17-.46,3.77,3.77,0,0,1-1.43-1.28,3.54,3.54,0,0,1-.5-1.85,3.43,3.43,0,0,1,1.55-2.94,5.37,5.37,0,0,1,1.83-.8,9.38,9.38,0,0,1,2.41-.28Zm6.22-3.2V366h-1.4V353.32h1.37Zm4.49-2.19,0,1.29-.45-.06a3.64,3.64,0,0,0-.48,0,3.7,3.7,0,0,0-1.61.34,3.24,3.24,0,0,0-1.15.93,4.1,4.1,0,0,0-.71,1.38,6.16,6.16,0,0,0-.28,1.69l-.52.2a9.9,9.9,0,0,1,.26-2.31,5.79,5.79,0,0,1,.78-1.86,3.87,3.87,0,0,1,1.35-1.26,4,4,0,0,1,1.92-.45,3.08,3.08,0,0,1,.53,0A1.76,1.76,0,0,1,431.74,353.23Z"></path><path class="cls-3" d="M396.21,326h-2v-2.7a.27.27,0,0,0-.09-.21.31.31,0,0,0-.22-.09.32.32,0,0,0-.23.09.31.31,0,0,0-.09.21V326H392v-.9a.25.25,0,0,0,0-.12.61.61,0,0,0-.07-.1.39.39,0,0,0-.11-.06.23.23,0,0,0-.12,0h-.94a.31.31,0,0,1-.22-.09.27.27,0,0,1-.09-.21V323.1a.33.33,0,0,0-.09-.2.35.35,0,0,0-.19-.1l-.35-.06.57-.63a.31.31,0,0,0,.05-.1.2.2,0,0,0,0-.11v-.6a.5.5,0,0,0,0-.12.61.61,0,0,0-.07-.1l-.1-.06-.12,0a.33.33,0,0,0-.32.3v.48l-.88,1a.39.39,0,0,0-.06.15.38.38,0,0,0,0,.15.4.4,0,0,0,.25.21l.66.09v1.08a.88.88,0,0,0,.29.66,1,1,0,0,0,.68.28h.6v.6h-2.6a1.83,1.83,0,0,0-1.27.5,1.87,1.87,0,0,0-.38.55,1.7,1.7,0,0,0-.14.66.27.27,0,0,0,.09.21.31.31,0,0,0,.22.09.33.33,0,0,0,.32-.3,1.1,1.1,0,0,1,.34-.79,1.18,1.18,0,0,1,.37-.24,1.33,1.33,0,0,1,.45-.08h7.42v0a1.33,1.33,0,0,1,.45.08,1.18,1.18,0,0,1,.37.24,1.1,1.1,0,0,1,.34.79.33.33,0,0,0,.32.3.31.31,0,0,0,.22-.09.27.27,0,0,0,.09-.21,1.62,1.62,0,0,0-.14-.65,1.64,1.64,0,0,0-.38-.56,1.83,1.83,0,0,0-1.27-.5"></path><path class="cls-3" d="M394,320a1.84,1.84,0,0,0-.77-.74A2.59,2.59,0,0,0,392,319h0a2.49,2.49,0,0,0-1.19.28,1.83,1.83,0,0,0-.79.74.17.17,0,0,0,0,.17.31.31,0,0,0,.15.12.37.37,0,0,0,.21,0,.27.27,0,0,0,.16-.11,1.35,1.35,0,0,1,.59-.54,2,2,0,0,1,.87-.21h0a1.82,1.82,0,0,1,.83.2,1.35,1.35,0,0,1,.57.51v.62a.19.19,0,0,0,.08.15.29.29,0,0,0,.2.07.27.27,0,0,0,.2-.07.18.18,0,0,0,.09-.15v-.67a.16.16,0,0,0,0-.09"></path><path class="cls-3" d="M390.34,336h-1.25v-2.61a.3.3,0,0,0-.08-.21.32.32,0,0,0-.21-.08.3.3,0,0,0-.2.08.27.27,0,0,0-.09.21V336h-1.45v-1a.2.2,0,0,0,0-.11.21.21,0,0,0-.06-.1.24.24,0,0,0-.09-.06.25.25,0,0,0-.12,0h-1a.3.3,0,0,1-.17-.29V333a.36.36,0,0,0,0-.11.24.24,0,0,0-.16-.16.2.2,0,0,0-.11,0h-.17l.43-.7a.57.57,0,0,0,0-.18v-.58a.36.36,0,0,0,0-.11.24.24,0,0,0-.16-.16l-.11,0a.27.27,0,0,0-.29.29v.49l-.7,1.08a.24.24,0,0,0,0,.15.23.23,0,0,0,0,.14.32.32,0,0,0,.11.12.39.39,0,0,0,.15.06H385v1c0,.47.35,1,.76,1h.7v.58h-1.83a1.74,1.74,0,0,0-1.19.54,1.69,1.69,0,0,0-.47,1.21.25.25,0,0,0,0,.12.27.27,0,0,0,.06.1l.09.07.12,0,.12,0a.31.31,0,0,0,.09-.07.61.61,0,0,0,.07-.1.49.49,0,0,0,0-.12,1.18,1.18,0,0,1,.31-.8,1.22,1.22,0,0,1,.77-.37h5.68a1.16,1.16,0,0,1,1.08,1.17.49.49,0,0,0,0,.12.61.61,0,0,0,.07.1.31.31,0,0,0,.09.07l.12,0,.12,0,.09-.07a.27.27,0,0,0,.06-.1.25.25,0,0,0,0-.12,1.69,1.69,0,0,0-.47-1.21,1.74,1.74,0,0,0-1.19-.54"></path><path class="cls-3" d="M389,330.53a2.44,2.44,0,0,0-.78-1.1A2,2,0,0,0,387,329h0a1.88,1.88,0,0,0-1.19.42,2.44,2.44,0,0,0-.79,1.11.4.4,0,0,0,0,.25.2.2,0,0,0,.06.11.24.24,0,0,0,.09.08l.1,0a.14.14,0,0,0,.11,0,.16.16,0,0,0,.09-.07.26.26,0,0,0,.07-.1,1.8,1.8,0,0,1,.59-.81,1.41,1.41,0,0,1,.87-.32h0a1.44,1.44,0,0,1,.83.29,1.85,1.85,0,0,1,.57.77v.94a.36.36,0,0,0,.08.23.28.28,0,0,0,.2.1.26.26,0,0,0,.2-.1.32.32,0,0,0,.09-.23v-1A.32.32,0,0,0,389,330.53Z"></path><path class="cls-3" d="M392.5,327l-.19,0a.69.69,0,0,0-.17.05.31.31,0,0,0-.11.08.19.19,0,0,0,0,.1v.5q0,.11.15.18a.91.91,0,0,0,.7,0q.15-.07.15-.18v-.49a.17.17,0,0,0,0-.1.31.31,0,0,0-.11-.08.43.43,0,0,0-.17-.06.59.59,0,0,0-.19,0"></path><path class="cls-3" d="M387.5,337l-.19,0a.69.69,0,0,0-.17.05.31.31,0,0,0-.11.08.19.19,0,0,0,0,.1v.5q0,.11.15.18a.91.91,0,0,0,.7,0q.15-.07.15-.18v-.5a.19.19,0,0,0,0-.1.31.31,0,0,0-.11-.08.69.69,0,0,0-.17-.05Z"></path><path class="cls-3" d="M401.16,336h-1.39v-2.63a.27.27,0,0,0-.09-.21.33.33,0,0,0-.23-.09.32.32,0,0,0-.23.09.27.27,0,0,0-.09.21V336h-1.61v-1a.2.2,0,0,0,0-.11.23.23,0,0,0-.07-.1.21.21,0,0,0-.1-.06.3.3,0,0,0-.13,0H396.1a.29.29,0,0,1-.2-.3v-1.34a.17.17,0,0,0,0-.12.16.16,0,0,0-.07-.09l-.1-.07-.13,0h-.19l.48-.71a.25.25,0,0,0,0-.17v-.59a.14.14,0,0,0,0-.11.23.23,0,0,0-.07-.1.27.27,0,0,0-.1-.06l-.13,0a.32.32,0,0,0-.23.09.25.25,0,0,0-.09.2v.5l-.78,1.09a.24.24,0,0,0-.05.14.3.3,0,0,0,.05.15.29.29,0,0,0,.12.1.35.35,0,0,0,.17,0h.48v1c0,.46.39,1,.84,1h.78V336h-2a2,2,0,0,0-1.32.53,1.66,1.66,0,0,0-.52,1.23.27.27,0,0,0,.09.2.35.35,0,0,0,.23.09.32.32,0,0,0,.23-.09.28.28,0,0,0,.1-.2,1.09,1.09,0,0,1,.33-.81,1.4,1.4,0,0,1,.86-.37h6.32a1.4,1.4,0,0,1,.86.37,1.09,1.09,0,0,1,.33.81.28.28,0,0,0,.1.2.32.32,0,0,0,.23.09.35.35,0,0,0,.23-.09.27.27,0,0,0,.09-.2,1.68,1.68,0,0,0-.53-1.21,2,2,0,0,0-1.31-.52"></path><path class="cls-3" d="M399,330.55a2.45,2.45,0,0,0-.78-1.12A2,2,0,0,0,397,329h0a1.88,1.88,0,0,0-1.19.42,2.44,2.44,0,0,0-.79,1.13.43.43,0,0,0,0,.12.59.59,0,0,0,0,.13.24.24,0,0,0,.06.11.22.22,0,0,0,.09.07.19.19,0,0,0,.1,0l.11,0a.22.22,0,0,0,.09-.07.41.41,0,0,0,.07-.11,1.89,1.89,0,0,1,.59-.82,1.48,1.48,0,0,1,.87-.32h0a1.45,1.45,0,0,1,.83.3,1.82,1.82,0,0,1,.57.78v.94a.31.31,0,0,0,.09.22.25.25,0,0,0,.19.09.27.27,0,0,0,.2-.09.43.43,0,0,0,.09-.22v-1A.25.25,0,0,0,399,330.55Z"></path><path class="cls-3" d="M411.16,336h-1.39v-2.63a.29.29,0,0,0-.09-.21.38.38,0,0,0-.23-.08.36.36,0,0,0-.23.08.29.29,0,0,0-.09.21V336h-1.61v-1a.27.27,0,0,0,0-.12.28.28,0,0,0-.07-.09.21.21,0,0,0-.1-.06.2.2,0,0,0-.13,0H406.1a.29.29,0,0,1-.2-.3v-1.34a.2.2,0,0,0,0-.11.36.36,0,0,0-.07-.1.27.27,0,0,0-.1-.06.32.32,0,0,0-.13,0h-.19l.48-.71a.25.25,0,0,0,0-.17v-.59a.2.2,0,0,0,0-.11.36.36,0,0,0-.07-.1.27.27,0,0,0-.1-.06l-.13,0a.32.32,0,0,0-.23.09.25.25,0,0,0-.09.2v.5l-.78,1.08a.25.25,0,0,0-.05.15.24.24,0,0,0,.05.14.43.43,0,0,0,.12.11.51.51,0,0,0,.17,0h.49v1c0,.46.38,1,.83,1h.78v.58h-2a2,2,0,0,0-1.32.54,1.64,1.64,0,0,0-.52,1.22.2.2,0,0,0,0,.11.26.26,0,0,0,.07.11.3.3,0,0,0,.11.07l.12,0,.13,0a.3.3,0,0,0,.18-.18.36.36,0,0,0,0-.11,1,1,0,0,1,.34-.8,1.3,1.3,0,0,1,.85-.37h6.32a1.3,1.3,0,0,1,.85.37,1,1,0,0,1,.34.8.36.36,0,0,0,0,.11.3.3,0,0,0,.18.18l.13,0,.12,0a.3.3,0,0,0,.11-.07.26.26,0,0,0,.07-.11.2.2,0,0,0,0-.11,1.68,1.68,0,0,0-.53-1.21,2,2,0,0,0-1.31-.52"></path><path class="cls-3" d="M409.5,332l-.19,0-.17.07a.38.38,0,0,0-.11.11.31.31,0,0,0,0,.13v.34a.24.24,0,0,0,0,.13.36.36,0,0,0,.11.1l.16.08.19,0,.19,0,.16-.08a.36.36,0,0,0,.11-.1.24.24,0,0,0,0-.13v-.34a.31.31,0,0,0,0-.13.38.38,0,0,0-.11-.11l-.17-.07Z"></path><path class="cls-3" d="M410,330.55a2.45,2.45,0,0,0-.78-1.12A2,2,0,0,0,408,329h0a1.88,1.88,0,0,0-1.19.42,2.44,2.44,0,0,0-.79,1.13.43.43,0,0,0,0,.12.59.59,0,0,0,0,.13.24.24,0,0,0,.06.11.22.22,0,0,0,.09.07.19.19,0,0,0,.1,0l.11,0a.22.22,0,0,0,.09-.07.41.41,0,0,0,.07-.11,1.89,1.89,0,0,1,.59-.82,1.48,1.48,0,0,1,.87-.32h0a1.45,1.45,0,0,1,.83.3,1.82,1.82,0,0,1,.57.78v.94a.31.31,0,0,0,.09.22.25.25,0,0,0,.19.09.27.27,0,0,0,.2-.09.43.43,0,0,0,.09-.22v-1A.25.25,0,0,0,410,330.55Z"></path><path class="cls-3" d="M408.5,337l-.19,0a.69.69,0,0,0-.17.05.31.31,0,0,0-.11.08.19.19,0,0,0,0,.1v.5q0,.11.15.18a.91.91,0,0,0,.7,0q.15-.07.15-.18v-.5a.19.19,0,0,0,0-.1.31.31,0,0,0-.11-.08.69.69,0,0,0-.17-.05Z"></path><path class="cls-3" d="M406.34,326h-1.25v-2.64a.32.32,0,0,0-.08-.21.3.3,0,0,0-.21-.08.3.3,0,0,0-.2.08.29.29,0,0,0-.09.21V326h-1.44v-1a.27.27,0,0,0-.09-.21.18.18,0,0,0-.09-.06.23.23,0,0,0-.11,0h-1c-.06,0-.18-.12-.18-.3v-1.34a.25.25,0,0,0,0-.12.18.18,0,0,0-.06-.09l-.09-.07-.12,0h-.17l.44-.71a.32.32,0,0,0,0-.17v-.59a.2.2,0,0,0,0-.11.21.21,0,0,0-.06-.1.24.24,0,0,0-.09-.06l-.12,0a.27.27,0,0,0-.2.09.25.25,0,0,0-.09.2v.5l-.7,1.09a.23.23,0,0,0,0,.14.28.28,0,0,0,0,.15.29.29,0,0,0,.12.1.23.23,0,0,0,.14,0H401v1c0,.46.35,1,.75,1h.71V326h-1.83a1.71,1.71,0,0,0-1.66,1.76.27.27,0,0,0,.09.2.25.25,0,0,0,.2.09.29.29,0,0,0,.21-.09.3.3,0,0,0,.08-.2,1.2,1.2,0,0,1,.31-.81,1.17,1.17,0,0,1,.77-.37h5.68a1.17,1.17,0,0,1,.77.37,1.2,1.2,0,0,1,.31.81.3.3,0,0,0,.08.2.29.29,0,0,0,.21.09.25.25,0,0,0,.2-.09.27.27,0,0,0,.09-.2,1.76,1.76,0,0,0-.48-1.21,1.69,1.69,0,0,0-1.18-.52"></path><path class="cls-3" d="M405,319.53a2.39,2.39,0,0,0-.78-1.1A2,2,0,0,0,403,318h0a1.93,1.93,0,0,0-1.19.41,2.52,2.52,0,0,0-.79,1.12.4.4,0,0,0,0,.25.24.24,0,0,0,.06.11.22.22,0,0,0,.09.07.19.19,0,0,0,.1,0l.11,0a.22.22,0,0,0,.09-.07.61.61,0,0,0,.07-.1,1.8,1.8,0,0,1,.59-.81,1.5,1.5,0,0,1,.87-.32h0a1.45,1.45,0,0,1,.83.3,1.88,1.88,0,0,1,.57.77v.93a.36.36,0,0,0,.08.23.28.28,0,0,0,.2.1.26.26,0,0,0,.2-.1.32.32,0,0,0,.09-.23v-1a.28.28,0,0,0,0-.13"></path><path class="cls-3" d="M403.5,327l-.19,0a.69.69,0,0,0-.17.05.31.31,0,0,0-.11.08.19.19,0,0,0,0,.1v.5q0,.11.15.18a.91.91,0,0,0,.7,0q.15-.07.15-.18v-.5a.19.19,0,0,0,0-.1.31.31,0,0,0-.11-.08.69.69,0,0,0-.17-.05Z"></path><path class="cls-3" d="M401.16,315h-1.39v-2.64a.29.29,0,0,0-.09-.21.38.38,0,0,0-.23-.08.36.36,0,0,0-.23.08.29.29,0,0,0-.09.21V315h-1.61v-1a.2.2,0,0,0,0-.11.23.23,0,0,0-.07-.1.21.21,0,0,0-.1-.06.3.3,0,0,0-.13,0H396.1a.29.29,0,0,1-.2-.3v-1.34a.17.17,0,0,0,0-.12.16.16,0,0,0-.07-.09l-.1-.07-.13,0h-.19l.48-.71a.25.25,0,0,0,0-.17v-.59a.14.14,0,0,0,0-.11.23.23,0,0,0-.07-.1.27.27,0,0,0-.1-.06l-.13,0a.32.32,0,0,0-.23.09.25.25,0,0,0-.09.2v.5l-.78,1.09a.24.24,0,0,0-.05.14.3.3,0,0,0,.05.15.29.29,0,0,0,.12.1.35.35,0,0,0,.17,0h.48v1c0,.46.39,1,.84,1h.78V315h-2a2,2,0,0,0-1.32.53,1.66,1.66,0,0,0-.52,1.23.27.27,0,0,0,.09.2.35.35,0,0,0,.23.09.32.32,0,0,0,.23-.09.28.28,0,0,0,.1-.2,1.09,1.09,0,0,1,.33-.81,1.4,1.4,0,0,1,.86-.37h6.32a1.4,1.4,0,0,1,.86.37,1.09,1.09,0,0,1,.33.81.28.28,0,0,0,.1.2.32.32,0,0,0,.23.09.35.35,0,0,0,.23-.09.27.27,0,0,0,.09-.2,1.68,1.68,0,0,0-.53-1.21,2,2,0,0,0-1.31-.52"></path><path class="cls-3" d="M399,309.55a2.45,2.45,0,0,0-.78-1.12A2,2,0,0,0,397,308h0a1.88,1.88,0,0,0-1.19.42,2.44,2.44,0,0,0-.79,1.13.43.43,0,0,0,0,.12.59.59,0,0,0,0,.13.24.24,0,0,0,.06.11.22.22,0,0,0,.09.07.19.19,0,0,0,.1,0l.11,0a.22.22,0,0,0,.09-.07.41.41,0,0,0,.07-.11,1.89,1.89,0,0,1,.59-.82,1.48,1.48,0,0,1,.87-.32h0a1.45,1.45,0,0,1,.83.3,1.82,1.82,0,0,1,.57.78v.94a.31.31,0,0,0,.09.22.25.25,0,0,0,.19.09.27.27,0,0,0,.2-.09.43.43,0,0,0,.09-.22v-1A.25.25,0,0,0,399,309.55Z"></path><path class="cls-4" d="M106.62,201.25h1.94l8.41,20,8.42-20h1.92L117.7,224h-1.47Zm-.59,0h1.7l.21,12.81V224H106Zm20.2,0h1.71V224H126v-9.94ZM143.56,221v-8.72a4.08,4.08,0,0,0-.5-2.08,3.25,3.25,0,0,0-1.47-1.34,5.47,5.47,0,0,0-2.39-.47,5.65,5.65,0,0,0-2.34.47,4,4,0,0,0-1.61,1.23,2.74,2.74,0,0,0-.58,1.71l-1.87,0a3.79,3.79,0,0,1,.47-1.84,5.11,5.11,0,0,1,1.32-1.6,6.61,6.61,0,0,1,2-1.11,7.94,7.94,0,0,1,2.64-.42,7.76,7.76,0,0,1,3.19.61,4.82,4.82,0,0,1,2.17,1.83,5.56,5.56,0,0,1,.78,3.06v8.17a12.78,12.78,0,0,0,.13,1.82,6.37,6.37,0,0,0,.39,1.54V224h-2a7.87,7.87,0,0,1-.29-1.41A13.27,13.27,0,0,1,143.56,221Zm.44-6.81,0,1.43h-3.67a11.23,11.23,0,0,0-2.58.27,6,6,0,0,0-1.9.75,3.49,3.49,0,0,0-1.21,1.17,3,3,0,0,0-.4,1.56,3.16,3.16,0,0,0,.45,1.66,3.38,3.38,0,0,0,1.31,1.2,4.44,4.44,0,0,0,2,.44,6.15,6.15,0,0,0,2.75-.58,5.84,5.84,0,0,0,2-1.51,4.93,4.93,0,0,0,1-2.05l.82,1.08a5.65,5.65,0,0,1-.75,1.61,7.3,7.3,0,0,1-1.39,1.53,7.6,7.6,0,0,1-2,1.16,7.38,7.38,0,0,1-2.62.43,6.41,6.41,0,0,1-2.89-.62,4.88,4.88,0,0,1-1.91-1.71,4.57,4.57,0,0,1-.67-2.46,4.69,4.69,0,0,1,.53-2.24,4.83,4.83,0,0,1,1.53-1.69,7.45,7.45,0,0,1,2.44-1.06,12.78,12.78,0,0,1,3.22-.37ZM152.3,200v24h-1.86V200Zm10.61,7.09L155,214.94l-3.36,3.25-.28-1.83,2.7-2.92,6.49-6.35ZM161.28,224l-7.06-8.78,1-1.61L163.53,224Zm6.92-16.91V224h-1.86V207.09ZM166,202.2a1.27,1.27,0,0,1,.32-.89,1.22,1.22,0,0,1,.94-.37,1.25,1.25,0,0,1,1.3,1.26,1.23,1.23,0,0,1-1.3,1.25,1.25,1.25,0,0,1-.94-.36A1.28,1.28,0,0,1,166,202.2Zm9.15,8.5V224h-1.86V207.09h1.78Zm-.42,3.8-.83-.47a9.2,9.2,0,0,1,.61-2.81,7.86,7.86,0,0,1,1.39-2.31,6.61,6.61,0,0,1,2.08-1.57,6.27,6.27,0,0,1,2.66-.56,7.16,7.16,0,0,1,2.26.34,4.07,4.07,0,0,1,1.7,1.1,4.83,4.83,0,0,1,1.07,1.92,9.5,9.5,0,0,1,.37,2.86v11h-1.87V213a6.2,6.2,0,0,0-.49-2.73,2.87,2.87,0,0,0-1.37-1.42,4.93,4.93,0,0,0-2.11-.42,4.55,4.55,0,0,0-2.36.59,5.46,5.46,0,0,0-1.69,1.52,7.19,7.19,0,0,0-1,2A6.8,6.8,0,0,0,174.75,214.5ZM202,207.09h1.74V223.7a7.93,7.93,0,0,1-.85,3.78,5.76,5.76,0,0,1-2.36,2.43,7.26,7.26,0,0,1-3.58.84,7.55,7.55,0,0,1-2.15-.33,7.42,7.42,0,0,1-2.08-1,6.27,6.27,0,0,1-1.66-1.59l1-1.14a7,7,0,0,0,2.2,1.83,5.61,5.61,0,0,0,2.54.59,5.3,5.3,0,0,0,2.71-.64,4.18,4.18,0,0,0,1.71-1.84,6.59,6.59,0,0,0,.59-2.89v-13Zm-11.87,8.63v-.33a13.44,13.44,0,0,1,.43-3.55,8.59,8.59,0,0,1,1.3-2.72,5.66,5.66,0,0,1,2.05-1.73,6,6,0,0,1,2.75-.61,6.5,6.5,0,0,1,2.61.49,5.57,5.57,0,0,1,2,1.39,7,7,0,0,1,1.32,2.15,11.55,11.55,0,0,1,.75,2.78v4.18a10.44,10.44,0,0,1-.68,2.64,7.14,7.14,0,0,1-1.33,2.07,5.6,5.6,0,0,1-2,1.36,6.92,6.92,0,0,1-2.67.47,5.89,5.89,0,0,1-2.72-.62,6,6,0,0,1-2.05-1.77,8.86,8.86,0,0,1-1.3-2.73A13,13,0,0,1,190.16,215.72Zm1.87-.33v.33a12,12,0,0,0,.3,2.75,7.06,7.06,0,0,0,.9,2.2,4.26,4.26,0,0,0,3.75,2,5.46,5.46,0,0,0,2.71-.61,4.78,4.78,0,0,0,1.73-1.64,7.72,7.72,0,0,0,.94-2.25v-4.86a9.92,9.92,0,0,0-.53-1.69,5.47,5.47,0,0,0-1-1.57,4.39,4.39,0,0,0-1.56-1.17,5.12,5.12,0,0,0-2.28-.46,4.58,4.58,0,0,0-2.24.53,4.5,4.5,0,0,0-1.55,1.49,7.06,7.06,0,0,0-.9,2.2A11.89,11.89,0,0,0,192,215.39ZM226.75,221v-8.72a4.18,4.18,0,0,0-.5-2.08,3.25,3.25,0,0,0-1.47-1.34,5.47,5.47,0,0,0-2.39-.47,5.62,5.62,0,0,0-2.34.47,4,4,0,0,0-1.61,1.23,2.74,2.74,0,0,0-.58,1.71l-1.88,0a3.9,3.9,0,0,1,.47-1.84,5.29,5.29,0,0,1,1.33-1.6,6.5,6.5,0,0,1,2.05-1.11,7.94,7.94,0,0,1,2.64-.42,7.76,7.76,0,0,1,3.19.61,4.87,4.87,0,0,1,2.17,1.83,5.56,5.56,0,0,1,.78,3.06v8.17a14.37,14.37,0,0,0,.12,1.82,7.45,7.45,0,0,0,.39,1.54V224h-2a8.75,8.75,0,0,1-.3-1.41A15.51,15.51,0,0,1,226.75,221Zm.44-6.81,0,1.43h-3.67a11.23,11.23,0,0,0-2.58.27,6,6,0,0,0-1.91.75,3.54,3.54,0,0,0-1.2,1.17,3,3,0,0,0-.41,1.56,3.08,3.08,0,0,0,.46,1.66,3.38,3.38,0,0,0,1.31,1.2,4.44,4.44,0,0,0,2,.44,6.15,6.15,0,0,0,2.75-.58,5.8,5.8,0,0,0,2-1.51A5,5,0,0,0,227,218.5l.81,1.08a5.16,5.16,0,0,1-.75,1.61,6.79,6.79,0,0,1-1.39,1.53,7.53,7.53,0,0,1-2,1.16,7.38,7.38,0,0,1-2.62.43,6.38,6.38,0,0,1-2.89-.62,4.81,4.81,0,0,1-1.91-1.71,4.57,4.57,0,0,1-.67-2.46,4.6,4.6,0,0,1,2.06-3.93,7.45,7.45,0,0,1,2.44-1.06,12.78,12.78,0,0,1,3.22-.37Zm8.29-3.46V224h-1.86V207.09h1.79Zm-.42,3.8-.83-.47a9.51,9.51,0,0,1,.61-2.81,7.86,7.86,0,0,1,1.39-2.31,6.61,6.61,0,0,1,2.08-1.57,6.27,6.27,0,0,1,2.66-.56,7.16,7.16,0,0,1,2.26.34,4.17,4.17,0,0,1,1.71,1.1,4.82,4.82,0,0,1,1.06,1.92,9.48,9.48,0,0,1,.38,2.86v11H244.5V213a6.36,6.36,0,0,0-.48-2.73,2.93,2.93,0,0,0-1.38-1.42,4.9,4.9,0,0,0-2.11-.42,4.57,4.57,0,0,0-2.36.59,5.57,5.57,0,0,0-1.69,1.52,7.47,7.47,0,0,0-1,2A6.8,6.8,0,0,0,235.06,214.5Zm26.05-7.41V224h-1.86V207.09Zm-2.19-4.89a1.27,1.27,0,0,1,.33-.89,1.21,1.21,0,0,1,.94-.37,1.18,1.18,0,0,1,.93.37,1.21,1.21,0,0,1,.36.89,1.23,1.23,0,0,1-.36.89,1.21,1.21,0,0,1-.93.36,1.24,1.24,0,0,1-.94-.36A1.29,1.29,0,0,1,258.92,202.2Zm9.06,8.39V224h-1.87V207.09h1.8Zm-.34,3.91-.91-.47a10.16,10.16,0,0,1,.57-2.81,7.34,7.34,0,0,1,1.34-2.31,6.11,6.11,0,0,1,2.06-1.57,6.51,6.51,0,0,1,2.74-.56,7.05,7.05,0,0,1,2.23.34,4.15,4.15,0,0,1,1.72,1A4.65,4.65,0,0,1,278.5,210a8.47,8.47,0,0,1,.39,2.73V224H277V212.81a5.54,5.54,0,0,0-.53-2.64,3,3,0,0,0-1.45-1.36,5.31,5.31,0,0,0-2.14-.4,4.67,4.67,0,0,0-2.44.59,4.88,4.88,0,0,0-1.61,1.52,6.85,6.85,0,0,0-.91,2A8.12,8.12,0,0,0,267.64,214.5ZM278.88,213l-1.26,0a7.1,7.1,0,0,1,.57-2.36,6.63,6.63,0,0,1,1.36-2,6.23,6.23,0,0,1,2-1.4,6.75,6.75,0,0,1,2.71-.52,7.1,7.1,0,0,1,2.34.36,4.07,4.07,0,0,1,1.74,1.11,5,5,0,0,1,1.09,1.92,9.29,9.29,0,0,1,.37,2.81v11H288V213a6,6,0,0,0-.53-2.78A2.89,2.89,0,0,0,286,208.8a5.48,5.48,0,0,0-2.16-.39,5.14,5.14,0,0,0-2.14.45,4.64,4.64,0,0,0-1.54,1.12,5.26,5.26,0,0,0-.94,1.49A4.72,4.72,0,0,0,278.88,213Zm17.56-2.69V230.5h-1.88V207.09h1.75Zm11.75,5v.33a13,13,0,0,1-.44,3.47,8.39,8.39,0,0,1-1.27,2.73,5.68,5.68,0,0,1-2,1.77,5.91,5.91,0,0,1-2.74.62,7.15,7.15,0,0,1-2.7-.47,6,6,0,0,1-2-1.32,7.2,7.2,0,0,1-1.36-2,10.57,10.57,0,0,1-.7-2.56v-4.33a11.55,11.55,0,0,1,.77-2.78,7.23,7.23,0,0,1,1.36-2.15,5.59,5.59,0,0,1,2-1.39,6.65,6.65,0,0,1,2.64-.49,6,6,0,0,1,2.75.61,5.47,5.47,0,0,1,2,1.73,7.77,7.77,0,0,1,1.27,2.72A13.42,13.42,0,0,1,308.19,215.39Zm-1.88.33v-.33a11.35,11.35,0,0,0-.31-2.75,6.85,6.85,0,0,0-.92-2.2,4.44,4.44,0,0,0-1.56-1.49,4.53,4.53,0,0,0-2.24-.53,5.24,5.24,0,0,0-2.3.46,4.58,4.58,0,0,0-1.56,1.17,6,6,0,0,0-1,1.57,9.1,9.1,0,0,0-.53,1.69v5a7.06,7.06,0,0,0,.95,2.2,4.93,4.93,0,0,0,1.75,1.61,5.61,5.61,0,0,0,2.7.59,4.24,4.24,0,0,0,3.77-2,7.16,7.16,0,0,0,.92-2.22A11.41,11.41,0,0,0,306.31,215.72ZM322.62,221v-8.72a4.08,4.08,0,0,0-.5-2.08,3.28,3.28,0,0,0-1.46-1.34,5.53,5.53,0,0,0-2.39-.47,5.67,5.67,0,0,0-2.35.47,4,4,0,0,0-1.61,1.23,2.8,2.8,0,0,0-.58,1.71l-1.87,0a3.9,3.9,0,0,1,.47-1.84,5,5,0,0,1,1.33-1.6,6.45,6.45,0,0,1,2-1.11,8,8,0,0,1,2.64-.42,7.76,7.76,0,0,1,3.19.61,4.82,4.82,0,0,1,2.17,1.83,5.56,5.56,0,0,1,.78,3.06v8.17a14.43,14.43,0,0,0,.13,1.82,6.37,6.37,0,0,0,.39,1.54V224h-2a7,7,0,0,1-.3-1.41A15.63,15.63,0,0,1,322.62,221Zm.44-6.81,0,1.43h-3.67a11.23,11.23,0,0,0-2.58.27,6,6,0,0,0-1.9.75,3.67,3.67,0,0,0-1.21,1.17,3,3,0,0,0-.4,1.56,3.16,3.16,0,0,0,.45,1.66,3.38,3.38,0,0,0,1.31,1.2,4.47,4.47,0,0,0,2,.44,6.19,6.19,0,0,0,2.76-.58,5.8,5.8,0,0,0,2-1.51,5.08,5.08,0,0,0,1.05-2.05l.81,1.08a5.65,5.65,0,0,1-.75,1.61,7.3,7.3,0,0,1-1.39,1.53,7.53,7.53,0,0,1-2,1.16,7.44,7.44,0,0,1-2.63.43,6.41,6.41,0,0,1-2.89-.62,4.88,4.88,0,0,1-1.91-1.71,4.92,4.92,0,0,1-.14-4.7,4.77,4.77,0,0,1,1.54-1.69,7.4,7.4,0,0,1,2.43-1.06,12.78,12.78,0,0,1,3.22-.37Zm12.67,8.54a5.6,5.6,0,0,0,2.22-.43,4.37,4.37,0,0,0,1.72-1.33,3.93,3.93,0,0,0,.78-2.17h1.78a5.27,5.27,0,0,1-1,2.87,6.18,6.18,0,0,1-2.34,2,7.13,7.13,0,0,1-3.18.7,7.22,7.22,0,0,1-3.12-.64,6.25,6.25,0,0,1-2.25-1.78A8.45,8.45,0,0,1,329,219.2a11.84,11.84,0,0,1-.45-3.32v-.66a11.67,11.67,0,0,1,.45-3.31,8.25,8.25,0,0,1,1.38-2.69,6.2,6.2,0,0,1,2.25-1.8,7.11,7.11,0,0,1,3.11-.64,7,7,0,0,1,3.25.74,5.78,5.78,0,0,1,2.31,2.07,6.24,6.24,0,0,1,1,3.19h-1.78a4.65,4.65,0,0,0-.72-2.34,4.31,4.31,0,0,0-1.68-1.52,5.15,5.15,0,0,0-2.33-.53,5,5,0,0,0-2.45.56,4.57,4.57,0,0,0-1.66,1.52,6.76,6.76,0,0,0-.92,2.19,10.63,10.63,0,0,0-.3,2.56v.66a11.49,11.49,0,0,0,.28,2.59,7.07,7.07,0,0,0,.92,2.17,4.75,4.75,0,0,0,1.66,1.52A5.31,5.31,0,0,0,335.73,222.7Zm16.66-15.61v1.53h-8.47v-1.53ZM347,202.75h1.86v17.14a3.93,3.93,0,0,0,.31,1.77,1.6,1.6,0,0,0,.82.79,2.72,2.72,0,0,0,1.07.21,7.08,7.08,0,0,0,.82,0c.26,0,.49-.08.7-.13l.08,1.58a4.27,4.27,0,0,1-.89.17,6.79,6.79,0,0,1-1.1.08,4.39,4.39,0,0,1-1.9-.39,2.8,2.8,0,0,1-1.3-1.37,6.36,6.36,0,0,1-.47-2.67ZM178.61,245.09v1.53h-8.47v-1.53Zm-5.36-4.34h1.86v17.14a3.93,3.93,0,0,0,.31,1.77,1.63,1.63,0,0,0,.81.79,2.81,2.81,0,0,0,1.08.21,7,7,0,0,0,.81-.05c.27,0,.5-.08.71-.13l.08,1.58a4.27,4.27,0,0,1-.89.17,6.79,6.79,0,0,1-1.1.08,4.39,4.39,0,0,1-1.9-.39,2.8,2.8,0,0,1-1.3-1.37,6.36,6.36,0,0,1-.47-2.67Zm7.94,13.06v-.51a10.38,10.38,0,0,1,.53-3.41,8.08,8.08,0,0,1,1.51-2.7,7.07,7.07,0,0,1,2.39-1.77,7.85,7.85,0,0,1,6.21,0,7,7,0,0,1,2.39,1.77,7.78,7.78,0,0,1,1.53,2.7,10.65,10.65,0,0,1,.53,3.41v.51a10.65,10.65,0,0,1-.53,3.41,7.83,7.83,0,0,1-1.53,2.69,7,7,0,0,1-2.38,1.78,7.51,7.51,0,0,1-3.09.62,7.61,7.61,0,0,1-3.11-.62,7.13,7.13,0,0,1-2.39-1.78,7.83,7.83,0,0,1-1.53-2.69A10.38,10.38,0,0,1,181.19,253.81Zm1.86-.51v.51a9.11,9.11,0,0,0,.37,2.64,7.15,7.15,0,0,0,1.1,2.21,5.18,5.18,0,0,0,1.78,1.5,5.33,5.33,0,0,0,2.45.54,5.2,5.2,0,0,0,2.42-.54,5.27,5.27,0,0,0,1.78-1.5,6.9,6.9,0,0,0,1.08-2.21,9.11,9.11,0,0,0,.38-2.64v-.51a8.9,8.9,0,0,0-.38-2.61,6.72,6.72,0,0,0-1.09-2.21,5.46,5.46,0,0,0-1.78-1.53,5.6,5.6,0,0,0-4.88,0,5.56,5.56,0,0,0-1.78,1.53,7.13,7.13,0,0,0-1.09,2.21A9.25,9.25,0,0,0,183.05,253.3Zm28.23-8.21H213V261.7a7.93,7.93,0,0,1-.85,3.78,5.76,5.76,0,0,1-2.36,2.43,7.26,7.26,0,0,1-3.58.84,7.55,7.55,0,0,1-2.15-.33,7.42,7.42,0,0,1-2.08-1,6.27,6.27,0,0,1-1.66-1.59l1-1.14a7,7,0,0,0,2.2,1.83,5.63,5.63,0,0,0,2.53.59,5.32,5.32,0,0,0,2.72-.64,4.18,4.18,0,0,0,1.71-1.84,6.59,6.59,0,0,0,.59-2.89v-13Zm-11.87,8.63v-.33a13.44,13.44,0,0,1,.43-3.55,8.59,8.59,0,0,1,1.3-2.72,5.66,5.66,0,0,1,2.05-1.73,6,6,0,0,1,2.75-.61,6.5,6.5,0,0,1,2.61.49,5.57,5.57,0,0,1,2,1.39,7,7,0,0,1,1.32,2.15,11.55,11.55,0,0,1,.75,2.78v4.18a10.44,10.44,0,0,1-.68,2.64,7.14,7.14,0,0,1-1.33,2.07,5.6,5.6,0,0,1-2,1.36,6.92,6.92,0,0,1-2.67.47,5.89,5.89,0,0,1-2.72-.62,6,6,0,0,1-2.05-1.77,8.86,8.86,0,0,1-1.3-2.73A13,13,0,0,1,199.41,253.72Zm1.87-.33v.33a12,12,0,0,0,.3,2.75,7.06,7.06,0,0,0,.9,2.2,4.26,4.26,0,0,0,3.75,2,5.46,5.46,0,0,0,2.71-.61,4.78,4.78,0,0,0,1.73-1.64,7.72,7.72,0,0,0,.94-2.25v-4.86a9.92,9.92,0,0,0-.53-1.69,5.47,5.47,0,0,0-1-1.57,4.39,4.39,0,0,0-1.56-1.17,5.12,5.12,0,0,0-2.28-.46A4.58,4.58,0,0,0,204,247a4.5,4.5,0,0,0-1.55,1.49,7.06,7.06,0,0,0-.9,2.2A11.89,11.89,0,0,0,201.28,253.39Zm23.16,8.92a7.45,7.45,0,0,1-3.05-.61A7.2,7.2,0,0,1,219,260a7.92,7.92,0,0,1-1.57-2.62,9.75,9.75,0,0,1-.55-3.34v-.68a10.09,10.09,0,0,1,.58-3.53,8,8,0,0,1,1.59-2.7,7.19,7.19,0,0,1,2.31-1.72,6.44,6.44,0,0,1,2.75-.61,6.64,6.64,0,0,1,2.86.58,5.56,5.56,0,0,1,2.1,1.61,7,7,0,0,1,1.29,2.45,10.21,10.21,0,0,1,.44,3.11v1.14H218v-1.59h10.94v-.22a6.79,6.79,0,0,0-.58-2.66,4.76,4.76,0,0,0-1.59-2,4.37,4.37,0,0,0-2.66-.78,4.82,4.82,0,0,0-2.18.5,4.89,4.89,0,0,0-1.71,1.44,6.86,6.86,0,0,0-1.09,2.2,9.9,9.9,0,0,0-.38,2.81V254a8.27,8.27,0,0,0,.41,2.62,6.93,6.93,0,0,0,1.19,2.13,5.55,5.55,0,0,0,1.84,1.43,5.23,5.23,0,0,0,2.35.52,6,6,0,0,0,2.65-.55,5.8,5.8,0,0,0,2.08-1.76l1.17.9a7.11,7.11,0,0,1-1.37,1.5,6.2,6.2,0,0,1-2,1.1A7.9,7.9,0,0,1,224.44,262.31Zm16.42-17.22v1.53h-8.47v-1.53Zm-5.36-4.34h1.86v17.14a3.93,3.93,0,0,0,.31,1.77,1.63,1.63,0,0,0,.81.79,2.81,2.81,0,0,0,1.08.21,7.37,7.37,0,0,0,.82-.05c.26,0,.49-.08.7-.13l.08,1.58a4.27,4.27,0,0,1-.89.17,6.79,6.79,0,0,1-1.1.08,4.39,4.39,0,0,1-1.9-.39,2.8,2.8,0,0,1-1.3-1.37,6.36,6.36,0,0,1-.47-2.67ZM246.64,238v24h-1.86V238Zm-.42,14.5-.83-.47a9.2,9.2,0,0,1,.61-2.81,7.65,7.65,0,0,1,1.39-2.31,6.5,6.5,0,0,1,2.08-1.57,6.26,6.26,0,0,1,2.65-.56,7.22,7.22,0,0,1,2.27.34,4.14,4.14,0,0,1,1.7,1.1,4.83,4.83,0,0,1,1.07,1.92,9.5,9.5,0,0,1,.37,2.86v11h-1.87V251a6.35,6.35,0,0,0-.49-2.73,2.87,2.87,0,0,0-1.37-1.42,4.93,4.93,0,0,0-2.11-.42,4.55,4.55,0,0,0-2.36.59,5.46,5.46,0,0,0-1.69,1.52,7.19,7.19,0,0,0-1,2A6.8,6.8,0,0,0,246.22,252.5Zm22.66,9.81a7.45,7.45,0,0,1-3.05-.61,7.2,7.2,0,0,1-2.41-1.72,7.94,7.94,0,0,1-1.58-2.62,10,10,0,0,1-.54-3.34v-.68a10.09,10.09,0,0,1,.58-3.53,8,8,0,0,1,1.59-2.7,7.19,7.19,0,0,1,2.31-1.72,6.41,6.41,0,0,1,2.75-.61,6.67,6.67,0,0,1,2.86.58,5.52,5.52,0,0,1,2.09,1.61,6.85,6.85,0,0,1,1.3,2.45,10.53,10.53,0,0,1,.44,3.11v1.14h-12.8v-1.59h10.94v-.22a6.79,6.79,0,0,0-.58-2.66,4.76,4.76,0,0,0-1.59-2,4.39,4.39,0,0,0-2.66-.78,4.89,4.89,0,0,0-2.19.5,4.94,4.94,0,0,0-1.7,1.44,6.86,6.86,0,0,0-1.09,2.2,9.9,9.9,0,0,0-.38,2.81V254a8.27,8.27,0,0,0,.41,2.62,6.93,6.93,0,0,0,1.19,2.13,5.55,5.55,0,0,0,1.84,1.43,5.22,5.22,0,0,0,2.34.52,6.08,6.08,0,0,0,2.66-.55,5.89,5.89,0,0,0,2.08-1.76l1.17.9a7.17,7.17,0,0,1-1.38,1.5,6.15,6.15,0,0,1-2,1.1A7.9,7.9,0,0,1,268.88,262.31Zm11.89-14.42V262h-1.86V245.09h1.81Zm6-2.92-.05,1.72-.61-.08a6.25,6.25,0,0,0-.64,0,4.85,4.85,0,0,0-2.14.45,4.26,4.26,0,0,0-1.53,1.24,5.44,5.44,0,0,0-.95,1.84,8.54,8.54,0,0,0-.38,2.25l-.68.26a13,13,0,0,1,.34-3.07,7.79,7.79,0,0,1,1.05-2.49,5.1,5.1,0,0,1,1.79-1.67,5.17,5.17,0,0,1,2.57-.61,4,4,0,0,1,.7.06A2.38,2.38,0,0,1,286.75,245Z"></path></svg>