<svg xmlns="http://www.w3.org/2000/svg" width="186" height="186.209" viewBox="0 0 186 186.209">
  <path id="Path_25" data-name="Path 25" d="M174.727,82.464H144.6a5.274,5.274,0,0,0-5.273,5.272v28.621H111.409a16.6,16.6,0,0,0-3.632-6.173l10.89-10.89a16.569,16.569,0,0,0,0-23.432l-20.6-20.6c-4.008-4.009-10.228-7.477-16.56-9.54a27.142,27.142,0,1,0-39.5,0c-6.33,2.057-12.552,5.526-16.56,9.535L4.853,75.866a16.569,16.569,0,0,0,0,23.432l11.3,11.3a16.616,16.616,0,0,0,17.742,3.73v49.1a16.56,16.56,0,0,0,23.955,14.826A5.257,5.257,0,0,0,61.758,180h98.849A19.416,19.416,0,0,0,180,160.6V87.737a5.273,5.273,0,0,0-5.273-5.273ZM61.758,10.544a16.6,16.6,0,1,1-16.6,16.6,16.6,16.6,0,0,1,16.6-16.6ZM32.13,103.136a6.023,6.023,0,0,1-8.518,0l-11.3-11.3a6.021,6.021,0,0,1,0-8.516h0l20.6-20.595c4.495-4.5,14.017-8.44,20.377-8.44H70.23c6.359,0,15.88,3.944,20.377,8.44l20.6,20.6a6.023,6.023,0,0,1,0,8.518l-11.3,11.295a6,6,0,0,1-4.035,1.758h-.483a6.021,6.021,0,0,1-5.76-5.94V98.8a5.98,5.98,0,0,1,1.765-4.18L94.7,91.308a5.273,5.273,0,0,0,0-7.458l-6.618-6.617a5.272,5.272,0,0,0-9,3.729v23.93H44.438V80.961a5.274,5.274,0,0,0-9-3.729l-6.621,6.617a5.273,5.273,0,0,0,0,7.458l3.309,3.308a5.985,5.985,0,0,1,1.765,4.223v.073A5.985,5.985,0,0,1,32.13,103.136Zm18.335,66.315a6.03,6.03,0,0,1-6.024-6.024V115.439H95.727a6.03,6.03,0,0,1,5.946,6.024v22.605a6.023,6.023,0,1,1-12.047-.013v-11.3a5.273,5.273,0,0,0-5.273-5.273h-22.6a5.273,5.273,0,0,0-5.273,5.273v30.678a6.03,6.03,0,0,1-6.024,6.013Zm29.752-19.373H67.032V138.031H79.078v6.024a16.47,16.47,0,0,0,1.138,6.023ZM169.454,160.6a8.857,8.857,0,0,1-8.847,8.848H67.032v-8.824h39.913a5.273,5.273,0,0,0,5.273-5.273V126.9H144.6a5.273,5.273,0,0,0,5.273-5.273V93h19.579Zm0,0" transform="translate(3 3.035)" fill="#2c6eb6" stroke="#fff" stroke-width="6"/>
</svg>
