<svg xmlns="http://www.w3.org/2000/svg" width="182.503" height="182.5" viewBox="0 0 182.503 182.5">
  <g id="friends" transform="translate(1.25 1.25)">
    <path id="Path_4" data-name="Path 4" d="M221.214,201a13.134,13.134,0,0,0-10.564,5.256A13.134,13.134,0,0,0,200.086,201c-7.9,0-14.086,6.584-14.086,14.99,0,8.91,7.085,14.891,16.889,23.168,1.741,1.471,3.543,2.99,5.454,4.647a3.523,3.523,0,0,0,4.613,0c1.919-1.663,3.726-3.189,5.475-4.665,8.9-7.515,16.869-13.829,16.869-23.15C235.3,207.584,229.113,201,221.214,201Zm-7.326,32.76c-1.053.889-2.128,1.8-3.24,2.742-1.1-.94-2.171-1.841-3.217-2.724-8.973-7.574-14.389-12.15-14.389-17.786,0-3.853,2.468-7.948,7.042-7.948,5.209,0,7.1,6.323,7.17,6.57a3.518,3.518,0,0,0,6.782.018c.077-.27,1.966-6.592,7.176-6.592,4.575,0,7.043,4.1,7.043,7.948C228.257,222.342,220.36,228.3,213.888,233.76Z" transform="translate(-120.65 -130.373)" fill="#2c6eb6" stroke="#fff" stroke-width="2.5"/>
    <ellipse id="Ellipse_1" data-name="Ellipse 1" cx="3.6" cy="3.6" rx="3.6" ry="3.6" transform="translate(144.9 155.403)" fill="#2c6eb6" stroke="#fff" stroke-width="2.5"/>
    <path id="Path_5" data-name="Path 5" d="M180,79.453c0-26.01-9.218-41.885-25.867-57.823C147.893,15.659,142,10.02,139.353,2.37A3.515,3.515,0,0,0,136.031,0H79.453C53.443,0,37.568,9.219,21.63,25.867,15.659,32.108,10.02,38,2.37,40.648A3.515,3.515,0,0,0,0,43.97v56.577c0,26.01,9.218,41.885,25.867,57.823C32.108,164.34,38,169.98,40.648,177.63A3.515,3.515,0,0,0,43.97,180h56.577c14.077,0,26.084-2.859,36.707-8.741a3.516,3.516,0,1,0-3.406-6.152c-9.554,5.29-20.448,7.861-33.3,7.861H83.374a15.8,15.8,0,0,1,11.1-11.57c3.893-1.091,10.679-2.085,17.863-3.139l.04-.006c14.024-2.06,21.271-8.8,30.766-18.72a3.515,3.515,0,1,0-5.08-4.86c-4.51,4.713-9.146,9.588-14.8,12.754-4.019,2.1-8.019.587-9.792-2.709a7.015,7.015,0,0,1,2.859-9.518c3.68-1.98,6.991-5.448,11.571-10.242,12.7-13.279,28.746-20.894,44.02-20.894h1.055v29.564c-6.4,2.766-11.39,7.224-15.84,11.693a3.516,3.516,0,0,0,4.981,4.964c4.391-4.41,9.311-8.781,15.527-10.931A3.516,3.516,0,0,0,180,136.032V79.453ZM7.032,46.373c8.027-3.468,13.938-9.653,19.678-15.645,10.976-11.469,25.008-23.7,52.744-23.7H96.625A15.8,15.8,0,0,1,85.529,18.6c-3.893,1.091-10.679,2.085-17.863,3.139l-.04.006A41.478,41.478,0,0,0,53.87,26.131c-6.611,3.5-11.768,8.857-17.01,14.336a3.515,3.515,0,1,0,5.081,4.86c4.661-4.871,9.475-9.936,15.21-12.978A7.03,7.03,0,0,1,63.678,44.8C60,46.782,56.687,50.25,52.106,55.044,39.4,68.322,23.36,75.938,8.086,75.938H7.032Zm68.906,126.6H46.373c-3.468-8.028-9.649-13.942-15.645-19.679-11.465-10.976-23.7-25.008-23.7-52.74V83.374A15.8,15.8,0,0,1,18.6,94.47c1.091,3.9,2.086,10.686,3.146,17.9,2.075,14.119,8.691,21.169,18.72,30.766a3.515,3.515,0,1,0,4.86-5.081c-4.742-4.538-9.63-9.2-12.7-14.7-2.176-4.05-.659-8.112,2.657-9.9a7.015,7.015,0,0,1,9.518,2.859c1.98,3.681,5.448,6.991,10.242,11.571,13.279,12.7,20.894,28.746,20.894,44.02ZM122.811,120.1c-3.98,4.166-7.123,7.456-9.82,8.91a14.061,14.061,0,0,0-3.1,22.5,162.6,162.6,0,0,0-17.321,3.118,22.763,22.763,0,0,0-10.67,6.582c-2.684-13.711-10.373-27.27-22-38.4-4.165-3.979-7.456-7.123-8.91-9.82a14.062,14.062,0,0,0-22.5-3.1,162.916,162.916,0,0,0-3.117-17.321,22.759,22.759,0,0,0-6.582-10.67c13.711-2.684,27.27-10.373,38.4-22,3.98-4.166,7.123-7.456,9.82-8.91A14.04,14.04,0,0,0,72.726,31.95,13.874,13.874,0,0,0,70.1,28.493a162.807,162.807,0,0,0,17.33-3.119A22.763,22.763,0,0,0,98.1,18.794c2.684,13.711,10.373,27.27,22,38.4,4.165,3.979,7.456,7.123,8.91,9.82a14.04,14.04,0,0,0,19.041,5.714,13.881,13.881,0,0,0,3.457-2.631,162.8,162.8,0,0,0,3.118,17.33,22.759,22.759,0,0,0,6.582,10.67c-13.708,2.684-27.271,10.373-38.4,22Zm50.157-23.472a15.8,15.8,0,0,1-11.57-11.1c-1.091-3.9-2.086-10.686-3.145-17.9-2.054-13.978-8.591-21.072-18.72-30.766a3.515,3.515,0,1,0-4.86,5.081c4.9,4.686,9.768,9.311,12.984,15.223A7.03,7.03,0,1,1,135.2,63.677c-1.979-3.681-5.447-6.991-10.241-11.572C111.678,39.4,104.063,23.36,104.063,8.085V7.032h29.564c3.468,8.028,9.649,13.942,15.645,19.679,11.465,10.976,23.7,25.008,23.7,52.74Z" transform="translate(0 0)" fill="#2c6eb6" stroke="#fff" stroke-width="2.5"/>
  </g>
</svg>
