<svg xmlns="http://www.w3.org/2000/svg" width="182" height="182" viewBox="0 0 182 182">
  <g id="openness" transform="translate(1 1)">
    <g id="Group_2" data-name="Group 2" transform="translate(50.615 68.354)">
      <g id="Group_1" data-name="Group 1">
        <rect id="Rectangle_1" data-name="Rectangle 1" width="6.462" height="39.694" fill="#2c6eb6" stroke="#fff" stroke-width="2"/>
      </g>
    </g>
    <g id="Group_4" data-name="Group 4" transform="translate(122.922 71.952)">
      <g id="Group_3" data-name="Group 3">
        <rect id="Rectangle_2" data-name="Rectangle 2" width="6.462" height="39.694" fill="#2c6eb6" stroke="#fff" stroke-width="2"/>
      </g>
    </g>
    <g id="Group_6" data-name="Group 6" transform="translate(0 0)">
      <g id="Group_5" data-name="Group 5">
        <path id="Path_11" data-name="Path 11" d="M179.789,1.953c-.024-.066-.045-.129-.075-.2a3,3,0,0,0-.555-.825,1.878,1.878,0,0,0-.144-.126A3.061,3.061,0,0,0,178.7.531,2.806,2.806,0,0,0,178.262.3c-.048-.021-.09-.051-.135-.072A2.953,2.953,0,0,0,177.1.021c-.036,0-.063-.021-.1-.021H3c-.036,0-.069.021-.105.021a2.988,2.988,0,0,0-1.02.207A1.519,1.519,0,0,0,1.737.3,2.778,2.778,0,0,0,1.3.531,3.06,3.06,0,0,0,.99.81C.939.855.888.891.843.936a3.045,3.045,0,0,0-.555.825c-.033.063-.051.129-.078.192A3.015,3.015,0,0,0,0,3V177a3.015,3.015,0,0,0,.21,1.047c.027.066.045.129.075.2a3,3,0,0,0,.555.825c.045.048.1.084.144.129a3.061,3.061,0,0,0,.312.276,3.12,3.12,0,0,0,.348.171,2.679,2.679,0,0,0,.309.15A3.081,3.081,0,0,0,3,180H177a2.984,2.984,0,0,0,1.044-.21,2.933,2.933,0,0,0,.309-.15,2.88,2.88,0,0,0,.348-.171,3.061,3.061,0,0,0,.312-.276c.048-.045.1-.081.144-.129a2.934,2.934,0,0,0,.555-.825c.03-.063.048-.129.075-.2A2.921,2.921,0,0,0,180,177V3a3.014,3.014,0,0,0-.211-1.047ZM6,7.353,63,29.07V150.929L6,172.646ZM19.3,174,67.068,155.8A3,3,0,0,0,69,153V27a3,3,0,0,0-1.933-2.806L19.3,6H160.7L112.931,24.195A3,3,0,0,0,111,27V153a3,3,0,0,0,1.933,2.806L160.7,174Zm154.7-1.35-57-21.72V29.07L174,7.353Z" transform="translate(0 0)" fill="#2c6eb6" stroke="#fff" stroke-width="2"/>
      </g>
    </g>
    <g id="Group_8" data-name="Group 8" transform="translate(74.691 74.39)">
      <g id="Group_7" data-name="Group 7" transform="translate(0 0)">
        <path id="Path_12" data-name="Path 12" d="M215.308,200a15.266,15.266,0,0,0-9.185,27.49v18.435a3.063,3.063,0,0,0,3.062,3.062h3.062v3.062h6.123v-3.062h3.062a3.063,3.063,0,0,0,3.062-3.062V227.49A15.266,15.266,0,0,0,215.309,200Zm3.062,42.863h-6.123V236.74h6.123Zm1.521-19.653a3.058,3.058,0,0,0-1.521,2.646v4.761h-6.123v-4.761a3.058,3.058,0,0,0-1.521-2.646,9.087,9.087,0,0,1-4.6-7.9,9.185,9.185,0,1,1,18.37,0,9.087,9.087,0,0,1-4.6,7.9Z" transform="translate(-199.999 -200)" fill="#2c6eb6" stroke="#fff" stroke-width="2"/>
      </g>
    </g>
    <g id="Group_10" data-name="Group 10" transform="translate(86.769 63.276)">
      <g id="Group_9" data-name="Group 9">
        <rect id="Rectangle_3" data-name="Rectangle 3" width="6.462" height="5.539" fill="#2c6eb6" stroke="#fff" stroke-width="2"/>
      </g>
    </g>
    <g id="Group_12" data-name="Group 12" transform="translate(101.523 67.694)">
      <g id="Group_11" data-name="Group 11" transform="translate(0 0)">
        <rect id="Rectangle_4" data-name="Rectangle 4" width="6.123" height="6.123" transform="translate(0 4.33) rotate(-45)" fill="#2c6eb6" stroke="#fff" stroke-width="2"/>
      </g>
    </g>
    <g id="Group_14" data-name="Group 14" transform="translate(70.682 67.687)">
      <g id="Group_13" data-name="Group 13" transform="translate(0 0)">
        <rect id="Rectangle_5" data-name="Rectangle 5" width="6.123" height="6.123" transform="translate(0 4.33) rotate(-45)" fill="#2c6eb6" stroke="#fff" stroke-width="2"/>
      </g>
    </g>
  </g>
</svg>
