<svg xmlns="http://www.w3.org/2000/svg" id="Layer_1" data-name="Layer 1" viewBox="0 0 385.58 144.71"><defs><style>.cls-1{fill:#f68723;}.cls-2{fill:#1d75c1;}</style></defs><path class="cls-1" d="M.09,41.06C-.68,20.85,16.25,4.53,32.75,1,55.57-3.91,78.63,11.13,82.42,34.06c4,24.23-11.08,45-35.23,48.54-8.73,1.3-9.28.83-9.16-8,.08-5.69.43-11.37.51-17.06.05-3.09,2-3.84,4.49-4.37,6.91-1.5,9.94-5.22,9.84-11.89-.07-5.41-3.85-10.14-8.79-11a11.82,11.82,0,0,0-13.46,7.54,17.14,17.14,0,0,0-.93,5.69c-.05,14.65-.2,29.29-.21,43.93,0,13.46,6,21.84,18.7,26.2a78.06,78.06,0,0,0,25.56,4c1.73,0,3.46,0,5.19.08,2.29.09,3.59,1.15,3.57,3.6q-.1,10.07-.12,20.14c0,2.09-1,3.45-3.1,3.34-12.28-.64-24.7.56-36.82-2.49-22.38-5.64-36.91-19.06-41.74-42C-.63,93.75.39,49.08.09,41.06Z"></path><path class="cls-2" d="M103.63,144.3c-3.67,0-7.35,0-11,0-2.66,0-3.92-1.27-3.92-3.92,0-6.21,0-12.41-.07-18.62-.05-2.71,1.12-3.76,3.78-4,7.5-.63,15.06-.64,22.46-2.33a71.29,71.29,0,0,0,15-5.21c7.11-3.41,10.42-9.36,11.49-16.88a102.17,102.17,0,0,0,.55-14.31c0-12.11.07-24.21,0-36.31-.07-7.9-5.14-12.89-12.54-12.66a11.54,11.54,0,0,0-1,23c5.17.6,5.21.64,5.21,5.69,0,6.61,0,13.22,0,19.83,0,3.45-1.25,4.62-4.66,4.46A41.93,41.93,0,0,1,88.47,41.75c0-26,23.26-43.28,43.67-41.64,19,1.52,38.57,15.16,39.37,40,.52,16.26,0,32.52-.15,48.77-.16,15.88-5.12,30.05-17.56,40.74-9.92,8.52-21.78,12.46-34.61,14A130.51,130.51,0,0,1,103.63,144.3Z"></path><path class="cls-2" d="M268.19,43c.37,20.85-16.25,37.33-38.39,39.65C220,83.66,210.63,83,202,78c-13.53-7.7-21.08-19.44-21.38-35-.32-15.89,7.07-28,21-35.7,19.35-10.67,42.67-7,57.1,8.68C265.34,23.33,268.39,32.11,268.19,43Zm-30.84-.46c0-8.22-5.24-14.14-12.71-14.22s-13.33,6-13.4,13.7,5.87,14.18,13.26,14.22S237.32,50.48,237.35,42.53Z"></path><path class="cls-2" d="M289.44,3.66c4,0,8,.11,11.93,0,3.36-.12,5.24,1.24,6.24,4.5,3,9.82,6.24,19.57,9.38,29.34a11.11,11.11,0,0,0,.5,1.44c.37.77.27,2.1,1.46,2,.88-.06,1-1.19,1.24-1.94q2.64-7.8,5.22-15.62T330.5,7.69c.83-2.62,2.42-4.07,5.34-4.05,8.35.07,16.71,0,25.07.06,3.63,0,3.88.4,2.58,3.64q-13.68,34.11-27.41,68.21c-2.22,5.51-3,5.9-8.87,5.89s-11.82,0-17.73,0c-5.1,0-5.89-.51-7.75-5.14Q290,47.13,278.32,18c-1.47-3.68-2.91-7.38-4.44-11-.92-2.2-.4-3.27,2.11-3.25,4.49,0,9,0,13.45,0Z"></path><path class="cls-2" d="M385.58,70.59a11.35,11.35,0,1,1-22.7.09c0-5.92,5.23-11.15,11.38-11.3A11.3,11.3,0,0,1,385.58,70.59Zm-5.63.06a5.52,5.52,0,0,0-5.74-5.75,5.68,5.68,0,0,0-5.7,5.87,5.57,5.57,0,0,0,5.83,5.66C377.82,76.42,380,74.22,380,70.65Z"></path><path class="cls-2" d="M184.63,140.41h-4.79v-23H193v4h-8.38v5.92h7.8v4h-7.8Z"></path><path class="cls-2" d="M218.35,128.89q0,5.72-2.82,8.77c-1.89,2-4.59,3.07-8.11,3.07s-6.23-1-8.11-3.07-2.83-5-2.83-8.8.94-6.74,2.84-8.76,4.6-3,8.13-3,6.23,1,8.1,3S218.35,125.08,218.35,128.89Zm-16.76,0c0,2.57.48,4.5,1.46,5.8a5.11,5.11,0,0,0,4.37,1.95q5.82,0,5.83-7.75t-5.8-7.76a5.15,5.15,0,0,0-4.39,2A9.57,9.57,0,0,0,201.59,128.89Z"></path><path class="cls-2" d="M241.17,117.44V132.3a8.59,8.59,0,0,1-1.14,4.47,7.41,7.41,0,0,1-3.29,2.93,11.65,11.65,0,0,1-5.09,1,9.7,9.7,0,0,1-6.88-2.28,8,8,0,0,1-2.46-6.21v-14.8h4.86V131.5a5.92,5.92,0,0,0,1.07,3.9,4.42,4.42,0,0,0,3.53,1.24,4.36,4.36,0,0,0,3.47-1.25,5.9,5.9,0,0,0,1.08-3.92v-14Z"></path><path class="cls-2" d="M265.57,140.41h-6.19l-10-17.38h-.14q.3,4.6.3,6.57v10.81h-4.35v-23h6.14l10,17.2h.11q-.23-4.47-.23-6.33V117.44h4.38Z"></path><path class="cls-2" d="M288.48,128.7c0,3.79-1.07,6.68-3.23,8.69s-5.26,3-9.32,3h-6.51v-23h7.22q5.63,0,8.73,3C287.45,122.39,288.48,125.15,288.48,128.7Zm-5.05.13q0-7.41-6.54-7.4h-2.6v15h2.09Q283.43,136.39,283.43,128.83Z"></path><path class="cls-2" d="M307.31,140.41l-1.66-5.47h-8.38l-1.67,5.47h-5.24l8.1-23.07h6l8.14,23.07Zm-2.83-9.55c-1.54-5-2.4-7.76-2.6-8.41s-.33-1.16-.41-1.54q-.53,2-3,10Z"></path><path class="cls-2" d="M321.1,140.41h-4.87V121.49H310v-4h17.35v4H321.1Z"></path><path class="cls-2" d="M330.87,140.41v-23h4.87v23Z"></path><path class="cls-2" d="M361.09,128.89q0,5.72-2.83,8.77c-1.88,2-4.59,3.07-8.11,3.07s-6.22-1-8.1-3.07-2.83-5-2.83-8.8.94-6.74,2.83-8.76,4.6-3,8.14-3,6.23,1,8.1,3S361.09,125.08,361.09,128.89Zm-16.77,0a9.63,9.63,0,0,0,1.46,5.8,5.13,5.13,0,0,0,4.37,1.95q5.84,0,5.83-7.75t-5.79-7.76a5.14,5.14,0,0,0-4.39,2A9.57,9.57,0,0,0,344.32,128.89Z"></path><path class="cls-2" d="M383.66,140.41h-6.19l-10-17.38h-.14q.3,4.6.3,6.57v10.81h-4.35v-23h6.14l10,17.2h.11q-.24-4.47-.24-6.33V117.44h4.39Z"></path></svg>