<svg xmlns="http://www.w3.org/2000/svg" width="180" height="180" viewBox="0 0 180 180"><g id="quote-blue" transform="translate(-164 -2815)"><g id="Group_231" data-name="Group 231" transform="translate(124 309)"><g id="Ellipse_2" data-name="Ellipse 2" transform="translate(40 2506)" fill="none" stroke="#2c6eb6" stroke-width="1"><circle cx="90" cy="90" r="90" stroke="none"></circle><circle cx="90" cy="90" r="89.5" fill="none"></circle></g></g><path id="Path_131" data-name="Path 131" d="M34.034-98.4a16.993,16.993,0,0,1,10.34,3.367q4.569,3.367,4.569,11.783T40.286-60.887Q31.63-46.94,19.606-46.94q-1.924,0-1.924-.962,8.176-8.176,11.783-15.39t3.607-10.1q0-2.886-4.809-7.7t-4.809-6.733Q23.454-98.4,34.034-98.4ZM-3-98.4q15.39,0,15.39,15.39,0,8.176-8.657,22.123T-17.426-46.94q-1.924,0-1.924-.962Q-3.479-65.215-3.479-70.986a13.946,13.946,0,0,0-4.809-10.34Q-13.1-85.9-13.1-87.819-13.1-98.4-3-98.4Z" transform="translate(239 2983)" fill="#2c6eb6"></path></g></svg>