<svg xmlns="http://www.w3.org/2000/svg" id="Layer_1" data-name="Layer 1" viewBox="0 0 774.54 774.54"><defs><style>.cls-1{fill:#55cdd5;}</style></defs><path class="cls-1" d="M454,314.69V291.47c0-5.09-2.18-7.3-7.46-7.24H409.23c-2.52,0-5.25,0-6.51,2.5s.68,5.09,2.63,6.94c4.26,4.22,8.32,8.7,13,12.45a24.53,24.53,0,0,1,8.88,10.51,23.52,23.52,0,0,1,1.68,13.47c-.72,7.75,0,15.49,0,23.23,0,2.4-.22,5.05,2.54,6.29s4.71-.41,6.69-1.93a32.8,32.8,0,0,0,13.25-13.87,31.35,31.35,0,0,0,3-18.65A54,54,0,0,1,454,314.69ZM160.56,166.14a62.11,62.11,0,0,0-7.35-27.44,64.52,64.52,0,0,0-18.89-21.65,67.17,67.17,0,0,0-26.73-11.62,68.26,68.26,0,0,0-29.29.7,65,65,0,0,0-35.48,22.69,61.48,61.48,0,0,0-13.43,39.06,61.38,61.38,0,0,0,6.66,27A323.34,323.34,0,0,0,90,271c3.84,4.33,6.77,3.25,10.11-.49a328.1,328.1,0,0,0,51.56-71.94A83.6,83.6,0,0,0,160.56,166.14ZM282.21,424.31a79.27,79.27,0,0,0,7.19,28.55A310.14,310.14,0,0,0,343.3,529c3.34,3.75,6.14,3.87,9.53,0a312.38,312.38,0,0,0,53.88-76.21A63.32,63.32,0,0,0,413,416.05a62,62,0,0,0-22.59-39.44,68.34,68.34,0,0,0-89.08,4.09,62.47,62.47,0,0,0-19.15,43.53ZM627.89,26.61a66.56,66.56,0,0,0-36.28,10.74,63.16,63.16,0,0,0-23.88,28.52,61.92,61.92,0,0,0-4,14.34,59.54,59.54,0,0,0-.42,14.85,61.61,61.61,0,0,0,3.21,14.54,271.07,271.07,0,0,0,57.48,85c2.92,3.23,5.64,2.75,8.34-.31,4-4.49,8-8.87,11.89-13.45a242.73,242.73,0,0,0,45.6-71.62,60.63,60.63,0,0,0,3.06-14.56,60.57,60.57,0,0,0-4.7-29.17,63.61,63.61,0,0,0-30.75-32.09,67,67,0,0,0-29.7-6.78ZM362,697.89v39.45c0,3.46,0,6.93,4.65,8.23,16.69,4.68,20.71,1.93,20.71-14.56a33.08,33.08,0,0,0,0-5.63,55,55,0,0,1,3.12-34.15,57.27,57.27,0,0,1,22.9-26.17,31.44,31.44,0,0,0,12.23-14.22,30.3,30.3,0,0,0,1.78-18.41,50,50,0,0,1,2.31-30.27,51.87,51.87,0,0,1,19.53-23.75,55.54,55.54,0,0,0,0-48.4L448,528.87c-9-8.73-18.32-17.2-26.94-26.26-5.21-5.5-7.85-4.32-11.75,1.27a410.88,410.88,0,0,1-48.76,57.86,15.5,15.5,0,0,1-6.89,5.08,16.1,16.1,0,0,1-8.64.73,20.51,20.51,0,0,1-10.77-7.13,443.78,443.78,0,0,1-48.39-57.31c-1.84-2.54-3.61-7.39-8-3.12-12.37,11.62-27.18,21.55-22.72,42.18,2,9.31,15.9,24.33,26,24.33H320.3a14.06,14.06,0,0,1,6,.63,13.64,13.64,0,0,1,5.14,3.09,13.15,13.15,0,0,1,3.24,4.93,12.78,12.78,0,0,1,.7,5.81,92.44,92.44,0,0,1,0,15.25,45.07,45.07,0,0,0,2.23,27.45,46.78,46.78,0,0,0,17.89,21.41A17,17,0,0,1,361,652a16.36,16.36,0,0,1,1.2,8.68c-.44,12.52-.26,24.89-.22,37.22ZM29.73,388.19a133.47,133.47,0,0,0,.28,30.1A324.72,324.72,0,0,0,70.7,561.53a359.93,359.93,0,0,0,20,32.46c2.94,4.26,5.47,4.55,9,.71a77.66,77.66,0,0,1,11.81-11.32,49.75,49.75,0,0,0,19.72-22.51,47.7,47.7,0,0,0,2.91-29.36,15.35,15.35,0,0,1,1-8.36,15.89,15.89,0,0,1,5.3-6.67c9.35-8.78,18.55-17.75,27.74-26.71a31.24,31.24,0,0,0,0-38C150.2,434.3,132.56,417,114.57,400a20.52,20.52,0,0,1-5.7-7.75,20,20,0,0,1-1.49-9.4c.41-11,0-22,0-33a13,13,0,0,1,3.77-11.19,13.61,13.61,0,0,1,5.29-3.23,14.09,14.09,0,0,1,6.22-.62c8.62-.22,17.21-.22,25.83,0a13.87,13.87,0,0,0,6.09-.89,13.31,13.31,0,0,0,5-3.43q18-17.74,36.47-35.29a13,13,0,0,0,3.57-4.83,12.74,12.74,0,0,0,1-5.87c-.18-11.83.22-23.63,0-35.46a19.92,19.92,0,0,1,1.62-9.41,20.49,20.49,0,0,1,5.83-7.68c13.71-12.93,27.2-26.09,40.71-39.22a66,66,0,0,0,2.36-47.48c-.54-.62-1.12-1.18-1.72-1.76q-11.47-11.08-22.92-22.2a12,12,0,0,0-4.19-3.27,12.42,12.42,0,0,0-5.23-1.18H184.78c-7.72.25-9.24,3-5.82,9.79a86,86,0,0,1,1.76,77A341,341,0,0,1,105.54,305.4a13.7,13.7,0,0,1-4.92,3.8,14.28,14.28,0,0,1-12.27-.15,13.64,13.64,0,0,1-4.82-3.92c-8.19-8-15.9-16.51-23.62-24.95-6.33-6.95-6.29-6.95-9.41,1.45A317,317,0,0,0,29.63,388.11ZM642,643.21a72.63,72.63,0,0,0,14.85-13.9,338.67,338.67,0,0,0,73.92-125.72,330.7,330.7,0,0,0,13.49-144A326.62,326.62,0,0,0,679.11,197c-4.56-6.23-7.19-5.32-11.61,0-8.65,10.14-17.73,19.94-27.08,29.5a14.43,14.43,0,0,1-5.19,4.71,15.13,15.13,0,0,1-13.82.28A14.57,14.57,0,0,1,616,227a380,380,0,0,1-64.89-82.42,104.11,104.11,0,0,1-17-55.59c.22-5.36-3-7.62-7.4-9.35A355.64,355.64,0,0,0,371.48,53.17c-7.19.43-9.73,2.69-9.63,9.68.36,22,.26,44,0,66a14.69,14.69,0,0,0,1.2,6.64,15,15,0,0,0,4.09,5.46q17.57,16.58,34.7,33.6a16.06,16.06,0,0,0,6,4.19,16.56,16.56,0,0,0,7.27,1.16c16.64-.25,33.31,0,50,0a19.92,19.92,0,0,1,8.51,1.39,19.29,19.29,0,0,1,7,4.82q30.45,29.79,61.09,59.08a19.68,19.68,0,0,1,5.39,7.06,19,19,0,0,1,1.65,8.63q-.31,35.46,0,70.91a16.9,16.9,0,0,1-1.28,8.65,17.58,17.58,0,0,1-5.48,7,45.44,45.44,0,0,0-17.85,21A43.78,43.78,0,0,0,522,395.49a10.93,10.93,0,0,1,0,3.23,14,14,0,0,0,.94,7.53,14.36,14.36,0,0,0,4.79,6c13,12.18,25.4,24.82,38.47,36.78a24.71,24.71,0,0,1,7.39,9.52,23.93,23.93,0,0,1,1.91,11.77c-.6,14.21,0,28.45-.28,42.68a18.62,18.62,0,0,0,1.34,9,19.06,19.06,0,0,0,5.49,7.35c16.77,15.68,32.84,32,49.71,47.58a27.08,27.08,0,0,1,8.38,10.73,26.21,26.21,0,0,1,2,13.31c-.88,13.51-.3,27.09-.3,42.17ZM229.17,88.59a36.14,36.14,0,0,1,10.49,6.24q18.18,17.74,36.51,35.32a17.94,17.94,0,0,1,4.64,6.58,17.44,17.44,0,0,1,1.22,7.88c0,15-.26,30.1,0,45.18a19.25,19.25,0,0,1-1.58,9,19.85,19.85,0,0,1-5.6,7.39c-12.93,12.2-25.34,24.88-38.49,36.78a21.17,21.17,0,0,0-6.57,8.55,20.5,20.5,0,0,0-1.44,10.55c.58,9.91,0,19.88.22,29.81a20.37,20.37,0,0,1-1.49,9.84,21.11,21.11,0,0,1-6,8.07c-11.83,11-23.9,21.77-34.65,33.66a43.15,43.15,0,0,1-18.8,15.19,44.79,44.79,0,0,1-24.31,2.93,10.4,10.4,0,0,0-3.34,0c-2.44.3-4.42,1.54-4.53,4a22.46,22.46,0,0,0,0,11.05,23,23,0,0,0,5.29,9.8c14.37,13,27.2,27.8,42.25,40a52.46,52.46,0,0,1,15.48,20.13,50.68,50.68,0,0,1,4,24.78,44,44,0,0,1-3.55,23.25A45.76,45.76,0,0,1,183.84,513a48.11,48.11,0,0,0-19.28,21.79,46.26,46.26,0,0,0-2.86,28.54,17.41,17.41,0,0,1-1.2,9.1,18.07,18.07,0,0,1-5.7,7.33c-12.31,11.61-24.18,23.71-36.65,35.17-4.76,4.41-5.42,7.41-.78,12.49C171.16,687.11,244.44,727.19,325.05,741c7.18,1.28,8.86-.95,8.78-7.26q-.25-31.8,0-63.66a12.13,12.13,0,0,0-.91-6.72,12.6,12.6,0,0,0-4.39-5.27,48.48,48.48,0,0,1-19-22.18A46.71,46.71,0,0,1,307,607.21a5.75,5.75,0,0,0,0-.83c0-13-.18-14.33-13.09-12.76a58.86,58.86,0,0,1-31.14-3.36,56.79,56.79,0,0,1-24.62-18.76,45.41,45.41,0,0,1-11.63-27,57.27,57.27,0,0,1,3.74-33.68,59.43,59.43,0,0,1,22.28-26.15c11.17-7.57,12.49-15.81,7.47-29a88,88,0,0,1-2.31-54A90.59,90.59,0,0,1,287.48,356a95.67,95.67,0,0,1,51.36-21.25,96.66,96.66,0,0,1,54.76,10.72c2.34,1.18,6.22,4.38,6.6-1.14a24.66,24.66,0,0,0-.07-12.19,25.35,25.35,0,0,0-5.93-10.75c-24.9-23.65-19.8-13-20.22-48,0-12,4.67-16.36,17.24-16.4h73.33c12.57,0,17.21,4.46,17.25,16.44v71A76.45,76.45,0,0,1,442,387.11a7.68,7.68,0,0,1-1.66,0c-5.46-.31-6,2.05-4.28,6.46a86.87,86.87,0,0,1-3.58,70.48,10.08,10.08,0,0,0-1.24,7.19,10.34,10.34,0,0,0,3.94,6.22c13.57,12.68,26.68,25.82,40.17,38.71a18.79,18.79,0,0,1,5,6.81,18,18,0,0,1,1.43,8.24c-.22,14.49-.4,29,0,43.51a19.9,19.9,0,0,1-1.51,10.63,20.64,20.64,0,0,1-6.85,8.43,41.46,41.46,0,0,0-16.38,19.12,39.88,39.88,0,0,0-2,24.75,40.34,40.34,0,0,1-2.32,24.79,42.11,42.11,0,0,1-16.53,19.09A48.75,48.75,0,0,0,417.73,703a47,47,0,0,0-3.12,27.74c1.76,14.34-1.22,15.25,14.91,13.34a357.89,357.89,0,0,0,178.14-70.54,13.2,13.2,0,0,0,4.78-5.33,12.69,12.69,0,0,0,1.22-7c-.26-18-.32-36,0-54a17.42,17.42,0,0,0-1.47-8.17,17.9,17.9,0,0,0-5.11-6.64c-17.64-16.71-34.93-33.82-52.6-50.52a21.7,21.7,0,0,1-6-8,21,21,0,0,1-1.69-9.8c.4-15.83,0-31.68.18-47.54a13.17,13.17,0,0,0-1-6.25,13.71,13.71,0,0,0-3.84-5.13,258.77,258.77,0,0,0-25.22-23.75A61.39,61.39,0,0,1,497,416.61a59.19,59.19,0,0,1-4.49-31.07,55.13,55.13,0,0,1,4.14-28.68,57.15,57.15,0,0,1,18.22-23,12.34,12.34,0,0,0,4.37-5.29,11.87,11.87,0,0,0,.79-6.73q-.28-25.78,0-51.57a13.62,13.62,0,0,0-1-6.24,14.14,14.14,0,0,0-3.76-5.18q-24.6-23.55-48.88-47.31a15.36,15.36,0,0,0-5.68-3.9,15.71,15.71,0,0,0-6.89-1c-15.81.19-31.64-.29-47.45.19A24.88,24.88,0,0,1,395,205a24.22,24.22,0,0,1-9.23-6.6Q364.2,176.69,341.6,155.7a23,23,0,0,1-6.57-8.62,22.29,22.29,0,0,1-1.82-10.56c.4-20.13.3-40.28,0-60.43-.2-21.81,3.6-20.85-20.35-16A345,345,0,0,0,229.17,88.59ZM612.9,0h30l8.81,2.32a93.22,93.22,0,0,1,48.78,29.81,88.8,88.8,0,0,1,18,33.29,87.21,87.21,0,0,1-2.7,55.73,172.65,172.65,0,0,1-19.84,38,10.13,10.13,0,0,0,.64,14.26,366.25,366.25,0,0,1,60.77,113,440.66,440.66,0,0,1,17.21,81v64.46c-2.44,17.42-4.78,34.53-8.81,51.56-21.06,89.15-75.12,167.77-152,221s-171.22,77.5-265.29,68.13c-90.61-9.05-175-48.64-238.52-111.85S8,514.73,1.34,426.87A343.46,343.46,0,0,1,30.09,256.05a14.19,14.19,0,0,0-1.6-17,182.72,182.72,0,0,1-22-41.34A80.7,80.7,0,0,1,2,151.73,89.26,89.26,0,0,1,21.55,110,93.42,93.42,0,0,1,59.7,82.85a96.58,96.58,0,0,1,47-5.64,95.46,95.46,0,0,1,43.86,17.31,9.18,9.18,0,0,0,3,2,9.48,9.48,0,0,0,7.1,0,9.22,9.22,0,0,0,3-2A315.6,315.6,0,0,1,206.12,69,394.09,394.09,0,0,1,438.77,28.11,386.43,386.43,0,0,1,532.64,52c4.56,1.8,8.17,2.71,11-2.71a93.3,93.3,0,0,1,28.57-32.59A97.32,97.32,0,0,1,612.9,0Z"></path><path class="cls-1" d="M639,84.89a11.62,11.62,0,0,0-7.54-10.8,11.64,11.64,0,0,0-12.78,3.16,11.27,11.27,0,0,0-2.88,8.59,11.61,11.61,0,1,0,23.2-1Zm27.12.82a38.69,38.69,0,1,1-2.75-14.86A38.17,38.17,0,0,1,666.08,85.71Z"></path><path class="cls-1" d="M359.9,426a11.64,11.64,0,0,0-1.86-6.46,11.57,11.57,0,0,0-11.77-5.11,11.61,11.61,0,0,0,1.82,23A12.12,12.12,0,0,0,359.9,426Zm-12.08,38.7a38.35,38.35,0,1,1,21.71-6A38.42,38.42,0,0,1,347.82,464.71Z"></path><path class="cls-1" d="M100.39,174.25a12.12,12.12,0,0,0,11.87-11.45,11.62,11.62,0,0,0-23.21-.53,11.9,11.9,0,0,0,3.32,8.24,11.73,11.73,0,0,0,8,3.81Zm.29,27.13a38.73,38.73,0,1,1,14.81-74.51,38.07,38.07,0,0,1,12.56,8.38,38.52,38.52,0,0,1,11.34,27.38,38.17,38.17,0,0,1-38.71,38.69Z"></path></svg>