<svg xmlns="http://www.w3.org/2000/svg" xmlns:xlink="http://www.w3.org/1999/xlink" id="Layer_1" data-name="Layer 1" viewBox="0 0 177 166"><defs><style>.cls-1{fill:none;}.cls-2{clip-path:url(#clip-path);}.cls-3{fill:#61686d;}.cls-4{fill:#fff;}</style><clipPath id="clip-path"><rect class="cls-1" width="177" height="166"></rect></clipPath></defs><g class="cls-2"><path class="cls-3" d="M140.37,68.4c-2.58,1.81-3,3.77-3.07,4.31-.41.25-.79.46-1.14.65.55-.91,1.07-1.84,1.55-2.79a43.22,43.22,0,0,0,2-5c.06-.19.13-.38.19-.56a13.85,13.85,0,0,1,2-3.92l.18-.24c7.24-4,3.92-12,3.92-12,.11,1.79-1.61,3.15-3.39,6.4-1.5,2.77-1,4.71-.82,5.23-.36.57-.71,1.07-1,1.49q.18-.78.33-1.56a38.45,38.45,0,0,0,.62-5.35l0-.67c0-.22,0-.44,0-.67V52.34c0-.45,0-.9-.05-1.35,0-.22,0-.44,0-.66l-.06-.67a5,5,0,0,1,.07-1.33l.52-2.55c5.28-6.35-.78-12.65-.78-12.65.76,1.62-.34,3.52-.8,7.2-.38,3.13.8,4.75,1.16,5.16-.15.75-.3,1.39-.43,1.92l-.06-.42c-.05-.44-.15-.88-.24-1.32L141,45c0-.22-.08-.44-.14-.65-.21-.87-.41-1.74-.69-2.59l-.19-.63-.1-.32-.11-.32-.45-1.25c-.29-.73-.59-1.46-.9-2.18a11.24,11.24,0,0,1-1-4.07c0-.33,0-.65-.08-1,2.84-7.75-5-11.65-5-11.65,1.26,1.27.85,3.43,1.67,7,.68,3.08,2.35,4.21,2.82,4.48.16,1.05.24,1.93.28,2.55l0-.07-.32-.59c-.11-.2-.23-.38-.34-.58l-.69-1.14L135,31l-.38-.55-.39-.54c-.42-.57-.84-1.12-1.3-1.66-.62-.79-1.48-1.94-2.22-2.76a5.66,5.66,0,0,1-.88-1.29c-3.25-6.86-11.2-4.93-11.2-4.93,1.78.11,2.92,2,5.93,4.15a6.65,6.65,0,0,0,5,1.49l.26.08.91,1A36.48,36.48,0,0,1,134,30.05l.39.54.35.55.71,1.12.3.53A22.35,22.35,0,0,0,133.32,31C129,24,121.11,27.65,121.11,27.65c1.78-.19,3.21,1.47,6.54,3.09,2.84,1.38,4.75.79,5.26.58C134,32,135,32.64,135.54,33a2.68,2.68,0,0,1,.82.95h0l.3.59a36.93,36.93,0,0,1,2.08,4.84l.41,1.25.1.31.1.32.17.63c.25.85.42,1.71.61,2.56.05.22.09.43.13.65h0a24.34,24.34,0,0,0-1.67-2.25c-2-8-10.7-6.8-10.7-6.8,1.76.34,2.65,2.35,5.36,4.87,2.31,2.15,4.32,2.15,4.86,2.1.62.67,1.13,1.28,1.51,1.75a4.17,4.17,0,0,1,.93,2.26h0l.16,1.31,0,.32,0,.33,0,.65,0,.66c0,.21,0,.43,0,.65,0,.44,0,.87,0,1.31l0,1.31q0,.33,0,.66l0,.65c-.07,1-.17,1.89-.31,2.82a20.92,20.92,0,0,0-.65-2.24c1-8.19-7.56-10.17-7.56-10.17,1.52.95,1.63,3.14,3.27,6.46,1.39,2.84,3.26,3.55,3.79,3.7.2.52.37,1,.52,1.4a5.78,5.78,0,0,1,.2,3.19v0a39.44,39.44,0,0,1-1.44,5,43.19,43.19,0,0,1-2.11,4.77c-.24.45-.49.89-.75,1.33a23.23,23.23,0,0,0,.27-2.67c3.89-7.28-3.31-12.23-3.31-12.23,1.07,1.44.37,3.52.66,7.22.25,3.14,1.74,4.49,2.18,4.82v.35a9.8,9.8,0,0,1-1.78,5.59s0,0,0,0a38.38,38.38,0,0,1-3.32,4c-.3.3-.59.63-.91.93l-.94.89s0,0,0,0c.28-.5.54-1,.77-1.51C135.74,73.45,131,66.1,131,66.1c.44,1.74-1,3.38-2.18,6.91-1,3-.14,4.81.13,5.28-.18.46-.37.87-.54,1.24a6.26,6.26,0,0,1-1.81,2.33h0a35.59,35.59,0,0,1-4.26,3c-.87.52-1.75,1-2.65,1.44.37-.39.72-.78,1-1.16,6.14-2.84,3.88-9.63,3.88-9.63,0,1.46-1.49,2.48-3.12,5a5.32,5.32,0,0,0-1,4.22c-.2.27-.39.52-.57.74a5.65,5.65,0,0,1-2.21,1.69,0,0,0,0,1,0,0,40.15,40.15,0,0,1-4.88,1.68h0a1.09,1.09,0,1,0,.62,2.09A40.22,40.22,0,0,0,118.55,89a41.82,41.82,0,0,0,4.79-2.6c.92-.57,1.82-1.2,2.69-1.86A7.81,7.81,0,0,1,130.09,83c7.7,3,11.72-4.81,11.72-4.81-1.29,1.24-3.44.81-7.07,1.56-3.09.64-4.24,2.29-4.52,2.76-.74.1-1.4.16-1.94.19.5-.43,1-.88,1.45-1.32l1-1c.32-.32.61-.67.92-1A39.22,39.22,0,0,0,135,75.19l.06-.09a5.15,5.15,0,0,1,2-1.73l.38-.2c8.25-.31,8.9-9,8.9-9C145.56,65.84,143.41,66.28,140.37,68.4Z"></path><path class="cls-3" d="M37.4,68.4c2.58,1.81,3,3.77,3.07,4.31.41.25.79.46,1.14.65-.55-.91-1.07-1.84-1.55-2.79a41.52,41.52,0,0,1-2.05-5L37.82,65a13.62,13.62,0,0,0-2-3.92l-.17-.24c-7.24-4-3.92-12-3.92-12-.11,1.79,1.61,3.15,3.38,6.4,1.51,2.77,1,4.71.82,5.23.37.57.72,1.07,1,1.49q-.18-.78-.33-1.56A37,37,0,0,1,36,55l0-.67c0-.22,0-.44,0-.67V52.34c0-.45.05-.9.06-1.35,0-.22,0-.44,0-.66l.06-.67a5,5,0,0,0-.07-1.33l-.52-2.55c-5.28-6.35.78-12.65.78-12.65-.76,1.62.34,3.52.79,7.2.39,3.13-.79,4.75-1.16,5.16.16.75.31,1.39.44,1.92l.06-.42c0-.44.15-.88.23-1.32l.13-.66c0-.22.08-.44.14-.65.21-.87.41-1.74.69-2.59l.19-.63.1-.32.11-.32.45-1.25c.28-.73.58-1.46.9-2.18a11.66,11.66,0,0,0,1-4.07c0-.33,0-.65.08-1-2.84-7.75,5-11.65,5-11.65-1.26,1.27-.86,3.43-1.67,7-.69,3.08-2.35,4.21-2.83,4.48-.15,1.05-.23,1.93-.27,2.55l0-.07.32-.59c.1-.2.23-.38.34-.58l.69-1.14.74-1.1c.13-.18.24-.37.38-.55l.39-.54c.41-.57.84-1.12,1.3-1.66.62-.79,1.48-1.94,2.22-2.76A5.66,5.66,0,0,0,48,24.18c3.25-6.86,11.2-4.93,11.2-4.93-1.78.11-2.92,2-5.93,4.15a6.65,6.65,0,0,1-4.95,1.49l-.26.08-.91,1a36.48,36.48,0,0,0-3.32,4.12l-.39.54c-.12.18-.23.37-.36.55l-.71,1.12-.3.53A22.35,22.35,0,0,1,44.44,31c4.29-7.06,12.22-3.38,12.22-3.38-1.78-.19-3.22,1.47-6.55,3.09-2.83,1.38-4.75.79-5.26.58-1.13.67-2.08,1.32-2.63,1.71a2.68,2.68,0,0,0-.82.95h0l-.3.59A36.93,36.93,0,0,0,39,39.42l-.41,1.25-.1.31-.09.32-.18.63c-.25.85-.42,1.71-.61,2.56-.05.22-.09.43-.12.65h0a22.61,22.61,0,0,1,1.66-2.25c2-8,10.7-6.8,10.7-6.8-1.76.34-2.65,2.35-5.36,4.87-2.31,2.15-4.31,2.15-4.86,2.1-.62.67-1.13,1.28-1.5,1.75a4.11,4.11,0,0,0-.94,2.26h0l-.16,1.31,0,.32,0,.33,0,.65,0,.66c0,.21,0,.43,0,.65,0,.44,0,.87,0,1.31l0,1.31q0,.33,0,.66l.05.65c.07,1,.18,1.89.31,2.82.19-.78.4-1.53.65-2.24-1-8.19,7.56-10.17,7.56-10.17-1.52.95-1.63,3.14-3.27,6.46-1.38,2.84-3.26,3.55-3.79,3.7-.2.52-.37,1-.52,1.4a5.78,5.78,0,0,0-.2,3.19s0,0,0,0a37.83,37.83,0,0,0,1.43,5,41.45,41.45,0,0,0,2.12,4.77c.23.45.48.89.74,1.33a21.13,21.13,0,0,1-.26-2.67c-3.9-7.28,3.3-12.23,3.3-12.23-1.07,1.44-.37,3.52-.66,7.22-.25,3.14-1.74,4.49-2.18,4.82v.35A9.8,9.8,0,0,0,44,74.32l0,0a39.58,39.58,0,0,0,3.31,4c.31.3.6.63.92.93l.93.89,0,0c-.28-.5-.54-1-.78-1.51C42,73.45,46.75,66.1,46.75,66.1c-.43,1.74,1,3.38,2.19,6.91,1,3,.14,4.81-.14,5.28.19.46.38.87.55,1.24a6.16,6.16,0,0,0,1.81,2.33h0a35.59,35.59,0,0,0,4.26,3c.86.52,1.75,1,2.65,1.44-.38-.39-.72-.78-1-1.16-6.14-2.84-3.89-9.63-3.89-9.63,0,1.46,1.5,2.48,3.13,5a5.37,5.37,0,0,1,1,4.22c.2.27.39.52.57.74A5.65,5.65,0,0,0,60,87.16a0,0,0,0,0,0,0,40.15,40.15,0,0,0,4.88,1.68h0A1.09,1.09,0,1,1,64.33,91,40.22,40.22,0,0,1,59.22,89a41.82,41.82,0,0,1-4.79-2.6c-.92-.57-1.82-1.2-2.69-1.86A7.81,7.81,0,0,0,47.68,83C40,86,36,78.22,36,78.22c1.29,1.24,3.44.81,7.07,1.56,3.09.64,4.24,2.29,4.52,2.76.74.1,1.39.16,1.93.19-.49-.43-1-.88-1.44-1.32l-.95-1c-.33-.32-.61-.67-.93-1a40.4,40.4,0,0,1-3.34-4.26l-.06-.09a5.15,5.15,0,0,0-1.95-1.73l-.39-.2c-8.24-.31-8.89-9-8.89-9C32.21,65.84,34.36,66.28,37.4,68.4Z"></path><path class="cls-4" d="M75.52,34.47V43H74.13l-3-5.91V43H69.74V34.47h1.38l3,6v-6ZM80,41.71V38.55a1.25,1.25,0,0,0-.09-.52.57.57,0,0,0-.26-.29.94.94,0,0,0-.43-.1.85.85,0,0,0-.46.12.66.66,0,0,0-.27.3.88.88,0,0,0-.1.43H77a1.87,1.87,0,0,1,.15-.73A2,2,0,0,1,78.3,36.7a2.75,2.75,0,0,1,.93-.16,2.67,2.67,0,0,1,1.08.21,1.47,1.47,0,0,1,.74.65,2.16,2.16,0,0,1,.28,1.17v3a6,6,0,0,0,0,.78,2.89,2.89,0,0,0,.16.6V43H80.15a2.44,2.44,0,0,1-.14-.59A5.49,5.49,0,0,1,80,41.71Zm.19-2.57V40H79.5a1.44,1.44,0,0,0-.53.09,1,1,0,0,0-.4.22.94.94,0,0,0-.25.34,1.34,1.34,0,0,0-.08.46,1.3,1.3,0,0,0,.08.48.59.59,0,0,0,.26.28A.86.86,0,0,0,79,42a1.11,1.11,0,0,0,.56-.14,1.08,1.08,0,0,0,.38-.35.59.59,0,0,0,.11-.38l.31.57a2,2,0,0,1-.18.47,2.3,2.3,0,0,1-.32.47,1.68,1.68,0,0,1-.48.36,1.51,1.51,0,0,1-.65.14,1.94,1.94,0,0,1-1-.23,1.6,1.6,0,0,1-.66-.63,2.15,2.15,0,0,1-.23-1,2.13,2.13,0,0,1,.16-.86,1.83,1.83,0,0,1,.46-.67,2.25,2.25,0,0,1,.78-.43,3.73,3.73,0,0,1,1.11-.15Zm5.14-2.48v1.05H82.18V36.66ZM83,35.11h1.36v6.12a1.32,1.32,0,0,0,.06.45.4.4,0,0,0,.18.2.61.61,0,0,0,.28,0h.23l.17,0V43a2.47,2.47,0,0,1-.35.1,3.32,3.32,0,0,1-.48,0,1.54,1.54,0,0,1-.75-.18,1.19,1.19,0,0,1-.51-.57,2.38,2.38,0,0,1-.19-1Zm4.77,1.55V43H86.43V36.66ZM86.36,35a.77.77,0,0,1,.2-.54.72.72,0,0,1,.56-.23.75.75,0,0,1,.56.22.84.84,0,0,1,0,1.09.85.85,0,0,1-1.12,0A.8.8,0,0,1,86.36,35Zm2.7,5.09v-.51a4.37,4.37,0,0,1,.18-1.31,2.56,2.56,0,0,1,.52-1,2.13,2.13,0,0,1,.79-.58,2.68,2.68,0,0,1,2,0,2.17,2.17,0,0,1,.8.58,2.71,2.71,0,0,1,.52,1,4.37,4.37,0,0,1,.18,1.31v.51a4.25,4.25,0,0,1-.18,1.3,2.76,2.76,0,0,1-.52,1,2.31,2.31,0,0,1-.79.57,2.68,2.68,0,0,1-2,0,2.26,2.26,0,0,1-.8-.57,2.76,2.76,0,0,1-.52-1A4.25,4.25,0,0,1,89.06,40.09Zm1.36-.51v.51a3.46,3.46,0,0,0,.09.83,1.86,1.86,0,0,0,.23.59,1.09,1.09,0,0,0,.36.35.93.93,0,0,0,.47.11,1,1,0,0,0,.5-.11,1.09,1.09,0,0,0,.36-.35,1.64,1.64,0,0,0,.21-.59,4.15,4.15,0,0,0,.07-.83v-.51a3.35,3.35,0,0,0-.08-.82,1.69,1.69,0,0,0-.23-.59,1.06,1.06,0,0,0-.37-.36.94.94,0,0,0-.47-.12.9.9,0,0,0-.46.12,1,1,0,0,0-.36.36,1.69,1.69,0,0,0-.23.59A3.32,3.32,0,0,0,90.42,39.58ZM96.61,38v5H95.24V36.66h1.28Zm-.25,1.59h-.43a4.48,4.48,0,0,1,.14-1.25,3,3,0,0,1,.44-1,1.91,1.91,0,0,1,.68-.62,1.75,1.75,0,0,1,.88-.23,1.93,1.93,0,0,1,.69.13,1.18,1.18,0,0,1,.53.41,1.77,1.77,0,0,1,.34.73,3.9,3.9,0,0,1,.13,1.1V43H98.39V38.9a1.89,1.89,0,0,0-.1-.7.63.63,0,0,0-.28-.38.84.84,0,0,0-.47-.12.8.8,0,0,0-.49.16,1.14,1.14,0,0,0-.37.41,2,2,0,0,0-.24.6A3.4,3.4,0,0,0,96.36,39.6Zm7.71,2.11V38.55A1.25,1.25,0,0,0,104,38a.55.55,0,0,0-.27-.29.87.87,0,0,0-.42-.1.83.83,0,0,0-.46.12.68.68,0,0,0-.28.3,1,1,0,0,0-.09.43h-1.37a1.72,1.72,0,0,1,.16-.73,1.93,1.93,0,0,1,.45-.63,2.17,2.17,0,0,1,.71-.43,2.65,2.65,0,0,1,.92-.16,2.68,2.68,0,0,1,1.09.21,1.55,1.55,0,0,1,.74.65,2.25,2.25,0,0,1,.28,1.17v3a4.65,4.65,0,0,0,0,.78,2.89,2.89,0,0,0,.16.6V43h-1.39a2,2,0,0,1-.14-.59A5.49,5.49,0,0,1,104.07,41.71Zm.18-2.57V40h-.66a1.51,1.51,0,0,0-.53.09,1.07,1.07,0,0,0-.39.22.94.94,0,0,0-.25.34,1.34,1.34,0,0,0-.08.46,1.3,1.3,0,0,0,.08.48.57.57,0,0,0,.25.28.86.86,0,0,0,.41.09,1.15,1.15,0,0,0,.57-.14,1.17,1.17,0,0,0,.38-.35.58.58,0,0,0,.1-.38l.31.57a1.91,1.91,0,0,1-.17.47,2.36,2.36,0,0,1-.33.47,1.48,1.48,0,0,1-1.13.5,2,2,0,0,1-.95-.23,1.64,1.64,0,0,1-.65-.63,2,2,0,0,1-.24-1,2.31,2.31,0,0,1,.16-.86,1.85,1.85,0,0,1,.47-.67,2.25,2.25,0,0,1,.78-.43,3.68,3.68,0,0,1,1.11-.15Zm4-5.14v9h-1.36V34ZM61.55,52.81V54h-3.7V52.81Zm-3.33-7.34V54H56.8V45.47ZM61.05,49v1.17h-3.2V49Zm.46-3.55v1.19H57.85V45.47Zm3.59,4.31v1.15H62.45V49.78ZM72,49.62V53a3.82,3.82,0,0,1-.49.46,2.92,2.92,0,0,1-.85.47,4,4,0,0,1-1.35.2,3.35,3.35,0,0,1-1.25-.23,2.42,2.42,0,0,1-1-.67,3,3,0,0,1-.62-1.12,5.5,5.5,0,0,1-.22-1.61V49a5.75,5.75,0,0,1,.2-1.59,3,3,0,0,1,.58-1.13,2.28,2.28,0,0,1,.92-.68,3.5,3.5,0,0,1,1.26-.22,3.19,3.19,0,0,1,1.49.32,2.1,2.1,0,0,1,.92.92A3.67,3.67,0,0,1,72,48.08H70.64a2.41,2.41,0,0,0-.21-.87,1,1,0,0,0-.44-.5,1.47,1.47,0,0,0-.74-.17,1.68,1.68,0,0,0-.7.14,1.26,1.26,0,0,0-.48.44,2.35,2.35,0,0,0-.28.75A6.85,6.85,0,0,0,67.71,49v1.53a4.53,4.53,0,0,0,.11,1.11,2.13,2.13,0,0,0,.32.76,1.37,1.37,0,0,0,.53.43,1.81,1.81,0,0,0,.72.14,2.17,2.17,0,0,0,.64-.08,1.49,1.49,0,0,0,.36-.19l.22-.16V50.74H69.23V49.62Zm1.16,1.47v-.51a4.37,4.37,0,0,1,.18-1.31,2.7,2.7,0,0,1,.51-1,2.25,2.25,0,0,1,.8-.58,2.53,2.53,0,0,1,1-.2,2.61,2.61,0,0,1,1,.2,2.06,2.06,0,0,1,.79.58,2.73,2.73,0,0,1,.53,1,4.37,4.37,0,0,1,.18,1.31v.51a4.25,4.25,0,0,1-.18,1.3,2.78,2.78,0,0,1-.53,1,2.14,2.14,0,0,1-.79.57,2.65,2.65,0,0,1-2,0,2.26,2.26,0,0,1-.8-.57,2.61,2.61,0,0,1-.52-1A4.25,4.25,0,0,1,73.19,51.09Zm1.36-.51v.51a4.1,4.1,0,0,0,.08.83,2.14,2.14,0,0,0,.24.59,1.09,1.09,0,0,0,.36.35.93.93,0,0,0,.47.11,1,1,0,0,0,.5-.11,1,1,0,0,0,.35-.35,1.86,1.86,0,0,0,.22-.59,4.15,4.15,0,0,0,.07-.83v-.51a3.93,3.93,0,0,0-.08-.82,1.69,1.69,0,0,0-.23-.59,1.15,1.15,0,0,0-.37-.36.94.94,0,0,0-.47-.12,1,1,0,0,0-.47.12,1.1,1.1,0,0,0-.35.36,1.91,1.91,0,0,0-.24.59A3.93,3.93,0,0,0,74.55,50.58Zm6.51,2.28,1.17-5.2h1.41L81.84,54H81Zm-.83-5.2,1.21,5.22L81.5,54h-.87l-1.81-6.34Zm6.68,6.46a3.13,3.13,0,0,1-1.1-.18,2.11,2.11,0,0,1-.81-.56,2.46,2.46,0,0,1-.51-.9,3.92,3.92,0,0,1-.18-1.25v-.6a4.74,4.74,0,0,1,.18-1.39,2.74,2.74,0,0,1,.52-1,2.21,2.21,0,0,1,.77-.56,2.63,2.63,0,0,1,1-.18,2.54,2.54,0,0,1,1,.2,1.77,1.77,0,0,1,.72.58,2.52,2.52,0,0,1,.42,1,5.21,5.21,0,0,1,.14,1.31v.68H85v-1h2.76v-.14a2.72,2.72,0,0,0-.1-.75.92.92,0,0,0-.31-.48.85.85,0,0,0-.56-.17,1,1,0,0,0-.47.1.8.8,0,0,0-.34.32,1.69,1.69,0,0,0-.2.6,4.78,4.78,0,0,0-.07.92v.6a3.69,3.69,0,0,0,.08.81,1.36,1.36,0,0,0,.26.54,1.12,1.12,0,0,0,.41.3A1.62,1.62,0,0,0,87,53a1.73,1.73,0,0,0,.81-.17,2.12,2.12,0,0,0,.6-.47l.6.84a2.19,2.19,0,0,1-.46.45,2.79,2.79,0,0,1-.69.36A3,3,0,0,1,86.91,54.12Zm4.63-5.24V54H90.18V47.66h1.3Zm1.53-1.26V49l-.26,0h-.25a1.07,1.07,0,0,0-.49.1,1,1,0,0,0-.35.29,1.57,1.57,0,0,0-.22.45,2.53,2.53,0,0,0-.09.6h-.29a6.4,6.4,0,0,1,.09-1.11,3.66,3.66,0,0,1,.28-.9,1.72,1.72,0,0,1,.48-.6,1.1,1.1,0,0,1,.67-.22l.24,0A.56.56,0,0,1,93.07,47.62ZM95.36,49v5H94V47.66h1.29Zm-.25,1.59h-.43a4.48,4.48,0,0,1,.14-1.25,3.27,3.27,0,0,1,.44-1,2,2,0,0,1,.68-.62,1.75,1.75,0,0,1,.88-.23,1.93,1.93,0,0,1,.69.13,1.26,1.26,0,0,1,.54.41,1.91,1.91,0,0,1,.34.73,4.35,4.35,0,0,1,.12,1.1V54H97.14V49.9a1.89,1.89,0,0,0-.1-.7.63.63,0,0,0-.28-.38.84.84,0,0,0-.47-.12.8.8,0,0,0-.49.16,1.14,1.14,0,0,0-.37.41,2.35,2.35,0,0,0-.24.6A3.4,3.4,0,0,0,95.11,50.6Zm7.71,2.11V49.55a1.25,1.25,0,0,0-.09-.52.55.55,0,0,0-.27-.29.87.87,0,0,0-.42-.1.85.85,0,0,0-.46.12.66.66,0,0,0-.27.3.88.88,0,0,0-.1.43H99.85a1.87,1.87,0,0,1,.15-.73,1.93,1.93,0,0,1,.45-.63,2.17,2.17,0,0,1,.71-.43,2.83,2.83,0,0,1,2,0,1.55,1.55,0,0,1,.74.65,2.16,2.16,0,0,1,.28,1.17v3a6,6,0,0,0,0,.78,2.89,2.89,0,0,0,.16.6V54H103a2.44,2.44,0,0,1-.14-.59A5.49,5.49,0,0,1,102.82,52.71Zm.18-2.57V51h-.66a1.42,1.42,0,0,0-.52.09,1,1,0,0,0-.4.22.94.94,0,0,0-.25.34,1.34,1.34,0,0,0-.08.46,1.3,1.3,0,0,0,.08.48.57.57,0,0,0,.25.28.88.88,0,0,0,.41.09,1.15,1.15,0,0,0,.57-.14,1.08,1.08,0,0,0,.38-.35.52.52,0,0,0,.1-.38l.31.57a1.91,1.91,0,0,1-.17.47,2.79,2.79,0,0,1-.32.47,1.6,1.6,0,0,1-.49.36,1.45,1.45,0,0,1-.65.14,2,2,0,0,1-.95-.23,1.64,1.64,0,0,1-.65-.63,2,2,0,0,1-.24-1,2.31,2.31,0,0,1,.16-.86,1.85,1.85,0,0,1,.47-.67,2.25,2.25,0,0,1,.78-.43,3.73,3.73,0,0,1,1.11-.15ZM106.94,49v5h-1.37V47.66h1.28Zm-.25,1.59h-.43a4.48,4.48,0,0,1,.14-1.25,3,3,0,0,1,.44-1,1.91,1.91,0,0,1,.68-.62,1.75,1.75,0,0,1,.88-.23,1.93,1.93,0,0,1,.69.13,1.18,1.18,0,0,1,.53.41,1.77,1.77,0,0,1,.34.73,3.9,3.9,0,0,1,.13,1.1V54h-1.37V49.9a1.89,1.89,0,0,0-.1-.7.63.63,0,0,0-.28-.38.84.84,0,0,0-.47-.12.8.8,0,0,0-.49.16,1.14,1.14,0,0,0-.37.41,2,2,0,0,0-.24.6A3.4,3.4,0,0,0,106.69,50.6Zm7,2.37a.91.91,0,0,0,.47-.11.78.78,0,0,0,.33-.34,1.53,1.53,0,0,0,.14-.62h1.28a2.31,2.31,0,0,1-.31,1.17,2.14,2.14,0,0,1-.8.78,2.23,2.23,0,0,1-1.09.27,2.84,2.84,0,0,1-1.1-.2,2.15,2.15,0,0,1-.77-.59,2.65,2.65,0,0,1-.45-.94,4.92,4.92,0,0,1-.15-1.27v-.58a4.84,4.84,0,0,1,.15-1.26,2.7,2.7,0,0,1,.45-1,2,2,0,0,1,.77-.58,2.62,2.62,0,0,1,1.09-.21,2.37,2.37,0,0,1,1.16.28,2,2,0,0,1,.76.81,2.88,2.88,0,0,1,.29,1.31h-1.28a2,2,0,0,0-.13-.69,1,1,0,0,0-.31-.42.9.9,0,0,0-.51-.14,1,1,0,0,0-.55.13.83.83,0,0,0-.33.36,2.2,2.2,0,0,0-.15.59,5.86,5.86,0,0,0,0,.77v.58a6.18,6.18,0,0,0,0,.79,1.65,1.65,0,0,0,.15.58.83.83,0,0,0,.33.36A1.16,1.16,0,0,0,113.71,53Zm5.71,1.15a3.13,3.13,0,0,1-1.1-.18,2.11,2.11,0,0,1-.81-.56,2.21,2.21,0,0,1-.51-.9,3.92,3.92,0,0,1-.18-1.25v-.6a4.74,4.74,0,0,1,.18-1.39,2.74,2.74,0,0,1,.52-1,2.12,2.12,0,0,1,.77-.56,2.63,2.63,0,0,1,1-.18,2.57,2.57,0,0,1,1,.2,1.77,1.77,0,0,1,.72.58,2.52,2.52,0,0,1,.42,1,5.72,5.72,0,0,1,.14,1.31v.68h-4.11v-1h2.76v-.14a3.17,3.17,0,0,0-.1-.75,1,1,0,0,0-.31-.48.88.88,0,0,0-.57-.17,1,1,0,0,0-.47.1.78.78,0,0,0-.33.32,1.69,1.69,0,0,0-.2.6,4.78,4.78,0,0,0-.07.92v.6a3.17,3.17,0,0,0,.08.81,1.36,1.36,0,0,0,.26.54,1.12,1.12,0,0,0,.41.3,1.6,1.6,0,0,0,.56.09,1.74,1.74,0,0,0,.82-.17,2.12,2.12,0,0,0,.6-.47l.6.84a2.47,2.47,0,0,1-.46.45,2.7,2.7,0,0,1-.7.36A2.91,2.91,0,0,1,119.42,54.12ZM77.78,57.64,75.72,65H74.23l2.71-8.53h.92ZM79.43,65l-2.07-7.36-.1-1.17h.94L80.92,65Zm0-3.17V63h-4v-1.2ZM83,63.58l1.24-4.92h.86l-.17,1.51L83.69,65h-.77Zm-.52-4.92,1,4.94V65h-.85l-1.43-6.34Zm3.62,4.88L87,58.66h1.33L86.91,65h-.86Zm-.85-4.88,1.22,4.86L86.55,65h-.76l-1.26-4.83-.16-1.51Zm7,5.05V60.55a1.25,1.25,0,0,0-.09-.52.55.55,0,0,0-.27-.29.87.87,0,0,0-.42-.1.83.83,0,0,0-.46.12.74.74,0,0,0-.28.3,1,1,0,0,0-.09.43H89.23a1.88,1.88,0,0,1,.16-.73,1.93,1.93,0,0,1,.45-.63,2.17,2.17,0,0,1,.71-.43,2.65,2.65,0,0,1,.92-.16,2.68,2.68,0,0,1,1.09.21,1.55,1.55,0,0,1,.74.65,2.25,2.25,0,0,1,.28,1.17v3a4.65,4.65,0,0,0,0,.78,2.89,2.89,0,0,0,.16.6V65H92.4a2.44,2.44,0,0,1-.14-.59A5.49,5.49,0,0,1,92.21,63.71Zm.18-2.57V62h-.66a1.51,1.51,0,0,0-.53.09,1.07,1.07,0,0,0-.39.22.94.94,0,0,0-.25.34,1.34,1.34,0,0,0-.08.46,1.3,1.3,0,0,0,.08.48.57.57,0,0,0,.25.28.88.88,0,0,0,.41.09,1.15,1.15,0,0,0,.57-.14,1.17,1.17,0,0,0,.38-.35.52.52,0,0,0,.1-.38l.31.57a1.91,1.91,0,0,1-.17.47,2.36,2.36,0,0,1-.33.47,1.48,1.48,0,0,1-1.13.5,2,2,0,0,1-.95-.23,1.64,1.64,0,0,1-.65-.63,2,2,0,0,1-.24-1,2.31,2.31,0,0,1,.16-.86,1.85,1.85,0,0,1,.47-.67,2.25,2.25,0,0,1,.78-.43,3.68,3.68,0,0,1,1.11-.15Zm4-1.26V65H95V58.66h1.3Zm1.53-1.26V60l-.26,0h-.25a1.07,1.07,0,0,0-.49.1,1,1,0,0,0-.35.29,1.57,1.57,0,0,0-.22.45,2.53,2.53,0,0,0-.09.6h-.3a6.36,6.36,0,0,1,.1-1.11,3.28,3.28,0,0,1,.28-.9,1.72,1.72,0,0,1,.48-.6,1.1,1.1,0,0,1,.67-.22l.24,0A.56.56,0,0,1,97.87,58.62Zm4,5.06V56h1.36v9H102Zm-3.41-1.59v-.5a5.35,5.35,0,0,1,.15-1.35,2.68,2.68,0,0,1,.41-1,1.71,1.71,0,0,1,.66-.57,2.05,2.05,0,0,1,.87-.18,1.54,1.54,0,0,1,.82.22,1.78,1.78,0,0,1,.59.6,3.84,3.84,0,0,1,.38.94,7.83,7.83,0,0,1,.2,1.21v.69a7.79,7.79,0,0,1-.21,1.18,3.22,3.22,0,0,1-.38.92,1.92,1.92,0,0,1-.59.61,1.53,1.53,0,0,1-.81.21,1.93,1.93,0,0,1-.88-.2,1.85,1.85,0,0,1-.65-.57,2.7,2.7,0,0,1-.41-.94A5.21,5.21,0,0,1,98.47,62.09Zm1.37-.5v.5a5.17,5.17,0,0,0,.06.84,1.8,1.8,0,0,0,.19.58.83.83,0,0,0,.34.33,1.13,1.13,0,0,0,.51.11.94.94,0,0,0,.6-.19,1.13,1.13,0,0,0,.37-.51,2.55,2.55,0,0,0,.19-.71V61.17a2.62,2.62,0,0,0-.12-.57,1.57,1.57,0,0,0-.22-.47,1,1,0,0,0-.35-.31.89.89,0,0,0-.47-.12,1,1,0,0,0-.51.12.82.82,0,0,0-.34.35,1.88,1.88,0,0,0-.19.58A5.17,5.17,0,0,0,99.84,61.59Z"></path><path class="cls-4" d="M23.24,111.65H21v-.92h2.28a2.34,2.34,0,0,0,1.07-.21,1.25,1.25,0,0,0,.6-.58,1.84,1.84,0,0,0,.19-.86,1.77,1.77,0,0,0-.19-.82,1.33,1.33,0,0,0-.6-.62,2,2,0,0,0-1.07-.25h-2V115H20.09v-8.53h3.15a3.72,3.72,0,0,1,1.64.33,2.4,2.4,0,0,1,1,.93,2.59,2.59,0,0,1,.34,1.34,2.69,2.69,0,0,1-.34,1.4,2.26,2.26,0,0,1-1,.89A4,4,0,0,1,23.24,111.65Zm8.14,1.89v-4.88h1.09V115h-1Zm.2-1.34H32a4.81,4.81,0,0,1-.14,1.17,2.82,2.82,0,0,1-.42.93,2,2,0,0,1-.77.61,2.84,2.84,0,0,1-1.15.22,2.52,2.52,0,0,1-.85-.14,1.72,1.72,0,0,1-.66-.41,1.9,1.9,0,0,1-.43-.74,3.78,3.78,0,0,1-.14-1.08v-4.09h1.08v4.1a2.36,2.36,0,0,0,.09.71,1.27,1.27,0,0,0,.27.44.89.89,0,0,0,.37.22,1.31,1.31,0,0,0,.44.07,1.93,1.93,0,0,0,1.09-.27,1.46,1.46,0,0,0,.58-.72A2.71,2.71,0,0,0,31.58,112.2ZM35.21,110v5H34.12v-6.34h1ZM35,111.59l-.45,0a3.59,3.59,0,0,1,.19-1.2,2.94,2.94,0,0,1,.53-1,2.28,2.28,0,0,1,.81-.63,2.37,2.37,0,0,1,1-.23,2.76,2.76,0,0,1,.85.13,1.58,1.58,0,0,1,.64.4,1.79,1.79,0,0,1,.41.72,3.54,3.54,0,0,1,.14,1.06V115H38v-4.17a1.76,1.76,0,0,0-.15-.79.88.88,0,0,0-.43-.44,1.41,1.41,0,0,0-.69-.14,1.55,1.55,0,0,0-.74.17,1.68,1.68,0,0,0-.56.47,2.12,2.12,0,0,0-.37.68A2.45,2.45,0,0,0,35,111.59Zm5.83-2.93h1.09v7.1a2.42,2.42,0,0,1-.18,1,1.33,1.33,0,0,1-.56.61,1.79,1.79,0,0,1-.92.21l-.33,0a2,2,0,0,1-.34-.07v-.87l.25,0a1.06,1.06,0,0,0,.24,0,.83.83,0,0,0,.41-.09.57.57,0,0,0,.25-.28,1.43,1.43,0,0,0,.08-.51ZM40.67,107a.64.64,0,0,1,.17-.45.6.6,0,0,1,.47-.18.62.62,0,0,1,.48.18A.64.64,0,0,1,42,107a.6.6,0,0,1-.65.61.6.6,0,0,1-.47-.18A.61.61,0,0,1,40.67,107Zm6.69,6.94v-3.27a1.36,1.36,0,0,0-.15-.65,1,1,0,0,0-.44-.43,1.65,1.65,0,0,0-.74-.15,1.6,1.6,0,0,0-.72.14,1.07,1.07,0,0,0-.48.37.75.75,0,0,0-.17.49H43.57a1.44,1.44,0,0,1,.18-.68,2,2,0,0,1,.5-.6,2.45,2.45,0,0,1,.8-.43,3.11,3.11,0,0,1,1-.17,2.92,2.92,0,0,1,1.22.24,1.75,1.75,0,0,1,.83.71,2,2,0,0,1,.31,1.17v3a4,4,0,0,0,0,.67,3.07,3.07,0,0,0,.17.62V115H47.54a1.71,1.71,0,0,1-.13-.5A4.13,4.13,0,0,1,47.36,113.92Zm.19-2.76v.76H46.47a4.15,4.15,0,0,0-.83.07,2,2,0,0,0-.61.22,1,1,0,0,0-.37.37.92.92,0,0,0-.13.51,1.14,1.14,0,0,0,.13.55,1,1,0,0,0,.41.39,1.48,1.48,0,0,0,.67.14,1.79,1.79,0,0,0,.88-.21,1.91,1.91,0,0,0,.6-.52,1,1,0,0,0,.25-.59l.46.52a1.62,1.62,0,0,1-.22.55,2.7,2.7,0,0,1-1.2,1,2.3,2.3,0,0,1-.93.18,2.41,2.41,0,0,1-1.13-.26,1.88,1.88,0,0,1-.75-.67,1.81,1.81,0,0,1-.26-1,1.87,1.87,0,0,1,.2-.9,1.69,1.69,0,0,1,.57-.65,2.65,2.65,0,0,1,.9-.4,4.79,4.79,0,0,1,1.18-.13Zm2.6-5.16h1.09v7.77l-.1,1.23h-1Zm5.37,5.78v.12a5.15,5.15,0,0,1-.16,1.28,3.21,3.21,0,0,1-.48,1,2.3,2.3,0,0,1-.78.68,2.2,2.2,0,0,1-1.05.24,2.54,2.54,0,0,1-1.06-.21,2.11,2.11,0,0,1-.76-.6,3.17,3.17,0,0,1-.5-1,6.28,6.28,0,0,1-.25-1.25v-.54a6.24,6.24,0,0,1,.25-1.26,3.17,3.17,0,0,1,.5-1,2,2,0,0,1,.76-.61,2.46,2.46,0,0,1,1-.21,2.27,2.27,0,0,1,1.06.24,2.13,2.13,0,0,1,.78.65,3.16,3.16,0,0,1,.48,1A5.3,5.3,0,0,1,55.52,111.78Zm-1.09.12v-.12a4.13,4.13,0,0,0-.09-.89,2.33,2.33,0,0,0-.28-.74,1.46,1.46,0,0,0-.51-.51,1.55,1.55,0,0,0-.78-.18,1.58,1.58,0,0,0-.71.14,1.48,1.48,0,0,0-.51.38,2,2,0,0,0-.35.54,3.19,3.19,0,0,0-.19.62v1.41a2.92,2.92,0,0,0,.3.79,1.91,1.91,0,0,0,.58.62,1.58,1.58,0,0,0,.89.24,1.39,1.39,0,0,0,1.26-.68,2.29,2.29,0,0,0,.3-.73A4.19,4.19,0,0,0,54.43,111.9Zm7,2,1.63-5.22h.72l-.14,1L62,115h-.7Zm-1.09-5.22,1.39,5.27.1,1.07h-.74l-1.84-6.34Zm5,5.23,1.32-5.23h1.08L65.94,115h-.73ZM64,108.66l1.6,5.13.18,1.21h-.69l-1.71-5.31-.14-1Zm4.63,3.24v-.13a4.09,4.09,0,0,1,.2-1.28,3.19,3.19,0,0,1,.58-1,2.56,2.56,0,0,1,.91-.68,3,3,0,0,1,2.39,0,2.6,2.6,0,0,1,.92.68,3.19,3.19,0,0,1,.58,1,4.09,4.09,0,0,1,.2,1.28v.13a4,4,0,0,1-.2,1.27,3.35,3.35,0,0,1-.58,1,2.79,2.79,0,0,1-.91.68,2.86,2.86,0,0,1-1.2.24,2.92,2.92,0,0,1-1.2-.24,2.79,2.79,0,0,1-.91-.68,3.35,3.35,0,0,1-.58-1A4,4,0,0,1,68.6,111.9Zm1.09-.13v.13a3.27,3.27,0,0,0,.11.9,2.36,2.36,0,0,0,.33.74,1.7,1.7,0,0,0,.57.5,1.57,1.57,0,0,0,.79.19,1.6,1.6,0,0,0,1.34-.69,2.63,2.63,0,0,0,.34-.74,3.26,3.26,0,0,0,.12-.9v-.13a3.19,3.19,0,0,0-.12-.89,2.4,2.4,0,0,0-.34-.74,1.74,1.74,0,0,0-.56-.52,1.68,1.68,0,0,0-.79-.19,1.61,1.61,0,0,0-.78.19,1.77,1.77,0,0,0-.57.52,2.17,2.17,0,0,0-.33.74A3.19,3.19,0,0,0,69.69,111.77ZM76.82,110v5H75.73v-6.34h1Zm-.26,1.58-.45,0a3.87,3.87,0,0,1,.19-1.2,3.13,3.13,0,0,1,.53-1,2.47,2.47,0,0,1,.81-.63,2.41,2.41,0,0,1,1-.23,2.74,2.74,0,0,1,.84.13,1.58,1.58,0,0,1,.64.4,1.68,1.68,0,0,1,.41.72,3.54,3.54,0,0,1,.14,1.06V115H79.63v-4.17a1.76,1.76,0,0,0-.15-.79.86.86,0,0,0-.42-.44,1.47,1.47,0,0,0-.69-.14,1.52,1.52,0,0,0-.74.17,1.71,1.71,0,0,0-.57.47,2.12,2.12,0,0,0-.37.68A2.45,2.45,0,0,0,76.56,111.59ZM87,115H85.88v-7a2.51,2.51,0,0,1,.24-1.15,1.67,1.67,0,0,1,.72-.72,2.46,2.46,0,0,1,1.12-.24l.37,0,.38.07-.06.89-.28,0h-.31a1.27,1.27,0,0,0-.6.14,1,1,0,0,0-.37.4A1.42,1.42,0,0,0,87,108Zm1.35-6.34v.83H84.88v-.83Zm.92,3.24v-.13a3.82,3.82,0,0,1,.2-1.28,3,3,0,0,1,.57-1,2.56,2.56,0,0,1,.91-.68,2.89,2.89,0,0,1,1.2-.25,2.93,2.93,0,0,1,1.2.25,2.56,2.56,0,0,1,.91.68,3,3,0,0,1,.58,1,4.09,4.09,0,0,1,.2,1.28v.13a4,4,0,0,1-.2,1.27,3.16,3.16,0,0,1-.58,1,2.69,2.69,0,0,1-.91.68A2.84,2.84,0,0,1,90,114.2a3.14,3.14,0,0,1-.57-1A3.72,3.72,0,0,1,89.23,111.9Zm1.08-.13v.13a3.7,3.7,0,0,0,.11.9,2.63,2.63,0,0,0,.34.74,1.61,1.61,0,0,0,.57.5,1.72,1.72,0,0,0,1.57,0,1.67,1.67,0,0,0,.56-.5,2.36,2.36,0,0,0,.33-.74,3.26,3.26,0,0,0,.12-.9v-.13a3.19,3.19,0,0,0-.12-.89,2,2,0,0,0-.34-.74,1.64,1.64,0,0,0-.56-.52,1.61,1.61,0,0,0-.78-.19,1.68,1.68,0,0,0-.79.19,1.74,1.74,0,0,0-.56.52,2.4,2.4,0,0,0-.34.74A3.62,3.62,0,0,0,90.31,111.77Zm7.13-2.11V115H96.36v-6.34h1Zm2-1v1l-.26,0h-.27a1.9,1.9,0,0,0-.66.11,1.51,1.51,0,0,0-.49.33,1.45,1.45,0,0,0-.31.51,2.08,2.08,0,0,0-.15.63l-.31.17a4.55,4.55,0,0,1,.12-1.07,2.63,2.63,0,0,1,.35-.89,1.69,1.69,0,0,1,1.5-.84l.27,0Zm6.61,6.49a3.09,3.09,0,0,1-1.2-.23,2.79,2.79,0,0,1-.92-.63,2.83,2.83,0,0,1-.58-1,3.45,3.45,0,0,1-.21-1.23v-.24a3.91,3.91,0,0,1,.23-1.38,3,3,0,0,1,.62-1,2.62,2.62,0,0,1,.89-.64,2.48,2.48,0,0,1,1-.22,2.6,2.6,0,0,1,1.17.24,2,2,0,0,1,.82.65,2.84,2.84,0,0,1,.47,1,4.71,4.71,0,0,1,.15,1.23v.49h-4.73v-.89h3.65v-.08a2.87,2.87,0,0,0-.18-.82,1.43,1.43,0,0,0-.47-.66,1.38,1.38,0,0,0-.88-.26,1.58,1.58,0,0,0-.68.16,1.53,1.53,0,0,0-.53.46,2.42,2.42,0,0,0-.35.74,3.91,3.91,0,0,0-.12,1v.24a2.91,2.91,0,0,0,.12.85,2.29,2.29,0,0,0,.37.69,1.78,1.78,0,0,0,.59.47,1.74,1.74,0,0,0,.8.17,1.93,1.93,0,0,0,1-.23,2.46,2.46,0,0,0,.7-.63l.66.52a2.86,2.86,0,0,1-.52.59,2.48,2.48,0,0,1-.78.46A3,3,0,0,1,106,115.12Zm4.47-6.46,1.39,2.31,1.4-2.31h1.27l-2.07,3.13,2.14,3.21h-1.25l-1.47-2.38L110.44,115h-1.25l2.13-3.21-2.07-3.13Zm7.64,5.57a1.65,1.65,0,0,0,.71-.16,1.54,1.54,0,0,0,.54-.43,1.26,1.26,0,0,0,.24-.64h1a1.87,1.87,0,0,1-.38,1,2.52,2.52,0,0,1-.9.78,2.61,2.61,0,0,1-1.24.3,2.88,2.88,0,0,1-1.25-.26,2.37,2.37,0,0,1-.88-.69,3.17,3.17,0,0,1-.52-1,4.44,4.44,0,0,1-.17-1.22v-.24a4.31,4.31,0,0,1,.17-1.21,3.12,3.12,0,0,1,.52-1,2.51,2.51,0,0,1,.88-.7,3,3,0,0,1,1.25-.25,2.58,2.58,0,0,1,1.3.31,2.22,2.22,0,0,1,.87.82,2.3,2.3,0,0,1,.35,1.17h-1a1.56,1.56,0,0,0-.22-.71,1.32,1.32,0,0,0-.52-.5,1.4,1.4,0,0,0-.75-.2,1.68,1.68,0,0,0-.84.2,1.5,1.5,0,0,0-.53.53,2.22,2.22,0,0,0-.28.73,3.75,3.75,0,0,0-.09.82V112a3.75,3.75,0,0,0,.09.82,2.26,2.26,0,0,0,.27.74,1.55,1.55,0,0,0,.53.52A1.7,1.7,0,0,0,118.14,114.23Zm6.37.89a3.09,3.09,0,0,1-1.2-.23,2.79,2.79,0,0,1-.92-.63,2.83,2.83,0,0,1-.58-1,3.45,3.45,0,0,1-.21-1.23v-.24a3.91,3.91,0,0,1,.23-1.38,3,3,0,0,1,.62-1,2.62,2.62,0,0,1,.89-.64,2.48,2.48,0,0,1,1-.22,2.6,2.6,0,0,1,1.17.24,2,2,0,0,1,.82.65,2.84,2.84,0,0,1,.47,1,4.71,4.71,0,0,1,.15,1.23v.49h-4.73v-.89h3.65v-.08a2.87,2.87,0,0,0-.18-.82,1.43,1.43,0,0,0-.47-.66,1.38,1.38,0,0,0-.88-.26,1.58,1.58,0,0,0-.68.16,1.53,1.53,0,0,0-.53.46,2.42,2.42,0,0,0-.35.74,3.91,3.91,0,0,0-.12,1v.24a2.91,2.91,0,0,0,.12.85,2.29,2.29,0,0,0,.37.69,1.72,1.72,0,0,0,.6.47,1.7,1.7,0,0,0,.79.17,1.91,1.91,0,0,0,1-.23,2.46,2.46,0,0,0,.7-.63l.66.52a2.86,2.86,0,0,1-.52.59,2.48,2.48,0,0,1-.78.46A3,3,0,0,1,124.51,115.12Zm4.91-9.12v9h-1.09v-9Zm2.92,0v9h-1.09v-9Zm4.37,9.12a3.09,3.09,0,0,1-1.2-.23,2.79,2.79,0,0,1-.92-.63,2.83,2.83,0,0,1-.58-1,3.45,3.45,0,0,1-.21-1.23v-.24a3.91,3.91,0,0,1,.23-1.38,3,3,0,0,1,.62-1,2.62,2.62,0,0,1,.89-.64,2.48,2.48,0,0,1,1-.22,2.63,2.63,0,0,1,1.17.24,2,2,0,0,1,.82.65,2.84,2.84,0,0,1,.47,1,4.71,4.71,0,0,1,.15,1.23v.49h-4.73v-.89h3.65v-.08a2.87,2.87,0,0,0-.18-.82,1.43,1.43,0,0,0-.47-.66,1.38,1.38,0,0,0-.88-.26,1.58,1.58,0,0,0-.68.16,1.53,1.53,0,0,0-.53.46,2.42,2.42,0,0,0-.35.74,3.91,3.91,0,0,0-.12,1v.24a2.91,2.91,0,0,0,.12.85,2.29,2.29,0,0,0,.37.69,1.72,1.72,0,0,0,.6.47,1.7,1.7,0,0,0,.79.17,1.93,1.93,0,0,0,1-.23,2.46,2.46,0,0,0,.7-.63l.66.52a2.86,2.86,0,0,1-.52.59,2.6,2.6,0,0,1-.78.46A3,3,0,0,1,136.71,115.12Zm4.82-5.11v5h-1.08v-6.34h1Zm-.26,1.58-.45,0a3.87,3.87,0,0,1,.19-1.2,3.13,3.13,0,0,1,.53-1,2.38,2.38,0,0,1,1.86-.86,2.74,2.74,0,0,1,.84.13,1.52,1.52,0,0,1,.64.4,1.68,1.68,0,0,1,.41.72,3.54,3.54,0,0,1,.14,1.06V115h-1.09v-4.17a1.93,1.93,0,0,0-.14-.79.88.88,0,0,0-.43-.44,1.47,1.47,0,0,0-.69-.14,1.52,1.52,0,0,0-.74.17,1.71,1.71,0,0,0-.57.47,2.12,2.12,0,0,0-.37.68A2.45,2.45,0,0,0,141.27,111.59Zm8.35,2.64a1.71,1.71,0,0,0,.71-.16,1.54,1.54,0,0,0,.54-.43,1.26,1.26,0,0,0,.24-.64h1a2,2,0,0,1-.38,1,2.48,2.48,0,0,1-.91.78,2.57,2.57,0,0,1-1.23.3,2.84,2.84,0,0,1-1.25-.26,2.3,2.3,0,0,1-.88-.69,3,3,0,0,1-.52-1,4.09,4.09,0,0,1-.17-1.22v-.24a4,4,0,0,1,.17-1.21,2.94,2.94,0,0,1,.52-1,2.42,2.42,0,0,1,.88-.7,3,3,0,0,1,1.25-.25,2.63,2.63,0,0,1,1.3.31,2.22,2.22,0,0,1,.87.82,2.4,2.4,0,0,1,.35,1.17h-1a1.56,1.56,0,0,0-.22-.71,1.39,1.39,0,0,0-.52-.5,1.42,1.42,0,0,0-.75-.2,1.63,1.63,0,0,0-.84.2,1.52,1.52,0,0,0-.54.53,2.77,2.77,0,0,0-.28.73,4.47,4.47,0,0,0-.08.82V112a4.47,4.47,0,0,0,.08.82,2.52,2.52,0,0,0,.28.74,1.55,1.55,0,0,0,.53.52A1.7,1.7,0,0,0,149.62,114.23Zm6.37.89a3.09,3.09,0,0,1-1.2-.23,2.69,2.69,0,0,1-.92-.63,3,3,0,0,1-.59-1,3.69,3.69,0,0,1-.2-1.23v-.24a3.7,3.7,0,0,1,.23-1.38,3,3,0,0,1,.62-1,2.62,2.62,0,0,1,.89-.64,2.45,2.45,0,0,1,1-.22,2.66,2.66,0,0,1,1.17.24,2.18,2.18,0,0,1,.82.65,2.82,2.82,0,0,1,.46,1,4.31,4.31,0,0,1,.16,1.23v.49h-4.74v-.89h3.65v-.08a2.55,2.55,0,0,0-.17-.82,1.51,1.51,0,0,0-.47-.66,1.4,1.4,0,0,0-.88-.26,1.55,1.55,0,0,0-.68.16,1.45,1.45,0,0,0-.53.46,2.21,2.21,0,0,0-.35.74,3.91,3.91,0,0,0-.12,1v.24a2.91,2.91,0,0,0,.12.85,2.29,2.29,0,0,0,.37.69,1.68,1.68,0,0,0,.59.47,1.74,1.74,0,0,0,.8.17,1.93,1.93,0,0,0,1-.23,2.46,2.46,0,0,0,.7-.63l.66.52a2.92,2.92,0,0,1-.53.59,2.48,2.48,0,0,1-.78.46A2.91,2.91,0,0,1,156,115.12ZM21.8,122.66V129H20.71v-6.34ZM20.63,121a.64.64,0,0,1,.16-.45.59.59,0,0,1,.48-.18.61.61,0,0,1,.47.18.64.64,0,0,1,.17.45.6.6,0,0,1-.64.61.59.59,0,0,1-.48-.18A.6.6,0,0,1,20.63,121Zm4,3v5H23.54v-6.34h1Zm-.25,1.58-.46,0a3.87,3.87,0,0,1,.2-1.2,3.11,3.11,0,0,1,.52-1,2.38,2.38,0,0,1,1.86-.86,2.81,2.81,0,0,1,.85.13,1.48,1.48,0,0,1,.63.4,1.68,1.68,0,0,1,.41.72,3.22,3.22,0,0,1,.15,1.06V129H27.44v-4.17a1.76,1.76,0,0,0-.15-.79.88.88,0,0,0-.43-.44,1.47,1.47,0,0,0-.69-.14,1.52,1.52,0,0,0-.74.17,1.71,1.71,0,0,0-.57.47,2.33,2.33,0,0,0-.37.68A2.74,2.74,0,0,0,24.37,125.59Zm12.89-2.93h1v6.21a2.77,2.77,0,0,1-.34,1.42,2.17,2.17,0,0,1-.95.9,3,3,0,0,1-1.39.31,3.47,3.47,0,0,1-.78-.1,3.31,3.31,0,0,1-.86-.35,2.11,2.11,0,0,1-.71-.65l.57-.64a2.16,2.16,0,0,0,.83.66,2.09,2.09,0,0,0,.86.19,1.93,1.93,0,0,0,.9-.19,1.35,1.35,0,0,0,.58-.58,1.84,1.84,0,0,0,.21-.92v-4.86Zm-4.37,3.24v-.12a4.86,4.86,0,0,1,.17-1.32,3.19,3.19,0,0,1,.5-1,2.28,2.28,0,0,1,1.83-.89,2.46,2.46,0,0,1,1,.21,2,2,0,0,1,.76.61,3.17,3.17,0,0,1,.5,1,6.24,6.24,0,0,1,.25,1.26v.54a6.28,6.28,0,0,1-.25,1.25,3.17,3.17,0,0,1-.5,1,2.11,2.11,0,0,1-.76.6,2.54,2.54,0,0,1-1.06.21,2.2,2.2,0,0,1-1-.24,2.33,2.33,0,0,1-.79-.68,3.47,3.47,0,0,1-.5-1A4.72,4.72,0,0,1,32.89,125.9Zm1.08-.12v.12a4.18,4.18,0,0,0,.1.89,2.08,2.08,0,0,0,.3.73,1.46,1.46,0,0,0,.52.5,1.49,1.49,0,0,0,.75.18,1.67,1.67,0,0,0,.9-.23,1.62,1.62,0,0,0,.55-.61,3.62,3.62,0,0,0,.33-.81v-1.41a2.64,2.64,0,0,0-.2-.62,2,2,0,0,0-.34-.54,1.48,1.48,0,0,0-.51-.38,1.58,1.58,0,0,0-.71-.14,1.54,1.54,0,0,0-.77.18,1.49,1.49,0,0,0-.52.51,2.13,2.13,0,0,0-.3.74A4.11,4.11,0,0,0,34,125.78Zm5.63.12v-.13a4.09,4.09,0,0,1,.2-1.28,3,3,0,0,1,.57-1,2.65,2.65,0,0,1,.91-.68,3,3,0,0,1,2.4,0,2.56,2.56,0,0,1,.91.68,2.86,2.86,0,0,1,.58,1,4.09,4.09,0,0,1,.2,1.28v.13a4,4,0,0,1-.2,1.27,3,3,0,0,1-.58,1,2.69,2.69,0,0,1-.91.68,2.84,2.84,0,0,1-3.31-.68,3.14,3.14,0,0,1-.57-1A4,4,0,0,1,39.6,125.9Zm1.08-.13v.13a3.7,3.7,0,0,0,.11.9,2.63,2.63,0,0,0,.34.74,1.61,1.61,0,0,0,.57.5,1.72,1.72,0,0,0,1.57,0,1.67,1.67,0,0,0,.56-.5,2.36,2.36,0,0,0,.33-.74,3.26,3.26,0,0,0,.12-.9v-.13a3.19,3.19,0,0,0-.12-.89,2,2,0,0,0-.34-.74,1.55,1.55,0,0,0-.56-.52,1.61,1.61,0,0,0-.78-.19,1.68,1.68,0,0,0-.79.19,1.74,1.74,0,0,0-.56.52,2.4,2.4,0,0,0-.34.74A3.62,3.62,0,0,0,40.68,125.77ZM48.56,128l1.74-5.36h1.11L49.13,129H48.4Zm-1.44-5.36,1.78,5.39L49,129H48.3L46,122.66ZM55,129.12a3.29,3.29,0,0,1-1.2-.22,2.76,2.76,0,0,1-.92-.64,2.85,2.85,0,0,1-.59-1,3.45,3.45,0,0,1-.2-1.23v-.24a3.92,3.92,0,0,1,.22-1.38,3,3,0,0,1,.63-1,2.53,2.53,0,0,1,.89-.64,2.45,2.45,0,0,1,1-.22,2.66,2.66,0,0,1,1.17.24,2.07,2.07,0,0,1,.81.65,2.84,2.84,0,0,1,.47,1,4.71,4.71,0,0,1,.15,1.23v.49H52.73v-.89h3.65v-.08a2.55,2.55,0,0,0-.17-.82,1.51,1.51,0,0,0-.47-.66,1.4,1.4,0,0,0-.88-.26,1.51,1.51,0,0,0-.68.16,1.48,1.48,0,0,0-.54.46,2.41,2.41,0,0,0-.34.74,3.91,3.91,0,0,0-.12,1v.24a2.91,2.91,0,0,0,.12.85,2.09,2.09,0,0,0,.37.69,1.68,1.68,0,0,0,.59.47,1.71,1.71,0,0,0,.8.17,2,2,0,0,0,1-.23,2.6,2.6,0,0,0,.7-.63l.65.52a2.59,2.59,0,0,1-.52.59,2.48,2.48,0,0,1-.78.46A2.91,2.91,0,0,1,55,129.12Zm4.81-5.46V129H58.73v-6.34h1.06Zm2-1v1l-.26,0h-.27a1.9,1.9,0,0,0-.66.11,1.51,1.51,0,0,0-.49.33,1.62,1.62,0,0,0-.31.51,2.08,2.08,0,0,0-.15.63l-.3.17a4.57,4.57,0,0,1,.11-1.07,2.85,2.85,0,0,1,.35-.89,1.69,1.69,0,0,1,1.5-.84l.27,0A.68.68,0,0,1,61.79,122.63ZM63.88,124v5H62.8v-6.34h1Zm-.26,1.58-.45,0a3.87,3.87,0,0,1,.2-1.2,3.11,3.11,0,0,1,.52-1,2.38,2.38,0,0,1,1.86-.86,2.74,2.74,0,0,1,.84.13,1.52,1.52,0,0,1,.64.4,1.68,1.68,0,0,1,.41.72,3.24,3.24,0,0,1,.14,1.06V129H66.69v-4.17a1.93,1.93,0,0,0-.14-.79.88.88,0,0,0-.43-.44,1.47,1.47,0,0,0-.69-.14,1.52,1.52,0,0,0-.74.17,1.71,1.71,0,0,0-.57.47,2.12,2.12,0,0,0-.37.68A2.75,2.75,0,0,0,63.62,125.59Zm6.89-1.67V129H69.42v-6.34h1Zm-.22,1.67-.51,0a4.57,4.57,0,0,1,.17-1.2,2.86,2.86,0,0,1,.49-1,2.16,2.16,0,0,1,.8-.63,2.59,2.59,0,0,1,1.11-.23,2.66,2.66,0,0,1,.82.13,1.66,1.66,0,0,1,1.08,1.09,3,3,0,0,1,.15,1V129H73.32v-4.17a1.67,1.67,0,0,0-.17-.8,1,1,0,0,0-.47-.43,1.58,1.58,0,0,0-.71-.14,1.67,1.67,0,0,0-.81.17,1.35,1.35,0,0,0-.51.47,2,2,0,0,0-.28.68A3.59,3.59,0,0,0,70.29,125.59Zm4.1-.6-.72.22a3.09,3.09,0,0,1,.17-1,2.64,2.64,0,0,1,.48-.85,2.31,2.31,0,0,1,.79-.59,2.48,2.48,0,0,1,1.08-.23,2.74,2.74,0,0,1,.9.14,1.63,1.63,0,0,1,1.08,1.12,3.21,3.21,0,0,1,.14,1V129H77.22v-4.18a1.57,1.57,0,0,0-.17-.82.88.88,0,0,0-.47-.42,1.88,1.88,0,0,0-.71-.12,1.54,1.54,0,0,0-.63.12,1.35,1.35,0,0,0-.47.34,1.39,1.39,0,0,0-.28.49A1.61,1.61,0,0,0,74.39,125Zm8.19,4.13a3.29,3.29,0,0,1-1.2-.22,3,3,0,0,1-.92-.64,2.83,2.83,0,0,1-.58-1,3.45,3.45,0,0,1-.21-1.23v-.24a3.91,3.91,0,0,1,.23-1.38,3,3,0,0,1,.62-1,2.62,2.62,0,0,1,.89-.64,2.48,2.48,0,0,1,1-.22,2.67,2.67,0,0,1,1.18.24,2.07,2.07,0,0,1,.81.65,2.84,2.84,0,0,1,.47,1,4.71,4.71,0,0,1,.15,1.23v.49H80.32v-.89H84v-.08a2.87,2.87,0,0,0-.18-.82,1.43,1.43,0,0,0-.47-.66,1.38,1.38,0,0,0-.88-.26,1.58,1.58,0,0,0-.68.16,1.53,1.53,0,0,0-.53.46,2.42,2.42,0,0,0-.35.74,3.91,3.91,0,0,0-.12,1v.24a2.91,2.91,0,0,0,.12.85,2.29,2.29,0,0,0,.37.69,1.82,1.82,0,0,0,.6.47,1.7,1.7,0,0,0,.79.17,2,2,0,0,0,1-.23,2.57,2.57,0,0,0,.69-.63l.66.52a2.86,2.86,0,0,1-.52.59,2.48,2.48,0,0,1-.78.46A3,3,0,0,1,82.58,129.12ZM87.4,124v5H86.32v-6.34h1Zm-.26,1.58-.45,0a4.19,4.19,0,0,1,.19-1.2,3.36,3.36,0,0,1,.53-1,2.38,2.38,0,0,1,1.86-.86,2.74,2.74,0,0,1,.84.13,1.52,1.52,0,0,1,.64.4,1.68,1.68,0,0,1,.41.72,3.24,3.24,0,0,1,.14,1.06V129H90.21v-4.17a1.93,1.93,0,0,0-.14-.79.88.88,0,0,0-.43-.44,1.47,1.47,0,0,0-.69-.14,1.52,1.52,0,0,0-.74.17,1.71,1.71,0,0,0-.57.47,2.12,2.12,0,0,0-.37.68A2.75,2.75,0,0,0,87.14,125.59Zm8.46-2.93v.83H92.18v-.83Zm-2.26-1.54h1.08v6.31a.94.94,0,0,0,.1.49.48.48,0,0,0,.26.21.93.93,0,0,0,.34.06l.28,0,.23,0V129a2.92,2.92,0,0,1-.34.08,3.26,3.26,0,0,1-.5,0,1.81,1.81,0,0,1-.73-.16,1.18,1.18,0,0,1-.53-.53,2.19,2.19,0,0,1-.19-1Zm7.6,2.76v7.56H99.85v-8.78h1Zm4.27,1.9v.12a4.72,4.72,0,0,1-.17,1.28,3.21,3.21,0,0,1-.48,1,2.1,2.1,0,0,1-.77.68,2.19,2.19,0,0,1-1,.24,2.72,2.72,0,0,1-1.07-.2,2.16,2.16,0,0,1-.79-.58,3.13,3.13,0,0,1-.51-.92,5.06,5.06,0,0,1-.26-1.2v-.65a5.59,5.59,0,0,1,.27-1.26,3,3,0,0,1,.5-1,2.18,2.18,0,0,1,.78-.61,2.54,2.54,0,0,1,1.06-.21,2.27,2.27,0,0,1,1.06.24,2.13,2.13,0,0,1,.78.65,3,3,0,0,1,.47,1A4.86,4.86,0,0,1,105.21,125.78Zm-1.09.12v-.12a4.11,4.11,0,0,0-.1-.89,2.36,2.36,0,0,0-.31-.74,1.61,1.61,0,0,0-.53-.51,1.8,1.8,0,0,0-1.48,0,1.48,1.48,0,0,0-.51.38,2,2,0,0,0-.35.54,3.19,3.19,0,0,0-.19.62v1.52a3.51,3.51,0,0,0,.33.77,1.73,1.73,0,0,0,.56.58,1.69,1.69,0,0,0,.88.22,1.41,1.41,0,0,0,.76-.19,1.58,1.58,0,0,0,.53-.5,2.57,2.57,0,0,0,.31-.74A4.28,4.28,0,0,0,104.12,125.9Zm3.55-2.24V129h-1.08v-6.34h1Zm2-1v1l-.26,0h-.27a1.9,1.9,0,0,0-.66.11,1.51,1.51,0,0,0-.49.33,1.45,1.45,0,0,0-.31.51,2.08,2.08,0,0,0-.15.63l-.3.17a4.57,4.57,0,0,1,.11-1.07,2.63,2.63,0,0,1,.35-.89,1.69,1.69,0,0,1,1.5-.84l.27,0Zm.6,3.27v-.13a4.09,4.09,0,0,1,.2-1.28,3,3,0,0,1,.58-1,2.62,2.62,0,0,1,.9-.68,3,3,0,0,1,2.4,0,2.56,2.56,0,0,1,.91.68,2.86,2.86,0,0,1,.58,1,3.82,3.82,0,0,1,.2,1.28v.13a3.72,3.72,0,0,1-.2,1.27,3,3,0,0,1-.58,1,2.75,2.75,0,0,1-.9.68,2.89,2.89,0,0,1-1.2.24,2.86,2.86,0,0,1-1.2-.24,2.69,2.69,0,0,1-.91-.68,3.16,3.16,0,0,1-.58-1A4,4,0,0,1,110.25,125.9Zm1.09-.13v.13a3.27,3.27,0,0,0,.11.9,2.36,2.36,0,0,0,.33.74,1.61,1.61,0,0,0,.57.5,1.57,1.57,0,0,0,.79.19,1.5,1.5,0,0,0,.78-.19,1.58,1.58,0,0,0,.56-.5,2.63,2.63,0,0,0,.34-.74,3.7,3.7,0,0,0,.11-.9v-.13a3.62,3.62,0,0,0-.11-.89,2.4,2.4,0,0,0-.34-.74,1.67,1.67,0,0,0-.57-.52,1.61,1.61,0,0,0-.78-.19,1.68,1.68,0,0,0-.79.19,1.74,1.74,0,0,0-.56.52,2.17,2.17,0,0,0-.33.74A3.19,3.19,0,0,0,111.34,125.77Zm8.58,2.46a1.73,1.73,0,0,0,.72-.16,1.6,1.6,0,0,0,.53-.43,1.26,1.26,0,0,0,.24-.64h1a1.8,1.8,0,0,1-.38,1,2.43,2.43,0,0,1-.9.78,2.61,2.61,0,0,1-1.24.3,3,3,0,0,1-1.25-.25,2.51,2.51,0,0,1-.88-.7,3.17,3.17,0,0,1-.52-1,4.44,4.44,0,0,1-.17-1.22v-.24a4.31,4.31,0,0,1,.17-1.21,3.12,3.12,0,0,1,.52-1,2.51,2.51,0,0,1,.88-.7,3,3,0,0,1,1.25-.25,2.58,2.58,0,0,1,1.3.31,2.33,2.33,0,0,1,1.22,2h-1a1.56,1.56,0,0,0-.22-.71,1.36,1.36,0,0,0-.51-.5,1.46,1.46,0,0,0-.76-.2,1.68,1.68,0,0,0-.84.2,1.5,1.5,0,0,0-.53.53,2.46,2.46,0,0,0-.28.73,3.74,3.74,0,0,0-.08.82V126a3.74,3.74,0,0,0,.08.82,2.26,2.26,0,0,0,.27.74,1.58,1.58,0,0,0,.54.52A1.63,1.63,0,0,0,119.92,128.23Zm6.37.89a3.29,3.29,0,0,1-1.2-.22,3,3,0,0,1-.92-.64,2.83,2.83,0,0,1-.58-1,3.45,3.45,0,0,1-.21-1.23v-.24a3.91,3.91,0,0,1,.23-1.38,3,3,0,0,1,.62-1,2.62,2.62,0,0,1,.89-.64,2.51,2.51,0,0,1,1-.22,2.67,2.67,0,0,1,1.18.24,2.07,2.07,0,0,1,.81.65,2.84,2.84,0,0,1,.47,1,4.71,4.71,0,0,1,.15,1.23v.49H124v-.89h3.65v-.08a2.87,2.87,0,0,0-.18-.82,1.43,1.43,0,0,0-.47-.66,1.36,1.36,0,0,0-.88-.26,1.58,1.58,0,0,0-.68.16,1.53,1.53,0,0,0-.53.46,2.2,2.2,0,0,0-.34.74,3.51,3.51,0,0,0-.13,1v.24a2.61,2.61,0,0,0,.13.85,2.26,2.26,0,0,0,.36.69,1.82,1.82,0,0,0,.6.47,1.7,1.7,0,0,0,.79.17,2,2,0,0,0,1-.23,2.57,2.57,0,0,0,.69-.63l.66.52a2.86,2.86,0,0,1-.52.59,2.48,2.48,0,0,1-.78.46A3,3,0,0,1,126.29,129.12Zm7.43-1.8a.89.89,0,0,0-.11-.43.84.84,0,0,0-.41-.37,3.46,3.46,0,0,0-.94-.3,7.38,7.38,0,0,1-1-.26,3,3,0,0,1-.72-.37,1.67,1.67,0,0,1-.45-.51,1.47,1.47,0,0,1-.15-.69,1.53,1.53,0,0,1,.16-.7,1.92,1.92,0,0,1,.47-.6,2.44,2.44,0,0,1,.75-.4,2.93,2.93,0,0,1,1-.15,2.84,2.84,0,0,1,1.3.27,2,2,0,0,1,.83.72,1.82,1.82,0,0,1,.29,1h-1.09a1,1,0,0,0-.15-.51,1.24,1.24,0,0,0-.46-.41,1.42,1.42,0,0,0-.72-.17,1.69,1.69,0,0,0-.73.14.93.93,0,0,0-.4.35.8.8,0,0,0-.13.44.79.79,0,0,0,.06.32.68.68,0,0,0,.23.25,1.39,1.39,0,0,0,.44.21,5.26,5.26,0,0,0,.73.2,5.88,5.88,0,0,1,1.29.43,1.92,1.92,0,0,1,.75.6,1.53,1.53,0,0,1,.24.87,1.76,1.76,0,0,1-.17.76,1.79,1.79,0,0,1-.5.6,2.47,2.47,0,0,1-.78.38,3.35,3.35,0,0,1-1,.14,3,3,0,0,1-1.41-.3,2.17,2.17,0,0,1-.88-.78,1.83,1.83,0,0,1-.3-1h1.09a1.1,1.1,0,0,0,.25.71,1.32,1.32,0,0,0,.58.37,2.29,2.29,0,0,0,.67.11,2,2,0,0,0,.75-.12,1.08,1.08,0,0,0,.46-.32A.74.74,0,0,0,133.72,127.32Zm6.2,0a.89.89,0,0,0-.11-.43.84.84,0,0,0-.41-.37,3.46,3.46,0,0,0-.94-.3,7.38,7.38,0,0,1-1-.26,3,3,0,0,1-.72-.37,1.67,1.67,0,0,1-.45-.51,1.46,1.46,0,0,1-.16-.69,1.54,1.54,0,0,1,.17-.7,1.92,1.92,0,0,1,.47-.6,2.44,2.44,0,0,1,.75-.4,2.93,2.93,0,0,1,1-.15,2.87,2.87,0,0,1,1.3.27,2,2,0,0,1,.83.72,1.82,1.82,0,0,1,.29,1h-1.09a1,1,0,0,0-.15-.51,1.32,1.32,0,0,0-.46-.41,1.42,1.42,0,0,0-.72-.17,1.69,1.69,0,0,0-.73.14.93.93,0,0,0-.4.35.8.8,0,0,0-.13.44.79.79,0,0,0,.06.32.74.74,0,0,0,.22.25,1.58,1.58,0,0,0,.45.21,5.26,5.26,0,0,0,.73.2,5.88,5.88,0,0,1,1.29.43,1.92,1.92,0,0,1,.75.6,1.53,1.53,0,0,1,.24.87,1.76,1.76,0,0,1-.17.76,1.79,1.79,0,0,1-.5.6,2.58,2.58,0,0,1-.78.38,3.4,3.4,0,0,1-1,.14,3.07,3.07,0,0,1-1.42-.3,2.21,2.21,0,0,1-.87-.78,1.83,1.83,0,0,1-.3-1h1.09a1.1,1.1,0,0,0,.25.71,1.32,1.32,0,0,0,.58.37,2.24,2.24,0,0,0,.67.11,2,2,0,0,0,.75-.12,1.15,1.15,0,0,0,.46-.32A.74.74,0,0,0,139.92,127.32Zm6.57-3.66V129H145.4v-6.34h1.06Zm2-1v1a1.15,1.15,0,0,0-.26,0h-.27a1.9,1.9,0,0,0-.66.11,1.37,1.37,0,0,0-.48.33,1.48,1.48,0,0,0-.32.51,2.91,2.91,0,0,0-.15.63l-.3.17a4.57,4.57,0,0,1,.11-1.07,2.86,2.86,0,0,1,.36-.89,1.62,1.62,0,0,1,.61-.61,1.68,1.68,0,0,1,.89-.23l.27,0Zm3.51,6.49a3.29,3.29,0,0,1-1.2-.22,3,3,0,0,1-.92-.64,3,3,0,0,1-.59-1,3.69,3.69,0,0,1-.2-1.23v-.24a3.91,3.91,0,0,1,.23-1.38,3,3,0,0,1,.62-1,2.62,2.62,0,0,1,.89-.64,2.48,2.48,0,0,1,1-.22,2.63,2.63,0,0,1,1.17.24,2,2,0,0,1,.82.65,2.84,2.84,0,0,1,.47,1,4.71,4.71,0,0,1,.15,1.23v.49h-4.74v-.89h3.66v-.08a2.87,2.87,0,0,0-.18-.82,1.43,1.43,0,0,0-.47-.66,1.38,1.38,0,0,0-.88-.26,1.58,1.58,0,0,0-.68.16,1.53,1.53,0,0,0-.53.46,2.42,2.42,0,0,0-.35.74,3.91,3.91,0,0,0-.12,1v.24a2.91,2.91,0,0,0,.12.85,2.29,2.29,0,0,0,.37.69,1.78,1.78,0,0,0,.59.47,1.74,1.74,0,0,0,.8.17,1.93,1.93,0,0,0,1-.23,2.46,2.46,0,0,0,.7-.63l.66.52a2.86,2.86,0,0,1-.52.59,2.6,2.6,0,0,1-.78.46A3,3,0,0,1,152,129.12Zm6-4.19v.89h-2.86v-.89ZM34.4,143.12a3.25,3.25,0,0,1-1.2-.22,2.76,2.76,0,0,1-.92-.64,2.85,2.85,0,0,1-.59-1,3.45,3.45,0,0,1-.21-1.23v-.24a3.91,3.91,0,0,1,.23-1.38,3.18,3.18,0,0,1,.62-1,2.62,2.62,0,0,1,1.93-.86,2.66,2.66,0,0,1,1.17.24,2.07,2.07,0,0,1,.81.65,2.84,2.84,0,0,1,.47,1,4.71,4.71,0,0,1,.15,1.23v.48H32.13v-.88h3.65v-.08a2.57,2.57,0,0,0-.18-.82,1.37,1.37,0,0,0-.47-.66,1.35,1.35,0,0,0-.87-.26,1.51,1.51,0,0,0-.68.16,1.48,1.48,0,0,0-.54.46,2.2,2.2,0,0,0-.34.74,3.89,3.89,0,0,0-.13,1v.24a2.91,2.91,0,0,0,.13.85,2,2,0,0,0,.37.69,1.68,1.68,0,0,0,.59.47,1.71,1.71,0,0,0,.8.17,2,2,0,0,0,1-.23,2.43,2.43,0,0,0,.69-.63l.66.52a2.86,2.86,0,0,1-.52.59,2.48,2.48,0,0,1-.78.46A2.94,2.94,0,0,1,34.4,143.12ZM39.21,138v5H38.13v-6.34h1ZM39,139.59l-.46,0a3.87,3.87,0,0,1,.2-1.2,3.11,3.11,0,0,1,.52-1,2.38,2.38,0,0,1,1.86-.86,2.81,2.81,0,0,1,.85.13,1.48,1.48,0,0,1,.63.4,1.68,1.68,0,0,1,.41.72,3.22,3.22,0,0,1,.15,1.06V143H42v-4.17a1.76,1.76,0,0,0-.15-.79.88.88,0,0,0-.43-.44,1.47,1.47,0,0,0-.69-.14,1.52,1.52,0,0,0-.74.17,1.71,1.71,0,0,0-.57.47,2.33,2.33,0,0,0-.37.68A2.69,2.69,0,0,0,39,139.59Zm9.91-2.93h1v6.21a2.77,2.77,0,0,1-.34,1.42,2.12,2.12,0,0,1-.95.9,2.94,2.94,0,0,1-1.39.31,3.32,3.32,0,0,1-.77-.1,3.24,3.24,0,0,1-.87-.35,2.2,2.2,0,0,1-.71-.65l.57-.64a2.16,2.16,0,0,0,.83.66,2.1,2.1,0,0,0,.87.19,1.91,1.91,0,0,0,.89-.19,1.35,1.35,0,0,0,.58-.58,1.84,1.84,0,0,0,.21-.92v-4.87ZM44.5,139.9v-.12a4.86,4.86,0,0,1,.17-1.32,3.41,3.41,0,0,1,.5-1,2.28,2.28,0,0,1,1.84-.89,2.44,2.44,0,0,1,1,.21,2,2,0,0,1,.76.61,3,3,0,0,1,.5.95,6.24,6.24,0,0,1,.25,1.26v.53a5.62,5.62,0,0,1-.25,1.26,3,3,0,0,1-.5.95,2.11,2.11,0,0,1-.76.6,2.47,2.47,0,0,1-1.06.21,2.23,2.23,0,0,1-1-.24,2.4,2.4,0,0,1-.78-.68,3.25,3.25,0,0,1-.51-1A4.72,4.72,0,0,1,44.5,139.9Zm1.09-.12v.12a4.19,4.19,0,0,0,.09.89,2.54,2.54,0,0,0,.3.73,1.55,1.55,0,0,0,.52.5,1.5,1.5,0,0,0,.76.18,1.63,1.63,0,0,0,.89-.23,1.7,1.7,0,0,0,.56-.6,3.25,3.25,0,0,0,.32-.82v-1.41a2.64,2.64,0,0,0-.2-.62,1.66,1.66,0,0,0-.34-.54,1.32,1.32,0,0,0-.51-.38,1.58,1.58,0,0,0-.71-.14,1.46,1.46,0,0,0-1.29.69,2.49,2.49,0,0,0-.3.74A4.13,4.13,0,0,0,45.59,139.78Zm7.09-3.12V143H51.59v-6.34ZM51.51,135a.68.68,0,0,1,.15-.45.73.73,0,0,1,1,0,.64.64,0,0,1,.17.45.67.67,0,0,1-1.13.43A.64.64,0,0,1,51.51,135Zm4,3v5H54.42v-6.34h1Zm-.26,1.58-.45,0a3.87,3.87,0,0,1,.2-1.2,3.11,3.11,0,0,1,.52-1,2.38,2.38,0,0,1,1.86-.86,2.74,2.74,0,0,1,.84.13,1.52,1.52,0,0,1,.64.4,1.68,1.68,0,0,1,.41.72,3.24,3.24,0,0,1,.14,1.06V143H58.31v-4.17a1.78,1.78,0,0,0-.14-.79.88.88,0,0,0-.43-.44,1.47,1.47,0,0,0-.69-.14,1.52,1.52,0,0,0-.74.17,1.71,1.71,0,0,0-.57.47,2.33,2.33,0,0,0-.37.68A2.69,2.69,0,0,0,55.24,139.59Zm8.44,3.53a3.29,3.29,0,0,1-1.2-.22,2.87,2.87,0,0,1-.92-.64,3,3,0,0,1-.59-1,3.69,3.69,0,0,1-.2-1.23v-.24a3.91,3.91,0,0,1,.23-1.38,3,3,0,0,1,.62-1,2.62,2.62,0,0,1,.89-.64,2.74,2.74,0,0,1,2.2,0,2.1,2.1,0,0,1,.82.65,3,3,0,0,1,.47,1,4.71,4.71,0,0,1,.15,1.23v.48H61.41v-.88h3.65v-.08a2.55,2.55,0,0,0-.17-.82,1.51,1.51,0,0,0-.47-.66,1.38,1.38,0,0,0-.88-.26,1.55,1.55,0,0,0-.68.16,1.45,1.45,0,0,0-.53.46,2.21,2.21,0,0,0-.35.74,3.91,3.91,0,0,0-.12,1v.24a2.91,2.91,0,0,0,.12.85,2.17,2.17,0,0,0,.37.69,1.78,1.78,0,0,0,.59.47,1.74,1.74,0,0,0,.8.17,1.93,1.93,0,0,0,1-.23,2.46,2.46,0,0,0,.7-.63l.66.52a2.65,2.65,0,0,1-.53.59,2.54,2.54,0,0,1-.77.46A3,3,0,0,1,63.68,143.12Zm6.36,0a3.29,3.29,0,0,1-1.2-.22,3,3,0,0,1-.92-.64,2.83,2.83,0,0,1-.58-1,3.45,3.45,0,0,1-.21-1.23v-.24a3.91,3.91,0,0,1,.23-1.38,3,3,0,0,1,.62-1,2.62,2.62,0,0,1,.89-.64,2.77,2.77,0,0,1,2.21,0,2.07,2.07,0,0,1,.81.65,2.84,2.84,0,0,1,.47,1,4.71,4.71,0,0,1,.15,1.23v.48H67.78v-.88h3.65v-.08a2.87,2.87,0,0,0-.18-.82,1.43,1.43,0,0,0-.47-.66,1.36,1.36,0,0,0-.88-.26,1.58,1.58,0,0,0-.68.16,1.53,1.53,0,0,0-.53.46,2.2,2.2,0,0,0-.34.74,3.51,3.51,0,0,0-.13,1v.24a2.61,2.61,0,0,0,.13.85,2,2,0,0,0,.36.69,1.82,1.82,0,0,0,.6.47,1.7,1.7,0,0,0,.79.17,2,2,0,0,0,1-.23,2.57,2.57,0,0,0,.69-.63l.66.52a2.86,2.86,0,0,1-.52.59,2.48,2.48,0,0,1-.78.46A3,3,0,0,1,70,143.12Zm4.82-5.46V143H73.78v-6.34h1Zm2-1v1l-.26,0h-.27a1.9,1.9,0,0,0-.66.11,1.41,1.41,0,0,0-.49.33,1.64,1.64,0,0,0-.32.51,2.42,2.42,0,0,0-.14.63l-.31.17a5.17,5.17,0,0,1,.11-1.07,2.86,2.86,0,0,1,.36-.89,1.62,1.62,0,0,1,.61-.61,1.71,1.71,0,0,1,.89-.23l.27,0A.59.59,0,0,1,76.84,136.63Zm2.18,0V143H77.93v-6.34ZM77.85,135a.64.64,0,0,1,.16-.45.62.62,0,0,1,.48-.18.6.6,0,0,1,.47.18.6.6,0,0,1,.17.45.57.57,0,0,1-.17.43.6.6,0,0,1-.47.18.62.62,0,0,1-.48-.18A.6.6,0,0,1,77.85,135Zm4,3v5H80.76v-6.34h1Zm-.26,1.58-.45,0a3.87,3.87,0,0,1,.19-1.2,3.13,3.13,0,0,1,.53-1,2.28,2.28,0,0,1,.81-.63,2.37,2.37,0,0,1,1-.23,2.76,2.76,0,0,1,.85.13,1.58,1.58,0,0,1,.64.4,1.79,1.79,0,0,1,.41.72,3.54,3.54,0,0,1,.14,1.06V143H84.66v-4.17a1.76,1.76,0,0,0-.15-.79.88.88,0,0,0-.43-.44,1.41,1.41,0,0,0-.69-.14,1.55,1.55,0,0,0-.74.17,1.78,1.78,0,0,0-.56.47,2.12,2.12,0,0,0-.37.68A2.41,2.41,0,0,0,81.59,139.59Zm9.91-2.93h1v6.21a2.87,2.87,0,0,1-.34,1.42,2.23,2.23,0,0,1-1,.9,3,3,0,0,1-1.4.31,3.39,3.39,0,0,1-.77-.1,3.52,3.52,0,0,1-.87-.35,2.2,2.2,0,0,1-.71-.65l.57-.64a2.24,2.24,0,0,0,.83.66,2.17,2.17,0,0,0,.87.19,1.91,1.91,0,0,0,.89-.19,1.35,1.35,0,0,0,.58-.58,1.84,1.84,0,0,0,.21-.92v-4.87Zm-4.36,3.24v-.12a4.49,4.49,0,0,1,.17-1.32,3.17,3.17,0,0,1,.49-1,2.28,2.28,0,0,1,.8-.65,2.19,2.19,0,0,1,1-.24,2.41,2.41,0,0,1,1,.21,2,2,0,0,1,.76.61,3,3,0,0,1,.5.95,5.62,5.62,0,0,1,.25,1.26v.53a5.11,5.11,0,0,1-.25,1.26,3,3,0,0,1-.5.95,2,2,0,0,1-.76.6,2.46,2.46,0,0,1-1.05.21,2.17,2.17,0,0,1-1-.24,2.33,2.33,0,0,1-.79-.68,3,3,0,0,1-.5-1A4.36,4.36,0,0,1,87.14,139.9Zm1.08-.12v.12a4.19,4.19,0,0,0,.09.89,2.54,2.54,0,0,0,.3.73,1.43,1.43,0,0,0,1.28.68,1.56,1.56,0,0,0,1.45-.83,3.7,3.7,0,0,0,.33-.82v-1.41a3.21,3.21,0,0,0-.2-.62,1.84,1.84,0,0,0-.34-.54,1.48,1.48,0,0,0-.51-.38,1.62,1.62,0,0,0-.72-.14,1.49,1.49,0,0,0-.77.19,1.46,1.46,0,0,0-.52.5,2.49,2.49,0,0,0-.3.74A4.13,4.13,0,0,0,88.22,139.78ZM98.73,143H97.64v-7a2.38,2.38,0,0,1,.25-1.15,1.67,1.67,0,0,1,.72-.72,2.39,2.39,0,0,1,1.11-.24,2.42,2.42,0,0,1,.38,0l.37.07-.06.88-.28,0h-.3a1.27,1.27,0,0,0-.6.14.9.9,0,0,0-.37.4,1.42,1.42,0,0,0-.13.65Zm1.34-6.34v.83H96.64v-.83Zm.92,3.24v-.13a4,4,0,0,1,.2-1.28,3.19,3.19,0,0,1,.58-1,2.56,2.56,0,0,1,.91-.68,3,3,0,0,1,2.39,0,2.6,2.6,0,0,1,.92.68,3.19,3.19,0,0,1,.58,1,4,4,0,0,1,.2,1.28v.13a4,4,0,0,1-.2,1.27,3.35,3.35,0,0,1-.58,1,2.79,2.79,0,0,1-.91.68,2.86,2.86,0,0,1-1.2.24,2.92,2.92,0,0,1-1.2-.24,2.79,2.79,0,0,1-.91-.68,3.35,3.35,0,0,1-.58-1A4,4,0,0,1,101,139.9Zm1.09-.13v.13a3.27,3.27,0,0,0,.11.9,2.61,2.61,0,0,0,.33.74,1.7,1.7,0,0,0,.57.5,1.57,1.57,0,0,0,.79.19,1.6,1.6,0,0,0,1.34-.69,2.63,2.63,0,0,0,.34-.74,3.26,3.26,0,0,0,.12-.9v-.13a3.19,3.19,0,0,0-.12-.89,2.4,2.4,0,0,0-.34-.74,1.74,1.74,0,0,0-.56-.52,1.68,1.68,0,0,0-.79-.19,1.61,1.61,0,0,0-.78.19,1.77,1.77,0,0,0-.57.52,2.38,2.38,0,0,0-.33.74A3.19,3.19,0,0,0,102.08,139.77Zm7.13-2.11V143h-1.09v-6.34h1.06Zm2-1v1l-.25,0h-.27a2,2,0,0,0-.67.11,1.37,1.37,0,0,0-.48.33,1.64,1.64,0,0,0-.32.51,2.91,2.91,0,0,0-.15.63l-.3.17a5.17,5.17,0,0,1,.11-1.07,2.86,2.86,0,0,1,.36-.89,1.62,1.62,0,0,1,.61-.61,1.68,1.68,0,0,1,.89-.23l.27,0A.59.59,0,0,1,111.19,136.63Zm8,5.14V134h1.09v9h-1Zm-4.26-1.87v-.12a4.86,4.86,0,0,1,.17-1.32,3.2,3.2,0,0,1,.51-1,2.37,2.37,0,0,1,.8-.65,2.17,2.17,0,0,1,1-.24,2.41,2.41,0,0,1,1,.21,2,2,0,0,1,.76.61,3,3,0,0,1,.5.95,6.24,6.24,0,0,1,.25,1.26v.53a5.62,5.62,0,0,1-.25,1.26,3,3,0,0,1-.5.95,2.11,2.11,0,0,1-.76.6,2.47,2.47,0,0,1-1.06.21,2.12,2.12,0,0,1-1-.24,2.46,2.46,0,0,1-.8-.68,3.25,3.25,0,0,1-.51-1A4.72,4.72,0,0,1,114.9,139.9Zm1.09-.12v.12a4.19,4.19,0,0,0,.09.89,2.3,2.3,0,0,0,.31.73,1.46,1.46,0,0,0,.52.5,1.49,1.49,0,0,0,.75.18,1.61,1.61,0,0,0,.89-.23,1.7,1.7,0,0,0,.56-.6,3.7,3.7,0,0,0,.33-.82v-1.41a3.23,3.23,0,0,0-.21-.62,1.5,1.5,0,0,0-.34-.54,1.36,1.36,0,0,0-.5-.38,1.58,1.58,0,0,0-.71-.14,1.44,1.44,0,0,0-.77.19,1.38,1.38,0,0,0-.52.5,2.26,2.26,0,0,0-.31.74A4.13,4.13,0,0,0,116,139.78Zm7.13-3.12V143H122v-6.34ZM122,135a.64.64,0,0,1,.16-.45.72.72,0,0,1,1,0,.64.64,0,0,1,.17.45.6.6,0,0,1-.64.61A.59.59,0,0,1,122,135Zm7,1.68h1v6.21a2.77,2.77,0,0,1-.34,1.42,2.17,2.17,0,0,1-1,.9,3,3,0,0,1-1.39.31,3.47,3.47,0,0,1-.78-.1,3.31,3.31,0,0,1-.86-.35,2.2,2.2,0,0,1-.71-.65l.57-.64a2.16,2.16,0,0,0,.83.66,2.1,2.1,0,0,0,.87.19,1.91,1.91,0,0,0,.89-.19,1.35,1.35,0,0,0,.58-.58,1.84,1.84,0,0,0,.21-.92v-4.87Zm-4.37,3.24v-.12a4.86,4.86,0,0,1,.17-1.32,3.41,3.41,0,0,1,.5-1,2.28,2.28,0,0,1,1.83-.89,2.46,2.46,0,0,1,1.05.21,2,2,0,0,1,.76.61,3,3,0,0,1,.5.95,6.24,6.24,0,0,1,.25,1.26v.53a5.62,5.62,0,0,1-.25,1.26,3,3,0,0,1-.5.95,2.11,2.11,0,0,1-.76.6,2.51,2.51,0,0,1-1.06.21,2.2,2.2,0,0,1-1-.24,2.3,2.3,0,0,1-.78-.68,3.25,3.25,0,0,1-.51-1A4.72,4.72,0,0,1,124.6,139.9Zm1.09-.12v.12a4.19,4.19,0,0,0,.09.89,2.29,2.29,0,0,0,.3.73,1.46,1.46,0,0,0,.52.5,1.5,1.5,0,0,0,.76.18,1.66,1.66,0,0,0,.89-.23,1.59,1.59,0,0,0,.55-.6,3.7,3.7,0,0,0,.33-.82v-1.41a2.64,2.64,0,0,0-.2-.62,1.66,1.66,0,0,0-.34-.54,1.32,1.32,0,0,0-.51-.38,1.58,1.58,0,0,0-.71-.14,1.44,1.44,0,0,0-.77.19,1.38,1.38,0,0,0-.52.5,2.25,2.25,0,0,0-.3.74A4.13,4.13,0,0,0,125.69,139.78Zm7.08-3.12V143h-1.08v-6.34ZM131.6,135a.69.69,0,0,1,.16-.45.73.73,0,0,1,1,0,.64.64,0,0,1,.17.45.67.67,0,0,1-1.13.43A.65.65,0,0,1,131.6,135Zm5.57,1.68v.83h-3.43v-.83Zm-2.27-1.54H136v6.31a.92.92,0,0,0,.1.49.46.46,0,0,0,.25.21,1,1,0,0,0,.34.06,1.33,1.33,0,0,0,.28,0l.23,0V143l-.34.08a3.37,3.37,0,0,1-.5,0,1.77,1.77,0,0,1-.73-.16,1.18,1.18,0,0,1-.53-.53,2.18,2.18,0,0,1-.2-1Zm7.28,6.8v-3.27A1.36,1.36,0,0,0,142,138a1,1,0,0,0-.45-.43,1.62,1.62,0,0,0-.74-.15,1.65,1.65,0,0,0-.72.14,1.19,1.19,0,0,0-.48.37.81.81,0,0,0-.17.49h-1.08a1.55,1.55,0,0,1,.17-.68,2,2,0,0,1,.51-.6,2.45,2.45,0,0,1,.8-.43,3.06,3.06,0,0,1,1-.17,3,3,0,0,1,1.22.24,1.8,1.8,0,0,1,.83.71,2.12,2.12,0,0,1,.3,1.17v3a4.06,4.06,0,0,0,.06.67,2.16,2.16,0,0,0,.17.62V143h-1.14a2.15,2.15,0,0,1-.12-.5A4.13,4.13,0,0,1,142.18,141.92Zm.19-2.76v.76h-1.1a4.11,4.11,0,0,0-.82.07,1.81,1.81,0,0,0-.61.22,1,1,0,0,0-.38.37,1.07,1.07,0,0,0-.13.51,1.09,1.09,0,0,0,.14.54,1,1,0,0,0,.4.4,1.55,1.55,0,0,0,.68.14,1.82,1.82,0,0,0,.88-.21,1.8,1.8,0,0,0,.6-.52,1.2,1.2,0,0,0,.25-.59l.46.52a1.47,1.47,0,0,1-.23.55,2.51,2.51,0,0,1-.48.57,2.59,2.59,0,0,1-.72.45,2.25,2.25,0,0,1-.92.18,2.51,2.51,0,0,1-1.13-.25,2,2,0,0,1-.75-.68,1.73,1.73,0,0,1-.27-.95,2,2,0,0,1,.2-.9,1.81,1.81,0,0,1,.58-.65,2.65,2.65,0,0,1,.9-.4,4.74,4.74,0,0,1,1.18-.13Zm3.78-5.16v9h-1.09v-9ZM52.7,150.66v.83H49.27v-.83Zm-2.27-1.54h1.08v6.31a.92.92,0,0,0,.1.49.48.48,0,0,0,.26.21.93.93,0,0,0,.34.06l.28,0,.23,0V157a2.49,2.49,0,0,1-.34.08,3.23,3.23,0,0,1-.49,0,1.82,1.82,0,0,1-.74-.16,1.18,1.18,0,0,1-.53-.53,2.19,2.19,0,0,1-.19-1Zm4.62,2.54V157H54v-6.34H55Zm2-1v1l-.26,0H56.5a1.9,1.9,0,0,0-.66.11,1.32,1.32,0,0,0-.49.33,1.64,1.64,0,0,0-.32.51,2.42,2.42,0,0,0-.14.63l-.31.17a5.17,5.17,0,0,1,.11-1.07,2.86,2.86,0,0,1,.36-.89,1.62,1.62,0,0,1,.61-.61,1.71,1.71,0,0,1,.89-.23l.27,0A.59.59,0,0,1,57,150.63Zm4.51,5.29v-3.27a1.25,1.25,0,0,0-.16-.65.92.92,0,0,0-.44-.43,1.91,1.91,0,0,0-1.46,0,1.19,1.19,0,0,0-.48.37.81.81,0,0,0-.17.49H57.75a1.43,1.43,0,0,1,.17-.68,2,2,0,0,1,.51-.6,2.4,2.4,0,0,1,.79-.43,3.17,3.17,0,0,1,1.05-.17,2.87,2.87,0,0,1,1.21.24,1.77,1.77,0,0,1,.84.71,2.12,2.12,0,0,1,.3,1.17v3a5.43,5.43,0,0,0,.05.67,3.07,3.07,0,0,0,.17.62V157H61.71a2.72,2.72,0,0,1-.13-.5A4,4,0,0,1,61.54,155.92Zm.18-2.76,0,.76h-1.1a4.21,4.21,0,0,0-.83.07,1.83,1.83,0,0,0-.6.22,1,1,0,0,0-.38.37,1,1,0,0,0-.13.51,1.09,1.09,0,0,0,.14.54,1,1,0,0,0,.4.4,1.51,1.51,0,0,0,.67.14,1.76,1.76,0,0,0,.88-.21,1.74,1.74,0,0,0,.61-.52,1.09,1.09,0,0,0,.24-.59l.47.52a1.66,1.66,0,0,1-.23.55,2.51,2.51,0,0,1-.48.57,2.59,2.59,0,0,1-.72.45,2.25,2.25,0,0,1-.92.18,2.58,2.58,0,0,1-1.14-.25,1.88,1.88,0,0,1-.74-.68,1.73,1.73,0,0,1-.27-.95,2,2,0,0,1,.2-.9,1.69,1.69,0,0,1,.57-.65,2.7,2.7,0,0,1,.91-.4,4.71,4.71,0,0,1,1.17-.13ZM65.41,152v5H64.33v-6.34h1Zm-.26,1.58-.45,0a4.19,4.19,0,0,1,.19-1.2,3.36,3.36,0,0,1,.53-1,2.38,2.38,0,0,1,1.86-.86,2.74,2.74,0,0,1,.84.13,1.52,1.52,0,0,1,.64.4,1.68,1.68,0,0,1,.41.72,3.24,3.24,0,0,1,.14,1.06V157H68.22v-4.17a1.93,1.93,0,0,0-.14-.79.88.88,0,0,0-.43-.44,1.47,1.47,0,0,0-.69-.14,1.52,1.52,0,0,0-.74.17,1.71,1.71,0,0,0-.57.47,2.12,2.12,0,0,0-.37.68A2.69,2.69,0,0,0,65.15,153.59Zm9.5,1.73a.85.85,0,0,0-.11-.44.88.88,0,0,0-.41-.36,3.14,3.14,0,0,0-.94-.3,6.81,6.81,0,0,1-1-.26,2.85,2.85,0,0,1-.72-.37,1.59,1.59,0,0,1-.46-.51,1.48,1.48,0,0,1-.15-.68,1.57,1.57,0,0,1,.16-.71,1.92,1.92,0,0,1,.47-.6,2.44,2.44,0,0,1,.75-.4,3,3,0,0,1,1-.15,2.9,2.9,0,0,1,1.3.27,2,2,0,0,1,.82.72,1.82,1.82,0,0,1,.29,1H74.59a1,1,0,0,0-.16-.51,1.2,1.2,0,0,0-.45-.41,1.47,1.47,0,0,0-.72-.17,1.74,1.74,0,0,0-.74.14,1,1,0,0,0-.4.35.89.89,0,0,0-.12.45,1,1,0,0,0,0,.31.76.76,0,0,0,.23.25,1.63,1.63,0,0,0,.44.22,7,7,0,0,0,.74.19,6,6,0,0,1,1.28.43,1.92,1.92,0,0,1,.75.6,1.53,1.53,0,0,1,.24.87,1.63,1.63,0,0,1-.17.76,1.68,1.68,0,0,1-.5.6,2.41,2.41,0,0,1-.77.38,3.45,3.45,0,0,1-1,.14,3,3,0,0,1-1.42-.3A2.17,2.17,0,0,1,71,156a1.8,1.8,0,0,1-.3-1h1.09a1.06,1.06,0,0,0,.26.71,1.23,1.23,0,0,0,.57.37,2.3,2.3,0,0,0,.68.11,2,2,0,0,0,.74-.12,1.08,1.08,0,0,0,.46-.32A.74.74,0,0,0,74.65,155.32ZM78.78,157H77.69v-7a2.38,2.38,0,0,1,.25-1.15,1.67,1.67,0,0,1,.72-.72,2.39,2.39,0,0,1,1.11-.24,2.42,2.42,0,0,1,.38,0l.37.07-.06.88-.28,0h-.3a1.27,1.27,0,0,0-.6.14,1,1,0,0,0-.38.4,1.57,1.57,0,0,0-.12.65Zm1.34-6.34v.83H76.69v-.83ZM81,153.9v-.13a4,4,0,0,1,.2-1.28,3.19,3.19,0,0,1,.58-1,2.62,2.62,0,0,1,.9-.68,2.93,2.93,0,0,1,1.2-.25,2.86,2.86,0,0,1,1.2.25,2.6,2.6,0,0,1,.92.68,3.19,3.19,0,0,1,.58,1,4,4,0,0,1,.19,1.28v.13a4,4,0,0,1-.19,1.27,3.35,3.35,0,0,1-.58,1,2.79,2.79,0,0,1-.91.68,2.86,2.86,0,0,1-1.2.24,2.92,2.92,0,0,1-1.2-.24,2.79,2.79,0,0,1-.91-.68,3.35,3.35,0,0,1-.58-1A4,4,0,0,1,81,153.9Zm1.09-.13v.13a3.27,3.27,0,0,0,.11.9,2.36,2.36,0,0,0,.33.74,1.61,1.61,0,0,0,.57.5,1.57,1.57,0,0,0,.79.19,1.5,1.5,0,0,0,.78-.19,1.58,1.58,0,0,0,.56-.5,2.63,2.63,0,0,0,.34-.74,3.27,3.27,0,0,0,.11-.9v-.13a3.19,3.19,0,0,0-.11-.89,2.4,2.4,0,0,0-.34-.74,1.74,1.74,0,0,0-.56-.52,1.74,1.74,0,0,0-1.58,0,1.74,1.74,0,0,0-.56.52,2.17,2.17,0,0,0-.33.74A3.19,3.19,0,0,0,82.13,153.77Zm7.13-2.11V157H88.17v-6.34h1.06Zm2-1v1a1.15,1.15,0,0,0-.26,0h-.26a2,2,0,0,0-.67.11,1.37,1.37,0,0,0-.48.33,1.48,1.48,0,0,0-.32.51,2.91,2.91,0,0,0-.15.63l-.3.17a5.17,5.17,0,0,1,.11-1.07,2.86,2.86,0,0,1,.36-.89,1.62,1.62,0,0,1,.61-.61,1.68,1.68,0,0,1,.89-.23l.27,0A.59.59,0,0,1,91.24,150.63Zm2.08,1.29V157H92.23v-6.34h1Zm-.22,1.67-.51,0a4.57,4.57,0,0,1,.17-1.2,2.86,2.86,0,0,1,.49-1,2.16,2.16,0,0,1,.8-.63,2.59,2.59,0,0,1,1.11-.23,2.66,2.66,0,0,1,.82.13,1.6,1.6,0,0,1,.65.39,1.77,1.77,0,0,1,.43.7,3,3,0,0,1,.15,1V157H96.13v-4.17A1.67,1.67,0,0,0,96,152a.94.94,0,0,0-.47-.43,1.58,1.58,0,0,0-.71-.14,1.67,1.67,0,0,0-.81.17,1.35,1.35,0,0,0-.51.47,2,2,0,0,0-.28.68A3.53,3.53,0,0,0,93.1,153.59Zm4.1-.6-.72.22a3.09,3.09,0,0,1,.17-1,2.64,2.64,0,0,1,.48-.85,2.31,2.31,0,0,1,.79-.59,2.48,2.48,0,0,1,1.08-.23,2.74,2.74,0,0,1,.9.14A1.63,1.63,0,0,1,101,151.8a3.21,3.21,0,0,1,.14,1V157H100v-4.18a1.57,1.57,0,0,0-.17-.82.88.88,0,0,0-.47-.42,1.85,1.85,0,0,0-.71-.12,1.54,1.54,0,0,0-.63.12,1.24,1.24,0,0,0-.47.34,1.39,1.39,0,0,0-.28.49A1.61,1.61,0,0,0,97.2,153Zm9.3,2.93v-3.27a1.36,1.36,0,0,0-.15-.65,1,1,0,0,0-.45-.43,1.58,1.58,0,0,0-.73-.15,1.67,1.67,0,0,0-.73.14,1.19,1.19,0,0,0-.48.37.81.81,0,0,0-.17.49h-1.08a1.44,1.44,0,0,1,.18-.68,1.86,1.86,0,0,1,.5-.6,2.45,2.45,0,0,1,.8-.43,3.11,3.11,0,0,1,1-.17,2.92,2.92,0,0,1,1.22.24,1.75,1.75,0,0,1,.83.71,2.12,2.12,0,0,1,.31,1.17v3a4,4,0,0,0,0,.67,2.53,2.53,0,0,0,.17.62V157h-1.13a1.71,1.71,0,0,1-.13-.5A4.13,4.13,0,0,1,106.5,155.92Zm.19-2.76v.76h-1.09a4.15,4.15,0,0,0-.83.07,1.9,1.9,0,0,0-.61.22,1.12,1.12,0,0,0-.38.37,1.07,1.07,0,0,0-.12.51,1.08,1.08,0,0,0,.13.54,1,1,0,0,0,.41.4,1.48,1.48,0,0,0,.67.14,1.82,1.82,0,0,0,.88-.21,1.8,1.8,0,0,0,.6-.52,1.11,1.11,0,0,0,.25-.59l.46.52a1.62,1.62,0,0,1-.22.55,2.57,2.57,0,0,1-.49.57,2.69,2.69,0,0,1-.71.45,2.34,2.34,0,0,1-.93.18,2.51,2.51,0,0,1-1.13-.25,2,2,0,0,1-.75-.68,1.72,1.72,0,0,1-.26-.95,1.87,1.87,0,0,1,.2-.9,1.69,1.69,0,0,1,.57-.65,2.65,2.65,0,0,1,.9-.4,4.79,4.79,0,0,1,1.18-.13Zm5.25-2.5v.83h-3.42v-.83Zm-2.26-1.54h1.08v6.31a.92.92,0,0,0,.1.49.48.48,0,0,0,.26.21.93.93,0,0,0,.34.06l.28,0,.23,0V157a2.68,2.68,0,0,1-.33.08,3.49,3.49,0,0,1-.5,0,1.82,1.82,0,0,1-.74-.16,1.18,1.18,0,0,1-.53-.53,2.19,2.19,0,0,1-.19-1Zm4.71,1.54V157h-1.08v-6.34ZM113.22,149a.69.69,0,0,1,.16-.45.73.73,0,0,1,1,0,.64.64,0,0,1,.17.45.67.67,0,0,1-1.13.43A.65.65,0,0,1,113.22,149Zm2.63,4.92v-.13a3.78,3.78,0,0,1,.2-1.28,3,3,0,0,1,.57-1,2.56,2.56,0,0,1,.91-.68,2.88,2.88,0,0,1,1.19-.25,2.94,2.94,0,0,1,1.21.25,2.56,2.56,0,0,1,.91.68,3,3,0,0,1,.58,1,4,4,0,0,1,.2,1.28v.13a4,4,0,0,1-.2,1.27,3.16,3.16,0,0,1-.58,1,2.69,2.69,0,0,1-.91.68,2.84,2.84,0,0,1-3.31-.68,3.14,3.14,0,0,1-.57-1A3.72,3.72,0,0,1,115.85,153.9Zm1.08-.13v.13a3.7,3.7,0,0,0,.11.9,2.63,2.63,0,0,0,.34.74,1.67,1.67,0,0,0,.56.5,1.6,1.6,0,0,0,.8.19,1.55,1.55,0,0,0,.78-.19,1.67,1.67,0,0,0,.56-.5,2.36,2.36,0,0,0,.33-.74,3.26,3.26,0,0,0,.12-.9v-.13a3.19,3.19,0,0,0-.12-.89,2.19,2.19,0,0,0-.34-.74,1.64,1.64,0,0,0-.56-.52,1.62,1.62,0,0,0-.79-.19,1.67,1.67,0,0,0-.78.19,1.74,1.74,0,0,0-.56.52,2.4,2.4,0,0,0-.34.74A3.62,3.62,0,0,0,116.93,153.77Zm7.13-1.76v5H123v-6.34h1Zm-.25,1.58-.46,0a3.87,3.87,0,0,1,.2-1.2,3.11,3.11,0,0,1,.52-1,2.38,2.38,0,0,1,1.86-.86,2.81,2.81,0,0,1,.85.13,1.48,1.48,0,0,1,.63.4,1.68,1.68,0,0,1,.41.72,3.24,3.24,0,0,1,.14,1.06V157h-1.08v-4.17a1.76,1.76,0,0,0-.15-.79.88.88,0,0,0-.43-.44,1.47,1.47,0,0,0-.69-.14,1.52,1.52,0,0,0-.74.17,1.71,1.71,0,0,0-.57.47,2.33,2.33,0,0,0-.37.68A2.69,2.69,0,0,0,123.81,153.59Z"></path><path class="cls-4" d="M82.55,93.75V95h-5V93.92l2.32-3c.23-.33.41-.61.55-.85a3.74,3.74,0,0,0,.28-.65,2.23,2.23,0,0,0,.08-.56,1.93,1.93,0,0,0-.1-.67,1,1,0,0,0-.29-.45.69.69,0,0,0-.47-.16.79.79,0,0,0-.56.19,1.25,1.25,0,0,0-.34.53,2.68,2.68,0,0,0-.1.78H77.45a3.18,3.18,0,0,1,.3-1.39A2.35,2.35,0,0,1,80,86.35a2.56,2.56,0,0,1,1.29.29,2,2,0,0,1,.79.82,2.81,2.81,0,0,1,.27,1.28,3.09,3.09,0,0,1-.11.8,4.39,4.39,0,0,1-.31.8,5.32,5.32,0,0,1-.49.79c-.18.27-.4.54-.63.82l-1.29,1.8ZM88.48,90v1.44a6.8,6.8,0,0,1-.18,1.68,3.15,3.15,0,0,1-.5,1.14,2,2,0,0,1-.76.65,2.24,2.24,0,0,1-1,.21,2.58,2.58,0,0,1-.8-.13,2.06,2.06,0,0,1-.68-.41,2.67,2.67,0,0,1-.52-.72,4.3,4.3,0,0,1-.33-1,8.08,8.08,0,0,1-.11-1.39V90a6.72,6.72,0,0,1,.18-1.67,3.38,3.38,0,0,1,.5-1.13,1.87,1.87,0,0,1,.77-.64,2.27,2.27,0,0,1,1-.21,2.37,2.37,0,0,1,.81.13,1.86,1.86,0,0,1,.66.4,2.46,2.46,0,0,1,.52.71,4.16,4.16,0,0,1,.33,1A8,8,0,0,1,88.48,90ZM87,91.65V89.77c0-.32,0-.6,0-.84a3.65,3.65,0,0,0-.12-.61,1.3,1.3,0,0,0-.19-.41.7.7,0,0,0-.26-.23.68.68,0,0,0-.32-.07.63.63,0,0,0-.38.11,1,1,0,0,0-.3.37,2.38,2.38,0,0,0-.18.67,5.92,5.92,0,0,0-.07,1v1.88a7.31,7.31,0,0,0,0,.86,3.05,3.05,0,0,0,.13.62,1.36,1.36,0,0,0,.19.42.65.65,0,0,0,.58.31.77.77,0,0,0,.39-.11,1.06,1.06,0,0,0,.29-.38,2.25,2.25,0,0,0,.17-.68A6.22,6.22,0,0,0,87,91.65Zm7.64,2.1V95h-5V93.92L92,91c.23-.33.41-.61.55-.85a3.74,3.74,0,0,0,.28-.65,2.23,2.23,0,0,0,.08-.56,1.93,1.93,0,0,0-.1-.67,1,1,0,0,0-.29-.45.68.68,0,0,0-.46-.16.82.82,0,0,0-.57.19,1.25,1.25,0,0,0-.34.53,2.68,2.68,0,0,0-.1.78H89.52a3.18,3.18,0,0,1,.3-1.39,2.35,2.35,0,0,1,2.23-1.37,2.56,2.56,0,0,1,1.29.29,2,2,0,0,1,.79.82,2.81,2.81,0,0,1,.27,1.28,2.71,2.71,0,0,1-.11.8,4.39,4.39,0,0,1-.31.8,5.32,5.32,0,0,1-.49.79c-.18.27-.4.54-.63.82l-1.29,1.8Zm6,0V95h-5V93.92L98,91a7.79,7.79,0,0,0,.55-.85,2.65,2.65,0,0,0,.28-.65,1.87,1.87,0,0,0,.09-.56,2.2,2.2,0,0,0-.1-.67,1,1,0,0,0-.3-.45.66.66,0,0,0-.46-.16.84.84,0,0,0-.57.19,1.14,1.14,0,0,0-.33.53,2.67,2.67,0,0,0-.11.78h-1.5a3.18,3.18,0,0,1,.3-1.39,2.33,2.33,0,0,1,2.23-1.37,2.53,2.53,0,0,1,1.28.29,1.9,1.9,0,0,1,.79.82,2.69,2.69,0,0,1,.28,1.28,3.09,3.09,0,0,1-.11.8,5.27,5.27,0,0,1-.31.8,7.74,7.74,0,0,1-.49.79c-.19.27-.4.54-.64.82l-1.29,1.8Z"></path></g></svg>