<svg xmlns="http://www.w3.org/2000/svg" id="Layer_1" data-name="Layer 1" viewBox="0 0 177 166"><defs><style>.cls-1{fill:#61686d;}.cls-2{fill:#fff;}</style></defs><path class="cls-1" d="M140,68.15c-2.59,1.81-3,3.76-3.07,4.31-.41.25-.79.46-1.14.65.55-.91,1.06-1.84,1.54-2.79a43.29,43.29,0,0,0,2.06-5c.06-.19.12-.38.19-.57a13.54,13.54,0,0,1,2-3.91l.17-.24c7.25-4,3.92-12,3.92-12,.11,1.79-1.61,3.15-3.38,6.4-1.51,2.77-1,4.71-.82,5.23-.37.57-.72,1.07-1,1.49.11-.52.23-1,.32-1.56a37,37,0,0,0,.63-5.35l0-.67c0-.22,0-.45,0-.67V52.08c0-.44,0-.89-.06-1.34,0-.22,0-.44,0-.66l-.06-.67a4.24,4.24,0,0,1,.07-1.33l.52-2.55c5.28-6.35-.78-12.65-.78-12.65.76,1.62-.35,3.52-.8,7.2-.38,3.12.8,4.75,1.16,5.16-.15.74-.31,1.39-.44,1.92l0-.42c-.05-.44-.16-.88-.24-1.32l-.12-.66c0-.22-.09-.44-.14-.65-.22-.87-.41-1.74-.69-2.59l-.2-.64-.09-.32-.11-.31L138.88,39c-.28-.73-.58-1.45-.9-2.17a11.71,11.71,0,0,1-1-4.07c0-.33,0-.65-.07-1,2.84-7.75-5-11.65-5-11.65,1.25,1.27.85,3.43,1.66,7,.69,3.08,2.35,4.21,2.83,4.48.15,1.05.24,1.93.28,2.55,0,0,0,0,0-.07l-.32-.59c-.1-.2-.22-.39-.34-.58l-.68-1.14-.75-1.1c-.12-.18-.24-.37-.37-.55l-.4-.54c-.41-.57-.84-1.12-1.29-1.66-.63-.79-1.48-1.94-2.22-2.76a5.7,5.7,0,0,1-.89-1.29c-3.25-6.86-11.2-4.93-11.2-4.93,1.79.11,2.93,2,5.94,4.15a6.62,6.62,0,0,0,4.94,1.49l.27.08.91,1a37.51,37.51,0,0,1,3.32,4.13l.38.54c.13.18.24.37.35.55L135,32l.3.53a22.76,22.76,0,0,0-2.37-1.77c-4.29-7-12.22-3.37-12.22-3.37,1.78-.19,3.22,1.47,6.55,3.09,2.83,1.38,4.75.79,5.26.58,1.13.67,2.07,1.32,2.62,1.71a2.61,2.61,0,0,1,.83.95h0l.3.6a36.93,36.93,0,0,1,2.08,4.84l.41,1.25.1.31.09.32.17.63c.25.84.43,1.71.62,2.56,0,.22.09.43.12.65h0a22.66,22.66,0,0,0-1.67-2.25c-2-8-10.69-6.8-10.69-6.8,1.76.34,2.65,2.35,5.36,4.87a6.58,6.58,0,0,0,4.85,2.1c.62.67,1.14,1.27,1.51,1.75a4.18,4.18,0,0,1,.94,2.25v0l.15,1.31,0,.32,0,.33,0,.65,0,.65c0,.22,0,.44,0,.66,0,.44,0,.87,0,1.31l0,1.31c0,.22,0,.44,0,.66l0,.65c-.07,1-.18,1.89-.31,2.82-.19-.78-.4-1.53-.65-2.24,1-8.19-7.56-10.17-7.56-10.17,1.52.95,1.63,3.14,3.26,6.46,1.39,2.84,3.27,3.55,3.8,3.7.2.51.37,1,.52,1.4a5.78,5.78,0,0,1,.2,3.19s0,0,0,0a36.41,36.41,0,0,1-1.44,5,39.74,39.74,0,0,1-2.11,4.77c-.23.45-.48.89-.74,1.33a23.15,23.15,0,0,0,.26-2.67c3.9-7.28-3.31-12.23-3.31-12.23,1.07,1.44.37,3.52.67,7.22.25,3.14,1.74,4.49,2.18,4.82v.35a9.87,9.87,0,0,1-1.78,5.59s0,0,0,0a38.29,38.29,0,0,1-3.31,4c-.31.3-.59.63-.91.93l-.94.89,0,0c.29-.51.54-1,.78-1.51,6.42-5.2,1.69-12.55,1.69-12.55.43,1.74-1,3.38-2.18,6.91-1,3-.14,4.81.13,5.28-.19.45-.38.87-.54,1.24a6.36,6.36,0,0,1-1.81,2.33h0a35.48,35.48,0,0,1-4.25,3c-.87.52-1.75,1-2.66,1.44q.57-.58,1-1.17c6.14-2.83,3.88-9.63,3.88-9.63,0,1.47-1.49,2.49-3.13,5.05a5.3,5.3,0,0,0-1,4.22c-.2.27-.39.52-.57.74a5.65,5.65,0,0,1-2.21,1.69,0,0,0,0,0,0,0,40.75,40.75,0,0,1-4.88,1.68h0a1.08,1.08,0,0,0-.79,1,1.1,1.1,0,0,0,1.41,1.1,43.12,43.12,0,0,0,5.11-1.92A40.79,40.79,0,0,0,123,86.19c.93-.57,1.82-1.2,2.69-1.86a7.82,7.82,0,0,1,4.07-1.56c7.7,3,11.72-4.8,11.72-4.8-1.29,1.24-3.45.81-7.08,1.56a6.52,6.52,0,0,0-4.51,2.76c-.75.1-1.4.16-1.94.19.49-.43,1-.88,1.44-1.32l1-1c.32-.32.61-.67.92-1a40.4,40.4,0,0,0,3.34-4.26.31.31,0,0,1,.07-.09,5.08,5.08,0,0,1,2-1.73l.38-.21c8.25-.3,8.89-9,8.89-9C145.18,65.58,143,66,140,68.15Z"></path><path class="cls-1" d="M37,68.15c2.59,1.81,3,3.76,3.07,4.31.41.25.79.46,1.14.65-.55-.91-1.06-1.84-1.54-2.79a43.29,43.29,0,0,1-2.06-5l-.18-.57a13.82,13.82,0,0,0-2-3.91l-.17-.24c-7.25-4-3.92-12-3.92-12-.11,1.79,1.61,3.15,3.38,6.4,1.51,2.77,1,4.71.82,5.23.37.57.72,1.07,1,1.49-.11-.52-.23-1-.32-1.56a37,37,0,0,1-.63-5.35l0-.67c0-.22,0-.45,0-.67V52.08c0-.44,0-.89.06-1.34,0-.22,0-.44,0-.66l.06-.67a4.24,4.24,0,0,0-.07-1.33l-.52-2.55c-5.28-6.35.78-12.65.78-12.65-.76,1.62.35,3.52.8,7.2.38,3.12-.8,4.75-1.16,5.16.15.74.31,1.39.44,1.92l0-.42c0-.44.16-.88.24-1.32l.13-.66c0-.22.08-.44.13-.65.22-.87.41-1.74.69-2.59l.2-.64.09-.32.11-.31L38.12,39c.28-.73.58-1.45.9-2.17a11.94,11.94,0,0,0,1-4.07c0-.33,0-.65.07-1-2.84-7.75,5-11.65,5-11.65-1.25,1.27-.85,3.43-1.66,7-.69,3.08-2.35,4.21-2.83,4.48-.15,1.05-.24,1.93-.28,2.55,0,0,0,0,0-.07l.32-.59c.1-.2.23-.39.34-.58l.68-1.14.75-1.1c.12-.18.24-.37.37-.55l.4-.54c.41-.57.84-1.12,1.29-1.66.63-.79,1.48-1.94,2.22-2.76a5.7,5.7,0,0,0,.89-1.29C50.86,17.07,58.81,19,58.81,19c-1.79.11-2.93,2-5.94,4.15a6.62,6.62,0,0,1-4.94,1.49l-.27.08-.91,1a38.71,38.71,0,0,0-3.32,4.13l-.38.54c-.13.18-.24.37-.36.55L42,32l-.3.53a22.85,22.85,0,0,1,2.38-1.77c4.28-7,12.21-3.37,12.21-3.37-1.78-.19-3.22,1.47-6.54,3.09-2.84,1.38-4.76.79-5.26.58-1.14.67-2.08,1.32-2.63,1.71a2.71,2.71,0,0,0-.83.95h0l-.29.6a36.93,36.93,0,0,0-2.08,4.84l-.41,1.25-.11.31-.09.32-.17.63c-.25.84-.42,1.71-.61,2.56,0,.22-.09.43-.13.65h0a24.34,24.34,0,0,1,1.67-2.25c2-8,10.69-6.8,10.69-6.8-1.76.34-2.64,2.35-5.35,4.87a6.61,6.61,0,0,1-4.86,2.1c-.62.67-1.13,1.27-1.51,1.75a4.18,4.18,0,0,0-.94,2.25v0l-.15,1.31,0,.32,0,.33,0,.65,0,.65c0,.22,0,.44,0,.66,0,.44,0,.87,0,1.31l0,1.31c0,.22,0,.44,0,.66l0,.65q.11,1.43.3,2.82c.19-.78.41-1.53.66-2.24-1-8.19,7.56-10.17,7.56-10.17-1.52.95-1.64,3.14-3.27,6.46-1.39,2.84-3.26,3.55-3.79,3.7-.2.51-.38,1-.52,1.4a5.78,5.78,0,0,0-.2,3.19v0a39.44,39.44,0,0,0,1.44,5,41.39,41.39,0,0,0,2.11,4.77c.24.45.49.89.75,1.33a23.23,23.23,0,0,1-.27-2.67c-3.9-7.28,3.31-12.23,3.31-12.23-1.07,1.44-.37,3.52-.67,7.22-.25,3.14-1.73,4.49-2.17,4.82v.35a9.72,9.72,0,0,0,1.78,5.59s0,0,0,0a38.29,38.29,0,0,0,3.31,4c.31.3.59.63.91.93l.94.89,0,0c-.29-.51-.54-1-.78-1.51-6.41-5.2-1.69-12.55-1.69-12.55-.43,1.74,1,3.38,2.18,6.91,1,3,.14,4.81-.13,5.28.19.45.38.87.54,1.24a6.36,6.36,0,0,0,1.81,2.33h0a35.48,35.48,0,0,0,4.25,3c.87.52,1.75,1,2.66,1.44q-.57-.58-1.05-1.17c-6.14-2.83-3.88-9.63-3.88-9.63,0,1.47,1.49,2.49,3.13,5.05a5.3,5.3,0,0,1,1,4.22c.2.27.39.52.57.74a5.65,5.65,0,0,0,2.21,1.69h0a40,40,0,0,0,4.87,1.68h0a1.08,1.08,0,0,1,.79,1,1.1,1.1,0,0,1-1.41,1.1,43.12,43.12,0,0,1-5.11-1.92,40.79,40.79,0,0,1-4.78-2.59c-.93-.57-1.82-1.2-2.69-1.86a7.82,7.82,0,0,0-4.07-1.56c-7.7,3-11.72-4.8-11.72-4.8,1.29,1.24,3.45.81,7.08,1.56a6.52,6.52,0,0,1,4.51,2.76c.75.1,1.4.16,1.94.19-.49-.43-1-.88-1.44-1.32l-1-1c-.32-.32-.61-.67-.92-1a39.13,39.13,0,0,1-3.34-4.26l-.06-.09a5.18,5.18,0,0,0-2-1.73L40,72.91c-8.25-.3-8.89-9-8.89-9C31.82,65.58,34,66,37,68.15Z"></path><path class="cls-2" d="M72.43,34.22v8.53H71V34.22Zm4.26,0-2.84,4.12-1.7,2.09-.27-1.49,1.17-1.75,1.92-3Zm-1.56,8.53-2.16-4,1-1,2.87,5Zm4.64.12a2.92,2.92,0,0,1-1.1-.19,2,2,0,0,1-.81-.55,2.46,2.46,0,0,1-.51-.9A3.92,3.92,0,0,1,77.17,40v-.61A4.71,4.71,0,0,1,77.35,38a2.74,2.74,0,0,1,.52-1,2.09,2.09,0,0,1,.77-.56,2.63,2.63,0,0,1,1-.18,2.54,2.54,0,0,1,1,.2,1.69,1.69,0,0,1,.72.58,2.52,2.52,0,0,1,.42,1,5.66,5.66,0,0,1,.14,1.31V40H77.83V39H80.6v-.15a3.12,3.12,0,0,0-.11-.74.86.86,0,0,0-.31-.48.85.85,0,0,0-.56-.17,1,1,0,0,0-.47.1.8.8,0,0,0-.34.32,1.91,1.91,0,0,0-.2.6,4.74,4.74,0,0,0-.07.91V40a3.69,3.69,0,0,0,.08.81,1.51,1.51,0,0,0,.26.54,1.12,1.12,0,0,0,.41.3,1.62,1.62,0,0,0,.57.09,1.73,1.73,0,0,0,.81-.17,2.12,2.12,0,0,0,.6-.47l.6.84a2.39,2.39,0,0,1-.45.45,3.06,3.06,0,0,1-.7.36A3,3,0,0,1,79.77,42.87Zm4.63-5.24v5.12H83V36.41h1.3Zm1.53-1.26v1.35a1.09,1.09,0,0,0-.26,0h-.25a1.07,1.07,0,0,0-.49.1.88.88,0,0,0-.35.29,1.57,1.57,0,0,0-.22.45,2.52,2.52,0,0,0-.09.59l-.29,0A6.4,6.4,0,0,1,84.07,38a3.66,3.66,0,0,1,.28-.9,1.63,1.63,0,0,1,.48-.6,1.06,1.06,0,0,1,.67-.22l.24,0A.56.56,0,0,1,85.93,36.37Zm3.68,5.09V38.3a1.33,1.33,0,0,0-.09-.53.59.59,0,0,0-.26-.28.83.83,0,0,0-.43-.1,1,1,0,0,0-.46.11.74.74,0,0,0-.27.31.85.85,0,0,0-.1.43H86.64a1.87,1.87,0,0,1,.15-.73,1.93,1.93,0,0,1,.45-.63,2.17,2.17,0,0,1,.71-.43,2.47,2.47,0,0,1,.92-.16A2.68,2.68,0,0,1,90,36.5a1.55,1.55,0,0,1,.74.65A2.11,2.11,0,0,1,91,38.32v3a6,6,0,0,0,0,.78,2.89,2.89,0,0,0,.16.6v.09H89.8a2.44,2.44,0,0,1-.14-.59A5.62,5.62,0,0,1,89.61,41.46Zm.18-2.57v.88h-.66a1.67,1.67,0,0,0-.52.08,1.2,1.2,0,0,0-.4.23.94.94,0,0,0-.25.34,1.42,1.42,0,0,0,0,.94.57.57,0,0,0,.25.28.88.88,0,0,0,.41.09,1.15,1.15,0,0,0,.57-.14,1.18,1.18,0,0,0,.38-.35.52.52,0,0,0,.1-.38l.31.57a1.91,1.91,0,0,1-.17.47,2.79,2.79,0,0,1-.32.47,1.6,1.6,0,0,1-.49.36,1.45,1.45,0,0,1-.65.14,1.92,1.92,0,0,1-.94-.23,1.57,1.57,0,0,1-.66-.64,2,2,0,0,1-.24-1,2.31,2.31,0,0,1,.16-.86,1.85,1.85,0,0,1,.47-.67,2.25,2.25,0,0,1,.78-.43A3.73,3.73,0,0,1,89,38.89Zm4-5.14v9H92.46v-9Zm4.4,7.71V38.3a1.32,1.32,0,0,0-.1-.53.59.59,0,0,0-.26-.28.81.81,0,0,0-.43-.1,1,1,0,0,0-.46.11.74.74,0,0,0-.27.31.85.85,0,0,0-.1.43H95.25a1.87,1.87,0,0,1,.15-.73,2,2,0,0,1,1.16-1.06,2.52,2.52,0,0,1,.93-.16,2.63,2.63,0,0,1,1.08.21,1.53,1.53,0,0,1,.75.65,2.2,2.2,0,0,1,.27,1.17v3a6,6,0,0,0,0,.78,2.89,2.89,0,0,0,.16.6v.09H98.41a2.44,2.44,0,0,1-.14-.59A5.58,5.58,0,0,1,98.23,41.46Zm.18-2.57v.88h-.65a1.74,1.74,0,0,0-.53.08,1.2,1.2,0,0,0-.4.23,1.07,1.07,0,0,0-.25.34,1.42,1.42,0,0,0,0,.94.59.59,0,0,0,.26.28.86.86,0,0,0,.41.09,1.15,1.15,0,0,0,.57-.14,1.25,1.25,0,0,0,.37-.35.54.54,0,0,0,.11-.38l.31.57a1.62,1.62,0,0,1-.18.47,2.3,2.3,0,0,1-.32.47,1.44,1.44,0,0,1-.48.36,1.51,1.51,0,0,1-.65.14,1.94,1.94,0,0,1-1-.23,1.57,1.57,0,0,1-.66-.64,2.08,2.08,0,0,1-.23-1,2.13,2.13,0,0,1,.16-.86,1.83,1.83,0,0,1,.46-.67,2.25,2.25,0,0,1,.78-.43,3.73,3.73,0,0,1,1.11-.15Zm3.64-5.14v.83a2.39,2.39,0,0,1-.13.77,3.18,3.18,0,0,1-.33.76,3.12,3.12,0,0,1-.49.63l-.68-.45a4.36,4.36,0,0,0,.33-.77,2.94,2.94,0,0,0,.13-.93v-.84Zm3.13,7.33a.55.55,0,0,0-.12-.35,1,1,0,0,0-.36-.31,6,6,0,0,0-.67-.33,7.31,7.31,0,0,1-.78-.36,3.45,3.45,0,0,1-.58-.4,1.6,1.6,0,0,1-.35-.51,1.57,1.57,0,0,1-.13-.67,1.8,1.8,0,0,1,.15-.73,1.73,1.73,0,0,1,.42-.58,1.92,1.92,0,0,1,.66-.4,2.42,2.42,0,0,1,.88-.15,2.66,2.66,0,0,1,1.17.25,1.76,1.76,0,0,1,.75.7,2,2,0,0,1,.26,1h-1.36a1,1,0,0,0-.09-.43.71.71,0,0,0-.27-.32.83.83,0,0,0-.46-.12.84.84,0,0,0-.44.1.63.63,0,0,0-.26.25.86.86,0,0,0-.08.36.55.55,0,0,0,.06.26.65.65,0,0,0,.17.22,2.18,2.18,0,0,0,.33.2l.53.24a5.53,5.53,0,0,1,1.06.51,1.78,1.78,0,0,1,.63.62,1.56,1.56,0,0,1,.22.87,1.88,1.88,0,0,1-.16.76,1.61,1.61,0,0,1-.45.59,2.09,2.09,0,0,1-.69.38,3.22,3.22,0,0,1-.91.13,2.5,2.5,0,0,1-1.26-.3,2.08,2.08,0,0,1-.77-.76,2,2,0,0,1-.26-1h1.31a1.25,1.25,0,0,0,.16.58.74.74,0,0,0,.37.29,1.26,1.26,0,0,0,.47.08,1.1,1.1,0,0,0,.47-.08.55.55,0,0,0,.28-.24A.64.64,0,0,0,105.18,41.08Zm-44,11.48v1.19h-3.7V52.56Zm-3.32-7.34v8.53H56.41V45.22Zm2.83,3.55v1.17H57.46V48.77Zm.46-3.55v1.19H57.46V45.22Zm3.59,4.31v1.15H62.06V49.53Zm6.92-.16v3.37a3.64,3.64,0,0,1-.48.46,3.25,3.25,0,0,1-.86.47,3.9,3.9,0,0,1-1.34.2,3.4,3.4,0,0,1-1.26-.23,2.46,2.46,0,0,1-1-.67,3,3,0,0,1-.62-1.13,5.07,5.07,0,0,1-.22-1.6V48.72a5.77,5.77,0,0,1,.19-1.59A3,3,0,0,1,66.67,46a2.39,2.39,0,0,1,.93-.68,3.24,3.24,0,0,1,1.25-.22,3.2,3.2,0,0,1,1.5.32,2.1,2.1,0,0,1,.92.92,3.67,3.67,0,0,1,.37,1.49H70.25a2.66,2.66,0,0,0-.2-.87,1.06,1.06,0,0,0-.44-.51,1.48,1.48,0,0,0-.74-.16,1.65,1.65,0,0,0-.7.14,1.07,1.07,0,0,0-.48.44,2.13,2.13,0,0,0-.28.75,5.7,5.7,0,0,0-.09,1.09v1.53a5.08,5.08,0,0,0,.11,1.11,2.32,2.32,0,0,0,.33.76,1.3,1.3,0,0,0,.53.43,1.81,1.81,0,0,0,.72.14,1.75,1.75,0,0,0,.63-.09,1.16,1.16,0,0,0,.37-.18l.21-.16V50.49H68.85V49.37Zm1.16,1.47v-.51A4.32,4.32,0,0,1,73,49a2.71,2.71,0,0,1,.52-1,2.09,2.09,0,0,1,.8-.58,2.51,2.51,0,0,1,1-.2,2.54,2.54,0,0,1,1,.2,2.09,2.09,0,0,1,.8.58,2.56,2.56,0,0,1,.52,1,4.32,4.32,0,0,1,.18,1.31v.51a4.3,4.3,0,0,1-.18,1.3,2.61,2.61,0,0,1-.52,1,2.22,2.22,0,0,1-.79.57,2.56,2.56,0,0,1-1,.2,2.61,2.61,0,0,1-1-.2,2.22,2.22,0,0,1-.79-.57,2.62,2.62,0,0,1-.53-1A4.3,4.3,0,0,1,72.8,50.84Zm1.37-.51v.51a3.49,3.49,0,0,0,.08.83,1.71,1.71,0,0,0,.23.58,1.06,1.06,0,0,0,.37.36,1,1,0,0,0,.47.11,1.07,1.07,0,0,0,.49-.11.89.89,0,0,0,.36-.36,1.71,1.71,0,0,0,.22-.58,5,5,0,0,0,.07-.83v-.51a3.86,3.86,0,0,0-.08-.82,1.91,1.91,0,0,0-.24-.59.91.91,0,0,0-.37-.36.94.94,0,0,0-.47-.12.93.93,0,0,0-.46.12,1,1,0,0,0-.36.36,1.69,1.69,0,0,0-.23.59A3.3,3.3,0,0,0,74.17,50.33Zm6.51,2.28,1.17-5.2h1.41l-1.8,6.34h-.88Zm-.83-5.2,1.21,5.22.06,1.12h-.87l-1.82-6.34Zm6.67,6.46a2.86,2.86,0,0,1-1.09-.19,2.09,2.09,0,0,1-.82-.55,2.46,2.46,0,0,1-.51-.9A4.25,4.25,0,0,1,83.93,51v-.61A4.71,4.71,0,0,1,84.11,49a2.59,2.59,0,0,1,.52-1,2,2,0,0,1,.77-.56,2.63,2.63,0,0,1,1-.18,2.57,2.57,0,0,1,1,.2,1.69,1.69,0,0,1,.72.58,2.52,2.52,0,0,1,.42,1,5.66,5.66,0,0,1,.14,1.31V51H84.58V50h2.77v-.15a3.15,3.15,0,0,0-.1-.74,1,1,0,0,0-.31-.48.9.9,0,0,0-.57-.17,1,1,0,0,0-.47.1.86.86,0,0,0-.34.32,2.21,2.21,0,0,0-.2.6,5.71,5.71,0,0,0-.07.91V51a3.12,3.12,0,0,0,.09.81,1.49,1.49,0,0,0,.25.54,1.21,1.21,0,0,0,.41.3,1.7,1.7,0,0,0,.57.09,1.74,1.74,0,0,0,.82-.17,2,2,0,0,0,.59-.47l.61.84a2.82,2.82,0,0,1-.46.45,2.7,2.7,0,0,1-.7.36A3,3,0,0,1,86.52,53.87Zm4.64-5.24v5.12H89.79V47.41H91.1Zm1.53-1.26v1.35a1,1,0,0,0-.25,0h-.26a1,1,0,0,0-.48.1.82.82,0,0,0-.35.29,1.35,1.35,0,0,0-.22.45,3.14,3.14,0,0,0-.1.59l-.29,0a5.52,5.52,0,0,1,.1-1.11,3.28,3.28,0,0,1,.28-.9,1.46,1.46,0,0,1,.48-.6,1,1,0,0,1,.67-.22l.24,0A.64.64,0,0,1,92.69,47.37ZM95,48.76v5H93.61V47.41h1.28Zm-.24,1.59h-.44a4.87,4.87,0,0,1,.15-1.25,3.25,3.25,0,0,1,.43-1,2.25,2.25,0,0,1,.68-.63,1.89,1.89,0,0,1,.89-.22,1.65,1.65,0,0,1,.68.13,1.26,1.26,0,0,1,.54.41,1.91,1.91,0,0,1,.34.73,4.31,4.31,0,0,1,.13,1.1v4.09H96.76v-4.1a2,2,0,0,0-.1-.71.64.64,0,0,0-.28-.37.84.84,0,0,0-.47-.12.86.86,0,0,0-.49.15A1.37,1.37,0,0,0,95,49a2.21,2.21,0,0,0-.23.61A3.33,3.33,0,0,0,94.73,50.35Zm7.71,2.11V49.3a1.33,1.33,0,0,0-.09-.53.57.57,0,0,0-.27-.28.78.78,0,0,0-.43-.1.88.88,0,0,0-.45.11.76.76,0,0,0-.28.31,1,1,0,0,0-.09.43H99.46a1.87,1.87,0,0,1,.15-.73,2.12,2.12,0,0,1,.46-.63,2.23,2.23,0,0,1,.7-.43,2.52,2.52,0,0,1,.93-.16,2.6,2.6,0,0,1,1.08.21,1.53,1.53,0,0,1,.75.65,2.2,2.2,0,0,1,.27,1.17v3a4.58,4.58,0,0,0,.06.78,2.92,2.92,0,0,0,.15.6v.09h-1.38a2.4,2.4,0,0,1-.15-.59A5.58,5.58,0,0,1,102.44,52.46Zm.18-2.57v.88H102a1.74,1.74,0,0,0-.53.08,1.31,1.31,0,0,0-.4.23,1,1,0,0,0-.24.34,1.12,1.12,0,0,0-.08.45,1.14,1.14,0,0,0,.08.49.57.57,0,0,0,.25.28.86.86,0,0,0,.41.09,1.07,1.07,0,0,0,.94-.49.54.54,0,0,0,.11-.38l.31.57a1.62,1.62,0,0,1-.18.47,2.3,2.3,0,0,1-.32.47,1.44,1.44,0,0,1-.48.36,1.48,1.48,0,0,1-.65.14,2,2,0,0,1-1-.23,1.62,1.62,0,0,1-.66-.64,2.08,2.08,0,0,1-.23-1,2.13,2.13,0,0,1,.16-.86,1.74,1.74,0,0,1,.47-.67,2.08,2.08,0,0,1,.78-.43,3.61,3.61,0,0,1,1.1-.15Zm3.93-1.13v5h-1.36V47.41h1.28Zm-.25,1.59h-.43A4.87,4.87,0,0,1,106,49.1a3,3,0,0,1,.43-1,2.14,2.14,0,0,1,.68-.63,1.89,1.89,0,0,1,.89-.22,1.65,1.65,0,0,1,.68.13,1.26,1.26,0,0,1,.54.41,1.91,1.91,0,0,1,.34.73,4.35,4.35,0,0,1,.12,1.1v4.09h-1.36v-4.1a2.24,2.24,0,0,0-.1-.71.68.68,0,0,0-.28-.37.9.9,0,0,0-.48-.12.83.83,0,0,0-.48.15,1.37,1.37,0,0,0-.38.41,2.21,2.21,0,0,0-.23.61A2.81,2.81,0,0,0,106.3,50.35Zm7,2.37a.87.87,0,0,0,.46-.11.8.8,0,0,0,.34-.34,1.39,1.39,0,0,0,.13-.62h1.29a2.35,2.35,0,0,1-.32,1.17,2,2,0,0,1-.79.78,2.24,2.24,0,0,1-1.1.27,2.79,2.79,0,0,1-1.09-.2,2.06,2.06,0,0,1-.77-.59,2.75,2.75,0,0,1-.46-.94,4.94,4.94,0,0,1-.14-1.27v-.58A4.86,4.86,0,0,1,111,49a2.71,2.71,0,0,1,.46-1,1.94,1.94,0,0,1,.77-.58,2.58,2.58,0,0,1,1.09-.21,2.33,2.33,0,0,1,1.15.28,1.94,1.94,0,0,1,.77.81,3,3,0,0,1,.29,1.31h-1.29a2,2,0,0,0-.12-.69.82.82,0,0,0-.82-.56,1,1,0,0,0-.55.13.83.83,0,0,0-.33.36,2.19,2.19,0,0,0-.16.59c0,.23,0,.48,0,.77v.58c0,.29,0,.56,0,.79a2.23,2.23,0,0,0,.15.58.79.79,0,0,0,.34.36A1.13,1.13,0,0,0,113.33,52.72Zm5.7,1.15a2.86,2.86,0,0,1-1.09-.19,2.09,2.09,0,0,1-.82-.55,2.46,2.46,0,0,1-.51-.9,4.25,4.25,0,0,1-.17-1.25v-.61a4.71,4.71,0,0,1,.18-1.38,2.73,2.73,0,0,1,.51-1,2,2,0,0,1,.78-.56,2.59,2.59,0,0,1,1-.18,2.52,2.52,0,0,1,1,.2,1.58,1.58,0,0,1,.72.58,2.52,2.52,0,0,1,.43,1,5.66,5.66,0,0,1,.14,1.31V51h-4.12V50h2.77v-.15a2.68,2.68,0,0,0-.11-.74.82.82,0,0,0-.87-.65,1,1,0,0,0-.47.1.8.8,0,0,0-.34.32,1.91,1.91,0,0,0-.2.6,5.71,5.71,0,0,0-.07.91V51a3.69,3.69,0,0,0,.08.81,1.7,1.7,0,0,0,.26.54,1.21,1.21,0,0,0,.41.3,1.7,1.7,0,0,0,.57.09,1.67,1.67,0,0,0,.81-.17,2,2,0,0,0,.6-.47l.61.84a2.82,2.82,0,0,1-.46.45,2.7,2.7,0,0,1-.7.36A3,3,0,0,1,119,53.87ZM77.4,57.39l-2.07,7.36H73.85l2.7-8.53h.93ZM79,64.75,77,57.39l-.1-1.17h.95l2.72,8.53Zm0-3.17v1.19h-4V61.58Zm3.52,1.75,1.25-4.92h.86l-.17,1.51L83.3,64.75h-.76Zm-.52-4.92,1,4.94v1.4h-.86l-1.42-6.34Zm3.63,4.88.91-4.88H88l-1.43,6.34h-.85Zm-.86-4.88,1.23,4.86.09,1.48h-.76l-1.27-4.83L84,58.41Zm7,5.05V60.3a1.17,1.17,0,0,0-.1-.53.55.55,0,0,0-.26-.28.81.81,0,0,0-.43-.1,1,1,0,0,0-.46.11.74.74,0,0,0-.27.31,1,1,0,0,0-.09.43H88.85a1.87,1.87,0,0,1,.15-.73,2.28,2.28,0,0,1,.45-.63,2.41,2.41,0,0,1,.71-.43,2.52,2.52,0,0,1,.93-.16,2.6,2.6,0,0,1,1.08.21,1.53,1.53,0,0,1,.75.65,2.2,2.2,0,0,1,.27,1.17v3a4.58,4.58,0,0,0,.06.78,2.92,2.92,0,0,0,.15.6v.09H92a3,3,0,0,1-.14-.59A5.58,5.58,0,0,1,91.83,63.46ZM92,60.89v.88h-.65a1.74,1.74,0,0,0-.53.08,1.2,1.2,0,0,0-.4.23,1,1,0,0,0-.24.34,1.27,1.27,0,0,0,0,.94.57.57,0,0,0,.25.28.86.86,0,0,0,.41.09,1.07,1.07,0,0,0,.94-.49.54.54,0,0,0,.11-.38l.31.57a1.62,1.62,0,0,1-.18.47,2.3,2.3,0,0,1-.32.47,1.44,1.44,0,0,1-.48.36,1.48,1.48,0,0,1-.65.14,2,2,0,0,1-1-.23A1.57,1.57,0,0,1,89,64a2.08,2.08,0,0,1-.23-1,2.13,2.13,0,0,1,.16-.86,1.74,1.74,0,0,1,.47-.67,2.12,2.12,0,0,1,.77-.43,3.73,3.73,0,0,1,1.11-.15ZM96,59.63v5.12H94.59V58.41h1.3Zm1.53-1.26v1.35a1,1,0,0,0-.25,0H97a1.07,1.07,0,0,0-.49.1.85.85,0,0,0-.34.29,1.35,1.35,0,0,0-.22.45,2.5,2.5,0,0,0-.1.59l-.29,0A6.4,6.4,0,0,1,95.62,60a3.66,3.66,0,0,1,.29-.9,1.46,1.46,0,0,1,.48-.6,1,1,0,0,1,.66-.22l.24,0A.64.64,0,0,1,97.49,58.37Zm4,5.05V55.75h1.36v9h-1.24Zm-3.41-1.58v-.5A5.9,5.9,0,0,1,98.23,60a2.87,2.87,0,0,1,.41-1,1.77,1.77,0,0,1,.66-.57,2.07,2.07,0,0,1,.88-.18,1.48,1.48,0,0,1,.82.22,1.76,1.76,0,0,1,.58.6,3.36,3.36,0,0,1,.38.94,6,6,0,0,1,.2,1.21V62a7.83,7.83,0,0,1-.2,1.18,3.54,3.54,0,0,1-.38.92,1.84,1.84,0,0,1-.6.61,1.5,1.5,0,0,1-.81.21,1.83,1.83,0,0,1-1.53-.77,3,3,0,0,1-.41-.94A5.75,5.75,0,0,1,98.09,61.84Zm1.37-.5v.5a6.48,6.48,0,0,0,.05.83,1.88,1.88,0,0,0,.19.58.92.92,0,0,0,.34.34,1.13,1.13,0,0,0,.51.1,1,1,0,0,0,.61-.18,1.3,1.3,0,0,0,.37-.51,3,3,0,0,0,.19-.71V60.92a2.5,2.5,0,0,0-.12-.57,1.58,1.58,0,0,0-.23-.47,1,1,0,0,0-.34-.31.91.91,0,0,0-.47-.12,1,1,0,0,0-.51.12.77.77,0,0,0-.34.35,1.87,1.87,0,0,0-.2.58A6.65,6.65,0,0,0,99.46,61.34Z"></path><path class="cls-2" d="M37.87,108.22v8.53H36.76v-8.53Zm2.74,0v.92H34v-.92Zm2.19-.47v9H41.72v-9Zm-.26,5.59-.45,0a4.19,4.19,0,0,1,.19-1.2,3.13,3.13,0,0,1,.53-1,2.38,2.38,0,0,1,1.86-.86,2.74,2.74,0,0,1,.84.13,1.58,1.58,0,0,1,.64.4,1.71,1.71,0,0,1,.41.71,3.35,3.35,0,0,1,.14,1.07v4.15H45.61v-4.17a1.93,1.93,0,0,0-.14-.79.92.92,0,0,0-.43-.44,1.47,1.47,0,0,0-.69-.14,1.52,1.52,0,0,0-.74.17,1.71,1.71,0,0,0-.57.47,2.12,2.12,0,0,0-.37.68A2.37,2.37,0,0,0,42.54,113.34ZM51,116.87a3,3,0,0,1-1.2-.23,2.73,2.73,0,0,1-.93-.63,3,3,0,0,1-.58-1A3.45,3.45,0,0,1,48,113.8v-.24a3.91,3.91,0,0,1,.23-1.38,3.18,3.18,0,0,1,.62-1,2.72,2.72,0,0,1,.89-.64,2.52,2.52,0,0,1,1-.22,2.66,2.66,0,0,1,1.17.24,2.07,2.07,0,0,1,.81.65,2.84,2.84,0,0,1,.47,1,4.71,4.71,0,0,1,.15,1.23v.48H48.69V113h3.65v-.08a2.87,2.87,0,0,0-.18-.82,1.37,1.37,0,0,0-.47-.66,1.35,1.35,0,0,0-.87-.26,1.51,1.51,0,0,0-.68.16,1.48,1.48,0,0,0-.54.46,2.2,2.2,0,0,0-.34.74,3.89,3.89,0,0,0-.13,1v.24a2.91,2.91,0,0,0,.13.85,2.09,2.09,0,0,0,.37.69A1.71,1.71,0,0,0,51,116a2,2,0,0,0,1-.23,2.43,2.43,0,0,0,.69-.63l.66.52a2.86,2.86,0,0,1-.52.59,2.48,2.48,0,0,1-.78.46A2.94,2.94,0,0,1,51,116.87Zm9.34,0a3,3,0,0,1-1.2-.23,2.6,2.6,0,0,1-.92-.63,2.71,2.71,0,0,1-.59-1,3.45,3.45,0,0,1-.21-1.23v-.24a3.91,3.91,0,0,1,.23-1.38,3,3,0,0,1,.62-1,2.72,2.72,0,0,1,.89-.64,2.52,2.52,0,0,1,1-.22,2.66,2.66,0,0,1,1.17.24,2.07,2.07,0,0,1,.81.65,2.84,2.84,0,0,1,.47,1,4.71,4.71,0,0,1,.15,1.23v.48H58V113h3.65v-.08a2.87,2.87,0,0,0-.18-.82,1.37,1.37,0,0,0-.47-.66,1.35,1.35,0,0,0-.87-.26,1.59,1.59,0,0,0-.69.16,1.53,1.53,0,0,0-.53.46,2.2,2.2,0,0,0-.34.74,3.51,3.51,0,0,0-.13,1v.24a2.61,2.61,0,0,0,.13.85,1.92,1.92,0,0,0,.37.69,1.71,1.71,0,0,0,1.38.64,2,2,0,0,0,1-.23,2.43,2.43,0,0,0,.69-.63l.66.52a2.86,2.86,0,0,1-.52.59,2.48,2.48,0,0,1-.78.46A2.94,2.94,0,0,1,60.3,116.87Zm6-4.19v.89H63.43v-.89Zm3.6,3.3a1.73,1.73,0,0,0,.72-.16,1.46,1.46,0,0,0,.54-.44,1.19,1.19,0,0,0,.24-.63h1a2,2,0,0,1-.38,1,2.66,2.66,0,0,1-.91.78,2.61,2.61,0,0,1-1.24.3,2.91,2.91,0,0,1-1.25-.26,2.27,2.27,0,0,1-.87-.69,3,3,0,0,1-.53-1,4.44,4.44,0,0,1-.17-1.22v-.24a4.31,4.31,0,0,1,.17-1.21,3,3,0,0,1,.53-1,2.39,2.39,0,0,1,.87-.7,3.06,3.06,0,0,1,1.25-.25,2.58,2.58,0,0,1,1.3.31,2.15,2.15,0,0,1,.87.82,2.3,2.3,0,0,1,.36,1.17h-1a1.57,1.57,0,0,0-.23-.71,1.29,1.29,0,0,0-.51-.5,1.46,1.46,0,0,0-.76-.2,1.68,1.68,0,0,0-.84.2,1.5,1.5,0,0,0-.53.53,2.46,2.46,0,0,0-.28.73,4.47,4.47,0,0,0-.08.82v.24a4.47,4.47,0,0,0,.08.82,2.27,2.27,0,0,0,.28.74,1.55,1.55,0,0,0,.53.52A1.66,1.66,0,0,0,69.88,116Zm4.92-5.57v6.34H73.71v-6.34Zm-1.17-1.68a.64.64,0,0,1,.16-.45.73.73,0,0,1,1,0,.64.64,0,0,1,.16.45.6.6,0,0,1-.16.43.73.73,0,0,1-1,0A.6.6,0,0,1,73.63,108.73Zm5.57,1.68v.83H75.77v-.83Zm-2.27-1.54H78v6.31a1.06,1.06,0,0,0,.1.49.52.52,0,0,0,.26.21,1,1,0,0,0,.34.06l.28,0,.23,0v.89l-.34.08a3.49,3.49,0,0,1-.5,0,1.74,1.74,0,0,1-.73-.16,1.2,1.2,0,0,1-.54-.53,2.33,2.33,0,0,1-.19-1Zm4.72,1.54v6.34H80.56v-6.34Zm-1.17-1.68a.68.68,0,0,1,.15-.45.73.73,0,0,1,1,0,.64.64,0,0,1,.17.45.67.67,0,0,1-1.13.43A.64.64,0,0,1,80.48,108.73Zm7.63,7.13v.89H83.5v-.89Zm-.17-4.68-4.19,5.57h-.67V116l4.17-5.54h.69Zm-.48-.77v.9H83.13v-.9Zm4.42,6.46a3.09,3.09,0,0,1-1.2-.23,2.6,2.6,0,0,1-.92-.63,2.85,2.85,0,0,1-.59-1,3.45,3.45,0,0,1-.2-1.23v-.24a3.92,3.92,0,0,1,.22-1.38,3,3,0,0,1,.63-1,2.53,2.53,0,0,1,.89-.64,2.45,2.45,0,0,1,1-.22,2.66,2.66,0,0,1,1.17.24,2.07,2.07,0,0,1,.81.65,2.84,2.84,0,0,1,.47,1,4.7,4.7,0,0,1,.16,1.23v.48H89.61V113h3.65v-.08a2.32,2.32,0,0,0-.18-.82,1.42,1.42,0,0,0-.46-.66,1.4,1.4,0,0,0-.88-.26,1.51,1.51,0,0,0-.68.16,1.48,1.48,0,0,0-.54.46,2.41,2.41,0,0,0-.34.74,3.89,3.89,0,0,0-.13,1v.24a2.91,2.91,0,0,0,.13.85,2.09,2.09,0,0,0,.37.69,1.68,1.68,0,0,0,.59.47,1.71,1.71,0,0,0,.8.17,2,2,0,0,0,1-.23,2.6,2.6,0,0,0,.7-.63l.65.52a2.59,2.59,0,0,1-.52.59,2.48,2.48,0,0,1-.78.46A2.91,2.91,0,0,1,91.88,116.87Zm4.81-5.11v5H95.61v-6.34h1Zm-.25,1.58-.46,0a3.87,3.87,0,0,1,.2-1.2,2.94,2.94,0,0,1,.53-1,2.33,2.33,0,0,1,.8-.63,2.45,2.45,0,0,1,1-.23,2.76,2.76,0,0,1,.85.13,1.58,1.58,0,0,1,.64.4,1.82,1.82,0,0,1,.41.71,3.65,3.65,0,0,1,.14,1.07v4.15H99.51v-4.17a1.76,1.76,0,0,0-.15-.79.88.88,0,0,0-.43-.44,1.44,1.44,0,0,0-.69-.14,1.55,1.55,0,0,0-.74.17,1.82,1.82,0,0,0-.57.47,2.31,2.31,0,0,0-.36.68A2.37,2.37,0,0,0,96.44,113.34Zm12.47,1.73a.85.85,0,0,0-.11-.44.83.83,0,0,0-.41-.36,3.14,3.14,0,0,0-.94-.3,6.81,6.81,0,0,1-1-.26,3,3,0,0,1-.72-.37,1.54,1.54,0,0,1-.45-.51,1.38,1.38,0,0,1-.16-.69,1.53,1.53,0,0,1,.16-.7,1.92,1.92,0,0,1,.47-.6,2.44,2.44,0,0,1,.75-.4,3,3,0,0,1,1-.15,2.9,2.9,0,0,1,1.3.27,2,2,0,0,1,.82.72,1.82,1.82,0,0,1,.29,1h-1.08a1,1,0,0,0-.16-.51,1.2,1.2,0,0,0-.45-.41,1.47,1.47,0,0,0-.72-.17,1.74,1.74,0,0,0-.74.14,1,1,0,0,0-.4.35.88.88,0,0,0-.12.44.79.79,0,0,0,.06.32.63.63,0,0,0,.22.25,1.39,1.39,0,0,0,.44.21,5.06,5.06,0,0,0,.74.2,6,6,0,0,1,1.28.43,1.92,1.92,0,0,1,.75.6,1.54,1.54,0,0,1,.25.87,1.64,1.64,0,0,1-.18.76,1.68,1.68,0,0,1-.5.6,2.41,2.41,0,0,1-.77.38,3.45,3.45,0,0,1-1,.14,3,3,0,0,1-1.42-.3,2.17,2.17,0,0,1-.88-.78,1.83,1.83,0,0,1-.3-1H106a1.06,1.06,0,0,0,.26.71,1.23,1.23,0,0,0,.57.37,2.3,2.3,0,0,0,.68.11,2,2,0,0,0,.74-.12,1.08,1.08,0,0,0,.46-.32A.74.74,0,0,0,108.91,115.07Zm5.14,1.8a3.09,3.09,0,0,1-1.2-.23,2.69,2.69,0,0,1-.92-.63,2.85,2.85,0,0,1-.59-1,3.69,3.69,0,0,1-.2-1.23v-.24a3.7,3.7,0,0,1,.23-1.38,3,3,0,0,1,.62-1,2.62,2.62,0,0,1,.89-.64,2.45,2.45,0,0,1,1-.22,2.66,2.66,0,0,1,1.17.24,2.07,2.07,0,0,1,.81.65,2.67,2.67,0,0,1,.47,1,4.31,4.31,0,0,1,.16,1.23v.48h-4.74V113h3.65v-.08a2.55,2.55,0,0,0-.17-.82,1.51,1.51,0,0,0-.47-.66,1.4,1.4,0,0,0-.88-.26,1.55,1.55,0,0,0-.68.16,1.45,1.45,0,0,0-.53.46,2.21,2.21,0,0,0-.35.74,3.91,3.91,0,0,0-.12,1v.24a2.91,2.91,0,0,0,.12.85,2.29,2.29,0,0,0,.37.69,1.68,1.68,0,0,0,.59.47,1.74,1.74,0,0,0,.8.17,1.93,1.93,0,0,0,1-.23,2.46,2.46,0,0,0,.7-.63l.65.52a2.59,2.59,0,0,1-.52.59,2.48,2.48,0,0,1-.78.46A2.91,2.91,0,0,1,114.05,116.87Zm4.82-5.46v5.34h-1.09v-6.34h1.06Zm2-1v1a1.15,1.15,0,0,0-.26,0h-.27a1.69,1.69,0,0,0-.66.11,1.37,1.37,0,0,0-.48.33,1.53,1.53,0,0,0-.32.5,2.6,2.6,0,0,0-.15.64l-.3.17a4.57,4.57,0,0,1,.11-1.07,3,3,0,0,1,.36-.9,1.71,1.71,0,0,1,1.5-.83l.27,0A1.07,1.07,0,0,1,120.85,110.37Zm3,5.4,1.74-5.36h1.1l-2.28,6.34h-.72Zm-1.45-5.36,1.79,5.39.13,1h-.73l-2.3-6.34Zm6.51,0v6.34h-1.09v-6.34Zm-1.17-1.68a.69.69,0,0,1,.16-.45.73.73,0,0,1,1,0,.64.64,0,0,1,.16.45.6.6,0,0,1-.16.43.73.73,0,0,1-1,0A.65.65,0,0,1,127.77,108.73Zm5.45,7.25a1.73,1.73,0,0,0,.72-.16,1.54,1.54,0,0,0,.54-.44,1.19,1.19,0,0,0,.24-.63h1a2,2,0,0,1-.38,1,2.66,2.66,0,0,1-.91.78,2.61,2.61,0,0,1-1.24.3,2.91,2.91,0,0,1-1.25-.26,2.27,2.27,0,0,1-.87-.69,3,3,0,0,1-.53-1,4.44,4.44,0,0,1-.17-1.22v-.24a4.31,4.31,0,0,1,.17-1.21,3,3,0,0,1,.53-1,2.39,2.39,0,0,1,.87-.7,3.06,3.06,0,0,1,1.25-.25,2.58,2.58,0,0,1,1.3.31,2.22,2.22,0,0,1,.87.82,2.3,2.3,0,0,1,.36,1.17h-1a1.57,1.57,0,0,0-.23-.71,1.29,1.29,0,0,0-.51-.5,1.46,1.46,0,0,0-.76-.2,1.68,1.68,0,0,0-.84.2,1.5,1.5,0,0,0-.53.53,2.46,2.46,0,0,0-.28.73,3.74,3.74,0,0,0-.08.82v.24a3.74,3.74,0,0,0,.08.82,2.27,2.27,0,0,0,.28.74,1.55,1.55,0,0,0,.53.52A1.66,1.66,0,0,0,133.22,116Zm6.38.89a3.18,3.18,0,0,1-1.21-.23,2.65,2.65,0,0,1-.91-.63,2.85,2.85,0,0,1-.59-1,3.45,3.45,0,0,1-.21-1.23v-.24a3.91,3.91,0,0,1,.23-1.38,3.18,3.18,0,0,1,.62-1,2.72,2.72,0,0,1,.89-.64,2.52,2.52,0,0,1,1-.22,2.66,2.66,0,0,1,1.17.24,2.07,2.07,0,0,1,.81.65,2.84,2.84,0,0,1,.47,1,4.71,4.71,0,0,1,.15,1.23v.48h-4.73V113H141v-.08a2.57,2.57,0,0,0-.18-.82,1.37,1.37,0,0,0-.47-.66,1.35,1.35,0,0,0-.87-.26,1.51,1.51,0,0,0-.68.16,1.48,1.48,0,0,0-.54.46,2.41,2.41,0,0,0-.34.74,3.89,3.89,0,0,0-.13,1v.24a2.91,2.91,0,0,0,.13.85,2.09,2.09,0,0,0,.37.69,1.68,1.68,0,0,0,.59.47,1.71,1.71,0,0,0,.8.17,2,2,0,0,0,1-.23,2.6,2.6,0,0,0,.7-.63l.65.52a2.59,2.59,0,0,1-.52.59,2.48,2.48,0,0,1-.78.46A2.94,2.94,0,0,1,139.6,116.87ZM47.72,129.52v-7.77h1.09v9h-1Zm-4.26-1.87v-.12a4.49,4.49,0,0,1,.17-1.32,3.2,3.2,0,0,1,.51-1,2.33,2.33,0,0,1,.79-.65,2.2,2.2,0,0,1,1-.24,2.46,2.46,0,0,1,1,.21,2,2,0,0,1,.76.61,3,3,0,0,1,.5,1,6.24,6.24,0,0,1,.25,1.26v.53a6.24,6.24,0,0,1-.25,1.26,3,3,0,0,1-.5.95,2.11,2.11,0,0,1-.76.6,2.51,2.51,0,0,1-1.06.21,2.19,2.19,0,0,1-1-.24,2.43,2.43,0,0,1-.79-.68,3.25,3.25,0,0,1-.51-1A4.36,4.36,0,0,1,43.46,127.65Zm1.09-.12v.12a4.19,4.19,0,0,0,.09.89,2.54,2.54,0,0,0,.3.73,1.58,1.58,0,0,0,.53.5,1.49,1.49,0,0,0,.75.18,1.61,1.61,0,0,0,.89-.23,1.73,1.73,0,0,0,.56-.61,3.62,3.62,0,0,0,.33-.81v-1.41a3.23,3.23,0,0,0-.21-.62,1.66,1.66,0,0,0-.34-.54,1.32,1.32,0,0,0-.51-.38,1.55,1.55,0,0,0-.71-.14,1.53,1.53,0,0,0-.76.18,1.61,1.61,0,0,0-.53.51,2.49,2.49,0,0,0-.3.74A4.13,4.13,0,0,0,44.55,127.53Zm8.58,3.34a3.09,3.09,0,0,1-1.2-.23A2.69,2.69,0,0,1,51,130a3,3,0,0,1-.59-1,3.69,3.69,0,0,1-.2-1.23v-.24a3.7,3.7,0,0,1,.23-1.38,2.87,2.87,0,0,1,.62-1,2.62,2.62,0,0,1,.89-.64,2.45,2.45,0,0,1,1-.22,2.66,2.66,0,0,1,1.17.24,2.07,2.07,0,0,1,.81.65,2.67,2.67,0,0,1,.47,1,4.31,4.31,0,0,1,.16,1.23v.48H50.86V127h3.65v-.08a2.55,2.55,0,0,0-.17-.82,1.51,1.51,0,0,0-.47-.66,1.4,1.4,0,0,0-.88-.26,1.55,1.55,0,0,0-.68.16,1.45,1.45,0,0,0-.53.46,2.21,2.21,0,0,0-.35.74,3.91,3.91,0,0,0-.12,1v.24a2.91,2.91,0,0,0,.12.85,2.29,2.29,0,0,0,.37.69,1.68,1.68,0,0,0,.59.47,1.74,1.74,0,0,0,.8.17,1.93,1.93,0,0,0,1-.23,2.46,2.46,0,0,0,.7-.63l.65.52a2.59,2.59,0,0,1-.52.59,2.48,2.48,0,0,1-.78.46A2.91,2.91,0,0,1,53.13,130.87ZM58,121.75v9H57v-9ZM61,124.41v6.34H59.87v-6.34Zm-1.17-1.68a.68.68,0,0,1,.15-.45.63.63,0,0,1,.49-.18.61.61,0,0,1,.47.18.64.64,0,0,1,.17.45.6.6,0,0,1-.64.61.63.63,0,0,1-.49-.18A.64.64,0,0,1,59.79,122.73Zm4.84,7,1.73-5.36h1.11l-2.28,6.34h-.73Zm-1.45-5.36L65,129.8l.12.95h-.73l-2.29-6.34Zm7.88,6.46a3.09,3.09,0,0,1-1.2-.23,2.69,2.69,0,0,1-.92-.63,2.85,2.85,0,0,1-.59-1,3.69,3.69,0,0,1-.2-1.23v-.24a3.7,3.7,0,0,1,.23-1.38,3,3,0,0,1,.62-1,2.53,2.53,0,0,1,.89-.64,2.45,2.45,0,0,1,1-.22,2.66,2.66,0,0,1,1.17.24,2.18,2.18,0,0,1,.82.65,2.82,2.82,0,0,1,.46,1,4.7,4.7,0,0,1,.16,1.23v.48H68.79V127h3.65v-.08a2.55,2.55,0,0,0-.17-.82,1.51,1.51,0,0,0-.47-.66,1.4,1.4,0,0,0-.88-.26,1.55,1.55,0,0,0-.68.16,1.37,1.37,0,0,0-.53.46,2.21,2.21,0,0,0-.35.74,3.91,3.91,0,0,0-.12,1v.24a2.91,2.91,0,0,0,.12.85,2.29,2.29,0,0,0,.37.69,1.68,1.68,0,0,0,.59.47,1.71,1.71,0,0,0,.8.17,1.93,1.93,0,0,0,1-.23,2.46,2.46,0,0,0,.7-.63l.65.52a2.59,2.59,0,0,1-.52.59,2.48,2.48,0,0,1-.78.46A2.91,2.91,0,0,1,71.06,130.87Zm4.82-5.46v5.34H74.79v-6.34h1.06Zm2-1v1a1.15,1.15,0,0,0-.26,0h-.27a1.69,1.69,0,0,0-.66.11,1.37,1.37,0,0,0-.48.33,1.53,1.53,0,0,0-.32.5,2.6,2.6,0,0,0-.15.64l-.3.17a4.57,4.57,0,0,1,.11-1.07,3,3,0,0,1,.36-.9,1.71,1.71,0,0,1,1.5-.83l.27,0A1.07,1.07,0,0,1,77.86,124.37Zm2.89,5.72,1.76-5.68h1.16l-2.54,7.32a4.43,4.43,0,0,1-.24.5,2,2,0,0,1-.36.52,1.65,1.65,0,0,1-.54.4,1.58,1.58,0,0,1-.74.16,1.47,1.47,0,0,1-.33,0l-.28-.05v-.88h.29a1.67,1.67,0,0,0,.63-.1.91.91,0,0,0,.43-.32,1.79,1.79,0,0,0,.31-.62Zm-1.3-5.68,1.65,4.92.28,1.14-.78.4-2.33-6.46ZM90.16,130a1.73,1.73,0,0,0,.72-.16,1.54,1.54,0,0,0,.54-.44,1.28,1.28,0,0,0,.24-.63h1a1.88,1.88,0,0,1-.39,1,2.54,2.54,0,0,1-.9.78,2.61,2.61,0,0,1-1.24.3,2.88,2.88,0,0,1-1.25-.26,2.37,2.37,0,0,1-.88-.69,3.17,3.17,0,0,1-.52-1,4.44,4.44,0,0,1-.17-1.22v-.24a4.31,4.31,0,0,1,.17-1.21,3.12,3.12,0,0,1,.52-1,2.51,2.51,0,0,1,.88-.7,3,3,0,0,1,1.25-.25,2.58,2.58,0,0,1,1.3.31,2.22,2.22,0,0,1,.87.82,2.3,2.3,0,0,1,.36,1.17h-1a1.57,1.57,0,0,0-.23-.71,1.29,1.29,0,0,0-.51-.5,1.46,1.46,0,0,0-.76-.2,1.68,1.68,0,0,0-.84.2,1.5,1.5,0,0,0-.53.53,2.46,2.46,0,0,0-.28.73,3.74,3.74,0,0,0-.08.82v.24a3.74,3.74,0,0,0,.08.82,2.51,2.51,0,0,0,.27.74,1.68,1.68,0,0,0,.54.52A1.66,1.66,0,0,0,90.16,130Zm7.48-.31V126.4a1.36,1.36,0,0,0-.15-.65,1,1,0,0,0-.44-.43,1.65,1.65,0,0,0-.74-.15,1.6,1.6,0,0,0-.72.14,1.07,1.07,0,0,0-.48.37.75.75,0,0,0-.17.49H93.85a1.44,1.44,0,0,1,.18-.68,1.86,1.86,0,0,1,.5-.6,2.56,2.56,0,0,1,.8-.43,3.11,3.11,0,0,1,1-.17,2.92,2.92,0,0,1,1.22.24,1.75,1.75,0,0,1,.83.71,2,2,0,0,1,.31,1.17v3a5.43,5.43,0,0,0,0,.67,3.07,3.07,0,0,0,.17.62v.09H97.82a1.8,1.8,0,0,1-.13-.5A4.13,4.13,0,0,1,97.64,129.67Zm.19-2.76v.76H96.75a4.15,4.15,0,0,0-.83.07,2,2,0,0,0-.61.22,1,1,0,0,0-.37.37.92.92,0,0,0-.13.51,1.08,1.08,0,0,0,.13.54,1,1,0,0,0,.41.4,1.51,1.51,0,0,0,.67.14,1.82,1.82,0,0,0,.88-.21,1.91,1.91,0,0,0,.6-.52,1,1,0,0,0,.25-.59l.46.52a1.7,1.7,0,0,1-.22.55,2.7,2.7,0,0,1-1.2,1,2.3,2.3,0,0,1-.93.18,2.39,2.39,0,0,1-1.13-.26,1.88,1.88,0,0,1-.75-.67,1.72,1.72,0,0,1-.26-.95,1.87,1.87,0,0,1,.2-.9,1.69,1.69,0,0,1,.57-.65,2.65,2.65,0,0,1,.9-.4,4.85,4.85,0,0,1,1.18-.13Zm5.26-2.5v.83H99.66v-.83Zm-2.27-1.54h1.08v6.31a1.06,1.06,0,0,0,.1.49.52.52,0,0,0,.26.21,1,1,0,0,0,.34.06l.28,0,.23,0v.89l-.34.08a3.49,3.49,0,0,1-.5,0,1.74,1.74,0,0,1-.73-.16,1.15,1.15,0,0,1-.54-.53,2.19,2.19,0,0,1-.19-1Zm6.17,8a3.09,3.09,0,0,1-1.2-.23,2.69,2.69,0,0,1-.92-.63,2.85,2.85,0,0,1-.59-1,3.45,3.45,0,0,1-.2-1.23v-.24a3.92,3.92,0,0,1,.22-1.38,3.2,3.2,0,0,1,.63-1,2.53,2.53,0,0,1,.89-.64,2.45,2.45,0,0,1,1-.22,2.66,2.66,0,0,1,1.17.24,2.07,2.07,0,0,1,.81.65,2.67,2.67,0,0,1,.47,1,4.31,4.31,0,0,1,.16,1.23v.48h-4.74V127h3.65v-.08a2.55,2.55,0,0,0-.17-.82,1.51,1.51,0,0,0-.47-.66,1.4,1.4,0,0,0-.88-.26,1.55,1.55,0,0,0-.68.16,1.37,1.37,0,0,0-.53.46,2.21,2.21,0,0,0-.35.74,3.91,3.91,0,0,0-.12,1v.24a2.91,2.91,0,0,0,.12.85,2.29,2.29,0,0,0,.37.69,1.68,1.68,0,0,0,.59.47,1.71,1.71,0,0,0,.8.17,1.93,1.93,0,0,0,1-.23,2.46,2.46,0,0,0,.7-.63l.65.52a2.59,2.59,0,0,1-.52.59,2.48,2.48,0,0,1-.78.46A2.91,2.91,0,0,1,107,130.87Zm7.84-6.46h1v6.2a2.78,2.78,0,0,1-.34,1.43,2.12,2.12,0,0,1-1,.9,2.94,2.94,0,0,1-1.39.31,3.32,3.32,0,0,1-.77-.1,3.24,3.24,0,0,1-.87-.35,2.2,2.2,0,0,1-.71-.65l.57-.64a2.16,2.16,0,0,0,.83.66,2.1,2.1,0,0,0,.87.19,1.91,1.91,0,0,0,.89-.19,1.35,1.35,0,0,0,.58-.58,1.87,1.87,0,0,0,.21-.92V125.8Zm-4.37,3.24v-.12a4.86,4.86,0,0,1,.17-1.32,3.41,3.41,0,0,1,.5-1,2.28,2.28,0,0,1,1.84-.89,2.44,2.44,0,0,1,1,.21,2,2,0,0,1,.76.61,3,3,0,0,1,.5,1,6.24,6.24,0,0,1,.25,1.26v.53a5.62,5.62,0,0,1-.25,1.26,3,3,0,0,1-.5.95,2.11,2.11,0,0,1-.76.6,2.47,2.47,0,0,1-1.06.21,2.23,2.23,0,0,1-1-.24,2.4,2.4,0,0,1-.78-.68,3.25,3.25,0,0,1-.51-1A4.72,4.72,0,0,1,110.46,127.65Zm1.09-.12v.12a4.19,4.19,0,0,0,.09.89,2.54,2.54,0,0,0,.3.73,1.55,1.55,0,0,0,.52.5,1.5,1.5,0,0,0,.76.18,1.63,1.63,0,0,0,.89-.23,1.73,1.73,0,0,0,.56-.61,3.6,3.6,0,0,0,.32-.81v-1.41a2.64,2.64,0,0,0-.2-.62,1.5,1.5,0,0,0-.34-.54,1.32,1.32,0,0,0-.51-.38,1.52,1.52,0,0,0-2,.55,2.49,2.49,0,0,0-.3.74A4.13,4.13,0,0,0,111.55,127.53Zm5.62.12v-.13a4,4,0,0,1,.2-1.28,3.19,3.19,0,0,1,.58-1,2.62,2.62,0,0,1,.9-.68,2.77,2.77,0,0,1,1.2-.25,2.74,2.74,0,0,1,1.2.25,2.6,2.6,0,0,1,.92.68,3.19,3.19,0,0,1,.58,1,4,4,0,0,1,.19,1.28v.13a4,4,0,0,1-.19,1.27,3.35,3.35,0,0,1-.58,1,2.79,2.79,0,0,1-.91.68,2.86,2.86,0,0,1-1.2.24,2.92,2.92,0,0,1-1.2-.24A2.79,2.79,0,0,1,118,130a3.35,3.35,0,0,1-.58-1A4,4,0,0,1,117.17,127.65Zm1.09-.13v.13a3.27,3.27,0,0,0,.11.9,2.21,2.21,0,0,0,.33.73,1.55,1.55,0,0,0,.57.51,1.57,1.57,0,0,0,.79.19,1.5,1.5,0,0,0,.78-.19,1.45,1.45,0,0,0,.56-.51,2.45,2.45,0,0,0,.34-.73,3.27,3.27,0,0,0,.11-.9v-.13a3.19,3.19,0,0,0-.11-.89,2.4,2.4,0,0,0-.34-.74,1.67,1.67,0,0,0-.57-.52,1.61,1.61,0,0,0-.78-.19,1.68,1.68,0,0,0-.79.19,1.74,1.74,0,0,0-.56.52,2.17,2.17,0,0,0-.33.74A3.19,3.19,0,0,0,118.26,127.52Zm7.13-2.11v5.34H124.3v-6.34h1.06Zm2-1v1a1.15,1.15,0,0,0-.26,0h-.27a1.69,1.69,0,0,0-.66.11,1.37,1.37,0,0,0-.48.33,1.53,1.53,0,0,0-.32.5,3.15,3.15,0,0,0-.15.64l-.3.17A5.17,5.17,0,0,1,125,126a3,3,0,0,1,.36-.9,1.71,1.71,0,0,1,1.5-.83l.27,0A1.07,1.07,0,0,1,127.37,124.37Zm2.89,5.72,1.76-5.68h1.16l-2.54,7.32a4.43,4.43,0,0,1-.24.5,2,2,0,0,1-.36.52,1.65,1.65,0,0,1-.54.4,1.55,1.55,0,0,1-.74.16,1.47,1.47,0,0,1-.33,0l-.28-.05v-.88h.29a1.67,1.67,0,0,0,.63-.1,1,1,0,0,0,.44-.32,1.79,1.79,0,0,0,.3-.62Zm-1.3-5.68,1.65,4.92.28,1.14-.78.4-2.33-6.46ZM31.25,135.75h1.08v7.77l-.09,1.23h-1Zm5.37,5.78v.12a4.72,4.72,0,0,1-.17,1.28,3,3,0,0,1-.48,1,2.13,2.13,0,0,1-1.82.92,2.54,2.54,0,0,1-1.06-.21,2.11,2.11,0,0,1-.76-.6,3.17,3.17,0,0,1-.5-.95,6.24,6.24,0,0,1-.25-1.26v-.53a6.24,6.24,0,0,1,.25-1.26,3.17,3.17,0,0,1,.5-.95,2,2,0,0,1,.76-.61,2.46,2.46,0,0,1,1-.21,2.27,2.27,0,0,1,1.06.24,2,2,0,0,1,.77.65,3,3,0,0,1,.48,1A4.86,4.86,0,0,1,36.62,141.53Zm-1.09.12v-.12a4.13,4.13,0,0,0-.09-.89,2.24,2.24,0,0,0-.28-.74,1.46,1.46,0,0,0-.51-.51,1.55,1.55,0,0,0-.78-.18,1.58,1.58,0,0,0-.71.14,1.48,1.48,0,0,0-.51.38,1.86,1.86,0,0,0-.35.54,2.62,2.62,0,0,0-.19.62v1.41a2.92,2.92,0,0,0,.3.79,1.81,1.81,0,0,0,.58.62,1.58,1.58,0,0,0,.89.24,1.39,1.39,0,0,0,1.26-.68,2.28,2.28,0,0,0,.29-.73A3.62,3.62,0,0,0,35.53,141.65Zm6.2,2V140.4a1.36,1.36,0,0,0-.15-.65,1,1,0,0,0-.45-.43,1.91,1.91,0,0,0-1.46,0,1.19,1.19,0,0,0-.48.37.81.81,0,0,0-.17.49H37.94a1.55,1.55,0,0,1,.17-.68,2,2,0,0,1,.51-.6,2.4,2.4,0,0,1,.79-.43,3.12,3.12,0,0,1,1.05-.17,3,3,0,0,1,1.22.24,1.8,1.8,0,0,1,.83.71,2.12,2.12,0,0,1,.3,1.17v3a5.43,5.43,0,0,0,0,.67,3.07,3.07,0,0,0,.17.62v.09H41.9a2.24,2.24,0,0,1-.13-.5A4,4,0,0,1,41.73,143.67Zm.18-2.76,0,.76h-1.1a4,4,0,0,0-.82.07,1.81,1.81,0,0,0-.61.22,1,1,0,0,0-.38.37.92.92,0,0,0-.13.51,1.09,1.09,0,0,0,.14.54,1,1,0,0,0,.4.4,1.51,1.51,0,0,0,.67.14,1.76,1.76,0,0,0,.88-.21,1.85,1.85,0,0,0,.61-.52,1.09,1.09,0,0,0,.24-.59l.47.52a1.75,1.75,0,0,1-.23.55,2.74,2.74,0,0,1-.48.57,2.59,2.59,0,0,1-.72.45,2.25,2.25,0,0,1-.92.18,2.39,2.39,0,0,1-1.13-.26,1.88,1.88,0,0,1-.75-.67,1.73,1.73,0,0,1-.27-.95,2,2,0,0,1,.2-.9,1.72,1.72,0,0,1,.58-.65,2.65,2.65,0,0,1,.9-.4,4.74,4.74,0,0,1,1.18-.13Zm6.71-2.5h1v6.2a2.78,2.78,0,0,1-.34,1.43,2.23,2.23,0,0,1-1,.9,3,3,0,0,1-1.39.31,3.47,3.47,0,0,1-.78-.1,3.52,3.52,0,0,1-.87-.35,2.17,2.17,0,0,1-.7-.65l.56-.64a2.32,2.32,0,0,0,.83.66,2.17,2.17,0,0,0,.87.19,1.89,1.89,0,0,0,.89-.19,1.3,1.3,0,0,0,.58-.58,1.87,1.87,0,0,0,.21-.92V139.8Zm-4.36,3.24v-.12a4.86,4.86,0,0,1,.17-1.32,3.19,3.19,0,0,1,.5-1,2.24,2.24,0,0,1,.79-.65,2.21,2.21,0,0,1,1-.24,2.38,2.38,0,0,1,1,.21,2.07,2.07,0,0,1,.77.61,2.94,2.94,0,0,1,.49.95,6.22,6.22,0,0,1,.26,1.26v.53a5.6,5.6,0,0,1-.26,1.26,2.94,2.94,0,0,1-.49.95,2.15,2.15,0,0,1-.77.6,2.46,2.46,0,0,1-1,.21,2.2,2.2,0,0,1-1-.24,2.33,2.33,0,0,1-.79-.68,3.24,3.24,0,0,1-.5-1A4.72,4.72,0,0,1,44.26,141.65Zm1.08-.12v.12a3.62,3.62,0,0,0,.1.89,2.08,2.08,0,0,0,.3.73,1.46,1.46,0,0,0,.52.5A1.49,1.49,0,0,0,47,144a1.61,1.61,0,0,0,.89-.23,1.64,1.64,0,0,0,.56-.61,3.62,3.62,0,0,0,.33-.81v-1.41a2.64,2.64,0,0,0-.2-.62,1.84,1.84,0,0,0-.34-.54,1.48,1.48,0,0,0-.51-.38,1.6,1.6,0,0,0-.72-.14,1.53,1.53,0,0,0-.76.18,1.49,1.49,0,0,0-.52.51,2.06,2.06,0,0,0-.3.74A3.57,3.57,0,0,0,45.34,141.53Zm10-3.12h1v6.2A2.88,2.88,0,0,1,56,146a2.23,2.23,0,0,1-.95.9,3,3,0,0,1-1.4.31,3.39,3.39,0,0,1-.77-.1,3.52,3.52,0,0,1-.87-.35,2.31,2.31,0,0,1-.71-.65l.57-.64a2.32,2.32,0,0,0,.83.66,2.17,2.17,0,0,0,.87.19,1.89,1.89,0,0,0,.89-.19,1.35,1.35,0,0,0,.58-.58,1.87,1.87,0,0,0,.21-.92V139.8ZM51,141.65v-.12a4.49,4.49,0,0,1,.17-1.32,3.17,3.17,0,0,1,.49-1,2.28,2.28,0,0,1,.8-.65,2.19,2.19,0,0,1,1-.24,2.38,2.38,0,0,1,1,.21,2,2,0,0,1,.76.61,3,3,0,0,1,.5.95,5.62,5.62,0,0,1,.25,1.26v.53a5.11,5.11,0,0,1-.25,1.26,3,3,0,0,1-.5.95,2,2,0,0,1-.76.6,2.46,2.46,0,0,1-1,.21,2.17,2.17,0,0,1-1-.24,2.33,2.33,0,0,1-.79-.68,3,3,0,0,1-.5-1A4.36,4.36,0,0,1,51,141.65Zm1.08-.12v.12a3.62,3.62,0,0,0,.1.89,2.28,2.28,0,0,0,.29.73,1.46,1.46,0,0,0,1.28.68,1.61,1.61,0,0,0,.89-.23,1.64,1.64,0,0,0,.56-.61,3.62,3.62,0,0,0,.33-.81v-1.41a3.21,3.21,0,0,0-.2-.62,1.84,1.84,0,0,0-.34-.54,1.48,1.48,0,0,0-.51-.38,1.62,1.62,0,0,0-.72-.14,1.44,1.44,0,0,0-1.29.69,2.24,2.24,0,0,0-.29.74A3.57,3.57,0,0,0,52.08,141.53Zm8.54,3.34a3.09,3.09,0,0,1-1.2-.23,2.79,2.79,0,0,1-.92-.63,2.83,2.83,0,0,1-.58-1,3.45,3.45,0,0,1-.21-1.23v-.24a3.91,3.91,0,0,1,.23-1.38,3,3,0,0,1,.62-1,2.62,2.62,0,0,1,.89-.64,2.48,2.48,0,0,1,1-.22,2.67,2.67,0,0,1,1.18.24,2.07,2.07,0,0,1,.81.65,2.84,2.84,0,0,1,.47,1,4.71,4.71,0,0,1,.15,1.23v.48H58.36V141H62v-.08a2.87,2.87,0,0,0-.18-.82,1.43,1.43,0,0,0-.47-.66,1.38,1.38,0,0,0-.88-.26,1.58,1.58,0,0,0-.68.16,1.53,1.53,0,0,0-.53.46,2.2,2.2,0,0,0-.34.74,3.51,3.51,0,0,0-.13,1v.24a2.61,2.61,0,0,0,.13.85,2.06,2.06,0,0,0,.36.69,1.82,1.82,0,0,0,.6.47,1.7,1.7,0,0,0,.79.17,2,2,0,0,0,1-.23,2.57,2.57,0,0,0,.69-.63l.66.52a2.86,2.86,0,0,1-.52.59,2.48,2.48,0,0,1-.78.46A3,3,0,0,1,60.62,144.87Zm7.73-1.35v-7.77h1.09v9h-1Zm-4.26-1.87v-.12a4.86,4.86,0,0,1,.17-1.32,3.2,3.2,0,0,1,.51-1,2.43,2.43,0,0,1,.79-.65,2.24,2.24,0,0,1,1-.24,2.44,2.44,0,0,1,1,.21,2,2,0,0,1,.76.61,3,3,0,0,1,.5.95,6.24,6.24,0,0,1,.25,1.26v.53a5.62,5.62,0,0,1-.25,1.26,3,3,0,0,1-.5.95,2.11,2.11,0,0,1-.76.6,2.47,2.47,0,0,1-1.06.21,2.19,2.19,0,0,1-1-.24,2.54,2.54,0,0,1-.79-.68,3.25,3.25,0,0,1-.51-1A4.72,4.72,0,0,1,64.09,141.65Zm1.09-.12v.12a4.19,4.19,0,0,0,.09.89,2.3,2.3,0,0,0,.31.73,1.46,1.46,0,0,0,.52.5,1.49,1.49,0,0,0,.75.18,1.61,1.61,0,0,0,.89-.23,1.73,1.73,0,0,0,.56-.61,3.62,3.62,0,0,0,.33-.81v-1.41a3.23,3.23,0,0,0-.21-.62,1.66,1.66,0,0,0-.34-.54,1.32,1.32,0,0,0-.51-.38,1.55,1.55,0,0,0-.71-.14,1.53,1.53,0,0,0-.76.18,1.49,1.49,0,0,0-.52.51,2.26,2.26,0,0,0-.31.74A4.13,4.13,0,0,0,65.18,141.53Zm11.58-3.12v.83H73.33v-.83Zm-2.27-1.54h1.09v6.31a.94.94,0,0,0,.1.49.46.46,0,0,0,.25.21,1,1,0,0,0,.34.06,1.33,1.33,0,0,0,.28,0l.23,0v.89l-.34.08a3.37,3.37,0,0,1-.5,0,1.77,1.77,0,0,1-.73-.16,1.18,1.18,0,0,1-.53-.53,2.18,2.18,0,0,1-.2-1Zm4.63-1.12v9H78v-9Zm-.26,5.59-.45,0a3.59,3.59,0,0,1,.19-1.2,3.13,3.13,0,0,1,.53-1,2.28,2.28,0,0,1,.81-.63,2.37,2.37,0,0,1,1-.23,2.76,2.76,0,0,1,.85.13,1.58,1.58,0,0,1,.64.4,1.82,1.82,0,0,1,.41.71A3.65,3.65,0,0,1,83,140.6v4.15H81.93v-4.17a1.76,1.76,0,0,0-.15-.79.88.88,0,0,0-.43-.44,1.41,1.41,0,0,0-.69-.14,1.55,1.55,0,0,0-.74.17,1.78,1.78,0,0,0-.56.47,2.12,2.12,0,0,0-.37.68A2.37,2.37,0,0,0,78.86,141.34Zm8.41,3.53a3.09,3.09,0,0,1-1.2-.23,2.79,2.79,0,0,1-.92-.63,2.83,2.83,0,0,1-.58-1,3.45,3.45,0,0,1-.21-1.23v-.24a3.91,3.91,0,0,1,.23-1.38,3,3,0,0,1,.62-1,2.62,2.62,0,0,1,.89-.64,2.48,2.48,0,0,1,1-.22,2.63,2.63,0,0,1,1.17.24,2,2,0,0,1,.82.65,3,3,0,0,1,.47,1,4.71,4.71,0,0,1,.15,1.23v.48H85V141h3.65v-.08a2.87,2.87,0,0,0-.18-.82,1.43,1.43,0,0,0-.47-.66,1.38,1.38,0,0,0-.88-.26,1.58,1.58,0,0,0-.68.16,1.53,1.53,0,0,0-.53.46,2.42,2.42,0,0,0-.35.74,3.91,3.91,0,0,0-.12,1v.24a2.91,2.91,0,0,0,.12.85,2.29,2.29,0,0,0,.37.69,1.78,1.78,0,0,0,.59.47,1.74,1.74,0,0,0,.8.17,1.93,1.93,0,0,0,1-.23,2.46,2.46,0,0,0,.7-.63l.66.52a2.86,2.86,0,0,1-.52.59,2.6,2.6,0,0,1-.78.46A3,3,0,0,1,87.27,144.87Zm8.16-.12H94.35v-6.89a2.42,2.42,0,0,1,.28-1.22,1.84,1.84,0,0,1,.8-.76,2.8,2.8,0,0,1,1.24-.25,3.23,3.23,0,0,1,.82.1c.27.07.55.15.83.25l-.18.92a5.25,5.25,0,0,0-.63-.2,2.66,2.66,0,0,0-.77-.1,1.35,1.35,0,0,0-1,.32,1.29,1.29,0,0,0-.3.94Zm1.29-6.34v.83H93.34v-.83Zm2.14,0v6.34H97.77v-6.34Zm2.86,1v5.34h-1.08v-6.34h1Zm2-1v1l-.26,0h-.27a1.69,1.69,0,0,0-.66.11,1.41,1.41,0,0,0-.49.33,1.71,1.71,0,0,0-.32.5,2.6,2.6,0,0,0-.14.64l-.31.17a5.17,5.17,0,0,1,.11-1.07,3,3,0,0,1,.36-.9,1.67,1.67,0,0,1,.61-.6,1.71,1.71,0,0,1,.89-.23l.27,0A1.07,1.07,0,0,1,103.7,138.37Zm4.69,4.7a1,1,0,0,0-.1-.44.91.91,0,0,0-.42-.36,3.06,3.06,0,0,0-.93-.3,7,7,0,0,1-1-.26,3,3,0,0,1-.72-.37,1.8,1.8,0,0,1-.45-.51,1.38,1.38,0,0,1-.16-.69,1.54,1.54,0,0,1,.17-.7,1.92,1.92,0,0,1,.47-.6,2.5,2.5,0,0,1,.74-.4,3,3,0,0,1,1-.15,2.87,2.87,0,0,1,1.3.27,2,2,0,0,1,.83.72,1.82,1.82,0,0,1,.29,1h-1.09a.93.93,0,0,0-.16-.51,1.2,1.2,0,0,0-.45-.41,1.42,1.42,0,0,0-.72-.17,1.69,1.69,0,0,0-.73.14,1,1,0,0,0-.41.35.88.88,0,0,0-.12.44.79.79,0,0,0,.06.32.72.72,0,0,0,.22.25,1.58,1.58,0,0,0,.45.21,4.89,4.89,0,0,0,.73.2,5.61,5.61,0,0,1,1.28.43,1.78,1.78,0,0,1,.75.6,1.46,1.46,0,0,1,.25.87,1.64,1.64,0,0,1-.18.76,1.68,1.68,0,0,1-.5.6,2.41,2.41,0,0,1-.77.38,3.45,3.45,0,0,1-1,.14,3.07,3.07,0,0,1-1.42-.3,2.24,2.24,0,0,1-.88-.78,1.83,1.83,0,0,1-.3-1h1.09a1.17,1.17,0,0,0,.26.71,1.32,1.32,0,0,0,.58.37,2.24,2.24,0,0,0,.67.11,1.94,1.94,0,0,0,.74-.12,1.12,1.12,0,0,0,.47-.32A.8.8,0,0,0,108.39,143.07Zm5.17-4.66v.83h-3.43v-.83Zm-2.27-1.54h1.08v6.31a1.06,1.06,0,0,0,.1.49.52.52,0,0,0,.26.21,1,1,0,0,0,.34.06,1.33,1.33,0,0,0,.28,0l.23,0v.89l-.34.08a3.49,3.49,0,0,1-.5,0,1.74,1.74,0,0,1-.73-.16,1.2,1.2,0,0,1-.54-.53,2.19,2.19,0,0,1-.19-1Zm7.6,2.76v7.56H117.8v-8.78h1Zm4.27,1.9v.12a4.72,4.72,0,0,1-.16,1.28,3.21,3.21,0,0,1-.48,1,2.27,2.27,0,0,1-.77.68,2.23,2.23,0,0,1-1,.24,2.76,2.76,0,0,1-1.07-.2,2.24,2.24,0,0,1-.78-.58,2.94,2.94,0,0,1-.52-.92,5.08,5.08,0,0,1-.25-1.2v-.65a5.1,5.1,0,0,1,.26-1.26,3.18,3.18,0,0,1,.51-.95,2,2,0,0,1,.78-.61,2.46,2.46,0,0,1,1.05-.21,2.27,2.27,0,0,1,1.06.24,2.13,2.13,0,0,1,.78.65,3.16,3.16,0,0,1,.48,1A4.87,4.87,0,0,1,123.16,141.53Zm-1.09.12v-.12a3.57,3.57,0,0,0-.1-.89,2.07,2.07,0,0,0-.31-.74,1.44,1.44,0,0,0-1.29-.69,1.6,1.6,0,0,0-.72.14,1.48,1.48,0,0,0-.51.38,1.84,1.84,0,0,0-.34.54,2.64,2.64,0,0,0-.2.62v1.52a3.51,3.51,0,0,0,.33.77,1.56,1.56,0,0,0,1.45.8,1.39,1.39,0,0,0,.75-.19,1.44,1.44,0,0,0,.53-.51,2.18,2.18,0,0,0,.31-.73A3.71,3.71,0,0,0,122.07,141.65Zm3.65-5.9v9h-1.09v-9Zm5.48,7.92V140.4a1.36,1.36,0,0,0-.15-.65,1,1,0,0,0-.45-.43,1.62,1.62,0,0,0-.74-.15,1.65,1.65,0,0,0-.72.14,1.19,1.19,0,0,0-.48.37.81.81,0,0,0-.17.49h-1.08a1.55,1.55,0,0,1,.17-.68,2,2,0,0,1,.51-.6,2.45,2.45,0,0,1,.8-.43,3.11,3.11,0,0,1,1-.17,2.92,2.92,0,0,1,1.22.24,1.8,1.8,0,0,1,.83.71,2.12,2.12,0,0,1,.3,1.17v3a4.06,4.06,0,0,0,.06.67,2.53,2.53,0,0,0,.17.62v.09h-1.13a1.8,1.8,0,0,1-.13-.5A4.13,4.13,0,0,1,131.2,143.67Zm.19-2.76v.76h-1.1a4.11,4.11,0,0,0-.82.07,1.81,1.81,0,0,0-.61.22,1,1,0,0,0-.38.37,1,1,0,0,0-.13.51,1.09,1.09,0,0,0,.14.54,1,1,0,0,0,.4.4,1.55,1.55,0,0,0,.68.14,1.82,1.82,0,0,0,.88-.21,1.91,1.91,0,0,0,.6-.52,1.09,1.09,0,0,0,.24-.59l.47.52a1.7,1.7,0,0,1-.22.55,3.17,3.17,0,0,1-.49.57,2.69,2.69,0,0,1-.71.45,2.34,2.34,0,0,1-.93.18,2.39,2.39,0,0,1-1.13-.26,1.88,1.88,0,0,1-.75-.67,1.73,1.73,0,0,1-.27-.95,2,2,0,0,1,.2-.9,1.81,1.81,0,0,1,.58-.65,2.65,2.65,0,0,1,.9-.4,4.74,4.74,0,0,1,1.18-.13Zm5.14,3.07a1.71,1.71,0,0,0,.71-.16,1.46,1.46,0,0,0,.54-.44,1.19,1.19,0,0,0,.24-.63h1a1.87,1.87,0,0,1-.38,1,2.57,2.57,0,0,1-.91.78,2.54,2.54,0,0,1-1.23.3,2.84,2.84,0,0,1-1.25-.26,2.3,2.3,0,0,1-.88-.69,3.17,3.17,0,0,1-.52-1,4.09,4.09,0,0,1-.17-1.22v-.24a4,4,0,0,1,.17-1.21,3.12,3.12,0,0,1,.52-1,2.42,2.42,0,0,1,.88-.7,3,3,0,0,1,1.25-.25,2.6,2.6,0,0,1,1.3.31,2.22,2.22,0,0,1,.87.82,2.3,2.3,0,0,1,.35,1.17h-1a1.56,1.56,0,0,0-.22-.71,1.5,1.5,0,0,0-1.27-.7,1.66,1.66,0,0,0-.84.2,1.5,1.5,0,0,0-.53.53,2.48,2.48,0,0,0-.29.73,4.47,4.47,0,0,0-.08.82v.24a4.47,4.47,0,0,0,.08.82,2.52,2.52,0,0,0,.28.74,1.55,1.55,0,0,0,.53.52A1.7,1.7,0,0,0,136.53,144Zm6.37.89a3.09,3.09,0,0,1-1.2-.23,2.79,2.79,0,0,1-.92-.63,3,3,0,0,1-.59-1,3.69,3.69,0,0,1-.2-1.23v-.24a3.91,3.91,0,0,1,.23-1.38,3,3,0,0,1,.62-1,2.62,2.62,0,0,1,.89-.64,2.48,2.48,0,0,1,1-.22,2.66,2.66,0,0,1,1.17.24,2.1,2.1,0,0,1,.82.65,3,3,0,0,1,.47,1,4.71,4.71,0,0,1,.15,1.23v.48h-4.74V141h3.65v-.08a2.55,2.55,0,0,0-.17-.82,1.51,1.51,0,0,0-.47-.66,1.4,1.4,0,0,0-.88-.26,1.55,1.55,0,0,0-.68.16,1.45,1.45,0,0,0-.53.46,2.21,2.21,0,0,0-.35.74,3.91,3.91,0,0,0-.12,1v.24a2.91,2.91,0,0,0,.12.85,2.29,2.29,0,0,0,.37.69,1.68,1.68,0,0,0,.59.47,1.74,1.74,0,0,0,.8.17,1.93,1.93,0,0,0,1-.23,2.46,2.46,0,0,0,.7-.63l.66.52a2.65,2.65,0,0,1-.53.59,2.48,2.48,0,0,1-.78.46A2.91,2.91,0,0,1,142.9,144.87Z"></path><path class="cls-2" d="M81.17,93.5v1.25h-5V93.67l2.32-3a6.92,6.92,0,0,0,.55-.84,2.65,2.65,0,0,0,.28-.65,1.92,1.92,0,0,0,.09-.56,2.2,2.2,0,0,0-.1-.67.94.94,0,0,0-.3-.45.67.67,0,0,0-.46-.17.84.84,0,0,0-.57.2,1.1,1.1,0,0,0-.33.53,2.65,2.65,0,0,0-.11.77h-1.5a3.17,3.17,0,0,1,.3-1.38,2.36,2.36,0,0,1,2.23-1.38,2.53,2.53,0,0,1,1.28.3,1.84,1.84,0,0,1,.79.82A2.69,2.69,0,0,1,81,88.49a3.09,3.09,0,0,1-.11.8,4.79,4.79,0,0,1-.31.79,6.89,6.89,0,0,1-.49.8c-.19.27-.4.54-.64.82l-1.29,1.8Zm5.93-3.75v1.44a6.86,6.86,0,0,1-.18,1.68,3.33,3.33,0,0,1-.5,1.14,2,2,0,0,1-.76.65,2.31,2.31,0,0,1-1,.21,2.63,2.63,0,0,1-.8-.13,2.06,2.06,0,0,1-.68-.41,2.45,2.45,0,0,1-.51-.72,4.3,4.3,0,0,1-.33-1,7.19,7.19,0,0,1-.11-1.39V89.75a7.22,7.22,0,0,1,.17-1.67,3.25,3.25,0,0,1,.51-1.14,1.9,1.9,0,0,1,.76-.63,2.31,2.31,0,0,1,1-.21,2.36,2.36,0,0,1,.8.13,2,2,0,0,1,.67.4,2.46,2.46,0,0,1,.52.71,3.79,3.79,0,0,1,.32,1A7.09,7.09,0,0,1,87.1,89.75ZM85.6,91.4V89.52a6.78,6.78,0,0,0,0-.84,2.91,2.91,0,0,0-.11-.61,1.2,1.2,0,0,0-.19-.41.72.72,0,0,0-.27-.23.67.67,0,0,0-.7,0,.94.94,0,0,0-.29.37,2.73,2.73,0,0,0-.19.67,7.21,7.21,0,0,0-.06,1V91.4a7.31,7.31,0,0,0,0,.86,4,4,0,0,0,.12.62,1.64,1.64,0,0,0,.2.42.7.7,0,0,0,1,.2.85.85,0,0,0,.29-.39,2.36,2.36,0,0,0,.18-.68A7.24,7.24,0,0,0,85.6,91.4Zm6.19-5.21v8.56H90.28V88.06l-1.66.66V87.44l3-1.25Zm7.36,6.23a2.63,2.63,0,0,1-.32,1.34,2.06,2.06,0,0,1-.85.83,2.72,2.72,0,0,1-1.23.28,2.8,2.8,0,0,1-1.25-.28,2.08,2.08,0,0,1-.86-.83,2.63,2.63,0,0,1-.31-1.34,2.55,2.55,0,0,1,.17-1,2.3,2.3,0,0,1,1.27-1.23,2.73,2.73,0,0,1,1-.17,2.57,2.57,0,0,1,1.25.3,2.19,2.19,0,0,1,.85.83A2.39,2.39,0,0,1,99.15,92.42Zm-1.51-.1a2.1,2.1,0,0,0-.11-.7,1,1,0,0,0-.32-.46.71.71,0,0,0-.48-.16.73.73,0,0,0-.48.16,1,1,0,0,0-.31.46,2.1,2.1,0,0,0-.11.7,2,2,0,0,0,.11.69,1,1,0,0,0,.31.44.77.77,0,0,0,.5.16.71.71,0,0,0,.48-.16,1,1,0,0,0,.31-.44A2,2,0,0,0,97.64,92.32ZM99,88.47a2.26,2.26,0,0,1-.29,1.15,2.07,2.07,0,0,1-.8.78,2.29,2.29,0,0,1-1.16.28,2.37,2.37,0,0,1-1.18-.28,2,2,0,0,1-.81-.78,2.28,2.28,0,0,1-.29-1.15,2.67,2.67,0,0,1,.29-1.29,2,2,0,0,1,.81-.81,2.47,2.47,0,0,1,1.17-.28,2.51,2.51,0,0,1,1.18.28,1.87,1.87,0,0,1,.79.81A2.56,2.56,0,0,1,99,88.47Zm-1.5.07a2,2,0,0,0-.09-.62,1,1,0,0,0-.25-.41.61.61,0,0,0-.42-.16.59.59,0,0,0-.41.15.88.88,0,0,0-.26.41,2.25,2.25,0,0,0,0,1.26.88.88,0,0,0,.25.42.65.65,0,0,0,.43.16.6.6,0,0,0,.41-.16,1,1,0,0,0,.25-.42A2,2,0,0,0,97.5,88.54Z"></path></svg>