<svg xmlns="http://www.w3.org/2000/svg" id="Layer_1" data-name="Layer 1" viewBox="0 0 177 166"><defs><style>.cls-1{fill:#61686d;}.cls-2{fill:#fff;}</style></defs><path class="cls-1" d="M141.45,68.15c-2.58,1.81-3,3.76-3.07,4.31-.41.25-.79.46-1.14.65.55-.91,1.06-1.84,1.54-2.79a41.58,41.58,0,0,0,2.06-5l.19-.57a13.8,13.8,0,0,1,2-3.91l.18-.24c7.24-4,3.92-12,3.92-12,.11,1.79-1.61,3.15-3.39,6.4-1.5,2.77-1,4.71-.82,5.23-.36.57-.71,1.07-1,1.49q.18-.78.33-1.56a38.45,38.45,0,0,0,.62-5.35l0-.67c0-.22,0-.45,0-.67V52.08c0-.44,0-.89-.05-1.34,0-.22,0-.44,0-.66l-.06-.67a4.94,4.94,0,0,1,.07-1.33l.52-2.55c5.28-6.35-.78-12.65-.78-12.65.76,1.62-.34,3.52-.8,7.2-.38,3.12.8,4.75,1.16,5.16-.15.74-.3,1.39-.43,1.92l-.06-.42c0-.44-.15-.88-.24-1.32l-.12-.66c0-.22-.08-.44-.14-.65-.22-.87-.41-1.74-.69-2.59l-.19-.64-.1-.32-.11-.31L140.35,39c-.29-.73-.59-1.45-.91-2.17a11.48,11.48,0,0,1-1-4.07c0-.33,0-.65-.08-1,2.84-7.75-5-11.65-5-11.65,1.26,1.27.85,3.43,1.67,7,.68,3.08,2.34,4.21,2.82,4.48.16,1.05.24,1.93.28,2.55l0-.07-.32-.59c-.11-.2-.23-.39-.34-.58l-.69-1.14-.74-1.1-.38-.55-.4-.54c-.41-.57-.84-1.12-1.29-1.66-.62-.79-1.48-1.94-2.22-2.76a5.66,5.66,0,0,1-.88-1.29c-3.26-6.86-11.2-4.93-11.2-4.93,1.78.11,2.92,2,5.93,4.15a6.65,6.65,0,0,0,4.95,1.49l.26.08.91,1A37.51,37.51,0,0,1,135,29.8l.38.54c.13.18.24.37.36.55l.71,1.12.3.53a24,24,0,0,0-2.38-1.77c-4.29-7-12.22-3.37-12.22-3.37,1.78-.19,3.22,1.47,6.55,3.09,2.84,1.38,4.75.79,5.26.58,1.13.67,2.08,1.32,2.63,1.71a2.68,2.68,0,0,1,.82.95h0l.3.6a36.93,36.93,0,0,1,2.08,4.84l.41,1.25.1.31.09.32.18.63c.25.84.42,1.71.61,2.56,0,.22.09.43.12.65h0a22.61,22.61,0,0,0-1.66-2.25c-2-8-10.7-6.8-10.7-6.8,1.76.34,2.65,2.35,5.36,4.87a6.61,6.61,0,0,0,4.86,2.1c.62.67,1.13,1.27,1.51,1.75a4.17,4.17,0,0,1,.93,2.25v0l.16,1.31,0,.32,0,.33,0,.65,0,.65c0,.22,0,.44,0,.66,0,.44,0,.87,0,1.31l0,1.31q0,.33,0,.66l-.05.65c-.07,1-.18,1.89-.31,2.82a20.92,20.92,0,0,0-.65-2.24c1-8.19-7.56-10.17-7.56-10.17,1.52.95,1.63,3.14,3.27,6.46,1.39,2.84,3.26,3.55,3.79,3.7.2.51.37,1,.52,1.4a5.78,5.78,0,0,1,.2,3.19v0a39.44,39.44,0,0,1-1.44,5,41.45,41.45,0,0,1-2.12,4.77c-.23.45-.48.89-.74,1.33a23.23,23.23,0,0,0,.27-2.67c3.89-7.28-3.31-12.23-3.31-12.23,1.07,1.44.37,3.52.66,7.22.25,3.14,1.74,4.49,2.18,4.82v.35a9.8,9.8,0,0,1-1.78,5.59s0,0,0,0a38.38,38.38,0,0,1-3.32,4c-.3.3-.59.63-.91.93l-.94.89s0,0,0,0c.28-.51.54-1,.77-1.51,6.42-5.2,1.69-12.55,1.69-12.55.43,1.74-1,3.38-2.18,6.91-1,3-.14,4.81.13,5.28-.18.45-.37.87-.54,1.24a6.36,6.36,0,0,1-1.81,2.33h0a34.7,34.7,0,0,1-4.25,3c-.87.52-1.75,1-2.65,1.44.37-.39.72-.78,1-1.17,6.14-2.83,3.88-9.63,3.88-9.63,0,1.47-1.49,2.49-3.12,5.05a5.32,5.32,0,0,0-1,4.22c-.2.27-.39.52-.57.74a5.65,5.65,0,0,1-2.21,1.69,0,0,0,0,1,0,0,40.15,40.15,0,0,1-4.88,1.68h0a1.08,1.08,0,0,0-.79,1,1.1,1.1,0,0,0,1.41,1.1,40,40,0,0,0,9.9-4.51c.92-.57,1.82-1.2,2.68-1.86a7.88,7.88,0,0,1,4.07-1.56c7.7,3,11.72-4.8,11.72-4.8-1.29,1.24-3.45.81-7.07,1.56-3.09.64-4.24,2.29-4.52,2.76-.74.1-1.4.16-1.94.19.5-.43,1-.88,1.45-1.32l.95-1c.32-.32.61-.67.92-1A39.22,39.22,0,0,0,136,74.94a.7.7,0,0,1,.06-.09A5.15,5.15,0,0,1,138,73.12l.38-.21c8.25-.3,8.9-9,8.9-9C146.64,65.58,144.49,66,141.45,68.15Z"></path><path class="cls-1" d="M38.47,68.15c2.59,1.81,3,3.76,3.08,4.31.41.25.79.46,1.13.65-.54-.91-1.06-1.84-1.54-2.79a41.52,41.52,0,0,1-2-5c-.07-.19-.13-.38-.19-.57a13.57,13.57,0,0,0-2-3.91l-.17-.24c-7.24-4-3.92-12-3.92-12-.11,1.79,1.61,3.15,3.38,6.4,1.51,2.77,1,4.71.82,5.23.37.57.72,1.07,1,1.49q-.18-.78-.33-1.56a37,37,0,0,1-.62-5.35l0-.67c0-.22,0-.45,0-.67V52.08c0-.44,0-.89.06-1.34,0-.22,0-.44,0-.66l.07-.67a4.94,4.94,0,0,0-.07-1.33l-.52-2.55c-5.28-6.35.77-12.65.77-12.65-.75,1.62.35,3.52.8,7.2.39,3.12-.8,4.75-1.16,5.16.16.74.31,1.39.44,1.92l.06-.42c.05-.44.15-.88.23-1.32l.13-.66c0-.22.08-.44.14-.65.21-.87.41-1.74.68-2.59l.2-.64.1-.32.11-.31L39.58,39c.28-.73.58-1.45.9-2.17a11.71,11.71,0,0,0,1-4.07c0-.33,0-.65.08-1-2.85-7.75,5-11.65,5-11.65-1.26,1.27-.86,3.43-1.67,7-.69,3.08-2.35,4.21-2.83,4.48-.15,1.05-.23,1.93-.27,2.55l0-.07.32-.59c.1-.2.23-.39.34-.58l.69-1.14.74-1.1c.13-.18.24-.37.38-.55l.39-.54c.41-.57.84-1.12,1.29-1.66.63-.79,1.48-1.94,2.23-2.76a5.66,5.66,0,0,0,.88-1.29C52.32,17.07,60.27,19,60.27,19c-1.78.11-2.92,2-5.93,4.15a6.65,6.65,0,0,1-5,1.49l-.26.08-.92,1a40,40,0,0,0-3.32,4.13l-.38.54c-.12.18-.23.37-.36.55L43.44,32l-.3.53a22.85,22.85,0,0,1,2.38-1.77c4.29-7,12.21-3.37,12.21-3.37-1.77-.19-3.21,1.47-6.54,3.09-2.84,1.38-4.75.79-5.26.58-1.13.67-2.08,1.32-2.63,1.71a2.68,2.68,0,0,0-.82.95h0l-.3.6a36.93,36.93,0,0,0-2.08,4.84l-.41,1.25-.1.31-.09.32-.18.63c-.25.84-.42,1.71-.61,2.56-.05.22-.09.43-.12.65h0a22.61,22.61,0,0,1,1.66-2.25c2-8,10.7-6.8,10.7-6.8-1.76.34-2.65,2.35-5.36,4.87a6.61,6.61,0,0,1-4.86,2.1c-.62.67-1.13,1.27-1.5,1.75a4.11,4.11,0,0,0-.94,2.25v0l-.16,1.31,0,.32,0,.33,0,.65,0,.65c0,.22,0,.44,0,.66,0,.44,0,.87,0,1.31l0,1.31q0,.33,0,.66l0,.65c.07,1,.17,1.89.31,2.82.19-.78.4-1.53.65-2.24-1-8.19,7.56-10.17,7.56-10.17-1.52.95-1.63,3.14-3.27,6.46-1.39,2.84-3.26,3.55-3.79,3.7-.2.51-.38,1-.52,1.4a5.78,5.78,0,0,0-.2,3.19s0,0,0,0a37.83,37.83,0,0,0,1.43,5,41.45,41.45,0,0,0,2.12,4.77c.23.45.48.89.74,1.33a21.13,21.13,0,0,1-.26-2.67C39,61,46.15,56.09,46.15,56.09c-1.07,1.44-.37,3.52-.66,7.22-.25,3.14-1.74,4.49-2.18,4.82v.35a9.72,9.72,0,0,0,1.78,5.59l0,0a39.58,39.58,0,0,0,3.31,4c.31.3.6.63.91.93l.94.89,0,0c-.28-.51-.54-1-.78-1.51-6.41-5.2-1.69-12.55-1.69-12.55-.43,1.74,1,3.38,2.19,6.91,1,3,.13,4.81-.14,5.28.19.45.38.87.55,1.24a6.16,6.16,0,0,0,1.81,2.33h0a35.59,35.59,0,0,0,4.26,3c.86.52,1.75,1,2.65,1.44-.38-.39-.72-.78-1-1.17C52,82,54.23,75.21,54.23,75.21c0,1.47,1.5,2.49,3.13,5.05a5.37,5.37,0,0,1,1,4.22c.2.27.38.52.57.74a5.69,5.69,0,0,0,2.2,1.69h0A40.15,40.15,0,0,0,66,88.6h0a1.09,1.09,0,0,1,.8,1,1.1,1.1,0,0,1-1.42,1.1,42.33,42.33,0,0,1-5.1-1.92,41.74,41.74,0,0,1-4.79-2.59c-.92-.57-1.82-1.2-2.69-1.86a7.82,7.82,0,0,0-4.06-1.56C41.05,85.73,37,78,37,78c1.29,1.24,3.44.81,7.07,1.56,3.08.64,4.24,2.29,4.51,2.76.75.1,1.4.16,1.94.19-.49-.43-1-.88-1.44-1.32l-.95-1c-.33-.32-.61-.67-.93-1a40.4,40.4,0,0,1-3.34-4.26l-.06-.09a5.15,5.15,0,0,0-2-1.73l-.39-.21c-8.24-.3-8.89-9-8.89-9C33.28,65.58,35.44,66,38.47,68.15Z"></path><path class="cls-2" d="M76.56,38.37v3.37a5.61,5.61,0,0,1-.48.46,3.42,3.42,0,0,1-.86.47,4,4,0,0,1-1.35.2,3.39,3.39,0,0,1-1.25-.23,2.42,2.42,0,0,1-1-.67A3.15,3.15,0,0,1,71,40.84a5.38,5.38,0,0,1-.22-1.6V37.72a5.75,5.75,0,0,1,.2-1.59A2.88,2.88,0,0,1,71.59,35a2.28,2.28,0,0,1,.92-.68,3.3,3.3,0,0,1,1.26-.22,3.19,3.19,0,0,1,1.49.32,2,2,0,0,1,.92.92,3.67,3.67,0,0,1,.38,1.49H75.17A2.41,2.41,0,0,0,75,36a1.06,1.06,0,0,0-.44-.51,1.45,1.45,0,0,0-.74-.16,1.68,1.68,0,0,0-.7.14,1.18,1.18,0,0,0-.48.44,2.13,2.13,0,0,0-.27.75,5.7,5.7,0,0,0-.09,1.09v1.53a4.53,4.53,0,0,0,.11,1.11,2.13,2.13,0,0,0,.32.76,1.37,1.37,0,0,0,.53.43,1.86,1.86,0,0,0,.73.14,1.83,1.83,0,0,0,.63-.09,1.1,1.1,0,0,0,.36-.18l.22-.16V39.49H73.76V38.37Zm3.78,4.5a3,3,0,0,1-1.1-.19,2.05,2.05,0,0,1-.81-.55,2.46,2.46,0,0,1-.51-.9A3.92,3.92,0,0,1,77.74,40v-.61A4.69,4.69,0,0,1,77.93,38a2.58,2.58,0,0,1,.51-1,2,2,0,0,1,.78-.56,2.58,2.58,0,0,1,1-.18,2.54,2.54,0,0,1,1,.2,1.63,1.63,0,0,1,.72.58,2.52,2.52,0,0,1,.42,1,5.13,5.13,0,0,1,.15,1.31V40H78.4V39h2.77v-.15a3.12,3.12,0,0,0-.11-.74.82.82,0,0,0-.87-.65,1,1,0,0,0-.47.1.8.8,0,0,0-.34.32,1.91,1.91,0,0,0-.2.6,4.74,4.74,0,0,0-.07.91V40a3.69,3.69,0,0,0,.08.81,1.7,1.7,0,0,0,.26.54,1.12,1.12,0,0,0,.41.3,1.62,1.62,0,0,0,.57.09,1.7,1.7,0,0,0,.81-.17,2.12,2.12,0,0,0,.6-.47l.6.84a2.39,2.39,0,0,1-.45.45,2.87,2.87,0,0,1-.7.36A3,3,0,0,1,80.34,42.87ZM85,37.7v5H83.62V36.41H84.9Zm-.22,1.65H84.3a5.22,5.22,0,0,1,.11-1.22,3.4,3.4,0,0,1,.4-1,1.87,1.87,0,0,1,1.62-.87,1.59,1.59,0,0,1,.66.13,1.3,1.3,0,0,1,.52.39,1.73,1.73,0,0,1,.35.69,3.46,3.46,0,0,1,.13,1v4.23H86.72v-4.1a2,2,0,0,0-.1-.71.73.73,0,0,0-.3-.38,1,1,0,0,0-.47-.11.82.82,0,0,0-.5.15A1,1,0,0,0,85,38a2.18,2.18,0,0,0-.19.61A4.15,4.15,0,0,0,84.76,39.35ZM88,39l-.64.14A3.88,3.88,0,0,1,87.48,38a2.81,2.81,0,0,1,.38-.9,2,2,0,0,1,.66-.62,2,2,0,0,1,1.65-.09,1.23,1.23,0,0,1,.55.41,1.78,1.78,0,0,1,.35.73,4.24,4.24,0,0,1,.12,1.08v4.1H89.82v-4.1a2,2,0,0,0-.1-.73.61.61,0,0,0-.3-.36,1,1,0,0,0-.46-.11.7.7,0,0,0-.42.13,1,1,0,0,0-.3.32,1.73,1.73,0,0,0-.18.5A2.74,2.74,0,0,0,88,39Zm7.51,2.09a.55.55,0,0,0-.12-.35,1,1,0,0,0-.36-.31,6,6,0,0,0-.67-.33,7.31,7.31,0,0,1-.78-.36,3.45,3.45,0,0,1-.58-.4,1.6,1.6,0,0,1-.35-.51,1.57,1.57,0,0,1-.13-.67,1.8,1.8,0,0,1,.15-.73,1.73,1.73,0,0,1,.42-.58,1.83,1.83,0,0,1,.66-.4,2.42,2.42,0,0,1,.88-.15,2.66,2.66,0,0,1,1.17.25,1.76,1.76,0,0,1,.75.7,2,2,0,0,1,.26,1H95.45a1,1,0,0,0-.09-.43.71.71,0,0,0-.27-.32.83.83,0,0,0-.46-.12.84.84,0,0,0-.44.1.63.63,0,0,0-.26.25.86.86,0,0,0-.08.36.71.71,0,0,0,.05.26.87.87,0,0,0,.18.22,2.18,2.18,0,0,0,.33.2l.53.24a5.53,5.53,0,0,1,1.06.51,2,2,0,0,1,.64.62,1.65,1.65,0,0,1,.21.87,1.88,1.88,0,0,1-.16.76,1.61,1.61,0,0,1-.45.59,2.09,2.09,0,0,1-.69.38,3.17,3.17,0,0,1-.91.13,2.5,2.5,0,0,1-1.26-.3,2.08,2.08,0,0,1-.77-.76,2,2,0,0,1-.26-1h1.32a1.15,1.15,0,0,0,.15.58.74.74,0,0,0,.37.29,1.21,1.21,0,0,0,.46.08,1.09,1.09,0,0,0,.48-.08.51.51,0,0,0,.28-.24A.64.64,0,0,0,95.51,41.08Zm5.09-1.24v-.51a4.32,4.32,0,0,1,.18-1.31,2.71,2.71,0,0,1,.52-1,2.17,2.17,0,0,1,.8-.58,2.51,2.51,0,0,1,1-.2,2.54,2.54,0,0,1,1,.2,2.09,2.09,0,0,1,.8.58,2.56,2.56,0,0,1,.52,1,4.32,4.32,0,0,1,.18,1.31v.51a4.3,4.3,0,0,1-.18,1.3,2.61,2.61,0,0,1-.52,1,2.22,2.22,0,0,1-.79.57,2.53,2.53,0,0,1-1,.2,2.61,2.61,0,0,1-1-.2,2.22,2.22,0,0,1-.79-.57,2.62,2.62,0,0,1-.53-1A4.3,4.3,0,0,1,100.6,39.84Zm1.37-.51v.51a3.49,3.49,0,0,0,.08.83,1.71,1.71,0,0,0,.23.58,1.15,1.15,0,0,0,.37.36,1,1,0,0,0,.47.11,1.07,1.07,0,0,0,.49-.11.89.89,0,0,0,.36-.36,1.71,1.71,0,0,0,.22-.58,4.15,4.15,0,0,0,.07-.83v-.51a3.86,3.86,0,0,0-.08-.82,1.91,1.91,0,0,0-.24-.59,1,1,0,0,0-.84-.48.93.93,0,0,0-.46.12,1.12,1.12,0,0,0-.36.36,1.69,1.69,0,0,0-.23.59A3.3,3.3,0,0,0,102,39.33Zm6.62,3.42h-1.37V35.81a2.63,2.63,0,0,1,.24-1.19,1.67,1.67,0,0,1,.67-.74,2.05,2.05,0,0,1,1-.25l.36,0a1.76,1.76,0,0,1,.33.07l0,1.11-.2,0h-.23a.78.78,0,0,0-.44.12.7.7,0,0,0-.28.33,1.53,1.53,0,0,0-.09.56Zm1-6.34v1.05h-3.19V36.41ZM64.37,53.75H62.89V52.56h1.47a2.06,2.06,0,0,0,1.1-.25,1.46,1.46,0,0,0,.59-.79,4.24,4.24,0,0,0,.18-1.35V48.79a4.72,4.72,0,0,0-.1-1.08,1.76,1.76,0,0,0-.32-.73,1.22,1.22,0,0,0-.55-.43,2.34,2.34,0,0,0-.84-.14H62.86V45.22h1.57a3.75,3.75,0,0,1,1.33.23,2.84,2.84,0,0,1,1,.69,3.11,3.11,0,0,1,.66,1.12,4.85,4.85,0,0,1,.22,1.54v1.37a4.85,4.85,0,0,1-.22,1.54,3.2,3.2,0,0,1-.66,1.12,2.69,2.69,0,0,1-1,.68A3.68,3.68,0,0,1,64.37,53.75Zm-.66-8.53v8.53H62.28V45.22Zm6.73,2.19v6.34H69.07V47.41ZM69,45.75a.77.77,0,0,1,.2-.54.72.72,0,0,1,.56-.23.75.75,0,0,1,.56.22.79.79,0,0,1,.2.55.76.76,0,0,1-.2.53.82.82,0,0,1-1.12,0A.76.76,0,0,1,69,45.75Zm6.28,1.66h1.24v6.36a2.76,2.76,0,0,1-.32,1.4,2,2,0,0,1-.87.82,3.06,3.06,0,0,1-1.29.26,2.79,2.79,0,0,1-.64-.09,4.11,4.11,0,0,1-.72-.25,2,2,0,0,1-.58-.43l.5-.95a1.79,1.79,0,0,0,.64.44,2,2,0,0,0,.73.16A1.47,1.47,0,0,0,74.6,55a.82.82,0,0,0,.4-.42,1.7,1.7,0,0,0,.14-.78v-5Zm-3.59,3.43v-.5A5.35,5.35,0,0,1,71.84,49a2.87,2.87,0,0,1,.42-1,1.66,1.66,0,0,1,.67-.57,2.19,2.19,0,0,1,.9-.18,1.57,1.57,0,0,1,.86.22,1.59,1.59,0,0,1,.58.6,3.35,3.35,0,0,1,.35.94,7.89,7.89,0,0,1,.19,1.21V51a6.74,6.74,0,0,1-.2,1.18,3.22,3.22,0,0,1-.38.92,1.79,1.79,0,0,1-.58.61,1.59,1.59,0,0,1-.84.21,2,2,0,0,1-.88-.2,1.91,1.91,0,0,1-.67-.57,3,3,0,0,1-.42-.94A5.21,5.21,0,0,1,71.69,50.84Zm1.37-.5v.5a5,5,0,0,0,.06.83,1.86,1.86,0,0,0,.21.58.88.88,0,0,0,.35.34,1.13,1.13,0,0,0,.51.1,1,1,0,0,0,.64-.18A1.2,1.2,0,0,0,75.2,52a3,3,0,0,0,.19-.71V49.92a2.5,2.5,0,0,0-.12-.57,1.38,1.38,0,0,0-.23-.47,1,1,0,0,0-.35-.31.92.92,0,0,0-.48-.12,1.08,1.08,0,0,0-.52.12.92.92,0,0,0-.36.35,1.86,1.86,0,0,0-.21.58A5.08,5.08,0,0,0,73.06,50.34Zm6.27-2.93v6.34H78V47.41ZM77.9,45.75a.72.72,0,0,1,.2-.54.7.7,0,0,1,.55-.23.74.74,0,0,1,.56.22.79.79,0,0,1,.2.55.76.76,0,0,1-.2.53.7.7,0,0,1-.56.22.69.69,0,0,1-.55-.22A.72.72,0,0,1,77.9,45.75Zm5.45,1.66v1.05H80.24V47.41Zm-2.26-1.55h1.36V52a1,1,0,0,0,.07.44.35.35,0,0,0,.18.21.57.57,0,0,0,.27,0h.23a.71.71,0,0,0,.17-.05v1.11l-.35.1a3.08,3.08,0,0,1-.48,0,1.54,1.54,0,0,1-.75-.18,1.24,1.24,0,0,1-.51-.57,2.38,2.38,0,0,1-.19-1Zm6.26,6.6V49.3a1.33,1.33,0,0,0-.09-.53.59.59,0,0,0-.26-.28.83.83,0,0,0-.43-.1,1,1,0,0,0-.46.11.74.74,0,0,0-.27.31.85.85,0,0,0-.1.43H84.38a1.87,1.87,0,0,1,.15-.73,2,2,0,0,1,1.16-1.06,2.52,2.52,0,0,1,.93-.16,2.67,2.67,0,0,1,1.08.21,1.47,1.47,0,0,1,.74.65,2.11,2.11,0,0,1,.28,1.17v3a6,6,0,0,0,0,.78,2.89,2.89,0,0,0,.16.6v.09H87.54a2.44,2.44,0,0,1-.14-.59A5.62,5.62,0,0,1,87.35,52.46Zm.19-2.57v.88h-.65a1.74,1.74,0,0,0-.53.08,1.2,1.2,0,0,0-.4.23.94.94,0,0,0-.25.34,1.42,1.42,0,0,0,0,.94.59.59,0,0,0,.26.28.86.86,0,0,0,.41.09,1.11,1.11,0,0,0,.56-.14,1.18,1.18,0,0,0,.38-.35.59.59,0,0,0,.11-.38l.31.57a2,2,0,0,1-.18.47,2.3,2.3,0,0,1-.32.47,1.68,1.68,0,0,1-.48.36,1.51,1.51,0,0,1-.65.14,1.94,1.94,0,0,1-1-.23A1.57,1.57,0,0,1,84.5,53a2.08,2.08,0,0,1-.23-1,2.13,2.13,0,0,1,.16-.86,1.83,1.83,0,0,1,.46-.67,2.25,2.25,0,0,1,.78-.43,3.73,3.73,0,0,1,1.11-.15Zm4-5.14v9H90.2v-9Zm5.82.47v8.53H96V45.22Zm2.88,3.54v5H98.9V47.41h1.29ZM100,50.35h-.43a4.46,4.46,0,0,1,.15-1.25,3,3,0,0,1,.43-1,2.14,2.14,0,0,1,.68-.63,1.85,1.85,0,0,1,.88-.22,1.73,1.73,0,0,1,.69.13,1.26,1.26,0,0,1,.54.41,1.91,1.91,0,0,1,.34.73,4.35,4.35,0,0,1,.12,1.1v4.09h-1.36v-4.1a2.24,2.24,0,0,0-.1-.71.73.73,0,0,0-.28-.37.9.9,0,0,0-.48-.12.86.86,0,0,0-.49.15,1.34,1.34,0,0,0-.37.41,2.59,2.59,0,0,0-.24.61A3.33,3.33,0,0,0,100,50.35Zm8,2.07V44.75h1.37v9h-1.24Zm-3.4-1.58v-.5a5.38,5.38,0,0,1,.14-1.35,2.68,2.68,0,0,1,.41-1,1.63,1.63,0,0,1,.66-.57,2.05,2.05,0,0,1,.87-.18,1.46,1.46,0,0,1,.82.22,1.78,1.78,0,0,1,.59.6,3.69,3.69,0,0,1,.38.94,6.78,6.78,0,0,1,.2,1.21V51a7.79,7.79,0,0,1-.21,1.18,3.22,3.22,0,0,1-.38.92,1.92,1.92,0,0,1-.59.61,1.54,1.54,0,0,1-.82.21,1.92,1.92,0,0,1-.87-.2,1.85,1.85,0,0,1-.65-.57,2.79,2.79,0,0,1-.41-.94A5.24,5.24,0,0,1,104.58,50.84Zm1.36-.5v.5a5,5,0,0,0,.06.83,1.65,1.65,0,0,0,.19.58.86.86,0,0,0,.34.34,1.13,1.13,0,0,0,.51.1,1,1,0,0,0,.61-.18A1.3,1.3,0,0,0,108,52a3,3,0,0,0,.18-.71V49.92a3.2,3.2,0,0,0-.11-.57,1.87,1.87,0,0,0-.23-.47,1,1,0,0,0-.35-.31.89.89,0,0,0-.47-.12,1,1,0,0,0-.51.12.82.82,0,0,0-.34.35,1.88,1.88,0,0,0-.19.58A5.08,5.08,0,0,0,105.94,50.34Zm6.25-2.93v6.34h-1.36V47.41Zm-1.43-1.66a.72.72,0,0,1,.2-.54.69.69,0,0,1,.55-.23.74.74,0,0,1,.56.22.79.79,0,0,1,.2.55.76.76,0,0,1-.2.53.7.7,0,0,1-.56.22.68.68,0,0,1-.55-.22A.72.72,0,0,1,110.76,45.75Zm5.83,6.71V49.3a1.33,1.33,0,0,0-.09-.53.59.59,0,0,0-.26-.28.83.83,0,0,0-.43-.1,1,1,0,0,0-.46.11.74.74,0,0,0-.27.31.85.85,0,0,0-.1.43h-1.36a1.87,1.87,0,0,1,.15-.73,1.93,1.93,0,0,1,.45-.63,2.28,2.28,0,0,1,.71-.43,2.51,2.51,0,0,1,.92-.16,2.68,2.68,0,0,1,1.09.21,1.51,1.51,0,0,1,.74.65,2.11,2.11,0,0,1,.28,1.17v3a6,6,0,0,0,.05.78,2.89,2.89,0,0,0,.16.6v.09h-1.39a2.44,2.44,0,0,1-.14-.59A5.62,5.62,0,0,1,116.59,52.46Zm.18-2.57v.88h-.66a1.67,1.67,0,0,0-.52.08,1.2,1.2,0,0,0-.4.23.94.94,0,0,0-.25.34,1.42,1.42,0,0,0,0,.94.63.63,0,0,0,.25.28.88.88,0,0,0,.41.09,1.15,1.15,0,0,0,.57-.14,1.18,1.18,0,0,0,.38-.35.52.52,0,0,0,.1-.38l.31.57a1.91,1.91,0,0,1-.17.47,2.3,2.3,0,0,1-.32.47,1.6,1.6,0,0,1-.49.36,1.44,1.44,0,0,1-.64.14,1.94,1.94,0,0,1-.95-.23,1.57,1.57,0,0,1-.66-.64,2,2,0,0,1-.23-1,2.31,2.31,0,0,1,.15-.86,2,2,0,0,1,.47-.67,2.25,2.25,0,0,1,.78-.43,3.73,3.73,0,0,1,1.11-.15Zm-37.91,7.5L76.8,64.75H75.31L78,56.22h.92Zm1.65,7.36-2.07-7.36-.1-1.17h.94L82,64.75Zm0-3.17v1.19h-4V61.58Zm3.53,1.75,1.24-4.92h.86L86,59.92l-1.23,4.83H84Zm-.52-4.92.94,4.94v1.4h-.85l-1.43-6.34Zm3.62,4.88.91-4.88h1.33L88,64.75h-.86Zm-.85-4.88,1.22,4.86.09,1.48h-.76l-1.26-4.83-.17-1.51Zm7,5.05V60.3a1.33,1.33,0,0,0-.09-.53.57.57,0,0,0-.27-.28.77.77,0,0,0-.42-.1.92.92,0,0,0-.46.11.84.84,0,0,0-.28.31,1,1,0,0,0-.09.43H90.31a1.72,1.72,0,0,1,.16-.73,1.93,1.93,0,0,1,.45-.63,2.17,2.17,0,0,1,.71-.43,2.43,2.43,0,0,1,.92-.16,2.68,2.68,0,0,1,1.09.21,1.55,1.55,0,0,1,.74.65,2.2,2.2,0,0,1,.27,1.17v3a4.58,4.58,0,0,0,.06.78,2.89,2.89,0,0,0,.16.6v.09H93.48a2.44,2.44,0,0,1-.14-.59A5.62,5.62,0,0,1,93.29,63.46Zm.18-2.57v.88h-.66a1.78,1.78,0,0,0-.53.08,1.26,1.26,0,0,0-.39.23.94.94,0,0,0-.25.34,1.42,1.42,0,0,0,0,.94.57.57,0,0,0,.25.28.88.88,0,0,0,.41.09,1.15,1.15,0,0,0,.57-.14,1.29,1.29,0,0,0,.38-.35.52.52,0,0,0,.1-.38l.31.57a1.62,1.62,0,0,1-.18.47,2,2,0,0,1-.32.47,1.48,1.48,0,0,1-1.13.5,2,2,0,0,1-1-.23,1.6,1.6,0,0,1-.65-.64,2,2,0,0,1-.24-1,2.31,2.31,0,0,1,.16-.86,1.85,1.85,0,0,1,.47-.67,2.25,2.25,0,0,1,.78-.43,3.68,3.68,0,0,1,1.11-.15Zm4-1.26v5.12H96.06V58.41h1.3ZM99,58.37v1.35a.93.93,0,0,0-.25,0h-.26a1.06,1.06,0,0,0-.48.1.88.88,0,0,0-.35.29,1.35,1.35,0,0,0-.22.45,2.52,2.52,0,0,0-.09.59l-.3,0a5.52,5.52,0,0,1,.1-1.11,3.28,3.28,0,0,1,.28-.9,1.63,1.63,0,0,1,.48-.6,1,1,0,0,1,.67-.22l.24,0A.56.56,0,0,1,99,58.37Zm4,5.05V55.75h1.36v9h-1.23Zm-3.41-1.58v-.5A5.9,5.9,0,0,1,99.69,60a3.09,3.09,0,0,1,.41-1,1.72,1.72,0,0,1,.67-.57,2,2,0,0,1,.87-.18,1.46,1.46,0,0,1,.82.22,1.78,1.78,0,0,1,.59.6,3.69,3.69,0,0,1,.38.94,7.83,7.83,0,0,1,.2,1.21V62a7.79,7.79,0,0,1-.21,1.18,3.22,3.22,0,0,1-.38.92,1.92,1.92,0,0,1-.59.61,1.54,1.54,0,0,1-.82.21,1.92,1.92,0,0,1-.87-.2,2,2,0,0,1-.66-.57,3.25,3.25,0,0,1-.41-.94A5.75,5.75,0,0,1,99.55,61.84Zm1.37-.5v.5a5,5,0,0,0,.06.83,1.65,1.65,0,0,0,.19.58.8.8,0,0,0,.34.34,1.13,1.13,0,0,0,.51.1.93.93,0,0,0,.6-.18A1.2,1.2,0,0,0,103,63a2.55,2.55,0,0,0,.19-.71V60.92a2.5,2.5,0,0,0-.12-.57,1.57,1.57,0,0,0-.22-.47,1,1,0,0,0-.35-.31.89.89,0,0,0-.47-.12,1,1,0,0,0-.51.12.82.82,0,0,0-.34.35,1.88,1.88,0,0,0-.19.58A5.08,5.08,0,0,0,100.92,61.34Z"></path><path class="cls-2" d="M39.34,109l-2.83,7.78H35.36l3.25-8.53h.74Zm2.36,7.78L38.87,109v-.75h.74l3.26,8.53Zm-.14-3.16v.93H36.77v-.93Zm3.37-1.83v5H43.84v-6.34h1Zm-.26,1.58-.45,0a3.87,3.87,0,0,1,.19-1.2,3.13,3.13,0,0,1,.53-1,2.38,2.38,0,0,1,1.86-.86,2.74,2.74,0,0,1,.84.13,1.58,1.58,0,0,1,.64.4,1.71,1.71,0,0,1,.41.71,3.65,3.65,0,0,1,.14,1.07v4.15H47.74v-4.17a1.76,1.76,0,0,0-.15-.79.9.9,0,0,0-.42-.44,1.73,1.73,0,0,0-1.43,0,1.71,1.71,0,0,0-.57.47,2.12,2.12,0,0,0-.37.68A2.37,2.37,0,0,0,44.67,113.34Zm9.8,2.18v-7.77h1.09v9h-1Zm-4.26-1.87v-.12a4.86,4.86,0,0,1,.17-1.32,3.2,3.2,0,0,1,.51-1,2.33,2.33,0,0,1,.79-.65,2.23,2.23,0,0,1,1-.24,2.46,2.46,0,0,1,1,.21,2,2,0,0,1,.76.61,3,3,0,0,1,.5,1,6.24,6.24,0,0,1,.25,1.26v.53a5.62,5.62,0,0,1-.25,1.26,3,3,0,0,1-.5,1,2.11,2.11,0,0,1-.76.6,2.51,2.51,0,0,1-1.06.21,2.19,2.19,0,0,1-1-.24,2.43,2.43,0,0,1-.79-.68,3.25,3.25,0,0,1-.51-1A4.72,4.72,0,0,1,50.21,113.65Zm1.09-.12v.12a4.19,4.19,0,0,0,.09.89,2.54,2.54,0,0,0,.3.73,1.58,1.58,0,0,0,.53.5A1.49,1.49,0,0,0,53,116a1.61,1.61,0,0,0,.89-.23,1.73,1.73,0,0,0,.56-.61,3.62,3.62,0,0,0,.33-.81v-1.41a3.23,3.23,0,0,0-.21-.62,1.66,1.66,0,0,0-.34-.54,1.32,1.32,0,0,0-.51-.38,1.55,1.55,0,0,0-.71-.14,1.53,1.53,0,0,0-.76.18,1.61,1.61,0,0,0-.53.51,2.49,2.49,0,0,0-.3.74A4.13,4.13,0,0,0,51.3,113.53Zm7-5.78v9H57.25v-9Zm-.25,5.59-.46,0a3.87,3.87,0,0,1,.2-1.2,2.94,2.94,0,0,1,.53-1,2.33,2.33,0,0,1,.8-.63,2.45,2.45,0,0,1,1.05-.23,2.76,2.76,0,0,1,.85.13,1.48,1.48,0,0,1,.63.4,1.84,1.84,0,0,1,.42.71,3.65,3.65,0,0,1,.14,1.07v4.15H61.15v-4.17a1.76,1.76,0,0,0-.15-.79.88.88,0,0,0-.43-.44,1.47,1.47,0,0,0-.69-.14,1.52,1.52,0,0,0-.74.17,1.71,1.71,0,0,0-.57.47,2.33,2.33,0,0,0-.37.68A2.64,2.64,0,0,0,58.08,113.34Zm6.86-1.93v5.34H63.86v-6.34h1Zm2-1v1l-.26,0h-.27a1.69,1.69,0,0,0-.66.11,1.41,1.41,0,0,0-.49.33,1.51,1.51,0,0,0-.31.5,2.22,2.22,0,0,0-.15.64l-.31.17a4.55,4.55,0,0,1,.12-1.07,2.77,2.77,0,0,1,.35-.9,1.75,1.75,0,0,1,.61-.6,1.71,1.71,0,0,1,.89-.23l.27,0A1.07,1.07,0,0,1,66.92,110.37Zm4.51,5.3V112.4a1.36,1.36,0,0,0-.15-.65,1,1,0,0,0-.45-.43,1.62,1.62,0,0,0-.74-.15,1.65,1.65,0,0,0-.72.14,1.19,1.19,0,0,0-.48.37.81.81,0,0,0-.17.49H67.64a1.55,1.55,0,0,1,.17-.68,2,2,0,0,1,.51-.6,2.5,2.5,0,0,1,.79-.43,3.17,3.17,0,0,1,1-.17,3,3,0,0,1,1.22.24,1.8,1.8,0,0,1,.83.71,2.12,2.12,0,0,1,.3,1.17v3a4.06,4.06,0,0,0,.06.67,2.16,2.16,0,0,0,.17.62v.09H71.6a2.29,2.29,0,0,1-.12-.5A3,3,0,0,1,71.43,115.67Zm.19-2.76v.76h-1.1a4,4,0,0,0-.82.07,1.81,1.81,0,0,0-.61.22,1,1,0,0,0-.38.37,1,1,0,0,0-.13.51,1.09,1.09,0,0,0,.14.54,1,1,0,0,0,.4.4,1.55,1.55,0,0,0,.68.14,1.75,1.75,0,0,0,.87-.21,1.85,1.85,0,0,0,.61-.52,1.09,1.09,0,0,0,.24-.59l.47.52a1.54,1.54,0,0,1-.23.55,2.74,2.74,0,0,1-.48.57,2.59,2.59,0,0,1-.72.45,2.25,2.25,0,0,1-.92.18,2.39,2.39,0,0,1-1.13-.26,1.88,1.88,0,0,1-.75-.67,1.73,1.73,0,0,1-.27-1,2,2,0,0,1,.2-.9,1.81,1.81,0,0,1,.58-.65,2.65,2.65,0,0,1,.9-.4,4.74,4.74,0,0,1,1.18-.13Zm8.89.49H78.23v-.92h2.28a2.37,2.37,0,0,0,1.07-.21,1.35,1.35,0,0,0,.6-.58,2,2,0,0,0,.19-.86,1.9,1.9,0,0,0-.19-.82,1.51,1.51,0,0,0-.6-.63,2.12,2.12,0,0,0-1.07-.24h-2v7.61H77.36v-8.53h3.15a3.67,3.67,0,0,1,1.63.33,2.28,2.28,0,0,1,1,.93,2.6,2.6,0,0,1,.35,1.34,2.69,2.69,0,0,1-.35,1.4,2.13,2.13,0,0,1-1,.88A4,4,0,0,1,80.51,113.4Zm5.34-2v5.34H84.77v-6.34h1Zm2-1v1l-.25,0H87.3a1.78,1.78,0,0,0-.67.11,1.37,1.37,0,0,0-.48.33,1.71,1.71,0,0,0-.32.5,3.15,3.15,0,0,0-.15.64l-.3.17a5.17,5.17,0,0,1,.11-1.07,3,3,0,0,1,.36-.9,1.67,1.67,0,0,1,.61-.6,1.71,1.71,0,0,1,.89-.23l.27,0A1.07,1.07,0,0,1,87.83,110.37Zm4.51,5.3V112.4a1.36,1.36,0,0,0-.16-.65.92.92,0,0,0-.44-.43,1.91,1.91,0,0,0-1.46,0,1.19,1.19,0,0,0-.48.37.75.75,0,0,0-.17.49H88.54a1.44,1.44,0,0,1,.18-.68,2.16,2.16,0,0,1,.5-.6,2.56,2.56,0,0,1,.8-.43,3.11,3.11,0,0,1,1-.17,2.92,2.92,0,0,1,1.22.24,1.7,1.7,0,0,1,.83.71,2,2,0,0,1,.31,1.17v3a5.43,5.43,0,0,0,0,.67,3.07,3.07,0,0,0,.17.62v.09H92.51a2.24,2.24,0,0,1-.13-.5A4,4,0,0,1,92.34,115.67Zm.18-2.76v.76H91.44a4.15,4.15,0,0,0-.83.07A2,2,0,0,0,90,114a1,1,0,0,0-.37.37.92.92,0,0,0-.13.51,1.08,1.08,0,0,0,.13.54,1,1,0,0,0,.41.4,1.51,1.51,0,0,0,.67.14,1.79,1.79,0,0,0,.88-.21,1.71,1.71,0,0,0,.6-.52,1,1,0,0,0,.25-.59l.46.52a1.5,1.5,0,0,1-.22.55,2.7,2.7,0,0,1-1.2,1,2.27,2.27,0,0,1-.93.18,2.41,2.41,0,0,1-1.13-.26,1.88,1.88,0,0,1-.75-.67,1.81,1.81,0,0,1-.26-1,2,2,0,0,1,.2-.9,1.69,1.69,0,0,1,.57-.65,2.62,2.62,0,0,1,.91-.4,4.71,4.71,0,0,1,1.17-.13Zm6.6,2.61v-7.77h1.09v9h-1Zm-4.27-1.87v-.12a4.48,4.48,0,0,1,.18-1.32,3.2,3.2,0,0,1,.51-1,2.33,2.33,0,0,1,.79-.65,2.2,2.2,0,0,1,1-.24,2.38,2.38,0,0,1,1,.21,2,2,0,0,1,.77.61,3.17,3.17,0,0,1,.5,1,6.24,6.24,0,0,1,.25,1.26v.53a6.24,6.24,0,0,1-.25,1.26,3.17,3.17,0,0,1-.5,1,2.06,2.06,0,0,1-.77.6,2.46,2.46,0,0,1-1.05.21,2.19,2.19,0,0,1-1-.24,2.43,2.43,0,0,1-.79-.68,3.25,3.25,0,0,1-.51-1A4.35,4.35,0,0,1,94.85,113.65Zm1.09-.12v.12a4.18,4.18,0,0,0,.1.89,2.29,2.29,0,0,0,.3.73,1.43,1.43,0,0,0,1.28.68,1.63,1.63,0,0,0,.89-.23,1.73,1.73,0,0,0,.56-.61,3.62,3.62,0,0,0,.33-.81v-1.41a3.23,3.23,0,0,0-.21-.62,1.84,1.84,0,0,0-.34-.54,1.48,1.48,0,0,0-.51-.38,1.52,1.52,0,0,0-2,.55,2.25,2.25,0,0,0-.3.74A4.11,4.11,0,0,0,95.94,113.53Zm8.59,3.34a3.09,3.09,0,0,1-1.2-.23,2.69,2.69,0,0,1-.92-.63,2.85,2.85,0,0,1-.59-1,3.45,3.45,0,0,1-.2-1.23v-.24a3.7,3.7,0,0,1,.23-1.38,2.87,2.87,0,0,1,.62-1,2.53,2.53,0,0,1,.89-.64,2.45,2.45,0,0,1,1-.22,2.66,2.66,0,0,1,1.17.24,2.07,2.07,0,0,1,.81.65,2.67,2.67,0,0,1,.47,1,4.71,4.71,0,0,1,.15,1.23v.48h-4.73V113h3.65v-.08a2.55,2.55,0,0,0-.17-.82,1.51,1.51,0,0,0-.47-.66,1.4,1.4,0,0,0-.88-.26,1.55,1.55,0,0,0-.68.16,1.37,1.37,0,0,0-.53.46,2.21,2.21,0,0,0-.35.74,3.91,3.91,0,0,0-.12,1v.24a2.91,2.91,0,0,0,.12.85,2.29,2.29,0,0,0,.37.69,1.68,1.68,0,0,0,.59.47,1.71,1.71,0,0,0,.8.17,2,2,0,0,0,1-.23,2.46,2.46,0,0,0,.7-.63l.65.52a2.59,2.59,0,0,1-.52.59,2.48,2.48,0,0,1-.78.46A2.91,2.91,0,0,1,104.53,116.87Zm7.42-1.8a1,1,0,0,0-.1-.44.91.91,0,0,0-.42-.36,3.14,3.14,0,0,0-.94-.3,6.81,6.81,0,0,1-.95-.26,3,3,0,0,1-.72-.37,1.54,1.54,0,0,1-.45-.51,1.38,1.38,0,0,1-.16-.69,1.53,1.53,0,0,1,.16-.7,2,2,0,0,1,.48-.6,2.28,2.28,0,0,1,.74-.4,3,3,0,0,1,1-.15,2.87,2.87,0,0,1,1.3.27,2,2,0,0,1,.82.72,1.74,1.74,0,0,1,.29,1h-1.08a.93.93,0,0,0-.16-.51,1.2,1.2,0,0,0-.45-.41,1.47,1.47,0,0,0-.72-.17,1.66,1.66,0,0,0-.73.14,1,1,0,0,0-.41.35.88.88,0,0,0-.12.44.79.79,0,0,0,.06.32.63.63,0,0,0,.22.25,1.39,1.39,0,0,0,.44.21,5.44,5.44,0,0,0,.74.2,5.78,5.78,0,0,1,1.28.43,1.78,1.78,0,0,1,.75.6,1.54,1.54,0,0,1,.25.87,1.64,1.64,0,0,1-.18.76,1.68,1.68,0,0,1-.5.6,2.41,2.41,0,0,1-.77.38,3.45,3.45,0,0,1-1,.14,3.07,3.07,0,0,1-1.42-.3,2.17,2.17,0,0,1-.88-.78,1.83,1.83,0,0,1-.3-1h1.09a1.11,1.11,0,0,0,.26.71,1.28,1.28,0,0,0,.57.37,2.3,2.3,0,0,0,.68.11,2,2,0,0,0,.74-.12,1.08,1.08,0,0,0,.46-.32A.74.74,0,0,0,112,115.07Zm3.59-7.32v9h-1.08v-9Zm-.25,5.59-.45,0a3.59,3.59,0,0,1,.19-1.2,2.94,2.94,0,0,1,.53-1,2.33,2.33,0,0,1,.8-.63,2.45,2.45,0,0,1,1-.23,2.76,2.76,0,0,1,.85.13,1.58,1.58,0,0,1,.64.4,1.82,1.82,0,0,1,.41.71,3.65,3.65,0,0,1,.14,1.07v4.15h-1.09v-4.17a1.76,1.76,0,0,0-.15-.79.88.88,0,0,0-.43-.44,1.44,1.44,0,0,0-.69-.14,1.55,1.55,0,0,0-.74.17,1.71,1.71,0,0,0-.57.47,2.31,2.31,0,0,0-.36.68A2.37,2.37,0,0,0,115.29,113.34Zm10.36,2.28,1.63-5.21H128l-.14,1-1.65,5.3h-.7Zm-1.09-5.21,1.38,5.27.1,1.07h-.73l-1.84-6.34Zm5,5.23,1.33-5.23H132l-1.84,6.34h-.73Zm-1.4-5.23,1.6,5.13.18,1.21h-.69l-1.71-5.31-.14-1Zm8.66,5.26V112.4a1.25,1.25,0,0,0-.16-.65.92.92,0,0,0-.44-.43,1.62,1.62,0,0,0-.74-.15,1.65,1.65,0,0,0-.72.14,1.19,1.19,0,0,0-.48.37.81.81,0,0,0-.17.49H133a1.55,1.55,0,0,1,.17-.68,2,2,0,0,1,.51-.6,2.4,2.4,0,0,1,.79-.43,3.17,3.17,0,0,1,1-.17,3,3,0,0,1,1.22.24,1.8,1.8,0,0,1,.83.71,2.12,2.12,0,0,1,.3,1.17v3a5.43,5.43,0,0,0,.05.67,3.07,3.07,0,0,0,.17.62v.09H137a3,3,0,0,1-.13-.5A4,4,0,0,1,136.81,115.67Zm.18-2.76,0,.76h-1.1a4,4,0,0,0-.82.07,1.81,1.81,0,0,0-.61.22,1,1,0,0,0-.38.37,1,1,0,0,0-.13.51,1.09,1.09,0,0,0,.14.54,1,1,0,0,0,.4.4,1.51,1.51,0,0,0,.67.14,1.76,1.76,0,0,0,.88-.21,1.85,1.85,0,0,0,.61-.52,1.09,1.09,0,0,0,.24-.59l.47.52a1.75,1.75,0,0,1-.23.55,2.74,2.74,0,0,1-.48.57,2.59,2.59,0,0,1-.72.45,2.25,2.25,0,0,1-.92.18,2.39,2.39,0,0,1-1.13-.26,1.88,1.88,0,0,1-.75-.67,1.73,1.73,0,0,1-.27-1,2,2,0,0,1,.2-.9,1.69,1.69,0,0,1,.57-.65,2.7,2.7,0,0,1,.91-.4,4.74,4.74,0,0,1,1.18-.13Zm6.3,2.16a1,1,0,0,0-.11-.44.83.83,0,0,0-.41-.36,3.14,3.14,0,0,0-.94-.3,7.38,7.38,0,0,1-1-.26,3,3,0,0,1-.72-.37,1.8,1.8,0,0,1-.45-.51,1.49,1.49,0,0,1-.16-.69,1.54,1.54,0,0,1,.17-.7,1.92,1.92,0,0,1,.47-.6,2.44,2.44,0,0,1,.75-.4,2.93,2.93,0,0,1,1-.15,2.84,2.84,0,0,1,1.3.27,2,2,0,0,1,.83.72,1.82,1.82,0,0,1,.29,1h-1.09a1,1,0,0,0-.15-.51,1.32,1.32,0,0,0-.46-.41,1.42,1.42,0,0,0-.72-.17,1.69,1.69,0,0,0-.73.14.93.93,0,0,0-.4.35.9.9,0,0,0-.13.44.79.79,0,0,0,.06.32.76.76,0,0,0,.23.25,1.39,1.39,0,0,0,.44.21,5.26,5.26,0,0,0,.73.2,5.88,5.88,0,0,1,1.29.43,1.92,1.92,0,0,1,.75.6,1.53,1.53,0,0,1,.24.87,1.76,1.76,0,0,1-.17.76,1.79,1.79,0,0,1-.5.6,2.52,2.52,0,0,1-.77.38,3.52,3.52,0,0,1-1,.14,3,3,0,0,1-1.41-.3,2.17,2.17,0,0,1-.88-.78,1.83,1.83,0,0,1-.3-1h1.09a1.06,1.06,0,0,0,.26.71,1.23,1.23,0,0,0,.57.37,2.29,2.29,0,0,0,.67.11,2,2,0,0,0,.75-.12,1.15,1.15,0,0,0,.46-.32A.74.74,0,0,0,143.29,115.07Zm-118,14.6V126.4a1.36,1.36,0,0,0-.15-.65,1,1,0,0,0-.44-.43,1.91,1.91,0,0,0-1.46,0,1.19,1.19,0,0,0-.48.37.81.81,0,0,0-.17.49H21.45a1.44,1.44,0,0,1,.18-.68,2.16,2.16,0,0,1,.5-.6,2.56,2.56,0,0,1,.8-.43,3.11,3.11,0,0,1,1-.17,2.92,2.92,0,0,1,1.22.24,1.7,1.7,0,0,1,.83.71,2,2,0,0,1,.31,1.17v3a5.43,5.43,0,0,0,.05.67,3.07,3.07,0,0,0,.17.62v.09H25.42a2.24,2.24,0,0,1-.13-.5A4.13,4.13,0,0,1,25.24,129.67Zm.19-2.76v.76H24.35a4.21,4.21,0,0,0-.83.07,2,2,0,0,0-.61.22,1,1,0,0,0-.37.37.92.92,0,0,0-.13.51,1.08,1.08,0,0,0,.13.54,1,1,0,0,0,.41.4,1.51,1.51,0,0,0,.67.14,1.79,1.79,0,0,0,.88-.21,1.71,1.71,0,0,0,.6-.52,1,1,0,0,0,.25-.59l.46.52a1.5,1.5,0,0,1-.22.55,2.7,2.7,0,0,1-1.2,1,2.27,2.27,0,0,1-.93.18,2.41,2.41,0,0,1-1.13-.26,1.88,1.88,0,0,1-.75-.67,1.81,1.81,0,0,1-.26-.95,2,2,0,0,1,.2-.9,1.69,1.69,0,0,1,.57-.65,2.65,2.65,0,0,1,.9-.4,4.85,4.85,0,0,1,1.18-.13Zm4.21,2.71,1.63-5.21H32l-.14,1-1.66,5.3h-.69Zm-1.1-5.21,1.39,5.27.1,1.07H29.3l-1.84-6.34Zm5,5.23,1.33-5.23h1.07l-1.84,6.34h-.72Zm-1.4-5.23,1.6,5.13.18,1.21h-.69l-1.71-5.31-.14-1Zm8.66,5.26V126.4a1.36,1.36,0,0,0-.16-.65.92.92,0,0,0-.44-.43,1.91,1.91,0,0,0-1.46,0,1.19,1.19,0,0,0-.48.37.81.81,0,0,0-.17.49H37a1.43,1.43,0,0,1,.17-.68,2.16,2.16,0,0,1,.5-.6,2.56,2.56,0,0,1,.8-.43,3.11,3.11,0,0,1,1-.17,2.89,2.89,0,0,1,1.22.24,1.77,1.77,0,0,1,.84.71,2.12,2.12,0,0,1,.3,1.17v3a5.43,5.43,0,0,0,0,.67,3.07,3.07,0,0,0,.17.62v.09H41a2.24,2.24,0,0,1-.13-.5A4,4,0,0,1,40.8,129.67Zm.18-2.76v.76H39.9a4.21,4.21,0,0,0-.83.07,2,2,0,0,0-.61.22,1.09,1.09,0,0,0-.37.37.92.92,0,0,0-.13.51,1.09,1.09,0,0,0,.14.54.91.91,0,0,0,.4.4,1.51,1.51,0,0,0,.67.14,1.76,1.76,0,0,0,.88-.21,1.71,1.71,0,0,0,.6-.52,1,1,0,0,0,.25-.59l.46.52a1.5,1.5,0,0,1-.22.55,2.53,2.53,0,0,1-.49.57,2.4,2.4,0,0,1-.71.45,2.25,2.25,0,0,1-.92.18,2.46,2.46,0,0,1-1.14-.26,1.88,1.88,0,0,1-.75-.67,1.81,1.81,0,0,1-.26-.95,2,2,0,0,1,.2-.9,1.69,1.69,0,0,1,.57-.65,2.62,2.62,0,0,1,.91-.4,4.71,4.71,0,0,1,1.17-.13Zm3.69-1.5v5.34H43.59v-6.34h1Zm2-1v1l-.25,0h-.27a1.78,1.78,0,0,0-.67.11,1.37,1.37,0,0,0-.48.33,1.71,1.71,0,0,0-.32.5,2.6,2.6,0,0,0-.14.64l-.31.17a5.17,5.17,0,0,1,.11-1.07,3,3,0,0,1,.36-.9,1.67,1.67,0,0,1,.61-.6,1.71,1.71,0,0,1,.89-.23l.27,0A1.07,1.07,0,0,1,46.65,124.37Zm4.88,5.15v-7.77h1.09v9h-1Zm-4.26-1.87v-.12a4.49,4.49,0,0,1,.17-1.32,3.2,3.2,0,0,1,.51-1,2.33,2.33,0,0,1,.79-.65,2.2,2.2,0,0,1,1-.24,2.46,2.46,0,0,1,1,.21,2,2,0,0,1,.76.61,3.17,3.17,0,0,1,.5,1,6.24,6.24,0,0,1,.25,1.26v.53a6.24,6.24,0,0,1-.25,1.26,3.17,3.17,0,0,1-.5.95,2.11,2.11,0,0,1-.76.6,2.51,2.51,0,0,1-1.06.21,2.19,2.19,0,0,1-1-.24A2.43,2.43,0,0,1,48,130a3.25,3.25,0,0,1-.51-1A4.36,4.36,0,0,1,47.27,127.65Zm1.08-.12v.12a4.18,4.18,0,0,0,.1.89,2.54,2.54,0,0,0,.3.73A1.43,1.43,0,0,0,50,130a1.63,1.63,0,0,0,.89-.23,1.73,1.73,0,0,0,.56-.61,3.62,3.62,0,0,0,.33-.81v-1.41a3.23,3.23,0,0,0-.21-.62,1.66,1.66,0,0,0-.34-.54,1.48,1.48,0,0,0-.51-.38,1.8,1.8,0,0,0-1.48,0,1.58,1.58,0,0,0-.52.51,2.49,2.49,0,0,0-.3.74A4.11,4.11,0,0,0,48.35,127.53Zm8.59,3.34a3.09,3.09,0,0,1-1.2-.23,2.69,2.69,0,0,1-.92-.63,2.85,2.85,0,0,1-.59-1,3.69,3.69,0,0,1-.2-1.23v-.24a3.7,3.7,0,0,1,.23-1.38,2.87,2.87,0,0,1,.62-1,2.53,2.53,0,0,1,.89-.64,2.45,2.45,0,0,1,1-.22,2.66,2.66,0,0,1,1.17.24,2.07,2.07,0,0,1,.81.65,2.84,2.84,0,0,1,.47,1,4.71,4.71,0,0,1,.15,1.23v.48H54.67V127h3.65v-.08a2.55,2.55,0,0,0-.17-.82,1.51,1.51,0,0,0-.47-.66,1.4,1.4,0,0,0-.88-.26,1.55,1.55,0,0,0-.68.16,1.37,1.37,0,0,0-.53.46,2.21,2.21,0,0,0-.35.74,3.91,3.91,0,0,0-.12,1v.24a2.91,2.91,0,0,0,.12.85,2.29,2.29,0,0,0,.37.69,1.68,1.68,0,0,0,.59.47,1.71,1.71,0,0,0,.8.17,2,2,0,0,0,1-.23,2.46,2.46,0,0,0,.7-.63l.65.52a2.59,2.59,0,0,1-.52.59,2.48,2.48,0,0,1-.78.46A2.91,2.91,0,0,1,56.94,130.87Zm7.73-1.35v-7.77h1.09v9h-1Zm-4.27-1.87v-.12a4.48,4.48,0,0,1,.18-1.32,3.2,3.2,0,0,1,.51-1,2.24,2.24,0,0,1,.79-.65,2.2,2.2,0,0,1,1-.24,2.41,2.41,0,0,1,1,.21,2,2,0,0,1,.76.61,2.77,2.77,0,0,1,.5,1,5.62,5.62,0,0,1,.25,1.26v.53a5.11,5.11,0,0,1-.25,1.26,2.77,2.77,0,0,1-.5.95,2,2,0,0,1-.76.6,2.46,2.46,0,0,1-1.05.21,2.19,2.19,0,0,1-1-.24,2.33,2.33,0,0,1-.79-.68,3.25,3.25,0,0,1-.51-1A4.35,4.35,0,0,1,60.4,127.65Zm1.09-.12v.12a3.62,3.62,0,0,0,.1.89,2.08,2.08,0,0,0,.3.73,1.55,1.55,0,0,0,.52.5,1.5,1.5,0,0,0,.76.18,1.57,1.57,0,0,0,.88-.23,1.64,1.64,0,0,0,.56-.61,3.21,3.21,0,0,0,.33-.81v-1.41a2.64,2.64,0,0,0-.2-.62,1.84,1.84,0,0,0-.34-.54,1.48,1.48,0,0,0-.51-.38,1.52,1.52,0,0,0-2,.55,2.06,2.06,0,0,0-.3.74A3.57,3.57,0,0,0,61.49,127.53ZM72,130.75H71v-7a2.48,2.48,0,0,1,.25-1.15,1.67,1.67,0,0,1,.72-.72,2.39,2.39,0,0,1,1.11-.24,2.42,2.42,0,0,1,.38,0l.37.07,0,.88-.29,0h-.3a1.27,1.27,0,0,0-.6.14.9.9,0,0,0-.37.4,1.42,1.42,0,0,0-.13.65Zm1.35-6.34v.83H70v-.83Zm.92,3.24v-.13a3.78,3.78,0,0,1,.2-1.28,3,3,0,0,1,.57-1,2.56,2.56,0,0,1,.91-.68,3,3,0,0,1,2.39,0,2.6,2.6,0,0,1,.92.68,3.19,3.19,0,0,1,.58,1,4,4,0,0,1,.2,1.28v.13a4,4,0,0,1-.2,1.27,3.35,3.35,0,0,1-.58,1,2.79,2.79,0,0,1-.91.68,2.86,2.86,0,0,1-1.2.24,2.92,2.92,0,0,1-1.2-.24,2.79,2.79,0,0,1-.91-.68,3.14,3.14,0,0,1-.57-1A3.72,3.72,0,0,1,74.31,127.65Zm1.08-.13v.13a3.7,3.7,0,0,0,.11.9,2.45,2.45,0,0,0,.34.73,1.6,1.6,0,0,0,.56.51,1.57,1.57,0,0,0,.79.19,1.5,1.5,0,0,0,.78-.19,1.55,1.55,0,0,0,.57-.51,2.43,2.43,0,0,0,.33-.73,3.26,3.26,0,0,0,.12-.9v-.13a3.19,3.19,0,0,0-.12-.89,2.19,2.19,0,0,0-.34-.74,1.74,1.74,0,0,0-.56-.52,1.68,1.68,0,0,0-.79-.19,1.64,1.64,0,0,0-.78.19,1.74,1.74,0,0,0-.56.52,2.4,2.4,0,0,0-.34.74A3.62,3.62,0,0,0,75.39,127.52Zm7.13-2.11v5.34H81.44v-6.34h1Zm2-1v1l-.25,0H84a1.69,1.69,0,0,0-.66.11,1.32,1.32,0,0,0-.49.33,1.71,1.71,0,0,0-.32.5,2.6,2.6,0,0,0-.14.64l-.31.17a5.17,5.17,0,0,1,.11-1.07,3,3,0,0,1,.36-.9,1.67,1.67,0,0,1,.61-.6,1.71,1.71,0,0,1,.89-.23l.27,0A1.07,1.07,0,0,1,84.5,124.37Zm6.61,6.5a3.09,3.09,0,0,1-1.2-.23A2.69,2.69,0,0,1,89,130a3,3,0,0,1-.59-1,3.69,3.69,0,0,1-.2-1.23v-.24a3.7,3.7,0,0,1,.23-1.38,3,3,0,0,1,.62-1,2.62,2.62,0,0,1,.89-.64,2.45,2.45,0,0,1,1-.22,2.66,2.66,0,0,1,1.17.24,2.18,2.18,0,0,1,.82.65,3,3,0,0,1,.47,1,4.71,4.71,0,0,1,.15,1.23v.48H88.84V127h3.65v-.08a2.55,2.55,0,0,0-.17-.82,1.51,1.51,0,0,0-.47-.66,1.4,1.4,0,0,0-.88-.26,1.55,1.55,0,0,0-.68.16,1.37,1.37,0,0,0-.53.46,2.21,2.21,0,0,0-.35.74,3.91,3.91,0,0,0-.12,1v.24a2.91,2.91,0,0,0,.12.85,2.29,2.29,0,0,0,.37.69,1.68,1.68,0,0,0,.59.47,1.74,1.74,0,0,0,.8.17,1.93,1.93,0,0,0,1-.23,2.46,2.46,0,0,0,.7-.63l.65.52a2.59,2.59,0,0,1-.52.59,2.48,2.48,0,0,1-.78.46A2.91,2.91,0,0,1,91.11,130.87Zm4.47-6.46L97,126.72l1.41-2.31h1.27l-2.07,3.13,2.14,3.21H98.45L97,128.37l-1.47,2.38H94.26l2.14-3.21-2.07-3.13Zm7.64,5.57a1.71,1.71,0,0,0,.71-.16,1.46,1.46,0,0,0,.54-.44,1.19,1.19,0,0,0,.24-.63h1a1.87,1.87,0,0,1-.38,1,2.57,2.57,0,0,1-.91.78,2.54,2.54,0,0,1-1.23.3,2.84,2.84,0,0,1-1.25-.26,2.3,2.3,0,0,1-.88-.69,3,3,0,0,1-.52-1,4.09,4.09,0,0,1-.17-1.22v-.24a4,4,0,0,1,.17-1.21,2.94,2.94,0,0,1,.52-1,2.42,2.42,0,0,1,.88-.7,3,3,0,0,1,1.25-.25,2.6,2.6,0,0,1,1.3.31,2.22,2.22,0,0,1,.87.82,2.4,2.4,0,0,1,.35,1.17h-1a1.56,1.56,0,0,0-.22-.71,1.5,1.5,0,0,0-1.27-.7,1.63,1.63,0,0,0-.84.2,1.42,1.42,0,0,0-.53.53,2.48,2.48,0,0,0-.29.73,4.47,4.47,0,0,0-.08.82v.24a4.47,4.47,0,0,0,.08.82,2.52,2.52,0,0,0,.28.74,1.55,1.55,0,0,0,.53.52A1.7,1.7,0,0,0,103.22,130Zm6.37.89a3.09,3.09,0,0,1-1.2-.23,2.69,2.69,0,0,1-.92-.63,3,3,0,0,1-.59-1,3.69,3.69,0,0,1-.2-1.23v-.24a3.91,3.91,0,0,1,.23-1.38,3,3,0,0,1,.62-1,2.62,2.62,0,0,1,.89-.64,2.48,2.48,0,0,1,1-.22,2.66,2.66,0,0,1,1.17.24,2.1,2.1,0,0,1,.82.65,2.82,2.82,0,0,1,.46,1,4.31,4.31,0,0,1,.16,1.23v.48h-4.74V127H111v-.08a2.55,2.55,0,0,0-.17-.82,1.51,1.51,0,0,0-.47-.66,1.4,1.4,0,0,0-.88-.26,1.55,1.55,0,0,0-.68.16,1.45,1.45,0,0,0-.53.46,2.21,2.21,0,0,0-.35.74,3.91,3.91,0,0,0-.12,1v.24a2.91,2.91,0,0,0,.12.85,2.29,2.29,0,0,0,.37.69,1.78,1.78,0,0,0,.59.47,1.74,1.74,0,0,0,.8.17,1.93,1.93,0,0,0,1-.23,2.46,2.46,0,0,0,.7-.63l.66.52a2.65,2.65,0,0,1-.53.59,2.54,2.54,0,0,1-.77.46A3,3,0,0,1,109.59,130.87Zm4.91-9.12v9h-1.09v-9Zm2.92,0v9h-1.09v-9Zm4.37,9.12a3.09,3.09,0,0,1-1.2-.23,2.69,2.69,0,0,1-.92-.63,3,3,0,0,1-.59-1,3.69,3.69,0,0,1-.2-1.23v-.24a3.7,3.7,0,0,1,.23-1.38,3,3,0,0,1,.62-1,2.62,2.62,0,0,1,.89-.64,2.45,2.45,0,0,1,1-.22,2.66,2.66,0,0,1,1.17.24,2.1,2.1,0,0,1,.82.65,2.82,2.82,0,0,1,.46,1,4.31,4.31,0,0,1,.16,1.23v.48h-4.74V127h3.65v-.08a2.55,2.55,0,0,0-.17-.82,1.51,1.51,0,0,0-.47-.66,1.4,1.4,0,0,0-.88-.26,1.55,1.55,0,0,0-.68.16,1.45,1.45,0,0,0-.53.46,2.21,2.21,0,0,0-.35.74,3.91,3.91,0,0,0-.12,1v.24a2.91,2.91,0,0,0,.12.85,2.29,2.29,0,0,0,.37.69,1.68,1.68,0,0,0,.59.47,1.74,1.74,0,0,0,.8.17,1.93,1.93,0,0,0,1-.23,2.46,2.46,0,0,0,.7-.63l.66.52a2.92,2.92,0,0,1-.53.59,2.48,2.48,0,0,1-.78.46A2.91,2.91,0,0,1,121.79,130.87Zm4.82-5.11v5h-1.09v-6.34h1Zm-.26,1.58-.45,0a3.87,3.87,0,0,1,.19-1.2,3.13,3.13,0,0,1,.53-1,2.38,2.38,0,0,1,1.86-.86,2.74,2.74,0,0,1,.84.13,1.58,1.58,0,0,1,.64.4,1.82,1.82,0,0,1,.41.71,3.65,3.65,0,0,1,.14,1.07v4.15h-1.09v-4.17a1.76,1.76,0,0,0-.15-.79.86.86,0,0,0-.42-.44,1.73,1.73,0,0,0-1.43,0,1.71,1.71,0,0,0-.57.47,2.12,2.12,0,0,0-.37.68A2.37,2.37,0,0,0,126.35,127.34Zm8.34,2.64a1.73,1.73,0,0,0,.72-.16,1.46,1.46,0,0,0,.54-.44,1.19,1.19,0,0,0,.24-.63h1a2,2,0,0,1-.38,1,2.66,2.66,0,0,1-.91.78,2.61,2.61,0,0,1-1.24.3,2.91,2.91,0,0,1-1.25-.26,2.27,2.27,0,0,1-.87-.69,3.2,3.2,0,0,1-.53-1,4.44,4.44,0,0,1-.17-1.22v-.24a4.31,4.31,0,0,1,.17-1.21,3.14,3.14,0,0,1,.53-1,2.39,2.39,0,0,1,.87-.7,3.06,3.06,0,0,1,1.25-.25,2.58,2.58,0,0,1,1.3.31,2.31,2.31,0,0,1,.88.82,2.4,2.4,0,0,1,.35,1.17h-1a1.57,1.57,0,0,0-.23-.71,1.29,1.29,0,0,0-.51-.5,1.46,1.46,0,0,0-.76-.2,1.68,1.68,0,0,0-.84.2,1.5,1.5,0,0,0-.53.53,2.46,2.46,0,0,0-.28.73,4.47,4.47,0,0,0-.08.82v.24a4.47,4.47,0,0,0,.08.82,2.52,2.52,0,0,0,.28.74,1.55,1.55,0,0,0,.53.52A1.68,1.68,0,0,0,134.69,130Zm6.38.89a3.09,3.09,0,0,1-1.2-.23A2.6,2.6,0,0,1,139,130a2.85,2.85,0,0,1-.59-1,3.45,3.45,0,0,1-.21-1.23v-.24a3.91,3.91,0,0,1,.23-1.38,3,3,0,0,1,.63-1,2.53,2.53,0,0,1,.89-.64,2.45,2.45,0,0,1,1-.22,2.66,2.66,0,0,1,1.17.24,2.07,2.07,0,0,1,.81.65,2.84,2.84,0,0,1,.47,1,4.71,4.71,0,0,1,.15,1.23v.48H138.8V127h3.65v-.08a2.57,2.57,0,0,0-.18-.82,1.42,1.42,0,0,0-.46-.66,1.4,1.4,0,0,0-.88-.26,1.51,1.51,0,0,0-.68.16,1.48,1.48,0,0,0-.54.46,2.41,2.41,0,0,0-.34.74,3.89,3.89,0,0,0-.13,1v.24a2.91,2.91,0,0,0,.13.85,2.09,2.09,0,0,0,.37.69,1.68,1.68,0,0,0,.59.47,1.71,1.71,0,0,0,.8.17,2,2,0,0,0,1-.23,2.6,2.6,0,0,0,.7-.63l.65.52a2.59,2.59,0,0,1-.52.59,2.48,2.48,0,0,1-.78.46A2.91,2.91,0,0,1,141.07,130.87Zm7.88-6.46v6.34h-1.09v-6.34Zm-1.17-1.68a.69.69,0,0,1,.16-.45.73.73,0,0,1,1,0,.64.64,0,0,1,.17.45.67.67,0,0,1-1.13.43A.65.65,0,0,1,147.78,122.73Zm4,3v5h-1.09v-6.34h1Zm-.26,1.58-.45,0a3.87,3.87,0,0,1,.19-1.2,3.13,3.13,0,0,1,.53-1,2.38,2.38,0,0,1,1.86-.86,2.74,2.74,0,0,1,.84.13,1.58,1.58,0,0,1,.64.4,1.71,1.71,0,0,1,.41.71,3.65,3.65,0,0,1,.14,1.07v4.15h-1.09v-4.17a1.76,1.76,0,0,0-.15-.79.86.86,0,0,0-.42-.44,1.47,1.47,0,0,0-.69-.14,1.52,1.52,0,0,0-.74.17,1.71,1.71,0,0,0-.57.47,2.12,2.12,0,0,0-.37.68A2.37,2.37,0,0,0,151.52,127.34ZM57.65,144.87a3.09,3.09,0,0,1-1.2-.23,2.79,2.79,0,0,1-.92-.63,2.83,2.83,0,0,1-.58-1,3.45,3.45,0,0,1-.21-1.23v-.24a3.91,3.91,0,0,1,.23-1.38,3,3,0,0,1,.62-1,2.62,2.62,0,0,1,.89-.64,2.48,2.48,0,0,1,1-.22,2.6,2.6,0,0,1,1.17.24,2,2,0,0,1,.82.65,2.84,2.84,0,0,1,.47,1,4.71,4.71,0,0,1,.15,1.23v.48H55.39V141H59v-.08a2.87,2.87,0,0,0-.18-.82,1.43,1.43,0,0,0-.47-.66,1.38,1.38,0,0,0-.88-.26,1.58,1.58,0,0,0-.68.16,1.53,1.53,0,0,0-.53.46,2.42,2.42,0,0,0-.35.74,3.91,3.91,0,0,0-.12,1v.24a2.91,2.91,0,0,0,.12.85,2.29,2.29,0,0,0,.37.69,1.72,1.72,0,0,0,.6.47,1.7,1.7,0,0,0,.79.17,1.91,1.91,0,0,0,1-.23,2.46,2.46,0,0,0,.7-.63l.66.52a2.86,2.86,0,0,1-.52.59,2.48,2.48,0,0,1-.78.46A3,3,0,0,1,57.65,144.87Zm6-4.19v.89H60.78v-.89Zm5.17-2.27h1v6.2a2.78,2.78,0,0,1-.34,1.43,2.15,2.15,0,0,1-.94.9,3,3,0,0,1-1.4.31,3.32,3.32,0,0,1-.77-.1,3.38,3.38,0,0,1-.87-.35,2.2,2.2,0,0,1-.71-.65l.57-.64a2.24,2.24,0,0,0,.83.66,2.1,2.1,0,0,0,.87.19,1.91,1.91,0,0,0,.89-.19,1.35,1.35,0,0,0,.58-.58,1.87,1.87,0,0,0,.21-.92V139.8Zm-4.37,3.24v-.12a4.86,4.86,0,0,1,.17-1.32,3.41,3.41,0,0,1,.5-1,2.33,2.33,0,0,1,.79-.65,2.26,2.26,0,0,1,1-.24,2.41,2.41,0,0,1,1,.21,2,2,0,0,1,.76.61,3,3,0,0,1,.5.95,6.24,6.24,0,0,1,.25,1.26v.53a5.62,5.62,0,0,1-.25,1.26,3,3,0,0,1-.5.95,2.11,2.11,0,0,1-.76.6,2.47,2.47,0,0,1-1.06.21,2.23,2.23,0,0,1-1-.24,2.4,2.4,0,0,1-.78-.68,3.25,3.25,0,0,1-.51-1A4.72,4.72,0,0,1,64.44,141.65Zm1.09-.12v.12a4.19,4.19,0,0,0,.09.89,2.54,2.54,0,0,0,.3.73,1.55,1.55,0,0,0,.52.5,1.5,1.5,0,0,0,.76.18,1.63,1.63,0,0,0,.89-.23,1.73,1.73,0,0,0,.56-.61,3.18,3.18,0,0,0,.32-.81v-1.41a2.64,2.64,0,0,0-.2-.62,1.5,1.5,0,0,0-.34-.54,1.36,1.36,0,0,0-.5-.38,1.65,1.65,0,0,0-.72-.14,1.57,1.57,0,0,0-.77.18,1.58,1.58,0,0,0-.52.51,2.49,2.49,0,0,0-.3.74A4.13,4.13,0,0,0,65.53,141.53Zm5.62.12v-.13a4,4,0,0,1,.2-1.28,3.19,3.19,0,0,1,.58-1,2.56,2.56,0,0,1,.91-.68,3,3,0,0,1,2.39,0,2.6,2.6,0,0,1,.92.68,3.19,3.19,0,0,1,.58,1,4,4,0,0,1,.2,1.28v.13a4,4,0,0,1-.2,1.27,3.35,3.35,0,0,1-.58,1,2.79,2.79,0,0,1-.91.68,2.86,2.86,0,0,1-1.2.24,2.92,2.92,0,0,1-1.2-.24,2.79,2.79,0,0,1-.91-.68,3.35,3.35,0,0,1-.58-1A4,4,0,0,1,71.15,141.65Zm1.09-.13v.13a3.27,3.27,0,0,0,.11.9,2.21,2.21,0,0,0,.33.73,1.63,1.63,0,0,0,.57.51A1.57,1.57,0,0,0,74,144a1.5,1.5,0,0,0,.78-.19,1.45,1.45,0,0,0,.56-.51,2.45,2.45,0,0,0,.34-.73,3.26,3.26,0,0,0,.12-.9v-.13a3.19,3.19,0,0,0-.12-.89,2.4,2.4,0,0,0-.34-.74,1.74,1.74,0,0,0-.56-.52,1.74,1.74,0,0,0-1.58,0,1.84,1.84,0,0,0-.56.52,2.17,2.17,0,0,0-.33.74A3.19,3.19,0,0,0,72.24,141.52Zm7.88,2.25,1.73-5.36H83l-2.28,6.34H80Zm-1.45-5.36,1.79,5.39.12.95h-.73l-2.29-6.34Zm7.88,6.46a3.09,3.09,0,0,1-1.2-.23,2.69,2.69,0,0,1-.92-.63,2.83,2.83,0,0,1-.58-1,3.45,3.45,0,0,1-.21-1.23v-.24a3.91,3.91,0,0,1,.23-1.38,3,3,0,0,1,.62-1,2.62,2.62,0,0,1,.89-.64,2.48,2.48,0,0,1,1-.22,2.63,2.63,0,0,1,1.17.24,2,2,0,0,1,.82.65,2.84,2.84,0,0,1,.47,1A4.71,4.71,0,0,1,89,141.4v.48H84.28V141h3.65v-.08a2.55,2.55,0,0,0-.17-.82,1.43,1.43,0,0,0-.47-.66,1.38,1.38,0,0,0-.88-.26,1.58,1.58,0,0,0-.68.16,1.45,1.45,0,0,0-.53.46,2.21,2.21,0,0,0-.35.74,3.91,3.91,0,0,0-.12,1v.24a2.91,2.91,0,0,0,.12.85,2.29,2.29,0,0,0,.37.69,1.78,1.78,0,0,0,.59.47,1.74,1.74,0,0,0,.8.17,1.93,1.93,0,0,0,1-.23,2.46,2.46,0,0,0,.7-.63l.66.52a2.86,2.86,0,0,1-.52.59,2.72,2.72,0,0,1-.78.46A3,3,0,0,1,86.55,144.87Zm4.82-5.46v5.34H90.28v-6.34h1.06Zm2-1v1l-.25,0h-.27a1.78,1.78,0,0,0-.67.11,1.37,1.37,0,0,0-.48.33,1.53,1.53,0,0,0-.32.5,3.15,3.15,0,0,0-.15.64l-.3.17A5.17,5.17,0,0,1,91,140a3,3,0,0,1,.36-.9,1.71,1.71,0,0,1,1.5-.83l.27,0A1.07,1.07,0,0,1,93.35,138.37Zm2.08,1.39v5H94.35v-6.34h1Zm-.25,1.58-.45,0a3.59,3.59,0,0,1,.19-1.2,2.94,2.94,0,0,1,.53-1,2.28,2.28,0,0,1,.81-.63,2.37,2.37,0,0,1,1-.23,2.76,2.76,0,0,1,.85.13,1.58,1.58,0,0,1,.64.4,1.82,1.82,0,0,1,.41.71,3.65,3.65,0,0,1,.14,1.07v4.15H98.25v-4.17a1.76,1.76,0,0,0-.15-.79.88.88,0,0,0-.43-.44,1.41,1.41,0,0,0-.69-.14,1.55,1.55,0,0,0-.74.17,1.68,1.68,0,0,0-.56.47,2.12,2.12,0,0,0-.37.68A2.37,2.37,0,0,0,95.18,141.34Zm9.54,2.33V140.4a1.36,1.36,0,0,0-.15-.65,1,1,0,0,0-.45-.43,1.58,1.58,0,0,0-.73-.15,1.6,1.6,0,0,0-.72.14,1.16,1.16,0,0,0-.49.37.8.8,0,0,0-.16.49h-1.09a1.44,1.44,0,0,1,.18-.68,1.86,1.86,0,0,1,.5-.6,2.45,2.45,0,0,1,.8-.43,3.11,3.11,0,0,1,1-.17,2.92,2.92,0,0,1,1.22.24,1.8,1.8,0,0,1,.83.71,2.12,2.12,0,0,1,.31,1.17v3a4,4,0,0,0,0,.67,2.53,2.53,0,0,0,.17.62v.09H104.9a1.8,1.8,0,0,1-.13-.5A4.13,4.13,0,0,1,104.72,143.67Zm.19-2.76v.76h-1.09a4.15,4.15,0,0,0-.83.07,1.9,1.9,0,0,0-.61.22,1,1,0,0,0-.37.37.92.92,0,0,0-.13.51,1.08,1.08,0,0,0,.13.54.93.93,0,0,0,.41.4,1.48,1.48,0,0,0,.67.14,1.82,1.82,0,0,0,.88-.21,1.91,1.91,0,0,0,.6-.52,1.11,1.11,0,0,0,.25-.59l.46.52a1.7,1.7,0,0,1-.22.55,2.81,2.81,0,0,1-.49.57,2.69,2.69,0,0,1-.71.45,2.34,2.34,0,0,1-.93.18,2.39,2.39,0,0,1-1.13-.26,1.88,1.88,0,0,1-.75-.67,1.72,1.72,0,0,1-.26-.95,2,2,0,0,1,.19-.9,1.81,1.81,0,0,1,.58-.65,2.65,2.65,0,0,1,.9-.4,4.79,4.79,0,0,1,1.18-.13Zm3.69-1.15v5h-1.09v-6.34h1Zm-.26,1.58-.45,0a3.59,3.59,0,0,1,.19-1.2,2.94,2.94,0,0,1,.53-1,2.28,2.28,0,0,1,.81-.63,2.37,2.37,0,0,1,1-.23,2.76,2.76,0,0,1,.85.13,1.58,1.58,0,0,1,.64.4,1.82,1.82,0,0,1,.41.71,3.65,3.65,0,0,1,.14,1.07v4.15h-1.09v-4.17a1.76,1.76,0,0,0-.15-.79.88.88,0,0,0-.43-.44,1.41,1.41,0,0,0-.69-.14,1.55,1.55,0,0,0-.74.17,1.59,1.59,0,0,0-.56.47,2.12,2.12,0,0,0-.37.68A2.37,2.37,0,0,0,108.34,141.34Zm8.34,2.64a1.73,1.73,0,0,0,.72-.16,1.51,1.51,0,0,0,.53-.44,1.2,1.2,0,0,0,.25-.63h1a2,2,0,0,1-.38,1,2.66,2.66,0,0,1-.91.78,2.61,2.61,0,0,1-1.24.3,2.88,2.88,0,0,1-1.25-.26,2.37,2.37,0,0,1-.88-.69,3.17,3.17,0,0,1-.52-1,4.44,4.44,0,0,1-.17-1.22v-.24a4.31,4.31,0,0,1,.17-1.21,3.12,3.12,0,0,1,.52-1,2.51,2.51,0,0,1,.88-.7,3,3,0,0,1,1.25-.25,2.58,2.58,0,0,1,1.3.31,2.22,2.22,0,0,1,.87.82,2.3,2.3,0,0,1,.36,1.17h-1a1.7,1.7,0,0,0-.23-.71,1.36,1.36,0,0,0-.51-.5,1.46,1.46,0,0,0-.76-.2,1.68,1.68,0,0,0-.84.2,1.5,1.5,0,0,0-.53.53,2.46,2.46,0,0,0-.28.73,3.74,3.74,0,0,0-.08.82v.24a3.74,3.74,0,0,0,.08.82,2.51,2.51,0,0,0,.27.74,1.58,1.58,0,0,0,.54.52A1.66,1.66,0,0,0,116.68,144Zm6.38.89a3.11,3.11,0,0,1-1.21-.23,2.79,2.79,0,0,1-.92-.63,3,3,0,0,1-.58-1,3.45,3.45,0,0,1-.21-1.23v-.24a3.91,3.91,0,0,1,.23-1.38,3,3,0,0,1,.62-1,2.72,2.72,0,0,1,.89-.64,2.52,2.52,0,0,1,1-.22,2.66,2.66,0,0,1,1.17.24,2.07,2.07,0,0,1,.81.65,2.84,2.84,0,0,1,.47,1,4.71,4.71,0,0,1,.15,1.23v.48h-4.73V141h3.65v-.08a2.87,2.87,0,0,0-.18-.82,1.37,1.37,0,0,0-.47-.66,1.35,1.35,0,0,0-.87-.26,1.51,1.51,0,0,0-.68.16,1.48,1.48,0,0,0-.54.46,2.2,2.2,0,0,0-.34.74,3.51,3.51,0,0,0-.13,1v.24a2.61,2.61,0,0,0,.13.85,2.09,2.09,0,0,0,.37.69,1.71,1.71,0,0,0,1.38.64,2,2,0,0,0,1-.23,2.43,2.43,0,0,0,.69-.63l.66.52a2.86,2.86,0,0,1-.52.59,2.48,2.48,0,0,1-.78.46A2.94,2.94,0,0,1,123.06,144.87Z"></path><path class="cls-2" d="M84.63,93.5v1.25h-5V93.67l2.32-3c.23-.32.41-.6.55-.84a3.74,3.74,0,0,0,.28-.65,2.29,2.29,0,0,0,.08-.56,1.93,1.93,0,0,0-.1-.67.93.93,0,0,0-.29-.45.7.7,0,0,0-.47-.17.8.8,0,0,0-.56.2,1.19,1.19,0,0,0-.34.53,2.66,2.66,0,0,0-.1.77H79.53a3.17,3.17,0,0,1,.3-1.38,2.38,2.38,0,0,1,2.23-1.38,2.56,2.56,0,0,1,1.29.3,1.9,1.9,0,0,1,.79.82,2.81,2.81,0,0,1,.27,1.28,3.09,3.09,0,0,1-.11.8,4,4,0,0,1-.31.79,5.74,5.74,0,0,1-.49.8,8.76,8.76,0,0,1-.64.82l-1.28,1.8Zm5.93-3.75v1.44a6.86,6.86,0,0,1-.18,1.68,3.15,3.15,0,0,1-.5,1.14,2,2,0,0,1-.76.65,2.24,2.24,0,0,1-1,.21,2.58,2.58,0,0,1-.8-.13,2.21,2.21,0,0,1-.69-.41,2.65,2.65,0,0,1-.51-.72,4.3,4.3,0,0,1-.33-1,8.08,8.08,0,0,1-.11-1.39V89.75a6.66,6.66,0,0,1,.18-1.67,3.44,3.44,0,0,1,.5-1.14,1.92,1.92,0,0,1,.77-.63,2.24,2.24,0,0,1,1-.21,2.32,2.32,0,0,1,.8.13,1.9,1.9,0,0,1,.67.4,2.46,2.46,0,0,1,.52.71,4.16,4.16,0,0,1,.33,1A8,8,0,0,1,90.56,89.75Zm-1.5,1.65V89.52c0-.32,0-.6,0-.84a3.65,3.65,0,0,0-.12-.61,1.2,1.2,0,0,0-.19-.41.7.7,0,0,0-.26-.23.72.72,0,0,0-.32-.08.69.69,0,0,0-.39.12.94.94,0,0,0-.29.37,2.38,2.38,0,0,0-.18.67,5.84,5.84,0,0,0-.07,1V91.4a7.31,7.31,0,0,0,0,.86,4,4,0,0,0,.12.62,1.64,1.64,0,0,0,.2.42.65.65,0,0,0,.58.31.7.7,0,0,0,.38-.11.94.94,0,0,0,.3-.39,2.39,2.39,0,0,0,.17-.68A6,6,0,0,0,89.06,91.4Zm6.19-5.21v8.56H93.74V88.06l-1.66.66V87.44l3-1.25Zm7.36,6.23a2.53,2.53,0,0,1-.32,1.34,2,2,0,0,1-.85.83,2.72,2.72,0,0,1-1.23.28A2.76,2.76,0,0,1,99,94.59a2.11,2.11,0,0,1-.87-.83,2.63,2.63,0,0,1-.31-1.34,2.76,2.76,0,0,1,.17-1,2.39,2.39,0,0,1,.51-.74,2.31,2.31,0,0,1,.76-.49,2.78,2.78,0,0,1,1-.17,2.53,2.53,0,0,1,1.24.3,2.12,2.12,0,0,1,.85.83A2.3,2.3,0,0,1,102.61,92.42Zm-1.51-.1a1.87,1.87,0,0,0-.11-.7,1,1,0,0,0-.31-.46.75.75,0,0,0-.48-.16.76.76,0,0,0-.49.16,1,1,0,0,0-.31.46,2.1,2.1,0,0,0-.11.7,2,2,0,0,0,.11.69.92.92,0,0,0,.32.44.74.74,0,0,0,.49.16.71.71,0,0,0,.48-.16A.9.9,0,0,0,101,93,2,2,0,0,0,101.1,92.32Zm1.36-3.85a2.16,2.16,0,0,1-.29,1.15,2.07,2.07,0,0,1-.8.78,2.29,2.29,0,0,1-1.16.28A2.39,2.39,0,0,1,99,90.4a2.17,2.17,0,0,1-.81-.78,2.28,2.28,0,0,1-.29-1.15,2.56,2.56,0,0,1,.3-1.29,1.9,1.9,0,0,1,.8-.81,2.61,2.61,0,0,1,2.35,0,1.9,1.9,0,0,1,.8.81A2.67,2.67,0,0,1,102.46,88.47Zm-1.5.07a2,2,0,0,0-.09-.62.89.89,0,0,0-.25-.41.61.61,0,0,0-.42-.16.59.59,0,0,0-.41.15.88.88,0,0,0-.26.41,2.25,2.25,0,0,0,0,1.26.89.89,0,0,0,.26.42.61.61,0,0,0,.42.16.6.6,0,0,0,.41-.16.88.88,0,0,0,.25-.42A2,2,0,0,0,101,88.54Z"></path></svg>