<svg xmlns="http://www.w3.org/2000/svg" id="Layer_1" data-name="Layer 1" viewBox="0 0 177 166"><defs><style>.cls-1{fill:#61686d;}.cls-2{fill:#fff;}</style></defs><path class="cls-1" d="M140.72,69.15c-2.59,1.81-3,3.76-3.07,4.31-.41.25-.79.46-1.14.65.55-.91,1.06-1.84,1.54-2.79a43.29,43.29,0,0,0,2.06-5l.18-.57a13.82,13.82,0,0,1,2-3.91l.17-.24c7.24-4,3.92-12,3.92-12,.12,1.79-1.61,3.15-3.38,6.4-1.51,2.77-1,4.71-.82,5.23-.37.57-.72,1.07-1,1.49.11-.52.22-1,.32-1.56a37,37,0,0,0,.63-5.35l0-.67a5,5,0,0,0,0-.67V53.08c0-.44,0-.89-.06-1.34,0-.22,0-.44,0-.66l-.06-.67a4.24,4.24,0,0,1,.07-1.33l.52-2.55c5.28-6.35-.78-12.65-.78-12.65.76,1.62-.35,3.52-.8,7.2-.38,3.12.8,4.75,1.16,5.16-.15.74-.3,1.39-.44,1.92l-.05-.42c0-.44-.16-.88-.24-1.32l-.12-.66c-.05-.22-.09-.44-.14-.65-.22-.87-.41-1.74-.69-2.59l-.2-.64-.09-.32-.11-.31L139.61,40c-.28-.73-.58-1.45-.9-2.17a11.71,11.71,0,0,1-1-4.07c0-.33,0-.65-.07-1,2.84-7.75-5-11.65-5-11.65,1.25,1.27.85,3.43,1.66,7,.69,3.08,2.35,4.21,2.83,4.48.15,1.05.24,1.93.28,2.55l0-.07-.32-.59c-.1-.2-.22-.39-.34-.58L136,32.83l-.75-1.1c-.12-.18-.24-.37-.37-.55l-.4-.54c-.41-.57-.84-1.12-1.29-1.66-.63-.79-1.48-1.94-2.22-2.76a5.7,5.7,0,0,1-.89-1.29c-3.25-6.86-11.2-4.93-11.2-4.93,1.79.11,2.93,2,5.94,4.15a6.62,6.62,0,0,0,4.94,1.49l.27.08.91,1a38.71,38.71,0,0,1,3.32,4.13l.38.54c.13.18.24.37.36.55l.7,1.12.3.53a22.76,22.76,0,0,0-2.37-1.77c-4.29-7-12.22-3.37-12.22-3.37,1.78-.19,3.22,1.47,6.55,3.09,2.83,1.38,4.75.79,5.26.58,1.13.67,2.07,1.32,2.62,1.71a2.61,2.61,0,0,1,.83.95h0l.3.6a36.93,36.93,0,0,1,2.08,4.84l.41,1.25.1.31.09.32.17.63c.25.84.43,1.71.62,2.56,0,.22.09.43.12.65h0a22.66,22.66,0,0,0-1.67-2.25c-2-8-10.69-6.8-10.69-6.8,1.76.34,2.65,2.35,5.36,4.87a6.58,6.58,0,0,0,4.85,2.1c.62.67,1.14,1.27,1.51,1.75a4.18,4.18,0,0,1,.94,2.25v0l.15,1.31,0,.32,0,.33,0,.65,0,.65c0,.22,0,.44,0,.66,0,.44,0,.87,0,1.31l0,1.31c0,.22,0,.44,0,.66l0,.65q-.11,1.43-.3,2.82c-.19-.78-.4-1.53-.65-2.24,1-8.19-7.56-10.17-7.56-10.17,1.52.95,1.63,3.14,3.26,6.46,1.39,2.84,3.27,3.55,3.8,3.7.2.51.37,1,.52,1.4a5.87,5.87,0,0,1,.2,3.19s0,0,0,0a36.41,36.41,0,0,1-1.44,5,39.74,39.74,0,0,1-2.11,4.77c-.23.45-.48.89-.74,1.33a23.15,23.15,0,0,0,.26-2.67C140.24,62,133,57.09,133,57.09c1.07,1.44.37,3.52.67,7.22.25,3.14,1.74,4.49,2.18,4.82v.35a9.87,9.87,0,0,1-1.78,5.59s0,0,0,0a38.29,38.29,0,0,1-3.31,4c-.31.3-.59.63-.91.93l-.94.89,0,0c.29-.51.54-1,.78-1.51,6.42-5.2,1.69-12.55,1.69-12.55.43,1.74-1,3.38-2.18,6.91-1,3-.14,4.81.13,5.28-.19.45-.38.87-.54,1.24A6.36,6.36,0,0,1,127,82.61h0a35.48,35.48,0,0,1-4.25,3c-.87.52-1.75,1-2.66,1.44q.57-.58,1-1.17C127.22,83,125,76.21,125,76.21c0,1.47-1.49,2.49-3.13,5.05a5.3,5.3,0,0,0-1,4.22c-.2.27-.39.52-.57.74a5.65,5.65,0,0,1-2.21,1.69,0,0,0,0,0,0,0,40.75,40.75,0,0,1-4.88,1.68h0a1.08,1.08,0,0,0-.79,1,1.1,1.1,0,0,0,1.41,1.1,43.12,43.12,0,0,0,5.11-1.92,40.79,40.79,0,0,0,4.78-2.59c.93-.57,1.82-1.2,2.69-1.86a7.82,7.82,0,0,1,4.07-1.56c7.7,3,11.72-4.8,11.72-4.8-1.3,1.24-3.45.81-7.08,1.56a6.52,6.52,0,0,0-4.51,2.76c-.75.1-1.4.16-1.94.19.49-.43,1-.88,1.44-1.32l1-1c.32-.32.61-.67.92-1a39.13,39.13,0,0,0,3.34-4.26l.06-.09a5.18,5.18,0,0,1,2-1.73l.38-.21c8.25-.3,8.89-9,8.89-9C145.91,66.58,143.76,67,140.72,69.15Z"></path><path class="cls-1" d="M37.74,69.15c2.59,1.81,3,3.76,3.07,4.31.41.25.79.46,1.14.65-.55-.91-1.06-1.84-1.54-2.79a43.29,43.29,0,0,1-2.06-5c-.06-.19-.12-.38-.19-.57a13.54,13.54,0,0,0-2-3.91L36,61.61c-7.24-4-3.92-12-3.92-12-.12,1.79,1.61,3.15,3.38,6.4,1.51,2.77,1,4.71.82,5.23.37.57.72,1.07,1,1.49-.11-.52-.22-1-.32-1.56a37,37,0,0,1-.63-5.35l0-.67a5,5,0,0,1,0-.67V53.08c0-.44,0-.89.06-1.34,0-.22,0-.44,0-.66l.06-.67a4.24,4.24,0,0,0-.07-1.33l-.52-2.55c-5.28-6.35.78-12.65.78-12.65-.76,1.62.35,3.52.8,7.2.38,3.12-.8,4.75-1.16,5.16.15.74.31,1.39.44,1.92l0-.42c.05-.44.16-.88.24-1.32l.12-.66c.05-.22.09-.44.14-.65.22-.87.41-1.74.69-2.59l.2-.64.09-.32.11-.31L38.85,40c.28-.73.58-1.45.9-2.17a11.94,11.94,0,0,0,1-4.07c0-.33,0-.65.07-1-2.84-7.75,5-11.65,5-11.65-1.26,1.27-.86,3.43-1.67,7-.69,3.08-2.35,4.21-2.83,4.48-.15,1.05-.24,1.93-.28,2.55,0,0,0,0,0-.07l.32-.59c.1-.2.22-.39.34-.58l.68-1.14.75-1.1c.12-.18.24-.37.37-.55l.4-.54c.41-.57.84-1.12,1.29-1.66.63-.79,1.48-1.94,2.23-2.76a6,6,0,0,0,.88-1.29C51.59,18.07,59.54,20,59.54,20c-1.79.11-2.93,2-5.94,4.15a6.62,6.62,0,0,1-4.94,1.49l-.27.08-.91,1a38.71,38.71,0,0,0-3.32,4.13l-.38.54c-.13.18-.24.37-.36.55L42.71,33l-.3.53a21.84,21.84,0,0,1,2.38-1.77C49.07,24.72,57,28.4,57,28.4c-1.78-.19-3.22,1.47-6.54,3.09-2.84,1.38-4.76.79-5.26.58-1.14.67-2.08,1.32-2.63,1.71a2.71,2.71,0,0,0-.83.95h0l-.29.6a35.63,35.63,0,0,0-2.08,4.84L39,41.42l-.11.31-.09.32-.17.63c-.25.84-.43,1.71-.61,2.56,0,.22-.09.43-.13.65h0a24.34,24.34,0,0,1,1.67-2.25c2-8,10.69-6.8,10.69-6.8-1.75.34-2.64,2.35-5.35,4.87A6.61,6.61,0,0,1,40,43.82c-.62.67-1.13,1.27-1.51,1.75a4.18,4.18,0,0,0-.94,2.25v0l-.15,1.31,0,.32,0,.33-.05.65,0,.65c0,.22,0,.44,0,.66,0,.44,0,.87,0,1.31l0,1.31q0,.33,0,.66l.05.65q.1,1.43.3,2.82c.19-.78.41-1.53.66-2.24-1-8.19,7.56-10.17,7.56-10.17-1.52.95-1.64,3.14-3.27,6.46-1.39,2.84-3.26,3.55-3.79,3.7-.2.51-.38,1-.52,1.4a5.69,5.69,0,0,0-.2,3.19v0a37.86,37.86,0,0,0,1.44,5,41.39,41.39,0,0,0,2.11,4.77c.24.45.49.89.75,1.33a23.23,23.23,0,0,1-.27-2.67c-3.9-7.28,3.31-12.23,3.31-12.23-1.07,1.44-.37,3.52-.67,7.22-.25,3.14-1.73,4.49-2.17,4.82v.35a9.72,9.72,0,0,0,1.78,5.59s0,0,0,0a38.29,38.29,0,0,0,3.31,4c.31.3.59.63.91.93l.94.89,0,0c-.29-.51-.54-1-.78-1.51-6.41-5.2-1.69-12.55-1.69-12.55-.43,1.74,1,3.38,2.18,6.91,1,3,.14,4.81-.13,5.28.19.45.38.87.54,1.24a6.29,6.29,0,0,0,1.82,2.33h0a35.48,35.48,0,0,0,4.25,3c.87.52,1.75,1,2.66,1.44q-.57-.58-1-1.17C51.24,83,53.5,76.21,53.5,76.21c0,1.47,1.49,2.49,3.13,5.05a5.3,5.3,0,0,1,1,4.22c.2.27.39.52.57.74a5.65,5.65,0,0,0,2.21,1.69h0a40,40,0,0,0,4.87,1.68h0a1.08,1.08,0,0,1,.79,1,1.1,1.1,0,0,1-1.41,1.1,42.33,42.33,0,0,1-5.1-1.92,40.13,40.13,0,0,1-4.79-2.59c-.93-.57-1.82-1.2-2.69-1.86A7.82,7.82,0,0,0,48,83.77c-7.7,3-11.72-4.8-11.72-4.8,1.3,1.24,3.45.81,7.08,1.56a6.52,6.52,0,0,1,4.51,2.76c.75.1,1.4.16,1.94.19-.49-.43-1-.88-1.44-1.32l-1-1c-.32-.32-.61-.67-.92-1a39.13,39.13,0,0,1-3.34-4.26.31.31,0,0,0-.07-.09,5.08,5.08,0,0,0-2-1.73l-.38-.21c-8.25-.3-8.89-9-8.89-9C32.55,66.58,34.71,67,37.74,69.15Z"></path><path class="cls-2" d="M78.49,42.39l-2.06,7.36H74.94l2.71-8.53h.93Zm1.65,7.36-2.07-7.36L78,41.22h1l2.72,8.53Zm0-3.17v1.19h-4V46.58Zm3.54-1.88v5H82.35V43.41h1.28Zm-.23,1.65H83a4.72,4.72,0,0,1,.12-1.22,3.4,3.4,0,0,1,.39-1,2,2,0,0,1,.68-.64,1.9,1.9,0,0,1,.94-.23,1.59,1.59,0,0,1,.66.13,1.33,1.33,0,0,1,.53.39,1.87,1.87,0,0,1,.35.69,3.86,3.86,0,0,1,.12,1v4.23H85.46v-4.1a1.92,1.92,0,0,0-.11-.71.72.72,0,0,0-.29-.38,1,1,0,0,0-.47-.11.85.85,0,0,0-.51.15,1.15,1.15,0,0,0-.34.41,2.18,2.18,0,0,0-.19.61A4.15,4.15,0,0,0,83.49,46.35ZM86.73,46l-.64.14A4.29,4.29,0,0,1,86.21,45a3.06,3.06,0,0,1,.39-.9,1.83,1.83,0,0,1,.65-.62,1.87,1.87,0,0,1,.92-.23,1.91,1.91,0,0,1,.74.14,1.35,1.35,0,0,1,.55.41,1.77,1.77,0,0,1,.34.73,3.8,3.8,0,0,1,.13,1.08v4.1H88.55v-4.1a2,2,0,0,0-.1-.73.6.6,0,0,0-.29-.36,1,1,0,0,0-.47-.11.67.67,0,0,0-.41.13.85.85,0,0,0-.3.32,1.74,1.74,0,0,0-.19.5A2.74,2.74,0,0,0,86.73,46Zm5.94-1.36v5.12H91.31V43.41h1.3Zm1.53-1.26v1.35a1,1,0,0,0-.25,0h-.26a1.07,1.07,0,0,0-.49.1.85.85,0,0,0-.34.29,1.36,1.36,0,0,0-.23.45,2.52,2.52,0,0,0-.09.59l-.29,0A6.4,6.4,0,0,1,92.34,45a3.66,3.66,0,0,1,.28-.9,1.63,1.63,0,0,1,.48-.6,1.06,1.06,0,0,1,.67-.22l.24,0A.56.56,0,0,1,94.2,43.37Zm4.07,4.88V43.41h1.37v6.34H98.35Zm.19-1.32h.44a5.55,5.55,0,0,1-.12,1.18,3,3,0,0,1-.36.93,1.7,1.7,0,0,1-.63.62,1.87,1.87,0,0,1-.92.22,1.83,1.83,0,0,1-.71-.14,1.59,1.59,0,0,1-.56-.41,2.22,2.22,0,0,1-.36-.74,4.2,4.2,0,0,1-.13-1.08V43.41h1.37v4.11a2.23,2.23,0,0,0,.06.56,1.15,1.15,0,0,0,.16.37.67.67,0,0,0,.23.19.71.71,0,0,0,.29,0,1.1,1.1,0,0,0,.73-.22,1.28,1.28,0,0,0,.4-.64A3.46,3.46,0,0,0,98.46,46.93Zm5.1-3.52v1.05h-3.11V43.41Zm-2.26-1.55h1.36V48a1.25,1.25,0,0,0,.06.44.4.4,0,0,0,.19.21.57.57,0,0,0,.27,0h.23l.17-.05v1.11l-.35.1a3.32,3.32,0,0,1-.48,0,1.54,1.54,0,0,1-.75-.18,1.19,1.19,0,0,1-.51-.57,2.38,2.38,0,0,1-.19-1ZM78.12,53.39l-2.06,7.36H74.58l2.7-8.53h.93Zm1.65,7.36L77.7,53.39l-.1-1.17h1l2.72,8.53Zm0-3.17v1.19h-4V57.58Zm3.52,1.75,1.25-4.92h.86l-.17,1.51L84,60.75h-.76Zm-.52-4.92,1,4.94v1.4h-.86l-1.42-6.34Zm3.63,4.88.91-4.88h1.33l-1.43,6.34H86.4Zm-.86-4.88,1.23,4.86.09,1.48h-.76l-1.26-4.83-.17-1.51Zm7,5.05V56.3a1.17,1.17,0,0,0-.1-.53.51.51,0,0,0-.26-.28.81.81,0,0,0-.43-.1.88.88,0,0,0-.45.11.7.7,0,0,0-.28.31,1,1,0,0,0-.09.43H89.58a1.87,1.87,0,0,1,.15-.73,2.28,2.28,0,0,1,.45-.63,2.41,2.41,0,0,1,.71-.43,2.52,2.52,0,0,1,.93-.16,2.6,2.6,0,0,1,1.08.21,1.53,1.53,0,0,1,.75.65,2.2,2.2,0,0,1,.27,1.17v3a4.58,4.58,0,0,0,.06.78,2.92,2.92,0,0,0,.15.6v.09H92.74a3,3,0,0,1-.14-.59A5.58,5.58,0,0,1,92.56,59.46Zm.18-2.57v.88h-.65a1.74,1.74,0,0,0-.53.08,1.31,1.31,0,0,0-.4.23,1,1,0,0,0-.24.34,1.27,1.27,0,0,0,0,.94.57.57,0,0,0,.25.28.86.86,0,0,0,.41.09,1.07,1.07,0,0,0,.94-.49.54.54,0,0,0,.11-.38l.31.57a1.62,1.62,0,0,1-.18.47,2.3,2.3,0,0,1-.32.47,1.44,1.44,0,0,1-.48.36,1.51,1.51,0,0,1-.65.14,2,2,0,0,1-1-.23A1.57,1.57,0,0,1,89.7,60a2.08,2.08,0,0,1-.23-1,2.13,2.13,0,0,1,.16-.86,1.74,1.74,0,0,1,.47-.67,2.08,2.08,0,0,1,.78-.43,3.61,3.61,0,0,1,1.1-.15Zm4-1.26v5.12H95.32V54.41h1.3Zm1.53-1.26v1.35a1,1,0,0,0-.25,0H97.7a1,1,0,0,0-.48.1.82.82,0,0,0-.35.29,1.35,1.35,0,0,0-.22.45,3.14,3.14,0,0,0-.1.59l-.29,0A6.4,6.4,0,0,1,96.35,56a3.66,3.66,0,0,1,.29-.9,1.46,1.46,0,0,1,.48-.6,1,1,0,0,1,.66-.22l.24,0A.64.64,0,0,1,98.22,54.37Zm4,5.05V51.75h1.36v9h-1.24Zm-3.41-1.58v-.5A5.9,5.9,0,0,1,99,56a2.68,2.68,0,0,1,.41-1,1.7,1.7,0,0,1,.66-.57,2.07,2.07,0,0,1,.88-.18,1.48,1.48,0,0,1,.82.22,1.76,1.76,0,0,1,.58.6,3.36,3.36,0,0,1,.38.94,6,6,0,0,1,.2,1.21V58a7.83,7.83,0,0,1-.2,1.18,3.54,3.54,0,0,1-.38.92,1.92,1.92,0,0,1-.59.61,1.59,1.59,0,0,1-.82.21,1.92,1.92,0,0,1-.87-.2,1.8,1.8,0,0,1-.66-.57,2.79,2.79,0,0,1-.41-.94A5.75,5.75,0,0,1,98.82,57.84Zm1.37-.5v.5a6.48,6.48,0,0,0,0,.83,1.88,1.88,0,0,0,.19.58.92.92,0,0,0,.34.34,1.13,1.13,0,0,0,.51.1,1,1,0,0,0,.61-.18,1.3,1.3,0,0,0,.37-.51,3,3,0,0,0,.19-.71V56.92a2.5,2.5,0,0,0-.12-.57,1.58,1.58,0,0,0-.23-.47,1,1,0,0,0-.34-.31.91.91,0,0,0-.47-.12,1,1,0,0,0-.51.12.77.77,0,0,0-.34.35,1.87,1.87,0,0,0-.2.58A6.65,6.65,0,0,0,100.19,57.34Z"></path><path class="cls-2" d="M30.35,108l-2.83,7.78H26.37l3.25-8.53h.74Zm2.36,7.78L29.88,108v-.75h.74l3.26,8.53Zm-.14-3.16v.93h-4.8v-.93Zm3.37-1.83v5H34.85v-6.34h1Zm-.26,1.58-.45,0a3.59,3.59,0,0,1,.19-1.2,2.94,2.94,0,0,1,.53-1,2.28,2.28,0,0,1,.81-.63,2.37,2.37,0,0,1,1-.23,2.76,2.76,0,0,1,.85.13,1.58,1.58,0,0,1,.64.4,1.82,1.82,0,0,1,.41.71,3.65,3.65,0,0,1,.14,1.07v4.15H38.75v-4.17a1.76,1.76,0,0,0-.15-.79.88.88,0,0,0-.43-.44,1.41,1.41,0,0,0-.69-.14,1.55,1.55,0,0,0-.74.17,1.78,1.78,0,0,0-.56.47,2.12,2.12,0,0,0-.37.68A2.37,2.37,0,0,0,35.68,112.34Zm9.8,2.18v-7.77h1.09v9h-1Zm-4.26-1.87v-.12a4.49,4.49,0,0,1,.17-1.32,3.2,3.2,0,0,1,.51-1,2.33,2.33,0,0,1,.79-.65,2.2,2.2,0,0,1,1-.24,2.46,2.46,0,0,1,1.05.21,2,2,0,0,1,.76.61,3,3,0,0,1,.5,1,6.24,6.24,0,0,1,.25,1.26v.53a6.24,6.24,0,0,1-.25,1.26,3,3,0,0,1-.5,1,2.11,2.11,0,0,1-.76.6,2.51,2.51,0,0,1-1.06.21,2.19,2.19,0,0,1-1-.24,2.43,2.43,0,0,1-.79-.68,3.25,3.25,0,0,1-.51-1A4.36,4.36,0,0,1,41.22,112.65Zm1.08-.12v.12a4.18,4.18,0,0,0,.1.89,2.54,2.54,0,0,0,.3.73A1.46,1.46,0,0,0,44,115a1.61,1.61,0,0,0,.89-.23,1.73,1.73,0,0,0,.56-.61,3.62,3.62,0,0,0,.33-.81v-1.41a3.23,3.23,0,0,0-.21-.62,1.66,1.66,0,0,0-.34-.54,1.32,1.32,0,0,0-.51-.38,1.55,1.55,0,0,0-.71-.14,1.44,1.44,0,0,0-1.29.69,2.49,2.49,0,0,0-.3.74A4.11,4.11,0,0,0,42.3,112.53Zm7-5.78v9H48.26v-9Zm-.26,5.59-.45,0a3.87,3.87,0,0,1,.2-1.2,3.11,3.11,0,0,1,.52-1,2.38,2.38,0,0,1,1.86-.86,2.74,2.74,0,0,1,.84.13,1.52,1.52,0,0,1,.64.4,1.71,1.71,0,0,1,.41.71,3.35,3.35,0,0,1,.14,1.07v4.15H52.16v-4.17a1.76,1.76,0,0,0-.15-.79.88.88,0,0,0-.43-.44,1.47,1.47,0,0,0-.69-.14,1.52,1.52,0,0,0-.74.17,1.71,1.71,0,0,0-.57.47,2.33,2.33,0,0,0-.37.68A2.64,2.64,0,0,0,49.08,112.34ZM56,110.41v5.34H54.87v-6.34h1.05Zm2-1v1l-.26,0H57.4a1.69,1.69,0,0,0-.66.11,1.32,1.32,0,0,0-.49.33,1.71,1.71,0,0,0-.32.5,2.6,2.6,0,0,0-.14.64l-.31.17a5.17,5.17,0,0,1,.11-1.07,3,3,0,0,1,.36-.9,1.75,1.75,0,0,1,.61-.6,1.71,1.71,0,0,1,.89-.23l.27,0A1.07,1.07,0,0,1,57.93,109.37Zm4.51,5.3V111.4a1.36,1.36,0,0,0-.15-.65,1,1,0,0,0-.45-.43,1.62,1.62,0,0,0-.74-.15,1.65,1.65,0,0,0-.72.14,1.19,1.19,0,0,0-.48.37.81.81,0,0,0-.17.49H58.65a1.55,1.55,0,0,1,.17-.68,2,2,0,0,1,.51-.6,2.5,2.5,0,0,1,.79-.43,3.17,3.17,0,0,1,1.05-.17,3,3,0,0,1,1.22.24,1.8,1.8,0,0,1,.83.71,2.12,2.12,0,0,1,.3,1.17v3a4.06,4.06,0,0,0,.06.67,2.55,2.55,0,0,0,.16.62v.09H62.61a3,3,0,0,1-.13-.5A4,4,0,0,1,62.44,114.67Zm.18-2.76,0,.76h-1.1a4,4,0,0,0-.82.07,1.81,1.81,0,0,0-.61.22,1,1,0,0,0-.38.37,1,1,0,0,0-.13.51,1.09,1.09,0,0,0,.14.54,1,1,0,0,0,.4.4,1.55,1.55,0,0,0,.68.14,1.75,1.75,0,0,0,.87-.21,1.85,1.85,0,0,0,.61-.52,1.09,1.09,0,0,0,.24-.59l.47.52a1.54,1.54,0,0,1-.23.55,2.74,2.74,0,0,1-.48.57,2.59,2.59,0,0,1-.72.45,2.25,2.25,0,0,1-.92.18,2.39,2.39,0,0,1-1.13-.26,1.88,1.88,0,0,1-.75-.67,1.73,1.73,0,0,1-.27-1,2,2,0,0,1,.2-.9,1.72,1.72,0,0,1,.58-.65,2.65,2.65,0,0,1,.9-.4,4.74,4.74,0,0,1,1.18-.13Zm8.89.49H69.23v-.92h2.28a2.39,2.39,0,0,0,1.08-.21,1.28,1.28,0,0,0,.59-.58,1.85,1.85,0,0,0,.2-.86,1.77,1.77,0,0,0-.2-.82,1.43,1.43,0,0,0-.59-.63,2.13,2.13,0,0,0-1.08-.24h-2v7.61H68.37v-8.53h3.14a3.69,3.69,0,0,1,1.64.33,2.34,2.34,0,0,1,1,.93,2.6,2.6,0,0,1,.35,1.34,2.69,2.69,0,0,1-.35,1.4,2.18,2.18,0,0,1-1,.88A4,4,0,0,1,71.51,112.4Zm5.35-2v5.34H75.77v-6.34h1.06Zm2-1v1l-.25,0H78.3a1.69,1.69,0,0,0-.66.11,1.37,1.37,0,0,0-.48.33,1.53,1.53,0,0,0-.32.5,3.15,3.15,0,0,0-.15.64l-.3.17A5.17,5.17,0,0,1,76.5,111a3,3,0,0,1,.36-.9,1.71,1.71,0,0,1,1.5-.83l.27,0A1.07,1.07,0,0,1,78.84,109.37Zm4.5,5.3V111.4a1.36,1.36,0,0,0-.15-.65,1,1,0,0,0-.44-.43,1.65,1.65,0,0,0-.74-.15,1.6,1.6,0,0,0-.72.14,1.07,1.07,0,0,0-.48.37.75.75,0,0,0-.17.49H79.55a1.44,1.44,0,0,1,.18-.68,2,2,0,0,1,.5-.6,2.56,2.56,0,0,1,.8-.43,3.11,3.11,0,0,1,1-.17,2.92,2.92,0,0,1,1.22.24,1.75,1.75,0,0,1,.83.71,2,2,0,0,1,.31,1.17v3a5.43,5.43,0,0,0,0,.67,3.07,3.07,0,0,0,.17.62v.09H83.52a2.24,2.24,0,0,1-.13-.5A4.13,4.13,0,0,1,83.34,114.67Zm.19-2.76v.76H82.45a4.15,4.15,0,0,0-.83.07A2,2,0,0,0,81,113a1,1,0,0,0-.37.37.92.92,0,0,0-.13.51,1.08,1.08,0,0,0,.13.54,1,1,0,0,0,.41.4,1.51,1.51,0,0,0,.67.14,1.79,1.79,0,0,0,.88-.21,1.91,1.91,0,0,0,.6-.52,1,1,0,0,0,.25-.59l.46.52a1.5,1.5,0,0,1-.22.55,2.7,2.7,0,0,1-1.2,1,2.27,2.27,0,0,1-.93.18,2.41,2.41,0,0,1-1.13-.26,1.88,1.88,0,0,1-.75-.67,1.81,1.81,0,0,1-.26-1,1.87,1.87,0,0,1,.2-.9,1.69,1.69,0,0,1,.57-.65,2.65,2.65,0,0,1,.9-.4,4.85,4.85,0,0,1,1.18-.13Zm6.6,2.61v-7.77h1.09v9h-1Zm-4.27-1.87v-.12a4.48,4.48,0,0,1,.18-1.32,3.2,3.2,0,0,1,.51-1,2.33,2.33,0,0,1,.79-.65,2.2,2.2,0,0,1,1-.24,2.38,2.38,0,0,1,1,.21,2,2,0,0,1,.77.61,2.94,2.94,0,0,1,.49,1,6.22,6.22,0,0,1,.26,1.26v.53a5.6,5.6,0,0,1-.26,1.26,2.94,2.94,0,0,1-.49,1,2.06,2.06,0,0,1-.77.6,2.46,2.46,0,0,1-1,.21,2.19,2.19,0,0,1-1-.24,2.43,2.43,0,0,1-.79-.68,3.25,3.25,0,0,1-.51-1A4.35,4.35,0,0,1,85.86,112.65Zm1.09-.12v.12a3.62,3.62,0,0,0,.1.89,2.29,2.29,0,0,0,.3.73,1.55,1.55,0,0,0,.52.5,1.53,1.53,0,0,0,.76.18,1.57,1.57,0,0,0,.88-.23,1.67,1.67,0,0,0,.57-.61,3.62,3.62,0,0,0,.33-.81v-1.41a3.23,3.23,0,0,0-.21-.62,1.84,1.84,0,0,0-.34-.54,1.48,1.48,0,0,0-.51-.38,1.52,1.52,0,0,0-2,.55,2.25,2.25,0,0,0-.3.74A3.57,3.57,0,0,0,87,112.53Zm8.59,3.34a3.09,3.09,0,0,1-1.2-.23,2.6,2.6,0,0,1-.92-.63,2.85,2.85,0,0,1-.59-1,3.45,3.45,0,0,1-.21-1.23v-.24a3.91,3.91,0,0,1,.23-1.38,3,3,0,0,1,.63-1,2.53,2.53,0,0,1,.89-.64,2.45,2.45,0,0,1,1-.22,2.66,2.66,0,0,1,1.17.24,2.07,2.07,0,0,1,.81.65,2.84,2.84,0,0,1,.47,1A4.71,4.71,0,0,1,98,112.4v.48H93.27V112h3.65v-.08a2.32,2.32,0,0,0-.18-.82,1.42,1.42,0,0,0-.46-.66,1.4,1.4,0,0,0-.88-.26,1.51,1.51,0,0,0-.68.16,1.48,1.48,0,0,0-.54.46,2.41,2.41,0,0,0-.34.74,3.91,3.91,0,0,0-.12,1v.24a2.91,2.91,0,0,0,.12.85,2.09,2.09,0,0,0,.37.69,1.68,1.68,0,0,0,.59.47,1.71,1.71,0,0,0,.8.17,2,2,0,0,0,1-.23,2.6,2.6,0,0,0,.7-.63l.65.52a2.59,2.59,0,0,1-.52.59,2.48,2.48,0,0,1-.78.46A2.91,2.91,0,0,1,95.54,115.87Zm7.42-1.8a1,1,0,0,0-.1-.44.91.91,0,0,0-.42-.36,3.14,3.14,0,0,0-.94-.3,6.81,6.81,0,0,1-1-.26,3,3,0,0,1-.72-.37,1.54,1.54,0,0,1-.45-.51,1.38,1.38,0,0,1-.16-.69,1.53,1.53,0,0,1,.16-.7,1.82,1.82,0,0,1,.48-.6,2.28,2.28,0,0,1,.74-.4,3,3,0,0,1,1-.15,2.87,2.87,0,0,1,1.3.27,2,2,0,0,1,.82.72,1.74,1.74,0,0,1,.29,1H102.9a1,1,0,0,0-.16-.51,1.2,1.2,0,0,0-.45-.41,1.47,1.47,0,0,0-.72-.17,1.74,1.74,0,0,0-.74.14,1,1,0,0,0-.4.35.88.88,0,0,0-.12.44.79.79,0,0,0,.06.32.63.63,0,0,0,.22.25,1.39,1.39,0,0,0,.44.21,5.44,5.44,0,0,0,.74.2,5.78,5.78,0,0,1,1.28.43,1.78,1.78,0,0,1,.75.6,1.53,1.53,0,0,1,.24.87,1.63,1.63,0,0,1-.17.76,1.68,1.68,0,0,1-.5.6,2.41,2.41,0,0,1-.77.38,3.45,3.45,0,0,1-1,.14,3.07,3.07,0,0,1-1.42-.3,2.17,2.17,0,0,1-.88-.78,1.83,1.83,0,0,1-.3-1h1.09a1.11,1.11,0,0,0,.26.71,1.28,1.28,0,0,0,.57.37,2.3,2.3,0,0,0,.68.11,2,2,0,0,0,.74-.12,1.08,1.08,0,0,0,.46-.32A.74.74,0,0,0,103,114.07Zm3.59-7.32v9h-1.08v-9Zm-.26,5.59-.45,0a3.87,3.87,0,0,1,.2-1.2,2.94,2.94,0,0,1,.53-1,2.33,2.33,0,0,1,.8-.63,2.45,2.45,0,0,1,1-.23,2.81,2.81,0,0,1,.85.13,1.58,1.58,0,0,1,.64.4,2,2,0,0,1,.41.71,3.65,3.65,0,0,1,.14,1.07v4.15h-1.09v-4.17a1.76,1.76,0,0,0-.15-.79.88.88,0,0,0-.43-.44,1.47,1.47,0,0,0-.69-.14,1.52,1.52,0,0,0-.74.17,1.71,1.71,0,0,0-.57.47,2.33,2.33,0,0,0-.37.68A2.64,2.64,0,0,0,106.29,112.34Zm11.42-2.93v.83h-3.43v-.83Zm-2.27-1.54h1.09v6.31a1.07,1.07,0,0,0,.09.49.52.52,0,0,0,.26.21,1,1,0,0,0,.34.06,1.33,1.33,0,0,0,.28,0l.23,0v.89l-.34.08a3.37,3.37,0,0,1-.5,0,1.77,1.77,0,0,1-.73-.16,1.18,1.18,0,0,1-.53-.53,2.18,2.18,0,0,1-.2-1Zm3.14,4.78v-.13a3.78,3.78,0,0,1,.2-1.28,3,3,0,0,1,.57-1,2.56,2.56,0,0,1,.91-.68,2.7,2.7,0,0,1,1.19-.25,2.79,2.79,0,0,1,1.21.25,2.65,2.65,0,0,1,.91.68,3,3,0,0,1,.58,1,4,4,0,0,1,.2,1.28v.13a4,4,0,0,1-.2,1.27,3.16,3.16,0,0,1-.58,1,2.69,2.69,0,0,1-.91.68,2.84,2.84,0,0,1-1.19.24,2.94,2.94,0,0,1-1.21-.24,2.79,2.79,0,0,1-.91-.68,3.14,3.14,0,0,1-.57-1A3.72,3.72,0,0,1,118.58,112.65Zm1.08-.13v.13a3.7,3.7,0,0,0,.11.9,2.45,2.45,0,0,0,.34.73,1.6,1.6,0,0,0,.56.51,1.58,1.58,0,0,0,.8.19,1.49,1.49,0,0,0,.77-.19,1.55,1.55,0,0,0,.57-.51,2.21,2.21,0,0,0,.33-.73,3.26,3.26,0,0,0,.12-.9v-.13a3.19,3.19,0,0,0-.12-.89,2.19,2.19,0,0,0-.34-.74,1.56,1.56,0,0,0-1.35-.71,1.67,1.67,0,0,0-.78.19,1.74,1.74,0,0,0-.56.52,2.4,2.4,0,0,0-.34.74A3.62,3.62,0,0,0,119.66,112.52Zm7.13-1.89v7.56H125.7v-8.78h1Zm4.27,1.9v.12a4.72,4.72,0,0,1-.16,1.28,3.21,3.21,0,0,1-.48,1,2.13,2.13,0,0,1-1.82.92,2.67,2.67,0,0,1-1.06-.2,2.28,2.28,0,0,1-.79-.58,3.15,3.15,0,0,1-.52-.92A5.08,5.08,0,0,1,126,113v-.65a5.1,5.1,0,0,1,.26-1.26,3.18,3.18,0,0,1,.51-1,2.18,2.18,0,0,1,.78-.61,2.49,2.49,0,0,1,1.05-.21,2.31,2.31,0,0,1,1.07.24,2.18,2.18,0,0,1,.77.65,3,3,0,0,1,.48,1A4.87,4.87,0,0,1,131.06,112.53Zm-1.09.12v-.12a3.57,3.57,0,0,0-.1-.89,2.07,2.07,0,0,0-.31-.74,1.49,1.49,0,0,0-.52-.51,1.57,1.57,0,0,0-.77-.18,1.62,1.62,0,0,0-.72.14,1.48,1.48,0,0,0-.51.38,1.84,1.84,0,0,0-.34.54,3.21,3.21,0,0,0-.2.62v1.52a3.51,3.51,0,0,0,.33.77,1.59,1.59,0,0,0,1.45.8,1.43,1.43,0,0,0,.76-.19,1.41,1.41,0,0,0,.52-.51,2.18,2.18,0,0,0,.31-.73A3.71,3.71,0,0,0,130,112.65Zm3.56-2v7.56h-1.09v-8.78h1Zm4.27,1.9v.12a4.72,4.72,0,0,1-.16,1.28,3.21,3.21,0,0,1-.48,1,2.13,2.13,0,0,1-1.82.92,2.76,2.76,0,0,1-1.07-.2,2.24,2.24,0,0,1-.78-.58,2.94,2.94,0,0,1-.52-.92,5.08,5.08,0,0,1-.25-1.2v-.65a5.1,5.1,0,0,1,.26-1.26,3.18,3.18,0,0,1,.51-1,2,2,0,0,1,.78-.61,2.46,2.46,0,0,1,1-.21,2.24,2.24,0,0,1,1.06.24,2.13,2.13,0,0,1,.78.65,3.16,3.16,0,0,1,.48,1A4.87,4.87,0,0,1,137.8,112.53Zm-1.09.12v-.12a3.57,3.57,0,0,0-.1-.89,2.26,2.26,0,0,0-.31-.74,1.44,1.44,0,0,0-1.29-.69,1.6,1.6,0,0,0-.72.14,1.48,1.48,0,0,0-.51.38,1.84,1.84,0,0,0-.34.54,3.21,3.21,0,0,0-.2.62v1.52a3.51,3.51,0,0,0,.33.77,1.56,1.56,0,0,0,1.45.8,1.39,1.39,0,0,0,.75-.19,1.44,1.44,0,0,0,.53-.51,2.4,2.4,0,0,0,.31-.73A3.71,3.71,0,0,0,136.71,112.65Zm5.11,3.22a3.11,3.11,0,0,1-1.21-.23,2.79,2.79,0,0,1-.92-.63,2.83,2.83,0,0,1-.58-1,3.45,3.45,0,0,1-.21-1.23v-.24a3.91,3.91,0,0,1,.23-1.38,3,3,0,0,1,.62-1,2.62,2.62,0,0,1,.89-.64,2.51,2.51,0,0,1,1-.22,2.67,2.67,0,0,1,1.18.24,2.07,2.07,0,0,1,.81.65,2.84,2.84,0,0,1,.47,1,4.71,4.71,0,0,1,.15,1.23v.48h-4.73V112h3.65v-.08a2.87,2.87,0,0,0-.18-.82,1.43,1.43,0,0,0-.47-.66,1.38,1.38,0,0,0-.88-.26,1.58,1.58,0,0,0-.68.16,1.53,1.53,0,0,0-.53.46,2.2,2.2,0,0,0-.34.74,3.51,3.51,0,0,0-.13,1v.24a2.61,2.61,0,0,0,.13.85,2.26,2.26,0,0,0,.36.69,1.82,1.82,0,0,0,.6.47,1.7,1.7,0,0,0,.79.17,2,2,0,0,0,1-.23,2.57,2.57,0,0,0,.69-.63l.66.52a2.86,2.86,0,0,1-.52.59,2.48,2.48,0,0,1-.78.46A3,3,0,0,1,141.82,115.87Zm7.72-1.35v-7.77h1.09v9h-1Zm-4.26-1.87v-.12a4.86,4.86,0,0,1,.17-1.32,3.42,3.42,0,0,1,.51-1,2.43,2.43,0,0,1,.79-.65,2.24,2.24,0,0,1,1-.24,2.44,2.44,0,0,1,1,.21,2,2,0,0,1,.76.61,3,3,0,0,1,.5,1,6.24,6.24,0,0,1,.25,1.26v.53a5.62,5.62,0,0,1-.25,1.26,3,3,0,0,1-.5,1,2.11,2.11,0,0,1-.76.6,2.47,2.47,0,0,1-1.06.21,2.19,2.19,0,0,1-1-.24A2.54,2.54,0,0,1,146,115a3.48,3.48,0,0,1-.51-1A4.72,4.72,0,0,1,145.28,112.65Zm1.09-.12v.12a4.19,4.19,0,0,0,.09.89,2.3,2.3,0,0,0,.31.73,1.46,1.46,0,0,0,.52.5,1.49,1.49,0,0,0,.75.18,1.61,1.61,0,0,0,.89-.23,1.73,1.73,0,0,0,.56-.61,3.62,3.62,0,0,0,.33-.81v-1.41a3.23,3.23,0,0,0-.21-.62,1.66,1.66,0,0,0-.34-.54,1.32,1.32,0,0,0-.51-.38,1.77,1.77,0,0,0-1.47,0,1.49,1.49,0,0,0-.52.51,2.26,2.26,0,0,0-.31.74A4.13,4.13,0,0,0,146.37,112.53Zm-115,10.88v.83H28v-.83Zm-2.27-1.54h1.09v6.31a.94.94,0,0,0,.1.49.45.45,0,0,0,.26.21.88.88,0,0,0,.33.06l.29,0,.22,0v.89l-.34.08a3.37,3.37,0,0,1-.5,0,1.77,1.77,0,0,1-.73-.16,1.18,1.18,0,0,1-.53-.53,2.18,2.18,0,0,1-.2-1Zm4.63-1.12v9H32.67v-9Zm-.26,5.59-.45,0a3.87,3.87,0,0,1,.19-1.2,3.13,3.13,0,0,1,.53-1,2.28,2.28,0,0,1,.81-.63,2.37,2.37,0,0,1,1-.23,2.76,2.76,0,0,1,.85.13,1.58,1.58,0,0,1,.64.4,1.82,1.82,0,0,1,.41.71,3.65,3.65,0,0,1,.14,1.07v4.15H36.57v-4.17a1.76,1.76,0,0,0-.15-.79.84.84,0,0,0-.43-.44,1.41,1.41,0,0,0-.69-.14,1.48,1.48,0,0,0-.73.17,1.71,1.71,0,0,0-.57.47,2.12,2.12,0,0,0-.37.68A2.37,2.37,0,0,0,33.5,126.34Zm8.41,3.53a3.09,3.09,0,0,1-1.2-.23,2.79,2.79,0,0,1-.92-.63,2.83,2.83,0,0,1-.58-1A3.45,3.45,0,0,1,39,126.8v-.24a3.91,3.91,0,0,1,.23-1.38,3,3,0,0,1,.62-1,2.62,2.62,0,0,1,.89-.64,2.48,2.48,0,0,1,1-.22,2.6,2.6,0,0,1,1.17.24,2,2,0,0,1,.82.65,3,3,0,0,1,.47,1,4.71,4.71,0,0,1,.15,1.23v.48H39.65V126h3.64v-.08a2.55,2.55,0,0,0-.17-.82,1.43,1.43,0,0,0-.47-.66,1.38,1.38,0,0,0-.88-.26,1.58,1.58,0,0,0-.68.16,1.53,1.53,0,0,0-.53.46,2.21,2.21,0,0,0-.35.74,3.91,3.91,0,0,0-.12,1v.24a2.91,2.91,0,0,0,.12.85,2.29,2.29,0,0,0,.37.69,1.78,1.78,0,0,0,.59.47,1.74,1.74,0,0,0,.8.17,1.93,1.93,0,0,0,1-.23,2.46,2.46,0,0,0,.7-.63l.66.52a2.86,2.86,0,0,1-.52.59,2.6,2.6,0,0,1-.78.46A3,3,0,0,1,41.91,129.87Zm9.34,0a3.09,3.09,0,0,1-1.2-.23,2.79,2.79,0,0,1-.92-.63,3,3,0,0,1-.59-1,3.69,3.69,0,0,1-.2-1.23v-.24a3.91,3.91,0,0,1,.23-1.38,3,3,0,0,1,.62-1,2.62,2.62,0,0,1,.89-.64,2.48,2.48,0,0,1,1-.22,2.6,2.6,0,0,1,1.17.24,2,2,0,0,1,.82.65,2.84,2.84,0,0,1,.47,1,4.71,4.71,0,0,1,.15,1.23v.48H49V126h3.66v-.08a2.87,2.87,0,0,0-.18-.82,1.43,1.43,0,0,0-.47-.66,1.38,1.38,0,0,0-.88-.26,1.58,1.58,0,0,0-.68.16,1.53,1.53,0,0,0-.53.46,2.42,2.42,0,0,0-.35.74,3.91,3.91,0,0,0-.12,1v.24a2.91,2.91,0,0,0,.12.85,2.29,2.29,0,0,0,.37.69,1.78,1.78,0,0,0,.59.47,1.74,1.74,0,0,0,.8.17,1.93,1.93,0,0,0,1-.23,2.46,2.46,0,0,0,.7-.63l.66.52a2.86,2.86,0,0,1-.52.59,2.48,2.48,0,0,1-.78.46A3,3,0,0,1,51.25,129.87Zm7.47-1.2V125.4a1.36,1.36,0,0,0-.15-.65.94.94,0,0,0-.45-.43,1.58,1.58,0,0,0-.73-.15,1.6,1.6,0,0,0-.72.14,1.07,1.07,0,0,0-.48.37.75.75,0,0,0-.17.49H54.93a1.44,1.44,0,0,1,.18-.68,2,2,0,0,1,.5-.6,2.45,2.45,0,0,1,.8-.43,3.11,3.11,0,0,1,1-.17,2.92,2.92,0,0,1,1.22.24,1.75,1.75,0,0,1,.83.71,2,2,0,0,1,.31,1.17v3a5.43,5.43,0,0,0,0,.67,3.07,3.07,0,0,0,.17.62v.09H58.9a1.8,1.8,0,0,1-.13-.5A4.13,4.13,0,0,1,58.72,128.67Zm.19-2.76v.76H57.83a4.15,4.15,0,0,0-.83.07,1.9,1.9,0,0,0-.61.22,1,1,0,0,0-.37.37.92.92,0,0,0-.13.51,1.08,1.08,0,0,0,.13.54,1,1,0,0,0,.41.4,1.48,1.48,0,0,0,.67.14,1.79,1.79,0,0,0,.88-.21,1.91,1.91,0,0,0,.6-.52,1.11,1.11,0,0,0,.25-.59l.46.52a1.7,1.7,0,0,1-.22.55,2.7,2.7,0,0,1-1.2,1,2.3,2.3,0,0,1-.93.18,2.41,2.41,0,0,1-1.13-.26,1.88,1.88,0,0,1-.75-.67,1.81,1.81,0,0,1-.26-1,1.87,1.87,0,0,1,.2-.9,1.69,1.69,0,0,1,.57-.65,2.65,2.65,0,0,1,.9-.4,4.85,4.85,0,0,1,1.18-.13Zm6.29,2.16a1,1,0,0,0-.1-.44.91.91,0,0,0-.42-.36,3,3,0,0,0-.94-.3,7.22,7.22,0,0,1-1-.26,3,3,0,0,1-.72-.37,1.54,1.54,0,0,1-.45-.51,1.38,1.38,0,0,1-.16-.69,1.53,1.53,0,0,1,.16-.7,2.12,2.12,0,0,1,.48-.6,2.28,2.28,0,0,1,.74-.4,3,3,0,0,1,1-.15,2.87,2.87,0,0,1,1.3.27,2.09,2.09,0,0,1,.83.72,1.81,1.81,0,0,1,.28,1H65.14a.93.93,0,0,0-.16-.51,1.2,1.2,0,0,0-.45-.41,1.47,1.47,0,0,0-.72-.17,1.66,1.66,0,0,0-.73.14,1,1,0,0,0-.41.35.88.88,0,0,0-.12.44.79.79,0,0,0,.06.32.72.72,0,0,0,.22.25,1.46,1.46,0,0,0,.45.21,4.89,4.89,0,0,0,.73.2,5.61,5.61,0,0,1,1.28.43,1.78,1.78,0,0,1,.75.6,1.46,1.46,0,0,1,.25.87,1.64,1.64,0,0,1-.18.76,1.68,1.68,0,0,1-.5.6,2.41,2.41,0,0,1-.77.38,3.45,3.45,0,0,1-1,.14,3.07,3.07,0,0,1-1.42-.3,2.17,2.17,0,0,1-.88-.78,1.83,1.83,0,0,1-.3-1h1.09a1.11,1.11,0,0,0,.26.71,1.34,1.34,0,0,0,.57.37,2.35,2.35,0,0,0,.68.11,2,2,0,0,0,.74-.12,1,1,0,0,0,.46-.32A.74.74,0,0,0,65.2,128.07Zm5.14,1.8a3.09,3.09,0,0,1-1.2-.23,2.79,2.79,0,0,1-.92-.63,2.83,2.83,0,0,1-.58-1,3.45,3.45,0,0,1-.21-1.23v-.24a3.91,3.91,0,0,1,.23-1.38,3,3,0,0,1,.62-1,2.62,2.62,0,0,1,.89-.64,2.48,2.48,0,0,1,1-.22,2.63,2.63,0,0,1,1.17.24,2,2,0,0,1,.82.65,3,3,0,0,1,.47,1,4.71,4.71,0,0,1,.15,1.23v.48H68.08V126h3.65v-.08a2.87,2.87,0,0,0-.18-.82,1.51,1.51,0,0,0-.47-.66,1.38,1.38,0,0,0-.88-.26,1.58,1.58,0,0,0-.68.16,1.53,1.53,0,0,0-.53.46,2.42,2.42,0,0,0-.35.74,3.91,3.91,0,0,0-.12,1v.24a2.91,2.91,0,0,0,.12.85,2.29,2.29,0,0,0,.37.69,1.78,1.78,0,0,0,.59.47,1.74,1.74,0,0,0,.8.17,1.93,1.93,0,0,0,1-.23,2.46,2.46,0,0,0,.7-.63l.66.52a2.86,2.86,0,0,1-.52.59,2.72,2.72,0,0,1-.78.46A3,3,0,0,1,70.34,129.87Zm6.42-3.22v-.13a4,4,0,0,1,.2-1.28,3.19,3.19,0,0,1,.58-1,2.56,2.56,0,0,1,.91-.68,3,3,0,0,1,2.39,0,2.6,2.6,0,0,1,.92.68,3.19,3.19,0,0,1,.58,1,4,4,0,0,1,.2,1.28v.13a4,4,0,0,1-.2,1.27,3.35,3.35,0,0,1-.58,1,2.79,2.79,0,0,1-.91.68,2.86,2.86,0,0,1-1.2.24,2.92,2.92,0,0,1-1.2-.24,2.79,2.79,0,0,1-.91-.68,3.35,3.35,0,0,1-.58-1A4,4,0,0,1,76.76,126.65Zm1.09-.13v.13a3.7,3.7,0,0,0,.11.9,2.43,2.43,0,0,0,.33.73,1.72,1.72,0,0,0,.57.51,1.57,1.57,0,0,0,.79.19,1.5,1.5,0,0,0,.78-.19,1.45,1.45,0,0,0,.56-.51,2.45,2.45,0,0,0,.34-.73,3.26,3.26,0,0,0,.12-.9v-.13a3.19,3.19,0,0,0-.12-.89,2.4,2.4,0,0,0-.34-.74,1.74,1.74,0,0,0-.56-.52,1.68,1.68,0,0,0-.79-.19,1.61,1.61,0,0,0-.78.19,1.77,1.77,0,0,0-.57.52,2.38,2.38,0,0,0-.33.74A3.62,3.62,0,0,0,77.85,126.52Zm7.66,3.23H84.43v-7a2.48,2.48,0,0,1,.24-1.15,1.64,1.64,0,0,1,.73-.72,2.39,2.39,0,0,1,1.11-.24,2.3,2.3,0,0,1,.37,0l.38.07-.06.88-.28,0h-.31a1.2,1.2,0,0,0-.59.14.92.92,0,0,0-.38.4,1.42,1.42,0,0,0-.13.65Zm1.35-6.34v.83H83.43v-.83Zm5.36-2.66v9H91.13v-9Zm2.92,2.66v6.34H94.05v-6.34ZM94,121.73a.68.68,0,0,1,.15-.45.64.64,0,0,1,.49-.18.61.61,0,0,1,.47.18.64.64,0,0,1,.17.45.6.6,0,0,1-.64.61.57.57,0,0,1-.64-.61Zm4.84,7,1.73-5.36h1.11l-2.28,6.34h-.73Zm-1.45-5.36,1.79,5.39.12.95h-.73l-2.29-6.34Zm6.51,0v6.34h-1.09v-6.34Zm-1.17-1.68a.64.64,0,0,1,.16-.45.72.72,0,0,1,1,0,.64.64,0,0,1,.17.45.6.6,0,0,1-.64.61.59.59,0,0,1-.64-.61Zm4,3v5h-1.08v-6.34h1Zm-.25,1.58-.46,0a3.87,3.87,0,0,1,.2-1.2,2.94,2.94,0,0,1,.53-1,2.33,2.33,0,0,1,.8-.63,2.45,2.45,0,0,1,1-.23,2.76,2.76,0,0,1,.85.13,1.48,1.48,0,0,1,.63.4,1.72,1.72,0,0,1,.42.71,3.65,3.65,0,0,1,.14,1.07v4.15h-1.09v-4.17a1.76,1.76,0,0,0-.15-.79.88.88,0,0,0-.43-.44,1.47,1.47,0,0,0-.69-.14,1.55,1.55,0,0,0-.74.17,1.71,1.71,0,0,0-.57.47,2.31,2.31,0,0,0-.36.68A2.37,2.37,0,0,0,106.44,126.34Zm9.91-2.93h1v6.2A2.78,2.78,0,0,1,117,131a2.12,2.12,0,0,1-.95.9,2.94,2.94,0,0,1-1.39.31,3.32,3.32,0,0,1-.77-.1,3.24,3.24,0,0,1-.87-.35,2.2,2.2,0,0,1-.71-.65l.57-.64a2.24,2.24,0,0,0,.83.66,2.1,2.1,0,0,0,.87.19,1.91,1.91,0,0,0,.89-.19,1.35,1.35,0,0,0,.58-.58,1.87,1.87,0,0,0,.21-.92V124.8ZM112,126.65v-.12a4.48,4.48,0,0,1,.18-1.32,3.17,3.17,0,0,1,.49-1,2.33,2.33,0,0,1,.79-.65,2.26,2.26,0,0,1,1-.24,2.41,2.41,0,0,1,1,.21,2,2,0,0,1,.76.61,3,3,0,0,1,.5,1,6.24,6.24,0,0,1,.25,1.26v.53a5.62,5.62,0,0,1-.25,1.26,3,3,0,0,1-.5.95,2.11,2.11,0,0,1-.76.6,2.46,2.46,0,0,1-1,.21,2.24,2.24,0,0,1-1-.24,2.4,2.4,0,0,1-.78-.68,3,3,0,0,1-.5-1A4.35,4.35,0,0,1,112,126.65Zm1.09-.12v.12a4.19,4.19,0,0,0,.09.89,2.54,2.54,0,0,0,.3.73,1.55,1.55,0,0,0,.52.5,1.53,1.53,0,0,0,.76.18,1.61,1.61,0,0,0,.89-.23,1.73,1.73,0,0,0,.56-.61,3.18,3.18,0,0,0,.32-.81v-1.41a2.62,2.62,0,0,0-.19-.62,1.84,1.84,0,0,0-.34-.54,1.48,1.48,0,0,0-.51-.38,1.65,1.65,0,0,0-.72-.14,1.57,1.57,0,0,0-.77.18,1.58,1.58,0,0,0-.52.51,2.49,2.49,0,0,0-.3.74A4.13,4.13,0,0,0,113.07,126.53Zm10.07-3.12v6.34H122v-6.34ZM122,121.73a.69.69,0,0,1,.16-.45.73.73,0,0,1,1,0,.64.64,0,0,1,.17.45.67.67,0,0,1-1.13.43A.65.65,0,0,1,122,121.73Zm4,3v5h-1.08v-6.34h1Zm-.26,1.58-.45,0a3.87,3.87,0,0,1,.19-1.2,3.13,3.13,0,0,1,.53-1,2.38,2.38,0,0,1,1.86-.86,2.74,2.74,0,0,1,.84.13,1.52,1.52,0,0,1,.64.4,1.71,1.71,0,0,1,.41.71,3.35,3.35,0,0,1,.14,1.07v4.15h-1.09v-4.17a1.76,1.76,0,0,0-.15-.79.82.82,0,0,0-.42-.44,1.47,1.47,0,0,0-.69-.14,1.52,1.52,0,0,0-.74.17,1.71,1.71,0,0,0-.57.47,2.12,2.12,0,0,0-.37.68A2.37,2.37,0,0,0,125.7,126.34Zm9.8,2.18v-7.77h1.09v9h-1Zm-4.26-1.87v-.12a4.86,4.86,0,0,1,.17-1.32,3.67,3.67,0,0,1,.51-1,2.37,2.37,0,0,1,.8-.65,2.17,2.17,0,0,1,1-.24,2.41,2.41,0,0,1,1,.21,2,2,0,0,1,.76.61,3,3,0,0,1,.5,1,6.24,6.24,0,0,1,.25,1.26v.53a5.62,5.62,0,0,1-.25,1.26,3,3,0,0,1-.5.95,2.11,2.11,0,0,1-.76.6,2.47,2.47,0,0,1-1.06.21,2.12,2.12,0,0,1-1-.24,2.46,2.46,0,0,1-.8-.68,3.75,3.75,0,0,1-.51-1A4.72,4.72,0,0,1,131.24,126.65Zm1.09-.12v.12a4.19,4.19,0,0,0,.09.89,2.3,2.3,0,0,0,.31.73,1.46,1.46,0,0,0,.52.5,1.49,1.49,0,0,0,.75.18,1.61,1.61,0,0,0,.89-.23,1.73,1.73,0,0,0,.56-.61,3.62,3.62,0,0,0,.33-.81v-1.41a4.08,4.08,0,0,0-.2-.62,1.68,1.68,0,0,0-.35-.54,1.36,1.36,0,0,0-.5-.38,1.58,1.58,0,0,0-.71-.14,1.54,1.54,0,0,0-.77.18,1.49,1.49,0,0,0-.52.51,2.26,2.26,0,0,0-.31.74A4.13,4.13,0,0,0,132.33,126.53Zm8.58,3.34a3.09,3.09,0,0,1-1.2-.23,2.79,2.79,0,0,1-.92-.63,2.83,2.83,0,0,1-.58-1,3.45,3.45,0,0,1-.21-1.23v-.24a3.91,3.91,0,0,1,.23-1.38,3,3,0,0,1,.62-1,2.62,2.62,0,0,1,.89-.64,2.48,2.48,0,0,1,1-.22,2.6,2.6,0,0,1,1.17.24,2,2,0,0,1,.82.65,3,3,0,0,1,.47,1,4.71,4.71,0,0,1,.15,1.23v.48h-4.73V126h3.64v-.08a2.55,2.55,0,0,0-.17-.82,1.43,1.43,0,0,0-.47-.66,1.38,1.38,0,0,0-.88-.26,1.58,1.58,0,0,0-.68.16,1.53,1.53,0,0,0-.53.46,2.21,2.21,0,0,0-.35.74,3.91,3.91,0,0,0-.12,1v.24a2.91,2.91,0,0,0,.12.85,2.29,2.29,0,0,0,.37.69,1.78,1.78,0,0,0,.59.47,1.74,1.74,0,0,0,.8.17,1.93,1.93,0,0,0,1-.23,2.46,2.46,0,0,0,.7-.63l.66.52a2.86,2.86,0,0,1-.52.59,2.6,2.6,0,0,1-.78.46A3,3,0,0,1,140.91,129.87Zm4.47-6.46,1.39,2.31,1.4-2.31h1.27l-2.07,3.13,2.14,3.21h-1.26l-1.46-2.38-1.46,2.38h-1.26l2.13-3.21-2.07-3.13Zm-98.22,15v5.34H46.08v-6.34h1.05Zm2-1v1l-.26,0h-.27a1.69,1.69,0,0,0-.66.11,1.41,1.41,0,0,0-.49.33,1.51,1.51,0,0,0-.31.5,2.22,2.22,0,0,0-.15.64l-.31.17A5.17,5.17,0,0,1,46.8,139a3,3,0,0,1,.36-.9,1.75,1.75,0,0,1,.61-.6,1.71,1.71,0,0,1,.89-.23l.27,0A1.07,1.07,0,0,1,49.14,137.37Zm4.51,5.3V139.4a1.36,1.36,0,0,0-.15-.65,1,1,0,0,0-.45-.43,1.62,1.62,0,0,0-.74-.15,1.65,1.65,0,0,0-.72.14,1.19,1.19,0,0,0-.48.37.81.81,0,0,0-.17.49H49.86a1.55,1.55,0,0,1,.17-.68,2,2,0,0,1,.51-.6,2.5,2.5,0,0,1,.79-.43,3.17,3.17,0,0,1,1.05-.17,3,3,0,0,1,1.22.24,1.8,1.8,0,0,1,.83.71,2.12,2.12,0,0,1,.3,1.17v3a4.06,4.06,0,0,0,.06.67,2.53,2.53,0,0,0,.17.62v.09H53.83a1.8,1.8,0,0,1-.13-.5A3,3,0,0,1,53.65,142.67Zm.19-2.76v.76h-1.1a4,4,0,0,0-.82.07,1.81,1.81,0,0,0-.61.22,1,1,0,0,0-.38.37,1,1,0,0,0-.13.51,1.09,1.09,0,0,0,.14.54,1,1,0,0,0,.4.4,1.55,1.55,0,0,0,.68.14,1.82,1.82,0,0,0,.88-.21,1.91,1.91,0,0,0,.6-.52,1.09,1.09,0,0,0,.24-.59l.47.52a1.54,1.54,0,0,1-.23.55,2.74,2.74,0,0,1-.48.57,2.59,2.59,0,0,1-.72.45,2.25,2.25,0,0,1-.92.18,2.39,2.39,0,0,1-1.13-.26,1.88,1.88,0,0,1-.75-.67,1.73,1.73,0,0,1-.27-.95,2,2,0,0,1,.2-.9,1.72,1.72,0,0,1,.58-.65,2.65,2.65,0,0,1,.9-.4,4.74,4.74,0,0,1,1.18-.13Zm3.68-1.15v5H56.44v-6.34h1Zm-.26,1.58-.45,0a3.87,3.87,0,0,1,.2-1.2,3.11,3.11,0,0,1,.52-1,2.38,2.38,0,0,1,1.86-.86,2.74,2.74,0,0,1,.84.13,1.52,1.52,0,0,1,.64.4,1.71,1.71,0,0,1,.41.71,3.35,3.35,0,0,1,.14,1.07v4.15H60.33v-4.17a1.78,1.78,0,0,0-.14-.79.88.88,0,0,0-.43-.44,1.47,1.47,0,0,0-.69-.14,1.52,1.52,0,0,0-.74.17,1.71,1.71,0,0,0-.57.47,2.33,2.33,0,0,0-.37.68A2.64,2.64,0,0,0,57.26,140.34Zm6.9-5.59v9H63.07v-9ZM68,137.41l-2.76,3L63.72,142l-.09-1.15,1.11-1.32,2-2.09Zm-1,6.34-2.26-3,.56-1,3,4Zm3.29-6.34v6.34H69.24v-6.34Zm-1.17-1.68a.64.64,0,0,1,.16-.45.62.62,0,0,1,.48-.18.61.61,0,0,1,.47.18.6.6,0,0,1,.17.45.57.57,0,0,1-.17.43.61.61,0,0,1-.47.18.62.62,0,0,1-.48-.18A.6.6,0,0,1,69.16,135.73Zm4,3v5H72.07v-6.34h1Zm-.26,1.58-.45,0a3.59,3.59,0,0,1,.19-1.2,2.94,2.94,0,0,1,.53-1,2.28,2.28,0,0,1,.81-.63,2.37,2.37,0,0,1,1-.23,2.76,2.76,0,0,1,.85.13,1.58,1.58,0,0,1,.64.4,1.82,1.82,0,0,1,.41.71,3.65,3.65,0,0,1,.14,1.07v4.15H76v-4.17a1.76,1.76,0,0,0-.15-.79.88.88,0,0,0-.43-.44,1.41,1.41,0,0,0-.69-.14,1.55,1.55,0,0,0-.74.17,1.59,1.59,0,0,0-.56.47,2.12,2.12,0,0,0-.37.68A2.37,2.37,0,0,0,72.9,140.34Zm9.91-2.93h1v6.2a2.88,2.88,0,0,1-.33,1.43,2.23,2.23,0,0,1-.95.9,3,3,0,0,1-1.4.31,3.39,3.39,0,0,1-1.64-.45,2.2,2.2,0,0,1-.71-.65l.57-.64a2.24,2.24,0,0,0,.83.66,2.14,2.14,0,0,0,.87.19,1.91,1.91,0,0,0,.89-.19,1.35,1.35,0,0,0,.58-.58,1.87,1.87,0,0,0,.21-.92V138.8Zm-4.36,3.24v-.12a4.49,4.49,0,0,1,.17-1.32,3.17,3.17,0,0,1,.49-1,2.28,2.28,0,0,1,.8-.65,2.19,2.19,0,0,1,1-.24,2.41,2.41,0,0,1,1,.21,2,2,0,0,1,.76.61,3,3,0,0,1,.5.95,5.62,5.62,0,0,1,.25,1.26v.53a5.11,5.11,0,0,1-.25,1.26,3,3,0,0,1-.5.95,2.11,2.11,0,0,1-.76.6,2.46,2.46,0,0,1-1,.21,2.17,2.17,0,0,1-1-.24,2.33,2.33,0,0,1-.79-.68,3,3,0,0,1-.5-1A4.36,4.36,0,0,1,78.45,140.65Zm1.08-.12v.12a4.19,4.19,0,0,0,.09.89,2.54,2.54,0,0,0,.3.73,1.43,1.43,0,0,0,1.28.68,1.61,1.61,0,0,0,.89-.23,1.64,1.64,0,0,0,.56-.61,3.62,3.62,0,0,0,.33-.81v-1.41a3.21,3.21,0,0,0-.2-.62,1.84,1.84,0,0,0-.34-.54,1.48,1.48,0,0,0-.51-.38,1.65,1.65,0,0,0-.72-.14,1.57,1.57,0,0,0-.77.18,1.58,1.58,0,0,0-.52.51,2.49,2.49,0,0,0-.3.74A4.13,4.13,0,0,0,79.53,140.53Zm9.6,1.54a1,1,0,0,0-.1-.44.91.91,0,0,0-.42-.36,3,3,0,0,0-.94-.3,6.81,6.81,0,0,1-1-.26,3,3,0,0,1-.72-.37,1.54,1.54,0,0,1-.45-.51,1.38,1.38,0,0,1-.16-.69,1.53,1.53,0,0,1,.16-.7,2.12,2.12,0,0,1,.48-.6,2.28,2.28,0,0,1,.74-.4,3,3,0,0,1,1-.15,2.87,2.87,0,0,1,1.3.27,2.09,2.09,0,0,1,.83.72,1.81,1.81,0,0,1,.28,1H89.07a.93.93,0,0,0-.16-.51,1.2,1.2,0,0,0-.45-.41,1.47,1.47,0,0,0-.72-.17,1.66,1.66,0,0,0-.73.14,1,1,0,0,0-.41.35.88.88,0,0,0-.12.44.79.79,0,0,0,.06.32.72.72,0,0,0,.22.25,1.46,1.46,0,0,0,.45.21,4.89,4.89,0,0,0,.73.2,5.61,5.61,0,0,1,1.28.43,1.78,1.78,0,0,1,.75.6,1.46,1.46,0,0,1,.25.87,1.64,1.64,0,0,1-.18.76,1.68,1.68,0,0,1-.5.6,2.41,2.41,0,0,1-.77.38,3.45,3.45,0,0,1-1,.14,3.07,3.07,0,0,1-1.42-.3,2.17,2.17,0,0,1-.88-.78,1.83,1.83,0,0,1-.3-1h1.09a1.11,1.11,0,0,0,.26.71,1.34,1.34,0,0,0,.57.37,2.3,2.3,0,0,0,.68.11,2,2,0,0,0,.74-.12,1.12,1.12,0,0,0,.47-.32A.8.8,0,0,0,89.13,142.07Zm6.66-4.66v6.34H94.71v-6.34Zm-1.17-1.68a.69.69,0,0,1,.16-.45.73.73,0,0,1,1,0,.64.64,0,0,1,.17.45.67.67,0,0,1-1.13.43A.65.65,0,0,1,94.62,135.73Zm4,3v5H97.54v-6.34h1Zm-.26,1.58-.45,0a3.87,3.87,0,0,1,.19-1.2,3.36,3.36,0,0,1,.53-1,2.38,2.38,0,0,1,1.86-.86,2.74,2.74,0,0,1,.84.13,1.58,1.58,0,0,1,.64.4,1.71,1.71,0,0,1,.41.71,3.35,3.35,0,0,1,.14,1.07v4.15h-1.09v-4.17a1.93,1.93,0,0,0-.14-.79.92.92,0,0,0-.43-.44,1.47,1.47,0,0,0-.69-.14,1.52,1.52,0,0,0-.74.17,1.71,1.71,0,0,0-.57.47,2.12,2.12,0,0,0-.37.68A2.64,2.64,0,0,0,98.36,140.34Zm10.16-5.12v8.53h-1.13v-8.53Zm3,3.54v5h-1.09v-6.34h1Zm-.26,1.58-.45,0a3.87,3.87,0,0,1,.19-1.2,3.13,3.13,0,0,1,.53-1,2.47,2.47,0,0,1,.81-.63,2.41,2.41,0,0,1,1.05-.23,2.74,2.74,0,0,1,.84.13,1.58,1.58,0,0,1,.64.4,1.71,1.71,0,0,1,.41.71,3.65,3.65,0,0,1,.14,1.07v4.15h-1.09v-4.17a1.76,1.76,0,0,0-.15-.79.86.86,0,0,0-.42-.44,1.48,1.48,0,0,0-.7-.14,1.51,1.51,0,0,0-.73.17,1.71,1.71,0,0,0-.57.47,2.12,2.12,0,0,0-.37.68A2.37,2.37,0,0,0,111.24,140.34Zm9.8,2.18v-7.77h1.09v9h-1Zm-4.26-1.87v-.12a4.86,4.86,0,0,1,.17-1.32,3.42,3.42,0,0,1,.51-1,2.43,2.43,0,0,1,.79-.65,2.24,2.24,0,0,1,1-.24,2.44,2.44,0,0,1,1,.21,2,2,0,0,1,.76.61,3,3,0,0,1,.5.95,6.24,6.24,0,0,1,.25,1.26v.53a5.62,5.62,0,0,1-.25,1.26,3,3,0,0,1-.5.95,2.11,2.11,0,0,1-.76.6,2.47,2.47,0,0,1-1.06.21,2.19,2.19,0,0,1-1-.24,2.54,2.54,0,0,1-.79-.68,3.48,3.48,0,0,1-.51-1A4.72,4.72,0,0,1,116.78,140.65Zm1.09-.12v.12a4.19,4.19,0,0,0,.09.89,2.3,2.3,0,0,0,.31.73,1.46,1.46,0,0,0,.52.5,1.49,1.49,0,0,0,.75.18,1.61,1.61,0,0,0,.89-.23,1.73,1.73,0,0,0,.56-.61,3.62,3.62,0,0,0,.33-.81v-1.41a3.23,3.23,0,0,0-.21-.62,1.66,1.66,0,0,0-.34-.54,1.32,1.32,0,0,0-.51-.38,1.77,1.77,0,0,0-1.47,0,1.49,1.49,0,0,0-.52.51,2.26,2.26,0,0,0-.31.74A4.13,4.13,0,0,0,117.87,140.53Zm7.13-3.12v6.34h-1.09v-6.34Zm-1.17-1.68a.68.68,0,0,1,.15-.45.63.63,0,0,1,.49-.18.61.61,0,0,1,.47.18.64.64,0,0,1,.17.45.6.6,0,0,1-.64.61.63.63,0,0,1-.49-.18A.64.64,0,0,1,123.83,135.73Zm6.65,6.94V139.4a1.36,1.36,0,0,0-.15-.65,1,1,0,0,0-.45-.43,1.91,1.91,0,0,0-1.46,0,1.19,1.19,0,0,0-.48.37.81.81,0,0,0-.17.49h-1.08a1.43,1.43,0,0,1,.17-.68,2,2,0,0,1,.51-.6,2.4,2.4,0,0,1,.79-.43,3.17,3.17,0,0,1,1.05-.17,2.87,2.87,0,0,1,1.21.24,1.77,1.77,0,0,1,.84.71,2.12,2.12,0,0,1,.3,1.17v3a5.43,5.43,0,0,0,.05.67,3.07,3.07,0,0,0,.17.62v.09h-1.13a2.24,2.24,0,0,1-.13-.5A4,4,0,0,1,130.48,142.67Zm.18-2.76,0,.76h-1.1a4.21,4.21,0,0,0-.83.07,1.83,1.83,0,0,0-.6.22,1,1,0,0,0-.38.37.92.92,0,0,0-.13.51,1.09,1.09,0,0,0,.14.54,1,1,0,0,0,.4.4,1.51,1.51,0,0,0,.67.14,1.76,1.76,0,0,0,.88-.21,1.85,1.85,0,0,0,.61-.52,1.09,1.09,0,0,0,.24-.59l.46.52a1.5,1.5,0,0,1-.22.55,2.74,2.74,0,0,1-.48.57,2.59,2.59,0,0,1-.72.45,2.25,2.25,0,0,1-.92.18,2.39,2.39,0,0,1-1.13-.26,1.75,1.75,0,0,1-.75-.67,1.73,1.73,0,0,1-.27-.95,2,2,0,0,1,.2-.9,1.72,1.72,0,0,1,.58-.65,2.65,2.65,0,0,1,.9-.4,4.74,4.74,0,0,1,1.18-.13Z"></path><path class="cls-2" d="M81.9,94.5v1.25h-5V94.67l2.32-3a6.92,6.92,0,0,0,.55-.84,2.65,2.65,0,0,0,.28-.65,1.92,1.92,0,0,0,.09-.56,2.2,2.2,0,0,0-.1-.67.94.94,0,0,0-.3-.45.67.67,0,0,0-.46-.17.84.84,0,0,0-.57.2,1.1,1.1,0,0,0-.33.53,2.65,2.65,0,0,0-.11.77H76.8a3.17,3.17,0,0,1,.3-1.38,2.36,2.36,0,0,1,2.23-1.38,2.53,2.53,0,0,1,1.28.3,1.84,1.84,0,0,1,.79.82,2.69,2.69,0,0,1,.28,1.28,3.09,3.09,0,0,1-.11.8,4.79,4.79,0,0,1-.31.79,6.89,6.89,0,0,1-.49.8c-.19.27-.4.54-.64.82l-1.29,1.8Zm5.93-3.75v1.44a6.86,6.86,0,0,1-.18,1.68,3.33,3.33,0,0,1-.5,1.14,2,2,0,0,1-.76.65,2.3,2.3,0,0,1-1,.21,2.64,2.64,0,0,1-.81-.13,2.06,2.06,0,0,1-.68-.41,2.45,2.45,0,0,1-.51-.72,4.3,4.3,0,0,1-.33-1A7.19,7.19,0,0,1,83,92.19V90.75a7.22,7.22,0,0,1,.17-1.67,3.25,3.25,0,0,1,.51-1.14,1.9,1.9,0,0,1,.76-.63,2.31,2.31,0,0,1,1-.21,2.36,2.36,0,0,1,.8.13,2,2,0,0,1,.67.4,2.46,2.46,0,0,1,.52.71,3.79,3.79,0,0,1,.32,1A7.09,7.09,0,0,1,87.83,90.75Zm-1.5,1.65V90.52a6.78,6.78,0,0,0,0-.84,2.91,2.91,0,0,0-.11-.61,1.2,1.2,0,0,0-.19-.41.78.78,0,0,0-.26-.23.72.72,0,0,0-.32-.08.65.65,0,0,0-.39.12.94.94,0,0,0-.29.37,2.73,2.73,0,0,0-.19.67,7.21,7.21,0,0,0-.06,1V92.4a7.31,7.31,0,0,0,0,.86,4,4,0,0,0,.12.62,1.64,1.64,0,0,0,.2.42.64.64,0,0,0,.25.24.72.72,0,0,0,.33.07.7.7,0,0,0,.38-.11.85.85,0,0,0,.29-.39,2.36,2.36,0,0,0,.18-.68A7.24,7.24,0,0,0,86.33,92.4Zm6.19-5.21v8.56H91V89.06l-1.66.66V88.44l3-1.25Zm7.36,6.23a2.63,2.63,0,0,1-.32,1.34,2.06,2.06,0,0,1-.85.83,2.72,2.72,0,0,1-1.23.28,2.8,2.8,0,0,1-1.25-.28,2.08,2.08,0,0,1-.86-.83,2.63,2.63,0,0,1-.32-1.34,2.55,2.55,0,0,1,.18-1,2.22,2.22,0,0,1,1.27-1.23,2.73,2.73,0,0,1,1-.17,2.57,2.57,0,0,1,1.25.3,2.19,2.19,0,0,1,.85.83A2.39,2.39,0,0,1,99.88,93.42Zm-1.51-.1a2.1,2.1,0,0,0-.11-.7,1,1,0,0,0-.32-.46.71.71,0,0,0-.48-.16.73.73,0,0,0-.48.16,1,1,0,0,0-.31.46,2.1,2.1,0,0,0-.11.7,2,2,0,0,0,.11.69,1,1,0,0,0,.31.44.77.77,0,0,0,.5.16.71.71,0,0,0,.48-.16,1,1,0,0,0,.31-.44A2,2,0,0,0,98.37,93.32Zm1.36-3.85a2.26,2.26,0,0,1-.29,1.15,2.07,2.07,0,0,1-.8.78,2.32,2.32,0,0,1-1.16.28,2.37,2.37,0,0,1-1.18-.28,2,2,0,0,1-.81-.78,2.28,2.28,0,0,1-.29-1.15,2.67,2.67,0,0,1,.29-1.29,2,2,0,0,1,.81-.81,2.47,2.47,0,0,1,1.17-.28,2.51,2.51,0,0,1,1.18.28,1.87,1.87,0,0,1,.79.81A2.56,2.56,0,0,1,99.73,89.47Zm-1.5.07a2,2,0,0,0-.09-.62,1,1,0,0,0-.25-.41.61.61,0,0,0-.42-.16.59.59,0,0,0-.41.15,1,1,0,0,0-.27.41,2.52,2.52,0,0,0,0,1.26,1,1,0,0,0,.26.42.65.65,0,0,0,.43.16.6.6,0,0,0,.41-.16,1,1,0,0,0,.25-.42A2,2,0,0,0,98.23,89.54Z"></path></svg>