<svg xmlns="http://www.w3.org/2000/svg" id="Layer_1" data-name="Layer 1" viewBox="0 0 177 166"><defs><style>.cls-1{fill:#61686d;}.cls-2{fill:#fff;}</style></defs><path class="cls-1" d="M138.07,70.73c-2.58,1.81-3,3.77-3.07,4.32l-1.14.64c.55-.91,1.07-1.84,1.55-2.79a41.52,41.52,0,0,0,2.05-5c.07-.19.13-.38.19-.56a13.62,13.62,0,0,1,2-3.92l.17-.24c7.24-4,3.92-12,3.92-12,.11,1.79-1.61,3.15-3.38,6.4-1.51,2.78-1,4.71-.82,5.23-.37.57-.72,1.07-1,1.49q.18-.78.33-1.56a37,37,0,0,0,.62-5.34l0-.68c0-.22,0-.44,0-.67V54.67c0-.45,0-.9,0-1.34,0-.23,0-.45,0-.67l-.06-.67a5,5,0,0,1,.07-1.33l.52-2.55c5.28-6.35-.78-12.65-.78-12.65.76,1.62-.34,3.52-.79,7.2-.39,3.13.79,4.75,1.16,5.16-.16.75-.31,1.39-.44,1.92l-.06-.42c0-.44-.15-.88-.23-1.32l-.13-.66c0-.22-.08-.43-.14-.65-.21-.87-.41-1.74-.69-2.58l-.19-.64-.1-.32-.11-.32L137,41.58c-.29-.73-.58-1.46-.9-2.18a11.66,11.66,0,0,1-1-4.07c0-.33,0-.65-.08-1,2.84-7.75-5-11.65-5-11.65,1.26,1.27.86,3.43,1.67,7,.69,3.08,2.35,4.21,2.83,4.48.15,1,.23,1.93.27,2.55l0-.07-.32-.59c-.1-.2-.23-.38-.34-.58l-.69-1.14-.74-1.1-.38-.55-.39-.54c-.41-.57-.84-1.11-1.3-1.66-.62-.79-1.48-1.94-2.22-2.76a5.45,5.45,0,0,1-.88-1.29c-3.25-6.86-11.2-4.93-11.2-4.93,1.78.11,2.92,2,5.93,4.15a6.65,6.65,0,0,0,5,1.49l.26.08.91,1a36.48,36.48,0,0,1,3.32,4.12l.39.54.35.55.71,1.12.3.53A21.38,21.38,0,0,0,131,33.36C126.74,26.3,118.81,30,118.81,30c1.78-.19,3.21,1.47,6.54,3.09,2.84,1.38,4.75.79,5.26.59,1.13.66,2.08,1.31,2.63,1.7a2.71,2.71,0,0,1,.83,1h0l.29.59a36.93,36.93,0,0,1,2.08,4.84l.41,1.25.11.31.09.32.17.64c.25.84.42,1.7.61,2.55,0,.22.09.43.13.65h0a24.34,24.34,0,0,0-1.67-2.25c-2-8-10.69-6.8-10.69-6.8,1.75.34,2.64,2.35,5.35,4.87,2.31,2.15,4.32,2.15,4.86,2.1.62.67,1.13,1.28,1.51,1.75a4.09,4.09,0,0,1,.93,2.26h0l.16,1.31,0,.32,0,.33,0,.65,0,.66c0,.21,0,.43,0,.65,0,.44,0,.87,0,1.31l0,1.32c0,.21,0,.43,0,.65l-.05.65c-.07.95-.17,1.89-.31,2.82a20.08,20.08,0,0,0-.65-2.23c1-8.2-7.56-10.18-7.56-10.18,1.52,1,1.63,3.14,3.27,6.47,1.39,2.83,3.26,3.54,3.79,3.69.2.52.38,1,.52,1.4a5.78,5.78,0,0,1,.2,3.19v0a39.44,39.44,0,0,1-1.44,5,44.19,44.19,0,0,1-2.11,4.78q-.36.66-.75,1.32a23.23,23.23,0,0,0,.27-2.67c3.89-7.28-3.31-12.22-3.31-12.22,1.07,1.43.37,3.51.67,7.21.25,3.14,1.73,4.49,2.17,4.82v.35a9.72,9.72,0,0,1-1.78,5.59s0,0,0,0a37.38,37.38,0,0,1-3.32,4c-.3.3-.59.63-.91.93l-.93.89s0,0,0,0c.28-.5.54-1,.78-1.5,6.41-5.21,1.69-12.56,1.69-12.56.43,1.74-1,3.38-2.19,6.91-1,3-.14,4.81.14,5.28-.19.46-.38.87-.55,1.24a6.16,6.16,0,0,1-1.81,2.33,0,0,0,0,0,0,0,38.06,38.06,0,0,1-4.26,3c-.86.51-1.75,1-2.65,1.43.38-.39.72-.77,1-1.16,6.14-2.84,3.89-9.63,3.89-9.63,0,1.46-1.5,2.48-3.13,5a5.38,5.38,0,0,0-1,4.23c-.2.26-.39.51-.57.73a5.65,5.65,0,0,1-2.21,1.69,0,0,0,0,1,0,0,42,42,0,0,1-4.88,1.69h0a1.09,1.09,0,1,0,.61,2.09,40.22,40.22,0,0,0,5.11-1.91,41.82,41.82,0,0,0,4.79-2.6c.92-.57,1.82-1.2,2.69-1.86a7.81,7.81,0,0,1,4.06-1.55c7.71,3,11.72-4.8,11.72-4.8-1.29,1.23-3.44.8-7.07,1.55-3.09.64-4.24,2.29-4.52,2.76-.74.1-1.39.16-1.94.19.5-.43,1-.88,1.45-1.32l.95-1c.32-.32.61-.67.93-1a40.4,40.4,0,0,0,3.34-4.26l.06-.09a5.15,5.15,0,0,1,1.95-1.73l.38-.2c8.25-.31,8.9-9,8.9-9C143.26,68.17,141.11,68.61,138.07,70.73Z"></path><path class="cls-1" d="M35.1,70.73c2.58,1.81,3,3.77,3.07,4.32l1.14.64c-.55-.91-1.07-1.84-1.55-2.79a41.52,41.52,0,0,1-2-5c-.06-.19-.13-.38-.19-.56a13.62,13.62,0,0,0-2-3.92l-.17-.24c-7.24-4-3.92-12-3.92-12-.11,1.79,1.61,3.15,3.39,6.4,1.5,2.78,1,4.71.82,5.23.36.57.71,1.07,1,1.49q-.18-.78-.33-1.56a38.48,38.48,0,0,1-.62-5.34l0-.68c0-.22,0-.44,0-.67V54.67c0-.45,0-.9.05-1.34,0-.23,0-.45,0-.67l.06-.67a5,5,0,0,0-.07-1.33l-.52-2.55C28,41.76,34,35.46,34,35.46c-.76,1.62.34,3.52.8,7.2.38,3.13-.8,4.75-1.16,5.16.15.75.3,1.39.43,1.92l.06-.42c.05-.44.15-.88.23-1.32l.13-.66c0-.22.08-.43.14-.65.21-.87.41-1.74.69-2.58l.19-.64.1-.32.11-.32.45-1.25c.29-.73.59-1.46.9-2.18a11.66,11.66,0,0,0,1-4.07c0-.33,0-.65.08-1-2.84-7.75,5-11.65,5-11.65-1.26,1.27-.85,3.43-1.67,7-.69,3.08-2.35,4.21-2.83,4.48-.15,1-.23,1.93-.27,2.55l0-.07.32-.59c.11-.2.23-.38.34-.58l.69-1.14.74-1.1.38-.55.39-.54c.41-.57.85-1.11,1.3-1.66.62-.79,1.48-1.94,2.22-2.76a5.45,5.45,0,0,0,.88-1.29c3.25-6.86,11.2-4.93,11.2-4.93-1.78.11-2.92,2-5.93,4.15a6.65,6.65,0,0,1-5,1.49l-.26.08-.91,1a36.48,36.48,0,0,0-3.32,4.12l-.39.54c-.12.18-.23.37-.36.55l-.71,1.12-.29.53a21.3,21.3,0,0,1,2.37-1.76C46.43,26.3,54.36,30,54.36,30c-1.78-.19-3.22,1.47-6.55,3.09-2.83,1.38-4.75.79-5.26.59-1.13.66-2.08,1.31-2.62,1.7a2.61,2.61,0,0,0-.83,1h0l-.3.59a36.93,36.93,0,0,0-2.08,4.84L36.31,43l-.1.31-.09.32-.18.64c-.25.84-.42,1.7-.61,2.55,0,.22-.09.43-.12.65h0a22.66,22.66,0,0,1,1.67-2.25c2-8,10.69-6.8,10.69-6.8-1.76.34-2.65,2.35-5.36,4.87-2.31,2.15-4.31,2.15-4.86,2.1-.61.67-1.13,1.28-1.5,1.75a4.18,4.18,0,0,0-.94,2.26h0l-.15,1.31,0,.32,0,.33,0,.65,0,.66c0,.21,0,.43,0,.65,0,.44,0,.87,0,1.31l0,1.32a4.82,4.82,0,0,0,0,.65l0,.65c.07.95.18,1.89.31,2.82a22.49,22.49,0,0,1,.65-2.23c-1-8.2,7.56-10.18,7.56-10.18-1.52,1-1.63,3.14-3.26,6.47-1.39,2.83-3.27,3.54-3.8,3.69-.2.52-.37,1-.52,1.4a5.78,5.78,0,0,0-.2,3.19s0,0,0,0a36.41,36.41,0,0,0,1.44,5A40.59,40.59,0,0,0,39,72.25c.23.44.48.88.74,1.32a23.15,23.15,0,0,1-.26-2.67c-3.9-7.28,3.3-12.22,3.3-12.22-1.07,1.43-.36,3.51-.66,7.21-.25,3.14-1.74,4.49-2.18,4.82v.35a9.87,9.87,0,0,0,1.78,5.59s0,0,0,0a37.38,37.38,0,0,0,3.32,4c.3.3.59.63.91.93l.93.89,0,0c-.28-.5-.54-1-.78-1.5-6.41-5.21-1.68-12.56-1.68-12.56-.44,1.74,1,3.38,2.18,6.91,1,3,.14,4.81-.13,5.28.18.46.37.87.54,1.24a6.26,6.26,0,0,0,1.81,2.33,0,0,0,0,1,0,0,38.06,38.06,0,0,0,4.26,3c.87.51,1.75,1,2.65,1.43-.37-.39-.72-.77-1-1.16-6.14-2.84-3.89-9.63-3.89-9.63,0,1.46,1.5,2.48,3.13,5a5.34,5.34,0,0,1,1,4.23c.2.26.39.51.57.73a5.65,5.65,0,0,0,2.21,1.69,0,0,0,0,0,0,0,42,42,0,0,0,4.88,1.69h0A1.09,1.09,0,1,1,62,93.28a40.22,40.22,0,0,1-5.11-1.91,41.82,41.82,0,0,1-4.79-2.6c-.92-.57-1.82-1.2-2.69-1.86a7.81,7.81,0,0,0-4.06-1.55c-7.71,3-11.72-4.8-11.72-4.8,1.29,1.23,3.44.8,7.07,1.55,3.09.64,4.24,2.29,4.52,2.76.74.1,1.39.16,1.94.19-.5-.43-1-.88-1.45-1.32l-1-1c-.33-.32-.61-.67-.92-1a39.22,39.22,0,0,1-3.35-4.26l-.06-.09a5.15,5.15,0,0,0-2-1.73l-.38-.2c-8.25-.31-8.9-9-8.9-9C29.91,68.17,32.06,68.61,35.1,70.73Z"></path><path class="cls-2" d="M87.32,48.77h1.41a3.75,3.75,0,0,1-.37,1.58,2.33,2.33,0,0,1-1,1,3.1,3.1,0,0,1-1.52.34,2.83,2.83,0,0,1-1.22-.25,2.5,2.5,0,0,1-.91-.71,3.21,3.21,0,0,1-.57-1.14A5.52,5.52,0,0,1,83,48V46.53a5.16,5.16,0,0,1,.2-1.53,3.23,3.23,0,0,1,.58-1.14,2.49,2.49,0,0,1,.93-.71,3.32,3.32,0,0,1,2.73.09,2.31,2.31,0,0,1,.93,1,4,4,0,0,1,.38,1.6H87.32a3.58,3.58,0,0,0-.17-1,1.05,1.05,0,0,0-.44-.56,1.54,1.54,0,0,0-.77-.17,1.42,1.42,0,0,0-.7.16,1.19,1.19,0,0,0-.47.45,2.32,2.32,0,0,0-.28.76,5.44,5.44,0,0,0-.09,1.06V48a6.38,6.38,0,0,0,.08,1,2.32,2.32,0,0,0,.25.77,1.2,1.2,0,0,0,.45.47,1.37,1.37,0,0,0,.7.16,1.65,1.65,0,0,0,.8-.16.89.89,0,0,0,.45-.53A3.5,3.5,0,0,0,87.32,48.77ZM91.47,43v8.53H90.05V43Zm3.13,0v8.53H93.18V43ZM74.15,59.77h1.42a3.75,3.75,0,0,1-.38,1.58,2.33,2.33,0,0,1-1,1,3.06,3.06,0,0,1-1.51.34,2.8,2.8,0,0,1-1.22-.25,2.42,2.42,0,0,1-.91-.71A3.4,3.4,0,0,1,70,60.57,5.52,5.52,0,0,1,69.82,59V57.53A5.51,5.51,0,0,1,70,56a3.24,3.24,0,0,1,.59-1.14,2.46,2.46,0,0,1,.92-.71,3.32,3.32,0,0,1,2.73.09,2.31,2.31,0,0,1,.93,1,4,4,0,0,1,.38,1.6H74.16a3.22,3.22,0,0,0-.18-1,1,1,0,0,0-.43-.56,1.56,1.56,0,0,0-.78-.17,1.35,1.35,0,0,0-.69.16,1.22,1.22,0,0,0-.48.45,2.33,2.33,0,0,0-.27.76,5.44,5.44,0,0,0-.09,1.06V59a6.46,6.46,0,0,0,.07,1,2.9,2.9,0,0,0,.25.77,1.2,1.2,0,0,0,.45.47,1.38,1.38,0,0,0,.71.16,1.67,1.67,0,0,0,.8-.16,1,1,0,0,0,.45-.53A3.22,3.22,0,0,0,74.15,59.77Zm2.36-.13v-.51a4.37,4.37,0,0,1,.18-1.31,2.71,2.71,0,0,1,.52-1,2.29,2.29,0,0,1,.8-.58,2.51,2.51,0,0,1,1-.19,2.54,2.54,0,0,1,1,.19,2.2,2.2,0,0,1,.8.58,2.56,2.56,0,0,1,.52,1,4.37,4.37,0,0,1,.18,1.31v.51A4.37,4.37,0,0,1,81.35,61a2.56,2.56,0,0,1-.52.95,2.13,2.13,0,0,1-.79.58,2.75,2.75,0,0,1-1,.19,2.8,2.8,0,0,1-1-.19,2.13,2.13,0,0,1-.79-.58,2.58,2.58,0,0,1-.53-.95A4.37,4.37,0,0,1,76.51,59.64Zm1.37-.51v.51a3.44,3.44,0,0,0,.08.83,1.77,1.77,0,0,0,.23.59,1.22,1.22,0,0,0,.37.35.91.91,0,0,0,.47.12,1,1,0,0,0,.49-.12.93.93,0,0,0,.36-.35,1.77,1.77,0,0,0,.22-.59,5,5,0,0,0,.07-.83v-.51a3.93,3.93,0,0,0-.08-.82,1.91,1.91,0,0,0-.24-.59,1,1,0,0,0-.37-.36.91.91,0,0,0-.47-.12.93.93,0,0,0-.46.12,1.12,1.12,0,0,0-.36.36,1.69,1.69,0,0,0-.23.59A3.35,3.35,0,0,0,77.88,59.13Zm6.18-1.56v5H82.69V56.21H84Zm-.25,1.58h-.43a4.39,4.39,0,0,1,.15-1.24,3,3,0,0,1,.43-1,2,2,0,0,1,.68-.62,1.74,1.74,0,0,1,.88-.22,1.92,1.92,0,0,1,.69.12,1.34,1.34,0,0,1,.54.41,2,2,0,0,1,.34.73,4.35,4.35,0,0,1,.12,1.1v4.09H85.85v-4.1a2.12,2.12,0,0,0-.1-.7.76.76,0,0,0-.28-.38.9.9,0,0,0-.48-.11.86.86,0,0,0-.49.15,1.23,1.23,0,0,0-.37.41,2.35,2.35,0,0,0-.24.6A3.4,3.4,0,0,0,83.81,59.15Zm6.12-1.58v5H88.56V56.21h1.29Zm-.25,1.58h-.43a4.79,4.79,0,0,1,.15-1.24,3,3,0,0,1,.43-1,2,2,0,0,1,.68-.62,1.77,1.77,0,0,1,.88-.22,1.92,1.92,0,0,1,.69.12,1.34,1.34,0,0,1,.54.41,2,2,0,0,1,.34.73,4.35,4.35,0,0,1,.12,1.1v4.09H91.72v-4.1a2.12,2.12,0,0,0-.1-.7.76.76,0,0,0-.28-.38.9.9,0,0,0-.48-.11.83.83,0,0,0-.48.15,1.26,1.26,0,0,0-.38.41,2,2,0,0,0-.23.6A2.86,2.86,0,0,0,89.68,59.15Zm7.2,3.52a3.13,3.13,0,0,1-1.1-.18,2.2,2.2,0,0,1-.81-.55,2.6,2.6,0,0,1-.51-.91,3.86,3.86,0,0,1-.18-1.24v-.61a4.41,4.41,0,0,1,.19-1.39,2.58,2.58,0,0,1,.51-1,2.06,2.06,0,0,1,.77-.55,2.63,2.63,0,0,1,1-.18,2.54,2.54,0,0,1,1,.19,1.77,1.77,0,0,1,.72.58,2.59,2.59,0,0,1,.42,1,5.21,5.21,0,0,1,.14,1.31v.69H94.94v-1h2.77v-.14a3.13,3.13,0,0,0-.11-.75.82.82,0,0,0-.87-.65,1.12,1.12,0,0,0-.47.1.83.83,0,0,0-.34.33,1.76,1.76,0,0,0-.2.59,4.78,4.78,0,0,0-.07.92v.61a3.66,3.66,0,0,0,.08.8,1.51,1.51,0,0,0,.26.54,1,1,0,0,0,.41.3,1.42,1.42,0,0,0,.57.1,1.73,1.73,0,0,0,.81-.18,2.12,2.12,0,0,0,.6-.47l.6.84a2.39,2.39,0,0,1-.45.45,2.71,2.71,0,0,1-.7.36A3,3,0,0,1,96.88,62.67Zm5.52-1.14a1,1,0,0,0,.47-.11.8.8,0,0,0,.33-.35,1.53,1.53,0,0,0,.14-.62h1.28a2.38,2.38,0,0,1-.31,1.18,2.11,2.11,0,0,1-.8.77,2.23,2.23,0,0,1-1.09.27,2.84,2.84,0,0,1-1.1-.2,2,2,0,0,1-.77-.59,2.65,2.65,0,0,1-.45-.94,4.86,4.86,0,0,1-.15-1.27V59.1a4.86,4.86,0,0,1,.15-1.27,2.57,2.57,0,0,1,.45-.94,1.94,1.94,0,0,1,.77-.59,2.62,2.62,0,0,1,1.09-.2,2.2,2.2,0,0,1,1.15.28,1.86,1.86,0,0,1,.77.8,2.91,2.91,0,0,1,.29,1.31h-1.28a1.87,1.87,0,0,0-.13-.68.94.94,0,0,0-.31-.43.9.9,0,0,0-.51-.14,1.15,1.15,0,0,0-.55.13.85.85,0,0,0-.33.37,2.13,2.13,0,0,0-.15.58,6,6,0,0,0,0,.78v.57a6.06,6.06,0,0,0,0,.79,1.59,1.59,0,0,0,.15.58.83.83,0,0,0,.33.36A1.06,1.06,0,0,0,102.4,61.53Zm5.84-5.32v1.06h-3.11V56.21ZM106,54.66h1.36v6.12a1.28,1.28,0,0,0,.06.45.4.4,0,0,0,.18.2.61.61,0,0,0,.28.06l.23,0,.17,0v1.1a2.47,2.47,0,0,1-.35.1,2.33,2.33,0,0,1-.48,0,1.54,1.54,0,0,1-.75-.18,1.12,1.12,0,0,1-.51-.56,2.43,2.43,0,0,1-.19-1Z"></path><path class="cls-2" d="M27.57,113.84H28.7a3.64,3.64,0,0,1-.46,1.45,2.79,2.79,0,0,1-1.06,1,3.55,3.55,0,0,1-1.71.37,3.23,3.23,0,0,1-1.37-.28,2.94,2.94,0,0,1-1.05-.8,3.76,3.76,0,0,1-.68-1.25,5.48,5.48,0,0,1-.23-1.63v-.85a5.51,5.51,0,0,1,.23-1.62,3.61,3.61,0,0,1,.69-1.25,2.93,2.93,0,0,1,1.08-.8,3.73,3.73,0,0,1,3.06.08,2.66,2.66,0,0,1,1,1,3.63,3.63,0,0,1,.46,1.48H27.57a3,3,0,0,0-.3-1,1.63,1.63,0,0,0-.63-.67,2.25,2.25,0,0,0-1.08-.23,2.16,2.16,0,0,0-1,.22,2.1,2.1,0,0,0-.72.61,3,3,0,0,0-.43,1,4.71,4.71,0,0,0-.15,1.23v.86a4.91,4.91,0,0,0,.13,1.18,3.15,3.15,0,0,0,.41,1,1.87,1.87,0,0,0,.68.66,2.07,2.07,0,0,0,1,.23,2.42,2.42,0,0,0,1.14-.23,1.48,1.48,0,0,0,.65-.66A3.14,3.14,0,0,0,27.57,113.84Zm3.59-6.29v9H30.08v-9Zm-.26,5.59-.45,0a4.19,4.19,0,0,1,.19-1.2,3.17,3.17,0,0,1,.53-1,2.37,2.37,0,0,1,.81-.64A2.44,2.44,0,0,1,33,110.1a2.75,2.75,0,0,1,.84.12,1.62,1.62,0,0,1,.64.4,1.75,1.75,0,0,1,.41.72,3.28,3.28,0,0,1,.14,1.06v4.15H34v-4.16a2,2,0,0,0-.14-.8.92.92,0,0,0-.43-.44,1.6,1.6,0,0,0-.69-.14,1.64,1.64,0,0,0-.74.17,1.71,1.71,0,0,0-.57.47,2.36,2.36,0,0,0-.37.68A2.75,2.75,0,0,0,30.9,113.14Zm8.42,3.53a3.06,3.06,0,0,1-1.2-.22,2.76,2.76,0,0,1-.92-.64,2.91,2.91,0,0,1-.59-1,3.53,3.53,0,0,1-.21-1.23v-.25a3.91,3.91,0,0,1,.23-1.38,3.29,3.29,0,0,1,.62-1,2.87,2.87,0,0,1,.89-.64,2.68,2.68,0,0,1,1-.21,2.66,2.66,0,0,1,1.17.23,2.09,2.09,0,0,1,.81.66,2.71,2.71,0,0,1,.47,1,4.82,4.82,0,0,1,.15,1.23v.49H37.05v-.89H40.7v-.08a2.63,2.63,0,0,0-.18-.82,1.41,1.41,0,0,0-.47-.66,1.35,1.35,0,0,0-.87-.25,1.51,1.51,0,0,0-.68.15,1.58,1.58,0,0,0-.54.46,2.16,2.16,0,0,0-.34.75,3.81,3.81,0,0,0-.13,1v.25a2.84,2.84,0,0,0,.13.84,2,2,0,0,0,.37.7,1.66,1.66,0,0,0,.59.46,1.71,1.71,0,0,0,.8.17,1.86,1.86,0,0,0,1-.23,2.45,2.45,0,0,0,.7-.63l.65.53a3.49,3.49,0,0,1-.52.59,2.46,2.46,0,0,1-.78.45A2.94,2.94,0,0,1,39.32,116.67Zm4.81-5.1v5H43.05v-6.34h1Zm-.25,1.57-.46,0a3.87,3.87,0,0,1,.2-1.2,3,3,0,0,1,.52-1,2.37,2.37,0,0,1,.81-.64,2.44,2.44,0,0,1,1-.22,2.82,2.82,0,0,1,.85.12,1.58,1.58,0,0,1,.63.4,1.75,1.75,0,0,1,.41.72A3.26,3.26,0,0,1,48,112.4v4.15H47v-4.16a1.78,1.78,0,0,0-.15-.8.92.92,0,0,0-.43-.44,1.6,1.6,0,0,0-.69-.14,1.64,1.64,0,0,0-.74.17,1.71,1.71,0,0,0-.57.47,2.62,2.62,0,0,0-.37.68A2.74,2.74,0,0,0,43.88,113.14Zm6.89-1.57v5H49.68v-6.34h1Zm-.26,1.57-.45,0a3.87,3.87,0,0,1,.19-1.2,3,3,0,0,1,.53-1,2.2,2.2,0,0,1,.81-.64,2.36,2.36,0,0,1,1-.22,2.77,2.77,0,0,1,.85.12,1.7,1.7,0,0,1,.64.4,1.86,1.86,0,0,1,.41.72,3.58,3.58,0,0,1,.14,1.06v4.15H53.58v-4.16a1.78,1.78,0,0,0-.15-.8.92.92,0,0,0-.43-.44,1.54,1.54,0,0,0-.69-.14,1.68,1.68,0,0,0-.74.17,1.78,1.78,0,0,0-.56.47,2.36,2.36,0,0,0-.37.68A2.45,2.45,0,0,0,50.51,113.14Zm9.54,2.33V112.2a1.36,1.36,0,0,0-.15-.65,1.07,1.07,0,0,0-.44-.43,1.65,1.65,0,0,0-.74-.15,1.74,1.74,0,0,0-.72.14,1.15,1.15,0,0,0-.48.37.75.75,0,0,0-.17.49H56.26a1.38,1.38,0,0,1,.18-.67,1.8,1.8,0,0,1,.5-.61,2.45,2.45,0,0,1,.8-.43,3.11,3.11,0,0,1,1-.16,2.92,2.92,0,0,1,1.22.23,1.8,1.8,0,0,1,.83.71,2.05,2.05,0,0,1,.31,1.18v3a3.92,3.92,0,0,0,0,.67,2.9,2.9,0,0,0,.17.62v.09H60.23a1.71,1.71,0,0,1-.13-.5A4.13,4.13,0,0,1,60.05,115.47Zm.19-2.76v.76H59.16a4.1,4.1,0,0,0-.83.08,1.9,1.9,0,0,0-.61.21,1,1,0,0,0-.37.37,1,1,0,0,0-.13.51,1.14,1.14,0,0,0,.13.55,1,1,0,0,0,.41.39,1.48,1.48,0,0,0,.67.14,1.82,1.82,0,0,0,.88-.21,1.8,1.8,0,0,0,.6-.52,1.11,1.11,0,0,0,.25-.59l.46.52a1.62,1.62,0,0,1-.22.55,2.33,2.33,0,0,1-.49.57,2.69,2.69,0,0,1-.71.45,2.3,2.3,0,0,1-.93.18,2.41,2.41,0,0,1-1.13-.25,1.9,1.9,0,0,1-.75-.68,1.81,1.81,0,0,1-.26-.95,1.87,1.87,0,0,1,.2-.9,1.69,1.69,0,0,1,.57-.65,2.86,2.86,0,0,1,.9-.4,4.79,4.79,0,0,1,1.18-.13Zm3.78-2.5v6.34H62.93v-6.34Zm-1.17-1.68a.63.63,0,0,1,.16-.44.59.59,0,0,1,.48-.19.58.58,0,0,1,.47.19.64.64,0,0,1,.17.44A.67.67,0,0,1,63,109,.6.6,0,0,1,62.85,108.53Zm11.2,5.31h1.13a3.65,3.65,0,0,1-.47,1.45,2.72,2.72,0,0,1-1.06,1,3.49,3.49,0,0,1-1.71.37,3.18,3.18,0,0,1-1.36-.28,2.94,2.94,0,0,1-1-.8,3.59,3.59,0,0,1-.68-1.25,5.17,5.17,0,0,1-.24-1.63v-.85a5.2,5.2,0,0,1,.24-1.62,3.76,3.76,0,0,1,.68-1.25,3,3,0,0,1,1.09-.8,3.73,3.73,0,0,1,3.06.08,2.57,2.57,0,0,1,1,1,3.63,3.63,0,0,1,.47,1.48H74.05a3.29,3.29,0,0,0-.3-1,1.59,1.59,0,0,0-.64-.67,2.21,2.21,0,0,0-1.07-.23,2.14,2.14,0,0,0-1,.22,1.93,1.93,0,0,0-.72.61,3,3,0,0,0-.44,1,5.2,5.2,0,0,0-.14,1.23v.86a4.91,4.91,0,0,0,.13,1.18,3.14,3.14,0,0,0,.4,1,2,2,0,0,0,.69.66,2,2,0,0,0,1,.23,2.5,2.5,0,0,0,1.15-.23,1.41,1.41,0,0,0,.64-.66A3.14,3.14,0,0,0,74.05,113.84Zm2.22-.39v-.13a3.72,3.72,0,0,1,.2-1.27,3,3,0,0,1,.57-1,2.56,2.56,0,0,1,.91-.68,3.1,3.1,0,0,1,2.39,0,2.6,2.6,0,0,1,.92.68,3,3,0,0,1,.58,1,4,4,0,0,1,.2,1.27v.13a4,4,0,0,1-.2,1.27,3.06,3.06,0,0,1-.58,1,2.56,2.56,0,0,1-.91.68,2.86,2.86,0,0,1-1.2.24,2.92,2.92,0,0,1-1.2-.24,2.65,2.65,0,0,1-.91-.68,3,3,0,0,1-.57-1A3.72,3.72,0,0,1,76.27,113.45Zm1.08-.13v.13a3.7,3.7,0,0,0,.11.9,2.51,2.51,0,0,0,.34.74,1.82,1.82,0,0,0,.56.51,1.67,1.67,0,0,0,.79.18,1.61,1.61,0,0,0,.78-.18,1.75,1.75,0,0,0,.57-.51,2.49,2.49,0,0,0,.33-.74,3.26,3.26,0,0,0,.12-.9v-.13a3.24,3.24,0,0,0-.12-.89,2.19,2.19,0,0,0-.34-.74,1.74,1.74,0,0,0-.56-.52,1.61,1.61,0,0,0-2.13.52,2.4,2.4,0,0,0-.34.74A3.68,3.68,0,0,0,77.35,113.32Zm7.13-2.11v5.34H83.4v-6.34h1Zm2-1v1a1.27,1.27,0,0,0-.26,0h-.27a1.69,1.69,0,0,0-.66.12,1.2,1.2,0,0,0-.49.32,1.64,1.64,0,0,0-.32.51,2.42,2.42,0,0,0-.14.63l-.31.18a5.2,5.2,0,0,1,.11-1.08,3,3,0,0,1,.36-.89,1.66,1.66,0,0,1,1.5-.83l.27,0Zm2.09,1.25V119H87.46v-8.78h1Zm4.27,1.9v.12a4.85,4.85,0,0,1-.17,1.29,3,3,0,0,1-.48,1,2.22,2.22,0,0,1-.76.67,2.26,2.26,0,0,1-1,.24,2.76,2.76,0,0,1-1.07-.2,2,2,0,0,1-.78-.58A2.89,2.89,0,0,1,88,115a5.89,5.89,0,0,1-.26-1.2v-.66a5.59,5.59,0,0,1,.27-1.26,3.18,3.18,0,0,1,.51-1,1.91,1.91,0,0,1,.78-.6,2.46,2.46,0,0,1,1-.21,2.27,2.27,0,0,1,1.06.23,2.06,2.06,0,0,1,.78.66,2.82,2.82,0,0,1,.47,1A5,5,0,0,1,92.82,113.33Zm-1.09.12v-.12a3.62,3.62,0,0,0-.1-.89,2.36,2.36,0,0,0-.31-.74,1.49,1.49,0,0,0-.53-.5A1.44,1.44,0,0,0,90,111a1.73,1.73,0,0,0-.71.14,1.48,1.48,0,0,0-.51.38,2.18,2.18,0,0,0-.35.54,3.41,3.41,0,0,0-.19.62v1.52a3.51,3.51,0,0,0,.33.77,1.73,1.73,0,0,0,.56.58,1.61,1.61,0,0,0,.89.22,1.49,1.49,0,0,0,.75-.18,1.62,1.62,0,0,0,.53-.51,2.46,2.46,0,0,0,.31-.74A3.71,3.71,0,0,0,91.73,113.45Zm2.18,0v-.13a4,4,0,0,1,.2-1.27,3.13,3.13,0,0,1,.58-1,2.56,2.56,0,0,1,.91-.68,3.1,3.1,0,0,1,2.39,0,2.6,2.6,0,0,1,.92.68,3.13,3.13,0,0,1,.58,1,4,4,0,0,1,.2,1.27v.13a4,4,0,0,1-.2,1.27,3.24,3.24,0,0,1-.58,1,2.65,2.65,0,0,1-.91.68,2.86,2.86,0,0,1-1.2.24,2.92,2.92,0,0,1-1.2-.24,2.65,2.65,0,0,1-.91-.68,3.24,3.24,0,0,1-.58-1A4,4,0,0,1,93.91,113.45Zm1.09-.13v.13a3.7,3.7,0,0,0,.11.9,2.49,2.49,0,0,0,.33.74,2,2,0,0,0,.57.51,1.67,1.67,0,0,0,.79.18,1.54,1.54,0,0,0,1.34-.69,2.51,2.51,0,0,0,.34-.74,3.26,3.26,0,0,0,.12-.9v-.13a3.24,3.24,0,0,0-.12-.89,2.4,2.4,0,0,0-.34-.74,1.74,1.74,0,0,0-.56-.52,1.67,1.67,0,0,0-.79-.18,1.61,1.61,0,0,0-.78.18,1.77,1.77,0,0,0-.57.52,2.38,2.38,0,0,0-.33.74A3.68,3.68,0,0,0,95,113.32Zm7.13-2.11v5.34h-1.08v-6.34h1Zm2-1v1a1.18,1.18,0,0,0-.25,0h-.27a1.78,1.78,0,0,0-.67.12,1.23,1.23,0,0,0-.48.32,1.64,1.64,0,0,0-.32.51,2.42,2.42,0,0,0-.14.63l-.31.18a5.2,5.2,0,0,1,.11-1.08,3,3,0,0,1,.36-.89,1.66,1.66,0,0,1,1.5-.83l.27,0Zm4.51,5.29V112.2a1.36,1.36,0,0,0-.16-.65,1,1,0,0,0-.44-.43,1.65,1.65,0,0,0-.74-.15,1.81,1.81,0,0,0-.72.14,1.29,1.29,0,0,0-.48.37.81.81,0,0,0-.17.49h-1.09a1.38,1.38,0,0,1,.18-.67,2.07,2.07,0,0,1,.5-.61,2.56,2.56,0,0,1,.8-.43,3.11,3.11,0,0,1,1-.16,2.92,2.92,0,0,1,1.22.23,1.76,1.76,0,0,1,.83.71,2.05,2.05,0,0,1,.31,1.18v3a5.29,5.29,0,0,0,0,.67,2.9,2.9,0,0,0,.17.62v.09h-1.13a2.1,2.1,0,0,1-.13-.5A4,4,0,0,1,108.62,115.47Zm.18-2.76v.76h-1.09a4.1,4.1,0,0,0-.83.08,2,2,0,0,0-.61.21,1,1,0,0,0-.37.37,1,1,0,0,0-.13.51,1.14,1.14,0,0,0,.13.55,1,1,0,0,0,.41.39,1.51,1.51,0,0,0,.67.14,1.79,1.79,0,0,0,.88-.21,1.62,1.62,0,0,0,.6-.52,1,1,0,0,0,.25-.59l.46.52a1.44,1.44,0,0,1-.22.55,2.33,2.33,0,0,1-.49.57,2.4,2.4,0,0,1-.71.45,2.27,2.27,0,0,1-.93.18,2.41,2.41,0,0,1-1.13-.25,1.9,1.9,0,0,1-.75-.68,1.81,1.81,0,0,1-.26-.95,2,2,0,0,1,.2-.9,1.69,1.69,0,0,1,.57-.65,2.82,2.82,0,0,1,.91-.4,4.71,4.71,0,0,1,1.17-.13Zm5.26-2.5V111h-3.43v-.83Zm-2.27-1.54h1.09V115a1,1,0,0,0,.09.49.54.54,0,0,0,.26.22,1.27,1.27,0,0,0,.34,0,1.33,1.33,0,0,0,.28,0l.23,0v.88a1.9,1.9,0,0,1-.34.08,2.41,2.41,0,0,1-.5,0,1.6,1.6,0,0,1-.73-.16A1.2,1.2,0,0,1,112,116a2.31,2.31,0,0,1-.19-1Zm4.72,1.54v6.34h-1.09v-6.34Zm-1.17-1.68a.67.67,0,0,1,.15-.44.7.7,0,0,1,1,0,.64.64,0,0,1,.17.44.67.67,0,0,1-1.13.43A.64.64,0,0,1,115.34,108.53Zm2.62,4.92v-.13a4,4,0,0,1,.2-1.27,3,3,0,0,1,.57-1,2.65,2.65,0,0,1,.91-.68,3.12,3.12,0,0,1,2.4,0,2.56,2.56,0,0,1,.91.68,2.82,2.82,0,0,1,.58,1,3.72,3.72,0,0,1,.2,1.27v.13a3.72,3.72,0,0,1-.2,1.27,2.9,2.9,0,0,1-.58,1,2.62,2.62,0,0,1-.9.68,2.89,2.89,0,0,1-1.2.24,2.86,2.86,0,0,1-1.2-.24,2.69,2.69,0,0,1-.92-.68,3,3,0,0,1-.57-1A4,4,0,0,1,118,113.45Zm1.09-.13v.13a3.27,3.27,0,0,0,.11.9,2.26,2.26,0,0,0,.33.74,1.75,1.75,0,0,0,.57.51,1.67,1.67,0,0,0,.79.18,1.61,1.61,0,0,0,.78-.18,1.71,1.71,0,0,0,.56-.51,2.51,2.51,0,0,0,.34-.74,3.7,3.7,0,0,0,.11-.9v-.13a3.68,3.68,0,0,0-.11-.89,2.4,2.4,0,0,0-.34-.74,1.67,1.67,0,0,0-.57-.52,1.61,1.61,0,0,0-.78-.18,1.67,1.67,0,0,0-.79.18,1.74,1.74,0,0,0-.56.52,2.17,2.17,0,0,0-.33.74A3.24,3.24,0,0,0,119.05,113.32Zm7.13-1.75v5h-1.09v-6.34h1Zm-.26,1.57-.45,0a3.87,3.87,0,0,1,.19-1.2,3,3,0,0,1,.53-1,2.2,2.2,0,0,1,.81-.64,2.38,2.38,0,0,1,1.05-.22,2.75,2.75,0,0,1,.84.12,1.7,1.7,0,0,1,.64.4,1.86,1.86,0,0,1,.41.72,3.58,3.58,0,0,1,.14,1.06v4.15H129v-4.16a1.78,1.78,0,0,0-.15-.8.92.92,0,0,0-.43-.44,1.54,1.54,0,0,0-.69-.14,1.68,1.68,0,0,0-.74.17,1.78,1.78,0,0,0-.56.47,2.36,2.36,0,0,0-.37.68A2.45,2.45,0,0,0,125.92,113.14Zm10.39,2.29,1.63-5.22h.71l-.14,1-1.66,5.3h-.7Zm-1.1-5.22,1.39,5.28.1,1.06H136l-1.84-6.34Zm5,5.24,1.32-5.24h1.08l-1.84,6.34h-.72Zm-1.4-5.24,1.59,5.13.18,1.21h-.69l-1.7-5.31-.14-1Zm4.63,3.24v-.13a3.72,3.72,0,0,1,.2-1.27,3,3,0,0,1,.57-1,2.56,2.56,0,0,1,.91-.68,2.84,2.84,0,0,1,1.19-.24,2.94,2.94,0,0,1,1.21.24,2.56,2.56,0,0,1,.91.68,3,3,0,0,1,.58,1,4,4,0,0,1,.2,1.27v.13a4,4,0,0,1-.2,1.27,3.06,3.06,0,0,1-.58,1,2.56,2.56,0,0,1-.91.68,3.1,3.1,0,0,1-2.39,0,2.69,2.69,0,0,1-.92-.68,3,3,0,0,1-.57-1A3.72,3.72,0,0,1,143.44,113.45Zm1.08-.13v.13a3.7,3.7,0,0,0,.11.9,2.51,2.51,0,0,0,.34.74,1.75,1.75,0,0,0,.57.51,1.8,1.8,0,0,0,1.57,0,1.82,1.82,0,0,0,.56-.51,2.26,2.26,0,0,0,.33-.74,3.26,3.26,0,0,0,.12-.9v-.13a3.24,3.24,0,0,0-.12-.89,2.19,2.19,0,0,0-.34-.74,1.64,1.64,0,0,0-.56-.52,1.62,1.62,0,0,0-.79-.18,1.66,1.66,0,0,0-.78.18,1.74,1.74,0,0,0-.56.52,2.4,2.4,0,0,0-.34.74A3.68,3.68,0,0,0,144.52,113.32Zm7.13-1.75v5h-1.08v-6.34h1Zm-.26,1.57-.45,0a3.87,3.87,0,0,1,.2-1.2,3,3,0,0,1,.52-1,2.37,2.37,0,0,1,.81-.64,2.44,2.44,0,0,1,1.05-.22,2.82,2.82,0,0,1,.85.12,1.58,1.58,0,0,1,.63.4,1.75,1.75,0,0,1,.41.72,3.28,3.28,0,0,1,.14,1.06v4.15h-1.08v-4.16a1.78,1.78,0,0,0-.15-.8.92.92,0,0,0-.43-.44,1.6,1.6,0,0,0-.69-.14,1.64,1.64,0,0,0-.74.17,1.71,1.71,0,0,0-.57.47,2.62,2.62,0,0,0-.37.68A2.75,2.75,0,0,0,151.39,113.14Zm-131,11.07V125H17v-.83Zm-2.26-1.54h1.08V129a.92.92,0,0,0,.1.49.5.5,0,0,0,.26.22,1.21,1.21,0,0,0,.34.05l.28,0,.23,0v.88a1.71,1.71,0,0,1-.34.08,2.31,2.31,0,0,1-.49,0,1.67,1.67,0,0,1-.74-.16,1.13,1.13,0,0,1-.53-.53,2.17,2.17,0,0,1-.19-1Zm4.62-1.12v9H21.69v-9Zm-.26,5.59-.45,0a3.87,3.87,0,0,1,.19-1.2,3,3,0,0,1,.53-1,2.37,2.37,0,0,1,.81-.64,2.44,2.44,0,0,1,1.05-.22,2.75,2.75,0,0,1,.84.12,1.62,1.62,0,0,1,.64.4,1.75,1.75,0,0,1,.41.72,3.28,3.28,0,0,1,.14,1.06v4.15H25.58v-4.16a2,2,0,0,0-.14-.8.92.92,0,0,0-.43-.44,1.6,1.6,0,0,0-.69-.14,1.64,1.64,0,0,0-.74.17,1.71,1.71,0,0,0-.57.47,2.36,2.36,0,0,0-.37.68A2.45,2.45,0,0,0,22.51,127.14Zm8.42,3.53a3.11,3.11,0,0,1-1.21-.22,3,3,0,0,1-.92-.64,3.05,3.05,0,0,1-.58-1,3.53,3.53,0,0,1-.21-1.23v-.25a3.91,3.91,0,0,1,.23-1.38,3.11,3.11,0,0,1,.62-1,2.87,2.87,0,0,1,.89-.64,2.68,2.68,0,0,1,1-.21,2.66,2.66,0,0,1,1.17.23,2.09,2.09,0,0,1,.81.66,2.71,2.71,0,0,1,.47,1,4.82,4.82,0,0,1,.15,1.23v.49H28.66v-.89h3.65v-.08a2.94,2.94,0,0,0-.18-.82,1.41,1.41,0,0,0-.47-.66,1.35,1.35,0,0,0-.87-.25,1.51,1.51,0,0,0-.68.15,1.58,1.58,0,0,0-.54.46,2.16,2.16,0,0,0-.34.75,3.44,3.44,0,0,0-.13,1v.25a2.55,2.55,0,0,0,.13.84,2,2,0,0,0,.37.7,1.66,1.66,0,0,0,.59.46,1.7,1.7,0,0,0,.79.17,1.87,1.87,0,0,0,1-.23,2.29,2.29,0,0,0,.69-.63l.66.53a3.49,3.49,0,0,1-.52.59,2.46,2.46,0,0,1-.78.45A2.94,2.94,0,0,1,30.93,130.67Zm6.7-9.12h1.09v7.77l-.09,1.23h-1ZM43,127.33v.12a4.85,4.85,0,0,1-.16,1.29,3.21,3.21,0,0,1-.48,1,2.29,2.29,0,0,1-.78.67,2.19,2.19,0,0,1-1,.24,2.55,2.55,0,0,1-1.07-.21,2.11,2.11,0,0,1-.76-.6,3.15,3.15,0,0,1-.49-1,5.63,5.63,0,0,1-.26-1.25v-.54a5.6,5.6,0,0,1,.26-1.26,3.15,3.15,0,0,1,.49-1,1.92,1.92,0,0,1,.76-.6,2.52,2.52,0,0,1,1.05-.21,2.24,2.24,0,0,1,1.06.23,2.06,2.06,0,0,1,.78.66,3,3,0,0,1,.48,1A5,5,0,0,1,43,127.33Zm-1.09.12v-.12a4.19,4.19,0,0,0-.09-.89,2.11,2.11,0,0,0-.28-.74,1.44,1.44,0,0,0-.51-.5,1.46,1.46,0,0,0-.78-.19,1.73,1.73,0,0,0-.71.14,1.48,1.48,0,0,0-.51.38,2.18,2.18,0,0,0-.35.54,3.41,3.41,0,0,0-.19.62v1.41a2.55,2.55,0,0,0,.31.79,1.78,1.78,0,0,0,.57.62,1.59,1.59,0,0,0,.9.24,1.49,1.49,0,0,0,.75-.18,1.41,1.41,0,0,0,.51-.49,2.43,2.43,0,0,0,.29-.74A4.13,4.13,0,0,0,41.91,127.45ZM47,130.67a3.09,3.09,0,0,1-1.2-.22,3,3,0,0,1-.92-.64,2.88,2.88,0,0,1-.58-1,3.53,3.53,0,0,1-.21-1.23v-.25a3.91,3.91,0,0,1,.23-1.38,3.11,3.11,0,0,1,.62-1,2.76,2.76,0,0,1,.89-.64,2.64,2.64,0,0,1,1-.21,2.67,2.67,0,0,1,1.18.23,2.09,2.09,0,0,1,.81.66,2.71,2.71,0,0,1,.47,1,4.82,4.82,0,0,1,.15,1.23v.49H44.74v-.89h3.65v-.08a2.94,2.94,0,0,0-.18-.82,1.49,1.49,0,0,0-.47-.66,1.38,1.38,0,0,0-.88-.25,1.57,1.57,0,0,0-.68.15,1.65,1.65,0,0,0-.53.46,2.37,2.37,0,0,0-.35.75,3.83,3.83,0,0,0-.12,1v.25a2.84,2.84,0,0,0,.12.84,2.23,2.23,0,0,0,.37.7,1.79,1.79,0,0,0,.6.46,1.7,1.7,0,0,0,.79.17,1.87,1.87,0,0,0,1-.23,2.41,2.41,0,0,0,.69-.63l.66.53a3.49,3.49,0,0,1-.52.59,2.46,2.46,0,0,1-.78.45A3,3,0,0,1,47,130.67Zm7.43-1.8a.89.89,0,0,0-.11-.43.84.84,0,0,0-.41-.37,3.17,3.17,0,0,0-.94-.29,9.33,9.33,0,0,1-1-.27,2.71,2.71,0,0,1-.72-.37,1.57,1.57,0,0,1-.45-.51,1.45,1.45,0,0,1-.16-.68,1.58,1.58,0,0,1,.17-.71,1.89,1.89,0,0,1,.47-.59,2.26,2.26,0,0,1,.75-.41,2.93,2.93,0,0,1,1-.14,3,3,0,0,1,1.3.26,2,2,0,0,1,.83.73,1.77,1.77,0,0,1,.29,1H54.36a1,1,0,0,0-.15-.51,1.25,1.25,0,0,0-.46-.42A1.42,1.42,0,0,0,53,125a1.56,1.56,0,0,0-.73.14.91.91,0,0,0-.4.34.81.81,0,0,0-.13.45.78.78,0,0,0,.06.31.87.87,0,0,0,.22.26,2.41,2.41,0,0,0,.45.21l.73.2a5.42,5.42,0,0,1,1.29.42,1.92,1.92,0,0,1,.75.6,1.53,1.53,0,0,1,.24.87,1.73,1.73,0,0,1-.17.76,1.79,1.79,0,0,1-.5.6,2.47,2.47,0,0,1-.78.38,3.4,3.4,0,0,1-1,.14,3.07,3.07,0,0,1-1.42-.3,2.27,2.27,0,0,1-.87-.77,1.85,1.85,0,0,1-.3-1h1.09a1.1,1.1,0,0,0,.25.7,1.23,1.23,0,0,0,.58.37,2.29,2.29,0,0,0,.67.11,2,2,0,0,0,.75-.12,1.06,1.06,0,0,0,.46-.32A.72.72,0,0,0,54.43,128.87Zm5.16-4.66V125H56.16v-.83Zm-2.27-1.54h1.09V129a.92.92,0,0,0,.1.49.48.48,0,0,0,.25.22,1.27,1.27,0,0,0,.34.05,1.33,1.33,0,0,0,.28,0l.23,0v.88a1.9,1.9,0,0,1-.34.08,2.41,2.41,0,0,1-.5,0,1.63,1.63,0,0,1-.73-.16,1.13,1.13,0,0,1-.53-.53,2.16,2.16,0,0,1-.2-1ZM68,124.21h1v6.21a2.8,2.8,0,0,1-.34,1.43,2.21,2.21,0,0,1-1,.89,3,3,0,0,1-1.39.31,3.47,3.47,0,0,1-.78-.1,3,3,0,0,1-.86-.35,2,2,0,0,1-.71-.65l.57-.64a2.3,2.3,0,0,0,.83.67,2.25,2.25,0,0,0,.86.18,1.89,1.89,0,0,0,.89-.19,1.33,1.33,0,0,0,.58-.57,1.78,1.78,0,0,0,.22-.93v-4.86Zm-4.37,3.24v-.12a5,5,0,0,1,.17-1.32,3,3,0,0,1,.5-1,2.17,2.17,0,0,1,.79-.66,2.24,2.24,0,0,1,1-.23,2.46,2.46,0,0,1,1,.21,1.92,1.92,0,0,1,.76.6,2.94,2.94,0,0,1,.49,1,5.6,5.6,0,0,1,.26,1.26v.54a5.63,5.63,0,0,1-.26,1.25,2.94,2.94,0,0,1-.49,1,2.11,2.11,0,0,1-.76.6,2.54,2.54,0,0,1-1.06.21,2.2,2.2,0,0,1-1-.24,2.42,2.42,0,0,1-.79-.67,3.47,3.47,0,0,1-.5-1A4.85,4.85,0,0,1,63.58,127.45Zm1.08-.12v.12a4.11,4.11,0,0,0,.1.89,2.22,2.22,0,0,0,.3.74,1.44,1.44,0,0,0,.52.49,1.49,1.49,0,0,0,.75.18,1.56,1.56,0,0,0,1.45-.83,3.52,3.52,0,0,0,.33-.82v-1.41a2.8,2.8,0,0,0-.2-.62,2.15,2.15,0,0,0-.34-.54,1.48,1.48,0,0,0-.51-.38,1.73,1.73,0,0,0-.71-.14,1.44,1.44,0,0,0-.77.19,1.46,1.46,0,0,0-.52.5,2.13,2.13,0,0,0-.3.74A4.18,4.18,0,0,0,64.66,127.33Zm5.63.12v-.13a4,4,0,0,1,.2-1.27,3,3,0,0,1,.57-1,2.65,2.65,0,0,1,.91-.68,2.89,2.89,0,0,1,1.2-.24,2.92,2.92,0,0,1,1.2.24,2.56,2.56,0,0,1,.91.68,2.82,2.82,0,0,1,.58,1,4,4,0,0,1,.2,1.27v.13a4,4,0,0,1-.2,1.27,2.9,2.9,0,0,1-.58,1,2.56,2.56,0,0,1-.91.68,3.1,3.1,0,0,1-2.39,0,2.69,2.69,0,0,1-.92-.68,3,3,0,0,1-.57-1A4,4,0,0,1,70.29,127.45Zm1.08-.13v.13a3.7,3.7,0,0,0,.11.9,2.51,2.51,0,0,0,.34.74,1.75,1.75,0,0,0,.57.51,1.8,1.8,0,0,0,1.57,0,1.82,1.82,0,0,0,.56-.51,2.26,2.26,0,0,0,.33-.74,3.26,3.26,0,0,0,.12-.9v-.13a3.24,3.24,0,0,0-.12-.89,2,2,0,0,0-.34-.74,1.55,1.55,0,0,0-.56-.52,1.61,1.61,0,0,0-.78-.18,1.67,1.67,0,0,0-.79.18,1.74,1.74,0,0,0-.56.52,2.4,2.4,0,0,0-.34.74A3.68,3.68,0,0,0,71.37,127.32Zm7.88,2.25L81,124.21H82.1l-2.28,6.34h-.73Zm-1.44-5.36,1.78,5.39.13,1H79l-2.3-6.34Zm7.88,6.46a3.09,3.09,0,0,1-1.2-.22,2.76,2.76,0,0,1-.92-.64,2.91,2.91,0,0,1-.59-1,3.53,3.53,0,0,1-.2-1.23v-.25A3.92,3.92,0,0,1,83,126a3.13,3.13,0,0,1,.63-1,2.66,2.66,0,0,1,.89-.64,2.6,2.6,0,0,1,1-.21,2.66,2.66,0,0,1,1.17.23,2.09,2.09,0,0,1,.81.66,2.71,2.71,0,0,1,.47,1,4.82,4.82,0,0,1,.15,1.23v.49H83.42v-.89h3.65v-.08a2.63,2.63,0,0,0-.18-.82,1.47,1.47,0,0,0-.46-.66,1.39,1.39,0,0,0-.88-.25,1.51,1.51,0,0,0-.68.15,1.58,1.58,0,0,0-.54.46,2.37,2.37,0,0,0-.34.75,3.83,3.83,0,0,0-.12,1v.25a2.84,2.84,0,0,0,.12.84,2,2,0,0,0,.37.7,1.66,1.66,0,0,0,.59.46,1.71,1.71,0,0,0,.8.17,1.86,1.86,0,0,0,1-.23,2.45,2.45,0,0,0,.7-.63l.65.53a3.1,3.1,0,0,1-.52.59,2.46,2.46,0,0,1-.78.45A2.91,2.91,0,0,1,85.69,130.67Zm4.81-5.46v5.34H89.42v-6.34h1Zm2-1v1a1.27,1.27,0,0,0-.26,0H92a1.69,1.69,0,0,0-.66.12,1.34,1.34,0,0,0-.49.32,1.45,1.45,0,0,0-.31.51,2.08,2.08,0,0,0-.15.63l-.3.18a4.6,4.6,0,0,1,.11-1.08,2.72,2.72,0,0,1,.35-.89,1.78,1.78,0,0,1,.61-.61,1.7,1.7,0,0,1,.89-.22l.27,0A.68.68,0,0,1,92.48,124.18Zm2.09,1.39v5H93.49v-6.34h1Zm-.26,1.57-.45,0a4.19,4.19,0,0,1,.19-1.2,3.17,3.17,0,0,1,.53-1,2.37,2.37,0,0,1,.81-.64,2.44,2.44,0,0,1,1-.22,2.75,2.75,0,0,1,.84.12,1.62,1.62,0,0,1,.64.4,1.75,1.75,0,0,1,.41.72,3.28,3.28,0,0,1,.14,1.06v4.15H97.38v-4.16a2,2,0,0,0-.14-.8.92.92,0,0,0-.43-.44,1.6,1.6,0,0,0-.69-.14,1.64,1.64,0,0,0-.74.17,1.71,1.71,0,0,0-.57.47,2.36,2.36,0,0,0-.37.68A2.75,2.75,0,0,0,94.31,127.14Zm9.55,2.33V126.2a1.36,1.36,0,0,0-.15-.65,1,1,0,0,0-.45-.43,1.65,1.65,0,0,0-.74-.15,1.81,1.81,0,0,0-.72.14,1.29,1.29,0,0,0-.48.37.81.81,0,0,0-.17.49h-1.08a1.48,1.48,0,0,1,.17-.67,2,2,0,0,1,.51-.61,2.4,2.4,0,0,1,.79-.43,3.17,3.17,0,0,1,1-.16,2.87,2.87,0,0,1,1.21.23,1.83,1.83,0,0,1,.84.71,2.13,2.13,0,0,1,.3,1.18v2.95a5.29,5.29,0,0,0,0,.67,2.9,2.9,0,0,0,.17.62v.09H104a2.72,2.72,0,0,1-.13-.5A4,4,0,0,1,103.86,129.47Zm.19-2.76v.76H103a4.17,4.17,0,0,0-.83.08,1.83,1.83,0,0,0-.6.21,1,1,0,0,0-.38.37,1,1,0,0,0-.13.51,1.15,1.15,0,0,0,.14.55,1,1,0,0,0,.4.39,1.51,1.51,0,0,0,.67.14,1.76,1.76,0,0,0,.88-.21,1.74,1.74,0,0,0,.61-.52,1.09,1.09,0,0,0,.24-.59l.47.52a1.66,1.66,0,0,1-.23.55,2.51,2.51,0,0,1-.48.57,2.59,2.59,0,0,1-.72.45,2.25,2.25,0,0,1-.92.18,2.38,2.38,0,0,1-1.13-.25,1.9,1.9,0,0,1-.75-.68,1.73,1.73,0,0,1-.27-1,2,2,0,0,1,.2-.9,1.72,1.72,0,0,1,.58-.65,2.86,2.86,0,0,1,.9-.4,4.74,4.74,0,0,1,1.18-.13Zm3.68-1.14v5h-1.08v-6.34h1Zm-.26,1.57-.45,0a3.87,3.87,0,0,1,.2-1.2,3,3,0,0,1,.52-1,2.37,2.37,0,0,1,.81-.64,2.44,2.44,0,0,1,1-.22,2.75,2.75,0,0,1,.84.12,1.62,1.62,0,0,1,.64.4,1.75,1.75,0,0,1,.41.72,3.28,3.28,0,0,1,.14,1.06v4.15h-1.09v-4.16a2,2,0,0,0-.14-.8.92.92,0,0,0-.43-.44,1.6,1.6,0,0,0-.69-.14,1.64,1.64,0,0,0-.74.17,1.71,1.71,0,0,0-.57.47,2.36,2.36,0,0,0-.37.68A2.75,2.75,0,0,0,107.47,127.14Zm8.35,2.64a1.57,1.57,0,0,0,.71-.16,1.43,1.43,0,0,0,.54-.43,1.22,1.22,0,0,0,.24-.64h1a1.93,1.93,0,0,1-.38,1,2.57,2.57,0,0,1-.91.78,2.66,2.66,0,0,1-1.23.29,2.85,2.85,0,0,1-1.25-.25,2.51,2.51,0,0,1-.88-.69,3.22,3.22,0,0,1-.52-1,4,4,0,0,1-.17-1.21v-.25a4,4,0,0,1,.17-1.21,3.12,3.12,0,0,1,.52-1,2.51,2.51,0,0,1,.88-.69,2.85,2.85,0,0,1,1.25-.25,2.71,2.71,0,0,1,1.3.3,2.22,2.22,0,0,1,.87.82,2.3,2.3,0,0,1,.35,1.17h-1a1.56,1.56,0,0,0-.22-.71,1.46,1.46,0,0,0-1.27-.69,1.56,1.56,0,0,0-.84.2,1.39,1.39,0,0,0-.53.52,2.54,2.54,0,0,0-.29.74,4.28,4.28,0,0,0-.08.81v.25a4.56,4.56,0,0,0,.08.82,2.46,2.46,0,0,0,.28.73,1.58,1.58,0,0,0,.53.53A1.81,1.81,0,0,0,115.82,129.78Zm6.37.89a3.09,3.09,0,0,1-1.2-.22,2.87,2.87,0,0,1-.92-.64,3.08,3.08,0,0,1-.59-1,3.78,3.78,0,0,1-.2-1.23v-.25a3.91,3.91,0,0,1,.23-1.38,3.11,3.11,0,0,1,.62-1,2.76,2.76,0,0,1,.89-.64,2.86,2.86,0,0,1,2.2,0,2.13,2.13,0,0,1,.82.66,2.88,2.88,0,0,1,.47,1,4.82,4.82,0,0,1,.15,1.23v.49h-4.74v-.89h3.65v-.08a2.61,2.61,0,0,0-.17-.82,1.57,1.57,0,0,0-.47-.66,1.38,1.38,0,0,0-.88-.25,1.42,1.42,0,0,0-1.21.61,2.17,2.17,0,0,0-.35.75,3.83,3.83,0,0,0-.12,1v.25a2.84,2.84,0,0,0,.12.84,2.23,2.23,0,0,0,.37.7,1.74,1.74,0,0,0,1.39.63,1.83,1.83,0,0,0,1-.23,2.32,2.32,0,0,0,.7-.63l.66.53a3.17,3.17,0,0,1-.53.59,2.52,2.52,0,0,1-.77.45A3,3,0,0,1,122.19,130.67Zm10.45-1.2V126.2a1.36,1.36,0,0,0-.15-.65,1,1,0,0,0-.45-.43,1.62,1.62,0,0,0-.74-.15,1.81,1.81,0,0,0-.72.14,1.29,1.29,0,0,0-.48.37.81.81,0,0,0-.17.49h-1.08a1.48,1.48,0,0,1,.17-.67,2,2,0,0,1,.51-.61,2.5,2.5,0,0,1,.79-.43,3.17,3.17,0,0,1,1.05-.16,3,3,0,0,1,1.22.23,1.86,1.86,0,0,1,.83.71,2.13,2.13,0,0,1,.3,1.18v2.95a4,4,0,0,0,.06.67,2.07,2.07,0,0,0,.17.62v.09h-1.14a2.15,2.15,0,0,1-.12-.5A3,3,0,0,1,132.64,129.47Zm.19-2.76v.76h-1.1a4,4,0,0,0-.82.08,1.81,1.81,0,0,0-.61.21,1,1,0,0,0-.38.37,1.07,1.07,0,0,0-.13.51,1.15,1.15,0,0,0,.14.55,1,1,0,0,0,.4.39,1.55,1.55,0,0,0,.68.14,1.83,1.83,0,0,0,1.48-.73,1.09,1.09,0,0,0,.24-.59l.47.52a1.47,1.47,0,0,1-.23.55,2.51,2.51,0,0,1-.48.57,2.59,2.59,0,0,1-.72.45,2.25,2.25,0,0,1-.92.18,2.38,2.38,0,0,1-1.13-.25,1.9,1.9,0,0,1-.75-.68,1.73,1.73,0,0,1-.27-1,2,2,0,0,1,.2-.9,1.81,1.81,0,0,1,.58-.65,2.86,2.86,0,0,1,.9-.4,4.74,4.74,0,0,1,1.18-.13Zm4.2,2.72,1.63-5.22h.72l-.14,1-1.66,5.3h-.7Zm-1.09-5.22,1.39,5.28.1,1.06h-.74l-1.84-6.34Zm5,5.24,1.32-5.24h1.08l-1.84,6.34h-.73Zm-1.4-5.24,1.59,5.13.18,1.21h-.69l-1.71-5.31-.14-1Zm8.65,5.26V126.2a1.36,1.36,0,0,0-.15-.65,1,1,0,0,0-.45-.43,1.62,1.62,0,0,0-.74-.15,1.81,1.81,0,0,0-.72.14,1.29,1.29,0,0,0-.48.37.81.81,0,0,0-.17.49H144.4a1.48,1.48,0,0,1,.17-.67,2,2,0,0,1,.51-.61,2.45,2.45,0,0,1,.8-.43,3.11,3.11,0,0,1,1-.16,2.92,2.92,0,0,1,1.22.23,1.86,1.86,0,0,1,.83.71,2.13,2.13,0,0,1,.3,1.18v2.95a4,4,0,0,0,.06.67,2.41,2.41,0,0,0,.17.62v.09h-1.13a1.71,1.71,0,0,1-.13-.5A4.13,4.13,0,0,1,148.19,129.47Zm.19-2.76v.76h-1.1a4,4,0,0,0-.82.08,1.81,1.81,0,0,0-.61.21,1,1,0,0,0-.38.37,1.07,1.07,0,0,0-.13.51,1.15,1.15,0,0,0,.14.55,1,1,0,0,0,.4.39,1.55,1.55,0,0,0,.68.14,1.82,1.82,0,0,0,.88-.21,1.8,1.8,0,0,0,.6-.52,1.2,1.2,0,0,0,.25-.59l.46.52a1.62,1.62,0,0,1-.22.55,2.86,2.86,0,0,1-.49.57,2.59,2.59,0,0,1-.72.45,2.25,2.25,0,0,1-.92.18,2.38,2.38,0,0,1-1.13-.25,1.9,1.9,0,0,1-.75-.68,1.73,1.73,0,0,1-.27-1,2,2,0,0,1,.2-.9,1.81,1.81,0,0,1,.58-.65,2.86,2.86,0,0,1,.9-.4,4.74,4.74,0,0,1,1.18-.13Zm3.68-1.5v5.34H151v-6.34H152Zm2-1v1a1.27,1.27,0,0,0-.26,0h-.27a1.69,1.69,0,0,0-.66.12,1.27,1.27,0,0,0-.49.32,1.45,1.45,0,0,0-.31.51,2.08,2.08,0,0,0-.15.63l-.31.18a4.58,4.58,0,0,1,.12-1.08,2.72,2.72,0,0,1,.35-.89,1.78,1.78,0,0,1,.61-.61,1.7,1.7,0,0,1,.89-.22l.27,0Zm4.88,5.14v-7.77H160v9h-1Zm-4.26-1.87v-.12a5,5,0,0,1,.17-1.32,3.48,3.48,0,0,1,.51-1,2.35,2.35,0,0,1,.79-.66,2.24,2.24,0,0,1,1-.23,2.44,2.44,0,0,1,1,.21,1.92,1.92,0,0,1,.76.6,3,3,0,0,1,.5,1,6.24,6.24,0,0,1,.25,1.26v.54a5.64,5.64,0,0,1-.25,1.25,3,3,0,0,1-.5,1,2.11,2.11,0,0,1-.76.6,2.47,2.47,0,0,1-1.06.21,2.19,2.19,0,0,1-1-.24,2.64,2.64,0,0,1-.79-.67,3.75,3.75,0,0,1-.51-1A4.85,4.85,0,0,1,154.66,127.45Zm1.09-.12v.12a4.13,4.13,0,0,0,.09.89,2.46,2.46,0,0,0,.31.74,1.44,1.44,0,0,0,.52.49,1.49,1.49,0,0,0,.75.18,1.61,1.61,0,0,0,.89-.23,1.7,1.7,0,0,0,.56-.6,3.52,3.52,0,0,0,.33-.82v-1.41a3.48,3.48,0,0,0-.21-.62,1.7,1.7,0,0,0-.34-.54,1.32,1.32,0,0,0-.51-.38,1.65,1.65,0,0,0-.7-.14,1.44,1.44,0,0,0-.77.19,1.46,1.46,0,0,0-.52.5,2.36,2.36,0,0,0-.31.74A4.19,4.19,0,0,0,155.75,127.33ZM36.26,144.55H35.18v-7a2.38,2.38,0,0,1,.25-1.15,1.55,1.55,0,0,1,.72-.71,2.28,2.28,0,0,1,1.11-.25l.37,0,.38.07-.06.89a1.11,1.11,0,0,0-.28,0h-.3a1.13,1.13,0,0,0-.6.14.89.89,0,0,0-.38.39,1.6,1.6,0,0,0-.13.65Zm1.35-6.34V139H34.18v-.83Zm.92,3.24v-.13a4,4,0,0,1,.2-1.27,3,3,0,0,1,.57-1,2.65,2.65,0,0,1,.91-.68,3.12,3.12,0,0,1,2.4,0,2.56,2.56,0,0,1,.91.68,2.82,2.82,0,0,1,.58,1,3.72,3.72,0,0,1,.2,1.27v.13a3.72,3.72,0,0,1-.2,1.27,2.9,2.9,0,0,1-.58,1,2.62,2.62,0,0,1-.9.68,2.89,2.89,0,0,1-1.2.24,2.86,2.86,0,0,1-1.2-.24,2.69,2.69,0,0,1-.92-.68,3,3,0,0,1-.57-1A4,4,0,0,1,38.53,141.45Zm1.09-.13v.13a3.27,3.27,0,0,0,.11.9,2.26,2.26,0,0,0,.33.74,1.75,1.75,0,0,0,.57.51,1.67,1.67,0,0,0,.79.18,1.61,1.61,0,0,0,.78-.18,1.71,1.71,0,0,0,.56-.51,2.51,2.51,0,0,0,.34-.74,3.7,3.7,0,0,0,.11-.9v-.13a3.68,3.68,0,0,0-.11-.89,2.4,2.4,0,0,0-.34-.74,1.67,1.67,0,0,0-.57-.52,1.61,1.61,0,0,0-.78-.18,1.67,1.67,0,0,0-.79.18,1.74,1.74,0,0,0-.56.52,2.17,2.17,0,0,0-.33.74A3.24,3.24,0,0,0,39.62,141.32Zm7.13-2.11v5.34H45.66v-6.34h1.06Zm2-1v1a1.17,1.17,0,0,0-.26,0h-.27a1.69,1.69,0,0,0-.66.12,1.23,1.23,0,0,0-.48.32,1.48,1.48,0,0,0-.32.51,2.42,2.42,0,0,0-.15.63l-.3.18a4.6,4.6,0,0,1,.11-1.08,3,3,0,0,1,.36-.89,1.7,1.7,0,0,1,.61-.61,1.68,1.68,0,0,1,.89-.22l.27,0Zm6.61,6.49a3.11,3.11,0,0,1-1.21-.22,2.82,2.82,0,0,1-.91-.64,2.91,2.91,0,0,1-.59-1,3.53,3.53,0,0,1-.21-1.23v-.25a3.91,3.91,0,0,1,.23-1.38,3.11,3.11,0,0,1,.62-1,2.87,2.87,0,0,1,.89-.64,2.68,2.68,0,0,1,1-.21,2.66,2.66,0,0,1,1.17.23,2.09,2.09,0,0,1,.81.66,2.71,2.71,0,0,1,.47,1,4.82,4.82,0,0,1,.15,1.23v.49H53.07v-.89h3.65v-.08a2.94,2.94,0,0,0-.18-.82,1.41,1.41,0,0,0-.47-.66,1.35,1.35,0,0,0-.87-.25,1.51,1.51,0,0,0-.68.15,1.58,1.58,0,0,0-.54.46,2.16,2.16,0,0,0-.34.75,3.44,3.44,0,0,0-.13,1v.25a2.55,2.55,0,0,0,.13.84,2,2,0,0,0,.37.7,1.66,1.66,0,0,0,.59.46,1.7,1.7,0,0,0,.79.17,1.87,1.87,0,0,0,1-.23,2.29,2.29,0,0,0,.69-.63l.66.53a3.49,3.49,0,0,1-.52.59,2.46,2.46,0,0,1-.78.45A2.94,2.94,0,0,1,55.34,144.67Zm5.35-.12H59.6v-7a2.38,2.38,0,0,1,.25-1.15,1.65,1.65,0,0,1,.72-.71,2.28,2.28,0,0,1,1.11-.25l.38,0,.37.07-.06.89a1.11,1.11,0,0,0-.28,0h-.3a1.16,1.16,0,0,0-.6.14,1,1,0,0,0-.38.39,1.6,1.6,0,0,0-.12.65Zm1.4-6.34V139H58.6v-.83Zm2,6.34H63v-6.89a2.56,2.56,0,0,1,.27-1.22,1.84,1.84,0,0,1,.81-.75,2.79,2.79,0,0,1,1.23-.26,3.33,3.33,0,0,1,.84.1c.27.07.54.16.83.26l-.19.91a5,5,0,0,0-.62-.2,3.18,3.18,0,0,0-.77-.1,1.37,1.37,0,0,0-1,.32,1.31,1.31,0,0,0-.31.94Zm1.3-6.34V139H62v-.83Zm2.13,0v6.34H66.46v-6.34Zm4.31,5.57a1.54,1.54,0,0,0,.71-.16,1.43,1.43,0,0,0,.54-.43,1.22,1.22,0,0,0,.24-.64h1a1.93,1.93,0,0,1-.38,1,2.57,2.57,0,0,1-.91.78,2.66,2.66,0,0,1-1.23.29,2.88,2.88,0,0,1-1.25-.25,2.6,2.6,0,0,1-.88-.69,3.22,3.22,0,0,1-.52-1,4.37,4.37,0,0,1-.17-1.21v-.25a4.31,4.31,0,0,1,.17-1.21,3.12,3.12,0,0,1,.52-1,2.6,2.6,0,0,1,.88-.69,2.88,2.88,0,0,1,1.25-.25,2.71,2.71,0,0,1,1.3.3,2.22,2.22,0,0,1,.87.82,2.3,2.3,0,0,1,.35,1.17h-1a1.56,1.56,0,0,0-.22-.71,1.46,1.46,0,0,0-1.27-.69,1.58,1.58,0,0,0-.84.2,1.39,1.39,0,0,0-.53.52,2.27,2.27,0,0,0-.28.74,3.59,3.59,0,0,0-.09.81v.25a3.81,3.81,0,0,0,.09.82,2.2,2.2,0,0,0,.27.73,1.58,1.58,0,0,0,.53.53A1.81,1.81,0,0,0,71.85,143.78Zm4.92-5.57v6.34H75.68v-6.34Zm-1.17-1.68a.63.63,0,0,1,.16-.44.59.59,0,0,1,.48-.19.58.58,0,0,1,.47.19.64.64,0,0,1,.17.44.67.67,0,0,1-1.12.43A.6.6,0,0,1,75.6,136.53Zm5.54,8.14a3.09,3.09,0,0,1-1.2-.22,2.87,2.87,0,0,1-.92-.64,3.08,3.08,0,0,1-.59-1,3.78,3.78,0,0,1-.2-1.23v-.25a3.7,3.7,0,0,1,.23-1.38,3.11,3.11,0,0,1,.62-1,2.76,2.76,0,0,1,.89-.64,2.6,2.6,0,0,1,1-.21,2.66,2.66,0,0,1,1.17.23A2.13,2.13,0,0,1,83,139a2.88,2.88,0,0,1,.47,1,4.82,4.82,0,0,1,.15,1.23v.49H78.87v-.89h3.65v-.08a2.61,2.61,0,0,0-.17-.82,1.57,1.57,0,0,0-.47-.66A1.39,1.39,0,0,0,81,139a1.42,1.42,0,0,0-1.21.61,2.17,2.17,0,0,0-.35.75,3.83,3.83,0,0,0-.12,1v.25a2.84,2.84,0,0,0,.12.84,2.23,2.23,0,0,0,.37.7,1.66,1.66,0,0,0,.59.46,1.74,1.74,0,0,0,.8.17,1.83,1.83,0,0,0,1-.23,2.32,2.32,0,0,0,.7-.63l.66.53A3.17,3.17,0,0,1,83,144a2.46,2.46,0,0,1-.78.45A2.91,2.91,0,0,1,81.14,144.67Zm4.82-5.1v5H84.87v-6.34h1Zm-.26,1.57-.45,0a3.87,3.87,0,0,1,.19-1.2,3,3,0,0,1,.53-1,2.3,2.3,0,0,1,1.86-.86,2.75,2.75,0,0,1,.84.12,1.7,1.7,0,0,1,.64.4,1.75,1.75,0,0,1,.41.72,3.58,3.58,0,0,1,.14,1.06v4.15H88.77v-4.16a1.78,1.78,0,0,0-.15-.8.9.9,0,0,0-.42-.44,1.73,1.73,0,0,0-1.43,0,1.71,1.71,0,0,0-.57.47,2.36,2.36,0,0,0-.37.68A2.45,2.45,0,0,0,85.7,141.14Zm8.46-2.93V139H90.73v-.83Zm-2.27-1.54H93V143a.92.92,0,0,0,.1.49.48.48,0,0,0,.25.22,1.27,1.27,0,0,0,.34.05l.29,0,.22,0v.88a1.9,1.9,0,0,1-.34.08,2.41,2.41,0,0,1-.5,0,1.63,1.63,0,0,1-.73-.16,1.13,1.13,0,0,1-.53-.53,2.16,2.16,0,0,1-.2-1Zm10.4,6.42v-4.88h1.09v6.34h-1Zm.2-1.34h.45a4.82,4.82,0,0,1-.13,1.17,2.64,2.64,0,0,1-.42.93,2,2,0,0,1-.77.61,2.68,2.68,0,0,1-1.15.22,2.52,2.52,0,0,1-.85-.14,1.51,1.51,0,0,1-.66-.41,1.94,1.94,0,0,1-.43-.73,3.5,3.5,0,0,1-.15-1.09v-4.09h1.09v4.1a2.32,2.32,0,0,0,.09.71,1.18,1.18,0,0,0,.27.44,1,1,0,0,0,.37.23,1.59,1.59,0,0,0,.43.06,2,2,0,0,0,1.1-.26,1.52,1.52,0,0,0,.58-.72A2.8,2.8,0,0,0,102.49,141.75Zm6.23,1.12a.88.88,0,0,0-.1-.43.92.92,0,0,0-.42-.37,3.17,3.17,0,0,0-.94-.29,8.46,8.46,0,0,1-1-.27,2.71,2.71,0,0,1-.72-.37,1.49,1.49,0,0,1-.46-.51A1.45,1.45,0,0,1,105,140a1.57,1.57,0,0,1,.16-.71,1.79,1.79,0,0,1,.48-.59,2.12,2.12,0,0,1,.74-.41,3,3,0,0,1,1-.14,3,3,0,0,1,1.3.26,2,2,0,0,1,.82.73,1.77,1.77,0,0,1,.29,1h-1.08a1,1,0,0,0-.16-.51,1.15,1.15,0,0,0-.45-.42,1.47,1.47,0,0,0-.72-.16,1.6,1.6,0,0,0-.74.14,1,1,0,0,0-.4.34.89.89,0,0,0-.12.45.78.78,0,0,0,.06.31.65.65,0,0,0,.22.26,2,2,0,0,0,.44.21c.19.06.44.13.74.2a5.33,5.33,0,0,1,1.28.42,1.92,1.92,0,0,1,.75.6,1.53,1.53,0,0,1,.24.87,1.6,1.6,0,0,1-.17.76,1.68,1.68,0,0,1-.5.6,2.41,2.41,0,0,1-.77.38,3.45,3.45,0,0,1-1,.14,3,3,0,0,1-1.42-.3,2.23,2.23,0,0,1-.88-.77,1.85,1.85,0,0,1-.3-1h1.09a1.1,1.1,0,0,0,.26.7,1.21,1.21,0,0,0,.57.37,2.3,2.3,0,0,0,.68.11,2,2,0,0,0,.74-.12,1,1,0,0,0,.46-.32A.72.72,0,0,0,108.72,142.87Zm5.14,1.8a3.09,3.09,0,0,1-1.2-.22,2.87,2.87,0,0,1-.92-.64,2.91,2.91,0,0,1-.59-1,3.78,3.78,0,0,1-.2-1.23v-.25a3.7,3.7,0,0,1,.23-1.38,3.11,3.11,0,0,1,.62-1,2.76,2.76,0,0,1,.89-.64,2.6,2.6,0,0,1,1-.21,2.66,2.66,0,0,1,1.17.23,2.2,2.2,0,0,1,.82.66,2.69,2.69,0,0,1,.46,1,4.41,4.41,0,0,1,.16,1.23v.49h-4.74v-.89h3.65v-.08a2.61,2.61,0,0,0-.17-.82,1.57,1.57,0,0,0-.47-.66,1.39,1.39,0,0,0-.88-.25,1.54,1.54,0,0,0-.68.15,1.46,1.46,0,0,0-.53.46,2.17,2.17,0,0,0-.35.75,3.83,3.83,0,0,0-.12,1v.25a2.84,2.84,0,0,0,.12.84,2.23,2.23,0,0,0,.37.7,1.66,1.66,0,0,0,.59.46,1.74,1.74,0,0,0,.8.17,1.83,1.83,0,0,0,1-.23,2.32,2.32,0,0,0,.7-.63l.65.53a3.1,3.1,0,0,1-.52.59,2.46,2.46,0,0,1-.78.45A2.91,2.91,0,0,1,113.86,144.67Zm6.42-3.22v-.13a4,4,0,0,1,.2-1.27,3,3,0,0,1,.57-1,2.65,2.65,0,0,1,.91-.68,3.12,3.12,0,0,1,2.4,0,2.56,2.56,0,0,1,.91.68,2.82,2.82,0,0,1,.58,1,3.72,3.72,0,0,1,.2,1.27v.13a3.72,3.72,0,0,1-.2,1.27,2.9,2.9,0,0,1-.58,1,2.62,2.62,0,0,1-.9.68,2.89,2.89,0,0,1-1.2.24,2.86,2.86,0,0,1-1.2-.24,2.69,2.69,0,0,1-.92-.68,3,3,0,0,1-.57-1A4,4,0,0,1,120.28,141.45Zm1.09-.13v.13a3.27,3.27,0,0,0,.11.9,2.26,2.26,0,0,0,.33.74,1.75,1.75,0,0,0,.57.51,1.67,1.67,0,0,0,.79.18,1.61,1.61,0,0,0,.78-.18,1.71,1.71,0,0,0,.56-.51,2.51,2.51,0,0,0,.34-.74,3.7,3.7,0,0,0,.11-.9v-.13a3.68,3.68,0,0,0-.11-.89,2.4,2.4,0,0,0-.34-.74,1.67,1.67,0,0,0-.57-.52,1.61,1.61,0,0,0-.78-.18,1.67,1.67,0,0,0-.79.18,1.74,1.74,0,0,0-.56.52,2.17,2.17,0,0,0-.33.74A3.24,3.24,0,0,0,121.37,141.32Zm7.66,3.23H128v-7a2.51,2.51,0,0,1,.24-1.15,1.65,1.65,0,0,1,.72-.71,2.32,2.32,0,0,1,1.12-.25l.37,0,.38.07-.06.89a1.26,1.26,0,0,0-.28,0h-.31a1.16,1.16,0,0,0-.6.14.87.87,0,0,0-.37.39,1.45,1.45,0,0,0-.13.65Zm1.35-6.34V139h-3.44v-.83Zm5.56-2.19v8.53h-1.13V136Zm5,0v8.53h-1.11V136Zm2.74,0V137h-6.59V136Z"></path><path class="cls-2" d="M82.46,96.3v1.25h-5V96.47l2.32-3a7.79,7.79,0,0,0,.55-.85,3.1,3.1,0,0,0,.28-.65,1.85,1.85,0,0,0,.08-.56,2.26,2.26,0,0,0-.09-.67,1,1,0,0,0-.3-.45.66.66,0,0,0-.46-.16.84.84,0,0,0-.57.19,1.14,1.14,0,0,0-.33.53,2.67,2.67,0,0,0-.11.78h-1.5a3.32,3.32,0,0,1,.29-1.39,2.64,2.64,0,0,1,.87-1,2.44,2.44,0,0,1,1.37-.37,2.66,2.66,0,0,1,1.28.29A1.87,1.87,0,0,1,82,90a2.77,2.77,0,0,1,.28,1.27,3.22,3.22,0,0,1-.11.81,4.36,4.36,0,0,1-.32.79,5.56,5.56,0,0,1-.48.79c-.19.27-.4.54-.64.83L79.4,96.3Zm5.92-3.75V94a7.28,7.28,0,0,1-.17,1.67,3.35,3.35,0,0,1-.5,1.14,2,2,0,0,1-.76.65,2.31,2.31,0,0,1-1,.21,2.36,2.36,0,0,1-.8-.13,2.06,2.06,0,0,1-.68-.41,2.53,2.53,0,0,1-.51-.71,4,4,0,0,1-.33-1A7.15,7.15,0,0,1,83.53,94V92.55a6.76,6.76,0,0,1,.17-1.67,3.2,3.2,0,0,1,.51-1.13,1.84,1.84,0,0,1,.76-.64,2.31,2.31,0,0,1,1-.21,2.63,2.63,0,0,1,.8.13,1.87,1.87,0,0,1,.67.41,2.22,2.22,0,0,1,.51.7,3.56,3.56,0,0,1,.33,1A7.15,7.15,0,0,1,88.38,92.55Zm-1.5,1.66V92.33a7.13,7.13,0,0,0,0-.85,3,3,0,0,0-.12-.61,1.11,1.11,0,0,0-.18-.41.83.83,0,0,0-.27-.23.64.64,0,0,0-.31-.07.71.71,0,0,0-.39.11.94.94,0,0,0-.29.37,2.35,2.35,0,0,0-.19.67,7.36,7.36,0,0,0-.06,1v1.88a7.13,7.13,0,0,0,0,.85,4,4,0,0,0,.12.62,1.5,1.5,0,0,0,.19.42.73.73,0,0,0,.26.24.72.72,0,0,0,.32.08.65.65,0,0,0,.39-.12.89.89,0,0,0,.29-.38,2.46,2.46,0,0,0,.18-.68A7.62,7.62,0,0,0,86.88,94.21ZM93.08,89v8.55H91.57V90.86l-1.66.66V90.25l3-1.25Zm7.56,5.42v1.25H95.43l-.06-1,3-5.68h1.19l-1.22,2.32-1.43,3.08ZM99.87,89v8.53H98.36V89Z"></path></svg>