<svg xmlns="http://www.w3.org/2000/svg" xmlns:xlink="http://www.w3.org/1999/xlink" id="Layer_1" data-name="Layer 1" viewBox="0 0 177 166"><defs><style>.cls-1{fill:none;}.cls-2{clip-path:url(#clip-path);}.cls-3{fill:#61686d;}.cls-4{fill:#fff;}</style><clipPath id="clip-path"><rect class="cls-1" width="177" height="166"></rect></clipPath></defs><g class="cls-2"><path class="cls-3" d="M140.37,68.4c-2.58,1.81-3,3.77-3.07,4.31-.41.25-.79.46-1.14.65.55-.91,1.07-1.84,1.54-2.79a41.58,41.58,0,0,0,2.06-5c.06-.19.13-.38.19-.56a13.62,13.62,0,0,1,2-3.92l.17-.24c7.24-4,3.92-12,3.92-12,.11,1.79-1.61,3.15-3.39,6.4-1.5,2.77-1,4.71-.82,5.23-.36.57-.71,1.07-1,1.49q.18-.78.33-1.56a38.45,38.45,0,0,0,.62-5.35l0-.67c0-.22,0-.44,0-.67V52.34c0-.45,0-.9-.05-1.35,0-.22,0-.44,0-.66l-.06-.67a5,5,0,0,1,.07-1.33l.52-2.55c5.28-6.35-.78-12.65-.78-12.65.76,1.62-.34,3.52-.8,7.2-.38,3.13.8,4.75,1.16,5.16-.15.75-.3,1.39-.43,1.92l-.06-.42c-.05-.44-.15-.88-.23-1.32L141,45c0-.22-.08-.44-.14-.65-.21-.87-.41-1.74-.69-2.59l-.19-.64-.1-.31-.11-.32-.45-1.26c-.29-.72-.59-1.45-.91-2.17a11.65,11.65,0,0,1-1-4.07c0-.33,0-.65-.08-1,2.84-7.75-5-11.65-5-11.65,1.26,1.27.85,3.43,1.67,7,.68,3.08,2.35,4.21,2.83,4.48.15,1.05.23,1.93.27,2.55l0-.07-.32-.59c-.11-.2-.23-.38-.34-.58l-.69-1.14L135,31l-.38-.55-.4-.54c-.4-.57-.84-1.12-1.29-1.66-.62-.79-1.48-1.94-2.22-2.76a5.66,5.66,0,0,1-.88-1.29c-3.26-6.86-11.2-4.93-11.2-4.93,1.78.11,2.92,2,5.93,4.15a6.65,6.65,0,0,0,5,1.49l.26.08.91,1A36.48,36.48,0,0,1,134,30.05l.38.54c.13.18.24.37.36.55l.71,1.12.3.53A22.35,22.35,0,0,0,133.32,31C129,24,121.11,27.65,121.11,27.65c1.78-.19,3.21,1.47,6.54,3.09,2.84,1.38,4.75.79,5.26.58C134,32,135,32.64,135.54,33a2.68,2.68,0,0,1,.82.95h0l.3.59a36.93,36.93,0,0,1,2.08,4.84l.41,1.25.1.31.1.32.17.63c.25.84.42,1.71.61,2.56.05.22.09.43.13.65h0a24.34,24.34,0,0,0-1.67-2.25c-2-8-10.7-6.8-10.7-6.8,1.76.34,2.65,2.35,5.36,4.87,2.31,2.15,4.32,2.15,4.86,2.1.62.67,1.13,1.28,1.51,1.75a4.17,4.17,0,0,1,.93,2.26h0l.16,1.31,0,.32,0,.33,0,.65,0,.66c0,.21,0,.43,0,.65,0,.44,0,.87,0,1.31l0,1.32c0,.21,0,.43,0,.65l0,.65c-.07,1-.17,1.89-.31,2.82a20.92,20.92,0,0,0-.65-2.24c1-8.19-7.56-10.17-7.56-10.17,1.52.95,1.63,3.14,3.27,6.46,1.39,2.84,3.26,3.55,3.79,3.7.2.51.37,1,.52,1.4a5.78,5.78,0,0,1,.2,3.19v0a39.44,39.44,0,0,1-1.44,5,43.19,43.19,0,0,1-2.11,4.77c-.24.45-.49.89-.75,1.33a23.23,23.23,0,0,0,.27-2.67c3.89-7.28-3.31-12.22-3.31-12.22,1.07,1.43.37,3.51.67,7.21.25,3.14,1.73,4.49,2.17,4.82v.35a9.8,9.8,0,0,1-1.78,5.59s0,0,0,0a37.38,37.38,0,0,1-3.32,4c-.3.3-.59.63-.91.93l-.93.89s0,0,0,0c.28-.51.54-1,.78-1.51C135.74,73.45,131,66.1,131,66.1c.44,1.74-1,3.38-2.18,6.91-1,3-.14,4.81.13,5.28-.18.45-.37.87-.54,1.24a6.26,6.26,0,0,1-1.81,2.33h0a36.87,36.87,0,0,1-4.26,3c-.87.51-1.75,1-2.65,1.43.37-.39.72-.78,1-1.16,6.14-2.84,3.88-9.63,3.88-9.63,0,1.46-1.49,2.48-3.12,5a5.32,5.32,0,0,0-1,4.22c-.2.27-.39.52-.57.74a5.65,5.65,0,0,1-2.21,1.69,0,0,0,0,1,0,0,42,42,0,0,1-4.88,1.69h0a1.09,1.09,0,1,0,.62,2.09,39.09,39.09,0,0,0,9.9-4.51c.92-.57,1.82-1.2,2.68-1.86A7.88,7.88,0,0,1,130.09,83c7.71,3,11.72-4.8,11.72-4.8-1.29,1.24-3.45.81-7.07,1.56-3.09.64-4.24,2.29-4.52,2.76-.74.1-1.39.16-1.94.19.5-.43,1-.88,1.45-1.32l1-1c.32-.32.61-.67.92-1A39.22,39.22,0,0,0,135,75.19l.06-.09a5.15,5.15,0,0,1,2-1.73l.38-.2c8.25-.31,8.9-9,8.9-9C145.56,65.84,143.41,66.28,140.37,68.4Z"></path><path class="cls-3" d="M37.4,68.4c2.58,1.81,3,3.77,3.07,4.31.41.25.79.46,1.14.65-.55-.91-1.07-1.84-1.55-2.79a41.52,41.52,0,0,1-2.05-5c-.07-.19-.13-.38-.19-.56a13.62,13.62,0,0,0-2-3.92l-.17-.24c-7.24-4-3.92-12-3.92-12-.11,1.79,1.61,3.15,3.38,6.4,1.51,2.77,1,4.71.82,5.23.37.57.72,1.07,1,1.49q-.18-.78-.33-1.56A37,37,0,0,1,36,55l0-.67c0-.22,0-.44,0-.67V52.34c0-.45,0-.9,0-1.35,0-.22,0-.44,0-.66l.07-.67a5,5,0,0,0-.07-1.33l-.52-2.55c-5.28-6.35.77-12.65.77-12.65-.75,1.62.35,3.52.8,7.2.39,3.13-.8,4.75-1.16,5.16.16.75.31,1.39.44,1.92l.06-.42c0-.44.15-.88.23-1.32l.13-.66c0-.22.08-.44.14-.65.21-.87.41-1.74.69-2.59l.19-.64.1-.31.11-.32.45-1.26c.29-.72.58-1.45.9-2.17a11.66,11.66,0,0,0,1-4.07c0-.33,0-.65.08-1-2.84-7.75,5-11.65,5-11.65-1.26,1.27-.86,3.43-1.67,7-.69,3.08-2.35,4.21-2.83,4.48-.15,1.05-.23,1.93-.27,2.55l0-.07.32-.59c.1-.2.23-.38.34-.58l.69-1.14.74-1.1.38-.55.39-.54c.41-.57.84-1.12,1.29-1.66.63-.79,1.49-1.94,2.23-2.76A5.66,5.66,0,0,0,48,24.18c3.25-6.86,11.2-4.93,11.2-4.93-1.78.11-2.92,2-5.93,4.15a6.65,6.65,0,0,1-4.95,1.49l-.26.08-.91,1a36.48,36.48,0,0,0-3.32,4.12l-.39.54c-.12.18-.23.37-.36.55l-.71,1.12-.3.53A22.35,22.35,0,0,1,44.44,31c4.29-7.06,12.21-3.38,12.21-3.38-1.77-.19-3.21,1.47-6.54,3.09-2.84,1.38-4.75.79-5.26.58-1.13.67-2.08,1.32-2.63,1.71a2.68,2.68,0,0,0-.82.95h0l-.3.59A36.93,36.93,0,0,0,39,39.42l-.41,1.25-.1.31-.09.32-.18.63c-.25.84-.42,1.71-.61,2.56-.05.22-.09.43-.12.65h0a22.61,22.61,0,0,1,1.66-2.25c2-8,10.7-6.8,10.7-6.8-1.76.34-2.65,2.35-5.36,4.87-2.31,2.15-4.31,2.15-4.86,2.1-.61.67-1.13,1.28-1.5,1.75a4.11,4.11,0,0,0-.94,2.26h0l-.16,1.31,0,.32,0,.33,0,.65,0,.66c0,.21,0,.43,0,.65,0,.44,0,.87,0,1.31l0,1.32c0,.21,0,.43,0,.65l.05.65c.07,1,.18,1.89.31,2.82.19-.78.4-1.53.65-2.24-1-8.19,7.56-10.17,7.56-10.17-1.52.95-1.63,3.14-3.27,6.46-1.39,2.84-3.26,3.55-3.79,3.7-.2.51-.37,1-.52,1.4a5.78,5.78,0,0,0-.2,3.19s0,0,0,0a37.83,37.83,0,0,0,1.43,5,41.45,41.45,0,0,0,2.12,4.77c.23.45.48.89.74,1.33a21.13,21.13,0,0,1-.26-2.67c-3.9-7.28,3.3-12.22,3.3-12.22-1.07,1.43-.36,3.51-.66,7.21-.25,3.14-1.74,4.49-2.18,4.82v.35A9.8,9.8,0,0,0,44,74.32l0,0a37.38,37.38,0,0,0,3.32,4c.3.3.59.63.91.93l.93.89,0,0c-.28-.51-.54-1-.78-1.51C42,73.45,46.75,66.1,46.75,66.1c-.43,1.74,1,3.38,2.19,6.91,1,3,.13,4.81-.14,5.28.19.45.38.87.55,1.24a6.16,6.16,0,0,0,1.81,2.33h0a36.87,36.87,0,0,0,4.26,3c.86.51,1.75,1,2.65,1.43-.37-.39-.72-.78-1-1.16-6.14-2.84-3.89-9.63-3.89-9.63,0,1.46,1.5,2.48,3.13,5a5.37,5.37,0,0,1,1,4.22c.2.27.38.52.57.74A5.69,5.69,0,0,0,60,87.16h0a42,42,0,0,0,4.88,1.69h0A1.09,1.09,0,1,1,64.33,91a39.09,39.09,0,0,1-9.9-4.51c-.92-.57-1.82-1.2-2.69-1.86A7.82,7.82,0,0,0,47.68,83C40,86,36,78.22,36,78.22c1.29,1.24,3.44.81,7.07,1.56,3.09.64,4.24,2.29,4.52,2.76.74.1,1.39.16,1.94.19-.5-.43-1-.88-1.45-1.32l-.95-1c-.33-.32-.61-.67-.93-1a40.4,40.4,0,0,1-3.34-4.26l-.06-.09a5.15,5.15,0,0,0-1.95-1.73l-.38-.2c-8.25-.31-8.9-9-8.9-9C32.21,65.84,34.36,66.28,37.4,68.4Z"></path><path class="cls-4" d="M74.14,33.47V42H72.75l-3-5.91V42H68.36V33.47h1.37l3,6v-6Zm4.44,7.24V37.55a1.33,1.33,0,0,0-.09-.53.59.59,0,0,0-.26-.28.94.94,0,0,0-.43-.09.83.83,0,0,0-.46.11.74.74,0,0,0-.28.3,1,1,0,0,0-.09.43H75.6a1.88,1.88,0,0,1,.16-.73,1.93,1.93,0,0,1,.45-.63,2.17,2.17,0,0,1,.71-.43,2.83,2.83,0,0,1,2,0,1.55,1.55,0,0,1,.74.65A2.16,2.16,0,0,1,80,37.57v3a4.65,4.65,0,0,0,0,.78,2.89,2.89,0,0,0,.16.6V42H78.77a2.44,2.44,0,0,1-.14-.59A5.49,5.49,0,0,1,78.58,40.71Zm.18-2.57V39h-.66a1.67,1.67,0,0,0-.52.08,1.2,1.2,0,0,0-.4.23.94.94,0,0,0-.25.34,1.34,1.34,0,0,0-.08.46,1.3,1.3,0,0,0,.08.48.57.57,0,0,0,.25.28.88.88,0,0,0,.41.09,1.15,1.15,0,0,0,.57-.14,1.08,1.08,0,0,0,.38-.35.52.52,0,0,0,.1-.38l.31.57a1.91,1.91,0,0,1-.17.47,2,2,0,0,1-.33.47,1.48,1.48,0,0,1-1.13.5,2.11,2.11,0,0,1-1-.22,1.74,1.74,0,0,1-.65-.64,2,2,0,0,1-.24-1,2.35,2.35,0,0,1,.16-.86,1.74,1.74,0,0,1,.47-.66,2.12,2.12,0,0,1,.78-.44A3.73,3.73,0,0,1,78,38.14Zm5.15-2.48v1.05H80.8V35.66Zm-2.26-1.55H83v6.12a1.32,1.32,0,0,0,.06.45.33.33,0,0,0,.18.2.61.61,0,0,0,.28,0h.23l.17,0V42l-.36.1a3.08,3.08,0,0,1-.48,0,1.53,1.53,0,0,1-.74-.18,1.26,1.26,0,0,1-.52-.57,2.54,2.54,0,0,1-.18-1Zm4.77,1.55V42H85.05V35.66ZM85,34a.77.77,0,0,1,.2-.54.8.8,0,0,1,1.11,0,.76.76,0,0,1,.2.55.76.76,0,0,1-.2.54.71.71,0,0,1-.55.21.73.73,0,0,1-.56-.21A.8.8,0,0,1,85,34Zm2.7,5.09v-.51a4.37,4.37,0,0,1,.18-1.31,2.7,2.7,0,0,1,.51-1,2.17,2.17,0,0,1,.8-.58,2.56,2.56,0,0,1,1-.2,2.61,2.61,0,0,1,1,.2,2.06,2.06,0,0,1,.79.58,2.73,2.73,0,0,1,.53,1,4.37,4.37,0,0,1,.18,1.31v.51a4.37,4.37,0,0,1-.18,1.31,2.82,2.82,0,0,1-.53,1,2.14,2.14,0,0,1-.79.57,2.65,2.65,0,0,1-2,0,2.26,2.26,0,0,1-.8-.57,2.64,2.64,0,0,1-.52-1A4.37,4.37,0,0,1,87.68,39.09ZM89,38.58v.51a4.1,4.1,0,0,0,.08.83,2.14,2.14,0,0,0,.24.59,1.09,1.09,0,0,0,.36.35.94.94,0,0,0,.47.12,1,1,0,0,0,.5-.12,1.09,1.09,0,0,0,.36-.35,2.14,2.14,0,0,0,.21-.59,4.15,4.15,0,0,0,.07-.83v-.51a3.93,3.93,0,0,0-.08-.82,1.69,1.69,0,0,0-.23-.59,1.15,1.15,0,0,0-.37-.36.94.94,0,0,0-.47-.12,1,1,0,0,0-.47.12,1.1,1.1,0,0,0-.35.36,1.91,1.91,0,0,0-.24.59A3.93,3.93,0,0,0,89,38.58ZM95.22,37v5H93.86V35.66h1.28ZM95,38.6h-.44a4.92,4.92,0,0,1,.15-1.25,3.25,3.25,0,0,1,.43-1,2,2,0,0,1,.68-.62,1.79,1.79,0,0,1,.89-.23,1.83,1.83,0,0,1,.68.13,1.26,1.26,0,0,1,.54.41,1.91,1.91,0,0,1,.34.73,4.31,4.31,0,0,1,.13,1.1V42H97V37.9a1.89,1.89,0,0,0-.1-.7.71.71,0,0,0-.28-.38.88.88,0,0,0-.48-.12.85.85,0,0,0-.48.15,1.3,1.3,0,0,0-.38.42,2,2,0,0,0-.23.6A2.87,2.87,0,0,0,95,38.6Zm7.71,2.11V37.55a1.17,1.17,0,0,0-.1-.53.51.51,0,0,0-.26-.28.91.91,0,0,0-.43-.09.79.79,0,0,0-.45.11.63.63,0,0,0-.28.3,1,1,0,0,0-.09.43H99.71a1.87,1.87,0,0,1,.15-.73,2.28,2.28,0,0,1,.45-.63,2.41,2.41,0,0,1,.71-.43,2.75,2.75,0,0,1,.93-.16,2.6,2.6,0,0,1,1.08.21,1.53,1.53,0,0,1,.75.65,2.25,2.25,0,0,1,.27,1.17v3a4.58,4.58,0,0,0,.06.78,2.92,2.92,0,0,0,.15.6V42h-1.38a2.4,2.4,0,0,1-.15-.59A5.48,5.48,0,0,1,102.69,40.71Zm.18-2.57V39h-.66a1.74,1.74,0,0,0-.53.08,1.31,1.31,0,0,0-.4.23,1,1,0,0,0-.24.34,1.14,1.14,0,0,0-.09.46,1.11,1.11,0,0,0,.09.48.57.57,0,0,0,.25.28.86.86,0,0,0,.41.09,1.15,1.15,0,0,0,.57-.14,1,1,0,0,0,.37-.35.54.54,0,0,0,.11-.38l.31.57a1.62,1.62,0,0,1-.18.47,2.3,2.3,0,0,1-.32.47,1.44,1.44,0,0,1-.48.36,1.48,1.48,0,0,1-.65.14,2.08,2.08,0,0,1-1-.22,1.69,1.69,0,0,1-.66-.64,2.12,2.12,0,0,1-.23-1,2.16,2.16,0,0,1,.16-.86,1.63,1.63,0,0,1,.47-.66,2,2,0,0,1,.78-.44,3.61,3.61,0,0,1,1.1-.15Zm4-5.14v9h-1.36V33ZM67.73,45.64,65.67,53H64.18l2.71-8.53h.92ZM69.38,53l-2.07-7.36-.1-1.17h.94L70.87,53Zm0-3.17V51h-4V49.83Zm3.53,1.75,1.24-4.92H75l-.17,1.51L73.64,53h-.76Zm-.52-4.92,1,4.94V53h-.85l-1.43-6.34ZM76,51.54,77,46.66h1.33L76.86,53H76Zm-.85-4.88,1.22,4.86L76.5,53h-.76l-1.26-4.83-.16-1.51Zm7,5.05V48.55a1.33,1.33,0,0,0-.09-.53.57.57,0,0,0-.27-.28.87.87,0,0,0-.42-.09.85.85,0,0,0-.46.11.74.74,0,0,0-.28.3,1,1,0,0,0-.09.43H79.19a1.87,1.87,0,0,1,.15-.73,1.93,1.93,0,0,1,.45-.63,2.17,2.17,0,0,1,.71-.43,2.65,2.65,0,0,1,.92-.16,2.68,2.68,0,0,1,1.09.21,1.55,1.55,0,0,1,.74.65,2.16,2.16,0,0,1,.28,1.17v3a6,6,0,0,0,0,.78,2.89,2.89,0,0,0,.16.6V53H82.35a2.44,2.44,0,0,1-.14-.59A5.49,5.49,0,0,1,82.16,51.71Zm.18-2.57V50h-.66a1.42,1.42,0,0,0-.52.09,1,1,0,0,0-.4.22.94.94,0,0,0-.25.34,1.34,1.34,0,0,0-.08.46,1.3,1.3,0,0,0,.08.48.57.57,0,0,0,.25.28.88.88,0,0,0,.41.09,1.15,1.15,0,0,0,.57-.14,1.08,1.08,0,0,0,.38-.35.52.52,0,0,0,.1-.38l.31.57a1.91,1.91,0,0,1-.17.47,2.3,2.3,0,0,1-.32.47,1.6,1.6,0,0,1-.49.36,1.45,1.45,0,0,1-.65.14,2,2,0,0,1-1-.23,1.64,1.64,0,0,1-.65-.63,2,2,0,0,1-.24-1,2.31,2.31,0,0,1,.16-.86,1.74,1.74,0,0,1,.47-.66,2.12,2.12,0,0,1,.78-.44,3.73,3.73,0,0,1,1.11-.15Zm4-1.26V53H84.93V46.66h1.3Zm1.53-1.26V48l-.26,0h-.25a1.07,1.07,0,0,0-.49.1.87.87,0,0,0-.34.29,1.36,1.36,0,0,0-.23.45,2.52,2.52,0,0,0-.09.59l-.3,0a6.36,6.36,0,0,1,.1-1.11,3.28,3.28,0,0,1,.28-.9,1.63,1.63,0,0,1,.48-.6,1.12,1.12,0,0,1,.67-.22l.24,0A.56.56,0,0,1,87.82,46.62Zm4,5.06V44H93.2v9H92Zm-3.4-1.59v-.5a5.38,5.38,0,0,1,.14-1.35,2.68,2.68,0,0,1,.41-1,1.6,1.6,0,0,1,.66-.56,1.92,1.92,0,0,1,.87-.19,1.54,1.54,0,0,1,.82.22,1.78,1.78,0,0,1,.59.6,3.84,3.84,0,0,1,.38.94,6.78,6.78,0,0,1,.2,1.21v.69a7.79,7.79,0,0,1-.21,1.18,3.11,3.11,0,0,1-.38.92,1.92,1.92,0,0,1-.59.61,1.53,1.53,0,0,1-.81.21,1.93,1.93,0,0,1-.88-.2,1.76,1.76,0,0,1-.65-.57,2.7,2.7,0,0,1-.41-.94A5.24,5.24,0,0,1,88.43,50.09Zm1.36-.5v.5a5.17,5.17,0,0,0,.06.84,1.8,1.8,0,0,0,.19.58.83.83,0,0,0,.34.33,1.13,1.13,0,0,0,.51.11,1,1,0,0,0,.61-.19,1.19,1.19,0,0,0,.36-.51,2.55,2.55,0,0,0,.19-.71V49.17a3.2,3.2,0,0,0-.11-.57,1.87,1.87,0,0,0-.23-.47,1.15,1.15,0,0,0-.35-.31.89.89,0,0,0-.47-.12,1,1,0,0,0-.51.12.88.88,0,0,0-.34.35,1.88,1.88,0,0,0-.19.58A5.17,5.17,0,0,0,89.79,49.59Zm7.74,1.74a.55.55,0,0,0-.12-.35,1,1,0,0,0-.36-.31,6,6,0,0,0-.67-.33A7.31,7.31,0,0,1,95.6,50a3.45,3.45,0,0,1-.58-.4,1.6,1.6,0,0,1-.35-.51,1.57,1.57,0,0,1-.13-.67,1.8,1.8,0,0,1,.15-.73,1.83,1.83,0,0,1,.42-.58,2,2,0,0,1,.66-.4,2.42,2.42,0,0,1,.88-.15,2.66,2.66,0,0,1,1.17.25,1.76,1.76,0,0,1,.75.7,2,2,0,0,1,.26,1H97.47a1,1,0,0,0-.09-.43.71.71,0,0,0-.27-.32.83.83,0,0,0-.46-.12.87.87,0,0,0-.44.1A.69.69,0,0,0,96,48a.86.86,0,0,0-.08.36.55.55,0,0,0,.06.26.65.65,0,0,0,.17.22,2.18,2.18,0,0,0,.33.2l.53.24a7.05,7.05,0,0,1,1.06.51,1.91,1.91,0,0,1,.64.62,1.65,1.65,0,0,1,.21.87,1.84,1.84,0,0,1-.16.76,1.61,1.61,0,0,1-.45.59,2.09,2.09,0,0,1-.69.38,3.17,3.17,0,0,1-.91.13,2.5,2.5,0,0,1-1.26-.3,2,2,0,0,1-.77-.76,2,2,0,0,1-.26-1h1.32a1.15,1.15,0,0,0,.15.58.83.83,0,0,0,.37.3,1.49,1.49,0,0,0,.47.07,1.29,1.29,0,0,0,.47-.07.67.67,0,0,0,.38-.62Zm5.09-1.24v-.51a4.37,4.37,0,0,1,.18-1.31,2.88,2.88,0,0,1,.52-1,2.17,2.17,0,0,1,.8-.58,2.51,2.51,0,0,1,1-.2,2.54,2.54,0,0,1,1,.2,2.09,2.09,0,0,1,.8.58,2.56,2.56,0,0,1,.52,1,4.37,4.37,0,0,1,.18,1.31v.51a4.25,4.25,0,0,1-.18,1.3,2.61,2.61,0,0,1-.52,1,2.11,2.11,0,0,1-.79.57,2.53,2.53,0,0,1-1,.2,2.61,2.61,0,0,1-1-.2,2.11,2.11,0,0,1-.79-.57,2.78,2.78,0,0,1-.53-1A4.25,4.25,0,0,1,102.62,50.09Zm1.37-.51v.51a4.1,4.1,0,0,0,.08.83,1.86,1.86,0,0,0,.23.59,1.22,1.22,0,0,0,.37.35.91.91,0,0,0,.47.12,1,1,0,0,0,.5-.12,1,1,0,0,0,.35-.35,1.86,1.86,0,0,0,.22-.59,4.15,4.15,0,0,0,.07-.83v-.51a3.93,3.93,0,0,0-.08-.82,1.91,1.91,0,0,0-.24-.59,1,1,0,0,0-.37-.36.91.91,0,0,0-.47-.12.93.93,0,0,0-.46.12,1.12,1.12,0,0,0-.36.36,1.69,1.69,0,0,0-.23.59A3.93,3.93,0,0,0,104,49.58ZM110.17,48v5H108.8V46.66h1.29Zm-.25,1.59h-.43a4.92,4.92,0,0,1,.15-1.25,3,3,0,0,1,.43-1,2,2,0,0,1,.68-.62,1.79,1.79,0,0,1,.89-.23,1.87,1.87,0,0,1,.68.13,1.26,1.26,0,0,1,.54.41,1.91,1.91,0,0,1,.34.73,4.35,4.35,0,0,1,.12,1.1V53H112V48.9a2.12,2.12,0,0,0-.1-.7.71.71,0,0,0-.28-.38.9.9,0,0,0-.48-.12.88.88,0,0,0-.49.15,1.4,1.4,0,0,0-.37.42,2,2,0,0,0-.23.6A2.86,2.86,0,0,0,109.92,49.6ZM61.55,62.81V64h-3.7V62.81Zm-3.33-7.34V64H56.8V55.47ZM61.05,59v1.17h-3.2V59Zm.46-3.55v1.19H57.85V55.47Zm3.59,4.31v1.15H62.45V59.78ZM72,59.62V63a3.64,3.64,0,0,1-.48.46,2.92,2.92,0,0,1-.85.47,4,4,0,0,1-1.35.2,3.35,3.35,0,0,1-1.25-.23,2.42,2.42,0,0,1-1-.67,3.1,3.1,0,0,1-.62-1.12,5.18,5.18,0,0,1-.22-1.61V59a5.75,5.75,0,0,1,.2-1.59,3,3,0,0,1,.58-1.13,2.28,2.28,0,0,1,.92-.68,3.5,3.5,0,0,1,1.26-.22,3.19,3.19,0,0,1,1.49.32,2.1,2.1,0,0,1,.92.92A3.52,3.52,0,0,1,72,58.08H70.64a2.64,2.64,0,0,0-.21-.87A1.06,1.06,0,0,0,70,56.7a1.59,1.59,0,0,0-.74-.16,1.68,1.68,0,0,0-.7.14,1.12,1.12,0,0,0-.48.44,2.35,2.35,0,0,0-.28.75A6.85,6.85,0,0,0,67.71,59v1.53a4.53,4.53,0,0,0,.11,1.11,2.13,2.13,0,0,0,.32.76,1.37,1.37,0,0,0,.53.43,1.83,1.83,0,0,0,.73.14,2.15,2.15,0,0,0,.63-.08,1.49,1.49,0,0,0,.36-.19l.22-.16V60.74H69.23V59.62Zm1.17,1.47v-.51a4.37,4.37,0,0,1,.18-1.31,2.7,2.7,0,0,1,.51-1,2.25,2.25,0,0,1,.8-.58,2.53,2.53,0,0,1,1-.2,2.61,2.61,0,0,1,1,.2,2.06,2.06,0,0,1,.79.58,2.56,2.56,0,0,1,.52,1,4.06,4.06,0,0,1,.19,1.31v.51a4,4,0,0,1-.19,1.3,2.61,2.61,0,0,1-.52,1,2,2,0,0,1-.79.57,2.65,2.65,0,0,1-2,0,2.14,2.14,0,0,1-.8-.57,2.61,2.61,0,0,1-.52-1A4.25,4.25,0,0,1,73.19,61.09Zm1.36-.51v.51a4.1,4.1,0,0,0,.08.83,2.14,2.14,0,0,0,.24.59,1.09,1.09,0,0,0,.36.35.94.94,0,0,0,.47.12,1,1,0,0,0,.5-.12,1,1,0,0,0,.35-.35,1.65,1.65,0,0,0,.22-.59,4.15,4.15,0,0,0,.07-.83v-.51a3.93,3.93,0,0,0-.08-.82,1.52,1.52,0,0,0-.24-.59,1,1,0,0,0-.36-.36.94.94,0,0,0-.47-.12.9.9,0,0,0-.46.12,1,1,0,0,0-.36.36,1.91,1.91,0,0,0-.24.59A3.93,3.93,0,0,0,74.55,60.58Zm6.51,2.28,1.17-5.2h1.41L81.84,64H81Zm-.83-5.2,1.21,5.22L81.5,64h-.87l-1.81-6.34Zm6.68,6.46a3.13,3.13,0,0,1-1.1-.18,2.2,2.2,0,0,1-.81-.55,2.45,2.45,0,0,1-.51-.91,3.92,3.92,0,0,1-.18-1.25v-.6a4.74,4.74,0,0,1,.18-1.39,2.74,2.74,0,0,1,.52-1,2.06,2.06,0,0,1,.77-.55,2.45,2.45,0,0,1,1-.19,2.54,2.54,0,0,1,1,.2,1.69,1.69,0,0,1,.72.58,2.52,2.52,0,0,1,.42,1,5.21,5.21,0,0,1,.14,1.31v.68H85v-1h2.76v-.14a2.72,2.72,0,0,0-.1-.75.92.92,0,0,0-.31-.48.85.85,0,0,0-.56-.17,1.12,1.12,0,0,0-.47.1.8.8,0,0,0-.34.32,1.91,1.91,0,0,0-.2.6,4.78,4.78,0,0,0-.07.92v.6a3.17,3.17,0,0,0,.08.81,1.36,1.36,0,0,0,.26.54,1.12,1.12,0,0,0,.41.3A1.61,1.61,0,0,0,87,63a1.73,1.73,0,0,0,.81-.18,2.12,2.12,0,0,0,.6-.47l.6.84a2.19,2.19,0,0,1-.46.45,2.79,2.79,0,0,1-.69.36A3,3,0,0,1,86.91,64.12Zm4.63-5.23V64H90.18V57.66h1.3Zm1.53-1.27V59l-.26,0h-.25a1.07,1.07,0,0,0-.49.1.87.87,0,0,0-.34.29,1.36,1.36,0,0,0-.23.45,2.53,2.53,0,0,0-.09.6h-.3a6.36,6.36,0,0,1,.1-1.11,3.28,3.28,0,0,1,.28-.9,1.72,1.72,0,0,1,.48-.6,1.06,1.06,0,0,1,.67-.22l.24,0A.56.56,0,0,1,93.07,57.62ZM95.36,59v5H94V57.66h1.28Zm-.25,1.59h-.43a4.48,4.48,0,0,1,.14-1.25,3.27,3.27,0,0,1,.44-1,2,2,0,0,1,.68-.62,1.75,1.75,0,0,1,.88-.23,1.93,1.93,0,0,1,.69.13,1.26,1.26,0,0,1,.54.41,1.91,1.91,0,0,1,.34.73,4.35,4.35,0,0,1,.12,1.1V64H97.14V59.9a2.16,2.16,0,0,0-.09-.7.68.68,0,0,0-.29-.38.84.84,0,0,0-.47-.12.8.8,0,0,0-.49.16,1.14,1.14,0,0,0-.37.41,2.35,2.35,0,0,0-.24.6A3.4,3.4,0,0,0,95.11,60.6Zm7.71,2.11V59.55a1.33,1.33,0,0,0-.09-.53.57.57,0,0,0-.27-.28.87.87,0,0,0-.42-.1.83.83,0,0,0-.46.12.74.74,0,0,0-.28.3,1,1,0,0,0-.09.43H99.85a1.87,1.87,0,0,1,.15-.73,1.79,1.79,0,0,1,.45-.62,2,2,0,0,1,.71-.44,2.83,2.83,0,0,1,2,0,1.55,1.55,0,0,1,.74.65,2.16,2.16,0,0,1,.28,1.17v3a4.65,4.65,0,0,0,0,.78,2.89,2.89,0,0,0,.16.6V64H103a2.44,2.44,0,0,1-.14-.59A5.49,5.49,0,0,1,102.82,62.71Zm.18-2.57V61h-.66a1.42,1.42,0,0,0-.52.09,1,1,0,0,0-.4.22.94.94,0,0,0-.25.34,1.34,1.34,0,0,0-.08.46,1.3,1.3,0,0,0,.08.48.57.57,0,0,0,.25.28.88.88,0,0,0,.41.09,1.15,1.15,0,0,0,.57-.14,1.08,1.08,0,0,0,.38-.35.52.52,0,0,0,.1-.38l.31.57a1.91,1.91,0,0,1-.17.47,2,2,0,0,1-.33.47,1.44,1.44,0,0,1-1.13.5,2,2,0,0,1-.95-.23,1.64,1.64,0,0,1-.65-.63,2,2,0,0,1-.24-1,2.31,2.31,0,0,1,.16-.86,1.74,1.74,0,0,1,.47-.66,2.12,2.12,0,0,1,.78-.44,3.73,3.73,0,0,1,1.11-.15ZM106.94,59v5h-1.37V57.66h1.28Zm-.25,1.59h-.43a4.48,4.48,0,0,1,.14-1.25,3,3,0,0,1,.44-1,1.91,1.91,0,0,1,.68-.62,1.75,1.75,0,0,1,.88-.23,1.93,1.93,0,0,1,.69.13,1.18,1.18,0,0,1,.53.41,1.77,1.77,0,0,1,.34.73,3.9,3.9,0,0,1,.13,1.1V64h-1.37V59.9a1.89,1.89,0,0,0-.1-.7.63.63,0,0,0-.28-.38.84.84,0,0,0-.47-.12.8.8,0,0,0-.49.16,1.14,1.14,0,0,0-.37.41,2,2,0,0,0-.24.6A3.4,3.4,0,0,0,106.69,60.6Zm7,2.38a.91.91,0,0,0,.47-.12.78.78,0,0,0,.33-.34,1.53,1.53,0,0,0,.14-.62h1.28a2.31,2.31,0,0,1-.31,1.17,2.14,2.14,0,0,1-.8.78,2.23,2.23,0,0,1-1.09.27,2.84,2.84,0,0,1-1.1-.2,2.15,2.15,0,0,1-.77-.59,2.65,2.65,0,0,1-.45-.94,4.92,4.92,0,0,1-.15-1.27v-.58a4.84,4.84,0,0,1,.15-1.26,2.7,2.7,0,0,1,.45-1,2,2,0,0,1,.77-.58,2.62,2.62,0,0,1,1.09-.21,2.37,2.37,0,0,1,1.16.28,2,2,0,0,1,.76.81,2.88,2.88,0,0,1,.29,1.31h-1.28a2,2,0,0,0-.13-.69,1,1,0,0,0-.31-.42.9.9,0,0,0-.51-.14,1,1,0,0,0-.55.13.83.83,0,0,0-.33.36,2.2,2.2,0,0,0-.15.59,5.86,5.86,0,0,0,0,.77v.58a6.18,6.18,0,0,0,0,.79,1.59,1.59,0,0,0,.15.58.83.83,0,0,0,.33.36A1.16,1.16,0,0,0,113.71,63Zm5.71,1.14a3.13,3.13,0,0,1-1.1-.18,2.2,2.2,0,0,1-.81-.55,2.32,2.32,0,0,1-.51-.91,3.92,3.92,0,0,1-.18-1.25v-.6a4.74,4.74,0,0,1,.18-1.39,2.74,2.74,0,0,1,.52-1,2,2,0,0,1,.77-.55,2.45,2.45,0,0,1,1-.19,2.57,2.57,0,0,1,1,.2,1.69,1.69,0,0,1,.72.58,2.52,2.52,0,0,1,.42,1,5.72,5.72,0,0,1,.14,1.31v.68h-4.11v-1h2.76v-.14a3.17,3.17,0,0,0-.1-.75,1,1,0,0,0-.31-.48.86.86,0,0,0-.57-.17,1.11,1.11,0,0,0-.46.1.89.89,0,0,0-.35.32,1.93,1.93,0,0,0-.19.6,4.78,4.78,0,0,0-.07.92v.6a3.17,3.17,0,0,0,.08.81,1.5,1.5,0,0,0,.25.54,1.15,1.15,0,0,0,.42.3,1.6,1.6,0,0,0,.56.1,1.74,1.74,0,0,0,.82-.18,2.12,2.12,0,0,0,.6-.47l.6.84a2.47,2.47,0,0,1-.46.45,2.7,2.7,0,0,1-.7.36A2.91,2.91,0,0,1,119.42,64.12Z"></path><path class="cls-4" d="M27.12,106.47V115H26v-8.53Zm5.15,0-3.54,4-2,2.07-.19-1.21,1.5-1.65,2.87-3.19ZM31.19,115,28,110.84l.67-.9L32.53,115Zm5.91-1.08v-3.27A1.36,1.36,0,0,0,37,110a1,1,0,0,0-.44-.43,1.65,1.65,0,0,0-.74-.15,1.6,1.6,0,0,0-.72.14,1.07,1.07,0,0,0-.48.37.75.75,0,0,0-.17.49H33.31a1.44,1.44,0,0,1,.18-.68,1.86,1.86,0,0,1,.5-.6,2.45,2.45,0,0,1,.8-.43,3.11,3.11,0,0,1,1-.17,2.92,2.92,0,0,1,1.22.24,1.75,1.75,0,0,1,.83.71,2,2,0,0,1,.31,1.17v3a5.43,5.43,0,0,0,.05.67,3.07,3.07,0,0,0,.17.62V115H37.28a2.1,2.1,0,0,1-.13-.5A4.13,4.13,0,0,1,37.1,113.92Zm.19-2.76v.76H36.21a4.15,4.15,0,0,0-.83.07,2,2,0,0,0-.61.22,1,1,0,0,0-.37.37.94.94,0,0,0-.13.51,1.14,1.14,0,0,0,.13.55,1,1,0,0,0,.41.39,1.48,1.48,0,0,0,.67.14,1.82,1.82,0,0,0,.88-.21,1.91,1.91,0,0,0,.6-.52,1,1,0,0,0,.25-.59l.46.52a1.44,1.44,0,0,1-.22.55,2.53,2.53,0,0,1-.49.57,2.69,2.69,0,0,1-.71.45,2.27,2.27,0,0,1-.93.18,2.41,2.41,0,0,1-1.13-.26,1.88,1.88,0,0,1-.75-.67,1.81,1.81,0,0,1-.26-1,1.87,1.87,0,0,1,.2-.9,1.69,1.69,0,0,1,.57-.65,2.65,2.65,0,0,1,.9-.4,4.85,4.85,0,0,1,1.18-.13Zm3.69-1.5V115H39.89v-6.34H41Zm2-1v1l-.26,0h-.27a1.9,1.9,0,0,0-.66.11,1.51,1.51,0,0,0-.49.33,1.62,1.62,0,0,0-.31.51,2.42,2.42,0,0,0-.15.63l-.3.17a4.57,4.57,0,0,1,.11-1.07,2.86,2.86,0,0,1,.36-.89,1.62,1.62,0,0,1,.61-.61,1.68,1.68,0,0,1,.89-.23l.27,0ZM45,110v5H44v-6.34h1Zm-.25,1.58-.46,0a3.87,3.87,0,0,1,.2-1.2,3.11,3.11,0,0,1,.52-1,2.38,2.38,0,0,1,1.86-.86,2.76,2.76,0,0,1,.85.13,1.58,1.58,0,0,1,.64.4,1.78,1.78,0,0,1,.4.72,3.22,3.22,0,0,1,.15,1.06V115h-1.1v-4.17a1.78,1.78,0,0,0-.14-.79.88.88,0,0,0-.43-.44,1.47,1.47,0,0,0-.69-.14,1.52,1.52,0,0,0-.74.17,1.71,1.71,0,0,0-.57.47,2.47,2.47,0,0,0-.37.68A2.69,2.69,0,0,0,44.79,111.59Zm9.54,2.33v-3.27a1.36,1.36,0,0,0-.15-.65,1,1,0,0,0-.45-.43,1.62,1.62,0,0,0-.74-.15,1.65,1.65,0,0,0-.72.14,1.19,1.19,0,0,0-.48.37.81.81,0,0,0-.17.49H50.54a1.55,1.55,0,0,1,.17-.68,2,2,0,0,1,.51-.6,2.45,2.45,0,0,1,.8-.43,3.11,3.11,0,0,1,1-.17,2.92,2.92,0,0,1,1.22.24,1.8,1.8,0,0,1,.83.71,2.12,2.12,0,0,1,.3,1.17v3a4.06,4.06,0,0,0,.06.67,2.53,2.53,0,0,0,.17.62V115H54.51a1.71,1.71,0,0,1-.13-.5A4.13,4.13,0,0,1,54.33,113.92Zm.19-2.76v.76h-1.1a4,4,0,0,0-.82.07,1.9,1.9,0,0,0-.61.22,1,1,0,0,0-.51.88,1.15,1.15,0,0,0,.14.55,1,1,0,0,0,.4.39,1.55,1.55,0,0,0,.68.14,1.82,1.82,0,0,0,.88-.21,1.91,1.91,0,0,0,.6-.52,1.2,1.2,0,0,0,.25-.59l.46.52a1.62,1.62,0,0,1-.22.55,3.17,3.17,0,0,1-.49.57,2.69,2.69,0,0,1-.71.45,2.34,2.34,0,0,1-.93.18,2.39,2.39,0,0,1-1.13-.26,1.88,1.88,0,0,1-.75-.67,1.73,1.73,0,0,1-.27-1,2,2,0,0,1,.2-.9,1.81,1.81,0,0,1,.58-.65,2.65,2.65,0,0,1,.9-.4,4.74,4.74,0,0,1,1.18-.13Zm5.25-2.5v.83H56.35v-.83Zm-2.26-1.54h1.08v6.31a.94.94,0,0,0,.1.49.48.48,0,0,0,.26.21.93.93,0,0,0,.34.06l.28,0,.23,0V115a2.92,2.92,0,0,1-.34.08,3.26,3.26,0,0,1-.5,0,1.81,1.81,0,0,1-.73-.16,1.18,1.18,0,0,1-.53-.53,2.19,2.19,0,0,1-.19-1Zm7.27,6.8v-3.27a1.36,1.36,0,0,0-.15-.65,1,1,0,0,0-.44-.43,1.65,1.65,0,0,0-.74-.15,1.6,1.6,0,0,0-.72.14,1.07,1.07,0,0,0-.48.37.75.75,0,0,0-.17.49H61a1.44,1.44,0,0,1,.18-.68,2,2,0,0,1,.5-.6,2.56,2.56,0,0,1,.8-.43,3.11,3.11,0,0,1,1-.17,2.92,2.92,0,0,1,1.22.24,1.75,1.75,0,0,1,.83.71,2,2,0,0,1,.31,1.17v3a4,4,0,0,0,0,.67,3.07,3.07,0,0,0,.17.62V115H65a1.71,1.71,0,0,1-.13-.5A4.13,4.13,0,0,1,64.78,113.92Zm.19-2.76v.76H63.89a4.15,4.15,0,0,0-.83.07,2,2,0,0,0-.61.22,1,1,0,0,0-.37.37.94.94,0,0,0-.13.51,1.14,1.14,0,0,0,.13.55,1,1,0,0,0,.41.39,1.51,1.51,0,0,0,.67.14A1.79,1.79,0,0,0,64,114a1.91,1.91,0,0,0,.6-.52,1.11,1.11,0,0,0,.25-.59l.46.52a1.62,1.62,0,0,1-.22.55,2.7,2.7,0,0,1-1.2,1,2.3,2.3,0,0,1-.93.18,2.41,2.41,0,0,1-1.13-.26,1.88,1.88,0,0,1-.75-.67,1.81,1.81,0,0,1-.26-1,1.87,1.87,0,0,1,.2-.9,1.69,1.69,0,0,1,.57-.65,2.65,2.65,0,0,1,.9-.4,4.79,4.79,0,0,1,1.18-.13ZM68.66,106v9H67.57v-9Zm3.88,2.66-2.77,3-1.55,1.61-.09-1.16,1.11-1.32,2-2.09Zm-1,6.34-2.26-3,.57-1,3,4Zm5.85-1.08v-3.27a1.36,1.36,0,0,0-.15-.65,1,1,0,0,0-.45-.43,1.58,1.58,0,0,0-.73-.15,1.6,1.6,0,0,0-.72.14,1.16,1.16,0,0,0-.49.37.8.8,0,0,0-.16.49H73.6a1.44,1.44,0,0,1,.18-.68,2,2,0,0,1,.5-.6,2.45,2.45,0,0,1,.8-.43,3.11,3.11,0,0,1,1-.17,2.92,2.92,0,0,1,1.22.24,1.75,1.75,0,0,1,.83.71,2,2,0,0,1,.31,1.17v3a4,4,0,0,0,0,.67,2.53,2.53,0,0,0,.17.62V115H77.57a1.71,1.71,0,0,1-.13-.5A4.13,4.13,0,0,1,77.39,113.92Zm.19-2.76v.76H76.5a4.15,4.15,0,0,0-.83.07,2,2,0,0,0-.61.22,1,1,0,0,0-.37.37.94.94,0,0,0-.13.51,1.14,1.14,0,0,0,.13.55,1,1,0,0,0,.41.39,1.48,1.48,0,0,0,.67.14,1.79,1.79,0,0,0,.88-.21,1.91,1.91,0,0,0,.6-.52,1.11,1.11,0,0,0,.25-.59l.46.52a1.62,1.62,0,0,1-.22.55,2.53,2.53,0,0,1-.49.57,2.69,2.69,0,0,1-.71.45,2.3,2.3,0,0,1-.93.18,2.39,2.39,0,0,1-1.13-.26,1.88,1.88,0,0,1-.75-.67,1.72,1.72,0,0,1-.26-1,1.87,1.87,0,0,1,.2-.9,1.69,1.69,0,0,1,.57-.65,2.65,2.65,0,0,1,.9-.4,4.79,4.79,0,0,1,1.18-.13Zm7.18,2.72,1.63-5.22h.72l-.14,1L85.31,115h-.7Zm-1.09-5.22,1.39,5.27.1,1.07h-.74l-1.84-6.34Zm5,5.23L90,108.66h1.08L89.23,115H88.5Zm-1.4-5.23,1.59,5.13L89,115h-.69l-1.71-5.31-.14-1Zm8.65,5.26v-3.27a1.36,1.36,0,0,0-.15-.65,1,1,0,0,0-.45-.43,1.62,1.62,0,0,0-.74-.15,1.65,1.65,0,0,0-.72.14,1.19,1.19,0,0,0-.48.37.81.81,0,0,0-.17.49H92.13a1.55,1.55,0,0,1,.17-.68,2,2,0,0,1,.51-.6,2.45,2.45,0,0,1,.8-.43,3.11,3.11,0,0,1,1-.17,2.92,2.92,0,0,1,1.22.24,1.8,1.8,0,0,1,.83.71,2.12,2.12,0,0,1,.3,1.17v3a4.06,4.06,0,0,0,.06.67,2.53,2.53,0,0,0,.17.62V115H96.1a1.71,1.71,0,0,1-.13-.5A4.13,4.13,0,0,1,95.92,113.92Zm.19-2.76v.76H95a4,4,0,0,0-.82.07,1.81,1.81,0,0,0-.61.22,1,1,0,0,0-.51.88,1.15,1.15,0,0,0,.14.55,1,1,0,0,0,.4.39,1.55,1.55,0,0,0,.68.14,1.82,1.82,0,0,0,.88-.21,1.91,1.91,0,0,0,.6-.52,1.09,1.09,0,0,0,.24-.59l.47.52a1.62,1.62,0,0,1-.22.55,3.17,3.17,0,0,1-.49.57,2.59,2.59,0,0,1-.72.45,2.25,2.25,0,0,1-.92.18,2.39,2.39,0,0,1-1.13-.26,1.88,1.88,0,0,1-.75-.67,1.73,1.73,0,0,1-.27-1,2,2,0,0,1,.2-.9,1.81,1.81,0,0,1,.58-.65,2.65,2.65,0,0,1,.9-.4,4.74,4.74,0,0,1,1.18-.13Zm6.29,2.16a1,1,0,0,0-.1-.43.92.92,0,0,0-.42-.37,3.14,3.14,0,0,0-.94-.3,6.81,6.81,0,0,1-1-.26,2.69,2.69,0,0,1-.72-.37,1.59,1.59,0,0,1-.46-.51,1.47,1.47,0,0,1-.15-.69,1.53,1.53,0,0,1,.16-.7,1.82,1.82,0,0,1,.48-.6,2.28,2.28,0,0,1,.74-.4,3,3,0,0,1,1-.15,2.9,2.9,0,0,1,1.3.27,2,2,0,0,1,.82.72,1.82,1.82,0,0,1,.29,1h-1.08a1,1,0,0,0-.16-.51,1.2,1.2,0,0,0-.45-.41,1.47,1.47,0,0,0-.72-.17,1.71,1.71,0,0,0-.74.14.93.93,0,0,0-.4.35.88.88,0,0,0-.12.44,1,1,0,0,0,0,.32.68.68,0,0,0,.23.25,1.39,1.39,0,0,0,.44.21,5.26,5.26,0,0,0,.73.2,5.71,5.71,0,0,1,1.29.43,1.92,1.92,0,0,1,.75.6,1.53,1.53,0,0,1,.24.87,1.63,1.63,0,0,1-.17.76,1.68,1.68,0,0,1-.5.6,2.41,2.41,0,0,1-.77.38,3.45,3.45,0,0,1-1,.14,3,3,0,0,1-1.42-.3,2.23,2.23,0,0,1-.88-.77,1.88,1.88,0,0,1-.3-1h1.09a1.11,1.11,0,0,0,.26.71,1.28,1.28,0,0,0,.57.37,2.3,2.3,0,0,0,.68.11,2,2,0,0,0,.74-.12,1.08,1.08,0,0,0,.46-.32A.74.74,0,0,0,102.4,113.32Zm9.22.6v-3.27a1.36,1.36,0,0,0-.15-.65.94.94,0,0,0-.45-.43,1.58,1.58,0,0,0-.73-.15,1.6,1.6,0,0,0-.72.14,1.07,1.07,0,0,0-.48.37.75.75,0,0,0-.17.49h-1.09a1.44,1.44,0,0,1,.18-.68,1.86,1.86,0,0,1,.5-.6,2.45,2.45,0,0,1,.8-.43,3.11,3.11,0,0,1,1-.17,2.92,2.92,0,0,1,1.22.24,1.75,1.75,0,0,1,.83.71,2,2,0,0,1,.31,1.17v3a5.43,5.43,0,0,0,.05.67,3.07,3.07,0,0,0,.17.62V115H111.8a1.71,1.71,0,0,1-.13-.5A4.13,4.13,0,0,1,111.62,113.92Zm.19-2.76v.76h-1.09a4.15,4.15,0,0,0-.83.07,1.9,1.9,0,0,0-.61.22,1,1,0,0,0-.37.37.94.94,0,0,0-.13.51,1.14,1.14,0,0,0,.13.55,1,1,0,0,0,.41.39,1.48,1.48,0,0,0,.67.14,1.82,1.82,0,0,0,.88-.21,1.91,1.91,0,0,0,.6-.52,1,1,0,0,0,.25-.59l.46.52a1.62,1.62,0,0,1-.22.55,2.7,2.7,0,0,1-1.2,1,2.3,2.3,0,0,1-.93.18,2.41,2.41,0,0,1-1.13-.26,1.88,1.88,0,0,1-.75-.67,1.81,1.81,0,0,1-.26-1,1.87,1.87,0,0,1,.2-.9,1.69,1.69,0,0,1,.57-.65,2.65,2.65,0,0,1,.9-.4,4.85,4.85,0,0,1,1.18-.13Zm4.21,2.72,1.63-5.22h.71l-.14,1-1.66,5.3h-.7Zm-1.1-5.22,1.39,5.27.1,1.07h-.73l-1.84-6.34Zm5,5.23,1.32-5.23h1.08L120.48,115h-.72Zm-1.4-5.23,1.59,5.13.19,1.21h-.7l-1.7-5.31-.14-1Zm8.65,5.26v-3.27A1.36,1.36,0,0,0,127,110a1,1,0,0,0-.44-.43,1.65,1.65,0,0,0-.74-.15,1.6,1.6,0,0,0-.72.14,1.07,1.07,0,0,0-.48.37.75.75,0,0,0-.17.49h-1.09a1.44,1.44,0,0,1,.18-.68,2,2,0,0,1,.5-.6,2.56,2.56,0,0,1,.8-.43,3.11,3.11,0,0,1,1-.17,2.92,2.92,0,0,1,1.22.24,1.75,1.75,0,0,1,.83.71,2,2,0,0,1,.31,1.17v3a4,4,0,0,0,.05.67,3.07,3.07,0,0,0,.17.62V115h-1.13a2.1,2.1,0,0,1-.13-.5A4.13,4.13,0,0,1,127.17,113.92Zm.19-2.76v.76h-1.09a4.15,4.15,0,0,0-.83.07,2,2,0,0,0-.61.22,1,1,0,0,0-.37.37.94.94,0,0,0-.13.51,1.14,1.14,0,0,0,.13.55,1,1,0,0,0,.41.39,1.51,1.51,0,0,0,.67.14,1.79,1.79,0,0,0,.88-.21,1.81,1.81,0,0,0,.6-.52,1,1,0,0,0,.25-.59l.46.52a1.62,1.62,0,0,1-.22.55,2.7,2.7,0,0,1-1.2,1,2.27,2.27,0,0,1-.93.18,2.41,2.41,0,0,1-1.13-.26,1.88,1.88,0,0,1-.75-.67,1.81,1.81,0,0,1-.26-1,1.87,1.87,0,0,1,.2-.9,1.69,1.69,0,0,1,.57-.65,2.65,2.65,0,0,1,.9-.4,4.79,4.79,0,0,1,1.18-.13Zm3.69-1.5V115H130v-6.34H131Zm2-1v1a1.15,1.15,0,0,0-.26,0h-.27a1.9,1.9,0,0,0-.66.11,1.37,1.37,0,0,0-.48.33,1.48,1.48,0,0,0-.32.51,2.42,2.42,0,0,0-.15.63l-.3.17a4.57,4.57,0,0,1,.11-1.07,2.86,2.86,0,0,1,.36-.89,1.62,1.62,0,0,1,.61-.61,1.68,1.68,0,0,1,.89-.23l.27,0Zm4.88,5.14V106H139v9h-1Zm-4.27-1.87v-.12a4.48,4.48,0,0,1,.18-1.32,3.2,3.2,0,0,1,.51-1,2.24,2.24,0,0,1,.79-.65,2.2,2.2,0,0,1,1-.24,2.38,2.38,0,0,1,1,.21,2,2,0,0,1,.76.61,2.77,2.77,0,0,1,.5,1,5.62,5.62,0,0,1,.25,1.26v.54a5.13,5.13,0,0,1-.25,1.25,2.77,2.77,0,0,1-.5,1,2,2,0,0,1-.76.6,2.46,2.46,0,0,1-1.05.21,2.19,2.19,0,0,1-1-.24,2.33,2.33,0,0,1-.79-.68,3.25,3.25,0,0,1-.51-1A4.35,4.35,0,0,1,133.64,111.9Zm1.09-.12v.12a3.62,3.62,0,0,0,.1.89,2.08,2.08,0,0,0,.3.73,1.55,1.55,0,0,0,.52.5,1.5,1.5,0,0,0,.76.18,1.57,1.57,0,0,0,.88-.23,1.76,1.76,0,0,0,.57-.61,3.18,3.18,0,0,0,.32-.81v-1.41a2.64,2.64,0,0,0-.2-.62,2,2,0,0,0-.34-.54,1.48,1.48,0,0,0-.51-.38,1.52,1.52,0,0,0-2,.55,2.13,2.13,0,0,0-.3.74A3.57,3.57,0,0,0,134.73,111.78Zm8.59,3.34a3.18,3.18,0,0,1-1.21-.23,2.65,2.65,0,0,1-.91-.63,2.85,2.85,0,0,1-.59-1,3.45,3.45,0,0,1-.21-1.23v-.24a3.91,3.91,0,0,1,.23-1.38,3.18,3.18,0,0,1,.62-1,2.72,2.72,0,0,1,.89-.64,2.52,2.52,0,0,1,1-.22,2.66,2.66,0,0,1,1.17.24,2.07,2.07,0,0,1,.81.65,2.84,2.84,0,0,1,.47,1,4.71,4.71,0,0,1,.15,1.23v.49h-4.73v-.89h3.65v-.08a2.87,2.87,0,0,0-.18-.82,1.37,1.37,0,0,0-.47-.66,1.35,1.35,0,0,0-.87-.26,1.51,1.51,0,0,0-.68.16,1.48,1.48,0,0,0-.54.46,2.2,2.2,0,0,0-.34.74,3.89,3.89,0,0,0-.13,1v.24a2.91,2.91,0,0,0,.13.85,2.09,2.09,0,0,0,.37.69,1.68,1.68,0,0,0,.59.47,1.71,1.71,0,0,0,.8.17,2,2,0,0,0,1-.23,2.6,2.6,0,0,0,.7-.63l.65.52a2.86,2.86,0,0,1-.52.59,2.48,2.48,0,0,1-.78.46A2.94,2.94,0,0,1,143.32,115.12Zm7.73-1.35V106h1.09v9h-1Zm-4.27-1.87v-.12a4.86,4.86,0,0,1,.17-1.32,3.67,3.67,0,0,1,.51-1,2.37,2.37,0,0,1,.8-.65,2.17,2.17,0,0,1,1-.24,2.41,2.41,0,0,1,1,.21,2,2,0,0,1,.76.61,3,3,0,0,1,.5,1,5.62,5.62,0,0,1,.25,1.26v.54a5.64,5.64,0,0,1-.25,1.25,3,3,0,0,1-.5,1,2,2,0,0,1-.76.6,2.47,2.47,0,0,1-1.06.21,2.12,2.12,0,0,1-1-.24,2.46,2.46,0,0,1-.8-.68,3.75,3.75,0,0,1-.51-1A4.72,4.72,0,0,1,146.78,111.9Zm1.09-.12v.12a4.19,4.19,0,0,0,.09.89,2.3,2.3,0,0,0,.31.73,1.46,1.46,0,0,0,.52.5,1.5,1.5,0,0,0,.76.18,1.6,1.6,0,0,0,.88-.23,1.73,1.73,0,0,0,.56-.61,3.62,3.62,0,0,0,.33-.81v-1.41a3.23,3.23,0,0,0-.21-.62,1.6,1.6,0,0,0-.34-.54,1.36,1.36,0,0,0-.5-.38,1.58,1.58,0,0,0-.71-.14,1.54,1.54,0,0,0-.77.18,1.49,1.49,0,0,0-.52.51,2.36,2.36,0,0,0-.31.74A4.13,4.13,0,0,0,147.87,111.78ZM42.94,122.66V129H41.85v-6.34ZM41.77,121a.64.64,0,0,1,.16-.45.62.62,0,0,1,.48-.18.61.61,0,0,1,.47.18.64.64,0,0,1,.17.45.67.67,0,0,1-1.12.43A.6.6,0,0,1,41.77,121Zm4,3v5H44.68v-6.34h1Zm-.25,1.58-.46,0a3.87,3.87,0,0,1,.2-1.2,3.11,3.11,0,0,1,.52-1,2.38,2.38,0,0,1,1.86-.86,2.76,2.76,0,0,1,.85.13,1.58,1.58,0,0,1,.64.4,1.78,1.78,0,0,1,.4.72,3.22,3.22,0,0,1,.15,1.06V129H48.58v-4.17a1.76,1.76,0,0,0-.15-.79.88.88,0,0,0-.43-.44,1.47,1.47,0,0,0-.69-.14,1.52,1.52,0,0,0-.74.17,1.71,1.71,0,0,0-.57.47,2.76,2.76,0,0,0-.37.68A2.69,2.69,0,0,0,45.51,125.59Zm11.43-2.93v.83H53.52v-.83Zm-2.26-1.54h1.08v6.31a.94.94,0,0,0,.1.49.48.48,0,0,0,.26.21.93.93,0,0,0,.34.06l.28,0,.23,0V129a2.92,2.92,0,0,1-.34.08,3.26,3.26,0,0,1-.5,0,1.77,1.77,0,0,1-.73-.16,1.18,1.18,0,0,1-.53-.53,2.19,2.19,0,0,1-.19-1ZM59.3,120v9H58.21v-9ZM59,125.59l-.45,0a3.87,3.87,0,0,1,.19-1.2,3.13,3.13,0,0,1,.53-1,2.38,2.38,0,0,1,1.86-.86,2.74,2.74,0,0,1,.84.13,1.52,1.52,0,0,1,.64.4,1.68,1.68,0,0,1,.41.72,3.54,3.54,0,0,1,.14,1.06V129H62.11v-4.17A1.76,1.76,0,0,0,62,124a.82.82,0,0,0-.42-.44,1.47,1.47,0,0,0-.69-.14,1.52,1.52,0,0,0-.74.17,1.71,1.71,0,0,0-.57.47,2.23,2.23,0,0,0-.37.68A2.41,2.41,0,0,0,59,125.59Zm8.42,3.53a3.11,3.11,0,0,1-1.21-.23,2.79,2.79,0,0,1-.92-.63,2.83,2.83,0,0,1-.58-1,3.45,3.45,0,0,1-.21-1.23v-.24a3.91,3.91,0,0,1,.23-1.38,3,3,0,0,1,.62-1,2.62,2.62,0,0,1,.89-.64,2.51,2.51,0,0,1,1-.22,2.67,2.67,0,0,1,1.18.24,2.07,2.07,0,0,1,.81.65,2.84,2.84,0,0,1,.47,1,4.71,4.71,0,0,1,.15,1.23v.49H65.19v-.89h3.65v-.08a2.87,2.87,0,0,0-.18-.82,1.43,1.43,0,0,0-.47-.66,1.36,1.36,0,0,0-.88-.26,1.58,1.58,0,0,0-.68.16,1.53,1.53,0,0,0-.53.46,2.2,2.2,0,0,0-.34.74,3.51,3.51,0,0,0-.13,1v.24a2.61,2.61,0,0,0,.13.85,2.06,2.06,0,0,0,.36.69,1.82,1.82,0,0,0,.6.47,1.7,1.7,0,0,0,.79.17,2,2,0,0,0,1-.23,2.57,2.57,0,0,0,.69-.63l.66.52a2.86,2.86,0,0,1-.52.59,2.48,2.48,0,0,1-.78.46A3,3,0,0,1,67.46,129.12Zm10.81-6.46h1v6.2a3,3,0,0,1-.34,1.44,2.26,2.26,0,0,1-1,.89,3,3,0,0,1-1.4.31,3.39,3.39,0,0,1-.77-.1,3.52,3.52,0,0,1-.87-.35,2.2,2.2,0,0,1-.71-.65l.57-.64a2.24,2.24,0,0,0,.83.66,2.17,2.17,0,0,0,.87.19,1.91,1.91,0,0,0,.89-.19,1.35,1.35,0,0,0,.58-.58,1.84,1.84,0,0,0,.21-.92v-4.87Zm-4.36,3.24v-.12a4.49,4.49,0,0,1,.17-1.32,3.17,3.17,0,0,1,.49-1,2.28,2.28,0,0,1,.8-.65,2.19,2.19,0,0,1,1-.24,2.41,2.41,0,0,1,1,.21,2,2,0,0,1,.76.61,3,3,0,0,1,.5,1,5.62,5.62,0,0,1,.25,1.26v.54a5.13,5.13,0,0,1-.25,1.25,3,3,0,0,1-.5,1,2,2,0,0,1-.76.6,2.46,2.46,0,0,1-1,.21,2.17,2.17,0,0,1-1-.24,2.33,2.33,0,0,1-.79-.68,3,3,0,0,1-.5-1A4.36,4.36,0,0,1,73.91,125.9Zm1.08-.12v.12a4.19,4.19,0,0,0,.09.89,2.54,2.54,0,0,0,.3.73,1.43,1.43,0,0,0,1.28.68,1.61,1.61,0,0,0,.89-.23,1.64,1.64,0,0,0,.56-.61,3.62,3.62,0,0,0,.33-.81v-1.41a3.21,3.21,0,0,0-.2-.62,2,2,0,0,0-.34-.54,1.48,1.48,0,0,0-.51-.38,1.62,1.62,0,0,0-.72-.14,1.41,1.41,0,0,0-1.29.69,2.61,2.61,0,0,0-.3.74A4.13,4.13,0,0,0,75,125.78Zm5.62.12v-.13a4.09,4.09,0,0,1,.2-1.28,3.19,3.19,0,0,1,.58-1,2.56,2.56,0,0,1,.91-.68,3,3,0,0,1,2.39,0,2.6,2.6,0,0,1,.92.68,3.19,3.19,0,0,1,.58,1,4.09,4.09,0,0,1,.2,1.28v.13a4,4,0,0,1-.2,1.27,3.35,3.35,0,0,1-.58,1,2.79,2.79,0,0,1-.91.68,2.86,2.86,0,0,1-1.2.24,2.92,2.92,0,0,1-1.2-.24,2.79,2.79,0,0,1-.91-.68,3.35,3.35,0,0,1-.58-1A4,4,0,0,1,80.61,125.9Zm1.09-.13v.13a3.7,3.7,0,0,0,.11.9,2.92,2.92,0,0,0,.33.74,2,2,0,0,0,.57.51,1.67,1.67,0,0,0,.79.18,1.61,1.61,0,0,0,.78-.18,1.75,1.75,0,0,0,.57-.51,2.61,2.61,0,0,0,.33-.74,3.26,3.26,0,0,0,.12-.9v-.13a3.19,3.19,0,0,0-.12-.89,2.19,2.19,0,0,0-.34-.74,1.74,1.74,0,0,0-.56-.52,1.68,1.68,0,0,0-.79-.19,1.64,1.64,0,0,0-.78.19,1.77,1.77,0,0,0-.57.52,2.64,2.64,0,0,0-.33.74A3.62,3.62,0,0,0,81.7,125.77ZM89.58,128l1.73-5.36h1.11L90.14,129h-.72Zm-1.45-5.36,1.79,5.39L90,129h-.72L87,122.66ZM96,129.12a3.09,3.09,0,0,1-1.2-.23,2.79,2.79,0,0,1-.92-.63,2.83,2.83,0,0,1-.58-1,3.45,3.45,0,0,1-.21-1.23v-.24a3.91,3.91,0,0,1,.23-1.38,3,3,0,0,1,.62-1,2.62,2.62,0,0,1,.89-.64,2.48,2.48,0,0,1,1-.22,2.67,2.67,0,0,1,1.18.24,2.07,2.07,0,0,1,.81.65,2.84,2.84,0,0,1,.47,1,4.71,4.71,0,0,1,.15,1.23v.49H93.75v-.89H97.4v-.08a2.87,2.87,0,0,0-.18-.82,1.43,1.43,0,0,0-.47-.66,1.38,1.38,0,0,0-.88-.26,1.58,1.58,0,0,0-.68.16,1.53,1.53,0,0,0-.53.46,2.42,2.42,0,0,0-.35.74,3.91,3.91,0,0,0-.12,1v.24a2.91,2.91,0,0,0,.12.85,2.29,2.29,0,0,0,.37.69,1.89,1.89,0,0,0,.59.47,1.74,1.74,0,0,0,.8.17,2,2,0,0,0,1-.23,2.57,2.57,0,0,0,.69-.63l.66.52a2.86,2.86,0,0,1-.52.59,2.48,2.48,0,0,1-.78.46A3,3,0,0,1,96,129.12Zm4.82-5.46V129H99.75v-6.34h1Zm2-1v1l-.25,0h-.27a2,2,0,0,0-.67.11,1.37,1.37,0,0,0-.48.33,1.64,1.64,0,0,0-.32.51,2.42,2.42,0,0,0-.14.63l-.31.17a5.17,5.17,0,0,1,.11-1.07,2.86,2.86,0,0,1,.36-.89,1.62,1.62,0,0,1,.61-.61,1.71,1.71,0,0,1,.89-.23l.27,0ZM104.9,124v5h-1.09v-6.34h1Zm-.26,1.58-.45,0a3.87,3.87,0,0,1,.19-1.2,3.13,3.13,0,0,1,.53-1,2.38,2.38,0,0,1,1.86-.86,2.74,2.74,0,0,1,.84.13,1.58,1.58,0,0,1,.64.4,1.79,1.79,0,0,1,.41.72,3.54,3.54,0,0,1,.14,1.06V129h-1.09v-4.17a1.76,1.76,0,0,0-.15-.79.9.9,0,0,0-.42-.44,1.48,1.48,0,0,0-.7-.14,1.55,1.55,0,0,0-.74.17,1.78,1.78,0,0,0-.56.47,2.23,2.23,0,0,0-.37.68A2.41,2.41,0,0,0,104.64,125.59Zm6.88-1.67V129h-1.09v-6.34h1Zm-.22,1.67-.5,0a4.19,4.19,0,0,1,.17-1.2,3,3,0,0,1,.48-1,2.28,2.28,0,0,1,.81-.63,2.59,2.59,0,0,1,1.11-.23,2.66,2.66,0,0,1,.82.13,1.71,1.71,0,0,1,.65.39,1.89,1.89,0,0,1,.43.7,3,3,0,0,1,.15,1V129h-1.08v-4.17a1.67,1.67,0,0,0-.17-.8,1,1,0,0,0-.47-.43,1.62,1.62,0,0,0-.72-.14,1.61,1.61,0,0,0-.8.17,1.31,1.31,0,0,0-.52.47,2.31,2.31,0,0,0-.28.68A4.2,4.2,0,0,0,111.3,125.59Zm4.11-.6-.73.22a3.38,3.38,0,0,1,.17-1,2.66,2.66,0,0,1,.49-.85,2.22,2.22,0,0,1,.79-.59,2.44,2.44,0,0,1,1.07-.23,2.74,2.74,0,0,1,.9.14,1.68,1.68,0,0,1,.67.41,1.91,1.91,0,0,1,.42.71,3.51,3.51,0,0,1,.14,1V129h-1.09v-4.18a1.67,1.67,0,0,0-.17-.82.91.91,0,0,0-.47-.42,1.92,1.92,0,0,0-.71-.12,1.62,1.62,0,0,0-.64.12,1.2,1.2,0,0,0-.46.34,1.42,1.42,0,0,0-.29.49A1.85,1.85,0,0,0,115.41,125Zm8.19,4.13a3.09,3.09,0,0,1-1.2-.23,2.69,2.69,0,0,1-.92-.63,3,3,0,0,1-.59-1,3.69,3.69,0,0,1-.2-1.23v-.24a3.7,3.7,0,0,1,.23-1.38,2.87,2.87,0,0,1,.62-1,2.62,2.62,0,0,1,.89-.64,2.45,2.45,0,0,1,1-.22,2.66,2.66,0,0,1,1.17.24,2.18,2.18,0,0,1,.82.65,2.82,2.82,0,0,1,.46,1,4.31,4.31,0,0,1,.16,1.23v.49h-4.74v-.89H125v-.08a2.55,2.55,0,0,0-.17-.82,1.51,1.51,0,0,0-.47-.66,1.4,1.4,0,0,0-.88-.26,1.55,1.55,0,0,0-.68.16,1.37,1.37,0,0,0-.53.46,2.21,2.21,0,0,0-.35.74,3.91,3.91,0,0,0-.12,1v.24a2.91,2.91,0,0,0,.12.85,2.29,2.29,0,0,0,.37.69,1.68,1.68,0,0,0,.59.47,1.74,1.74,0,0,0,.8.17,2,2,0,0,0,1-.23,2.46,2.46,0,0,0,.7-.63l.65.52a2.59,2.59,0,0,1-.52.59,2.48,2.48,0,0,1-.78.46A2.91,2.91,0,0,1,123.6,129.12Zm4.82-5.11v5h-1.09v-6.34h1Zm-.26,1.58-.45,0a3.59,3.59,0,0,1,.19-1.2,2.94,2.94,0,0,1,.53-1,2.28,2.28,0,0,1,.81-.63,2.38,2.38,0,0,1,1-.23,2.74,2.74,0,0,1,.84.13,1.58,1.58,0,0,1,.64.4,1.79,1.79,0,0,1,.41.72,3.54,3.54,0,0,1,.14,1.06V129h-1.09v-4.17a1.76,1.76,0,0,0-.15-.79.88.88,0,0,0-.43-.44,1.41,1.41,0,0,0-.69-.14,1.48,1.48,0,0,0-.73.17,1.71,1.71,0,0,0-.57.47,2.23,2.23,0,0,0-.37.68A2.41,2.41,0,0,0,128.16,125.59Zm8.46-2.93v.83h-3.43v-.83Zm-2.27-1.54h1.09v6.31a.94.94,0,0,0,.1.49.46.46,0,0,0,.25.21,1,1,0,0,0,.34.06,1.33,1.33,0,0,0,.28,0l.23,0V129l-.34.08a3.37,3.37,0,0,1-.5,0,1.77,1.77,0,0,1-.73-.16,1.18,1.18,0,0,1-.53-.53,2.18,2.18,0,0,1-.2-1ZM30.14,137.88v7.56H29.05v-8.78h1Zm4.27,1.9v.12a4.72,4.72,0,0,1-.17,1.28,3,3,0,0,1-.48,1,2.15,2.15,0,0,1-.76.68,2.26,2.26,0,0,1-1.05.24,2.72,2.72,0,0,1-1.07-.2,2,2,0,0,1-.78-.58,2.94,2.94,0,0,1-.52-.92,5.61,5.61,0,0,1-.26-1.2v-.65a5.59,5.59,0,0,1,.27-1.26,2.79,2.79,0,0,1,.51-.95,2,2,0,0,1,.78-.61,2.46,2.46,0,0,1,1.05-.21,2.27,2.27,0,0,1,1.06.24,2.13,2.13,0,0,1,.78.65,3,3,0,0,1,.47,1A4.86,4.86,0,0,1,34.41,139.78Zm-1.09.12v-.12a3.57,3.57,0,0,0-.1-.89,2.36,2.36,0,0,0-.31-.74,1.52,1.52,0,0,0-.53-.51,1.54,1.54,0,0,0-.77-.18,1.58,1.58,0,0,0-.71.14,1.48,1.48,0,0,0-.51.38,2,2,0,0,0-.35.54,3.19,3.19,0,0,0-.19.62v1.52a3.51,3.51,0,0,0,.33.77,1.56,1.56,0,0,0,1.44.8,1.5,1.5,0,0,0,.76-.18,1.62,1.62,0,0,0,.53-.51,2.57,2.57,0,0,0,.31-.74A3.71,3.71,0,0,0,33.32,139.9Zm3.56-2.24V143H35.79v-6.34h1.06Zm2-1v1l-.26,0h-.27a1.9,1.9,0,0,0-.66.11,1.51,1.51,0,0,0-.49.33,1.62,1.62,0,0,0-.31.51,2.08,2.08,0,0,0-.15.63l-.3.17a4.57,4.57,0,0,1,.11-1.07,2.64,2.64,0,0,1,.36-.89,1.67,1.67,0,0,1,.6-.61,1.72,1.72,0,0,1,.9-.23l.27,0A.68.68,0,0,1,38.85,136.63Zm.6,3.27v-.13a4.09,4.09,0,0,1,.2-1.28,3.19,3.19,0,0,1,.58-1,2.62,2.62,0,0,1,.9-.68,2.93,2.93,0,0,1,1.2-.25,2.89,2.89,0,0,1,1.2.25,2.6,2.6,0,0,1,.92.68,3,3,0,0,1,.57,1,3.82,3.82,0,0,1,.21,1.28v.13a3.72,3.72,0,0,1-.21,1.27,3.14,3.14,0,0,1-.57,1,2.79,2.79,0,0,1-.91.68,2.86,2.86,0,0,1-1.2.24,2.92,2.92,0,0,1-1.2-.24,2.79,2.79,0,0,1-.91-.68,3.35,3.35,0,0,1-.58-1A4,4,0,0,1,39.45,139.9Zm1.09-.13v.13a3.27,3.27,0,0,0,.11.9,2.36,2.36,0,0,0,.33.74,1.75,1.75,0,0,0,.57.51,1.67,1.67,0,0,0,.79.18,1.54,1.54,0,0,0,1.34-.69,2.63,2.63,0,0,0,.34-.74,3.27,3.27,0,0,0,.11-.9v-.13a3.19,3.19,0,0,0-.11-.89,2.4,2.4,0,0,0-.34-.74,1.74,1.74,0,0,0-.56-.52,1.74,1.74,0,0,0-1.58,0,1.74,1.74,0,0,0-.56.52,2.17,2.17,0,0,0-.33.74A3.19,3.19,0,0,0,40.54,139.77Zm8.58,2.46a1.59,1.59,0,0,0,1.26-.59,1.26,1.26,0,0,0,.24-.64h1a2,2,0,0,1-.38,1.05,2.68,2.68,0,0,1-2.15,1.07,2.91,2.91,0,0,1-1.25-.26,2.37,2.37,0,0,1-.88-.69,3.07,3.07,0,0,1-.52-1A4.44,4.44,0,0,1,46.3,140v-.24a4.31,4.31,0,0,1,.17-1.21,3.12,3.12,0,0,1,.52-1,2.37,2.37,0,0,1,.88-.69,2.91,2.91,0,0,1,1.25-.26,2.58,2.58,0,0,1,1.3.31,2.22,2.22,0,0,1,.87.82,2.3,2.3,0,0,1,.36,1.17h-1a1.57,1.57,0,0,0-.23-.71,1.29,1.29,0,0,0-.51-.5,1.46,1.46,0,0,0-.76-.2,1.68,1.68,0,0,0-.84.2,1.5,1.5,0,0,0-.53.53,2.46,2.46,0,0,0-.28.73,3.74,3.74,0,0,0-.08.82V140a3.74,3.74,0,0,0,.08.82,2.51,2.51,0,0,0,.27.74,1.5,1.5,0,0,0,.54.52A1.66,1.66,0,0,0,49.12,142.23Zm6.38.89a3.11,3.11,0,0,1-1.21-.23,2.65,2.65,0,0,1-.91-.63,2.85,2.85,0,0,1-.59-1,3.45,3.45,0,0,1-.21-1.23v-.24a3.91,3.91,0,0,1,.23-1.38,3,3,0,0,1,.62-1,2.72,2.72,0,0,1,.89-.64,2.51,2.51,0,0,1,1-.22,2.67,2.67,0,0,1,1.18.24,2.07,2.07,0,0,1,.81.65,2.84,2.84,0,0,1,.47,1,4.71,4.71,0,0,1,.15,1.23v.49H53.23v-.89h3.65v-.08a2.87,2.87,0,0,0-.18-.82,1.43,1.43,0,0,0-.47-.66,1.36,1.36,0,0,0-.88-.26,1.5,1.5,0,0,0-.67.16,1.48,1.48,0,0,0-.54.46,2.2,2.2,0,0,0-.34.74,3.51,3.51,0,0,0-.13,1v.24a2.61,2.61,0,0,0,.13.85,2.09,2.09,0,0,0,.37.69,1.71,1.71,0,0,0,1.38.64,2,2,0,0,0,1-.23,2.76,2.76,0,0,0,.7-.63l.65.52a2.86,2.86,0,0,1-.52.59,2.48,2.48,0,0,1-.78.46A3,3,0,0,1,55.5,143.12Zm7.42-1.8a.89.89,0,0,0-.11-.43.84.84,0,0,0-.41-.37,3.14,3.14,0,0,0-.94-.3,6.81,6.81,0,0,1-1-.26,2.85,2.85,0,0,1-.72-.37,1.59,1.59,0,0,1-.46-.51,1.47,1.47,0,0,1-.15-.69,1.53,1.53,0,0,1,.16-.7,1.92,1.92,0,0,1,.47-.6,2.44,2.44,0,0,1,.75-.4,3.24,3.24,0,0,1,2.27.12,2,2,0,0,1,.82.72,1.82,1.82,0,0,1,.29,1H62.85a1,1,0,0,0-.15-.51,1.2,1.2,0,0,0-.45-.41,1.49,1.49,0,0,0-.73-.17,1.73,1.73,0,0,0-.73.14,1,1,0,0,0-.4.35.88.88,0,0,0-.12.44,1,1,0,0,0,0,.32.68.68,0,0,0,.23.25,1.39,1.39,0,0,0,.44.21,5.06,5.06,0,0,0,.74.2,6,6,0,0,1,1.28.43,1.92,1.92,0,0,1,.75.6,1.53,1.53,0,0,1,.24.87,1.63,1.63,0,0,1-.17.76,1.79,1.79,0,0,1-.5.6,2.41,2.41,0,0,1-.77.38,3.47,3.47,0,0,1-1,.14,3,3,0,0,1-1.41-.3,2.23,2.23,0,0,1-.88-.77,1.88,1.88,0,0,1-.3-1h1.09a1.06,1.06,0,0,0,.26.71,1.23,1.23,0,0,0,.57.37,2.29,2.29,0,0,0,.67.11,2,2,0,0,0,.75-.12,1.08,1.08,0,0,0,.46-.32A.74.74,0,0,0,62.92,141.32Zm6.2,0a.89.89,0,0,0-.11-.43.84.84,0,0,0-.41-.37,3.14,3.14,0,0,0-.94-.3,6.81,6.81,0,0,1-1-.26,2.93,2.93,0,0,1-.73-.37,1.67,1.67,0,0,1-.45-.51,1.47,1.47,0,0,1-.15-.69,1.53,1.53,0,0,1,.16-.7,1.92,1.92,0,0,1,.47-.6,2.44,2.44,0,0,1,.75-.4,3,3,0,0,1,1-.15,2.83,2.83,0,0,1,1.29.27,2,2,0,0,1,.83.72,1.82,1.82,0,0,1,.29,1H69.05a1,1,0,0,0-.15-.51,1.28,1.28,0,0,0-.45-.41,1.47,1.47,0,0,0-.72-.17,1.71,1.71,0,0,0-.74.14.93.93,0,0,0-.4.35.9.9,0,0,0-.13.44.79.79,0,0,0,.06.32.68.68,0,0,0,.23.25,1.39,1.39,0,0,0,.44.21,5.26,5.26,0,0,0,.73.2,5.88,5.88,0,0,1,1.29.43,1.92,1.92,0,0,1,.75.6,1.53,1.53,0,0,1,.24.87A1.63,1.63,0,0,1,70,142a1.79,1.79,0,0,1-.5.6,2.52,2.52,0,0,1-.77.38,3.52,3.52,0,0,1-1,.14,3,3,0,0,1-1.41-.3,2.23,2.23,0,0,1-.88-.77,1.88,1.88,0,0,1-.3-1h1.09a1.06,1.06,0,0,0,.26.71,1.23,1.23,0,0,0,.57.37,2.29,2.29,0,0,0,.67.11,2,2,0,0,0,.75-.12,1.15,1.15,0,0,0,.46-.32A.74.74,0,0,0,69.12,141.32Zm6.57-3.66V143H74.6v-6.34h1.06Zm2-1v1a1.15,1.15,0,0,0-.26,0h-.27a1.9,1.9,0,0,0-.66.11A1.37,1.37,0,0,0,76,138a1.48,1.48,0,0,0-.32.51,2.91,2.91,0,0,0-.15.63l-.3.17a5.17,5.17,0,0,1,.11-1.07,2.86,2.86,0,0,1,.36-.89,1.62,1.62,0,0,1,.61-.61,1.68,1.68,0,0,1,.89-.23l.27,0Zm3.51,6.49a3.09,3.09,0,0,1-1.2-.23,2.79,2.79,0,0,1-.92-.63,2.83,2.83,0,0,1-.58-1,3.45,3.45,0,0,1-.21-1.23v-.24a3.91,3.91,0,0,1,.23-1.38,3,3,0,0,1,.62-1,2.62,2.62,0,0,1,.89-.64,2.48,2.48,0,0,1,1-.22,2.6,2.6,0,0,1,1.17.24,2,2,0,0,1,.82.65,2.84,2.84,0,0,1,.47,1,4.71,4.71,0,0,1,.15,1.23v.49H78.92v-.89h3.65v-.08a2.87,2.87,0,0,0-.18-.82,1.43,1.43,0,0,0-.47-.66,1.38,1.38,0,0,0-.88-.26,1.58,1.58,0,0,0-.68.16,1.53,1.53,0,0,0-.53.46,2.42,2.42,0,0,0-.35.74,3.91,3.91,0,0,0-.12,1v.24a2.91,2.91,0,0,0,.12.85,2.29,2.29,0,0,0,.37.69,1.72,1.72,0,0,0,.6.47,1.7,1.7,0,0,0,.79.17,1.93,1.93,0,0,0,1-.23,2.46,2.46,0,0,0,.7-.63l.66.52a2.86,2.86,0,0,1-.52.59,2.48,2.48,0,0,1-.78.46A3,3,0,0,1,81.18,143.12Zm6-4.19v.89H84.31v-.89Zm3.69,4.19a3.09,3.09,0,0,1-1.2-.23,2.79,2.79,0,0,1-.92-.63,2.83,2.83,0,0,1-.58-1,3.45,3.45,0,0,1-.21-1.23v-.24a3.91,3.91,0,0,1,.23-1.38,3,3,0,0,1,.62-1,2.62,2.62,0,0,1,.89-.64,2.48,2.48,0,0,1,1-.22,2.6,2.6,0,0,1,1.17.24,2,2,0,0,1,.82.65,2.84,2.84,0,0,1,.47,1,4.71,4.71,0,0,1,.15,1.23v.49H88.6v-.89h3.65v-.08a2.87,2.87,0,0,0-.18-.82,1.43,1.43,0,0,0-.47-.66,1.38,1.38,0,0,0-.88-.26,1.58,1.58,0,0,0-.68.16,1.53,1.53,0,0,0-.53.46,2.42,2.42,0,0,0-.35.74,3.91,3.91,0,0,0-.12,1v.24a2.91,2.91,0,0,0,.12.85,2.29,2.29,0,0,0,.37.69,1.78,1.78,0,0,0,.59.47,1.74,1.74,0,0,0,.8.17,1.93,1.93,0,0,0,1-.23,2.46,2.46,0,0,0,.7-.63l.66.52a2.86,2.86,0,0,1-.52.59,2.48,2.48,0,0,1-.78.46A3,3,0,0,1,90.86,143.12ZM95.68,138v5H94.6v-6.34h1Zm-.26,1.58-.45,0a4.19,4.19,0,0,1,.19-1.2,3.13,3.13,0,0,1,.53-1,2.38,2.38,0,0,1,1.86-.86,2.74,2.74,0,0,1,.84.13,1.52,1.52,0,0,1,.64.4,1.68,1.68,0,0,1,.41.72,3.24,3.24,0,0,1,.14,1.06V143H98.49v-4.17a1.93,1.93,0,0,0-.14-.79.88.88,0,0,0-.43-.44,1.47,1.47,0,0,0-.69-.14,1.52,1.52,0,0,0-.74.17,1.71,1.71,0,0,0-.57.47,2.23,2.23,0,0,0-.37.68A2.41,2.41,0,0,0,95.42,139.59Zm9.92-2.93h1v6.2a2.84,2.84,0,0,1-.34,1.44,2.21,2.21,0,0,1-1,.89,3,3,0,0,1-1.39.31,3.47,3.47,0,0,1-.78-.1,3.31,3.31,0,0,1-.86-.35,2.11,2.11,0,0,1-.71-.65l.57-.64a2.16,2.16,0,0,0,.83.66,2.09,2.09,0,0,0,.86.19,1.93,1.93,0,0,0,.9-.19,1.28,1.28,0,0,0,.57-.58,1.74,1.74,0,0,0,.22-.92v-4.87ZM101,139.9v-.12a4.86,4.86,0,0,1,.17-1.32,3.19,3.19,0,0,1,.5-1,2.28,2.28,0,0,1,1.83-.89,2.46,2.46,0,0,1,1,.21,2,2,0,0,1,.76.61,2.94,2.94,0,0,1,.49.95,5.6,5.6,0,0,1,.26,1.26v.54a5.63,5.63,0,0,1-.26,1.25,2.94,2.94,0,0,1-.49.95,2.11,2.11,0,0,1-.76.6,2.54,2.54,0,0,1-1.06.21,2.2,2.2,0,0,1-1-.24,2.33,2.33,0,0,1-.79-.68,3.47,3.47,0,0,1-.5-1A4.72,4.72,0,0,1,101,139.9Zm1.08-.12v.12a4.18,4.18,0,0,0,.1.89,2.08,2.08,0,0,0,.3.73,1.46,1.46,0,0,0,.52.5,1.5,1.5,0,0,0,.76.18,1.6,1.6,0,0,0,.88-.23,1.57,1.57,0,0,0,.56-.61,3.62,3.62,0,0,0,.33-.81v-1.41a2.64,2.64,0,0,0-.2-.62A2,2,0,0,0,105,138a1.48,1.48,0,0,0-.51-.38,1.58,1.58,0,0,0-.71-.14,1.54,1.54,0,0,0-.77.18,1.49,1.49,0,0,0-.52.51,2.13,2.13,0,0,0-.3.74A4.11,4.11,0,0,0,102.05,139.78Zm7.09-3.12V143h-1.09v-6.34ZM108,135a.64.64,0,0,1,.16-.45.73.73,0,0,1,1,0,.64.64,0,0,1,.17.45.67.67,0,0,1-1.13.43A.6.6,0,0,1,108,135Zm4,3v5h-1.08v-6.34h1Zm-.26,1.58-.45,0a3.87,3.87,0,0,1,.19-1.2,3.13,3.13,0,0,1,.53-1,2.47,2.47,0,0,1,.81-.63,2.41,2.41,0,0,1,1-.23,2.74,2.74,0,0,1,.84.13,1.58,1.58,0,0,1,.64.4,1.68,1.68,0,0,1,.41.72,3.54,3.54,0,0,1,.14,1.06V143h-1.09v-4.17a1.93,1.93,0,0,0-.14-.79.92.92,0,0,0-.43-.44,1.47,1.47,0,0,0-.69-.14,1.52,1.52,0,0,0-.74.17,1.71,1.71,0,0,0-.57.47,2.23,2.23,0,0,0-.37.68A2.41,2.41,0,0,0,111.71,139.59Zm8.44,3.53a3.09,3.09,0,0,1-1.2-.23,2.69,2.69,0,0,1-.92-.63,2.85,2.85,0,0,1-.59-1,3.45,3.45,0,0,1-.2-1.23v-.24a3.92,3.92,0,0,1,.22-1.38,3,3,0,0,1,.63-1,2.53,2.53,0,0,1,.89-.64,2.45,2.45,0,0,1,1-.22,2.66,2.66,0,0,1,1.17.24,2.07,2.07,0,0,1,.81.65,2.84,2.84,0,0,1,.47,1,4.71,4.71,0,0,1,.15,1.23v.49h-4.73v-.89h3.65v-.08a2.55,2.55,0,0,0-.17-.82,1.51,1.51,0,0,0-.47-.66,1.4,1.4,0,0,0-.88-.26,1.55,1.55,0,0,0-.68.16,1.37,1.37,0,0,0-.53.46,2.21,2.21,0,0,0-.35.74,3.91,3.91,0,0,0-.12,1v.24a2.91,2.91,0,0,0,.12.85,2.29,2.29,0,0,0,.37.69,1.68,1.68,0,0,0,.59.47,1.71,1.71,0,0,0,.8.17,2,2,0,0,0,1-.23,2.46,2.46,0,0,0,.7-.63l.65.52a2.59,2.59,0,0,1-.52.59,2.48,2.48,0,0,1-.78.46A2.91,2.91,0,0,1,120.15,143.12Zm6.36,0a3.09,3.09,0,0,1-1.2-.23,2.69,2.69,0,0,1-.92-.63,3,3,0,0,1-.59-1,3.69,3.69,0,0,1-.2-1.23v-.24a3.91,3.91,0,0,1,.23-1.38,3,3,0,0,1,.62-1,2.62,2.62,0,0,1,.89-.64,2.48,2.48,0,0,1,1-.22,2.66,2.66,0,0,1,1.17.24,2,2,0,0,1,.82.65,2.84,2.84,0,0,1,.47,1,4.71,4.71,0,0,1,.15,1.23v.49h-4.74v-.89h3.65v-.08a2.55,2.55,0,0,0-.17-.82,1.51,1.51,0,0,0-.47-.66,1.38,1.38,0,0,0-.88-.26,1.55,1.55,0,0,0-.68.16,1.45,1.45,0,0,0-.53.46,2.21,2.21,0,0,0-.35.74,3.91,3.91,0,0,0-.12,1v.24a2.91,2.91,0,0,0,.12.85,2.29,2.29,0,0,0,.37.69,1.78,1.78,0,0,0,.59.47,1.74,1.74,0,0,0,.8.17,1.93,1.93,0,0,0,1-.23,2.46,2.46,0,0,0,.7-.63l.66.52a2.86,2.86,0,0,1-.52.59,2.72,2.72,0,0,1-.78.46A3,3,0,0,1,126.51,143.12Zm4.82-5.46V143h-1.09v-6.34h1.06Zm2-1v1l-.25,0h-.28a1.9,1.9,0,0,0-.66.11,1.37,1.37,0,0,0-.48.33,1.48,1.48,0,0,0-.32.51,2.91,2.91,0,0,0-.15.63l-.3.17a5.17,5.17,0,0,1,.11-1.07,2.86,2.86,0,0,1,.36-.89,1.62,1.62,0,0,1,.61-.61,1.68,1.68,0,0,1,.89-.23l.27,0Zm2.18,0V143H134.4v-6.34ZM134.32,135a.64.64,0,0,1,.16-.45.58.58,0,0,1,.47-.18.62.62,0,0,1,.48.18.64.64,0,0,1,.17.45.6.6,0,0,1-.65.61.58.58,0,0,1-.47-.18A.6.6,0,0,1,134.32,135Zm4,3v5h-1.08v-6.34h1Zm-.26,1.58-.45,0a3.87,3.87,0,0,1,.2-1.2,3.11,3.11,0,0,1,.52-1,2.38,2.38,0,0,1,1.86-.86,2.74,2.74,0,0,1,.84.13,1.52,1.52,0,0,1,.64.4,1.68,1.68,0,0,1,.41.72,3.24,3.24,0,0,1,.14,1.06V143h-1.09v-4.17A1.78,1.78,0,0,0,141,138a.88.88,0,0,0-.43-.44,1.47,1.47,0,0,0-.69-.14,1.52,1.52,0,0,0-.74.17,1.71,1.71,0,0,0-.57.47,2.47,2.47,0,0,0-.37.68A2.69,2.69,0,0,0,138.05,139.59Zm9.92-2.93h1v6.2a2.84,2.84,0,0,1-.34,1.44,2.15,2.15,0,0,1-1,.89,2.94,2.94,0,0,1-1.39.31,3.32,3.32,0,0,1-.77-.1,3.24,3.24,0,0,1-.87-.35,2.2,2.2,0,0,1-.71-.65l.57-.64a2.16,2.16,0,0,0,.83.66,2.1,2.1,0,0,0,.87.19,1.91,1.91,0,0,0,.89-.19,1.35,1.35,0,0,0,.58-.58,1.84,1.84,0,0,0,.21-.92v-4.87Zm-4.37,3.24v-.12a4.86,4.86,0,0,1,.17-1.32,3.41,3.41,0,0,1,.5-1,2.28,2.28,0,0,1,1.84-.89,2.44,2.44,0,0,1,1,.21,2,2,0,0,1,.76.61,3,3,0,0,1,.5.95,6.24,6.24,0,0,1,.25,1.26v.54a5.64,5.64,0,0,1-.25,1.25,3,3,0,0,1-.5.95,2.11,2.11,0,0,1-.76.6,2.47,2.47,0,0,1-1.06.21,2.2,2.2,0,0,1-1-.24,2.4,2.4,0,0,1-.78-.68,3.25,3.25,0,0,1-.51-1A4.72,4.72,0,0,1,143.6,139.9Zm1.09-.12v.12a4.19,4.19,0,0,0,.09.89,2.54,2.54,0,0,0,.3.73,1.55,1.55,0,0,0,.52.5,1.5,1.5,0,0,0,.76.18,1.51,1.51,0,0,0,1.44-.84,3.21,3.21,0,0,0,.33-.81v-1.41a2.64,2.64,0,0,0-.2-.62,1.77,1.77,0,0,0-.34-.54,1.32,1.32,0,0,0-.51-.38,1.52,1.52,0,0,0-2,.55,2.61,2.61,0,0,0-.3.74A4.13,4.13,0,0,0,144.69,139.78ZM69.1,156.23a1.71,1.71,0,0,0,.71-.16,1.54,1.54,0,0,0,.54-.43,1.26,1.26,0,0,0,.24-.64h1a1.93,1.93,0,0,1-.38,1.05,2.55,2.55,0,0,1-.91.77,2.57,2.57,0,0,1-1.23.3,2.84,2.84,0,0,1-1.25-.26,2.3,2.3,0,0,1-.88-.69,2.89,2.89,0,0,1-.52-1,4.09,4.09,0,0,1-.17-1.22v-.24a4,4,0,0,1,.17-1.21,2.94,2.94,0,0,1,.52-1,2.3,2.3,0,0,1,.88-.69,2.84,2.84,0,0,1,1.25-.26,2.63,2.63,0,0,1,1.3.31,2.22,2.22,0,0,1,.87.82,2.4,2.4,0,0,1,.35,1.17h-1a1.56,1.56,0,0,0-.22-.71,1.39,1.39,0,0,0-.52-.5,1.42,1.42,0,0,0-.75-.2,1.63,1.63,0,0,0-.84.2,1.5,1.5,0,0,0-.53.53,2.48,2.48,0,0,0-.29.73,4.47,4.47,0,0,0-.08.82V154a4.47,4.47,0,0,0,.08.82,2.52,2.52,0,0,0,.28.74,1.47,1.47,0,0,0,.53.52A1.7,1.7,0,0,0,69.1,156.23Zm7.48-.31v-3.27a1.36,1.36,0,0,0-.15-.65,1,1,0,0,0-.45-.43,1.62,1.62,0,0,0-.74-.15,1.65,1.65,0,0,0-.72.14,1.19,1.19,0,0,0-.48.37.81.81,0,0,0-.17.49H72.79a1.55,1.55,0,0,1,.17-.68,2,2,0,0,1,.51-.6,2.5,2.5,0,0,1,.79-.43,3.17,3.17,0,0,1,1-.17,2.87,2.87,0,0,1,1.21.24,1.77,1.77,0,0,1,.84.71,2.12,2.12,0,0,1,.3,1.17v3a5.43,5.43,0,0,0,0,.67,3.07,3.07,0,0,0,.17.62V157H76.75a2.72,2.72,0,0,1-.13-.5A4,4,0,0,1,76.58,155.92Zm.19-2.76v.76h-1.1a4.21,4.21,0,0,0-.83.07,1.83,1.83,0,0,0-.6.22,1,1,0,0,0-.51.88,1.15,1.15,0,0,0,.14.55,1,1,0,0,0,.4.39,1.52,1.52,0,0,0,.68.14,1.75,1.75,0,0,0,.87-.21,1.85,1.85,0,0,0,.61-.52,1.09,1.09,0,0,0,.24-.59l.47.52a1.66,1.66,0,0,1-.23.55,2.74,2.74,0,0,1-.48.57,2.59,2.59,0,0,1-.72.45,2.25,2.25,0,0,1-.92.18,2.39,2.39,0,0,1-1.13-.26,1.88,1.88,0,0,1-.75-.67,1.73,1.73,0,0,1-.27-.95,2,2,0,0,1,.2-.9,1.72,1.72,0,0,1,.58-.65,2.65,2.65,0,0,1,.9-.4,4.74,4.74,0,0,1,1.18-.13Zm5.25-2.5v.83H78.59v-.83Zm-2.27-1.54h1.09v6.31a.94.94,0,0,0,.1.49.45.45,0,0,0,.26.21.9.9,0,0,0,.34.06l.28,0,.23,0V157l-.34.08a3.37,3.37,0,0,1-.5,0,1.77,1.77,0,0,1-.73-.16,1.18,1.18,0,0,1-.53-.53,2.18,2.18,0,0,1-.2-1Zm6.17,8a3.09,3.09,0,0,1-1.2-.23,2.79,2.79,0,0,1-.92-.63,2.83,2.83,0,0,1-.58-1,3.45,3.45,0,0,1-.21-1.23v-.24a3.91,3.91,0,0,1,.23-1.38,3,3,0,0,1,.62-1,2.62,2.62,0,0,1,.89-.64,2.48,2.48,0,0,1,1-.22,2.6,2.6,0,0,1,1.17.24,2,2,0,0,1,.82.65,2.84,2.84,0,0,1,.47,1,4.71,4.71,0,0,1,.15,1.23v.49H83.66v-.89h3.65v-.08a2.87,2.87,0,0,0-.18-.82,1.43,1.43,0,0,0-.47-.66,1.38,1.38,0,0,0-.88-.26,1.58,1.58,0,0,0-.68.16,1.53,1.53,0,0,0-.53.46,2.2,2.2,0,0,0-.34.74,3.51,3.51,0,0,0-.13,1v.24a2.61,2.61,0,0,0,.13.85,2.06,2.06,0,0,0,.36.69,1.72,1.72,0,0,0,.6.47,1.7,1.7,0,0,0,.79.17,1.93,1.93,0,0,0,1-.23,2.46,2.46,0,0,0,.7-.63l.66.52a2.86,2.86,0,0,1-.52.59,2.48,2.48,0,0,1-.78.46A3,3,0,0,1,85.92,157.12Zm7.84-6.46h1v6.2a2.84,2.84,0,0,1-.34,1.44,2.26,2.26,0,0,1-1,.89,3,3,0,0,1-1.4.31,3.46,3.46,0,0,1-.77-.1,3.52,3.52,0,0,1-.87-.35,2.31,2.31,0,0,1-.71-.65l.57-.64a2.32,2.32,0,0,0,.83.66,2.17,2.17,0,0,0,.87.19,1.89,1.89,0,0,0,.89-.19,1.3,1.3,0,0,0,.58-.58,1.84,1.84,0,0,0,.21-.92v-4.87ZM89.4,153.9v-.12a4.49,4.49,0,0,1,.17-1.32,3.19,3.19,0,0,1,.5-1,2.24,2.24,0,0,1,.79-.65,2.21,2.21,0,0,1,1-.24,2.38,2.38,0,0,1,1,.21,2,2,0,0,1,.76.61,2.77,2.77,0,0,1,.5.95,5.62,5.62,0,0,1,.25,1.26v.54a5.13,5.13,0,0,1-.25,1.25,2.77,2.77,0,0,1-.5.95,2,2,0,0,1-.76.6,2.46,2.46,0,0,1-1,.21,2.2,2.2,0,0,1-1-.24,2.33,2.33,0,0,1-.79-.68,3.24,3.24,0,0,1-.5-1A4.36,4.36,0,0,1,89.4,153.9Zm1.08-.12v.12a3.62,3.62,0,0,0,.1.89,2.08,2.08,0,0,0,.3.73,1.46,1.46,0,0,0,.52.5,1.49,1.49,0,0,0,.75.18A1.61,1.61,0,0,0,93,156a1.64,1.64,0,0,0,.56-.61,3.62,3.62,0,0,0,.33-.81v-1.41a2.64,2.64,0,0,0-.2-.62,2,2,0,0,0-.34-.54,1.48,1.48,0,0,0-.51-.38,1.6,1.6,0,0,0-.72-.14,1.53,1.53,0,0,0-.76.18,1.49,1.49,0,0,0-.52.51,2.13,2.13,0,0,0-.3.74A3.57,3.57,0,0,0,90.48,153.78Zm5.63.12v-.13a3.82,3.82,0,0,1,.2-1.28,3,3,0,0,1,.57-1,2.56,2.56,0,0,1,.91-.68,2.84,2.84,0,0,1,1.19-.25,2.94,2.94,0,0,1,1.21.25,2.56,2.56,0,0,1,.91.68,3,3,0,0,1,.58,1,4.09,4.09,0,0,1,.2,1.28v.13a4,4,0,0,1-.2,1.27,3.16,3.16,0,0,1-.58,1,2.69,2.69,0,0,1-.91.68,2.84,2.84,0,0,1-3.31-.68,3.14,3.14,0,0,1-.57-1A3.72,3.72,0,0,1,96.11,153.9Zm1.08-.13v.13a3.7,3.7,0,0,0,.11.9,2.63,2.63,0,0,0,.34.74,1.82,1.82,0,0,0,.56.51,1.71,1.71,0,0,0,.8.18,1.59,1.59,0,0,0,.77-.18,1.75,1.75,0,0,0,.57-.51,2.36,2.36,0,0,0,.33-.74,3.26,3.26,0,0,0,.12-.9v-.13a3.19,3.19,0,0,0-.12-.89,2.19,2.19,0,0,0-.34-.74,1.64,1.64,0,0,0-.56-.52,1.62,1.62,0,0,0-.79-.19,1.67,1.67,0,0,0-.78.19,1.74,1.74,0,0,0-.56.52,2.4,2.4,0,0,0-.34.74A3.62,3.62,0,0,0,97.19,153.77Zm7.13-2.11V157h-1.08v-6.34h1.05Zm2-1v1l-.26,0h-.27a1.9,1.9,0,0,0-.66.11,1.41,1.41,0,0,0-.49.33,1.64,1.64,0,0,0-.32.51,2.42,2.42,0,0,0-.14.63l-.31.17a5.17,5.17,0,0,1,.11-1.07,2.86,2.86,0,0,1,.36-.89,1.69,1.69,0,0,1,1.5-.84l.27,0Zm2.89,5.71,1.76-5.68h1.16L109.57,158a3.61,3.61,0,0,1-.23.5,2.68,2.68,0,0,1-.36.52,1.65,1.65,0,0,1-.54.4,1.67,1.67,0,0,1-1.08.12l-.28-.05v-.88h.29a1.74,1.74,0,0,0,.63-.1,1,1,0,0,0,.43-.32,2,2,0,0,0,.31-.62Zm-1.29-5.68,1.64,4.92.28,1.15-.77.39-2.34-6.46Z"></path><path class="cls-4" d="M74.55,93.75V95h-5V93.92l2.32-3c.23-.33.41-.61.55-.85a3.74,3.74,0,0,0,.28-.65,2.23,2.23,0,0,0,.08-.56,2,2,0,0,0-.1-.67,1,1,0,0,0-.29-.45.69.69,0,0,0-.47-.16.79.79,0,0,0-.56.19,1.25,1.25,0,0,0-.34.53,2.68,2.68,0,0,0-.1.78H69.45a3.18,3.18,0,0,1,.3-1.39A2.35,2.35,0,0,1,72,86.35a2.56,2.56,0,0,1,1.29.29,2,2,0,0,1,.79.82,2.81,2.81,0,0,1,.27,1.28,3.22,3.22,0,0,1-.11.81,4.61,4.61,0,0,1-.31.79,5.32,5.32,0,0,1-.49.79c-.18.27-.4.54-.63.82l-1.29,1.8ZM80.48,90v1.44a6.8,6.8,0,0,1-.18,1.68,3.15,3.15,0,0,1-.5,1.14,2,2,0,0,1-.76.65,2.24,2.24,0,0,1-1,.21,2.58,2.58,0,0,1-.8-.13,2.06,2.06,0,0,1-.68-.41,2.67,2.67,0,0,1-.52-.72,4.3,4.3,0,0,1-.33-1,8.08,8.08,0,0,1-.11-1.39V90a6.72,6.72,0,0,1,.18-1.67,3.29,3.29,0,0,1,.5-1.13,1.87,1.87,0,0,1,.77-.64,2.27,2.27,0,0,1,1-.21,2.32,2.32,0,0,1,.8.13,1.71,1.71,0,0,1,.67.41,2.28,2.28,0,0,1,.52.7,4.16,4.16,0,0,1,.33,1A8,8,0,0,1,80.48,90ZM79,91.65V89.77c0-.32,0-.6,0-.84a3.65,3.65,0,0,0-.12-.61,1.3,1.3,0,0,0-.19-.41.7.7,0,0,0-.26-.23.68.68,0,0,0-.32-.07.63.63,0,0,0-.38.11,1,1,0,0,0-.3.37,2.38,2.38,0,0,0-.18.67,5.92,5.92,0,0,0-.07,1v1.88a7.31,7.31,0,0,0,0,.86,3.05,3.05,0,0,0,.13.62,1.36,1.36,0,0,0,.19.42.65.65,0,0,0,.58.31.77.77,0,0,0,.39-.11,1,1,0,0,0,.29-.39,2.1,2.1,0,0,0,.17-.67A6.22,6.22,0,0,0,79,91.65Zm6.19-5.2V95h-1.5V88.31L82,89V87.69l3-1.24ZM92.55,90v1.44a6.8,6.8,0,0,1-.18,1.68,3.33,3.33,0,0,1-.49,1.14,2.07,2.07,0,0,1-.77.65,2.24,2.24,0,0,1-1,.21,2.58,2.58,0,0,1-.8-.13,2.06,2.06,0,0,1-.68-.41,2.47,2.47,0,0,1-.52-.72,4.3,4.3,0,0,1-.33-1,8.08,8.08,0,0,1-.11-1.39V90a6.72,6.72,0,0,1,.18-1.67,3.29,3.29,0,0,1,.5-1.13,1.87,1.87,0,0,1,.77-.64,2.27,2.27,0,0,1,1-.21,2.37,2.37,0,0,1,.81.13,1.75,1.75,0,0,1,.66.41,2.28,2.28,0,0,1,.52.7,4.16,4.16,0,0,1,.33,1A8,8,0,0,1,92.55,90Zm-1.5,1.65V89.77a7,7,0,0,0,0-.84,3.65,3.65,0,0,0-.12-.61,1.3,1.3,0,0,0-.19-.41.7.7,0,0,0-.26-.23.68.68,0,0,0-.32-.07.63.63,0,0,0-.38.11.87.87,0,0,0-.3.37,2.38,2.38,0,0,0-.18.67,5.92,5.92,0,0,0-.07,1v1.88a7.31,7.31,0,0,0,0,.86,3.05,3.05,0,0,0,.13.62,1.65,1.65,0,0,0,.19.42.65.65,0,0,0,.58.31.77.77,0,0,0,.39-.11,1,1,0,0,0,.29-.39,2.1,2.1,0,0,0,.17-.67A6.22,6.22,0,0,0,91.05,91.65Zm5.45-.93V92H93.76V90.72Zm4.76-4.27V95h-1.5V88.31L98.09,89V87.69l3-1.24Zm6,0V95h-1.51V88.31l-1.66.66V87.69l3-1.24Z"></path></g></svg>