<svg xmlns="http://www.w3.org/2000/svg" xmlns:xlink="http://www.w3.org/1999/xlink" id="Layer_1" data-name="Layer 1" viewBox="0 0 177 166"><defs><style>.cls-1{fill:none;}.cls-2{clip-path:url(#clip-path);}.cls-3{fill:#61686d;}.cls-4{fill:#fff;}</style><clipPath id="clip-path"><rect class="cls-1" width="177" height="166"></rect></clipPath></defs><g class="cls-2"><path class="cls-3" d="M140.37,68.4c-2.58,1.81-3,3.77-3.07,4.31-.41.25-.79.46-1.14.65.55-.91,1.07-1.84,1.54-2.79a41.58,41.58,0,0,0,2.06-5c.06-.19.13-.38.19-.56a13.62,13.62,0,0,1,2-3.92l.17-.24c7.24-4,3.92-12,3.92-12,.11,1.79-1.61,3.15-3.39,6.4-1.5,2.77-1,4.71-.82,5.23-.36.57-.71,1.07-1,1.49q.18-.78.33-1.56a38.45,38.45,0,0,0,.62-5.35l0-.67c0-.22,0-.44,0-.67V52.34c0-.45,0-.9-.05-1.35,0-.22,0-.44,0-.66l-.06-.67a5,5,0,0,1,.07-1.33l.52-2.55c5.28-6.35-.78-12.65-.78-12.65.76,1.62-.34,3.52-.8,7.2-.38,3.13.8,4.75,1.16,5.16-.15.75-.3,1.39-.43,1.92l-.06-.42c-.05-.44-.15-.88-.23-1.32L141,45c0-.22-.08-.44-.14-.65-.21-.87-.41-1.74-.69-2.59l-.19-.64-.1-.31-.11-.32-.45-1.26c-.29-.72-.59-1.45-.91-2.17a11.65,11.65,0,0,1-1-4.07c0-.33,0-.65-.08-1,2.84-7.75-5-11.65-5-11.65,1.26,1.27.85,3.43,1.67,7,.68,3.08,2.35,4.21,2.83,4.48.15,1.05.23,1.93.27,2.55l0-.07-.32-.59c-.11-.2-.23-.38-.34-.58l-.69-1.14L135,31l-.38-.55-.4-.54c-.4-.57-.84-1.12-1.29-1.66-.62-.79-1.48-1.94-2.22-2.76a5.66,5.66,0,0,1-.88-1.29c-3.26-6.86-11.2-4.93-11.2-4.93,1.78.11,2.92,2,5.93,4.15a6.65,6.65,0,0,0,5,1.49l.26.08.91,1A36.48,36.48,0,0,1,134,30.05l.38.54c.13.18.24.37.36.55l.71,1.12.3.53A22.35,22.35,0,0,0,133.32,31C129,24,121.11,27.65,121.11,27.65c1.78-.19,3.21,1.47,6.54,3.09,2.84,1.38,4.75.79,5.26.58C134,32,135,32.64,135.54,33a2.68,2.68,0,0,1,.82.95h0l.3.59a36.93,36.93,0,0,1,2.08,4.84l.41,1.25.1.31.1.32.17.63c.25.84.42,1.71.61,2.56.05.22.09.43.13.65h0a24.34,24.34,0,0,0-1.67-2.25c-2-8-10.7-6.8-10.7-6.8,1.76.34,2.65,2.35,5.36,4.87,2.31,2.15,4.32,2.15,4.86,2.1.62.67,1.13,1.28,1.51,1.75a4.17,4.17,0,0,1,.93,2.26h0l.16,1.31,0,.32,0,.33,0,.65,0,.66c0,.21,0,.43,0,.65,0,.44,0,.87,0,1.31l0,1.32c0,.21,0,.43,0,.65l0,.65c-.07,1-.17,1.89-.31,2.82a20.92,20.92,0,0,0-.65-2.24c1-8.19-7.56-10.17-7.56-10.17,1.52.95,1.63,3.14,3.27,6.46,1.39,2.84,3.26,3.55,3.79,3.7.2.51.37,1,.52,1.4a5.78,5.78,0,0,1,.2,3.19v0a39.44,39.44,0,0,1-1.44,5,43.19,43.19,0,0,1-2.11,4.77c-.24.45-.49.89-.75,1.33a23.23,23.23,0,0,0,.27-2.67c3.89-7.28-3.31-12.22-3.31-12.22,1.07,1.43.37,3.51.67,7.21.25,3.14,1.73,4.49,2.17,4.82v.35a9.8,9.8,0,0,1-1.78,5.59s0,0,0,0a37.38,37.38,0,0,1-3.32,4c-.3.3-.59.63-.91.93l-.93.89s0,0,0,0c.28-.51.54-1,.78-1.51C135.74,73.45,131,66.1,131,66.1c.44,1.74-1,3.38-2.18,6.91-1,3-.14,4.81.13,5.28-.18.45-.37.87-.54,1.24a6.26,6.26,0,0,1-1.81,2.33h0a36.87,36.87,0,0,1-4.26,3c-.87.51-1.75,1-2.65,1.43.37-.39.72-.78,1-1.16,6.14-2.84,3.88-9.63,3.88-9.63,0,1.46-1.49,2.48-3.12,5a5.32,5.32,0,0,0-1,4.22c-.2.27-.39.52-.57.74a5.65,5.65,0,0,1-2.21,1.69,0,0,0,0,1,0,0,42,42,0,0,1-4.88,1.69h0a1.09,1.09,0,1,0,.62,2.09,39.09,39.09,0,0,0,9.9-4.51c.92-.57,1.82-1.2,2.68-1.86A7.88,7.88,0,0,1,130.09,83c7.71,3,11.72-4.8,11.72-4.8-1.29,1.24-3.45.81-7.07,1.56-3.09.64-4.24,2.29-4.52,2.76-.74.1-1.39.16-1.94.19.5-.43,1-.88,1.45-1.32l1-1c.32-.32.61-.67.92-1A39.22,39.22,0,0,0,135,75.19l.06-.09a5.15,5.15,0,0,1,2-1.73l.38-.2c8.25-.31,8.9-9,8.9-9C145.56,65.84,143.41,66.28,140.37,68.4Z"></path><path class="cls-3" d="M37.39,68.4c2.59,1.81,3,3.77,3.08,4.31.41.25.79.46,1.14.65-.55-.91-1.07-1.84-1.55-2.79a41.52,41.52,0,0,1-2.05-5c-.07-.19-.13-.38-.19-.56a13.62,13.62,0,0,0-2-3.92l-.17-.24c-7.24-4-3.92-12-3.92-12-.11,1.79,1.61,3.15,3.38,6.4,1.51,2.77,1,4.71.82,5.23.37.57.72,1.07,1,1.49q-.18-.78-.33-1.56A37,37,0,0,1,36,55l0-.67c0-.22,0-.44,0-.67V52.34c0-.45.05-.9.06-1.35,0-.22,0-.44,0-.66l.06-.67a5,5,0,0,0-.07-1.33l-.52-2.55c-5.28-6.35.78-12.65.78-12.65-.76,1.62.34,3.52.79,7.2.39,3.13-.79,4.75-1.16,5.16.16.75.31,1.39.44,1.92l.06-.42c0-.44.15-.88.23-1.32l.13-.66c0-.22.08-.44.14-.65.21-.87.41-1.74.68-2.59l.2-.64.1-.31.11-.32.45-1.26c.29-.72.58-1.45.9-2.17a11.66,11.66,0,0,0,1-4.07c0-.33,0-.65.08-1-2.85-7.75,5-11.65,5-11.65-1.26,1.27-.86,3.43-1.67,7-.69,3.08-2.35,4.21-2.83,4.48-.15,1.05-.23,1.93-.27,2.55l0-.07.32-.59c.1-.2.23-.38.34-.58l.69-1.14.74-1.1.38-.55.39-.54c.41-.57.84-1.12,1.3-1.66.62-.79,1.47-1.94,2.22-2.76A5.66,5.66,0,0,0,48,24.18c3.25-6.86,11.2-4.93,11.2-4.93-1.78.11-2.92,2-5.93,4.15a6.65,6.65,0,0,1-4.95,1.49l-.26.08-.91,1a36.48,36.48,0,0,0-3.32,4.12l-.39.54c-.12.18-.23.37-.36.55l-.71,1.12-.3.53A22.35,22.35,0,0,1,44.44,31c4.29-7.06,12.21-3.38,12.21-3.38-1.77-.19-3.21,1.47-6.54,3.09-2.84,1.38-4.75.79-5.26.58-1.13.67-2.08,1.32-2.63,1.71a2.68,2.68,0,0,0-.82.95h0l-.3.59A36.93,36.93,0,0,0,39,39.42l-.41,1.25-.1.31-.09.32-.18.63c-.25.84-.42,1.71-.61,2.56-.05.22-.09.43-.12.65h0a22.61,22.61,0,0,1,1.66-2.25c2-8,10.7-6.8,10.7-6.8-1.76.34-2.65,2.35-5.36,4.87-2.31,2.15-4.31,2.15-4.86,2.1-.61.67-1.13,1.28-1.5,1.75a4.11,4.11,0,0,0-.94,2.26h0l-.16,1.31,0,.32,0,.33,0,.65,0,.66c0,.21,0,.43,0,.65,0,.44,0,.87,0,1.31l0,1.32c0,.21,0,.43,0,.65l.05.65c.07,1,.18,1.89.31,2.82.19-.78.4-1.53.65-2.24-1-8.19,7.56-10.17,7.56-10.17-1.52.95-1.63,3.14-3.27,6.46-1.38,2.84-3.26,3.55-3.79,3.7-.2.51-.37,1-.52,1.4a5.78,5.78,0,0,0-.2,3.19s0,0,0,0a37.83,37.83,0,0,0,1.43,5,41.45,41.45,0,0,0,2.12,4.77c.23.45.48.89.74,1.33a21.13,21.13,0,0,1-.26-2.67c-3.9-7.28,3.3-12.22,3.3-12.22-1.07,1.43-.37,3.51-.66,7.21-.25,3.14-1.74,4.49-2.18,4.82v.35A9.8,9.8,0,0,0,44,74.32l0,0a37.38,37.38,0,0,0,3.32,4c.3.3.59.63.91.93l.93.89,0,0c-.28-.51-.54-1-.78-1.51C42,73.45,46.75,66.1,46.75,66.1c-.43,1.74,1,3.38,2.19,6.91,1,3,.14,4.81-.14,5.28.19.45.38.87.55,1.24a6.16,6.16,0,0,0,1.81,2.33h0a36.87,36.87,0,0,0,4.26,3c.86.51,1.75,1,2.65,1.43-.38-.39-.72-.78-1-1.16-6.15-2.84-3.89-9.63-3.89-9.63,0,1.46,1.5,2.48,3.13,5a5.37,5.37,0,0,1,1,4.22c.2.27.39.52.57.74A5.69,5.69,0,0,0,60,87.16h0a42,42,0,0,0,4.88,1.69h0A1.09,1.09,0,1,1,64.33,91a39.09,39.09,0,0,1-9.9-4.51c-.92-.57-1.82-1.2-2.69-1.86A7.82,7.82,0,0,0,47.68,83C40,86,36,78.22,36,78.22c1.29,1.24,3.44.81,7.07,1.56a6.55,6.55,0,0,1,4.52,2.76c.74.1,1.39.16,1.93.19-.49-.43-1-.88-1.44-1.32l-.95-1c-.33-.32-.61-.67-.93-1a40.4,40.4,0,0,1-3.34-4.26l-.06-.09a5.15,5.15,0,0,0-1.95-1.73l-.39-.2c-8.24-.31-8.89-9-8.89-9C32.2,65.84,34.36,66.28,37.39,68.4Z"></path><path class="cls-4" d="M66.29,33.47V42H64.87V33.47ZM69.18,37v5H67.81V35.66h1.28Zm-.25,1.59H68.5a4.52,4.52,0,0,1,.14-1.25,3,3,0,0,1,.44-1,1.91,1.91,0,0,1,.68-.62,1.75,1.75,0,0,1,.88-.23,1.93,1.93,0,0,1,.69.13,1.18,1.18,0,0,1,.53.41,1.77,1.77,0,0,1,.34.73,3.9,3.9,0,0,1,.13,1.1V42H71V37.9a1.89,1.89,0,0,0-.1-.7.66.66,0,0,0-.28-.38.84.84,0,0,0-.47-.12.86.86,0,0,0-.49.15,1.27,1.27,0,0,0-.37.42,2,2,0,0,0-.24.6A3.4,3.4,0,0,0,68.93,38.6Zm8,2.08V33h1.36v9H77Zm-3.41-1.59v-.5a5.9,5.9,0,0,1,.14-1.35,2.87,2.87,0,0,1,.41-1,1.7,1.7,0,0,1,.67-.56,1.86,1.86,0,0,1,.87-.19,1.54,1.54,0,0,1,.82.22,1.88,1.88,0,0,1,.59.6,3.84,3.84,0,0,1,.38.94,6.83,6.83,0,0,1,.19,1.21v.69a7.83,7.83,0,0,1-.2,1.18,3.22,3.22,0,0,1-.38.92,1.92,1.92,0,0,1-.59.61,1.54,1.54,0,0,1-.82.21,1.92,1.92,0,0,1-.87-.2,2,2,0,0,1-.66-.57,2.9,2.9,0,0,1-.41-.94A5.75,5.75,0,0,1,73.48,39.09Zm1.37-.5v.5a5.17,5.17,0,0,0,.06.84,2.09,2.09,0,0,0,.18.58.9.9,0,0,0,.34.33,1.13,1.13,0,0,0,.51.11,1,1,0,0,0,.61-.19,1.2,1.2,0,0,0,.37-.51,3,3,0,0,0,.19-.71V38.17A2.5,2.5,0,0,0,77,37.6a1.58,1.58,0,0,0-.23-.47,1.12,1.12,0,0,0-.34-.31A.89.89,0,0,0,76,36.7a1,1,0,0,0-.51.12.88.88,0,0,0-.34.35,1.65,1.65,0,0,0-.19.58A5.17,5.17,0,0,0,74.85,38.59Zm6.25-2.93V42H79.73V35.66ZM79.66,34a.77.77,0,0,1,.2-.54.72.72,0,0,1,.56-.23.75.75,0,0,1,.56.22.84.84,0,0,1,0,1.09.85.85,0,0,1-1.12,0A.8.8,0,0,1,79.66,34Zm5.84,6.71V37.55a1.33,1.33,0,0,0-.09-.53.57.57,0,0,0-.27-.28.89.89,0,0,0-.43-.09.81.81,0,0,0-.45.11.74.74,0,0,0-.28.3,1,1,0,0,0-.09.43H82.52a1.72,1.72,0,0,1,.16-.73,1.93,1.93,0,0,1,.45-.63,2.17,2.17,0,0,1,.71-.43,2.65,2.65,0,0,1,.92-.16,2.68,2.68,0,0,1,1.09.21,1.55,1.55,0,0,1,.74.65,2.25,2.25,0,0,1,.27,1.17v3a4.58,4.58,0,0,0,.06.78,2.89,2.89,0,0,0,.16.6V42H85.69a2,2,0,0,1-.14-.59A5.49,5.49,0,0,1,85.5,40.71Zm.18-2.57V39H85a1.78,1.78,0,0,0-.53.08,1.15,1.15,0,0,0-.39.23.94.94,0,0,0-.25.34,1.14,1.14,0,0,0-.08.46,1.12,1.12,0,0,0,.08.48.57.57,0,0,0,.25.28.88.88,0,0,0,.41.09,1.15,1.15,0,0,0,.57-.14,1,1,0,0,0,.37-.35.54.54,0,0,0,.11-.38l.31.57a1.62,1.62,0,0,1-.18.47,2,2,0,0,1-.32.47,1.44,1.44,0,0,1-.48.36,1.48,1.48,0,0,1-.65.14,2.11,2.11,0,0,1-1-.22,1.67,1.67,0,0,1-.65-.64,2,2,0,0,1-.24-1,2.16,2.16,0,0,1,.16-.86,1.74,1.74,0,0,1,.47-.66,2.12,2.12,0,0,1,.78-.44,3.68,3.68,0,0,1,1.11-.15ZM94,33.47V42H92.53V33.47Zm2.17,0v1.19H90.38V33.47ZM99,42.12a3.08,3.08,0,0,1-1.09-.18,2.14,2.14,0,0,1-.82-.56,2.46,2.46,0,0,1-.51-.9,4.25,4.25,0,0,1-.17-1.25v-.6a4.74,4.74,0,0,1,.18-1.39,2.58,2.58,0,0,1,.51-1,2,2,0,0,1,.78-.55,2.4,2.4,0,0,1,1-.19,2.54,2.54,0,0,1,1,.2,1.65,1.65,0,0,1,.72.58,2.69,2.69,0,0,1,.43,1,5.72,5.72,0,0,1,.14,1.31v.68H97.07v-1h2.77v-.14a2.7,2.7,0,0,0-.11-.75.82.82,0,0,0-.87-.65,1.16,1.16,0,0,0-.47.1.8.8,0,0,0-.34.32,1.91,1.91,0,0,0-.2.6,4.78,4.78,0,0,0-.07.92v.6a3.69,3.69,0,0,0,.08.81,1.51,1.51,0,0,0,.26.54,1.12,1.12,0,0,0,.41.3,1.7,1.7,0,0,0,.57.1,1.67,1.67,0,0,0,.81-.18,2.12,2.12,0,0,0,.6-.47l.6.84a2.39,2.39,0,0,1-.45.45,2.87,2.87,0,0,1-.7.36A3,3,0,0,1,99,42.12ZM104.53,41a.91.91,0,0,0,.47-.12.78.78,0,0,0,.33-.34,1.39,1.39,0,0,0,.14-.62h1.28a2.31,2.31,0,0,1-.31,1.17,2.07,2.07,0,0,1-.8.78,2.2,2.2,0,0,1-1.09.27,2.88,2.88,0,0,1-1.1-.2,2,2,0,0,1-.76-.59,2.51,2.51,0,0,1-.46-.94,4.92,4.92,0,0,1-.15-1.27v-.58a4.84,4.84,0,0,1,.15-1.26,2.55,2.55,0,0,1,.46-1,1.91,1.91,0,0,1,.76-.58,2.62,2.62,0,0,1,1.09-.21,2.37,2.37,0,0,1,1.16.28,2,2,0,0,1,.76.81,2.88,2.88,0,0,1,.29,1.31h-1.28a2.25,2.25,0,0,0-.12-.69,1,1,0,0,0-.32-.42.88.88,0,0,0-.51-.14,1,1,0,0,0-.54.13.77.77,0,0,0-.33.36,1.88,1.88,0,0,0-.16.59,6,6,0,0,0,0,.77v.58a6.31,6.31,0,0,0,0,.79,2.23,2.23,0,0,0,.15.58.79.79,0,0,0,.34.36A1.09,1.09,0,0,0,104.53,41Zm4.62-8v9H107.8V33Zm-.24,5.6h-.43a4.7,4.7,0,0,1,.14-1.22,3.43,3.43,0,0,1,.42-1,2.11,2.11,0,0,1,.66-.64,1.77,1.77,0,0,1,.87-.23,1.8,1.8,0,0,1,.71.14,1.23,1.23,0,0,1,.55.41,1.77,1.77,0,0,1,.36.74,4.29,4.29,0,0,1,.12,1.1V42H111V37.92a2.3,2.3,0,0,0-.1-.72.71.71,0,0,0-.28-.38.9.9,0,0,0-.48-.12.87.87,0,0,0-.5.15,1.17,1.17,0,0,0-.37.42,2,2,0,0,0-.23.6A3.4,3.4,0,0,0,108.91,38.6ZM68.55,51.81V53h-3.7V51.81Zm-3.33-7.34V53H63.8V44.47ZM68.05,48v1.17h-3.2V48Zm.46-3.55v1.19H64.85V44.47Zm2.21,2.19.92,1.93.86-1.93H74l-1.66,3.11L74.05,53H72.56l-1-2-.93,2h-1.5l1.68-3.22-1.63-3.12ZM77.1,52a.89.89,0,0,0,.47-.12.85.85,0,0,0,.34-.34A1.54,1.54,0,0,0,78,50.9h1.28A2.22,2.22,0,0,1,79,52.07a2.11,2.11,0,0,1-.79.78,2.27,2.27,0,0,1-1.1.27,2.88,2.88,0,0,1-1.1-.2,2.11,2.11,0,0,1-.76-.59,2.51,2.51,0,0,1-.46-.94,4.92,4.92,0,0,1-.15-1.27v-.58a4.84,4.84,0,0,1,.15-1.26,2.55,2.55,0,0,1,.46-1,2,2,0,0,1,.76-.58,2.65,2.65,0,0,1,1.09-.21,2.34,2.34,0,0,1,1.16.28,2,2,0,0,1,.77.81,2.88,2.88,0,0,1,.28,1.31H78a2.25,2.25,0,0,0-.12-.69,1,1,0,0,0-.32-.42.87.87,0,0,0-.5-.14,1,1,0,0,0-.55.13.83.83,0,0,0-.33.36,1.88,1.88,0,0,0-.16.59,6,6,0,0,0,0,.77v.58a6.31,6.31,0,0,0,0,.79,2.13,2.13,0,0,0,.15.58.79.79,0,0,0,.34.36A1.12,1.12,0,0,0,77.1,52Zm5.71,1.14a3.17,3.17,0,0,1-1.1-.18,2.2,2.2,0,0,1-.81-.55,2.6,2.6,0,0,1-.51-.91,3.92,3.92,0,0,1-.18-1.25v-.6a4.41,4.41,0,0,1,.19-1.39,2.58,2.58,0,0,1,.51-1,2,2,0,0,1,.78-.55,2.4,2.4,0,0,1,1-.19,2.54,2.54,0,0,1,1,.2,1.77,1.77,0,0,1,.72.58,2.52,2.52,0,0,1,.42,1A5.21,5.21,0,0,1,85,49.58v.68H80.87v-1h2.77v-.14a3.13,3.13,0,0,0-.11-.75.82.82,0,0,0-.87-.65,1.16,1.16,0,0,0-.47.1.8.8,0,0,0-.34.32,1.91,1.91,0,0,0-.2.6,4.78,4.78,0,0,0-.07.92v.6a3.69,3.69,0,0,0,.08.81,1.51,1.51,0,0,0,.26.54,1.12,1.12,0,0,0,.41.3,1.61,1.61,0,0,0,.57.1,1.7,1.7,0,0,0,.81-.18,2.12,2.12,0,0,0,.6-.47l.6.84a2.39,2.39,0,0,1-.45.45,2.87,2.87,0,0,1-.7.36A3,3,0,0,1,82.81,53.12ZM87.53,44v9H86.16V44Zm2.9,0v9H89.07V44Zm3.89,9.12a3.13,3.13,0,0,1-1.1-.18,2.2,2.2,0,0,1-.81-.55,2.6,2.6,0,0,1-.51-.91,3.92,3.92,0,0,1-.18-1.25v-.6a4.74,4.74,0,0,1,.18-1.39,2.74,2.74,0,0,1,.52-1,2.06,2.06,0,0,1,.77-.55,2.45,2.45,0,0,1,1-.19,2.54,2.54,0,0,1,1,.2,1.77,1.77,0,0,1,.72.58,2.52,2.52,0,0,1,.42,1,5.21,5.21,0,0,1,.14,1.31v.68H92.38v-1h2.76v-.14a2.72,2.72,0,0,0-.1-.75.86.86,0,0,0-.31-.48.85.85,0,0,0-.56-.17,1.12,1.12,0,0,0-.47.1.8.8,0,0,0-.34.32,1.69,1.69,0,0,0-.2.6,4.78,4.78,0,0,0-.07.92v.6a3.17,3.17,0,0,0,.08.81,1.36,1.36,0,0,0,.26.54,1.12,1.12,0,0,0,.41.3,1.61,1.61,0,0,0,.57.1,1.73,1.73,0,0,0,.81-.18,2.12,2.12,0,0,0,.6-.47l.6.84a2.19,2.19,0,0,1-.46.45,2.79,2.79,0,0,1-.69.36A3,3,0,0,1,94.32,53.12ZM98.94,48v5H97.57V46.66h1.28Zm-.25,1.59h-.43a4.52,4.52,0,0,1,.14-1.25,3,3,0,0,1,.44-1,1.91,1.91,0,0,1,.68-.62,1.75,1.75,0,0,1,.88-.23,1.93,1.93,0,0,1,.69.13,1.18,1.18,0,0,1,.53.41,1.77,1.77,0,0,1,.34.73,3.9,3.9,0,0,1,.13,1.1V53h-1.37V48.9a1.89,1.89,0,0,0-.1-.7.66.66,0,0,0-.28-.38.84.84,0,0,0-.47-.12.86.86,0,0,0-.49.15,1.27,1.27,0,0,0-.37.42,2,2,0,0,0-.24.6A3.4,3.4,0,0,0,98.69,49.6Zm7,2.38a.91.91,0,0,0,.47-.12.78.78,0,0,0,.33-.34,1.53,1.53,0,0,0,.14-.62h1.28a2.31,2.31,0,0,1-.31,1.17,2.14,2.14,0,0,1-.8.78,2.23,2.23,0,0,1-1.09.27,2.84,2.84,0,0,1-1.1-.2,2.15,2.15,0,0,1-.77-.59,2.65,2.65,0,0,1-.45-.94,4.92,4.92,0,0,1-.15-1.27v-.58a4.84,4.84,0,0,1,.15-1.26,2.7,2.7,0,0,1,.45-1,2,2,0,0,1,.77-.58,2.62,2.62,0,0,1,1.09-.21,2.37,2.37,0,0,1,1.16.28,2,2,0,0,1,.76.81,2.88,2.88,0,0,1,.29,1.31h-1.28a2,2,0,0,0-.13-.69,1,1,0,0,0-.31-.42.9.9,0,0,0-.51-.14,1,1,0,0,0-.55.13.83.83,0,0,0-.33.36,2.2,2.2,0,0,0-.15.59,5.86,5.86,0,0,0,0,.77v.58a6.18,6.18,0,0,0,0,.79,1.59,1.59,0,0,0,.15.58.83.83,0,0,0,.33.36A1.16,1.16,0,0,0,105.71,52Zm5.71,1.14a3.13,3.13,0,0,1-1.1-.18,2.2,2.2,0,0,1-.81-.55,2.32,2.32,0,0,1-.51-.91,3.92,3.92,0,0,1-.18-1.25v-.6a4.74,4.74,0,0,1,.18-1.39,2.74,2.74,0,0,1,.52-1,2,2,0,0,1,.77-.55,2.45,2.45,0,0,1,1-.19,2.57,2.57,0,0,1,1,.2,1.77,1.77,0,0,1,.72.58,2.52,2.52,0,0,1,.42,1,5.72,5.72,0,0,1,.14,1.31v.68h-4.11v-1h2.76v-.14a3.17,3.17,0,0,0-.1-.75,1,1,0,0,0-.31-.48.86.86,0,0,0-.57-.17,1.11,1.11,0,0,0-.46.1.89.89,0,0,0-.35.32,1.93,1.93,0,0,0-.19.6,4.78,4.78,0,0,0-.07.92v.6a3.17,3.17,0,0,0,.08.81,1.5,1.5,0,0,0,.25.54,1.15,1.15,0,0,0,.42.3,1.6,1.6,0,0,0,.56.1,1.74,1.74,0,0,0,.82-.18,2.12,2.12,0,0,0,.6-.47l.6.84a2.47,2.47,0,0,1-.46.45,2.7,2.7,0,0,1-.7.36A2.91,2.91,0,0,1,111.42,53.12ZM77.28,56.64,75.22,64H73.73l2.71-8.53h.92ZM78.93,64l-2.07-7.36-.1-1.17h.94L80.42,64Zm0-3.17V62H75V60.83Zm3.53,1.75,1.24-4.92h.86l-.17,1.51L83.19,64h-.77ZM82,57.66l1,4.94V64h-.85l-1.43-6.34Zm3.62,4.88.91-4.88h1.33L86.41,64h-.86Zm-.85-4.88L86,62.52,86.05,64h-.76L84,59.17l-.17-1.51Zm7,5.05V59.55a1.33,1.33,0,0,0-.09-.53.57.57,0,0,0-.27-.28.87.87,0,0,0-.42-.1.83.83,0,0,0-.46.12.74.74,0,0,0-.28.3,1,1,0,0,0-.09.43H88.73a1.88,1.88,0,0,1,.16-.73,1.79,1.79,0,0,1,.45-.62,2,2,0,0,1,.71-.44,2.65,2.65,0,0,1,.92-.16,2.68,2.68,0,0,1,1.09.21,1.55,1.55,0,0,1,.74.65,2.25,2.25,0,0,1,.28,1.17v3a4.65,4.65,0,0,0,0,.78,2.89,2.89,0,0,0,.16.6V64H91.9a2.44,2.44,0,0,1-.14-.59A5.49,5.49,0,0,1,91.71,62.71Zm.18-2.57V61h-.66a1.51,1.51,0,0,0-.53.09,1.07,1.07,0,0,0-.39.22.94.94,0,0,0-.25.34,1.34,1.34,0,0,0-.08.46,1.3,1.3,0,0,0,.08.48.57.57,0,0,0,.25.28.88.88,0,0,0,.41.09,1.15,1.15,0,0,0,.57-.14,1.17,1.17,0,0,0,.38-.35.52.52,0,0,0,.1-.38l.31.57a1.91,1.91,0,0,1-.17.47,2.36,2.36,0,0,1-.33.47,1.48,1.48,0,0,1-1.13.5,2,2,0,0,1-.95-.23,1.64,1.64,0,0,1-.65-.63,2,2,0,0,1-.24-1,2.31,2.31,0,0,1,.16-.86,1.74,1.74,0,0,1,.47-.66,2.12,2.12,0,0,1,.78-.44,3.68,3.68,0,0,1,1.11-.15Zm4-1.25V64H94.48V57.66h1.3Zm1.53-1.27V59l-.25,0h-.25a1.07,1.07,0,0,0-.49.1,1,1,0,0,0-.35.29,1.57,1.57,0,0,0-.22.45,2.53,2.53,0,0,0-.09.6h-.3a6.36,6.36,0,0,1,.1-1.11,3.28,3.28,0,0,1,.28-.9,1.72,1.72,0,0,1,.48-.6,1,1,0,0,1,.67-.22l.24,0A.56.56,0,0,1,97.37,57.62Zm4,5.06V55h1.36v9h-1.23ZM98,61.09v-.5a5.94,5.94,0,0,1,.13-1.35,3.09,3.09,0,0,1,.41-1,1.7,1.7,0,0,1,.67-.56,1.92,1.92,0,0,1,.87-.19,1.46,1.46,0,0,1,.82.22,1.78,1.78,0,0,1,.59.6,3.84,3.84,0,0,1,.38.94,6.78,6.78,0,0,1,.2,1.21v.69a7.79,7.79,0,0,1-.21,1.18,3.11,3.11,0,0,1-.38.92,1.92,1.92,0,0,1-.59.61,1.54,1.54,0,0,1-.82.21,1.92,1.92,0,0,1-.87-.2,1.87,1.87,0,0,1-.66-.57,3.14,3.14,0,0,1-.41-.94A5.78,5.78,0,0,1,98,61.09Zm1.36-.5v.5a5.17,5.17,0,0,0,.06.84,1.8,1.8,0,0,0,.19.58.83.83,0,0,0,.34.33,1.13,1.13,0,0,0,.51.11,1,1,0,0,0,.61-.19,1.28,1.28,0,0,0,.36-.51,2.55,2.55,0,0,0,.19-.71V60.17a2.5,2.5,0,0,0-.12-.57,1.57,1.57,0,0,0-.22-.47,1,1,0,0,0-.35-.31.89.89,0,0,0-.47-.12,1,1,0,0,0-.51.12.82.82,0,0,0-.34.35,1.88,1.88,0,0,0-.19.58A5.17,5.17,0,0,0,99.34,60.59Z"></path><path class="cls-4" d="M26.62,106.47V115H25.49v-8.53Zm5.15,0-3.54,4-2,2.07-.19-1.21,1.5-1.65,2.87-3.19ZM30.69,115l-3.16-4.16.67-.9L32,115Zm5.91-1.08v-3.27a1.36,1.36,0,0,0-.15-.65,1,1,0,0,0-.44-.43,1.65,1.65,0,0,0-.74-.15,1.6,1.6,0,0,0-.72.14,1.07,1.07,0,0,0-.48.37.75.75,0,0,0-.17.49H32.81a1.44,1.44,0,0,1,.18-.68,2,2,0,0,1,.5-.6,2.45,2.45,0,0,1,.8-.43,3.11,3.11,0,0,1,1-.17,2.92,2.92,0,0,1,1.22.24,1.75,1.75,0,0,1,.83.71,2,2,0,0,1,.31,1.17v3a4,4,0,0,0,.05.67,3.07,3.07,0,0,0,.17.62V115H36.78a2.1,2.1,0,0,1-.13-.5A4.13,4.13,0,0,1,36.6,113.92Zm.19-2.76v.76H35.71a4.15,4.15,0,0,0-.83.07,2,2,0,0,0-.61.22,1,1,0,0,0-.37.37.94.94,0,0,0-.13.51,1.14,1.14,0,0,0,.13.55,1,1,0,0,0,.41.39,1.48,1.48,0,0,0,.67.14,1.79,1.79,0,0,0,.88-.21,1.91,1.91,0,0,0,.6-.52,1.11,1.11,0,0,0,.25-.59l.46.52a1.62,1.62,0,0,1-.22.55,2.53,2.53,0,0,1-.49.57,2.69,2.69,0,0,1-.71.45,2.27,2.27,0,0,1-.93.18,2.41,2.41,0,0,1-1.13-.26,1.88,1.88,0,0,1-.75-.67,1.81,1.81,0,0,1-.26-1,1.87,1.87,0,0,1,.2-.9,1.69,1.69,0,0,1,.57-.65,2.65,2.65,0,0,1,.9-.4,4.79,4.79,0,0,1,1.18-.13Zm3.69-1.5V115H39.39v-6.34h1.06Zm2-1v1l-.26,0h-.27a1.9,1.9,0,0,0-.66.11,1.51,1.51,0,0,0-.49.33,1.62,1.62,0,0,0-.31.51,2.91,2.91,0,0,0-.15.63l-.3.17a5.17,5.17,0,0,1,.11-1.07,2.86,2.86,0,0,1,.36-.89,1.62,1.62,0,0,1,.61-.61,1.68,1.68,0,0,1,.89-.23l.27,0ZM44.54,110v5H43.46v-6.34h1Zm-.25,1.58-.46,0a3.87,3.87,0,0,1,.2-1.2,3.11,3.11,0,0,1,.52-1,2.38,2.38,0,0,1,1.86-.86,2.76,2.76,0,0,1,.85.13,1.48,1.48,0,0,1,.63.4,1.68,1.68,0,0,1,.41.72,3.22,3.22,0,0,1,.15,1.06V115H47.36v-4.17a1.76,1.76,0,0,0-.15-.79.88.88,0,0,0-.43-.44,1.47,1.47,0,0,0-.69-.14,1.52,1.52,0,0,0-.74.17,1.71,1.71,0,0,0-.57.47,2.47,2.47,0,0,0-.37.68A2.69,2.69,0,0,0,44.29,111.59Zm9.54,2.33v-3.27a1.36,1.36,0,0,0-.15-.65,1,1,0,0,0-.45-.43,1.62,1.62,0,0,0-.74-.15,1.65,1.65,0,0,0-.72.14,1.19,1.19,0,0,0-.48.37.81.81,0,0,0-.17.49H50a1.55,1.55,0,0,1,.17-.68,2,2,0,0,1,.51-.6,2.45,2.45,0,0,1,.8-.43,3.11,3.11,0,0,1,1-.17,2.92,2.92,0,0,1,1.22.24,1.8,1.8,0,0,1,.83.71,2.12,2.12,0,0,1,.3,1.17v3a4.06,4.06,0,0,0,.06.67,2.53,2.53,0,0,0,.17.62V115H54a1.71,1.71,0,0,1-.13-.5A4.13,4.13,0,0,1,53.83,113.92Zm.19-2.76v.76h-1.1a4,4,0,0,0-.82.07,1.81,1.81,0,0,0-.61.22,1,1,0,0,0-.51.88,1.15,1.15,0,0,0,.14.55,1,1,0,0,0,.4.39,1.55,1.55,0,0,0,.68.14,1.82,1.82,0,0,0,.88-.21,1.91,1.91,0,0,0,.6-.52,1.2,1.2,0,0,0,.25-.59l.46.52a1.62,1.62,0,0,1-.22.55,3.17,3.17,0,0,1-.49.57,2.69,2.69,0,0,1-.71.45,2.34,2.34,0,0,1-.93.18,2.39,2.39,0,0,1-1.13-.26,1.88,1.88,0,0,1-.75-.67,1.73,1.73,0,0,1-.27-1,2,2,0,0,1,.2-.9,1.81,1.81,0,0,1,.58-.65,2.65,2.65,0,0,1,.9-.4,4.74,4.74,0,0,1,1.18-.13Zm5.25-2.5v.83H55.85v-.83ZM57,107.12h1.08v6.31a.94.94,0,0,0,.1.49.48.48,0,0,0,.26.21.93.93,0,0,0,.34.06l.28,0,.23,0V115a2.92,2.92,0,0,1-.34.08,3.26,3.26,0,0,1-.5,0,1.77,1.77,0,0,1-.73-.16,1.18,1.18,0,0,1-.53-.53,2.19,2.19,0,0,1-.19-1Zm7.27,6.8v-3.27a1.36,1.36,0,0,0-.15-.65,1,1,0,0,0-.44-.43,1.65,1.65,0,0,0-.74-.15,1.6,1.6,0,0,0-.72.14,1.07,1.07,0,0,0-.48.37.75.75,0,0,0-.17.49H60.49a1.44,1.44,0,0,1,.18-.68,2,2,0,0,1,.5-.6,2.45,2.45,0,0,1,.8-.43,3.11,3.11,0,0,1,1-.17,2.92,2.92,0,0,1,1.22.24,1.75,1.75,0,0,1,.83.71,2,2,0,0,1,.31,1.17v3a5.43,5.43,0,0,0,0,.67,3.07,3.07,0,0,0,.17.62V115H64.46a1.71,1.71,0,0,1-.13-.5A4.13,4.13,0,0,1,64.28,113.92Zm.19-2.76v.76H63.39a4.15,4.15,0,0,0-.83.07,1.9,1.9,0,0,0-.61.22,1,1,0,0,0-.37.37.94.94,0,0,0-.13.51,1.14,1.14,0,0,0,.13.55A1,1,0,0,0,62,114a1.48,1.48,0,0,0,.67.14,1.79,1.79,0,0,0,.88-.21,1.91,1.91,0,0,0,.6-.52,1,1,0,0,0,.25-.59l.46.52a1.62,1.62,0,0,1-.22.55,2.53,2.53,0,0,1-.49.57,2.69,2.69,0,0,1-.71.45,2.3,2.3,0,0,1-.93.18,2.41,2.41,0,0,1-1.13-.26,1.88,1.88,0,0,1-.75-.67,1.81,1.81,0,0,1-.26-1,1.87,1.87,0,0,1,.2-.9,1.69,1.69,0,0,1,.57-.65,2.65,2.65,0,0,1,.9-.4,4.85,4.85,0,0,1,1.18-.13ZM68.16,106v9H67.07v-9ZM72,108.66l-2.77,3-1.55,1.61-.08-1.16,1.1-1.32,2-2.09Zm-1,6.34-2.27-3,.57-1,3,4Zm5.84-1.08v-3.27a1.36,1.36,0,0,0-.15-.65,1,1,0,0,0-.44-.43,1.65,1.65,0,0,0-.74-.15,1.6,1.6,0,0,0-.72.14,1.07,1.07,0,0,0-.48.37.75.75,0,0,0-.17.49H73.1a1.44,1.44,0,0,1,.18-.68,1.86,1.86,0,0,1,.5-.6,2.45,2.45,0,0,1,.8-.43,3.11,3.11,0,0,1,1-.17,2.92,2.92,0,0,1,1.22.24,1.75,1.75,0,0,1,.83.71,2,2,0,0,1,.31,1.17v3a4,4,0,0,0,0,.67,2.53,2.53,0,0,0,.17.62V115H77.07a1.71,1.71,0,0,1-.13-.5A4.13,4.13,0,0,1,76.89,113.92Zm.19-2.76v.76H76a4.15,4.15,0,0,0-.83.07,2,2,0,0,0-.61.22,1,1,0,0,0-.37.37.94.94,0,0,0-.13.51,1.14,1.14,0,0,0,.13.55,1,1,0,0,0,.41.39,1.48,1.48,0,0,0,.67.14,1.82,1.82,0,0,0,.88-.21,1.91,1.91,0,0,0,.6-.52,1.11,1.11,0,0,0,.25-.59l.46.52a1.62,1.62,0,0,1-.22.55,2.81,2.81,0,0,1-.49.57,2.69,2.69,0,0,1-.71.45,2.34,2.34,0,0,1-.93.18,2.39,2.39,0,0,1-1.13-.26,1.88,1.88,0,0,1-.75-.67,1.72,1.72,0,0,1-.26-1,1.87,1.87,0,0,1,.2-.9,1.69,1.69,0,0,1,.57-.65,2.65,2.65,0,0,1,.9-.4,4.79,4.79,0,0,1,1.18-.13Zm7.18,2.72,1.63-5.22h.72l-.14,1L84.81,115h-.7Zm-1.09-5.22,1.39,5.27.1,1.07h-.74l-1.84-6.34Zm5,5.23,1.32-5.23h1.08L88.73,115H88Zm-1.4-5.23,1.59,5.13.18,1.21h-.69l-1.71-5.31-.14-1Zm8.65,5.26v-3.27a1.36,1.36,0,0,0-.15-.65,1,1,0,0,0-.45-.43,1.62,1.62,0,0,0-.74-.15,1.65,1.65,0,0,0-.72.14,1.19,1.19,0,0,0-.48.37.81.81,0,0,0-.17.49H91.63a1.55,1.55,0,0,1,.17-.68,2,2,0,0,1,.51-.6,2.45,2.45,0,0,1,.8-.43,3.11,3.11,0,0,1,1-.17,2.92,2.92,0,0,1,1.22.24,1.8,1.8,0,0,1,.83.71,2.12,2.12,0,0,1,.3,1.17v3a4.06,4.06,0,0,0,.06.67,2.53,2.53,0,0,0,.17.62V115H95.6a1.71,1.71,0,0,1-.13-.5A4.13,4.13,0,0,1,95.42,113.92Zm.19-2.76v.76h-1.1a4,4,0,0,0-.82.07,1.81,1.81,0,0,0-.61.22,1,1,0,0,0-.51.88,1.15,1.15,0,0,0,.14.55,1,1,0,0,0,.4.39,1.55,1.55,0,0,0,.68.14,1.82,1.82,0,0,0,.88-.21,1.91,1.91,0,0,0,.6-.52,1.09,1.09,0,0,0,.24-.59l.47.52a1.62,1.62,0,0,1-.22.55,3.17,3.17,0,0,1-.49.57,2.59,2.59,0,0,1-.72.45,2.25,2.25,0,0,1-.92.18,2.39,2.39,0,0,1-1.13-.26,1.88,1.88,0,0,1-.75-.67,1.73,1.73,0,0,1-.27-1,2,2,0,0,1,.2-.9,1.81,1.81,0,0,1,.58-.65,2.65,2.65,0,0,1,.9-.4,4.74,4.74,0,0,1,1.18-.13Zm6.29,2.16a1,1,0,0,0-.1-.43.92.92,0,0,0-.42-.37,3.14,3.14,0,0,0-.94-.3,6.81,6.81,0,0,1-1-.26,2.69,2.69,0,0,1-.72-.37,1.59,1.59,0,0,1-.46-.51,1.47,1.47,0,0,1-.15-.69,1.53,1.53,0,0,1,.16-.7,1.82,1.82,0,0,1,.48-.6,2.28,2.28,0,0,1,.74-.4,3,3,0,0,1,1-.15,2.9,2.9,0,0,1,1.3.27,2,2,0,0,1,.82.72,1.82,1.82,0,0,1,.29,1h-1.08a1,1,0,0,0-.16-.51,1.2,1.2,0,0,0-.45-.41,1.47,1.47,0,0,0-.72-.17,1.71,1.71,0,0,0-.74.14.93.93,0,0,0-.4.35.88.88,0,0,0-.12.44,1,1,0,0,0,0,.32.68.68,0,0,0,.23.25,1.39,1.39,0,0,0,.44.21,5.26,5.26,0,0,0,.73.2,5.71,5.71,0,0,1,1.29.43,1.92,1.92,0,0,1,.75.6,1.53,1.53,0,0,1,.24.87,1.63,1.63,0,0,1-.17.76,1.68,1.68,0,0,1-.5.6,2.41,2.41,0,0,1-.77.38,3.45,3.45,0,0,1-1,.14,3,3,0,0,1-1.42-.3,2.23,2.23,0,0,1-.88-.77,1.88,1.88,0,0,1-.3-1H99a1.11,1.11,0,0,0,.26.71,1.28,1.28,0,0,0,.57.37,2.3,2.3,0,0,0,.68.11,2,2,0,0,0,.74-.12,1.08,1.08,0,0,0,.46-.32A.74.74,0,0,0,101.9,113.32Zm9.22.6v-3.27A1.36,1.36,0,0,0,111,110a.94.94,0,0,0-.45-.43,1.58,1.58,0,0,0-.73-.15,1.6,1.6,0,0,0-.72.14,1.07,1.07,0,0,0-.48.37.75.75,0,0,0-.17.49h-1.09a1.44,1.44,0,0,1,.18-.68,1.86,1.86,0,0,1,.5-.6,2.45,2.45,0,0,1,.8-.43,3.11,3.11,0,0,1,1-.17,2.92,2.92,0,0,1,1.22.24,1.75,1.75,0,0,1,.83.71,2,2,0,0,1,.31,1.17v3a5.43,5.43,0,0,0,.05.67,3.07,3.07,0,0,0,.17.62V115H111.3a1.71,1.71,0,0,1-.13-.5A4.13,4.13,0,0,1,111.12,113.92Zm.19-2.76v.76h-1.09a4.15,4.15,0,0,0-.83.07,1.9,1.9,0,0,0-.61.22,1,1,0,0,0-.37.37.94.94,0,0,0-.13.51,1.14,1.14,0,0,0,.13.55,1,1,0,0,0,.41.39,1.48,1.48,0,0,0,.67.14,1.82,1.82,0,0,0,.88-.21,1.91,1.91,0,0,0,.6-.52,1,1,0,0,0,.25-.59l.46.52a1.62,1.62,0,0,1-.22.55,2.7,2.7,0,0,1-1.2,1,2.3,2.3,0,0,1-.93.18,2.41,2.41,0,0,1-1.13-.26,1.88,1.88,0,0,1-.75-.67,1.81,1.81,0,0,1-.26-1,1.87,1.87,0,0,1,.2-.9,1.69,1.69,0,0,1,.57-.65,2.65,2.65,0,0,1,.9-.4,4.85,4.85,0,0,1,1.18-.13Zm4.21,2.72,1.63-5.22h.71l-.14,1-1.66,5.3h-.7Zm-1.1-5.22,1.39,5.27.1,1.07h-.73l-1.84-6.34Zm5,5.23,1.32-5.23h1.08L120,115h-.72Zm-1.4-5.23,1.59,5.13.19,1.21h-.7l-1.7-5.31-.14-1Zm8.65,5.26v-3.27a1.36,1.36,0,0,0-.15-.65,1,1,0,0,0-.44-.43,1.65,1.65,0,0,0-.74-.15,1.6,1.6,0,0,0-.72.14,1.07,1.07,0,0,0-.48.37.75.75,0,0,0-.17.49h-1.09a1.44,1.44,0,0,1,.18-.68,2,2,0,0,1,.5-.6,2.56,2.56,0,0,1,.8-.43,3.11,3.11,0,0,1,1-.17,2.92,2.92,0,0,1,1.22.24,1.75,1.75,0,0,1,.83.71,2,2,0,0,1,.31,1.17v3a4,4,0,0,0,0,.67,3.07,3.07,0,0,0,.17.62V115h-1.13a2.1,2.1,0,0,1-.13-.5A4.13,4.13,0,0,1,126.67,113.92Zm.19-2.76v.76h-1.09a4.15,4.15,0,0,0-.83.07,2,2,0,0,0-.61.22,1,1,0,0,0-.37.37.94.94,0,0,0-.13.51,1.14,1.14,0,0,0,.13.55,1,1,0,0,0,.41.39,1.51,1.51,0,0,0,.67.14,1.79,1.79,0,0,0,.88-.21,1.81,1.81,0,0,0,.6-.52,1,1,0,0,0,.25-.59l.46.52a1.62,1.62,0,0,1-.22.55,2.7,2.7,0,0,1-1.2,1,2.27,2.27,0,0,1-.93.18,2.41,2.41,0,0,1-1.13-.26,1.88,1.88,0,0,1-.75-.67,1.81,1.81,0,0,1-.26-1,1.87,1.87,0,0,1,.2-.9,1.69,1.69,0,0,1,.57-.65,2.65,2.65,0,0,1,.9-.4,4.79,4.79,0,0,1,1.18-.13Zm3.69-1.5V115h-1.09v-6.34h1.06Zm2-1v1a1.15,1.15,0,0,0-.26,0H132a1.9,1.9,0,0,0-.66.11,1.37,1.37,0,0,0-.48.33,1.48,1.48,0,0,0-.32.51,2.42,2.42,0,0,0-.15.63l-.3.17a4.57,4.57,0,0,1,.11-1.07,2.86,2.86,0,0,1,.36-.89,1.62,1.62,0,0,1,.61-.61,1.68,1.68,0,0,1,.89-.23l.27,0Zm4.88,5.14V106h1.09v9h-1Zm-4.27-1.87v-.12a4.48,4.48,0,0,1,.18-1.32,3.2,3.2,0,0,1,.51-1,2.24,2.24,0,0,1,.79-.65,2.2,2.2,0,0,1,1-.24,2.38,2.38,0,0,1,1,.21,2,2,0,0,1,.76.61,2.77,2.77,0,0,1,.5,1,5.62,5.62,0,0,1,.25,1.26v.54a5.13,5.13,0,0,1-.25,1.25,2.77,2.77,0,0,1-.5,1,2,2,0,0,1-.76.6,2.46,2.46,0,0,1-1.05.21,2.19,2.19,0,0,1-1-.24,2.33,2.33,0,0,1-.79-.68,3.25,3.25,0,0,1-.51-1A4.35,4.35,0,0,1,133.14,111.9Zm1.09-.12v.12a3.62,3.62,0,0,0,.1.89,2.08,2.08,0,0,0,.3.73,1.55,1.55,0,0,0,.52.5,1.5,1.5,0,0,0,.76.18,1.57,1.57,0,0,0,.88-.23,1.76,1.76,0,0,0,.57-.61,3.18,3.18,0,0,0,.32-.81v-1.41a2.64,2.64,0,0,0-.2-.62,2,2,0,0,0-.34-.54,1.48,1.48,0,0,0-.51-.38,1.52,1.52,0,0,0-2,.55,2.13,2.13,0,0,0-.3.74A3.57,3.57,0,0,0,134.23,111.78Zm8.59,3.34a3.18,3.18,0,0,1-1.21-.23,2.65,2.65,0,0,1-.91-.63,2.85,2.85,0,0,1-.59-1,3.45,3.45,0,0,1-.21-1.23v-.24a3.91,3.91,0,0,1,.23-1.38,3.18,3.18,0,0,1,.62-1,2.72,2.72,0,0,1,.89-.64,2.52,2.52,0,0,1,1-.22,2.66,2.66,0,0,1,1.17.24,2.07,2.07,0,0,1,.81.65,2.84,2.84,0,0,1,.47,1,4.71,4.71,0,0,1,.15,1.23v.49h-4.73v-.89h3.65v-.08a2.87,2.87,0,0,0-.18-.82,1.37,1.37,0,0,0-.47-.66,1.35,1.35,0,0,0-.87-.26,1.51,1.51,0,0,0-.68.16,1.48,1.48,0,0,0-.54.46,2.2,2.2,0,0,0-.34.74,3.89,3.89,0,0,0-.13,1v.24a2.91,2.91,0,0,0,.13.85,2.09,2.09,0,0,0,.37.69,1.68,1.68,0,0,0,.59.47,1.71,1.71,0,0,0,.8.17,2,2,0,0,0,1-.23,2.6,2.6,0,0,0,.7-.63l.65.52a2.86,2.86,0,0,1-.52.59,2.48,2.48,0,0,1-.78.46A2.94,2.94,0,0,1,142.82,115.12Zm7.73-1.35V106h1.09v9h-1Zm-4.27-1.87v-.12a4.86,4.86,0,0,1,.17-1.32,3.67,3.67,0,0,1,.51-1,2.37,2.37,0,0,1,.8-.65,2.17,2.17,0,0,1,1-.24,2.41,2.41,0,0,1,1,.21,2,2,0,0,1,.76.61,3,3,0,0,1,.5,1,5.62,5.62,0,0,1,.25,1.26v.54a5.64,5.64,0,0,1-.25,1.25,3,3,0,0,1-.5,1,2,2,0,0,1-.76.6,2.47,2.47,0,0,1-1.06.21,2.12,2.12,0,0,1-1-.24,2.46,2.46,0,0,1-.8-.68,3.75,3.75,0,0,1-.51-1A4.72,4.72,0,0,1,146.28,111.9Zm1.09-.12v.12a4.19,4.19,0,0,0,.09.89,2.3,2.3,0,0,0,.31.73,1.46,1.46,0,0,0,.52.5,1.5,1.5,0,0,0,.76.18,1.6,1.6,0,0,0,.88-.23,1.73,1.73,0,0,0,.56-.61,3.62,3.62,0,0,0,.33-.81v-1.41a3.23,3.23,0,0,0-.21-.62,1.6,1.6,0,0,0-.34-.54,1.36,1.36,0,0,0-.5-.38,1.58,1.58,0,0,0-.71-.14,1.54,1.54,0,0,0-.77.18,1.49,1.49,0,0,0-.52.51,2.36,2.36,0,0,0-.31.74A4.13,4.13,0,0,0,147.37,111.78ZM45.32,129H44.23v-7a2.38,2.38,0,0,1,.25-1.15,1.67,1.67,0,0,1,.72-.72,2.39,2.39,0,0,1,1.11-.24l.38,0,.37.07-.06.89-.28,0h-.3a1.27,1.27,0,0,0-.6.14.9.9,0,0,0-.37.4,1.42,1.42,0,0,0-.13.65Zm1.34-6.34v.83H43.23v-.83Zm.92,3.24v-.13a4.09,4.09,0,0,1,.2-1.28,3.19,3.19,0,0,1,.58-1,2.56,2.56,0,0,1,.91-.68,3,3,0,0,1,2.39,0,2.6,2.6,0,0,1,.92.68,3.19,3.19,0,0,1,.58,1,4.09,4.09,0,0,1,.2,1.28v.13a4,4,0,0,1-.2,1.27,3.35,3.35,0,0,1-.58,1,2.79,2.79,0,0,1-.91.68,2.86,2.86,0,0,1-1.2.24,2.92,2.92,0,0,1-1.2-.24,2.79,2.79,0,0,1-.91-.68,3.35,3.35,0,0,1-.58-1A4,4,0,0,1,47.58,125.9Zm1.09-.13v.13a3.27,3.27,0,0,0,.11.9,2.36,2.36,0,0,0,.33.74,1.85,1.85,0,0,0,.57.51,1.67,1.67,0,0,0,.79.18,1.54,1.54,0,0,0,1.34-.69,2.63,2.63,0,0,0,.34-.74,3.26,3.26,0,0,0,.12-.9v-.13a3.19,3.19,0,0,0-.12-.89,2.4,2.4,0,0,0-.34-.74,1.74,1.74,0,0,0-.56-.52,1.68,1.68,0,0,0-.79-.19,1.61,1.61,0,0,0-.78.19,1.77,1.77,0,0,0-.57.52,2.17,2.17,0,0,0-.33.74A3.19,3.19,0,0,0,48.67,125.77Zm7.13-2.11V129H54.71v-6.34h1.06Zm2-1v1l-.25,0h-.27a2,2,0,0,0-.67.11,1.37,1.37,0,0,0-.48.33,1.48,1.48,0,0,0-.32.51,2.42,2.42,0,0,0-.14.63l-.31.17a5.17,5.17,0,0,1,.11-1.07,2.86,2.86,0,0,1,.36-.89,1.62,1.62,0,0,1,.61-.61,1.68,1.68,0,0,1,.89-.23l.27,0Zm5.16,0V129H61.85v-6.34ZM61.76,121a.69.69,0,0,1,.16-.45.73.73,0,0,1,1,0,.64.64,0,0,1,.17.45.67.67,0,0,1-1.13.43A.65.65,0,0,1,61.76,121Zm4,2.94V129H64.66v-6.34h1Zm-.22,1.67-.5,0a4.19,4.19,0,0,1,.17-1.2,3,3,0,0,1,.48-1,2.28,2.28,0,0,1,.81-.63,2.59,2.59,0,0,1,1.11-.23,2.66,2.66,0,0,1,.82.13,1.71,1.71,0,0,1,.65.39,1.89,1.89,0,0,1,.43.7,3,3,0,0,1,.15,1V129H68.57v-4.17a1.67,1.67,0,0,0-.17-.8,1,1,0,0,0-.47-.43,1.95,1.95,0,0,0-1.52,0,1.38,1.38,0,0,0-.52.47,2.31,2.31,0,0,0-.28.68A4.2,4.2,0,0,0,65.53,125.59Zm4.11-.6-.73.22a3.38,3.38,0,0,1,.17-1,2.86,2.86,0,0,1,.49-.85,2.22,2.22,0,0,1,.79-.59,2.44,2.44,0,0,1,1.07-.23,2.74,2.74,0,0,1,.9.14,1.68,1.68,0,0,1,.67.41,1.79,1.79,0,0,1,.42.71,3.51,3.51,0,0,1,.14,1V129H72.47v-4.18a1.67,1.67,0,0,0-.17-.82.91.91,0,0,0-.47-.42,1.94,1.94,0,0,0-.72-.12,1.61,1.61,0,0,0-.63.12,1.2,1.2,0,0,0-.46.34,1.42,1.42,0,0,0-.29.49A1.85,1.85,0,0,0,69.64,125Zm6.64-1.11v7.56H75.19v-8.78h1Zm4.27,1.9v.12a4.72,4.72,0,0,1-.16,1.28,3.21,3.21,0,0,1-.48,1,2.13,2.13,0,0,1-1.82.92,2.71,2.71,0,0,1-1.06-.2,2.16,2.16,0,0,1-.79-.58,3.13,3.13,0,0,1-.51-.92,5.06,5.06,0,0,1-.26-1.2v-.65a5.6,5.6,0,0,1,.26-1.26,3.18,3.18,0,0,1,.51-1,2.18,2.18,0,0,1,.78-.61,2.54,2.54,0,0,1,1.06-.21,2.27,2.27,0,0,1,1.06.24,2.21,2.21,0,0,1,.78.65,3,3,0,0,1,.47,1A4.87,4.87,0,0,1,80.55,125.78Zm-1.09.12v-.12a3.57,3.57,0,0,0-.1-.89,2,2,0,0,0-.31-.74,1.49,1.49,0,0,0-.52-.51,1.8,1.8,0,0,0-1.48,0,1.48,1.48,0,0,0-.51.38,1.79,1.79,0,0,0-.35.54,2.62,2.62,0,0,0-.19.62v1.52a3.06,3.06,0,0,0,.32.77,1.67,1.67,0,0,0,.57.58,1.69,1.69,0,0,0,.88.22,1.53,1.53,0,0,0,.76-.18,1.58,1.58,0,0,0,.52-.51,2.12,2.12,0,0,0,.31-.74A3.71,3.71,0,0,0,79.46,125.9Zm3.65-5.9v9H82v-9Zm4.38,9.12a3.06,3.06,0,0,1-1.2-.23,2.73,2.73,0,0,1-.93-.63,3,3,0,0,1-.58-1,3.45,3.45,0,0,1-.21-1.23v-.24a3.91,3.91,0,0,1,.23-1.38,3,3,0,0,1,.62-1,2.72,2.72,0,0,1,.89-.64,2.52,2.52,0,0,1,1-.22,2.66,2.66,0,0,1,1.17.24,2.07,2.07,0,0,1,.81.65,2.84,2.84,0,0,1,.47,1,4.71,4.71,0,0,1,.15,1.23v.49H85.22v-.89h3.65v-.08a2.57,2.57,0,0,0-.18-.82,1.42,1.42,0,0,0-.46-.66,1.4,1.4,0,0,0-.88-.26,1.51,1.51,0,0,0-.68.16,1.48,1.48,0,0,0-.54.46,2.2,2.2,0,0,0-.34.74,3.51,3.51,0,0,0-.13,1v.24a2.61,2.61,0,0,0,.13.85,2.09,2.09,0,0,0,.37.69,1.68,1.68,0,0,0,.59.47,1.71,1.71,0,0,0,.8.17,2,2,0,0,0,1-.23,2.43,2.43,0,0,0,.69-.63l.66.52a2.86,2.86,0,0,1-.52.59,2.48,2.48,0,0,1-.78.46A2.94,2.94,0,0,1,87.49,129.12Zm4.81-5.2V129H91.21v-6.34h1Zm-.23,1.67-.5,0a4.19,4.19,0,0,1,.17-1.2,2.86,2.86,0,0,1,.49-1,2.16,2.16,0,0,1,.8-.63,2.59,2.59,0,0,1,1.11-.23,2.66,2.66,0,0,1,.82.13,1.71,1.71,0,0,1,.65.39,1.77,1.77,0,0,1,.43.7,3,3,0,0,1,.15,1V129H95.11v-4.17a1.67,1.67,0,0,0-.17-.8,1,1,0,0,0-.47-.43,1.58,1.58,0,0,0-.71-.14,1.67,1.67,0,0,0-.81.17,1.35,1.35,0,0,0-.51.47,1.88,1.88,0,0,0-.28.68A3.53,3.53,0,0,0,92.07,125.59Zm4.11-.6-.73.22a3.74,3.74,0,0,1,.17-1,2.86,2.86,0,0,1,.49-.85,2.31,2.31,0,0,1,.79-.59,2.45,2.45,0,0,1,1.08-.23,2.83,2.83,0,0,1,.9.14,1.84,1.84,0,0,1,.67.41,1.77,1.77,0,0,1,.41.71,3.51,3.51,0,0,1,.14,1V129H99v-4.18a1.67,1.67,0,0,0-.17-.82.88.88,0,0,0-.47-.42,1.88,1.88,0,0,0-.71-.12,1.62,1.62,0,0,0-.64.12,1.28,1.28,0,0,0-.46.34,1.59,1.59,0,0,0-.29.49A1.85,1.85,0,0,0,96.18,125Zm8.19,4.13a3.09,3.09,0,0,1-1.2-.23,2.79,2.79,0,0,1-.92-.63,2.83,2.83,0,0,1-.58-1,3.45,3.45,0,0,1-.21-1.23v-.24a3.91,3.91,0,0,1,.23-1.38,3,3,0,0,1,.62-1,2.62,2.62,0,0,1,.89-.64,2.48,2.48,0,0,1,1-.22,2.6,2.6,0,0,1,1.17.24,2,2,0,0,1,.82.65,2.84,2.84,0,0,1,.47,1,4.71,4.71,0,0,1,.15,1.23v.49h-4.73v-.89h3.65v-.08a2.87,2.87,0,0,0-.18-.82,1.43,1.43,0,0,0-.47-.66,1.38,1.38,0,0,0-.88-.26,1.58,1.58,0,0,0-.68.16,1.53,1.53,0,0,0-.53.46,2.42,2.42,0,0,0-.35.74,3.91,3.91,0,0,0-.12,1v.24a2.91,2.91,0,0,0,.12.85,2.29,2.29,0,0,0,.37.69,1.72,1.72,0,0,0,.6.47,1.7,1.7,0,0,0,.79.17,1.93,1.93,0,0,0,1-.23,2.46,2.46,0,0,0,.7-.63l.66.52a2.86,2.86,0,0,1-.52.59,2.6,2.6,0,0,1-.78.46A3,3,0,0,1,104.37,129.12Zm4.82-5.11v5h-1.08v-6.34h1Zm-.26,1.58-.45,0a3.87,3.87,0,0,1,.19-1.2,3.36,3.36,0,0,1,.53-1,2.38,2.38,0,0,1,1.86-.86,2.74,2.74,0,0,1,.84.13,1.58,1.58,0,0,1,.64.4,1.68,1.68,0,0,1,.41.72,3.24,3.24,0,0,1,.14,1.06V129H112v-4.17a1.93,1.93,0,0,0-.14-.79.92.92,0,0,0-.43-.44,1.47,1.47,0,0,0-.69-.14,1.52,1.52,0,0,0-.74.17,1.71,1.71,0,0,0-.57.47,2.23,2.23,0,0,0-.37.68A2.69,2.69,0,0,0,108.93,125.59Zm8.46-2.93v.83H114v-.83Zm-2.27-1.54h1.09v6.31a.94.94,0,0,0,.1.49.48.48,0,0,0,.26.21.93.93,0,0,0,.34.06l.28,0,.23,0V129a2.92,2.92,0,0,1-.34.08,3.26,3.26,0,0,1-.5,0,1.77,1.77,0,0,1-.73-.16,1.18,1.18,0,0,1-.53-.53,2.18,2.18,0,0,1-.2-1Zm4.72,1.54V129h-1.09v-6.34ZM118.67,121a.64.64,0,0,1,.16-.45.62.62,0,0,1,.48-.18.6.6,0,0,1,.47.18.6.6,0,0,1,.17.45.57.57,0,0,1-.17.43.6.6,0,0,1-.47.18.62.62,0,0,1-.48-.18A.6.6,0,0,1,118.67,121Zm4,3v5h-1.09v-6.34h1Zm-.26,1.58-.45,0a3.59,3.59,0,0,1,.19-1.2,2.94,2.94,0,0,1,.53-1,2.28,2.28,0,0,1,.81-.63,2.38,2.38,0,0,1,1.05-.23,2.74,2.74,0,0,1,.84.13,1.58,1.58,0,0,1,.64.4,1.79,1.79,0,0,1,.41.72,3.54,3.54,0,0,1,.14,1.06V129h-1.09v-4.17a1.76,1.76,0,0,0-.15-.79.88.88,0,0,0-.43-.44,1.41,1.41,0,0,0-.69-.14,1.48,1.48,0,0,0-.73.17,1.71,1.71,0,0,0-.57.47,2.23,2.23,0,0,0-.37.68A2.41,2.41,0,0,0,122.41,125.59Zm9.91-2.93h1v6.2a3,3,0,0,1-.34,1.44,2.26,2.26,0,0,1-.95.89,3,3,0,0,1-1.4.31,3.39,3.39,0,0,1-.77-.1,3.52,3.52,0,0,1-.87-.35,2.2,2.2,0,0,1-.71-.65l.57-.64a2.32,2.32,0,0,0,.83.66,2.17,2.17,0,0,0,.87.19,1.89,1.89,0,0,0,.89-.19,1.3,1.3,0,0,0,.58-.58,1.84,1.84,0,0,0,.21-.92v-4.87ZM128,125.9v-.12a4.49,4.49,0,0,1,.17-1.32,3.17,3.17,0,0,1,.49-1,2.28,2.28,0,0,1,.8-.65,2.21,2.21,0,0,1,1-.24,2.41,2.41,0,0,1,1,.21,2,2,0,0,1,.76.61,2.77,2.77,0,0,1,.5,1,5.62,5.62,0,0,1,.25,1.26v.54a5.13,5.13,0,0,1-.25,1.25,2.77,2.77,0,0,1-.5,1,2,2,0,0,1-.76.6,2.46,2.46,0,0,1-1.05.21,2.2,2.2,0,0,1-1-.24,2.33,2.33,0,0,1-.79-.68,3,3,0,0,1-.5-1A4.36,4.36,0,0,1,128,125.9Zm1.08-.12v.12a3.62,3.62,0,0,0,.1.89,2.28,2.28,0,0,0,.29.73,1.43,1.43,0,0,0,1.28.68,1.61,1.61,0,0,0,.89-.23,1.64,1.64,0,0,0,.56-.61,3.62,3.62,0,0,0,.33-.81v-1.41a3.21,3.21,0,0,0-.2-.62A2,2,0,0,0,132,124a1.48,1.48,0,0,0-.51-.38,1.62,1.62,0,0,0-.72-.14,1.41,1.41,0,0,0-1.29.69,2.33,2.33,0,0,0-.29.74A3.57,3.57,0,0,0,129,125.78ZM29,141.32a.88.88,0,0,0-.1-.43.92.92,0,0,0-.42-.37,3.14,3.14,0,0,0-.94-.3,6.81,6.81,0,0,1-.95-.26,3,3,0,0,1-.72-.37,1.59,1.59,0,0,1-.46-.51,1.47,1.47,0,0,1-.15-.69,1.53,1.53,0,0,1,.16-.7,1.82,1.82,0,0,1,.48-.6,2.28,2.28,0,0,1,.74-.4,3,3,0,0,1,1-.15,2.9,2.9,0,0,1,1.3.27,2,2,0,0,1,.82.72,1.74,1.74,0,0,1,.29,1H28.89a1,1,0,0,0-.16-.51,1.2,1.2,0,0,0-.45-.41,1.47,1.47,0,0,0-.72-.17,1.74,1.74,0,0,0-.74.14,1,1,0,0,0-.4.35.88.88,0,0,0-.12.44.79.79,0,0,0,.06.32.57.57,0,0,0,.22.25,1.39,1.39,0,0,0,.44.21,5.06,5.06,0,0,0,.74.2,6,6,0,0,1,1.28.43,1.85,1.85,0,0,1,.75.6,1.54,1.54,0,0,1,.25.87,1.64,1.64,0,0,1-.18.76,1.68,1.68,0,0,1-.5.6,2.41,2.41,0,0,1-.77.38,3.45,3.45,0,0,1-1,.14,3,3,0,0,1-1.42-.3,2.23,2.23,0,0,1-.88-.77,1.88,1.88,0,0,1-.3-1h1.09a1.11,1.11,0,0,0,.26.71,1.28,1.28,0,0,0,.57.37,2.3,2.3,0,0,0,.68.11,2,2,0,0,0,.74-.12,1.08,1.08,0,0,0,.46-.32A.74.74,0,0,0,29,141.32Zm4.29,1L35,136.66h1.16L33.62,144a5.34,5.34,0,0,1-.23.5A2.35,2.35,0,0,1,33,145a1.47,1.47,0,0,1-.54.4,1.64,1.64,0,0,1-1.07.12l-.28-.05v-.88h.3a1.74,1.74,0,0,0,.63-.1,1,1,0,0,0,.43-.32,2,2,0,0,0,.31-.62ZM32,136.66l1.64,4.92.28,1.15-.78.39-2.33-6.46Zm8.88,4.66a.88.88,0,0,0-.1-.43.92.92,0,0,0-.42-.37,3.06,3.06,0,0,0-.93-.3,6.6,6.6,0,0,1-1-.26,3,3,0,0,1-.72-.37,1.45,1.45,0,0,1-.45-.51,1.35,1.35,0,0,1-.16-.69,1.53,1.53,0,0,1,.16-.7,2,2,0,0,1,.48-.6,2.38,2.38,0,0,1,.74-.4,3,3,0,0,1,1-.15,2.87,2.87,0,0,1,1.3.27,2,2,0,0,1,.83.72,1.81,1.81,0,0,1,.28,1H40.77a.93.93,0,0,0-.16-.51,1.2,1.2,0,0,0-.45-.41,1.45,1.45,0,0,0-.72-.17,1.66,1.66,0,0,0-.73.14,1,1,0,0,0-.41.35.88.88,0,0,0-.12.44.79.79,0,0,0,.06.32.64.64,0,0,0,.22.25,1.46,1.46,0,0,0,.45.21,4.89,4.89,0,0,0,.73.2,5.61,5.61,0,0,1,1.28.43,1.78,1.78,0,0,1,.75.6,1.46,1.46,0,0,1,.25.87,1.64,1.64,0,0,1-.18.76,1.68,1.68,0,0,1-.5.6,2.41,2.41,0,0,1-.77.38,3.45,3.45,0,0,1-1,.14,3.07,3.07,0,0,1-1.42-.3,2.23,2.23,0,0,1-.88-.77,1.88,1.88,0,0,1-.3-1H38a1.11,1.11,0,0,0,.26.71,1.32,1.32,0,0,0,.58.37,2.24,2.24,0,0,0,.67.11,2,2,0,0,0,.74-.12,1.12,1.12,0,0,0,.47-.32A.8.8,0,0,0,40.83,141.32ZM46,136.66v.83H42.57v-.83Zm-2.27-1.54h1.08v6.31a1.06,1.06,0,0,0,.1.49.48.48,0,0,0,.26.21.93.93,0,0,0,.34.06l.28,0,.23,0V143a2.68,2.68,0,0,1-.33.08,3.49,3.49,0,0,1-.5,0,1.82,1.82,0,0,1-.74-.16,1.18,1.18,0,0,1-.53-.53,2.19,2.19,0,0,1-.19-1Zm6.17,8a3.09,3.09,0,0,1-1.2-.23,2.69,2.69,0,0,1-.92-.63,2.85,2.85,0,0,1-.59-1,3.45,3.45,0,0,1-.2-1.23v-.24a3.92,3.92,0,0,1,.22-1.38,3,3,0,0,1,.63-1,2.53,2.53,0,0,1,.89-.64,2.45,2.45,0,0,1,1-.22,2.66,2.66,0,0,1,1.17.24,2.07,2.07,0,0,1,.81.65,2.84,2.84,0,0,1,.47,1,4.71,4.71,0,0,1,.15,1.23v.49H47.63v-.89h3.65v-.08a2.55,2.55,0,0,0-.17-.82,1.51,1.51,0,0,0-.47-.66,1.4,1.4,0,0,0-.88-.26,1.55,1.55,0,0,0-.68.16,1.37,1.37,0,0,0-.53.46,2.21,2.21,0,0,0-.35.74,3.91,3.91,0,0,0-.12,1v.24a2.91,2.91,0,0,0,.12.85,2.29,2.29,0,0,0,.37.69,1.68,1.68,0,0,0,.59.47,1.71,1.71,0,0,0,.8.17,2,2,0,0,0,1-.23,2.46,2.46,0,0,0,.7-.63l.65.52a2.59,2.59,0,0,1-.52.59,2.48,2.48,0,0,1-.78.46A2.91,2.91,0,0,1,49.9,143.12Zm4.81-5.2V143H53.62v-6.34h1Zm-.22,1.67-.51,0a4.57,4.57,0,0,1,.17-1.2,2.86,2.86,0,0,1,.49-1,2.16,2.16,0,0,1,.8-.63,2.59,2.59,0,0,1,1.11-.23,2.77,2.77,0,0,1,.83.13,1.68,1.68,0,0,1,1.07,1.09,3,3,0,0,1,.16,1V143H57.52v-4.17a1.67,1.67,0,0,0-.17-.8.94.94,0,0,0-.47-.43,1.58,1.58,0,0,0-.71-.14,1.67,1.67,0,0,0-.81.17,1.35,1.35,0,0,0-.51.47,2.07,2.07,0,0,0-.28.68A3.53,3.53,0,0,0,54.49,139.59Zm4.1-.6-.72.22a3.09,3.09,0,0,1,.17-1,2.64,2.64,0,0,1,.48-.85,2.31,2.31,0,0,1,.79-.59,2.48,2.48,0,0,1,1.08-.23,2.74,2.74,0,0,1,.9.14,1.63,1.63,0,0,1,1.08,1.12,3.21,3.21,0,0,1,.14,1V143H61.42v-4.18a1.57,1.57,0,0,0-.17-.82.89.89,0,0,0-.46-.42,1.94,1.94,0,0,0-.72-.12,1.54,1.54,0,0,0-.63.12,1.13,1.13,0,0,0-.46.34,1.28,1.28,0,0,0-.29.49A1.61,1.61,0,0,0,58.59,139Zm9.26,2.33a.89.89,0,0,0-.11-.43.87.87,0,0,0-.42-.37,3.06,3.06,0,0,0-.93-.3,7.38,7.38,0,0,1-1-.26,3,3,0,0,1-.72-.37,1.55,1.55,0,0,1-.45-.51,1.35,1.35,0,0,1-.16-.69,1.54,1.54,0,0,1,.17-.7,1.92,1.92,0,0,1,.47-.6,2.5,2.5,0,0,1,.74-.4,3,3,0,0,1,1-.15,2.87,2.87,0,0,1,1.3.27,2,2,0,0,1,.83.72,1.81,1.81,0,0,1,.28,1H67.78a.93.93,0,0,0-.16-.51,1.2,1.2,0,0,0-.45-.41,1.42,1.42,0,0,0-.72-.17,1.69,1.69,0,0,0-.73.14,1,1,0,0,0-.41.35.88.88,0,0,0-.12.44.79.79,0,0,0,.06.32.64.64,0,0,0,.22.25,1.58,1.58,0,0,0,.45.21,4.89,4.89,0,0,0,.73.2,5.61,5.61,0,0,1,1.28.43,1.78,1.78,0,0,1,.75.6,1.46,1.46,0,0,1,.25.87,1.73,1.73,0,0,1-.67,1.36,2.58,2.58,0,0,1-.78.38,3.4,3.4,0,0,1-1,.14,3.07,3.07,0,0,1-1.42-.3,2.3,2.3,0,0,1-.88-.77,1.87,1.87,0,0,1-.29-1H65a1.1,1.1,0,0,0,.25.71,1.32,1.32,0,0,0,.58.37,2.24,2.24,0,0,0,.67.11,2.07,2.07,0,0,0,.75-.12,1.15,1.15,0,0,0,.46-.32A.81.81,0,0,0,67.85,141.32Zm3.49.39v.87a2.74,2.74,0,0,1-.27,1.13,2.58,2.58,0,0,1-.76,1l-.61-.42a3.18,3.18,0,0,0,.31-.53,2.79,2.79,0,0,0,.2-.55,2.9,2.9,0,0,0,.07-.6v-.89Zm8.1.21v-3.27a1.25,1.25,0,0,0-.16-.65.92.92,0,0,0-.44-.43,1.91,1.91,0,0,0-1.46,0,1.19,1.19,0,0,0-.48.37.81.81,0,0,0-.17.49H75.64a1.44,1.44,0,0,1,.18-.68,2.16,2.16,0,0,1,.5-.6,2.56,2.56,0,0,1,.8-.43,3.11,3.11,0,0,1,1-.17,2.92,2.92,0,0,1,1.22.24,1.7,1.7,0,0,1,.83.71,2,2,0,0,1,.31,1.17v3a5.43,5.43,0,0,0,0,.67,3.07,3.07,0,0,0,.17.62V143H79.61a2.1,2.1,0,0,1-.13-.5A4,4,0,0,1,79.44,141.92Zm.18-2.76,0,.76h-1.1a4.15,4.15,0,0,0-.83.07,2,2,0,0,0-.61.22,1,1,0,0,0-.37.37.94.94,0,0,0-.13.51,1.14,1.14,0,0,0,.13.55,1,1,0,0,0,.41.39,1.51,1.51,0,0,0,.67.14,1.79,1.79,0,0,0,.88-.21,1.85,1.85,0,0,0,.61-.52,1.09,1.09,0,0,0,.24-.59l.46.52a1.44,1.44,0,0,1-.22.55,2.74,2.74,0,0,1-.48.57,2.59,2.59,0,0,1-.72.45,2.27,2.27,0,0,1-.93.18,2.44,2.44,0,0,1-1.13-.26,1.88,1.88,0,0,1-.75-.67,1.81,1.81,0,0,1-.26-.95,2,2,0,0,1,.2-.9,1.69,1.69,0,0,1,.57-.65,2.62,2.62,0,0,1,.91-.4,4.71,4.71,0,0,1,1.17-.13Zm3.69-1.28v7.56H82.22v-8.78h1Zm4.27,1.9v.12a5.15,5.15,0,0,1-.16,1.28,3.21,3.21,0,0,1-.48,1,2.13,2.13,0,0,1-1.82.92,2.76,2.76,0,0,1-1.07-.2,2,2,0,0,1-.78-.58,2.94,2.94,0,0,1-.52-.92,5.61,5.61,0,0,1-.26-1.2v-.65a5.59,5.59,0,0,1,.27-1.26,3.18,3.18,0,0,1,.51-.95,2,2,0,0,1,.78-.61,2.46,2.46,0,0,1,1-.21,2.27,2.27,0,0,1,1.06.24,2.13,2.13,0,0,1,.78.65,3.16,3.16,0,0,1,.48,1A5.3,5.3,0,0,1,87.58,139.78Zm-1.09.12v-.12a3.57,3.57,0,0,0-.1-.89,2.36,2.36,0,0,0-.31-.74,1.44,1.44,0,0,0-1.29-.69,1.6,1.6,0,0,0-.72.14,1.48,1.48,0,0,0-.51.38,2,2,0,0,0-.35.54,3.19,3.19,0,0,0-.19.62v1.52a3.51,3.51,0,0,0,.33.77,1.56,1.56,0,0,0,1.45.8,1.49,1.49,0,0,0,.75-.18,1.62,1.62,0,0,0,.53-.51,2.57,2.57,0,0,0,.31-.74A3.71,3.71,0,0,0,86.49,139.9Zm3.56-2v7.56H89v-8.78h1Zm4.27,1.9v.12a4.72,4.72,0,0,1-.17,1.28,2.83,2.83,0,0,1-.48,1,2.15,2.15,0,0,1-.76.68,2.26,2.26,0,0,1-1,.24,2.72,2.72,0,0,1-1.07-.2,2,2,0,0,1-.78-.58,2.94,2.94,0,0,1-.52-.92,5.06,5.06,0,0,1-.26-1.2v-.65a5.59,5.59,0,0,1,.27-1.26,3,3,0,0,1,.51-.95,2,2,0,0,1,.78-.61,2.46,2.46,0,0,1,1-.21,2.27,2.27,0,0,1,1.06.24,2.13,2.13,0,0,1,.78.65,3,3,0,0,1,.47,1A4.86,4.86,0,0,1,94.32,139.78Zm-1.09.12v-.12a3.57,3.57,0,0,0-.1-.89,2.36,2.36,0,0,0-.31-.74,1.52,1.52,0,0,0-.53-.51,1.54,1.54,0,0,0-.77-.18,1.58,1.58,0,0,0-.71.14,1.48,1.48,0,0,0-.51.38,2,2,0,0,0-.35.54,3.19,3.19,0,0,0-.19.62v1.52a3.51,3.51,0,0,0,.33.77,1.56,1.56,0,0,0,1.45.8,1.49,1.49,0,0,0,.75-.18,1.62,1.62,0,0,0,.53-.51,2.57,2.57,0,0,0,.31-.74A3.71,3.71,0,0,0,93.23,139.9Zm3.65-5.9v9H95.79v-9Zm2.92,2.66V143H98.71v-6.34ZM98.62,135a.69.69,0,0,1,.16-.45.73.73,0,0,1,1,0,.64.64,0,0,1,.17.45.67.67,0,0,1-1.13.43A.65.65,0,0,1,98.62,135Zm5.45,7.25a1.73,1.73,0,0,0,.72-.16,1.54,1.54,0,0,0,.54-.43,1.26,1.26,0,0,0,.24-.64h1a2,2,0,0,1-.38,1.05,2.55,2.55,0,0,1-.91.77,2.58,2.58,0,0,1-1.24.3,2.83,2.83,0,0,1-1.24-.26,2.3,2.3,0,0,1-.88-.69,2.89,2.89,0,0,1-.52-1,4.09,4.09,0,0,1-.17-1.22v-.24a4,4,0,0,1,.17-1.21,2.94,2.94,0,0,1,.52-1,2.3,2.3,0,0,1,.88-.69,2.83,2.83,0,0,1,1.24-.26,2.64,2.64,0,0,1,1.31.31,2.22,2.22,0,0,1,.87.82,2.4,2.4,0,0,1,.35,1.17h-1a1.56,1.56,0,0,0-.22-.71,1.39,1.39,0,0,0-.52-.5,1.46,1.46,0,0,0-.76-.2,1.62,1.62,0,0,0-.83.2,1.52,1.52,0,0,0-.54.53,2.46,2.46,0,0,0-.28.73,4.47,4.47,0,0,0-.08.82V140a4.47,4.47,0,0,0,.08.82,2.52,2.52,0,0,0,.28.74,1.47,1.47,0,0,0,.53.52A1.68,1.68,0,0,0,104.07,142.23Zm7.49-.31v-3.27a1.25,1.25,0,0,0-.16-.65.92.92,0,0,0-.44-.43,1.91,1.91,0,0,0-1.46,0,1.19,1.19,0,0,0-.48.37.81.81,0,0,0-.17.49h-1.08a1.43,1.43,0,0,1,.17-.68,2,2,0,0,1,.51-.6,2.4,2.4,0,0,1,.79-.43,3.12,3.12,0,0,1,1.05-.17,2.87,2.87,0,0,1,1.21.24,1.77,1.77,0,0,1,.84.71,2.12,2.12,0,0,1,.3,1.17v3a5.43,5.43,0,0,0,0,.67,3.07,3.07,0,0,0,.17.62V143h-1.13a2.72,2.72,0,0,1-.13-.5A4,4,0,0,1,111.56,141.92Zm.18-2.76,0,.76h-1.1a4.21,4.21,0,0,0-.83.07,1.83,1.83,0,0,0-.6.22,1,1,0,0,0-.38.37.94.94,0,0,0-.13.51,1.15,1.15,0,0,0,.14.55,1,1,0,0,0,.4.39,1.51,1.51,0,0,0,.67.14,1.76,1.76,0,0,0,.88-.21,1.85,1.85,0,0,0,.61-.52,1.09,1.09,0,0,0,.24-.59l.46.52a1.44,1.44,0,0,1-.22.55,2.74,2.74,0,0,1-.48.57,2.59,2.59,0,0,1-.72.45,2.27,2.27,0,0,1-.93.18,2.44,2.44,0,0,1-1.13-.26,1.88,1.88,0,0,1-.75-.67,1.81,1.81,0,0,1-.26-.95,2,2,0,0,1,.2-.9,1.69,1.69,0,0,1,.57-.65,2.62,2.62,0,0,1,.91-.4,4.71,4.71,0,0,1,1.17-.13Zm5.26-2.5v.83h-3.43v-.83Zm-2.27-1.54h1.09v6.31a.94.94,0,0,0,.1.49.46.46,0,0,0,.25.21,1,1,0,0,0,.34.06l.29,0,.22,0V143l-.34.08a3.37,3.37,0,0,1-.5,0,1.77,1.77,0,0,1-.73-.16,1.18,1.18,0,0,1-.53-.53,2.18,2.18,0,0,1-.2-1Zm4.72,1.54V143h-1.09v-6.34ZM118.28,135a.64.64,0,0,1,.16-.45.72.72,0,0,1,1,0,.64.64,0,0,1,.17.45.6.6,0,0,1-.64.61.59.59,0,0,1-.64-.61Zm2.62,4.92v-.13a4.09,4.09,0,0,1,.2-1.28,3,3,0,0,1,.58-1,2.62,2.62,0,0,1,.9-.68,2.93,2.93,0,0,1,1.2-.25,2.89,2.89,0,0,1,1.2.25,2.56,2.56,0,0,1,.91.68,3,3,0,0,1,.59,1,4.09,4.09,0,0,1,.19,1.28v.13a4,4,0,0,1-.19,1.27,3.18,3.18,0,0,1-.59,1,2.75,2.75,0,0,1-.9.68,2.86,2.86,0,0,1-1.2.24,2.92,2.92,0,0,1-1.2-.24,2.69,2.69,0,0,1-.91-.68,3.16,3.16,0,0,1-.58-1A4,4,0,0,1,120.9,139.9Zm1.09-.13v.13a3.27,3.27,0,0,0,.11.9,2.36,2.36,0,0,0,.33.74,1.75,1.75,0,0,0,.57.51,1.67,1.67,0,0,0,.79.18,1.61,1.61,0,0,0,.78-.18,1.71,1.71,0,0,0,.56-.51,2.63,2.63,0,0,0,.34-.74,3.27,3.27,0,0,0,.11-.9v-.13a3.19,3.19,0,0,0-.11-.89,2.4,2.4,0,0,0-.34-.74,1.67,1.67,0,0,0-.57-.52,1.61,1.61,0,0,0-.78-.19,1.68,1.68,0,0,0-.79.19,1.74,1.74,0,0,0-.56.52,2.17,2.17,0,0,0-.33.74A3.19,3.19,0,0,0,122,139.77Zm7.13-1.76v5H128v-6.34h1Zm-.26,1.58-.45,0a3.87,3.87,0,0,1,.19-1.2,3.13,3.13,0,0,1,.53-1,2.38,2.38,0,0,1,1.86-.86,2.74,2.74,0,0,1,.84.13,1.58,1.58,0,0,1,.64.4,1.68,1.68,0,0,1,.41.72,3.54,3.54,0,0,1,.14,1.06V143h-1.09v-4.17a1.76,1.76,0,0,0-.15-.79.86.86,0,0,0-.42-.44,1.73,1.73,0,0,0-1.43,0,1.71,1.71,0,0,0-.57.47,2.23,2.23,0,0,0-.37.68A2.41,2.41,0,0,0,128.86,139.59Zm9.5,1.73a.89.89,0,0,0-.11-.43.84.84,0,0,0-.41-.37,3.14,3.14,0,0,0-.94-.3,7.38,7.38,0,0,1-1-.26,3,3,0,0,1-.72-.37,1.67,1.67,0,0,1-.45-.51,1.46,1.46,0,0,1-.16-.69,1.54,1.54,0,0,1,.17-.7,1.92,1.92,0,0,1,.47-.6,2.44,2.44,0,0,1,.75-.4,2.93,2.93,0,0,1,1-.15,2.87,2.87,0,0,1,1.3.27,2,2,0,0,1,.83.72,1.82,1.82,0,0,1,.29,1h-1.09a1,1,0,0,0-.15-.51,1.32,1.32,0,0,0-.46-.41,1.42,1.42,0,0,0-.72-.17,1.69,1.69,0,0,0-.73.14.93.93,0,0,0-.4.35.8.8,0,0,0-.13.44.79.79,0,0,0,.06.32.64.64,0,0,0,.22.25,1.58,1.58,0,0,0,.45.21,4.89,4.89,0,0,0,.73.2,5.88,5.88,0,0,1,1.29.43,1.92,1.92,0,0,1,.75.6,1.53,1.53,0,0,1,.24.87,1.76,1.76,0,0,1-.17.76,1.79,1.79,0,0,1-.5.6,2.47,2.47,0,0,1-.78.38,3.4,3.4,0,0,1-1,.14,3.07,3.07,0,0,1-1.42-.3,2.19,2.19,0,0,1-.87-.77,1.88,1.88,0,0,1-.3-1h1.09a1.1,1.1,0,0,0,.25.71,1.32,1.32,0,0,0,.58.37,2.29,2.29,0,0,0,.67.11,2,2,0,0,0,.75-.12,1.15,1.15,0,0,0,.46-.32A.81.81,0,0,0,138.36,141.32Zm6.66-4.66V143h-1.09v-6.34ZM143.85,135a.64.64,0,0,1,.16-.45.59.59,0,0,1,.48-.18.61.61,0,0,1,.47.18.64.64,0,0,1,.17.45.6.6,0,0,1-.64.61.59.59,0,0,1-.48-.18A.6.6,0,0,1,143.85,135Zm4,3v5h-1.08v-6.34h1Zm-.25,1.58-.45,0a3.59,3.59,0,0,1,.19-1.2,2.94,2.94,0,0,1,.53-1,2.33,2.33,0,0,1,.8-.63,2.45,2.45,0,0,1,1.05-.23,2.81,2.81,0,0,1,.85.13,1.58,1.58,0,0,1,.64.4,1.79,1.79,0,0,1,.41.72,3.54,3.54,0,0,1,.14,1.06V143h-1.09v-4.17a1.76,1.76,0,0,0-.15-.79.88.88,0,0,0-.43-.44,1.47,1.47,0,0,0-.69-.14,1.55,1.55,0,0,0-.74.17,1.71,1.71,0,0,0-.57.47,2.47,2.47,0,0,0-.37.68A2.69,2.69,0,0,0,147.59,139.59ZM44.27,155.54v-4.88h1.09V157h-1Zm.21-1.34h.45a4.82,4.82,0,0,1-.13,1.17,2.65,2.65,0,0,1-.43.93,2,2,0,0,1-.76.61,2.73,2.73,0,0,1-1.16.22,2.57,2.57,0,0,1-.85-.14,1.76,1.76,0,0,1-.65-.41,1.79,1.79,0,0,1-.43-.74,3.43,3.43,0,0,1-.15-1.08v-4.09h1.08v4.1a2.33,2.33,0,0,0,.1.71,1.12,1.12,0,0,0,.26.44.92.92,0,0,0,.38.22,1.25,1.25,0,0,0,.43.07,2,2,0,0,0,1.1-.27,1.52,1.52,0,0,0,.58-.72A2.71,2.71,0,0,0,44.48,154.2Zm3.62-2.54V157H47v-6.34h1Zm2-1v1l-.25,0h-.27a1.9,1.9,0,0,0-.66.11,1.32,1.32,0,0,0-.49.33,1.64,1.64,0,0,0-.32.51,2.42,2.42,0,0,0-.14.63l-.31.17a5.17,5.17,0,0,1,.11-1.07,2.86,2.86,0,0,1,.36-.89,1.62,1.62,0,0,1,.61-.61,1.71,1.71,0,0,1,.89-.23l.27,0Zm1-2.63h1.09v7.77l-.1,1.23h-1Zm5.37,5.78v.12a5.15,5.15,0,0,1-.16,1.28,3,3,0,0,1-.49,1,2.13,2.13,0,0,1-1.82.92,2.54,2.54,0,0,1-1.06-.21,2.11,2.11,0,0,1-.76-.6,3.17,3.17,0,0,1-.5-.95,6.28,6.28,0,0,1-.25-1.25v-.54a6.24,6.24,0,0,1,.25-1.26,3.17,3.17,0,0,1,.5-.95,2,2,0,0,1,.76-.61,2.46,2.46,0,0,1,1-.21,2.27,2.27,0,0,1,1.06.24,2,2,0,0,1,.77.65,3,3,0,0,1,.49,1A5.3,5.3,0,0,1,56.45,153.78Zm-1.09.12v-.12a4.13,4.13,0,0,0-.09-.89,2.33,2.33,0,0,0-.28-.74,1.46,1.46,0,0,0-.51-.51,1.55,1.55,0,0,0-.78-.18,1.58,1.58,0,0,0-.71.14,1.48,1.48,0,0,0-.51.38,2,2,0,0,0-.35.54,3.19,3.19,0,0,0-.19.62v1.41a2.92,2.92,0,0,0,.3.79,1.91,1.91,0,0,0,.58.62,1.58,1.58,0,0,0,.89.24,1.39,1.39,0,0,0,1.26-.68,2.29,2.29,0,0,0,.3-.73A4.19,4.19,0,0,0,55.36,153.9Zm6.2,2v-3.27a1.36,1.36,0,0,0-.15-.65,1,1,0,0,0-.45-.43,1.62,1.62,0,0,0-.74-.15,1.65,1.65,0,0,0-.72.14,1.19,1.19,0,0,0-.48.37.81.81,0,0,0-.17.49H57.77a1.55,1.55,0,0,1,.17-.68,2,2,0,0,1,.51-.6,2.5,2.5,0,0,1,.79-.43,3.17,3.17,0,0,1,1-.17,3,3,0,0,1,1.22.24,1.8,1.8,0,0,1,.83.71,2.12,2.12,0,0,1,.3,1.17v3a4.06,4.06,0,0,0,.06.67,2.55,2.55,0,0,0,.16.62V157H61.73a2.15,2.15,0,0,1-.12-.5A3,3,0,0,1,61.56,155.92Zm.19-2.76v.76h-1.1a4,4,0,0,0-.82.07,1.81,1.81,0,0,0-.61.22,1,1,0,0,0-.51.88,1.15,1.15,0,0,0,.14.55,1,1,0,0,0,.4.39,1.55,1.55,0,0,0,.68.14,1.75,1.75,0,0,0,.87-.21,1.85,1.85,0,0,0,.61-.52,1.09,1.09,0,0,0,.24-.59l.47.52a1.66,1.66,0,0,1-.23.55,2.74,2.74,0,0,1-.48.57,2.59,2.59,0,0,1-.72.45,2.25,2.25,0,0,1-.92.18,2.39,2.39,0,0,1-1.13-.26,1.88,1.88,0,0,1-.75-.67,1.73,1.73,0,0,1-.27-.95,2,2,0,0,1,.2-.9,1.72,1.72,0,0,1,.58-.65,2.65,2.65,0,0,1,.9-.4,4.74,4.74,0,0,1,1.18-.13ZM65.43,152v5H64.35v-6.34h1Zm-.26,1.58-.45,0a3.87,3.87,0,0,1,.2-1.2,3.11,3.11,0,0,1,.52-1,2.38,2.38,0,0,1,1.86-.86,2.74,2.74,0,0,1,.84.13,1.52,1.52,0,0,1,.64.4,1.68,1.68,0,0,1,.41.72,3.24,3.24,0,0,1,.14,1.06V157H68.24v-4.17a1.78,1.78,0,0,0-.14-.79.88.88,0,0,0-.43-.44,1.47,1.47,0,0,0-.69-.14,1.52,1.52,0,0,0-.74.17,1.71,1.71,0,0,0-.57.47,2.47,2.47,0,0,0-.37.68A2.69,2.69,0,0,0,65.17,153.59Zm10-5.59v9H74.05v-9Zm1.45,5.9v-.13a3.82,3.82,0,0,1,.2-1.28,3,3,0,0,1,.57-1,2.56,2.56,0,0,1,.91-.68,2.84,2.84,0,0,1,1.19-.25,2.94,2.94,0,0,1,1.21.25,2.65,2.65,0,0,1,.91.68,3,3,0,0,1,.58,1,4.09,4.09,0,0,1,.2,1.28v.13a4,4,0,0,1-.2,1.27,3.16,3.16,0,0,1-.58,1,2.69,2.69,0,0,1-.91.68,2.84,2.84,0,0,1-1.19.24,2.94,2.94,0,0,1-1.21-.24,2.79,2.79,0,0,1-.91-.68,3.14,3.14,0,0,1-.57-1A3.72,3.72,0,0,1,76.59,153.9Zm1.08-.13v.13a3.7,3.7,0,0,0,.11.9,2.63,2.63,0,0,0,.34.74,1.75,1.75,0,0,0,.57.51,1.8,1.8,0,0,0,1.57,0,1.82,1.82,0,0,0,.56-.51,2.36,2.36,0,0,0,.33-.74,3.26,3.26,0,0,0,.12-.9v-.13a3.19,3.19,0,0,0-.12-.89,2.19,2.19,0,0,0-.34-.74,1.64,1.64,0,0,0-.56-.52,1.62,1.62,0,0,0-.79-.19,1.67,1.67,0,0,0-.78.19,1.74,1.74,0,0,0-.56.52,2.4,2.4,0,0,0-.34.74A3.62,3.62,0,0,0,77.67,153.77Zm8.59,2.46a1.71,1.71,0,0,0,.71-.16,1.54,1.54,0,0,0,.54-.43,1.26,1.26,0,0,0,.24-.64h1a1.93,1.93,0,0,1-.38,1.05,2.55,2.55,0,0,1-.91.77,2.57,2.57,0,0,1-1.23.3,2.84,2.84,0,0,1-1.25-.26,2.3,2.3,0,0,1-.88-.69,3.07,3.07,0,0,1-.52-1,4.09,4.09,0,0,1-.17-1.22v-.24a4,4,0,0,1,.17-1.21,3.12,3.12,0,0,1,.52-1,2.3,2.3,0,0,1,.88-.69,2.84,2.84,0,0,1,1.25-.26,2.6,2.6,0,0,1,1.3.31,2.22,2.22,0,0,1,.87.82,2.4,2.4,0,0,1,.35,1.17h-1a1.56,1.56,0,0,0-.22-.71,1.5,1.5,0,0,0-1.27-.7,1.63,1.63,0,0,0-.84.2,1.5,1.5,0,0,0-.53.53,2.48,2.48,0,0,0-.29.73,4.47,4.47,0,0,0-.08.82V154a4.47,4.47,0,0,0,.08.82,2.52,2.52,0,0,0,.28.74,1.47,1.47,0,0,0,.53.52A1.7,1.7,0,0,0,86.26,156.23Zm7.48-.31v-3.27a1.36,1.36,0,0,0-.15-.65,1,1,0,0,0-.45-.43,1.62,1.62,0,0,0-.74-.15,1.65,1.65,0,0,0-.72.14,1.19,1.19,0,0,0-.48.37.81.81,0,0,0-.17.49H90a1.55,1.55,0,0,1,.17-.68,2,2,0,0,1,.51-.6,2.4,2.4,0,0,1,.79-.43,3.17,3.17,0,0,1,1-.17,3,3,0,0,1,1.22.24,1.8,1.8,0,0,1,.83.71,2.12,2.12,0,0,1,.3,1.17v3a4.06,4.06,0,0,0,.06.67,2.16,2.16,0,0,0,.17.62V157H93.91a2.15,2.15,0,0,1-.12-.5A3,3,0,0,1,93.74,155.92Zm.19-2.76v.76h-1.1A4,4,0,0,0,92,154a1.81,1.81,0,0,0-.61.22,1,1,0,0,0-.51.88,1.15,1.15,0,0,0,.14.55,1,1,0,0,0,.4.39,1.51,1.51,0,0,0,.67.14A1.76,1.76,0,0,0,93,156a1.85,1.85,0,0,0,.61-.52,1.09,1.09,0,0,0,.24-.59l.47.52a1.66,1.66,0,0,1-.23.55,2.74,2.74,0,0,1-.48.57,2.59,2.59,0,0,1-.72.45,2.25,2.25,0,0,1-.92.18,2.39,2.39,0,0,1-1.13-.26,1.88,1.88,0,0,1-.75-.67,1.73,1.73,0,0,1-.27-.95,2,2,0,0,1,.2-.9,1.72,1.72,0,0,1,.58-.65,2.65,2.65,0,0,1,.9-.4,4.74,4.74,0,0,1,1.18-.13ZM97.7,148v9H96.61v-9Zm4.72,0h1.09v7.77l-.1,1.23h-1Zm5.37,5.78v.12a4.72,4.72,0,0,1-.17,1.28,2.83,2.83,0,0,1-.48,1,2.13,2.13,0,0,1-1.82.92,2.54,2.54,0,0,1-1.06-.21,2.11,2.11,0,0,1-.76-.6,3.17,3.17,0,0,1-.5-.95,6.28,6.28,0,0,1-.25-1.25v-.54a6.24,6.24,0,0,1,.25-1.26,3.17,3.17,0,0,1,.5-.95,2,2,0,0,1,.76-.61,2.46,2.46,0,0,1,1-.21,2.27,2.27,0,0,1,1.06.24,2,2,0,0,1,.77.65,2.8,2.8,0,0,1,.48,1A4.86,4.86,0,0,1,107.79,153.78Zm-1.09.12v-.12a4.13,4.13,0,0,0-.09-.89,2.33,2.33,0,0,0-.28-.74,1.46,1.46,0,0,0-.51-.51,1.55,1.55,0,0,0-.78-.18,1.58,1.58,0,0,0-.71.14,1.48,1.48,0,0,0-.51.38,2,2,0,0,0-.35.54,3.19,3.19,0,0,0-.19.62v1.41a2.92,2.92,0,0,0,.3.79,1.91,1.91,0,0,0,.58.62,1.58,1.58,0,0,0,.89.24,1.39,1.39,0,0,0,1.26-.68,2.29,2.29,0,0,0,.3-.73A4.19,4.19,0,0,0,106.7,153.9Zm2.17,0v-.13a4.09,4.09,0,0,1,.2-1.28,3,3,0,0,1,.58-1,2.62,2.62,0,0,1,.9-.68,2.93,2.93,0,0,1,1.2-.25,2.86,2.86,0,0,1,1.2.25,2.56,2.56,0,0,1,.91.68,3,3,0,0,1,.59,1,4.09,4.09,0,0,1,.19,1.28v.13a4,4,0,0,1-.19,1.27,3.18,3.18,0,0,1-.59,1,2.75,2.75,0,0,1-.9.68,2.86,2.86,0,0,1-1.2.24,2.92,2.92,0,0,1-1.2-.24,2.69,2.69,0,0,1-.91-.68,3.16,3.16,0,0,1-.58-1A4,4,0,0,1,108.87,153.9Zm1.09-.13v.13a3.27,3.27,0,0,0,.11.9,2.36,2.36,0,0,0,.33.74,1.75,1.75,0,0,0,.57.51,1.67,1.67,0,0,0,.79.18,1.61,1.61,0,0,0,.78-.18,1.71,1.71,0,0,0,.56-.51,2.63,2.63,0,0,0,.34-.74,3.27,3.27,0,0,0,.11-.9v-.13a3.19,3.19,0,0,0-.11-.89,2.4,2.4,0,0,0-.34-.74,1.74,1.74,0,0,0-.56-.52,1.74,1.74,0,0,0-1.58,0,1.74,1.74,0,0,0-.56.52,2.17,2.17,0,0,0-.33.74A3.19,3.19,0,0,0,110,153.77Zm10,2V148h1.09v9h-1Zm-4.27-1.87v-.12a4.48,4.48,0,0,1,.18-1.32,3.2,3.2,0,0,1,.51-1,2.33,2.33,0,0,1,.79-.65,2.2,2.2,0,0,1,1-.24,2.46,2.46,0,0,1,1.05.21,2,2,0,0,1,.76.61,3.17,3.17,0,0,1,.5.95,6.24,6.24,0,0,1,.25,1.26v.54a6.28,6.28,0,0,1-.25,1.25,3.17,3.17,0,0,1-.5.95,2.11,2.11,0,0,1-.76.6,2.54,2.54,0,0,1-1.06.21,2.19,2.19,0,0,1-1-.24,2.43,2.43,0,0,1-.79-.68,3.25,3.25,0,0,1-.51-1A4.35,4.35,0,0,1,115.73,153.9Zm1.09-.12v.12a4.18,4.18,0,0,0,.1.89,2.29,2.29,0,0,0,.3.73,1.55,1.55,0,0,0,.52.5,1.53,1.53,0,0,0,.76.18,1.63,1.63,0,0,0,.89-.23,1.73,1.73,0,0,0,.56-.61,3.18,3.18,0,0,0,.32-.81v-1.41a2.64,2.64,0,0,0-.2-.62,2,2,0,0,0-.34-.54,1.48,1.48,0,0,0-.51-.38,1.8,1.8,0,0,0-1.48,0,1.58,1.58,0,0,0-.52.51,2.35,2.35,0,0,0-.3.74A4.11,4.11,0,0,0,116.82,153.78Zm7.13-3.12V157h-1.09v-6.34ZM122.78,149a.69.69,0,0,1,.16-.45.73.73,0,0,1,1,0,.64.64,0,0,1,.17.45.67.67,0,0,1-1.13.43A.65.65,0,0,1,122.78,149Zm5.55,8.14a3.14,3.14,0,0,1-1.21-.23,2.79,2.79,0,0,1-.92-.63,3,3,0,0,1-.58-1,3.45,3.45,0,0,1-.21-1.23v-.24a3.91,3.91,0,0,1,.23-1.38,3.18,3.18,0,0,1,.62-1,2.62,2.62,0,0,1,.89-.64,2.52,2.52,0,0,1,1-.22,2.66,2.66,0,0,1,1.17.24,2.07,2.07,0,0,1,.81.65,2.84,2.84,0,0,1,.47,1,4.71,4.71,0,0,1,.15,1.23v.49h-4.73v-.89h3.65v-.08a2.57,2.57,0,0,0-.18-.82,1.37,1.37,0,0,0-.47-.66,1.35,1.35,0,0,0-.87-.26,1.51,1.51,0,0,0-.68.16,1.48,1.48,0,0,0-.54.46,2.2,2.2,0,0,0-.34.74,3.89,3.89,0,0,0-.13,1v.24a2.91,2.91,0,0,0,.13.85,2.09,2.09,0,0,0,.37.69,1.68,1.68,0,0,0,.59.47,1.71,1.71,0,0,0,.8.17,2,2,0,0,0,1-.23,2.43,2.43,0,0,0,.69-.63l.66.52a2.86,2.86,0,0,1-.52.59,2.48,2.48,0,0,1-.78.46A2.94,2.94,0,0,1,128.33,157.12Zm7.42-1.8a.89.89,0,0,0-.11-.43.84.84,0,0,0-.41-.37,3.14,3.14,0,0,0-.94-.3,6.81,6.81,0,0,1-.95-.26,2.93,2.93,0,0,1-.73-.37,1.67,1.67,0,0,1-.45-.51,1.47,1.47,0,0,1-.15-.69,1.53,1.53,0,0,1,.16-.7,1.92,1.92,0,0,1,.47-.6,2.44,2.44,0,0,1,.75-.4,3,3,0,0,1,1-.15,2.9,2.9,0,0,1,1.3.27,2,2,0,0,1,.82.72,1.82,1.82,0,0,1,.29,1h-1.08a1,1,0,0,0-.16-.51,1.28,1.28,0,0,0-.45-.41,1.47,1.47,0,0,0-.72-.17,1.71,1.71,0,0,0-.74.14.93.93,0,0,0-.4.35.88.88,0,0,0-.12.44.8.8,0,0,0,.05.32.68.68,0,0,0,.23.25,1.39,1.39,0,0,0,.44.21,5.26,5.26,0,0,0,.73.2,5.88,5.88,0,0,1,1.29.43,1.92,1.92,0,0,1,.75.6,1.53,1.53,0,0,1,.24.87,1.76,1.76,0,0,1-.17.76,1.68,1.68,0,0,1-.5.6,2.41,2.41,0,0,1-.77.38,3.45,3.45,0,0,1-1,.14,3,3,0,0,1-1.42-.3,2.23,2.23,0,0,1-.88-.77,1.88,1.88,0,0,1-.3-1h1.09a1.06,1.06,0,0,0,.26.71,1.23,1.23,0,0,0,.57.37,2.3,2.3,0,0,0,.68.11,2,2,0,0,0,.74-.12,1.08,1.08,0,0,0,.46-.32A.74.74,0,0,0,135.75,155.32Z"></path><path class="cls-4" d="M82.55,93.75V95h-5V93.92l2.32-3c.23-.33.41-.61.55-.85a3.74,3.74,0,0,0,.28-.65,2.23,2.23,0,0,0,.08-.56,2,2,0,0,0-.1-.67,1,1,0,0,0-.29-.45.69.69,0,0,0-.47-.16.81.81,0,0,0-.56.19,1.25,1.25,0,0,0-.34.53,2.68,2.68,0,0,0-.1.78H77.45a3.18,3.18,0,0,1,.3-1.39A2.35,2.35,0,0,1,80,86.35a2.56,2.56,0,0,1,1.29.29,2,2,0,0,1,.79.82,3.12,3.12,0,0,1,.16,2.09,4.61,4.61,0,0,1-.31.79,6.3,6.3,0,0,1-.49.79c-.18.27-.4.54-.63.82l-1.29,1.8ZM88.48,90v1.44a6.8,6.8,0,0,1-.18,1.68,3.15,3.15,0,0,1-.5,1.14,2,2,0,0,1-.76.65,2.24,2.24,0,0,1-1,.21,2.58,2.58,0,0,1-.8-.13,2.06,2.06,0,0,1-.68-.41,2.47,2.47,0,0,1-.52-.72,4.3,4.3,0,0,1-.33-1,8.08,8.08,0,0,1-.11-1.39V90a6.72,6.72,0,0,1,.18-1.67,3.29,3.29,0,0,1,.5-1.13,1.87,1.87,0,0,1,.77-.64,2.24,2.24,0,0,1,1-.21,2.37,2.37,0,0,1,.81.13,1.75,1.75,0,0,1,.66.41,2.28,2.28,0,0,1,.52.7,4.16,4.16,0,0,1,.33,1A8,8,0,0,1,88.48,90ZM87,91.65V89.77c0-.32,0-.6,0-.84a3.65,3.65,0,0,0-.12-.61,1.3,1.3,0,0,0-.19-.41.7.7,0,0,0-.26-.23.68.68,0,0,0-.32-.07.63.63,0,0,0-.38.11.87.87,0,0,0-.3.37,2.38,2.38,0,0,0-.18.67,5.92,5.92,0,0,0-.07,1v1.88c0,.33,0,.61,0,.86a3.05,3.05,0,0,0,.13.62,1.36,1.36,0,0,0,.19.42.65.65,0,0,0,.58.31.77.77,0,0,0,.39-.11,1,1,0,0,0,.29-.39,2.1,2.1,0,0,0,.17-.67A6.22,6.22,0,0,0,87,91.65Zm6.19-5.2V95h-1.5V88.31L90,89V87.69l3-1.24ZM100.55,90v1.44a6.8,6.8,0,0,1-.18,1.68,3.33,3.33,0,0,1-.49,1.14,2.07,2.07,0,0,1-.77.65,2.24,2.24,0,0,1-1,.21,2.58,2.58,0,0,1-.8-.13,2.06,2.06,0,0,1-.68-.41,2.47,2.47,0,0,1-.52-.72,4.3,4.3,0,0,1-.33-1,8.08,8.08,0,0,1-.11-1.39V90a6.72,6.72,0,0,1,.18-1.67,3.29,3.29,0,0,1,.5-1.13,1.87,1.87,0,0,1,.77-.64,2.27,2.27,0,0,1,1-.21,2.37,2.37,0,0,1,.81.13,1.75,1.75,0,0,1,.66.41,2.28,2.28,0,0,1,.52.7,4.16,4.16,0,0,1,.33,1A8,8,0,0,1,100.55,90Zm-1.5,1.65V89.77a7,7,0,0,0,0-.84,3.65,3.65,0,0,0-.12-.61,1.3,1.3,0,0,0-.19-.41.7.7,0,0,0-.26-.23.68.68,0,0,0-.32-.07.63.63,0,0,0-.38.11.87.87,0,0,0-.3.37,2.38,2.38,0,0,0-.18.67,5.92,5.92,0,0,0-.07,1v1.88a7.31,7.31,0,0,0,0,.86,3.05,3.05,0,0,0,.13.62,1.65,1.65,0,0,0,.19.42.65.65,0,0,0,.58.31.77.77,0,0,0,.39-.11,1,1,0,0,0,.29-.39,2.1,2.1,0,0,0,.17-.67A6.22,6.22,0,0,0,99.05,91.65Z"></path></g></svg>