<svg xmlns="http://www.w3.org/2000/svg" xmlns:xlink="http://www.w3.org/1999/xlink" id="Layer_1" data-name="Layer 1" viewBox="0 0 177 166"><defs><style>.cls-1{fill:none;}.cls-2{clip-path:url(#clip-path);}.cls-3{fill:#61686d;}.cls-4{fill:#fff;}</style><clipPath id="clip-path"><rect class="cls-1" width="177" height="166"></rect></clipPath></defs><g class="cls-2"><path class="cls-3" d="M141.37,68.4c-2.58,1.81-3,3.77-3.07,4.31-.41.25-.79.46-1.14.65.55-.91,1.06-1.84,1.55-2.79a43.22,43.22,0,0,0,2-5c.06-.19.13-.38.19-.56a13.85,13.85,0,0,1,2-3.92l.18-.24c7.24-4,3.92-12,3.92-12,.11,1.79-1.61,3.15-3.39,6.4-1.5,2.77-1,4.71-.82,5.23-.36.57-.71,1.07-1,1.49q.18-.78.33-1.56a38.45,38.45,0,0,0,.62-5.35l0-.67c0-.22,0-.44,0-.67V52.34c0-.45,0-.9-.05-1.35,0-.22,0-.44,0-.66l-.06-.67a5,5,0,0,1,.07-1.33l.52-2.55c5.28-6.35-.78-12.65-.78-12.65.76,1.62-.34,3.52-.8,7.2-.38,3.13.8,4.75,1.16,5.16-.15.75-.3,1.39-.43,1.92l-.06-.42c-.05-.44-.15-.88-.23-1.32L142,45c0-.22-.08-.44-.14-.65-.22-.87-.41-1.74-.69-2.59l-.19-.64-.1-.31-.11-.32-.45-1.26c-.29-.72-.59-1.45-.91-2.17a11.43,11.43,0,0,1-1-4.07c0-.33,0-.65-.08-1,2.84-7.75-5-11.65-5-11.65,1.26,1.27.85,3.43,1.67,7,.69,3.08,2.35,4.21,2.82,4.48.16,1.05.24,1.93.28,2.55l0-.07-.32-.59c-.11-.2-.23-.38-.34-.58l-.69-1.14L136,31l-.38-.55-.4-.54c-.4-.57-.83-1.12-1.29-1.66-.62-.79-1.48-1.94-2.22-2.76a5.66,5.66,0,0,1-.88-1.29c-3.25-6.86-11.2-4.93-11.2-4.93,1.78.11,2.92,2,5.93,4.15a6.65,6.65,0,0,0,5,1.49l.26.08.91,1A36.48,36.48,0,0,1,135,30.05l.39.54.35.55.71,1.12.3.53A21.38,21.38,0,0,0,134.32,31C130,24,122.11,27.65,122.11,27.65c1.78-.19,3.21,1.47,6.54,3.09,2.84,1.38,4.75.79,5.26.58C135,32,136,32.64,136.54,33a2.68,2.68,0,0,1,.82.95h0l.3.59a36.93,36.93,0,0,1,2.08,4.84l.41,1.25.1.31.09.32.18.63c.25.84.42,1.71.61,2.56.05.22.09.43.13.65h0a24.34,24.34,0,0,0-1.67-2.25c-2-8-10.7-6.8-10.7-6.8,1.76.34,2.65,2.35,5.36,4.87,2.31,2.15,4.32,2.15,4.86,2.1.62.67,1.13,1.28,1.51,1.75a4.17,4.17,0,0,1,.93,2.26h0l.16,1.31,0,.32,0,.33,0,.65,0,.66c0,.21,0,.43,0,.65,0,.44,0,.87,0,1.31l0,1.32c0,.21,0,.43,0,.65l0,.65c-.07,1-.18,1.89-.31,2.82a20.92,20.92,0,0,0-.65-2.24c1-8.19-7.56-10.17-7.56-10.17,1.52.95,1.63,3.14,3.27,6.46,1.39,2.84,3.26,3.55,3.79,3.7.2.51.37,1,.52,1.4a5.78,5.78,0,0,1,.2,3.19v0a39.44,39.44,0,0,1-1.44,5,41.45,41.45,0,0,1-2.12,4.77c-.23.45-.48.89-.74,1.33a23.23,23.23,0,0,0,.27-2.67c3.89-7.28-3.31-12.22-3.31-12.22,1.07,1.43.37,3.51.66,7.21.25,3.14,1.74,4.49,2.18,4.82v.35a9.72,9.72,0,0,1-1.78,5.59s0,0,0,0a37.38,37.38,0,0,1-3.32,4c-.3.3-.59.63-.91.93l-.93.89s0,0,0,0c.28-.51.54-1,.78-1.51C136.74,73.45,132,66.1,132,66.1c.44,1.74-1,3.38-2.18,6.91-1,3-.14,4.81.13,5.28-.18.45-.37.87-.54,1.24a6.26,6.26,0,0,1-1.81,2.33h0a35.91,35.91,0,0,1-4.25,3c-.87.51-1.75,1-2.65,1.43.37-.39.72-.78,1-1.16,6.14-2.84,3.88-9.63,3.88-9.63,0,1.46-1.49,2.48-3.12,5a5.32,5.32,0,0,0-1,4.22c-.2.27-.39.52-.57.74a5.65,5.65,0,0,1-2.21,1.69,0,0,0,0,1,0,0,42,42,0,0,1-4.88,1.69h0a1.09,1.09,0,1,0,.62,2.09,39.09,39.09,0,0,0,9.9-4.51c.92-.57,1.82-1.2,2.69-1.86A7.82,7.82,0,0,1,131.09,83c7.7,3,11.72-4.8,11.72-4.8-1.29,1.24-3.45.81-7.07,1.56-3.09.64-4.24,2.29-4.52,2.76-.74.1-1.39.16-1.94.19.5-.43,1-.88,1.45-1.32l1-1c.32-.32.61-.67.92-1A39.22,39.22,0,0,0,136,75.19l.06-.09a5.15,5.15,0,0,1,2-1.73l.38-.2c8.25-.31,8.9-9,8.9-9C146.56,65.84,144.41,66.28,141.37,68.4Z"></path><path class="cls-3" d="M38.4,68.4c2.58,1.81,3,3.77,3.07,4.31.41.25.79.46,1.14.65-.55-.91-1.07-1.84-1.55-2.79a41.52,41.52,0,0,1-2.05-5c-.07-.19-.13-.38-.19-.56a13.62,13.62,0,0,0-2-3.92l-.17-.24c-7.24-4-3.92-12-3.92-12-.11,1.79,1.61,3.15,3.38,6.4,1.51,2.77,1,4.71.82,5.23.37.57.72,1.07,1,1.49q-.18-.78-.33-1.56A37,37,0,0,1,37,55l0-.67c0-.22,0-.44,0-.67V52.34c0-.45.05-.9.06-1.35,0-.22,0-.44,0-.66l.06-.67a5,5,0,0,0-.07-1.33l-.52-2.55c-5.28-6.35.78-12.65.78-12.65-.76,1.62.34,3.52.79,7.2.39,3.13-.79,4.75-1.16,5.16.16.75.31,1.39.44,1.92l.06-.42c0-.44.15-.88.23-1.32l.13-.66c0-.22.08-.44.14-.65.21-.87.41-1.74.69-2.59l.19-.64.1-.31.11-.32.45-1.26c.28-.72.58-1.45.9-2.17a11.66,11.66,0,0,0,1-4.07c0-.33,0-.65.08-1-2.84-7.75,5-11.65,5-11.65-1.26,1.27-.86,3.43-1.67,7-.69,3.08-2.35,4.21-2.83,4.48-.15,1.05-.23,1.93-.27,2.55l0-.07.32-.59c.1-.2.23-.38.34-.58l.69-1.14.74-1.1.38-.55.39-.54c.41-.57.84-1.12,1.3-1.66.62-.79,1.47-1.94,2.22-2.76A5.66,5.66,0,0,0,49,24.18c3.25-6.86,11.2-4.93,11.2-4.93-1.78.11-2.92,2-5.93,4.15a6.65,6.65,0,0,1-4.95,1.49l-.26.08-.91,1a36.48,36.48,0,0,0-3.32,4.12l-.39.54c-.12.18-.23.37-.36.55l-.71,1.12-.3.53A22.35,22.35,0,0,1,45.44,31c4.29-7.06,12.22-3.38,12.22-3.38-1.78-.19-3.22,1.47-6.55,3.09-2.83,1.38-4.75.79-5.26.58-1.13.67-2.08,1.32-2.63,1.71a2.68,2.68,0,0,0-.82.95h0l-.3.59A36.93,36.93,0,0,0,40,39.42l-.41,1.25-.1.31-.09.32-.18.63c-.25.84-.42,1.71-.61,2.56-.05.22-.09.43-.12.65h0a22.61,22.61,0,0,1,1.66-2.25c2-8,10.7-6.8,10.7-6.8-1.76.34-2.65,2.35-5.36,4.87-2.31,2.15-4.31,2.15-4.86,2.1-.62.67-1.13,1.28-1.5,1.75a4.11,4.11,0,0,0-.94,2.26h0l-.16,1.31,0,.32,0,.33,0,.65,0,.66c0,.21,0,.43,0,.65,0,.44,0,.87,0,1.31l0,1.32c0,.21,0,.43,0,.65l.05.65c.07,1,.18,1.89.31,2.82.19-.78.4-1.53.65-2.24-1-8.19,7.56-10.17,7.56-10.17-1.52.95-1.63,3.14-3.27,6.46-1.39,2.84-3.26,3.55-3.79,3.7-.2.51-.37,1-.52,1.4a5.78,5.78,0,0,0-.2,3.19s0,0,0,0a37.83,37.83,0,0,0,1.43,5,41.45,41.45,0,0,0,2.12,4.77c.23.45.48.89.74,1.33a21.13,21.13,0,0,1-.26-2.67c-3.9-7.28,3.3-12.22,3.3-12.22-1.07,1.43-.36,3.51-.66,7.21-.25,3.14-1.74,4.49-2.18,4.82v.35A9.8,9.8,0,0,0,45,74.32l0,0a38.51,38.51,0,0,0,3.31,4c.31.3.6.63.92.93l.93.89,0,0c-.28-.51-.54-1-.78-1.51C43,73.45,47.75,66.1,47.75,66.1c-.43,1.74,1,3.38,2.19,6.91,1,3,.14,4.81-.14,5.28.19.45.38.87.55,1.24a6.16,6.16,0,0,0,1.81,2.33h0a36.87,36.87,0,0,0,4.26,3c.86.51,1.75,1,2.65,1.43-.37-.39-.72-.78-1-1.16-6.14-2.84-3.89-9.63-3.89-9.63,0,1.46,1.5,2.48,3.13,5a5.37,5.37,0,0,1,1,4.22c.2.27.39.52.57.74A5.65,5.65,0,0,0,61,87.16a0,0,0,0,0,0,0,42,42,0,0,0,4.88,1.69h0A1.09,1.09,0,1,1,65.33,91a39.09,39.09,0,0,1-9.9-4.51c-.92-.57-1.82-1.2-2.69-1.86A7.82,7.82,0,0,0,48.68,83C41,86,37,78.22,37,78.22c1.29,1.24,3.44.81,7.07,1.56a6.55,6.55,0,0,1,4.52,2.76c.74.1,1.39.16,1.93.19-.49-.43-1-.88-1.44-1.32l-.95-1c-.33-.32-.61-.67-.93-1a40.4,40.4,0,0,1-3.34-4.26l-.06-.09a5.15,5.15,0,0,0-1.95-1.73l-.39-.2c-8.24-.31-8.89-9-8.89-9C33.21,65.84,35.36,66.28,38.4,68.4Z"></path><path class="cls-4" d="M79.79,45.8a1.63,1.63,0,0,0-.06-.47.82.82,0,0,0-.2-.38,1.74,1.74,0,0,0-.43-.34,5,5,0,0,0-.72-.33,9.14,9.14,0,0,1-.94-.42,4.53,4.53,0,0,1-.77-.53,2.24,2.24,0,0,1-.52-.7,2.19,2.19,0,0,1-.18-.92,2.4,2.4,0,0,1,.18-1,2.09,2.09,0,0,1,.53-.75,2.31,2.31,0,0,1,.82-.48,2.87,2.87,0,0,1,1-.18A2.74,2.74,0,0,1,80,39.7a2.42,2.42,0,0,1,.9.95A2.73,2.73,0,0,1,81.18,42H79.76a1.92,1.92,0,0,0-.13-.74,1.1,1.1,0,0,0-.4-.5,1.23,1.23,0,0,0-.7-.18,1.28,1.28,0,0,0-.65.15,1,1,0,0,0-.37.41,1.48,1.48,0,0,0-.12.61.84.84,0,0,0,.1.42,1.07,1.07,0,0,0,.29.35,2,2,0,0,0,.45.3c.18.09.39.18.62.27a5.7,5.7,0,0,1,1.05.48,2.94,2.94,0,0,1,.73.59,2,2,0,0,1,.43.73,2.77,2.77,0,0,1,.15.94,2.49,2.49,0,0,1-.18,1,2.08,2.08,0,0,1-.52.73,2.35,2.35,0,0,1-.82.47,3.31,3.31,0,0,1-1.08.17A3.51,3.51,0,0,1,77.55,48a2.82,2.82,0,0,1-.9-.49A2.53,2.53,0,0,1,76,46.6a2.87,2.87,0,0,1-.23-1.19h1.43a2.38,2.38,0,0,0,.09.7,1.43,1.43,0,0,0,.29.48,1.29,1.29,0,0,0,.45.27,2.16,2.16,0,0,0,.59.08,1.39,1.39,0,0,0,.65-.14.92.92,0,0,0,.38-.4A1.46,1.46,0,0,0,79.79,45.8Zm4-6.8v9H82.38V39ZM87,41.66l-2.25,3.07-1.37,1.55-.34-1.21,1-1.42,1.33-2ZM85.66,48,84.1,45,85,44l2.27,4Zm2.11-2.91v-.51A4.37,4.37,0,0,1,88,43.27a2.56,2.56,0,0,1,.52-1,2.13,2.13,0,0,1,.79-.58,2.68,2.68,0,0,1,2,0,2.17,2.17,0,0,1,.8.58,2.71,2.71,0,0,1,.52,1,4.37,4.37,0,0,1,.18,1.31v.51a4.37,4.37,0,0,1-.18,1.31,2.81,2.81,0,0,1-.52,1,2.26,2.26,0,0,1-.8.57,2.53,2.53,0,0,1-1,.2,2.56,2.56,0,0,1-1-.2,2.26,2.26,0,0,1-.8-.57,2.64,2.64,0,0,1-.52-1A4.37,4.37,0,0,1,87.77,45.09Zm1.36-.51v.51a3.46,3.46,0,0,0,.09.83,1.86,1.86,0,0,0,.23.59,1.09,1.09,0,0,0,.36.35.94.94,0,0,0,.47.12,1,1,0,0,0,.5-.12,1.09,1.09,0,0,0,.36-.35,1.86,1.86,0,0,0,.21-.59,4.15,4.15,0,0,0,.07-.83v-.51a3.35,3.35,0,0,0-.08-.82,1.69,1.69,0,0,0-.23-.59,1.06,1.06,0,0,0-.37-.36.94.94,0,0,0-.47-.12.9.9,0,0,0-.46.12,1,1,0,0,0-.36.36,1.69,1.69,0,0,0-.23.59A3.32,3.32,0,0,0,89.13,44.58ZM96.22,47a.94.94,0,0,0,.47-.12.78.78,0,0,0,.33-.34,1.39,1.39,0,0,0,.13-.62h1.29a2.31,2.31,0,0,1-.31,1.17,2.14,2.14,0,0,1-.8.78,2.24,2.24,0,0,1-1.1.27,2.83,2.83,0,0,1-1.09-.2,2.06,2.06,0,0,1-.77-.59,2.85,2.85,0,0,1-.46-.94,5.42,5.42,0,0,1-.14-1.27v-.58a5.34,5.34,0,0,1,.14-1.26,2.9,2.9,0,0,1,.46-1,1.94,1.94,0,0,1,.77-.58,2.62,2.62,0,0,1,1.09-.21,2.33,2.33,0,0,1,1.15.28,1.94,1.94,0,0,1,.77.81,3,3,0,0,1,.29,1.31H97.15a2,2,0,0,0-.12-.69,1,1,0,0,0-.31-.42.93.93,0,0,0-.51-.14,1,1,0,0,0-.55.13.83.83,0,0,0-.33.36,2.63,2.63,0,0,0-.16.59c0,.23,0,.48,0,.77v.58c0,.29,0,.56,0,.79a1.89,1.89,0,0,0,.16.58.77.77,0,0,0,.33.36A1.13,1.13,0,0,0,96.22,47Zm4.62-8v9H99.48V39Zm-.24,5.6h-.43a4.3,4.3,0,0,1,.14-1.22,2.94,2.94,0,0,1,.42-1,1.92,1.92,0,0,1,.66-.64,1.71,1.71,0,0,1,.87-.23,1.8,1.8,0,0,1,.71.14,1.35,1.35,0,0,1,.55.41,2,2,0,0,1,.36.74,4.29,4.29,0,0,1,.12,1.1V48h-1.37V43.92a2,2,0,0,0-.1-.72.66.66,0,0,0-.28-.38.84.84,0,0,0-.47-.12.9.9,0,0,0-.51.15,1.4,1.4,0,0,0-.37.42,2,2,0,0,0-.22.6A2.87,2.87,0,0,0,100.6,44.6Zm-21.82,7L76.72,59H75.23l2.71-8.53h.92ZM80.43,59l-2.07-7.36-.1-1.17h.94L81.92,59Zm0-3.17V57h-4V55.83ZM84,57.58l1.24-4.92h.86l-.17,1.51L84.69,59h-.77Zm-.52-4.92,1,4.94V59h-.85l-1.43-6.34Zm3.62,4.88L88,52.66h1.33L87.91,59h-.86Zm-.85-4.88,1.22,4.86L87.55,59h-.76l-1.26-4.83-.17-1.51Zm7,5.05V54.55a1.33,1.33,0,0,0-.09-.53.57.57,0,0,0-.27-.28.87.87,0,0,0-.42-.1.83.83,0,0,0-.46.12.74.74,0,0,0-.28.3,1,1,0,0,0-.09.43H90.23a1.72,1.72,0,0,1,.16-.73,1.79,1.79,0,0,1,.45-.62,2,2,0,0,1,.71-.44,2.65,2.65,0,0,1,.92-.16,2.68,2.68,0,0,1,1.09.21,1.55,1.55,0,0,1,.74.65,2.25,2.25,0,0,1,.28,1.17v3a4.65,4.65,0,0,0,0,.78,2.89,2.89,0,0,0,.16.6V59H93.4a2.44,2.44,0,0,1-.14-.59A5.49,5.49,0,0,1,93.21,57.71Zm.18-2.57V56h-.66a1.42,1.42,0,0,0-.52.09,1,1,0,0,0-.4.22.94.94,0,0,0-.25.34,1.34,1.34,0,0,0-.08.46,1.3,1.3,0,0,0,.08.48.57.57,0,0,0,.25.28.88.88,0,0,0,.41.09,1.15,1.15,0,0,0,.57-.14,1.08,1.08,0,0,0,.38-.35.52.52,0,0,0,.1-.38l.31.57a1.91,1.91,0,0,1-.17.47,2.36,2.36,0,0,1-.33.47,1.48,1.48,0,0,1-1.13.5,2,2,0,0,1-.95-.23,1.64,1.64,0,0,1-.65-.63,2,2,0,0,1-.24-1,2.31,2.31,0,0,1,.16-.86,1.74,1.74,0,0,1,.47-.66,2.12,2.12,0,0,1,.78-.44,3.73,3.73,0,0,1,1.11-.15Zm4-1.25V59H96V52.66h1.3Zm1.53-1.27V54l-.25,0h-.26a1.06,1.06,0,0,0-.48.1,1,1,0,0,0-.35.29,1.35,1.35,0,0,0-.22.45,2.53,2.53,0,0,0-.09.6h-.3a6.36,6.36,0,0,1,.1-1.11,3.28,3.28,0,0,1,.28-.9,1.72,1.72,0,0,1,.48-.6,1,1,0,0,1,.67-.22l.24,0A.56.56,0,0,1,98.87,52.62Zm4,5.06V50h1.36v9H103Zm-3.41-1.59v-.5a5.9,5.9,0,0,1,.14-1.35,2.87,2.87,0,0,1,.42-1,1.6,1.6,0,0,1,.66-.56,1.92,1.92,0,0,1,.87-.19,1.46,1.46,0,0,1,.82.22,1.78,1.78,0,0,1,.59.6,3.84,3.84,0,0,1,.38.94,6.78,6.78,0,0,1,.2,1.21v.69a7.79,7.79,0,0,1-.21,1.18,3.11,3.11,0,0,1-.38.92,1.92,1.92,0,0,1-.59.61,1.54,1.54,0,0,1-.82.21,1.92,1.92,0,0,1-.87-.2,1.76,1.76,0,0,1-.65-.57,2.91,2.91,0,0,1-.42-.94A5.75,5.75,0,0,1,99.47,56.09Zm1.37-.5v.5a5.17,5.17,0,0,0,.06.84,1.8,1.8,0,0,0,.19.58.77.77,0,0,0,.34.33,1.13,1.13,0,0,0,.51.11.94.94,0,0,0,.6-.19,1.13,1.13,0,0,0,.37-.51,2.55,2.55,0,0,0,.19-.71V55.17a2.5,2.5,0,0,0-.12-.57,1.57,1.57,0,0,0-.22-.47,1,1,0,0,0-.35-.31.89.89,0,0,0-.47-.12,1,1,0,0,0-.51.12.82.82,0,0,0-.34.35,1.88,1.88,0,0,0-.19.58A5.17,5.17,0,0,0,100.84,55.59Z"></path><path class="cls-4" d="M19.64,114.29h1.13a3.55,3.55,0,0,1-.47,1.44,2.67,2.67,0,0,1-1.06,1,3.64,3.64,0,0,1-1.71.37,3.34,3.34,0,0,1-1.36-.28,3.06,3.06,0,0,1-1.05-.8,3.68,3.68,0,0,1-.68-1.25,5.22,5.22,0,0,1-.24-1.63v-.85a5.11,5.11,0,0,1,.24-1.62,3.66,3.66,0,0,1,.68-1.25,3,3,0,0,1,1.09-.81,3.56,3.56,0,0,1,1.42-.28,3.43,3.43,0,0,1,1.64.36,2.63,2.63,0,0,1,1,1,3.68,3.68,0,0,1,.47,1.48H19.64a3.22,3.22,0,0,0-.3-1,1.59,1.59,0,0,0-.64-.67,2.21,2.21,0,0,0-1.07-.23,2.26,2.26,0,0,0-1,.21,2,2,0,0,0-.72.62,3,3,0,0,0-.44,1,5.35,5.35,0,0,0-.14,1.24v.86a5,5,0,0,0,.13,1.18,3.14,3.14,0,0,0,.4,1,2,2,0,0,0,.69.65,1.9,1.9,0,0,0,1,.24,2.47,2.47,0,0,0,1.15-.23,1.41,1.41,0,0,0,.64-.66A3.14,3.14,0,0,0,19.64,114.29ZM23.23,108v9H22.14v-9ZM23,113.59l-.45,0a3.87,3.87,0,0,1,.19-1.2,3.13,3.13,0,0,1,.53-1,2.38,2.38,0,0,1,1.86-.86,2.74,2.74,0,0,1,.84.13,1.58,1.58,0,0,1,.64.4,1.68,1.68,0,0,1,.41.72,3.54,3.54,0,0,1,.14,1.06V117H26v-4.17a1.76,1.76,0,0,0-.15-.79.9.9,0,0,0-.42-.44,1.48,1.48,0,0,0-.7-.14,1.55,1.55,0,0,0-.74.17,1.78,1.78,0,0,0-.56.47,2.23,2.23,0,0,0-.37.68A2.41,2.41,0,0,0,23,113.59Zm8.41,3.53a3.09,3.09,0,0,1-1.2-.23,2.79,2.79,0,0,1-.92-.63,2.83,2.83,0,0,1-.58-1,3.45,3.45,0,0,1-.21-1.23v-.24a3.91,3.91,0,0,1,.23-1.38,3,3,0,0,1,.62-1,2.62,2.62,0,0,1,.89-.64,2.48,2.48,0,0,1,1-.22,2.6,2.6,0,0,1,1.17.24,2,2,0,0,1,.82.65,2.84,2.84,0,0,1,.47,1,4.71,4.71,0,0,1,.15,1.23v.49H29.11v-.89h3.66v-.08a2.87,2.87,0,0,0-.18-.82,1.43,1.43,0,0,0-.47-.66,1.38,1.38,0,0,0-.88-.26,1.58,1.58,0,0,0-.68.16,1.45,1.45,0,0,0-.53.46,2.42,2.42,0,0,0-.35.74,3.91,3.91,0,0,0-.12,1v.24a2.91,2.91,0,0,0,.12.85,2.29,2.29,0,0,0,.37.69,1.72,1.72,0,0,0,.6.47,1.7,1.7,0,0,0,.79.17,1.93,1.93,0,0,0,1-.23,2.46,2.46,0,0,0,.7-.63l.66.52a2.86,2.86,0,0,1-.52.59,2.6,2.6,0,0,1-.78.46A3,3,0,0,1,31.38,117.12ZM36.2,112v5H35.11v-6.34h1Zm-.26,1.58-.45,0a3.87,3.87,0,0,1,.19-1.2,3.13,3.13,0,0,1,.53-1,2.38,2.38,0,0,1,1.86-.86,2.74,2.74,0,0,1,.84.13,1.52,1.52,0,0,1,.64.4,1.68,1.68,0,0,1,.41.72,3.54,3.54,0,0,1,.14,1.06V117H39v-4.17a1.76,1.76,0,0,0-.15-.79.86.86,0,0,0-.42-.44,1.47,1.47,0,0,0-.69-.14,1.52,1.52,0,0,0-.74.17,1.71,1.71,0,0,0-.57.47,2.23,2.23,0,0,0-.37.68A2.41,2.41,0,0,0,35.94,113.59ZM42.83,112v5H41.75v-6.34h1Zm-.26,1.58-.45,0a3.87,3.87,0,0,1,.2-1.2,3.11,3.11,0,0,1,.52-1,2.38,2.38,0,0,1,1.86-.86,2.74,2.74,0,0,1,.84.13,1.52,1.52,0,0,1,.64.4,1.68,1.68,0,0,1,.41.72,3.24,3.24,0,0,1,.14,1.06V117H45.65v-4.17a1.76,1.76,0,0,0-.15-.79.88.88,0,0,0-.43-.44,1.47,1.47,0,0,0-.69-.14,1.52,1.52,0,0,0-.74.17,1.71,1.71,0,0,0-.57.47,2.47,2.47,0,0,0-.37.68A2.69,2.69,0,0,0,42.57,113.59Zm9.55,2.33v-3.27A1.36,1.36,0,0,0,52,112a1,1,0,0,0-.45-.43,1.62,1.62,0,0,0-.74-.15,1.65,1.65,0,0,0-.72.14,1.19,1.19,0,0,0-.48.37.81.81,0,0,0-.17.49H48.33a1.55,1.55,0,0,1,.17-.68,2,2,0,0,1,.51-.6,2.5,2.5,0,0,1,.79-.43,3.21,3.21,0,0,1,1.05-.17,2.92,2.92,0,0,1,1.22.24,1.8,1.8,0,0,1,.83.71,2.12,2.12,0,0,1,.3,1.17v3a4.06,4.06,0,0,0,.06.67,2.16,2.16,0,0,0,.17.62V117H52.29a2.15,2.15,0,0,1-.12-.5A4.13,4.13,0,0,1,52.12,115.92Zm.19-2.76v.76h-1.1a4,4,0,0,0-.82.07,1.81,1.81,0,0,0-.61.22,1,1,0,0,0-.51.88,1.15,1.15,0,0,0,.14.55,1,1,0,0,0,.4.39,1.55,1.55,0,0,0,.68.14,1.82,1.82,0,0,0,.88-.21,1.91,1.91,0,0,0,.6-.52,1.09,1.09,0,0,0,.24-.59l.47.52a1.62,1.62,0,0,1-.22.55,3.17,3.17,0,0,1-.49.57,2.59,2.59,0,0,1-.72.45,2.25,2.25,0,0,1-.92.18,2.39,2.39,0,0,1-1.13-.26,1.88,1.88,0,0,1-.75-.67,1.73,1.73,0,0,1-.27-1,2,2,0,0,1,.2-.9,1.81,1.81,0,0,1,.58-.65,2.65,2.65,0,0,1,.9-.4,4.74,4.74,0,0,1,1.18-.13Zm3.78-2.5V117H55v-6.34ZM54.91,109a.69.69,0,0,1,.16-.45.73.73,0,0,1,1,0,.64.64,0,0,1,.17.45.67.67,0,0,1-1.13.43A.65.65,0,0,1,54.91,109Zm11.21,5.31h1.12a3.54,3.54,0,0,1-.46,1.44,2.67,2.67,0,0,1-1.06,1,3.67,3.67,0,0,1-1.71.37,3.39,3.39,0,0,1-1.37-.28,3.26,3.26,0,0,1-1-.8,3.86,3.86,0,0,1-.68-1.25,5.53,5.53,0,0,1-.23-1.63v-.85a5.42,5.42,0,0,1,.23-1.62,3.52,3.52,0,0,1,.69-1.25,3.07,3.07,0,0,1,1.08-.81,3.61,3.61,0,0,1,1.43-.28,3.39,3.39,0,0,1,1.63.36,2.66,2.66,0,0,1,1,1,3.68,3.68,0,0,1,.46,1.48H66.12a3.22,3.22,0,0,0-.31-1,1.63,1.63,0,0,0-.63-.67,2.21,2.21,0,0,0-1.07-.23,2.34,2.34,0,0,0-1,.21,2,2,0,0,0-.71.62,2.77,2.77,0,0,0-.44,1,4.84,4.84,0,0,0-.15,1.24v.86a5.54,5.54,0,0,0,.13,1.18,3.15,3.15,0,0,0,.41,1A2.11,2.11,0,0,0,63,116a2,2,0,0,0,1,.24,2.5,2.5,0,0,0,1.15-.23,1.46,1.46,0,0,0,.64-.66A3.4,3.4,0,0,0,66.12,114.29Zm2.21-.39v-.13a4.09,4.09,0,0,1,.2-1.28,3,3,0,0,1,.57-1,2.65,2.65,0,0,1,.91-.68,3,3,0,0,1,2.4,0,2.56,2.56,0,0,1,.91.68,2.86,2.86,0,0,1,.58,1,3.82,3.82,0,0,1,.2,1.28v.13a3.72,3.72,0,0,1-.2,1.27,3,3,0,0,1-.58,1,2.75,2.75,0,0,1-.9.68,2.89,2.89,0,0,1-1.2.24,2.92,2.92,0,0,1-1.2-.24,2.83,2.83,0,0,1-.92-.68,3.14,3.14,0,0,1-.57-1A4,4,0,0,1,68.33,113.9Zm1.09-.13v.13a3.27,3.27,0,0,0,.11.9,2.36,2.36,0,0,0,.33.74,1.75,1.75,0,0,0,.57.51,1.67,1.67,0,0,0,.79.18,1.61,1.61,0,0,0,.78-.18,1.71,1.71,0,0,0,.56-.51,2.63,2.63,0,0,0,.34-.74,3.7,3.7,0,0,0,.11-.9v-.13a3.62,3.62,0,0,0-.11-.89,2.4,2.4,0,0,0-.34-.74,1.67,1.67,0,0,0-.57-.52,1.61,1.61,0,0,0-.78-.19,1.68,1.68,0,0,0-.79.19,1.74,1.74,0,0,0-.56.52,2.17,2.17,0,0,0-.33.74A3.19,3.19,0,0,0,69.42,113.77Zm7.13-2.11V117H75.46v-6.34h1.06Zm2-1v1a1.15,1.15,0,0,0-.26,0H78a1.9,1.9,0,0,0-.66.11,1.37,1.37,0,0,0-.48.33,1.48,1.48,0,0,0-.32.51,2.91,2.91,0,0,0-.15.63l-.3.17a4.57,4.57,0,0,1,.11-1.07,2.86,2.86,0,0,1,.36-.89,1.62,1.62,0,0,1,.61-.61,1.68,1.68,0,0,1,.89-.23l.27,0Zm2.08,1.25v7.56H79.52v-8.78h1Zm4.28,1.9v.12a4.72,4.72,0,0,1-.17,1.28,3.21,3.21,0,0,1-.48,1,2.13,2.13,0,0,1-1.82.92,2.71,2.71,0,0,1-1.06-.2,2.16,2.16,0,0,1-.79-.58,3.13,3.13,0,0,1-.51-.92,5.06,5.06,0,0,1-.26-1.2v-.65a5.6,5.6,0,0,1,.26-1.26,3.18,3.18,0,0,1,.51-1,2.18,2.18,0,0,1,.78-.61,2.54,2.54,0,0,1,1.06-.21,2.3,2.3,0,0,1,1.06.24,2.21,2.21,0,0,1,.78.65,3.15,3.15,0,0,1,.47,1A4.86,4.86,0,0,1,84.89,113.78Zm-1.1.12v-.12a4.13,4.13,0,0,0-.09-.89,2.36,2.36,0,0,0-.31-.74,1.61,1.61,0,0,0-.53-.51,1.8,1.8,0,0,0-1.48,0,1.62,1.62,0,0,0-.52.38,2,2,0,0,0-.34.54,2.62,2.62,0,0,0-.19.62v1.52a3.06,3.06,0,0,0,.32.77,1.67,1.67,0,0,0,.57.58,1.69,1.69,0,0,0,.88.22,1.5,1.5,0,0,0,.76-.18,1.72,1.72,0,0,0,.53-.51,2.57,2.57,0,0,0,.31-.74A4.29,4.29,0,0,0,83.79,113.9Zm2.19,0v-.13a4.09,4.09,0,0,1,.2-1.28,3,3,0,0,1,.57-1,2.65,2.65,0,0,1,.91-.68,3,3,0,0,1,2.4,0,2.56,2.56,0,0,1,.91.68,2.86,2.86,0,0,1,.58,1,3.82,3.82,0,0,1,.2,1.28v.13a3.72,3.72,0,0,1-.2,1.27,3,3,0,0,1-.58,1,2.69,2.69,0,0,1-.91.68,2.84,2.84,0,0,1-3.31-.68,3.14,3.14,0,0,1-.57-1A4,4,0,0,1,86,113.9Zm1.08-.13v.13a3.26,3.26,0,0,0,.12.9,2.36,2.36,0,0,0,.33.74,1.75,1.75,0,0,0,.57.51,1.65,1.65,0,0,0,.79.18,1.61,1.61,0,0,0,.78-.18,1.71,1.71,0,0,0,.56-.51,2.36,2.36,0,0,0,.33-.74,3.26,3.26,0,0,0,.12-.9v-.13a3.19,3.19,0,0,0-.12-.89,2.17,2.17,0,0,0-.33-.74,1.67,1.67,0,0,0-.57-.52,1.61,1.61,0,0,0-.78-.19,1.68,1.68,0,0,0-.79.19,1.74,1.74,0,0,0-.56.52,2.17,2.17,0,0,0-.33.74A3.19,3.19,0,0,0,87.06,113.77Zm7.14-2.11V117H93.11v-6.34h1.06Zm2-1v1l-.26,0h-.27a1.9,1.9,0,0,0-.66.11,1.51,1.51,0,0,0-.49.33,1.62,1.62,0,0,0-.31.51,2.08,2.08,0,0,0-.15.63l-.3.17a4.57,4.57,0,0,1,.11-1.07,2.64,2.64,0,0,1,.36-.89,1.6,1.6,0,0,1,.6-.61,1.72,1.72,0,0,1,.9-.23l.27,0Zm4.5,5.29v-3.27a1.36,1.36,0,0,0-.15-.65,1,1,0,0,0-.45-.43,1.58,1.58,0,0,0-.73-.15,1.67,1.67,0,0,0-.73.14,1.1,1.1,0,0,0-.47.37.76.76,0,0,0-.18.49H96.89a1.44,1.44,0,0,1,.18-.68,1.86,1.86,0,0,1,.5-.6,2.45,2.45,0,0,1,.8-.43,3.11,3.11,0,0,1,1-.17,2.92,2.92,0,0,1,1.22.24,1.8,1.8,0,0,1,.83.71,2.12,2.12,0,0,1,.31,1.17v3a4,4,0,0,0,0,.67,2.53,2.53,0,0,0,.17.62V117h-1.13a1.71,1.71,0,0,1-.13-.5A4.13,4.13,0,0,1,100.68,115.92Zm.19-2.76v.76h-1.1A4.11,4.11,0,0,0,99,114a1.9,1.9,0,0,0-.61.22,1.12,1.12,0,0,0-.38.37,1,1,0,0,0-.12.51,1.14,1.14,0,0,0,.13.55,1,1,0,0,0,.41.39,1.48,1.48,0,0,0,.67.14,1.82,1.82,0,0,0,.88-.21,1.91,1.91,0,0,0,.6-.52,1.11,1.11,0,0,0,.25-.59l.46.52a1.62,1.62,0,0,1-.22.55,2.81,2.81,0,0,1-.49.57,2.69,2.69,0,0,1-.71.45,2.34,2.34,0,0,1-.93.18,2.39,2.39,0,0,1-1.13-.26,1.88,1.88,0,0,1-.75-.67,1.72,1.72,0,0,1-.26-1,1.87,1.87,0,0,1,.2-.9,1.69,1.69,0,0,1,.57-.65,2.65,2.65,0,0,1,.9-.4,4.79,4.79,0,0,1,1.18-.13Zm5.25-2.5v.83H102.7v-.83Zm-2.26-1.54h1.08v6.31a.94.94,0,0,0,.1.49.48.48,0,0,0,.26.21.93.93,0,0,0,.34.06l.28,0,.23,0V117a2.49,2.49,0,0,1-.34.08,3.23,3.23,0,0,1-.49,0,1.82,1.82,0,0,1-.74-.16,1.18,1.18,0,0,1-.53-.53,2.19,2.19,0,0,1-.19-1Zm4.71,1.54V117h-1.09v-6.34ZM107.4,109a.69.69,0,0,1,.16-.45.73.73,0,0,1,1,0,.64.64,0,0,1,.17.45.67.67,0,0,1-1.13.43A.65.65,0,0,1,107.4,109ZM110,113.9v-.13a3.82,3.82,0,0,1,.2-1.28,3,3,0,0,1,.57-1,2.56,2.56,0,0,1,.91-.68,3,3,0,0,1,2.39,0,2.51,2.51,0,0,1,.92.68,3,3,0,0,1,.58,1,4.09,4.09,0,0,1,.2,1.28v.13a4,4,0,0,1-.2,1.27,3.16,3.16,0,0,1-.58,1,2.69,2.69,0,0,1-.91.68,3.1,3.1,0,0,1-2.39,0,2.72,2.72,0,0,1-.92-.68,3.14,3.14,0,0,1-.57-1A3.72,3.72,0,0,1,110,113.9Zm1.08-.13v.13a3.7,3.7,0,0,0,.11.9,2.63,2.63,0,0,0,.34.74,1.82,1.82,0,0,0,.56.51,1.69,1.69,0,0,0,.8.18,1.66,1.66,0,0,0,.78-.18,1.82,1.82,0,0,0,.56-.51,2.36,2.36,0,0,0,.33-.74,3.26,3.26,0,0,0,.12-.9v-.13a3.19,3.19,0,0,0-.12-.89,2.19,2.19,0,0,0-.34-.74,1.64,1.64,0,0,0-.56-.52,1.62,1.62,0,0,0-.79-.19,1.67,1.67,0,0,0-.78.19,1.74,1.74,0,0,0-.56.52,2.4,2.4,0,0,0-.34.74A3.62,3.62,0,0,0,111.11,113.77Zm7.13-1.76v5h-1.08v-6.34h1Zm-.26,1.58-.45,0a3.87,3.87,0,0,1,.2-1.2,3.11,3.11,0,0,1,.52-1,2.38,2.38,0,0,1,1.86-.86,2.81,2.81,0,0,1,.85.13,1.48,1.48,0,0,1,.63.4,1.68,1.68,0,0,1,.41.72,3.22,3.22,0,0,1,.15,1.06V117h-1.1v-4.17a1.78,1.78,0,0,0-.14-.79.88.88,0,0,0-.43-.44,1.47,1.47,0,0,0-.69-.14,1.52,1.52,0,0,0-.74.17,1.71,1.71,0,0,0-.57.47,2.47,2.47,0,0,0-.37.68A2.69,2.69,0,0,0,118,113.59Zm10.39,2.29,1.63-5.22h.72l-.14,1-1.66,5.3h-.7Zm-1.09-5.22,1.39,5.27.1,1.07H128l-1.84-6.34Zm5,5.23,1.32-5.23h1.08L132.84,117h-.73Zm-1.4-5.23,1.59,5.13.18,1.21H132l-1.71-5.31-.14-1Zm4.62,3.24v-.13a4.09,4.09,0,0,1,.2-1.28,3.19,3.19,0,0,1,.58-1,2.56,2.56,0,0,1,.91-.68,3,3,0,0,1,2.39,0,2.6,2.6,0,0,1,.92.68,3.19,3.19,0,0,1,.58,1,4.09,4.09,0,0,1,.2,1.28v.13a4,4,0,0,1-.2,1.27,3.35,3.35,0,0,1-.58,1,2.79,2.79,0,0,1-.91.68,2.86,2.86,0,0,1-1.2.24,2.92,2.92,0,0,1-1.2-.24,2.79,2.79,0,0,1-.91-.68,3.35,3.35,0,0,1-.58-1A4,4,0,0,1,135.5,113.9Zm1.09-.13v.13a3.27,3.27,0,0,0,.11.9,2.61,2.61,0,0,0,.33.74,2,2,0,0,0,.57.51,1.67,1.67,0,0,0,.79.18,1.54,1.54,0,0,0,1.34-.69,2.63,2.63,0,0,0,.34-.74,3.26,3.26,0,0,0,.12-.9v-.13a3.19,3.19,0,0,0-.12-.89,2.4,2.4,0,0,0-.34-.74,1.74,1.74,0,0,0-.56-.52,1.68,1.68,0,0,0-.79-.19,1.61,1.61,0,0,0-.78.19,1.77,1.77,0,0,0-.57.52,2.38,2.38,0,0,0-.33.74A3.19,3.19,0,0,0,136.59,113.77Zm7.13-1.76v5h-1.08v-6.34h1Zm-.26,1.58-.45,0a3.87,3.87,0,0,1,.19-1.2,3.13,3.13,0,0,1,.53-1,2.47,2.47,0,0,1,.81-.63,2.41,2.41,0,0,1,1.05-.23,2.74,2.74,0,0,1,.84.13,1.52,1.52,0,0,1,.64.4,1.68,1.68,0,0,1,.41.72,3.54,3.54,0,0,1,.14,1.06V117h-1.09v-4.17a1.93,1.93,0,0,0-.14-.79.88.88,0,0,0-.43-.44,1.47,1.47,0,0,0-.69-.14,1.52,1.52,0,0,0-.74.17,1.71,1.71,0,0,0-.57.47,2.23,2.23,0,0,0-.37.68A2.41,2.41,0,0,0,143.46,113.59Zm10.4,3.41h-1.08v-7a2.51,2.51,0,0,1,.24-1.15,1.67,1.67,0,0,1,.72-.72,2.46,2.46,0,0,1,1.12-.24l.37,0,.38.07-.06.89-.28,0H155a1.27,1.27,0,0,0-.6.14,1,1,0,0,0-.37.4,1.42,1.42,0,0,0-.13.65Zm1.35-6.34v.83h-3.43v-.83Zm.92,3.24v-.13a4.09,4.09,0,0,1,.2-1.28,3,3,0,0,1,.57-1,2.65,2.65,0,0,1,.91-.68,2.89,2.89,0,0,1,1.2-.25,2.93,2.93,0,0,1,1.2.25,2.56,2.56,0,0,1,.91.68,2.86,2.86,0,0,1,.58,1,4.09,4.09,0,0,1,.2,1.28v.13a4,4,0,0,1-.2,1.27,3,3,0,0,1-.58,1,2.69,2.69,0,0,1-.91.68,2.84,2.84,0,0,1-3.31-.68,3.14,3.14,0,0,1-.57-1A4,4,0,0,1,156.13,113.9Zm1.08-.13v.13a3.7,3.7,0,0,0,.11.9,2.63,2.63,0,0,0,.34.74,1.75,1.75,0,0,0,.57.51,1.8,1.8,0,0,0,1.57,0,1.82,1.82,0,0,0,.56-.51,2.36,2.36,0,0,0,.33-.74,3.26,3.26,0,0,0,.12-.9v-.13a3.19,3.19,0,0,0-.12-.89,2,2,0,0,0-.34-.74,1.55,1.55,0,0,0-.56-.52,1.61,1.61,0,0,0-.78-.19,1.68,1.68,0,0,0-.79.19,1.74,1.74,0,0,0-.56.52,2.4,2.4,0,0,0-.34.74A3.62,3.62,0,0,0,157.21,113.77Zm7.13-2.11V117h-1.08v-6.34h1.05Zm2-1v1l-.26,0h-.27a1.9,1.9,0,0,0-.66.11,1.51,1.51,0,0,0-.49.33,1.45,1.45,0,0,0-.31.51,2.08,2.08,0,0,0-.15.63l-.3.17a4.57,4.57,0,0,1,.11-1.07,2.63,2.63,0,0,1,.35-.89,1.69,1.69,0,0,1,1.5-.84l.27,0A.79.79,0,0,1,166.32,110.63Zm-144.56,14V131H20.67v-6.34ZM20.58,123a.69.69,0,0,1,.16-.45.73.73,0,0,1,1,0,.64.64,0,0,1,.17.45.67.67,0,0,1-1.13.43A.65.65,0,0,1,20.58,123Zm5.57,1.68v.83H22.72v-.83Zm-2.27-1.54H25v6.31a.94.94,0,0,0,.1.49.46.46,0,0,0,.25.21,1,1,0,0,0,.34.06l.29,0,.22,0V131l-.34.08a3.37,3.37,0,0,1-.5,0,1.77,1.77,0,0,1-.73-.16,1.18,1.18,0,0,1-.53-.53,2.18,2.18,0,0,1-.2-1Zm7.23,6.2a.88.88,0,0,0-.1-.43.92.92,0,0,0-.42-.37,3,3,0,0,0-.94-.3,6.81,6.81,0,0,1-.95-.26,3,3,0,0,1-.72-.37,1.45,1.45,0,0,1-.45-.51,1.35,1.35,0,0,1-.16-.69,1.53,1.53,0,0,1,.16-.7,2,2,0,0,1,.48-.6,2.38,2.38,0,0,1,.74-.4,3,3,0,0,1,1-.15,2.87,2.87,0,0,1,1.3.27,2.09,2.09,0,0,1,.83.72,1.81,1.81,0,0,1,.28,1H31.05a.93.93,0,0,0-.16-.51,1.2,1.2,0,0,0-.45-.41,1.47,1.47,0,0,0-.72-.17,1.66,1.66,0,0,0-.73.14,1,1,0,0,0-.41.35.88.88,0,0,0-.12.44.79.79,0,0,0,.06.32.64.64,0,0,0,.22.25,1.46,1.46,0,0,0,.45.21,4.89,4.89,0,0,0,.73.2,5.78,5.78,0,0,1,1.28.43,1.78,1.78,0,0,1,.75.6,1.54,1.54,0,0,1,.25.87A1.64,1.64,0,0,1,32,130a1.68,1.68,0,0,1-.5.6,2.41,2.41,0,0,1-.77.38,3.45,3.45,0,0,1-1,.14,3.07,3.07,0,0,1-1.42-.3,2.23,2.23,0,0,1-.88-.77,1.88,1.88,0,0,1-.3-1h1.09a1.11,1.11,0,0,0,.26.71,1.34,1.34,0,0,0,.57.37,2.35,2.35,0,0,0,.68.11,2,2,0,0,0,.74-.12,1.12,1.12,0,0,0,.47-.32A.8.8,0,0,0,31.11,129.32Zm5.2-1.42v-.13a4.09,4.09,0,0,1,.2-1.28,3,3,0,0,1,.57-1,2.65,2.65,0,0,1,.91-.68,3,3,0,0,1,2.4,0,2.56,2.56,0,0,1,.91.68,2.86,2.86,0,0,1,.58,1,3.82,3.82,0,0,1,.2,1.28v.13a3.72,3.72,0,0,1-.2,1.27,3,3,0,0,1-.58,1,2.75,2.75,0,0,1-.9.68,2.89,2.89,0,0,1-1.2.24,2.86,2.86,0,0,1-1.2-.24,2.83,2.83,0,0,1-.92-.68,3.14,3.14,0,0,1-.57-1A4,4,0,0,1,36.31,127.9Zm1.09-.13v.13a3.27,3.27,0,0,0,.11.9,2.36,2.36,0,0,0,.33.74,1.75,1.75,0,0,0,.57.51,1.67,1.67,0,0,0,.79.18,1.61,1.61,0,0,0,.78-.18,1.71,1.71,0,0,0,.56-.51,2.63,2.63,0,0,0,.34-.74,3.7,3.7,0,0,0,.11-.9v-.13a3.62,3.62,0,0,0-.11-.89,2.2,2.2,0,0,0-.35-.74,1.55,1.55,0,0,0-.56-.52,1.61,1.61,0,0,0-.78-.19,1.68,1.68,0,0,0-.79.19,1.74,1.74,0,0,0-.56.52,2.17,2.17,0,0,0-.33.74A3.19,3.19,0,0,0,37.4,127.77ZM44.53,126v5H43.44v-6.34h1Zm-.26,1.58-.45,0a3.87,3.87,0,0,1,.19-1.2,3.13,3.13,0,0,1,.53-1,2.28,2.28,0,0,1,.81-.63,2.38,2.38,0,0,1,1-.23,2.74,2.74,0,0,1,.84.13,1.58,1.58,0,0,1,.64.4,1.79,1.79,0,0,1,.41.72,3.54,3.54,0,0,1,.14,1.06V131H47.34v-4.17a1.76,1.76,0,0,0-.15-.79.88.88,0,0,0-.43-.44,1.41,1.41,0,0,0-.69-.14,1.55,1.55,0,0,0-.74.17,1.68,1.68,0,0,0-.56.47,2.23,2.23,0,0,0-.37.68A2.41,2.41,0,0,0,44.27,127.59Zm7-5.59v9H50.16v-9Zm2.92,2.66V131H53.08v-6.34ZM53,123a.64.64,0,0,1,.16-.45.62.62,0,0,1,.48-.18.61.61,0,0,1,.47.18.64.64,0,0,1,.17.45.67.67,0,0,1-1.12.43A.6.6,0,0,1,53,123Zm4,3v5H55.91v-6.34h1Zm-.25,1.58-.46,0a3.87,3.87,0,0,1,.2-1.2,2.94,2.94,0,0,1,.53-1,2.33,2.33,0,0,1,.8-.63,2.45,2.45,0,0,1,1-.23,2.76,2.76,0,0,1,.85.13,1.58,1.58,0,0,1,.64.4,1.79,1.79,0,0,1,.41.72,3.54,3.54,0,0,1,.14,1.06V131H59.81v-4.17a1.76,1.76,0,0,0-.15-.79.88.88,0,0,0-.43-.44,1.47,1.47,0,0,0-.69-.14,1.55,1.55,0,0,0-.74.17,1.82,1.82,0,0,0-.57.47,2.76,2.76,0,0,0-.37.68A2.69,2.69,0,0,0,56.74,127.59Zm8.43,3.53a3.09,3.09,0,0,1-1.2-.23,2.79,2.79,0,0,1-.92-.63,2.83,2.83,0,0,1-.58-1,3.45,3.45,0,0,1-.21-1.23v-.24a3.91,3.91,0,0,1,.23-1.38,3,3,0,0,1,.62-1,2.62,2.62,0,0,1,.89-.64,2.48,2.48,0,0,1,1-.22,2.67,2.67,0,0,1,1.18.24,2.07,2.07,0,0,1,.81.65,2.84,2.84,0,0,1,.47,1,4.71,4.71,0,0,1,.15,1.23v.49H62.91v-.89h3.65v-.08a2.87,2.87,0,0,0-.18-.82,1.43,1.43,0,0,0-.47-.66,1.38,1.38,0,0,0-.88-.26,1.58,1.58,0,0,0-.68.16,1.53,1.53,0,0,0-.53.46,2.42,2.42,0,0,0-.35.74,3.91,3.91,0,0,0-.12,1v.24a2.91,2.91,0,0,0,.12.85,2.29,2.29,0,0,0,.37.69,1.82,1.82,0,0,0,.6.47,1.7,1.7,0,0,0,.79.17,2,2,0,0,0,1-.23,2.57,2.57,0,0,0,.69-.63l.66.52a2.86,2.86,0,0,1-.52.59,2.48,2.48,0,0,1-.78.46A3,3,0,0,1,65.17,131.12Zm7.89-6.46V131H72v-6.34ZM71.89,123a.64.64,0,0,1,.16-.45.62.62,0,0,1,.48-.18.61.61,0,0,1,.47.18.64.64,0,0,1,.17.45.67.67,0,0,1-1.12.43A.6.6,0,0,1,71.89,123Zm4,3v5H74.8v-6.34h1Zm-.26,1.58-.45,0a3.59,3.59,0,0,1,.19-1.2,2.94,2.94,0,0,1,.53-1,2.28,2.28,0,0,1,.81-.63,2.37,2.37,0,0,1,1-.23,2.76,2.76,0,0,1,.85.13,1.58,1.58,0,0,1,.64.4,1.79,1.79,0,0,1,.41.72,3.54,3.54,0,0,1,.14,1.06V131H78.7v-4.17a1.76,1.76,0,0,0-.15-.79.88.88,0,0,0-.43-.44,1.41,1.41,0,0,0-.69-.14,1.55,1.55,0,0,0-.74.17,1.71,1.71,0,0,0-.57.47,2.45,2.45,0,0,0-.36.68A2.41,2.41,0,0,0,75.63,127.59Zm8.46-2.93v.83H80.66v-.83Zm-2.27-1.54H82.9v6.31a1.06,1.06,0,0,0,.1.49.52.52,0,0,0,.26.21,1,1,0,0,0,.34.06l.28,0,.23,0V131l-.34.08a3.49,3.49,0,0,1-.5,0,1.74,1.74,0,0,1-.73-.16,1.2,1.2,0,0,1-.54-.53,2.33,2.33,0,0,1-.19-1Zm6.17,8a3.09,3.09,0,0,1-1.2-.23,2.69,2.69,0,0,1-.92-.63,2.85,2.85,0,0,1-.59-1,3.69,3.69,0,0,1-.2-1.23v-.24a3.7,3.7,0,0,1,.23-1.38,3,3,0,0,1,.62-1,2.62,2.62,0,0,1,.89-.64,2.45,2.45,0,0,1,1-.22,2.66,2.66,0,0,1,1.17.24,2.18,2.18,0,0,1,.82.65,2.82,2.82,0,0,1,.46,1,4.31,4.31,0,0,1,.16,1.23v.49H85.72v-.89h3.65v-.08a2.55,2.55,0,0,0-.17-.82,1.51,1.51,0,0,0-.47-.66,1.4,1.4,0,0,0-.88-.26,1.55,1.55,0,0,0-.68.16,1.37,1.37,0,0,0-.53.46,2.21,2.21,0,0,0-.35.74,3.91,3.91,0,0,0-.12,1v.24a2.91,2.91,0,0,0,.12.85,2.29,2.29,0,0,0,.37.69,1.68,1.68,0,0,0,.59.47,1.74,1.74,0,0,0,.8.17,1.93,1.93,0,0,0,1-.23,2.46,2.46,0,0,0,.7-.63l.66.52a2.92,2.92,0,0,1-.53.59,2.48,2.48,0,0,1-.78.46A2.91,2.91,0,0,1,88,131.12Zm7.84-6.46h1v6.2a2.84,2.84,0,0,1-.34,1.44,2.18,2.18,0,0,1-.94.89,3,3,0,0,1-1.4.31,3.32,3.32,0,0,1-.77-.1,3.38,3.38,0,0,1-.87-.35,2.2,2.2,0,0,1-.71-.65l.57-.64a2.16,2.16,0,0,0,.83.66,2.1,2.1,0,0,0,.87.19,1.91,1.91,0,0,0,.89-.19,1.35,1.35,0,0,0,.58-.58,1.84,1.84,0,0,0,.21-.92v-4.87Zm-4.36,3.24v-.12a4.49,4.49,0,0,1,.17-1.32,3.17,3.17,0,0,1,.49-1,2.28,2.28,0,0,1,1.84-.89,2.44,2.44,0,0,1,1,.21,2,2,0,0,1,.76.61,3,3,0,0,1,.5,1,6.24,6.24,0,0,1,.25,1.26v.54a5.13,5.13,0,0,1-.25,1.25,3,3,0,0,1-.5.95,2.11,2.11,0,0,1-.76.6,2.46,2.46,0,0,1-1.05.21,2.24,2.24,0,0,1-1-.24,2.4,2.4,0,0,1-.78-.68,3,3,0,0,1-.5-1A4.36,4.36,0,0,1,91.47,127.9Zm1.08-.12v.12a4.19,4.19,0,0,0,.09.89,2.54,2.54,0,0,0,.3.73,1.55,1.55,0,0,0,.52.5,1.53,1.53,0,0,0,.76.18,1.61,1.61,0,0,0,.89-.23,1.73,1.73,0,0,0,.56-.61,3.18,3.18,0,0,0,.32-.81v-1.41a2.25,2.25,0,0,0-.2-.62,1.74,1.74,0,0,0-.33-.54,1.48,1.48,0,0,0-.51-.38,1.65,1.65,0,0,0-.72-.14,1.57,1.57,0,0,0-.77.18,1.58,1.58,0,0,0-.52.51,2.61,2.61,0,0,0-.3.74A4.13,4.13,0,0,0,92.55,127.78Zm7-2.12V131H98.46v-6.34h1.06Zm2-1v1l-.26,0H101a1.9,1.9,0,0,0-.66.11,1.51,1.51,0,0,0-.49.33,1.45,1.45,0,0,0-.31.51,2.08,2.08,0,0,0-.15.63l-.3.17a4.57,4.57,0,0,1,.11-1.07,3.12,3.12,0,0,1,.35-.89,1.78,1.78,0,0,1,.61-.61,1.71,1.71,0,0,1,.89-.23l.27,0Zm4.5,5.29v-3.27a1.36,1.36,0,0,0-.15-.65,1,1,0,0,0-.45-.43,1.61,1.61,0,0,0-.73-.15,1.67,1.67,0,0,0-.73.14,1.19,1.19,0,0,0-.48.37.81.81,0,0,0-.17.49h-1.08a1.44,1.44,0,0,1,.18-.68,1.86,1.86,0,0,1,.5-.6,2.45,2.45,0,0,1,.8-.43,3.11,3.11,0,0,1,1-.17,2.92,2.92,0,0,1,1.22.24,1.8,1.8,0,0,1,.83.71,2.12,2.12,0,0,1,.3,1.17v3a4.06,4.06,0,0,0,.06.67,2.53,2.53,0,0,0,.17.62V131h-1.13a1.71,1.71,0,0,1-.13-.5A4.13,4.13,0,0,1,106,129.92Zm.19-2.76v.76h-1.09a4.15,4.15,0,0,0-.83.07,1.9,1.9,0,0,0-.61.22.94.94,0,0,0-.5.88,1.14,1.14,0,0,0,.13.55,1,1,0,0,0,.4.39,1.55,1.55,0,0,0,.68.14,1.82,1.82,0,0,0,.88-.21,1.91,1.91,0,0,0,.6-.52,1.2,1.2,0,0,0,.25-.59l.46.52a1.62,1.62,0,0,1-.22.55,2.81,2.81,0,0,1-.49.57,2.69,2.69,0,0,1-.71.45,2.34,2.34,0,0,1-.93.18,2.39,2.39,0,0,1-1.13-.26,1.88,1.88,0,0,1-.75-.67,1.73,1.73,0,0,1-.27-.95,2,2,0,0,1,.2-.9,1.81,1.81,0,0,1,.58-.65,2.65,2.65,0,0,1,.9-.4,4.79,4.79,0,0,1,1.18-.13Zm5.25-2.5v.83h-3.42v-.83Zm-2.26-1.54h1.08v6.31a.94.94,0,0,0,.1.49.48.48,0,0,0,.26.21.93.93,0,0,0,.34.06l.28,0,.23,0V131a2.92,2.92,0,0,1-.34.08,3.23,3.23,0,0,1-.49,0,1.82,1.82,0,0,1-.74-.16,1.18,1.18,0,0,1-.53-.53,2.19,2.19,0,0,1-.19-1Zm6.17,8a3.06,3.06,0,0,1-1.2-.23,2.6,2.6,0,0,1-.92-.63,2.85,2.85,0,0,1-.59-1,3.45,3.45,0,0,1-.2-1.23v-.24a3.92,3.92,0,0,1,.22-1.38,3.18,3.18,0,0,1,.62-1,2.66,2.66,0,0,1,.9-.64,2.45,2.45,0,0,1,1-.22,2.66,2.66,0,0,1,1.17.24,2.07,2.07,0,0,1,.81.65,2.84,2.84,0,0,1,.47,1,4.71,4.71,0,0,1,.15,1.23v.49h-4.73v-.89h3.65v-.08a2.57,2.57,0,0,0-.18-.82,1.37,1.37,0,0,0-.47-.66,1.35,1.35,0,0,0-.87-.26,1.51,1.51,0,0,0-.68.16,1.48,1.48,0,0,0-.54.46,2.41,2.41,0,0,0-.34.74,3.89,3.89,0,0,0-.13,1v.24a2.91,2.91,0,0,0,.13.85,2.09,2.09,0,0,0,.37.69,1.68,1.68,0,0,0,.59.47,1.71,1.71,0,0,0,.8.17,2,2,0,0,0,1-.23,2.43,2.43,0,0,0,.69-.63l.66.52a2.86,2.86,0,0,1-.52.59,2.48,2.48,0,0,1-.78.46A2.94,2.94,0,0,1,115.38,131.12Zm7.72-1.35V122h1.1v9h-1Zm-4.26-1.87v-.12a4.48,4.48,0,0,1,.18-1.32,3.2,3.2,0,0,1,.51-1,2.24,2.24,0,0,1,.79-.65,2.17,2.17,0,0,1,1-.24,2.41,2.41,0,0,1,1,.21,2,2,0,0,1,.76.61,3,3,0,0,1,.5,1,6.24,6.24,0,0,1,.25,1.26v.54a5.13,5.13,0,0,1-.25,1.25,3,3,0,0,1-.5.95,2,2,0,0,1-.76.6,2.46,2.46,0,0,1-1,.21,2.16,2.16,0,0,1-1-.24,2.33,2.33,0,0,1-.79-.68,3.25,3.25,0,0,1-.51-1A4.35,4.35,0,0,1,118.84,127.9Zm1.09-.12v.12a4.19,4.19,0,0,0,.09.89,2.3,2.3,0,0,0,.31.73,1.55,1.55,0,0,0,.52.5,1.49,1.49,0,0,0,.75.18,1.59,1.59,0,0,0,.89-.23,1.73,1.73,0,0,0,.56-.61,3.62,3.62,0,0,0,.33-.81v-1.41a3.21,3.21,0,0,0-.2-.62,2,2,0,0,0-.34-.54,1.48,1.48,0,0,0-.51-.38,1.58,1.58,0,0,0-.71-.14,1.54,1.54,0,0,0-.77.18,1.58,1.58,0,0,0-.52.51,2.36,2.36,0,0,0-.31.74A4.13,4.13,0,0,0,119.93,127.78Zm10-1.9v7.56h-1.09v-8.78h1Zm4.28,1.9v.12a4.72,4.72,0,0,1-.17,1.28,3.21,3.21,0,0,1-.48,1,2.13,2.13,0,0,1-1.82.92,2.71,2.71,0,0,1-1.06-.2,2.16,2.16,0,0,1-.79-.58,3.13,3.13,0,0,1-.51-.92,5.06,5.06,0,0,1-.26-1.2v-.65a5.6,5.6,0,0,1,.26-1.26,3.18,3.18,0,0,1,.51-1,2.18,2.18,0,0,1,.78-.61,2.54,2.54,0,0,1,1.06-.21,2.27,2.27,0,0,1,1.06.24,2.3,2.3,0,0,1,.78.65,3,3,0,0,1,.47,1A4.86,4.86,0,0,1,134.22,127.78Zm-1.1.12v-.12a4.13,4.13,0,0,0-.09-.89,2.62,2.62,0,0,0-.31-.74,1.61,1.61,0,0,0-.53-.51,1.8,1.8,0,0,0-1.48,0,1.48,1.48,0,0,0-.51.38,1.79,1.79,0,0,0-.35.54,2.62,2.62,0,0,0-.19.62v1.52a3.06,3.06,0,0,0,.32.77,1.67,1.67,0,0,0,.57.58,1.69,1.69,0,0,0,.88.22,1.53,1.53,0,0,0,.76-.18,1.72,1.72,0,0,0,.53-.51,2.89,2.89,0,0,0,.31-.74A4.29,4.29,0,0,0,133.12,127.9Zm6.36,1.64v-4.88h1.09V131h-1Zm.2-1.34h.45a4.82,4.82,0,0,1-.13,1.17,2.82,2.82,0,0,1-.42.93,2.11,2.11,0,0,1-.77.61,2.7,2.7,0,0,1-1.16.22,2.61,2.61,0,0,1-.85-.14,1.76,1.76,0,0,1-.65-.41,1.9,1.9,0,0,1-.43-.74,3.43,3.43,0,0,1-.15-1.08v-4.09h1.09v4.1a2.36,2.36,0,0,0,.09.71,1.27,1.27,0,0,0,.27.44.83.83,0,0,0,.37.22,1.29,1.29,0,0,0,.43.07,2,2,0,0,0,1.1-.27,1.52,1.52,0,0,0,.58-.72A2.71,2.71,0,0,0,139.68,128.2Zm2.53-6.2h1.09v7.77l-.09,1.23h-1Zm5.38,5.78v.12a4.72,4.72,0,0,1-.17,1.28,3.21,3.21,0,0,1-.48,1,2.13,2.13,0,0,1-1.82.92,2.51,2.51,0,0,1-1.06-.21,2,2,0,0,1-.76-.6,3,3,0,0,1-.5-.95,5.64,5.64,0,0,1-.25-1.25v-.54a5.62,5.62,0,0,1,.25-1.26,3,3,0,0,1,.5-1,2,2,0,0,1,.76-.61,2.46,2.46,0,0,1,1.05-.21,2.27,2.27,0,0,1,1.06.24,2.1,2.1,0,0,1,.77.65,3.16,3.16,0,0,1,.48,1A4.86,4.86,0,0,1,147.59,127.78Zm-1.09.12v-.12a4.13,4.13,0,0,0-.09-.89,2.33,2.33,0,0,0-.28-.74,1.46,1.46,0,0,0-.51-.51,1.55,1.55,0,0,0-.78-.18,1.62,1.62,0,0,0-.72.14,1.48,1.48,0,0,0-.51.38,2,2,0,0,0-.34.54,3.21,3.21,0,0,0-.2.62v1.41a3.33,3.33,0,0,0,.31.79,1.88,1.88,0,0,0,.57.62,1.61,1.61,0,0,0,.9.24,1.49,1.49,0,0,0,.75-.18,1.44,1.44,0,0,0,.51-.5,2.28,2.28,0,0,0,.29-.73A3.62,3.62,0,0,0,146.5,127.9Zm3.64-5.9v9H149v-9Zm2.91,2.66V131H152v-6.34ZM151.88,123a.64.64,0,0,1,.16-.45.62.62,0,0,1,.48-.18.58.58,0,0,1,.47.18.6.6,0,0,1,.17.45.57.57,0,0,1-.17.43.58.58,0,0,1-.47.18.62.62,0,0,1-.48-.18A.6.6,0,0,1,151.88,123Zm5.45,7.25a1.65,1.65,0,0,0,.71-.16,1.54,1.54,0,0,0,.54-.43,1.26,1.26,0,0,0,.24-.64h1a1.85,1.85,0,0,1-.38,1.05,2.64,2.64,0,0,1-2.14,1.07,2.88,2.88,0,0,1-1.25-.26,2.37,2.37,0,0,1-.88-.69,3.07,3.07,0,0,1-.52-1,4.44,4.44,0,0,1-.17-1.22v-.24a4.31,4.31,0,0,1,.17-1.21,3.12,3.12,0,0,1,.52-1,2.37,2.37,0,0,1,.88-.69,2.88,2.88,0,0,1,1.25-.26,2.58,2.58,0,0,1,1.3.31,2.33,2.33,0,0,1,1.22,2h-1a1.56,1.56,0,0,0-.22-.71,1.36,1.36,0,0,0-.51-.5,1.46,1.46,0,0,0-.76-.2,1.68,1.68,0,0,0-.84.2,1.5,1.5,0,0,0-.53.53,2.46,2.46,0,0,0-.28.73,3.74,3.74,0,0,0-.08.82V128a3.74,3.74,0,0,0,.08.82,2.26,2.26,0,0,0,.27.74,1.5,1.5,0,0,0,.54.52A1.63,1.63,0,0,0,157.33,130.23ZM37.84,138.66h1v6.2a2.84,2.84,0,0,1-.34,1.44,2.15,2.15,0,0,1-.95.89,2.94,2.94,0,0,1-1.39.31,3.32,3.32,0,0,1-.77-.1,3.24,3.24,0,0,1-.87-.35,2.2,2.2,0,0,1-.71-.65l.57-.64a2.16,2.16,0,0,0,.83.66,2.1,2.1,0,0,0,.87.19,1.91,1.91,0,0,0,.89-.19,1.35,1.35,0,0,0,.58-.58,1.84,1.84,0,0,0,.21-.92v-4.87Zm-4.37,3.24v-.12a4.48,4.48,0,0,1,.18-1.32,3.17,3.17,0,0,1,.49-1,2.28,2.28,0,0,1,1.84-.89,2.41,2.41,0,0,1,1,.21,2,2,0,0,1,.76.61,3,3,0,0,1,.5.95,6.24,6.24,0,0,1,.25,1.26v.54a5.64,5.64,0,0,1-.25,1.25,3,3,0,0,1-.5.95,2.11,2.11,0,0,1-.76.6,2.46,2.46,0,0,1-1.05.21,2.24,2.24,0,0,1-1-.24,2.4,2.4,0,0,1-.78-.68,3,3,0,0,1-.5-1A4.35,4.35,0,0,1,33.47,141.9Zm1.09-.12v.12a4.19,4.19,0,0,0,.09.89,2.54,2.54,0,0,0,.3.73,1.55,1.55,0,0,0,.52.5,1.53,1.53,0,0,0,.76.18,1.61,1.61,0,0,0,.89-.23,1.73,1.73,0,0,0,.56-.61,3.18,3.18,0,0,0,.32-.81v-1.41a2.25,2.25,0,0,0-.2-.62,2,2,0,0,0-.33-.54,1.48,1.48,0,0,0-.51-.38,1.65,1.65,0,0,0-.72-.14,1.57,1.57,0,0,0-.77.18,1.58,1.58,0,0,0-.52.51,2.61,2.61,0,0,0-.3.74A4.13,4.13,0,0,0,34.56,141.78Zm7-2.12V145H40.47v-6.34h1.06Zm2-1v1l-.26,0H43a1.9,1.9,0,0,0-.66.11,1.51,1.51,0,0,0-.49.33,1.45,1.45,0,0,0-.31.51,2.08,2.08,0,0,0-.15.63l-.3.17a4.57,4.57,0,0,1,.11-1.07,3.12,3.12,0,0,1,.35-.89,1.78,1.78,0,0,1,.61-.61,1.71,1.71,0,0,1,.89-.23l.27,0A.68.68,0,0,1,43.53,138.63Zm2.19,0V145h-1.1v-6.34ZM44.54,137a.69.69,0,0,1,.16-.45.73.73,0,0,1,1,0,.64.64,0,0,1,.17.45.67.67,0,0,1-1.13.43A.65.65,0,0,1,44.54,137Zm5.55,8.14a3.06,3.06,0,0,1-1.2-.23,2.6,2.6,0,0,1-.92-.63,2.85,2.85,0,0,1-.59-1,3.45,3.45,0,0,1-.21-1.23v-.24a3.91,3.91,0,0,1,.23-1.38,3,3,0,0,1,.62-1,2.62,2.62,0,0,1,.89-.64,2.52,2.52,0,0,1,1-.22,2.66,2.66,0,0,1,1.17.24,2.07,2.07,0,0,1,.81.65,2.84,2.84,0,0,1,.47,1,4.71,4.71,0,0,1,.15,1.23v.49H47.82v-.89h3.65v-.08a2.57,2.57,0,0,0-.18-.82,1.37,1.37,0,0,0-.47-.66,1.35,1.35,0,0,0-.87-.26,1.51,1.51,0,0,0-.68.16,1.48,1.48,0,0,0-.54.46,2.2,2.2,0,0,0-.34.74,3.51,3.51,0,0,0-.13,1v.24a2.61,2.61,0,0,0,.13.85,2.09,2.09,0,0,0,.37.69,1.68,1.68,0,0,0,.59.47,1.71,1.71,0,0,0,.8.17,2,2,0,0,0,1-.23,2.57,2.57,0,0,0,.69-.63l.66.52a2.86,2.86,0,0,1-.52.59,2.48,2.48,0,0,1-.78.46A3,3,0,0,1,50.09,145.12Zm5.57-1.1,1.74-5.36h1.11L56.23,145H55.5Zm-1.44-5.36L56,144.05l.13.95H55.4l-2.3-6.34Zm9,5.26v-3.27A1.36,1.36,0,0,0,63,140a1,1,0,0,0-.44-.43,1.65,1.65,0,0,0-.74-.15,1.6,1.6,0,0,0-.72.14,1.07,1.07,0,0,0-.48.37.75.75,0,0,0-.17.49H59.4a1.44,1.44,0,0,1,.18-.68,2,2,0,0,1,.5-.6,2.45,2.45,0,0,1,.8-.43,3.11,3.11,0,0,1,1-.17,2.92,2.92,0,0,1,1.22.24,1.75,1.75,0,0,1,.83.71,2,2,0,0,1,.31,1.17v3a4,4,0,0,0,0,.67,3.07,3.07,0,0,0,.17.62V145H63.37a1.71,1.71,0,0,1-.13-.5A4.13,4.13,0,0,1,63.19,143.92Zm.19-2.76v.76H62.3a4.15,4.15,0,0,0-.83.07,2,2,0,0,0-.61.22,1,1,0,0,0-.37.37.94.94,0,0,0-.13.51,1.14,1.14,0,0,0,.13.55,1,1,0,0,0,.41.39,1.48,1.48,0,0,0,.67.14,1.79,1.79,0,0,0,.88-.21,1.91,1.91,0,0,0,.6-.52,1,1,0,0,0,.25-.59l.46.52a1.62,1.62,0,0,1-.22.55,2.53,2.53,0,0,1-.49.57,2.69,2.69,0,0,1-.71.45,2.3,2.3,0,0,1-.93.18,2.39,2.39,0,0,1-1.13-.26,1.88,1.88,0,0,1-.75-.67,1.72,1.72,0,0,1-.26-.95,1.87,1.87,0,0,1,.2-.9,1.69,1.69,0,0,1,.57-.65,2.65,2.65,0,0,1,.9-.4,4.79,4.79,0,0,1,1.18-.13ZM67.07,140v5H66v-6.34h1Zm-.26,1.58-.45,0a3.87,3.87,0,0,1,.19-1.2,3.13,3.13,0,0,1,.53-1,2.28,2.28,0,0,1,.81-.63,2.38,2.38,0,0,1,1-.23,2.74,2.74,0,0,1,.84.13,1.58,1.58,0,0,1,.64.4,1.79,1.79,0,0,1,.41.72,3.54,3.54,0,0,1,.14,1.06V145H69.88v-4.17a1.76,1.76,0,0,0-.15-.79.84.84,0,0,0-.43-.44,1.41,1.41,0,0,0-.69-.14,1.48,1.48,0,0,0-.73.17,1.71,1.71,0,0,0-.57.47,2.23,2.23,0,0,0-.37.68A2.41,2.41,0,0,0,66.81,141.59Zm8.34,2.64a1.73,1.73,0,0,0,.72-.16,1.54,1.54,0,0,0,.54-.43,1.26,1.26,0,0,0,.24-.64h1a2,2,0,0,1-.38,1.05,2.68,2.68,0,0,1-2.15,1.07,2.91,2.91,0,0,1-1.25-.26,2.27,2.27,0,0,1-.87-.69,2.91,2.91,0,0,1-.53-1,4.44,4.44,0,0,1-.17-1.22v-.24a4.31,4.31,0,0,1,.17-1.21,3,3,0,0,1,.53-1,2.27,2.27,0,0,1,.87-.69,2.91,2.91,0,0,1,1.25-.26,2.58,2.58,0,0,1,1.3.31,2.31,2.31,0,0,1,.88.82,2.4,2.4,0,0,1,.35,1.17h-1a1.57,1.57,0,0,0-.23-.71,1.29,1.29,0,0,0-.51-.5,1.46,1.46,0,0,0-.76-.2,1.68,1.68,0,0,0-.84.2,1.5,1.5,0,0,0-.53.53,2.46,2.46,0,0,0-.28.73,4.47,4.47,0,0,0-.08.82V142a4.47,4.47,0,0,0,.08.82,2.27,2.27,0,0,0,.28.74,1.47,1.47,0,0,0,.53.52A1.66,1.66,0,0,0,75.15,144.23Zm6.38.89a3.09,3.09,0,0,1-1.2-.23,2.6,2.6,0,0,1-.92-.63,2.85,2.85,0,0,1-.59-1,3.45,3.45,0,0,1-.21-1.23v-.24a3.91,3.91,0,0,1,.23-1.38,3,3,0,0,1,.63-1,2.58,2.58,0,0,1,.88-.64,2.52,2.52,0,0,1,1-.22,2.66,2.66,0,0,1,1.17.24,2.07,2.07,0,0,1,.81.65,2.84,2.84,0,0,1,.47,1,4.71,4.71,0,0,1,.15,1.23v.49H79.26v-.89h3.65v-.08a2.32,2.32,0,0,0-.18-.82,1.42,1.42,0,0,0-.46-.66,1.4,1.4,0,0,0-.88-.26,1.51,1.51,0,0,0-.68.16,1.48,1.48,0,0,0-.54.46,2.41,2.41,0,0,0-.34.74,3.91,3.91,0,0,0-.12,1v.24a2.91,2.91,0,0,0,.12.85,2.09,2.09,0,0,0,.37.69,1.68,1.68,0,0,0,.59.47,1.71,1.71,0,0,0,.8.17,2,2,0,0,0,1-.23,2.6,2.6,0,0,0,.7-.63l.65.52a2.59,2.59,0,0,1-.52.59,2.48,2.48,0,0,1-.78.46A2.91,2.91,0,0,1,81.53,145.12Zm8.28-4.85,1.28-.91a2.43,2.43,0,0,0,.57-.51,1.12,1.12,0,0,0,.2-.7.9.9,0,0,0-.27-.63,1,1,0,0,0-.76-.28,1,1,0,0,0-.57.15.92.92,0,0,0-.35.43,1.32,1.32,0,0,0-.12.57,1.25,1.25,0,0,0,.13.54,2.75,2.75,0,0,0,.36.59c.15.2.32.41.52.64l4,4.84h-1.3l-3.31-4-.78-.94a5.22,5.22,0,0,1-.55-.84,1.91,1.91,0,0,1-.19-.84A2.26,2.26,0,0,1,89,137.3a1.77,1.77,0,0,1,.75-.71,2.51,2.51,0,0,1,1.13-.24,2.3,2.3,0,0,1,1.08.25,1.86,1.86,0,0,1,.7.66,1.72,1.72,0,0,1,.24.89,1.78,1.78,0,0,1-.14.74,2.32,2.32,0,0,1-.41.59,4.53,4.53,0,0,1-.6.53L90,141.27a2.66,2.66,0,0,0-.61.59,1.45,1.45,0,0,0-.25.5,1.35,1.35,0,0,0-.06.34,1.61,1.61,0,0,0,.18.76,1.41,1.41,0,0,0,.55.56,1.92,1.92,0,0,0,.94.21,2.19,2.19,0,0,0,1-.23,2.54,2.54,0,0,0,.83-.64,3.11,3.11,0,0,0,.59-1,3.58,3.58,0,0,0,.22-1.3h1a4.88,4.88,0,0,1-.12,1.1,3.91,3.91,0,0,1-.34,1,3.24,3.24,0,0,1-.59.8.57.57,0,0,0-.08.13l-.08.12a2.83,2.83,0,0,1-1.09.71,3.58,3.58,0,0,1-1.28.24,3.38,3.38,0,0,1-1.47-.31A2.26,2.26,0,0,1,88,142.7a1.86,1.86,0,0,1,.23-.95,2.79,2.79,0,0,1,.64-.76A9.41,9.41,0,0,1,89.81,140.27Zm10-.61V145H98.68v-6.34h1Zm2-1v1l-.26,0h-.27a1.9,1.9,0,0,0-.66.11,1.32,1.32,0,0,0-.49.33,1.64,1.64,0,0,0-.32.51,2.42,2.42,0,0,0-.14.63l-.31.17a5.17,5.17,0,0,1,.11-1.07,2.86,2.86,0,0,1,.36-.89,1.62,1.62,0,0,1,.61-.61,1.71,1.71,0,0,1,.89-.23l.27,0Zm3.52,6.49a3.09,3.09,0,0,1-1.2-.23,2.69,2.69,0,0,1-.92-.63,2.85,2.85,0,0,1-.59-1,3.45,3.45,0,0,1-.2-1.23v-.24a3.92,3.92,0,0,1,.22-1.38,3,3,0,0,1,.63-1,2.53,2.53,0,0,1,.89-.64,2.45,2.45,0,0,1,1-.22,2.66,2.66,0,0,1,1.17.24,2.07,2.07,0,0,1,.81.65,2.84,2.84,0,0,1,.47,1,4.71,4.71,0,0,1,.15,1.23v.49H103v-.89h3.65v-.08a2.85,2.85,0,0,0-.17-.82,1.51,1.51,0,0,0-.47-.66,1.4,1.4,0,0,0-.88-.26,1.55,1.55,0,0,0-.68.16,1.48,1.48,0,0,0-.54.46,2.41,2.41,0,0,0-.34.74,3.91,3.91,0,0,0-.12,1v.24a2.91,2.91,0,0,0,.12.85,2.29,2.29,0,0,0,.37.69,1.68,1.68,0,0,0,.59.47,1.71,1.71,0,0,0,.8.17,2,2,0,0,0,1-.23,2.6,2.6,0,0,0,.7-.63l.65.52a2.59,2.59,0,0,1-.52.59,2.48,2.48,0,0,1-.78.46A2.91,2.91,0,0,1,105.26,145.12Zm7.73-1.35V136h1.09v9h-1Zm-4.27-1.87v-.12a4.48,4.48,0,0,1,.18-1.32,3.2,3.2,0,0,1,.51-1,2.24,2.24,0,0,1,.79-.65,2.2,2.2,0,0,1,1-.24,2.41,2.41,0,0,1,1,.21,2,2,0,0,1,.76.61,3,3,0,0,1,.5.95,5.62,5.62,0,0,1,.25,1.26v.54a5.13,5.13,0,0,1-.25,1.25,3,3,0,0,1-.5.95,2,2,0,0,1-.76.6,2.46,2.46,0,0,1-1,.21,2.19,2.19,0,0,1-1-.24,2.33,2.33,0,0,1-.79-.68,3.25,3.25,0,0,1-.51-1A4.35,4.35,0,0,1,108.72,141.9Zm1.09-.12v.12a4.19,4.19,0,0,0,.09.89,2.3,2.3,0,0,0,.31.73,1.55,1.55,0,0,0,.52.5,1.5,1.5,0,0,0,.76.18,1.57,1.57,0,0,0,.88-.23,1.73,1.73,0,0,0,.56-.61,3.62,3.62,0,0,0,.33-.81v-1.41a2.64,2.64,0,0,0-.2-.62,2,2,0,0,0-.34-.54,1.48,1.48,0,0,0-.51-.38,1.52,1.52,0,0,0-2,.55,2.36,2.36,0,0,0-.31.74A4.13,4.13,0,0,0,109.81,141.78Zm7-2.12V145h-1.09v-6.34h1.06Zm2-1v1a1.15,1.15,0,0,0-.26,0h-.27a1.9,1.9,0,0,0-.66.11,1.37,1.37,0,0,0-.48.33,1.48,1.48,0,0,0-.32.51,2.91,2.91,0,0,0-.15.63l-.3.17a5.17,5.17,0,0,1,.11-1.07,2.86,2.86,0,0,1,.36-.89,1.62,1.62,0,0,1,.61-.61,1.68,1.68,0,0,1,.89-.23l.27,0Zm3.51,6.49a3.09,3.09,0,0,1-1.2-.23,2.79,2.79,0,0,1-.92-.63,2.83,2.83,0,0,1-.58-1,3.45,3.45,0,0,1-.21-1.23v-.24a3.91,3.91,0,0,1,.23-1.38,3,3,0,0,1,.62-1,2.62,2.62,0,0,1,.89-.64,2.48,2.48,0,0,1,1-.22,2.67,2.67,0,0,1,1.18.24,2.07,2.07,0,0,1,.81.65,2.84,2.84,0,0,1,.47,1,4.71,4.71,0,0,1,.15,1.23v.49h-4.73v-.89h3.65v-.08a2.87,2.87,0,0,0-.18-.82,1.43,1.43,0,0,0-.47-.66,1.38,1.38,0,0,0-.88-.26,1.58,1.58,0,0,0-.68.16,1.53,1.53,0,0,0-.53.46,2.2,2.2,0,0,0-.34.74,3.51,3.51,0,0,0-.13,1v.24a2.61,2.61,0,0,0,.13.85,2.06,2.06,0,0,0,.36.69,1.89,1.89,0,0,0,.59.47,1.74,1.74,0,0,0,.8.17,2,2,0,0,0,1-.23,2.57,2.57,0,0,0,.69-.63l.66.52a2.86,2.86,0,0,1-.52.59,2.48,2.48,0,0,1-.78.46A3,3,0,0,1,122.34,145.12Zm7.43-1.8a.89.89,0,0,0-.11-.43.84.84,0,0,0-.41-.37,3.14,3.14,0,0,0-.94-.3,7.38,7.38,0,0,1-1-.26,3,3,0,0,1-.72-.37,1.67,1.67,0,0,1-.45-.51,1.46,1.46,0,0,1-.16-.69,1.54,1.54,0,0,1,.17-.7,1.92,1.92,0,0,1,.47-.6,2.44,2.44,0,0,1,.75-.4,2.93,2.93,0,0,1,1-.15,2.87,2.87,0,0,1,1.3.27,2,2,0,0,1,.83.72,1.82,1.82,0,0,1,.29,1H129.7a.93.93,0,0,0-.16-.51,1.2,1.2,0,0,0-.45-.41,1.42,1.42,0,0,0-.72-.17,1.69,1.69,0,0,0-.73.14.93.93,0,0,0-.4.35.8.8,0,0,0-.13.44.79.79,0,0,0,.06.32.68.68,0,0,0,.23.25,1.39,1.39,0,0,0,.44.21,5.26,5.26,0,0,0,.73.2,5.61,5.61,0,0,1,1.28.43,1.78,1.78,0,0,1,.75.6,1.46,1.46,0,0,1,.25.87,1.76,1.76,0,0,1-.17.76,1.79,1.79,0,0,1-.5.6,2.47,2.47,0,0,1-.78.38,3.4,3.4,0,0,1-1,.14,3.07,3.07,0,0,1-1.42-.3,2.3,2.3,0,0,1-.88-.77,2,2,0,0,1-.29-1h1.09a1.1,1.1,0,0,0,.25.71,1.32,1.32,0,0,0,.58.37,2.29,2.29,0,0,0,.67.11,2,2,0,0,0,.75-.12,1.15,1.15,0,0,0,.46-.32A.74.74,0,0,0,129.77,143.32Zm6.2,0a.86.86,0,0,0-.52-.8,3.14,3.14,0,0,0-.94-.3,7.38,7.38,0,0,1-1-.26,3,3,0,0,1-.72-.37,1.67,1.67,0,0,1-.45-.51,1.46,1.46,0,0,1-.16-.69,1.54,1.54,0,0,1,.17-.7,1.92,1.92,0,0,1,.47-.6,2.5,2.5,0,0,1,.74-.4,3,3,0,0,1,1-.15,2.87,2.87,0,0,1,1.3.27,2,2,0,0,1,.83.72,1.82,1.82,0,0,1,.29,1H135.9a.93.93,0,0,0-.16-.51,1.2,1.2,0,0,0-.45-.41,1.42,1.42,0,0,0-.72-.17,1.69,1.69,0,0,0-.73.14.93.93,0,0,0-.4.35.8.8,0,0,0-.13.44.79.79,0,0,0,.06.32.64.64,0,0,0,.22.25,1.58,1.58,0,0,0,.45.21,4.89,4.89,0,0,0,.73.2,5.61,5.61,0,0,1,1.28.43,1.78,1.78,0,0,1,.75.6,1.46,1.46,0,0,1,.25.87,1.76,1.76,0,0,1-.17.76,1.79,1.79,0,0,1-.5.6,2.58,2.58,0,0,1-.78.38,3.4,3.4,0,0,1-1,.14,3.07,3.07,0,0,1-1.42-.3,2.3,2.3,0,0,1-.88-.77,1.87,1.87,0,0,1-.29-1h1.09a1.1,1.1,0,0,0,.25.71,1.32,1.32,0,0,0,.58.37,2.24,2.24,0,0,0,.67.11,2,2,0,0,0,.75-.12,1.15,1.15,0,0,0,.46-.32A.81.81,0,0,0,136,143.32Zm6.24.6v-3.27a1.36,1.36,0,0,0-.15-.65,1,1,0,0,0-.45-.43,1.58,1.58,0,0,0-.73-.15,1.6,1.6,0,0,0-.72.14,1.07,1.07,0,0,0-.48.37.75.75,0,0,0-.17.49h-1.09a1.44,1.44,0,0,1,.18-.68,2,2,0,0,1,.5-.6,2.45,2.45,0,0,1,.8-.43,3.11,3.11,0,0,1,1-.17,2.92,2.92,0,0,1,1.22.24,1.75,1.75,0,0,1,.83.71,2,2,0,0,1,.31,1.17v3a4,4,0,0,0,0,.67,3.07,3.07,0,0,0,.17.62V145h-1.13a1.71,1.71,0,0,1-.13-.5A4.13,4.13,0,0,1,142.21,143.92Zm.19-2.76v.76h-1.09a4.15,4.15,0,0,0-.83.07,1.9,1.9,0,0,0-.61.22,1,1,0,0,0-.37.37.94.94,0,0,0-.13.51,1.14,1.14,0,0,0,.13.55,1,1,0,0,0,.41.39,1.48,1.48,0,0,0,.67.14,1.79,1.79,0,0,0,.88-.21,1.91,1.91,0,0,0,.6-.52,1.11,1.11,0,0,0,.25-.59l.46.52a1.62,1.62,0,0,1-.22.55,2.7,2.7,0,0,1-1.2,1,2.3,2.3,0,0,1-.93.18,2.39,2.39,0,0,1-1.13-.26,1.88,1.88,0,0,1-.75-.67,1.81,1.81,0,0,1-.26-.95,1.87,1.87,0,0,1,.2-.9,1.69,1.69,0,0,1,.57-.65,2.65,2.65,0,0,1,.9-.4,4.79,4.79,0,0,1,1.18-.13Zm3.78-5.16v9h-1.09v-9ZM75.07,157.32a1,1,0,0,0-.1-.43.92.92,0,0,0-.42-.37,3.14,3.14,0,0,0-.94-.3,6.81,6.81,0,0,1-1-.26,3,3,0,0,1-.72-.37,1.59,1.59,0,0,1-.46-.51,1.47,1.47,0,0,1-.15-.69,1.53,1.53,0,0,1,.16-.7,1.82,1.82,0,0,1,.48-.6,2.28,2.28,0,0,1,.74-.4,3,3,0,0,1,1-.15,2.9,2.9,0,0,1,1.3.27,2,2,0,0,1,.82.72,1.82,1.82,0,0,1,.29,1H75a1,1,0,0,0-.16-.51,1.2,1.2,0,0,0-.45-.41,1.47,1.47,0,0,0-.72-.17,1.74,1.74,0,0,0-.74.14.93.93,0,0,0-.4.35.88.88,0,0,0-.12.44,1,1,0,0,0,0,.32.68.68,0,0,0,.23.25,1.39,1.39,0,0,0,.44.21,5.06,5.06,0,0,0,.74.2,5.78,5.78,0,0,1,1.28.43,1.92,1.92,0,0,1,.75.6,1.53,1.53,0,0,1,.24.87A1.63,1.63,0,0,1,76,158a1.79,1.79,0,0,1-.5.6,2.41,2.41,0,0,1-.77.38,3.45,3.45,0,0,1-1,.14,3,3,0,0,1-1.42-.3,2.23,2.23,0,0,1-.88-.77,1.88,1.88,0,0,1-.3-1H72.2a1.11,1.11,0,0,0,.26.71,1.23,1.23,0,0,0,.57.37,2.3,2.3,0,0,0,.68.11,2,2,0,0,0,.74-.12,1.08,1.08,0,0,0,.46-.32A.74.74,0,0,0,75.07,157.32Zm4.29,1,1.76-5.68h1.16L79.74,160a5.34,5.34,0,0,1-.23.5,2.35,2.35,0,0,1-.37.52,1.65,1.65,0,0,1-.54.4,1.53,1.53,0,0,1-.74.16,1.47,1.47,0,0,1-.33,0l-.28-.05v-.88h.3a1.65,1.65,0,0,0,.62-.1.93.93,0,0,0,.44-.32,2,2,0,0,0,.31-.62Zm-1.3-5.68,1.65,4.92.28,1.15-.78.39-2.33-6.46ZM87,157.32a.88.88,0,0,0-.1-.43.92.92,0,0,0-.42-.37,3.14,3.14,0,0,0-.94-.3,6.81,6.81,0,0,1-.95-.26,3,3,0,0,1-.72-.37,1.45,1.45,0,0,1-.45-.51,1.35,1.35,0,0,1-.16-.69,1.53,1.53,0,0,1,.16-.7,2.12,2.12,0,0,1,.48-.6,2.28,2.28,0,0,1,.74-.4,3,3,0,0,1,1-.15,2.87,2.87,0,0,1,1.3.27,2.09,2.09,0,0,1,.83.72,1.81,1.81,0,0,1,.28,1H86.89a.93.93,0,0,0-.16-.51,1.2,1.2,0,0,0-.45-.41,1.47,1.47,0,0,0-.72-.17,1.66,1.66,0,0,0-.73.14,1,1,0,0,0-.41.35.88.88,0,0,0-.12.44.79.79,0,0,0,.06.32.57.57,0,0,0,.22.25,1.46,1.46,0,0,0,.45.21,4.89,4.89,0,0,0,.73.2,5.61,5.61,0,0,1,1.28.43,1.78,1.78,0,0,1,.75.6,1.46,1.46,0,0,1,.25.87,1.64,1.64,0,0,1-.18.76,1.68,1.68,0,0,1-.5.6,2.41,2.41,0,0,1-.77.38,3.45,3.45,0,0,1-1,.14,3.07,3.07,0,0,1-1.42-.3,2.23,2.23,0,0,1-.88-.77,1.88,1.88,0,0,1-.3-1h1.09a1.11,1.11,0,0,0,.26.71,1.34,1.34,0,0,0,.57.37,2.3,2.3,0,0,0,.68.11,2,2,0,0,0,.74-.12,1.08,1.08,0,0,0,.46-.32A.74.74,0,0,0,87,157.32Zm5.16-4.66v.83H88.69v-.83Zm-2.26-1.54h1.08v6.31a1.06,1.06,0,0,0,.1.49.48.48,0,0,0,.26.21,1,1,0,0,0,.34.06l.28,0,.23,0V159l-.35.08a3.23,3.23,0,0,1-.49,0,1.82,1.82,0,0,1-.74-.16,1.18,1.18,0,0,1-.53-.53,2.19,2.19,0,0,1-.19-1Zm6.17,8a3.09,3.09,0,0,1-1.2-.23,2.6,2.6,0,0,1-.92-.63,2.85,2.85,0,0,1-.59-1,3.45,3.45,0,0,1-.21-1.23v-.24a3.91,3.91,0,0,1,.23-1.38,3,3,0,0,1,.63-1,2.53,2.53,0,0,1,.89-.64,2.45,2.45,0,0,1,1-.22,2.66,2.66,0,0,1,1.17.24,2.07,2.07,0,0,1,.81.65,2.84,2.84,0,0,1,.47,1,4.71,4.71,0,0,1,.15,1.23v.49H93.75v-.89H97.4v-.08a2.32,2.32,0,0,0-.18-.82,1.42,1.42,0,0,0-.46-.66,1.4,1.4,0,0,0-.88-.26,1.51,1.51,0,0,0-.68.16,1.48,1.48,0,0,0-.54.46,2.41,2.41,0,0,0-.34.74,3.91,3.91,0,0,0-.12,1v.24a2.91,2.91,0,0,0,.12.85,2.09,2.09,0,0,0,.37.69,1.68,1.68,0,0,0,.59.47,1.71,1.71,0,0,0,.8.17,2,2,0,0,0,1-.23,2.6,2.6,0,0,0,.7-.63l.65.52a2.59,2.59,0,0,1-.52.59,2.48,2.48,0,0,1-.78.46A2.91,2.91,0,0,1,96,159.12Zm4.81-5.2V159H99.74v-6.34h1Zm-.23,1.67-.5,0a4.19,4.19,0,0,1,.17-1.2,2.86,2.86,0,0,1,.49-1,2.16,2.16,0,0,1,.8-.63,2.59,2.59,0,0,1,1.11-.23,2.66,2.66,0,0,1,.82.13,1.83,1.83,0,0,1,.66.39,1.87,1.87,0,0,1,.42.7,3,3,0,0,1,.15,1V159h-1.08v-4.17a1.67,1.67,0,0,0-.17-.8.94.94,0,0,0-.47-.43,1.58,1.58,0,0,0-.71-.14,1.67,1.67,0,0,0-.81.17,1.35,1.35,0,0,0-.51.47,2.07,2.07,0,0,0-.28.68A3.53,3.53,0,0,0,100.6,155.59Zm4.11-.6-.72.22a3.09,3.09,0,0,1,.17-1,2.64,2.64,0,0,1,.48-.85,2.31,2.31,0,0,1,.79-.59,2.48,2.48,0,0,1,1.08-.23,2.74,2.74,0,0,1,.9.14,1.63,1.63,0,0,1,1.08,1.12,3.21,3.21,0,0,1,.14,1V159h-1.09v-4.18a1.57,1.57,0,0,0-.17-.82.88.88,0,0,0-.47-.42,1.85,1.85,0,0,0-.71-.12,1.54,1.54,0,0,0-.63.12,1.24,1.24,0,0,0-.47.34,1.39,1.39,0,0,0-.28.49A1.61,1.61,0,0,0,104.71,155Z"></path><path class="cls-4" d="M83.55,93.75V95h-5V93.92l2.32-3c.23-.33.41-.61.55-.85a3.74,3.74,0,0,0,.28-.65,2.23,2.23,0,0,0,.08-.56,2,2,0,0,0-.1-.67,1,1,0,0,0-.29-.45.68.68,0,0,0-.46-.16.8.8,0,0,0-.57.19,1.25,1.25,0,0,0-.34.53,2.68,2.68,0,0,0-.1.78H78.45a3.18,3.18,0,0,1,.3-1.39A2.35,2.35,0,0,1,81,86.35a2.56,2.56,0,0,1,1.29.29,2,2,0,0,1,.79.82,2.81,2.81,0,0,1,.27,1.28,3.22,3.22,0,0,1-.11.81,4.61,4.61,0,0,1-.31.79,6.3,6.3,0,0,1-.49.79,8.76,8.76,0,0,1-.64.82l-1.28,1.8ZM89.48,90v1.44a6.8,6.8,0,0,1-.18,1.68,3.15,3.15,0,0,1-.5,1.14,2,2,0,0,1-.76.65,2.24,2.24,0,0,1-1,.21,2.58,2.58,0,0,1-.8-.13,2.06,2.06,0,0,1-.68-.41,2.67,2.67,0,0,1-.52-.72,4.3,4.3,0,0,1-.33-1,8.08,8.08,0,0,1-.11-1.39V90a6.72,6.72,0,0,1,.18-1.67,3.29,3.29,0,0,1,.5-1.13,1.87,1.87,0,0,1,.77-.64,2.24,2.24,0,0,1,1-.21,2.32,2.32,0,0,1,.8.13,1.79,1.79,0,0,1,.67.41,2.13,2.13,0,0,1,.52.7,4.16,4.16,0,0,1,.33,1A8,8,0,0,1,89.48,90ZM88,91.65V89.77a7,7,0,0,0,0-.84,3.65,3.65,0,0,0-.12-.61,1.3,1.3,0,0,0-.19-.41.7.7,0,0,0-.26-.23.68.68,0,0,0-.32-.07.63.63,0,0,0-.38.11,1,1,0,0,0-.3.37,2.38,2.38,0,0,0-.18.67,5.92,5.92,0,0,0-.07,1v1.88c0,.33,0,.61,0,.86a4,4,0,0,0,.12.62,1.64,1.64,0,0,0,.2.42.65.65,0,0,0,.58.31.77.77,0,0,0,.39-.11,1,1,0,0,0,.29-.39,2.1,2.1,0,0,0,.17-.67A6.22,6.22,0,0,0,88,91.65Zm6.19-5.2V95h-1.5V88.31L91,89V87.69l3-1.24ZM101.55,90v1.44a6.8,6.8,0,0,1-.18,1.68,3.33,3.33,0,0,1-.49,1.14,2.07,2.07,0,0,1-.77.65,2.24,2.24,0,0,1-1,.21,2.58,2.58,0,0,1-.8-.13,2.06,2.06,0,0,1-.68-.41,2.67,2.67,0,0,1-.52-.72,4.3,4.3,0,0,1-.33-1,8.08,8.08,0,0,1-.11-1.39V90a6.72,6.72,0,0,1,.18-1.67,3.29,3.29,0,0,1,.5-1.13,1.87,1.87,0,0,1,.77-.64,2.27,2.27,0,0,1,1-.21,2.37,2.37,0,0,1,.81.13,1.75,1.75,0,0,1,.66.41,2.13,2.13,0,0,1,.52.7,4.16,4.16,0,0,1,.33,1A8,8,0,0,1,101.55,90Zm-1.5,1.65V89.77c0-.32,0-.6,0-.84a3.65,3.65,0,0,0-.12-.61,1.3,1.3,0,0,0-.19-.41.7.7,0,0,0-.26-.23.68.68,0,0,0-.32-.07.63.63,0,0,0-.38.11,1,1,0,0,0-.3.37,2.38,2.38,0,0,0-.18.67,5.92,5.92,0,0,0-.07,1v1.88c0,.33,0,.61,0,.86a4,4,0,0,0,.12.62,1.64,1.64,0,0,0,.2.42.65.65,0,0,0,.58.31.77.77,0,0,0,.39-.11,1,1,0,0,0,.29-.39,2.1,2.1,0,0,0,.17-.67A6.22,6.22,0,0,0,100.05,91.65Z"></path></g></svg>