<svg xmlns="http://www.w3.org/2000/svg" id="Layer_1" data-name="Layer 1" viewBox="0 0 177 166"><defs><style>.cls-1{fill:#61686d;}.cls-2{fill:#fff;}</style></defs><path class="cls-1" d="M139.67,69.51c-2.58,1.8-3,3.76-3.07,4.31-.41.25-.79.46-1.14.65.55-.91,1.06-1.84,1.54-2.79a43.29,43.29,0,0,0,2.06-5c.06-.19.12-.38.19-.57a13.54,13.54,0,0,1,2-3.91l.18-.24c7.24-4,3.92-12,3.92-12,.11,1.79-1.62,3.15-3.39,6.4-1.51,2.77-1,4.71-.82,5.23-.37.57-.71,1.07-1,1.49.12-.52.23-1,.32-1.56a37,37,0,0,0,.63-5.35l0-.67c0-.22,0-.45,0-.68V53.44c0-.44,0-.89-.05-1.34,0-.22,0-.44,0-.66l-.06-.67a4.56,4.56,0,0,1,.07-1.33l.52-2.56c5.28-6.35-.78-12.64-.78-12.64.76,1.62-.35,3.52-.8,7.2-.38,3.12.8,4.75,1.16,5.16-.15.74-.3,1.39-.44,1.92l0-.42c-.05-.44-.15-.88-.24-1.32l-.12-.66c0-.22-.09-.44-.14-.65-.22-.87-.41-1.74-.69-2.59l-.19-.64-.1-.32-.11-.31-.45-1.26c-.29-.73-.59-1.46-.91-2.17a11.71,11.71,0,0,1-1-4.07c0-.33,0-.65-.07-1,2.84-7.76-5-11.65-5-11.65,1.25,1.27.85,3.43,1.66,7,.69,3.08,2.35,4.21,2.83,4.48.16,1,.24,1.93.28,2.55l0-.07-.32-.59c-.11-.2-.23-.39-.34-.58L135,33.19l-.75-1.1c-.12-.19-.24-.37-.37-.55l-.4-.54c-.41-.57-.84-1.12-1.29-1.66-.62-.79-1.48-1.94-2.22-2.76a5.7,5.7,0,0,1-.89-1.29c-3.25-6.86-11.19-4.93-11.19-4.93,1.78.11,2.92,2,5.93,4.15A6.62,6.62,0,0,0,128.75,26l.27.08.91,1a38.36,38.36,0,0,1,3.32,4.12l.38.55c.13.18.24.36.36.55l.71,1.12.29.53a21.42,21.42,0,0,0-2.37-1.77c-4.29-7.06-12.22-3.37-12.22-3.37,1.78-.19,3.22,1.47,6.55,3.09,2.83,1.38,4.75.79,5.26.58,1.13.67,2.08,1.32,2.62,1.71a2.61,2.61,0,0,1,.83,1h0l.3.59A37.65,37.65,0,0,1,138,40.53l.41,1.25.1.31.09.32.18.63c.25.84.42,1.7.61,2.56,0,.21.09.43.12.65h0A22.66,22.66,0,0,0,137.88,44c-2-8-10.69-6.8-10.69-6.8,1.76.34,2.65,2.34,5.36,4.87,2.31,2.14,4.31,2.14,4.86,2.1.61.67,1.13,1.27,1.5,1.75a4.18,4.18,0,0,1,.94,2.25v0l.15,1.3,0,.33,0,.33,0,.65,0,.65c0,.22,0,.44,0,.66,0,.43,0,.87,0,1.31l0,1.31q0,.33,0,.66l-.05.65c-.07.94-.18,1.89-.31,2.82a22.7,22.7,0,0,0-.65-2.24c1-8.2-7.56-10.17-7.56-10.17,1.52.95,1.63,3.14,3.26,6.46,1.39,2.84,3.27,3.55,3.8,3.7.2.51.37,1,.52,1.4a5.78,5.78,0,0,1,.2,3.19s0,0,0,0a36.41,36.41,0,0,1-1.44,5A39.74,39.74,0,0,1,135.77,71c-.23.45-.48.89-.74,1.33a21.13,21.13,0,0,0,.26-2.67c3.9-7.28-3.3-12.23-3.3-12.23,1.07,1.44.36,3.52.66,7.22.25,3.14,1.74,4.49,2.18,4.82v.35a9.9,9.9,0,0,1-1.78,5.59s0,0,0,0a37.17,37.17,0,0,1-3.31,4c-.3.31-.59.64-.91.94l-.94.89,0,0c.29-.51.55-1,.78-1.51,6.42-5.2,1.69-12.55,1.69-12.55.43,1.74-1,3.38-2.18,6.9-1,3-.14,4.82.13,5.29-.19.45-.37.87-.54,1.24A6.45,6.45,0,0,1,125.91,83h0a35.48,35.48,0,0,1-4.25,3c-.87.52-1.75,1-2.65,1.44.37-.39.72-.78,1-1.17,6.14-2.83,3.88-9.63,3.88-9.63,0,1.47-1.49,2.48-3.12,5.05a5.32,5.32,0,0,0-1,4.22c-.2.27-.39.52-.57.74A5.65,5.65,0,0,1,117,88.27h0A40.21,40.21,0,0,1,112.15,90h0a1.08,1.08,0,0,0-.79,1,1.1,1.1,0,0,0,1.41,1.1,42.48,42.48,0,0,0,5.11-1.92,40.79,40.79,0,0,0,4.78-2.59c.93-.57,1.82-1.2,2.69-1.86a7.82,7.82,0,0,1,4.07-1.56c7.7,3,11.72-4.8,11.72-4.8-1.29,1.24-3.45.81-7.07,1.56-3.09.64-4.24,2.28-4.52,2.76-.74.09-1.4.16-1.94.19.49-.43,1-.88,1.45-1.33l.95-1c.32-.32.61-.67.92-1a39.13,39.13,0,0,0,3.34-4.26l.07-.09a5.08,5.08,0,0,1,1.95-1.73l.38-.21c8.25-.3,8.89-9,8.89-9C144.86,66.94,142.71,67.39,139.67,69.51Z"></path><path class="cls-1" d="M36.69,69.51c2.59,1.8,3,3.76,3.07,4.31.41.25.8.46,1.14.65-.55-.91-1.06-1.84-1.54-2.79a43.29,43.29,0,0,1-2.06-5l-.18-.57a13.82,13.82,0,0,0-2-3.91L35,62c-7.24-4-3.92-12-3.92-12-.11,1.79,1.61,3.15,3.38,6.4,1.51,2.77,1,4.71.82,5.23.37.57.72,1.07,1,1.49q-.18-.78-.33-1.56a37,37,0,0,1-.63-5.35l0-.67c0-.22,0-.45,0-.68V53.44c0-.44,0-.89.06-1.34,0-.22,0-.44,0-.66l.07-.67a4.94,4.94,0,0,0-.07-1.33l-.53-2.56c-5.27-6.35.78-12.64.78-12.64-.75,1.62.35,3.52.8,7.2.38,3.12-.8,4.75-1.16,5.16.15.74.31,1.39.44,1.92l0-.42c0-.44.16-.88.24-1.32l.13-.66c0-.22.08-.44.14-.65.21-.87.4-1.74.68-2.59l.2-.64.09-.32.12-.31.45-1.26c.28-.73.58-1.46.9-2.17a11.94,11.94,0,0,0,1-4.07c0-.33,0-.65.07-1-2.84-7.76,5-11.65,5-11.65-1.26,1.27-.86,3.43-1.67,7-.69,3.08-2.35,4.21-2.83,4.48-.15,1-.24,1.93-.28,2.55,0,0,0,0,0-.07l.32-.59c.1-.2.23-.39.34-.58l.69-1.14.74-1.1c.12-.19.24-.37.37-.55l.4-.54c.41-.57.84-1.12,1.29-1.66.63-.79,1.48-1.94,2.23-2.76a6,6,0,0,0,.88-1.29c3.25-6.86,11.2-4.93,11.2-4.93-1.79.11-2.93,2-5.93,4.15a6.65,6.65,0,0,1-5,1.49l-.27.08-.91,1a41,41,0,0,0-3.32,4.12l-.38.55-.36.55-.71,1.12-.3.53a21.51,21.51,0,0,1,2.38-1.77C48,25.07,56,28.76,56,28.76c-1.78-.19-3.21,1.47-6.54,3.09-2.84,1.38-4.75.79-5.26.58-1.13.67-2.08,1.32-2.63,1.71a2.71,2.71,0,0,0-.83,1h0l-.29.59a37.65,37.65,0,0,0-2.08,4.85l-.41,1.25-.11.31-.09.32-.17.63c-.25.84-.42,1.7-.61,2.56,0,.21-.09.43-.13.65h0A24.34,24.34,0,0,1,38.47,44c2-8,10.69-6.8,10.69-6.8-1.75.34-2.64,2.34-5.35,4.87A6.61,6.61,0,0,1,39,44.18c-.62.67-1.13,1.27-1.51,1.75a4.09,4.09,0,0,0-.93,2.25v0l-.16,1.3,0,.33,0,.33,0,.65,0,.65c0,.22,0,.44,0,.66,0,.43,0,.87,0,1.31l0,1.31q0,.33,0,.66l0,.65c.07.94.17,1.89.31,2.82a20.27,20.27,0,0,1,.65-2.24c-1-8.2,7.56-10.17,7.56-10.17-1.52.95-1.63,3.14-3.27,6.46-1.39,2.84-3.26,3.55-3.79,3.7-.2.51-.38,1-.52,1.4a5.78,5.78,0,0,0-.2,3.19v0a39.44,39.44,0,0,0,1.44,5A43.19,43.19,0,0,0,40.58,71c.24.45.49.89.75,1.33a23.23,23.23,0,0,1-.27-2.67c-3.89-7.28,3.31-12.23,3.31-12.23C43.3,58.89,44,61,43.7,64.67c-.25,3.14-1.73,4.49-2.17,4.82v.35a9.75,9.75,0,0,0,1.78,5.59s0,0,0,0a37.17,37.17,0,0,0,3.31,4c.31.31.59.64.91.94l.94.89,0,0c-.29-.51-.54-1-.78-1.51-6.41-5.2-1.69-12.55-1.69-12.55-.43,1.74,1,3.38,2.18,6.9,1,3,.14,4.82-.13,5.29.19.45.38.87.54,1.24A6.37,6.37,0,0,0,50.46,83h0a36.3,36.3,0,0,0,4.25,3c.87.52,1.75,1,2.66,1.44a15.61,15.61,0,0,1-1-1.17c-6.15-2.83-3.89-9.63-3.89-9.63,0,1.47,1.49,2.48,3.13,5.05a5.3,5.3,0,0,1,1,4.22c.2.27.39.52.57.74a5.65,5.65,0,0,0,2.21,1.69h0A40.06,40.06,0,0,0,64.21,90h0A1.08,1.08,0,0,1,65,91a1.1,1.1,0,0,1-1.41,1.1,42.33,42.33,0,0,1-5.1-1.92,40.92,40.92,0,0,1-4.79-2.59c-.92-.57-1.82-1.2-2.69-1.86A7.82,7.82,0,0,0,47,84.13c-7.71,3-11.73-4.8-11.73-4.8,1.3,1.24,3.45.81,7.08,1.56,3.08.64,4.24,2.28,4.51,2.76.75.09,1.4.16,1.94.19-.49-.43-1-.88-1.44-1.33l-1-1c-.33-.32-.62-.67-.93-1a40.4,40.4,0,0,1-3.34-4.26l-.06-.09a5.18,5.18,0,0,0-2-1.73l-.38-.21c-8.25-.3-8.89-9-8.89-9C31.5,66.94,33.66,67.39,36.69,69.51Z"></path><path class="cls-2" d="M77.3,34.8v8.53H75.9l-3-5.91v5.91H71.51V34.8h1.38l3,6v-6ZM80.24,37v6.34H78.88V37Zm-1.43-1.66a.77.77,0,0,1,.2-.54.71.71,0,0,1,.56-.23.73.73,0,0,1,.55.22.81.81,0,0,1,.2.55.76.76,0,0,1-.2.53.69.69,0,0,1-.55.22.7.7,0,0,1-.56-.22A.76.76,0,0,1,78.81,35.33Zm4.24-1v9H81.69v-9Zm-.24,5.6h-.44a4.7,4.7,0,0,1,.14-1.22,3.43,3.43,0,0,1,.42-1,2,2,0,0,1,.67-.64,1.7,1.7,0,0,1,.86-.23,1.76,1.76,0,0,1,.71.14,1.23,1.23,0,0,1,.55.41,1.77,1.77,0,0,1,.36.74,4.29,4.29,0,0,1,.12,1.1v4.07H84.84V39.25a2,2,0,0,0-.1-.72.71.71,0,0,0-.28-.38A.9.9,0,0,0,84,38a.89.89,0,0,0-.5.15,1.17,1.17,0,0,0-.37.42,2,2,0,0,0-.23.6A3.41,3.41,0,0,0,82.81,39.93ZM89,37v6.34H87.65V37Zm-1.44-1.66a.77.77,0,0,1,.2-.54.72.72,0,0,1,.56-.23.75.75,0,0,1,.56.22.81.81,0,0,1,.2.55.76.76,0,0,1-.2.53.82.82,0,0,1-1.12,0A.76.76,0,0,1,87.57,35.33Zm4.35-1v9H90.55v-9Zm3.88,9.12a3.08,3.08,0,0,1-1.09-.18,2.14,2.14,0,0,1-.82-.56,2.46,2.46,0,0,1-.51-.9,3.94,3.94,0,0,1-.17-1.25V40a4.71,4.71,0,0,1,.18-1.38,2.58,2.58,0,0,1,.51-1,2.16,2.16,0,0,1,.78-.56,2.58,2.58,0,0,1,1-.18,2.54,2.54,0,0,1,1,.2,1.58,1.58,0,0,1,.72.58,2.52,2.52,0,0,1,.42,1A5.19,5.19,0,0,1,98,39.91v.68H93.86v-1h2.77v-.14a3.13,3.13,0,0,0-.11-.75.82.82,0,0,0-.87-.65,1,1,0,0,0-.47.1.8.8,0,0,0-.34.32,1.91,1.91,0,0,0-.2.6,4.74,4.74,0,0,0-.07.91v.61a3.69,3.69,0,0,0,.08.81,1.51,1.51,0,0,0,.26.54,1.12,1.12,0,0,0,.41.3,1.94,1.94,0,0,0,1.38-.08,2.12,2.12,0,0,0,.6-.47l.6.84a2.39,2.39,0,0,1-.45.45,2.87,2.87,0,0,1-.7.36A3,3,0,0,1,95.8,43.45Zm4.62-5.11v5H99.05V37h1.29Zm-.25,1.59h-.43a4.46,4.46,0,0,1,.15-1.25,3,3,0,0,1,.43-1,2,2,0,0,1,.68-.62,1.75,1.75,0,0,1,.88-.23,1.93,1.93,0,0,1,.69.13,1.26,1.26,0,0,1,.54.41,1.91,1.91,0,0,1,.34.73,4.35,4.35,0,0,1,.12,1.1v4.09h-1.36v-4.1a2.24,2.24,0,0,0-.1-.71.69.69,0,0,0-.29-.37.84.84,0,0,0-.47-.12.86.86,0,0,0-.49.15,1.27,1.27,0,0,0-.37.42,2.35,2.35,0,0,0-.24.6A3.4,3.4,0,0,0,100.17,39.93ZM107.5,37v1h-3.11V37Zm-2.26-1.55h1.36v6.12a1.32,1.32,0,0,0,.06.45.37.37,0,0,0,.19.2.57.57,0,0,0,.27,0h.23a.71.71,0,0,0,.17,0v1.11a2.47,2.47,0,0,1-.35.1,3.08,3.08,0,0,1-.48,0,1.54,1.54,0,0,1-.75-.18,1.24,1.24,0,0,1-.51-.57,2.38,2.38,0,0,1-.19-1.05ZM61.85,53.14v1.19H58.14V53.14ZM58.52,45.8v8.53H57.09V45.8Zm2.83,3.55v1.17H58.14V49.35Zm.46-3.55V47H58.14V45.8Zm3.59,4.31v1.15H62.74V50.11ZM72.32,50v3.37a3.64,3.64,0,0,1-.48.46,3.17,3.17,0,0,1-.85.47,4,4,0,0,1-1.35.2,3.31,3.31,0,0,1-1.25-.23,2.42,2.42,0,0,1-1-.67,3,3,0,0,1-.62-1.12,5.18,5.18,0,0,1-.22-1.61V49.3a6.19,6.19,0,0,1,.19-1.59,3.26,3.26,0,0,1,.58-1.13,2.39,2.39,0,0,1,.93-.68,3.44,3.44,0,0,1,1.25-.22A3.2,3.2,0,0,1,71,46a2,2,0,0,1,.92.92,3.67,3.67,0,0,1,.37,1.49H70.93a2.66,2.66,0,0,0-.2-.87,1.06,1.06,0,0,0-.44-.51,1.59,1.59,0,0,0-.74-.16,1.65,1.65,0,0,0-.7.14,1.07,1.07,0,0,0-.48.44,2.13,2.13,0,0,0-.28.75A5.77,5.77,0,0,0,68,49.29v1.53a4.49,4.49,0,0,0,.12,1.11,2.13,2.13,0,0,0,.32.76,1.3,1.3,0,0,0,.53.43,1.81,1.81,0,0,0,.72.14,2.05,2.05,0,0,0,.63-.08,1.4,1.4,0,0,0,.37-.19l.21-.16V51.07H69.53V50Zm1.16,1.47v-.51a4.37,4.37,0,0,1,.18-1.31,2.88,2.88,0,0,1,.52-1,2.17,2.17,0,0,1,.8-.58,2.65,2.65,0,0,1,2,0,2.09,2.09,0,0,1,.8.58,2.56,2.56,0,0,1,.52,1,4.37,4.37,0,0,1,.18,1.31v.51a4.25,4.25,0,0,1-.18,1.3,2.61,2.61,0,0,1-.52,1,2.14,2.14,0,0,1-.79.57,2.53,2.53,0,0,1-1,.2,2.61,2.61,0,0,1-1-.2,2.22,2.22,0,0,1-.79-.57,2.78,2.78,0,0,1-.53-1A4.25,4.25,0,0,1,73.48,51.42Zm1.37-.51v.51a4.1,4.1,0,0,0,.08.83,2.14,2.14,0,0,0,.23.59,1.22,1.22,0,0,0,.37.35.91.91,0,0,0,.47.11,1,1,0,0,0,.49-.11.93.93,0,0,0,.36-.35,1.86,1.86,0,0,0,.22-.59,4.15,4.15,0,0,0,.07-.83v-.51a3.93,3.93,0,0,0-.08-.82,1.91,1.91,0,0,0-.24-.59,1,1,0,0,0-.37-.36A.9.9,0,0,0,76,49a.94.94,0,0,0-.47.12,1.23,1.23,0,0,0-.36.36,1.91,1.91,0,0,0-.23.59A3.93,3.93,0,0,0,74.85,50.91Zm6.51,2.28L82.53,48h1.41l-1.8,6.34h-.88ZM80.53,48l1.21,5.22.06,1.12h-.87L79.11,48Zm6.68,6.46a3.13,3.13,0,0,1-1.1-.18,2.11,2.11,0,0,1-.81-.56,2.21,2.21,0,0,1-.51-.9,3.92,3.92,0,0,1-.18-1.25V51a4.71,4.71,0,0,1,.18-1.38,2.74,2.74,0,0,1,.52-1,2.12,2.12,0,0,1,.77-.56,2.63,2.63,0,0,1,1-.18,2.57,2.57,0,0,1,1,.2,1.69,1.69,0,0,1,.72.58,2.52,2.52,0,0,1,.42,1,5.72,5.72,0,0,1,.14,1.31v.68H85.27v-1H88v-.14a3.17,3.17,0,0,0-.1-.75,1,1,0,0,0-.31-.48.86.86,0,0,0-.57-.17,1,1,0,0,0-.47.1.86.86,0,0,0-.34.32,1.93,1.93,0,0,0-.19.6A4.74,4.74,0,0,0,86,51v.61a3.17,3.17,0,0,0,.08.81,1.36,1.36,0,0,0,.26.54,1.12,1.12,0,0,0,.41.3,1.6,1.6,0,0,0,.56.09,1.74,1.74,0,0,0,.82-.17,2.12,2.12,0,0,0,.6-.47l.6.84a2.47,2.47,0,0,1-.46.45,2.7,2.7,0,0,1-.7.36A2.91,2.91,0,0,1,87.21,54.45Zm4.63-5.24v5.12H90.48V48h1.3ZM93.37,48V49.3l-.25,0h-.26a1,1,0,0,0-.48.1,1,1,0,0,0-.35.29,1.35,1.35,0,0,0-.22.45,2.52,2.52,0,0,0-.09.59l-.3,0a5.52,5.52,0,0,1,.1-1.11,3.28,3.28,0,0,1,.28-.9,1.63,1.63,0,0,1,.48-.6,1,1,0,0,1,.67-.22l.24,0A.56.56,0,0,1,93.37,48Zm2.28,1.39v5H94.29V48h1.28Zm-.24,1.59H95a4.48,4.48,0,0,1,.14-1.25,3,3,0,0,1,.44-1,1.91,1.91,0,0,1,.68-.62,1.75,1.75,0,0,1,.88-.23,1.93,1.93,0,0,1,.69.13,1.18,1.18,0,0,1,.53.41,1.77,1.77,0,0,1,.34.73,3.9,3.9,0,0,1,.13,1.1v4.09H97.44v-4.1a2,2,0,0,0-.1-.71.64.64,0,0,0-.28-.37.84.84,0,0,0-.47-.12.86.86,0,0,0-.49.15,1.27,1.27,0,0,0-.37.42,2,2,0,0,0-.24.6A3.4,3.4,0,0,0,95.41,50.93ZM103.12,53V49.88a1.33,1.33,0,0,0-.09-.53.57.57,0,0,0-.27-.28.88.88,0,0,0-.43-.1.79.79,0,0,0-.45.12.68.68,0,0,0-.28.3,1,1,0,0,0-.09.43h-1.37a1.72,1.72,0,0,1,.16-.73,1.93,1.93,0,0,1,.45-.63,2.17,2.17,0,0,1,.71-.43,2.65,2.65,0,0,1,.92-.16,2.68,2.68,0,0,1,1.09.21,1.55,1.55,0,0,1,.74.65,2.22,2.22,0,0,1,.28,1.17v3a4.65,4.65,0,0,0,.05.78,2.89,2.89,0,0,0,.16.6v.09h-1.39a2,2,0,0,1-.14-.59A5.49,5.49,0,0,1,103.12,53Zm.18-2.57v.88h-.66a1.78,1.78,0,0,0-.53.08,1.15,1.15,0,0,0-.39.23.94.94,0,0,0-.25.34,1.12,1.12,0,0,0-.08.45,1.14,1.14,0,0,0,.08.49.57.57,0,0,0,.25.28.86.86,0,0,0,.41.09,1.07,1.07,0,0,0,.94-.49.54.54,0,0,0,.11-.38l.31.57a1.62,1.62,0,0,1-.18.47A2,2,0,0,1,103,54a1.44,1.44,0,0,1-.48.36,1.48,1.48,0,0,1-.65.14,2,2,0,0,1-1-.23,1.64,1.64,0,0,1-.65-.63,2,2,0,0,1-.24-1,2.13,2.13,0,0,1,.16-.86,1.85,1.85,0,0,1,.47-.67,2.25,2.25,0,0,1,.78-.43,3.63,3.63,0,0,1,1.11-.15Zm3.93-1.13v5h-1.36V48h1.28ZM107,50.93h-.44a4.87,4.87,0,0,1,.15-1.25,3.25,3.25,0,0,1,.43-1,2,2,0,0,1,.68-.62,1.79,1.79,0,0,1,.89-.23,1.83,1.83,0,0,1,.68.13,1.26,1.26,0,0,1,.54.41,1.91,1.91,0,0,1,.34.73,4.31,4.31,0,0,1,.13,1.1v4.09H109v-4.1a2,2,0,0,0-.1-.71.68.68,0,0,0-.28-.37.88.88,0,0,0-.48-.12.85.85,0,0,0-.48.15,1.3,1.3,0,0,0-.38.42,2,2,0,0,0-.23.6A2.87,2.87,0,0,0,107,50.93Zm7,2.37a.93.93,0,0,0,.47-.11.78.78,0,0,0,.33-.34,1.39,1.39,0,0,0,.13-.62h1.29a2.31,2.31,0,0,1-.31,1.17,2.14,2.14,0,0,1-.8.78,2.24,2.24,0,0,1-1.1.27,2.83,2.83,0,0,1-1.09-.2,2.06,2.06,0,0,1-.77-.59,2.85,2.85,0,0,1-.46-.94,5.42,5.42,0,0,1-.14-1.27v-.58a5.34,5.34,0,0,1,.14-1.26,2.9,2.9,0,0,1,.46-1,1.94,1.94,0,0,1,.77-.58,2.62,2.62,0,0,1,1.09-.21,2.33,2.33,0,0,1,1.15.28,1.94,1.94,0,0,1,.77.81,3,3,0,0,1,.29,1.31h-1.29a1.78,1.78,0,0,0-.12-.69.91.91,0,0,0-.32-.42A.87.87,0,0,0,114,49a1,1,0,0,0-.55.13.83.83,0,0,0-.33.36,2.19,2.19,0,0,0-.16.59c0,.23,0,.48,0,.77v.58c0,.29,0,.56,0,.79a1.89,1.89,0,0,0,.16.58.77.77,0,0,0,.33.36A1.13,1.13,0,0,0,114,53.3Zm5.7,1.15a3.08,3.08,0,0,1-1.09-.18,2.22,2.22,0,0,1-.82-.56,2.46,2.46,0,0,1-.51-.9,4.25,4.25,0,0,1-.17-1.25V51a4.71,4.71,0,0,1,.18-1.38,2.59,2.59,0,0,1,.52-1,2,2,0,0,1,.77-.56,2.63,2.63,0,0,1,1-.18,2.49,2.49,0,0,1,1,.2,1.58,1.58,0,0,1,.72.58,2.38,2.38,0,0,1,.43,1,5.72,5.72,0,0,1,.14,1.31v.68h-4.12v-1h2.77v-.14a2.7,2.7,0,0,0-.11-.75.82.82,0,0,0-.87-.65,1,1,0,0,0-.47.1.86.86,0,0,0-.34.32,2.21,2.21,0,0,0-.2.6,5.71,5.71,0,0,0-.07.91v.61a3.12,3.12,0,0,0,.09.81,1.35,1.35,0,0,0,.25.54,1.21,1.21,0,0,0,.41.3,1.7,1.7,0,0,0,.57.09,1.74,1.74,0,0,0,.82-.17,2,2,0,0,0,.59-.47l.61.84a2.82,2.82,0,0,1-.46.45,2.7,2.7,0,0,1-.7.36A3,3,0,0,1,119.71,54.45ZM75.35,58l-2.07,7.36H71.8l2.7-8.53h.93ZM77,65.33,74.92,58l-.1-1.17h1l2.72,8.53Zm0-3.17v1.19h-4V62.16Zm3.53,1.75L81.8,59h.86l-.17,1.51-1.24,4.83h-.76ZM80,59l1,4.94v1.4h-.86L78.71,59Zm3.63,4.88L84.57,59H85.9l-1.42,6.34h-.86ZM82.81,59,84,63.85l.09,1.48h-.76L82.1,60.5,81.93,59Zm7,5.05V60.88a1.17,1.17,0,0,0-.1-.53.51.51,0,0,0-.26-.28A.91.91,0,0,0,89,60a.79.79,0,0,0-.45.12.63.63,0,0,0-.28.3,1,1,0,0,0-.09.43H86.8a1.87,1.87,0,0,1,.15-.73,2.28,2.28,0,0,1,.45-.63,2.41,2.41,0,0,1,.71-.43,2.75,2.75,0,0,1,.93-.16,2.6,2.6,0,0,1,1.08.21,1.53,1.53,0,0,1,.75.65,2.23,2.23,0,0,1,.27,1.17v3a4.58,4.58,0,0,0,.06.78,3.75,3.75,0,0,0,.15.6v.09H90a2.4,2.4,0,0,1-.15-.59A5.48,5.48,0,0,1,89.78,64ZM90,61.47v.88h-.66a1.74,1.74,0,0,0-.53.08,1.31,1.31,0,0,0-.4.23,1,1,0,0,0-.24.34,1.12,1.12,0,0,0-.08.45,1.14,1.14,0,0,0,.08.49.57.57,0,0,0,.25.28.86.86,0,0,0,.41.09,1.07,1.07,0,0,0,.94-.49.54.54,0,0,0,.11-.38l.31.57a1.62,1.62,0,0,1-.18.47,2.3,2.3,0,0,1-.32.47,1.44,1.44,0,0,1-.48.36,1.48,1.48,0,0,1-.65.14,2,2,0,0,1-1-.23,1.6,1.6,0,0,1-.66-.63,2.15,2.15,0,0,1-.23-1,2.13,2.13,0,0,1,.16-.86,1.74,1.74,0,0,1,.47-.67,2.08,2.08,0,0,1,.78-.43,3.61,3.61,0,0,1,1.1-.15Zm4-1.26v5.12H92.54V59h1.3ZM95.44,59V60.3l-.25,0h-.26a1,1,0,0,0-.48.1.9.9,0,0,0-.35.29,1.35,1.35,0,0,0-.22.45,3.14,3.14,0,0,0-.1.59l-.29,0a6.4,6.4,0,0,1,.09-1.11,3.66,3.66,0,0,1,.29-.9,1.63,1.63,0,0,1,.48-.6,1,1,0,0,1,.66-.22l.24,0A.64.64,0,0,1,95.44,59Zm4,5.06V56.33h1.36v9H99.57ZM96,62.42v-.5a5.9,5.9,0,0,1,.14-1.35,2.87,2.87,0,0,1,.41-1,1.87,1.87,0,0,1,.66-.57,2.07,2.07,0,0,1,.88-.18,1.48,1.48,0,0,1,.82.22,1.76,1.76,0,0,1,.58.6,3.36,3.36,0,0,1,.38.94,6,6,0,0,1,.2,1.21v.69a7.83,7.83,0,0,1-.2,1.18,3.22,3.22,0,0,1-.38.92,1.92,1.92,0,0,1-.59.61,1.56,1.56,0,0,1-.82.21,1.92,1.92,0,0,1-.87-.2,1.88,1.88,0,0,1-.66-.57,2.9,2.9,0,0,1-.41-.94A5.75,5.75,0,0,1,96,62.42Zm1.37-.5v.5a5.17,5.17,0,0,0,.06.84,1.8,1.8,0,0,0,.18.58.9.9,0,0,0,.34.33,1.13,1.13,0,0,0,.51.1,1,1,0,0,0,.61-.18,1.2,1.2,0,0,0,.37-.51,3,3,0,0,0,.19-.71V61.5a2.5,2.5,0,0,0-.12-.57,1.58,1.58,0,0,0-.23-.47,1,1,0,0,0-.34-.31.91.91,0,0,0-.47-.12,1,1,0,0,0-.51.12.77.77,0,0,0-.34.35,1.65,1.65,0,0,0-.19.58A5.17,5.17,0,0,0,97.41,61.92Zm7.74,1.74a.55.55,0,0,0-.12-.35,1.14,1.14,0,0,0-.36-.31,6.27,6.27,0,0,0-.68-.33q-.43-.18-.78-.36a3.79,3.79,0,0,1-.57-.4,1.49,1.49,0,0,1-.36-.51,1.74,1.74,0,0,1-.12-.67,1.8,1.8,0,0,1,.15-.73,1.57,1.57,0,0,1,.42-.58,1.83,1.83,0,0,1,.66-.4,2.41,2.41,0,0,1,.87-.15,2.59,2.59,0,0,1,1.17.25,1.76,1.76,0,0,1,.75.7,1.88,1.88,0,0,1,.27,1h-1.37a1,1,0,0,0-.09-.43.63.63,0,0,0-.26-.32.86.86,0,0,0-.47-.12.83.83,0,0,0-.43.1.63.63,0,0,0-.26.25.86.86,0,0,0-.08.36.71.71,0,0,0,.05.26.87.87,0,0,0,.18.22,2.18,2.18,0,0,0,.33.2l.53.24a7.56,7.56,0,0,1,1.06.51,1.87,1.87,0,0,1,.63.62,1.65,1.65,0,0,1,.21.87,1.73,1.73,0,0,1-.16.76,1.69,1.69,0,0,1-.44.59,2,2,0,0,1-.7.38,3.15,3.15,0,0,1-.9.13,2.45,2.45,0,0,1-1.26-.3,2,2,0,0,1-1-1.75h1.32a1.14,1.14,0,0,0,.16.58.74.74,0,0,0,.37.29,1.21,1.21,0,0,0,.46.08,1.15,1.15,0,0,0,.48-.08.55.55,0,0,0,.28-.24A.73.73,0,0,0,105.15,63.66Z"></path><path class="cls-2" d="M23.65,106.8h1.1l2.79,7,2.79-7h1.1L28,115.33h-.85Zm-.36,0h1l.16,5.2v3.33H23.29Zm7.53,0h1v8.53H30.66V112Zm6.67,7.06V109h1.08v6.34h-1Zm.2-1.33h.45a4.82,4.82,0,0,1-.13,1.17,2.52,2.52,0,0,1-.43.92,1.93,1.93,0,0,1-.76.62,2.86,2.86,0,0,1-1.16.22,2.57,2.57,0,0,1-.85-.14,1.76,1.76,0,0,1-.65-.41,1.86,1.86,0,0,1-.43-.74,3.43,3.43,0,0,1-.15-1.08V109h1.09v4.1a2.36,2.36,0,0,0,.09.71,1.25,1.25,0,0,0,.26.44.92.92,0,0,0,.38.22,1.25,1.25,0,0,0,.43.07,2,2,0,0,0,1.1-.27,1.52,1.52,0,0,0,.58-.72A2.71,2.71,0,0,0,37.69,112.53Zm3.62-2.19v5H40.23V109h1Zm-.26,1.58-.45,0a3.87,3.87,0,0,1,.2-1.2,3.11,3.11,0,0,1,.52-1,2.38,2.38,0,0,1,1.86-.86A2.74,2.74,0,0,1,44,109a1.52,1.52,0,0,1,.64.4,1.71,1.71,0,0,1,.41.71,3.35,3.35,0,0,1,.14,1.07v4.15H44.12v-4.17a1.93,1.93,0,0,0-.14-.79.88.88,0,0,0-.43-.44,1.47,1.47,0,0,0-.69-.14,1.52,1.52,0,0,0-.74.17,1.71,1.71,0,0,0-.57.47,2.33,2.33,0,0,0-.37.68A2.64,2.64,0,0,0,41.05,111.92ZM48,109v6.34H47V109Zm-1.17-1.68a.68.68,0,0,1,.15-.45.73.73,0,0,1,1,0,.64.64,0,0,1,.17.45.67.67,0,0,1-1.13.43A.64.64,0,0,1,46.87,107.31Zm5.45,7.25a1.71,1.71,0,0,0,.71-.16,1.46,1.46,0,0,0,.54-.44,1.19,1.19,0,0,0,.24-.63h1a2,2,0,0,1-.38,1,2.65,2.65,0,0,1-2.14,1.08,2.84,2.84,0,0,1-1.25-.26,2.3,2.3,0,0,1-.88-.69,3,3,0,0,1-.52-1,4.09,4.09,0,0,1-.17-1.22V112a4,4,0,0,1,.17-1.21,2.94,2.94,0,0,1,.52-1,2.42,2.42,0,0,1,.88-.7,3,3,0,0,1,1.25-.25,2.63,2.63,0,0,1,1.3.31,2.22,2.22,0,0,1,.87.82,2.4,2.4,0,0,1,.35,1.17h-1a1.56,1.56,0,0,0-.22-.71,1.39,1.39,0,0,0-.52-.5,1.42,1.42,0,0,0-.75-.2,1.63,1.63,0,0,0-.84.2,1.52,1.52,0,0,0-.54.53,2.77,2.77,0,0,0-.28.73,4.47,4.47,0,0,0-.08.82v.24a4.47,4.47,0,0,0,.08.82,2.52,2.52,0,0,0,.28.74,1.55,1.55,0,0,0,.53.52A1.7,1.7,0,0,0,52.32,114.56ZM57.24,109v6.34H56.15V109Zm-1.17-1.68a.68.68,0,0,1,.15-.45.73.73,0,0,1,1,0,.64.64,0,0,1,.17.45.67.67,0,0,1-1.13.43A.64.64,0,0,1,56.07,107.31Zm4,2.9v7.56H59V109h1Zm4.27,1.9v.12a4.72,4.72,0,0,1-.16,1.28,3.21,3.21,0,0,1-.48,1,2.13,2.13,0,0,1-1.82.92,2.67,2.67,0,0,1-1.06-.2,2.28,2.28,0,0,1-.79-.58,3.15,3.15,0,0,1-.52-.92,5.08,5.08,0,0,1-.25-1.2v-.65a5.1,5.1,0,0,1,.26-1.26,3.18,3.18,0,0,1,.51-1,2.1,2.1,0,0,1,.78-.61,2.49,2.49,0,0,1,1.05-.21,2.24,2.24,0,0,1,1.06.24,2.13,2.13,0,0,1,.78.65,3.16,3.16,0,0,1,.48,1A4.87,4.87,0,0,1,64.33,112.11Zm-1.09.12v-.12a3.57,3.57,0,0,0-.1-.89,2.07,2.07,0,0,0-.31-.74,1.49,1.49,0,0,0-.52-.51,1.59,1.59,0,0,0-.77-.18,1.62,1.62,0,0,0-.72.14,1.48,1.48,0,0,0-.51.38,1.84,1.84,0,0,0-.34.54,3.21,3.21,0,0,0-.2.62V113a3.51,3.51,0,0,0,.33.77,1.56,1.56,0,0,0,1.45.8,1.45,1.45,0,0,0,.76-.19,1.41,1.41,0,0,0,.52-.51,2.18,2.18,0,0,0,.31-.73A3.71,3.71,0,0,0,63.24,112.23Zm6.21,2V111a1.36,1.36,0,0,0-.15-.65,1,1,0,0,0-.44-.43,1.65,1.65,0,0,0-.74-.15,1.6,1.6,0,0,0-.72.14,1.07,1.07,0,0,0-.48.37.75.75,0,0,0-.17.49H65.66a1.44,1.44,0,0,1,.18-.68,2,2,0,0,1,.5-.6,2.56,2.56,0,0,1,.8-.43,3.11,3.11,0,0,1,1-.17,2.92,2.92,0,0,1,1.22.24,1.75,1.75,0,0,1,.83.71,2,2,0,0,1,.31,1.17v3a5.43,5.43,0,0,0,0,.67,3.07,3.07,0,0,0,.17.62v.09H69.63a1.8,1.8,0,0,1-.13-.5A4.13,4.13,0,0,1,69.45,114.25Zm.19-2.76v.76H68.56a4.15,4.15,0,0,0-.83.07,2,2,0,0,0-.61.22,1,1,0,0,0-.37.37.92.92,0,0,0-.13.51,1.08,1.08,0,0,0,.13.54,1,1,0,0,0,.41.4,1.51,1.51,0,0,0,.67.14,1.79,1.79,0,0,0,.88-.21,1.91,1.91,0,0,0,.6-.52,1,1,0,0,0,.25-.59l.46.52a1.7,1.7,0,0,1-.22.55,2.7,2.7,0,0,1-1.2,1,2.3,2.3,0,0,1-.93.18,2.41,2.41,0,0,1-1.13-.26,1.88,1.88,0,0,1-.75-.67,1.81,1.81,0,0,1-.26-1,1.87,1.87,0,0,1,.2-.9,1.69,1.69,0,0,1,.57-.65,2.65,2.65,0,0,1,.9-.4,4.85,4.85,0,0,1,1.18-.13Zm3.78-5.16v9H72.33v-9Zm10,6.29h1.13a3.55,3.55,0,0,1-.47,1.44,2.67,2.67,0,0,1-1.06,1,3.61,3.61,0,0,1-1.71.37,3.34,3.34,0,0,1-1.36-.28,3.06,3.06,0,0,1-1-.8,3.86,3.86,0,0,1-.68-1.25,5.22,5.22,0,0,1-.24-1.63v-.85a5.11,5.11,0,0,1,.24-1.62,3.66,3.66,0,0,1,.68-1.25A3.2,3.2,0,0,1,80,107a3.83,3.83,0,0,1,3.06.08,2.63,2.63,0,0,1,1,1,3.68,3.68,0,0,1,.47,1.48H83.45a3,3,0,0,0-.3-1,1.59,1.59,0,0,0-.64-.67,2.1,2.1,0,0,0-1.07-.23,2.26,2.26,0,0,0-1,.21,2,2,0,0,0-.72.62,2.68,2.68,0,0,0-.43,1,4.84,4.84,0,0,0-.15,1.24v.86a5,5,0,0,0,.13,1.18,3.14,3.14,0,0,0,.4,1,2,2,0,0,0,.69.65,1.92,1.92,0,0,0,1,.24,2.47,2.47,0,0,0,1.15-.23,1.48,1.48,0,0,0,.65-.66A3.41,3.41,0,0,0,83.45,112.62Zm2.22-.39v-.13a3.78,3.78,0,0,1,.2-1.28,3,3,0,0,1,.57-1,2.56,2.56,0,0,1,.91-.68,3,3,0,0,1,2.39,0,2.6,2.6,0,0,1,.92.68,3,3,0,0,1,.58,1,4,4,0,0,1,.2,1.28v.13a4,4,0,0,1-.2,1.27,3.16,3.16,0,0,1-.58,1,2.69,2.69,0,0,1-.91.68,2.84,2.84,0,0,1-1.19.24,2.94,2.94,0,0,1-1.21-.24,2.79,2.79,0,0,1-.91-.68,3.14,3.14,0,0,1-.57-1A3.72,3.72,0,0,1,85.67,112.23Zm1.08-.13v.13a3.7,3.7,0,0,0,.11.9,2.45,2.45,0,0,0,.34.73,1.6,1.6,0,0,0,.56.51,1.58,1.58,0,0,0,.8.19,1.49,1.49,0,0,0,.77-.19,1.55,1.55,0,0,0,.57-.51,2.21,2.21,0,0,0,.33-.73,3.26,3.26,0,0,0,.12-.9v-.13a3.19,3.19,0,0,0-.12-.89,2.19,2.19,0,0,0-.34-.74,1.56,1.56,0,0,0-1.35-.71,1.67,1.67,0,0,0-.78.19,1.74,1.74,0,0,0-.56.52,2.4,2.4,0,0,0-.34.74A3.62,3.62,0,0,0,86.75,112.1ZM93.88,110v5.34H92.8V109h1Zm2-1v1l-.26,0h-.27a1.69,1.69,0,0,0-.66.11,1.41,1.41,0,0,0-.49.33,1.71,1.71,0,0,0-.32.5,2.6,2.6,0,0,0-.14.64l-.31.17a5.17,5.17,0,0,1,.11-1.07,3,3,0,0,1,.36-.9,1.67,1.67,0,0,1,.61-.6,1.71,1.71,0,0,1,.89-.23l.27,0A1.07,1.07,0,0,1,95.86,109ZM98,110.21v7.56H96.86V109h1Zm4.27,1.9v.12a5.15,5.15,0,0,1-.16,1.28,3,3,0,0,1-.49,1,2.15,2.15,0,0,1-.76.68,2.26,2.26,0,0,1-1,.24,2.76,2.76,0,0,1-1.07-.2,2.16,2.16,0,0,1-.78-.58,2.94,2.94,0,0,1-.52-.92,5.61,5.61,0,0,1-.26-1.2v-.65a5.59,5.59,0,0,1,.27-1.26,3.18,3.18,0,0,1,.51-1,2,2,0,0,1,.78-.61,2.46,2.46,0,0,1,1-.21,2.27,2.27,0,0,1,1.06.24,2.13,2.13,0,0,1,.78.65,3.16,3.16,0,0,1,.48,1A5.3,5.3,0,0,1,102.22,112.11Zm-1.09.12v-.12a3.57,3.57,0,0,0-.1-.89,2.26,2.26,0,0,0-.31-.74,1.52,1.52,0,0,0-.53-.51,1.54,1.54,0,0,0-.77-.18,1.58,1.58,0,0,0-.71.14,1.48,1.48,0,0,0-.51.38,1.86,1.86,0,0,0-.35.54,3.19,3.19,0,0,0-.19.62V113a3.51,3.51,0,0,0,.33.77,1.56,1.56,0,0,0,1.45.8,1.39,1.39,0,0,0,.75-.19,1.44,1.44,0,0,0,.53-.51,2.4,2.4,0,0,0,.31-.73A3.71,3.71,0,0,0,101.13,112.23Zm2.19,0v-.13a4,4,0,0,1,.19-1.28,3.19,3.19,0,0,1,.58-1,2.56,2.56,0,0,1,.91-.68,3,3,0,0,1,2.39,0,2.6,2.6,0,0,1,.92.68,3.19,3.19,0,0,1,.58,1,4,4,0,0,1,.2,1.28v.13a4,4,0,0,1-.2,1.27,3.35,3.35,0,0,1-.58,1,2.79,2.79,0,0,1-.91.68,2.86,2.86,0,0,1-1.2.24,2.92,2.92,0,0,1-1.2-.24,2.79,2.79,0,0,1-.91-.68,3.35,3.35,0,0,1-.58-1A4,4,0,0,1,103.32,112.23Zm1.08-.13v.13a3.7,3.7,0,0,0,.11.9,2.43,2.43,0,0,0,.33.73,1.72,1.72,0,0,0,.57.51,1.57,1.57,0,0,0,.79.19,1.5,1.5,0,0,0,.78-.19,1.55,1.55,0,0,0,.57-.51,2.43,2.43,0,0,0,.33-.73,3.26,3.26,0,0,0,.12-.9v-.13a3.19,3.19,0,0,0-.12-.89,2.19,2.19,0,0,0-.34-.74A1.74,1.74,0,0,0,107,110a1.68,1.68,0,0,0-.79-.19,1.64,1.64,0,0,0-.78.19,1.77,1.77,0,0,0-.57.52,2.38,2.38,0,0,0-.33.74A3.62,3.62,0,0,0,104.4,112.1Zm7.13-2.11v5.34h-1.08V109h1Zm2-1v1l-.25,0H113a1.69,1.69,0,0,0-.66.11,1.32,1.32,0,0,0-.49.33,1.71,1.71,0,0,0-.32.5,2.6,2.6,0,0,0-.14.64l-.31.17a5.17,5.17,0,0,1,.11-1.07,3,3,0,0,1,.36-.9,1.67,1.67,0,0,1,.61-.6,1.71,1.71,0,0,1,.89-.23l.27,0A1.07,1.07,0,0,1,113.51,109Zm4.51,5.3V111a1.25,1.25,0,0,0-.16-.65.92.92,0,0,0-.44-.43,1.91,1.91,0,0,0-1.46,0,1.19,1.19,0,0,0-.48.37.81.81,0,0,0-.17.49h-1.08a1.43,1.43,0,0,1,.17-.68,2.16,2.16,0,0,1,.5-.6,2.56,2.56,0,0,1,.8-.43,3.11,3.11,0,0,1,1-.17,2.89,2.89,0,0,1,1.22.24,1.77,1.77,0,0,1,.84.71,2.12,2.12,0,0,1,.3,1.17v3a5.43,5.43,0,0,0,.05.67,3.07,3.07,0,0,0,.17.62v.09h-1.13a2.24,2.24,0,0,1-.13-.5A4,4,0,0,1,118,114.25Zm.18-2.76,0,.76h-1.1a4.21,4.21,0,0,0-.83.07,2,2,0,0,0-.61.22,1.09,1.09,0,0,0-.37.37.92.92,0,0,0-.13.51,1.09,1.09,0,0,0,.14.54.91.91,0,0,0,.4.4,1.51,1.51,0,0,0,.67.14,1.76,1.76,0,0,0,.88-.21,1.85,1.85,0,0,0,.61-.52,1.09,1.09,0,0,0,.24-.59l.46.52a1.5,1.5,0,0,1-.22.55,2.74,2.74,0,0,1-.48.57,2.59,2.59,0,0,1-.72.45,2.25,2.25,0,0,1-.92.18,2.46,2.46,0,0,1-1.14-.26,1.88,1.88,0,0,1-.75-.67,1.81,1.81,0,0,1-.26-1,2,2,0,0,1,.2-.9,1.69,1.69,0,0,1,.57-.65,2.62,2.62,0,0,1,.91-.4,4.71,4.71,0,0,1,1.17-.13Zm5.26-2.5v.83H120V109Zm-2.27-1.54h1.09v6.31a.94.94,0,0,0,.1.49.46.46,0,0,0,.25.21,1,1,0,0,0,.34.06,1.33,1.33,0,0,0,.28,0l.23,0v.89l-.34.08a3.37,3.37,0,0,1-.5,0,1.77,1.77,0,0,1-.73-.16,1.18,1.18,0,0,1-.53-.53,2.18,2.18,0,0,1-.2-1Zm4.72,1.54v6.34h-1.09V109Zm-1.17-1.68a.64.64,0,0,1,.16-.45.59.59,0,0,1,.48-.18.61.61,0,0,1,.47.18.64.64,0,0,1,.17.45.6.6,0,0,1-.64.61.59.59,0,0,1-.48-.18A.6.6,0,0,1,124.74,107.31Zm2.62,4.92v-.13a4,4,0,0,1,.2-1.28,3,3,0,0,1,.58-1,2.62,2.62,0,0,1,.9-.68,3,3,0,0,1,2.4,0,2.56,2.56,0,0,1,.91.68,2.86,2.86,0,0,1,.58,1,3.78,3.78,0,0,1,.2,1.28v.13a3.72,3.72,0,0,1-.2,1.27,3,3,0,0,1-.58,1,2.75,2.75,0,0,1-.9.68,3.12,3.12,0,0,1-2.4,0,2.69,2.69,0,0,1-.91-.68,3.16,3.16,0,0,1-.58-1A4,4,0,0,1,127.36,112.23Zm1.09-.13v.13a3.27,3.27,0,0,0,.11.9,2.21,2.21,0,0,0,.33.73,1.55,1.55,0,0,0,.57.51,1.57,1.57,0,0,0,.79.19,1.5,1.5,0,0,0,.78-.19,1.52,1.52,0,0,0,.56-.51,2.45,2.45,0,0,0,.34-.73,3.7,3.7,0,0,0,.11-.9v-.13a3.62,3.62,0,0,0-.11-.89,2.4,2.4,0,0,0-.34-.74A1.67,1.67,0,0,0,131,110a1.61,1.61,0,0,0-.78-.19,1.68,1.68,0,0,0-.79.19,1.74,1.74,0,0,0-.56.52,2.17,2.17,0,0,0-.33.74A3.19,3.19,0,0,0,128.45,112.1Zm7.13-1.76v5h-1.09V109h1Zm-.26,1.58-.45,0a3.87,3.87,0,0,1,.19-1.2,3.13,3.13,0,0,1,.53-1,2.38,2.38,0,0,1,1.86-.86,2.74,2.74,0,0,1,.84.13,1.58,1.58,0,0,1,.64.4,1.82,1.82,0,0,1,.41.71,3.65,3.65,0,0,1,.14,1.07v4.15h-1.09v-4.17a1.76,1.76,0,0,0-.15-.79.86.86,0,0,0-.42-.44,1.73,1.73,0,0,0-1.43,0,1.71,1.71,0,0,0-.57.47,2.12,2.12,0,0,0-.37.68A2.37,2.37,0,0,0,135.32,111.92Zm8.5.31v-.13a4,4,0,0,1,.19-1.28,3.19,3.19,0,0,1,.58-1,2.56,2.56,0,0,1,.91-.68,3,3,0,0,1,2.39,0,2.6,2.6,0,0,1,.92.68,3.19,3.19,0,0,1,.58,1,4,4,0,0,1,.2,1.28v.13a4,4,0,0,1-.2,1.27,3.35,3.35,0,0,1-.58,1,2.79,2.79,0,0,1-.91.68,2.86,2.86,0,0,1-1.2.24,2.92,2.92,0,0,1-1.2-.24,2.79,2.79,0,0,1-.91-.68,3.35,3.35,0,0,1-.58-1A4,4,0,0,1,143.82,112.23Zm1.08-.13v.13a3.7,3.7,0,0,0,.11.9,2.43,2.43,0,0,0,.33.73,1.72,1.72,0,0,0,.57.51,1.57,1.57,0,0,0,.79.19,1.5,1.5,0,0,0,.78-.19,1.55,1.55,0,0,0,.57-.51,2.43,2.43,0,0,0,.33-.73,3.26,3.26,0,0,0,.12-.9v-.13a3.19,3.19,0,0,0-.12-.89,2.19,2.19,0,0,0-.34-.74,1.74,1.74,0,0,0-.56-.52,1.68,1.68,0,0,0-.79-.19,1.64,1.64,0,0,0-.78.19,1.77,1.77,0,0,0-.57.52,2.38,2.38,0,0,0-.33.74A3.62,3.62,0,0,0,144.9,112.1Zm7.66,3.23h-1.08v-7a2.36,2.36,0,0,1,.25-1.15,1.57,1.57,0,0,1,.72-.72,2.39,2.39,0,0,1,1.11-.24,2.3,2.3,0,0,1,.37,0l.38.07-.06.88-.28,0h-.31a1.22,1.22,0,0,0-.59.14.92.92,0,0,0-.38.4,1.57,1.57,0,0,0-.13.65Zm1.35-6.34v.83h-3.43V109ZM29.45,129.33H27.66l0-.92h1.77A2.86,2.86,0,0,0,31,128a2.35,2.35,0,0,0,.91-1.08,3.92,3.92,0,0,0,.31-1.63v-.52a4.31,4.31,0,0,0-.17-1.3,2.65,2.65,0,0,0-.52-1,2.19,2.19,0,0,0-.83-.6,2.8,2.8,0,0,0-1.12-.21H27.63v-.92h1.92a4,4,0,0,1,1.53.28,3.25,3.25,0,0,1,1.19.8,3.46,3.46,0,0,1,.77,1.27,4.78,4.78,0,0,1,.27,1.66v.51A4.84,4.84,0,0,1,33,127a3.53,3.53,0,0,1-.78,1.26,3.24,3.24,0,0,1-1.21.8A4.3,4.3,0,0,1,29.45,129.33Zm-1.18-8.53v8.53H27.14V120.8Zm9.21,8.65a3.09,3.09,0,0,1-1.2-.23,2.69,2.69,0,0,1-.92-.63,2.85,2.85,0,0,1-.59-1,3.69,3.69,0,0,1-.2-1.23v-.24a3.7,3.7,0,0,1,.23-1.38,2.87,2.87,0,0,1,.62-1,2.62,2.62,0,0,1,.89-.64,2.45,2.45,0,0,1,1-.22,2.66,2.66,0,0,1,1.17.24,2.07,2.07,0,0,1,.81.65,2.67,2.67,0,0,1,.47,1A4.31,4.31,0,0,1,40,126v.48H35.21v-.88h3.65v-.08a2.55,2.55,0,0,0-.17-.82,1.51,1.51,0,0,0-.47-.66,1.4,1.4,0,0,0-.88-.26,1.55,1.55,0,0,0-.68.16,1.37,1.37,0,0,0-.53.46,2.21,2.21,0,0,0-.35.74,3.91,3.91,0,0,0-.12,1v.24a2.91,2.91,0,0,0,.12.85,2.29,2.29,0,0,0,.37.69,1.68,1.68,0,0,0,.59.47,1.74,1.74,0,0,0,.8.17,2,2,0,0,0,1-.23,2.46,2.46,0,0,0,.7-.63l.65.52a2.59,2.59,0,0,1-.52.59,2.48,2.48,0,0,1-.78.46A2.91,2.91,0,0,1,37.48,129.45Zm4.91-9.12v9H41.3v-9Zm2.82,0v9H44.13v-9ZM45,125.92l-.46,0a3.87,3.87,0,0,1,.2-1.2,2.94,2.94,0,0,1,.53-1,2.33,2.33,0,0,1,.8-.63,2.45,2.45,0,0,1,1-.23,2.76,2.76,0,0,1,.85.13,1.58,1.58,0,0,1,.64.4,2,2,0,0,1,.41.71,3.65,3.65,0,0,1,.14,1.07v4.15H48v-4.17a1.76,1.76,0,0,0-.15-.79.88.88,0,0,0-.43-.44,1.47,1.47,0,0,0-.69-.14A1.52,1.52,0,0,0,46,124a1.71,1.71,0,0,0-.57.47,2.33,2.33,0,0,0-.37.68A2.64,2.64,0,0,0,45,125.92Zm7-2.93v6.34H50.83V123Zm-1.18-1.68a.69.69,0,0,1,.16-.45.73.73,0,0,1,1,0,.64.64,0,0,1,.17.45.67.67,0,0,1-1.13.43A.65.65,0,0,1,50.74,121.31Zm7,2.68v5.34H56.63V123h1.06Zm2-1v1a1.15,1.15,0,0,0-.26,0h-.27a1.69,1.69,0,0,0-.66.11,1.37,1.37,0,0,0-.48.33,1.53,1.53,0,0,0-.32.5,3.15,3.15,0,0,0-.15.64l-.3.17a5.17,5.17,0,0,1,.11-1.07,3,3,0,0,1,.36-.9,1.71,1.71,0,0,1,1.5-.83l.27,0A1.07,1.07,0,0,1,59.7,123Zm3.51,6.5a3.09,3.09,0,0,1-1.2-.23,2.79,2.79,0,0,1-.92-.63,2.83,2.83,0,0,1-.58-1,3.45,3.45,0,0,1-.21-1.23v-.24a3.91,3.91,0,0,1,.23-1.38,3,3,0,0,1,.62-1,2.62,2.62,0,0,1,.89-.64,2.48,2.48,0,0,1,1-.22,2.6,2.6,0,0,1,1.17.24,2,2,0,0,1,.82.65,2.84,2.84,0,0,1,.47,1,4.71,4.71,0,0,1,.15,1.23v.48H61v-.88H64.6v-.08a2.87,2.87,0,0,0-.18-.82A1.43,1.43,0,0,0,64,124a1.38,1.38,0,0,0-.88-.26,1.58,1.58,0,0,0-.68.16,1.53,1.53,0,0,0-.53.46,2.42,2.42,0,0,0-.35.74,3.91,3.91,0,0,0-.12,1v.24a2.91,2.91,0,0,0,.12.85,2.29,2.29,0,0,0,.37.69,1.72,1.72,0,0,0,.6.47,1.7,1.7,0,0,0,.79.17,1.93,1.93,0,0,0,1-.23,2.46,2.46,0,0,0,.7-.63l.66.52a2.86,2.86,0,0,1-.52.59,2.48,2.48,0,0,1-.78.46A3,3,0,0,1,63.21,129.45Zm6.27-.89a1.73,1.73,0,0,0,.72-.16,1.46,1.46,0,0,0,.54-.44,1.19,1.19,0,0,0,.24-.63h1a2,2,0,0,1-.38,1,2.66,2.66,0,0,1-.91.78,2.61,2.61,0,0,1-1.24.3,2.83,2.83,0,0,1-1.24-.26,2.22,2.22,0,0,1-.88-.69,3.2,3.2,0,0,1-.53-1,4.44,4.44,0,0,1-.17-1.22V126a4.31,4.31,0,0,1,.17-1.21,3.14,3.14,0,0,1,.53-1,2.34,2.34,0,0,1,.88-.7,3,3,0,0,1,1.24-.25,2.58,2.58,0,0,1,1.3.31,2.24,2.24,0,0,1,.88.82,2.4,2.4,0,0,1,.35,1.17H71a1.57,1.57,0,0,0-.23-.71,1.29,1.29,0,0,0-.51-.5,1.46,1.46,0,0,0-.76-.2,1.62,1.62,0,0,0-.83.2,1.45,1.45,0,0,0-.54.53,2.46,2.46,0,0,0-.28.73,4.47,4.47,0,0,0-.08.82v.24a4.47,4.47,0,0,0,.08.82,2.52,2.52,0,0,0,.28.74,1.55,1.55,0,0,0,.53.52A1.68,1.68,0,0,0,69.48,128.56Zm3.46-2.33v-.13a4,4,0,0,1,.2-1.28,3,3,0,0,1,.57-1,2.65,2.65,0,0,1,.91-.68,3,3,0,0,1,2.4,0,2.56,2.56,0,0,1,.91.68,2.86,2.86,0,0,1,.58,1,3.78,3.78,0,0,1,.2,1.28v.13a3.72,3.72,0,0,1-.2,1.27,3,3,0,0,1-.58,1,2.69,2.69,0,0,1-.91.68,2.84,2.84,0,0,1-3.31-.68,3.14,3.14,0,0,1-.57-1A4,4,0,0,1,72.94,126.23ZM74,126.1v.13a3.26,3.26,0,0,0,.12.9,2.21,2.21,0,0,0,.33.73,1.61,1.61,0,0,0,1.36.7,1.5,1.5,0,0,0,.78-.19,1.6,1.6,0,0,0,.56-.51,2.21,2.21,0,0,0,.33-.73,3.26,3.26,0,0,0,.12-.9v-.13a3.19,3.19,0,0,0-.12-.89,2,2,0,0,0-.34-.74,1.55,1.55,0,0,0-.56-.52,1.61,1.61,0,0,0-.78-.19A1.68,1.68,0,0,0,75,124a1.74,1.74,0,0,0-.56.52,2.17,2.17,0,0,0-.33.74A3.19,3.19,0,0,0,74,126.1ZM84.18,123h1v6.2a2.78,2.78,0,0,1-.34,1.43,2.12,2.12,0,0,1-.95.9,2.94,2.94,0,0,1-1.39.31,3.32,3.32,0,0,1-.77-.1,3.24,3.24,0,0,1-.87-.35,2.2,2.2,0,0,1-.71-.65l.57-.64a2.16,2.16,0,0,0,.83.66,2.1,2.1,0,0,0,.87.19,1.91,1.91,0,0,0,.89-.19,1.35,1.35,0,0,0,.58-.58,1.87,1.87,0,0,0,.21-.92v-4.87Zm-4.37,3.24v-.12a4.86,4.86,0,0,1,.17-1.32,3.41,3.41,0,0,1,.5-1,2.28,2.28,0,0,1,1.84-.89,2.44,2.44,0,0,1,1,.21,2,2,0,0,1,.76.61,3,3,0,0,1,.5,1,6.24,6.24,0,0,1,.25,1.26v.53a5.62,5.62,0,0,1-.25,1.26,3,3,0,0,1-.5.95,2.11,2.11,0,0,1-.76.6,2.47,2.47,0,0,1-1.06.21,2.2,2.2,0,0,1-1-.24,2.4,2.4,0,0,1-.78-.68,3.25,3.25,0,0,1-.51-1A4.72,4.72,0,0,1,79.81,126.23Zm1.09-.12v.12a4.19,4.19,0,0,0,.09.89,2.54,2.54,0,0,0,.3.73,1.55,1.55,0,0,0,.52.5,1.5,1.5,0,0,0,.76.18,1.51,1.51,0,0,0,1.44-.84,3.62,3.62,0,0,0,.33-.81v-1.41a2.64,2.64,0,0,0-.2-.62,1.66,1.66,0,0,0-.34-.54,1.32,1.32,0,0,0-.51-.38,1.52,1.52,0,0,0-2,.55,2.49,2.49,0,0,0-.3.74A4.13,4.13,0,0,0,80.9,126.11Zm7-1.77v5H86.81V123h1Zm-.25,1.58-.46,0a3.87,3.87,0,0,1,.2-1.2,3.11,3.11,0,0,1,.52-1,2.38,2.38,0,0,1,1.86-.86,2.81,2.81,0,0,1,.85.13,1.48,1.48,0,0,1,.63.4,1.71,1.71,0,0,1,.41.71,3.32,3.32,0,0,1,.15,1.07v4.15H90.71v-4.17a1.76,1.76,0,0,0-.15-.79.88.88,0,0,0-.43-.44,1.47,1.47,0,0,0-.69-.14,1.52,1.52,0,0,0-.74.17,1.71,1.71,0,0,0-.57.47,2.33,2.33,0,0,0-.37.68A2.64,2.64,0,0,0,87.64,125.92Zm7-2.93v6.34H93.53V123Zm-1.17-1.68a.64.64,0,0,1,.16-.45.62.62,0,0,1,.48-.18.61.61,0,0,1,.47.18.64.64,0,0,1,.17.45.67.67,0,0,1-1.12.43A.6.6,0,0,1,93.45,121.31Zm6.6,6.34a1,1,0,0,0-.1-.44.91.91,0,0,0-.42-.36,3.14,3.14,0,0,0-.94-.3,6.81,6.81,0,0,1-1-.26,3,3,0,0,1-.72-.37,1.54,1.54,0,0,1-.45-.51,1.38,1.38,0,0,1-.16-.69,1.53,1.53,0,0,1,.16-.7,1.82,1.82,0,0,1,.48-.6,2.28,2.28,0,0,1,.74-.4,3,3,0,0,1,1-.15,2.9,2.9,0,0,1,1.3.27,2,2,0,0,1,.82.72,1.74,1.74,0,0,1,.29,1H100a1,1,0,0,0-.16-.51,1.2,1.2,0,0,0-.45-.41,1.47,1.47,0,0,0-.72-.17,1.74,1.74,0,0,0-.74.14,1,1,0,0,0-.4.35.88.88,0,0,0-.12.44.79.79,0,0,0,.06.32.63.63,0,0,0,.22.25,1.39,1.39,0,0,0,.44.21,5.44,5.44,0,0,0,.74.2,5.78,5.78,0,0,1,1.28.43,1.78,1.78,0,0,1,.75.6,1.54,1.54,0,0,1,.25.87,1.64,1.64,0,0,1-.18.76,1.68,1.68,0,0,1-.5.6,2.41,2.41,0,0,1-.77.38,3.45,3.45,0,0,1-1,.14,3,3,0,0,1-1.42-.3,2.17,2.17,0,0,1-.88-.78,1.83,1.83,0,0,1-.3-1h1.09a1.11,1.11,0,0,0,.26.71,1.28,1.28,0,0,0,.57.37,2.3,2.3,0,0,0,.68.11,2,2,0,0,0,.74-.12,1.08,1.08,0,0,0,.46-.32A.74.74,0,0,0,100.05,127.65Zm5.14,1.8a3.09,3.09,0,0,1-1.2-.23,2.69,2.69,0,0,1-.92-.63,3,3,0,0,1-.59-1,3.69,3.69,0,0,1-.2-1.23v-.24a3.7,3.7,0,0,1,.23-1.38,3,3,0,0,1,.62-1,2.62,2.62,0,0,1,.89-.64,2.45,2.45,0,0,1,1-.22,2.66,2.66,0,0,1,1.17.24,2.18,2.18,0,0,1,.82.65,2.82,2.82,0,0,1,.46,1,4.31,4.31,0,0,1,.16,1.23v.48h-4.74v-.88h3.65v-.08a2.55,2.55,0,0,0-.17-.82,1.51,1.51,0,0,0-.47-.66,1.4,1.4,0,0,0-.88-.26,1.55,1.55,0,0,0-.68.16,1.45,1.45,0,0,0-.53.46,2.21,2.21,0,0,0-.35.74,3.91,3.91,0,0,0-.12,1v.24a2.91,2.91,0,0,0,.12.85,2.29,2.29,0,0,0,.37.69,1.68,1.68,0,0,0,.59.47,1.74,1.74,0,0,0,.8.17,1.93,1.93,0,0,0,1-.23,2.46,2.46,0,0,0,.7-.63l.65.52a2.59,2.59,0,0,1-.52.59,2.48,2.48,0,0,1-.78.46A2.91,2.91,0,0,1,105.19,129.45Zm7.73-1.35v-7.77H114v9h-1Zm-4.27-1.87v-.12a4.48,4.48,0,0,1,.18-1.32,3.2,3.2,0,0,1,.51-1,2.24,2.24,0,0,1,.79-.65,2.2,2.2,0,0,1,1-.24,2.38,2.38,0,0,1,1,.21,2.07,2.07,0,0,1,.77.61,2.94,2.94,0,0,1,.49,1,6.22,6.22,0,0,1,.26,1.26v.53a5.6,5.6,0,0,1-.26,1.26,2.94,2.94,0,0,1-.49.95,2.15,2.15,0,0,1-.77.6,2.46,2.46,0,0,1-1,.21,2.19,2.19,0,0,1-1-.24,2.33,2.33,0,0,1-.79-.68,3.25,3.25,0,0,1-.51-1A4.35,4.35,0,0,1,108.65,126.23Zm1.09-.12v.12a3.62,3.62,0,0,0,.1.89,2.08,2.08,0,0,0,.3.73,1.55,1.55,0,0,0,.52.5,1.53,1.53,0,0,0,.76.18,1.57,1.57,0,0,0,.88-.23,1.67,1.67,0,0,0,.57-.61,3.18,3.18,0,0,0,.32-.81v-1.41a2.64,2.64,0,0,0-.2-.62,1.84,1.84,0,0,0-.34-.54,1.48,1.48,0,0,0-.51-.38,1.52,1.52,0,0,0-2,.55,2.06,2.06,0,0,0-.3.74A3.57,3.57,0,0,0,109.74,126.11Zm12.67,2.14V125a1.36,1.36,0,0,0-.15-.65,1,1,0,0,0-.45-.43,1.62,1.62,0,0,0-.74-.15,1.65,1.65,0,0,0-.72.14,1.19,1.19,0,0,0-.48.37.81.81,0,0,0-.17.49h-1.08a1.44,1.44,0,0,1,.18-.68,1.86,1.86,0,0,1,.5-.6,2.45,2.45,0,0,1,.8-.43,3.11,3.11,0,0,1,1-.17,2.92,2.92,0,0,1,1.22.24,1.8,1.8,0,0,1,.83.71,2.12,2.12,0,0,1,.3,1.17v3a4.06,4.06,0,0,0,.06.67,2.53,2.53,0,0,0,.17.62v.09h-1.13a1.8,1.8,0,0,1-.13-.5A4.13,4.13,0,0,1,122.41,128.25Zm.19-2.76v.76h-1.1a4.11,4.11,0,0,0-.82.07,1.9,1.9,0,0,0-.61.22,1,1,0,0,0-.38.37,1,1,0,0,0-.13.51,1.09,1.09,0,0,0,.14.54,1,1,0,0,0,.4.4,1.55,1.55,0,0,0,.68.14,1.82,1.82,0,0,0,.88-.21,1.91,1.91,0,0,0,.6-.52,1.2,1.2,0,0,0,.25-.59l.46.52a1.7,1.7,0,0,1-.22.55,2.81,2.81,0,0,1-.49.57,2.69,2.69,0,0,1-.71.45,2.34,2.34,0,0,1-.93.18,2.39,2.39,0,0,1-1.13-.26,1.88,1.88,0,0,1-.75-.67,1.72,1.72,0,0,1-.26-1,2,2,0,0,1,.19-.9,1.81,1.81,0,0,1,.58-.65,2.65,2.65,0,0,1,.9-.4,4.74,4.74,0,0,1,1.18-.13Zm6.29,2.16a1,1,0,0,0-.1-.44.91.91,0,0,0-.42-.36,3.14,3.14,0,0,0-.94-.3,6.81,6.81,0,0,1-1-.26,3,3,0,0,1-.72-.37,1.54,1.54,0,0,1-.45-.51,1.38,1.38,0,0,1-.16-.69,1.53,1.53,0,0,1,.16-.7,1.82,1.82,0,0,1,.48-.6,2.28,2.28,0,0,1,.74-.4,3,3,0,0,1,1-.15,2.9,2.9,0,0,1,1.3.27,2,2,0,0,1,.82.72,1.74,1.74,0,0,1,.29,1h-1.08a1,1,0,0,0-.16-.51,1.2,1.2,0,0,0-.45-.41,1.47,1.47,0,0,0-.72-.17,1.74,1.74,0,0,0-.74.14,1,1,0,0,0-.4.35.88.88,0,0,0-.12.44.79.79,0,0,0,.06.32.63.63,0,0,0,.22.25,1.39,1.39,0,0,0,.44.21,5.06,5.06,0,0,0,.74.2,5.78,5.78,0,0,1,1.28.43,1.78,1.78,0,0,1,.75.6,1.54,1.54,0,0,1,.25.87,1.64,1.64,0,0,1-.18.76,1.68,1.68,0,0,1-.5.6,2.41,2.41,0,0,1-.77.38,3.45,3.45,0,0,1-1,.14,3,3,0,0,1-1.42-.3,2.17,2.17,0,0,1-.88-.78,1.83,1.83,0,0,1-.3-1H126a1.11,1.11,0,0,0,.26.71,1.28,1.28,0,0,0,.57.37,2.3,2.3,0,0,0,.68.11,2,2,0,0,0,.74-.12,1.08,1.08,0,0,0,.46-.32A.74.74,0,0,0,128.89,127.65ZM137,123v.83H133.6V123Zm-2.27-1.54h1.09v6.31a.94.94,0,0,0,.1.49.46.46,0,0,0,.25.21,1,1,0,0,0,.34.06,1.33,1.33,0,0,0,.28,0l.23-.05v.89l-.34.08a3.37,3.37,0,0,1-.5,0,1.77,1.77,0,0,1-.73-.16,1.18,1.18,0,0,1-.53-.53,2.18,2.18,0,0,1-.2-1Zm4.63-1.12v9H138.3v-9Zm-.26,5.59-.45,0a3.59,3.59,0,0,1,.19-1.2,2.94,2.94,0,0,1,.53-1,2.28,2.28,0,0,1,.81-.63,2.37,2.37,0,0,1,1-.23,2.76,2.76,0,0,1,.85.13,1.58,1.58,0,0,1,.64.4,1.82,1.82,0,0,1,.41.71,3.65,3.65,0,0,1,.14,1.07v4.15H142.2v-4.17a1.76,1.76,0,0,0-.15-.79.88.88,0,0,0-.43-.44,1.41,1.41,0,0,0-.69-.14,1.55,1.55,0,0,0-.74.17,1.78,1.78,0,0,0-.56.47,2.12,2.12,0,0,0-.37.68A2.37,2.37,0,0,0,139.13,125.92Zm8.41,3.53a3.09,3.09,0,0,1-1.2-.23,2.79,2.79,0,0,1-.92-.63,3,3,0,0,1-.59-1,3.69,3.69,0,0,1-.2-1.23v-.24a3.91,3.91,0,0,1,.23-1.38,3,3,0,0,1,.62-1,2.62,2.62,0,0,1,.89-.64,2.48,2.48,0,0,1,1-.22,2.66,2.66,0,0,1,1.17.24,2.1,2.1,0,0,1,.82.65,3,3,0,0,1,.47,1A4.71,4.71,0,0,1,150,126v.48h-4.74v-.88h3.65v-.08a2.55,2.55,0,0,0-.17-.82,1.51,1.51,0,0,0-.47-.66,1.38,1.38,0,0,0-.88-.26,1.55,1.55,0,0,0-.68.16,1.45,1.45,0,0,0-.53.46,2.21,2.21,0,0,0-.35.74,3.91,3.91,0,0,0-.12,1v.24a2.91,2.91,0,0,0,.12.85,2.29,2.29,0,0,0,.37.69,1.78,1.78,0,0,0,.59.47,1.74,1.74,0,0,0,.8.17,1.93,1.93,0,0,0,1-.23,2.46,2.46,0,0,0,.7-.63l.66.52a2.65,2.65,0,0,1-.53.59,2.54,2.54,0,0,1-.77.46A3,3,0,0,1,147.54,129.45ZM20.16,134.33h1.09v7.77l-.1,1.23h-1Zm5.37,5.78v.12a4.72,4.72,0,0,1-.16,1.28,3.21,3.21,0,0,1-.48,1,2.21,2.21,0,0,1-.78.68,2.19,2.19,0,0,1-1,.24,2.55,2.55,0,0,1-1.07-.21,2.11,2.11,0,0,1-.76-.6,3.41,3.41,0,0,1-.5-.95,6.24,6.24,0,0,1-.25-1.26v-.53a6.24,6.24,0,0,1,.25-1.26,3.41,3.41,0,0,1,.5-.95,2,2,0,0,1,.76-.61,2.49,2.49,0,0,1,1.05-.21,2.24,2.24,0,0,1,1.06.24,2.13,2.13,0,0,1,.78.65,3.16,3.16,0,0,1,.48,1A4.87,4.87,0,0,1,25.53,140.11Zm-1.09.12v-.12a4.13,4.13,0,0,0-.09-.89,2,2,0,0,0-.28-.74,1.46,1.46,0,0,0-.51-.51,1.55,1.55,0,0,0-.78-.18,1.58,1.58,0,0,0-.71.14,1.48,1.48,0,0,0-.51.38,1.86,1.86,0,0,0-.35.54,3.19,3.19,0,0,0-.19.62v1.41a2.92,2.92,0,0,0,.3.79,1.91,1.91,0,0,0,.58.62,1.59,1.59,0,0,0,.9.24,1.49,1.49,0,0,0,.75-.18,1.44,1.44,0,0,0,.51-.5,2.28,2.28,0,0,0,.29-.73A4.19,4.19,0,0,0,24.44,140.23Zm5.09,3.22a3.09,3.09,0,0,1-1.2-.23,2.79,2.79,0,0,1-.92-.63,2.83,2.83,0,0,1-.58-1,3.45,3.45,0,0,1-.21-1.23v-.24a3.91,3.91,0,0,1,.23-1.38,3,3,0,0,1,.62-1,2.62,2.62,0,0,1,.89-.64,2.48,2.48,0,0,1,1-.22,2.67,2.67,0,0,1,1.18.24,2.07,2.07,0,0,1,.81.65,2.84,2.84,0,0,1,.47,1A4.71,4.71,0,0,1,32,140v.48H27.27v-.88h3.65v-.08a2.87,2.87,0,0,0-.18-.82,1.43,1.43,0,0,0-.47-.66,1.38,1.38,0,0,0-.88-.26,1.58,1.58,0,0,0-.68.16,1.53,1.53,0,0,0-.53.46,2.42,2.42,0,0,0-.35.74,3.91,3.91,0,0,0-.12,1v.24a2.91,2.91,0,0,0,.12.85,2.29,2.29,0,0,0,.37.69,1.82,1.82,0,0,0,.6.47,1.7,1.7,0,0,0,.79.17,2,2,0,0,0,1-.23,2.57,2.57,0,0,0,.69-.63l.66.52a2.86,2.86,0,0,1-.52.59,2.48,2.48,0,0,1-.78.46A3,3,0,0,1,29.53,143.45Zm7.43-1.8a1,1,0,0,0-.11-.44.83.83,0,0,0-.41-.36,3.14,3.14,0,0,0-.94-.3,7.38,7.38,0,0,1-1-.26,3,3,0,0,1-.72-.37,1.8,1.8,0,0,1-.45-.51,1.49,1.49,0,0,1-.16-.69,1.54,1.54,0,0,1,.17-.7,1.92,1.92,0,0,1,.47-.6,2.44,2.44,0,0,1,.75-.4,2.93,2.93,0,0,1,1-.15,2.87,2.87,0,0,1,1.3.27,2,2,0,0,1,.83.72,1.82,1.82,0,0,1,.29,1H36.89a1,1,0,0,0-.15-.51,1.32,1.32,0,0,0-.46-.41,1.42,1.42,0,0,0-.72-.17,1.69,1.69,0,0,0-.73.14.93.93,0,0,0-.4.35.8.8,0,0,0-.13.44.79.79,0,0,0,.06.32.72.72,0,0,0,.22.25,1.58,1.58,0,0,0,.45.21,5.26,5.26,0,0,0,.73.2,5.88,5.88,0,0,1,1.29.43,1.92,1.92,0,0,1,.75.6,1.53,1.53,0,0,1,.24.87,1.76,1.76,0,0,1-.17.76,1.79,1.79,0,0,1-.5.6,2.47,2.47,0,0,1-.78.38,3.4,3.4,0,0,1-1,.14,3.07,3.07,0,0,1-1.42-.3,2.14,2.14,0,0,1-.87-.78,1.83,1.83,0,0,1-.3-1h1.09a1.1,1.1,0,0,0,.25.71,1.32,1.32,0,0,0,.58.37,2.29,2.29,0,0,0,.67.11,2,2,0,0,0,.75-.12,1.15,1.15,0,0,0,.46-.32A.81.81,0,0,0,37,141.65ZM42.12,137v.83H38.69V137Zm-2.27-1.54h1.09v6.31a.94.94,0,0,0,.1.49.46.46,0,0,0,.25.21,1,1,0,0,0,.34.06,1.33,1.33,0,0,0,.28,0l.23-.05v.89l-.34.08a3.37,3.37,0,0,1-.5,0,1.77,1.77,0,0,1-.73-.16,1.18,1.18,0,0,1-.53-.53,2.18,2.18,0,0,1-.2-1Zm9.15,8a3.09,3.09,0,0,1-1.2-.23,2.69,2.69,0,0,1-.92-.63,2.85,2.85,0,0,1-.59-1,3.45,3.45,0,0,1-.2-1.23v-.24a3.7,3.7,0,0,1,.23-1.38,2.87,2.87,0,0,1,.62-1,2.53,2.53,0,0,1,.89-.64,2.45,2.45,0,0,1,1-.22,2.66,2.66,0,0,1,1.17.24,2.07,2.07,0,0,1,.81.65,2.67,2.67,0,0,1,.47,1,4.7,4.7,0,0,1,.16,1.23v.48H46.73v-.88h3.65v-.08a2.55,2.55,0,0,0-.17-.82,1.51,1.51,0,0,0-.47-.66,1.4,1.4,0,0,0-.88-.26,1.55,1.55,0,0,0-.68.16,1.37,1.37,0,0,0-.53.46,2.21,2.21,0,0,0-.35.74,3.91,3.91,0,0,0-.12,1v.24a2.91,2.91,0,0,0,.12.85,2.29,2.29,0,0,0,.37.69,1.68,1.68,0,0,0,.59.47,1.71,1.71,0,0,0,.8.17,2,2,0,0,0,1-.23,2.46,2.46,0,0,0,.7-.63l.65.52a2.59,2.59,0,0,1-.52.59,2.48,2.48,0,0,1-.78.46A2.91,2.91,0,0,1,49,143.45Zm6-4.19v.89H52.13v-.89ZM60.15,137h1v6.2a2.78,2.78,0,0,1-.34,1.43,2.17,2.17,0,0,1-.95.9,3,3,0,0,1-1.39.31,3.47,3.47,0,0,1-.78-.1,3.31,3.31,0,0,1-.86-.35,2.11,2.11,0,0,1-.71-.65l.56-.64a2.26,2.26,0,0,0,.84.66,2.09,2.09,0,0,0,.86.19,1.89,1.89,0,0,0,.89-.19,1.3,1.3,0,0,0,.58-.58,1.77,1.77,0,0,0,.22-.92v-4.87Zm-4.36,3.24v-.12a4.86,4.86,0,0,1,.17-1.32,3.19,3.19,0,0,1,.5-1,2.24,2.24,0,0,1,.79-.65,2.21,2.21,0,0,1,1-.24,2.38,2.38,0,0,1,1,.21,2,2,0,0,1,.77.61,2.94,2.94,0,0,1,.49.95,5.6,5.6,0,0,1,.26,1.26v.53a5.6,5.6,0,0,1-.26,1.26,2.94,2.94,0,0,1-.49.95,2.06,2.06,0,0,1-.77.6,2.46,2.46,0,0,1-1,.21,2.2,2.2,0,0,1-1-.24,2.33,2.33,0,0,1-.79-.68,3.24,3.24,0,0,1-.5-1A4.72,4.72,0,0,1,55.79,140.23Zm1.08-.12v.12a3.62,3.62,0,0,0,.1.89,2.08,2.08,0,0,0,.3.73,1.46,1.46,0,0,0,.52.5,1.49,1.49,0,0,0,.75.18,1.61,1.61,0,0,0,.89-.23,1.64,1.64,0,0,0,.56-.61,3.62,3.62,0,0,0,.33-.81v-1.41a2.64,2.64,0,0,0-.2-.62,1.84,1.84,0,0,0-.34-.54,1.48,1.48,0,0,0-.51-.38,1.58,1.58,0,0,0-.71-.14,1.54,1.54,0,0,0-.77.18,1.49,1.49,0,0,0-.52.51,2.06,2.06,0,0,0-.3.74A3.57,3.57,0,0,0,56.87,140.11Zm5.63.12v-.13a4,4,0,0,1,.2-1.28,3,3,0,0,1,.57-1,2.56,2.56,0,0,1,.91-.68,2.74,2.74,0,0,1,1.2-.25,2.77,2.77,0,0,1,1.2.25,2.56,2.56,0,0,1,.91.68,3,3,0,0,1,.58,1,4,4,0,0,1,.2,1.28v.13a4,4,0,0,1-.2,1.27,3.16,3.16,0,0,1-.58,1,2.69,2.69,0,0,1-.91.68,2.84,2.84,0,0,1-3.31-.68,3.14,3.14,0,0,1-.57-1A4,4,0,0,1,62.5,140.23Zm1.08-.13v.13a3.7,3.7,0,0,0,.11.9,2.45,2.45,0,0,0,.34.73,1.68,1.68,0,0,0,2.14.51,1.6,1.6,0,0,0,.56-.51,2.21,2.21,0,0,0,.33-.73,3.26,3.26,0,0,0,.12-.9v-.13a3.19,3.19,0,0,0-.12-.89,2,2,0,0,0-.34-.74,1.64,1.64,0,0,0-.56-.52,1.61,1.61,0,0,0-.78-.19,1.68,1.68,0,0,0-.79.19,1.74,1.74,0,0,0-.56.52,2.4,2.4,0,0,0-.34.74A3.62,3.62,0,0,0,63.58,140.1Zm7.88,2.25L73.2,137h1.11L72,143.33H71.3ZM70,137l1.78,5.39.13,1H71.2L68.9,137Zm7.88,6.46a3.09,3.09,0,0,1-1.2-.23,2.6,2.6,0,0,1-.92-.63,2.85,2.85,0,0,1-.59-1,3.45,3.45,0,0,1-.2-1.23v-.24a3.92,3.92,0,0,1,.22-1.38,3.18,3.18,0,0,1,.62-1,2.66,2.66,0,0,1,.9-.64,2.45,2.45,0,0,1,1-.22,2.66,2.66,0,0,1,1.17.24,2.07,2.07,0,0,1,.81.65,2.84,2.84,0,0,1,.47,1,4.71,4.71,0,0,1,.15,1.23v.48H75.63v-.88h3.65v-.08a2.57,2.57,0,0,0-.18-.82,1.42,1.42,0,0,0-.46-.66,1.4,1.4,0,0,0-.88-.26,1.51,1.51,0,0,0-.68.16,1.48,1.48,0,0,0-.54.46,2.41,2.41,0,0,0-.34.74,3.89,3.89,0,0,0-.13,1v.24a2.91,2.91,0,0,0,.13.85,2.09,2.09,0,0,0,.37.69,1.68,1.68,0,0,0,.59.47,1.71,1.71,0,0,0,.8.17,2,2,0,0,0,1-.23,2.6,2.6,0,0,0,.7-.63l.65.52a2.59,2.59,0,0,1-.52.59,2.48,2.48,0,0,1-.78.46A2.91,2.91,0,0,1,77.9,143.45ZM82.71,138v5.34H81.63V137h1.05Zm2-1v1l-.26,0h-.27a1.69,1.69,0,0,0-.66.11,1.4,1.4,0,0,0-.8.83,2.22,2.22,0,0,0-.15.64l-.31.17a4.55,4.55,0,0,1,.12-1.07,2.77,2.77,0,0,1,.35-.9,1.75,1.75,0,0,1,.61-.6,1.71,1.71,0,0,1,.89-.23l.27,0A1.07,1.07,0,0,1,84.69,137Zm2.09,1.39v5H85.7V137h1Zm-.26,1.58-.45,0a3.87,3.87,0,0,1,.19-1.2,3.36,3.36,0,0,1,.53-1,2.38,2.38,0,0,1,1.86-.86,2.74,2.74,0,0,1,.84.13,1.52,1.52,0,0,1,.64.4,1.71,1.71,0,0,1,.41.71,3.35,3.35,0,0,1,.14,1.07v4.15H89.59v-4.17a1.93,1.93,0,0,0-.14-.79.88.88,0,0,0-.43-.44,1.47,1.47,0,0,0-.69-.14,1.52,1.52,0,0,0-.74.17,1.71,1.71,0,0,0-.57.47,2.12,2.12,0,0,0-.37.68A2.64,2.64,0,0,0,86.52,139.92Zm9.55,2.33V139a1.25,1.25,0,0,0-.16-.65.92.92,0,0,0-.44-.43,1.91,1.91,0,0,0-1.46,0,1.19,1.19,0,0,0-.48.37.81.81,0,0,0-.17.49H92.28a1.43,1.43,0,0,1,.17-.68,2,2,0,0,1,.51-.6,2.4,2.4,0,0,1,.79-.43,3.17,3.17,0,0,1,1-.17,2.87,2.87,0,0,1,1.21.24,1.77,1.77,0,0,1,.84.71,2.12,2.12,0,0,1,.3,1.17v3a5.43,5.43,0,0,0,0,.67,3.07,3.07,0,0,0,.17.62v.09H96.24a3,3,0,0,1-.13-.5A4,4,0,0,1,96.07,142.25Zm.18-2.76,0,.76h-1.1a4.21,4.21,0,0,0-.83.07,1.83,1.83,0,0,0-.6.22,1,1,0,0,0-.38.37.92.92,0,0,0-.13.51,1.09,1.09,0,0,0,.14.54,1,1,0,0,0,.4.4,1.51,1.51,0,0,0,.67.14,1.76,1.76,0,0,0,.88-.21,1.85,1.85,0,0,0,.61-.52,1.09,1.09,0,0,0,.24-.59l.47.52a1.75,1.75,0,0,1-.23.55,2.74,2.74,0,0,1-.48.57,2.59,2.59,0,0,1-.72.45,2.25,2.25,0,0,1-.92.18,2.46,2.46,0,0,1-1.14-.26,1.88,1.88,0,0,1-.75-.67,1.81,1.81,0,0,1-.26-1,2,2,0,0,1,.2-.9,1.69,1.69,0,0,1,.57-.65,2.7,2.7,0,0,1,.91-.4,4.71,4.71,0,0,1,1.17-.13Zm3.69-1.15v5H98.86V137h1Zm-.26,1.58-.45,0a4.19,4.19,0,0,1,.19-1.2,3.36,3.36,0,0,1,.53-1,2.38,2.38,0,0,1,1.86-.86,2.74,2.74,0,0,1,.84.13,1.52,1.52,0,0,1,.64.4,1.71,1.71,0,0,1,.41.71,3.35,3.35,0,0,1,.14,1.07v4.15h-1.09v-4.17a1.93,1.93,0,0,0-.14-.79.88.88,0,0,0-.43-.44,1.47,1.47,0,0,0-.69-.14,1.52,1.52,0,0,0-.74.17,1.71,1.71,0,0,0-.57.47,2.12,2.12,0,0,0-.37.68A2.64,2.64,0,0,0,99.68,139.92Zm8.35,2.64a1.71,1.71,0,0,0,.71-.16,1.46,1.46,0,0,0,.54-.44,1.19,1.19,0,0,0,.24-.63h1a2,2,0,0,1-.38,1,2.57,2.57,0,0,1-.91.78,2.54,2.54,0,0,1-1.23.3,2.84,2.84,0,0,1-1.25-.26,2.3,2.3,0,0,1-.88-.69,3,3,0,0,1-.52-1,4.09,4.09,0,0,1-.17-1.22V140a4,4,0,0,1,.17-1.21,2.94,2.94,0,0,1,.52-1,2.42,2.42,0,0,1,.88-.7,3,3,0,0,1,1.25-.25,2.6,2.6,0,0,1,1.3.31,2.22,2.22,0,0,1,.87.82,2.4,2.4,0,0,1,.35,1.17h-1a1.56,1.56,0,0,0-.22-.71,1.5,1.5,0,0,0-1.27-.7,1.63,1.63,0,0,0-.84.2,1.61,1.61,0,0,0-.54.53,2.77,2.77,0,0,0-.28.73,4.47,4.47,0,0,0-.08.82v.24a4.47,4.47,0,0,0,.08.82,2.52,2.52,0,0,0,.28.74,1.55,1.55,0,0,0,.53.52A1.7,1.7,0,0,0,108,142.56Zm6.37.89a3.09,3.09,0,0,1-1.2-.23,2.69,2.69,0,0,1-.92-.63,3,3,0,0,1-.59-1,3.69,3.69,0,0,1-.2-1.23v-.24a3.91,3.91,0,0,1,.23-1.38,3,3,0,0,1,.62-1,2.62,2.62,0,0,1,.89-.64,2.45,2.45,0,0,1,1-.22,2.66,2.66,0,0,1,1.17.24,2.1,2.1,0,0,1,.82.65,3,3,0,0,1,.47,1,4.71,4.71,0,0,1,.15,1.23v.48h-4.74v-.88h3.65v-.08a2.55,2.55,0,0,0-.17-.82,1.51,1.51,0,0,0-.47-.66,1.4,1.4,0,0,0-.88-.26,1.55,1.55,0,0,0-.68.16,1.45,1.45,0,0,0-.53.46,2.21,2.21,0,0,0-.35.74,3.91,3.91,0,0,0-.12,1v.24a2.91,2.91,0,0,0,.12.85,2.29,2.29,0,0,0,.37.69,1.78,1.78,0,0,0,.59.47,1.74,1.74,0,0,0,.8.17,1.93,1.93,0,0,0,1-.23,2.46,2.46,0,0,0,.7-.63l.66.52a2.65,2.65,0,0,1-.53.59,2.54,2.54,0,0,1-.77.46A3,3,0,0,1,114.4,143.45Zm7.79-5.24v7.56H121.1V137h1Zm4.28,1.9v.12a4.72,4.72,0,0,1-.17,1.28,3.21,3.21,0,0,1-.48,1,2.13,2.13,0,0,1-1.82.92,2.71,2.71,0,0,1-1.06-.2,2.28,2.28,0,0,1-.79-.58,3.13,3.13,0,0,1-.51-.92,5.06,5.06,0,0,1-.26-1.2v-.65a5.6,5.6,0,0,1,.26-1.26,3.18,3.18,0,0,1,.51-.95,2.18,2.18,0,0,1,.78-.61,2.54,2.54,0,0,1,1.06-.21,2.27,2.27,0,0,1,1.06.24,2.13,2.13,0,0,1,.78.65,3,3,0,0,1,.47,1A4.86,4.86,0,0,1,126.47,140.11Zm-1.09.12v-.12a4.11,4.11,0,0,0-.1-.89,2.26,2.26,0,0,0-.31-.74,1.61,1.61,0,0,0-.53-.51,1.8,1.8,0,0,0-1.48,0,1.48,1.48,0,0,0-.51.38,1.86,1.86,0,0,0-.35.54,2.62,2.62,0,0,0-.19.62V141a3.09,3.09,0,0,0,.33.77,1.64,1.64,0,0,0,.56.58,1.69,1.69,0,0,0,.88.22,1.41,1.41,0,0,0,.76-.19,1.52,1.52,0,0,0,.53-.51,2.4,2.4,0,0,0,.31-.73A4.28,4.28,0,0,0,125.38,140.23Zm3.55-2.24v5.34h-1.08V137h1.05Zm2-1v1l-.26,0h-.27a1.69,1.69,0,0,0-.66.11,1.41,1.41,0,0,0-.49.33,1.71,1.71,0,0,0-.32.5,2.6,2.6,0,0,0-.14.64l-.31.17a5.17,5.17,0,0,1,.11-1.07,3,3,0,0,1,.36-.9,1.75,1.75,0,0,1,.61-.6,1.71,1.71,0,0,1,.89-.23l.27,0A1.07,1.07,0,0,1,130.91,137Zm.6,3.28v-.13a4,4,0,0,1,.2-1.28,3,3,0,0,1,.57-1,2.65,2.65,0,0,1,.91-.68,3,3,0,0,1,2.4,0,2.56,2.56,0,0,1,.91.68,2.86,2.86,0,0,1,.58,1,3.78,3.78,0,0,1,.2,1.28v.13a3.72,3.72,0,0,1-.2,1.27,3,3,0,0,1-.58,1,2.69,2.69,0,0,1-.91.68,2.84,2.84,0,0,1-3.31-.68,3.14,3.14,0,0,1-.57-1A4,4,0,0,1,131.51,140.23Zm1.08-.13v.13a3.26,3.26,0,0,0,.12.9,2.21,2.21,0,0,0,.33.73,1.61,1.61,0,0,0,1.36.7,1.5,1.5,0,0,0,.78-.19,1.6,1.6,0,0,0,.56-.51,2.21,2.21,0,0,0,.33-.73,3.26,3.26,0,0,0,.12-.9v-.13a3.19,3.19,0,0,0-.12-.89,2.17,2.17,0,0,0-.33-.74,1.67,1.67,0,0,0-.57-.52,1.61,1.61,0,0,0-.78-.19,1.68,1.68,0,0,0-.79.19,1.74,1.74,0,0,0-.56.52,2.17,2.17,0,0,0-.33.74A3.19,3.19,0,0,0,132.59,140.1Zm6.08-3.11h1.09v7.1a2.26,2.26,0,0,1-.19,1,1.26,1.26,0,0,1-.55.61,1.82,1.82,0,0,1-.92.21l-.34,0a2.09,2.09,0,0,1-.33-.07v-.87l.26,0,.24,0a.86.86,0,0,0,.41-.09.51.51,0,0,0,.24-.28,1.23,1.23,0,0,0,.09-.51Zm-.11-1.68a.64.64,0,0,1,.16-.45.73.73,0,0,1,1,0,.64.64,0,0,1,.16.45.6.6,0,0,1-.16.43.73.73,0,0,1-1,0A.6.6,0,0,1,138.56,135.31Zm5.58,8.14a3.09,3.09,0,0,1-1.2-.23,2.79,2.79,0,0,1-.92-.63,2.83,2.83,0,0,1-.58-1,3.45,3.45,0,0,1-.21-1.23v-.24a3.91,3.91,0,0,1,.23-1.38,3,3,0,0,1,.62-1,2.62,2.62,0,0,1,.89-.64,2.48,2.48,0,0,1,1-.22,2.6,2.6,0,0,1,1.17.24,2,2,0,0,1,.82.65,2.84,2.84,0,0,1,.47,1,4.71,4.71,0,0,1,.15,1.23v.48h-4.73v-.88h3.65v-.08a2.87,2.87,0,0,0-.18-.82,1.43,1.43,0,0,0-.47-.66,1.38,1.38,0,0,0-.88-.26,1.58,1.58,0,0,0-.68.16,1.53,1.53,0,0,0-.53.46,2.42,2.42,0,0,0-.35.74,3.91,3.91,0,0,0-.12,1v.24a2.91,2.91,0,0,0,.12.85,2.29,2.29,0,0,0,.37.69,1.78,1.78,0,0,0,.59.47,1.74,1.74,0,0,0,.8.17,1.93,1.93,0,0,0,1-.23,2.46,2.46,0,0,0,.7-.63l.66.52a2.86,2.86,0,0,1-.52.59,2.48,2.48,0,0,1-.78.46A3,3,0,0,1,144.14,143.45Zm6.27-.89a1.73,1.73,0,0,0,.72-.16,1.46,1.46,0,0,0,.54-.44,1.19,1.19,0,0,0,.24-.63h1a2,2,0,0,1-.38,1,2.66,2.66,0,0,1-.91.78,2.61,2.61,0,0,1-1.24.3,2.91,2.91,0,0,1-1.25-.26,2.27,2.27,0,0,1-.87-.69,3.2,3.2,0,0,1-.53-1,4.44,4.44,0,0,1-.17-1.22V140a4.31,4.31,0,0,1,.17-1.21,3.14,3.14,0,0,1,.53-1,2.39,2.39,0,0,1,.87-.7,3.06,3.06,0,0,1,1.25-.25,2.58,2.58,0,0,1,1.3.31,2.24,2.24,0,0,1,.88.82,2.4,2.4,0,0,1,.35,1.17h-1a1.57,1.57,0,0,0-.23-.71,1.29,1.29,0,0,0-.51-.5,1.46,1.46,0,0,0-.76-.2,1.68,1.68,0,0,0-.84.2,1.5,1.5,0,0,0-.53.53,2.46,2.46,0,0,0-.28.73,4.47,4.47,0,0,0-.08.82v.24a4.47,4.47,0,0,0,.08.82,2.52,2.52,0,0,0,.28.74,1.55,1.55,0,0,0,.53.52A1.68,1.68,0,0,0,150.41,142.56Zm6.4-5.57v.83h-3.43V137Zm-2.27-1.54h1.09v6.31a.94.94,0,0,0,.1.49.45.45,0,0,0,.26.21.88.88,0,0,0,.33.06l.29,0,.22-.05v.89l-.34.08a3.37,3.37,0,0,1-.5,0,1.77,1.77,0,0,1-.73-.16,1.18,1.18,0,0,1-.53-.53,2.18,2.18,0,0,1-.2-1Z"></path><path class="cls-2" d="M81.85,95.08v1.25h-5V95.25l2.32-3a6.92,6.92,0,0,0,.55-.84,3.19,3.19,0,0,0,.29-.65,2.23,2.23,0,0,0,.08-.56,2.2,2.2,0,0,0-.1-.67,1,1,0,0,0-.29-.45.7.7,0,0,0-.47-.17.84.84,0,0,0-.57.2,1.17,1.17,0,0,0-.33.53,2.65,2.65,0,0,0-.11.77h-1.5a3.17,3.17,0,0,1,.3-1.38,2.33,2.33,0,0,1,2.23-1.37,2.5,2.5,0,0,1,1.28.29,1.84,1.84,0,0,1,.79.82,2.69,2.69,0,0,1,.28,1.28,3.09,3.09,0,0,1-.11.8,5.27,5.27,0,0,1-.31.8,7.74,7.74,0,0,1-.49.79c-.19.27-.4.54-.64.82l-1.29,1.8Zm5.93-3.75v1.44a6.8,6.8,0,0,1-.18,1.68,3.33,3.33,0,0,1-.5,1.14,2,2,0,0,1-.76.65,2.27,2.27,0,0,1-1,.21,2.64,2.64,0,0,1-.81-.13,2.17,2.17,0,0,1-.68-.41,2.45,2.45,0,0,1-.51-.72,4.3,4.3,0,0,1-.33-1,8.08,8.08,0,0,1-.11-1.39V91.33a7.28,7.28,0,0,1,.17-1.67,3.44,3.44,0,0,1,.51-1.14,1.86,1.86,0,0,1,.77-.63,2.24,2.24,0,0,1,1-.21,2.32,2.32,0,0,1,.8.13,1.9,1.9,0,0,1,.67.4,2.46,2.46,0,0,1,.52.71,3.79,3.79,0,0,1,.32,1A7.09,7.09,0,0,1,87.78,91.33ZM86.28,93V91.1c0-.32,0-.6,0-.84a3.65,3.65,0,0,0-.12-.61,1.3,1.3,0,0,0-.19-.41.78.78,0,0,0-.26-.23.72.72,0,0,0-.32-.08.69.69,0,0,0-.39.12.94.94,0,0,0-.29.37,2.73,2.73,0,0,0-.19.67,7.21,7.21,0,0,0-.06,1V93a7.31,7.31,0,0,0,0,.86,4,4,0,0,0,.12.62,1.64,1.64,0,0,0,.2.42.71.71,0,0,0,.25.24.72.72,0,0,0,.33.07.7.7,0,0,0,.38-.11.94.94,0,0,0,.3-.39,2.82,2.82,0,0,0,.17-.67A7.51,7.51,0,0,0,86.28,93Zm7.53-1.65v1.44a7.37,7.37,0,0,1-.17,1.68,3.53,3.53,0,0,1-.5,1.14,2,2,0,0,1-.76.65,2.31,2.31,0,0,1-1,.21,2.63,2.63,0,0,1-.8-.13,2.06,2.06,0,0,1-.68-.41,2.67,2.67,0,0,1-.52-.72,3.9,3.9,0,0,1-.32-1A7.13,7.13,0,0,1,89,92.77V91.33a6.72,6.72,0,0,1,.18-1.67,3.44,3.44,0,0,1,.5-1.14,1.92,1.92,0,0,1,.77-.63,2.31,2.31,0,0,1,1-.21,2.36,2.36,0,0,1,.8.13,2,2,0,0,1,.67.4,2.27,2.27,0,0,1,.51.71,3.46,3.46,0,0,1,.33,1A8,8,0,0,1,93.81,91.33ZM92.31,93V91.1a7,7,0,0,0,0-.84,3.65,3.65,0,0,0-.12-.61,1.3,1.3,0,0,0-.18-.41A.72.72,0,0,0,91.7,89a.68.68,0,0,0-.31-.08.65.65,0,0,0-.39.12.94.94,0,0,0-.29.37,2.06,2.06,0,0,0-.19.67,7,7,0,0,0-.07,1V93c0,.33,0,.61,0,.86a5.51,5.51,0,0,0,.13.62,1.65,1.65,0,0,0,.19.42.73.73,0,0,0,.26.24.68.68,0,0,0,.32.07.74.74,0,0,0,.39-.11.93.93,0,0,0,.29-.39,2.38,2.38,0,0,0,.18-.67A7.68,7.68,0,0,0,92.31,93Zm7.52,1a2.7,2.7,0,0,1-.32,1.35,2,2,0,0,1-.85.82,2.72,2.72,0,0,1-1.23.28,2.83,2.83,0,0,1-1.25-.28,2.12,2.12,0,0,1-.86-.82A2.7,2.7,0,0,1,95,94a2.76,2.76,0,0,1,.17-1,2.3,2.3,0,0,1,1.27-1.23,2.73,2.73,0,0,1,1-.17,2.57,2.57,0,0,1,1.25.3,2.12,2.12,0,0,1,.85.83A2.39,2.39,0,0,1,99.83,94Zm-1.51-.1a1.87,1.87,0,0,0-.11-.7,1,1,0,0,0-.31-.46.76.76,0,0,0-.49-.16.75.75,0,0,0-.48.16,1,1,0,0,0-.31.46,2.1,2.1,0,0,0-.11.7,2,2,0,0,0,.11.69,1,1,0,0,0,.31.44.79.79,0,0,0,.5.16.71.71,0,0,0,.48-.16.9.9,0,0,0,.31-.44A2,2,0,0,0,98.32,93.9Zm1.36-3.85a2.26,2.26,0,0,1-.29,1.15,2.07,2.07,0,0,1-.8.78,2.29,2.29,0,0,1-1.16.28A2.39,2.39,0,0,1,96.25,92a2.1,2.1,0,0,1-.81-.78,2.28,2.28,0,0,1-.29-1.15,2.56,2.56,0,0,1,.3-1.29,1.9,1.9,0,0,1,.8-.81,2.69,2.69,0,0,1,2.35,0,2,2,0,0,1,.8.81A2.67,2.67,0,0,1,99.68,90.05Zm-1.5.07a2,2,0,0,0-.09-.62,1,1,0,0,0-.25-.41.61.61,0,0,0-.42-.16.59.59,0,0,0-.41.15.94.94,0,0,0-.26.41,2.25,2.25,0,0,0,0,1.26,1,1,0,0,0,.25.42.65.65,0,0,0,.43.16.6.6,0,0,0,.41-.16,1,1,0,0,0,.25-.42A2,2,0,0,0,98.18,90.12Z"></path></svg>