<svg xmlns="http://www.w3.org/2000/svg" xmlns:xlink="http://www.w3.org/1999/xlink" id="Layer_1" data-name="Layer 1" viewBox="0 0 500 500"><defs><style>.cls-1{fill:none;}.cls-2{fill:#13191d;}.cls-3{fill:#fff;}.cls-4{fill:#55cdd5;}.cls-5{clip-path:url(#clip-path);}.cls-6{fill:#3f3d56;}.cls-7{fill:#e6e6e6;}.cls-8{fill:#44c1c9;}.cls-9{fill:#ccc;}.cls-10{fill:#2f2e41;}.cls-11{fill:#a0616a;}</style><clipPath id="clip-path"><rect class="cls-1" x="109.03" y="97.33" width="165" height="130"></rect></clipPath></defs><rect class="cls-2" x="85.03" y="73.33" width="329" height="240.33"></rect><path class="cls-3" d="M120.86,253.13a3.13,3.13,0,0,0-.24-1.25,2.38,2.38,0,0,0-.77-1,5.39,5.39,0,0,0-1.43-.82,17.71,17.71,0,0,0-2.23-.77,20,20,0,0,1-2.31-.79,8.27,8.27,0,0,1-1.77-1,4,4,0,0,1-1.11-1.31,3.85,3.85,0,0,1-.39-1.77,3.67,3.67,0,0,1,.43-1.79,4.15,4.15,0,0,1,1.18-1.4,5.74,5.74,0,0,1,1.82-.9,8,8,0,0,1,2.3-.32,6.66,6.66,0,0,1,3.1.68,5.18,5.18,0,0,1,2,1.84,4.78,4.78,0,0,1,.72,2.58h-1.44a3.76,3.76,0,0,0-.53-2,3.45,3.45,0,0,0-1.5-1.37,5.08,5.08,0,0,0-2.38-.51,5.71,5.71,0,0,0-2.36.44,3.22,3.22,0,0,0-1.44,1.14,2.7,2.7,0,0,0-.48,1.57,2.61,2.61,0,0,0,.23,1.12,2.87,2.87,0,0,0,.76,1,6.34,6.34,0,0,0,1.42.82,15.37,15.37,0,0,0,2.17.71,17.71,17.71,0,0,1,2.41.84,7.21,7.21,0,0,1,1.78,1,3.88,3.88,0,0,1,1.1,1.37,4.24,4.24,0,0,1,.38,1.83,3.9,3.9,0,0,1-.45,1.88,4.07,4.07,0,0,1-1.23,1.39,5.72,5.72,0,0,1-1.86.88,8.59,8.59,0,0,1-2.33.3,8.71,8.71,0,0,1-2.26-.29,7.11,7.11,0,0,1-2.07-.9,4.83,4.83,0,0,1-1.48-1.6,4.58,4.58,0,0,1-.56-2.32h1.43a3.53,3.53,0,0,0,.44,1.82,3.57,3.57,0,0,0,1.15,1.2,5.34,5.34,0,0,0,1.59.66,7.54,7.54,0,0,0,1.76.2,6.11,6.11,0,0,0,2.33-.4,3.45,3.45,0,0,0,1.54-1.11A2.76,2.76,0,0,0,120.86,253.13Zm12.36,1.27v-9.75h1.41v12.68h-1.35Zm.26-2.34.72,0a8.16,8.16,0,0,1-.28,2.21A4.74,4.74,0,0,1,133,256a3.84,3.84,0,0,1-1.54,1.16,5.68,5.68,0,0,1-2.29.41,5.41,5.41,0,0,1-1.7-.25,3.27,3.27,0,0,1-1.31-.85,3.93,3.93,0,0,1-.86-1.49,7.45,7.45,0,0,1-.29-2.21v-8.11h1.4v8.13a5.48,5.48,0,0,0,.22,1.7,2.88,2.88,0,0,0,.63,1.09,2.34,2.34,0,0,0,.94.59,3.78,3.78,0,0,0,1.14.17,4.37,4.37,0,0,0,2.43-.59,3.31,3.31,0,0,0,1.28-1.57A5.69,5.69,0,0,0,133.48,252.06Zm4.79-12.73h1.41v15.54l-.1,2.46h-1.31Zm10.23,11.54v.25a9.69,9.69,0,0,1-.33,2.6,6.35,6.35,0,0,1-.95,2.05,4.18,4.18,0,0,1-3.57,1.79,5.32,5.32,0,0,1-2-.35,4.34,4.34,0,0,1-1.5-1,5.19,5.19,0,0,1-1-1.56,8,8,0,0,1-.53-2v-3.13a9,9,0,0,1,.56-2.08,5.47,5.47,0,0,1,1-1.62,4.1,4.1,0,0,1,1.48-1,5.07,5.07,0,0,1,2-.36,4.56,4.56,0,0,1,2.06.45,4.07,4.07,0,0,1,1.53,1.3,6.2,6.2,0,0,1,.95,2A9.93,9.93,0,0,1,148.5,250.87Zm-1.42.25v-.25a9.52,9.52,0,0,0-.21-2.06,4.89,4.89,0,0,0-.67-1.65,3.22,3.22,0,0,0-1.14-1.12,3.46,3.46,0,0,0-1.69-.39,3.91,3.91,0,0,0-1.72.34,3.45,3.45,0,0,0-1.18.87,4.67,4.67,0,0,0-.72,1.19,6.54,6.54,0,0,0-.4,1.26V253a5.08,5.08,0,0,0,.69,1.65,3.77,3.77,0,0,0,1.32,1.25,4,4,0,0,0,2,.47,3.2,3.2,0,0,0,1.65-.4,3.11,3.11,0,0,0,1.15-1.1,4.89,4.89,0,0,0,.67-1.65A8.92,8.92,0,0,0,147.08,251.12Zm12.12,3a2.21,2.21,0,0,0-.26-1,2.36,2.36,0,0,0-1-.93,7.62,7.62,0,0,0-2.15-.72,16.89,16.89,0,0,1-1.89-.52,5.57,5.57,0,0,1-1.38-.71,2.73,2.73,0,0,1-.85-1,2.9,2.9,0,0,1-.3-1.36,3,3,0,0,1,.31-1.32,3.39,3.39,0,0,1,.89-1.11,4.31,4.31,0,0,1,1.41-.75,6.28,6.28,0,0,1,1.86-.26,5.71,5.71,0,0,1,2.51.5,3.76,3.76,0,0,1,1.6,1.35,3.39,3.39,0,0,1,.56,1.93h-1.39a2.19,2.19,0,0,0-.39-1.24,2.77,2.77,0,0,0-1.11-1,3.84,3.84,0,0,0-1.78-.38,4.05,4.05,0,0,0-1.77.33,2.4,2.4,0,0,0-1,.83,2,2,0,0,0-.3,1.05,2.15,2.15,0,0,0,.13.77,1.51,1.51,0,0,0,.49.63,3.75,3.75,0,0,0,1,.55,14.6,14.6,0,0,0,1.73.51,10.37,10.37,0,0,1,2.51.83,3.62,3.62,0,0,1,1.46,1.19,3,3,0,0,1,.46,1.71,3.18,3.18,0,0,1-.32,1.45,3.24,3.24,0,0,1-1,1.11,4.76,4.76,0,0,1-1.48.73,6.72,6.72,0,0,1-1.92.25,6.35,6.35,0,0,1-2.72-.52,4.21,4.21,0,0,1-1.68-1.41,3.45,3.45,0,0,1-.56-1.86h1.4a2.4,2.4,0,0,0,.62,1.56,3,3,0,0,0,1.34.79,5.65,5.65,0,0,0,1.6.24,4.5,4.5,0,0,0,1.8-.32,2.59,2.59,0,0,0,1.1-.83A1.88,1.88,0,0,0,159.2,254.1Zm9.25,2.26a4.2,4.2,0,0,0,1.66-.33,3.27,3.27,0,0,0,1.29-1,3,3,0,0,0,.59-1.63h1.33a3.9,3.9,0,0,1-.74,2.16,4.64,4.64,0,0,1-1.76,1.48,5.31,5.31,0,0,1-2.37.52,5.45,5.45,0,0,1-2.35-.48,4.79,4.79,0,0,1-1.69-1.33,6.32,6.32,0,0,1-1-2,9,9,0,0,1-.34-2.49v-.5a8.9,8.9,0,0,1,.34-2.48,6.21,6.21,0,0,1,1-2,4.81,4.81,0,0,1,1.69-1.34,5.36,5.36,0,0,1,2.33-.48,5.25,5.25,0,0,1,2.44.55,4.28,4.28,0,0,1,1.74,1.55,4.77,4.77,0,0,1,.71,2.4H172a3.55,3.55,0,0,0-.54-1.76,3.32,3.32,0,0,0-1.27-1.14,3.88,3.88,0,0,0-1.75-.4,3.79,3.79,0,0,0-1.84.42,3.57,3.57,0,0,0-1.24,1.14,5.26,5.26,0,0,0-.69,1.64,8,8,0,0,0-.22,1.92v.5a8.74,8.74,0,0,0,.21,1.94,5.31,5.31,0,0,0,.69,1.63,3.48,3.48,0,0,0,1.24,1.14A4,4,0,0,0,168.45,256.36Zm9.09-9.61v10.58h-1.39V244.65h1.35Zm4.49-2.19,0,1.29-.45-.06a3.64,3.64,0,0,0-.48,0,3.7,3.7,0,0,0-1.61.34,3.24,3.24,0,0,0-1.15.93,4.1,4.1,0,0,0-.71,1.38,6.1,6.1,0,0,0-.28,1.69l-.52.2a9.9,9.9,0,0,1,.26-2.31,5.79,5.79,0,0,1,.78-1.86,3.87,3.87,0,0,1,1.35-1.26,4,4,0,0,1,1.92-.45,3.08,3.08,0,0,1,.53,0A1.76,1.76,0,0,1,182,244.56Zm3.76.09v12.68H184.4V244.65ZM184.15,241a1,1,0,0,1,.25-.67.92.92,0,0,1,.7-.28.93.93,0,0,1,.7.28.92.92,0,0,1,.27.67.94.94,0,0,1-.27.67.93.93,0,0,1-.7.27.91.91,0,0,1-.7-.27A1,1,0,0,1,184.15,241Zm5.45-1.65H191v15.54l-.09,2.46H189.6Zm10.23,11.54v.25a9.69,9.69,0,0,1-.33,2.6,6.35,6.35,0,0,1-.95,2.05,4.18,4.18,0,0,1-3.57,1.79,5.32,5.32,0,0,1-2-.35,4.34,4.34,0,0,1-1.5-1,5.19,5.19,0,0,1-1-1.56,8,8,0,0,1-.53-2v-3.13a8.56,8.56,0,0,1,.56-2.08,5.47,5.47,0,0,1,1-1.62,4.15,4.15,0,0,1,1.47-1,5.14,5.14,0,0,1,2-.36,4.6,4.6,0,0,1,2.07.45,4.07,4.07,0,0,1,1.53,1.3,6.2,6.2,0,0,1,.95,2A9.93,9.93,0,0,1,199.83,250.87Zm-1.42.25v-.25a9.52,9.52,0,0,0-.21-2.06,4.89,4.89,0,0,0-.67-1.65,3.24,3.24,0,0,0-1.15-1.12,3.42,3.42,0,0,0-1.68-.39A4,4,0,0,0,193,246a3.32,3.32,0,0,0-1.17.87,4.7,4.7,0,0,0-.73,1.19,6.48,6.48,0,0,0-.39,1.26V253a5.08,5.08,0,0,0,.69,1.65,3.77,3.77,0,0,0,1.32,1.25,4,4,0,0,0,2,.47,3.17,3.17,0,0,0,2.8-1.5,5.1,5.1,0,0,0,.67-1.65A8.92,8.92,0,0,0,198.41,251.12Zm9.42,6.44a5.4,5.4,0,0,1-4.09-1.74,5.91,5.91,0,0,1-1.18-2,7.51,7.51,0,0,1-.41-2.51v-.5a7.63,7.63,0,0,1,.43-2.65,6.1,6.1,0,0,1,1.2-2,5.37,5.37,0,0,1,1.73-1.29,4.94,4.94,0,0,1,2.06-.45,5.06,5.06,0,0,1,2.15.43,4.15,4.15,0,0,1,1.57,1.21,5.13,5.13,0,0,1,1,1.84,7.76,7.76,0,0,1,.33,2.33v.85H203v-1.19h8.21v-.17a5.12,5.12,0,0,0-.44-2,3.57,3.57,0,0,0-1.19-1.52,3.29,3.29,0,0,0-2-.59,3.63,3.63,0,0,0-1.64.38,3.72,3.72,0,0,0-1.27,1.08,4.91,4.91,0,0,0-.82,1.65,7.27,7.27,0,0,0-.29,2.11v.5a6.3,6.3,0,0,0,.31,2,5.15,5.15,0,0,0,.89,1.59,4.24,4.24,0,0,0,1.38,1.08,4,4,0,0,0,1.76.39,4.65,4.65,0,0,0,2-.41,4.31,4.31,0,0,0,1.56-1.33l.88.68a5.2,5.2,0,0,1-1,1.13,4.75,4.75,0,0,1-1.47.82A6,6,0,0,1,207.83,257.56ZM226,244.65v1.15h-6.35v-1.15Zm-4-3.26h1.39v12.86a2.88,2.88,0,0,0,.24,1.32,1.18,1.18,0,0,0,.61.6,2.16,2.16,0,0,0,.81.15,5.74,5.74,0,0,0,.6,0l.53-.1.06,1.19a5,5,0,0,1-.67.13,7.37,7.37,0,0,1-.82.05,3.26,3.26,0,0,1-1.43-.29,2.12,2.12,0,0,1-1-1,4.78,4.78,0,0,1-.35-2Zm5.95,9.8v-.39a7.75,7.75,0,0,1,.4-2.55,6,6,0,0,1,1.14-2,5.09,5.09,0,0,1,1.79-1.32,5.87,5.87,0,0,1,4.65,0,5.13,5.13,0,0,1,1.8,1.32,5.85,5.85,0,0,1,1.14,2,7.75,7.75,0,0,1,.4,2.55v.39a7.75,7.75,0,0,1-.4,2.55,5.8,5.8,0,0,1-1.14,2,5.4,5.4,0,0,1-1.79,1.34,5.59,5.59,0,0,1-2.32.46,5.67,5.67,0,0,1-2.33-.46,5.5,5.5,0,0,1-1.79-1.34,6,6,0,0,1-1.15-2A7.75,7.75,0,0,1,227.94,251.19Zm1.4-.39v.39a6.82,6.82,0,0,0,.28,2,5.1,5.1,0,0,0,.82,1.65,3.92,3.92,0,0,0,1.33,1.13,4,4,0,0,0,1.84.41,3.91,3.91,0,0,0,1.82-.41,4,4,0,0,0,1.34-1.13,5.07,5.07,0,0,0,.8-1.65,6.82,6.82,0,0,0,.29-2v-.39a6.52,6.52,0,0,0-.29-2,5.06,5.06,0,0,0-.82-1.66,4.09,4.09,0,0,0-1.33-1.15,4.2,4.2,0,0,0-3.66,0,4.2,4.2,0,0,0-1.33,1.15,5.26,5.26,0,0,0-.82,1.66A6.86,6.86,0,0,0,229.34,250.8Zm17.91.39v-.39a8,8,0,0,1,.4-2.55,6.18,6.18,0,0,1,1.14-2,5.18,5.18,0,0,1,1.79-1.32,5.87,5.87,0,0,1,4.65,0,5.13,5.13,0,0,1,1.8,1.32,6,6,0,0,1,1.15,2,8,8,0,0,1,.39,2.55v.39a8,8,0,0,1-.39,2.55,6,6,0,0,1-1.15,2,5.36,5.36,0,0,1-1.78,1.34,5.65,5.65,0,0,1-2.32.46,5.72,5.72,0,0,1-2.34-.46,5.5,5.5,0,0,1-1.79-1.34,6,6,0,0,1-1.15-2A8,8,0,0,1,247.25,251.19Zm1.4-.39v.39a6.82,6.82,0,0,0,.28,2,5.31,5.31,0,0,0,.82,1.65,3.86,3.86,0,0,0,1.34,1.13,4,4,0,0,0,1.84.41,3.89,3.89,0,0,0,1.81-.41,4,4,0,0,0,1.34-1.13,5.08,5.08,0,0,0,.81-1.65,7.18,7.18,0,0,0,.28-2v-.39a6.86,6.86,0,0,0-.28-2,5.26,5.26,0,0,0-.82-1.66,4.13,4.13,0,0,0-1.34-1.15,3.86,3.86,0,0,0-1.83-.42,3.92,3.92,0,0,0-1.83.42,4.31,4.31,0,0,0-1.33,1.15,5.48,5.48,0,0,0-.82,1.66A6.86,6.86,0,0,0,248.65,250.8Zm21,3.6v-9.75H271v12.68h-1.35Zm.26-2.34.73,0a8.15,8.15,0,0,1-.29,2.21,4.87,4.87,0,0,1-.87,1.75,3.94,3.94,0,0,1-1.55,1.16,5.65,5.65,0,0,1-2.29.41,5.46,5.46,0,0,1-1.7-.25,3.34,3.34,0,0,1-1.31-.85,3.91,3.91,0,0,1-.85-1.49,7.11,7.11,0,0,1-.3-2.21v-8.11h1.4v8.13a5.48,5.48,0,0,0,.22,1.7,3,3,0,0,0,.63,1.09,2.41,2.41,0,0,0,.94.59,3.78,3.78,0,0,0,1.14.17,4.43,4.43,0,0,0,2.44-.59,3.29,3.29,0,0,0,1.27-1.57A5.69,5.69,0,0,0,269.86,252.06Zm6.21-5.31v10.58h-1.39V244.65H276Zm4.49-2.19,0,1.29-.45-.06a3.64,3.64,0,0,0-.48,0,3.7,3.7,0,0,0-1.61.34,3.24,3.24,0,0,0-1.15.93,4.1,4.1,0,0,0-.71,1.38,6.1,6.1,0,0,0-.28,1.69l-.52.2a9.9,9.9,0,0,1,.26-2.31,5.79,5.79,0,0,1,.78-1.86,3.87,3.87,0,0,1,1.35-1.26,4,4,0,0,1,1.92-.45,3.08,3.08,0,0,1,.53,0A1.76,1.76,0,0,1,280.56,244.56Z"></path><path class="cls-4" d="M115.19,278v13.3h-4.5V274.42h4.22Zm-.66,4.25h-1.22a10.71,10.71,0,0,1,.49-3.37,7.55,7.55,0,0,1,1.36-2.58,5.68,5.68,0,0,1,2.08-1.64,6.15,6.15,0,0,1,2.71-.58,6.83,6.83,0,0,1,2.18.34,4.2,4.2,0,0,1,1.68,1.1,4.85,4.85,0,0,1,1.1,2,10.16,10.16,0,0,1,.39,3v10.78h-4.53v-10.8a4,4,0,0,0-.32-1.75,1.7,1.7,0,0,0-.92-.87,3.51,3.51,0,0,0-1.47-.27,3.25,3.25,0,0,0-1.57.36,3.1,3.1,0,0,0-1.1,1,4.92,4.92,0,0,0-.64,1.47A7,7,0,0,0,114.53,282.28Zm22,9.36A9.57,9.57,0,0,1,133,291a7.85,7.85,0,0,1-2.66-1.77,7.72,7.72,0,0,1-1.65-2.61,8.69,8.69,0,0,1-.58-3.19v-.62a10.7,10.7,0,0,1,.55-3.52,8.12,8.12,0,0,1,1.56-2.76,6.94,6.94,0,0,1,2.5-1.8,8.9,8.9,0,0,1,6.5-.05,6.31,6.31,0,0,1,2.33,1.69A7.34,7.34,0,0,1,143,279a10.8,10.8,0,0,1,.49,3.37v1.88H130v-3h9v-.35a3.9,3.9,0,0,0-.35-1.67,2.7,2.7,0,0,0-1-1.19,3.11,3.11,0,0,0-1.72-.43,2.9,2.9,0,0,0-1.53.39,3,3,0,0,0-1,1.09,6.1,6.1,0,0,0-.6,1.66,10.86,10.86,0,0,0-.19,2.06v.62a5.93,5.93,0,0,0,.29,1.88,4.42,4.42,0,0,0,.82,1.48,3.83,3.83,0,0,0,1.32,1,4.32,4.32,0,0,0,1.76.35,5.56,5.56,0,0,0,2.27-.47,4.94,4.94,0,0,0,1.83-1.46l2.18,2.38a6.69,6.69,0,0,1-1.45,1.47,7.55,7.55,0,0,1-2.19,1.15A8.79,8.79,0,0,1,136.5,291.64ZM150.83,287l3.51-12.53h2.86l-.92,4.93-3.51,12h-2.39Zm-1.78-12.53,2.51,12.52.24,4.39H149l-4.29-16.91Zm11.37,12.32,2.46-12.32h4.36L163,291.33h-2.79Zm-2.83-12.32,3.5,12.44.49,4.47h-2.41l-3.51-12-.89-4.94Zm21,12.24a1.44,1.44,0,0,0-.28-.88,2.52,2.52,0,0,0-1.05-.72,10.3,10.3,0,0,0-2.17-.62,17.64,17.64,0,0,1-2.39-.7,8.67,8.67,0,0,1-1.91-1.05,4.75,4.75,0,0,1-1.25-1.44,4,4,0,0,1-.45-1.92,4.54,4.54,0,0,1,.45-2,5.27,5.27,0,0,1,1.33-1.66,6.29,6.29,0,0,1,2.13-1.14,9,9,0,0,1,2.84-.42,9.38,9.38,0,0,1,3.78.7,5.58,5.58,0,0,1,2.44,1.94,4.72,4.72,0,0,1,.86,2.78h-4.5a2.38,2.38,0,0,0-.28-1.17,1.9,1.9,0,0,0-.85-.83,3,3,0,0,0-1.46-.31,2.9,2.9,0,0,0-1.3.27,1.85,1.85,0,0,0-.84.68,1.66,1.66,0,0,0-.29.94,1.57,1.57,0,0,0,.16.7,1.69,1.69,0,0,0,.55.55,4.62,4.62,0,0,0,1,.47,11.73,11.73,0,0,0,1.5.37,17.15,17.15,0,0,1,3.26,1,5.65,5.65,0,0,1,2.28,1.62,4,4,0,0,1,.85,2.68,4.36,4.36,0,0,1-.5,2.06,5.19,5.19,0,0,1-1.44,1.64,7.35,7.35,0,0,1-2.25,1.08,10.55,10.55,0,0,1-2.92.37,8.67,8.67,0,0,1-4-.84,6.3,6.3,0,0,1-2.47-2.14,5,5,0,0,1-.83-2.69h4.27a2.48,2.48,0,0,0,.46,1.48,2.63,2.63,0,0,0,1.15.82,4.6,4.6,0,0,0,1.51.25,3.79,3.79,0,0,0,1.45-.24,2,2,0,0,0,.88-.65A1.58,1.58,0,0,0,178.64,286.66Zm12.05-19.33v24h-4.52v-24Zm11.5,24.31a9.57,9.57,0,0,1-3.53-.62,7.75,7.75,0,0,1-2.66-1.77,7.91,7.91,0,0,1-1.66-2.61,8.89,8.89,0,0,1-.57-3.19v-.62a11,11,0,0,1,.54-3.52,8.31,8.31,0,0,1,1.57-2.76,6.85,6.85,0,0,1,2.5-1.8,8.9,8.9,0,0,1,6.5-.05,6.28,6.28,0,0,1,2.32,1.69,7.21,7.21,0,0,1,1.44,2.63,11.1,11.1,0,0,1,.49,3.37v1.88H195.69v-3h9v-.35a3.89,3.89,0,0,0-.34-1.67,2.7,2.7,0,0,0-1-1.19,3.11,3.11,0,0,0-1.72-.43,2.9,2.9,0,0,0-1.53.39,3,3,0,0,0-1.05,1.09,5.79,5.79,0,0,0-.59,1.66,10.1,10.1,0,0,0-.19,2.06v.62a6.23,6.23,0,0,0,.28,1.88,4.63,4.63,0,0,0,.83,1.48,3.8,3.8,0,0,0,1.31,1,4.33,4.33,0,0,0,1.77.35,5.48,5.48,0,0,0,2.26-.47,4.94,4.94,0,0,0,1.83-1.46l2.19,2.38a6.69,6.69,0,0,1-1.45,1.47,7.82,7.82,0,0,1-2.19,1.15A8.79,8.79,0,0,1,202.19,291.64ZM220,274.42v3.19h-9.84v-3.19Zm-7.41-4.17h4.5v16a2.72,2.72,0,0,0,.19,1.12,1.17,1.17,0,0,0,.59.55,3.06,3.06,0,0,0,1,.14q.42,0,.75,0l.58-.1v3.32a9,9,0,0,1-2.73.4,6.52,6.52,0,0,1-2.6-.48,3.57,3.57,0,0,1-1.68-1.6,5.94,5.94,0,0,1-.6-2.87Zm18.25,4.17v3.19H221v-3.19Zm-7.4-4.17h4.5v16a2.75,2.75,0,0,0,.18,1.12,1.19,1.19,0,0,0,.6.55,3,3,0,0,0,1,.14q.42,0,.75,0l.58-.1,0,3.32a9.15,9.15,0,0,1-1.25.29,8.61,8.61,0,0,1-1.49.11,6.47,6.47,0,0,1-2.59-.48,3.63,3.63,0,0,1-1.69-1.6,6,6,0,0,1-.59-2.87Zm17.75,21.39a9.54,9.54,0,0,1-3.53-.62,7.75,7.75,0,0,1-2.66-1.77,7.91,7.91,0,0,1-1.66-2.61,8.9,8.9,0,0,1-.58-3.19v-.62a11,11,0,0,1,.55-3.52,8.47,8.47,0,0,1,1.56-2.76,6.94,6.94,0,0,1,2.5-1.8,8.9,8.9,0,0,1,6.5-.05,6.23,6.23,0,0,1,2.33,1.69,7.21,7.21,0,0,1,1.44,2.63,11.11,11.11,0,0,1,.48,3.37v1.88H234.66v-3h9v-.35a3.89,3.89,0,0,0-.34-1.67,2.7,2.7,0,0,0-1-1.19,3.11,3.11,0,0,0-1.72-.43,2.9,2.9,0,0,0-1.53.39,3,3,0,0,0-1.05,1.09,5.79,5.79,0,0,0-.59,1.66,10.1,10.1,0,0,0-.19,2.06v.62a5.93,5.93,0,0,0,.28,1.88,4.63,4.63,0,0,0,.83,1.48,3.71,3.71,0,0,0,1.31,1,4.33,4.33,0,0,0,1.77.35,5.48,5.48,0,0,0,2.26-.47,4.94,4.94,0,0,0,1.83-1.46l2.19,2.38a6.92,6.92,0,0,1-1.45,1.47,7.82,7.82,0,0,1-2.19,1.15A8.83,8.83,0,0,1,241.16,291.64Zm14-13.53v13.22h-4.5V274.42h4.23Zm5.09-3.8-.08,4.18a7.21,7.21,0,0,0-.79-.08c-.31,0-.58-.05-.83-.05a4.87,4.87,0,0,0-1.66.25,3.08,3.08,0,0,0-1.16.7,3.12,3.12,0,0,0-.68,1.14,5.45,5.45,0,0,0-.25,1.54l-.91-.29a12.91,12.91,0,0,1,.33-3,8.43,8.43,0,0,1,.95-2.42,4.88,4.88,0,0,1,1.56-1.6,4,4,0,0,1,2.11-.56,5.09,5.09,0,0,1,.77.06A2.93,2.93,0,0,1,260.25,274.31Z"></path><g class="cls-5"><path class="cls-3" d="M272.47,146.54h0L246.86,159l-35,17a.94.94,0,0,1-.43.1A1,1,0,0,1,211,176L174.93,159l-26.2-12.39,0,0h0a1.46,1.46,0,0,0-1.11.52,1.9,1.9,0,0,0-.45,1.25v77.24a1.94,1.94,0,0,0,.45,1.26,1.5,1.5,0,0,0,1.11.52H272.47a1.5,1.5,0,0,0,1.11-.52,1.94,1.94,0,0,0,.45-1.26V148.31a1.9,1.9,0,0,0-.45-1.25A1.46,1.46,0,0,0,272.47,146.54Z"></path><path class="cls-6" d="M272.92,147a.2.2,0,0,1-.13,0L211.2,98.06a1.08,1.08,0,0,0-.64-.22,1,1,0,0,0-.64.23L148.77,147a.2.2,0,0,1-.08,0,.11.11,0,0,1-.08,0,.2.2,0,0,1-.08,0s-.05,0-.07-.06a.32.32,0,0,1,0-.09.35.35,0,0,1,0-.2.19.19,0,0,1,.06-.07l61.15-48.93a1.4,1.4,0,0,1,1.78,0l61.6,48.93a.29.29,0,0,1,.08.29.26.26,0,0,1-.08.13.2.2,0,0,1-.13,0Z"></path><path class="cls-7" d="M152.27,148.78l58.35-49.34,58.8,52.85L213.63,190l-30.29-7.88Z"></path><path class="cls-8" d="M185.9,213.32H157.07a1.35,1.35,0,0,1-.52-.11,1.41,1.41,0,0,1-.44-.34,1.64,1.64,0,0,1-.29-.5,1.61,1.61,0,0,1-.1-.58,1.65,1.65,0,0,1,.39-1.09,1.38,1.38,0,0,1,.44-.33,1.2,1.2,0,0,1,.52-.12H185.9a1.16,1.16,0,0,1,.51.12,1.28,1.28,0,0,1,.44.33,1.65,1.65,0,0,1,.39,1.09,1.61,1.61,0,0,1-.1.58,1.64,1.64,0,0,1-.29.5,1.22,1.22,0,0,1-.95.45Z"></path><path class="cls-8" d="M167.41,206.72H157.07a1.2,1.2,0,0,1-.52-.12,1.54,1.54,0,0,1-.44-.33,1.92,1.92,0,0,1-.29-.5,1.79,1.79,0,0,1,0-1.18,1.77,1.77,0,0,1,.29-.5,1.54,1.54,0,0,1,.44-.33,1.2,1.2,0,0,1,.52-.12h10.34a1.2,1.2,0,0,1,.52.12,1.37,1.37,0,0,1,.43.33,1.59,1.59,0,0,1,.3.5,1.79,1.79,0,0,1,0,1.18,1.71,1.71,0,0,1-.3.5,1.37,1.37,0,0,1-.43.33A1.2,1.2,0,0,1,167.41,206.72Z"></path><path class="cls-3" d="M211.44,176.26a1.43,1.43,0,0,1-.64-.15l-36-17V105.76a1.93,1.93,0,0,1,.46-1.26,1.48,1.48,0,0,1,1.1-.52h69a1.5,1.5,0,0,1,1.11.52,1.92,1.92,0,0,1,.45,1.26v53.36l-.07,0-34.8,17A1.52,1.52,0,0,1,211.44,176.26Z"></path><path class="cls-6" d="M211.44,176.38a1.5,1.5,0,0,1-.68-.15L174.7,159.17V105.76a2.07,2.07,0,0,1,.49-1.35,1.58,1.58,0,0,1,1.18-.56h69a1.58,1.58,0,0,1,1.18.56,2.07,2.07,0,0,1,.49,1.35V159.2l-35,17A1.44,1.44,0,0,1,211.44,176.38Zm-36.29-17.55,35.78,16.93a1.22,1.22,0,0,0,1,0l34.67-16.89V105.76a1.5,1.5,0,0,0-.36-1,1.16,1.16,0,0,0-.86-.41h-69a1.16,1.16,0,0,0-.86.41,1.5,1.5,0,0,0-.36,1Z"></path><path class="cls-6" d="M272.47,146.54h0L246.86,159l-35,17a.94.94,0,0,1-.43.1A1,1,0,0,1,211,176L174.93,159l-26.2-12.39,0,0h0a1.46,1.46,0,0,0-1.11.52,1.9,1.9,0,0,0-.45,1.25v77.24a1.94,1.94,0,0,0,.45,1.26,1.5,1.5,0,0,0,1.11.52H272.47a1.5,1.5,0,0,0,1.11-.52,1.94,1.94,0,0,0,.45-1.26V148.31a1.9,1.9,0,0,0-.45-1.25A1.46,1.46,0,0,0,272.47,146.54Zm1.12,79a1.37,1.37,0,0,1-.33.9,1,1,0,0,1-.79.37H148.65a1,1,0,0,1-.79-.37,1.37,1.37,0,0,1-.33-.9V148.31a1.39,1.39,0,0,1,.31-.88,1.13,1.13,0,0,1,.76-.39l26.33,12.46,35.92,17a1.42,1.42,0,0,0,1.21,0l34.8-17L272.52,147a1.11,1.11,0,0,1,.76.39,1.39,1.39,0,0,1,.31.88Z"></path><path class="cls-8" d="M205.84,123.91h-24.5a1.66,1.66,0,0,1-1.26-.59,2.25,2.25,0,0,1,0-2.88,1.66,1.66,0,0,1,1.26-.59h24.5a1.69,1.69,0,0,1,1.26.59,2.25,2.25,0,0,1,0,2.88A1.69,1.69,0,0,1,205.84,123.91Z"></path><path class="cls-8" d="M193.14,115.27h-11.8a1.66,1.66,0,0,1-1.26-.59,2.25,2.25,0,0,1,0-2.88,1.66,1.66,0,0,1,1.26-.59h11.8a1.67,1.67,0,0,1,1.26.59,2.25,2.25,0,0,1,0,2.88A1.67,1.67,0,0,1,193.14,115.27Z"></path><path class="cls-9" d="M229.21,144.24H191.8a1.68,1.68,0,0,1-1.26-.6,2.24,2.24,0,0,1,0-2.87,1.68,1.68,0,0,1,1.26-.6h37.41a1.67,1.67,0,0,1,1.26.6,2.21,2.21,0,0,1,0,2.87A1.67,1.67,0,0,1,229.21,144.24Z"></path><path class="cls-9" d="M229.21,153.64H191.8a1.68,1.68,0,0,1-1.26-.6,2.24,2.24,0,0,1,0-2.87,1.68,1.68,0,0,1,1.26-.6h37.41a1.67,1.67,0,0,1,1.26.6,2.21,2.21,0,0,1,0,2.87A1.67,1.67,0,0,1,229.21,153.64Z"></path><path class="cls-10" d="M118.15,156a.89.89,0,0,1-.63-.26,1.12,1.12,0,0,1-.35-.66l-.81-4.6a10.49,10.49,0,0,1,1.22-7.06,8.25,8.25,0,0,1,5.24-4,7.41,7.41,0,0,1,6.18,1.39,9.54,9.54,0,0,1,3.52,6l.81,4.61a1.36,1.36,0,0,1-.15.86,1,1,0,0,1-.64.48L118.35,156A.68.68,0,0,1,118.15,156Z"></path><path class="cls-11" d="M143.35,224.63h-2.54l-1.22-11.2h3.76Z"></path><path class="cls-10" d="M139,223.8h4.91v3.53h-8a3.77,3.77,0,0,1,.91-2.49A2.88,2.88,0,0,1,139,223.8Z"></path><path class="cls-11" d="M116.82,224.6l-2.34-1.13,2.71-10.85,3.46,1.67Z"></path><path class="cls-10" d="M113.08,221.9l4.52,2.18-1.2,3.25L109,223.77a3.64,3.64,0,0,1,.68-1.14,3.06,3.06,0,0,1,1-.75,2.54,2.54,0,0,1,1.18-.26A2.69,2.69,0,0,1,113.08,221.9Z"></path><path class="cls-11" d="M124.67,154.86c3,0,5.47-2.79,5.47-6.24s-2.45-6.24-5.47-6.24-5.47,2.79-5.47,6.24S121.65,154.86,124.67,154.86Z"></path><path class="cls-6" d="M124.93,177l-.06-.21c-1.49-5.53-3-11.24-4.57-16.68l0-.14.09-.11a9.87,9.87,0,0,1,10.44-2.58,8.76,8.76,0,0,1,5.73,8.6A10.19,10.19,0,0,0,138,172l.14.23-.22.14A37.18,37.18,0,0,1,125.12,177Z"></path><path class="cls-10" d="M118.33,222.59a1,1,0,0,1-.56-.17l-3-1.95a1.19,1.19,0,0,1-.51-.72,1.52,1.52,0,0,1,0-.92l6.57-17.77,5-25.92,9.14-3.79.09,0c9.8,5.14,9,42,8.79,49.29a1.34,1.34,0,0,1-.31.83,1.06,1.06,0,0,1-.7.39l-2.75.41a1,1,0,0,1-.78-.26,1.32,1.32,0,0,1-.43-.79l-5.61-28.63a.35.35,0,0,0-.06-.14.22.22,0,0,0-.13-.08.2.2,0,0,0-.13,0,.27.27,0,0,0-.1.11l-13.67,29.4a1.21,1.21,0,0,1-.28.38,1.13,1.13,0,0,1-.4.22A.93.93,0,0,1,118.33,222.59Z"></path><path class="cls-11" d="M121.62,196.47a2.62,2.62,0,0,0,.34-1,2.75,2.75,0,0,0,0-1,2.54,2.54,0,0,0-.43-.91,2.25,2.25,0,0,0-.72-.62l.15-5.44L118,186.6l-.11,7.69a2.74,2.74,0,0,0,0,1.7,2.33,2.33,0,0,0,1,1.27,1.88,1.88,0,0,0,1.48.19,2.13,2.13,0,0,0,1.22-1Z"></path><path class="cls-8" d="M118,190.72h-.17a1,1,0,0,1-.75-.34,1.38,1.38,0,0,1-.35-.83c-.27-4.06-1.12-17.86-.44-25.34a5.89,5.89,0,0,1,.63-2,5.07,5.07,0,0,1,1.25-1.54,4.44,4.44,0,0,1,1.67-.86,4.23,4.23,0,0,1,1.84-.05l.17.05v.2c-.06,9.85-.06,19.64,0,29.11a1.42,1.42,0,0,1-.24.79,1.08,1.08,0,0,1-.63.45A12.67,12.67,0,0,1,118,190.72Z"></path><path class="cls-8" d="M124.5,202.53a2.88,2.88,0,0,1-2-.87,3.66,3.66,0,0,1-1-2.16l.25-22.73-4-11.43a7.41,7.41,0,0,1,.8-4.31,6.16,6.16,0,0,1,3-2.82l1.06-.45a1.48,1.48,0,0,1,.62-.11,1.33,1.33,0,0,1,.62.16,1.64,1.64,0,0,1,.52.43,1.8,1.8,0,0,1,.33.61l4.08,12.58v0c.29,5,1.56,29.91-1,30.66a12.71,12.71,0,0,1-3.3.42Z"></path><path class="cls-11" d="M148,187.89a2,2,0,0,1-.74-.59,2.36,2.36,0,0,1-.46-.89,2.71,2.71,0,0,1-.09-1,2.74,2.74,0,0,1,.31-1L144.28,180l2-2.57,3.82,6.34a2.45,2.45,0,0,1,.81,1.42,2.66,2.66,0,0,1-.22,1.69,2.16,2.16,0,0,1-1.14,1.09,1.88,1.88,0,0,1-1.49-.05Z"></path><path class="cls-8" d="M145.27,182.18a.9.9,0,0,1-.41-.13,1,1,0,0,1-.31-.33v0c-4.56-7.87-9.28-16-14.06-24.13l0-.08.07-.08a4.22,4.22,0,0,1,1.45-1,3.76,3.76,0,0,1,1.68-.29,3.87,3.87,0,0,1,1.71.46,4.18,4.18,0,0,1,1.39,1.2c4.18,5.8,10.14,17.83,11.86,21.38a1.06,1.06,0,0,1,.09.72,1,1,0,0,1-.36.61,13.5,13.5,0,0,1-2.71,1.64A.8.8,0,0,1,145.27,182.18Z"></path><path class="cls-8" d="M143.74,197.46c-2.73,0-12.5-21.46-14.43-25.76l0-.06-2.14-13.16a2.24,2.24,0,0,1,0-.73,2.1,2.1,0,0,1,.25-.66,1.87,1.87,0,0,1,.46-.51,1.48,1.48,0,0,1,.59-.26l1.11-.23a5.25,5.25,0,0,1,3.82.67A6.43,6.43,0,0,1,136,160l2.79,13.39,9.34,18.09a3.91,3.91,0,0,1,.12,2.46,3.38,3.38,0,0,1-1.34,1.93,13.36,13.36,0,0,1-3,1.57l-.17,0Z"></path><path class="cls-10" d="M128.92,148.67h-11v-1.52a6.84,6.84,0,0,1,1.63-4.49,5.26,5.26,0,0,1,3.94-1.86h.89a5.24,5.24,0,0,1,3.93,1.86,6.85,6.85,0,0,1,1.64,4.49v.38a1.25,1.25,0,0,1-.3.81A1,1,0,0,1,128.92,148.67Z"></path></g></svg>