<svg xmlns="http://www.w3.org/2000/svg" id="Layer_1" data-name="Layer 1" viewBox="0 0 384.02 343.51"><defs><style>.cls-1{fill:none;stroke:#5ec7d0;}.cls-2{fill:#272c2e;}.cls-3{fill:#fff;}.cls-4{fill:#5ec7d0;}</style></defs><circle class="cls-1" cx="191.59" cy="196.65" r="143.83"></circle><circle class="cls-2" cx="191.16" cy="51.91" r="51.91"></circle><circle class="cls-2" cx="51.91" cy="289.92" r="51.91"></circle><circle class="cls-2" cx="332.12" cy="291.61" r="51.91"></circle><path class="cls-3" d="M167.68,66.83a2.61,2.61,0,0,0-.19-1,2.1,2.1,0,0,0-.65-.82,4.5,4.5,0,0,0-1.19-.69,15.29,15.29,0,0,0-1.86-.63,15.3,15.3,0,0,1-1.92-.67,6.42,6.42,0,0,1-1.47-.83,3.29,3.29,0,0,1-.9-4.06,3.49,3.49,0,0,1,1-1.16,4.6,4.6,0,0,1,1.52-.75,6.5,6.5,0,0,1,1.92-.27,5.46,5.46,0,0,1,2.58.57A4.26,4.26,0,0,1,168.19,58a4,4,0,0,1,.6,2.15h-1.2a3,3,0,0,0-.44-1.65,2.83,2.83,0,0,0-1.25-1.14,4.26,4.26,0,0,0-2-.42,4.78,4.78,0,0,0-2,.36,2.77,2.77,0,0,0-1.2.95,2.25,2.25,0,0,0-.4,1.31,2.18,2.18,0,0,0,.19.93,2.33,2.33,0,0,0,.64.8,5.49,5.49,0,0,0,1.18.68,12,12,0,0,0,1.81.59,15.11,15.11,0,0,1,2,.7,5.85,5.85,0,0,1,1.48.88,3.14,3.14,0,0,1,.92,1.14,3.47,3.47,0,0,1,.31,1.52,3.28,3.28,0,0,1-.37,1.57,3.41,3.41,0,0,1-1,1.16,4.89,4.89,0,0,1-1.56.73,7,7,0,0,1-1.94.25,7.51,7.51,0,0,1-1.88-.24,5.65,5.65,0,0,1-1.72-.75,4,4,0,0,1-1.24-1.33,3.83,3.83,0,0,1-.46-1.93h1.19a2.8,2.8,0,0,0,1.32,2.51,4.25,4.25,0,0,0,1.33.55,6.54,6.54,0,0,0,1.46.17,5.15,5.15,0,0,0,1.94-.33,2.85,2.85,0,0,0,1.28-.93A2.23,2.23,0,0,0,167.68,66.83Zm10,1.6V63a2.52,2.52,0,0,0-.31-1.29,2,2,0,0,0-.92-.84,3.32,3.32,0,0,0-1.49-.3,3.45,3.45,0,0,0-1.47.3,2.36,2.36,0,0,0-1,.77,1.72,1.72,0,0,0-.36,1.06h-1.18a2.41,2.41,0,0,1,.3-1.15,3.24,3.24,0,0,1,.83-1,4.12,4.12,0,0,1,1.28-.69,4.84,4.84,0,0,1,1.65-.26,4.78,4.78,0,0,1,2,.38,3,3,0,0,1,1.36,1.14A3.54,3.54,0,0,1,178.8,63v5.11a8.83,8.83,0,0,0,.08,1.13,3.87,3.87,0,0,0,.25,1v.12h-1.24a5.12,5.12,0,0,1-.19-.88A9.26,9.26,0,0,1,177.64,68.43Zm.28-4.25,0,.89h-2.3a7.1,7.1,0,0,0-1.61.17,3.48,3.48,0,0,0-1.19.47,2.19,2.19,0,0,0-.75.73,1.89,1.89,0,0,0-.26,1,1.93,1.93,0,0,0,.29,1,2,2,0,0,0,.82.76,2.77,2.77,0,0,0,1.27.27,3.84,3.84,0,0,0,1.71-.36,3.51,3.51,0,0,0,1.24-1,3.08,3.08,0,0,0,.66-1.28l.51.67a3.39,3.39,0,0,1-.47,1,4.3,4.3,0,0,1-.87,1,4.72,4.72,0,0,1-1.27.72,4.66,4.66,0,0,1-1.64.27,4,4,0,0,1-1.81-.39,3,3,0,0,1-1.19-1.06,3.08,3.08,0,0,1-.09-2.94,2.94,2.94,0,0,1,1-1.06,4.69,4.69,0,0,1,1.52-.66,7.82,7.82,0,0,1,2-.23ZM183,62v8.38h-1.17V59.76H183Zm-.21,2.44-.57-.29a6.62,6.62,0,0,1,.35-1.76,4.87,4.87,0,0,1,.84-1.44,3.75,3.75,0,0,1,1.29-1,3.9,3.9,0,0,1,1.71-.35,4.38,4.38,0,0,1,1.4.21,2.61,2.61,0,0,1,1.07.66,2.91,2.91,0,0,1,.7,1.15,5.34,5.34,0,0,1,.24,1.71v7H188.7v-7a3.39,3.39,0,0,0-.33-1.65,1.87,1.87,0,0,0-.91-.85,3.3,3.3,0,0,0-1.34-.26,3,3,0,0,0-1.52.37,3.06,3.06,0,0,0-1,.95,4.66,4.66,0,0,0-.57,1.24A4.75,4.75,0,0,0,182.83,64.39Zm7-.92-.78,0a4.39,4.39,0,0,1,.35-1.47,4.13,4.13,0,0,1,.85-1.25,3.85,3.85,0,0,1,1.28-.88,4.14,4.14,0,0,1,1.69-.32,4.39,4.39,0,0,1,1.46.22,2.64,2.64,0,0,1,1.09.69,3.16,3.16,0,0,1,.68,1.21,5.6,5.6,0,0,1,.24,1.75v6.89h-1.18v-6.9a3.72,3.72,0,0,0-.33-1.73,1.73,1.73,0,0,0-.9-.87,3.27,3.27,0,0,0-1.34-.25,3.11,3.11,0,0,0-1.34.29,2.78,2.78,0,0,0-1,.7,3.4,3.4,0,0,0-.59.93A2.87,2.87,0,0,0,189.85,63.47Zm16.25,5V63a2.52,2.52,0,0,0-.31-1.29,2,2,0,0,0-.92-.84,3.32,3.32,0,0,0-1.49-.3,3.45,3.45,0,0,0-1.47.3,2.46,2.46,0,0,0-1,.77,1.72,1.72,0,0,0-.36,1.06h-1.17a2.51,2.51,0,0,1,.29-1.15,3.54,3.54,0,0,1,.83-1,4.24,4.24,0,0,1,1.28-.69,5.41,5.41,0,0,1,3.65.12,2.91,2.91,0,0,1,1.35,1.14,3.45,3.45,0,0,1,.49,1.91v5.11a8.83,8.83,0,0,0,.08,1.13,4.41,4.41,0,0,0,.24,1v.12h-1.24a5.2,5.2,0,0,1-.18-.88A9.26,9.26,0,0,1,206.1,68.43Zm.27-4.25,0,.89H204.1a7.1,7.1,0,0,0-1.61.17,3.63,3.63,0,0,0-1.2.47,2.38,2.38,0,0,0-.75.73,1.88,1.88,0,0,0-.25,1,1.92,1.92,0,0,0,.28,1,2.15,2.15,0,0,0,.82.76,2.8,2.8,0,0,0,1.27.27,3.89,3.89,0,0,0,1.72-.36,3.6,3.6,0,0,0,1.24-1,3.2,3.2,0,0,0,.66-1.28l.5.67a3.16,3.16,0,0,1-.47,1,4.5,4.5,0,0,1-.86,1,4.88,4.88,0,0,1-1.27.72,4.7,4.7,0,0,1-1.64.27,4,4,0,0,1-1.81-.39,2.93,2.93,0,0,1-1.19-1.06,3.08,3.08,0,0,1-.09-2.94,2.94,2.94,0,0,1,1-1.06,4.69,4.69,0,0,1,1.52-.66,7.82,7.82,0,0,1,2-.23Zm10.45,4.25V63a2.52,2.52,0,0,0-.31-1.29,2,2,0,0,0-.92-.84,3.32,3.32,0,0,0-1.49-.3,3.45,3.45,0,0,0-1.47.3,2.36,2.36,0,0,0-1,.77,1.72,1.72,0,0,0-.36,1.06h-1.18a2.41,2.41,0,0,1,.3-1.15,3.24,3.24,0,0,1,.83-1,4,4,0,0,1,1.28-.69,4.84,4.84,0,0,1,1.65-.26,4.78,4.78,0,0,1,2,.38,3,3,0,0,1,1.36,1.14A3.54,3.54,0,0,1,218,63v5.11a8.83,8.83,0,0,0,.08,1.13,3.87,3.87,0,0,0,.25,1v.12h-1.24a5.12,5.12,0,0,1-.19-.88A9.26,9.26,0,0,1,216.82,68.43Zm.28-4.25,0,.89h-2.3a7.1,7.1,0,0,0-1.61.17,3.48,3.48,0,0,0-1.19.47,2.19,2.19,0,0,0-.75.73,1.89,1.89,0,0,0-.26,1,2,2,0,0,0,.28,1,2.11,2.11,0,0,0,.83.76,2.75,2.75,0,0,0,1.26.27,3.86,3.86,0,0,0,1.72-.36,3.6,3.6,0,0,0,1.24-1,3.08,3.08,0,0,0,.66-1.28l.51.67a3.39,3.39,0,0,1-.47,1,4.3,4.3,0,0,1-.87,1,4.72,4.72,0,0,1-1.27.72,4.66,4.66,0,0,1-1.64.27,4,4,0,0,1-1.81-.39,3,3,0,0,1-1.19-1.06,3.08,3.08,0,0,1-.09-2.94,2.94,2.94,0,0,1,1-1.06,4.69,4.69,0,0,1,1.52-.66,7.82,7.82,0,0,1,2-.23Zm4.11-4.42h1.17V71.59a3.87,3.87,0,0,1-.32,1.64,2.2,2.2,0,0,1-.94,1,3,3,0,0,1-1.51.36,3.38,3.38,0,0,1-.53,0,3.57,3.57,0,0,1-.52-.14l0-1a2.2,2.2,0,0,0,.42.09,2.49,2.49,0,0,0,.46,0,1.89,1.89,0,0,0,1-.22,1.39,1.39,0,0,0,.58-.66,2.54,2.54,0,0,0,.21-1.1Zm-.21-3a.81.81,0,1,1,1.61,0,.75.75,0,0,1-.22.55.86.86,0,0,1-1.17,0A.75.75,0,0,1,221,56.71Z"></path><path class="cls-3" d="M186.61,25.65l1-.24.06-.23a4.2,4.2,0,0,1,.41-.95l.12-.2-.51-.85.81-.79.87.5.21-.12a4.31,4.31,0,0,1,1-.4l.24-.06.25-.95h1.15l.25.95.24.06a4.31,4.31,0,0,1,1,.4l.21.12.87-.5.81.79L195,24l.12.21a4,4,0,0,1,.41,1l.06.22,1,.25v1.12l-1,.24-.06.23a3.79,3.79,0,0,1-.41.95l-.12.21.52.84-.82.8-.87-.51-.21.13a4.1,4.1,0,0,1-1,.39l-.24.06-.25.95H191l-.25-.95-.23-.06a4.36,4.36,0,0,1-1-.39l-.21-.13-.87.51-.81-.8.51-.84-.12-.21a3.76,3.76,0,0,1-.4-.95l-.07-.22-1-.25Zm.61,2.74-.6,1,1.73,1.69,1-.59a4.51,4.51,0,0,0,.72.29l.29,1.11h2.44l.29-1.11a4.51,4.51,0,0,0,.72-.29l1,.59,1.73-1.69-.6-1a4.76,4.76,0,0,0,.3-.7l1.14-.29V25l-1.14-.28a4.76,4.76,0,0,0-.3-.7l.6-1-1.73-1.68-1,.59a3.74,3.74,0,0,0-.72-.29l-.29-1.12h-2.44l-.29,1.12a4.51,4.51,0,0,0-.72.29l-1-.59-1.73,1.68.6,1a4.76,4.76,0,0,0-.3.7l-1.14.29V27.4l1.14.29A4.76,4.76,0,0,0,187.22,28.39Z"></path><path class="cls-3" d="M191.59,24.63a1.82,1.82,0,0,1,.94.26,1.73,1.73,0,0,1,.62.72,1.43,1.43,0,0,1,.09.91,1.5,1.5,0,0,1-.46.82,1.77,1.77,0,0,1-1.84.34,1.69,1.69,0,0,1-.76-.58,1.54,1.54,0,0,1,.21-2A1.75,1.75,0,0,1,191.59,24.63Zm0,4a2.62,2.62,0,0,0,1.4-.4,2.55,2.55,0,0,0,.94-1.07,2.26,2.26,0,0,0,.14-1.38,2.38,2.38,0,0,0-.69-1.22,2.63,2.63,0,0,0-1.3-.65,2.6,2.6,0,0,0-1.46.13,2.55,2.55,0,0,0-1.14.88,2.26,2.26,0,0,0-.43,1.32,2.34,2.34,0,0,0,.75,1.69A2.6,2.6,0,0,0,191.59,28.6Z"></path><path class="cls-3" d="M182.33,42.37h4v2.4h-4Zm4-.8h-4V34.36h4Zm4.83,3.2h-2v-4.4a.39.39,0,0,1,.11-.28.4.4,0,0,1,.29-.12h1.61ZM192,40h1.62a.38.38,0,0,1,.28.12.36.36,0,0,1,.12.28v4.4h-2Zm4-6.4V44.78h-1.21V40.37a1.21,1.21,0,0,0-1.2-1.2h-4a1.18,1.18,0,0,0-.85.36,1.16,1.16,0,0,0-.36.84v4.41h-1.21V33.56Zm4.84,8h-4v-7.2h4Zm0,3.21h-4V42.37h4Zm.8-11.21h-4.83v-.8H186.36v.8h-4.84V44.78h-.8v.8h21.74v-.8h-.8Z"></path><path class="cls-3" d="M188.76,34.26h-.89v.89h.89Z"></path><path class="cls-3" d="M190.24,34.26h-.59v.89h.59Z"></path><path class="cls-3" d="M192,34.26h-.89v.89H192Z"></path><path class="cls-3" d="M193.53,34.26h-.6v.89h.6Z"></path><path class="cls-3" d="M195.32,34.26h-.9v.89h.9Z"></path><path class="cls-3" d="M188.76,36h-.89v.6h.89Z"></path><path class="cls-3" d="M190.24,36h-.59v.6h.59Z"></path><path class="cls-3" d="M192,36h-.89v.6H192Z"></path><path class="cls-3" d="M193.53,36h-.6v.6h.6Z"></path><path class="cls-3" d="M195.32,36h-.9v.6h.9Z"></path><path class="cls-3" d="M188.76,37.53h-.89v.9h.89Z"></path><path class="cls-3" d="M190.24,37.53h-.59v.9h.59Z"></path><path class="cls-3" d="M192,37.53h-.89v.9H192Z"></path><path class="cls-3" d="M193.53,37.53h-.6v.9h.6Z"></path><path class="cls-3" d="M195.32,37.53h-.9v.9h.9Z"></path><path class="cls-3" d="M198.59,35.15h-.89V36h.89Z"></path><path class="cls-3" d="M200.08,35.15h-.89V36h.89Z"></path><path class="cls-3" d="M198.59,36.64h-.89v.89h.89Z"></path><path class="cls-3" d="M200.08,36.64h-.89v.89h.89Z"></path><path class="cls-3" d="M198.59,38.43h-.89V39h.89Z"></path><path class="cls-3" d="M200.08,38.43h-.89V39h.89Z"></path><path class="cls-3" d="M198.59,39.92h-.89v.89h.89Z"></path><path class="cls-3" d="M200.08,39.92h-.89v.89h.89Z"></path><path class="cls-3" d="M185.48,35.15h-.89V36h.89Z"></path><path class="cls-3" d="M184,35.15h-.9V36h.9Z"></path><path class="cls-3" d="M185.48,36.64h-.89v.89h.89Z"></path><path class="cls-3" d="M184,36.64h-.9v.89h.9Z"></path><path class="cls-3" d="M185.48,38.43h-.89V39h.89Z"></path><path class="cls-3" d="M184,38.43h-.9V39h.9Z"></path><path class="cls-3" d="M185.48,39.92h-.89v.89h.89Z"></path><path class="cls-3" d="M184,39.92h-.9v.89h.9Z"></path><path class="cls-3" d="M200.08,31.87h-.89v.9h.89Z"></path><path class="cls-3" d="M201,20.26l-3.27,3.9h1.67v7h.8V23.34h-.73L201,21.52l1.54,1.82h-.74v9.43h.81V24.16h1.67Z"></path><path class="cls-3" d="M184,31.87h-.9v.9h.9Z"></path><path class="cls-3" d="M180.6,32.77h.8V23.34h-.73l1.54-1.83,1.53,1.83H183v7.79h.8v-7h1.67l-3.27-3.91-3.28,3.91h1.67Z"></path><path class="cls-3" d="M29.8,304.84a2.61,2.61,0,0,0-.2-1A2.07,2.07,0,0,0,29,303a4.67,4.67,0,0,0-1.19-.69,16.58,16.58,0,0,0-1.86-.63A16.47,16.47,0,0,1,24,301a6.67,6.67,0,0,1-1.48-.83,3.46,3.46,0,0,1-.93-1.1,3.46,3.46,0,0,1,0-3,3.65,3.65,0,0,1,1-1.16,4.55,4.55,0,0,1,1.51-.75,6.57,6.57,0,0,1,1.93-.27,5.52,5.52,0,0,1,2.58.57A4.26,4.26,0,0,1,30.31,296a4,4,0,0,1,.6,2.15h-1.2a3.16,3.16,0,0,0-.44-1.65A3,3,0,0,0,28,295.38a4.26,4.26,0,0,0-2-.42,4.78,4.78,0,0,0-2,.36,2.86,2.86,0,0,0-1.21.95,2.33,2.33,0,0,0-.4,1.31,2.26,2.26,0,0,0,.2.94,2.39,2.39,0,0,0,.63.79,5.59,5.59,0,0,0,1.19.68,11.88,11.88,0,0,0,1.8.59,14.17,14.17,0,0,1,2,.7,6.24,6.24,0,0,1,1.49.88,3.25,3.25,0,0,1,.92,1.14,3.62,3.62,0,0,1,.31,1.52,3.4,3.4,0,0,1-.37,1.57,3.44,3.44,0,0,1-1,1.16,4.73,4.73,0,0,1-1.55.73,7,7,0,0,1-1.94.26,7.61,7.61,0,0,1-1.89-.25,5.76,5.76,0,0,1-1.72-.75,4,4,0,0,1-1.24-1.33,3.91,3.91,0,0,1-.46-1.93H22a2.94,2.94,0,0,0,.37,1.51,3,3,0,0,0,.95,1,4.45,4.45,0,0,0,1.33.55,6.7,6.7,0,0,0,1.47.17,5.22,5.22,0,0,0,1.94-.33,2.9,2.9,0,0,0,1.28-.93A2.29,2.29,0,0,0,29.8,304.84Zm10,1.61V301a2.63,2.63,0,0,0-.31-1.3,2,2,0,0,0-.92-.84,3.37,3.37,0,0,0-1.5-.3,3.43,3.43,0,0,0-1.46.3,2.55,2.55,0,0,0-1,.77,1.72,1.72,0,0,0-.36,1.06H33a2.51,2.51,0,0,1,.29-1.15,3.37,3.37,0,0,1,.83-1,4.05,4.05,0,0,1,1.28-.7,5.1,5.1,0,0,1,1.65-.26,4.82,4.82,0,0,1,2,.38,3,3,0,0,1,1.35,1.14,3.47,3.47,0,0,1,.49,1.92v5.1a9.12,9.12,0,0,0,.08,1.14,4.46,4.46,0,0,0,.24,1v.12H40a4.23,4.23,0,0,1-.18-.88A9.22,9.22,0,0,1,39.76,306.45Zm.27-4.26,0,.89H37.76a7.1,7.1,0,0,0-1.61.17,3.86,3.86,0,0,0-1.2.47,2.38,2.38,0,0,0-.75.73,2,2,0,0,0,0,2,2.15,2.15,0,0,0,.82.76,2.8,2.8,0,0,0,1.27.27,3.89,3.89,0,0,0,1.72-.36,3.7,3.7,0,0,0,1.24-.95,3.06,3.06,0,0,0,.65-1.28l.51.68a3.21,3.21,0,0,1-.47,1,4.3,4.3,0,0,1-.87,1,4.53,4.53,0,0,1-2.91,1,3.92,3.92,0,0,1-1.8-.4,2.93,2.93,0,0,1-1.19-1.06,3.08,3.08,0,0,1-.09-2.94,2.94,2.94,0,0,1,1-1.06,4.69,4.69,0,0,1,1.52-.66,8.29,8.29,0,0,1,2-.23Zm5.19-2.67v8.82H44.06V297.77h1.13ZM49,297.7l0,1.07-.38,0-.4,0a3.11,3.11,0,0,0-1.34.28,2.69,2.69,0,0,0-1,.78,3.21,3.21,0,0,0-.59,1.15,5.19,5.19,0,0,0-.24,1.4l-.43.17a7.78,7.78,0,0,1,.22-1.92,4.88,4.88,0,0,1,.65-1.56,3.26,3.26,0,0,1,1.12-1,3.2,3.2,0,0,1,1.61-.38,2.18,2.18,0,0,1,.44,0A1,1,0,0,1,49,297.7Zm3-4.36v15H50.79v-15Zm6.63,4.43-4.94,4.9-2.1,2-.18-1.15,1.69-1.82,4-4Zm-1,10.57-4.41-5.49.64-1L59,308.34ZM67,306.45V301a2.53,2.53,0,0,0-.31-1.3,2,2,0,0,0-.92-.84,3.32,3.32,0,0,0-1.49-.3,3.45,3.45,0,0,0-1.47.3,2.51,2.51,0,0,0-1,.77,1.72,1.72,0,0,0-.36,1.06H60.3a2.39,2.39,0,0,1,.29-1.15,3.09,3.09,0,0,1,.83-1,3.94,3.94,0,0,1,1.28-.7,5.1,5.1,0,0,1,1.65-.26,4.78,4.78,0,0,1,2,.38,3,3,0,0,1,1.36,1.14,3.55,3.55,0,0,1,.49,1.92v5.1a9.05,9.05,0,0,0,.07,1.14,3.9,3.9,0,0,0,.25,1v.12H67.27a4.91,4.91,0,0,1-.19-.88A9.22,9.22,0,0,1,67,306.45Zm.28-4.26,0,.89H65a7.17,7.17,0,0,0-1.61.17,3.79,3.79,0,0,0-1.19.47,2.19,2.19,0,0,0-.75.73,2,2,0,0,0,0,2,2.08,2.08,0,0,0,.82.76,2.8,2.8,0,0,0,1.27.27,3.92,3.92,0,0,0,1.72-.36,3.7,3.7,0,0,0,1.24-.95,3.18,3.18,0,0,0,.65-1.28l.51.68a3.46,3.46,0,0,1-.47,1,4.3,4.3,0,0,1-.87,1,4.72,4.72,0,0,1-1.27.72,4.66,4.66,0,0,1-1.64.28,4,4,0,0,1-1.81-.4,3.06,3.06,0,0,1-1.19-1.06,3.08,3.08,0,0,1-.09-2.94,3,3,0,0,1,1-1.06,4.69,4.69,0,0,1,1.52-.66,8.31,8.31,0,0,1,2-.23Zm10.45,4.26V301a2.53,2.53,0,0,0-.32-1.3,2,2,0,0,0-.91-.84,3.4,3.4,0,0,0-1.5-.3,3.43,3.43,0,0,0-1.46.3,2.48,2.48,0,0,0-1,.77,1.72,1.72,0,0,0-.36,1.06H71a2.51,2.51,0,0,1,.29-1.15,3.23,3.23,0,0,1,.83-1,4.05,4.05,0,0,1,1.28-.7,5.1,5.1,0,0,1,1.65-.26,4.74,4.74,0,0,1,2,.38,2.93,2.93,0,0,1,1.36,1.14,3.47,3.47,0,0,1,.49,1.92v5.1a9.12,9.12,0,0,0,.08,1.14,4.46,4.46,0,0,0,.24,1v.12H78a4.23,4.23,0,0,1-.18-.88A9.22,9.22,0,0,1,77.75,306.45Zm.27-4.26,0,.89h-2.3a7.23,7.23,0,0,0-1.61.17,3.79,3.79,0,0,0-1.19.47,2.38,2.38,0,0,0-.75.73,2,2,0,0,0,0,2,2.08,2.08,0,0,0,.82.76,2.8,2.8,0,0,0,1.27.27,3.92,3.92,0,0,0,1.72-.36,3.7,3.7,0,0,0,1.24-.95,3.18,3.18,0,0,0,.65-1.28l.51.68a3.21,3.21,0,0,1-.47,1,4.3,4.3,0,0,1-.87,1,4.72,4.72,0,0,1-1.27.72,4.66,4.66,0,0,1-1.64.28,3.92,3.92,0,0,1-1.8-.4,3,3,0,0,1-1.2-1.06,2.9,2.9,0,0,1-.42-1.54,2.93,2.93,0,0,1,.34-1.4,3,3,0,0,1,1-1.06,4.75,4.75,0,0,1,1.53-.66,8.29,8.29,0,0,1,2-.23Zm5.19-2.67v8.82H82V297.77h1.14ZM87,297.7l0,1.07-.38,0-.4,0a3.11,3.11,0,0,0-1.34.28,2.69,2.69,0,0,0-1,.78,3.4,3.4,0,0,0-.6,1.15,5.61,5.61,0,0,0-.23,1.4l-.43.17a7.78,7.78,0,0,1,.22-1.92,4.88,4.88,0,0,1,.65-1.56,3.11,3.11,0,0,1,2.72-1.42,2.12,2.12,0,0,1,.44,0A1.13,1.13,0,0,1,87,297.7Z"></path><path class="cls-3" d="M45.15,279.37a.33.33,0,0,0-.27.19,1.09,1.09,0,0,0-.14.48,1.56,1.56,0,0,0,0,.57A.69.69,0,0,0,45,281a.22.22,0,0,0,.28,0,.64.64,0,0,0,.23-.34,1.63,1.63,0,0,0,.07-.55,1.33,1.33,0,0,0-.12-.52.66.66,0,0,0-.14-.18A.25.25,0,0,0,45.15,279.37Z"></path><path class="cls-3" d="M45.15,276a.41.41,0,0,0-.16,0,.42.42,0,0,0-.14.09.38.38,0,0,0-.09.13.4.4,0,0,0,0,.15v1.73a.4.4,0,0,0,.12.29.46.46,0,0,0,.6,0,.4.4,0,0,0,.12-.29v-1.73a.38.38,0,0,0-.12-.28.42.42,0,0,0-.3-.12"></path><path class="cls-3" d="M48.52,276a.32.32,0,0,0-.16,0,.36.36,0,0,0-.14.11.61.61,0,0,0-.09.16.57.57,0,0,0,0,.18v4.08a.54.54,0,0,0,.13.35.37.37,0,0,0,.29.14.39.39,0,0,0,.3-.14.54.54,0,0,0,.13-.35v-4.08a.51.51,0,0,0-.13-.34A.37.37,0,0,0,48.52,276Z"></path><path class="cls-3" d="M51.05,276a.32.32,0,0,0-.16,0,.33.33,0,0,0-.13.11.62.62,0,0,0-.1.16.57.57,0,0,0,0,.18v4.08a.54.54,0,0,0,.13.35.38.38,0,0,0,.29.14.39.39,0,0,0,.3-.14.54.54,0,0,0,.13-.35v-4.08a.39.39,0,0,0,0-.18.42.42,0,0,0-.09-.16.33.33,0,0,0-.13-.11A.33.33,0,0,0,51.05,276Z"></path><path class="cls-3" d="M53.59,276a.32.32,0,0,0-.16,0,.28.28,0,0,0-.13.11.44.44,0,0,0-.1.16.57.57,0,0,0,0,.18v4.08a.54.54,0,0,0,.13.35.37.37,0,0,0,.29.14.39.39,0,0,0,.3-.14.54.54,0,0,0,.13-.35v-4.08a.39.39,0,0,0,0-.18.42.42,0,0,0-.09-.16.33.33,0,0,0-.13-.11A.35.35,0,0,0,53.59,276Z"></path><path class="cls-3" d="M56.13,276a.33.33,0,0,0-.17,0,.33.33,0,0,0-.13.11.42.42,0,0,0-.09.16.39.39,0,0,0,0,.18v4.08a.54.54,0,0,0,.13.35.39.39,0,0,0,.3.14.38.38,0,0,0,.29-.14.54.54,0,0,0,.13-.35v-4.08a.57.57,0,0,0,0-.18.62.62,0,0,0-.1-.16.33.33,0,0,0-.13-.11A.32.32,0,0,0,56.13,276Z"></path><path class="cls-3" d="M59.51,276a.45.45,0,0,0-.16,0,.34.34,0,0,0-.14.09.36.36,0,0,0-.1.14.45.45,0,0,0,0,.16.47.47,0,0,0,0,.17.45.45,0,0,0,.1.14.34.34,0,0,0,.14.09.3.3,0,0,0,.16,0,.41.41,0,0,0,.16,0,.38.38,0,0,0,.13-.09.36.36,0,0,0,.11-.21.42.42,0,0,0,0-.25.4.4,0,0,0-.15-.19A.48.48,0,0,0,59.51,276Z"></path><path class="cls-3" d="M59.5,277.68a.29.29,0,0,0-.16,0,.53.53,0,0,0-.14.12.56.56,0,0,0-.09.17.76.76,0,0,0,0,.21v2.3a.62.62,0,0,0,.12.38.38.38,0,0,0,.6,0,.62.62,0,0,0,.12-.38v-2.3a.76.76,0,0,0,0-.21.56.56,0,0,0-.09-.17.53.53,0,0,0-.14-.12A.29.29,0,0,0,59.5,277.68Z"></path><path class="cls-3" d="M47.68,270.93a.41.41,0,0,0-.16,0,.42.42,0,0,0-.14.09.38.38,0,0,0-.09.13.45.45,0,0,0,0,.16v.86a.45.45,0,0,0,0,.16.38.38,0,0,0,.09.13.42.42,0,0,0,.14.09.44.44,0,0,0,.32,0,.42.42,0,0,0,.14-.09.38.38,0,0,0,.09-.13.45.45,0,0,0,0-.16v-.86a.4.4,0,0,0-.12-.29A.42.42,0,0,0,47.68,270.93Z"></path><path class="cls-3" d="M49.37,270.93a.41.41,0,0,0-.16,0,.42.42,0,0,0-.14.09.3.3,0,0,0-.09.13.41.41,0,0,0,0,.16v.84a.32.32,0,0,0,0,.17.39.39,0,0,0,.23.23.47.47,0,0,0,.17,0,.45.45,0,0,0,.16,0,.34.34,0,0,0,.14-.09.42.42,0,0,0,.09-.14.47.47,0,0,0,0-.17v-.84a.41.41,0,0,0-.42-.41Z"></path><path class="cls-3" d="M51.05,270.93a.45.45,0,0,0-.16,0,.38.38,0,0,0-.13.09.64.64,0,0,0-.1.13.45.45,0,0,0,0,.16v.86a.32.32,0,0,0,0,.16.44.44,0,0,0,.22.22.45.45,0,0,0,.16,0,.47.47,0,0,0,.17,0,.44.44,0,0,0,.22-.22.32.32,0,0,0,0-.16v-.86a.45.45,0,0,0,0-.16.64.64,0,0,0-.1-.13.38.38,0,0,0-.13-.09A.47.47,0,0,0,51.05,270.93Z"></path><path class="cls-3" d="M53.59,270.93a.45.45,0,0,0-.16,0,.3.3,0,0,0-.13.09.41.41,0,0,0-.1.13.45.45,0,0,0,0,.16v.86a.45.45,0,0,0,0,.16.64.64,0,0,0,.1.13.3.3,0,0,0,.13.09.45.45,0,0,0,.16,0,.51.51,0,0,0,.17,0,.44.44,0,0,0,.22-.22.32.32,0,0,0,0-.16v-.86a.43.43,0,0,0-.43-.41Z"></path><path class="cls-3" d="M55.28,270.93a.45.45,0,0,0-.16,0,.42.42,0,0,0-.14.09.38.38,0,0,0-.09.13.45.45,0,0,0,0,.16v.86a.45.45,0,0,0,0,.16.38.38,0,0,0,.09.13.42.42,0,0,0,.14.09.45.45,0,0,0,.16,0,.41.41,0,0,0,.16,0,.42.42,0,0,0,.14-.09.38.38,0,0,0,.09-.13.45.45,0,0,0,0-.16v-.86a.4.4,0,0,0-.12-.29A.42.42,0,0,0,55.28,270.93Z"></path><path class="cls-3" d="M57,270.93a.41.41,0,0,0-.16,0,.42.42,0,0,0-.14.09.38.38,0,0,0-.09.13.45.45,0,0,0,0,.16v.86a.38.38,0,0,0,.12.29.43.43,0,0,0,.6,0,.38.38,0,0,0,.12-.29v-.86a.4.4,0,0,0-.12-.29A.42.42,0,0,0,57,270.93Z"></path><path class="cls-3" d="M64,281.76H62.51V276H64Zm-20.87-6.24v-1.09H61.51v7.33H43.12Zm-2.47.5h1.48v5.74H40.65Zm5.24-5.94H58.75v3.36H45.89Zm1-3.57H57.71v2.57H46.93Zm1.26-1.42a4.17,4.17,0,0,1,1.21-2.92,4.14,4.14,0,0,1,5.83,0,4.17,4.17,0,0,1,1.21,2.92v.43H48.19ZM64.48,275h-2v-1.08a.58.58,0,0,0,0-.19,1,1,0,0,0-.11-.17.54.54,0,0,0-.16-.1.43.43,0,0,0-.19,0H59.73v-3.37h.35a.5.5,0,0,0,.35-.84.51.51,0,0,0-.35-.15H58.7v-2.57a.56.56,0,0,0,.32-.17.55.55,0,0,0,.12-.35.49.49,0,0,0-.15-.33.52.52,0,0,0-.35-.14H57.43v-.42a5.13,5.13,0,0,0-4.62-5.1v-2.08a.47.47,0,0,0-.15-.35.49.49,0,0,0-.34-.15.49.49,0,0,0-.35.15.47.47,0,0,0-.15.35V260a5.14,5.14,0,0,0-4.61,5.1v.42H46a.51.51,0,0,0-.34.14.53.53,0,0,0-.15.33.5.5,0,0,0,.12.35.46.46,0,0,0,.32.17v2.58H44.56a.5.5,0,0,0-.35.14.52.52,0,0,0-.14.35.5.5,0,0,0,.14.35.47.47,0,0,0,.35.15h.35v3.36H42.63a.5.5,0,0,0-.35.14.52.52,0,0,0-.14.35V275h-2a.47.47,0,0,0-.35.15.51.51,0,0,0-.15.35v6.73a.51.51,0,0,0,.15.35.5.5,0,0,0,.35.14H64.49a.63.63,0,0,0,.19,0,.91.91,0,0,0,.16-.11.57.57,0,0,0,.11-.16.63.63,0,0,0,0-.19v-6.73a.58.58,0,0,0,0-.19.46.46,0,0,0-.11-.16.42.42,0,0,0-.16-.11.43.43,0,0,0-.19,0"></path><path class="cls-3" d="M310.47,301.5h-4v-1h3.44a4.61,4.61,0,0,0,1.8-.31,2.34,2.34,0,0,0,1.12-.89,2.71,2.71,0,0,0,.39-1.49,2.61,2.61,0,0,0-.38-1.48,2.18,2.18,0,0,0-1.14-.88,5.54,5.54,0,0,0-1.91-.28h-3v13.18h-1.2V294.12h4.19a8.18,8.18,0,0,1,1.94.21,4,4,0,0,1,1.46.68,2.9,2.9,0,0,1,.92,1.16,3.84,3.84,0,0,1,.32,1.66,3.23,3.23,0,0,1-.39,1.59,3.13,3.13,0,0,1-1.1,1.16,4,4,0,0,1-1.69.54Zm-.09,6.84h-4.3l.62-1h3.68a4.13,4.13,0,0,0,1.8-.35,2.66,2.66,0,0,0,1.15-1,3,3,0,0,0,.4-1.58,3.06,3.06,0,0,0-.35-1.46,2.49,2.49,0,0,0-1.08-1,3.94,3.94,0,0,0-1.83-.38H308l0-1h3.52l.22.36a3.36,3.36,0,0,1,1.67.6,3.28,3.28,0,0,1,1.11,1.23,3.47,3.47,0,0,1,.4,1.65,4,4,0,0,1-.57,2.19,3.63,3.63,0,0,1-1.6,1.36A5.6,5.6,0,0,1,310.38,308.34ZM324,306.45V301a2.53,2.53,0,0,0-.31-1.3,2,2,0,0,0-.92-.84,3.32,3.32,0,0,0-1.49-.3,3.45,3.45,0,0,0-1.47.3,2.51,2.51,0,0,0-1,.77,1.72,1.72,0,0,0-.36,1.06h-1.17a2.39,2.39,0,0,1,.29-1.15,3.09,3.09,0,0,1,.83-1,3.94,3.94,0,0,1,1.28-.7,5.1,5.1,0,0,1,1.65-.26,4.78,4.78,0,0,1,2,.38,3,3,0,0,1,1.36,1.14,3.55,3.55,0,0,1,.49,1.92v5.1a9.05,9.05,0,0,0,.07,1.14,3.9,3.9,0,0,0,.25,1v.12h-1.24a4.91,4.91,0,0,1-.19-.88A9.22,9.22,0,0,1,324,306.45Zm.28-4.26,0,.89H322a7.17,7.17,0,0,0-1.61.17,3.7,3.7,0,0,0-1.19.47,2.19,2.19,0,0,0-.75.73,2,2,0,0,0,0,2,2.08,2.08,0,0,0,.82.76,2.8,2.8,0,0,0,1.27.27,3.92,3.92,0,0,0,1.72-.36,3.7,3.7,0,0,0,1.24-.95,3.18,3.18,0,0,0,.65-1.28l.51.68a3.46,3.46,0,0,1-.47,1,4.3,4.3,0,0,1-.87,1,4.72,4.72,0,0,1-1.27.72,4.66,4.66,0,0,1-1.64.28,4,4,0,0,1-1.81-.4,3.06,3.06,0,0,1-1.19-1.06,3.08,3.08,0,0,1-.09-2.94,2.94,2.94,0,0,1,1-1.06,4.69,4.69,0,0,1,1.52-.66,8.31,8.31,0,0,1,2-.23Zm11.65,5.14v1H328v-1Zm-.43-8.69-7.16,9.7h-.71v-.88l7.14-9.69h.73Zm-.52-.87v1h-7.16v-1Zm9.49,8.68V301a2.53,2.53,0,0,0-.31-1.3,2,2,0,0,0-.92-.84,3.32,3.32,0,0,0-1.49-.3,3.45,3.45,0,0,0-1.47.3,2.44,2.44,0,0,0-1,.77,1.72,1.72,0,0,0-.36,1.06h-1.18a2.41,2.41,0,0,1,.3-1.15,3.09,3.09,0,0,1,.83-1,3.94,3.94,0,0,1,1.28-.7,5.1,5.1,0,0,1,1.65-.26,4.78,4.78,0,0,1,2,.38,3,3,0,0,1,1.36,1.14,3.55,3.55,0,0,1,.48,1.92v5.1a9.12,9.12,0,0,0,.08,1.14,3.9,3.9,0,0,0,.25,1v.12h-1.24a4.91,4.91,0,0,1-.19-.88A9.22,9.22,0,0,1,344.46,306.45Zm.28-4.26,0,.89h-2.3a7.1,7.1,0,0,0-1.61.17,3.7,3.7,0,0,0-1.19.47,2.19,2.19,0,0,0-.75.73,2,2,0,0,0,0,2,2,2,0,0,0,.82.76,2.77,2.77,0,0,0,1.27.27,3.84,3.84,0,0,0,1.71-.36,3.51,3.51,0,0,0,1.24-.95,3.08,3.08,0,0,0,.66-1.28l.51.68a3.46,3.46,0,0,1-.47,1,4.3,4.3,0,0,1-.87,1,4.72,4.72,0,0,1-1.27.72,4.66,4.66,0,0,1-1.64.28,4,4,0,0,1-1.81-.4,3,3,0,0,1-1.19-1.06,3.08,3.08,0,0,1-.09-2.94,2.94,2.94,0,0,1,1-1.06,4.69,4.69,0,0,1,1.52-.66,8.29,8.29,0,0,1,2-.23Zm10.45,4.26V301a2.53,2.53,0,0,0-.32-1.3,2,2,0,0,0-.92-.84,3.32,3.32,0,0,0-1.49-.3,3.4,3.4,0,0,0-1.46.3,2.48,2.48,0,0,0-1,.77,1.72,1.72,0,0,0-.36,1.06h-1.17a2.39,2.39,0,0,1,.29-1.15,3.23,3.23,0,0,1,.83-1,3.94,3.94,0,0,1,1.28-.7,5.1,5.1,0,0,1,1.65-.26,4.78,4.78,0,0,1,2,.38,3,3,0,0,1,1.36,1.14,3.55,3.55,0,0,1,.49,1.92v5.1a7.54,7.54,0,0,0,.08,1.14,3.94,3.94,0,0,0,.24,1v.12h-1.24a4.91,4.91,0,0,1-.19-.88A9.09,9.09,0,0,1,355.19,306.45Zm.27-4.26,0,.89h-2.3a7.17,7.17,0,0,0-1.61.17,3.79,3.79,0,0,0-1.19.47,2.28,2.28,0,0,0-.75.73,2,2,0,0,0,0,2,2.08,2.08,0,0,0,.82.76,2.8,2.8,0,0,0,1.27.27,3.92,3.92,0,0,0,1.72-.36,3.7,3.7,0,0,0,1.24-.95,3.18,3.18,0,0,0,.65-1.28l.51.68a3.46,3.46,0,0,1-.47,1,4.3,4.3,0,0,1-.87,1,4.72,4.72,0,0,1-1.27.72,4.66,4.66,0,0,1-1.64.28,4,4,0,0,1-1.81-.4,3.06,3.06,0,0,1-1.19-1.06,2.9,2.9,0,0,1-.42-1.54,2.82,2.82,0,0,1,.34-1.4,3,3,0,0,1,.95-1.06,4.75,4.75,0,0,1,1.53-.66,8.23,8.23,0,0,1,2-.23Zm5.18-2.67v8.82h-1.16V297.77h1.14Zm3.74-1.82,0,1.07-.39,0-.4,0a3.1,3.1,0,0,0-1.33.28,2.69,2.69,0,0,0-1,.78,3.4,3.4,0,0,0-.6,1.15,5.61,5.61,0,0,0-.23,1.4l-.43.17a8.31,8.31,0,0,1,.21-1.92,5.13,5.13,0,0,1,.66-1.56,3.11,3.11,0,0,1,2.72-1.42,2.12,2.12,0,0,1,.44,0A1,1,0,0,1,364.38,297.7Z"></path><path class="cls-3" d="M334.4,275.11h-1.66v-2.29a.27.27,0,0,0-.08-.18.29.29,0,0,0-.38,0,.26.26,0,0,0-.07.18v2.29h-1.33v-.76a.31.31,0,0,0,0-.1l-.06-.09-.09-.05-.1,0h-.79a.26.26,0,0,1-.19-.07.27.27,0,0,1-.08-.18V272.7a.24.24,0,0,0-.07-.16.26.26,0,0,0-.17-.09l-.29-.05.48-.53a.41.41,0,0,0,.05-.09.14.14,0,0,0,0-.09v-.51a.18.18,0,0,0,0-.1.22.22,0,0,0-.05-.08l-.09-.06h-.1a.26.26,0,0,0-.19.07.25.25,0,0,0-.08.18v.41l-.74.83a.31.31,0,0,0-.05.12.33.33,0,0,0,0,.14.37.37,0,0,0,.21.18l.56.07v.91a.76.76,0,0,0,.24.56.82.82,0,0,0,.58.23h.5v.51h-2.2a1.38,1.38,0,0,0-.57.11,1.46,1.46,0,0,0-.49.31,1.43,1.43,0,0,0-.33.47,1.29,1.29,0,0,0-.11.55.24.24,0,0,0,.07.18.29.29,0,0,0,.38,0,.24.24,0,0,0,.07-.18.94.94,0,0,1,.08-.36,1,1,0,0,1,.21-.3,1,1,0,0,1,.32-.21,1.16,1.16,0,0,1,.37-.07h6.27v0a1,1,0,0,1,.38.07,1.1,1.1,0,0,1,.31.2,1,1,0,0,1,.22.31.86.86,0,0,1,.07.36.27.27,0,0,0,.08.18.29.29,0,0,0,.18.07.32.32,0,0,0,.19-.07.27.27,0,0,0,.08-.18,1.38,1.38,0,0,0-.12-.56,1.46,1.46,0,0,0-.32-.47,1.57,1.57,0,0,0-.49-.31,1.62,1.62,0,0,0-.58-.11"></path><path class="cls-3" d="M332.51,270.1a1.53,1.53,0,0,0-.66-.62,2.15,2.15,0,0,0-1-.24h0a2.23,2.23,0,0,0-1,.23,1.44,1.44,0,0,0-.66.63.14.14,0,0,0,0,.14.19.19,0,0,0,.13.1.36.36,0,0,0,.18,0,.23.23,0,0,0,.13-.1,1.16,1.16,0,0,1,.5-.45,1.52,1.52,0,0,1,.73-.18h0a1.51,1.51,0,0,1,.7.17,1.12,1.12,0,0,1,.48.43v.52a.15.15,0,0,0,.07.13.27.27,0,0,0,.34,0,.15.15,0,0,0,.07-.13v-.56a.08.08,0,0,0,0-.08"></path><path class="cls-3" d="M329.45,283.55h-1.06v-2.21a.21.21,0,0,0-.07-.17.23.23,0,0,0-.17-.08.28.28,0,0,0-.25.25v2.21h-1.22v-.84a.36.36,0,0,0,0-.1.22.22,0,0,0-.05-.08l-.08,0-.1,0h-.83c-.05,0-.15-.1-.15-.24v-1.13a.34.34,0,0,0,0-.1.16.16,0,0,0-.06-.08l-.08-.05-.09,0h-.15l.37-.59a.26.26,0,0,0,0-.15v-.49a.28.28,0,0,0,0-.09.35.35,0,0,0-.14-.14h-.09a.21.21,0,0,0-.17.07.23.23,0,0,0-.08.17V280l-.59.91a.26.26,0,0,0,0,.24.29.29,0,0,0,.09.1.24.24,0,0,0,.13.05H325v.86c0,.39.29.86.63.86h.59v.49h-1.54a1.41,1.41,0,0,0-1,.45,1.44,1.44,0,0,0-.4,1,.31.31,0,0,0,0,.1.47.47,0,0,0,.06.09l.08.06h.19l.09-.06a.41.41,0,0,0,.05-.09.31.31,0,0,0,0-.1,1,1,0,0,1,.26-.67,1,1,0,0,1,.65-.31h4.8a1,1,0,0,1,.65.31,1,1,0,0,1,.26.67.16.16,0,0,0,0,.1.41.41,0,0,0,.05.09l.08.06h.2l.08-.06a.41.41,0,0,0,.05-.09.3.3,0,0,0,0-.1,1.49,1.49,0,0,0-.4-1,1.41,1.41,0,0,0-1-.45"></path><path class="cls-3" d="M328.29,279a2.17,2.17,0,0,0-.66-.93,1.64,1.64,0,0,0-1-.36h0a1.64,1.64,0,0,0-1,.35,2,2,0,0,0-.66.94.43.43,0,0,0,0,.11.34.34,0,0,0,0,.1.31.31,0,0,0,.05.1l.08.06.09,0h.09l.08-.06a.41.41,0,0,0,.05-.09,1.6,1.6,0,0,1,.5-.69,1.26,1.26,0,0,1,.73-.27h0a1.22,1.22,0,0,1,.7.25,1.5,1.5,0,0,1,.48.65v.79a.35.35,0,0,0,.07.2.25.25,0,0,0,.17.08.21.21,0,0,0,.17-.08.29.29,0,0,0,.07-.2v-.84A.17.17,0,0,0,328.29,279Z"></path><path class="cls-3" d="M331.27,276a.47.47,0,0,0-.17,0l-.14,0a.22.22,0,0,0-.09.07.13.13,0,0,0,0,.08v.42c0,.06.05.11.13.15a.67.67,0,0,0,.3.06.65.65,0,0,0,.29-.06c.08,0,.13-.09.13-.15v-.41a.16.16,0,0,0,0-.09l-.09-.07-.14,0-.16,0"></path><path class="cls-3" d="M327.05,284.43a.5.5,0,0,0-.17,0l-.14,0a.22.22,0,0,0-.09.07.08.08,0,0,0,0,.08v.43c0,.05,0,.1.12.14a.78.78,0,0,0,.6,0c.07,0,.12-.09.12-.14v-.43a.13.13,0,0,0,0-.08.22.22,0,0,0-.09-.07l-.14,0A.44.44,0,0,0,327.05,284.43Z"></path><path class="cls-3" d="M338.57,283.58H337.4v-2.23a.25.25,0,0,0-.08-.17.29.29,0,0,0-.38,0,.25.25,0,0,0-.08.17v2.23H335.5v-.85a.29.29,0,0,0,0-.09.16.16,0,0,0-.06-.08.19.19,0,0,0-.09-.05.18.18,0,0,0-.1,0h-.93a.25.25,0,0,1-.16-.25V281.1a.29.29,0,0,0,0-.09.24.24,0,0,0-.06-.09l-.09-.05-.11,0h-.16l.41-.59a.4.4,0,0,0,0-.15v-.5a.29.29,0,0,0,0-.09.16.16,0,0,0-.06-.08l-.09-.06h-.11a.26.26,0,0,0-.19.07.25.25,0,0,0-.08.17V280l-.65.91a.19.19,0,0,0,0,.12.2.2,0,0,0,0,.13.29.29,0,0,0,.1.09.35.35,0,0,0,.14,0h.41v.86c0,.4.33.87.71.87H335v.49h-1.71a1.71,1.71,0,0,0-1.11.46,1.36,1.36,0,0,0-.44,1,.23.23,0,0,0,.08.17.29.29,0,0,0,.38,0,.23.23,0,0,0,.08-.17,1,1,0,0,1,.29-.68,1.1,1.1,0,0,1,.72-.31h5.34a1.13,1.13,0,0,1,.72.31.94.94,0,0,1,.28.68.23.23,0,0,0,.08.17.27.27,0,0,0,.2.07.26.26,0,0,0,.19-.07.23.23,0,0,0,.08-.17,1.4,1.4,0,0,0-.45-1,1.69,1.69,0,0,0-1.1-.44"></path><path class="cls-3" d="M336.73,279a2.11,2.11,0,0,0-.66-.93,1.6,1.6,0,0,0-1-.37h0a1.6,1.6,0,0,0-1,.35,2,2,0,0,0-.66,1,.22.22,0,0,0,0,.11.21.21,0,0,0,0,.11.41.41,0,0,0,.05.09.16.16,0,0,0,.08.06.13.13,0,0,0,.09,0,.14.14,0,0,0,.09,0l.08-.06a.41.41,0,0,0,.05-.09,1.6,1.6,0,0,1,.5-.69,1.18,1.18,0,0,1,.73-.27h0a1.18,1.18,0,0,1,.71.25,1.58,1.58,0,0,1,.48.65v.8a.32.32,0,0,0,.07.19.28.28,0,0,0,.17.07.24.24,0,0,0,.16-.07.27.27,0,0,0,.08-.19v-.85A.25.25,0,0,0,336.73,279Z"></path><path class="cls-3" d="M347,283.57h-1.17v-2.22a.25.25,0,0,0-.08-.18.32.32,0,0,0-.19-.07.35.35,0,0,0-.2.07.25.25,0,0,0-.08.18v2.22h-1.36v-.84a.31.31,0,0,0,0-.1l-.06-.08-.09-.06h-1a.24.24,0,0,1-.17-.25V281.1a.18.18,0,0,0,0-.1.22.22,0,0,0-.05-.08l-.09-.05a.22.22,0,0,0-.11,0h-.16l.41-.59a.26.26,0,0,0,0-.15v-.5a.15.15,0,0,0,0-.09.22.22,0,0,0-.05-.08l-.09-.06h-.11a.26.26,0,0,0-.19.07.25.25,0,0,0-.08.17V280l-.66.92a.21.21,0,0,0,0,.12.28.28,0,0,0,0,.12.24.24,0,0,0,.11.09.32.32,0,0,0,.14,0H342v.86c0,.4.32.87.7.87h.66v.49h-1.71a1.73,1.73,0,0,0-1.12.45,1.42,1.42,0,0,0-.44,1,.36.36,0,0,0,0,.1.24.24,0,0,0,.06.09l.09.06h.21l.1-.06a.41.41,0,0,0,.05-.09.18.18,0,0,0,0-.1,1,1,0,0,1,.28-.67,1.14,1.14,0,0,1,.73-.32H347a1.11,1.11,0,0,1,.72.32.92.92,0,0,1,.29.67.17.17,0,0,0,0,.1.47.47,0,0,0,.06.09l.09.06h.22l.09-.06a.47.47,0,0,0,.06-.09.34.34,0,0,0,0-.1,1.37,1.37,0,0,0-.45-1,1.73,1.73,0,0,0-1.1-.45"></path><path class="cls-3" d="M345.62,280.21l-.17,0a.35.35,0,0,0-.14.06l-.09.09a.15.15,0,0,0,0,.11v.28a.2.2,0,0,0,0,.11.2.2,0,0,0,.09.09.3.3,0,0,0,.14.06.41.41,0,0,0,.16,0,.44.44,0,0,0,.16,0,.35.35,0,0,0,.14-.06.26.26,0,0,0,.09-.09.2.2,0,0,0,0-.11v-.28a.23.23,0,0,0,0-.11l-.09-.09a.35.35,0,0,0-.14-.06Z"></path><path class="cls-3" d="M346,279a2,2,0,0,0-.65-.93,1.6,1.6,0,0,0-1-.37h0a1.6,1.6,0,0,0-1,.35,2.11,2.11,0,0,0-.67,1s0,.07,0,.11a.43.43,0,0,0,0,.11.41.41,0,0,0,.05.09.16.16,0,0,0,.08.06s.05,0,.09,0a.14.14,0,0,0,.09,0l.08-.06a.41.41,0,0,0,.05-.09,1.58,1.58,0,0,1,.49-.69,1.22,1.22,0,0,1,.74-.27h0a1.18,1.18,0,0,1,.71.25,1.58,1.58,0,0,1,.48.65v.8a.32.32,0,0,0,.07.19.28.28,0,0,0,.17.07.24.24,0,0,0,.16-.07A.27.27,0,0,0,346,280v-.85A.27.27,0,0,0,346,279Z"></path><path class="cls-3" d="M344.77,284.43a.44.44,0,0,0-.16,0l-.14,0a.22.22,0,0,0-.09.07.13.13,0,0,0,0,.08v.43c0,.05,0,.1.13.14a.62.62,0,0,0,.29.06.67.67,0,0,0,.3-.06c.08,0,.13-.09.13-.14v-.43a.13.13,0,0,0,0-.08.22.22,0,0,0-.09-.07l-.14,0A.47.47,0,0,0,344.77,284.43Z"></path><path class="cls-3" d="M343,275.14H341.9v-2.23a.24.24,0,0,0-.07-.18.28.28,0,0,0-.17-.07.24.24,0,0,0-.25.25v2.23h-1.22v-.84a.16.16,0,0,0,0-.1.22.22,0,0,0-.05-.08l-.08-.05a.16.16,0,0,0-.1,0h-.83c-.05,0-.15-.1-.15-.25v-1.14a.28.28,0,0,0,0-.09.24.24,0,0,0-.06-.09l-.08-.05-.09,0h-.15l.37-.59a.26.26,0,0,0,0-.15v-.5a.28.28,0,0,0,0-.09.16.16,0,0,0-.06-.08.24.24,0,0,0-.08-.06h-.09a.21.21,0,0,0-.17.07.25.25,0,0,0-.08.17v.42l-.59.92a.27.27,0,0,0,0,.12.28.28,0,0,0,0,.13.43.43,0,0,0,.1.09l.12,0h.37v.86c0,.4.3.87.64.87h.59v.49h-1.54a1.46,1.46,0,0,0-1,.46,1.39,1.39,0,0,0-.4,1,.22.22,0,0,0,.07.17.23.23,0,0,0,.17.07.24.24,0,0,0,.18-.07.26.26,0,0,0,.07-.17,1,1,0,0,1,.26-.68,1,1,0,0,1,.65-.31H343a1,1,0,0,1,.65.31,1,1,0,0,1,.25.68.23.23,0,0,0,.08.17.21.21,0,0,0,.17.07.24.24,0,0,0,.24-.24,1.43,1.43,0,0,0-1.39-1.46"></path><path class="cls-3" d="M341.8,269.69a2.11,2.11,0,0,0-.66-.93,1.66,1.66,0,0,0-1-.37h0a1.6,1.6,0,0,0-1,.35,2,2,0,0,0-.66.95.18.18,0,0,0,0,.1.21.21,0,0,0,0,.11.41.41,0,0,0,.05.09.16.16,0,0,0,.08.06.13.13,0,0,0,.09,0,.14.14,0,0,0,.09,0l.08-.06a.41.41,0,0,0,0-.09,1.57,1.57,0,0,1,.5-.68,1.24,1.24,0,0,1,.73-.27h0a1.33,1.33,0,0,1,.71.25,1.58,1.58,0,0,1,.48.65v.79a.31.31,0,0,0,.07.2.23.23,0,0,0,.17.08.25.25,0,0,0,.17-.08.31.31,0,0,0,.07-.2v-.85a.23.23,0,0,0,0-.11"></path><path class="cls-3" d="M340.55,276a.44.44,0,0,0-.16,0l-.14,0a.22.22,0,0,0-.09.07.13.13,0,0,0,0,.08v.42c0,.06.05.11.13.15a.65.65,0,0,0,.29.06.67.67,0,0,0,.3-.06c.08,0,.13-.09.13-.15v-.42a.13.13,0,0,0,0-.08.22.22,0,0,0-.09-.07l-.14,0A.47.47,0,0,0,340.55,276Z"></path><path class="cls-3" d="M338.57,265.85H337.4v-2.23a.25.25,0,0,0-.08-.17.29.29,0,0,0-.38,0,.25.25,0,0,0-.08.17v2.23H335.5V265a.29.29,0,0,0,0-.09.24.24,0,0,0-.06-.09.19.19,0,0,0-.09-.05l-.1,0h-.93a.23.23,0,0,1-.16-.24v-1.14a.36.36,0,0,0,0-.1.16.16,0,0,0-.06-.08l-.09-.05a.2.2,0,0,0-.11,0h-.16l.41-.6a.37.37,0,0,0,0-.15v-.49a.44.44,0,0,0,0-.1.21.21,0,0,0-.06-.08l-.09,0-.11,0a.27.27,0,0,0-.19.08.23.23,0,0,0-.08.17v.42l-.65.92a.16.16,0,0,0,0,.12.17.17,0,0,0,0,.12.22.22,0,0,0,.1.09.35.35,0,0,0,.14,0h.41v.87c0,.39.33.86.71.86H335v.5h-1.71a1.65,1.65,0,0,0-1.11.45,1.39,1.39,0,0,0-.44,1,.25.25,0,0,0,.08.18.29.29,0,0,0,.38,0,.25.25,0,0,0,.08-.18.92.92,0,0,1,.29-.67,1.11,1.11,0,0,1,.72-.32h5.34a1.14,1.14,0,0,1,.72.32.91.91,0,0,1,.28.67.25.25,0,0,0,.08.18.32.32,0,0,0,.2.07.32.32,0,0,0,.19-.07.25.25,0,0,0,.08-.18,1.37,1.37,0,0,0-.45-1,1.7,1.7,0,0,0-1.1-.45"></path><path class="cls-3" d="M336.73,261.26a2.14,2.14,0,0,0-.66-.94,1.66,1.66,0,0,0-1-.37h0a1.61,1.61,0,0,0-1,.36,2,2,0,0,0-.66.95.18.18,0,0,0,0,.1.2.2,0,0,0,0,.11.19.19,0,0,0,.05.09.27.27,0,0,0,.08.07l.09,0a.15.15,0,0,0,.09,0l.08-.05a.41.41,0,0,0,.05-.09,1.58,1.58,0,0,1,.5-.7,1.24,1.24,0,0,1,.73-.27h0a1.19,1.19,0,0,1,.71.26,1.52,1.52,0,0,1,.48.65v.79a.32.32,0,0,0,.07.19.25.25,0,0,0,.17.08.21.21,0,0,0,.16-.08.27.27,0,0,0,.08-.19v-.85A.2.2,0,0,0,336.73,261.26Z"></path><path class="cls-4" d="M86.22,169.83h1.69l7.36,17.53,7.37-17.53h1.68l-8.41,19.91H94.62Zm-.52,0h1.49L87.36,181v8.7H85.7Zm17.67,0h1.49v19.91h-1.68V181Zm15.17,17.26v-7.63a3.63,3.63,0,0,0-.44-1.82,2.91,2.91,0,0,0-1.29-1.18,4.8,4.8,0,0,0-2.09-.41,5,5,0,0,0-2,.41,3.69,3.69,0,0,0-1.41,1.08,2.47,2.47,0,0,0-.5,1.49h-1.64a3.32,3.32,0,0,1,.41-1.61,4.5,4.5,0,0,1,1.16-1.4,5.8,5.8,0,0,1,1.79-1,6.83,6.83,0,0,1,2.31-.37,6.74,6.74,0,0,1,2.79.54,4.18,4.18,0,0,1,1.9,1.59,4.85,4.85,0,0,1,.68,2.68v7.15a12.5,12.5,0,0,0,.11,1.59,6,6,0,0,0,.34,1.35v.17h-1.73a6.39,6.39,0,0,1-.26-1.23A11.92,11.92,0,0,1,118.54,187.09Zm.38-6,0,1.26h-3.22a9.64,9.64,0,0,0-2.25.24,5.07,5.07,0,0,0-1.67.65,3,3,0,0,0-1,1,2.58,2.58,0,0,0-.36,1.36,2.68,2.68,0,0,0,.4,1.45,3,3,0,0,0,1.15,1.06,3.91,3.91,0,0,0,1.77.38,5.38,5.38,0,0,0,2.41-.51,5.15,5.15,0,0,0,1.74-1.32,4.42,4.42,0,0,0,.91-1.79l.71.94a4.64,4.64,0,0,1-.65,1.41,6.31,6.31,0,0,1-1.22,1.34,6.24,6.24,0,0,1-4.07,1.39,5.45,5.45,0,0,1-2.53-.55,4.17,4.17,0,0,1-1.67-1.49,4.26,4.26,0,0,1-.12-4.11,4.11,4.11,0,0,1,1.34-1.48,6.49,6.49,0,0,1,2.13-.93,11.14,11.14,0,0,1,2.82-.33Zm7.26-12.38v21h-1.63v-21Zm9.28,6.21-6.92,6.86-2.94,2.84-.24-1.6,2.36-2.55L133.4,175ZM134,189.74l-6.18-7.69.9-1.4,7.25,9.09ZM140.1,175v14.79h-1.63V175Zm-1.92-4.28a1.12,1.12,0,0,1,.29-.78,1.18,1.18,0,0,1,1.64,0,1.06,1.06,0,0,1,.32.78,1.1,1.1,0,0,1-.32.78,1.24,1.24,0,0,1-1.64,0A1.16,1.16,0,0,1,138.18,170.67Zm8,7.43v11.64h-1.62V175h1.56Zm-.36,3.33-.73-.42a8.3,8.3,0,0,1,.53-2.46,6.85,6.85,0,0,1,1.22-2,5.78,5.78,0,0,1,1.82-1.37,5.54,5.54,0,0,1,2.32-.49,6.16,6.16,0,0,1,2,.3,3.62,3.62,0,0,1,1.49,1,4.27,4.27,0,0,1,.93,1.68,8.58,8.58,0,0,1,.32,2.5v9.63h-1.64V180.1a5.54,5.54,0,0,0-.42-2.39,2.52,2.52,0,0,0-1.2-1.25,4.39,4.39,0,0,0-1.85-.37,4.07,4.07,0,0,0-2.06.52,4.71,4.71,0,0,0-1.48,1.33,6.54,6.54,0,0,0-.9,1.74A5.7,5.7,0,0,0,145.83,181.43ZM169.7,175h1.51v14.53a7,7,0,0,1-.73,3.31,5.16,5.16,0,0,1-2.07,2.12,6.35,6.35,0,0,1-3.13.73,6.71,6.71,0,0,1-1.89-.28,6.49,6.49,0,0,1-1.81-.85,5.48,5.48,0,0,1-1.45-1.39l.91-1a6,6,0,0,0,1.93,1.6,4.89,4.89,0,0,0,2.21.52,4.71,4.71,0,0,0,2.38-.56,3.6,3.6,0,0,0,1.49-1.62,5.6,5.6,0,0,0,.52-2.53V178.2Zm-10.39,7.54v-.28a11.47,11.47,0,0,1,.38-3.11,7.2,7.2,0,0,1,1.13-2.38,5,5,0,0,1,1.79-1.51,5.3,5.3,0,0,1,2.41-.54,5.62,5.62,0,0,1,2.28.43,4.88,4.88,0,0,1,1.73,1.21,6.2,6.2,0,0,1,1.16,1.89,10.79,10.79,0,0,1,.66,2.43v3.65a8.71,8.71,0,0,1-.61,2.31,6.09,6.09,0,0,1-1.16,1.82,4.9,4.9,0,0,1-1.75,1.19A6.23,6.23,0,0,1,165,190a5.06,5.06,0,0,1-2.38-.55,5.15,5.15,0,0,1-1.79-1.54,7.55,7.55,0,0,1-1.13-2.39A11.15,11.15,0,0,1,159.31,182.49Zm1.64-.28v.28a10.18,10.18,0,0,0,.26,2.41,5.89,5.89,0,0,0,.79,1.93,3.93,3.93,0,0,0,1.35,1.28,3.86,3.86,0,0,0,1.93.47,4.77,4.77,0,0,0,2.37-.54,4.23,4.23,0,0,0,1.51-1.43,6.47,6.47,0,0,0,.82-2v-4.25a7.86,7.86,0,0,0-.46-1.48,4.72,4.72,0,0,0-.85-1.38,3.78,3.78,0,0,0-1.37-1,4.58,4.58,0,0,0-2-.39,4,4,0,0,0-2,.46,3.9,3.9,0,0,0-1.35,1.3,5.89,5.89,0,0,0-.79,1.93A10.18,10.18,0,0,0,161,182.21Zm30.38,4.88v-7.63a3.63,3.63,0,0,0-.44-1.82,2.91,2.91,0,0,0-1.29-1.18,4.8,4.8,0,0,0-2.09-.41,5,5,0,0,0-2,.41,3.69,3.69,0,0,0-1.41,1.08,2.41,2.41,0,0,0-.5,1.49h-1.64a3.32,3.32,0,0,1,.41-1.61,4.5,4.5,0,0,1,1.16-1.4,5.8,5.8,0,0,1,1.79-1,6.83,6.83,0,0,1,2.31-.37,6.74,6.74,0,0,1,2.79.54,4.18,4.18,0,0,1,1.9,1.59,4.94,4.94,0,0,1,.68,2.68v7.15a12.5,12.5,0,0,0,.11,1.59,6,6,0,0,0,.34,1.35v.17h-1.73a6.39,6.39,0,0,1-.26-1.23A11.92,11.92,0,0,1,191.33,187.09Zm.38-6,0,1.26h-3.22a9.58,9.58,0,0,0-2.25.24,5,5,0,0,0-1.67.65,3,3,0,0,0-1,1,2.58,2.58,0,0,0-.36,1.36,2.68,2.68,0,0,0,.4,1.45,3,3,0,0,0,1.15,1.06,3.91,3.91,0,0,0,1.77.38,5.41,5.41,0,0,0,2.41-.51,5.15,5.15,0,0,0,1.74-1.32,4.42,4.42,0,0,0,.91-1.79l.71.94a4.89,4.89,0,0,1-.65,1.41,6.31,6.31,0,0,1-1.22,1.34,6.24,6.24,0,0,1-4.07,1.39,5.45,5.45,0,0,1-2.53-.55,4.17,4.17,0,0,1-1.67-1.49,4.26,4.26,0,0,1-.12-4.11,4.08,4.08,0,0,1,1.33-1.48,6.64,6.64,0,0,1,2.14-.93,11.11,11.11,0,0,1,2.81-.33Zm7.26-3v11.64h-1.63V175h1.56Zm-.37,3.33-.73-.42a8.31,8.31,0,0,1,.54-2.46,6.83,6.83,0,0,1,1.21-2,5.78,5.78,0,0,1,1.82-1.37,5.55,5.55,0,0,1,2.33-.49,6.06,6.06,0,0,1,2,.3,3.62,3.62,0,0,1,1.49,1,4.27,4.27,0,0,1,.93,1.68,8.23,8.23,0,0,1,.33,2.5v9.63h-1.64V180.1a5.38,5.38,0,0,0-.43-2.39,2.52,2.52,0,0,0-1.2-1.25,4.36,4.36,0,0,0-1.85-.37,4.07,4.07,0,0,0-2.06.52,4.82,4.82,0,0,0-1.48,1.33,6.54,6.54,0,0,0-.9,1.74A6,6,0,0,0,198.6,181.43ZM221.39,175v14.79h-1.63V175Zm-1.91-4.28a1.12,1.12,0,0,1,.28-.78,1.06,1.06,0,0,1,.82-.33,1,1,0,0,1,.82.33,1.06,1.06,0,0,1,.32.78,1.1,1.1,0,0,1-.32.78,1.11,1.11,0,0,1-.82.31,1.12,1.12,0,0,1-.82-.31A1.15,1.15,0,0,1,219.48,170.67Zm7.93,7.34v11.73h-1.64V175h1.57Zm-.31,3.42-.79-.42a9.34,9.34,0,0,1,.49-2.46,6.75,6.75,0,0,1,1.18-2,5.39,5.39,0,0,1,1.8-1.37,5.75,5.75,0,0,1,2.4-.49,6,6,0,0,1,1.95.3,3.65,3.65,0,0,1,1.51.92,4.08,4.08,0,0,1,1,1.61,7.65,7.65,0,0,1,.34,2.39v9.85h-1.63V180a4.75,4.75,0,0,0-.46-2.31,2.61,2.61,0,0,0-1.27-1.19,4.6,4.6,0,0,0-1.88-.36,4.15,4.15,0,0,0-2.13.52,4.37,4.37,0,0,0-1.41,1.33,6.22,6.22,0,0,0-.79,1.74A7,7,0,0,0,227.1,181.43Zm9.83-1.29-1.09,0a6.39,6.39,0,0,1,.49-2.07,6.16,6.16,0,0,1,1.19-1.75,5.5,5.5,0,0,1,1.79-1.23,6,6,0,0,1,2.37-.45,6.21,6.21,0,0,1,2,.32,3.52,3.52,0,0,1,1.52,1,4.11,4.11,0,0,1,.95,1.68,8,8,0,0,1,.33,2.46v9.64h-1.64v-9.65a5.24,5.24,0,0,0-.46-2.44,2.53,2.53,0,0,0-1.26-1.22,5,5,0,0,0-1.89-.34,4.55,4.55,0,0,0-1.87.4,4,4,0,0,0-1.35,1,4.51,4.51,0,0,0-.82,1.3A4.1,4.1,0,0,0,236.93,180.14Zm15.37-2.35v17.64h-1.64V175h1.53Zm10.28,4.42v.28a11.15,11.15,0,0,1-.38,3,7.31,7.31,0,0,1-1.11,2.39,4.81,4.81,0,0,1-1.76,1.54,5,5,0,0,1-2.39.55,6.47,6.47,0,0,1-2.37-.41,5.17,5.17,0,0,1-1.79-1.16,6.1,6.1,0,0,1-1.19-1.78,8.68,8.68,0,0,1-.61-2.24v-3.79a9.83,9.83,0,0,1,.67-2.43,6.47,6.47,0,0,1,1.19-1.89,4.87,4.87,0,0,1,1.75-1.21,5.77,5.77,0,0,1,2.31-.43,5.17,5.17,0,0,1,2.4.54,4.73,4.73,0,0,1,1.79,1.51,6.8,6.8,0,0,1,1.11,2.38A11.47,11.47,0,0,1,262.58,182.21Zm-1.64.28v-.28a10.16,10.16,0,0,0-.27-2.41,5.7,5.7,0,0,0-.81-1.93,3.84,3.84,0,0,0-1.36-1.3,3.92,3.92,0,0,0-2-.46,4.74,4.74,0,0,0-2,.39,4.06,4.06,0,0,0-1.37,1,5.23,5.23,0,0,0-.86,1.38,7.86,7.86,0,0,0-.46,1.48v4.36a6.48,6.48,0,0,0,.83,1.93,4.22,4.22,0,0,0,1.53,1.4,4.94,4.94,0,0,0,2.37.52,3.87,3.87,0,0,0,1.94-.46,3.73,3.73,0,0,0,1.35-1.3,5.84,5.84,0,0,0,.81-1.94A10.16,10.16,0,0,0,260.94,182.49Zm14.28,4.6v-7.63a3.63,3.63,0,0,0-.44-1.82,2.91,2.91,0,0,0-1.29-1.18,4.8,4.8,0,0,0-2.09-.41,5,5,0,0,0-2,.41,3.69,3.69,0,0,0-1.41,1.08,2.47,2.47,0,0,0-.5,1.49H265.8a3.32,3.32,0,0,1,.41-1.61,4.5,4.5,0,0,1,1.16-1.4,5.8,5.8,0,0,1,1.79-1,6.83,6.83,0,0,1,2.31-.37,6.74,6.74,0,0,1,2.79.54,4.18,4.18,0,0,1,1.9,1.59,4.85,4.85,0,0,1,.68,2.68v7.15a12.5,12.5,0,0,0,.11,1.59,6,6,0,0,0,.34,1.35v.17h-1.73a6.39,6.39,0,0,1-.26-1.23A11.92,11.92,0,0,1,275.22,187.09Zm.38-6,0,1.26h-3.22a9.58,9.58,0,0,0-2.25.24,5.07,5.07,0,0,0-1.67.65,3,3,0,0,0-1.05,1,2.58,2.58,0,0,0-.36,1.36,2.68,2.68,0,0,0,.4,1.45,3,3,0,0,0,1.15,1.06,3.91,3.91,0,0,0,1.77.38,5.38,5.38,0,0,0,2.41-.51,5.15,5.15,0,0,0,1.74-1.32,4.42,4.42,0,0,0,.91-1.79l.71.94a4.89,4.89,0,0,1-.65,1.41,6.31,6.31,0,0,1-1.22,1.34,6.24,6.24,0,0,1-4.07,1.39,5.45,5.45,0,0,1-2.53-.55A4.17,4.17,0,0,1,266,188a4.26,4.26,0,0,1-.12-4.11,4.11,4.11,0,0,1,1.34-1.48,6.49,6.49,0,0,1,2.13-.93,11.11,11.11,0,0,1,2.81-.33Zm11.09,7.48a4.83,4.83,0,0,0,1.94-.38,3.67,3.67,0,0,0,1.5-1.16,3.52,3.52,0,0,0,.69-1.9h1.55a4.54,4.54,0,0,1-.86,2.51,5.42,5.42,0,0,1-2.05,1.73,6.22,6.22,0,0,1-2.77.61,6.45,6.45,0,0,1-2.74-.56,5.46,5.46,0,0,1-2-1.56,7.25,7.25,0,0,1-1.2-2.35,10.44,10.44,0,0,1-.4-2.91v-.58a10.25,10.25,0,0,1,.4-2.89,7.1,7.1,0,0,1,1.2-2.36,5.6,5.6,0,0,1,2-1.57,6.77,6.77,0,0,1,5.57.08,5.15,5.15,0,0,1,2,1.82,5.42,5.42,0,0,1,.83,2.79h-1.55a4.23,4.23,0,0,0-.63-2,3.87,3.87,0,0,0-1.48-1.33,4.56,4.56,0,0,0-2-.46,4.31,4.31,0,0,0-2.14.49,3.86,3.86,0,0,0-1.45,1.33,5.77,5.77,0,0,0-.81,1.91,9.61,9.61,0,0,0-.26,2.24v.58a9.87,9.87,0,0,0,.25,2.27,6.11,6.11,0,0,0,.8,1.9,4.17,4.17,0,0,0,1.45,1.32A4.59,4.59,0,0,0,286.69,188.6ZM301.26,175v1.34h-7.41V175Zm-4.69-3.81h1.63v15a3.47,3.47,0,0,0,.27,1.55,1.39,1.39,0,0,0,.71.69,2.47,2.47,0,0,0,.95.18,5.53,5.53,0,0,0,.71,0c.23,0,.43-.07.61-.11l.07,1.38a3.37,3.37,0,0,1-.78.15,6.2,6.2,0,0,1-1,.07,3.82,3.82,0,0,1-1.66-.34,2.52,2.52,0,0,1-1.14-1.2,5.61,5.61,0,0,1-.41-2.34ZM149.2,208v1.34h-7.41V208Zm-4.69-3.81h1.63v15a3.47,3.47,0,0,0,.27,1.55,1.43,1.43,0,0,0,.71.69,2.51,2.51,0,0,0,.95.18,5.53,5.53,0,0,0,.71,0c.23,0,.43-.07.61-.11l.07,1.38a3.37,3.37,0,0,1-.78.15,6.16,6.16,0,0,1-1,.07,3.83,3.83,0,0,1-1.67-.34,2.52,2.52,0,0,1-1.14-1.2,5.61,5.61,0,0,1-.41-2.34Zm7,11.43v-.45a9.22,9.22,0,0,1,.46-3,7.07,7.07,0,0,1,1.33-2.36,6,6,0,0,1,2.09-1.55,6.86,6.86,0,0,1,5.43,0,6,6,0,0,1,2.09,1.55,6.92,6.92,0,0,1,1.34,2.36,9.22,9.22,0,0,1,.47,3v.45a9.17,9.17,0,0,1-.47,3,7,7,0,0,1-1.34,2.36,6,6,0,0,1-2.08,1.55,6.42,6.42,0,0,1-2.7.55,6.53,6.53,0,0,1-2.73-.55,6.27,6.27,0,0,1-2.09-1.55,7,7,0,0,1-1.34-2.36A9.17,9.17,0,0,1,151.46,215.57Zm1.63-.45v.45a8,8,0,0,0,.32,2.31,6.23,6.23,0,0,0,1,1.93,4.38,4.38,0,0,0,1.56,1.31,4.6,4.6,0,0,0,2.15.48,4.47,4.47,0,0,0,2.11-.48,4.38,4.38,0,0,0,1.56-1.31,6,6,0,0,0,.95-1.93,8,8,0,0,0,.32-2.31v-.45a7.76,7.76,0,0,0-.32-2.28,5.92,5.92,0,0,0-1-1.93,4.68,4.68,0,0,0-1.56-1.34,4.87,4.87,0,0,0-4.26,0,4.78,4.78,0,0,0-1.56,1.34,6.34,6.34,0,0,0-1,1.93A8.1,8.1,0,0,0,153.09,215.12Zm24.7-7.17h1.52v14.53a7,7,0,0,1-.74,3.31,5.07,5.07,0,0,1-2.06,2.12,6.39,6.39,0,0,1-3.14.73,6.59,6.59,0,0,1-1.88-.28,6.42,6.42,0,0,1-1.82-.85,5.48,5.48,0,0,1-1.45-1.39l.92-1a6,6,0,0,0,1.92,1.6,5,5,0,0,0,2.22.52,4.73,4.73,0,0,0,2.38-.56,3.71,3.71,0,0,0,1.49-1.62,5.73,5.73,0,0,0,.52-2.53V211.2Zm-10.39,7.54v-.28a11.88,11.88,0,0,1,.38-3.11,7.41,7.41,0,0,1,1.14-2.38,4.88,4.88,0,0,1,1.79-1.51,5.23,5.23,0,0,1,2.4-.54,5.7,5.7,0,0,1,2.29.43,4.84,4.84,0,0,1,1.72,1.21,6.2,6.2,0,0,1,1.16,1.89,10.79,10.79,0,0,1,.66,2.43v3.65a9.1,9.1,0,0,1-.6,2.31,6.09,6.09,0,0,1-1.16,1.82,5.08,5.08,0,0,1-1.75,1.19,6.3,6.3,0,0,1-2.34.41,5,5,0,0,1-2.38-.55,5.07,5.07,0,0,1-1.79-1.54,7.79,7.79,0,0,1-1.14-2.39A11.55,11.55,0,0,1,167.4,215.49Zm1.64-.28v.28a10.73,10.73,0,0,0,.26,2.41,6.11,6.11,0,0,0,.79,1.93,4,4,0,0,0,1.36,1.28,3.82,3.82,0,0,0,1.92.47,4.77,4.77,0,0,0,2.37-.54,4.26,4.26,0,0,0,1.52-1.43,7,7,0,0,0,.82-2v-4.25a7.91,7.91,0,0,0-.47-1.48,4.91,4.91,0,0,0-.84-1.38,4,4,0,0,0-1.37-1,4.63,4.63,0,0,0-2-.39,3.7,3.7,0,0,0-3.31,1.76,6.11,6.11,0,0,0-.79,1.93A10.73,10.73,0,0,0,169,215.21ZM189.3,223a6.65,6.65,0,0,1-2.66-.53,6.33,6.33,0,0,1-2.11-1.51,6.94,6.94,0,0,1-1.38-2.29,8.66,8.66,0,0,1-.48-2.93v-.59a8.86,8.86,0,0,1,.51-3.09,7.09,7.09,0,0,1,1.39-2.36,6,6,0,0,1,2-1.5,5.54,5.54,0,0,1,2.4-.54,5.85,5.85,0,0,1,2.5.51,5,5,0,0,1,1.84,1.41,6.16,6.16,0,0,1,1.13,2.14,9,9,0,0,1,.38,2.72v1H183.66v-1.39h9.57v-.19a6,6,0,0,0-.51-2.33,4.22,4.22,0,0,0-1.39-1.78,3.87,3.87,0,0,0-2.33-.68,4.22,4.22,0,0,0-1.91.44,4.34,4.34,0,0,0-1.49,1.25,6.23,6.23,0,0,0-1,1.93,8.61,8.61,0,0,0-.33,2.46v.59a7.15,7.15,0,0,0,.36,2.3,5.84,5.84,0,0,0,1,1.86,4.8,4.8,0,0,0,1.61,1.26,4.63,4.63,0,0,0,2.05.45,5.31,5.31,0,0,0,2.32-.48,5.09,5.09,0,0,0,1.82-1.55l1,.8a6.39,6.39,0,0,1-1.2,1.31,5.67,5.67,0,0,1-1.71,1A7.14,7.14,0,0,1,189.3,223ZM203.67,208v1.34h-7.41V208ZM199,204.14h1.63v15a3.47,3.47,0,0,0,.27,1.55,1.39,1.39,0,0,0,.71.69,2.47,2.47,0,0,0,.95.18,5.53,5.53,0,0,0,.71,0c.23,0,.43-.07.61-.11l.07,1.38a3.37,3.37,0,0,1-.78.15,6.2,6.2,0,0,1-1,.07,3.82,3.82,0,0,1-1.66-.34,2.52,2.52,0,0,1-1.14-1.2,5.61,5.61,0,0,1-.41-2.34Zm9.75-2.4v21H207.1v-21Zm-.37,12.69-.72-.42a8,8,0,0,1,.53-2.46,6.85,6.85,0,0,1,1.22-2,5.75,5.75,0,0,1,1.81-1.37,5.59,5.59,0,0,1,2.33-.49,6.06,6.06,0,0,1,2,.3,3.62,3.62,0,0,1,1.49,1,4.27,4.27,0,0,1,.93,1.68,8.23,8.23,0,0,1,.33,2.5v9.63h-1.64V213.1a5.38,5.38,0,0,0-.43-2.39,2.52,2.52,0,0,0-1.2-1.25,4.34,4.34,0,0,0-1.84-.37,4.08,4.08,0,0,0-2.07.52,4.94,4.94,0,0,0-1.48,1.33,6.54,6.54,0,0,0-.9,1.74A6,6,0,0,0,208.36,214.43ZM228.18,223a6.65,6.65,0,0,1-2.66-.53,6.54,6.54,0,0,1-2.11-1.51,6.94,6.94,0,0,1-1.38-2.29,8.66,8.66,0,0,1-.48-2.93v-.59a8.86,8.86,0,0,1,.51-3.09,7.26,7.26,0,0,1,1.39-2.36,6.09,6.09,0,0,1,2-1.5,5.57,5.57,0,0,1,2.4-.54,5.89,5.89,0,0,1,2.51.51,4.9,4.9,0,0,1,1.83,1.41,6,6,0,0,1,1.13,2.14,9,9,0,0,1,.39,2.72v1h-11.2v-1.39h9.57v-.19a6,6,0,0,0-.51-2.33,4.22,4.22,0,0,0-1.39-1.78,3.87,3.87,0,0,0-2.33-.68,4.22,4.22,0,0,0-1.91.44,4.43,4.43,0,0,0-1.49,1.25,6.23,6.23,0,0,0-1,1.93,8.61,8.61,0,0,0-.33,2.46v.59a7.15,7.15,0,0,0,.36,2.3,6,6,0,0,0,1,1.86,4.8,4.8,0,0,0,1.61,1.26,4.66,4.66,0,0,0,2.05.45,5.39,5.39,0,0,0,2.33-.48,5.26,5.26,0,0,0,1.82-1.55l1,.8a6.39,6.39,0,0,1-1.2,1.31,5.67,5.67,0,0,1-1.71,1A7.14,7.14,0,0,1,228.18,223Zm10.41-12.62v12.35H237V208h1.59Zm5.24-2.55-.05,1.5-.53-.07a4.86,4.86,0,0,0-.56,0,4.25,4.25,0,0,0-1.87.4,3.81,3.81,0,0,0-1.34,1.08,4.93,4.93,0,0,0-.84,1.61,7.32,7.32,0,0,0-.32,2l-.61.24a11,11,0,0,1,.31-2.7,6.76,6.76,0,0,1,.91-2.17,4.38,4.38,0,0,1,1.57-1.46,4.51,4.51,0,0,1,2.25-.54,3.08,3.08,0,0,1,.61.06A1.41,1.41,0,0,1,243.83,207.84Z"></path></svg>