<svg xmlns="http://www.w3.org/2000/svg" xmlns:xlink="http://www.w3.org/1999/xlink" id="Layer_1" x="0px" y="0px" viewBox="0 0 342.8 371.7" style="enable-background:new 0 0 342.8 371.7;" xml:space="preserve"><style type="text/css">	.st0{fill:#272C2E;}	.st1{fill:#FFFFFF;}	.st2{fill:#55CDD5;}	.st3{clip-path:url(#SVGID_00000041260505290313889150000006256076103312018586_);}	.st4{fill:#3F3D56;}	.st5{fill:#E6E6E6;}	.st6{fill:#44C1C9;}	.st7{fill:#CCCCCC;}	.st8{fill:#2F2E41;}	.st9{fill:#A0616A;}</style><rect class="st0" width="342.8" height="371.7"></rect><path class="st1" d="M37.3,187.3c0-0.4-0.1-0.9-0.2-1.3c-0.2-0.4-0.5-0.7-0.8-1c-0.5-0.4-1-0.6-1.5-0.9c-0.8-0.3-1.5-0.6-2.3-0.8 c-0.8-0.2-1.6-0.5-2.4-0.8c-0.7-0.3-1.3-0.6-1.8-1c-0.5-0.4-0.9-0.8-1.2-1.4c-0.6-1.2-0.6-2.5,0-3.7c0.3-0.6,0.7-1.1,1.3-1.5 c0.6-0.4,1.2-0.7,1.9-0.9c0.8-0.2,1.6-0.3,2.4-0.3c1.1,0,2.2,0.2,3.2,0.7c0.9,0.4,1.6,1.1,2.2,1.9c0.5,0.8,0.8,1.7,0.8,2.7h-1.5 c0-0.7-0.2-1.4-0.5-2.1c-0.4-0.6-0.9-1.1-1.6-1.4c-0.8-0.4-1.6-0.6-2.5-0.5c-0.8,0-1.7,0.1-2.5,0.4c-0.6,0.2-1.1,0.7-1.5,1.2 c-0.3,0.5-0.5,1-0.5,1.6c0,0.4,0.1,0.8,0.2,1.2c0.2,0.4,0.5,0.7,0.8,1c0.5,0.3,1,0.6,1.5,0.9c0.7,0.3,1.5,0.6,2.3,0.8 c0.9,0.2,1.7,0.5,2.5,0.9c0.7,0.3,1.3,0.7,1.8,1.1c0.5,0.4,0.9,0.9,1.2,1.4c0.3,0.6,0.4,1.2,0.4,1.9c0,0.7-0.1,1.4-0.5,2 c-0.3,0.6-0.8,1.1-1.3,1.4c-0.6,0.4-1.2,0.7-1.9,0.9c-0.8,0.2-1.6,0.3-2.4,0.3c-0.8,0-1.6-0.1-2.4-0.3c-0.8-0.2-1.5-0.5-2.1-0.9 c-0.6-0.4-1.2-1-1.5-1.7c-0.4-0.7-0.6-1.6-0.6-2.4h1.5c0,0.7,0.1,1.3,0.5,1.9c0.3,0.5,0.7,0.9,1.2,1.2c0.5,0.3,1.1,0.6,1.7,0.7 c0.6,0.1,1.2,0.2,1.8,0.2c0.8,0,1.7-0.1,2.4-0.4c0.6-0.2,1.2-0.6,1.6-1.2C37.1,188.6,37.4,188,37.3,187.3z M50.2,188.7v-10.2h1.5 v13.2h-1.4L50.2,188.7z M50.5,186.2h0.8c0,0.8-0.1,1.5-0.3,2.3c-0.2,0.7-0.5,1.3-0.9,1.8c-0.4,0.5-1,0.9-1.6,1.2 c-0.8,0.3-1.6,0.5-2.4,0.4c-0.6,0-1.2-0.1-1.8-0.3c-0.5-0.2-1-0.5-1.4-0.9c-0.4-0.4-0.7-1-0.9-1.6c-0.2-0.8-0.3-1.5-0.3-2.3v-8.5 h1.5v8.5c0,0.6,0.1,1.2,0.2,1.8c0.1,0.4,0.4,0.8,0.7,1.1c0.3,0.3,0.6,0.5,1,0.6c0.4,0.1,0.8,0.2,1.2,0.2c0.9,0,1.8-0.2,2.5-0.6 c0.6-0.4,1.1-1,1.3-1.6C50.3,187.7,50.5,187,50.5,186.2z M55.5,173h1.5v16.2l-0.1,2.6h-1.4L55.5,173z M66.1,185v0.3 c0,0.9-0.1,1.8-0.3,2.7c-0.2,0.8-0.5,1.5-1,2.1c-0.8,1.2-2.2,2-3.7,1.9c-0.7,0-1.4-0.1-2.1-0.4c-0.6-0.2-1.1-0.6-1.6-1.1 c-0.4-0.5-0.8-1-1-1.6c-0.3-0.7-0.5-1.4-0.5-2.1v-3.3c0.1-0.7,0.3-1.5,0.6-2.2c0.2-0.6,0.6-1.2,1-1.7c0.4-0.5,1-0.9,1.5-1.1 c0.7-0.3,1.4-0.4,2.1-0.4c0.7,0,1.5,0.2,2.2,0.5c0.6,0.3,1.2,0.8,1.6,1.4c0.5,0.6,0.8,1.4,1,2.1C66,183.1,66.1,184.1,66.1,185 L66.1,185z M64.7,185.2V185c0-0.7-0.1-1.4-0.2-2.1c-0.1-0.6-0.4-1.2-0.7-1.7c-0.3-0.5-0.7-0.9-1.2-1.2c-0.5-0.3-1.1-0.4-1.8-0.4 c-0.6,0-1.2,0.1-1.8,0.4c-0.5,0.2-0.9,0.5-1.2,0.9c-0.3,0.3-0.6,0.7-0.8,1.2c-0.2,0.4-0.3,0.9-0.4,1.3v3.8c0.1,0.6,0.4,1.2,0.7,1.7 c0.3,0.5,0.8,1,1.4,1.3c0.6,0.3,1.4,0.5,2.1,0.5c0.6,0,1.2-0.1,1.7-0.4c0.5-0.3,0.9-0.7,1.2-1.1c0.3-0.5,0.6-1.1,0.7-1.7 C64.6,186.7,64.6,185.9,64.7,185.2L64.7,185.2z M77.3,188.3c0-0.4-0.1-0.7-0.3-1.1c-0.2-0.4-0.6-0.8-1-1c-0.7-0.4-1.5-0.6-2.2-0.7 c-0.7-0.1-1.3-0.3-2-0.6c-0.5-0.2-1-0.4-1.4-0.7c-0.4-0.3-0.7-0.6-0.9-1c-0.2-0.4-0.3-0.9-0.3-1.4c0-0.5,0.1-1,0.3-1.4 c0.2-0.4,0.5-0.8,0.9-1.1c0.4-0.4,0.9-0.6,1.5-0.8c0.6-0.2,1.3-0.3,1.9-0.3c0.9,0,1.8,0.2,2.6,0.5c0.7,0.3,1.3,0.8,1.7,1.4 c0.4,0.6,0.6,1.3,0.6,2h-1.5c0-0.5-0.1-0.9-0.4-1.3c-0.3-0.4-0.7-0.8-1.2-1c-0.6-0.3-1.2-0.4-1.9-0.4c-0.6,0-1.3,0.1-1.8,0.3 c-0.4,0.2-0.8,0.5-1,0.9c-0.2,0.3-0.3,0.7-0.3,1.1c0,0.3,0,0.5,0.1,0.8c0.1,0.3,0.3,0.5,0.5,0.7c0.3,0.3,0.7,0.4,1.1,0.6 c0.6,0.2,1.2,0.4,1.8,0.5c0.9,0.2,1.8,0.5,2.6,0.9c0.6,0.3,1.1,0.7,1.5,1.2c0.3,0.5,0.5,1.2,0.5,1.8c0,1.1-0.5,2-1.3,2.7 c-0.5,0.3-1,0.6-1.5,0.8c-0.7,0.2-1.3,0.3-2,0.3c-1,0.1-2-0.1-2.9-0.5c-0.7-0.3-1.3-0.8-1.7-1.5c-0.4-0.6-0.6-1.2-0.6-1.9h1.5 c0,0.6,0.2,1.2,0.6,1.6c0.4,0.4,0.9,0.7,1.4,0.8c0.5,0.2,1.1,0.2,1.7,0.2c0.6,0,1.3-0.1,1.9-0.3c0.5-0.2,0.8-0.5,1.2-0.9 C77.1,189.2,77.3,188.8,77.3,188.3L77.3,188.3z M86.9,190.7c0.6,0,1.2-0.1,1.7-0.4c0.5-0.2,1-0.6,1.3-1c0.4-0.5,0.6-1.1,0.6-1.7H92 c0,0.8-0.3,1.6-0.8,2.2c-0.5,0.7-1.1,1.2-1.8,1.5c-1.6,0.7-3.4,0.7-4.9,0c-0.7-0.3-1.3-0.8-1.8-1.4c-0.5-0.6-0.9-1.3-1.1-2.1 c-0.2-0.8-0.4-1.7-0.3-2.6v-0.5c0-0.9,0.1-1.7,0.3-2.6c0.2-0.8,0.6-1.5,1.1-2.1c0.5-0.6,1.1-1.1,1.8-1.4c0.8-0.3,1.6-0.5,2.4-0.5 c0.9,0,1.8,0.2,2.5,0.6c0.7,0.4,1.4,0.9,1.8,1.6c0.5,0.7,0.7,1.6,0.8,2.5h-1.4c0-0.7-0.2-1.3-0.6-1.8c-0.3-0.5-0.8-0.9-1.3-1.2 c-1.2-0.5-2.6-0.5-3.7,0.1c-0.5,0.3-1,0.7-1.3,1.2c-0.3,0.5-0.6,1.1-0.7,1.7c-0.2,0.7-0.2,1.3-0.2,2v0.5c0,0.7,0.1,1.3,0.2,2 c0.1,0.6,0.4,1.2,0.7,1.7c0.3,0.5,0.8,0.9,1.3,1.2C85.6,190.6,86.2,190.7,86.9,190.7L86.9,190.7z M96.4,180.7v11h-1.5v-13.2h1.4 L96.4,180.7z M101.1,178.4v1.3l-0.5-0.1h-0.5c-0.6,0-1.2,0.1-1.7,0.4c-0.5,0.2-0.9,0.6-1.2,1c-0.3,0.4-0.6,0.9-0.8,1.4 c-0.2,0.6-0.3,1.2-0.3,1.8l-0.5,0.2c0-0.8,0.1-1.6,0.3-2.4c0.2-0.7,0.4-1.3,0.8-1.9c0.4-0.5,0.8-1,1.4-1.3c0.6-0.3,1.3-0.5,2-0.5 c0.2,0,0.4,0,0.6,0.1C100.8,178.4,100.9,178.4,101.1,178.4L101.1,178.4z M105,178.5v13.2h-1.4v-13.2L105,178.5z M103.3,174.7 c0-0.3,0.1-0.5,0.3-0.7c0.4-0.4,1.1-0.4,1.5,0c0.4,0.4,0.4,1,0,1.4c-0.4,0.4-1,0.4-1.4,0l0,0C103.4,175.2,103.3,174.9,103.3,174.7 L103.3,174.7z M109,173h1.5v16.2l-0.1,2.6H109V173z M119.7,185v0.3c0,0.9-0.1,1.8-0.3,2.7c-0.2,0.8-0.5,1.5-1,2.1 c-0.4,0.6-1,1-1.6,1.4c-0.7,0.3-1.4,0.5-2.1,0.5c-0.7,0-1.4-0.1-2.1-0.4c-0.6-0.2-1.1-0.6-1.6-1.1c-0.4-0.5-0.8-1-1-1.6 c-0.3-0.7-0.5-1.4-0.6-2.1v-3.3c0.1-0.7,0.3-1.5,0.6-2.2c0.2-0.6,0.6-1.2,1-1.7c0.4-0.5,0.9-0.8,1.5-1.1c0.7-0.3,1.4-0.4,2.1-0.4 c0.7,0,1.5,0.2,2.2,0.5c0.6,0.3,1.2,0.8,1.6,1.4c0.5,0.6,0.8,1.4,1,2.1C119.5,183.1,119.6,184.1,119.7,185L119.7,185z M118.2,185.3 V185c0-0.7-0.1-1.4-0.2-2.1c-0.1-0.6-0.4-1.2-0.7-1.7c-0.3-0.5-0.8-0.9-1.3-1.1c-0.5-0.3-1.1-0.4-1.8-0.4c-0.6,0-1.2,0.1-1.8,0.4 c-0.5,0.2-0.9,0.5-1.2,0.9c-0.3,0.4-0.6,0.8-0.8,1.2c-0.2,0.4-0.3,0.9-0.4,1.3v3.8c0.1,0.6,0.4,1.2,0.7,1.7c0.3,0.5,0.8,1,1.4,1.3 c0.6,0.3,1.4,0.5,2.1,0.5c0.6,0,1.2-0.1,1.7-0.4c0.5-0.3,0.9-0.7,1.2-1.1c0.3-0.5,0.6-1.1,0.7-1.7C118,186.7,118.1,186,118.2,185.3 L118.2,185.3z M128,192c-0.8,0-1.6-0.1-2.4-0.5c-0.7-0.3-1.4-0.8-1.9-1.4c-0.5-0.6-1-1.3-1.2-2c-0.3-0.8-0.4-1.7-0.4-2.6V185 c0-0.9,0.1-1.9,0.5-2.8c0.3-0.8,0.7-1.5,1.2-2.1c0.5-0.6,1.1-1,1.8-1.3c0.7-0.3,1.4-0.5,2.2-0.5c0.8,0,1.5,0.1,2.2,0.5 c0.6,0.3,1.2,0.7,1.6,1.2c0.5,0.6,0.8,1.2,1,1.9c0.2,0.8,0.4,1.6,0.3,2.4v0.9h-10V184h8.6v-0.2c0-0.7-0.2-1.4-0.4-2.1 c-0.3-0.6-0.7-1.2-1.2-1.6c-0.6-0.4-1.3-0.6-2.1-0.6c-0.6,0-1.2,0.1-1.7,0.4c-0.5,0.3-1,0.7-1.3,1.1c-0.4,0.5-0.7,1.1-0.9,1.7 c-0.2,0.7-0.3,1.5-0.3,2.2v0.5c0,0.7,0.1,1.4,0.3,2.1c0.2,0.6,0.5,1.2,0.9,1.7c0.4,0.5,0.9,0.9,1.4,1.1c0.6,0.3,1.2,0.4,1.8,0.4 c0.7,0,1.4-0.1,2.1-0.4c0.6-0.3,1.2-0.8,1.6-1.4l0.9,0.7c-0.3,0.4-0.7,0.8-1.1,1.2c-0.5,0.4-1,0.7-1.5,0.9 C129.4,191.9,128.7,192,128,192z M146.9,178.6v1.2h-6.6v-1.2H146.9z M142.8,175.2h1.4v13.4c0,0.5,0.1,0.9,0.2,1.4 c0.1,0.3,0.4,0.5,0.6,0.6c0.3,0.1,0.6,0.2,0.8,0.2c0.2,0,0.4,0,0.6,0l0.6-0.1l0.1,1.2c-0.2,0.1-0.5,0.1-0.7,0.1 c-0.3,0-0.6,0.1-0.9,0.1c-0.5,0-1-0.1-1.5-0.3c-0.4-0.2-0.8-0.6-1-1.1c-0.3-0.7-0.4-1.4-0.4-2.1L142.8,175.2z M148.9,185.4V185 c0-0.9,0.1-1.8,0.4-2.7c0.3-0.8,0.7-1.5,1.2-2.1c0.5-0.6,1.2-1.1,1.9-1.4c1.5-0.7,3.3-0.7,4.8,0c0.7,0.3,1.4,0.8,1.9,1.4 c0.5,0.6,0.9,1.3,1.2,2.1c0.3,0.9,0.4,1.8,0.4,2.7v0.4c0,0.9-0.1,1.8-0.4,2.7c-0.3,0.8-0.7,1.5-1.2,2.1c-0.5,0.6-1.1,1.1-1.9,1.4 c-1.6,0.6-3.3,0.6-4.9,0c-0.7-0.3-1.4-0.8-1.9-1.4c-0.5-0.6-0.9-1.3-1.2-2.1C149.1,187.1,148.9,186.2,148.9,185.4L148.9,185.4z  M150.4,185v0.4c0,0.7,0.1,1.4,0.3,2.1c0.2,0.6,0.5,1.2,0.9,1.7c0.8,1,2,1.6,3.3,1.6c0.7,0,1.3-0.1,1.9-0.4c0.5-0.3,1-0.7,1.4-1.2 c0.4-0.5,0.7-1.1,0.8-1.7c0.2-0.7,0.3-1.4,0.3-2.1V185c0-0.7-0.1-1.4-0.3-2c-0.2-0.6-0.5-1.2-0.9-1.7c-0.4-0.5-0.8-0.9-1.4-1.2 c-0.6-0.3-1.2-0.5-1.9-0.4c-0.7,0-1.3,0.1-1.9,0.4c-0.5,0.3-1,0.7-1.4,1.2c-0.4,0.5-0.7,1.1-0.9,1.7 C150.5,183.6,150.4,184.2,150.4,185L150.4,185z M169.1,185.4V185c0-0.9,0.1-1.8,0.4-2.7c0.2-0.8,0.7-1.5,1.2-2.1 c0.5-0.6,1.2-1.1,1.9-1.4c1.5-0.7,3.3-0.7,4.8,0c0.7,0.3,1.4,0.8,1.9,1.4c0.5,0.6,0.9,1.3,1.2,2.1c0.3,0.9,0.4,1.8,0.4,2.7v0.4 c0,0.9-0.1,1.8-0.4,2.7c-0.3,0.8-0.7,1.5-1.2,2.1c-0.5,0.6-1.1,1.1-1.9,1.4c-1.6,0.6-3.3,0.6-4.9,0c-0.7-0.3-1.4-0.8-1.9-1.4 c-0.5-0.6-0.9-1.3-1.2-2.1C169.2,187.2,169,186.2,169.1,185.4L169.1,185.4z M170.5,185v0.4c0,0.7,0.1,1.4,0.3,2.1 c0.2,0.6,0.5,1.2,0.9,1.7c0.8,1,2,1.6,3.3,1.6c1.3,0,2.5-0.6,3.3-1.6c0.4-0.5,0.7-1.1,0.9-1.7c0.2-0.7,0.3-1.4,0.3-2.1V185 c0-0.7-0.1-1.4-0.3-2c-0.2-0.6-0.5-1.2-0.9-1.7c-1.2-1.6-3.4-2.2-5.2-1.2c-0.5,0.3-1,0.7-1.4,1.2c-0.4,0.5-0.7,1.1-0.9,1.7 C170.6,183.6,170.5,184.2,170.5,185L170.5,185z M192.3,188.7v-10.2h1.5v13.2h-1.4L192.3,188.7z M192.6,186.3h0.8 c0,0.8-0.1,1.5-0.3,2.3c-0.2,0.7-0.5,1.3-0.9,1.8c-0.4,0.5-1,0.9-1.6,1.2c-0.8,0.3-1.6,0.4-2.4,0.4c-0.6,0-1.2-0.1-1.8-0.3 c-0.5-0.2-1-0.5-1.4-0.9c-0.4-0.4-0.7-1-0.9-1.6c-0.2-0.8-0.3-1.5-0.3-2.3v-8.5h1.5v8.5c0,0.6,0.1,1.2,0.2,1.8 c0.1,0.4,0.4,0.8,0.7,1.1c0.3,0.3,0.6,0.5,1,0.6c0.4,0.1,0.8,0.2,1.2,0.2c0.9,0,1.8-0.2,2.5-0.6c0.6-0.4,1.1-1,1.3-1.6 C192.5,187.7,192.6,187,192.6,186.3L192.6,186.3z M199.1,180.7v11h-1.4v-13.2h1.4L199.1,180.7z M203.8,178.5v1.3l-0.5-0.1h-0.5 c-0.6-0.1-1.2,0-1.8,0.3c-0.5,0.2-0.9,0.6-1.2,1c-0.3,0.4-0.6,0.9-0.8,1.4c-0.2,0.6-0.3,1.2-0.3,1.8l-0.5,0.2c0-0.8,0.1-1.6,0.3-2.4 c0.2-0.7,0.4-1.3,0.8-1.9c0.4-0.5,0.8-1,1.4-1.3c0.6-0.3,1.3-0.5,2-0.5c0.2,0,0.4,0,0.6,0.1C203.4,178.3,203.6,178.4,203.8,178.5 L203.8,178.5z"></path><path class="st2" d="M31.4,213.3v13.9h-4.7v-17.6h4.4L31.4,213.3z M30.7,217.7h-1.3c0-1.2,0.1-2.4,0.5-3.5c0.3-1,0.8-1.9,1.4-2.7 c0.6-0.7,1.3-1.3,2.2-1.7c0.9-0.4,1.9-0.6,2.8-0.6c0.8,0,1.5,0.1,2.3,0.4c0.7,0.2,1.3,0.6,1.8,1.1c0.5,0.6,0.9,1.3,1.1,2.1 c0.3,1,0.4,2.1,0.4,3.1v11.2h-4.7v-11.2c0-0.6-0.1-1.3-0.3-1.8c-0.2-0.4-0.6-0.7-1-0.9c-0.5-0.2-1-0.3-1.5-0.3 c-0.6,0-1.1,0.1-1.7,0.4c-0.4,0.2-0.8,0.6-1.1,1c-0.3,0.5-0.5,1-0.7,1.5C30.8,216.4,30.7,217.1,30.7,217.7L30.7,217.7z M53.6,227.5 c-1.3,0-2.5-0.2-3.7-0.6c-2.1-0.8-3.7-2.5-4.5-4.6c-0.4-1.1-0.6-2.2-0.6-3.3v-0.6c0-1.2,0.2-2.5,0.6-3.7c0.4-1.1,0.9-2,1.6-2.9 c0.7-0.8,1.6-1.5,2.6-1.9c1.1-0.5,2.3-0.7,3.5-0.7c1.1,0,2.3,0.2,3.3,0.6c0.9,0.4,1.8,1,2.4,1.8c0.7,0.8,1.2,1.7,1.5,2.7 c0.3,1.1,0.5,2.3,0.5,3.5v2h-14v-3.1h9.4v-0.4c0-0.6-0.1-1.2-0.4-1.7c-0.2-0.5-0.6-0.9-1-1.2c-0.5-0.3-1.2-0.5-1.8-0.4 c-0.6,0-1.1,0.1-1.6,0.4c-0.5,0.3-0.8,0.7-1.1,1.1c-0.3,0.5-0.5,1.1-0.6,1.7c-0.1,0.7-0.2,1.4-0.2,2.1v0.6c0,0.7,0.1,1.3,0.3,1.9 c0.2,0.6,0.5,1.1,0.9,1.6c0.4,0.4,0.8,0.8,1.4,1c0.6,0.2,1.2,0.4,1.8,0.4c0.8,0,1.6-0.2,2.4-0.5c0.7-0.3,1.4-0.9,1.9-1.5l2.3,2.5 c-0.4,0.6-0.9,1.1-1.5,1.5c-0.7,0.5-1.5,0.9-2.3,1.2C55.7,227.3,54.7,227.5,53.6,227.5L53.6,227.5z M68.5,222.6l3.7-13.1h3l-1,5.1 l-3.7,12.5h-2.5L68.5,222.6z M66.7,209.5l2.6,13l0.2,4.6h-2.9l-4.5-17.6L66.7,209.5z M78.5,222.4l2.6-12.8h4.5l-4.5,17.6h-2.9 L78.5,222.4z M75.5,209.5l3.7,13l0.5,4.6h-2.5l-3.7-12.5l-0.9-5.1L75.5,209.5z M97.5,222.3c0-0.3-0.1-0.6-0.3-0.9 c-0.3-0.3-0.7-0.6-1.1-0.8c-0.7-0.3-1.5-0.5-2.3-0.7c-0.9-0.2-1.7-0.4-2.5-0.7c-0.7-0.3-1.4-0.6-2-1.1c-0.5-0.4-1-0.9-1.3-1.5 c-0.3-0.6-0.5-1.3-0.5-2c0-0.7,0.2-1.4,0.5-2.1c0.3-0.7,0.8-1.3,1.4-1.7c0.7-0.5,1.4-0.9,2.2-1.2c1-0.3,2-0.5,3-0.4 c1.4,0,2.7,0.2,3.9,0.7c1,0.4,1.9,1.1,2.5,2c0.6,0.8,0.9,1.9,0.9,2.9h-4.6c0-0.4-0.1-0.8-0.3-1.2c-0.2-0.4-0.5-0.7-0.9-0.9 c-0.9-0.4-2-0.4-2.9,0c-0.4,0.1-0.7,0.4-0.9,0.7c-0.2,0.3-0.3,0.6-0.3,1c0,0.3,0,0.5,0.2,0.7c0.1,0.2,0.3,0.4,0.6,0.6 c0.3,0.2,0.6,0.4,1,0.5c0.5,0.2,1,0.3,1.6,0.4c1.2,0.2,2.3,0.6,3.4,1c0.9,0.4,1.7,0.9,2.4,1.7c0.6,0.8,0.9,1.8,0.9,2.8 c0,0.7-0.2,1.5-0.5,2.1c-0.4,0.7-0.9,1.3-1.5,1.7c-0.7,0.5-1.5,0.9-2.3,1.1c-1,0.3-2,0.4-3,0.4c-1.4,0-2.9-0.3-4.2-0.9 c-1-0.5-1.9-1.3-2.6-2.2c-0.5-0.8-0.8-1.8-0.9-2.8h4.4c0,0.5,0.1,1.1,0.4,1.5c0.3,0.4,0.7,0.7,1.2,0.8c0.5,0.2,1,0.3,1.6,0.3 c0.5,0,1-0.1,1.5-0.2c0.4-0.1,0.7-0.4,0.9-0.7C97.4,223,97.5,222.6,97.5,222.3L97.5,222.3z M110,202.1v25h-4.7v-25H110z M122,227.5 c-1.3,0-2.5-0.2-3.7-0.6c-2.1-0.8-3.7-2.5-4.5-4.6c-0.4-1.1-0.6-2.2-0.6-3.3v-0.6c0-1.2,0.2-2.5,0.6-3.7c0.4-1.1,0.9-2,1.6-2.9 c0.7-0.8,1.6-1.5,2.6-1.9c1.1-0.5,2.3-0.7,3.4-0.7c1.1,0,2.3,0.2,3.3,0.6c0.9,0.4,1.8,1,2.4,1.8c0.7,0.8,1.2,1.7,1.5,2.7 c0.3,1.1,0.5,2.3,0.5,3.5v2h-14v-3.1h9.4v-0.4c0-0.6-0.1-1.2-0.4-1.7c-0.2-0.5-0.6-0.9-1-1.2c-0.5-0.3-1.2-0.5-1.8-0.4 c-0.6,0-1.1,0.1-1.6,0.4c-0.5,0.3-0.8,0.7-1.1,1.1c-0.3,0.5-0.5,1.1-0.6,1.7c-0.1,0.7-0.2,1.4-0.2,2.1v0.6c0,0.7,0.1,1.3,0.3,1.9 c0.2,0.6,0.5,1.1,0.9,1.6c0.4,0.4,0.8,0.8,1.4,1c0.6,0.2,1.2,0.4,1.8,0.4c0.8,0,1.6-0.2,2.4-0.5c0.7-0.3,1.4-0.9,1.9-1.5l2.3,2.5 c-0.4,0.6-0.9,1.1-1.5,1.5c-0.7,0.5-1.5,0.9-2.3,1.2C124.1,227.3,123.1,227.5,122,227.5L122,227.5z M140.6,209.5v3.3h-10.2v-3.3 H140.6z M132.8,205.2h4.7v16.7c0,0.4,0,0.8,0.2,1.2c0.1,0.3,0.4,0.5,0.6,0.6c0.3,0.1,0.7,0.2,1,0.1c0.3,0,0.6,0,0.8,0l0.6-0.1v3.4 c-0.4,0.1-0.9,0.2-1.3,0.3c-0.5,0.1-1,0.1-1.6,0.1c-0.9,0-1.8-0.2-2.7-0.5c-0.8-0.3-1.4-0.9-1.8-1.7c-0.5-0.9-0.7-2-0.6-3 L132.8,205.2z M151.8,209.5v3.3h-10.2v-3.3H151.8z M144.1,205.2h4.7v16.7c0,0.4,0,0.8,0.2,1.2c0.1,0.3,0.3,0.5,0.6,0.6 c0.3,0.1,0.7,0.2,1,0.1c0.3,0,0.6,0,0.8,0l0.6-0.1v3.4c-0.4,0.1-0.9,0.2-1.3,0.3c-0.5,0.1-1,0.1-1.6,0.1c-0.9,0-1.8-0.2-2.7-0.5 c-0.8-0.3-1.4-0.9-1.8-1.7c-0.5-0.9-0.7-2-0.6-3L144.1,205.2z M162.6,227.5c-1.3,0-2.5-0.2-3.7-0.6c-1-0.4-2-1-2.8-1.8 c-0.7-0.8-1.3-1.7-1.7-2.7c-0.4-1.1-0.6-2.2-0.6-3.3v-0.6c0-1.2,0.2-2.5,0.6-3.7c0.4-1.1,0.9-2,1.6-2.9c0.7-0.8,1.6-1.4,2.6-1.9 c1.1-0.5,2.3-0.7,3.5-0.7c1.1,0,2.3,0.2,3.3,0.6c0.9,0.4,1.8,1,2.4,1.8c0.7,0.8,1.2,1.7,1.5,2.7c0.3,1.1,0.5,2.3,0.5,3.5v2h-14v-3.1 h9.4v-0.4c0-0.6-0.1-1.2-0.4-1.7c-0.2-0.5-0.6-0.9-1-1.2c-0.5-0.3-1.2-0.5-1.8-0.4c-0.6,0-1.1,0.1-1.6,0.4c-0.5,0.3-0.8,0.7-1.1,1.1 c-0.3,0.5-0.5,1.1-0.6,1.7c-0.1,0.7-0.2,1.4-0.2,2.1v0.6c0,0.7,0.1,1.3,0.3,1.9c0.2,0.6,0.5,1.1,0.9,1.6c0.4,0.4,0.8,0.8,1.4,1 c0.6,0.2,1.2,0.4,1.8,0.4c0.8,0,1.6-0.2,2.4-0.5c0.7-0.3,1.4-0.9,1.9-1.5l2.3,2.5c-0.4,0.6-0.9,1.1-1.5,1.5 c-0.7,0.5-1.5,0.9-2.3,1.2C164.7,227.3,163.7,227.5,162.6,227.5L162.6,227.5z M177.2,213.4v13.8h-4.7v-17.6h4.5L177.2,213.4z  M182.5,209.4l-0.1,4.3c-0.2,0-0.5-0.1-0.8-0.1s-0.6,0-0.9,0c-0.6,0-1.2,0.1-1.7,0.3c-0.9,0.3-1.6,1-1.9,1.9 c-0.2,0.5-0.2,1.1-0.3,1.6l-0.9-0.3c0-1.1,0.1-2.1,0.4-3.1c0.2-0.9,0.5-1.7,1-2.5c0.4-0.7,1-1.2,1.6-1.7c0.7-0.4,1.4-0.6,2.2-0.6 c0.3,0,0.5,0,0.8,0.1C182.1,209.3,182.3,209.3,182.5,209.4L182.5,209.4z"></path><g>	<defs>		<rect id="SVGID_1_" x="25" y="25" width="171.9" height="135.4"></rect>	</defs>	<clipPath id="SVGID_00000018952444924050348340000000366772851629334400_">		<use xlink:href="#SVGID_1_" style="overflow:visible;"></use>	</clipPath>	<g style="clip-path:url(#SVGID_00000018952444924050348340000000366772851629334400_);">		<path class="st1" d="M195.3,76.3L195.3,76.3l-26.7,13L132.2,107c-0.1,0.1-0.3,0.1-0.4,0.1c-0.2,0-0.3,0-0.5-0.1L93.7,89.2   L66.4,76.3l0,0l0,0c-0.4,0-0.9,0.2-1.2,0.6c-0.3,0.4-0.5,0.8-0.5,1.3v80.5c0,0.5,0.2,0.9,0.5,1.3c0.3,0.3,0.7,0.5,1.2,0.5h129   c0.4,0,0.9-0.2,1.1-0.5c0.3-0.4,0.5-0.8,0.5-1.3V78.1c0-0.5-0.2-0.9-0.5-1.3C196.2,76.5,195.8,76.3,195.3,76.3z"></path>		<path class="st4" d="M195.8,76.8c0,0-0.1,0-0.1,0l-64.2-51c-0.2-0.2-0.4-0.2-0.7-0.2c-0.2,0-0.5,0.1-0.7,0.2l-63.7,51   c0,0-0.1,0-0.1,0c0,0-0.1,0-0.1,0h-0.1l-0.1-0.1c0,0,0-0.1,0-0.1c0,0,0-0.1,0-0.1v-0.1c0,0,0-0.1,0.1-0.1l63.7-51   c0.5-0.4,1.3-0.4,1.9,0l64.2,51c0,0,0.1,0.1,0.1,0.1c0,0.1,0,0.1,0,0.2c0,0.1,0,0.1-0.1,0.1C195.9,76.8,195.8,76.8,195.8,76.8   L195.8,76.8z"></path>		<path class="st5" d="M70.1,78.6l60.8-51.4l61.3,55.1L134,121.6l-31.6-8.2L70.1,78.6z"></path>		<path class="st6" d="M105.1,145.9h-30c-0.2,0-0.4,0-0.5-0.1c-0.2-0.1-0.3-0.2-0.5-0.4c-0.1-0.2-0.2-0.3-0.3-0.5   c-0.1-0.2-0.1-0.4-0.1-0.6c0-0.2,0-0.4,0.1-0.6c0.1-0.2,0.2-0.4,0.3-0.5c0.1-0.1,0.3-0.3,0.5-0.3c0.2-0.1,0.3-0.1,0.5-0.1h30   c0.2,0,0.4,0,0.5,0.1c0.2,0.1,0.3,0.2,0.4,0.3c0.1,0.2,0.2,0.3,0.3,0.5c0.1,0.2,0.1,0.4,0.1,0.6c0,0.2,0,0.4-0.1,0.6   c-0.1,0.2-0.2,0.4-0.3,0.5c-0.1,0.1-0.3,0.3-0.4,0.4C105.5,145.8,105.3,145.9,105.1,145.9z"></path>		<path class="st6" d="M85.8,139H75.1c-0.2,0-0.4,0-0.5-0.1c-0.2-0.1-0.3-0.2-0.5-0.3c-0.1-0.2-0.2-0.3-0.3-0.5   c-0.1-0.4-0.1-0.8,0-1.2c0.1-0.2,0.2-0.4,0.3-0.5c0.1-0.1,0.3-0.3,0.5-0.3c0.2-0.1,0.3-0.1,0.5-0.1h10.8c0.2,0,0.4,0,0.5,0.1   c0.2,0.1,0.3,0.2,0.4,0.3c0.1,0.2,0.2,0.3,0.3,0.5c0.1,0.4,0.1,0.8,0,1.2c-0.1,0.2-0.2,0.4-0.3,0.5c-0.1,0.1-0.3,0.3-0.4,0.3   C86.2,139,86,139,85.8,139z"></path>		<path class="st1" d="M131.7,107.2c-0.2,0-0.5-0.1-0.7-0.2L93.5,89.3V33.8c0-0.5,0.2-0.9,0.5-1.3c0.3-0.3,0.7-0.5,1.2-0.5h72   c0.4,0,0.9,0.2,1.1,0.5c0.3,0.4,0.5,0.8,0.5,1.3v55.6h-0.1L132.4,107C132.2,107.2,131.9,107.2,131.7,107.2z"></path>		<path class="st4" d="M131.7,107.4c-0.2,0-0.5-0.1-0.7-0.2L93.4,89.4V33.8c0-0.5,0.2-1,0.5-1.4c0.3-0.4,0.8-0.6,1.2-0.6h71.9   c0.5,0,0.9,0.2,1.2,0.6c0.3,0.4,0.5,0.9,0.5,1.4v55.7l-36.4,17.7C132.2,107.3,132,107.4,131.7,107.4z M93.9,89.1l37.3,17.7   c0.3,0.2,0.7,0.2,1.1,0l36.1-17.6V33.8c0-0.4-0.1-0.7-0.4-1c-0.2-0.3-0.6-0.4-0.9-0.4H95.2c-0.3,0-0.7,0.2-0.9,0.4   c-0.2,0.3-0.4,0.6-0.4,1V89.1z"></path>		<path class="st4" d="M195.3,76.3L195.3,76.3l-26.7,13L132.2,107c-0.1,0.1-0.3,0.1-0.4,0.1c-0.2,0-0.3,0-0.5-0.1L93.7,89.2   L66.4,76.3l0,0l0,0c-0.4,0-0.9,0.2-1.2,0.6c-0.3,0.4-0.5,0.8-0.5,1.3v80.5c0,0.5,0.2,0.9,0.5,1.3c0.3,0.3,0.7,0.5,1.2,0.5h129   c0.4,0,0.9-0.2,1.1-0.5c0.3-0.4,0.5-0.8,0.5-1.3V78.1c0-0.5-0.2-0.9-0.5-1.3C196.2,76.5,195.8,76.3,195.3,76.3z M196.5,158.6   c0,0.3-0.1,0.7-0.3,0.9c-0.2,0.2-0.5,0.4-0.8,0.4h-129c-0.3,0-0.6-0.1-0.8-0.4c-0.2-0.3-0.3-0.6-0.3-0.9V78.1   c0-0.3,0.1-0.7,0.3-0.9c0.2-0.2,0.5-0.4,0.8-0.4l27.4,13l37.4,17.7c0.4,0.2,0.9,0.2,1.3,0l36.3-17.7l26.7-13   c0.3,0,0.6,0.2,0.8,0.4c0.2,0.3,0.3,0.6,0.3,0.9L196.5,158.6z"></path>		<path class="st6" d="M125.9,52.7h-25.5c-0.5,0-1-0.2-1.3-0.6c-0.4-0.4-0.6-0.9-0.6-1.5c0-0.5,0.2-1.1,0.6-1.5   c0.3-0.4,0.8-0.6,1.3-0.6h25.5c0.5,0,1,0.2,1.3,0.6c0.4,0.4,0.5,0.9,0.5,1.5c0,0.5-0.2,1.1-0.5,1.5   C126.8,52.5,126.4,52.7,125.9,52.7z"></path>		<path class="st6" d="M112.6,43.7h-12.3c-0.5,0-1-0.2-1.3-0.6c-0.4-0.4-0.6-1-0.6-1.5c0-0.5,0.2-1.1,0.6-1.5   c0.3-0.4,0.8-0.6,1.3-0.6h12.3c0.5,0,1,0.2,1.3,0.6c0.4,0.4,0.6,0.9,0.6,1.5c0,0.5-0.2,1.1-0.6,1.5   C113.6,43.5,113.1,43.7,112.6,43.7z"></path>		<path class="st7" d="M150.2,73.9h-39c-0.5,0-1-0.2-1.3-0.6c-0.7-0.9-0.7-2.1,0-3c0.3-0.4,0.8-0.6,1.3-0.6h39c0.5,0,1,0.2,1.3,0.6   c0.7,0.9,0.7,2.1,0,3C151.2,73.6,150.7,73.9,150.2,73.9z"></path>		<path class="st7" d="M150.2,83.7h-39c-0.5,0-1-0.2-1.3-0.6c-0.4-0.4-0.6-0.9-0.6-1.5c0-0.6,0.2-1.1,0.6-1.5   c0.3-0.4,0.8-0.6,1.3-0.6h39c0.5,0,1,0.2,1.3,0.6c0.4,0.4,0.5,1,0.5,1.5c0,0.5-0.2,1.1-0.5,1.5C151.2,83.4,150.7,83.7,150.2,83.7z   "></path>		<path class="st8" d="M34.5,86.2c-0.2,0-0.5-0.1-0.7-0.3c-0.2-0.2-0.3-0.4-0.4-0.7l-0.8-4.8c-0.5-2.5,0-5.2,1.3-7.4   c1.2-2.1,3.1-3.6,5.5-4.2c2.3-0.5,4.6,0,6.4,1.4c2,1.5,3.3,3.8,3.7,6.2l0.8,4.8c0.1,0.3,0,0.6-0.2,0.9c-0.1,0.3-0.4,0.4-0.7,0.5   l-14.8,3.4L34.5,86.2z"></path>		<path class="st9" d="M60.8,157.6h-2.6L56.8,146h3.9V157.6z"></path>		<path class="st8" d="M56.2,156.8h5.1v3.7H53c0-1,0.3-1.9,0.9-2.6C54.5,157.2,55.3,156.8,56.2,156.8z"></path>		<path class="st9" d="M33.1,157.6l-2.4-1.2l2.8-11.3l3.6,1.7L33.1,157.6z"></path>		<path class="st8" d="M29.2,154.8l4.7,2.3l-1.3,3.4l-7.7-3.7c0.2-0.4,0.4-0.8,0.7-1.2c0.3-0.3,0.6-0.6,1-0.8   c0.4-0.2,0.8-0.3,1.2-0.3C28.4,154.5,28.8,154.6,29.2,154.8z"></path>		<path class="st9" d="M41.3,85c3.2,0,5.7-3,5.7-6.6s-2.5-6.5-5.7-6.5s-5.7,2.9-5.7,6.5S38.2,85,41.3,85z"></path>		<path class="st4" d="M41.6,108l-0.1-0.2c-1.5-5.8-3.2-11.7-4.8-17.3v-0.2l0.1-0.1c2.8-3,7-4,10.9-2.7c3.8,1.4,6.2,5,6,9   c-0.2,2.2,0.3,4.4,1.5,6.3l0.2,0.2l-0.2,0.1c-4.1,2.4-8.6,4.1-13.4,4.8H41.6z"></path>		<path class="st8" d="M34.7,155.5c-0.2,0-0.4-0.1-0.6-0.2l-3.1-2c-0.3-0.2-0.4-0.4-0.5-0.8c-0.1-0.3-0.1-0.7,0.1-1l6.8-18.5l5.2-27   l9.5-4h0.1c10.2,5.3,9.4,43.7,9.2,51.4c0,0.3-0.1,0.6-0.3,0.9c-0.2,0.2-0.5,0.4-0.7,0.4l-2.9,0.4c-0.3,0-0.6-0.1-0.8-0.3   c-0.2-0.2-0.4-0.5-0.4-0.8l-5.8-29.7c0-0.1,0-0.1-0.1-0.2c0,0-0.1-0.1-0.1-0.1c0,0-0.1,0-0.1,0c0,0-0.1,0.1-0.1,0.1l-14.2,30.6   c-0.1,0.1-0.2,0.3-0.3,0.4c-0.1,0.1-0.3,0.2-0.4,0.2C34.9,155.5,34.8,155.5,34.7,155.5z"></path>		<path class="st9" d="M38.1,128.3c0.2-0.3,0.3-0.6,0.3-1c0.1-0.4,0.1-0.7,0-1.1c-0.1-0.4-0.2-0.7-0.4-1c-0.2-0.3-0.5-0.5-0.8-0.6   l0.2-5.7l-3-1l-0.1,8c-0.2,0.6-0.2,1.2,0,1.8c0.2,0.5,0.5,1,1,1.3c0.5,0.3,1,0.4,1.5,0.2C37.4,129.1,37.8,128.7,38.1,128.3   L38.1,128.3z"></path>		<path class="st6" d="M34.3,122.3h-0.2c-0.3,0-0.6-0.1-0.8-0.4c-0.2-0.2-0.3-0.5-0.4-0.9c-0.3-4.2-1.2-18.6-0.5-26.4   c0.1-0.7,0.3-1.4,0.7-2.1c0.3-0.6,0.8-1.2,1.3-1.6c0.5-0.4,1.1-0.7,1.8-0.9c0.6-0.1,1.3-0.1,1.9,0h0.2v0.2   c-0.1,10.3-0.1,20.4,0,30.3c0,0.3-0.1,0.6-0.3,0.8c-0.2,0.2-0.4,0.4-0.7,0.5C36.4,122.2,35.4,122.3,34.3,122.3z"></path>		<path class="st6" d="M41.1,134.6c-0.8,0-1.5-0.3-2.1-0.9c-0.6-0.6-0.9-1.4-1-2.2l0.2-23.7l-4.2-11.9c-0.2-1.5,0.1-3.1,0.8-4.5   c0.7-1.3,1.8-2.3,3.1-2.9l1.1-0.5c0.2-0.1,0.4-0.1,0.7-0.1c0.2,0,0.4,0.1,0.6,0.2c0.2,0.1,0.4,0.3,0.5,0.4   c0.2,0.2,0.3,0.4,0.3,0.7l4.3,13.1l0,0c0.3,5.2,1.6,31.2-1,31.9C43.5,134.4,42.3,134.6,41.1,134.6L41.1,134.6z"></path>		<path class="st9" d="M65.6,119.4c-0.3-0.1-0.6-0.3-0.8-0.6c-0.2-0.3-0.4-0.6-0.5-0.9c-0.1-0.3-0.1-0.7-0.1-1.1   c0-0.4,0.1-0.7,0.3-1l-2.9-4.6l2-2.7l4,6.6c0.4,0.4,0.7,0.9,0.8,1.5c0.1,0.6,0,1.2-0.2,1.8c-0.2,0.5-0.7,0.9-1.2,1.1   C66.7,119.6,66.1,119.6,65.6,119.4L65.6,119.4z"></path>		<path class="st6" d="M62.8,113.4c-0.2,0-0.3-0.1-0.4-0.1c-0.1-0.1-0.2-0.2-0.3-0.3l0,0c-4.8-8.2-9.7-16.7-14.6-25.2l0-0.1l0.1-0.1   c0.4-0.4,0.9-0.8,1.5-1c0.6-0.2,1.2-0.3,1.8-0.3c0.6,0,1.2,0.2,1.8,0.5c0.6,0.3,1.1,0.7,1.4,1.2c4.4,6,10.6,18.6,12.4,22.3   c0.1,0.2,0.1,0.5,0.1,0.8c0,0.2-0.2,0.5-0.4,0.6c-0.9,0.7-1.8,1.3-2.8,1.7C63,113.4,62.9,113.4,62.8,113.4z"></path>		<path class="st6" d="M61.2,129.3c-2.8,0-13-22.4-15-26.8v-0.1l-2.3-13.7c0-0.2,0-0.5,0-0.8c0-0.2,0.1-0.5,0.3-0.7   c0.1-0.2,0.3-0.4,0.5-0.5c0.2-0.1,0.4-0.2,0.6-0.3l1.2-0.2c1.4-0.3,2.8,0,4,0.7c1.3,0.8,2.2,2,2.7,3.4l2.9,14l9.7,18.8   c0.3,0.8,0.4,1.7,0.1,2.6c-0.2,0.8-0.7,1.5-1.4,2c-1,0.7-2,1.2-3.2,1.6C61.3,129.4,61.2,129.4,61.2,129.3L61.2,129.3z"></path>		<path class="st8" d="M45.7,78.5H34.2v-1.6c0-1.7,0.6-3.4,1.8-4.7c1-1.2,2.5-1.9,4.1-1.9H41c1.6,0,3.1,0.7,4.1,1.9   c1.1,1.3,1.7,3,1.7,4.7v0.4c0,0.3-0.1,0.6-0.3,0.8C46.3,78.4,46,78.5,45.7,78.5z"></path>	</g></g></svg>