<svg xmlns="http://www.w3.org/2000/svg" xmlns:xlink="http://www.w3.org/1999/xlink" id="Layer_1" data-name="Layer 1" viewBox="0 0 46.06 46.06"><defs><style>.cls-1{fill:url(#linear-gradient);}.cls-2{fill:#14191d;}</style><linearGradient id="linear-gradient" x1="-0.71" y1="23.03" x2="61.81" y2="23.03" gradientUnits="userSpaceOnUse"><stop offset="0" stop-color="#32acd5"></stop><stop offset="1" stop-color="#a2d9d3"></stop></linearGradient></defs><rect class="cls-1" width="46.06" height="46.06" rx="4.06"></rect><path id="Path_1" data-name="Path 1" class="cls-2" d="M25.9,19.94V19c0-.22-.09-.31-.32-.31H24c-.11,0-.23,0-.28.11s0,.22.11.3.36.37.56.53a1,1,0,0,1,.38.44,1,1,0,0,1,.07.58c0,.33,0,.66,0,1,0,.1,0,.21.11.26s.2,0,.29-.08a1.41,1.41,0,0,0,.57-.59,1.34,1.34,0,0,0,.13-.79A2.26,2.26,0,0,1,25.9,19.94ZM13.3,13.62A2.53,2.53,0,0,0,13,12.45a2.65,2.65,0,0,0-.81-.92A2.84,2.84,0,0,0,11,11a3,3,0,0,0-1.26,0,2.87,2.87,0,0,0-1.53,1A2.59,2.59,0,0,0,8,14.84a13.71,13.71,0,0,0,2.32,3.24c.16.18.29.14.43,0A14.15,14.15,0,0,0,12.92,15a3.51,3.51,0,0,0,.38-1.38Zm5.22,11a3.38,3.38,0,0,0,.31,1.21,13,13,0,0,0,2.32,3.24c.14.16.26.17.4,0a13.51,13.51,0,0,0,2.32-3.24,2.74,2.74,0,0,0,.27-1.57,2.64,2.64,0,0,0-1-1.67,3,3,0,0,0-3.83.17,2.64,2.64,0,0,0-.82,1.85ZM33.36,7.68a2.84,2.84,0,0,0-1.55.46,2.69,2.69,0,0,0-1,1.21,2.64,2.64,0,0,0-.17.61,2.74,2.74,0,0,0,0,.64,2.57,2.57,0,0,0,.14.61,11.26,11.26,0,0,0,2.47,3.62c.12.14.24.12.35,0s.35-.38.51-.57a10.47,10.47,0,0,0,2-3.05,2.21,2.21,0,0,0,.13-.62,2.66,2.66,0,0,0,0-.63A2.15,2.15,0,0,0,36,9.34,2.71,2.71,0,0,0,34.63,8a3,3,0,0,0-1.27-.29ZM22,36.25v1.68c0,.15,0,.29.2.35.71.2.89.08.89-.62v-.24A2.25,2.25,0,0,1,23.17,36a2.43,2.43,0,0,1,1-1.12,1.29,1.29,0,0,0,.53-.6,1.3,1.3,0,0,0,.08-.78,2,2,0,0,1,.1-1.29,2.27,2.27,0,0,1,.83-1,2.33,2.33,0,0,0,0-2.06l-.05-.05c-.38-.37-.78-.73-1.15-1.11s-.34-.19-.51.05a17.54,17.54,0,0,1-2.09,2.46.65.65,0,0,1-.3.22.78.78,0,0,1-.37,0,.85.85,0,0,1-.46-.3A17.88,17.88,0,0,1,18.68,28c-.08-.11-.16-.31-.35-.13-.53.49-1.16.92-1,1.79a1.55,1.55,0,0,0,1.12,1h1.68a.58.58,0,0,1,.47.16.49.49,0,0,1,.14.21.5.5,0,0,1,0,.24,3.53,3.53,0,0,1,0,.65,2,2,0,0,0,.1,1.17,2,2,0,0,0,.77.91.7.7,0,0,1,.24.3.68.68,0,0,1,.05.37c0,.53,0,1.06,0,1.58ZM7.68,23.07a5.47,5.47,0,0,0,0,1.28,13.64,13.64,0,0,0,1.74,6.1,13.87,13.87,0,0,0,.86,1.38c.13.19.24.2.39,0a3.9,3.9,0,0,1,.51-.48,2.09,2.09,0,0,0,.84-.95,2,2,0,0,0,.13-1.25.63.63,0,0,1,0-.36.7.7,0,0,1,.23-.28l1.19-1.14a1.32,1.32,0,0,0,0-1.62c-.77-.74-1.53-1.48-2.3-2.2a.83.83,0,0,1-.31-.73c0-.47,0-.94,0-1.4a.76.76,0,0,1,0-.26.74.74,0,0,1,.14-.22.65.65,0,0,1,.23-.13.61.61,0,0,1,.27,0h1.11a.61.61,0,0,0,.26,0,.6.6,0,0,0,.21-.14c.52-.51,1-1,1.57-1.5a.51.51,0,0,0,.15-.21.43.43,0,0,0,0-.25c0-.5,0-1,0-1.51a.94.94,0,0,1,.07-.4,1,1,0,0,1,.25-.32c.59-.55,1.17-1.11,1.75-1.67a2.77,2.77,0,0,0,.1-2l-.07-.08-1-.94a.59.59,0,0,0-.18-.14.64.64,0,0,0-.23-.05H14.34c-.33,0-.4.13-.25.42a3.59,3.59,0,0,1,.08,3.27,14.6,14.6,0,0,1-3.23,4.32.65.65,0,0,1-.21.16.66.66,0,0,1-.27.06.58.58,0,0,1-.26-.06.68.68,0,0,1-.21-.17c-.35-.34-.68-.7-1-1.06s-.27-.3-.4.06a13.28,13.28,0,0,0-.9,4.53ZM34,33.92a3,3,0,0,0,.64-.59,14.23,14.23,0,0,0,1-18.39c-.2-.27-.31-.23-.5,0-.37.43-.76.84-1.16,1.25a.7.7,0,0,1-.22.2.67.67,0,0,1-.6,0,.6.6,0,0,1-.23-.19,16,16,0,0,1-2.78-3.51,4.32,4.32,0,0,1-.73-2.36c0-.23-.13-.33-.32-.4a15.38,15.38,0,0,0-6.67-1.13c-.3,0-.41.12-.41.41,0,.94,0,1.88,0,2.81a.71.71,0,0,0,0,.29.58.58,0,0,0,.18.23L23.66,14a.72.72,0,0,0,.25.18.86.86,0,0,0,.32.05c.71,0,1.43,0,2.14,0a.78.78,0,0,1,.37.06.75.75,0,0,1,.3.2c.87.85,1.74,1.68,2.62,2.51a.93.93,0,0,1,.23.3.7.7,0,0,1,.07.37c0,1,0,2,0,3a.68.68,0,0,1-.05.37.7.7,0,0,1-.24.3,1.88,1.88,0,0,0-.76.89,1.82,1.82,0,0,0-.1,1.15.33.33,0,0,1,0,.14.69.69,0,0,0,0,.32.75.75,0,0,0,.21.26c.56.51,1.09,1,1.65,1.56a1,1,0,0,1,.32.4,1,1,0,0,1,.08.5c0,.6,0,1.21,0,1.82a.82.82,0,0,0,.06.38.79.79,0,0,0,.23.31c.72.67,1.41,1.37,2.14,2a1.22,1.22,0,0,1,.36.45,1.24,1.24,0,0,1,.08.57c0,.57,0,1.15,0,1.79ZM16.25,10.32a2.07,2.07,0,0,1,.45.27l1.56,1.5a.69.69,0,0,1,.2.28.65.65,0,0,1,.06.33c0,.64,0,1.28,0,1.93a.83.83,0,0,1-.07.38,1.08,1.08,0,0,1-.24.32c-.56.51-1.09,1-1.65,1.56a.91.91,0,0,0-.29.36.88.88,0,0,0-.06.45c0,.43,0,.85,0,1.27a.85.85,0,0,1-.06.42,1,1,0,0,1-.26.34c-.51.47-1,.93-1.49,1.44a1.83,1.83,0,0,1-.81.64,2,2,0,0,1-1,.13.33.33,0,0,0-.14,0,.2.2,0,0,0-.2.17.93.93,0,0,0,.23.88c.62.56,1.17,1.19,1.82,1.7a2.42,2.42,0,0,1,.66.86,2.26,2.26,0,0,1,.17,1.06,1.88,1.88,0,0,1-.15,1,2,2,0,0,1-.65.78,2.14,2.14,0,0,0-.83.93,1.93,1.93,0,0,0-.12,1.21.73.73,0,0,1-.3.7c-.52.49-1,1-1.57,1.5-.2.19-.23.32,0,.53a15.58,15.58,0,0,0,8.91,4.83c.31.06.38,0,.38-.3,0-.91,0-1.81,0-2.71a.57.57,0,0,0,0-.29.6.6,0,0,0-.19-.23,2,2,0,0,1-.82-.94,2.07,2.07,0,0,1-.11-1.23v0c0-.55,0-.61-.56-.54a2.56,2.56,0,0,1-1.34-.15,2.37,2.37,0,0,1-1.05-.8,1.88,1.88,0,0,1-.5-1.14,2.37,2.37,0,0,1,.16-1.44,2.56,2.56,0,0,1,.95-1.11.87.87,0,0,0,.32-1.23,3.77,3.77,0,0,1-.1-2.3,3.91,3.91,0,0,1,1.28-1.95,4.18,4.18,0,0,1,4.56-.44c.1.05.27.18.28-.05a.92.92,0,0,0,0-.52,1,1,0,0,0-.25-.46c-1.07-1-.85-.55-.87-2,0-.51.2-.7.74-.7h3.15c.54,0,.74.19.74.7v3A3.28,3.28,0,0,1,25.38,23h-.07c-.23,0-.26.08-.18.27a3.65,3.65,0,0,1-.16,3,.47.47,0,0,0,0,.31.41.41,0,0,0,.17.26c.58.54,1.14,1.1,1.72,1.65a.77.77,0,0,1,.22.29.7.7,0,0,1,.06.35c0,.62,0,1.24,0,1.85a.77.77,0,0,1-.07.45.79.79,0,0,1-.29.36,1.8,1.8,0,0,0-.7.82,1.72,1.72,0,0,0-.09,1,1.65,1.65,0,0,1-.1,1,1.77,1.77,0,0,1-.71.82,2.06,2.06,0,0,0-.79.91,2,2,0,0,0-.13,1.18c.07.61-.05.65.64.57a15.5,15.5,0,0,0,7.65-3,.74.74,0,0,0,.2-.23.45.45,0,0,0,0-.3c0-.77,0-1.53,0-2.3a.7.7,0,0,0-.06-.35.85.85,0,0,0-.22-.28c-.76-.71-1.5-1.44-2.26-2.15a1,1,0,0,1-.26-.34,1,1,0,0,1-.07-.42c0-.67,0-1.35,0-2a.52.52,0,0,0-.05-.27.57.57,0,0,0-.16-.22,12.9,12.9,0,0,0-1.08-1,2.58,2.58,0,0,1-.86-1.05A2.5,2.5,0,0,1,27.55,23a2.31,2.31,0,0,1,.18-1.22,2.42,2.42,0,0,1,.78-1,.6.6,0,0,0,.19-.23.45.45,0,0,0,0-.28c0-.74,0-1.47,0-2.2a.57.57,0,0,0,0-.26.6.6,0,0,0-.16-.22c-.71-.67-1.41-1.34-2.1-2a.6.6,0,0,0-.25-.16.61.61,0,0,0-.3-.05c-.68,0-1.36,0-2,0a1.15,1.15,0,0,1-.49-.07A1.06,1.06,0,0,1,23,15c-.62-.61-1.25-1.22-1.9-1.81a1,1,0,0,1-.28-.37.88.88,0,0,1-.08-.45c0-.86,0-1.71,0-2.57s.15-.89-.88-.68a14.49,14.49,0,0,0-3.57,1.22ZM32.72,6.55H34l.38.1a4,4,0,0,1,2.09,1.27,3.64,3.64,0,0,1,.77,1.42,3.7,3.7,0,0,1-.12,2.37,7.09,7.09,0,0,1-.85,1.61.43.43,0,0,0,0,.61h0a15.51,15.51,0,0,1,2.61,4.81,19.16,19.16,0,0,1,.74,3.44v2.75c-.11.74-.21,1.47-.38,2.19a15.9,15.9,0,0,1-6.53,9.41,17.2,17.2,0,0,1-11.38,2.9,16.92,16.92,0,0,1-10.24-4.76,15.65,15.65,0,0,1-4.67-10A14.52,14.52,0,0,1,7.7,17.45a.62.62,0,0,0-.07-.73,7.66,7.66,0,0,1-1-1.76,3.41,3.41,0,0,1-.19-2,3.81,3.81,0,0,1,.84-1.78A4.13,4.13,0,0,1,11,9.84a4.14,4.14,0,0,1,1.88.73.39.39,0,0,0,.56,0,14.53,14.53,0,0,1,1.82-1.08,17,17,0,0,1,10-1.74,16.45,16.45,0,0,1,4,1c.2.07.35.11.48-.12A4,4,0,0,1,31,7.26,4.26,4.26,0,0,1,32.72,6.55Z"></path><path id="Path_2" data-name="Path 2" class="cls-2" d="M33.89,10.37a.56.56,0,0,0-.1-.28.51.51,0,0,0-.25-.18.54.54,0,0,0-.31,0A.53.53,0,0,0,33,10a.4.4,0,0,0-.1.18.44.44,0,0,0,0,.2.51.51,0,0,0,.17.34.53.53,0,0,0,.74,0,.51.51,0,0,0,.14-.36Zm1.22,0a1.7,1.7,0,0,1-.26.85,1.79,1.79,0,0,1-2.47.5,1.64,1.64,0,0,1-.6-.68,1.66,1.66,0,0,1-.15-.88A1.7,1.7,0,0,1,32,9.37a1.82,1.82,0,0,1,.74-.54,1.85,1.85,0,0,1,1.33,0,1.76,1.76,0,0,1,.56.37,1.72,1.72,0,0,1,.37.55,1.56,1.56,0,0,1,.13.64Z"></path><path id="Path_3" data-name="Path 3" class="cls-2" d="M21.87,24.66a.47.47,0,0,0-.09-.28.48.48,0,0,0-.23-.19.51.51,0,0,0-.3,0,.49.49,0,0,0-.27.13.64.64,0,0,0-.15.25.48.48,0,0,0,0,.29.43.43,0,0,0,.19.23.47.47,0,0,0,.28.09A.51.51,0,0,0,21.7,25,.51.51,0,0,0,21.87,24.66Zm-.55,1.67a1.81,1.81,0,0,1-1-.3,1.65,1.65,0,0,1-.62-2,1.87,1.87,0,0,1,.39-.53,1.72,1.72,0,0,1,.57-.36,1.88,1.88,0,0,1,1.34,0,1.76,1.76,0,0,1,.56.37,1.7,1.7,0,0,1,.47.86,1.54,1.54,0,0,1-.11,1,1.71,1.71,0,0,1-.66.75A1.76,1.76,0,0,1,21.32,26.33Z"></path><path id="Path_4" data-name="Path 4" class="cls-2" d="M10.47,14.18a.55.55,0,0,0,.53-.49.47.47,0,0,0-.15-.34.54.54,0,0,0-.72,0,.47.47,0,0,0-.17.33.48.48,0,0,0,.15.36.48.48,0,0,0,.36.16Zm0,1.17a1.77,1.77,0,0,1-.82-.2A1.73,1.73,0,0,1,9,14.61a1.65,1.65,0,0,1-.29-.77,1.69,1.69,0,0,1,.13-.8,1.56,1.56,0,0,1,.38-.54,1.58,1.58,0,0,1,.56-.36,1.82,1.82,0,0,1,1.34,0,1.58,1.58,0,0,1,.56.36,1.71,1.71,0,0,1,.38.54,1.56,1.56,0,0,1,.13.64,1.73,1.73,0,0,1-.12.64,1.64,1.64,0,0,1-.38.55,1.72,1.72,0,0,1-.57.36,1.89,1.89,0,0,1-.67.12Z"></path></svg>