<svg xmlns="http://www.w3.org/2000/svg" xmlns:xlink="http://www.w3.org/1999/xlink" id="Layer_1" data-name="Layer 1" viewBox="0 0 46.06 46.06"><defs><style>.cls-1{fill:url(#linear-gradient);}.cls-2{fill:#13191d;}</style><linearGradient id="linear-gradient" x1="-0.71" y1="23.03" x2="61.81" y2="23.03" gradientUnits="userSpaceOnUse"><stop offset="0" stop-color="#32acd5"></stop><stop offset="1" stop-color="#a2d9d3"></stop></linearGradient></defs><rect class="cls-1" width="46.06" height="46.06" rx="4.06"></rect><path id="Path_5" data-name="Path 5" class="cls-2" d="M20.86,33.64v-.8c0-1.13.07-2.26-.06-3.39A2.6,2.6,0,0,0,20,27.91a3,3,0,0,0-1.63-.8l-1.21-.18a7.49,7.49,0,0,1-4.4-2.1c-.45-.47-1-.9-1.45-1.34a1.31,1.31,0,0,0-.28-.2,1.27,1.27,0,0,0-.32-.13,1.39,1.39,0,0,0-.7,0,1.35,1.35,0,0,0-.34.11,1.75,1.75,0,0,0-.29.18A1.32,1.32,0,0,0,9,24a1.17,1.17,0,0,0,0,.74,1.28,1.28,0,0,0,.42.63l3.45,3.18a2.76,2.76,0,0,1,.29.3.69.69,0,0,1,.13.44.67.67,0,0,1-.2.42.72.72,0,0,1-.45.22.74.74,0,0,1-.5-.1,1.54,1.54,0,0,1-.32-.25c-1.13-1-2.27-2.08-3.39-3.13a2.6,2.6,0,0,1-.76-1,2.49,2.49,0,0,1-.22-1.2,2.52,2.52,0,0,1,.37-1.16,2.8,2.8,0,0,1,.88-.9A.47.47,0,0,0,8.81,22a.33.33,0,0,0,.06-.19c0-1.83,0-3.66,0-5.49a1.1,1.1,0,0,0,0-.31,1,1,0,0,0-.13-.3,1.06,1.06,0,0,0-.2-.26,1.56,1.56,0,0,0-.27-.2,1.83,1.83,0,0,0-.32-.14,1.34,1.34,0,0,0-.35-.05,1.3,1.3,0,0,0-.34,0,1.59,1.59,0,0,0-.33.1,1.5,1.5,0,0,0-.66.56,1.32,1.32,0,0,0-.18.8V25.3a7.55,7.55,0,0,0,.09,1.16,6.94,6.94,0,0,0,1.47,3.32,7.67,7.67,0,0,0,3,2.26c1.17.55,2.34,1.09,3.52,1.62a.86.86,0,0,1,.43.34.76.76,0,0,1,.13.5c0,.94,0,1.87,0,2.8,0,.3.1.38.42.37,1.77,0,3.56,0,5.34,0,.35,0,.42-.11.42-.4C20.85,36.06,20.86,34.85,20.86,33.64ZM13.66,39a.89.89,0,0,1-.37-.35.84.84,0,0,1-.1-.49c0-1,0-2,0-3a.43.43,0,0,0-.08-.33.51.51,0,0,0-.28-.2c-1.08-.49-2.17-1-3.23-1.49A8.9,8.9,0,0,1,5.87,30a8,8,0,0,1-1.34-4.5c0-3,0-6,0-9A2.48,2.48,0,0,1,5,15a2.84,2.84,0,0,1,1.26-1,3.1,3.1,0,0,1,1.65-.21,3,3,0,0,1,1.51.65,2.56,2.56,0,0,1,.72.85,2.16,2.16,0,0,1,.24,1c0,1.68,0,3.35,0,5,0,.25.05.36.36.39a2.83,2.83,0,0,1,1.77.83c.45.41.93.81,1.35,1.25a6.12,6.12,0,0,0,3.63,1.76c.41.07.83.11,1.24.19a4.5,4.5,0,0,1,2.06.9,4.1,4.1,0,0,1,1.31,1.71,3.85,3.85,0,0,1,.27,1.38c0,2.83,0,5.66,0,8.49a.74.74,0,0,1-.1.46.84.84,0,0,1-.36.34Z"></path><path id="Path_6" data-name="Path 6" class="cls-2" d="M41.55,26.44a9.31,9.31,0,0,1-1,3,.81.81,0,0,1-.25.3.85.85,0,0,1-.37.15.78.78,0,0,1-.4,0,.66.66,0,0,1-.32-.22.74.74,0,0,1-.15-.34.67.67,0,0,1,.07-.37,11.45,11.45,0,0,0,.65-1.48,6.71,6.71,0,0,0,.32-2.13c0-2.93,0-5.85,0-8.78a1.24,1.24,0,0,0-.35-1,1.36,1.36,0,0,0-.47-.32,1.53,1.53,0,0,0-1.15,0,1.28,1.28,0,0,0-.48.31,1.15,1.15,0,0,0-.3.46,1.2,1.2,0,0,0-.08.53c0,1.42,0,2.84,0,4.26a5.42,5.42,0,0,1,0,.57,1,1,0,0,0,.09.6,1.06,1.06,0,0,0,.43.46,2.63,2.63,0,0,1,.94,1.76,2.54,2.54,0,0,1-.62,1.88c-.55.62-1.21,1.14-1.82,1.71s-1.31,1.21-2,1.81a.84.84,0,0,1-.34.25,1,1,0,0,1-.42.07.83.83,0,0,1-.38-.14.7.7,0,0,1-.24-.3.62.62,0,0,1,0-.38.75.75,0,0,1,.18-.34c.21-.21.44-.41.66-.62l3-2.8a1.12,1.12,0,0,0,.3-.41,1.2,1.2,0,0,0,.09-.75,1.28,1.28,0,0,0-.39-.66,1.31,1.31,0,0,0-.45-.28,1.4,1.4,0,0,0-.54-.1,1.52,1.52,0,0,0-1,.37c-.53.49-1.08,1-1.58,1.47a7.41,7.41,0,0,1-4.23,2l-1.24.19a3,3,0,0,0-1.59.76,2.9,2.9,0,0,0-.53.68,2.54,2.54,0,0,0-.28.8,6.2,6.2,0,0,0-.07,1v7c0,.29.06.42.41.41,1.78,0,3.57,0,5.35,0,.31,0,.42-.07.42-.37,0-1,0-1.89,0-2.83a.74.74,0,0,1,.12-.48A.85.85,0,0,1,32,33.7c.84-.38,1.67-.78,2.52-1.16a.79.79,0,0,1,.3-.12,1,1,0,0,1,.34,0,.91.91,0,0,1,.3.14.78.78,0,0,1,.2.24c.2.39,0,.75-.46,1s-1.22.58-1.84.84a.55.55,0,0,0-.32.24.49.49,0,0,0-.08.37c0,1,0,2,0,3a.79.79,0,0,1-.1.48.83.83,0,0,1-.36.36H24.21a.91.91,0,0,1-.37-.36.87.87,0,0,1-.1-.48c0-2.78,0-5.56,0-8.35a4,4,0,0,1,1.11-2.76,4.58,4.58,0,0,1,2.81-1.39,10.66,10.66,0,0,0,2.9-.68,4.15,4.15,0,0,0,1.26-.82l1.76-1.62a2.94,2.94,0,0,1,1.9-.86c.27,0,.26-.18.26-.35,0-1.65,0-3.3,0-4.95a2.37,2.37,0,0,1,.43-1.49,2.68,2.68,0,0,1,1.3-1,3,3,0,0,1,1.68-.22,2.87,2.87,0,0,1,1.51.71,2.79,2.79,0,0,1,.88,1.42Z"></path><path id="Path_7" data-name="Path 7" class="cls-2" d="M23.05,13.7a3.06,3.06,0,0,0,2-.79,2.6,2.6,0,0,0,.85-1.85,2.38,2.38,0,0,0-.2-1,2.53,2.53,0,0,0-.62-.87,2.8,2.8,0,0,0-.93-.58,3.12,3.12,0,0,0-2.21,0,3,3,0,0,0-.94.58,2.64,2.64,0,0,0-.61.87,2.38,2.38,0,0,0-.2,1,2.56,2.56,0,0,0,.85,1.85A3,3,0,0,0,23.05,13.7Zm0,9.32h4.66c.3,0,.4-.08.39-.36,0-.53,0-1.06,0-1.6a4.51,4.51,0,0,0-.11-1,4.56,4.56,0,0,0-.86-1.77A5,5,0,0,0,25.56,17a5.39,5.39,0,0,0-5.43.26A4.59,4.59,0,0,0,18.18,20,14.24,14.24,0,0,0,18,22.63c0,.3.1.38.41.38Zm.88-8a6.94,6.94,0,0,1,2.61.9,6.18,6.18,0,0,1,2.23,2.14A5.45,5.45,0,0,1,29.58,21c0,.9,0,1.78,0,2.67a.65.65,0,0,1,0,.31.64.64,0,0,1-.18.27.79.79,0,0,1-.29.17,1,1,0,0,1-.35,0H17.37a1,1,0,0,1-.35,0,.79.79,0,0,1-.29-.17.64.64,0,0,1-.18-.27.65.65,0,0,1,0-.31V21a5.66,5.66,0,0,1,1.2-3.44,6.49,6.49,0,0,1,3.12-2.18,8,8,0,0,1,1.1-.26l.34-.07a4.6,4.6,0,0,1-1.64-.62,4.5,4.5,0,0,1-1.26-1.16,3.81,3.81,0,0,1-.65-1.47,3.56,3.56,0,0,1,.05-1.59,4,4,0,0,1,1.6-2.34A4.63,4.63,0,0,1,23.25,7,4.52,4.52,0,0,1,26,8.1a3.81,3.81,0,0,1,.58,5.32A4.45,4.45,0,0,1,23.93,15Z"></path><path id="Path_8" data-name="Path 8" class="cls-2" d="M37.71,32.25a.75.75,0,0,1-.41-.12.68.68,0,0,1-.27-.31.61.61,0,0,1,0-.4.73.73,0,0,1,.2-.35.78.78,0,0,1,.39-.18.67.67,0,0,1,.42,0,.71.71,0,0,1,.34.25.64.64,0,0,1,.12.38.52.52,0,0,1-.05.27.69.69,0,0,1-.16.22.64.64,0,0,1-.25.15A.93.93,0,0,1,37.71,32.25Z"></path></svg>