<svg xmlns="http://www.w3.org/2000/svg" xmlns:xlink="http://www.w3.org/1999/xlink" id="Layer_1" data-name="Layer 1" viewBox="0 0 46.06 46.06"><defs><style>.cls-1{fill:url(#linear-gradient);}.cls-2{fill:#13191d;}</style><linearGradient id="linear-gradient" x1="-0.71" y1="23.03" x2="61.81" y2="23.03" gradientUnits="userSpaceOnUse"><stop offset="0" stop-color="#32acd5"></stop><stop offset="1" stop-color="#a2d9d3"></stop></linearGradient></defs><rect class="cls-1" width="46.06" height="46.06" rx="4.06"></rect><path id="Path_9" data-name="Path 9" class="cls-2" d="M14.84,11.18c0-.27,0-.54,0-.81a2.16,2.16,0,0,0-4.11-.75,2.17,2.17,0,0,0-.18.79q0,.75,0,1.5a2.15,2.15,0,0,0,4.3.05C14.85,11.7,14.84,11.44,14.84,11.18Zm10.37.07V10.5a2.15,2.15,0,0,0-2.06-2.14,2.12,2.12,0,0,0-2.23,1.76,7.72,7.72,0,0,0,0,1.86,2.17,2.17,0,0,0,4.29.25,6.43,6.43,0,0,0,0-1Zm5.14,9.84v-.76a2.21,2.21,0,0,0-.17-.8,2.16,2.16,0,0,0-4.13.48,9.18,9.18,0,0,0,0,1.74,2.17,2.17,0,0,0,4.3.3,6.09,6.09,0,0,0,0-.95Zm-14.68-.2c0,.4,0,.67,0,.94a2.16,2.16,0,0,0,4.27.3A6.62,6.62,0,0,0,20,20a2.15,2.15,0,0,0-2-1.82,2.23,2.23,0,0,0-2.17,1.6,5.11,5.11,0,0,0-.06,1.1ZM7,17.1a4,4,0,0,1,1.08-2,3.59,3.59,0,0,1,1.78-1c.26-.06.33-.11.14-.34a2.69,2.69,0,0,1-.6-1.56,6.93,6.93,0,0,1,.2-2.9A3.3,3.3,0,0,1,16,10.51a13.52,13.52,0,0,1,0,1.8,3,3,0,0,1-.64,1.51c-.12.15-.09.2.09.24a3.69,3.69,0,0,1,2.94,2.85c0,.19.18.2.32.24a3.14,3.14,0,0,1,2.39,2.57,7.05,7.05,0,0,1,0,2.67A3.3,3.3,0,0,1,17.87,25a18.94,18.94,0,0,0-2.5.05,2.24,2.24,0,0,0-.76.28c-.15.07-.19.14,0,.26a3.32,3.32,0,0,1,1.41,3c0,.32,0,.64,0,1a.55.55,0,0,1-.31.56A.56.56,0,0,1,15,30a.55.55,0,0,1-.17-.41c0-.42,0-.84,0-1.27A2.11,2.11,0,0,0,13,26.13a2.15,2.15,0,0,0-2.19,1.09,2.19,2.19,0,0,0-.26.82c0,.59,0,1.19,0,1.78a2.13,2.13,0,0,0,2,1.92c.66,0,1.33,0,2,0a3.86,3.86,0,0,1,3.21,1.59c.07.09.11.24.26.05a3.66,3.66,0,0,1,2.41-1.56l.14-.05a3.19,3.19,0,0,1-.73-1.51,2.76,2.76,0,0,1-.07-.49,9.32,9.32,0,0,1,.06-2.11A3.28,3.28,0,0,1,23.3,25a.41.41,0,0,0,.36-.13A3.47,3.47,0,0,1,25.44,24c.21-.05.25-.1.11-.29a3.61,3.61,0,0,1-.67-2.5c0-.26,0-.52,0-.78a3.29,3.29,0,0,1,2.3-3.15c.39-.12.4-.13.24-.48A2.56,2.56,0,0,0,25,15.15c-1.33,0-2.67,0-4,0a2.79,2.79,0,0,0-1.26.34.59.59,0,0,1-.83-.1l0-.06c-.17-.3-.05-.6.32-.82A4.91,4.91,0,0,1,20.56,14a4.44,4.44,0,0,1-.82-3.17,3.59,3.59,0,0,1,.9-2.58,3.14,3.14,0,0,1,3.46-.88,3.09,3.09,0,0,1,2.22,2.75,8.74,8.74,0,0,1,0,2,3.14,3.14,0,0,1-.6,1.62c-.16.21-.19.28.12.35a3.53,3.53,0,0,1,2.25,1.51,3.44,3.44,0,0,1,.56,1.25.35.35,0,0,0,.3.3,3.28,3.28,0,0,1,2.54,3.26,13.46,13.46,0,0,1,0,1.68A3.31,3.31,0,0,1,28.23,25h-2a2.53,2.53,0,0,0-1.26.31c-.16.09-.19.16,0,.28a3.38,3.38,0,0,1,1.43,3c0,.32,0,.62,0,.93s-.26.66-.61.65-.52-.25-.53-.67a10.92,10.92,0,0,0,0-1.62,2.17,2.17,0,0,0-.8-1.3,2.09,2.09,0,0,0-.7-.35,2.16,2.16,0,0,0-2.53,1,2.36,2.36,0,0,0-.26.94A8.27,8.27,0,0,0,21,30a2.06,2.06,0,0,0,.25.68,2.17,2.17,0,0,0,1.81,1c.83,0,1.65-.05,2.47,0A3.6,3.6,0,0,1,28,33.25c.18.23.24.2.4,0a3.47,3.47,0,0,1,2.16-1.4c.27-.06.29-.13.12-.35a2.89,2.89,0,0,1-.61-1.86,10.5,10.5,0,0,1,0-2,3.3,3.3,0,0,1,6.49.08,10.52,10.52,0,0,1,0,1.86.57.57,0,0,1-.15.42.54.54,0,0,1-.42.16.56.56,0,0,1-.56-.56v0c0-.43,0-.87,0-1.31a2.16,2.16,0,0,0-2.17-2.15,2.09,2.09,0,0,0-2.06,1.61,5.7,5.7,0,0,0,0,2.5,2.07,2.07,0,0,0,2,1.52c.84,0,1.68,0,2.53.05a3.75,3.75,0,0,1,3.23,3.55c0,1.06,0,2.11,0,3.18a.62.62,0,0,1-.33.65H38.3a.62.62,0,0,1-.34-.65c0-.93,0-1.87,0-2.8A2.63,2.63,0,0,0,36.22,33a2.53,2.53,0,0,0-1.12-.16H31.47a3.09,3.09,0,0,0-.8.11,2.64,2.64,0,0,0-1.91,2.69c0,1,0,1.9,0,2.84a.63.63,0,0,1-.34.65H28a.63.63,0,0,1-.34-.65c0-1,0-1.9,0-2.84a2.63,2.63,0,0,0-1.73-2.63,2.46,2.46,0,0,0-1.11-.16H21.16a2.71,2.71,0,0,0-.8.11,2.64,2.64,0,0,0-1.91,2.69c0,1,0,1.89,0,2.83a.62.62,0,0,1-.34.65h-.44a.62.62,0,0,1-.34-.65c0-1.11.06-2.21,0-3.32a2.57,2.57,0,0,0-2.48-2.29c-1.38,0-2.77,0-4.16,0a2.57,2.57,0,0,0-2.48,2.32c-.1,1.1,0,2.2,0,3.3a.62.62,0,0,1-.34.65c-.25,0-.6.1-.72,0s0-.47,0-.72V34.86c0-.07,0-.15.07-.23a3.75,3.75,0,0,1,2.84-2.79c.09,0,.18,0,.26-.11a3.52,3.52,0,0,1-.8-2.66c0-.27,0-.54,0-.81a3.28,3.28,0,0,1,2.22-3.1A3.22,3.22,0,0,1,13,25a.45.45,0,0,0,.39-.15,3.52,3.52,0,0,1,1.75-.91l.23-.08a3.38,3.38,0,0,1-.77-2c-.05-.45,0-.91,0-1.37A3.3,3.3,0,0,1,17,17.17c.23-.07.24-.16.17-.35a2.64,2.64,0,0,0-2.41-1.69c-1.35,0-2.69,0-4,0A2.58,2.58,0,0,0,8.17,17.5c-.1,1.08,0,2.16,0,3.24,0,.31-.07.57-.39.67a.57.57,0,0,1-.7-.32Z"></path><path id="Path_10" data-name="Path 10" class="cls-2" d="M35.54,11.3c0-.4,0-.67,0-.93a2.16,2.16,0,0,0-2.31-2,2.11,2.11,0,0,0-2,2q0,.81,0,1.62a2.2,2.2,0,0,0,.15.72A2.1,2.1,0,0,0,33.07,14a2.15,2.15,0,0,0,2.4-1.55A4.2,4.2,0,0,0,35.54,11.3ZM33.2,15.12c-.6,0-1.4,0-2.2.05a3.17,3.17,0,0,0-.73.2.57.57,0,0,1-.78-.23.05.05,0,0,0,0,0,.57.57,0,0,1,.31-.74l0,0a3,3,0,0,1,.83-.27c.16,0,.22-.08.1-.24a3.14,3.14,0,0,1-.66-2.23,9.5,9.5,0,0,1,.07-1.77,3.3,3.3,0,0,1,6.53.7,11.6,11.6,0,0,1,0,1.77,3.14,3.14,0,0,1-.6,1.49c-.14.17-.16.25.1.31a3.72,3.72,0,0,1,2.93,3.7v3a.57.57,0,0,1-.38.62.55.55,0,0,1-.7-.32,1,1,0,0,1,0-.24V18.08a3.82,3.82,0,0,0-.08-.9,2.63,2.63,0,0,0-2.54-2.06Z"></path></svg>