<svg xmlns="http://www.w3.org/2000/svg" xmlns:xlink="http://www.w3.org/1999/xlink" id="Layer_1" data-name="Layer 1" viewBox="0 0 46.06 46.06"><defs><style>.cls-1{fill:url(#linear-gradient);}.cls-2{fill:#13191d;}</style><linearGradient id="linear-gradient" x1="-0.71" y1="23.03" x2="61.81" y2="23.03" gradientUnits="userSpaceOnUse"><stop offset="0" stop-color="#32acd5"></stop><stop offset="1" stop-color="#a2d9d3"></stop></linearGradient></defs><rect class="cls-1" width="46.06" height="46.06" rx="4.06"></rect><path class="cls-2" d="M6.43,20.63v5.24c0,.18-.06.43.25.43s.26-.24.28-.43.07-.66.11-1c.34-2.94.7-5.89,1-8.83.09-.77.21-.66-.63-.86L7,15.07c-.53-.12-.57-.1-.57.41v5.15Zm33.25,0V15.43c0-.45,0-.48-.5-.38s-.65.17-1,.23-.41.19-.38.49c.15,1.74.28,3.48.42,5.22s.28,3.35.41,5a.33.33,0,0,0,0,.17.28.28,0,0,0,.13.11.65.65,0,0,0,.31.08.64.64,0,0,0,.3-.08.56.56,0,0,0,.21-.22.58.58,0,0,0,0-.29V20.62ZM23.35,12a6.4,6.4,0,0,0-.88.09,2.9,2.9,0,0,0-.6.11,8.62,8.62,0,0,0-5.38,4.49,1.19,1.19,0,0,0-.07.85,1.25,1.25,0,0,0,.52.7,3.1,3.1,0,0,0,2.42.56,5.4,5.4,0,0,0,2.5-1.23A15.08,15.08,0,0,0,24.31,15a1,1,0,0,1,.29-.3A1.21,1.21,0,0,1,25,14.5a1.24,1.24,0,0,1,.43,0,1,1,0,0,1,.4.18,1,1,0,0,1,.3.29.93.93,0,0,1,.15.39,1,1,0,0,1,0,.41.92.92,0,0,1-.2.36,9.78,9.78,0,0,1-.91,1.13c-.29.29-.23.48.06.75q4.39,4.1,8.77,8.21c.94.89.93.88,2.2.49a.4.4,0,0,0,.34-.5c-.16-1.86-.3-3.71-.45-5.56-.12-1.45-.24-2.9-.38-4.34-.07-.79-.1-.78-.91-1a69.71,69.71,0,0,1-7.62-2.59A11.23,11.23,0,0,0,23.35,12Zm-4.5,8.89a5.43,5.43,0,0,1-3.23-1,3.41,3.41,0,0,1-1.37-2,3.22,3.22,0,0,1,.35-2.35,12.65,12.65,0,0,1,1.25-1.75c.11-.14.36-.28.27-.43s-.37-.07-.56,0a14.08,14.08,0,0,0-5,1.79.46.46,0,0,0-.16.15.46.46,0,0,0-.05.2c-.22,1.91-.43,3.82-.66,5.73-.2,1.73-.38,3.47-.61,5.2a.73.73,0,0,0,0,.44.78.78,0,0,0,.3.35l9.06,6.68a1.07,1.07,0,0,0,.74.28,1.24,1.24,0,0,0,.39-.09,1,1,0,0,0,.33-.23.88.88,0,0,0,.23-.69.92.92,0,0,0-.36-.65c-.64-.62-1.3-1.23-1.95-1.84q-.51-.45-1-.93a1,1,0,0,1-.25-.49.92.92,0,0,1,.07-.54,1,1,0,0,1,.34-.43,1.14,1.14,0,0,1,.54-.2,1.25,1.25,0,0,1,.57.1,1.29,1.29,0,0,1,.47.33l4,3.77c.11.11.23.21.35.31a1,1,0,0,0,.54.2,1,1,0,0,0,1-.52.88.88,0,0,0,.08-.53,1.09,1.09,0,0,0-.43-.68l-4-3.78a2.72,2.72,0,0,1-.4-.43.95.95,0,0,1,.12-1.21,1.18,1.18,0,0,1,.57-.31,1.24,1.24,0,0,1,.66.06,1.89,1.89,0,0,1,.6.45l5.4,5.05a3.54,3.54,0,0,0,.42.35,1,1,0,0,0,.5.16,1,1,0,0,0,.5-.12,1,1,0,0,0,.38-.34.82.82,0,0,0,.12-.48,1,1,0,0,0-.13-.46,1.06,1.06,0,0,0-.31-.36L24.2,25.5c-.44-.41-.89-.82-1.32-1.25a1,1,0,0,1-.3-.49.93.93,0,0,1,.06-.57.91.91,0,0,1,.34-.44,1,1,0,0,1,.53-.21,1.22,1.22,0,0,1,.6.09,1.3,1.3,0,0,1,.48.35l6.88,6.46a3.62,3.62,0,0,0,.42.36,1.1,1.1,0,0,0,.66.16,1.08,1.08,0,0,0,.62-.26.94.94,0,0,0,.28-.58.87.87,0,0,0-.2-.61,2.38,2.38,0,0,0-.35-.36l-9.24-8.68a.5.5,0,0,0-.8,0,6.61,6.61,0,0,1-4,1.46Zm1,15.25H18.49a4.59,4.59,0,0,1-1.27-.59c-2.7-2-5.45-4-8.1-6a4.64,4.64,0,0,0-1.64-.95,4.8,4.8,0,0,0-1.92-.21,1.1,1.1,0,0,1-1.35-1.25V13.83a1.11,1.11,0,0,1,.06-.57,1.13,1.13,0,0,1,.36-.45,1.29,1.29,0,0,1,.56-.22,1.22,1.22,0,0,1,.6.09c1,.23,2,.46,2.92.71a1.13,1.13,0,0,0,.45,0,1.06,1.06,0,0,0,.43-.16,17.25,17.25,0,0,1,4-1.67,8.63,8.63,0,0,1,4.25-.25,1.11,1.11,0,0,0,.51,0,1.14,1.14,0,0,0,.47-.19A8.62,8.62,0,0,1,23.47,10a14,14,0,0,1,5.08,1.1,54.61,54.61,0,0,0,7.09,2.37,2.8,2.8,0,0,0,1.52,0c1-.27,2.07-.5,3.11-.75a1.23,1.23,0,0,1,.5-.09,1.25,1.25,0,0,1,.5.11,1.16,1.16,0,0,1,.39.3,1.06,1.06,0,0,1,.23.43V27.5a1.14,1.14,0,0,1-.5.68,1.23,1.23,0,0,1-.86.18c-.47,0-.94,0-1.41,0a7.62,7.62,0,0,0-2.6.37c-.59.18-1,.39-1,1a.49.49,0,0,1,0,.11,2.82,2.82,0,0,1-.6,1.08,3.19,3.19,0,0,1-1,.77,3.43,3.43,0,0,1-1.26.31,3.32,3.32,0,0,1-1.29-.19c-.21-.06-.37-.14-.55.09a3.07,3.07,0,0,1-1.74,1.35,3.28,3.28,0,0,1-2.25-.1.36.36,0,0,0-.25,0,.32.32,0,0,0-.19.15,3.2,3.2,0,0,1-4,1.23c-.17-.05-.29-.05-.38.11a3.28,3.28,0,0,1-.89.93,3.5,3.5,0,0,1-1.2.53Z"></path><path class="cls-2" d="M6.43,20.63v5.24c0,.18-.06.43.25.43s.26-.24.28-.43.07-.66.11-1c.34-2.94.7-5.89,1-8.83.09-.77.21-.66-.63-.86L7,15.07c-.53-.12-.57-.1-.57.41v5.15Zm33.25,0V15.43c0-.45,0-.48-.5-.38s-.65.17-1,.23-.41.19-.38.49c.15,1.74.28,3.48.42,5.22s.28,3.35.41,5a.33.33,0,0,0,0,.17.28.28,0,0,0,.13.11.65.65,0,0,0,.31.08.64.64,0,0,0,.3-.08.56.56,0,0,0,.21-.22.58.58,0,0,0,0-.29V20.62ZM23.35,12a6.4,6.4,0,0,0-.88.09,2.9,2.9,0,0,0-.6.11,8.62,8.62,0,0,0-5.38,4.49,1.19,1.19,0,0,0-.07.85,1.25,1.25,0,0,0,.52.7,3.1,3.1,0,0,0,2.42.56,5.4,5.4,0,0,0,2.5-1.23A15.08,15.08,0,0,0,24.31,15a1,1,0,0,1,.29-.3A1.21,1.21,0,0,1,25,14.5a1.24,1.24,0,0,1,.43,0,1,1,0,0,1,.4.18,1,1,0,0,1,.3.29.93.93,0,0,1,.15.39,1,1,0,0,1,0,.41.92.92,0,0,1-.2.36,9.78,9.78,0,0,1-.91,1.13c-.29.29-.23.48.06.75q4.39,4.1,8.77,8.21c.94.89.93.88,2.2.49a.4.4,0,0,0,.34-.5c-.16-1.86-.3-3.71-.45-5.56-.12-1.45-.24-2.9-.38-4.34-.07-.79-.1-.78-.91-1a69.71,69.71,0,0,1-7.62-2.59A11.23,11.23,0,0,0,23.35,12Zm-4.5,8.89a5.43,5.43,0,0,1-3.23-1,3.41,3.41,0,0,1-1.37-2,3.22,3.22,0,0,1,.35-2.35,12.65,12.65,0,0,1,1.25-1.75c.11-.14.36-.28.27-.43s-.37-.07-.56,0a14.08,14.08,0,0,0-5,1.79.46.46,0,0,0-.16.15.46.46,0,0,0-.05.2c-.22,1.91-.43,3.82-.66,5.73-.2,1.73-.38,3.47-.61,5.2a.73.73,0,0,0,0,.44.78.78,0,0,0,.3.35l9.06,6.68a1.07,1.07,0,0,0,.74.28,1.24,1.24,0,0,0,.39-.09,1,1,0,0,0,.33-.23.88.88,0,0,0,.23-.69.92.92,0,0,0-.36-.65c-.64-.62-1.3-1.23-1.95-1.84q-.51-.45-1-.93a1,1,0,0,1-.25-.49.92.92,0,0,1,.07-.54,1,1,0,0,1,.34-.43,1.14,1.14,0,0,1,.54-.2,1.25,1.25,0,0,1,.57.1,1.29,1.29,0,0,1,.47.33l4,3.77c.11.11.23.21.35.31a1,1,0,0,0,.54.2,1,1,0,0,0,1-.52.88.88,0,0,0,.08-.53,1.09,1.09,0,0,0-.43-.68l-4-3.78a2.72,2.72,0,0,1-.4-.43.95.95,0,0,1,.12-1.21,1.18,1.18,0,0,1,.57-.31,1.24,1.24,0,0,1,.66.06,1.89,1.89,0,0,1,.6.45l5.4,5.05a3.54,3.54,0,0,0,.42.35,1,1,0,0,0,.5.16,1,1,0,0,0,.5-.12,1,1,0,0,0,.38-.34.82.82,0,0,0,.12-.48,1,1,0,0,0-.13-.46,1.06,1.06,0,0,0-.31-.36L24.2,25.5c-.44-.41-.89-.82-1.32-1.25a1,1,0,0,1-.3-.49.93.93,0,0,1,.06-.57.91.91,0,0,1,.34-.44,1,1,0,0,1,.53-.21,1.22,1.22,0,0,1,.6.09,1.3,1.3,0,0,1,.48.35l6.88,6.46a3.62,3.62,0,0,0,.42.36,1.1,1.1,0,0,0,.66.16,1.08,1.08,0,0,0,.62-.26.94.94,0,0,0,.28-.58.87.87,0,0,0-.2-.61,2.38,2.38,0,0,0-.35-.36l-9.24-8.68a.5.5,0,0,0-.8,0,6.61,6.61,0,0,1-4,1.46Zm1,15.25H18.49a4.59,4.59,0,0,1-1.27-.59c-2.7-2-5.45-4-8.1-6a4.64,4.64,0,0,0-1.64-.95,4.8,4.8,0,0,0-1.92-.21,1.1,1.1,0,0,1-1.35-1.25V13.83a1.11,1.11,0,0,1,.06-.57,1.13,1.13,0,0,1,.36-.45,1.29,1.29,0,0,1,.56-.22,1.22,1.22,0,0,1,.6.09c1,.23,2,.46,2.92.71a1.13,1.13,0,0,0,.45,0,1.06,1.06,0,0,0,.43-.16,17.25,17.25,0,0,1,4-1.67,8.63,8.63,0,0,1,4.25-.25,1.11,1.11,0,0,0,.51,0,1.14,1.14,0,0,0,.47-.19A8.62,8.62,0,0,1,23.47,10a14,14,0,0,1,5.08,1.1,54.61,54.61,0,0,0,7.09,2.37,2.8,2.8,0,0,0,1.52,0c1-.27,2.07-.5,3.11-.75a1.23,1.23,0,0,1,.5-.09,1.25,1.25,0,0,1,.5.11,1.16,1.16,0,0,1,.39.3,1.06,1.06,0,0,1,.23.43V27.5a1.14,1.14,0,0,1-.5.68,1.23,1.23,0,0,1-.86.18c-.47,0-.94,0-1.41,0a7.62,7.62,0,0,0-2.6.37c-.59.18-1,.39-1,1a.49.49,0,0,1,0,.11,2.82,2.82,0,0,1-.6,1.08,3.19,3.19,0,0,1-1,.77,3.43,3.43,0,0,1-1.26.31,3.32,3.32,0,0,1-1.29-.19c-.21-.06-.37-.14-.55.09a3.07,3.07,0,0,1-1.74,1.35,3.28,3.28,0,0,1-2.25-.1.36.36,0,0,0-.25,0,.32.32,0,0,0-.19.15,3.2,3.2,0,0,1-4,1.23c-.17-.05-.29-.05-.38.11a3.28,3.28,0,0,1-.89.93,3.5,3.5,0,0,1-1.2.53Z"></path></svg>