<svg xmlns="http://www.w3.org/2000/svg" xmlns:xlink="http://www.w3.org/1999/xlink" id="Layer_1" data-name="Layer 1" viewBox="0 0 46.06 46.06"><defs><style>.cls-1{fill:url(#linear-gradient);}.cls-2{fill:#13191d;}</style><linearGradient id="linear-gradient" x1="-0.71" y1="23.03" x2="61.81" y2="23.03" gradientUnits="userSpaceOnUse"><stop offset="0" stop-color="#32acd5"></stop><stop offset="1" stop-color="#a2d9d3"></stop></linearGradient></defs><rect class="cls-1" width="46.06" height="46.06" rx="4.06"></rect><path class="cls-2" d="M24.51,14.24a5.8,5.8,0,0,0,1.25-.08c.36-.05.73-.15,1.09-.22a.58.58,0,0,0,.34-.19.59.59,0,0,0,.13-.37c0-.5-.28-.76-.8-.65a7.92,7.92,0,0,1-1.67.24,9.23,9.23,0,0,1-2.45-.24c-.54-.13-.85.18-.77.73.05.33.29.45.57.52a9.46,9.46,0,0,0,2.31.26ZM24.46,12a11.4,11.4,0,0,0,2.24-.31.39.39,0,0,0,.14-.08.36.36,0,0,0,.1-.14A12.33,12.33,0,0,0,28,9.36a2.36,2.36,0,0,0,.2-.78c0-.17,0-.24-.21-.17a1.57,1.57,0,0,1-.8.1,1.51,1.51,0,0,1-.75-.31.74.74,0,0,0-.43-.14.71.71,0,0,0-.44.15,1.6,1.6,0,0,1-.94.33,1.62,1.62,0,0,1-1-.3.8.8,0,0,0-1,0,1.53,1.53,0,0,1-.57.25,1.34,1.34,0,0,1-.63,0c-.53-.13-.56-.1-.41.46a.29.29,0,0,1,0,.09A11.64,11.64,0,0,0,22.4,11.6a.27.27,0,0,0,.11.1.24.24,0,0,0,.14.05,10.94,10.94,0,0,0,1.81.24ZM9,31.6v5.28c0,.44.13.57.56.57h1.65c.52,0,.6-.08.6-.62V31.22a1.41,1.41,0,0,1,0-.46.5.5,0,0,1,.18-.27.45.45,0,0,1,.3-.09.46.46,0,0,1,.29.11.43.43,0,0,1,.15.28,1.3,1.3,0,0,1,0,.34c0,1.45,0,2.89,0,4.34a.54.54,0,0,0,.08.37.5.5,0,0,0,.31.22c1.22.44,2.44.9,3.64,1.4a7.68,7.68,0,0,0,3.23.62c1.86,0,3.72,0,5.58,0a5,5,0,0,0,3-.9c1.58-1.06,3.19-2.1,4.78-3.14l3.21-2.11a.85.85,0,0,0,.26-.24,1,1,0,0,0,.17-.33,1.09,1.09,0,0,0-.06-.71.94.94,0,0,0-.46-.5.91.91,0,0,0-.67,0,5.37,5.37,0,0,0-.56.21l-7.89,3.59a1,1,0,0,1-.43.14h-5a.63.63,0,0,1-.19,0,.42.42,0,0,1-.17-.1.48.48,0,0,1-.12-.16.45.45,0,0,1-.05-.19.55.55,0,0,1,.14-.37.53.53,0,0,1,.35-.17h4.28c.15,0,.3,0,.33-.21a2,2,0,0,0,0-.81,2.18,2.18,0,0,0-.32-.75,1.9,1.9,0,0,0-.59-.54,1.87,1.87,0,0,0-.75-.26c-1.29-.18-2.57-.33-3.86-.45a7.5,7.5,0,0,1-3.44-1c-.24-.15-.5-.28-.74-.43a7.68,7.68,0,0,0-3.69-1.11c-.27,0-.36.09-.34.36s0,.62,0,.93a.55.55,0,0,1-.14.32.46.46,0,0,1-.31.15.47.47,0,0,1-.32-.1.49.49,0,0,1-.18-.3,2.22,2.22,0,0,1,0-.37V26.3c0-.4-.09-.5-.48-.5H9.56c-.49,0-.58.09-.58.6,0,1.74,0,3.47,0,5.21ZM8,26.05a1.54,1.54,0,0,1,.18-.56A1.38,1.38,0,0,1,9,24.8a1.22,1.22,0,0,1,.57,0h1.78a1.3,1.3,0,0,1,.51.08,1.37,1.37,0,0,1,.44.28,1.28,1.28,0,0,1,.3.43,1.58,1.58,0,0,1,.12.53c0,.25.1.32.32.31a3.36,3.36,0,0,1,.63.06c.23,0,.3,0,.29-.27a10.9,10.9,0,0,1,.15-2.42A14.55,14.55,0,0,1,17,17.58a20.79,20.79,0,0,1,3.35-3.41l.21-.18a.84.84,0,0,0,0-.1c-1.34.13-2.6.33-3.44,1.56-.22.32-.48.41-.73.24s-.28-.45-.09-.77a3.84,3.84,0,0,1,2-1.6,6.17,6.17,0,0,1,1.79-.39l.24,0c.22,0,.2-.12.07-.25a2.28,2.28,0,0,0-.82-.55,2.1,2.1,0,0,0-1-.11A4.12,4.12,0,0,1,16,11.36a.53.53,0,0,1-.27-.75.57.57,0,0,1,.15-.16.5.5,0,0,1,.2-.08.53.53,0,0,1,.22,0,.45.45,0,0,1,.19.11,3.29,3.29,0,0,0,2.2.49,3,3,0,0,1,1.29.14,3.12,3.12,0,0,1,1.12.7l.06.06c.07.06.13.11.21,0s0-.14,0-.2-.22-.37-.32-.56a7.6,7.6,0,0,1-.94-2.45,1.53,1.53,0,0,1,.18-1.05,1.14,1.14,0,0,1,.18-.25,1.1,1.1,0,0,1,.26-.15.7.7,0,0,1,.29,0,.66.66,0,0,1,.28.09,1.14,1.14,0,0,0,.62.15,1.1,1.1,0,0,0,.6-.22,1.48,1.48,0,0,1,1.63,0,1,1,0,0,0,.53.19.88.88,0,0,0,.54-.18,1.54,1.54,0,0,1,.9-.27,1.5,1.5,0,0,1,.89.29.89.89,0,0,0,.43.17.91.91,0,0,0,.46-.1.8.8,0,0,1,.47-.15.92.92,0,0,1,.48.14.87.87,0,0,1,.33.38,1,1,0,0,1,.1.5A3.08,3.08,0,0,1,29,9.59a11.72,11.72,0,0,1-1.11,2.21c-.09.15-.13.24,0,.4a1.55,1.55,0,0,1,.35.61,1.59,1.59,0,0,1,.05.72c0,.16.06.22.16.31.43.37.87.73,1.3,1.11s.34.54.14.78-.49.22-.8,0l-1.11-1c-.09-.08-.18-.16-.32-.07a4.39,4.39,0,0,1-2,.53A10.78,10.78,0,0,1,22,15a.48.48,0,0,1-.17-.05c-.4-.27-.7-.09-1,.19a18.21,18.21,0,0,0-4.77,6,10.87,10.87,0,0,0-1.07,4.63c0,.9,0,.91.83,1.19A9.74,9.74,0,0,1,17.88,28a6.42,6.42,0,0,0,2.93.95c1.43.14,2.86.31,4.28.51a2.81,2.81,0,0,1,1.71,1,3,3,0,0,1,.68,1.91c0,.39,0,.39.33.24l4.94-2.25A.86.86,0,0,0,33.2,30,8.23,8.23,0,0,0,34.28,25,13.19,13.19,0,0,0,31,17.66c-.09-.11-.19-.22-.27-.33a.33.33,0,0,1-.12-.17.45.45,0,0,1,0-.2.52.52,0,0,1,0-.21.38.38,0,0,1,.12-.17c.22-.21.49-.19.73.1s.61.72.9,1.1a14,14,0,0,1,2.81,6.3,9.7,9.7,0,0,1-.47,5.09.74.74,0,0,0-.09.36l.61-.27a1.92,1.92,0,0,1,1.43-.11,2,2,0,0,1,1.12.93A2.11,2.11,0,0,1,38,31.56a2,2,0,0,1-.84,1.2l-8.22,5.4a6.61,6.61,0,0,1-2.21.88H18.42a9.94,9.94,0,0,1-1.5-.45L13.05,37.1c-.12,0-.25-.17-.3.11a1.43,1.43,0,0,1-.48.93,1.35,1.35,0,0,1-1,.33H9.67a1.42,1.42,0,0,1-.58,0,1.3,1.3,0,0,1-.52-.24,1.49,1.49,0,0,1-.39-.44,1.52,1.52,0,0,1-.2-.55Z"></path><path class="cls-2" d="M27.11,20.25h-1a2.17,2.17,0,0,1,.3.85h1l-.26,1h-.73a2,2,0,0,1-.59,1.21,2.79,2.79,0,0,1-1.36.63l2.15,2.64v.07H25l-2.39-2.89v-.9h1.17a1.05,1.05,0,0,0,.71-.17,1.11,1.11,0,0,0,.43-.59H22.44l.25-1h2.15a1.08,1.08,0,0,0-.43-.49,1,1,0,0,0-.63-.13H22.44l.29-1.24h4.63Z"></path></svg>