<svg xmlns="http://www.w3.org/2000/svg" xmlns:xlink="http://www.w3.org/1999/xlink" id="Layer_1" data-name="Layer 1" viewBox="0 0 756 130.19"><defs><style>.cls-1{fill:url(#linear-gradient);}.cls-2{fill:url(#linear-gradient-2);}.cls-3{fill:url(#linear-gradient-3);}.cls-4{fill:url(#linear-gradient-4);}.cls-5{fill:url(#linear-gradient-5);}.cls-6{fill:url(#linear-gradient-6);}.cls-7{fill:url(#linear-gradient-7);}.cls-8{fill:url(#linear-gradient-8);}</style><linearGradient id="linear-gradient" x1="643.51" y1="231.89" x2="569.13" y2="231.96" gradientTransform="matrix(1, 0, 0, -1, 0, 302)" gradientUnits="userSpaceOnUse"><stop offset="0" stop-color="#32acd5"></stop><stop offset="1" stop-color="#a2d9d3"></stop></linearGradient><linearGradient id="linear-gradient-2" x1="562.14" y1="255.65" x2="550.01" y2="255.66" xlink:href="#linear-gradient"></linearGradient><linearGradient id="linear-gradient-3" x1="558.07" y1="232.93" x2="544.58" y2="232.95" xlink:href="#linear-gradient"></linearGradient><linearGradient id="linear-gradient-4" x1="559.61" y1="243.92" x2="548.26" y2="243.94" xlink:href="#linear-gradient"></linearGradient><linearGradient id="linear-gradient-5" x1="193.93" y1="231.89" x2="119.55" y2="231.96" gradientTransform="translate(283.12 302) rotate(180)" xlink:href="#linear-gradient"></linearGradient><linearGradient id="linear-gradient-6" x1="112.56" y1="255.65" x2="100.43" y2="255.66" gradientTransform="translate(283.12 302) rotate(180)" xlink:href="#linear-gradient"></linearGradient><linearGradient id="linear-gradient-7" x1="108.49" y1="232.93" x2="95.01" y2="232.95" gradientTransform="translate(283.12 302) rotate(180)" xlink:href="#linear-gradient"></linearGradient><linearGradient id="linear-gradient-8" x1="110.04" y1="243.92" x2="98.68" y2="243.94" gradientTransform="translate(283.12 302) rotate(180)" xlink:href="#linear-gradient"></linearGradient></defs><path class="cls-1" d="M577.41,40.72A4.54,4.54,0,0,1,581.85,37a7,7,0,0,1,.79.07,4.54,4.54,0,0,1,2.91,1.85,4.48,4.48,0,0,1,.75,3.37l-.36,2.26,44.52,19.41a4.38,4.38,0,0,1,3.27-.79,4.44,4.44,0,0,1,3.68,5.05L636.24,76a4.42,4.42,0,0,1-4.37,3.78,3.67,3.67,0,0,1-.66-.05A4.4,4.4,0,0,1,628,77.56h0L620.2,99.9h0a4.81,4.81,0,0,1-8.88.51,4.82,4.82,0,0,1-.21-3.69L617.29,79l-37.75,5-.13.82a4.52,4.52,0,0,1-5.21,3.7h0a4.51,4.51,0,0,1-3.66-5.23Zm54.2,36.38a1.67,1.67,0,0,0,1.31-.33,1.73,1.73,0,0,0,.7-1.15l1.17-7.82a1.78,1.78,0,0,0-1.49-2l-.26,0a1.77,1.77,0,0,0-1,.34,2.44,2.44,0,0,0-.29.27.25.25,0,0,0,0,.07,1.91,1.91,0,0,0-.37.82l-1.17,7.82a2.71,2.71,0,0,0,0,.29,2.61,2.61,0,0,0,0,.4,1.79,1.79,0,0,0,1.45,1.32Zm-11.37,1.5-6.61,19a2.15,2.15,0,0,0,.09,1.65,2.11,2.11,0,0,0,1.22,1.09h0a2.15,2.15,0,0,0,1.65-.09A2.1,2.1,0,0,0,617.69,99L625,78l-2.58.34ZM580,81.27l39.09-5.21,8.38-1.13,0-.23h0l1.17-7.82h0a4.32,4.32,0,0,1,.17-.71v0L590.93,49.62l-3.76,25.2A1.34,1.34,0,0,1,585.86,76l-.2,0a1.33,1.33,0,0,1-1.12-1.51l3.86-25.91-2.9-1.27-.93,5.7Zm-5.34,4.63a1.88,1.88,0,0,0,1.38-.31,1.82,1.82,0,0,0,.75-1.19l4.14-25.53,2.23-13.74h0l.52-3.3a1.79,1.79,0,0,0-.31-1.38,1.81,1.81,0,0,0-1.15-.75l-.37,0A1.86,1.86,0,0,0,580,41.17l-6.89,42.58a1.86,1.86,0,0,0,1.51,2.15Z"></path><path class="cls-2" d="M559.45,50.56a1.69,1.69,0,0,1-.93-.28L551,45.2a1.69,1.69,0,0,1,1.88-2.8l7.56,5.08a1.68,1.68,0,0,1-.94,3.08Z"></path><path class="cls-3" d="M546.07,68.49l8.84-2.18a1.68,1.68,0,0,1,.81,3.27l-8.84,2.19a1.84,1.84,0,0,1-.41,0,1.69,1.69,0,0,1-.4-3.32Z"></path><path class="cls-4" d="M550,59.41a1.68,1.68,0,0,1,.31-3.35l6.86.63h0A1.68,1.68,0,0,1,557,60h-.15Z"></path><path class="cls-5" d="M162.17,83.31a4.53,4.53,0,0,1-3.67,5.23h0a4.52,4.52,0,0,1-5.21-3.7l-.13-.82-37.74-5,6.17,17.73a4.87,4.87,0,0,1-.2,3.69,4.81,4.81,0,0,1-2.76,2.46,4.8,4.8,0,0,1-6.13-3h0l-7.77-22.34h0a4.4,4.4,0,0,1-3.18,2.18,3.85,3.85,0,0,1-.67.05A4.44,4.44,0,0,1,96.45,76L95.28,68.2a4.4,4.4,0,0,1,.8-3.28,4.4,4.4,0,0,1,6.16-1l44.52-19.41-.37-2.26a4.5,4.5,0,0,1,3.67-5.22,6.85,6.85,0,0,1,.78-.07,4.54,4.54,0,0,1,4.44,3.74ZM101.08,77.1a1.6,1.6,0,0,0,1.47-1.72,2.71,2.71,0,0,0,0-.29l-1.17-7.82a1.89,1.89,0,0,0-.36-.82l0-.07a1.86,1.86,0,0,0-.29-.27,1.75,1.75,0,0,0-1-.34l-.26,0a1.77,1.77,0,0,0-1.16.7,1.75,1.75,0,0,0-.32,1.31l1.17,7.82a1.72,1.72,0,0,0,.69,1.15,1.67,1.67,0,0,0,1.31.33Zm9.17,1.2L107.67,78,115,99a2.14,2.14,0,0,0,2.74,1.32h0A2.05,2.05,0,0,0,119,99.26a2.15,2.15,0,0,0,.09-1.65l-6.61-19ZM148.12,53l-.92-5.7-2.91,1.27,3.86,25.91A1.33,1.33,0,0,1,147,75.94l-.2,0a1.32,1.32,0,0,1-1.31-1.14l-3.77-25.2-37.9,16.52v0a4.35,4.35,0,0,1,.18.71h0l1.16,7.82h0a2.08,2.08,0,0,1,0,.23l8.39,1.13,39.08,5.21Zm9.92,33a1.86,1.86,0,0,0,1.51-2.15l-6.89-42.58a1.86,1.86,0,0,0-1.81-1.52l-.36,0a1.83,1.83,0,0,0-1.16.75,1.79,1.79,0,0,0-.31,1.38l.52,3.3h0l2.23,13.74,4.14,25.53a1.82,1.82,0,0,0,.75,1.19,1.88,1.88,0,0,0,1.38.31Z"></path><path class="cls-6" d="M173.23,50.56a1.68,1.68,0,0,1-.94-3.08l7.57-5.08a1.68,1.68,0,0,1,1.87,2.8l-7.56,5.08a1.69,1.69,0,0,1-.93.28Z"></path><path class="cls-7" d="M186.62,68.5a1.69,1.69,0,0,1-.4,3.32,1.92,1.92,0,0,1-.41,0L177,69.58a1.68,1.68,0,0,1,.81-3.27l8.83,2.18Z"></path><path class="cls-8" d="M175.86,60h-.15a1.68,1.68,0,0,1-.15-3.35h0l6.86-.63a1.68,1.68,0,1,1,.31,3.35Z"></path></svg>