<svg xmlns="http://www.w3.org/2000/svg" id="Layer_1" data-name="Layer 1" viewBox="0 0 115.77 76.12"><defs><style>.cls-1{fill:#fff;}</style></defs><path class="cls-1" d="M109.37,49.4c-2.58,1.81-3,3.77-3.07,4.31-.41.25-.79.46-1.14.65.55-.91,1.07-1.84,1.55-2.79a41.52,41.52,0,0,0,2.05-5c.06-.19.13-.38.19-.56a13.62,13.62,0,0,1,2-3.92l.17-.24c7.24-4,3.92-12,3.92-12,.11,1.79-1.61,3.15-3.39,6.4-1.5,2.77-1,4.71-.82,5.23-.36.57-.71,1.07-1,1.49q.18-.78.33-1.56a38.45,38.45,0,0,0,.62-5.35l0-.67c0-.22,0-.44,0-.67V33.34c0-.45,0-.9,0-1.35,0-.22,0-.44,0-.66l-.06-.67a5,5,0,0,1,.07-1.33l.52-2.55c5.28-6.35-.78-12.65-.78-12.65.76,1.62-.34,3.52-.8,7.2-.38,3.13.8,4.75,1.16,5.16-.15.75-.3,1.39-.43,1.92l-.06-.42c0-.44-.15-.88-.23-1.32L110,26c0-.22-.08-.44-.14-.65-.21-.87-.41-1.74-.69-2.59l-.19-.63-.1-.32-.11-.32-.45-1.25c-.29-.73-.58-1.46-.9-2.18a11.44,11.44,0,0,1-1-4.07c0-.33,0-.65-.08-1,2.84-7.75-5-11.65-5-11.65,1.26,1.27.85,3.43,1.67,7,.69,3.08,2.35,4.21,2.83,4.48.15,1.05.23,1.93.27,2.55l0-.07-.32-.59c-.11-.2-.23-.38-.34-.58l-.69-1.14L104,12l-.38-.55-.39-.54c-.41-.57-.84-1.12-1.3-1.66-.62-.79-1.48-1.94-2.22-2.76a5.66,5.66,0,0,1-.88-1.29C95.53-1.68,87.58.25,87.58.25c1.78.11,2.92,2,5.93,4.15a6.65,6.65,0,0,0,4.95,1.49l.26.08.91,1A36.48,36.48,0,0,1,103,11.05l.39.54.35.55.71,1.12.3.53A21.38,21.38,0,0,0,102.32,12C98,5,90.11,8.65,90.11,8.65c1.78-.19,3.21,1.47,6.54,3.09,2.84,1.38,4.75.79,5.26.58C103,13,104,13.64,104.54,14a2.68,2.68,0,0,1,.82,1h0l.3.59a36.93,36.93,0,0,1,2.08,4.84l.41,1.25.1.31.1.32.17.63c.25.85.42,1.71.61,2.56.05.22.09.43.13.65h0a24.34,24.34,0,0,0-1.67-2.25c-2-8-10.7-6.8-10.7-6.8,1.76.34,2.65,2.35,5.36,4.87,2.31,2.15,4.32,2.15,4.86,2.1.62.67,1.13,1.28,1.51,1.75a4.17,4.17,0,0,1,.93,2.26h0l.16,1.31,0,.32,0,.33,0,.65,0,.66c0,.21,0,.43,0,.65,0,.44,0,.87,0,1.31l0,1.31q0,.33,0,.66l0,.65c-.07,1-.17,1.89-.31,2.82a20.92,20.92,0,0,0-.65-2.24c1-8.19-7.56-10.17-7.56-10.17,1.52.95,1.63,3.14,3.27,6.46,1.39,2.84,3.26,3.55,3.79,3.7.2.52.38,1,.52,1.4a5.78,5.78,0,0,1,.2,3.19v0a39.44,39.44,0,0,1-1.44,5,43.19,43.19,0,0,1-2.11,4.77c-.24.45-.49.89-.75,1.33a23.23,23.23,0,0,0,.27-2.67c3.89-7.28-3.31-12.23-3.31-12.23,1.07,1.44.37,3.52.67,7.22.25,3.14,1.73,4.49,2.17,4.82v.35a9.72,9.72,0,0,1-1.78,5.59s0,0,0,0a38.38,38.38,0,0,1-3.32,4c-.3.3-.59.63-.91.93l-.93.89s0,0,0,0c.28-.5.54-1,.78-1.51C104.74,54.45,100,47.1,100,47.1c.44,1.74-1,3.38-2.18,6.91-1,3-.14,4.81.13,5.28-.18.46-.37.87-.54,1.24a6.26,6.26,0,0,1-1.81,2.33h0a36.71,36.71,0,0,1-4.26,2.95c-.87.52-1.75,1-2.65,1.44.37-.39.72-.78,1-1.16,6.14-2.84,3.89-9.63,3.89-9.63,0,1.46-1.5,2.48-3.13,5a5.32,5.32,0,0,0-1,4.22c-.2.27-.39.52-.57.74a5.65,5.65,0,0,1-2.21,1.69,0,0,0,0,1,0,0,40.15,40.15,0,0,1-4.88,1.68h0A1.09,1.09,0,1,0,82.44,72,40.22,40.22,0,0,0,87.55,70a41.82,41.82,0,0,0,4.79-2.6c.92-.57,1.82-1.2,2.69-1.86A7.81,7.81,0,0,1,99.09,64c7.71,3,11.72-4.81,11.72-4.81-1.29,1.24-3.44.81-7.07,1.56-3.09.64-4.24,2.29-4.52,2.76-.74.1-1.39.16-1.94.19.5-.43,1-.88,1.45-1.32l1-1c.32-.32.61-.67.92-1A39.22,39.22,0,0,0,104,56.19l.06-.09A5.15,5.15,0,0,1,106,54.37l.38-.2c8.25-.31,8.9-9,8.9-9C114.56,46.84,112.41,47.28,109.37,49.4Z"></path><path class="cls-1" d="M6.4,49.4c2.58,1.81,3,3.77,3.07,4.31.41.25.79.46,1.14.65-.55-.91-1.07-1.84-1.55-2.79a41.52,41.52,0,0,1-2.05-5c-.07-.19-.13-.38-.19-.56a13.62,13.62,0,0,0-2-3.92l-.17-.24c-7.24-4-3.92-12-3.92-12C.65,31.6,2.37,33,4.14,36.21c1.51,2.77,1,4.71.82,5.23.37.57.72,1.07,1,1.49q-.18-.78-.33-1.56A37,37,0,0,1,5,36l0-.67c0-.22,0-.44,0-.67V33.34c0-.45,0-.9,0-1.35,0-.22,0-.44,0-.66l.06-.67a5,5,0,0,0-.07-1.33l-.52-2.55c-5.28-6.35.78-12.65.78-12.65-.76,1.62.34,3.52.79,7.2.39,3.13-.79,4.75-1.16,5.16.16.75.31,1.39.44,1.92L5.46,28c0-.44.15-.88.23-1.32L5.82,26c0-.22.08-.44.14-.65.21-.87.41-1.74.69-2.59l.19-.63.1-.32.11-.32.45-1.25c.29-.73.58-1.46.9-2.18a11.66,11.66,0,0,0,1-4.07c0-.33,0-.65.08-1-2.84-7.75,5-11.65,5-11.65-1.26,1.27-.86,3.43-1.67,7-.69,3.08-2.35,4.21-2.83,4.48-.15,1.05-.23,1.93-.27,2.55l0-.07.32-.59c.1-.2.23-.38.34-.58l.69-1.14.74-1.1.38-.55.39-.54c.41-.57.84-1.12,1.3-1.66.62-.79,1.48-1.94,2.22-2.76A5.66,5.66,0,0,0,17,5.18C20.24-1.68,28.19.25,28.19.25c-1.78.11-2.92,2-5.93,4.15a6.65,6.65,0,0,1-5,1.49L17.05,6l-.91,1a36.48,36.48,0,0,0-3.32,4.12l-.39.54c-.12.18-.23.37-.36.55l-.71,1.12-.3.53A22.35,22.35,0,0,1,13.44,12C17.73,5,25.66,8.65,25.66,8.65c-1.78-.19-3.22,1.47-6.55,3.09-2.83,1.38-4.75.79-5.26.58-1.13.67-2.08,1.32-2.63,1.71a2.68,2.68,0,0,0-.82,1h0l-.3.59A36.93,36.93,0,0,0,8,20.42l-.41,1.25-.1.31-.09.32-.18.63c-.25.85-.42,1.71-.61,2.56,0,.22-.09.43-.12.65h0A22.61,22.61,0,0,1,8.17,23.9c2-8,10.7-6.8,10.7-6.8-1.76.34-2.65,2.35-5.36,4.87-2.31,2.15-4.31,2.15-4.86,2.1-.61.67-1.13,1.28-1.5,1.75a4.18,4.18,0,0,0-.94,2.26h0L6.06,29.4l0,.32,0,.33,0,.65,0,.66c0,.21,0,.43,0,.65,0,.44,0,.87,0,1.31l0,1.31q0,.33,0,.66l0,.65c.07,1,.18,1.89.31,2.82.19-.78.4-1.53.65-2.24-1-8.19,7.56-10.17,7.56-10.17-1.52.95-1.63,3.14-3.26,6.46-1.39,2.84-3.27,3.55-3.8,3.7-.2.52-.37,1-.52,1.4a5.78,5.78,0,0,0-.2,3.19s0,0,0,0a37.83,37.83,0,0,0,1.43,5,41.45,41.45,0,0,0,2.12,4.77c.23.45.48.89.74,1.33a21.13,21.13,0,0,1-.26-2.67c-3.9-7.28,3.3-12.23,3.3-12.23-1.07,1.44-.36,3.52-.66,7.22-.25,3.14-1.74,4.49-2.18,4.82v.35A9.87,9.87,0,0,0,13,55.32l0,0a38.38,38.38,0,0,0,3.32,4c.3.3.59.63.91.93l.93.89,0,0c-.28-.5-.54-1-.78-1.51C11,54.45,15.75,47.1,15.75,47.1c-.43,1.74,1,3.38,2.19,6.91,1,3,.14,4.81-.14,5.28.19.46.38.87.55,1.24a6.16,6.16,0,0,0,1.81,2.33h0a36.71,36.71,0,0,0,4.26,2.95c.86.52,1.75,1,2.65,1.44-.37-.39-.72-.78-1-1.16-6.14-2.84-3.89-9.63-3.89-9.63,0,1.46,1.5,2.48,3.13,5a5.37,5.37,0,0,1,1,4.22c.2.27.39.52.57.74A5.65,5.65,0,0,0,29,68.16a0,0,0,0,0,0,0,40.15,40.15,0,0,0,4.88,1.68h0A1.09,1.09,0,1,1,33.33,72,40.22,40.22,0,0,1,28.22,70a41.82,41.82,0,0,1-4.79-2.6c-.92-.57-1.82-1.2-2.69-1.86A7.81,7.81,0,0,0,16.68,64C9,67,5,59.22,5,59.22,6.25,60.46,8.4,60,12,60.78c3.09.64,4.24,2.29,4.52,2.76.74.1,1.39.16,1.94.19-.5-.43-1-.88-1.45-1.32l-.95-1c-.33-.32-.61-.67-.93-1a40.4,40.4,0,0,1-3.34-4.26l-.06-.09a5.15,5.15,0,0,0-1.95-1.73l-.38-.2c-8.25-.31-8.9-9-8.9-9C1.21,46.84,3.36,47.28,6.4,49.4Z"></path><path class="cls-1" d="M43.82,15.47V24H42.39V15.47Zm4.26,0-2.85,4.12-1.7,2.09-.27-1.49,1.18-1.74,1.91-3ZM46.51,24l-2.16-4,1-1,2.86,5Zm4.64.12a3.08,3.08,0,0,1-1.09-.18,2.22,2.22,0,0,1-.82-.56,2.46,2.46,0,0,1-.51-.9,4.25,4.25,0,0,1-.17-1.25v-.6a4.74,4.74,0,0,1,.18-1.39,2.73,2.73,0,0,1,.51-1,2.16,2.16,0,0,1,.78-.56,2.59,2.59,0,0,1,1-.18,2.52,2.52,0,0,1,1,.2,1.65,1.65,0,0,1,.72.58,2.38,2.38,0,0,1,.43.95,5.72,5.72,0,0,1,.14,1.31v.68H49.21v-1H52v-.14a2.7,2.7,0,0,0-.11-.75.82.82,0,0,0-.87-.65,1,1,0,0,0-.47.1.86.86,0,0,0-.34.32,2.21,2.21,0,0,0-.2.6,5.75,5.75,0,0,0-.07.92v.6A3.69,3.69,0,0,0,50,22a1.51,1.51,0,0,0,.26.54,1.21,1.21,0,0,0,.41.3,1.7,1.7,0,0,0,.57.09,1.74,1.74,0,0,0,.82-.17,2.08,2.08,0,0,0,.59-.47l.61.84a2.82,2.82,0,0,1-.46.45,2.7,2.7,0,0,1-.7.36A3,3,0,0,1,51.15,24.12Zm4.64-5.24V24H54.42V17.66h1.3Zm1.53-1.26V19l-.25,0H56.8a1.07,1.07,0,0,0-.49.1.94.94,0,0,0-.34.29,1.35,1.35,0,0,0-.22.45,2.5,2.5,0,0,0-.1.6h-.29a6.4,6.4,0,0,1,.09-1.11,4.14,4.14,0,0,1,.28-.9,1.64,1.64,0,0,1,.49-.6,1.09,1.09,0,0,1,.66-.22l.24,0A.64.64,0,0,1,57.32,17.62ZM61,22.71V19.55a1.09,1.09,0,0,0-.1-.52.53.53,0,0,0-.26-.29.91.91,0,0,0-.43-.1.85.85,0,0,0-.46.12.66.66,0,0,0-.27.3,1,1,0,0,0-.09.43H58a1.87,1.87,0,0,1,.15-.73,2.28,2.28,0,0,1,.45-.63,2.41,2.41,0,0,1,.71-.43,2.75,2.75,0,0,1,.93-.16,2.63,2.63,0,0,1,1.08.21,1.53,1.53,0,0,1,.75.65,2.25,2.25,0,0,1,.27,1.17v3a6,6,0,0,0,0,.78,3.69,3.69,0,0,0,.16.6V24H61.18a2.44,2.44,0,0,1-.14-.59A5.48,5.48,0,0,1,61,22.71Zm.18-2.57V21h-.65a1.47,1.47,0,0,0-.53.09,1,1,0,0,0-.4.22.92.92,0,0,0-.24.34,1.14,1.14,0,0,0-.09.46,1.11,1.11,0,0,0,.09.48.53.53,0,0,0,.25.28A.86.86,0,0,0,60,23a1.15,1.15,0,0,0,.57-.14,1,1,0,0,0,.37-.35.54.54,0,0,0,.11-.38l.31.57a1.62,1.62,0,0,1-.18.47,2.3,2.3,0,0,1-.32.47,1.44,1.44,0,0,1-.48.36,1.51,1.51,0,0,1-.65.14,2,2,0,0,1-1-.23,1.6,1.6,0,0,1-.66-.63,2.15,2.15,0,0,1-.23-1,2.13,2.13,0,0,1,.16-.86,1.74,1.74,0,0,1,.47-.67,2.12,2.12,0,0,1,.77-.43,3.73,3.73,0,0,1,1.11-.15Zm4-5.14v9H63.84V15Zm4.4,7.71V19.55a1.25,1.25,0,0,0-.09-.52.55.55,0,0,0-.27-.29.88.88,0,0,0-.43-.1.82.82,0,0,0-.45.12.68.68,0,0,0-.28.3,1,1,0,0,0-.09.43H66.63a1.72,1.72,0,0,1,.16-.73,1.93,1.93,0,0,1,.45-.63A2.17,2.17,0,0,1,68,17.7a2.65,2.65,0,0,1,.92-.16,2.68,2.68,0,0,1,1.09.21,1.55,1.55,0,0,1,.74.65A2.25,2.25,0,0,1,71,19.57v3a4.65,4.65,0,0,0,0,.78,2.89,2.89,0,0,0,.16.6V24H69.8a2,2,0,0,1-.14-.59A5.49,5.49,0,0,1,69.61,22.71Zm.18-2.57V21h-.66a1.51,1.51,0,0,0-.53.09,1,1,0,0,0-.39.22.94.94,0,0,0-.25.34,1.14,1.14,0,0,0-.08.46,1.12,1.12,0,0,0,.08.48.57.57,0,0,0,.25.28.86.86,0,0,0,.41.09,1.15,1.15,0,0,0,.57-.14,1,1,0,0,0,.37-.35.54.54,0,0,0,.11-.38l.31.57a1.62,1.62,0,0,1-.18.47,2,2,0,0,1-.32.47A1.44,1.44,0,0,1,69,24a1.48,1.48,0,0,1-.65.14,2,2,0,0,1-1-.23,1.64,1.64,0,0,1-.65-.63,2,2,0,0,1-.24-1,2.13,2.13,0,0,1,.16-.86,1.85,1.85,0,0,1,.47-.67,2.25,2.25,0,0,1,.78-.43A3.63,3.63,0,0,1,69,20.14ZM73.43,15v.83a2.68,2.68,0,0,1-.12.77,3,3,0,0,1-.34.76,2.8,2.8,0,0,1-.49.63l-.67-.45a5.25,5.25,0,0,0,.33-.77,3.28,3.28,0,0,0,.12-.93V15Zm3.13,7.33a.54.54,0,0,0-.11-.35,1.19,1.19,0,0,0-.37-.31,5.23,5.23,0,0,0-.67-.33q-.43-.18-.78-.36a2.6,2.6,0,0,1-.57-.4,1.49,1.49,0,0,1-.36-.51,1.74,1.74,0,0,1-.12-.67,2,2,0,0,1,.14-.73,1.72,1.72,0,0,1,.43-.58,1.83,1.83,0,0,1,.66-.4,2.37,2.37,0,0,1,.87-.15,2.59,2.59,0,0,1,1.17.25,1.76,1.76,0,0,1,.75.7,1.88,1.88,0,0,1,.27,1H76.5a1,1,0,0,0-.09-.43.71.71,0,0,0-.27-.32,1,1,0,0,0-.89,0A.63.63,0,0,0,75,19a.73.73,0,0,0-.08.36.53.53,0,0,0,0,.26.58.58,0,0,0,.18.22,2.61,2.61,0,0,0,.32.2l.54.24a7.56,7.56,0,0,1,1.06.51,1.87,1.87,0,0,1,.63.62,1.65,1.65,0,0,1,.21.87,1.73,1.73,0,0,1-.16.76,1.69,1.69,0,0,1-.44.59,2.14,2.14,0,0,1-.7.38,3.15,3.15,0,0,1-.9.13,2.45,2.45,0,0,1-1.26-.3,2,2,0,0,1-.78-.76,2.09,2.09,0,0,1-.26-1h1.32a1.05,1.05,0,0,0,.16.58.83.83,0,0,0,.37.3,1.43,1.43,0,0,0,.46.07,1.26,1.26,0,0,0,.47-.07.7.7,0,0,0,.29-.24A.79.79,0,0,0,76.56,22.33Zm-44,11.48V35h-3.7V33.81Zm-3.33-7.34V35H27.8V26.47ZM32.05,30v1.17h-3.2V30Zm.46-3.55v1.19H28.85V26.47Zm3.59,4.31v1.15H33.45V30.78ZM43,30.62V34a4.39,4.39,0,0,1-.48.46,3.13,3.13,0,0,1-.86.47,4,4,0,0,1-1.35.2,3.39,3.39,0,0,1-1.25-.23,2.42,2.42,0,0,1-1-.67,3.19,3.19,0,0,1-.62-1.12,5.5,5.5,0,0,1-.22-1.61V30a5.75,5.75,0,0,1,.2-1.59,3,3,0,0,1,.58-1.13,2.28,2.28,0,0,1,.92-.68,3.5,3.5,0,0,1,1.26-.22,3.19,3.19,0,0,1,1.49.32,2.1,2.1,0,0,1,.92.92A3.67,3.67,0,0,1,43,29.08H41.64a2.41,2.41,0,0,0-.21-.87,1,1,0,0,0-.44-.5,1.45,1.45,0,0,0-.74-.17,1.68,1.68,0,0,0-.7.14,1.26,1.26,0,0,0-.48.44,2.13,2.13,0,0,0-.27.75A5.77,5.77,0,0,0,38.71,30v1.53a4.53,4.53,0,0,0,.11,1.11,2.13,2.13,0,0,0,.32.76,1.37,1.37,0,0,0,.53.43,1.9,1.9,0,0,0,.73.14,2.15,2.15,0,0,0,.63-.08,1.32,1.32,0,0,0,.36-.19l.22-.16V31.74H40.23V30.62Zm1.16,1.47v-.51a4.37,4.37,0,0,1,.18-1.31,2.7,2.7,0,0,1,.51-.95,2.25,2.25,0,0,1,.8-.58,2.53,2.53,0,0,1,1-.2,2.61,2.61,0,0,1,1,.2,2.06,2.06,0,0,1,.79.58,2.73,2.73,0,0,1,.53.95,4.37,4.37,0,0,1,.18,1.31v.51a4.25,4.25,0,0,1-.18,1.3,2.78,2.78,0,0,1-.53,1,2.14,2.14,0,0,1-.79.57,2.65,2.65,0,0,1-2,0,2.26,2.26,0,0,1-.8-.57,2.61,2.61,0,0,1-.52-1A4.25,4.25,0,0,1,44.19,32.09Zm1.36-.51v.51a4.1,4.1,0,0,0,.08.83,2.14,2.14,0,0,0,.24.59,1.09,1.09,0,0,0,.36.35.93.93,0,0,0,.47.11,1,1,0,0,0,.5-.11,1.09,1.09,0,0,0,.36-.35,1.86,1.86,0,0,0,.21-.59,4.15,4.15,0,0,0,.07-.83v-.51a3.93,3.93,0,0,0-.08-.82,1.69,1.69,0,0,0-.23-.59,1.15,1.15,0,0,0-.37-.36.94.94,0,0,0-.47-.12.9.9,0,0,0-.46.12,1,1,0,0,0-.36.36,1.91,1.91,0,0,0-.24.59A3.93,3.93,0,0,0,45.55,31.58Zm6.51,2.28,1.17-5.2h1.42L52.84,35H52Zm-.83-5.2,1.21,5.22L52.5,35h-.87l-1.81-6.34Zm6.68,6.46a3.13,3.13,0,0,1-1.1-.18,2.11,2.11,0,0,1-.81-.56,2.46,2.46,0,0,1-.51-.9,3.92,3.92,0,0,1-.18-1.25v-.6a4.74,4.74,0,0,1,.18-1.39,2.74,2.74,0,0,1,.52-1,2.21,2.21,0,0,1,.77-.56,2.63,2.63,0,0,1,1-.18,2.54,2.54,0,0,1,1,.2,1.77,1.77,0,0,1,.72.58,2.52,2.52,0,0,1,.42.95,5.21,5.21,0,0,1,.14,1.31v.68H56v-1h2.76v-.14a2.72,2.72,0,0,0-.1-.75.86.86,0,0,0-.31-.48.85.85,0,0,0-.56-.17,1,1,0,0,0-.47.1.8.8,0,0,0-.34.32,1.91,1.91,0,0,0-.2.6,4.78,4.78,0,0,0-.07.92v.6a3.69,3.69,0,0,0,.08.81,1.36,1.36,0,0,0,.26.54,1.12,1.12,0,0,0,.41.3A1.62,1.62,0,0,0,58,34a1.73,1.73,0,0,0,.81-.17,2.12,2.12,0,0,0,.6-.47l.6.84a2.39,2.39,0,0,1-.45.45,3.06,3.06,0,0,1-.7.36A3,3,0,0,1,57.91,35.12Zm4.63-5.24V35H61.18V28.66h1.3Zm1.53-1.26V30l-.26,0h-.25a1.07,1.07,0,0,0-.49.1.87.87,0,0,0-.34.29,1.36,1.36,0,0,0-.23.45,2.53,2.53,0,0,0-.09.6h-.29a6.4,6.4,0,0,1,.09-1.11,3.66,3.66,0,0,1,.28-.9,1.72,1.72,0,0,1,.48-.6,1.12,1.12,0,0,1,.67-.22l.24,0A.56.56,0,0,1,64.07,28.62ZM66.36,30v5H65V28.66h1.29Zm-.25,1.59h-.43a4.48,4.48,0,0,1,.14-1.25,3.27,3.27,0,0,1,.44-1,2,2,0,0,1,.68-.62,1.75,1.75,0,0,1,.88-.23,1.93,1.93,0,0,1,.69.13,1.26,1.26,0,0,1,.54.41,1.91,1.91,0,0,1,.34.73,4.35,4.35,0,0,1,.12,1.1V35H68.15V30.9a2.12,2.12,0,0,0-.1-.7.68.68,0,0,0-.29-.38.84.84,0,0,0-.47-.12.8.8,0,0,0-.49.16,1.14,1.14,0,0,0-.37.41,2.35,2.35,0,0,0-.24.6A3.4,3.4,0,0,0,66.11,31.6Zm7.71,2.11V30.55a1.25,1.25,0,0,0-.09-.52.57.57,0,0,0-.26-.29.94.94,0,0,0-.43-.1.85.85,0,0,0-.46.12.66.66,0,0,0-.27.3.88.88,0,0,0-.1.43H70.85a1.87,1.87,0,0,1,.15-.73,1.93,1.93,0,0,1,.45-.63,2.28,2.28,0,0,1,.71-.43,2.83,2.83,0,0,1,2,.05,1.55,1.55,0,0,1,.74.65,2.16,2.16,0,0,1,.28,1.17v3a6,6,0,0,0,0,.78,2.89,2.89,0,0,0,.16.6V35H74a2.44,2.44,0,0,1-.14-.59A5.49,5.49,0,0,1,73.82,33.71ZM74,31.14V32h-.66a1.42,1.42,0,0,0-.52.09,1,1,0,0,0-.4.22.94.94,0,0,0-.25.34,1.34,1.34,0,0,0-.08.46,1.3,1.3,0,0,0,.08.48.57.57,0,0,0,.25.28.88.88,0,0,0,.41.09,1.15,1.15,0,0,0,.57-.14,1.08,1.08,0,0,0,.38-.35.52.52,0,0,0,.1-.38l.31.57a1.91,1.91,0,0,1-.17.47,2.3,2.3,0,0,1-.32.47,1.68,1.68,0,0,1-.48.36,1.53,1.53,0,0,1-.66.14,1.92,1.92,0,0,1-.94-.23,1.6,1.6,0,0,1-.66-.63,2,2,0,0,1-.24-1,2.31,2.31,0,0,1,.16-.86,1.85,1.85,0,0,1,.47-.67,2.25,2.25,0,0,1,.78-.43,3.73,3.73,0,0,1,1.11-.15ZM77.94,30v5H76.57V28.66h1.28Zm-.25,1.59h-.43a4.48,4.48,0,0,1,.14-1.25,3,3,0,0,1,.44-1,1.91,1.91,0,0,1,.68-.62,1.75,1.75,0,0,1,.88-.23,1.93,1.93,0,0,1,.69.13,1.26,1.26,0,0,1,.54.41,2.07,2.07,0,0,1,.34.73,4.35,4.35,0,0,1,.12,1.1V35H79.72V30.9a1.89,1.89,0,0,0-.1-.7.63.63,0,0,0-.28-.38.84.84,0,0,0-.47-.12.8.8,0,0,0-.49.16,1.14,1.14,0,0,0-.37.41,2,2,0,0,0-.24.6A3.4,3.4,0,0,0,77.69,31.6Zm7,2.37a.91.91,0,0,0,.47-.11.78.78,0,0,0,.33-.34,1.53,1.53,0,0,0,.14-.62h1.28a2.31,2.31,0,0,1-.31,1.17,2.14,2.14,0,0,1-.8.78,2.23,2.23,0,0,1-1.09.27,2.84,2.84,0,0,1-1.1-.2,2.15,2.15,0,0,1-.77-.59,2.65,2.65,0,0,1-.45-.94,4.92,4.92,0,0,1-.15-1.27v-.58a4.84,4.84,0,0,1,.15-1.26,2.7,2.7,0,0,1,.45-1,2,2,0,0,1,.77-.58,2.62,2.62,0,0,1,1.09-.21,2.37,2.37,0,0,1,1.16.28,2,2,0,0,1,.76.81,2.88,2.88,0,0,1,.29,1.31H85.65a2,2,0,0,0-.13-.69,1,1,0,0,0-.31-.42.9.9,0,0,0-.51-.14,1,1,0,0,0-.55.13.83.83,0,0,0-.33.36,2.2,2.2,0,0,0-.15.59,6,6,0,0,0,0,.77v.58a6.31,6.31,0,0,0,0,.79,1.65,1.65,0,0,0,.15.58.83.83,0,0,0,.33.36A1.16,1.16,0,0,0,84.71,34Zm5.71,1.15a3.13,3.13,0,0,1-1.1-.18,2.11,2.11,0,0,1-.81-.56,2.21,2.21,0,0,1-.51-.9,3.92,3.92,0,0,1-.18-1.25v-.6A4.74,4.74,0,0,1,88,30.24a2.74,2.74,0,0,1,.52-1,2.12,2.12,0,0,1,.77-.56,2.63,2.63,0,0,1,1-.18,2.57,2.57,0,0,1,1,.2,1.77,1.77,0,0,1,.72.58,2.52,2.52,0,0,1,.42.95,5.72,5.72,0,0,1,.14,1.31v.68H88.48v-1h2.76v-.14a3.17,3.17,0,0,0-.1-.75,1,1,0,0,0-.31-.48.86.86,0,0,0-.57-.17,1,1,0,0,0-.46.1.8.8,0,0,0-.34.32,1.69,1.69,0,0,0-.2.6,4.78,4.78,0,0,0-.07.92v.6a3.17,3.17,0,0,0,.08.81,1.36,1.36,0,0,0,.26.54,1.12,1.12,0,0,0,.41.3,1.6,1.6,0,0,0,.56.09,1.74,1.74,0,0,0,.82-.17,2.12,2.12,0,0,0,.6-.47l.6.84a2.47,2.47,0,0,1-.46.45,2.79,2.79,0,0,1-.69.36A3,3,0,0,1,90.42,35.12ZM48.78,38.64,46.72,46H45.23l2.71-8.53h.92ZM50.43,46l-2.07-7.36-.1-1.17h.94L51.92,46Zm0-3.17V44h-4v-1.2ZM54,44.58l1.24-4.92h.86l-.17,1.51L54.69,46h-.77Zm-.52-4.92,1,4.94V46h-.85l-1.43-6.34Zm3.62,4.88L58,39.66h1.33L57.91,46h-.86Zm-.85-4.88,1.22,4.86L57.55,46h-.76l-1.26-4.83-.16-1.51Zm7,5.05V41.55a1.25,1.25,0,0,0-.09-.52.55.55,0,0,0-.27-.29.87.87,0,0,0-.42-.1.83.83,0,0,0-.46.12.74.74,0,0,0-.28.3,1,1,0,0,0-.09.43H60.23a1.88,1.88,0,0,1,.16-.73,1.93,1.93,0,0,1,.45-.63,2.17,2.17,0,0,1,.71-.43,2.65,2.65,0,0,1,.92-.16,2.68,2.68,0,0,1,1.09.21,1.55,1.55,0,0,1,.74.65,2.25,2.25,0,0,1,.28,1.17v3a4.65,4.65,0,0,0,0,.78,2.89,2.89,0,0,0,.16.6V46H63.4a2.44,2.44,0,0,1-.14-.59A5.49,5.49,0,0,1,63.21,44.71Zm.18-2.57V43h-.66a1.42,1.42,0,0,0-.52.09,1,1,0,0,0-.4.22.94.94,0,0,0-.25.34,1.34,1.34,0,0,0-.08.46,1.3,1.3,0,0,0,.08.48.57.57,0,0,0,.25.28.88.88,0,0,0,.41.09,1.15,1.15,0,0,0,.57-.14,1.08,1.08,0,0,0,.38-.35.52.52,0,0,0,.1-.38l.31.57a1.91,1.91,0,0,1-.17.47,2.36,2.36,0,0,1-.33.47,1.48,1.48,0,0,1-1.13.5,2,2,0,0,1-1-.23,1.64,1.64,0,0,1-.65-.63,2,2,0,0,1-.24-1,2.31,2.31,0,0,1,.16-.86,1.85,1.85,0,0,1,.47-.67,2.25,2.25,0,0,1,.78-.43,3.73,3.73,0,0,1,1.11-.15Zm4-1.26V46H66V39.66h1.3Zm1.53-1.26V41l-.26,0h-.25a1.07,1.07,0,0,0-.49.1,1,1,0,0,0-.35.29,1.57,1.57,0,0,0-.22.45,2.53,2.53,0,0,0-.09.6h-.3a6.36,6.36,0,0,1,.1-1.11,3.28,3.28,0,0,1,.28-.9,1.72,1.72,0,0,1,.48-.6,1.1,1.1,0,0,1,.67-.22l.24,0A.56.56,0,0,1,68.87,39.62Zm4,5.06V37h1.36v9H73Zm-3.4-1.59v-.5a5.38,5.38,0,0,1,.14-1.35,2.68,2.68,0,0,1,.41-1,1.71,1.71,0,0,1,.66-.57,2.05,2.05,0,0,1,.87-.18,1.54,1.54,0,0,1,.82.22,1.78,1.78,0,0,1,.59.6,3.84,3.84,0,0,1,.38.94,6.78,6.78,0,0,1,.2,1.21v.69a7.79,7.79,0,0,1-.21,1.18,3.22,3.22,0,0,1-.38.92,1.92,1.92,0,0,1-.59.61,1.53,1.53,0,0,1-.81.21,1.93,1.93,0,0,1-.88-.2,1.85,1.85,0,0,1-.65-.57,2.7,2.7,0,0,1-.41-.94A5.24,5.24,0,0,1,69.48,43.09Zm1.36-.5v.5a5.17,5.17,0,0,0,.06.84,1.8,1.8,0,0,0,.19.58.83.83,0,0,0,.34.33,1.13,1.13,0,0,0,.51.11,1,1,0,0,0,.61-.19,1.19,1.19,0,0,0,.36-.51,2.55,2.55,0,0,0,.19-.71V42.17A2.62,2.62,0,0,0,73,41.6a1.57,1.57,0,0,0-.22-.47,1,1,0,0,0-.35-.31.89.89,0,0,0-.47-.12,1,1,0,0,0-.51.12.82.82,0,0,0-.34.35,1.88,1.88,0,0,0-.19.58A5.17,5.17,0,0,0,70.84,42.59Z"></path><path class="cls-1" d="M52.56,74.75V76h-5V74.92l2.32-3c.23-.33.41-.61.55-.85a3.74,3.74,0,0,0,.28-.65,2.23,2.23,0,0,0,.08-.56,1.93,1.93,0,0,0-.1-.67,1,1,0,0,0-.29-.45.68.68,0,0,0-.46-.16.82.82,0,0,0-.57.19,1.25,1.25,0,0,0-.34.53,2.68,2.68,0,0,0-.1.78H47.45a3.18,3.18,0,0,1,.3-1.39A2.35,2.35,0,0,1,50,67.35a2.56,2.56,0,0,1,1.29.29,2,2,0,0,1,.79.82,2.81,2.81,0,0,1,.27,1.28,2.71,2.71,0,0,1-.11.8,4.39,4.39,0,0,1-.31.8,5.32,5.32,0,0,1-.49.79c-.18.27-.4.54-.63.82l-1.29,1.8ZM58.48,71v1.44a6.8,6.8,0,0,1-.18,1.68,3.33,3.33,0,0,1-.49,1.14,2.07,2.07,0,0,1-.77.65,2.24,2.24,0,0,1-1,.21,2.58,2.58,0,0,1-.8-.13,2.06,2.06,0,0,1-.68-.41,2.67,2.67,0,0,1-.52-.72,4.3,4.3,0,0,1-.33-1,8.08,8.08,0,0,1-.11-1.39V71a6.72,6.72,0,0,1,.18-1.67,3.38,3.38,0,0,1,.5-1.13,1.87,1.87,0,0,1,.77-.64,2.27,2.27,0,0,1,1-.21,2.37,2.37,0,0,1,.81.13,1.86,1.86,0,0,1,.66.4,2.29,2.29,0,0,1,.52.71,4.16,4.16,0,0,1,.33,1A8,8,0,0,1,58.48,71ZM57,72.65V70.77a7,7,0,0,0,0-.84,3.65,3.65,0,0,0-.12-.61,1.3,1.3,0,0,0-.19-.41.63.63,0,0,0-.26-.23.68.68,0,0,0-.32-.07.63.63,0,0,0-.38.11,1,1,0,0,0-.3.37,2.38,2.38,0,0,0-.18.67,5.92,5.92,0,0,0-.07,1v1.88c0,.33,0,.61,0,.86a3.05,3.05,0,0,0,.13.62,1.36,1.36,0,0,0,.19.42.65.65,0,0,0,.58.31.77.77,0,0,0,.39-.11,1.06,1.06,0,0,0,.29-.38,2.25,2.25,0,0,0,.17-.68A6.22,6.22,0,0,0,57,72.65Zm6.19-5.2V76h-1.5V69.31L60,70V68.69l3-1.24Zm7.36,6.22A2.7,2.7,0,0,1,70.22,75a2.12,2.12,0,0,1-.86.82,2.59,2.59,0,0,1-1.23.28,2.63,2.63,0,0,1-1.24-.28A2.06,2.06,0,0,1,66,75a2.6,2.6,0,0,1-.32-1.35,2.47,2.47,0,0,1,.18-1,2.15,2.15,0,0,1,.5-.75,2.31,2.31,0,0,1,.76-.49,2.78,2.78,0,0,1,1-.17,2.53,2.53,0,0,1,1.24.3,2.21,2.21,0,0,1,.86.83A2.42,2.42,0,0,1,70.53,73.67Zm-1.5-.1a1.86,1.86,0,0,0-.12-.7,1,1,0,0,0-.31-.46.75.75,0,0,0-.48-.16.76.76,0,0,0-.49.16,1.13,1.13,0,0,0-.31.46,2.11,2.11,0,0,0-.1.7,2,2,0,0,0,.1.69,1.08,1.08,0,0,0,.32.45.79.79,0,0,0,.49.15.81.81,0,0,0,.49-.15,1,1,0,0,0,.3-.45A2,2,0,0,0,69,73.57Zm1.36-3.85a2.17,2.17,0,0,1-.3,1.15,2,2,0,0,1-.79.78,2.36,2.36,0,0,1-1.17.28A2.42,2.42,0,0,1,67,71.65a2.09,2.09,0,0,1-.81-.78,2.28,2.28,0,0,1-.28-1.15,2.56,2.56,0,0,1,.29-1.29,1.9,1.9,0,0,1,.8-.81,2.69,2.69,0,0,1,2.35,0,1.9,1.9,0,0,1,.8.81A2.67,2.67,0,0,1,70.39,69.72Zm-1.51.07a2,2,0,0,0-.09-.62.89.89,0,0,0-.25-.41.67.67,0,0,0-.83,0,.94.94,0,0,0-.26.41,2.25,2.25,0,0,0,0,1.26.89.89,0,0,0,.26.42.58.58,0,0,0,.42.16.56.56,0,0,0,.41-.16.88.88,0,0,0,.25-.42A2,2,0,0,0,68.88,69.79Z"></path></svg>