<svg xmlns="http://www.w3.org/2000/svg" id="Layer_1" data-name="Layer 1" viewBox="0 0 115.77 76.12"><defs><style>.cls-1{fill:#fff;}</style></defs><path class="cls-1" d="M109.37,49.4c-2.58,1.81-3,3.77-3.07,4.31-.41.25-.79.46-1.14.65.55-.91,1.07-1.84,1.55-2.79a41.52,41.52,0,0,0,2.05-5c.06-.19.13-.38.19-.56a13.62,13.62,0,0,1,2-3.92l.17-.24c7.24-4,3.92-12,3.92-12,.11,1.79-1.61,3.15-3.39,6.4-1.5,2.77-1,4.71-.82,5.23-.36.57-.71,1.07-1,1.49q.18-.78.33-1.56a38.45,38.45,0,0,0,.62-5.35l0-.67c0-.22,0-.44,0-.67V33.34c0-.45,0-.9,0-1.34,0-.23,0-.45,0-.67l-.06-.67a5,5,0,0,1,.07-1.33l.52-2.55c5.28-6.35-.78-12.65-.78-12.65.76,1.62-.34,3.52-.8,7.2-.38,3.13.8,4.75,1.16,5.16-.15.75-.3,1.39-.43,1.92l-.06-.42c0-.44-.15-.88-.23-1.32L110,26c0-.22-.08-.43-.14-.65-.21-.87-.41-1.74-.69-2.59l-.19-.63-.1-.32-.11-.32-.45-1.25c-.29-.73-.58-1.46-.9-2.18a11.44,11.44,0,0,1-1-4.07c0-.33,0-.65-.08-1,2.84-7.75-5-11.65-5-11.65,1.26,1.27.85,3.43,1.67,7,.69,3.08,2.35,4.21,2.83,4.48.15,1.05.23,1.93.27,2.55l0-.07-.32-.59c-.11-.2-.23-.38-.34-.58l-.69-1.14L104,12l-.38-.55-.39-.54c-.41-.57-.84-1.11-1.3-1.66-.62-.79-1.48-1.94-2.22-2.76a5.66,5.66,0,0,1-.88-1.29C95.53-1.68,87.58.25,87.58.25c1.78.11,2.92,2,5.93,4.15a6.65,6.65,0,0,0,4.95,1.49l.26.08.91,1A36.48,36.48,0,0,1,103,11.05l.39.54.35.55.71,1.12.3.53A21.38,21.38,0,0,0,102.32,12C98,5,90.11,8.65,90.11,8.65c1.78-.19,3.21,1.47,6.54,3.09,2.84,1.38,4.75.79,5.26.59C103,13,104,13.64,104.54,14a2.68,2.68,0,0,1,.82,1h0l.3.59a36.93,36.93,0,0,1,2.08,4.84l.41,1.25.1.31.1.32.17.63c.25.85.42,1.71.61,2.56.05.22.09.43.13.65h0a24.34,24.34,0,0,0-1.67-2.25c-2-8-10.7-6.8-10.7-6.8,1.76.34,2.65,2.35,5.36,4.87,2.31,2.15,4.32,2.15,4.86,2.1.62.67,1.13,1.28,1.51,1.75a4.17,4.17,0,0,1,.93,2.26h0l.16,1.31,0,.32,0,.33,0,.65,0,.66c0,.21,0,.43,0,.65,0,.44,0,.87,0,1.31l0,1.32c0,.21,0,.43,0,.65l0,.65c-.07,1-.17,1.89-.31,2.82a20.08,20.08,0,0,0-.65-2.23c1-8.2-7.56-10.18-7.56-10.18,1.52.95,1.63,3.14,3.27,6.46,1.39,2.84,3.26,3.55,3.79,3.7.2.52.38,1,.52,1.4a5.78,5.78,0,0,1,.2,3.19v0a39.44,39.44,0,0,1-1.44,5,43.19,43.19,0,0,1-2.11,4.77c-.24.45-.49.89-.75,1.33a23.23,23.23,0,0,0,.27-2.67c3.89-7.28-3.31-12.22-3.31-12.22,1.07,1.43.37,3.51.67,7.21.25,3.14,1.73,4.49,2.17,4.82v.35a9.72,9.72,0,0,1-1.78,5.59s0,0,0,0a37.38,37.38,0,0,1-3.32,4c-.3.3-.59.63-.91.93l-.93.89s0,0,0,0c.28-.5.54-1,.78-1.5C104.74,54.45,100,47.1,100,47.1c.44,1.74-1,3.38-2.18,6.91-1,3-.14,4.81.13,5.28-.18.46-.37.87-.54,1.24a6.26,6.26,0,0,1-1.81,2.33h0a38.06,38.06,0,0,1-4.26,3c-.87.51-1.75,1-2.65,1.43.37-.39.72-.77,1-1.16,6.14-2.84,3.89-9.63,3.89-9.63,0,1.46-1.5,2.48-3.13,5a5.34,5.34,0,0,0-1,4.23c-.2.26-.39.51-.57.73a5.65,5.65,0,0,1-2.21,1.69,0,0,0,0,1,0,0,42,42,0,0,1-4.88,1.69h0A1.09,1.09,0,1,0,82.44,72,40.22,40.22,0,0,0,87.55,70a41.82,41.82,0,0,0,4.79-2.6c.92-.57,1.82-1.2,2.69-1.86A7.81,7.81,0,0,1,99.09,64c7.71,3,11.72-4.81,11.72-4.81-1.29,1.24-3.44.81-7.07,1.56-3.09.64-4.24,2.29-4.52,2.76-.74.1-1.39.16-1.94.19.5-.43,1-.88,1.45-1.32l1-1c.32-.32.61-.67.92-1A39.22,39.22,0,0,0,104,56.19l.06-.09A5.15,5.15,0,0,1,106,54.37l.38-.2c8.25-.31,8.9-9,8.9-9C114.56,46.84,112.41,47.28,109.37,49.4Z"></path><path class="cls-1" d="M6.4,49.4c2.58,1.81,3,3.77,3.07,4.31.41.25.79.46,1.14.65-.55-.91-1.07-1.84-1.55-2.79a41.52,41.52,0,0,1-2.05-5c-.07-.19-.13-.38-.19-.56a13.62,13.62,0,0,0-2-3.92l-.17-.24c-7.24-4-3.92-12-3.92-12C.65,31.6,2.37,33,4.14,36.21c1.51,2.77,1,4.71.82,5.23.37.57.72,1.07,1,1.49q-.18-.78-.33-1.56A37,37,0,0,1,5,36l0-.67c0-.22,0-.44,0-.67V33.34c0-.45,0-.9,0-1.34,0-.23,0-.45,0-.67l.06-.67a5,5,0,0,0-.07-1.33l-.52-2.55c-5.28-6.35.78-12.65.78-12.65-.76,1.62.34,3.52.79,7.2.39,3.13-.79,4.75-1.16,5.16.16.75.31,1.39.44,1.92L5.46,28c0-.44.15-.88.23-1.32L5.82,26c0-.22.08-.43.14-.65.21-.87.41-1.74.69-2.59l.19-.63.1-.32.11-.32.45-1.25c.29-.73.58-1.46.9-2.18a11.66,11.66,0,0,0,1-4.07c0-.33,0-.65.08-1-2.84-7.75,5-11.65,5-11.65-1.26,1.27-.86,3.43-1.67,7-.69,3.08-2.35,4.21-2.83,4.48-.15,1.05-.23,1.93-.27,2.55l0-.07.32-.59c.1-.2.23-.38.34-.58l.69-1.14.74-1.1.38-.55.39-.54c.41-.57.84-1.11,1.3-1.66.62-.79,1.48-1.94,2.22-2.76A5.66,5.66,0,0,0,17,5.18C20.24-1.68,28.19.25,28.19.25c-1.78.11-2.92,2-5.93,4.15a6.65,6.65,0,0,1-5,1.49L17.05,6l-.91,1a36.48,36.48,0,0,0-3.32,4.12l-.39.54c-.12.18-.23.37-.36.55l-.71,1.12-.3.53A22.35,22.35,0,0,1,13.44,12C17.73,5,25.66,8.65,25.66,8.65c-1.78-.19-3.22,1.47-6.55,3.09-2.83,1.38-4.75.79-5.26.59-1.13.66-2.08,1.31-2.63,1.7a2.68,2.68,0,0,0-.82,1h0l-.3.59A36.93,36.93,0,0,0,8,20.42l-.41,1.25-.1.31-.09.32-.18.63c-.25.85-.42,1.71-.61,2.56,0,.22-.09.43-.12.65h0A22.61,22.61,0,0,1,8.17,23.9c2-8,10.7-6.8,10.7-6.8-1.76.34-2.65,2.35-5.36,4.87-2.31,2.15-4.31,2.15-4.86,2.1-.61.67-1.13,1.28-1.5,1.75a4.18,4.18,0,0,0-.94,2.26h0L6.06,29.4l0,.32,0,.33,0,.65,0,.66c0,.21,0,.43,0,.65,0,.44,0,.87,0,1.31l0,1.32c0,.21,0,.43,0,.65l0,.65c.07,1,.18,1.89.31,2.82A22.49,22.49,0,0,1,7,36.53c-1-8.2,7.56-10.18,7.56-10.18-1.52.95-1.63,3.14-3.26,6.46-1.39,2.84-3.27,3.55-3.8,3.7-.2.52-.37,1-.52,1.4a5.78,5.78,0,0,0-.2,3.19s0,0,0,0a37.83,37.83,0,0,0,1.43,5,41.45,41.45,0,0,0,2.12,4.77c.23.45.48.89.74,1.33a21.13,21.13,0,0,1-.26-2.67c-3.9-7.28,3.3-12.22,3.3-12.22-1.07,1.43-.36,3.51-.66,7.21-.25,3.14-1.74,4.49-2.18,4.82v.35A9.87,9.87,0,0,0,13,55.32l0,0a37.38,37.38,0,0,0,3.32,4c.3.3.59.63.91.93l.93.89,0,0c-.28-.5-.54-1-.78-1.5C11,54.45,15.75,47.1,15.75,47.1c-.43,1.74,1,3.38,2.19,6.91,1,3,.14,4.81-.14,5.28.19.46.38.87.55,1.24a6.16,6.16,0,0,0,1.81,2.33h0a38.06,38.06,0,0,0,4.26,3c.86.51,1.75,1,2.65,1.43-.37-.39-.72-.77-1-1.16-6.14-2.84-3.89-9.63-3.89-9.63,0,1.46,1.5,2.48,3.13,5a5.38,5.38,0,0,1,1,4.23c.2.26.39.51.57.73A5.65,5.65,0,0,0,29,68.16a0,0,0,0,0,0,0,42,42,0,0,0,4.88,1.69h0A1.09,1.09,0,1,1,33.33,72,40.22,40.22,0,0,1,28.22,70a41.82,41.82,0,0,1-4.79-2.6c-.92-.57-1.82-1.2-2.69-1.86A7.81,7.81,0,0,0,16.68,64C9,67,5,59.22,5,59.22,6.25,60.46,8.4,60,12,60.78c3.09.64,4.24,2.29,4.52,2.76.74.1,1.39.16,1.94.19-.5-.43-1-.88-1.45-1.32l-.95-1c-.33-.32-.61-.67-.93-1a40.4,40.4,0,0,1-3.34-4.26l-.06-.09a5.15,5.15,0,0,0-1.95-1.73l-.38-.2c-8.25-.31-8.9-9-8.9-9C1.21,46.84,3.36,47.28,6.4,49.4Z"></path><path class="cls-1" d="M45.14,14.47V23H43.75l-3-5.91V23H39.36V14.47h1.37l3,6v-6Zm4.44,7.24V18.55a1.25,1.25,0,0,0-.09-.52.57.57,0,0,0-.26-.29.94.94,0,0,0-.43-.09.85.85,0,0,0-.46.11.74.74,0,0,0-.28.3,1,1,0,0,0-.09.43H46.61a1.87,1.87,0,0,1,.15-.73,1.79,1.79,0,0,1,.45-.62,2,2,0,0,1,.71-.44,2.83,2.83,0,0,1,2,.05,1.55,1.55,0,0,1,.74.65A2.16,2.16,0,0,1,51,18.57v3a6,6,0,0,0,0,.78,2.89,2.89,0,0,0,.16.6V23H49.77a2.44,2.44,0,0,1-.14-.59A5.49,5.49,0,0,1,49.58,21.71Zm.18-2.57V20h-.66a1.42,1.42,0,0,0-.52.09,1,1,0,0,0-.4.22.94.94,0,0,0-.25.34,1.34,1.34,0,0,0-.08.46,1.3,1.3,0,0,0,.08.48.57.57,0,0,0,.25.28.88.88,0,0,0,.41.09,1.15,1.15,0,0,0,.57-.14,1.08,1.08,0,0,0,.38-.35.52.52,0,0,0,.1-.38l.31.57a1.91,1.91,0,0,1-.17.47,2.3,2.3,0,0,1-.32.47A1.6,1.6,0,0,1,49,23a1.45,1.45,0,0,1-.65.14,2,2,0,0,1-.94-.22,1.69,1.69,0,0,1-.66-.64,2,2,0,0,1-.24-1,2.35,2.35,0,0,1,.16-.86,1.74,1.74,0,0,1,.47-.66,2.12,2.12,0,0,1,.78-.44A3.73,3.73,0,0,1,49,19.14Zm5.15-2.48v1.06H51.8V16.66Zm-2.26-1.55H54v6.12a1.32,1.32,0,0,0,.06.45.33.33,0,0,0,.18.2.61.61,0,0,0,.28.05h.23l.17,0V23l-.36.1a3.08,3.08,0,0,1-.48,0,1.53,1.53,0,0,1-.74-.18,1.21,1.21,0,0,1-.52-.57,2.54,2.54,0,0,1-.18-1.05Zm4.77,1.55V23H56.05V16.66ZM56,15a.77.77,0,0,1,.2-.54.8.8,0,0,1,1.11,0,.76.76,0,0,1,.2.55.76.76,0,0,1-.2.54.71.71,0,0,1-.55.21.73.73,0,0,1-.56-.21A.8.8,0,0,1,56,15Zm2.7,5.09v-.51a4.37,4.37,0,0,1,.18-1.31,2.7,2.7,0,0,1,.51-.95,2.25,2.25,0,0,1,.8-.58,2.56,2.56,0,0,1,1-.2,2.61,2.61,0,0,1,1,.2,2.06,2.06,0,0,1,.79.58,2.58,2.58,0,0,1,.53.95,4.37,4.37,0,0,1,.18,1.31v.51a4.37,4.37,0,0,1-.18,1.31,2.66,2.66,0,0,1-.53,1,2,2,0,0,1-.79.57,2.65,2.65,0,0,1-2,0,2.14,2.14,0,0,1-.8-.57,2.64,2.64,0,0,1-.52-1A4.37,4.37,0,0,1,58.68,20.09ZM60,19.58v.51a4.1,4.1,0,0,0,.08.83,2.14,2.14,0,0,0,.24.59,1.09,1.09,0,0,0,.36.35.94.94,0,0,0,.47.12,1,1,0,0,0,.5-.12,1.09,1.09,0,0,0,.36-.35,1.86,1.86,0,0,0,.21-.59,4.15,4.15,0,0,0,.07-.83v-.51a3.35,3.35,0,0,0-.08-.82,1.69,1.69,0,0,0-.23-.59,1.15,1.15,0,0,0-.37-.36.94.94,0,0,0-.47-.12.9.9,0,0,0-.46.12,1,1,0,0,0-.36.36,1.91,1.91,0,0,0-.24.59A3.93,3.93,0,0,0,60,19.58ZM66.22,18v5H64.86V16.66h1.28ZM66,19.6h-.44a4.92,4.92,0,0,1,.15-1.25,3.25,3.25,0,0,1,.43-1,2,2,0,0,1,.68-.62,1.79,1.79,0,0,1,.89-.23,1.83,1.83,0,0,1,.68.13,1.26,1.26,0,0,1,.54.41,1.91,1.91,0,0,1,.34.73,4.31,4.31,0,0,1,.13,1.1V23H68V18.9a1.89,1.89,0,0,0-.1-.7.71.71,0,0,0-.28-.38.88.88,0,0,0-.48-.12.79.79,0,0,0-.48.16,1.16,1.16,0,0,0-.38.41,2,2,0,0,0-.23.6A2.87,2.87,0,0,0,66,19.6Zm7.71,2.11V18.55a1.09,1.09,0,0,0-.1-.52.5.5,0,0,0-.26-.29.91.91,0,0,0-.43-.09.79.79,0,0,0-.45.11.63.63,0,0,0-.28.3,1,1,0,0,0-.09.43H70.71a1.87,1.87,0,0,1,.15-.73,2.1,2.1,0,0,1,.45-.62A2.24,2.24,0,0,1,72,16.7a2.75,2.75,0,0,1,.93-.16,2.6,2.6,0,0,1,1.08.21,1.53,1.53,0,0,1,.75.65,2.25,2.25,0,0,1,.27,1.17v3a4.58,4.58,0,0,0,.06.78,3.75,3.75,0,0,0,.15.6V23H73.88a2.4,2.4,0,0,1-.15-.59A5.48,5.48,0,0,1,73.69,21.71Zm.18-2.57V20h-.66a1.47,1.47,0,0,0-.53.09,1.11,1.11,0,0,0-.4.22,1,1,0,0,0-.24.34,1.14,1.14,0,0,0-.08.46,1.12,1.12,0,0,0,.08.48.57.57,0,0,0,.25.28.86.86,0,0,0,.41.09,1.15,1.15,0,0,0,.57-.14,1,1,0,0,0,.37-.35.54.54,0,0,0,.11-.38l.31.57a1.62,1.62,0,0,1-.18.47,2.3,2.3,0,0,1-.32.47,1.44,1.44,0,0,1-.48.36,1.48,1.48,0,0,1-.65.14,2.08,2.08,0,0,1-1-.22,1.69,1.69,0,0,1-.66-.64,2.12,2.12,0,0,1-.23-1,2.16,2.16,0,0,1,.16-.86,1.63,1.63,0,0,1,.47-.66,2,2,0,0,1,.78-.44,3.61,3.61,0,0,1,1.1-.15Zm4-5.14v9H76.54V14ZM38.73,26.64,36.67,34H35.18l2.71-8.53h.92ZM40.38,34l-2.07-7.36-.1-1.17h.94L41.87,34Zm0-3.17V32h-4v-1.2Zm3.53,1.75,1.24-4.92H46l-.17,1.51L44.64,34h-.76Zm-.52-4.92.95,4.94V34h-.85l-1.43-6.34Zm3.63,4.88.9-4.88h1.33L47.86,34H47Zm-.86-4.88,1.22,4.86L47.5,34h-.76l-1.26-4.83-.16-1.51Zm7,5.05V29.55a1.25,1.25,0,0,0-.09-.52.57.57,0,0,0-.26-.29.94.94,0,0,0-.43-.09.85.85,0,0,0-.46.11.66.66,0,0,0-.27.3.88.88,0,0,0-.1.43H50.19a1.87,1.87,0,0,1,.15-.73,1.79,1.79,0,0,1,.45-.62,2,2,0,0,1,.71-.44,2.83,2.83,0,0,1,2,.05,1.55,1.55,0,0,1,.74.65,2.16,2.16,0,0,1,.28,1.17v3a6,6,0,0,0,0,.78,2.89,2.89,0,0,0,.16.6V34H53.35a2.44,2.44,0,0,1-.14-.59A5.49,5.49,0,0,1,53.16,32.71Zm.18-2.57V31h-.66a1.42,1.42,0,0,0-.52.09,1,1,0,0,0-.4.22.94.94,0,0,0-.25.34,1.34,1.34,0,0,0-.08.46,1.3,1.3,0,0,0,.08.48.57.57,0,0,0,.25.28.88.88,0,0,0,.41.09,1.15,1.15,0,0,0,.57-.14,1.08,1.08,0,0,0,.38-.35.52.52,0,0,0,.1-.38l.31.57a1.91,1.91,0,0,1-.17.47,2.3,2.3,0,0,1-.32.47,1.6,1.6,0,0,1-.49.36,1.45,1.45,0,0,1-.65.14A2,2,0,0,1,51,33.9a1.69,1.69,0,0,1-.66-.64,2,2,0,0,1-.24-1,2.35,2.35,0,0,1,.16-.86,1.74,1.74,0,0,1,.47-.66,2.12,2.12,0,0,1,.78-.44,3.73,3.73,0,0,1,1.11-.15Zm3.95-1.25V34H55.93V27.66h1.3Zm1.53-1.27V29l-.26,0h-.25a1.07,1.07,0,0,0-.49.1.87.87,0,0,0-.34.29,1.36,1.36,0,0,0-.23.45,2.53,2.53,0,0,0-.09.6h-.29A6.4,6.4,0,0,1,57,29.26a3.66,3.66,0,0,1,.28-.9,1.72,1.72,0,0,1,.48-.6,1.12,1.12,0,0,1,.67-.22l.24,0A.56.56,0,0,1,58.82,27.62Zm4,5.06V25H64.2v9H63Zm-3.4-1.59v-.5a5.38,5.38,0,0,1,.14-1.35,2.68,2.68,0,0,1,.41-.95,1.6,1.6,0,0,1,.66-.56,1.92,1.92,0,0,1,.87-.19,1.54,1.54,0,0,1,.82.22,1.78,1.78,0,0,1,.59.6,3.49,3.49,0,0,1,.38.94,6.78,6.78,0,0,1,.2,1.21v.69a6.72,6.72,0,0,1-.21,1.18,3.11,3.11,0,0,1-.38.92,1.82,1.82,0,0,1-.59.61,1.53,1.53,0,0,1-.81.21,1.93,1.93,0,0,1-.88-.2,1.76,1.76,0,0,1-.65-.57,2.7,2.7,0,0,1-.41-.94A5.24,5.24,0,0,1,59.43,31.09Zm1.36-.5v.5a5.17,5.17,0,0,0,.06.84,1.8,1.8,0,0,0,.19.58.83.83,0,0,0,.34.33,1.13,1.13,0,0,0,.51.11,1,1,0,0,0,.61-.19,1.23,1.23,0,0,0,.37-.51,2.55,2.55,0,0,0,.18-.71V30.17a3.38,3.38,0,0,0-.11-.57,1.87,1.87,0,0,0-.23-.47,1.15,1.15,0,0,0-.35-.31.89.89,0,0,0-.47-.12,1,1,0,0,0-.51.12.88.88,0,0,0-.34.35,1.88,1.88,0,0,0-.19.58A5.17,5.17,0,0,0,60.79,30.59Zm7.74,1.74a.55.55,0,0,0-.12-.35,1,1,0,0,0-.36-.31,6,6,0,0,0-.67-.33A7.31,7.31,0,0,1,66.6,31a3,3,0,0,1-.58-.4,1.6,1.6,0,0,1-.35-.51,1.57,1.57,0,0,1-.13-.67,1.8,1.8,0,0,1,.15-.73,1.83,1.83,0,0,1,.42-.58,2,2,0,0,1,.66-.4,2.42,2.42,0,0,1,.88-.15,2.52,2.52,0,0,1,1.17.26,1.68,1.68,0,0,1,.75.69,2,2,0,0,1,.26,1H68.47a1,1,0,0,0-.09-.43.71.71,0,0,0-.27-.32.83.83,0,0,0-.46-.12.87.87,0,0,0-.44.1A.6.6,0,0,0,67,29a.74.74,0,0,0-.09.36.53.53,0,0,0,.06.26.65.65,0,0,0,.17.22,2.18,2.18,0,0,0,.33.2l.53.24a7.05,7.05,0,0,1,1.06.51,1.82,1.82,0,0,1,.64.62,1.65,1.65,0,0,1,.21.87,1.84,1.84,0,0,1-.16.76,1.61,1.61,0,0,1-.45.59,2.09,2.09,0,0,1-.69.38,3.17,3.17,0,0,1-.91.13,2.5,2.5,0,0,1-1.26-.3,2,2,0,0,1-.77-.76,2.09,2.09,0,0,1-.26-1h1.32a1.15,1.15,0,0,0,.15.58.83.83,0,0,0,.37.3,1.49,1.49,0,0,0,.47.07,1.26,1.26,0,0,0,.47-.07.61.61,0,0,0,.28-.24A.67.67,0,0,0,68.53,32.33Zm5.09-1.24v-.51a4.06,4.06,0,0,1,.19-1.31,2.7,2.7,0,0,1,.51-.95,2.17,2.17,0,0,1,.8-.58,2.53,2.53,0,0,1,1-.2,2.61,2.61,0,0,1,1,.2,2.13,2.13,0,0,1,.79.58,2.56,2.56,0,0,1,.52.95,4.35,4.35,0,0,1,.19,1.31v.51a4.35,4.35,0,0,1-.19,1.31,2.64,2.64,0,0,1-.52,1,2,2,0,0,1-.79.57,2.53,2.53,0,0,1-1,.2,2.61,2.61,0,0,1-1-.2,2.11,2.11,0,0,1-.79-.57,2.64,2.64,0,0,1-.52-1A4.06,4.06,0,0,1,73.62,31.09ZM75,30.58v.51a4.1,4.1,0,0,0,.08.83,1.87,1.87,0,0,0,.24.59,1.09,1.09,0,0,0,.36.35.94.94,0,0,0,.47.12,1,1,0,0,0,.5-.12,1,1,0,0,0,.35-.35,1.86,1.86,0,0,0,.22-.59,4.15,4.15,0,0,0,.07-.83v-.51a3.93,3.93,0,0,0-.08-.82,1.91,1.91,0,0,0-.24-.59,1,1,0,0,0-.37-.36.9.9,0,0,0-.46-.12.94.94,0,0,0-.47.12,1.1,1.1,0,0,0-.35.36,1.69,1.69,0,0,0-.24.59A3.93,3.93,0,0,0,75,30.58ZM81.17,29v5H79.81V27.66h1.28Zm-.25,1.59h-.43a4.92,4.92,0,0,1,.15-1.25,3,3,0,0,1,.43-1,2,2,0,0,1,.68-.62,1.79,1.79,0,0,1,.89-.23,1.87,1.87,0,0,1,.68.13,1.26,1.26,0,0,1,.54.41,1.91,1.91,0,0,1,.34.73,4.35,4.35,0,0,1,.12,1.1V34H83V29.9a2.12,2.12,0,0,0-.1-.7.71.71,0,0,0-.28-.38.9.9,0,0,0-.48-.12.77.77,0,0,0-.48.16,1.16,1.16,0,0,0-.38.41,2,2,0,0,0-.23.6A2.86,2.86,0,0,0,80.92,30.6ZM32.55,43.81V45h-3.7V43.81Zm-3.33-7.34V45H27.8V36.47ZM32.05,40v1.17h-3.2V40Zm.46-3.55v1.19H28.85V36.47Zm3.59,4.31v1.15H33.45V40.78ZM43,40.62V44a4.39,4.39,0,0,1-.48.46,3.13,3.13,0,0,1-.86.47,4,4,0,0,1-1.35.2,3.61,3.61,0,0,1-1.25-.22,2.55,2.55,0,0,1-1-.68,3.1,3.1,0,0,1-.62-1.12,5.5,5.5,0,0,1-.22-1.61V40a5.75,5.75,0,0,1,.2-1.59,3,3,0,0,1,.58-1.13,2.28,2.28,0,0,1,.92-.68,3.5,3.5,0,0,1,1.26-.22,3.19,3.19,0,0,1,1.49.32,2.1,2.1,0,0,1,.92.92A3.67,3.67,0,0,1,43,39.08H41.64a2.41,2.41,0,0,0-.21-.87,1,1,0,0,0-.44-.5,1.45,1.45,0,0,0-.74-.17,1.68,1.68,0,0,0-.7.14,1.26,1.26,0,0,0-.48.44,2.13,2.13,0,0,0-.27.75A5.77,5.77,0,0,0,38.71,40v1.53a4.53,4.53,0,0,0,.11,1.11,2.13,2.13,0,0,0,.32.76,1.28,1.28,0,0,0,.53.43,1.9,1.9,0,0,0,.73.14,2.15,2.15,0,0,0,.63-.08,1.32,1.32,0,0,0,.36-.19l.22-.16V41.74H40.23V40.62Zm1.16,1.47v-.51a4.37,4.37,0,0,1,.18-1.31,2.7,2.7,0,0,1,.51-1,2.25,2.25,0,0,1,.8-.58,2.53,2.53,0,0,1,1-.2,2.61,2.61,0,0,1,1,.2,2.06,2.06,0,0,1,.79.58,2.73,2.73,0,0,1,.53,1,4.37,4.37,0,0,1,.18,1.31v.51A4.37,4.37,0,0,1,49,43.4a2.82,2.82,0,0,1-.53,1,2,2,0,0,1-.79.57,2.65,2.65,0,0,1-2,0,2.14,2.14,0,0,1-.8-.57,2.64,2.64,0,0,1-.52-1A4.37,4.37,0,0,1,44.19,42.09Zm1.36-.51v.51a4.1,4.1,0,0,0,.08.83,2.14,2.14,0,0,0,.24.59,1.09,1.09,0,0,0,.36.35.94.94,0,0,0,.47.12,1,1,0,0,0,.5-.12,1.09,1.09,0,0,0,.36-.35,1.86,1.86,0,0,0,.21-.59,4.15,4.15,0,0,0,.07-.83v-.51a3.93,3.93,0,0,0-.08-.82,1.69,1.69,0,0,0-.23-.59,1.15,1.15,0,0,0-.37-.36.94.94,0,0,0-.47-.12.9.9,0,0,0-.46.12,1,1,0,0,0-.36.36,1.91,1.91,0,0,0-.24.59A3.93,3.93,0,0,0,45.55,41.58Zm6.51,2.28,1.17-5.2h1.42L52.84,45H52Zm-.83-5.2,1.21,5.22L52.5,45h-.87l-1.81-6.34Zm6.68,6.46a3.13,3.13,0,0,1-1.1-.18,2.2,2.2,0,0,1-.81-.55,2.6,2.6,0,0,1-.51-.91,3.92,3.92,0,0,1-.18-1.25v-.6a4.74,4.74,0,0,1,.18-1.39,2.74,2.74,0,0,1,.52-1,2.06,2.06,0,0,1,.77-.55,2.45,2.45,0,0,1,1-.19,2.54,2.54,0,0,1,1,.2,1.77,1.77,0,0,1,.72.58,2.52,2.52,0,0,1,.42,1,5.21,5.21,0,0,1,.14,1.31v.68H56v-1h2.76v-.14a2.72,2.72,0,0,0-.1-.75.86.86,0,0,0-.31-.48.85.85,0,0,0-.56-.17,1.12,1.12,0,0,0-.47.1.87.87,0,0,0-.34.32,1.91,1.91,0,0,0-.2.6,4.78,4.78,0,0,0-.07.92v.6a3.69,3.69,0,0,0,.08.81,1.36,1.36,0,0,0,.26.54,1.12,1.12,0,0,0,.41.3A1.61,1.61,0,0,0,58,44a1.73,1.73,0,0,0,.81-.18,2.12,2.12,0,0,0,.6-.47l.6.84a2.39,2.39,0,0,1-.45.45,3.06,3.06,0,0,1-.7.36A3,3,0,0,1,57.91,45.12Zm4.63-5.23V45H61.18V38.66h1.3Zm1.53-1.27V40l-.26,0h-.25a1.07,1.07,0,0,0-.49.1.87.87,0,0,0-.34.29,1.36,1.36,0,0,0-.23.45,2.53,2.53,0,0,0-.09.6h-.29a6.4,6.4,0,0,1,.09-1.11,3.66,3.66,0,0,1,.28-.9,1.72,1.72,0,0,1,.48-.6,1.12,1.12,0,0,1,.67-.22l.24,0A.56.56,0,0,1,64.07,38.62ZM66.36,40v5H65V38.66h1.29Zm-.25,1.59h-.43a4.52,4.52,0,0,1,.14-1.25,3.27,3.27,0,0,1,.44-1,2,2,0,0,1,.68-.62,1.75,1.75,0,0,1,.88-.23,1.93,1.93,0,0,1,.69.13,1.26,1.26,0,0,1,.54.41,1.91,1.91,0,0,1,.34.73,4.35,4.35,0,0,1,.12,1.1V45H68.15V40.9a2.12,2.12,0,0,0-.1-.7.72.72,0,0,0-.29-.38.84.84,0,0,0-.47-.12.8.8,0,0,0-.49.16,1.14,1.14,0,0,0-.37.41,2.35,2.35,0,0,0-.24.6A3.4,3.4,0,0,0,66.11,41.6Zm7.71,2.11V40.55a1.25,1.25,0,0,0-.09-.52.57.57,0,0,0-.26-.29.94.94,0,0,0-.43-.09.85.85,0,0,0-.46.11.66.66,0,0,0-.27.3.88.88,0,0,0-.1.43H70.85a1.87,1.87,0,0,1,.15-.73,1.79,1.79,0,0,1,.45-.62,2.13,2.13,0,0,1,.71-.44,2.83,2.83,0,0,1,2,0,1.55,1.55,0,0,1,.74.65,2.16,2.16,0,0,1,.28,1.17v3a6,6,0,0,0,0,.78,2.89,2.89,0,0,0,.16.6V45H74a2.44,2.44,0,0,1-.14-.59A5.49,5.49,0,0,1,73.82,43.71ZM74,41.14V42h-.66a1.42,1.42,0,0,0-.52.09,1,1,0,0,0-.4.22.94.94,0,0,0-.25.34,1.34,1.34,0,0,0-.08.46,1.3,1.3,0,0,0,.08.48.57.57,0,0,0,.25.28.88.88,0,0,0,.41.09,1.15,1.15,0,0,0,.57-.14,1.08,1.08,0,0,0,.38-.35.52.52,0,0,0,.1-.38l.31.57a1.91,1.91,0,0,1-.17.47,2.3,2.3,0,0,1-.32.47,1.68,1.68,0,0,1-.48.36,1.53,1.53,0,0,1-.66.14,2,2,0,0,1-.94-.22,1.69,1.69,0,0,1-.66-.64,2,2,0,0,1-.24-1,2.35,2.35,0,0,1,.16-.86,1.74,1.74,0,0,1,.47-.66,2.12,2.12,0,0,1,.78-.44,3.73,3.73,0,0,1,1.11-.15ZM77.94,40v5H76.57V38.66h1.28Zm-.25,1.59h-.43a4.52,4.52,0,0,1,.14-1.25,3,3,0,0,1,.44-1,1.91,1.91,0,0,1,.68-.62,1.75,1.75,0,0,1,.88-.23,1.93,1.93,0,0,1,.69.13,1.26,1.26,0,0,1,.54.41,2.07,2.07,0,0,1,.34.73,4.35,4.35,0,0,1,.12,1.1V45H79.72V40.9a1.89,1.89,0,0,0-.1-.7.66.66,0,0,0-.28-.38.84.84,0,0,0-.47-.12.8.8,0,0,0-.49.16,1.14,1.14,0,0,0-.37.41,2,2,0,0,0-.24.6A3.4,3.4,0,0,0,77.69,41.6Zm7,2.38a.91.91,0,0,0,.47-.12.78.78,0,0,0,.33-.34,1.53,1.53,0,0,0,.14-.62h1.28a2.31,2.31,0,0,1-.31,1.17,2.14,2.14,0,0,1-.8.78,2.23,2.23,0,0,1-1.09.27,2.84,2.84,0,0,1-1.1-.2,2.15,2.15,0,0,1-.77-.59,2.65,2.65,0,0,1-.45-.94,4.92,4.92,0,0,1-.15-1.27v-.58a4.84,4.84,0,0,1,.15-1.26,2.7,2.7,0,0,1,.45-1,2,2,0,0,1,.77-.58,2.62,2.62,0,0,1,1.09-.21,2.37,2.37,0,0,1,1.16.28,2,2,0,0,1,.76.81,2.88,2.88,0,0,1,.29,1.31H85.65a2,2,0,0,0-.13-.69,1,1,0,0,0-.31-.42.9.9,0,0,0-.51-.14,1,1,0,0,0-.55.13.83.83,0,0,0-.33.36,2.2,2.2,0,0,0-.15.59,6,6,0,0,0,0,.77v.58a6.31,6.31,0,0,0,0,.79,1.59,1.59,0,0,0,.15.58.83.83,0,0,0,.33.36A1.16,1.16,0,0,0,84.71,44Zm5.71,1.14a3.13,3.13,0,0,1-1.1-.18,2.2,2.2,0,0,1-.81-.55,2.32,2.32,0,0,1-.51-.91,3.92,3.92,0,0,1-.18-1.25v-.6A4.74,4.74,0,0,1,88,40.24a2.74,2.74,0,0,1,.52-1,2,2,0,0,1,.77-.55,2.45,2.45,0,0,1,1-.19,2.57,2.57,0,0,1,1,.2,1.77,1.77,0,0,1,.72.58,2.52,2.52,0,0,1,.42,1,5.72,5.72,0,0,1,.14,1.31v.68H88.48v-1h2.76v-.14a3.17,3.17,0,0,0-.1-.75,1,1,0,0,0-.31-.48.86.86,0,0,0-.57-.17,1.11,1.11,0,0,0-.46.1.87.87,0,0,0-.34.32,1.69,1.69,0,0,0-.2.6,4.78,4.78,0,0,0-.07.92v.6a3.17,3.17,0,0,0,.08.81,1.36,1.36,0,0,0,.26.54,1.12,1.12,0,0,0,.41.3,1.6,1.6,0,0,0,.56.1,1.74,1.74,0,0,0,.82-.18,2.12,2.12,0,0,0,.6-.47l.6.84a2.47,2.47,0,0,1-.46.45,2.79,2.79,0,0,1-.69.36A3,3,0,0,1,90.42,45.12Z"></path><path class="cls-1" d="M43.56,74.75V76h-5V74.92l2.32-3c.23-.33.41-.61.55-.85a3.74,3.74,0,0,0,.28-.65,2.23,2.23,0,0,0,.08-.56,2,2,0,0,0-.1-.67,1,1,0,0,0-.29-.45.68.68,0,0,0-.46-.16.82.82,0,0,0-.57.19,1.25,1.25,0,0,0-.34.53,2.68,2.68,0,0,0-.1.78H38.45a3.18,3.18,0,0,1,.3-1.39,2.48,2.48,0,0,1,.87-1A2.41,2.41,0,0,1,41,67.35a2.56,2.56,0,0,1,1.29.29,1.92,1.92,0,0,1,.79.83,2.74,2.74,0,0,1,.27,1.27,2.82,2.82,0,0,1-.11.81,4.61,4.61,0,0,1-.31.79,5.32,5.32,0,0,1-.49.79c-.18.27-.4.54-.63.82l-1.29,1.8ZM49.48,71v1.44a6.8,6.8,0,0,1-.18,1.68,3.24,3.24,0,0,1-.49,1.14,2,2,0,0,1-.77.65,2.24,2.24,0,0,1-1,.21,2.58,2.58,0,0,1-.8-.13,2.06,2.06,0,0,1-.68-.41,2.67,2.67,0,0,1-.52-.72,4.3,4.3,0,0,1-.33-1,8.08,8.08,0,0,1-.11-1.39V71a6.72,6.72,0,0,1,.18-1.67,3.38,3.38,0,0,1,.5-1.13,1.87,1.87,0,0,1,.77-.64,2.27,2.27,0,0,1,1-.21,2.64,2.64,0,0,1,.81.13,1.75,1.75,0,0,1,.66.41,2.13,2.13,0,0,1,.52.7,4.16,4.16,0,0,1,.33,1A8,8,0,0,1,49.48,71ZM48,72.65V70.77a7,7,0,0,0,0-.84,3.65,3.65,0,0,0-.12-.61,1.3,1.3,0,0,0-.19-.41.71.71,0,0,0-.26-.23.68.68,0,0,0-.32-.07.7.7,0,0,0-.38.11,1,1,0,0,0-.3.37,2.38,2.38,0,0,0-.18.67,5.92,5.92,0,0,0-.07,1v1.88c0,.33,0,.61,0,.86a3.05,3.05,0,0,0,.13.62,1.36,1.36,0,0,0,.19.42.65.65,0,0,0,.58.31.77.77,0,0,0,.39-.11,1.06,1.06,0,0,0,.29-.38,2.25,2.25,0,0,0,.17-.68A6.22,6.22,0,0,0,48,72.65Zm6.19-5.2V76h-1.5V69.31L51,70V68.69l3-1.24ZM61.55,71v1.44a6.8,6.8,0,0,1-.18,1.68,3.24,3.24,0,0,1-.49,1.14,2,2,0,0,1-.77.65,2.24,2.24,0,0,1-1,.21,2.58,2.58,0,0,1-.8-.13,2.06,2.06,0,0,1-.68-.41,2.67,2.67,0,0,1-.52-.72,4.3,4.3,0,0,1-.33-1,8.08,8.08,0,0,1-.11-1.39V71a6.72,6.72,0,0,1,.18-1.67,3.38,3.38,0,0,1,.5-1.13,1.87,1.87,0,0,1,.77-.64,2.27,2.27,0,0,1,1-.21,2.64,2.64,0,0,1,.81.13,1.75,1.75,0,0,1,.66.41,2.13,2.13,0,0,1,.52.7,4.16,4.16,0,0,1,.33,1A8,8,0,0,1,61.55,71Zm-1.5,1.65V70.77a7,7,0,0,0,0-.84,3.65,3.65,0,0,0-.12-.61,1.3,1.3,0,0,0-.19-.41.71.71,0,0,0-.26-.23.68.68,0,0,0-.32-.07.7.7,0,0,0-.38.11,1,1,0,0,0-.3.37,2.38,2.38,0,0,0-.18.67,5.92,5.92,0,0,0-.07,1v1.88c0,.33,0,.61,0,.86a3.92,3.92,0,0,0,.13.62,1.65,1.65,0,0,0,.19.42.65.65,0,0,0,.58.31.77.77,0,0,0,.39-.11,1.06,1.06,0,0,0,.29-.38,2.25,2.25,0,0,0,.17-.68A6.22,6.22,0,0,0,60.05,72.65Zm5.45-.93V73H62.76V71.72Zm4.76-4.27V76h-1.5V69.31L67.09,70V68.69l3-1.24Zm6,0V76H74.79V69.31L73.13,70V68.69l3-1.24Z"></path></svg>