<svg xmlns="http://www.w3.org/2000/svg" id="Layer_1" data-name="Layer 1" viewBox="0 0 115.77 76.12"><defs><style>.cls-1{fill:#fff;}</style></defs><path class="cls-1" d="M109.37,49.29c-2.58,1.81-3,3.76-3.07,4.31-.41.25-.79.46-1.14.65.55-.91,1.07-1.84,1.55-2.79a41.52,41.52,0,0,0,2.05-5c.06-.19.13-.38.19-.56a13.5,13.5,0,0,1,2-3.92l.17-.24c7.24-4,3.92-12,3.92-12,.11,1.79-1.61,3.15-3.39,6.4-1.5,2.77-1,4.71-.82,5.23-.36.57-.71,1.07-1,1.49q.18-.78.33-1.56a38.45,38.45,0,0,0,.62-5.35l0-.67c0-.22,0-.44,0-.67V33.23c0-.45,0-.9,0-1.35,0-.22,0-.44,0-.66l-.06-.67a5,5,0,0,1,.07-1.33l.52-2.55c5.28-6.35-.78-12.65-.78-12.65.76,1.62-.34,3.52-.8,7.2-.38,3.13.8,4.75,1.16,5.16-.15.74-.3,1.39-.43,1.92l-.06-.42c0-.44-.15-.88-.23-1.32L110,25.9c0-.22-.08-.44-.14-.65-.21-.87-.41-1.74-.69-2.59l-.19-.64-.1-.31-.11-.32-.45-1.26c-.29-.72-.59-1.45-.9-2.17a11.5,11.5,0,0,1-1-4.07c0-.33,0-.65-.08-1,2.84-7.75-5-11.65-5-11.65,1.26,1.27.85,3.43,1.67,7,.69,3.08,2.35,4.21,2.83,4.48.15,1,.23,1.93.27,2.55l0-.07-.32-.59c-.11-.2-.23-.38-.34-.58L104.69,13l-.74-1.1-.38-.55-.39-.54c-.41-.57-.85-1.12-1.3-1.66-.62-.79-1.48-1.94-2.22-2.76a5.66,5.66,0,0,1-.88-1.29C95.53-1.79,87.58.14,87.58.14c1.78.11,2.92,2,5.93,4.15a6.65,6.65,0,0,0,4.95,1.49l.26.08.91,1A36.48,36.48,0,0,1,103,10.94l.39.54.35.55.71,1.12.3.53a21.38,21.38,0,0,0-2.38-1.76C98,4.86,90.11,8.54,90.11,8.54c1.77-.19,3.21,1.47,6.54,3.09,2.84,1.38,4.75.79,5.26.58,1.13.67,2.08,1.32,2.63,1.71a2.68,2.68,0,0,1,.82.95h0l.3.59a36.93,36.93,0,0,1,2.08,4.84l.41,1.25.1.31.09.32.18.63c.25.84.42,1.71.61,2.56.05.22.09.43.13.65h0a24.34,24.34,0,0,0-1.67-2.25c-2-8-10.7-6.8-10.7-6.8,1.76.34,2.65,2.35,5.36,4.87a6.61,6.61,0,0,0,4.86,2.1c.62.67,1.13,1.27,1.51,1.75a4.17,4.17,0,0,1,.93,2.26h0l.16,1.31,0,.32,0,.33,0,.65,0,.65c0,.22,0,.44,0,.66,0,.44,0,.87,0,1.31l0,1.31q0,.33,0,.66l0,.65c-.07,1-.17,1.89-.31,2.82a20.92,20.92,0,0,0-.65-2.24c1-8.19-7.56-10.17-7.56-10.17,1.52,1,1.63,3.14,3.27,6.46,1.39,2.84,3.26,3.55,3.79,3.7.2.51.38,1,.52,1.4A5.78,5.78,0,0,1,109,41v0a39.44,39.44,0,0,1-1.44,5,43.19,43.19,0,0,1-2.11,4.77c-.24.45-.49.89-.75,1.33a23.23,23.23,0,0,0,.27-2.67c3.89-7.28-3.31-12.23-3.31-12.23,1.07,1.44.37,3.52.67,7.22.25,3.14,1.73,4.49,2.17,4.82v.35a9.72,9.72,0,0,1-1.78,5.59s0,0,0,0a38.38,38.38,0,0,1-3.32,4c-.3.3-.59.63-.91.93l-.93.89s0,0,0,0c.28-.51.54-1,.78-1.51C104.74,54.34,100,47,100,47c.44,1.74-1,3.38-2.18,6.91-1,3-.14,4.81.13,5.28-.18.45-.37.87-.54,1.24a6.26,6.26,0,0,1-1.81,2.33h0a35.59,35.59,0,0,1-4.26,3c-.87.52-1.75,1-2.65,1.44.37-.39.72-.78,1-1.16,6.14-2.84,3.89-9.63,3.89-9.63,0,1.46-1.5,2.48-3.13,5a5.32,5.32,0,0,0-1,4.22c-.2.27-.39.52-.57.74a5.65,5.65,0,0,1-2.21,1.69,0,0,0,0,1,0,0,40.15,40.15,0,0,1-4.88,1.68h0a1.09,1.09,0,1,0,.62,2.09,40.27,40.27,0,0,0,5.11-1.92,41.74,41.74,0,0,0,4.79-2.59c.92-.57,1.82-1.2,2.69-1.86a7.82,7.82,0,0,1,4.06-1.56c7.71,3,11.72-4.8,11.72-4.8-1.29,1.24-3.44.81-7.07,1.56-3.09.64-4.24,2.29-4.52,2.76-.74.1-1.39.16-1.94.19.5-.43,1-.88,1.45-1.32l1-1c.32-.32.61-.67.92-1A39.22,39.22,0,0,0,104,56.08.7.7,0,0,1,104,56,5.15,5.15,0,0,1,106,54.26l.38-.2c8.25-.31,8.9-9,8.9-9C114.56,46.73,112.41,47.17,109.37,49.29Z"></path><path class="cls-1" d="M6.4,49.29C9,51.1,9.4,53.05,9.47,53.6c.41.25.79.46,1.14.65-.55-.91-1.07-1.84-1.55-2.79a41.52,41.52,0,0,1-2.05-5c-.07-.19-.13-.38-.19-.56a13.5,13.5,0,0,0-2-3.92l-.17-.24c-7.24-4-3.92-12-3.92-12-.11,1.79,1.61,3.15,3.38,6.4,1.51,2.77,1,4.71.82,5.23.37.57.72,1.07,1,1.49Q5.8,42,5.65,41.26A37,37,0,0,1,5,35.91l0-.67c0-.22,0-.44,0-.67V33.23c0-.45,0-.9,0-1.35,0-.22,0-.44,0-.66l.06-.67a5,5,0,0,0-.07-1.33l-.52-2.55C-.73,20.32,5.33,14,5.33,14c-.76,1.62.34,3.52.79,7.2C6.51,24.35,5.33,26,5,26.38c.16.74.31,1.39.44,1.92l.06-.42c0-.44.15-.88.23-1.32l.13-.66c0-.22.08-.44.14-.65.21-.87.41-1.74.69-2.59L6.84,22l.1-.31.11-.32.45-1.26c.29-.72.58-1.45.9-2.17a11.71,11.71,0,0,0,1-4.07c0-.33,0-.65.08-1-2.84-7.75,5-11.65,5-11.65-1.26,1.27-.86,3.43-1.67,7-.69,3.08-2.35,4.21-2.83,4.48-.15,1-.23,1.93-.27,2.55l0-.07.32-.59c.1-.2.23-.38.34-.58L11.08,13l.74-1.1.38-.55.39-.54c.41-.57.84-1.12,1.3-1.66.62-.79,1.48-1.94,2.22-2.76A5.66,5.66,0,0,0,17,5.07C20.24-1.79,28.19.14,28.19.14c-1.78.11-2.92,2-5.93,4.15a6.65,6.65,0,0,1-5,1.49l-.26.08-.91,1a36.48,36.48,0,0,0-3.32,4.12l-.39.54c-.12.18-.23.37-.36.55l-.71,1.12-.3.53a22.35,22.35,0,0,1,2.38-1.76c4.29-7.06,12.22-3.38,12.22-3.38-1.78-.19-3.22,1.47-6.55,3.09-2.83,1.38-4.75.79-5.26.58-1.13.67-2.08,1.32-2.63,1.71a2.68,2.68,0,0,0-.82.95h0l-.3.59A36.93,36.93,0,0,0,8,20.31l-.41,1.25-.1.31-.09.32-.18.63c-.25.84-.42,1.71-.61,2.56,0,.22-.09.43-.12.65h0a22.61,22.61,0,0,1,1.66-2.25c2-8,10.7-6.8,10.7-6.8-1.76.34-2.65,2.35-5.36,4.87C11.2,24,9.2,24,8.65,24c-.61.67-1.13,1.27-1.5,1.75A4.11,4.11,0,0,0,6.21,28h0l-.15,1.31,0,.32,0,.33,0,.65,0,.65c0,.22,0,.44,0,.66,0,.44,0,.87,0,1.31l0,1.31q0,.33,0,.66l0,.65c.07,1,.18,1.89.31,2.82.19-.78.4-1.53.65-2.24-1-8.19,7.56-10.17,7.56-10.17-1.52,1-1.63,3.14-3.26,6.46C9.86,35.54,8,36.25,7.45,36.4c-.2.51-.37,1-.52,1.4A5.78,5.78,0,0,0,6.73,41s0,0,0,0a37.83,37.83,0,0,0,1.43,5,41.45,41.45,0,0,0,2.12,4.77c.23.45.48.89.74,1.33a21.13,21.13,0,0,1-.26-2.67c-3.9-7.28,3.3-12.23,3.3-12.23-1.07,1.44-.36,3.52-.66,7.22-.25,3.14-1.74,4.49-2.18,4.82v.35A9.87,9.87,0,0,0,13,55.21l0,0a38.38,38.38,0,0,0,3.32,4c.3.3.59.63.91.93l.93.89,0,0c-.28-.51-.54-1-.78-1.51C11,54.34,15.75,47,15.75,47c-.43,1.74,1,3.38,2.19,6.91,1,3,.14,4.81-.14,5.28.19.45.38.87.55,1.24a6.16,6.16,0,0,0,1.81,2.33h0a35.59,35.59,0,0,0,4.26,3c.86.52,1.75,1,2.65,1.44-.38-.39-.72-.78-1-1.16-6.14-2.84-3.89-9.63-3.89-9.63,0,1.46,1.5,2.48,3.13,5a5.37,5.37,0,0,1,1,4.22c.2.27.39.52.57.74A5.65,5.65,0,0,0,29,68.05a0,0,0,0,0,0,0,40.15,40.15,0,0,0,4.88,1.68h0a1.09,1.09,0,0,1,.8,1,1.1,1.1,0,0,1-1.41,1.1,40.27,40.27,0,0,1-5.11-1.92,41.74,41.74,0,0,1-4.79-2.59c-.92-.57-1.82-1.2-2.69-1.86a7.82,7.82,0,0,0-4.06-1.56C9,66.87,5,59.11,5,59.11c1.29,1.24,3.44.81,7.07,1.56,3.09.64,4.24,2.29,4.52,2.76.74.1,1.39.16,1.94.19-.5-.43-1-.88-1.45-1.32l-.95-1c-.33-.32-.61-.67-.93-1a40.4,40.4,0,0,1-3.34-4.26.7.7,0,0,0-.06-.09,5.15,5.15,0,0,0-1.95-1.73l-.38-.2c-8.25-.31-8.9-9-8.9-9C1.21,46.73,3.36,47.17,6.4,49.29Z"></path><path class="cls-1" d="M58.62,21.33H60a3.71,3.71,0,0,1-.37,1.57,2.29,2.29,0,0,1-1,1,3.22,3.22,0,0,1-1.52.34A2.83,2.83,0,0,1,56,24a2.5,2.5,0,0,1-.91-.71,3.21,3.21,0,0,1-.57-1.14,5.52,5.52,0,0,1-.19-1.53V19.09a5.52,5.52,0,0,1,.19-1.53,3.41,3.41,0,0,1,.59-1.14,2.32,2.32,0,0,1,.93-.71,2.89,2.89,0,0,1,1.24-.25,3.1,3.1,0,0,1,1.49.34,2.31,2.31,0,0,1,.93,1A4.14,4.14,0,0,1,60,18.4H58.62a3.58,3.58,0,0,0-.17-1,1,1,0,0,0-.44-.56,1.77,1.77,0,0,0-1.47,0,1.29,1.29,0,0,0-.47.46,2.32,2.32,0,0,0-.28.76,5.44,5.44,0,0,0-.09,1.06V20.6a6.38,6.38,0,0,0,.08,1,2.4,2.4,0,0,0,.25.77,1.2,1.2,0,0,0,.45.47,1.34,1.34,0,0,0,.7.16,1.65,1.65,0,0,0,.8-.16.92.92,0,0,0,.45-.53A3.5,3.5,0,0,0,58.62,21.33Zm4.15-5.75v8.53H61.35V15.58Zm3.13,0v8.53H64.47V15.58ZM45.45,32.33h1.42a3.71,3.71,0,0,1-.38,1.57,2.29,2.29,0,0,1-1,1,3.19,3.19,0,0,1-1.52.34A2.76,2.76,0,0,1,42.8,35a2.42,2.42,0,0,1-.91-.71,3.4,3.4,0,0,1-.58-1.14,5.52,5.52,0,0,1-.19-1.53V30.09a5.51,5.51,0,0,1,.2-1.53,3.4,3.4,0,0,1,.58-1.14,2.46,2.46,0,0,1,.93-.71,2.92,2.92,0,0,1,1.24-.25,3.07,3.07,0,0,1,1.49.34,2.31,2.31,0,0,1,.93,1,4,4,0,0,1,.38,1.6H45.46a3.22,3.22,0,0,0-.18-1,1,1,0,0,0-.43-.56,1.58,1.58,0,0,0-.78-.17,1.47,1.47,0,0,0-.69.15,1.32,1.32,0,0,0-.48.46,2.33,2.33,0,0,0-.27.76,5.44,5.44,0,0,0-.09,1.06V31.6a6.46,6.46,0,0,0,.07,1,2.68,2.68,0,0,0,.25.77,1.2,1.2,0,0,0,.45.47A1.37,1.37,0,0,0,44,34a1.69,1.69,0,0,0,.81-.16,1,1,0,0,0,.45-.53A3.22,3.22,0,0,0,45.45,32.33Zm2.36-.13v-.51A4.37,4.37,0,0,1,48,30.38a2.71,2.71,0,0,1,.52-.95,2.2,2.2,0,0,1,.8-.58,2.51,2.51,0,0,1,1-.2,2.54,2.54,0,0,1,1,.2,2.2,2.2,0,0,1,.8.58,2.56,2.56,0,0,1,.52.95,4.37,4.37,0,0,1,.18,1.31v.51a4.37,4.37,0,0,1-.18,1.31,2.64,2.64,0,0,1-.52,1,2.11,2.11,0,0,1-.79.57,2.68,2.68,0,0,1-2,0,2.22,2.22,0,0,1-.8-.57,2.81,2.81,0,0,1-.52-1A4.37,4.37,0,0,1,47.81,32.2Zm1.37-.51v.51a3.49,3.49,0,0,0,.08.83,1.86,1.86,0,0,0,.23.59,1.12,1.12,0,0,0,.37.35.9.9,0,0,0,.46.12,1,1,0,0,0,.5-.12.93.93,0,0,0,.36-.35A1.86,1.86,0,0,0,51.4,33a5,5,0,0,0,.07-.83v-.51a3.93,3.93,0,0,0-.08-.82,1.91,1.91,0,0,0-.24-.59,1,1,0,0,0-.37-.36.94.94,0,0,0-.47-.12.9.9,0,0,0-.46.12,1,1,0,0,0-.36.36,1.69,1.69,0,0,0-.23.59A3.35,3.35,0,0,0,49.18,31.69Zm6.18-1.57v5H54V28.77h1.29Zm-.25,1.59h-.43a4.52,4.52,0,0,1,.14-1.25,3.27,3.27,0,0,1,.44-1,2,2,0,0,1,.68-.62,1.75,1.75,0,0,1,.88-.23,1.93,1.93,0,0,1,.69.13,1.26,1.26,0,0,1,.54.41,1.91,1.91,0,0,1,.34.73,4.35,4.35,0,0,1,.12,1.1v4.09H57.14V31a2.16,2.16,0,0,0-.09-.7.72.72,0,0,0-.29-.38.84.84,0,0,0-.47-.12.8.8,0,0,0-.49.16,1.14,1.14,0,0,0-.37.41,2.35,2.35,0,0,0-.24.6A3.4,3.4,0,0,0,55.11,31.71Zm6.12-1.59v5H59.86V28.77h1.29ZM61,31.71h-.43a4.51,4.51,0,0,1,.15-1.25,3,3,0,0,1,.43-1,2,2,0,0,1,.68-.62,1.75,1.75,0,0,1,.88-.23,1.93,1.93,0,0,1,.69.13,1.26,1.26,0,0,1,.54.41,1.91,1.91,0,0,1,.34.73,4.35,4.35,0,0,1,.12,1.1v4.09H63V31a2.12,2.12,0,0,0-.1-.7.76.76,0,0,0-.28-.38.9.9,0,0,0-.48-.12.8.8,0,0,0-.49.16,1.14,1.14,0,0,0-.37.41,2.35,2.35,0,0,0-.24.6A3.4,3.4,0,0,0,61,31.71Zm7.2,3.52a3.13,3.13,0,0,1-1.1-.18,2.2,2.2,0,0,1-.81-.55,2.6,2.6,0,0,1-.51-.91,3.9,3.9,0,0,1-.18-1.24v-.61a4.74,4.74,0,0,1,.18-1.39,2.74,2.74,0,0,1,.52-1,2.06,2.06,0,0,1,.77-.55,2.45,2.45,0,0,1,1-.19,2.54,2.54,0,0,1,1,.2,1.77,1.77,0,0,1,.72.58,2.52,2.52,0,0,1,.42.95,5.21,5.21,0,0,1,.14,1.31v.68H66.24v-1H69V31.2a2.72,2.72,0,0,0-.1-.75.92.92,0,0,0-.31-.48A.85.85,0,0,0,68,29.8a1.12,1.12,0,0,0-.47.1.87.87,0,0,0-.34.32,1.69,1.69,0,0,0-.2.6,4.78,4.78,0,0,0-.07.92v.61a3.13,3.13,0,0,0,.08.8,1.36,1.36,0,0,0,.26.54,1,1,0,0,0,.41.3,1.61,1.61,0,0,0,.57.1,1.73,1.73,0,0,0,.81-.18,2.12,2.12,0,0,0,.6-.47l.6.84a2.19,2.19,0,0,1-.46.45,2.79,2.79,0,0,1-.69.36A3,3,0,0,1,68.18,35.23Zm5.52-1.14a.94.94,0,0,0,.47-.12.78.78,0,0,0,.33-.34,1.53,1.53,0,0,0,.14-.62h1.28a2.31,2.31,0,0,1-.31,1.17,2.14,2.14,0,0,1-.8.78,2.23,2.23,0,0,1-1.09.27,2.84,2.84,0,0,1-1.1-.2,2.15,2.15,0,0,1-.77-.59,2.85,2.85,0,0,1-.46-.94,5.42,5.42,0,0,1-.14-1.27v-.58a5.34,5.34,0,0,1,.14-1.26,2.9,2.9,0,0,1,.46-.95,2,2,0,0,1,.77-.58,2.62,2.62,0,0,1,1.09-.21,2.33,2.33,0,0,1,1.15.28,1.94,1.94,0,0,1,.77.81,3,3,0,0,1,.29,1.31H74.64a2,2,0,0,0-.13-.69,1,1,0,0,0-.31-.42.93.93,0,0,0-.51-.14,1.15,1.15,0,0,0-.55.13.83.83,0,0,0-.33.36,2.63,2.63,0,0,0-.16.59c0,.23,0,.48,0,.77v.58c0,.29,0,.56,0,.79a1.81,1.81,0,0,0,.16.58.83.83,0,0,0,.33.36A1.16,1.16,0,0,0,73.7,34.09Zm5.84-5.32v1.06H76.43V28.77Zm-2.26-1.55h1.36v6.12a1.32,1.32,0,0,0,.06.45.36.36,0,0,0,.18.2.61.61,0,0,0,.28,0h.23l.17,0v1.1a2.47,2.47,0,0,1-.35.1,3.34,3.34,0,0,1-.49,0,1.53,1.53,0,0,1-.74-.18,1.15,1.15,0,0,1-.51-.57,2.38,2.38,0,0,1-.19-1Z"></path><path class="cls-1" d="M51.76,74.86v1.25h-5V75l2.32-3a9.66,9.66,0,0,0,.55-.85,3.1,3.1,0,0,0,.28-.65A1.85,1.85,0,0,0,50,70a2,2,0,0,0-.1-.67,1,1,0,0,0-.29-.45.66.66,0,0,0-.46-.16.84.84,0,0,0-.57.19,1.14,1.14,0,0,0-.33.53,2.67,2.67,0,0,0-.11.78H46.65a3.18,3.18,0,0,1,.3-1.39,2.64,2.64,0,0,1,.87-1,2.42,2.42,0,0,1,1.37-.37,2.55,2.55,0,0,1,1.28.29,1.87,1.87,0,0,1,.79.83,2.74,2.74,0,0,1,.28,1.27,2.84,2.84,0,0,1-.12.81,3.91,3.91,0,0,1-.31.79,6.18,6.18,0,0,1-.48.79c-.19.27-.4.54-.64.82l-1.29,1.8Zm5.92-3.75v1.44a7.37,7.37,0,0,1-.17,1.68,3.44,3.44,0,0,1-.5,1.14,2,2,0,0,1-.76.65,2.31,2.31,0,0,1-1,.21,2.63,2.63,0,0,1-.8-.13,2.06,2.06,0,0,1-.68-.41,2.67,2.67,0,0,1-.52-.72,3.9,3.9,0,0,1-.32-1,7.13,7.13,0,0,1-.12-1.39V71.11A6.72,6.72,0,0,1,53,69.44a3.38,3.38,0,0,1,.5-1.13,1.87,1.87,0,0,1,.77-.64,2.31,2.31,0,0,1,1-.21,2.63,2.63,0,0,1,.8.13,1.87,1.87,0,0,1,.67.41,2.22,2.22,0,0,1,.51.7,3.46,3.46,0,0,1,.33,1A8,8,0,0,1,57.68,71.11Zm-1.5,1.65V70.88a7,7,0,0,0,0-.84,3.87,3.87,0,0,0-.12-.61,1.3,1.3,0,0,0-.18-.41.83.83,0,0,0-.27-.23.67.67,0,0,0-.31-.07.71.71,0,0,0-.39.11.94.94,0,0,0-.29.37,2.06,2.06,0,0,0-.19.67,7.16,7.16,0,0,0-.07,1v1.88a7.12,7.12,0,0,0,0,.86,4,4,0,0,0,.12.62,1.65,1.65,0,0,0,.19.42.73.73,0,0,0,.26.24.68.68,0,0,0,.32.07.71.71,0,0,0,.39-.11,1,1,0,0,0,.29-.38,2.56,2.56,0,0,0,.18-.68A7.68,7.68,0,0,0,56.18,72.76Zm6.2-5.2v8.55H60.87V69.42l-1.66.66V68.8l3-1.24ZM69.94,73v1.25H64.73l-.06-1,3-5.68h1.19L67.61,69.9,66.18,73Zm-.77-5.4v8.53H67.66V67.58Z"></path></svg>