<svg xmlns="http://www.w3.org/2000/svg" id="Layer_1" data-name="Layer 1" viewBox="0 0 115.77 76.12"><defs><style>.cls-1{fill:#fff;}</style></defs><path class="cls-1" d="M109.37,49.4c-2.58,1.81-3,3.77-3.07,4.31-.41.25-.79.46-1.14.65.55-.91,1.07-1.84,1.55-2.79a41.52,41.52,0,0,0,2.05-5c.06-.19.13-.38.19-.56a13.62,13.62,0,0,1,2-3.92l.17-.24c7.24-4,3.92-12,3.92-12,.11,1.79-1.61,3.15-3.39,6.4-1.5,2.77-1,4.71-.82,5.23-.36.57-.71,1.07-1,1.49q.18-.78.33-1.56a38.45,38.45,0,0,0,.62-5.35l0-.67c0-.22,0-.44,0-.67V33.34c0-.45,0-.9,0-1.35,0-.22,0-.44,0-.66l-.06-.67a5,5,0,0,1,.07-1.33l.52-2.55c5.28-6.35-.78-12.65-.78-12.65.76,1.62-.34,3.52-.8,7.2-.38,3.13.8,4.75,1.16,5.16-.15.75-.3,1.39-.43,1.92l-.06-.42c0-.44-.15-.88-.23-1.32L110,26c0-.22-.08-.44-.14-.65-.21-.87-.41-1.74-.69-2.59l-.19-.63-.1-.32-.11-.32-.45-1.25c-.29-.73-.58-1.46-.9-2.18a11.44,11.44,0,0,1-1-4.07c0-.33,0-.65-.08-1,2.84-7.75-5-11.65-5-11.65,1.26,1.27.85,3.43,1.67,7,.69,3.08,2.35,4.21,2.83,4.48.15,1.05.23,1.93.27,2.55l0-.07-.32-.59c-.11-.2-.23-.38-.34-.58l-.69-1.14L104,12l-.38-.55-.39-.54c-.41-.57-.84-1.12-1.3-1.66-.62-.79-1.48-1.94-2.22-2.76a5.66,5.66,0,0,1-.88-1.29C95.53-1.68,87.58.25,87.58.25c1.78.11,2.92,2,5.93,4.15a6.65,6.65,0,0,0,4.95,1.49l.26.08.91,1A36.48,36.48,0,0,1,103,11.05l.39.54.35.55.71,1.12.3.53A21.38,21.38,0,0,0,102.32,12C98,5,90.11,8.65,90.11,8.65c1.78-.19,3.21,1.47,6.54,3.09,2.84,1.38,4.75.79,5.26.58C103,13,104,13.64,104.54,14a2.68,2.68,0,0,1,.82,1h0l.3.59a36.93,36.93,0,0,1,2.08,4.84l.41,1.25.1.31.1.32.17.63c.25.85.42,1.71.61,2.56.05.22.09.43.13.65h0a24.34,24.34,0,0,0-1.67-2.25c-2-8-10.7-6.8-10.7-6.8,1.76.34,2.65,2.35,5.36,4.87,2.31,2.15,4.32,2.15,4.86,2.1.62.67,1.13,1.28,1.51,1.75a4.17,4.17,0,0,1,.93,2.26h0l.16,1.31,0,.32,0,.33,0,.65,0,.66c0,.21,0,.43,0,.65,0,.44,0,.87,0,1.31l0,1.31q0,.33,0,.66l0,.65c-.07,1-.17,1.89-.31,2.82a20.92,20.92,0,0,0-.65-2.24c1-8.19-7.56-10.17-7.56-10.17,1.52.95,1.63,3.14,3.27,6.46,1.39,2.84,3.26,3.55,3.79,3.7.2.52.38,1,.52,1.4a5.78,5.78,0,0,1,.2,3.19v0a39.44,39.44,0,0,1-1.44,5,43.19,43.19,0,0,1-2.11,4.77c-.24.45-.49.89-.75,1.33a23.23,23.23,0,0,0,.27-2.67c3.89-7.28-3.31-12.23-3.31-12.23,1.07,1.44.37,3.52.67,7.22.25,3.14,1.73,4.49,2.17,4.82v.35a9.72,9.72,0,0,1-1.78,5.59s0,0,0,0a38.38,38.38,0,0,1-3.32,4c-.3.3-.59.63-.91.93l-.93.89s0,0,0,0c.28-.5.54-1,.78-1.51C104.74,54.45,100,47.1,100,47.1c.44,1.74-1,3.38-2.18,6.91-1,3-.14,4.81.13,5.28-.18.46-.37.87-.54,1.24a6.26,6.26,0,0,1-1.81,2.33h0a36.71,36.71,0,0,1-4.26,2.95c-.87.52-1.75,1-2.65,1.44.37-.39.72-.78,1-1.16,6.14-2.84,3.89-9.63,3.89-9.63,0,1.46-1.5,2.48-3.13,5a5.32,5.32,0,0,0-1,4.22c-.2.27-.39.52-.57.74a5.65,5.65,0,0,1-2.21,1.69,0,0,0,0,1,0,0,40.15,40.15,0,0,1-4.88,1.68h0A1.09,1.09,0,1,0,82.44,72,40.22,40.22,0,0,0,87.55,70a41.82,41.82,0,0,0,4.79-2.6c.92-.57,1.82-1.2,2.69-1.86A7.81,7.81,0,0,1,99.09,64c7.71,3,11.72-4.81,11.72-4.81-1.29,1.24-3.44.81-7.07,1.56-3.09.64-4.24,2.29-4.52,2.76-.74.1-1.39.16-1.94.19.5-.43,1-.88,1.45-1.32l1-1c.32-.32.61-.67.92-1A39.22,39.22,0,0,0,104,56.19l.06-.09A5.15,5.15,0,0,1,106,54.37l.38-.2c8.25-.31,8.9-9,8.9-9C114.56,46.84,112.41,47.28,109.37,49.4Z"></path><path class="cls-1" d="M6.4,49.4c2.58,1.81,3,3.77,3.07,4.31.41.25.79.46,1.14.65-.55-.91-1.07-1.84-1.55-2.79a41.52,41.52,0,0,1-2.05-5c-.07-.19-.13-.38-.19-.56a13.62,13.62,0,0,0-2-3.92l-.17-.24c-7.24-4-3.92-12-3.92-12C.65,31.6,2.37,33,4.14,36.21c1.51,2.77,1,4.71.82,5.23.37.57.72,1.07,1,1.49q-.18-.78-.33-1.56A37,37,0,0,1,5,36l0-.67c0-.22,0-.44,0-.67V33.34c0-.45,0-.9,0-1.35,0-.22,0-.44,0-.66l.06-.67a5,5,0,0,0-.07-1.33l-.52-2.55c-5.28-6.35.78-12.65.78-12.65-.76,1.62.34,3.52.79,7.2.39,3.13-.79,4.75-1.16,5.16.16.75.31,1.39.44,1.92L5.46,28c0-.44.15-.88.23-1.32L5.82,26c0-.22.08-.44.14-.65.21-.87.41-1.74.69-2.59l.19-.63.1-.32.11-.32.45-1.25c.29-.73.58-1.46.9-2.18a11.66,11.66,0,0,0,1-4.07c0-.33,0-.65.08-1-2.84-7.75,5-11.65,5-11.65-1.26,1.27-.86,3.43-1.67,7-.69,3.08-2.35,4.21-2.83,4.48-.15,1.05-.23,1.93-.27,2.55l0-.07.32-.59c.1-.2.23-.38.34-.58l.69-1.14.74-1.1.38-.55.39-.54c.41-.57.84-1.12,1.3-1.66.62-.79,1.48-1.94,2.22-2.76A5.66,5.66,0,0,0,17,5.18C20.24-1.68,28.19.25,28.19.25c-1.78.11-2.92,2-5.93,4.15a6.65,6.65,0,0,1-5,1.49L17.05,6l-.91,1a36.48,36.48,0,0,0-3.32,4.12l-.39.54c-.12.18-.23.37-.36.55l-.71,1.12-.3.53A22.35,22.35,0,0,1,13.44,12C17.73,5,25.66,8.65,25.66,8.65c-1.78-.19-3.22,1.47-6.55,3.09-2.83,1.38-4.75.79-5.26.58-1.13.67-2.08,1.32-2.63,1.71a2.68,2.68,0,0,0-.82,1h0l-.3.59A36.93,36.93,0,0,0,8,20.42l-.41,1.25-.1.31-.09.32-.18.63c-.25.85-.42,1.71-.61,2.56,0,.22-.09.43-.12.65h0A22.61,22.61,0,0,1,8.17,23.9c2-8,10.7-6.8,10.7-6.8-1.76.34-2.65,2.35-5.36,4.87-2.31,2.15-4.31,2.15-4.86,2.1-.61.67-1.13,1.28-1.5,1.75a4.18,4.18,0,0,0-.94,2.26h0L6.06,29.4l0,.32,0,.33,0,.65,0,.66c0,.21,0,.43,0,.65,0,.44,0,.87,0,1.31l0,1.31q0,.33,0,.66l0,.65c.07,1,.18,1.89.31,2.82.19-.78.4-1.53.65-2.24-1-8.19,7.56-10.17,7.56-10.17-1.52.95-1.63,3.14-3.26,6.46-1.39,2.84-3.27,3.55-3.8,3.7-.2.52-.37,1-.52,1.4a5.78,5.78,0,0,0-.2,3.19s0,0,0,0a37.83,37.83,0,0,0,1.43,5,41.45,41.45,0,0,0,2.12,4.77c.23.45.48.89.74,1.33a21.13,21.13,0,0,1-.26-2.67c-3.9-7.28,3.3-12.23,3.3-12.23-1.07,1.44-.36,3.52-.66,7.22-.25,3.14-1.74,4.49-2.18,4.82v.35A9.87,9.87,0,0,0,13,55.32l0,0a38.38,38.38,0,0,0,3.32,4c.3.3.59.63.91.93l.93.89,0,0c-.28-.5-.54-1-.78-1.51C11,54.45,15.75,47.1,15.75,47.1c-.43,1.74,1,3.38,2.19,6.91,1,3,.14,4.81-.14,5.28.19.46.38.87.55,1.24a6.16,6.16,0,0,0,1.81,2.33h0a36.71,36.71,0,0,0,4.26,2.95c.86.52,1.75,1,2.65,1.44-.37-.39-.72-.78-1-1.16-6.14-2.84-3.89-9.63-3.89-9.63,0,1.46,1.5,2.48,3.13,5a5.37,5.37,0,0,1,1,4.22c.2.27.39.52.57.74A5.65,5.65,0,0,0,29,68.16a0,0,0,0,0,0,0,40.15,40.15,0,0,0,4.88,1.68h0A1.09,1.09,0,1,1,33.33,72,40.22,40.22,0,0,1,28.22,70a41.82,41.82,0,0,1-4.79-2.6c-.92-.57-1.82-1.2-2.69-1.86A7.81,7.81,0,0,0,16.68,64C9,67,5,59.22,5,59.22,6.25,60.46,8.4,60,12,60.78c3.09.64,4.24,2.29,4.52,2.76.74.1,1.39.16,1.94.19-.5-.43-1-.88-1.45-1.32l-.95-1c-.33-.32-.61-.67-.93-1a40.4,40.4,0,0,1-3.34-4.26l-.06-.09a5.15,5.15,0,0,0-1.95-1.73l-.38-.2c-8.25-.31-8.9-9-8.9-9C1.21,46.84,3.36,47.28,6.4,49.4Z"></path><path class="cls-1" d="M49.15,16.64,47.09,24H45.6l2.71-8.53h.92ZM50.8,24l-2.07-7.36-.1-1.17h.94L52.29,24Zm0-3.17V22h-4v-1.2ZM54.37,19V24H53V17.66h1.29Zm-.22,1.65h-.47a5.8,5.8,0,0,1,.12-1.22,3.14,3.14,0,0,1,.4-1,1.86,1.86,0,0,1,.67-.64,1.94,1.94,0,0,1,1-.23,1.71,1.71,0,0,1,.65.13,1.26,1.26,0,0,1,.53.39,1.84,1.84,0,0,1,.35.7,3.72,3.72,0,0,1,.13,1V24H56.11V19.9a1.92,1.92,0,0,0-.11-.71.67.67,0,0,0-.29-.38,1,1,0,0,0-.47-.11.8.8,0,0,0-.51.16,1,1,0,0,0-.34.41,2,2,0,0,0-.18.6A4.23,4.23,0,0,0,54.15,20.6Zm3.24-.36-.64.14a3.88,3.88,0,0,1,.12-1.09,2.81,2.81,0,0,1,.38-.9,2.05,2.05,0,0,1,.66-.62,1.82,1.82,0,0,1,.92-.23,1.86,1.86,0,0,1,.73.14,1.23,1.23,0,0,1,.55.41,2,2,0,0,1,.35.73,4.24,4.24,0,0,1,.12,1.08V24H59.21V19.9a2,2,0,0,0-.11-.73.6.6,0,0,0-.29-.36,1,1,0,0,0-.46-.11.68.68,0,0,0-.42.13.93.93,0,0,0-.3.32,1.73,1.73,0,0,0-.18.5A2.74,2.74,0,0,0,57.39,20.24Zm5.94-1.36V24H62V17.66h1.3Zm1.53-1.26V19l-.25,0h-.26a1,1,0,0,0-.48.1.9.9,0,0,0-.35.29,1.35,1.35,0,0,0-.22.45,3.12,3.12,0,0,0-.1.6H62.9A6.4,6.4,0,0,1,63,19.26a3.66,3.66,0,0,1,.29-.9,1.52,1.52,0,0,1,.48-.6,1.09,1.09,0,0,1,.66-.22l.24,0A.64.64,0,0,1,64.86,17.62Zm4.06,4.89V17.66h1.37V24H69Zm.2-1.33h.43a5.55,5.55,0,0,1-.12,1.18,2.92,2.92,0,0,1-.36.94,1.75,1.75,0,0,1-.63.61,2,2,0,0,1-1.63.08,1.47,1.47,0,0,1-.55-.41,1.9,1.9,0,0,1-.36-.74,3.78,3.78,0,0,1-.13-1.07v-4.1h1.36v4.11a2.37,2.37,0,0,0,.06.57,1.34,1.34,0,0,0,.16.36.61.61,0,0,0,.24.19.68.68,0,0,0,.29.06,1.12,1.12,0,0,0,.73-.23,1.34,1.34,0,0,0,.39-.64A3.06,3.06,0,0,0,69.12,21.18Zm5.1-3.52v1.05H71.1V17.66ZM72,16.11h1.36v6.12a1.09,1.09,0,0,0,.07.45.33.33,0,0,0,.18.2.59.59,0,0,0,.27.05h.23l.17,0V24a2.47,2.47,0,0,1-.35.1,3.08,3.08,0,0,1-.48,0,1.5,1.5,0,0,1-.74-.18,1.26,1.26,0,0,1-.52-.57A2.53,2.53,0,0,1,72,22.32Z"></path><path class="cls-1" d="M51.56,74.75V76h-5V74.92l2.32-3c.23-.33.41-.61.55-.85a3.74,3.74,0,0,0,.28-.65,2.23,2.23,0,0,0,.08-.56,1.93,1.93,0,0,0-.1-.67,1,1,0,0,0-.29-.45.68.68,0,0,0-.46-.16.82.82,0,0,0-.57.19,1.25,1.25,0,0,0-.34.53,2.68,2.68,0,0,0-.1.78H46.45a3.18,3.18,0,0,1,.3-1.39A2.35,2.35,0,0,1,49,67.35a2.56,2.56,0,0,1,1.29.29,2,2,0,0,1,.79.82,2.81,2.81,0,0,1,.27,1.28,2.71,2.71,0,0,1-.11.8,4.39,4.39,0,0,1-.31.8,5.32,5.32,0,0,1-.49.79c-.18.27-.4.54-.63.82l-1.29,1.8ZM57.48,71v1.44a6.8,6.8,0,0,1-.18,1.68,3.33,3.33,0,0,1-.49,1.14,2.07,2.07,0,0,1-.77.65,2.24,2.24,0,0,1-1,.21,2.58,2.58,0,0,1-.8-.13,2.06,2.06,0,0,1-.68-.41,2.67,2.67,0,0,1-.52-.72,4.3,4.3,0,0,1-.33-1,8.08,8.08,0,0,1-.11-1.39V71a6.72,6.72,0,0,1,.18-1.67,3.38,3.38,0,0,1,.5-1.13,1.87,1.87,0,0,1,.77-.64,2.27,2.27,0,0,1,1-.21,2.37,2.37,0,0,1,.81.13,1.86,1.86,0,0,1,.66.4,2.29,2.29,0,0,1,.52.71,4.16,4.16,0,0,1,.33,1A8,8,0,0,1,57.48,71ZM56,72.65V70.77a7,7,0,0,0,0-.84,3.65,3.65,0,0,0-.12-.61,1.3,1.3,0,0,0-.19-.41.63.63,0,0,0-.26-.23.68.68,0,0,0-.32-.07.63.63,0,0,0-.38.11,1,1,0,0,0-.3.37,2.38,2.38,0,0,0-.18.67,5.92,5.92,0,0,0-.07,1v1.88c0,.33,0,.61,0,.86a3.05,3.05,0,0,0,.13.62,1.36,1.36,0,0,0,.19.42.65.65,0,0,0,.58.31.77.77,0,0,0,.39-.11,1.06,1.06,0,0,0,.29-.38,2.25,2.25,0,0,0,.17-.68A6.22,6.22,0,0,0,56,72.65Zm6.19-5.2V76h-1.5V69.31L59,70V68.69l3-1.24Zm7.36,6.22A2.7,2.7,0,0,1,69.22,75a2.12,2.12,0,0,1-.86.82,2.59,2.59,0,0,1-1.23.28,2.63,2.63,0,0,1-1.24-.28A2.06,2.06,0,0,1,65,75a2.6,2.6,0,0,1-.32-1.35,2.47,2.47,0,0,1,.18-1,2.15,2.15,0,0,1,.5-.75,2.31,2.31,0,0,1,.76-.49,2.78,2.78,0,0,1,1-.17,2.53,2.53,0,0,1,1.24.3,2.21,2.21,0,0,1,.86.83A2.42,2.42,0,0,1,69.53,73.67Zm-1.5-.1a1.86,1.86,0,0,0-.12-.7,1,1,0,0,0-.31-.46.75.75,0,0,0-.48-.16.76.76,0,0,0-.49.16,1.13,1.13,0,0,0-.31.46,2.11,2.11,0,0,0-.1.7,2,2,0,0,0,.1.69,1.08,1.08,0,0,0,.32.45.79.79,0,0,0,.49.15.81.81,0,0,0,.49-.15,1,1,0,0,0,.3-.45A2,2,0,0,0,68,73.57Zm1.36-3.85a2.17,2.17,0,0,1-.3,1.15,2,2,0,0,1-.79.78,2.36,2.36,0,0,1-1.17.28A2.42,2.42,0,0,1,66,71.65a2.09,2.09,0,0,1-.81-.78,2.28,2.28,0,0,1-.28-1.15,2.56,2.56,0,0,1,.29-1.29,1.9,1.9,0,0,1,.8-.81,2.69,2.69,0,0,1,2.35,0,1.9,1.9,0,0,1,.8.81A2.67,2.67,0,0,1,69.39,69.72Zm-1.51.07a2,2,0,0,0-.09-.62.89.89,0,0,0-.25-.41.67.67,0,0,0-.83,0,.94.94,0,0,0-.26.41,2.25,2.25,0,0,0,0,1.26.89.89,0,0,0,.26.42.58.58,0,0,0,.42.16.56.56,0,0,0,.41-.16.88.88,0,0,0,.25-.42A2,2,0,0,0,67.88,69.79Z"></path></svg>