<svg xmlns="http://www.w3.org/2000/svg" id="Layer_1" data-name="Layer 1" viewBox="0 0 159.1 159"><defs><style>.cls-1{fill:#fff;}</style></defs><path class="cls-1" d="M44.38,70.5a1.61,1.61,0,1,1-1.61,1.61,1.61,1.61,0,0,1,1.61-1.61"></path><path class="cls-1" d="M70.61,94.64H60.47V80.16a1.61,1.61,0,1,0-3.22,0V94.64h-8V89.81A1.52,1.52,0,0,0,47.6,88.2H42.77a1.61,1.61,0,0,1-1.61-1.61V79.35a1.71,1.71,0,0,0-1.44-1.61l-1.78-.32L40.84,74a1.35,1.35,0,0,0,.32-1.12V69.7a1.51,1.51,0,0,0-1.6-1.61,1.62,1.62,0,0,0-1.62,1.61v2.57l-4.5,5.31a2,2,0,0,0-.32,1.61,2.23,2.23,0,0,0,1.29,1.13l3.37.48v5.79a5,5,0,0,0,5,5h3.06V94.8H32.47A9.17,9.17,0,0,0,23.3,104a1.61,1.61,0,0,0,3.22,0,5.94,5.94,0,0,1,5.95-6H70.61v-.16a5.93,5.93,0,0,1,6,6,1.61,1.61,0,1,0,3.22,0,9.17,9.17,0,0,0-9.17-9.17"></path><path class="cls-1" d="M58.86,72.11a1.52,1.52,0,0,0-1.61,1.61v1.61a1.61,1.61,0,0,0,3.22,0V73.72a1.52,1.52,0,0,0-1.61-1.61"></path><path class="cls-1" d="M60.31,63.42A12,12,0,0,0,49.37,56h-.16a11.92,11.92,0,0,0-11.1,7.4A1.58,1.58,0,1,0,41,64.71a9.17,9.17,0,0,1,8.21-5.47h.16a8.83,8.83,0,0,1,7.88,5.15v4.5a1.61,1.61,0,0,0,3.22,0V64.07a1,1,0,0,0-.16-.65"></path><path class="cls-1" d="M18.64,123.6A1.61,1.61,0,1,1,17,125.21a1.61,1.61,0,0,1,1.61-1.61"></path><path class="cls-1" d="M41.65,147.73H34.73V133.26a1.61,1.61,0,1,0-3.22,0v14.47h-8v-5.46a1.53,1.53,0,0,0-1.62-1.62H16.38c-.32,0-1-.64-1-1.6v-7.41a1.51,1.51,0,0,0-1.61-1.6h-1l2.42-3.87a2,2,0,0,0,.16-1V122a1.52,1.52,0,0,0-1.61-1.61A1.61,1.61,0,0,0,12.2,122v2.74l-3.86,6a1.47,1.47,0,0,0,0,1.61,1.85,1.85,0,0,0,1.45,1H12.2v5.63c0,2.57,1.93,5.63,4.18,5.63h3.87v3.21H10.11a9.49,9.49,0,0,0-9.17,9.66A1.52,1.52,0,0,0,2.55,159a1.53,1.53,0,0,0,1.61-1.61c0-3.38,2.73-6.44,5.95-6.44H41.65c3.22,0,6,3.06,6,6.44a1.61,1.61,0,0,0,3.22,0,9.5,9.5,0,0,0-9.17-9.66"></path><path class="cls-1" d="M33.12,125.21a1.52,1.52,0,0,0-1.61,1.61v1.61a1.61,1.61,0,1,0,3.22,0v-1.61a1.52,1.52,0,0,0-1.61-1.61"></path><path class="cls-1" d="M34.57,116.52a12.13,12.13,0,0,0-10.95-7.4h-.16a11.93,11.93,0,0,0-11.1,7.4,1.59,1.59,0,0,0,2.9,1.29,9.17,9.17,0,0,1,8.2-5.47h.16a8.87,8.87,0,0,1,7.89,5.14V122a1.61,1.61,0,0,0,3.22,0v-4.83a1,1,0,0,0-.16-.64"></path><path class="cls-1" d="M52.43,99.46a1.52,1.52,0,0,0-1.61,1.61v3.22a1.61,1.61,0,1,0,3.21,0v-3.22a1.52,1.52,0,0,0-1.6-1.61"></path><path class="cls-1" d="M26.68,152.56a1.52,1.52,0,0,0-1.61,1.61v3.22a1.61,1.61,0,0,0,3.22,0v-3.22a1.52,1.52,0,0,0-1.61-1.61"></path><path class="cls-1" d="M71.73,123.6a1.61,1.61,0,1,1-1.6,1.61,1.61,1.61,0,0,1,1.6-1.61"></path><path class="cls-1" d="M94.74,147.73H87.82V133.26a1.61,1.61,0,1,0-3.21,0v14.47h-8v-5.46A1.52,1.52,0,0,0,75,140.65H69.48c-.32,0-1-.64-1-1.6v-7.41a1.52,1.52,0,0,0-1.61-1.6h-1l2.42-3.87a2,2,0,0,0,.16-1V122a1.53,1.53,0,0,0-1.61-1.61A1.61,1.61,0,0,0,65.3,122v2.74l-3.86,6a1.43,1.43,0,0,0,0,1.61,1.68,1.68,0,0,0,1.45.8H65.3v5.63c0,2.58,1.93,5.64,4.18,5.64h3.86v3.21H63.21A9.5,9.5,0,0,0,54,157.23a1.61,1.61,0,1,0,3.22,0c0-3.38,2.74-6.44,6-6.44H94.74c3.22,0,6,3.06,6,6.44a1.61,1.61,0,1,0,3.22,0,9.45,9.45,0,0,0-9.17-9.5"></path><path class="cls-1" d="M86.22,125.21a1.52,1.52,0,0,0-1.61,1.61v1.61a1.61,1.61,0,1,0,3.21,0v-1.61a1.51,1.51,0,0,0-1.6-1.61"></path><path class="cls-1" d="M87.66,116.52a12.12,12.12,0,0,0-10.94-7.4h-.16a11.92,11.92,0,0,0-11.1,7.4,1.58,1.58,0,0,0,2.89,1.29,9.17,9.17,0,0,1,8.21-5.47h.16a8.84,8.84,0,0,1,7.88,5.14V122a1.61,1.61,0,1,0,3.22,0v-4.83a1,1,0,0,0-.16-.64"></path><path class="cls-1" d="M79.78,152.56a1.52,1.52,0,0,0-1.61,1.61v3.22a1.61,1.61,0,0,0,3.22,0v-3.22a1.52,1.52,0,0,0-1.61-1.61"></path><path class="cls-1" d="M126,123.6a1.61,1.61,0,1,1-1.61,1.61A1.6,1.6,0,0,1,126,123.6"></path><path class="cls-1" d="M149,147.73h-6.92V133.26a1.61,1.61,0,1,0-3.22,0v14.47h-8v-5.46a1.53,1.53,0,0,0-1.62-1.62h-5.47c-.32,0-1-.64-1-1.6v-7.41a1.51,1.51,0,0,0-1.61-1.6h-1l2.42-3.87a2,2,0,0,0,.16-1V122a1.52,1.52,0,0,0-1.61-1.61,1.61,1.61,0,0,0-1.61,1.61v2.74l-3.86,6a1.47,1.47,0,0,0,0,1.61,1.68,1.68,0,0,0,1.45.8h2.41v5.63c0,2.58,1.93,5.64,4.18,5.64h3.87v3.21H117.46a9.49,9.49,0,0,0-9.17,9.66,1.61,1.61,0,0,0,3.22,0c0-3.38,2.73-6.44,5.95-6.44H149c3.22,0,5.95,3.06,5.95,6.44a1.61,1.61,0,0,0,3.22,0,9.46,9.46,0,0,0-9.17-9.5"></path><path class="cls-1" d="M140.47,125.21a1.52,1.52,0,0,0-1.61,1.61v1.61a1.61,1.61,0,0,0,3.22,0v-1.61a1.52,1.52,0,0,0-1.61-1.61"></path><path class="cls-1" d="M141.92,116.52a12.13,12.13,0,0,0-10.95-7.4h-.16a11.93,11.93,0,0,0-11.1,7.4,1.59,1.59,0,0,0,2.9,1.29,9.17,9.17,0,0,1,8.2-5.47H131a8.87,8.87,0,0,1,7.89,5.14V122a1.61,1.61,0,0,0,3.22,0v-4.83a1,1,0,0,0-.16-.64"></path><path class="cls-1" d="M134,152.56a1.52,1.52,0,0,0-1.61,1.61v3.22a1.61,1.61,0,0,0,3.22,0v-3.22a1.52,1.52,0,0,0-1.61-1.61"></path><path class="cls-1" d="M101.74,70.18a1.61,1.61,0,1,1-1.6,1.61,1.61,1.61,0,0,1,1.6-1.61"></path><path class="cls-1" d="M124.75,94.32h-6.92V79.84a1.61,1.61,0,1,0-3.21,0V94.32h-8.05V88.85A1.52,1.52,0,0,0,105,87.24H99.49c-.32,0-1-.65-1-1.61v-7.4a1.52,1.52,0,0,0-1.62-1.61H96l2.42-3.86a2.09,2.09,0,0,0,.16-1V68.57A1.52,1.52,0,0,0,96.91,67a1.6,1.6,0,0,0-1.6,1.6v2.74l-3.86,6a1.43,1.43,0,0,0,0,1.61,1.69,1.69,0,0,0,1.45.81h2.41v5.63c0,2.57,1.93,5.63,4.18,5.63h3.86v3.22H93.22A9.49,9.49,0,0,0,84,103.81a1.61,1.61,0,0,0,3.22,0c0-3.38,2.74-6.44,6-6.44h31.53c3.22,0,5.95,3.06,5.95,6.44a1.61,1.61,0,1,0,3.22,0,9.44,9.44,0,0,0-9.17-9.49"></path><path class="cls-1" d="M116.22,71.79a1.51,1.51,0,0,0-1.6,1.61V75a1.61,1.61,0,1,0,3.21,0V73.4a1.52,1.52,0,0,0-1.61-1.61"></path><path class="cls-1" d="M117.67,63.1a12.12,12.12,0,0,0-10.94-7.4h-.16a11.92,11.92,0,0,0-11.1,7.4,1.61,1.61,0,0,0,.8,2.1,1.59,1.59,0,0,0,2.09-.81,9.17,9.17,0,0,1,8.21-5.47h.16a8.83,8.83,0,0,1,7.88,5.15v4.5a1.61,1.61,0,1,0,3.22,0V63.74a1,1,0,0,0-.16-.64"></path><path class="cls-1" d="M109.79,99.14a1.52,1.52,0,0,0-1.61,1.61V104a1.61,1.61,0,1,0,3.22,0v-3.22a1.53,1.53,0,0,0-1.61-1.61"></path><path class="cls-1" d="M71.73,14.48a1.61,1.61,0,1,1-1.6,1.61,1.61,1.61,0,0,1,1.6-1.61"></path><path class="cls-1" d="M94.74,38.62H87.82V24.14a1.61,1.61,0,1,0-3.21,0V38.62h-8V33.15A1.52,1.52,0,0,0,75,31.54H69.48c-.32,0-1-.65-1-1.61v-7.4a1.52,1.52,0,0,0-1.61-1.61h-1l2.42-3.86a2.07,2.07,0,0,0,.16-1V12.87a1.52,1.52,0,0,0-1.61-1.6,1.61,1.61,0,0,0-1.61,1.6v2.74l-3.86,5.95a1.43,1.43,0,0,0,0,1.61,1.69,1.69,0,0,0,1.45.81H65.3v5.63c0,2.57,1.93,5.63,4.18,5.63h3.86v3.22H63.21A9.49,9.49,0,0,0,54,48.11a1.61,1.61,0,1,0,3.22,0c0-3.38,2.74-6.43,6-6.43H94.74c3.22,0,6,3,6,6.43a1.61,1.61,0,1,0,3.22,0,9.44,9.44,0,0,0-9.17-9.49"></path><path class="cls-1" d="M86.22,16.09a1.52,1.52,0,0,0-1.61,1.61v1.61a1.61,1.61,0,1,0,3.21,0V17.7a1.51,1.51,0,0,0-1.6-1.61"></path><path class="cls-1" d="M87.66,7.4A12.12,12.12,0,0,0,76.72,0h-.16a11.92,11.92,0,0,0-11.1,7.4,1.61,1.61,0,0,0,.8,2.1,1.59,1.59,0,0,0,2.09-.81,9.17,9.17,0,0,1,8.21-5.47h.16A8.83,8.83,0,0,1,84.6,8.37v4.5a1.61,1.61,0,1,0,3.22,0V8.05a1,1,0,0,0-.16-.65"></path><path class="cls-1" d="M79.78,43.44a1.52,1.52,0,0,0-1.61,1.61v3.22a1.61,1.61,0,0,0,3.22,0V45.05a1.53,1.53,0,0,0-1.61-1.61"></path></svg>