<svg xmlns="http://www.w3.org/2000/svg" id="Layer_1" data-name="Layer 1" viewBox="0 0 431.86 330.4"><defs><style>.cls-1{fill:#f8f8f8;}.cls-2{isolation:isolate;}.cls-3{fill:#4d4d4f;}.cls-4{fill:none;stroke:#f68723;stroke-miterlimit:10;}</style></defs><rect id="Rectangle_24" data-name="Rectangle 24" class="cls-1" x="15.93" y="11.69" width="400" height="307.01" rx="16.54"></rect><g id="Public_Digital_Platform" data-name="Public Digital Platform" class="cls-2"><g class="cls-2"><path class="cls-3" d="M161.77,69a5.16,5.16,0,0,1-1.69,4.14,7.24,7.24,0,0,1-4.82,1.43h-1.52v6h-3.56V63.73h5.36A7.17,7.17,0,0,1,160.18,65,4.79,4.79,0,0,1,161.77,69Zm-8,2.66h1.17a3.9,3.9,0,0,0,2.45-.65,2.25,2.25,0,0,0,.82-1.89,2.33,2.33,0,0,0-.68-1.84,3.2,3.2,0,0,0-2.14-.6h-1.62Z"></path><path class="cls-3" d="M173.74,80.5l-.47-1.64h-.18a3.77,3.77,0,0,1-1.59,1.38,5.56,5.56,0,0,1-2.36.49,4.49,4.49,0,0,1-3.4-1.21A4.86,4.86,0,0,1,164.59,76V67.67h3.5v7.49a3.62,3.62,0,0,0,.49,2.09,1.81,1.81,0,0,0,1.57.69,2.39,2.39,0,0,0,2.13-1,6.14,6.14,0,0,0,.65-3.25v-6h3.5V80.5Z"></path><path class="cls-3" d="M187.23,67.43a4.15,4.15,0,0,1,3.56,1.77,8.15,8.15,0,0,1,1.28,4.86A8,8,0,0,1,190.75,79a4.62,4.62,0,0,1-7.15.11h-.24l-.59,1.41H180.1V62.65h3.5V66.8c0,.53,0,1.37-.14,2.54h.14A4,4,0,0,1,187.23,67.43Zm-1.12,2.8a2.2,2.2,0,0,0-1.89.8,4.51,4.51,0,0,0-.62,2.63V74a5.4,5.4,0,0,0,.61,3,2.18,2.18,0,0,0,1.94.89,2,2,0,0,0,1.72-1,5.39,5.39,0,0,0,.64-2.88,5.05,5.05,0,0,0-.65-2.84A2,2,0,0,0,186.11,70.23Z"></path><path class="cls-3" d="M198.46,80.5H195V62.65h3.49Z"></path><path class="cls-3" d="M202,64.36c0-1.14.63-1.71,1.9-1.71s1.9.57,1.9,1.71a1.71,1.71,0,0,1-.47,1.27,2,2,0,0,1-1.43.45C202.62,66.08,202,65.51,202,64.36Zm3.64,16.14h-3.5V67.67h3.5Z"></path><path class="cls-3" d="M214.51,80.73q-6,0-6-6.58a7,7,0,0,1,1.63-5,6.12,6.12,0,0,1,4.67-1.73,8.9,8.9,0,0,1,4,.87l-1,2.71c-.55-.22-1.06-.4-1.54-.54a4.67,4.67,0,0,0-1.42-.22c-1.82,0-2.73,1.3-2.73,3.88s.91,3.76,2.73,3.76a6.21,6.21,0,0,0,1.87-.27,6.82,6.82,0,0,0,1.72-.84v3a5.69,5.69,0,0,1-1.71.75A9.55,9.55,0,0,1,214.51,80.73Z"></path><path class="cls-3" d="M241.67,72a8.28,8.28,0,0,1-2.35,6.35c-1.58,1.46-3.84,2.2-6.81,2.2h-4.75V63.73H233a8.88,8.88,0,0,1,6.38,2.16A8,8,0,0,1,241.67,72ZM238,72q0-5.4-4.77-5.4h-1.89V77.56h1.52Q238,77.56,238,72Z"></path><path class="cls-3" d="M244.72,64.36c0-1.14.64-1.71,1.91-1.71s1.9.57,1.9,1.71a1.71,1.71,0,0,1-.47,1.27,2,2,0,0,1-1.43.45C245.36,66.08,244.72,65.51,244.72,64.36Zm3.65,16.14h-3.5V67.67h3.5Z"></path><path class="cls-3" d="M263.2,67.67v1.78l-2,.52a3.53,3.53,0,0,1,.55,1.92,3.89,3.89,0,0,1-1.44,3.22,6.23,6.23,0,0,1-4,1.16l-.63,0-.52-.06a1.17,1.17,0,0,0-.54.92c0,.51.65.76,1.93.76h2.18a5,5,0,0,1,3.22.9,3.26,3.26,0,0,1,1.11,2.67,3.94,3.94,0,0,1-1.88,3.48,9.75,9.75,0,0,1-5.39,1.24,7.5,7.5,0,0,1-4.1-.93,3,3,0,0,1-1.41-2.62,2.74,2.74,0,0,1,.72-1.94,4.17,4.17,0,0,1,2.12-1.12,2.31,2.31,0,0,1-.94-.75,1.76,1.76,0,0,1-.4-1.1,1.84,1.84,0,0,1,.42-1.23,5.2,5.2,0,0,1,1.23-1,3.5,3.5,0,0,1-1.6-1.4,4.31,4.31,0,0,1-.59-2.27,4,4,0,0,1,1.37-3.25,5.87,5.87,0,0,1,3.9-1.15,11,11,0,0,1,1.27.1l1,.14Zm-9.89,14.64a1.28,1.28,0,0,0,.69,1.14,3.86,3.86,0,0,0,1.94.41,6.78,6.78,0,0,0,2.95-.52A1.57,1.57,0,0,0,260,81.93a1,1,0,0,0-.63-1,5.25,5.25,0,0,0-1.95-.27h-1.81a2.79,2.79,0,0,0-1.62.45A1.39,1.39,0,0,0,253.31,82.31Zm1.27-10.44a2.63,2.63,0,0,0,.47,1.65,1.74,1.74,0,0,0,1.46.61,1.67,1.67,0,0,0,1.44-.61,2.63,2.63,0,0,0,.46-1.65c0-1.54-.63-2.32-1.9-2.32S254.58,70.33,254.58,71.87Z"></path><path class="cls-3" d="M265.17,64.36c0-1.14.63-1.71,1.9-1.71s1.9.57,1.9,1.71a1.68,1.68,0,0,1-.47,1.27,2,2,0,0,1-1.43.45C265.8,66.08,265.17,65.51,265.17,64.36Zm3.64,16.14h-3.49V67.67h3.49Z"></path><path class="cls-3" d="M277.89,77.94a7.51,7.51,0,0,0,2.2-.4v2.6a7.83,7.83,0,0,1-3.21.59,4,4,0,0,1-3.06-1.06,4.63,4.63,0,0,1-1-3.19V70.3h-1.67V68.82l1.92-1.17,1-2.71h2.24v2.73H280V70.3h-3.59v6.18a1.35,1.35,0,0,0,.42,1.1A1.65,1.65,0,0,0,277.89,77.94Z"></path><path class="cls-3" d="M290.83,80.5l-.68-1.75h-.09a5.19,5.19,0,0,1-1.82,1.55,6,6,0,0,1-2.44.43,3.93,3.93,0,0,1-2.91-1.06,4.06,4.06,0,0,1-1.06-3,3.38,3.38,0,0,1,1.43-3,8.25,8.25,0,0,1,4.31-1.08l2.22-.07V72a1.74,1.74,0,0,0-2-2,9.12,9.12,0,0,0-3.62.93L283,68.57a10.43,10.43,0,0,1,4.91-1.16,6.1,6.1,0,0,1,3.95,1.12A4.15,4.15,0,0,1,293.27,72V80.5Zm-1-5.94-1.35,0a4.39,4.39,0,0,0-2.27.55,1.73,1.73,0,0,0-.75,1.54c0,1,.57,1.48,1.7,1.48a2.7,2.7,0,0,0,1.95-.7,2.49,2.49,0,0,0,.72-1.86Z"></path><path class="cls-3" d="M300.37,80.5h-3.5V62.65h3.5Z"></path></g><g class="cls-2"><path class="cls-3" d="M161.77,99a5.16,5.16,0,0,1-1.69,4.14,7.24,7.24,0,0,1-4.82,1.43h-1.52v6h-3.56V93.73h5.36A7.17,7.17,0,0,1,160.18,95,4.79,4.79,0,0,1,161.77,99Zm-8,2.66h1.17a3.9,3.9,0,0,0,2.45-.65,2.25,2.25,0,0,0,.82-1.89,2.33,2.33,0,0,0-.68-1.84,3.2,3.2,0,0,0-2.14-.6h-1.62Z"></path><path class="cls-3" d="M168.16,110.5h-3.5V92.65h3.5Z"></path><path class="cls-3" d="M180,110.5l-.67-1.75h-.1a5.16,5.16,0,0,1-1.81,1.55,6,6,0,0,1-2.44.43,3.93,3.93,0,0,1-2.91-1.06,4,4,0,0,1-1.06-3,3.38,3.38,0,0,1,1.43-3,8.24,8.24,0,0,1,4.3-1.08l2.23-.07V102a1.74,1.74,0,0,0-2-2,9.12,9.12,0,0,0-3.61.93l-1.16-2.36a10.46,10.46,0,0,1,4.91-1.16,6.13,6.13,0,0,1,4,1.12,4.15,4.15,0,0,1,1.38,3.42v8.55Zm-1-5.94-1.35,0a4.36,4.36,0,0,0-2.27.55,1.73,1.73,0,0,0-.75,1.54c0,1,.57,1.48,1.7,1.48a2.66,2.66,0,0,0,1.94-.7,2.46,2.46,0,0,0,.73-1.86Z"></path><path class="cls-3" d="M191.42,107.94a7.46,7.46,0,0,0,2.2-.4v2.6a7.83,7.83,0,0,1-3.21.59,4,4,0,0,1-3.06-1.06,4.68,4.68,0,0,1-.95-3.19V100.3h-1.68V98.82l1.93-1.17,1-2.71h2.24v2.73h3.59v2.63H189.9v6.18a1.34,1.34,0,0,0,.41,1.1A1.65,1.65,0,0,0,191.42,107.94Z"></path><path class="cls-3" d="M203.3,100.3h-3v10.2h-3.5V100.3h-1.93V98.61l1.93-.94v-.94a4.21,4.21,0,0,1,1.08-3.2,4.94,4.94,0,0,1,3.45-1,9,9,0,0,1,3.22.54l-.89,2.57a6.64,6.64,0,0,0-1.95-.33,1.27,1.27,0,0,0-1.08.44,1.83,1.83,0,0,0-.33,1.13v.8h3Z"></path><path class="cls-3" d="M217,104.06a6.91,6.91,0,0,1-1.66,4.9,6,6,0,0,1-4.6,1.77,6.4,6.4,0,0,1-3.25-.81,5.41,5.41,0,0,1-2.17-2.32,7.76,7.76,0,0,1-.76-3.54,6.86,6.86,0,0,1,1.64-4.88,6,6,0,0,1,4.61-1.75,6.44,6.44,0,0,1,3.26.81,5.36,5.36,0,0,1,2.17,2.3A7.8,7.8,0,0,1,217,104.06Zm-8.87,0a5.45,5.45,0,0,0,.62,2.88,2.25,2.25,0,0,0,2,1,2.21,2.21,0,0,0,2-1,5.47,5.47,0,0,0,.62-2.89,5.29,5.29,0,0,0-.62-2.85,2.62,2.62,0,0,0-4.05,0A5.33,5.33,0,0,0,208.1,104.06Z"></path><path class="cls-3" d="M227,97.43a5.6,5.6,0,0,1,1.19.11l-.27,3.28a3.83,3.83,0,0,0-1-.12,3.72,3.72,0,0,0-2.61.86,3.13,3.13,0,0,0-.93,2.41v6.53h-3.5V97.67h2.65l.51,2.16h.17a4.83,4.83,0,0,1,1.62-1.74A3.94,3.94,0,0,1,227,97.43Z"></path><path class="cls-3" d="M242,110.5h-3.5V103a3.74,3.74,0,0,0-.47-2.08,1.61,1.61,0,0,0-1.46-.7,2.13,2.13,0,0,0-2,1,6.52,6.52,0,0,0-.61,3.24v6h-3.5V97.67h2.68l.47,1.64h.19a3.56,3.56,0,0,1,1.49-1.38,4.89,4.89,0,0,1,2.24-.5c1.92,0,3.22.63,3.9,1.88h.31a3.41,3.41,0,0,1,1.52-1.38,5.05,5.05,0,0,1,2.27-.5,4.47,4.47,0,0,1,3.29,1.12,4.9,4.9,0,0,1,1.12,3.59v8.36h-3.51V103a3.75,3.75,0,0,0-.46-2.08,1.63,1.63,0,0,0-1.47-.7,2.2,2.2,0,0,0-1.92.92,5.23,5.23,0,0,0-.63,2.91Z"></path></g></g><g id="Foundational_national_scale_infra_that_is_low_cost_highly_accessible_and_high_quality" data-name="Foundational national scale infra that is low cost highly accessible and high quality" class="cls-2"><g class="cls-2"><path d="M50.37,196.34H48.54V180.63H57.3v1.62H50.37V188h6.51v1.62H50.37Z"></path><path d="M69.79,190.44a6.45,6.45,0,0,1-1.45,4.49,5.08,5.08,0,0,1-4,1.62,5.36,5.36,0,0,1-2.81-.74,4.92,4.92,0,0,1-1.89-2.13,7.44,7.44,0,0,1-.66-3.24A6.49,6.49,0,0,1,60.41,186a5.1,5.1,0,0,1,4-1.6A5,5,0,0,1,68.34,186,6.48,6.48,0,0,1,69.79,190.44Zm-9,0a5.55,5.55,0,0,0,.91,3.44,3.58,3.58,0,0,0,5.31,0,5.58,5.58,0,0,0,.91-3.44A5.5,5.5,0,0,0,67,187a3.64,3.64,0,0,0-5.33,0A5.58,5.58,0,0,0,60.82,190.44Z"></path><path d="M74.59,184.56v7.64a3.06,3.06,0,0,0,.66,2.15,2.68,2.68,0,0,0,2,.71,3.36,3.36,0,0,0,2.7-1,5.08,5.08,0,0,0,.86-3.3v-6.19h1.78v11.78H81.17l-.26-1.58h-.1a3.52,3.52,0,0,1-1.52,1.33,5,5,0,0,1-2.21.46,4.49,4.49,0,0,1-3.22-1,4.35,4.35,0,0,1-1.07-3.26v-7.71Z"></path><path d="M94.48,196.34v-7.62a3.06,3.06,0,0,0-.66-2.15,2.67,2.67,0,0,0-2-.71,3.42,3.42,0,0,0-2.71,1,5.08,5.08,0,0,0-.86,3.3v6.18H86.42V184.56h1.45l.29,1.61h.09a3.51,3.51,0,0,1,1.53-1.34,5,5,0,0,1,2.21-.48,4.5,4.5,0,0,1,3.2,1,4.41,4.41,0,0,1,1.07,3.29v7.68Z"></path><path d="M107.94,194.76h-.1a4.19,4.19,0,0,1-3.69,1.79,4.4,4.4,0,0,1-3.6-1.58,7,7,0,0,1-1.28-4.49,7.05,7.05,0,0,1,1.29-4.52,4.34,4.34,0,0,1,3.59-1.61,4.28,4.28,0,0,1,3.67,1.74H108l-.08-.85,0-.83v-4.79h1.78v16.72h-1.45Zm-3.57.3a3.23,3.23,0,0,0,2.65-1,5,5,0,0,0,.82-3.2v-.38a5.93,5.93,0,0,0-.83-3.57,3.18,3.18,0,0,0-2.66-1.07,2.72,2.72,0,0,0-2.4,1.22,6,6,0,0,0-.83,3.44,5.84,5.84,0,0,0,.82,3.41A2.8,2.8,0,0,0,104.37,195.06Z"></path><path d="M120.65,196.34l-.36-1.68h-.08a5,5,0,0,1-1.76,1.5,5.37,5.37,0,0,1-2.19.39,3.93,3.93,0,0,1-2.74-.9,3.3,3.3,0,0,1-1-2.57c0-2.38,1.9-3.62,5.7-3.74l2-.06v-.73a3,3,0,0,0-.6-2.05,2.46,2.46,0,0,0-1.91-.66,7.79,7.79,0,0,0-3.33.9l-.54-1.36a8.16,8.16,0,0,1,1.9-.74,8.25,8.25,0,0,1,2.08-.27,4.48,4.48,0,0,1,3.12.93,3.91,3.91,0,0,1,1,3v8Zm-4-1.26a3.63,3.63,0,0,0,2.61-.91,3.36,3.36,0,0,0,1-2.56v-1.06l-1.78.07a6.51,6.51,0,0,0-3.07.66,2,2,0,0,0-.94,1.82,1.82,1.82,0,0,0,.59,1.47A2.42,2.42,0,0,0,116.62,195.08Z"></path><path d="M129.44,195.08a5.53,5.53,0,0,0,.92-.07c.29,0,.52-.1.7-.15v1.37a3.45,3.45,0,0,1-.86.23,6.39,6.39,0,0,1-1,.09q-3.42,0-3.42-3.6v-7h-1.69v-.86l1.69-.74.75-2.52h1v2.73H131V186h-3.42v6.93a2.36,2.36,0,0,0,.51,1.63A1.76,1.76,0,0,0,129.44,195.08Z"></path><path d="M133.26,181.37a1.21,1.21,0,0,1,.3-.9,1.09,1.09,0,0,1,.75-.28,1.06,1.06,0,0,1,.74.29,1.15,1.15,0,0,1,.31.89,1.19,1.19,0,0,1-.31.9,1.1,1.1,0,0,1-1.49,0A1.22,1.22,0,0,1,133.26,181.37Zm1.93,15h-1.78V184.56h1.78Z"></path><path d="M149.13,190.44a6.45,6.45,0,0,1-1.45,4.49,5.08,5.08,0,0,1-4,1.62,5.36,5.36,0,0,1-2.81-.74,4.92,4.92,0,0,1-1.89-2.13,7.44,7.44,0,0,1-.66-3.24,6.49,6.49,0,0,1,1.44-4.49,5.08,5.08,0,0,1,4-1.6,5,5,0,0,1,3.93,1.64A6.48,6.48,0,0,1,149.13,190.44Zm-9,0a5.62,5.62,0,0,0,.91,3.44,3.58,3.58,0,0,0,5.31,0,5.58,5.58,0,0,0,.91-3.44,5.5,5.5,0,0,0-.91-3.41,3.19,3.19,0,0,0-2.68-1.17,3.14,3.14,0,0,0-2.64,1.15A5.51,5.51,0,0,0,140.16,190.44Z"></path><path d="M160.32,196.34v-7.62a3.06,3.06,0,0,0-.66-2.15,2.67,2.67,0,0,0-2-.71,3.42,3.42,0,0,0-2.71,1,5.08,5.08,0,0,0-.86,3.3v6.18h-1.78V184.56h1.45l.29,1.61h.09a3.51,3.51,0,0,1,1.53-1.34,5,5,0,0,1,2.2-.48,4.52,4.52,0,0,1,3.21,1,4.41,4.41,0,0,1,1.07,3.29v7.68Z"></path><path d="M173,196.34l-.35-1.68h-.09a4.88,4.88,0,0,1-1.75,1.5,5.43,5.43,0,0,1-2.19.39,3.92,3.92,0,0,1-2.74-.9,3.27,3.27,0,0,1-1-2.57c0-2.38,1.9-3.62,5.71-3.74l2-.06v-.73a3,3,0,0,0-.59-2.05,2.46,2.46,0,0,0-1.91-.66,7.79,7.79,0,0,0-3.33.9l-.55-1.36a8.64,8.64,0,0,1,4-1,4.51,4.51,0,0,1,3.12.93,3.91,3.91,0,0,1,1,3v8Zm-4-1.26a3.63,3.63,0,0,0,2.61-.91,3.36,3.36,0,0,0,.95-2.56v-1.06l-1.78.07a6.51,6.51,0,0,0-3.07.66,2,2,0,0,0-.94,1.82,1.82,1.82,0,0,0,.59,1.47A2.4,2.4,0,0,0,169,195.08Z"></path><path d="M179.78,196.34H178V179.62h1.78Z"></path><path d="M197.33,196.34v-7.62a3.06,3.06,0,0,0-.65-2.15,2.68,2.68,0,0,0-2.05-.71,3.41,3.41,0,0,0-2.71,1,5.08,5.08,0,0,0-.86,3.3v6.18h-1.78V184.56h1.45l.29,1.61h.08a3.6,3.6,0,0,1,1.54-1.34,5,5,0,0,1,2.2-.48,4.47,4.47,0,0,1,3.2,1,4.37,4.37,0,0,1,1.08,3.29v7.68Z"></path><path d="M210,196.34l-.35-1.68h-.09a4.9,4.9,0,0,1-1.76,1.5,5.35,5.35,0,0,1-2.18.39,4,4,0,0,1-2.75-.9,3.3,3.3,0,0,1-1-2.57c0-2.38,1.9-3.62,5.7-3.74l2-.06v-.73a3,3,0,0,0-.59-2.05,2.47,2.47,0,0,0-1.91-.66,7.79,7.79,0,0,0-3.33.9l-.55-1.36a8.64,8.64,0,0,1,4-1,4.51,4.51,0,0,1,3.12.93,4,4,0,0,1,1,3v8Zm-4-1.26a3.66,3.66,0,0,0,2.62-.91,3.4,3.4,0,0,0,.95-2.56v-1.06l-1.78.07a6.51,6.51,0,0,0-3.07.66,2,2,0,0,0-.94,1.82,1.79,1.79,0,0,0,.59,1.47A2.38,2.38,0,0,0,206,195.08Z"></path><path d="M218.82,195.08a5.41,5.41,0,0,0,.91-.07,6.17,6.17,0,0,0,.7-.15v1.37a3.35,3.35,0,0,1-.85.23,6.61,6.61,0,0,1-1,.09c-2.28,0-3.41-1.2-3.41-3.6v-7h-1.69v-.86l1.69-.74.75-2.52h1v2.73h3.41V186h-3.41v6.93a2.41,2.41,0,0,0,.5,1.63A1.77,1.77,0,0,0,218.82,195.08Z"></path><path d="M222.63,181.37a1.21,1.21,0,0,1,.3-.9,1.09,1.09,0,0,1,.76-.28,1.08,1.08,0,0,1,.74.29,1.18,1.18,0,0,1,.31.89,1.23,1.23,0,0,1-.31.9,1,1,0,0,1-.74.29,1,1,0,0,1-.76-.29A1.22,1.22,0,0,1,222.63,181.37Zm1.94,15h-1.79V184.56h1.79Z"></path><path d="M238.51,190.44a6.45,6.45,0,0,1-1.45,4.49,5.11,5.11,0,0,1-4,1.62,5.35,5.35,0,0,1-2.8-.74,4.8,4.8,0,0,1-1.89-2.13,7.3,7.3,0,0,1-.67-3.24,6.49,6.49,0,0,1,1.44-4.49,5.09,5.09,0,0,1,4-1.6,5,5,0,0,1,3.92,1.64A6.48,6.48,0,0,1,238.51,190.44Zm-9,0a5.62,5.62,0,0,0,.9,3.44,3.16,3.16,0,0,0,2.66,1.18,3.13,3.13,0,0,0,2.65-1.18,5.51,5.51,0,0,0,.91-3.44,5.44,5.44,0,0,0-.91-3.41,3.63,3.63,0,0,0-5.32,0A5.58,5.58,0,0,0,229.54,190.44Z"></path><path d="M249.69,196.34v-7.62a3.11,3.11,0,0,0-.65-2.15,2.68,2.68,0,0,0-2-.71,3.4,3.4,0,0,0-2.71,1,5,5,0,0,0-.86,3.3v6.18h-1.78V184.56h1.45l.29,1.61h.08a3.6,3.6,0,0,1,1.54-1.34,5,5,0,0,1,2.2-.48,4.47,4.47,0,0,1,3.2,1,4.37,4.37,0,0,1,1.08,3.29v7.68Z"></path><path d="M262.38,196.34l-.36-1.68h-.08a4.9,4.9,0,0,1-1.76,1.5,5.35,5.35,0,0,1-2.18.39,3.94,3.94,0,0,1-2.75-.9,3.3,3.3,0,0,1-1-2.57c0-2.38,1.9-3.62,5.7-3.74l2-.06v-.73a3,3,0,0,0-.6-2.05,2.43,2.43,0,0,0-1.9-.66,7.79,7.79,0,0,0-3.33.9l-.55-1.36a8.07,8.07,0,0,1,1.91-.74,8.17,8.17,0,0,1,2.07-.27,4.52,4.52,0,0,1,3.13.93,4,4,0,0,1,1,3v8Zm-4-1.26a3.68,3.68,0,0,0,2.62-.91,3.4,3.4,0,0,0,.95-2.56v-1.06l-1.79.07a6.46,6.46,0,0,0-3.06.66,2,2,0,0,0-.94,1.82,1.82,1.82,0,0,0,.58,1.47A2.42,2.42,0,0,0,258.35,195.08Z"></path><path d="M269.16,196.34h-1.79V179.62h1.79Z"></path><path d="M286.25,193.12a3,3,0,0,1-1.23,2.54,5.76,5.76,0,0,1-3.43.89,7.55,7.55,0,0,1-3.66-.74v-1.65a9.19,9.19,0,0,0,1.82.67,7.43,7.43,0,0,0,1.88.25,4.22,4.22,0,0,0,2.15-.45,1.53,1.53,0,0,0,.15-2.53,9.26,9.26,0,0,0-2.32-1.16,12.33,12.33,0,0,1-2.34-1.06,3.39,3.39,0,0,1-1-1,2.68,2.68,0,0,1-.34-1.39,2.64,2.64,0,0,1,1.17-2.27,5.49,5.49,0,0,1,3.21-.83,9.5,9.5,0,0,1,3.72.77l-.63,1.45a8.5,8.5,0,0,0-3.22-.73,3.65,3.65,0,0,0-1.91.4,1.22,1.22,0,0,0-.64,1.09,1.34,1.34,0,0,0,.24.81,2.37,2.37,0,0,0,.78.63,17.4,17.4,0,0,0,2.06.87,7.62,7.62,0,0,1,2.83,1.54A2.71,2.71,0,0,1,286.25,193.12Z"></path><path d="M293.85,196.55a5,5,0,0,1-4-1.57,6.47,6.47,0,0,1-1.41-4.46,6.66,6.66,0,0,1,1.43-4.56,5.12,5.12,0,0,1,4.05-1.61,8.19,8.19,0,0,1,1.7.18A5.76,5.76,0,0,1,297,185l-.55,1.51a9.85,9.85,0,0,0-1.29-.39,5.86,5.86,0,0,0-1.23-.15q-3.58,0-3.59,4.57a5.39,5.39,0,0,0,.88,3.33,3,3,0,0,0,2.59,1.16,8,8,0,0,0,3-.63v1.58A6.43,6.43,0,0,1,293.85,196.55Z"></path><path d="M306.86,196.34l-.35-1.68h-.09a5,5,0,0,1-1.75,1.5,5.43,5.43,0,0,1-2.19.39,3.92,3.92,0,0,1-2.74-.9,3.27,3.27,0,0,1-1-2.57c0-2.38,1.9-3.62,5.71-3.74l2-.06v-.73a3,3,0,0,0-.59-2.05,2.47,2.47,0,0,0-1.91-.66,7.79,7.79,0,0,0-3.33.9l-.55-1.36a8.64,8.64,0,0,1,4-1,4.51,4.51,0,0,1,3.12.93,3.91,3.91,0,0,1,1,3v8Zm-4-1.26a3.66,3.66,0,0,0,2.62-.91,3.4,3.4,0,0,0,.95-2.56v-1.06l-1.78.07a6.51,6.51,0,0,0-3.07.66,2,2,0,0,0-.94,1.82,1.82,1.82,0,0,0,.59,1.47A2.39,2.39,0,0,0,302.83,195.08Z"></path><path d="M313.64,196.34h-1.78V179.62h1.78Z"></path><path d="M322.4,196.55a5.39,5.39,0,0,1-4.12-1.59,6.13,6.13,0,0,1-1.51-4.41,6.82,6.82,0,0,1,1.4-4.53,4.66,4.66,0,0,1,3.76-1.67,4.45,4.45,0,0,1,3.51,1.45,5.62,5.62,0,0,1,1.28,3.84v1.13h-8.11a4.72,4.72,0,0,0,1.05,3.15,3.61,3.61,0,0,0,2.8,1.07,9.47,9.47,0,0,0,3.76-.79v1.59a9,9,0,0,1-1.79.58A9.86,9.86,0,0,1,322.4,196.55Zm-.49-10.71a2.9,2.9,0,0,0-2.26.93,4.23,4.23,0,0,0-1,2.55h6.15a3.93,3.93,0,0,0-.75-2.58A2.65,2.65,0,0,0,321.91,185.84Z"></path><path d="M335.33,181.37a1.21,1.21,0,0,1,.3-.9,1.09,1.09,0,0,1,.75-.28,1.06,1.06,0,0,1,.74.29,1.15,1.15,0,0,1,.31.89,1.19,1.19,0,0,1-.31.9,1.1,1.1,0,0,1-1.49,0A1.22,1.22,0,0,1,335.33,181.37Zm1.93,15h-1.78V184.56h1.78Z"></path><path d="M349.1,196.34v-7.62a3.11,3.11,0,0,0-.65-2.15,2.71,2.71,0,0,0-2.06-.71,3.39,3.39,0,0,0-2.7,1,5,5,0,0,0-.86,3.3v6.18H341V184.56h1.45l.29,1.61h.09a3.6,3.6,0,0,1,1.54-1.34,5,5,0,0,1,2.2-.48,4.49,4.49,0,0,1,3.2,1,4.37,4.37,0,0,1,1.07,3.29v7.68Z"></path><path d="M359.85,186h-3v10.39h-1.79V186H353v-.81l2.1-.64v-.66c0-2.89,1.27-4.34,3.79-4.34a7.87,7.87,0,0,1,2.2.38l-.47,1.43a5.93,5.93,0,0,0-1.76-.34,1.71,1.71,0,0,0-1.49.68,3.73,3.73,0,0,0-.48,2.15v.76h3Z"></path><path d="M367.37,184.35a6.7,6.7,0,0,1,1.41.13l-.25,1.65a5.81,5.81,0,0,0-1.29-.16,3.15,3.15,0,0,0-2.44,1.16,4.22,4.22,0,0,0-1,2.89v6.32H362V184.56h1.47l.21,2.18h.08a5.37,5.37,0,0,1,1.58-1.77A3.62,3.62,0,0,1,367.37,184.35Z"></path><path d="M378.22,196.34l-.35-1.68h-.09a4.88,4.88,0,0,1-1.75,1.5,5.43,5.43,0,0,1-2.19.39,3.92,3.92,0,0,1-2.74-.9,3.27,3.27,0,0,1-1-2.57c0-2.38,1.9-3.62,5.71-3.74l2-.06v-.73a3,3,0,0,0-.59-2.05,2.47,2.47,0,0,0-1.91-.66,7.79,7.79,0,0,0-3.33.9l-.55-1.36a8.64,8.64,0,0,1,4-1,4.51,4.51,0,0,1,3.12.93,3.91,3.91,0,0,1,1,3v8Zm-4-1.26a3.66,3.66,0,0,0,2.62-.91,3.4,3.4,0,0,0,.95-2.56v-1.06l-1.78.07a6.51,6.51,0,0,0-3.07.66,2,2,0,0,0-.94,1.82,1.82,1.82,0,0,0,.59,1.47A2.39,2.39,0,0,0,374.19,195.08Z"></path></g><g class="cls-2"><path d="M52.08,235.08A5.41,5.41,0,0,0,53,235a6.17,6.17,0,0,0,.7-.15v1.37a3.35,3.35,0,0,1-.85.23,6.61,6.61,0,0,1-1,.09q-3.42,0-3.42-3.6v-7H46.72v-.86l1.68-.74.76-2.52h1v2.73H53.6V226H50.19v6.93a2.41,2.41,0,0,0,.5,1.63A1.77,1.77,0,0,0,52.08,235.08Z"></path><path d="M64.1,236.34v-7.62a3.06,3.06,0,0,0-.66-2.15,2.67,2.67,0,0,0-2-.71,3.37,3.37,0,0,0-2.71,1,5.13,5.13,0,0,0-.85,3.31v6.16H56V219.62h1.79v5.06a10.69,10.69,0,0,1-.09,1.52h.11a3.56,3.56,0,0,1,1.5-1.34,4.76,4.76,0,0,1,2.21-.49,4.56,4.56,0,0,1,3.24,1,4.35,4.35,0,0,1,1.08,3.27v7.68Z"></path><path d="M76.79,236.34l-.36-1.68h-.08a5,5,0,0,1-1.76,1.5,5.37,5.37,0,0,1-2.19.39,3.93,3.93,0,0,1-2.74-.9,3.31,3.31,0,0,1-1-2.57c0-2.38,1.91-3.62,5.71-3.74l2-.06v-.73a3,3,0,0,0-.6-2.05,2.46,2.46,0,0,0-1.91-.66,7.79,7.79,0,0,0-3.33.9L70,225.38a8.16,8.16,0,0,1,1.9-.74,8.25,8.25,0,0,1,2.08-.27,4.49,4.49,0,0,1,3.12.93,3.91,3.91,0,0,1,1,3v8Zm-4-1.26a3.63,3.63,0,0,0,2.61-.91,3.36,3.36,0,0,0,.95-2.56v-1.06l-1.78.07a6.51,6.51,0,0,0-3.07.66,2,2,0,0,0-.94,1.82,1.82,1.82,0,0,0,.59,1.47A2.42,2.42,0,0,0,72.76,235.08Z"></path><path d="M85.58,235.08a5.53,5.53,0,0,0,.92-.07c.29,0,.52-.1.7-.15v1.37a3.45,3.45,0,0,1-.86.23,6.39,6.39,0,0,1-1,.09q-3.42,0-3.42-3.6v-7H80.22v-.86l1.69-.74.75-2.52h1v2.73h3.42V226H83.69v6.93a2.36,2.36,0,0,0,.51,1.63A1.74,1.74,0,0,0,85.58,235.08Z"></path><path d="M95.11,221.37a1.21,1.21,0,0,1,.3-.9,1.13,1.13,0,0,1,1.5,0,1.18,1.18,0,0,1,.31.89,1.23,1.23,0,0,1-.31.9,1,1,0,0,1-.75.29,1,1,0,0,1-.75-.29A1.22,1.22,0,0,1,95.11,221.37Zm1.94,15H95.26V224.56h1.79Z"></path><path d="M108.42,233.12a3,3,0,0,1-1.22,2.54,5.79,5.79,0,0,1-3.44.89,7.51,7.51,0,0,1-3.65-.74v-1.65a8.75,8.75,0,0,0,1.82.67,7.35,7.35,0,0,0,1.87.25,4.22,4.22,0,0,0,2.15-.45,1.54,1.54,0,0,0,.16-2.53,9.57,9.57,0,0,0-2.33-1.16,12.48,12.48,0,0,1-2.33-1.06,3.32,3.32,0,0,1-1-1,2.78,2.78,0,0,1-.34-1.39,2.65,2.65,0,0,1,1.18-2.27,5.49,5.49,0,0,1,3.21-.83,9.45,9.45,0,0,1,3.71.77l-.63,1.45a8.46,8.46,0,0,0-3.21-.73,3.62,3.62,0,0,0-1.91.4,1.23,1.23,0,0,0-.65,1.09,1.34,1.34,0,0,0,.24.81,2.48,2.48,0,0,0,.78.63,17.78,17.78,0,0,0,2.07.87,7.71,7.71,0,0,1,2.83,1.54A2.7,2.7,0,0,1,108.42,233.12Z"></path><path d="M118.82,236.34H117V219.62h1.78Z"></path><path d="M132.76,230.44a6.45,6.45,0,0,1-1.45,4.49,5.08,5.08,0,0,1-4,1.62,5.36,5.36,0,0,1-2.81-.74,4.92,4.92,0,0,1-1.89-2.13,7.44,7.44,0,0,1-.66-3.24,6.49,6.49,0,0,1,1.44-4.49,5.08,5.08,0,0,1,4-1.6,5,5,0,0,1,3.93,1.64A6.48,6.48,0,0,1,132.76,230.44Zm-9,0a5.55,5.55,0,0,0,.91,3.44,3.58,3.58,0,0,0,5.31,0,5.58,5.58,0,0,0,.91-3.44A5.5,5.5,0,0,0,130,227a3.19,3.19,0,0,0-2.68-1.17,3.14,3.14,0,0,0-2.64,1.15A5.51,5.51,0,0,0,123.79,230.44Z"></path><path d="M145.5,236.34l-2.16-6.91c-.13-.42-.39-1.38-.76-2.88h-.08c-.29,1.25-.54,2.22-.76,2.9l-2.22,6.89h-2.06l-3.21-11.78h1.86l1.74,6.76a27.26,27.26,0,0,1,.68,3.13h.09c.08-.41.2-.94.38-1.59s.33-1.16.46-1.54l2.15-6.76h1.94l2.1,6.76a21.38,21.38,0,0,1,.82,3.1h.09a8.92,8.92,0,0,1,.23-1.19c.12-.54.87-3.42,2.24-8.67h1.84l-3.25,11.78Z"></path><path d="M163.42,236.55a5,5,0,0,1-4-1.57,6.51,6.51,0,0,1-1.4-4.46,6.66,6.66,0,0,1,1.43-4.56,5.11,5.11,0,0,1,4-1.61,8.19,8.19,0,0,1,1.7.18,5.76,5.76,0,0,1,1.33.43l-.55,1.51a9.85,9.85,0,0,0-1.29-.39,5.86,5.86,0,0,0-1.23-.15q-3.58,0-3.59,4.57a5.46,5.46,0,0,0,.87,3.33,3,3,0,0,0,2.6,1.16,8,8,0,0,0,3-.63v1.58A6.43,6.43,0,0,1,163.42,236.55Z"></path><path d="M179.35,230.44a6.45,6.45,0,0,1-1.45,4.49,5.08,5.08,0,0,1-4,1.62,5.36,5.36,0,0,1-2.81-.74,4.92,4.92,0,0,1-1.89-2.13,7.44,7.44,0,0,1-.67-3.24A6.49,6.49,0,0,1,170,226a5.1,5.1,0,0,1,4-1.6A5,5,0,0,1,177.9,226,6.48,6.48,0,0,1,179.35,230.44Zm-9,0a5.62,5.62,0,0,0,.9,3.44,3.59,3.59,0,0,0,5.32,0,5.58,5.58,0,0,0,.9-3.44,5.5,5.5,0,0,0-.9-3.41,3.64,3.64,0,0,0-5.33,0A5.58,5.58,0,0,0,170.38,230.44Z"></path><path d="M190.07,233.12a3,3,0,0,1-1.22,2.54,5.79,5.79,0,0,1-3.44.89,7.51,7.51,0,0,1-3.65-.74v-1.65a8.75,8.75,0,0,0,1.82.67,7.35,7.35,0,0,0,1.87.25,4.22,4.22,0,0,0,2.15-.45,1.47,1.47,0,0,0,.75-1.36,1.45,1.45,0,0,0-.59-1.17,9.37,9.37,0,0,0-2.33-1.16,12.48,12.48,0,0,1-2.33-1.06,3.18,3.18,0,0,1-1-1,2.68,2.68,0,0,1-.34-1.39,2.64,2.64,0,0,1,1.17-2.27,5.49,5.49,0,0,1,3.21-.83,9.5,9.5,0,0,1,3.72.77l-.64,1.45a8.46,8.46,0,0,0-3.21-.73,3.65,3.65,0,0,0-1.91.4,1.23,1.23,0,0,0-.65,1.09,1.28,1.28,0,0,0,.25.81,2.43,2.43,0,0,0,.77.63,17.78,17.78,0,0,0,2.07.87,7.71,7.71,0,0,1,2.83,1.54A2.7,2.7,0,0,1,190.07,233.12Z"></path><path d="M196.78,235.08a5.41,5.41,0,0,0,.91-.07,6.7,6.7,0,0,0,.7-.15v1.37a3.45,3.45,0,0,1-.86.23,6.39,6.39,0,0,1-1,.09q-3.42,0-3.42-3.6v-7h-1.68v-.86l1.68-.74.75-2.52h1v2.73h3.41V226h-3.41v6.93a2.36,2.36,0,0,0,.5,1.63A1.77,1.77,0,0,0,196.78,235.08Z"></path><path d="M202.61,233.78l.16.25a25.11,25.11,0,0,1-.81,2.49c-.35.95-.71,1.84-1.09,2.65h-1.34c.19-.74.4-1.66.64-2.76s.39-2,.48-2.63Z"></path><path d="M219.9,236.34v-7.62a3.06,3.06,0,0,0-.65-2.15,2.68,2.68,0,0,0-2.05-.71,3.35,3.35,0,0,0-2.71,1,5.13,5.13,0,0,0-.86,3.31v6.16h-1.78V219.62h1.78v5.06a10.69,10.69,0,0,1-.09,1.52h.11a3.56,3.56,0,0,1,1.5-1.34,4.83,4.83,0,0,1,2.22-.49,4.56,4.56,0,0,1,3.24,1,4.35,4.35,0,0,1,1.08,3.27v7.68Z"></path><path d="M225.2,221.37a1.21,1.21,0,0,1,.3-.9,1.09,1.09,0,0,1,.75-.28,1,1,0,0,1,.74.29,1.15,1.15,0,0,1,.32.89,1.19,1.19,0,0,1-.32.9,1.1,1.1,0,0,1-1.49,0A1.22,1.22,0,0,1,225.2,221.37Zm1.93,15h-1.78V224.56h1.78Z"></path><path d="M240.55,224.56v1.13l-2.18.26a3.88,3.88,0,0,1,.54,1,3.94,3.94,0,0,1,.23,1.37,3.48,3.48,0,0,1-1.18,2.76,4.76,4.76,0,0,1-3.24,1,6.2,6.2,0,0,1-1-.08,1.75,1.75,0,0,0-1.14,1.51.78.78,0,0,0,.4.72,2.94,2.94,0,0,0,1.36.23h2.09a4.69,4.69,0,0,1,2.93.8,2.79,2.79,0,0,1,1,2.34,3.35,3.35,0,0,1-1.57,3,8.41,8.41,0,0,1-4.57,1,6.18,6.18,0,0,1-3.56-.86,2.76,2.76,0,0,1-1.26-2.43,2.71,2.71,0,0,1,.69-1.85,3.48,3.48,0,0,1,1.93-1.07,1.82,1.82,0,0,1-.75-.63,1.65,1.65,0,0,1-.31-1,1.89,1.89,0,0,1,.34-1.13,3.72,3.72,0,0,1,1.09-.93,3.17,3.17,0,0,1-1.49-1.28,4.26,4.26,0,0,1,.59-5.05,4.76,4.76,0,0,1,3.28-1,6.1,6.1,0,0,1,1.67.21Zm-9.39,13.75a1.59,1.59,0,0,0,.81,1.45,4.4,4.4,0,0,0,2.31.5,6.52,6.52,0,0,0,3.32-.67,2.06,2.06,0,0,0,1.08-1.82,1.46,1.46,0,0,0-.59-1.33,4.52,4.52,0,0,0-2.22-.37h-2.14a2.79,2.79,0,0,0-1.89.58A2.06,2.06,0,0,0,231.16,238.31Zm1-10a2.37,2.37,0,0,0,.7,1.87,2.74,2.74,0,0,0,1.94.64,2.28,2.28,0,0,0,2.61-2.54,2.34,2.34,0,0,0-2.64-2.65,2.6,2.6,0,0,0-1.93.67A2.72,2.72,0,0,0,232.13,228.33Z"></path><path d="M251,236.34v-7.62a3.06,3.06,0,0,0-.65-2.15,2.68,2.68,0,0,0-2.05-.71,3.35,3.35,0,0,0-2.71,1,5.13,5.13,0,0,0-.86,3.31v6.16H243V219.62h1.78v5.06a10.69,10.69,0,0,1-.09,1.52h.11a3.56,3.56,0,0,1,1.5-1.34,4.83,4.83,0,0,1,2.22-.49,4.56,4.56,0,0,1,3.24,1,4.35,4.35,0,0,1,1.08,3.27v7.68Z"></path><path d="M258.25,236.34h-1.78V219.62h1.78Z"></path><path d="M260.17,224.56h1.91l2.58,6.72a26.93,26.93,0,0,1,1,3.32h.08c.1-.37.29-1,.59-1.88s1.27-3.6,2.92-8.16h1.91L266.15,238a6.74,6.74,0,0,1-1.76,2.82,3.75,3.75,0,0,1-2.46.83,7.22,7.22,0,0,1-1.61-.18V240a5.9,5.9,0,0,0,1.32.13,2.73,2.73,0,0,0,2.62-2.06l.65-1.68Z"></path><path d="M286.08,236.34l-.36-1.68h-.08a5,5,0,0,1-1.76,1.5,5.37,5.37,0,0,1-2.19.39,3.93,3.93,0,0,1-2.74-.9,3.31,3.31,0,0,1-1-2.57c0-2.38,1.91-3.62,5.71-3.74l2-.06v-.73a3,3,0,0,0-.6-2.05,2.46,2.46,0,0,0-1.91-.66,7.79,7.79,0,0,0-3.33.9l-.54-1.36a8.16,8.16,0,0,1,1.9-.74,8.25,8.25,0,0,1,2.08-.27,4.49,4.49,0,0,1,3.12.93,3.91,3.91,0,0,1,1,3v8Zm-4-1.26a3.63,3.63,0,0,0,2.61-.91,3.36,3.36,0,0,0,.95-2.56v-1.06l-1.78.07a6.51,6.51,0,0,0-3.07.66,2,2,0,0,0-.94,1.82,1.82,1.82,0,0,0,.59,1.47A2.42,2.42,0,0,0,282.05,235.08Z"></path><path d="M295.78,236.55a5,5,0,0,1-4-1.57,6.46,6.46,0,0,1-1.4-4.46,6.66,6.66,0,0,1,1.42-4.56,5.13,5.13,0,0,1,4.05-1.61,8.11,8.11,0,0,1,1.7.18,5.6,5.6,0,0,1,1.33.43l-.54,1.51a10.88,10.88,0,0,0-1.29-.39,6,6,0,0,0-1.24-.15q-3.59,0-3.59,4.57a5.46,5.46,0,0,0,.88,3.33,3,3,0,0,0,2.59,1.16,8,8,0,0,0,3-.63v1.58A6.41,6.41,0,0,1,295.78,236.55Z"></path><path d="M306.25,236.55a5,5,0,0,1-4-1.57,6.51,6.51,0,0,1-1.4-4.46,6.66,6.66,0,0,1,1.42-4.56,5.14,5.14,0,0,1,4.06-1.61,8.26,8.26,0,0,1,1.7.18,5.93,5.93,0,0,1,1.33.43l-.55,1.51a9.85,9.85,0,0,0-1.29-.39,6,6,0,0,0-1.24-.15q-3.58,0-3.58,4.57a5.46,5.46,0,0,0,.87,3.33,3,3,0,0,0,2.6,1.16,8,8,0,0,0,3-.63v1.58A6.43,6.43,0,0,1,306.25,236.55Z"></path><path d="M317,236.55a5.42,5.42,0,0,1-4.12-1.59,6.18,6.18,0,0,1-1.51-4.41,6.82,6.82,0,0,1,1.41-4.53,4.65,4.65,0,0,1,3.76-1.67,4.43,4.43,0,0,1,3.5,1.45,5.57,5.57,0,0,1,1.29,3.84v1.13h-8.11a4.72,4.72,0,0,0,1.05,3.15,3.6,3.6,0,0,0,2.8,1.07,9.51,9.51,0,0,0,3.76-.79v1.59a9,9,0,0,1-1.79.58A9.9,9.9,0,0,1,317,236.55Zm-.48-10.71a2.89,2.89,0,0,0-2.26.93,4.23,4.23,0,0,0-1,2.55h6.16a3.93,3.93,0,0,0-.75-2.58A2.65,2.65,0,0,0,316.51,225.84Z"></path><path d="M332,233.12a3,3,0,0,1-1.23,2.54,5.79,5.79,0,0,1-3.44.89,7.53,7.53,0,0,1-3.65-.74v-1.65a9,9,0,0,0,1.82.67,7.43,7.43,0,0,0,1.88.25,4.25,4.25,0,0,0,2.15-.45,1.53,1.53,0,0,0,.15-2.53,9.45,9.45,0,0,0-2.32-1.16,12.33,12.33,0,0,1-2.34-1.06,3.28,3.28,0,0,1-1-1,2.68,2.68,0,0,1-.34-1.39,2.64,2.64,0,0,1,1.17-2.27,5.49,5.49,0,0,1,3.21-.83,9.5,9.5,0,0,1,3.72.77l-.64,1.45a8.46,8.46,0,0,0-3.21-.73,3.65,3.65,0,0,0-1.91.4,1.22,1.22,0,0,0-.64,1.09,1.34,1.34,0,0,0,.24.81,2.37,2.37,0,0,0,.78.63,17.4,17.4,0,0,0,2.06.87,7.62,7.62,0,0,1,2.83,1.54A2.71,2.71,0,0,1,332,233.12Z"></path><path d="M342.45,233.12a3,3,0,0,1-1.22,2.54,5.81,5.81,0,0,1-3.44.89,7.51,7.51,0,0,1-3.65-.74v-1.65a8.75,8.75,0,0,0,1.82.67,7.35,7.35,0,0,0,1.87.25,4.22,4.22,0,0,0,2.15-.45,1.54,1.54,0,0,0,.16-2.53,9.57,9.57,0,0,0-2.33-1.16,12.64,12.64,0,0,1-2.34-1.06,3.39,3.39,0,0,1-1-1,2.78,2.78,0,0,1-.34-1.39,2.63,2.63,0,0,1,1.18-2.27,5.49,5.49,0,0,1,3.21-.83,9.49,9.49,0,0,1,3.71.77l-.63,1.45a8.46,8.46,0,0,0-3.21-.73,3.62,3.62,0,0,0-1.91.4,1.23,1.23,0,0,0-.65,1.09,1.34,1.34,0,0,0,.24.81,2.37,2.37,0,0,0,.78.63,18.2,18.2,0,0,0,2.06.87,7.77,7.77,0,0,1,2.84,1.54A2.7,2.7,0,0,1,342.45,233.12Z"></path><path d="M345.2,221.37a1.21,1.21,0,0,1,.3-.9,1.09,1.09,0,0,1,.75-.28,1,1,0,0,1,.74.29,1.15,1.15,0,0,1,.32.89,1.19,1.19,0,0,1-.32.9,1.1,1.1,0,0,1-1.49,0A1.22,1.22,0,0,1,345.2,221.37Zm1.93,15h-1.78V224.56h1.78Z"></path><path d="M356.39,224.37A4.41,4.41,0,0,1,360,226a8.52,8.52,0,0,1,0,9,4.37,4.37,0,0,1-3.6,1.6,5.18,5.18,0,0,1-2.1-.42,4,4,0,0,1-1.59-1.31h-.13l-.38,1.52h-1.27V219.62h1.78v4.06c0,.91,0,1.73-.09,2.45h.09A4.24,4.24,0,0,1,356.39,224.37Zm-.25,1.49a3.13,3.13,0,0,0-2.64,1,6,6,0,0,0-.8,3.53,5.83,5.83,0,0,0,.83,3.55,3.14,3.14,0,0,0,2.65,1.07,2.75,2.75,0,0,0,2.45-1.2,6.14,6.14,0,0,0,.8-3.44,5.91,5.91,0,0,0-.8-3.43A2.87,2.87,0,0,0,356.14,225.86Z"></path><path d="M366.18,236.34H364.4V219.62h1.78Z"></path><path d="M374.94,236.55a5.4,5.4,0,0,1-4.12-1.59,6.13,6.13,0,0,1-1.51-4.41,6.82,6.82,0,0,1,1.4-4.53,4.66,4.66,0,0,1,3.76-1.67A4.45,4.45,0,0,1,378,225.8a5.62,5.62,0,0,1,1.28,3.84v1.13h-8.11a4.72,4.72,0,0,0,1.05,3.15A3.61,3.61,0,0,0,375,235a9.47,9.47,0,0,0,3.76-.79v1.59a9,9,0,0,1-1.79.58A9.86,9.86,0,0,1,374.94,236.55Zm-.49-10.71a2.9,2.9,0,0,0-2.26.93,4.23,4.23,0,0,0-1,2.55h6.15a3.93,3.93,0,0,0-.75-2.58A2.65,2.65,0,0,0,374.45,225.84Z"></path></g><g class="cls-2"><path d="M55.52,276.34l-.36-1.68h-.08a5,5,0,0,1-1.76,1.5,5.37,5.37,0,0,1-2.19.39,3.93,3.93,0,0,1-2.74-.9,3.3,3.3,0,0,1-1-2.57c0-2.38,1.9-3.62,5.7-3.74l2-.06v-.73a3,3,0,0,0-.6-2.05,2.46,2.46,0,0,0-1.91-.66,7.79,7.79,0,0,0-3.33.9l-.54-1.36a8.16,8.16,0,0,1,1.9-.74,8.25,8.25,0,0,1,2.08-.27,4.48,4.48,0,0,1,3.12.93,3.91,3.91,0,0,1,1,3v8Zm-4-1.26a3.63,3.63,0,0,0,2.61-.91,3.36,3.36,0,0,0,.95-2.56v-1.06l-1.78.07a6.51,6.51,0,0,0-3.07.66,2,2,0,0,0-.94,1.82,1.82,1.82,0,0,0,.59,1.47A2.42,2.42,0,0,0,51.49,275.08Z"></path><path d="M68.57,276.34v-7.62a3.06,3.06,0,0,0-.66-2.15,2.67,2.67,0,0,0-2-.71,3.42,3.42,0,0,0-2.71,1,5.08,5.08,0,0,0-.86,3.3v6.18H60.51V264.56H62l.29,1.61h.09a3.51,3.51,0,0,1,1.53-1.34,5,5,0,0,1,2.21-.48,4.5,4.5,0,0,1,3.2,1,4.41,4.41,0,0,1,1.07,3.29v7.68Z"></path><path d="M82,274.76h-.1a4.19,4.19,0,0,1-3.69,1.79,4.4,4.4,0,0,1-3.6-1.58,7,7,0,0,1-1.28-4.49A7.05,7.05,0,0,1,74.65,266a4.34,4.34,0,0,1,3.59-1.61,4.28,4.28,0,0,1,3.67,1.74h.14l-.08-.85,0-.83v-4.79h1.78v16.72H82.26Zm-3.57.3a3.23,3.23,0,0,0,2.65-1,5,5,0,0,0,.82-3.2v-.38a5.93,5.93,0,0,0-.83-3.57,3.18,3.18,0,0,0-2.66-1.07,2.72,2.72,0,0,0-2.4,1.22,6,6,0,0,0-.83,3.44,5.84,5.84,0,0,0,.82,3.41A2.8,2.8,0,0,0,78.46,275.06Z"></path><path d="M101.27,276.34v-7.62a3.06,3.06,0,0,0-.66-2.15,2.67,2.67,0,0,0-2-.71,3.37,3.37,0,0,0-2.71,1,5.13,5.13,0,0,0-.86,3.31v6.16H93.21V259.62H95v5.06a10.88,10.88,0,0,1-.08,1.52H95a3.59,3.59,0,0,1,1.49-1.34,4.83,4.83,0,0,1,2.22-.49,4.56,4.56,0,0,1,3.24,1,4.35,4.35,0,0,1,1.08,3.27v7.68Z"></path><path d="M106.56,261.37a1.21,1.21,0,0,1,.3-.9,1.11,1.11,0,0,1,.76-.28,1.08,1.08,0,0,1,.74.29,1.15,1.15,0,0,1,.31.89,1.19,1.19,0,0,1-.31.9,1.11,1.11,0,0,1-1.5,0A1.22,1.22,0,0,1,106.56,261.37Zm1.94,15h-1.79V264.56h1.79Z"></path><path d="M121.91,264.56v1.13l-2.18.26a3.88,3.88,0,0,1,.54,1,3.72,3.72,0,0,1,.24,1.37,3.49,3.49,0,0,1-1.19,2.76,4.72,4.72,0,0,1-3.24,1,6.2,6.2,0,0,1-1-.08,1.75,1.75,0,0,0-1.14,1.51.8.8,0,0,0,.4.72,3,3,0,0,0,1.37.23h2.08a4.74,4.74,0,0,1,2.94.8,2.81,2.81,0,0,1,1,2.34,3.36,3.36,0,0,1-1.56,3,8.47,8.47,0,0,1-4.58,1,6.18,6.18,0,0,1-3.56-.86,2.93,2.93,0,0,1-.57-4.28,3.51,3.51,0,0,1,1.94-1.07,1.84,1.84,0,0,1-.76-.63,1.72,1.72,0,0,1-.31-1,1.9,1.9,0,0,1,.35-1.13,3.66,3.66,0,0,1,1.08-.93,3.15,3.15,0,0,1-1.48-1.28,3.7,3.7,0,0,1-.58-2.06,3.84,3.84,0,0,1,1.16-3,4.77,4.77,0,0,1,3.29-1,6.08,6.08,0,0,1,1.66.21Zm-9.38,13.75a1.59,1.59,0,0,0,.8,1.45,4.45,4.45,0,0,0,2.31.5,6.54,6.54,0,0,0,3.33-.67,2.05,2.05,0,0,0,1.07-1.82,1.43,1.43,0,0,0-.59-1.33,4.52,4.52,0,0,0-2.22-.37h-2.14a2.79,2.79,0,0,0-1.89.58A2.06,2.06,0,0,0,112.53,278.31Zm1-10a2.37,2.37,0,0,0,.7,1.87,2.75,2.75,0,0,0,1.94.64,2.28,2.28,0,0,0,2.61-2.54,2.34,2.34,0,0,0-2.64-2.65,2.6,2.6,0,0,0-1.93.67A2.76,2.76,0,0,0,113.49,268.33Z"></path><path d="M132.39,276.34v-7.62a3.06,3.06,0,0,0-.66-2.15,2.67,2.67,0,0,0-2-.71,3.37,3.37,0,0,0-2.71,1,5.13,5.13,0,0,0-.86,3.31v6.16h-1.78V259.62h1.78v5.06a10.88,10.88,0,0,1-.08,1.52h.11a3.59,3.59,0,0,1,1.49-1.34,4.83,4.83,0,0,1,2.22-.49,4.56,4.56,0,0,1,3.24,1,4.35,4.35,0,0,1,1.08,3.27v7.68Z"></path><path d="M147.73,276.55a4.29,4.29,0,0,1-3.56-1.6,8.49,8.49,0,0,1,0-9,4.75,4.75,0,0,1,7.31.2h.09l.26-1.61h1.41v17.06h-1.78v-5a11.91,11.91,0,0,1,.11-1.82h-.14A4.21,4.21,0,0,1,147.73,276.55Zm.27-1.49a3.25,3.25,0,0,0,2.6-1,5.23,5.23,0,0,0,.87-3.22v-.4a5.84,5.84,0,0,0-.84-3.55,3.14,3.14,0,0,0-2.66-1.09,2.75,2.75,0,0,0-2.4,1.22,6.09,6.09,0,0,0-.83,3.44,5.89,5.89,0,0,0,.82,3.39A2.79,2.79,0,0,0,148,275.06Z"></path><path d="M158.71,264.56v7.64a3.06,3.06,0,0,0,.65,2.15,2.68,2.68,0,0,0,2,.71,3.34,3.34,0,0,0,2.7-1,5.08,5.08,0,0,0,.86-3.3v-6.19h1.78v11.78h-1.47l-.26-1.58h-.09a3.64,3.64,0,0,1-1.52,1.33,5.09,5.09,0,0,1-2.22.46,4.49,4.49,0,0,1-3.22-1,4.35,4.35,0,0,1-1.07-3.26v-7.71Z"></path><path d="M177.77,276.34l-.35-1.68h-.09a4.88,4.88,0,0,1-1.75,1.5,5.43,5.43,0,0,1-2.19.39,3.92,3.92,0,0,1-2.74-.9,3.27,3.27,0,0,1-1-2.57c0-2.38,1.9-3.62,5.71-3.74l2-.06v-.73a3,3,0,0,0-.59-2.05,2.46,2.46,0,0,0-1.91-.66,7.79,7.79,0,0,0-3.33.9l-.55-1.36a8.64,8.64,0,0,1,4-1,4.51,4.51,0,0,1,3.12.93,3.91,3.91,0,0,1,1,3v8Zm-4-1.26a3.64,3.64,0,0,0,2.62-.91,3.4,3.4,0,0,0,.95-2.56v-1.06l-1.78.07a6.51,6.51,0,0,0-3.07.66,2,2,0,0,0-.94,1.82,1.82,1.82,0,0,0,.59,1.47A2.39,2.39,0,0,0,173.74,275.08Z"></path><path d="M184.55,276.34h-1.78V259.62h1.78Z"></path><path d="M188.18,261.37a1.21,1.21,0,0,1,.3-.9,1.09,1.09,0,0,1,.76-.28,1.08,1.08,0,0,1,.74.29,1.18,1.18,0,0,1,.31.89,1.23,1.23,0,0,1-.31.9,1,1,0,0,1-.74.29,1,1,0,0,1-.76-.29A1.22,1.22,0,0,1,188.18,261.37Zm1.94,15h-1.79V264.56h1.79Z"></path><path d="M197.7,275.08a5.33,5.33,0,0,0,.91-.07,6.17,6.17,0,0,0,.7-.15v1.37a3.35,3.35,0,0,1-.85.23,6.61,6.61,0,0,1-1,.09c-2.28,0-3.41-1.2-3.41-3.6v-7h-1.69v-.86l1.69-.74.75-2.52h1v2.73h3.42V266h-3.42v6.93a2.41,2.41,0,0,0,.5,1.63A1.77,1.77,0,0,0,197.7,275.08Z"></path><path d="M199.79,264.56h1.92l2.57,6.72a25.73,25.73,0,0,1,1.06,3.32h.08c.1-.37.29-1,.59-1.88s1.27-3.6,2.92-8.16h1.91L205.78,278a6.74,6.74,0,0,1-1.76,2.82,3.75,3.75,0,0,1-2.46.83,7.22,7.22,0,0,1-1.61-.18V280a5.9,5.9,0,0,0,1.32.13,2.74,2.74,0,0,0,2.62-2.06l.65-1.68Z"></path></g></g><circle id="Ellipse_3" data-name="Ellipse 3" class="cls-4" cx="88.69" cy="85.05" r="42.3"></circle><g id="EL1Qji.tif"><g id="Group_44" data-name="Group 44"><g id="Group_43" data-name="Group 43"><path id="Path_1435" data-name="Path 1435" class="cls-3" d="M87.45,57.77a3.38,3.38,0,0,1,2.62,2.95,3.29,3.29,0,0,1-1.91,3.47.88.88,0,0,0-.6,1c0,2.08,0,4.15,0,6.23,0,.52.18.69.69.75A11.36,11.36,0,0,1,94.49,75c.32.28.51.32.81,0,.59-.64,1.22-1.24,1.84-1.85a.81.81,0,0,0,.29-.65c0-1.37,0-2.73,0-4.1,0-.39-.22-.5-.5-.65a2.91,2.91,0,0,1-1.23-3.92c.05-.08.09-.16.15-.24a2.93,2.93,0,0,1,4.08-.75l.14.1a2.9,2.9,0,0,1,.4,4.08,2.94,2.94,0,0,1-.86.71.85.85,0,0,0-.53.91c0,1,0,2.09,0,3.14,0,.42.1.61.56.59.84,0,1.67,0,2.5,0a.6.6,0,0,0,.65-.41,3.43,3.43,0,1,1,.1,2.75.87.87,0,0,0-1-.61c-1,0-2,0-2.93,0a.86.86,0,0,0-.71.28c-.65.66-1.29,1.31-2,2a.45.45,0,0,0-.11.62l.06.07a11.62,11.62,0,0,1,2.13,5.6c0,.31.19.38.46.38q3.8,0,7.61,0a.53.53,0,0,0,.54-.33,2.88,2.88,0,0,1,5.48.74s0,.1,0,.15v.64a2.9,2.9,0,0,1-2.44,2.48,2.74,2.74,0,0,1-3-1.45.79.79,0,0,0-.83-.5q-3.61,0-7.24,0c-.42,0-.62.08-.67.56a11.75,11.75,0,0,1-2,5.23.87.87,0,0,1-.83.48.93.93,0,0,1-.77-.65,1,1,0,0,1,.25-.89A10.18,10.18,0,0,0,96.7,85a9.84,9.84,0,0,0-2.15-7.41A10.08,10.08,0,0,0,78.49,89.74a9.8,9.8,0,0,0,1.88,2c.12.1.25.19.37.3a.84.84,0,0,1,.19,1.17l0,0a.8.8,0,0,1-1.12.18l-.06,0A11.73,11.73,0,0,1,75,85.25c0-.4-.21-.54-.61-.54-2.47,0-4.93,0-7.4,0a.66.66,0,0,0-.66.42,2.83,2.83,0,0,1-3.2,1.51,2.88,2.88,0,0,1-.31-5.52,2.79,2.79,0,0,1,3.46,1.32.89.89,0,0,0,1,.54q3.57,0,7.14,0c.43,0,.6-.15.64-.57A11.23,11.23,0,0,1,77,77.05c.23-.33.23-.52-.07-.8-.63-.59-1.24-1.21-1.84-1.84a1.09,1.09,0,0,0-.85-.34c-1,0-2,0-3,0a.61.61,0,0,0-.67.44,3.43,3.43,0,0,1-3.17,2.12,3.4,3.4,0,0,1-3.18-2.26,3.45,3.45,0,0,1,1-3.78,3.4,3.4,0,0,1,4.8.35,3.27,3.27,0,0,1,.51.78.89.89,0,0,0,1,.62c.76,0,1.52,0,2.29,0,.34,0,.47-.13.47-.47,0-1.17,0-2.34,0-3.51,0-.39-.23-.51-.51-.66a2.87,2.87,0,0,1,.56-5.29A2.88,2.88,0,0,1,77.73,64a2.84,2.84,0,0,1-1.28,3.7.8.8,0,0,0-.5.83c0,1.28,0,2.55,0,3.83a1.06,1.06,0,0,0,.35.85c.6.58,1.2,1.16,1.76,1.77.3.32.49.27.79,0a11.8,11.8,0,0,1,5.92-2.82c1-.18,1-.19,1-1.23V65c0-.3,0-.52-.37-.67a3.41,3.41,0,0,1,.2-6.44l.19-.09Zm-20,17.12a1.68,1.68,0,0,0,1.7-1.66,1.71,1.71,0,1,0-1.7,1.66Zm21-13.74a1.67,1.67,0,1,0,0,.05v-.05ZM104.3,73.21a1.69,1.69,0,1,0,1.67-1.7h0a1.63,1.63,0,0,0-1.66,1.58.49.49,0,0,0,0,.12ZM74,65.15A1.15,1.15,0,1,0,75.09,64,1.14,1.14,0,0,0,74,65.15h0Zm34.58,18.66A1.14,1.14,0,0,0,109.62,85h0a1.17,1.17,0,0,0,1.2-1.13v0a1.12,1.12,0,0,0-1.11-1.13h0a1,1,0,0,0-1.14.93,1.09,1.09,0,0,0,0,.18ZM98.28,64a1.19,1.19,0,0,0-1.22,1.14,1.17,1.17,0,0,0,1.14,1.21h.06a1.23,1.23,0,0,0,1.18-1.15A1.2,1.2,0,0,0,98.28,64ZM64.87,83.83a1.08,1.08,0,0,0-1-1.13h-.13a1.11,1.11,0,0,0-1.16,1.06v.11A1.16,1.16,0,0,0,63.75,85a1.14,1.14,0,0,0,1.12-1.14v0Z"></path><path id="Path_1436" data-name="Path 1436" class="cls-3" d="M83.8,98.71V91.16c0-.29-.16-.4-.38-.51a7.52,7.52,0,0,1-4.29-7.21,6.36,6.36,0,0,1,.65-2.67c.27-.61.67-.8,1.17-.59s.67.66.4,1.28a5.84,5.84,0,0,0,2.06,7.21l.27.16c.19-.12.11-.3.11-.44,0-1.14,0-2.27,0-3.41a2.76,2.76,0,0,1,5.5-.33c.15,1.22,0,2.45.07,3.67,0,.19-.09.44.12.54s.36-.12.51-.22a5.84,5.84,0,0,0-5.74-10.12l-.29.13a.85.85,0,1,1-.83-1.48l.08,0a7.07,7.07,0,0,1,5.42-.58,7.46,7.46,0,0,1,5.6,7.09,7.27,7.27,0,0,1-4.1,6.89,1.22,1.22,0,0,0-.78,1.35c0,.78,0,.78.8.79h5.53a3.91,3.91,0,0,1,4,3.77,2.44,2.44,0,0,1,0,.27c0,.53,0,1.06,0,1.6s-.32,1-.84,1-.8-.36-.83-1,0-1.35-.08-2a2.11,2.11,0,0,0-1.44-1.81c-.3-.1-.44,0-.43.29s0,.82,0,1.23a.8.8,0,0,1-.72.87h-.08a.82.82,0,0,1-.91-.74s0-.06,0-.09a11.42,11.42,0,0,1,0-1.17c0-.33-.1-.49-.46-.49-1.45,0-1.17-.1-1.2,1.12v.32c0,.73-.25,1-.82,1.05S91,96.58,91,95.82c0-.34,0-.67,0-1s-.1-.4-.38-.4h-.11c-1.17-.06-1.16-.06-1.17,1.1a4.62,4.62,0,0,1-.06.74.74.74,0,0,1-.83.65h0a.79.79,0,0,1-.83-.73h0c0-.18,0-.36,0-.53V85.35a1.66,1.66,0,0,0-.15-.88,1,1,0,0,0-1.11-.55,1,1,0,0,0-.83.92c0,.23,0,.46,0,.69v14.7c0,.26,0,.53,0,.8a.86.86,0,0,1-.65.87.9.9,0,0,1-1-.38l-3-3.7a5.72,5.72,0,0,0-.45-.53,1.12,1.12,0,0,0-1.5-.1,1,1,0,0,0-.12,1.43h0c.82,1,1.67,2,2.51,3l4,4.77a1.5,1.5,0,0,1,.4,1.06c0,1.3,0,2.6,0,3.89,0,.64-.29.94-.83.94S84,112,84,111.38q0-1.65,0-3.3a1.26,1.26,0,0,0-.31-.87q-3.08-3.63-6.12-7.3a2.75,2.75,0,0,1,0-3.9A2.84,2.84,0,0,1,79,95.29a2.63,2.63,0,0,1,2.74.89C82.38,97,83,97.79,83.8,98.71Z"></path><path id="Path_1437" data-name="Path 1437" class="cls-3" d="M95.54,109.78c0-.11,0-.21,0-.32a2.9,2.9,0,0,1,1-2.69A5.09,5.09,0,0,0,98.08,103c0-.67.34-1.06.87-1s.9.42.86,1.12a7.53,7.53,0,0,1-2.09,5,1.47,1.47,0,0,0-.45,1.13c0,.75,0,1.49,0,2.24s-.29.9-.8.91a.81.81,0,0,1-.9-.72.48.48,0,0,1,0-.12c0-.56,0-1.13,0-1.7Z"></path></g></g></g></svg>