<svg xmlns="http://www.w3.org/2000/svg" id="Layer_1" data-name="Layer 1" viewBox="0 0 431.86 330.4"><defs><style>.cls-1{isolation:isolate;}.cls-2{fill:#4d4d4f;}.cls-3{fill:none;stroke:#f68723;stroke-miterlimit:10;}</style></defs><g id="Enabling_Policies_to_Scale_" data-name="Enabling Policies to Scale " class="cls-1"><g class="cls-1"><path class="cls-2" d="M149.58,80.5h-9.66V63.73h9.66v2.91h-6.1v3.68h5.68v2.92h-5.68v4.32h6.1Z"></path><path class="cls-2" d="M164.64,80.5h-3.5V73a3.57,3.57,0,0,0-.49-2.08,1.78,1.78,0,0,0-1.57-.7,2.36,2.36,0,0,0-2.12,1,6.05,6.05,0,0,0-.66,3.25v6h-3.5V67.67h2.68l.47,1.64h.19a3.72,3.72,0,0,1,1.61-1.4,5.47,5.47,0,0,1,2.34-.48,4.5,4.5,0,0,1,3.39,1.21,4.88,4.88,0,0,1,1.16,3.5Z"></path><path class="cls-2" d="M176.39,80.5l-.68-1.75h-.09a5.19,5.19,0,0,1-1.82,1.55,6,6,0,0,1-2.44.43,3.93,3.93,0,0,1-2.91-1.06,4.06,4.06,0,0,1-1.06-3,3.38,3.38,0,0,1,1.43-3,8.25,8.25,0,0,1,4.31-1.08l2.22-.07V72a1.74,1.74,0,0,0-2-2,9,9,0,0,0-3.61.93l-1.16-2.36a10.43,10.43,0,0,1,4.91-1.16,6.08,6.08,0,0,1,3.95,1.12A4.15,4.15,0,0,1,178.83,72V80.5Zm-1-5.94-1.35,0a4.39,4.39,0,0,0-2.27.55,1.73,1.73,0,0,0-.75,1.54c0,1,.57,1.48,1.7,1.48a2.7,2.7,0,0,0,1.95-.7,2.49,2.49,0,0,0,.72-1.86Z"></path><path class="cls-2" d="M189.57,67.43a4.14,4.14,0,0,1,3.55,1.77,8.15,8.15,0,0,1,1.29,4.86A7.93,7.93,0,0,1,193.08,79a4.62,4.62,0,0,1-7.15.11h-.24l-.59,1.41h-2.67V62.65h3.5V66.8c0,.53-.05,1.37-.14,2.54h.14A4.05,4.05,0,0,1,189.57,67.43Zm-1.13,2.8a2.22,2.22,0,0,0-1.89.8,4.59,4.59,0,0,0-.62,2.63V74a5.4,5.4,0,0,0,.61,3,2.19,2.19,0,0,0,2,.89,1.94,1.94,0,0,0,1.71-1,5.3,5.3,0,0,0,.64-2.88,5.06,5.06,0,0,0-.64-2.84A2,2,0,0,0,188.44,70.23Z"></path><path class="cls-2" d="M200.8,80.5h-3.5V62.65h3.5Z"></path><path class="cls-2" d="M204.32,64.36c0-1.14.63-1.71,1.9-1.71s1.91.57,1.91,1.71a1.68,1.68,0,0,1-.48,1.27,2,2,0,0,1-1.43.45C205,66.08,204.32,65.51,204.32,64.36ZM208,80.5h-3.5V67.67H208Z"></path><path class="cls-2" d="M223.47,80.5H220V73a3.56,3.56,0,0,0-.5-2.08,1.78,1.78,0,0,0-1.57-.7,2.36,2.36,0,0,0-2.12,1,6.05,6.05,0,0,0-.66,3.25v6h-3.49V67.67h2.67l.47,1.64H215a3.69,3.69,0,0,1,1.62-1.4,5.42,5.42,0,0,1,2.33-.48,4.54,4.54,0,0,1,3.4,1.21,4.87,4.87,0,0,1,1.15,3.5Z"></path><path class="cls-2" d="M238.24,67.67v1.78l-2,.52a3.45,3.45,0,0,1,.55,1.92,3.89,3.89,0,0,1-1.44,3.22,6.23,6.23,0,0,1-4,1.16l-.63,0-.51-.06a1.17,1.17,0,0,0-.54.92c0,.51.64.76,1.92.76h2.18a5,5,0,0,1,3.22.9,3.26,3.26,0,0,1,1.11,2.67,3.94,3.94,0,0,1-1.88,3.48,9.71,9.71,0,0,1-5.38,1.24,7.47,7.47,0,0,1-4.1-.93,3,3,0,0,1-1.42-2.62,2.74,2.74,0,0,1,.72-1.94,4.17,4.17,0,0,1,2.12-1.12,2.31,2.31,0,0,1-.94-.75,1.82,1.82,0,0,1-.4-1.1,1.79,1.79,0,0,1,.43-1.23,4.92,4.92,0,0,1,1.22-1,3.5,3.5,0,0,1-1.6-1.4,4.31,4.31,0,0,1-.59-2.27,4,4,0,0,1,1.37-3.25,5.87,5.87,0,0,1,3.9-1.15,11.16,11.16,0,0,1,1.28.1c.49.07.81.11.94.14Zm-9.9,14.64a1.28,1.28,0,0,0,.69,1.14,3.88,3.88,0,0,0,1.95.41,6.76,6.76,0,0,0,2.94-.52A1.56,1.56,0,0,0,235,81.93a1,1,0,0,0-.63-1,5.25,5.25,0,0,0-2-.27H230.6a2.73,2.73,0,0,0-1.61.45A1.38,1.38,0,0,0,228.34,82.31Zm1.27-10.44a2.57,2.57,0,0,0,.48,1.65,1.71,1.71,0,0,0,1.45.61,1.66,1.66,0,0,0,1.44-.61,2.63,2.63,0,0,0,.46-1.65c0-1.54-.63-2.32-1.9-2.32S229.61,70.33,229.61,71.87Z"></path><path class="cls-2" d="M258.31,69a5.13,5.13,0,0,1-1.69,4.14,7.21,7.21,0,0,1-4.81,1.43h-1.53v6h-3.55V63.73h5.35A7.15,7.15,0,0,1,256.72,65,4.79,4.79,0,0,1,258.31,69Zm-8,2.66h1.17a4,4,0,0,0,2.46-.65,2.27,2.27,0,0,0,.81-1.89,2.33,2.33,0,0,0-.68-1.84,3.2,3.2,0,0,0-2.14-.6h-1.62Z"></path><path class="cls-2" d="M272.86,74.06A6.86,6.86,0,0,1,271.2,79a6,6,0,0,1-4.6,1.77,6.4,6.4,0,0,1-3.25-.81,5.41,5.41,0,0,1-2.17-2.32,7.76,7.76,0,0,1-.76-3.54,6.86,6.86,0,0,1,1.64-4.88,6,6,0,0,1,4.61-1.75,6.44,6.44,0,0,1,3.26.81,5.36,5.36,0,0,1,2.17,2.3A7.8,7.8,0,0,1,272.86,74.06Zm-8.87,0a5.45,5.45,0,0,0,.62,2.88,2.25,2.25,0,0,0,2,1,2.21,2.21,0,0,0,2-1,5.47,5.47,0,0,0,.62-2.89,5.29,5.29,0,0,0-.62-2.85,2.62,2.62,0,0,0-4.05,0A5.24,5.24,0,0,0,264,74.06Z"></path><path class="cls-2" d="M279.24,80.5h-3.49V62.65h3.49Z"></path><path class="cls-2" d="M282.77,64.36c0-1.14.63-1.71,1.9-1.71s1.9.57,1.9,1.71a1.68,1.68,0,0,1-.47,1.27,2,2,0,0,1-1.43.45C283.4,66.08,282.77,65.51,282.77,64.36Zm3.64,16.14h-3.49V67.67h3.49Z"></path><path class="cls-2" d="M295.29,80.73q-6,0-6-6.58a7,7,0,0,1,1.63-5,6.12,6.12,0,0,1,4.67-1.73,8.87,8.87,0,0,1,4,.87l-1,2.71c-.55-.22-1.06-.4-1.54-.54a4.62,4.62,0,0,0-1.42-.22c-1.82,0-2.73,1.3-2.73,3.88s.91,3.76,2.73,3.76a6.21,6.21,0,0,0,1.87-.27,6.82,6.82,0,0,0,1.72-.84v3a5.69,5.69,0,0,1-1.71.75A9.55,9.55,0,0,1,295.29,80.73Z"></path><path class="cls-2" d="M302,64.36c0-1.14.64-1.71,1.91-1.71s1.9.57,1.9,1.71a1.71,1.71,0,0,1-.47,1.27,2,2,0,0,1-1.43.45C302.65,66.08,302,65.51,302,64.36Zm3.65,16.14h-3.5V67.67h3.5Z"></path><path class="cls-2" d="M315.14,80.73A6.6,6.6,0,0,1,310.3,79a6.44,6.44,0,0,1-1.75-4.84,7.16,7.16,0,0,1,1.61-5,5.76,5.76,0,0,1,4.46-1.76A5.66,5.66,0,0,1,318.85,69a5.86,5.86,0,0,1,1.52,4.28V75H312.1a3.35,3.35,0,0,0,.88,2.33,3.13,3.13,0,0,0,2.32.83,9.67,9.67,0,0,0,2.19-.24,10.16,10.16,0,0,0,2.15-.77v2.71a8,8,0,0,1-2,.68A12.17,12.17,0,0,1,315.14,80.73Zm-.5-10.81a2.22,2.22,0,0,0-1.74.71,3.24,3.24,0,0,0-.72,2h4.91a2.9,2.9,0,0,0-.68-2A2.31,2.31,0,0,0,314.64,69.92Z"></path><path class="cls-2" d="M332.16,76.69a3.53,3.53,0,0,1-1.37,3,6.77,6.77,0,0,1-4.1,1,13.44,13.44,0,0,1-2.39-.19,9,9,0,0,1-1.85-.56V77.09a12.31,12.31,0,0,0,2.2.77,8.75,8.75,0,0,0,2.15.31c1.27,0,1.91-.37,1.91-1.1a.9.9,0,0,0-.26-.67,3.36,3.36,0,0,0-.87-.59c-.41-.22-1-.47-1.65-.76a10.1,10.1,0,0,1-2.17-1.15,3.11,3.11,0,0,1-1-1.21,4,4,0,0,1-.32-1.68,3,3,0,0,1,1.33-2.64,6.37,6.37,0,0,1,3.75-.94,10.7,10.7,0,0,1,4.51,1L331,71a17.45,17.45,0,0,0-1.81-.68,5.45,5.45,0,0,0-1.7-.27c-1,0-1.55.28-1.55.84a1,1,0,0,0,.5.82,13.37,13.37,0,0,0,2.18,1,9.89,9.89,0,0,1,2.2,1.13,3.42,3.42,0,0,1,1,1.22A3.75,3.75,0,0,1,332.16,76.69Z"></path></g><g class="cls-1"><path class="cls-2" d="M145.05,107.94a7.51,7.51,0,0,0,2.2-.4v2.6a7.83,7.83,0,0,1-3.21.59,4,4,0,0,1-3.06-1.06,4.63,4.63,0,0,1-1-3.19V100.3h-1.67V98.82l1.93-1.17,1-2.71h2.23v2.73h3.59v2.63h-3.59v6.18a1.35,1.35,0,0,0,.42,1.1A1.65,1.65,0,0,0,145.05,107.94Z"></path><path class="cls-2" d="M161.5,104.06a6.9,6.9,0,0,1-1.65,4.9,6,6,0,0,1-4.6,1.77,6.41,6.41,0,0,1-3.26-.81,5.41,5.41,0,0,1-2.17-2.32,7.89,7.89,0,0,1-.76-3.54,6.86,6.86,0,0,1,1.64-4.88,6,6,0,0,1,4.61-1.75,6.41,6.41,0,0,1,3.26.81,5.31,5.31,0,0,1,2.17,2.3A7.67,7.67,0,0,1,161.5,104.06Zm-8.87,0a5.35,5.35,0,0,0,.63,2.88,2.58,2.58,0,0,0,4,0,5.47,5.47,0,0,0,.62-2.89,5.29,5.29,0,0,0-.62-2.85,2.62,2.62,0,0,0-4.05,0A5.33,5.33,0,0,0,152.63,104.06Z"></path><path class="cls-2" d="M180.67,105.84a4.34,4.34,0,0,1-1.64,3.58,7.12,7.12,0,0,1-4.55,1.31,10.74,10.74,0,0,1-4.75-1v-3.31a19.56,19.56,0,0,0,2.88,1.07,8.32,8.32,0,0,0,2.15.31,3,3,0,0,0,1.79-.45,1.53,1.53,0,0,0,.63-1.33,1.39,1.39,0,0,0-.28-.87,3,3,0,0,0-.81-.75,22.23,22.23,0,0,0-2.17-1.13,10.71,10.71,0,0,1-2.31-1.39,5.08,5.08,0,0,1-1.22-1.55,4.82,4.82,0,0,1,1.05-5.56,6.24,6.24,0,0,1,4.17-1.27,9.65,9.65,0,0,1,2.49.31,15.7,15.7,0,0,1,2.48.87l-1.14,2.76a17.63,17.63,0,0,0-2.22-.77,7.44,7.44,0,0,0-1.73-.21,2.26,2.26,0,0,0-1.55.47,1.64,1.64,0,0,0-.32,2,2.4,2.4,0,0,0,.7.68,20.12,20.12,0,0,0,2.25,1.18,9,9,0,0,1,3.22,2.25A4.41,4.41,0,0,1,180.67,105.84Z"></path><path class="cls-2" d="M188.64,110.73q-6,0-6-6.58a7,7,0,0,1,1.63-5A6.1,6.1,0,0,1,189,97.43a8.93,8.93,0,0,1,4,.87l-1,2.71c-.55-.22-1.07-.4-1.54-.54a4.67,4.67,0,0,0-1.42-.22c-1.82,0-2.73,1.3-2.73,3.88s.91,3.76,2.73,3.76a6.26,6.26,0,0,0,1.87-.27,7,7,0,0,0,1.72-.84v3a5.74,5.74,0,0,1-1.72.75A9.39,9.39,0,0,1,188.64,110.73Z"></path><path class="cls-2" d="M203.65,110.5l-.67-1.75h-.1a5.16,5.16,0,0,1-1.81,1.55,6,6,0,0,1-2.44.43,3.93,3.93,0,0,1-2.91-1.06,4,4,0,0,1-1.06-3,3.38,3.38,0,0,1,1.43-3,8.24,8.24,0,0,1,4.3-1.08l2.23-.07V102a1.75,1.75,0,0,0-2-2,9.12,9.12,0,0,0-3.61.93l-1.16-2.36a10.46,10.46,0,0,1,4.91-1.16,6.13,6.13,0,0,1,4,1.12A4.15,4.15,0,0,1,206.1,102v8.55Zm-1-5.94-1.35,0a4.36,4.36,0,0,0-2.27.55,1.73,1.73,0,0,0-.75,1.54c0,1,.57,1.48,1.7,1.48a2.66,2.66,0,0,0,1.94-.7,2.46,2.46,0,0,0,.73-1.86Z"></path><path class="cls-2" d="M213.2,110.5h-3.5V92.65h3.5Z"></path><path class="cls-2" d="M222.67,110.73a6.62,6.62,0,0,1-4.84-1.71,6.47,6.47,0,0,1-1.74-4.84,7.12,7.12,0,0,1,1.61-5,5.74,5.74,0,0,1,4.45-1.76A5.66,5.66,0,0,1,226.39,99a5.85,5.85,0,0,1,1.51,4.28V105h-8.27a3.39,3.39,0,0,0,.88,2.33,3.15,3.15,0,0,0,2.32.83,9.67,9.67,0,0,0,2.19-.24,10.43,10.43,0,0,0,2.16-.77v2.71a8.12,8.12,0,0,1-2,.68A12.34,12.34,0,0,1,222.67,110.73Zm-.49-10.81a2.25,2.25,0,0,0-1.75.71,3.24,3.24,0,0,0-.72,2h4.91a2.86,2.86,0,0,0-.68-2A2.28,2.28,0,0,0,222.18,99.92Z"></path></g></g><circle id="Ellipse_2" data-name="Ellipse 2" class="cls-3" cx="78.43" cy="85.05" r="42.3"></circle><g id="Institutionalisation_and_enabling_policies_at_state_and_central_government" data-name="Institutionalisation and enabling policies at state and central government" class="cls-1"><g class="cls-1"><path d="M68.46,181.92V166.21h1.82v15.71Z"></path><path d="M82.38,181.92V174.3a3.07,3.07,0,0,0-.66-2.15,2.66,2.66,0,0,0-2-.7,3.42,3.42,0,0,0-2.71,1,5.08,5.08,0,0,0-.86,3.3v6.18H74.32V170.15h1.45l.29,1.61h.09a3.6,3.6,0,0,1,1.53-1.35,5,5,0,0,1,2.21-.48,4.46,4.46,0,0,1,3.2,1,4.37,4.37,0,0,1,1.07,3.28v7.68Z"></path><path d="M95.42,178.71a2.94,2.94,0,0,1-1.23,2.53,5.69,5.69,0,0,1-3.43.89,7.46,7.46,0,0,1-3.66-.74v-1.65a9.72,9.72,0,0,0,1.83.68,7.74,7.74,0,0,0,1.87.24,4.34,4.34,0,0,0,2.15-.44,1.54,1.54,0,0,0,.15-2.54,9.32,9.32,0,0,0-2.32-1.15,12.87,12.87,0,0,1-2.34-1.07,3.28,3.28,0,0,1-1-1,2.77,2.77,0,0,1-.34-1.38,2.66,2.66,0,0,1,1.17-2.28,5.5,5.5,0,0,1,3.22-.83,9.49,9.49,0,0,1,3.71.77l-.63,1.45a8.65,8.65,0,0,0-3.21-.73,3.76,3.76,0,0,0-1.92.4,1.23,1.23,0,0,0-.64,1.1,1.33,1.33,0,0,0,.24.8,2.38,2.38,0,0,0,.78.64,18.2,18.2,0,0,0,2.06.87,7.78,7.78,0,0,1,2.83,1.53A2.74,2.74,0,0,1,95.42,178.71Z"></path><path d="M102.12,180.66a5.53,5.53,0,0,0,.92-.07,4.84,4.84,0,0,0,.69-.14v1.36a3.23,3.23,0,0,1-.85.23,6.51,6.51,0,0,1-1,.09q-3.4,0-3.41-3.59v-7H96.76v-.86l1.69-.74.75-2.51h1v2.73h3.42v1.38h-3.42v6.93a2.36,2.36,0,0,0,.51,1.63A1.73,1.73,0,0,0,102.12,180.66Z"></path><path d="M105.94,167a1.19,1.19,0,0,1,.3-.9,1.05,1.05,0,0,1,.75-.29,1.08,1.08,0,0,1,.74.29,1.17,1.17,0,0,1,.31.9,1.15,1.15,0,0,1-.31.89,1,1,0,0,1-.74.3,1,1,0,0,1-.75-.3A1.18,1.18,0,0,1,105.94,167Zm1.93,15h-1.78V170.15h1.78Z"></path><path d="M115.45,180.66a5.53,5.53,0,0,0,.92-.07,4.84,4.84,0,0,0,.69-.14v1.36a3.23,3.23,0,0,1-.85.23,6.49,6.49,0,0,1-1,.09q-3.42,0-3.42-3.59v-7h-1.69v-.86l1.69-.74.75-2.51h1v2.73H117v1.38h-3.42v6.93a2.36,2.36,0,0,0,.51,1.63A1.74,1.74,0,0,0,115.45,180.66Z"></path><path d="M121.09,170.15v7.63a3.06,3.06,0,0,0,.66,2.15,2.67,2.67,0,0,0,2,.71,3.36,3.36,0,0,0,2.7-1,5.08,5.08,0,0,0,.86-3.3v-6.18h1.78v11.77h-1.47l-.26-1.58h-.1a3.52,3.52,0,0,1-1.52,1.33,5.09,5.09,0,0,1-2.22.46,4.48,4.48,0,0,1-3.21-1,4.3,4.3,0,0,1-1.07-3.26v-7.7Z"></path><path d="M136.72,180.66a5.53,5.53,0,0,0,.92-.07,4.84,4.84,0,0,0,.69-.14v1.36a3.23,3.23,0,0,1-.85.23,6.51,6.51,0,0,1-1,.09q-3.41,0-3.41-3.59v-7h-1.69v-.86l1.69-.74.75-2.51h1v2.73h3.42v1.38h-3.42v6.93a2.36,2.36,0,0,0,.51,1.63A1.74,1.74,0,0,0,136.72,180.66Z"></path><path d="M140.54,167a1.19,1.19,0,0,1,.3-.9,1.1,1.1,0,0,1,1.49,0,1.17,1.17,0,0,1,.31.9,1.15,1.15,0,0,1-.31.89,1.08,1.08,0,0,1-1.49,0A1.18,1.18,0,0,1,140.54,167Zm1.93,15h-1.78V170.15h1.78Z"></path><path d="M156.41,176a6.49,6.49,0,0,1-1.45,4.5,5.08,5.08,0,0,1-4,1.61,5.27,5.27,0,0,1-2.81-.74,5,5,0,0,1-1.89-2.12,7.51,7.51,0,0,1-.66-3.25,6.47,6.47,0,0,1,1.44-4.48,5.07,5.07,0,0,1,4-1.61,5,5,0,0,1,3.93,1.64A6.48,6.48,0,0,1,156.41,176Zm-9,0a5.53,5.53,0,0,0,.91,3.44,3.11,3.11,0,0,0,2.65,1.18,3.15,3.15,0,0,0,2.66-1.18,5.58,5.58,0,0,0,.91-3.44,5.5,5.5,0,0,0-.91-3.41,3.19,3.19,0,0,0-2.68-1.16,3.15,3.15,0,0,0-2.65,1.15A5.52,5.52,0,0,0,147.44,176Z"></path><path d="M167.6,181.92V174.3a3.07,3.07,0,0,0-.66-2.15,2.68,2.68,0,0,0-2.05-.7,3.41,3.41,0,0,0-2.71,1,5.08,5.08,0,0,0-.86,3.3v6.18h-1.78V170.15H161l.29,1.61h.09a3.6,3.6,0,0,1,1.53-1.35,5,5,0,0,1,2.2-.48,4.43,4.43,0,0,1,3.2,1,4.33,4.33,0,0,1,1.08,3.28v7.68Z"></path><path d="M180.28,181.92l-.35-1.68h-.09a5,5,0,0,1-1.75,1.5,5.43,5.43,0,0,1-2.19.39,4,4,0,0,1-2.75-.9,3.3,3.3,0,0,1-1-2.57c0-2.37,1.9-3.62,5.71-3.73l2-.07v-.73a3,3,0,0,0-.59-2,2.44,2.44,0,0,0-1.91-.67,7.68,7.68,0,0,0-3.33.91l-.55-1.37a8.72,8.72,0,0,1,1.91-.74,8.19,8.19,0,0,1,2.08-.27,4.46,4.46,0,0,1,3.12.94,3.87,3.87,0,0,1,1,3v8Zm-4-1.26a3.62,3.62,0,0,0,2.62-.91,3.4,3.4,0,0,0,.95-2.56v-1.06l-1.78.07a6.51,6.51,0,0,0-3.07.66,2,2,0,0,0-.94,1.83,1.85,1.85,0,0,0,.59,1.47A2.44,2.44,0,0,0,176.25,180.66Z"></path><path d="M187.06,181.92h-1.78V165.2h1.78Z"></path><path d="M190.69,167a1.19,1.19,0,0,1,.3-.9,1.05,1.05,0,0,1,.75-.29,1.08,1.08,0,0,1,.75.29,1.21,1.21,0,0,1,.31.9,1.18,1.18,0,0,1-.31.89,1.05,1.05,0,0,1-.75.3,1,1,0,0,1-.75-.3A1.18,1.18,0,0,1,190.69,167Zm1.94,15h-1.79V170.15h1.79Z"></path><path d="M204,178.71a3,3,0,0,1-1.22,2.53,5.74,5.74,0,0,1-3.44.89,7.39,7.39,0,0,1-3.65-.74v-1.65a9.37,9.37,0,0,0,1.82.68,7.8,7.8,0,0,0,1.87.24,4.34,4.34,0,0,0,2.15-.44,1.48,1.48,0,0,0,.75-1.36,1.5,1.5,0,0,0-.59-1.18,9.64,9.64,0,0,0-2.33-1.15,13.22,13.22,0,0,1-2.34-1.07,3.28,3.28,0,0,1-1-1,2.77,2.77,0,0,1-.34-1.38,2.65,2.65,0,0,1,1.18-2.28,5.49,5.49,0,0,1,3.21-.83,9.49,9.49,0,0,1,3.71.77l-.63,1.45a8.65,8.65,0,0,0-3.21-.73,3.72,3.72,0,0,0-1.91.4,1.24,1.24,0,0,0-.65,1.1,1.33,1.33,0,0,0,.24.8,2.38,2.38,0,0,0,.78.64,18.2,18.2,0,0,0,2.06.87,7.94,7.94,0,0,1,2.84,1.53A2.73,2.73,0,0,1,204,178.71Z"></path><path d="M214.14,181.92l-.35-1.68h-.09a4.9,4.9,0,0,1-1.76,1.5,5.35,5.35,0,0,1-2.18.39,4,4,0,0,1-2.75-.9,3.3,3.3,0,0,1-1-2.57c0-2.37,1.9-3.62,5.7-3.73l2-.07v-.73a3,3,0,0,0-.59-2,2.44,2.44,0,0,0-1.91-.67,7.68,7.68,0,0,0-3.33.91l-.55-1.37a8.72,8.72,0,0,1,1.91-.74,8.19,8.19,0,0,1,2.08-.27,4.46,4.46,0,0,1,3.12.94,3.91,3.91,0,0,1,1,3v8Zm-4-1.26a3.62,3.62,0,0,0,2.62-.91,3.4,3.4,0,0,0,1-2.56v-1.06l-1.78.07a6.51,6.51,0,0,0-3.07.66,2,2,0,0,0-.94,1.83,1.82,1.82,0,0,0,.59,1.47A2.44,2.44,0,0,0,210.11,180.66Z"></path><path d="M222.94,180.66a5.41,5.41,0,0,0,.91-.07,4.74,4.74,0,0,0,.7-.14v1.36a3.35,3.35,0,0,1-.85.23,6.61,6.61,0,0,1-1,.09c-2.28,0-3.41-1.2-3.41-3.59v-7h-1.69v-.86l1.69-.74.75-2.51h1v2.73h3.41v1.38h-3.41v6.93a2.41,2.41,0,0,0,.5,1.63A1.77,1.77,0,0,0,222.94,180.66Z"></path><path d="M226.75,167a1.19,1.19,0,0,1,.3-.9,1.06,1.06,0,0,1,.76-.29,1.08,1.08,0,0,1,.74.29,1.21,1.21,0,0,1,.31.9,1.18,1.18,0,0,1-.31.89,1,1,0,0,1-.74.3,1,1,0,0,1-.76-.3A1.18,1.18,0,0,1,226.75,167Zm1.94,15H226.9V170.15h1.79Z"></path><path d="M242.63,176a6.49,6.49,0,0,1-1.45,4.5,5.1,5.1,0,0,1-4,1.61,5.26,5.26,0,0,1-2.8-.74,4.82,4.82,0,0,1-1.89-2.12,7.37,7.37,0,0,1-.67-3.25,6.47,6.47,0,0,1,1.44-4.48,5.1,5.1,0,0,1,4-1.61,5,5,0,0,1,3.92,1.64A6.48,6.48,0,0,1,242.63,176Zm-9,0a5.6,5.6,0,0,0,.9,3.44,3.58,3.58,0,0,0,5.31,0,5.51,5.51,0,0,0,.91-3.44,5.44,5.44,0,0,0-.91-3.41,3.64,3.64,0,0,0-5.32,0A5.52,5.52,0,0,0,233.66,176Z"></path><path d="M253.81,181.92V174.3a3.12,3.12,0,0,0-.65-2.15,2.68,2.68,0,0,0-2-.7,3.39,3.39,0,0,0-2.71,1,5,5,0,0,0-.86,3.3v6.18h-1.78V170.15h1.45l.29,1.61h.08a3.69,3.69,0,0,1,1.54-1.35,5,5,0,0,1,2.2-.48,4.43,4.43,0,0,1,3.2,1,4.33,4.33,0,0,1,1.08,3.28v7.68Z"></path><path d="M272.21,181.92l-.35-1.68h-.09a4.88,4.88,0,0,1-1.75,1.5,5.43,5.43,0,0,1-2.19.39,3.92,3.92,0,0,1-2.74-.9,3.27,3.27,0,0,1-1-2.57c0-2.37,1.9-3.62,5.71-3.73l2-.07v-.73a2.94,2.94,0,0,0-.59-2,2.42,2.42,0,0,0-1.91-.67,7.68,7.68,0,0,0-3.33.91l-.55-1.37a8.72,8.72,0,0,1,1.91-.74,8.19,8.19,0,0,1,2.08-.27,4.46,4.46,0,0,1,3.12.94,3.87,3.87,0,0,1,1,3v8Zm-4-1.26a3.59,3.59,0,0,0,2.61-.91,3.36,3.36,0,0,0,.95-2.56v-1.06l-1.78.07a6.51,6.51,0,0,0-3.07.66,2,2,0,0,0-.94,1.83,1.85,1.85,0,0,0,.59,1.47A2.45,2.45,0,0,0,268.19,180.66Z"></path><path d="M285.27,181.92V174.3a3.07,3.07,0,0,0-.66-2.15,2.68,2.68,0,0,0-2.05-.7,3.41,3.41,0,0,0-2.71,1,5.08,5.08,0,0,0-.86,3.3v6.18h-1.78V170.15h1.45l.29,1.61H279a3.69,3.69,0,0,1,1.54-1.35,5,5,0,0,1,2.2-.48,4.43,4.43,0,0,1,3.2,1,4.33,4.33,0,0,1,1.08,3.28v7.68Z"></path><path d="M298.73,180.34h-.1a4.18,4.18,0,0,1-3.7,1.79,4.37,4.37,0,0,1-3.59-1.57,7,7,0,0,1-1.28-4.5,7.07,7.07,0,0,1,1.29-4.52,4.77,4.77,0,0,1,7.26.13h.14l-.08-.85,0-.82v-4.8h1.78v16.72H299Zm-3.57.3a3.26,3.26,0,0,0,2.65-1,5,5,0,0,0,.82-3.21v-.38a6,6,0,0,0-.83-3.57,3.18,3.18,0,0,0-2.66-1.07,2.72,2.72,0,0,0-2.4,1.22,6,6,0,0,0-.84,3.45,5.82,5.82,0,0,0,.83,3.4A2.79,2.79,0,0,0,295.16,180.64Z"></path><path d="M314.88,182.13a5.42,5.42,0,0,1-4.12-1.59,6.18,6.18,0,0,1-1.51-4.41,6.83,6.83,0,0,1,1.4-4.52,4.66,4.66,0,0,1,3.77-1.68,4.43,4.43,0,0,1,3.5,1.46,5.57,5.57,0,0,1,1.29,3.84v1.12H311.1a4.63,4.63,0,0,0,1,3.15,3.6,3.6,0,0,0,2.8,1.08,9.52,9.52,0,0,0,3.76-.8v1.59a9.83,9.83,0,0,1-1.79.59A10,10,0,0,1,314.88,182.13Zm-.48-10.71a2.89,2.89,0,0,0-2.26.93,4.2,4.2,0,0,0-1,2.55h6.16a3.93,3.93,0,0,0-.75-2.58A2.65,2.65,0,0,0,314.4,171.42Z"></path><path d="M330.31,181.92V174.3a3.07,3.07,0,0,0-.66-2.15,2.66,2.66,0,0,0-2-.7,3.42,3.42,0,0,0-2.71,1,5.08,5.08,0,0,0-.86,3.3v6.18h-1.78V170.15h1.45l.29,1.61h.09a3.6,3.6,0,0,1,1.53-1.35,5,5,0,0,1,2.2-.48,4.47,4.47,0,0,1,3.21,1,4.37,4.37,0,0,1,1.07,3.28v7.68Z"></path><path d="M343,181.92l-.35-1.68h-.09a4.88,4.88,0,0,1-1.75,1.5,5.43,5.43,0,0,1-2.19.39,3.92,3.92,0,0,1-2.74-.9,3.27,3.27,0,0,1-1-2.57c0-2.37,1.9-3.62,5.71-3.73l2-.07v-.73a2.94,2.94,0,0,0-.59-2,2.42,2.42,0,0,0-1.91-.67,7.68,7.68,0,0,0-3.33.91l-.55-1.37a8.72,8.72,0,0,1,1.91-.74,8.19,8.19,0,0,1,2.08-.27,4.46,4.46,0,0,1,3.12.94,3.87,3.87,0,0,1,1,3v8Zm-4-1.26a3.59,3.59,0,0,0,2.61-.91,3.36,3.36,0,0,0,.95-2.56v-1.06l-1.78.07a6.51,6.51,0,0,0-3.07.66,2,2,0,0,0-.94,1.83,1.85,1.85,0,0,0,.59,1.47A2.45,2.45,0,0,0,339,180.66Z"></path><path d="M353.47,170a4.36,4.36,0,0,1,3.6,1.59,6.91,6.91,0,0,1,1.29,4.48,7,7,0,0,1-1.3,4.51,4.35,4.35,0,0,1-3.59,1.6,5.11,5.11,0,0,1-2.1-.42,3.89,3.89,0,0,1-1.6-1.31h-.13l-.37,1.52H348V165.2h1.78v4.07c0,.9,0,1.72-.08,2.44h.08A4.24,4.24,0,0,1,353.47,170Zm-.26,1.5a3.09,3.09,0,0,0-2.63,1,8.05,8.05,0,0,0,0,7.08,3.14,3.14,0,0,0,2.65,1.07,2.75,2.75,0,0,0,2.45-1.2,6.12,6.12,0,0,0,.81-3.44,5.93,5.93,0,0,0-.81-3.43A2.86,2.86,0,0,0,353.21,171.45Z"></path><path d="M363.25,181.92h-1.78V165.2h1.78Z"></path><path d="M366.88,167a1.16,1.16,0,0,1,.31-.9,1.05,1.05,0,0,1,.75-.29,1.08,1.08,0,0,1,.74.29,1.17,1.17,0,0,1,.31.9,1.15,1.15,0,0,1-.31.89,1,1,0,0,1-.74.3,1,1,0,0,1-.75-.3A1.15,1.15,0,0,1,366.88,167Zm1.94,15H367V170.15h1.79Z"></path><path d="M380.66,181.92V174.3a3.07,3.07,0,0,0-.66-2.15,2.68,2.68,0,0,0-2.05-.7,3.41,3.41,0,0,0-2.71,1,5.08,5.08,0,0,0-.86,3.3v6.18H372.6V170.15h1.45l.29,1.61h.09a3.6,3.6,0,0,1,1.53-1.35,5,5,0,0,1,2.2-.48,4.43,4.43,0,0,1,3.2,1,4.33,4.33,0,0,1,1.08,3.28v7.68Z"></path><path d="M395.74,170.15v1.12l-2.18.26a3.52,3.52,0,0,1,.53,1,3.66,3.66,0,0,1,.24,1.36,3.45,3.45,0,0,1-1.18,2.76,4.77,4.77,0,0,1-3.25,1,5,5,0,0,1-1-.09,1.76,1.76,0,0,0-1.14,1.51.76.76,0,0,0,.4.72,2.94,2.94,0,0,0,1.36.23h2.08a4.64,4.64,0,0,1,2.94.81,2.77,2.77,0,0,1,1,2.34,3.37,3.37,0,0,1-1.57,3,8.45,8.45,0,0,1-4.58,1,6.29,6.29,0,0,1-3.56-.85,2.8,2.8,0,0,1-1.25-2.43,2.71,2.71,0,0,1,.69-1.86,3.47,3.47,0,0,1,1.93-1.06,1.94,1.94,0,0,1-.76-.64,1.69,1.69,0,0,1-.3-1,1.91,1.91,0,0,1,.34-1.13,3.59,3.59,0,0,1,1.09-.93,3.17,3.17,0,0,1-1.49-1.28,4.22,4.22,0,0,1,.58-5,4.74,4.74,0,0,1,3.29-1,5.77,5.77,0,0,1,1.67.22Zm-9.39,13.75a1.62,1.62,0,0,0,.8,1.45,4.46,4.46,0,0,0,2.31.49,6.44,6.44,0,0,0,3.33-.67,2.06,2.06,0,0,0,1.08-1.82,1.46,1.46,0,0,0-.59-1.33,4.6,4.6,0,0,0-2.23-.37h-2.13a2.79,2.79,0,0,0-1.89.58A2.05,2.05,0,0,0,386.35,183.9Zm1-10a2.43,2.43,0,0,0,.69,1.87,2.82,2.82,0,0,0,1.95.63,2.28,2.28,0,0,0,2.61-2.54,2.34,2.34,0,0,0-2.64-2.65,2.63,2.63,0,0,0-1.94.68A2.73,2.73,0,0,0,387.32,173.92Z"></path></g><g class="cls-1"><path d="M73.67,222.13a5.11,5.11,0,0,1-2.1-.42A3.89,3.89,0,0,1,70,220.4h-.13a15.1,15.1,0,0,1,.13,2v4.84H68.19v-17h1.45l.24,1.61H70a4.14,4.14,0,0,1,1.6-1.4,4.84,4.84,0,0,1,2.1-.43,4.34,4.34,0,0,1,3.61,1.6,8.55,8.55,0,0,1,0,9A4.35,4.35,0,0,1,73.67,222.13Zm-.26-10.68a3.17,3.17,0,0,0-2.61,1,5.11,5.11,0,0,0-.83,3.18v.4a5.88,5.88,0,0,0,.83,3.55,3.14,3.14,0,0,0,2.65,1.07,2.76,2.76,0,0,0,2.39-1.23,5.85,5.85,0,0,0,.87-3.41,5.63,5.63,0,0,0-.87-3.38A2.86,2.86,0,0,0,73.41,211.45Z"></path><path d="M91.83,216a6.49,6.49,0,0,1-1.45,4.5,5.1,5.1,0,0,1-4,1.61,5.26,5.26,0,0,1-2.8-.74,4.82,4.82,0,0,1-1.89-2.12A7.51,7.51,0,0,1,81,216a6.47,6.47,0,0,1,1.44-4.48,5.1,5.1,0,0,1,4-1.61,5,5,0,0,1,3.93,1.64A6.48,6.48,0,0,1,91.83,216Zm-9,0a5.6,5.6,0,0,0,.9,3.44,3.59,3.59,0,0,0,5.32,0A5.58,5.58,0,0,0,90,216a5.5,5.5,0,0,0-.9-3.41,3.19,3.19,0,0,0-2.68-1.16,3.15,3.15,0,0,0-2.65,1.15A5.52,5.52,0,0,0,82.86,216Z"></path><path d="M96.74,221.92H95V205.2h1.78Z"></path><path d="M100.37,207a1.19,1.19,0,0,1,.3-.9,1.05,1.05,0,0,1,.75-.29,1.08,1.08,0,0,1,.75.29,1.21,1.21,0,0,1,.31.9,1.18,1.18,0,0,1-.31.89,1.05,1.05,0,0,1-.75.3,1,1,0,0,1-.75-.3A1.18,1.18,0,0,1,100.37,207Zm1.93,15h-1.78V210.15h1.78Z"></path><path d="M110.79,222.13a5,5,0,0,1-4-1.57,6.49,6.49,0,0,1-1.4-4.45,6.69,6.69,0,0,1,1.42-4.57,5.14,5.14,0,0,1,4.06-1.61,8.26,8.26,0,0,1,1.7.18,6.29,6.29,0,0,1,1.33.43l-.55,1.52a7.52,7.52,0,0,0-1.29-.39,5.39,5.39,0,0,0-1.23-.16c-2.4,0-3.59,1.53-3.59,4.58a5.5,5.5,0,0,0,.87,3.33,3.07,3.07,0,0,0,2.6,1.16,7.81,7.81,0,0,0,3-.64v1.58A6.43,6.43,0,0,1,110.79,222.13Z"></path><path d="M116.41,207a1.19,1.19,0,0,1,.3-.9,1.1,1.1,0,0,1,1.49,0,1.17,1.17,0,0,1,.31.9,1.15,1.15,0,0,1-.31.89,1.08,1.08,0,0,1-1.49,0A1.18,1.18,0,0,1,116.41,207Zm1.93,15h-1.78V210.15h1.78Z"></path><path d="M127.1,222.13a5.4,5.4,0,0,1-4.12-1.59,6.13,6.13,0,0,1-1.51-4.41,6.83,6.83,0,0,1,1.4-4.52,4.66,4.66,0,0,1,3.77-1.68,4.45,4.45,0,0,1,3.5,1.46,5.57,5.57,0,0,1,1.29,3.84v1.12h-8.11a4.63,4.63,0,0,0,1,3.15,3.63,3.63,0,0,0,2.8,1.08,9.49,9.49,0,0,0,3.76-.8v1.59a9.58,9.58,0,0,1-1.79.59A9.93,9.93,0,0,1,127.1,222.13Zm-.49-10.71a2.92,2.92,0,0,0-2.26.93,4.25,4.25,0,0,0-1,2.55h6.15a3.93,3.93,0,0,0-.75-2.58A2.65,2.65,0,0,0,126.61,211.42Z"></path><path d="M142.06,218.71a3,3,0,0,1-1.22,2.53,5.74,5.74,0,0,1-3.44.89,7.39,7.39,0,0,1-3.65-.74v-1.65a9.37,9.37,0,0,0,1.82.68,7.8,7.8,0,0,0,1.87.24,4.34,4.34,0,0,0,2.15-.44,1.48,1.48,0,0,0,.75-1.36,1.5,1.5,0,0,0-.59-1.18,9.64,9.64,0,0,0-2.33-1.15,13.58,13.58,0,0,1-2.34-1.07,3.28,3.28,0,0,1-1-1,2.77,2.77,0,0,1-.34-1.38,2.67,2.67,0,0,1,1.18-2.28,5.49,5.49,0,0,1,3.21-.83,9.45,9.45,0,0,1,3.71.77l-.63,1.45a8.65,8.65,0,0,0-3.21-.73,3.72,3.72,0,0,0-1.91.4,1.24,1.24,0,0,0-.65,1.1,1.33,1.33,0,0,0,.24.8,2.38,2.38,0,0,0,.78.64,17.78,17.78,0,0,0,2.07.87,8,8,0,0,1,2.83,1.53A2.73,2.73,0,0,1,142.06,218.71Z"></path><path d="M157.92,221.92l-.36-1.68h-.08a5,5,0,0,1-1.76,1.5,5.37,5.37,0,0,1-2.19.39,3.93,3.93,0,0,1-2.74-.9,3.3,3.3,0,0,1-1-2.57c0-2.37,1.9-3.62,5.7-3.73l2-.07v-.73a2.94,2.94,0,0,0-.6-2,2.41,2.41,0,0,0-1.9-.67,7.61,7.61,0,0,0-3.33.91l-.55-1.37a8.63,8.63,0,0,1,1.9-.74,8.25,8.25,0,0,1,2.08-.27,4.43,4.43,0,0,1,3.12.94,3.88,3.88,0,0,1,1,3v8Zm-4-1.26a3.59,3.59,0,0,0,2.61-.91,3.36,3.36,0,0,0,1-2.56v-1.06l-1.79.07a6.43,6.43,0,0,0-3.06.66,2,2,0,0,0-.94,1.83,1.84,1.84,0,0,0,.58,1.47A2.47,2.47,0,0,0,153.89,220.66Z"></path><path d="M166.71,220.66a5.53,5.53,0,0,0,.92-.07,5.35,5.35,0,0,0,.7-.14v1.36a3.45,3.45,0,0,1-.86.23,6.39,6.39,0,0,1-1,.09q-3.42,0-3.42-3.59v-7h-1.69v-.86l1.69-.74.75-2.51h1v2.73h3.42v1.38h-3.42v6.93a2.36,2.36,0,0,0,.51,1.63A1.76,1.76,0,0,0,166.71,220.66Z"></path><path d="M184,218.71a2.94,2.94,0,0,1-1.23,2.53,5.69,5.69,0,0,1-3.43.89,7.44,7.44,0,0,1-3.66-.74v-1.65a9.89,9.89,0,0,0,1.82.68,7.88,7.88,0,0,0,1.88.24,4.34,4.34,0,0,0,2.15-.44,1.54,1.54,0,0,0,.15-2.54,9.32,9.32,0,0,0-2.32-1.15,12.87,12.87,0,0,1-2.34-1.07,3.28,3.28,0,0,1-1-1,2.86,2.86,0,0,1,.83-3.66,5.49,5.49,0,0,1,3.21-.83,9.5,9.5,0,0,1,3.72.77l-.63,1.45a8.65,8.65,0,0,0-3.21-.73,3.76,3.76,0,0,0-1.92.4,1.23,1.23,0,0,0-.64,1.1,1.33,1.33,0,0,0,.24.8,2.38,2.38,0,0,0,.78.64,17.4,17.4,0,0,0,2.06.87,7.78,7.78,0,0,1,2.83,1.53A2.74,2.74,0,0,1,184,218.71Z"></path><path d="M190.69,220.66a5.33,5.33,0,0,0,.91-.07,4.74,4.74,0,0,0,.7-.14v1.36a3.35,3.35,0,0,1-.85.23,6.61,6.61,0,0,1-1,.09q-3.41,0-3.41-3.59v-7h-1.69v-.86l1.69-.74.75-2.51h1v2.73h3.42v1.38H188.8v6.93a2.36,2.36,0,0,0,.51,1.63A1.73,1.73,0,0,0,190.69,220.66Z"></path><path d="M201.9,221.92l-.36-1.68h-.08a5,5,0,0,1-1.76,1.5,5.4,5.4,0,0,1-2.19.39,3.93,3.93,0,0,1-2.74-.9,3.31,3.31,0,0,1-1-2.57c0-2.37,1.91-3.62,5.71-3.73l2-.07v-.73a2.94,2.94,0,0,0-.6-2,2.42,2.42,0,0,0-1.91-.67,7.68,7.68,0,0,0-3.33.91L195.1,211a8.63,8.63,0,0,1,1.9-.74,8.25,8.25,0,0,1,2.08-.27,4.46,4.46,0,0,1,3.12.94,3.88,3.88,0,0,1,1,3v8Zm-4-1.26a3.59,3.59,0,0,0,2.61-.91,3.36,3.36,0,0,0,1-2.56v-1.06l-1.78.07a6.51,6.51,0,0,0-3.07.66,2,2,0,0,0-.94,1.83,1.85,1.85,0,0,0,.59,1.47A2.47,2.47,0,0,0,197.87,220.66Z"></path><path d="M210.69,220.66a5.53,5.53,0,0,0,.92-.07,4.84,4.84,0,0,0,.69-.14v1.36a3.23,3.23,0,0,1-.85.23,6.49,6.49,0,0,1-1,.09q-3.42,0-3.42-3.59v-7h-1.69v-.86l1.69-.74.75-2.51h1v2.73h3.42v1.38H208.8v6.93a2.36,2.36,0,0,0,.51,1.63A1.74,1.74,0,0,0,210.69,220.66Z"></path><path d="M219.63,222.13a5.42,5.42,0,0,1-4.12-1.59,6.13,6.13,0,0,1-1.51-4.41,6.83,6.83,0,0,1,1.4-4.52,4.66,4.66,0,0,1,3.77-1.68,4.45,4.45,0,0,1,3.5,1.46,5.57,5.57,0,0,1,1.29,3.84v1.12h-8.11a4.63,4.63,0,0,0,1.05,3.15,3.6,3.6,0,0,0,2.8,1.08,9.44,9.44,0,0,0,3.75-.8v1.59a9.74,9.74,0,0,1-1.78.59A10,10,0,0,1,219.63,222.13Zm-.48-10.71a2.89,2.89,0,0,0-2.26.93,4.2,4.2,0,0,0-1,2.55h6.16a3.93,3.93,0,0,0-.75-2.58A2.66,2.66,0,0,0,219.15,211.42Z"></path><path d="M240,221.92l-.35-1.68h-.09a4.88,4.88,0,0,1-1.75,1.5,5.4,5.4,0,0,1-2.19.39,3.92,3.92,0,0,1-2.74-.9,3.27,3.27,0,0,1-1-2.57c0-2.37,1.9-3.62,5.71-3.73l2-.07v-.73a2.94,2.94,0,0,0-.6-2,2.42,2.42,0,0,0-1.91-.67,7.68,7.68,0,0,0-3.33.91l-.55-1.37a8.72,8.72,0,0,1,1.91-.74,8.25,8.25,0,0,1,2.08-.27,4.46,4.46,0,0,1,3.12.94,3.88,3.88,0,0,1,1,3v8Zm-4-1.26a3.59,3.59,0,0,0,2.61-.91,3.36,3.36,0,0,0,1-2.56v-1.06l-1.78.07a6.51,6.51,0,0,0-3.07.66,2,2,0,0,0-.94,1.83,1.85,1.85,0,0,0,.59,1.47A2.45,2.45,0,0,0,235.93,220.66Z"></path><path d="M253,221.92V214.3a3.07,3.07,0,0,0-.66-2.15,2.68,2.68,0,0,0-2-.7,3.42,3.42,0,0,0-2.71,1,5.08,5.08,0,0,0-.86,3.3v6.18H245V210.15h1.45l.29,1.61h.09a3.6,3.6,0,0,1,1.53-1.35,5,5,0,0,1,2.2-.48,4.47,4.47,0,0,1,3.21,1,4.37,4.37,0,0,1,1.07,3.28v7.68Z"></path><path d="M266.47,220.34h-.1a4.18,4.18,0,0,1-3.7,1.79,4.37,4.37,0,0,1-3.59-1.57,8.56,8.56,0,0,1,0-9,4.34,4.34,0,0,1,3.58-1.61,4.29,4.29,0,0,1,3.68,1.74h.14l-.08-.85,0-.82v-4.8h1.78v16.72H266.7Zm-3.57.3a3.26,3.26,0,0,0,2.65-1,5,5,0,0,0,.82-3.21v-.38a6,6,0,0,0-.83-3.57,3.18,3.18,0,0,0-2.66-1.07,2.72,2.72,0,0,0-2.4,1.22,6,6,0,0,0-.83,3.45,5.82,5.82,0,0,0,.82,3.4A2.79,2.79,0,0,0,262.9,220.64Z"></path><path d="M282.35,222.13a5,5,0,0,1-4-1.57,6.44,6.44,0,0,1-1.41-4.45,6.69,6.69,0,0,1,1.43-4.57,5.13,5.13,0,0,1,4.05-1.61,8.19,8.19,0,0,1,1.7.18,6.29,6.29,0,0,1,1.33.43l-.55,1.52a7.52,7.52,0,0,0-1.29-.39,5.33,5.33,0,0,0-1.23-.16q-3.58,0-3.59,4.58a5.43,5.43,0,0,0,.88,3.33,3,3,0,0,0,2.59,1.16,7.81,7.81,0,0,0,3-.64v1.58A6.43,6.43,0,0,1,282.35,222.13Z"></path><path d="M293.1,222.13a5.4,5.4,0,0,1-4.12-1.59,6.13,6.13,0,0,1-1.51-4.41,6.83,6.83,0,0,1,1.4-4.52,4.64,4.64,0,0,1,3.76-1.68,4.46,4.46,0,0,1,3.51,1.46,5.57,5.57,0,0,1,1.29,3.84v1.12h-8.12a4.68,4.68,0,0,0,1.05,3.15,3.62,3.62,0,0,0,2.8,1.08,9.49,9.49,0,0,0,3.76-.8v1.59a9.83,9.83,0,0,1-1.79.59A9.93,9.93,0,0,1,293.1,222.13Zm-.49-10.71a2.9,2.9,0,0,0-2.26.93,4.25,4.25,0,0,0-1,2.55h6.15a3.93,3.93,0,0,0-.75-2.58A2.65,2.65,0,0,0,292.61,211.42Z"></path><path d="M308.52,221.92V214.3a3.12,3.12,0,0,0-.65-2.15,2.69,2.69,0,0,0-2.06-.7,3.38,3.38,0,0,0-2.7,1,5,5,0,0,0-.86,3.3v6.18h-1.78V210.15h1.45l.29,1.61h.08a3.69,3.69,0,0,1,1.54-1.35,5,5,0,0,1,2.2-.48,4.43,4.43,0,0,1,3.2,1,4.33,4.33,0,0,1,1.08,3.28v7.68Z"></path><path d="M317.77,220.66a5.33,5.33,0,0,0,.91-.07,4.74,4.74,0,0,0,.7-.14v1.36a3.35,3.35,0,0,1-.85.23,6.61,6.61,0,0,1-1,.09q-3.4,0-3.41-3.59v-7h-1.69v-.86l1.69-.74.75-2.51h1v2.73h3.42v1.38h-3.42v6.93a2.36,2.36,0,0,0,.51,1.63A1.73,1.73,0,0,0,317.77,220.66Z"></path><path d="M327.11,209.93a6.6,6.6,0,0,1,1.4.13l-.24,1.65a6.65,6.65,0,0,0-1.29-.16,3.15,3.15,0,0,0-2.45,1.16,4.28,4.28,0,0,0-1,2.89v6.32h-1.79V210.15h1.48l.2,2.18h.09a5.1,5.1,0,0,1,1.58-1.78A3.57,3.57,0,0,1,327.11,209.93Z"></path><path d="M338,221.92l-.36-1.68h-.08a5,5,0,0,1-1.76,1.5,5.37,5.37,0,0,1-2.19.39,3.93,3.93,0,0,1-2.74-.9,3.31,3.31,0,0,1-1-2.57c0-2.37,1.91-3.62,5.71-3.73l2-.07v-.73a2.94,2.94,0,0,0-.6-2,2.42,2.42,0,0,0-1.91-.67,7.68,7.68,0,0,0-3.33.91l-.54-1.37a8.63,8.63,0,0,1,1.9-.74,8.25,8.25,0,0,1,2.08-.27,4.44,4.44,0,0,1,3.12.94,3.88,3.88,0,0,1,1,3v8Zm-4-1.26a3.59,3.59,0,0,0,2.61-.91,3.36,3.36,0,0,0,.95-2.56v-1.06l-1.78.07a6.51,6.51,0,0,0-3.07.66,2,2,0,0,0-.94,1.83,1.85,1.85,0,0,0,.59,1.47A2.47,2.47,0,0,0,333.93,220.66Z"></path><path d="M344.73,221.92H343V205.2h1.78Z"></path></g><g class="cls-1"><path d="M77.82,250.15v1.12l-2.18.26a3.79,3.79,0,0,1,.54,1,3.66,3.66,0,0,1,.24,1.36,3.46,3.46,0,0,1-1.19,2.76,4.72,4.72,0,0,1-3.24,1,5.21,5.21,0,0,1-1-.09,1.76,1.76,0,0,0-1.14,1.51.78.78,0,0,0,.4.72,3,3,0,0,0,1.37.23h2.08a4.68,4.68,0,0,1,2.94.81,2.79,2.79,0,0,1,1,2.34,3.34,3.34,0,0,1-1.57,3,8.41,8.41,0,0,1-4.57,1,6.27,6.27,0,0,1-3.56-.85,2.78,2.78,0,0,1-1.25-2.43,2.7,2.7,0,0,1,.68-1.86A3.5,3.5,0,0,1,69.34,261a1.87,1.87,0,0,1-.76-.64,1.7,1.7,0,0,1-.31-1,1.92,1.92,0,0,1,.35-1.13,3.66,3.66,0,0,1,1.08-.93A3.22,3.22,0,0,1,68.21,256a3.78,3.78,0,0,1-.57-2.06,3.82,3.82,0,0,1,1.16-3,4.73,4.73,0,0,1,3.29-1,5.7,5.7,0,0,1,1.66.22ZM68.43,263.9a1.6,1.6,0,0,0,.81,1.45,4.46,4.46,0,0,0,2.31.49,6.4,6.4,0,0,0,3.32-.67A2.06,2.06,0,0,0,76,263.35a1.43,1.43,0,0,0-.59-1.33,4.52,4.52,0,0,0-2.22-.37H71a2.79,2.79,0,0,0-1.89.58A2.08,2.08,0,0,0,68.43,263.9Zm1-10a2.4,2.4,0,0,0,.7,1.87,2.78,2.78,0,0,0,1.94.63,2.28,2.28,0,0,0,2.61-2.54A2.34,2.34,0,0,0,72,251.23a2.61,2.61,0,0,0-1.93.68A2.73,2.73,0,0,0,69.4,253.92Z"></path><path d="M90.4,256a6.49,6.49,0,0,1-1.45,4.5,5.08,5.08,0,0,1-4,1.61,5.27,5.27,0,0,1-2.81-.74,4.89,4.89,0,0,1-1.89-2.12,7.51,7.51,0,0,1-.67-3.25A6.47,6.47,0,0,1,81,251.54a5.11,5.11,0,0,1,4-1.61A5,5,0,0,1,89,251.57,6.48,6.48,0,0,1,90.4,256Zm-9,0a5.6,5.6,0,0,0,.9,3.44,3.59,3.59,0,0,0,5.32,0,5.58,5.58,0,0,0,.9-3.44,5.5,5.5,0,0,0-.9-3.41A3.19,3.19,0,0,0,85,251.45a3.15,3.15,0,0,0-2.65,1.15A5.52,5.52,0,0,0,81.43,256Z"></path><path d="M96.11,261.92l-4.47-11.77h1.91l2.53,7a30.51,30.51,0,0,1,1,3.18h.09a24.16,24.16,0,0,1,.75-2.36q.63-1.79,2.82-7.8h1.91l-4.47,11.77Z"></path><path d="M109.52,262.13a5.42,5.42,0,0,1-4.12-1.59,6.18,6.18,0,0,1-1.51-4.41,6.78,6.78,0,0,1,1.41-4.52,4.64,4.64,0,0,1,3.76-1.68,4.43,4.43,0,0,1,3.5,1.46,5.57,5.57,0,0,1,1.29,3.84v1.12h-8.11a4.68,4.68,0,0,0,1.05,3.15,3.6,3.6,0,0,0,2.8,1.08,9.49,9.49,0,0,0,3.76-.8v1.59a9.83,9.83,0,0,1-1.79.59A10,10,0,0,1,109.52,262.13ZM109,251.42a2.89,2.89,0,0,0-2.26.93,4.25,4.25,0,0,0-1,2.55h6.15a3.93,3.93,0,0,0-.75-2.58A2.65,2.65,0,0,0,109,251.42Z"></path><path d="M122.26,249.93a6.64,6.64,0,0,1,1.41.13l-.25,1.65a6.47,6.47,0,0,0-1.29-.16,3.15,3.15,0,0,0-2.44,1.16,4.23,4.23,0,0,0-1,2.89v6.32h-1.79V250.15h1.47l.21,2.18h.08a5.31,5.31,0,0,1,1.58-1.78A3.62,3.62,0,0,1,122.26,249.93Z"></path><path d="M133.93,261.92V254.3a3.07,3.07,0,0,0-.66-2.15,2.66,2.66,0,0,0-2.05-.7,3.38,3.38,0,0,0-2.7,1,5,5,0,0,0-.86,3.3v6.18h-1.79V250.15h1.45l.29,1.61h.09a3.63,3.63,0,0,1,1.54-1.35,4.94,4.94,0,0,1,2.2-.48,4.45,4.45,0,0,1,3.2,1,4.37,4.37,0,0,1,1.07,3.28v7.68Z"></path><path d="M154.38,261.92v-7.66a3.18,3.18,0,0,0-.6-2.11,2.32,2.32,0,0,0-1.87-.7,3,3,0,0,0-2.46,1,4.56,4.56,0,0,0-.79,2.95v6.57h-1.79v-7.66a3.18,3.18,0,0,0-.6-2.11,2.34,2.34,0,0,0-1.88-.7,2.91,2.91,0,0,0-2.45,1,5.43,5.43,0,0,0-.78,3.29v6.18h-1.78V250.15h1.45l.29,1.61h.08a3.52,3.52,0,0,1,1.43-1.35,4.34,4.34,0,0,1,2.05-.48c1.84,0,3,.67,3.61,2h.09a3.76,3.76,0,0,1,1.52-1.46,4.74,4.74,0,0,1,2.28-.54,4,4,0,0,1,3,1,4.58,4.58,0,0,1,1,3.28v7.68Z"></path><path d="M164.81,262.13a5.42,5.42,0,0,1-4.12-1.59,6.18,6.18,0,0,1-1.51-4.41,6.78,6.78,0,0,1,1.41-4.52,4.64,4.64,0,0,1,3.76-1.68,4.43,4.43,0,0,1,3.5,1.46,5.57,5.57,0,0,1,1.29,3.84v1.12H161a4.68,4.68,0,0,0,1.05,3.15,3.6,3.6,0,0,0,2.8,1.08,9.49,9.49,0,0,0,3.76-.8v1.59a9.83,9.83,0,0,1-1.79.59A10,10,0,0,1,164.81,262.13Zm-.48-10.71a2.89,2.89,0,0,0-2.26.93,4.25,4.25,0,0,0-1,2.55h6.15a3.93,3.93,0,0,0-.75-2.58A2.65,2.65,0,0,0,164.33,251.42Z"></path><path d="M180.24,261.92V254.3a3.07,3.07,0,0,0-.66-2.15,2.66,2.66,0,0,0-2.05-.7,3.38,3.38,0,0,0-2.7,1,5,5,0,0,0-.86,3.3v6.18h-1.79V250.15h1.45l.29,1.61H174a3.66,3.66,0,0,1,1.53-1.35,5,5,0,0,1,2.21-.48,4.45,4.45,0,0,1,3.2,1,4.37,4.37,0,0,1,1.07,3.28v7.68Z"></path><path d="M189.49,260.66a5.41,5.41,0,0,0,.91-.07,5,5,0,0,0,.7-.14v1.36a3.35,3.35,0,0,1-.85.23,6.61,6.61,0,0,1-1,.09q-3.42,0-3.42-3.59v-7h-1.68v-.86l1.68-.74.76-2.51h1v2.73H191v1.38H187.6v6.93a2.41,2.41,0,0,0,.5,1.63A1.77,1.77,0,0,0,189.49,260.66Z"></path></g></g><g id="Group_45" data-name="Group 45"><path id="Path_1438" data-name="Path 1438" class="cls-2" d="M101.11,76.24a1.21,1.21,0,0,1-1.08.47c-2.17,0-4.34,0-6.51,0-.43,0-.54.14-.54.56q0,11,0,22a6.23,6.23,0,0,1-4.84,6.1,10.92,10.92,0,0,1-2.42.18q-11.7,0-23.42,0a6.41,6.41,0,0,1-6.41-4.89,5.59,5.59,0,0,1-.15-1.23c0-1.18,0-2.36,0-3.54,0-.73.25-1,1-1,1.64,0,3.28,0,4.91,0,.39,0,.52-.11.52-.5,0-1.92,0-3.83.06-5.75q.06-9.54.11-19.07a4.82,4.82,0,0,1,1.87-4.1,4.5,4.5,0,0,1,2.3-.94c.15,0,.29,0,.44-.06H96.41l.3.06a4.64,4.64,0,0,1,2.54,1,5,5,0,0,1,1.85,3ZM92.73,66.1l-.48,0c-8.35,0-16.7,0-25,0a3.18,3.18,0,0,0-3.28,3.07v.2c0,1.34,0,2.68,0,4-.06,4.13,0,8.26-.09,12.39-.06,2.83,0,5.66,0,8.5,0,.64,0,.64.67.64H81c.83,0,1.11.28,1.11,1.12,0,1.08,0,2.15,0,3.23a4.68,4.68,0,0,0,4.66,4.68,4.75,4.75,0,0,0,3-1.07,4.8,4.8,0,0,0,1.69-3.79V69.71a7.38,7.38,0,0,1,0-1,5.36,5.36,0,0,1,1.25-2.56ZM82.58,103.93c-.16-.18-.23-.27-.31-.35a6.2,6.2,0,0,1-1.65-3.22,19.84,19.84,0,0,1-.14-3.27c0-.65,0-.65-.66-.65H57.61c-.2,0-.3.08-.3.29a21.81,21.81,0,0,0,0,3.13,4.6,4.6,0,0,0,4.8,4.06H82.58ZM96.27,75.14h2.92c.28,0,.4-.08.4-.38,0-1.87,0-3.74,0-5.61a3,3,0,0,0-1.06-2.22,3.09,3.09,0,0,0-3.5-.58,3.19,3.19,0,0,0-2,3.07c0,1.75,0,3.51,0,5.26,0,.34.1.47.46.47.94,0,1.88,0,2.83,0Z"></path><path id="Path_1439" data-name="Path 1439" class="cls-2" d="M83.7,76.07a19.36,19.36,0,0,1-.1,3.14,5.52,5.52,0,0,1-2.25,3.48c-1.16.82-2.34,1.61-3.5,2.4-.54.37-.73.37-1.28,0-1.18-.8-2.36-1.56-3.5-2.4a5.37,5.37,0,0,1-2.35-4.44c0-1.68,0-3.36,0-5a.94.94,0,0,1,.6-1q2.68-1.31,5.36-2.64a1.19,1.19,0,0,1,1.1,0q2.67,1.33,5.36,2.64a1,1,0,0,1,.59,1C83.69,74.09,83.7,75,83.7,76.07Zm-11.44.07V78a4.05,4.05,0,0,0,1.81,3.46c.94.65,1.88,1.27,2.81,1.93a.47.47,0,0,0,.63,0c1-.69,2-1.35,3-2.06a3.83,3.83,0,0,0,1.65-3.13c0-1.43,0-2.86,0-4.29a.62.62,0,0,0-.4-.65c-1.4-.67-2.78-1.36-4.17-2a.74.74,0,0,0-.75,0c-1.38.69-2.77,1.38-4.16,2.05a.64.64,0,0,0-.42.69c0,.72,0,1.45,0,2.16Z"></path><path id="Path_1440" data-name="Path 1440" class="cls-2" d="M77.51,92.2h-8.4a2.68,2.68,0,0,1-.49,0,.74.74,0,0,1-.66-.72.76.76,0,0,1,.62-.8,2.64,2.64,0,0,1,.49,0H86c.74,0,1.12.25,1.13.76s-.37.8-1.14.8Z"></path><path id="Path_1441" data-name="Path 1441" class="cls-2" d="M77.52,87.26h8.41a4.7,4.7,0,0,1,.53,0,.72.72,0,0,1,.63.69.69.69,0,0,1-.48.76,1.27,1.27,0,0,1-.47.09H68.93a1.62,1.62,0,0,1-.44-.07.71.71,0,0,1-.52-.82.7.7,0,0,1,.7-.66c.43,0,.86,0,1.28,0Z"></path><path id="Path_1442" data-name="Path 1442" class="cls-2" d="M76.46,79.62a.81.81,0,0,1-.55-.25c-.47-.47-.94-.94-1.4-1.42a.8.8,0,0,1-.06-1.12l0,0a.76.76,0,0,1,1.08,0l.06.07a6.67,6.67,0,0,1,.59.6c.2.23.35.24.57,0,.61-.64,1.24-1.26,1.87-1.88a2.28,2.28,0,0,1,.33-.29.7.7,0,0,1,1,.08.75.75,0,0,1,.1,1,1.2,1.2,0,0,1-.17.21l-2.75,2.75A.87.87,0,0,1,76.46,79.62Z"></path></g></svg>