<svg xmlns="http://www.w3.org/2000/svg" id="Layer_1" data-name="Layer 1" viewBox="0 0 431.86 330.4"><defs><style>.cls-1{fill:#f8f8f8;}.cls-2{isolation:isolate;}.cls-3{fill:#4d4d4f;}.cls-4{fill:none;stroke:#f68723;stroke-miterlimit:10;}</style></defs><rect id="Rectangle_23" data-name="Rectangle 23" class="cls-1" x="15.93" y="11.69" width="400" height="307.01" rx="16.54"></rect><g id="Open_Digital_Ecosystem" data-name="Open Digital Ecosystem" class="cls-2"><g class="cls-2"><path class="cls-3" d="M150.19,72.09c0,2.78-.68,4.91-2.06,6.4a8.94,8.94,0,0,1-11.84,0,9.16,9.16,0,0,1-2.06-6.42c0-2.79.69-4.93,2.07-6.4a7.75,7.75,0,0,1,5.93-2.21,7.67,7.67,0,0,1,5.92,2.23C149.51,67.17,150.19,69.31,150.19,72.09Zm-12.24,0A7,7,0,0,0,139,76.32a3.73,3.73,0,0,0,3.19,1.42q4.26,0,4.26-5.65t-4.24-5.67a3.77,3.77,0,0,0-3.2,1.43A7,7,0,0,0,138,72.09Z"></path><path class="cls-3" d="M160.44,80.73a4.27,4.27,0,0,1-3.55-1.64h-.18c.12,1.07.18,1.69.18,1.85v5.2h-3.5V67.67h2.85l.49,1.67h.16a4.05,4.05,0,0,1,3.64-1.91,4.15,4.15,0,0,1,3.55,1.76,8.08,8.08,0,0,1,1.29,4.87,9.67,9.67,0,0,1-.6,3.57,5,5,0,0,1-1.72,2.3A4.37,4.37,0,0,1,160.44,80.73Zm-1-10.5a2.22,2.22,0,0,0-1.9.8,4.59,4.59,0,0,0-.62,2.63V74a5.39,5.39,0,0,0,.62,3,2.17,2.17,0,0,0,1.94.89q2.36,0,2.35-3.87a5.48,5.48,0,0,0-.58-2.84A2,2,0,0,0,159.41,70.23Z"></path><path class="cls-3" d="M174.06,80.73A6.64,6.64,0,0,1,169.22,79a6.47,6.47,0,0,1-1.74-4.84,7.16,7.16,0,0,1,1.61-5,5.76,5.76,0,0,1,4.46-1.76A5.66,5.66,0,0,1,177.78,69a5.86,5.86,0,0,1,1.52,4.28V75H171a3.4,3.4,0,0,0,.89,2.33,3.13,3.13,0,0,0,2.32.83,9.67,9.67,0,0,0,2.19-.24,10.57,10.57,0,0,0,2.15-.77v2.71a8,8,0,0,1-2,.68A12.2,12.2,0,0,1,174.06,80.73Zm-.49-10.81a2.22,2.22,0,0,0-1.74.71,3.24,3.24,0,0,0-.72,2H176a2.9,2.9,0,0,0-.67-2A2.31,2.31,0,0,0,173.57,69.92Z"></path><path class="cls-3" d="M194,80.5h-3.5V73a3.65,3.65,0,0,0-.49-2.08,1.8,1.8,0,0,0-1.58-.7,2.38,2.38,0,0,0-2.12,1,6.16,6.16,0,0,0-.65,3.25v6h-3.5V67.67h2.67l.47,1.64h.2a3.72,3.72,0,0,1,1.61-1.4,5.42,5.42,0,0,1,2.33-.48,4.51,4.51,0,0,1,3.4,1.21,4.88,4.88,0,0,1,1.16,3.5Z"></path><path class="cls-3" d="M217.87,72a8.25,8.25,0,0,1-2.36,6.35c-1.57,1.46-3.84,2.2-6.8,2.2H204V63.73h5.26a8.88,8.88,0,0,1,6.38,2.16A8,8,0,0,1,217.87,72Zm-3.69.09q0-5.4-4.77-5.4h-1.9V77.56H209C212.46,77.56,214.18,75.72,214.18,72Z"></path><path class="cls-3" d="M220.92,64.36c0-1.14.64-1.71,1.91-1.71s1.9.57,1.9,1.71a1.68,1.68,0,0,1-.48,1.27,2,2,0,0,1-1.42.45C221.56,66.08,220.92,65.51,220.92,64.36Zm3.65,16.14h-3.5V67.67h3.5Z"></path><path class="cls-3" d="M239.4,67.67v1.78l-2,.52a3.45,3.45,0,0,1,.55,1.92,3.91,3.91,0,0,1-1.43,3.22,6.25,6.25,0,0,1-4,1.16l-.63,0-.52-.06a1.17,1.17,0,0,0-.54.92c0,.51.64.76,1.93.76h2.18a5,5,0,0,1,3.22.9,3.28,3.28,0,0,1,1.1,2.67,3.93,3.93,0,0,1-1.87,3.48A9.75,9.75,0,0,1,232,86.14a7.47,7.47,0,0,1-4.1-.93,3,3,0,0,1-1.42-2.62,2.7,2.7,0,0,1,.73-1.94,4.17,4.17,0,0,1,2.12-1.12,2.31,2.31,0,0,1-.94-.75,1.76,1.76,0,0,1-.4-1.1,1.84,1.84,0,0,1,.42-1.23,4.81,4.81,0,0,1,1.23-1,3.45,3.45,0,0,1-1.6-1.4,4.22,4.22,0,0,1-.59-2.27,4,4,0,0,1,1.36-3.25,5.87,5.87,0,0,1,3.9-1.15,11,11,0,0,1,1.28.1l1,.14Zm-9.9,14.64a1.27,1.27,0,0,0,.7,1.14,3.86,3.86,0,0,0,1.94.41,6.81,6.81,0,0,0,3-.52,1.57,1.57,0,0,0,1.07-1.41,1,1,0,0,0-.64-1,5.25,5.25,0,0,0-2-.27h-1.81a2.75,2.75,0,0,0-1.61.45A1.4,1.4,0,0,0,229.5,82.31Zm1.28-10.44a2.57,2.57,0,0,0,.47,1.65,1.72,1.72,0,0,0,1.45.61,1.69,1.69,0,0,0,1.45-.61,2.69,2.69,0,0,0,.46-1.65c0-1.54-.64-2.32-1.91-2.32S230.78,70.33,230.78,71.87Z"></path><path class="cls-3" d="M241.36,64.36c0-1.14.64-1.71,1.91-1.71s1.9.57,1.9,1.71a1.71,1.71,0,0,1-.47,1.27,2,2,0,0,1-1.43.45C242,66.08,241.36,65.51,241.36,64.36ZM245,80.5h-3.5V67.67H245Z"></path><path class="cls-3" d="M254.08,77.94a7.52,7.52,0,0,0,2.21-.4v2.6a7.88,7.88,0,0,1-3.22.59,4,4,0,0,1-3-1.06,4.63,4.63,0,0,1-1-3.19V70.3h-1.67V68.82l1.92-1.17,1-2.71h2.24v2.73h3.59V70.3h-3.59v6.18a1.35,1.35,0,0,0,.42,1.1A1.64,1.64,0,0,0,254.08,77.94Z"></path><path class="cls-3" d="M267,80.5l-.67-1.75h-.1a5.08,5.08,0,0,1-1.81,1.55,6,6,0,0,1-2.44.43,3.93,3.93,0,0,1-2.91-1.06,4,4,0,0,1-1.06-3,3.38,3.38,0,0,1,1.43-3,8.25,8.25,0,0,1,4.31-1.08l2.22-.07V72a1.74,1.74,0,0,0-2-2,9.12,9.12,0,0,0-3.61.93l-1.16-2.36a10.49,10.49,0,0,1,4.91-1.16,6.13,6.13,0,0,1,4,1.12A4.15,4.15,0,0,1,269.47,72V80.5Zm-1-5.94-1.35,0a4.36,4.36,0,0,0-2.27.55,1.73,1.73,0,0,0-.75,1.54c0,1,.57,1.48,1.7,1.48a2.66,2.66,0,0,0,1.94-.7,2.46,2.46,0,0,0,.73-1.86Z"></path><path class="cls-3" d="M276.57,80.5h-3.5V62.65h3.5Z"></path></g><g class="cls-2"><path class="cls-3" d="M144.63,110.5H135V93.73h9.66v2.91h-6.1v3.68h5.68v2.92h-5.68v4.32h6.1Z"></path><path class="cls-3" d="M153.06,110.73q-6,0-6-6.58a7,7,0,0,1,1.63-5,6.12,6.12,0,0,1,4.67-1.73,8.9,8.9,0,0,1,4,.87l-1,2.71c-.55-.22-1.06-.4-1.54-.54a4.62,4.62,0,0,0-1.42-.22c-1.82,0-2.73,1.3-2.73,3.88s.91,3.76,2.73,3.76a6.21,6.21,0,0,0,1.87-.27,6.82,6.82,0,0,0,1.72-.84v3a5.69,5.69,0,0,1-1.71.75A9.55,9.55,0,0,1,153.06,110.73Z"></path><path class="cls-3" d="M171.59,104.06a6.9,6.9,0,0,1-1.65,4.9,6,6,0,0,1-4.61,1.77,6.4,6.4,0,0,1-3.25-.81,5.41,5.41,0,0,1-2.17-2.32,7.76,7.76,0,0,1-.76-3.54,6.86,6.86,0,0,1,1.64-4.88,6,6,0,0,1,4.61-1.75,6.41,6.41,0,0,1,3.26.81,5.36,5.36,0,0,1,2.17,2.3A7.8,7.8,0,0,1,171.59,104.06Zm-8.87,0a5.35,5.35,0,0,0,.63,2.88,2.58,2.58,0,0,0,4,0,5.47,5.47,0,0,0,.62-2.89,5.29,5.29,0,0,0-.62-2.85,2.62,2.62,0,0,0-4,0A5.33,5.33,0,0,0,162.72,104.06Z"></path><path class="cls-3" d="M183.42,106.69a3.5,3.5,0,0,1-1.37,3,6.75,6.75,0,0,1-4.1,1,13.32,13.32,0,0,1-2.38-.19,8.86,8.86,0,0,1-1.85-.56v-2.89a12,12,0,0,0,2.2.77,8.69,8.69,0,0,0,2.15.31c1.27,0,1.9-.37,1.9-1.1a.9.9,0,0,0-.25-.67,3.56,3.56,0,0,0-.87-.59c-.42-.22-1-.47-1.65-.76A10.23,10.23,0,0,1,175,103.9a3.2,3.2,0,0,1-1-1.21,4,4,0,0,1-.31-1.68A3,3,0,0,1,175,98.37a6.43,6.43,0,0,1,3.76-.94,10.73,10.73,0,0,1,4.51,1L182.23,101a16.52,16.52,0,0,0-1.8-.68,5.56,5.56,0,0,0-1.71-.27c-1,0-1.55.28-1.55.84a1,1,0,0,0,.5.82,13.19,13.19,0,0,0,2.19,1,10.12,10.12,0,0,1,2.2,1.13,3.29,3.29,0,0,1,1,1.22A3.75,3.75,0,0,1,183.42,106.69Z"></path><path class="cls-3" d="M184.32,97.67h3.83l2.42,7.22a10,10,0,0,1,.43,2.22h.06a9.85,9.85,0,0,1,.5-2.22l2.37-7.22h3.75l-5.42,14.47a6.24,6.24,0,0,1-2.13,3,5.34,5.34,0,0,1-3.23,1,8.15,8.15,0,0,1-1.78-.19v-2.78a6,6,0,0,0,1.38.15,2.47,2.47,0,0,0,1.62-.57,3.72,3.72,0,0,0,1.09-1.71l.2-.63Z"></path><path class="cls-3" d="M208.46,106.69a3.5,3.5,0,0,1-1.37,3,6.75,6.75,0,0,1-4.1,1,13.4,13.4,0,0,1-2.38-.19,8.86,8.86,0,0,1-1.85-.56v-2.89a12,12,0,0,0,2.2.77,8.69,8.69,0,0,0,2.15.31c1.27,0,1.9-.37,1.9-1.1a.9.9,0,0,0-.25-.67,3.56,3.56,0,0,0-.87-.59c-.41-.22-1-.47-1.65-.76a10.48,10.48,0,0,1-2.18-1.15,3.2,3.2,0,0,1-1-1.21,4,4,0,0,1-.31-1.68,3,3,0,0,1,1.32-2.64,6.43,6.43,0,0,1,3.76-.94,10.73,10.73,0,0,1,4.51,1L207.27,101a16.52,16.52,0,0,0-1.8-.68,5.56,5.56,0,0,0-1.71-.27c-1,0-1.55.28-1.55.84a1,1,0,0,0,.5.82,13.62,13.62,0,0,0,2.19,1,10.12,10.12,0,0,1,2.2,1.13,3.29,3.29,0,0,1,1,1.22A3.75,3.75,0,0,1,208.46,106.69Z"></path><path class="cls-3" d="M216.6,107.94a7.51,7.51,0,0,0,2.2-.4v2.6a7.83,7.83,0,0,1-3.21.59,4,4,0,0,1-3.06-1.06,4.63,4.63,0,0,1-1-3.19V100.3H209.9V98.82l1.93-1.17,1-2.71h2.23v2.73h3.59v2.63h-3.59v6.18a1.35,1.35,0,0,0,.42,1.1A1.65,1.65,0,0,0,216.6,107.94Z"></path><path class="cls-3" d="M227.2,110.73a6.6,6.6,0,0,1-4.84-1.71,6.44,6.44,0,0,1-1.75-4.84,7.16,7.16,0,0,1,1.61-5,5.76,5.76,0,0,1,4.46-1.76A5.66,5.66,0,0,1,230.91,99a5.86,5.86,0,0,1,1.52,4.28V105h-8.27a3.35,3.35,0,0,0,.88,2.33,3.13,3.13,0,0,0,2.32.83,9.67,9.67,0,0,0,2.19-.24,10.16,10.16,0,0,0,2.15-.77v2.71a8,8,0,0,1-2,.68A12.17,12.17,0,0,1,227.2,110.73Zm-.5-10.81a2.22,2.22,0,0,0-1.74.71,3.24,3.24,0,0,0-.72,2h4.91a2.9,2.9,0,0,0-.68-2A2.31,2.31,0,0,0,226.7,99.92Z"></path><path class="cls-3" d="M246.75,110.5h-3.49V103a3.74,3.74,0,0,0-.47-2.08,1.62,1.62,0,0,0-1.46-.7,2.1,2.1,0,0,0-2,1,6.41,6.41,0,0,0-.61,3.24v6h-3.5V97.67h2.67l.48,1.64h.19a3.5,3.5,0,0,1,1.49-1.38,4.89,4.89,0,0,1,2.24-.5c1.92,0,3.22.63,3.9,1.88h.31a3.41,3.41,0,0,1,1.52-1.38,5,5,0,0,1,2.26-.5,4.48,4.48,0,0,1,3.3,1.12,4.9,4.9,0,0,1,1.12,3.59v8.36h-3.51V103a3.74,3.74,0,0,0-.47-2.08,1.6,1.6,0,0,0-1.46-.7,2.2,2.2,0,0,0-1.92.92,5.23,5.23,0,0,0-.64,2.91Z"></path></g></g><g id="to_build_capacity_at_system_level_to_solve_societal_challenges_at_scale" data-name="to build capacity at system level to solve societal challenges at scale" class="cls-2"><g class="cls-2"><path d="M53.13,195.08A5.41,5.41,0,0,0,54,195a6.7,6.7,0,0,0,.7-.15v1.37a3.45,3.45,0,0,1-.86.23,6.39,6.39,0,0,1-1,.09q-3.42,0-3.42-3.6v-7H47.77v-.86l1.68-.74.76-2.52h1v2.73h3.41V186H51.24v6.93a2.36,2.36,0,0,0,.5,1.63A1.77,1.77,0,0,0,53.13,195.08Z"></path><path d="M67.25,190.44a6.45,6.45,0,0,1-1.45,4.49,5.08,5.08,0,0,1-4,1.62,5.36,5.36,0,0,1-2.81-.74,4.92,4.92,0,0,1-1.89-2.13,7.44,7.44,0,0,1-.66-3.24A6.54,6.54,0,0,1,57.87,186a5.1,5.1,0,0,1,4-1.6A5,5,0,0,1,65.8,186,6.48,6.48,0,0,1,67.25,190.44Zm-9,0a5.55,5.55,0,0,0,.91,3.44,3.58,3.58,0,0,0,5.31,0,5.58,5.58,0,0,0,.91-3.44A5.5,5.5,0,0,0,64.5,187a3.64,3.64,0,0,0-5.33,0A5.58,5.58,0,0,0,58.28,190.44Z"></path><path d="M81.57,184.37A4.41,4.41,0,0,1,85.18,186a8.52,8.52,0,0,1,0,9,4.38,4.38,0,0,1-3.6,1.6,5.18,5.18,0,0,1-2.1-.42,4,4,0,0,1-1.59-1.31h-.13l-.38,1.52H76.09V179.62h1.79v4.06c0,.91,0,1.73-.09,2.45h.09A4.24,4.24,0,0,1,81.57,184.37Zm-.26,1.49a3.12,3.12,0,0,0-2.63,1,8.14,8.14,0,0,0,0,7.08,3.18,3.18,0,0,0,2.66,1.07,2.76,2.76,0,0,0,2.45-1.2,6.23,6.23,0,0,0,.8-3.44,6,6,0,0,0-.8-3.43A2.87,2.87,0,0,0,81.31,185.86Z"></path><path d="M91.25,184.56v7.64a3.06,3.06,0,0,0,.66,2.15,2.67,2.67,0,0,0,2,.71,3.36,3.36,0,0,0,2.7-1,5.08,5.08,0,0,0,.85-3.3v-6.19H99.3v11.78H97.83l-.26-1.58h-.1A3.52,3.52,0,0,1,96,196.09a5.09,5.09,0,0,1-2.22.46,4.48,4.48,0,0,1-3.21-1,4.31,4.31,0,0,1-1.07-3.26v-7.71Z"></path><path d="M102.93,181.37a1.21,1.21,0,0,1,.3-.9,1.09,1.09,0,0,1,.75-.28,1.06,1.06,0,0,1,.74.29,1.15,1.15,0,0,1,.31.89,1.19,1.19,0,0,1-.31.9,1.1,1.1,0,0,1-1.49,0A1.22,1.22,0,0,1,102.93,181.37Zm1.93,15h-1.78V184.56h1.78Z"></path><path d="M110.43,196.34h-1.79V179.62h1.79Z"></path><path d="M122.22,194.76h-.1a4.19,4.19,0,0,1-3.69,1.79,4.37,4.37,0,0,1-3.59-1.58,6.92,6.92,0,0,1-1.29-4.49,7.05,7.05,0,0,1,1.29-4.52,4.36,4.36,0,0,1,3.59-1.61,4.27,4.27,0,0,1,3.67,1.74h.14l-.07-.85,0-.83v-4.79h1.79v16.72h-1.45Zm-3.57.3a3.23,3.23,0,0,0,2.65-1,5,5,0,0,0,.82-3.2v-.38a5.86,5.86,0,0,0-.83-3.57,3.16,3.16,0,0,0-2.66-1.07,2.75,2.75,0,0,0-2.4,1.22,6.09,6.09,0,0,0-.83,3.44,5.76,5.76,0,0,0,.83,3.41A2.79,2.79,0,0,0,118.65,195.06Z"></path><path d="M138.11,196.55a5,5,0,0,1-4-1.57,6.51,6.51,0,0,1-1.4-4.46,6.66,6.66,0,0,1,1.42-4.56,5.14,5.14,0,0,1,4.06-1.61,8.09,8.09,0,0,1,1.69.18,5.87,5.87,0,0,1,1.34.43l-.55,1.51a10.88,10.88,0,0,0-1.29-.39,6,6,0,0,0-1.24-.15q-3.59,0-3.58,4.57a5.46,5.46,0,0,0,.87,3.33,3,3,0,0,0,2.6,1.16,7.93,7.93,0,0,0,3-.63v1.58A6.38,6.38,0,0,1,138.11,196.55Z"></path><path d="M151.12,196.34l-.36-1.68h-.08a5,5,0,0,1-1.76,1.5,5.37,5.37,0,0,1-2.19.39,3.93,3.93,0,0,1-2.74-.9,3.3,3.3,0,0,1-1-2.57c0-2.38,1.9-3.62,5.7-3.74l2-.06v-.73a3,3,0,0,0-.6-2.05,2.45,2.45,0,0,0-1.9-.66,7.72,7.72,0,0,0-3.33.9l-.55-1.36a8.16,8.16,0,0,1,1.9-.74,8.31,8.31,0,0,1,2.08-.27,4.48,4.48,0,0,1,3.12.93,3.91,3.91,0,0,1,1,3v8Zm-4-1.26a3.63,3.63,0,0,0,2.61-.91,3.36,3.36,0,0,0,1-2.56v-1.06l-1.79.07a6.43,6.43,0,0,0-3.06.66,2,2,0,0,0-.94,1.82,1.82,1.82,0,0,0,.58,1.47A2.42,2.42,0,0,0,147.09,195.08Z"></path><path d="M161.59,196.55a5.11,5.11,0,0,1-2.1-.42,4,4,0,0,1-1.59-1.31h-.13a17.11,17.11,0,0,1,.13,2v4.84h-1.79V184.56h1.45l.25,1.61h.09a4,4,0,0,1,1.6-1.39,4.76,4.76,0,0,1,2.09-.43,4.36,4.36,0,0,1,3.62,1.6,7.1,7.1,0,0,1,1.27,4.49,7,7,0,0,1-1.3,4.51A4.35,4.35,0,0,1,161.59,196.55Zm-.26-10.69a3.19,3.19,0,0,0-2.61,1,5.18,5.18,0,0,0-.82,3.18v.4a5.91,5.91,0,0,0,.82,3.55,3.16,3.16,0,0,0,2.66,1.07,2.76,2.76,0,0,0,2.39-1.24,5.9,5.9,0,0,0,.86-3.4,5.68,5.68,0,0,0-.86-3.38A2.84,2.84,0,0,0,161.33,185.86Z"></path><path d="M176.83,196.34l-.35-1.68h-.09a4.88,4.88,0,0,1-1.75,1.5,5.43,5.43,0,0,1-2.19.39,3.92,3.92,0,0,1-2.74-.9,3.27,3.27,0,0,1-1-2.57c0-2.38,1.9-3.62,5.71-3.74l2-.06v-.73a3,3,0,0,0-.6-2.05,2.46,2.46,0,0,0-1.91-.66,7.79,7.79,0,0,0-3.33.9l-.55-1.36a8.64,8.64,0,0,1,4-1,4.51,4.51,0,0,1,3.12.93,3.91,3.91,0,0,1,1,3v8Zm-4-1.26a3.63,3.63,0,0,0,2.61-.91,3.36,3.36,0,0,0,1-2.56v-1.06l-1.78.07a6.51,6.51,0,0,0-3.07.66,2,2,0,0,0-.94,1.82,1.82,1.82,0,0,0,.59,1.47A2.4,2.4,0,0,0,172.81,195.08Z"></path><path d="M186.53,196.55a5,5,0,0,1-3.95-1.57,6.47,6.47,0,0,1-1.41-4.46A6.66,6.66,0,0,1,182.6,186a5.13,5.13,0,0,1,4.05-1.61,8.19,8.19,0,0,1,1.7.18,5.6,5.6,0,0,1,1.33.43l-.55,1.51a9.85,9.85,0,0,0-1.29-.39,5.86,5.86,0,0,0-1.23-.15q-3.59,0-3.59,4.57a5.39,5.39,0,0,0,.88,3.33,3,3,0,0,0,2.59,1.16,8,8,0,0,0,3-.63v1.58A6.43,6.43,0,0,1,186.53,196.55Z"></path><path d="M192.15,181.37a1.21,1.21,0,0,1,.3-.9,1.09,1.09,0,0,1,.76-.28,1.08,1.08,0,0,1,.74.29,1.18,1.18,0,0,1,.31.89,1.23,1.23,0,0,1-.31.9,1,1,0,0,1-.74.29,1,1,0,0,1-.76-.29A1.22,1.22,0,0,1,192.15,181.37Zm1.94,15H192.3V184.56h1.79Z"></path><path d="M201.67,195.08a5.41,5.41,0,0,0,.91-.07,6.17,6.17,0,0,0,.7-.15v1.37a3.35,3.35,0,0,1-.85.23,6.61,6.61,0,0,1-1,.09c-2.28,0-3.41-1.2-3.41-3.6v-7h-1.69v-.86l1.69-.74.75-2.52h1v2.73h3.42V186h-3.42v6.93a2.41,2.41,0,0,0,.5,1.63A1.77,1.77,0,0,0,201.67,195.08Z"></path><path d="M203.76,184.56h1.92l2.57,6.72a25.73,25.73,0,0,1,1.06,3.32h.08c.1-.37.29-1,.59-1.88s1.27-3.6,2.92-8.16h1.91L209.75,198a6.74,6.74,0,0,1-1.76,2.82,3.75,3.75,0,0,1-2.46.83,7.16,7.16,0,0,1-1.61-.18V200a5.9,5.9,0,0,0,1.32.13,2.74,2.74,0,0,0,2.62-2.06l.65-1.68Z"></path><path d="M229.67,196.34l-.35-1.68h-.09a4.88,4.88,0,0,1-1.75,1.5,5.4,5.4,0,0,1-2.19.39,3.92,3.92,0,0,1-2.74-.9,3.27,3.27,0,0,1-1-2.57c0-2.38,1.91-3.62,5.71-3.74l2-.06v-.73a3,3,0,0,0-.6-2.05,2.46,2.46,0,0,0-1.91-.66,7.79,7.79,0,0,0-3.33.9l-.55-1.36a8.42,8.42,0,0,1,1.91-.74,8.25,8.25,0,0,1,2.08-.27,4.51,4.51,0,0,1,3.12.93,3.91,3.91,0,0,1,1,3v8Zm-4-1.26a3.63,3.63,0,0,0,2.61-.91,3.36,3.36,0,0,0,1-2.56v-1.06l-1.78.07a6.51,6.51,0,0,0-3.07.66,2,2,0,0,0-.94,1.82,1.82,1.82,0,0,0,.59,1.47A2.4,2.4,0,0,0,225.65,195.08Z"></path><path d="M238.47,195.08a5.53,5.53,0,0,0,.92-.07,6.42,6.42,0,0,0,.69-.15v1.37a3.23,3.23,0,0,1-.85.23,6.51,6.51,0,0,1-1,.09q-3.41,0-3.41-3.6v-7h-1.69v-.86l1.69-.74.75-2.52h1v2.73H240V186h-3.42v6.93a2.36,2.36,0,0,0,.51,1.63A1.74,1.74,0,0,0,238.47,195.08Z"></path><path d="M255.75,193.12a3,3,0,0,1-1.23,2.54,5.77,5.77,0,0,1-3.44.89,7.53,7.53,0,0,1-3.65-.74v-1.65a9,9,0,0,0,1.82.67,7.43,7.43,0,0,0,1.88.25,4.25,4.25,0,0,0,2.15-.45,1.53,1.53,0,0,0,.15-2.53,9.45,9.45,0,0,0-2.32-1.16,12.33,12.33,0,0,1-2.34-1.06,3.28,3.28,0,0,1-1-1,2.68,2.68,0,0,1-.34-1.39,2.64,2.64,0,0,1,1.17-2.27,5.49,5.49,0,0,1,3.21-.83,9.5,9.5,0,0,1,3.72.77l-.63,1.45a8.54,8.54,0,0,0-3.22-.73,3.65,3.65,0,0,0-1.91.4,1.22,1.22,0,0,0-.64,1.09,1.34,1.34,0,0,0,.24.81,2.37,2.37,0,0,0,.78.63,17.4,17.4,0,0,0,2.06.87,7.62,7.62,0,0,1,2.83,1.54A2.71,2.71,0,0,1,255.75,193.12Z"></path><path d="M256.78,184.56h1.91l2.58,6.72a26.93,26.93,0,0,1,1.05,3.32h.09c.09-.37.28-1,.58-1.88s1.27-3.6,2.92-8.16h1.91L262.76,198a6.74,6.74,0,0,1-1.76,2.82,3.75,3.75,0,0,1-2.46.83,7.22,7.22,0,0,1-1.61-.18V200a5.9,5.9,0,0,0,1.32.13,2.73,2.73,0,0,0,2.62-2.06l.66-1.68Z"></path><path d="M277.33,193.12a3,3,0,0,1-1.23,2.54,5.76,5.76,0,0,1-3.43.89,7.55,7.55,0,0,1-3.66-.74v-1.65a9.19,9.19,0,0,0,1.82.67,7.43,7.43,0,0,0,1.88.25,4.25,4.25,0,0,0,2.15-.45,1.53,1.53,0,0,0,.15-2.53,9.45,9.45,0,0,0-2.32-1.16,12.33,12.33,0,0,1-2.34-1.06,3.28,3.28,0,0,1-1-1,2.68,2.68,0,0,1-.34-1.39,2.64,2.64,0,0,1,1.17-2.27,5.49,5.49,0,0,1,3.21-.83,9.5,9.5,0,0,1,3.72.77l-.63,1.45a8.54,8.54,0,0,0-3.22-.73,3.65,3.65,0,0,0-1.91.4,1.22,1.22,0,0,0-.64,1.09,1.34,1.34,0,0,0,.24.81,2.37,2.37,0,0,0,.78.63,17.4,17.4,0,0,0,2.06.87,7.62,7.62,0,0,1,2.83,1.54A2.71,2.71,0,0,1,277.33,193.12Z"></path><path d="M284,195.08a5.33,5.33,0,0,0,.91-.07,6.17,6.17,0,0,0,.7-.15v1.37a3.35,3.35,0,0,1-.85.23,6.61,6.61,0,0,1-1,.09q-3.4,0-3.41-3.6v-7h-1.69v-.86l1.69-.74.75-2.52h1v2.73h3.42V186h-3.42v6.93a2.41,2.41,0,0,0,.5,1.63A1.77,1.77,0,0,0,284,195.08Z"></path><path d="M293,196.55a5.4,5.4,0,0,1-4.12-1.59,6.13,6.13,0,0,1-1.51-4.41,6.87,6.87,0,0,1,1.4-4.53,4.68,4.68,0,0,1,3.77-1.67,4.44,4.44,0,0,1,3.5,1.45,5.57,5.57,0,0,1,1.29,3.84v1.13h-8.11a4.67,4.67,0,0,0,1,3.15A3.63,3.63,0,0,0,293,195a9.47,9.47,0,0,0,3.76-.79v1.59a8.84,8.84,0,0,1-1.79.58A9.86,9.86,0,0,1,293,196.55Zm-.49-10.71a2.92,2.92,0,0,0-2.26.93,4.23,4.23,0,0,0-1,2.55h6.15a3.93,3.93,0,0,0-.75-2.58A2.63,2.63,0,0,0,292.48,185.84Z"></path><path d="M315.34,196.34v-7.66a3.18,3.18,0,0,0-.6-2.11,2.32,2.32,0,0,0-1.87-.71,3,3,0,0,0-2.46,1,4.55,4.55,0,0,0-.79,2.94v6.58h-1.79v-7.66a3.18,3.18,0,0,0-.6-2.11,2.33,2.33,0,0,0-1.88-.71,2.91,2.91,0,0,0-2.45,1,5.41,5.41,0,0,0-.78,3.29v6.18h-1.78V184.56h1.45l.29,1.61h.08a3.49,3.49,0,0,1,1.43-1.34,4.34,4.34,0,0,1,2.05-.48c1.84,0,3.05.66,3.61,2h.09a3.69,3.69,0,0,1,1.52-1.46,4.74,4.74,0,0,1,2.28-.54,4,4,0,0,1,3,1,4.58,4.58,0,0,1,1,3.29v7.68Z"></path><path d="M328.3,196.34h-1.78V179.62h1.78Z"></path><path d="M337.05,196.55a5.42,5.42,0,0,1-4.12-1.59,6.18,6.18,0,0,1-1.51-4.41,6.82,6.82,0,0,1,1.41-4.53,4.66,4.66,0,0,1,3.76-1.67,4.43,4.43,0,0,1,3.5,1.45,5.57,5.57,0,0,1,1.29,3.84v1.13h-8.11a4.72,4.72,0,0,0,1.05,3.15,3.61,3.61,0,0,0,2.8,1.07,9.47,9.47,0,0,0,3.76-.79v1.59a9,9,0,0,1-1.79.58A9.9,9.9,0,0,1,337.05,196.55Zm-.48-10.71a2.89,2.89,0,0,0-2.26.93,4.23,4.23,0,0,0-1,2.55h6.15a3.93,3.93,0,0,0-.75-2.58A2.65,2.65,0,0,0,336.57,185.84Z"></path><path d="M347,196.34l-4.47-11.78h1.91l2.54,7c.57,1.63.91,2.69,1,3.17h.09a21.44,21.44,0,0,1,.74-2.35q.63-1.8,2.82-7.81h1.91l-4.47,11.78Z"></path><path d="M360.42,196.55A5.4,5.4,0,0,1,356.3,195a6.13,6.13,0,0,1-1.51-4.41,6.87,6.87,0,0,1,1.4-4.53,4.68,4.68,0,0,1,3.77-1.67,4.44,4.44,0,0,1,3.5,1.45,5.57,5.57,0,0,1,1.29,3.84v1.13h-8.11a4.67,4.67,0,0,0,1,3.15,3.63,3.63,0,0,0,2.8,1.07,9.47,9.47,0,0,0,3.76-.79v1.59a8.84,8.84,0,0,1-1.79.58A9.86,9.86,0,0,1,360.42,196.55Zm-.49-10.71a2.92,2.92,0,0,0-2.26.93,4.23,4.23,0,0,0-1,2.55h6.15a3.93,3.93,0,0,0-.75-2.58A2.63,2.63,0,0,0,359.93,185.84Z"></path><path d="M369.57,196.34h-1.78V179.62h1.78Z"></path></g><g class="cls-2"><path d="M53.13,235.08A5.41,5.41,0,0,0,54,235a6.7,6.7,0,0,0,.7-.15v1.37a3.45,3.45,0,0,1-.86.23,6.39,6.39,0,0,1-1,.09q-3.42,0-3.42-3.6v-7H47.77v-.86l1.68-.74.76-2.52h1v2.73h3.41V226H51.24v6.93a2.36,2.36,0,0,0,.5,1.63A1.77,1.77,0,0,0,53.13,235.08Z"></path><path d="M67.25,230.44a6.45,6.45,0,0,1-1.45,4.49,5.08,5.08,0,0,1-4,1.62,5.36,5.36,0,0,1-2.81-.74,4.92,4.92,0,0,1-1.89-2.13,7.44,7.44,0,0,1-.66-3.24A6.54,6.54,0,0,1,57.87,226a5.1,5.1,0,0,1,4-1.6A5,5,0,0,1,65.8,226,6.48,6.48,0,0,1,67.25,230.44Zm-9,0a5.55,5.55,0,0,0,.91,3.44,3.58,3.58,0,0,0,5.31,0,5.58,5.58,0,0,0,.91-3.44A5.5,5.5,0,0,0,64.5,227a3.64,3.64,0,0,0-5.33,0A5.58,5.58,0,0,0,58.28,230.44Z"></path><path d="M83.69,233.12a3,3,0,0,1-1.23,2.54,5.76,5.76,0,0,1-3.43.89,7.55,7.55,0,0,1-3.66-.74v-1.65a9.19,9.19,0,0,0,1.82.67,7.43,7.43,0,0,0,1.88.25,4.22,4.22,0,0,0,2.15-.45,1.53,1.53,0,0,0,.15-2.53,9.26,9.26,0,0,0-2.32-1.16,12.33,12.33,0,0,1-2.34-1.06,3.39,3.39,0,0,1-1-1,2.68,2.68,0,0,1-.34-1.39,2.64,2.64,0,0,1,1.17-2.27,5.49,5.49,0,0,1,3.21-.83,9.5,9.5,0,0,1,3.72.77l-.63,1.45a8.46,8.46,0,0,0-3.21-.73,3.66,3.66,0,0,0-1.92.4,1.22,1.22,0,0,0-.64,1.09,1.34,1.34,0,0,0,.24.81,2.37,2.37,0,0,0,.78.63,17.4,17.4,0,0,0,2.06.87A7.62,7.62,0,0,1,83,231.18,2.71,2.71,0,0,1,83.69,233.12Z"></path><path d="M96.75,230.44a6.45,6.45,0,0,1-1.45,4.49,5.11,5.11,0,0,1-4,1.62,5.35,5.35,0,0,1-2.8-.74,4.8,4.8,0,0,1-1.89-2.13,7.44,7.44,0,0,1-.67-3.24A6.49,6.49,0,0,1,87.37,226a5.09,5.09,0,0,1,4-1.6A5,5,0,0,1,95.3,226,6.48,6.48,0,0,1,96.75,230.44Zm-9,0a5.62,5.62,0,0,0,.9,3.44,3.59,3.59,0,0,0,5.32,0,5.58,5.58,0,0,0,.9-3.44A5.5,5.5,0,0,0,94,227a3.64,3.64,0,0,0-5.33,0A5.58,5.58,0,0,0,87.78,230.44Z"></path><path d="M101.66,236.34H99.88V219.62h1.78Z"></path><path d="M108,236.34l-4.47-11.78h1.91l2.54,7c.57,1.63.91,2.69,1,3.17h.08c.08-.37.33-1.16.75-2.35s1.36-3.8,2.82-7.81h1.91l-4.47,11.78Z"></path><path d="M121.44,236.55a5.4,5.4,0,0,1-4.12-1.59,6.13,6.13,0,0,1-1.51-4.41,6.82,6.82,0,0,1,1.4-4.53,4.66,4.66,0,0,1,3.76-1.67,4.45,4.45,0,0,1,3.51,1.45,5.57,5.57,0,0,1,1.29,3.84v1.13h-8.11a4.67,4.67,0,0,0,1,3.15,3.61,3.61,0,0,0,2.8,1.07,9.47,9.47,0,0,0,3.76-.79v1.59a9,9,0,0,1-1.79.58A9.86,9.86,0,0,1,121.44,236.55ZM121,225.84a2.9,2.9,0,0,0-2.26.93,4.23,4.23,0,0,0-1,2.55h6.15a3.93,3.93,0,0,0-.75-2.58A2.65,2.65,0,0,0,121,225.84Z"></path><path d="M142.12,233.12a3,3,0,0,1-1.23,2.54,5.79,5.79,0,0,1-3.44.89,7.51,7.51,0,0,1-3.65-.74v-1.65a9,9,0,0,0,1.82.67,7.37,7.37,0,0,0,1.88.25,4.18,4.18,0,0,0,2.14-.45,1.52,1.52,0,0,0,.16-2.53,9.37,9.37,0,0,0-2.33-1.16,12.48,12.48,0,0,1-2.33-1.06,3.28,3.28,0,0,1-1-1,2.68,2.68,0,0,1-.34-1.39,2.64,2.64,0,0,1,1.17-2.27,5.49,5.49,0,0,1,3.21-.83,9.5,9.5,0,0,1,3.72.77l-.64,1.45a8.46,8.46,0,0,0-3.21-.73,3.65,3.65,0,0,0-1.91.4,1.22,1.22,0,0,0-.64,1.09,1.34,1.34,0,0,0,.24.81,2.37,2.37,0,0,0,.78.63,16.66,16.66,0,0,0,2.06.87,7.62,7.62,0,0,1,2.83,1.54A2.71,2.71,0,0,1,142.12,233.12Z"></path><path d="M155.18,230.44a6.5,6.5,0,0,1-1.45,4.49,5.12,5.12,0,0,1-4,1.62,5.32,5.32,0,0,1-2.8-.74,4.8,4.8,0,0,1-1.89-2.13,7.3,7.3,0,0,1-.67-3.24A6.49,6.49,0,0,1,145.8,226a5.09,5.09,0,0,1,4-1.6,5,5,0,0,1,3.92,1.64A6.48,6.48,0,0,1,155.18,230.44Zm-9,0a5.62,5.62,0,0,0,.9,3.44,3.58,3.58,0,0,0,5.31,0,5.51,5.51,0,0,0,.91-3.44,5.44,5.44,0,0,0-.91-3.41,3.18,3.18,0,0,0-2.68-1.17A3.14,3.14,0,0,0,147.1,227,5.51,5.51,0,0,0,146.21,230.44Z"></path><path d="M163,236.55a5,5,0,0,1-4-1.57,6.51,6.51,0,0,1-1.4-4.46,6.66,6.66,0,0,1,1.42-4.56,5.14,5.14,0,0,1,4.06-1.61,8.09,8.09,0,0,1,1.69.18,5.87,5.87,0,0,1,1.34.43l-.55,1.51a10.88,10.88,0,0,0-1.29-.39,6,6,0,0,0-1.24-.15q-3.59,0-3.58,4.57a5.46,5.46,0,0,0,.87,3.33A3,3,0,0,0,163,235a7.93,7.93,0,0,0,3-.63v1.58A6.38,6.38,0,0,1,163,236.55Z"></path><path d="M168.63,221.37a1.21,1.21,0,0,1,.3-.9,1.09,1.09,0,0,1,.75-.28,1.06,1.06,0,0,1,.74.29,1.15,1.15,0,0,1,.31.89,1.19,1.19,0,0,1-.31.9,1.1,1.1,0,0,1-1.49,0A1.22,1.22,0,0,1,168.63,221.37Zm1.93,15h-1.78V224.56h1.78Z"></path><path d="M179.32,236.55A5.4,5.4,0,0,1,175.2,235a6.13,6.13,0,0,1-1.51-4.41,6.82,6.82,0,0,1,1.4-4.53,4.66,4.66,0,0,1,3.76-1.67,4.45,4.45,0,0,1,3.51,1.45,5.62,5.62,0,0,1,1.28,3.84v1.13h-8.11a4.72,4.72,0,0,0,1.05,3.15,3.61,3.61,0,0,0,2.8,1.07,9.47,9.47,0,0,0,3.76-.79v1.59a9,9,0,0,1-1.79.58A9.86,9.86,0,0,1,179.32,236.55Zm-.49-10.71a2.9,2.9,0,0,0-2.26.93,4.23,4.23,0,0,0-1,2.55h6.15a3.93,3.93,0,0,0-.75-2.58A2.65,2.65,0,0,0,178.83,225.84Z"></path><path d="M190.49,235.08a5.41,5.41,0,0,0,.91-.07,6.7,6.7,0,0,0,.7-.15v1.37a3.32,3.32,0,0,1-.86.23,6.39,6.39,0,0,1-1,.09q-3.42,0-3.42-3.6v-7h-1.68v-.86l1.68-.74.76-2.52h1v2.73H192V226H188.6v6.93a2.36,2.36,0,0,0,.5,1.63A1.77,1.77,0,0,0,190.49,235.08Z"></path><path d="M201.69,236.34l-.35-1.68h-.09a4.9,4.9,0,0,1-1.76,1.5,5.35,5.35,0,0,1-2.18.39,4,4,0,0,1-2.75-.9,3.3,3.3,0,0,1-1-2.57c0-2.38,1.9-3.62,5.7-3.74l2-.06v-.73a3,3,0,0,0-.59-2.05,2.47,2.47,0,0,0-1.91-.66,7.79,7.79,0,0,0-3.33.9l-.55-1.36a8.64,8.64,0,0,1,4-1,4.51,4.51,0,0,1,3.12.93,4,4,0,0,1,1,3v8Zm-4-1.26a3.66,3.66,0,0,0,2.62-.91,3.4,3.4,0,0,0,.95-2.56v-1.06l-1.78.07a6.51,6.51,0,0,0-3.07.66,2,2,0,0,0-.94,1.82,1.82,1.82,0,0,0,.58,1.47A2.44,2.44,0,0,0,197.66,235.08Z"></path><path d="M208.47,236.34h-1.78V219.62h1.78Z"></path><path d="M222.67,236.55a5,5,0,0,1-4-1.57,6.51,6.51,0,0,1-1.4-4.46,6.66,6.66,0,0,1,1.42-4.56,5.14,5.14,0,0,1,4.06-1.61,8.26,8.26,0,0,1,1.7.18,5.76,5.76,0,0,1,1.33.43l-.55,1.51a9.85,9.85,0,0,0-1.29-.39,5.94,5.94,0,0,0-1.23-.15c-2.4,0-3.59,1.52-3.59,4.57a5.46,5.46,0,0,0,.87,3.33,3,3,0,0,0,2.6,1.16,8,8,0,0,0,3-.63v1.58A6.43,6.43,0,0,1,222.67,236.55Z"></path><path d="M236.5,236.34v-7.62a3.06,3.06,0,0,0-.66-2.15,2.68,2.68,0,0,0-2.05-.71,3.37,3.37,0,0,0-2.71,1,5.13,5.13,0,0,0-.86,3.31v6.16h-1.78V219.62h1.78v5.06a12.67,12.67,0,0,1-.08,1.52h.1a3.56,3.56,0,0,1,1.5-1.34,4.83,4.83,0,0,1,2.22-.49,4.56,4.56,0,0,1,3.24,1,4.35,4.35,0,0,1,1.08,3.27v7.68Z"></path><path d="M249.18,236.34l-.35-1.68h-.09a5,5,0,0,1-1.75,1.5,5.43,5.43,0,0,1-2.19.39,3.92,3.92,0,0,1-2.74-.9,3.27,3.27,0,0,1-1-2.57c0-2.38,1.9-3.62,5.71-3.74l2-.06v-.73a3,3,0,0,0-.59-2.05,2.47,2.47,0,0,0-1.91-.66,7.79,7.79,0,0,0-3.33.9l-.55-1.36a8.64,8.64,0,0,1,4-1,4.51,4.51,0,0,1,3.12.93,3.91,3.91,0,0,1,1,3v8Zm-4-1.26a3.66,3.66,0,0,0,2.62-.91,3.4,3.4,0,0,0,.95-2.56v-1.06l-1.78.07a6.51,6.51,0,0,0-3.07.66,2,2,0,0,0-.94,1.82,1.82,1.82,0,0,0,.59,1.47A2.39,2.39,0,0,0,245.15,235.08Z"></path><path d="M256,236.34h-1.78V219.62H256Z"></path><path d="M261.53,236.34h-1.79V219.62h1.79Z"></path><path d="M270.28,236.55a5.42,5.42,0,0,1-4.12-1.59,6.13,6.13,0,0,1-1.51-4.41,6.87,6.87,0,0,1,1.4-4.53,4.68,4.68,0,0,1,3.77-1.67,4.44,4.44,0,0,1,3.5,1.45,5.57,5.57,0,0,1,1.29,3.84v1.13H266.5a4.62,4.62,0,0,0,1.05,3.15,3.59,3.59,0,0,0,2.79,1.07,9.44,9.44,0,0,0,3.76-.79v1.59a9,9,0,0,1-1.78.58A10,10,0,0,1,270.28,236.55Zm-.48-10.71a2.89,2.89,0,0,0-2.26.93,4.17,4.17,0,0,0-1,2.55h6.16a3.93,3.93,0,0,0-.75-2.58A2.66,2.66,0,0,0,269.8,225.84Z"></path><path d="M285.71,236.34v-7.62a3.06,3.06,0,0,0-.66-2.15,2.68,2.68,0,0,0-2.05-.71,3.41,3.41,0,0,0-2.71,1,5.08,5.08,0,0,0-.86,3.3v6.18h-1.78V224.56h1.45l.29,1.61h.09a3.51,3.51,0,0,1,1.53-1.34,5,5,0,0,1,2.2-.48,4.52,4.52,0,0,1,3.21,1,4.41,4.41,0,0,1,1.07,3.29v7.68Z"></path><path d="M300.79,224.56v1.13l-2.18.26a3.59,3.59,0,0,1,.53,1,3.72,3.72,0,0,1,.24,1.37,3.48,3.48,0,0,1-1.18,2.76,4.76,4.76,0,0,1-3.24,1,6,6,0,0,1-1-.08,1.75,1.75,0,0,0-1.14,1.51.78.78,0,0,0,.4.72,2.94,2.94,0,0,0,1.36.23h2.08a4.7,4.7,0,0,1,2.94.8,2.79,2.79,0,0,1,1,2.34,3.37,3.37,0,0,1-1.57,3,8.45,8.45,0,0,1-4.58,1,6.2,6.2,0,0,1-3.56-.86,2.78,2.78,0,0,1-1.25-2.43,2.71,2.71,0,0,1,.69-1.85,3.48,3.48,0,0,1,1.93-1.07,1.91,1.91,0,0,1-.76-.63,1.71,1.71,0,0,1-.3-1,1.89,1.89,0,0,1,.34-1.13,3.59,3.59,0,0,1,1.09-.93,3.17,3.17,0,0,1-1.49-1.28,3.78,3.78,0,0,1-.58-2.06,3.84,3.84,0,0,1,1.16-3,4.79,4.79,0,0,1,3.29-1,6.15,6.15,0,0,1,1.67.21Zm-9.39,13.75a1.59,1.59,0,0,0,.81,1.45,4.39,4.39,0,0,0,2.3.5,6.54,6.54,0,0,0,3.33-.67,2.06,2.06,0,0,0,1.08-1.82,1.46,1.46,0,0,0-.59-1.33,4.6,4.6,0,0,0-2.23-.37H294a2.79,2.79,0,0,0-1.89.58A2,2,0,0,0,291.4,238.31Zm1-10a2.4,2.4,0,0,0,.69,1.87,2.78,2.78,0,0,0,1.95.64,2.28,2.28,0,0,0,2.61-2.54,2.34,2.34,0,0,0-2.64-2.65,2.63,2.63,0,0,0-1.94.67A2.76,2.76,0,0,0,292.37,228.33Z"></path><path d="M308.18,236.55a5.4,5.4,0,0,1-4.12-1.59,6.13,6.13,0,0,1-1.51-4.41A6.87,6.87,0,0,1,304,226a4.68,4.68,0,0,1,3.77-1.67,4.44,4.44,0,0,1,3.5,1.45,5.57,5.57,0,0,1,1.29,3.84v1.13H304.4a4.67,4.67,0,0,0,1,3.15,3.63,3.63,0,0,0,2.8,1.07,9.47,9.47,0,0,0,3.76-.79v1.59a8.84,8.84,0,0,1-1.79.58A9.86,9.86,0,0,1,308.18,236.55Zm-.48-10.71a2.93,2.93,0,0,0-2.27.93,4.23,4.23,0,0,0-1,2.55h6.16a3.93,3.93,0,0,0-.76-2.58A2.62,2.62,0,0,0,307.7,225.84Z"></path><path d="M323.14,233.12a3,3,0,0,1-1.22,2.54,5.79,5.79,0,0,1-3.44.89,7.51,7.51,0,0,1-3.65-.74v-1.65a8.75,8.75,0,0,0,1.82.67,7.35,7.35,0,0,0,1.87.25,4.22,4.22,0,0,0,2.15-.45,1.47,1.47,0,0,0,.75-1.36,1.45,1.45,0,0,0-.59-1.17,9.57,9.57,0,0,0-2.33-1.16,12.48,12.48,0,0,1-2.33-1.06,3.32,3.32,0,0,1-1-1,2.78,2.78,0,0,1-.33-1.39,2.64,2.64,0,0,1,1.17-2.27,5.49,5.49,0,0,1,3.21-.83,9.5,9.5,0,0,1,3.72.77l-.64,1.45a8.46,8.46,0,0,0-3.21-.73,3.62,3.62,0,0,0-1.91.4,1.23,1.23,0,0,0-.65,1.09,1.34,1.34,0,0,0,.24.81,2.61,2.61,0,0,0,.78.63,17.78,17.78,0,0,0,2.07.87,7.71,7.71,0,0,1,2.83,1.54A2.7,2.7,0,0,1,323.14,233.12Z"></path><path d="M339,236.34l-.36-1.68h-.08a5,5,0,0,1-1.76,1.5,5.35,5.35,0,0,1-2.18.39,3.94,3.94,0,0,1-2.75-.9,3.3,3.3,0,0,1-1-2.57c0-2.38,1.9-3.62,5.7-3.74l2-.06v-.73a3,3,0,0,0-.6-2.05,2.43,2.43,0,0,0-1.9-.66,7.72,7.72,0,0,0-3.33.9l-.55-1.36a8.16,8.16,0,0,1,1.9-.74,8.31,8.31,0,0,1,2.08-.27,4.48,4.48,0,0,1,3.12.93,3.91,3.91,0,0,1,1,3v8Zm-4-1.26a3.68,3.68,0,0,0,2.62-.91,3.4,3.4,0,0,0,1-2.56v-1.06l-1.79.07a6.43,6.43,0,0,0-3.06.66,2,2,0,0,0-.94,1.82,1.82,1.82,0,0,0,.58,1.47A2.42,2.42,0,0,0,335,235.08Z"></path><path d="M347.8,235.08a5.41,5.41,0,0,0,.91-.07,6.7,6.7,0,0,0,.7-.15v1.37a3.45,3.45,0,0,1-.86.23,6.39,6.39,0,0,1-1,.09q-3.42,0-3.42-3.6v-7h-1.68v-.86l1.68-.74.75-2.52h1v2.73h3.41V226h-3.41v6.93a2.36,2.36,0,0,0,.5,1.63A1.77,1.77,0,0,0,347.8,235.08Z"></path></g><g class="cls-2"><path d="M56.92,273.12a3,3,0,0,1-1.23,2.54,5.76,5.76,0,0,1-3.43.89,7.58,7.58,0,0,1-3.66-.74v-1.65a9.05,9.05,0,0,0,1.83.67,7.3,7.3,0,0,0,1.87.25,4.22,4.22,0,0,0,2.15-.45,1.53,1.53,0,0,0,.15-2.53,9.26,9.26,0,0,0-2.32-1.16,12.33,12.33,0,0,1-2.34-1.06,3.39,3.39,0,0,1-1-1,2.78,2.78,0,0,1-.34-1.39,2.64,2.64,0,0,1,1.17-2.27,5.5,5.5,0,0,1,3.22-.83,9.49,9.49,0,0,1,3.71.77L56,266.57a8.46,8.46,0,0,0-3.21-.73,3.66,3.66,0,0,0-1.92.4,1.22,1.22,0,0,0-.64,1.09,1.34,1.34,0,0,0,.24.81,2.37,2.37,0,0,0,.78.63,18.2,18.2,0,0,0,2.06.87,7.62,7.62,0,0,1,2.83,1.54A2.71,2.71,0,0,1,56.92,273.12Z"></path><path d="M64.52,276.55A5,5,0,0,1,60.57,275a6.47,6.47,0,0,1-1.41-4.46A6.66,6.66,0,0,1,60.59,266a5.13,5.13,0,0,1,4-1.61,8.19,8.19,0,0,1,1.7.18,5.6,5.6,0,0,1,1.33.43l-.55,1.51a9.85,9.85,0,0,0-1.29-.39,5.86,5.86,0,0,0-1.23-.15q-3.58,0-3.59,4.57a5.39,5.39,0,0,0,.88,3.33A3,3,0,0,0,64.48,275a8,8,0,0,0,3-.63v1.58A6.43,6.43,0,0,1,64.52,276.55Z"></path><path d="M77.53,276.34l-.35-1.68h-.09a4.88,4.88,0,0,1-1.75,1.5,5.43,5.43,0,0,1-2.19.39,3.92,3.92,0,0,1-2.74-.9,3.27,3.27,0,0,1-1-2.57c0-2.38,1.9-3.62,5.71-3.74l2-.06v-.73a3,3,0,0,0-.59-2.05,2.47,2.47,0,0,0-1.91-.66,7.79,7.79,0,0,0-3.33.9l-.55-1.36a8.64,8.64,0,0,1,4-1,4.51,4.51,0,0,1,3.12.93,3.91,3.91,0,0,1,1,3v8Zm-4-1.26a3.66,3.66,0,0,0,2.62-.91,3.4,3.4,0,0,0,.95-2.56v-1.06l-1.78.07a6.51,6.51,0,0,0-3.07.66,2,2,0,0,0-.94,1.82,1.82,1.82,0,0,0,.59,1.47A2.39,2.39,0,0,0,73.5,275.08Z"></path><path d="M84.31,276.34H82.53V259.62h1.78Z"></path><path d="M93.07,276.55A5.4,5.4,0,0,1,89,275a6.13,6.13,0,0,1-1.51-4.41,6.82,6.82,0,0,1,1.4-4.53,4.66,4.66,0,0,1,3.76-1.67,4.45,4.45,0,0,1,3.51,1.45,5.57,5.57,0,0,1,1.29,3.84v1.13H89.29a4.67,4.67,0,0,0,1,3.15,3.61,3.61,0,0,0,2.8,1.07,9.47,9.47,0,0,0,3.76-.79v1.59a9,9,0,0,1-1.79.58A9.86,9.86,0,0,1,93.07,276.55Zm-.49-10.71a2.9,2.9,0,0,0-2.26.93,4.23,4.23,0,0,0-1,2.55h6.15a3.93,3.93,0,0,0-.75-2.58A2.65,2.65,0,0,0,92.58,265.84Z"></path></g></g><circle id="Ellipse_1" data-name="Ellipse 1" class="cls-4" cx="73.48" cy="85.05" r="42.3"></circle><g id="t6q04w.tif"><g id="Group_46" data-name="Group 46"><path id="Path_1443" data-name="Path 1443" class="cls-3" d="M72.16,106.63a30.38,30.38,0,0,1-3.42-.53,21.15,21.15,0,0,1-4.57-1.65.62.62,0,0,0-.72,0,2.71,2.71,0,0,1-4.13-2.77.72.72,0,0,0-.22-.77,21.64,21.64,0,0,1-6.8-13.2c-.11-.79-.14-1.6-.18-2.4a.57.57,0,0,0-.35-.58,2.64,2.64,0,0,1-1.6-2.88,2.59,2.59,0,0,1,2.2-2.26A.7.7,0,0,0,53,79a19.94,19.94,0,0,1,2.35-5.32c.34-.56.9-.6,1.24-.11a.75.75,0,0,1-.07.9,19.89,19.89,0,0,0-2,4.51c-.05.14-.07.29-.13.42a.56.56,0,0,0,.18.76l.06,0a.22.22,0,0,1,.1.09c.37.69.94.61,1.6.48a35.91,35.91,0,0,1,6.62-.68.88.88,0,0,0,.8-.4,2.58,2.58,0,0,1,2.63-1.13.49.49,0,0,0,.53-.21A29.14,29.14,0,0,1,71,73.82c.15-.14.25-.27.16-.49A2.71,2.71,0,0,1,71,72a.37.37,0,0,0-.22-.43,29,29,0,0,0-6.07-2.63.41.41,0,0,0-.51.18,2.68,2.68,0,0,1-3.46.88.47.47,0,0,0-.62.1l-1.48,1.5c-.39.39-.78.43-1.11.11s-.3-.67.08-1.08A18.23,18.23,0,0,1,59.2,69a.56.56,0,0,0,.2-.68,2.6,2.6,0,0,1,1.07-3,2.57,2.57,0,0,1,3.18.11.57.57,0,0,0,.7.07,21.18,21.18,0,0,1,10.56-2.1,20.43,20.43,0,0,1,7.83,2,.71.71,0,0,0,.86-.06,2.55,2.55,0,0,1,3,0A2.62,2.62,0,0,1,87.75,68a.66.66,0,0,0,.3.85.39.39,0,0,1,.1.08,1.62,1.62,0,0,0,1.86.64,2.31,2.31,0,0,1,2.42,1.19,2.51,2.51,0,0,1,.12,2.81.8.8,0,0,0,0,.92,20.76,20.76,0,0,1,2.6,8.41l.06.25v3.69a28.23,28.23,0,0,1-.55,3.29,21.65,21.65,0,0,1-6.3,10.75.58.58,0,0,0-.24.67,2.62,2.62,0,0,1-1,3,2.58,2.58,0,0,1-3.11,0,.63.63,0,0,0-.75-.05,21.15,21.15,0,0,1-5,1.73c-1,.21-2,.32-3,.44Zm9.27-20.58c.08-.31-.14-.41-.36-.52a39.35,39.35,0,0,0-12-3.68c-.43-.06-.57.06-.71.44a2.68,2.68,0,0,1-2.83,1.62.5.5,0,0,0-.62.33c-.35.81-.7,1.61-1,2.44A29.09,29.09,0,0,0,62.26,99a.56.56,0,0,0,.48.58,2.15,2.15,0,0,1,1.23.79.52.52,0,0,0,.71.16,39.81,39.81,0,0,0,17-12.31.42.42,0,0,0,.07-.55,2.59,2.59,0,0,1-.32-1.64Zm-7.49,19.18a18.49,18.49,0,0,0,2.68-.2,20.25,20.25,0,0,0,5.89-1.82c.21-.1.36-.21.34-.49a2.68,2.68,0,0,1,1.88-3,.43.43,0,0,0,.34-.44c.1-1,.14-2.07.16-3.11a.65.65,0,0,1,.56-.73H86c.43,0,.64.28.64.82a25.67,25.67,0,0,1-.1,3.16c0,.35.21.44.44.58s.35,0,.47-.18a20.52,20.52,0,0,0,4.45-6,.48.48,0,0,0-.13-.65,40.69,40.69,0,0,0-5.39-4.5c-.15-.1-.29-.32-.53-.13s-.18.38-.12.6A28.23,28.23,0,0,1,86.27,92c.08.55-.12.89-.57,1s-.72-.2-.82-.72c-.14-.73-.31-1.46-.42-2.2s-.29-1-1-1a.76.76,0,0,0-.78.28,36.15,36.15,0,0,1-2.53,2.86,41.21,41.21,0,0,1-12.05,8.54c-1,.46-2,.9-3,1.26-.5.18-.34.62-.44,1s.21.31.37.38a19.83,19.83,0,0,0,9,2ZM62.56,81.5c-2.3.15-4.44.46-6.58.75-.34,0-.43.24-.48.52a2.41,2.41,0,0,1-1.21,1.79c-.81.49-.81.48-.69,1.47,0,.27,0,.55.07.83a23.37,23.37,0,0,0,2,6.84A20.18,20.18,0,0,0,60,99.8c.11.1.2.3.39.21s.6-.3.55-.77a26.47,26.47,0,0,1,0-5.34,30.22,30.22,0,0,1,2.7-10.08c.22-.45.37-.83,0-1.25a.78.78,0,0,1-.2-.44C63.27,81.57,63,81.4,62.56,81.5Zm21.72,2.17c.58,0,.58,0,.86-.46a40.63,40.63,0,0,0,3.57-8.1.57.57,0,0,0-.22-.74,2.7,2.7,0,0,1-.84-3c.26-.72.26-.72-.33-1.25l-.24-.2c-.17-.2-.33-.2-.56-.06a2.66,2.66,0,0,1-3.6-.7.39.39,0,0,0-.5-.18,29.87,29.87,0,0,0-5.82,2.55.37.37,0,0,0-.22.46,2.17,2.17,0,0,1-.11,1.21.54.54,0,0,0,.19.71,30.53,30.53,0,0,1,7,9.21c.19.38.37.69.81.56ZM93.86,85c0-.38-.07-.76-.08-1.14a19.77,19.77,0,0,0-2.44-8.62c-.09-.18-.14-.46-.46-.36s-.65,0-.79.48a40,40,0,0,1-3.85,8.73.49.49,0,0,0,0,.63,2.49,2.49,0,0,1,.51,2,.57.57,0,0,0,.28.65,38.56,38.56,0,0,1,5.19,4.26c.34.33.34.33.5-.14A21.48,21.48,0,0,0,93.86,85ZM82.4,84.18a2.29,2.29,0,0,0-.1-.23,29,29,0,0,0-6.84-9,.45.45,0,0,0-.58-.09,2.53,2.53,0,0,1-2.36,0,.49.49,0,0,0-.63.09,31.44,31.44,0,0,0-3.83,4.16.4.4,0,0,0-.13.31,1.66,1.66,0,0,0,1,1A40.22,40.22,0,0,1,79,83q1.49.6,2.91,1.32c.24.12.42.13.53-.17ZM73.63,64.8A19.51,19.51,0,0,0,65,66.73c-.17.08-.42.11-.38.4s.2.32.41.39a29.29,29.29,0,0,1,6.35,2.74.5.5,0,0,0,.63,0,2.66,2.66,0,0,1,3.27,0,.54.54,0,0,0,.67,0,28.34,28.34,0,0,1,6-2.62.56.56,0,0,0,.48-.57c0-.34-.2-.38-.4-.47a19.37,19.37,0,0,0-8.41-1.79ZM54.12,82.27A1.25,1.25,0,0,0,52.93,81h-.07a1.3,1.3,0,0,0-1.32,1.24v0a1.35,1.35,0,0,0,1.28,1.31,1.3,1.3,0,0,0,1.3-1.28v0Zm36.07-8.7a1.28,1.28,0,0,0,1.29-1.26h0A1.29,1.29,0,0,0,90.21,71a1.29,1.29,0,0,0,0,2.58Zm-26.93-6A1.29,1.29,0,0,0,62,66.24a1.32,1.32,0,0,0-1.32,1.3A1.3,1.3,0,0,0,62,68.83h0a1.25,1.25,0,0,0,1.26-1.25v0Zm23.12,0a1.3,1.3,0,0,0-1.28-1.29,1.34,1.34,0,0,0-1.3,1.28A1.27,1.27,0,0,0,85,68.83h.08a1.24,1.24,0,0,0,1.28-1.19v-.11ZM85.53,101a1.27,1.27,0,0,0-1.3,1.21v.09a1.31,1.31,0,0,0,1.27,1.29,1.33,1.33,0,0,0,1.31-1.27A1.26,1.26,0,0,0,85.6,101ZM84.1,87.65a1.23,1.23,0,0,0,1.3-1.18.15.15,0,0,0,0-.07,1.3,1.3,0,0,0-1.27-1.33h0a1.33,1.33,0,0,0-1.3,1.29,1.27,1.27,0,0,0,1.26,1.29ZM65.9,79.94a1.3,1.3,0,1,0,1.25,1.33v0A1.24,1.24,0,0,0,66,79.94Zm-3.93,21a1.27,1.27,0,0,0-1.29,1.25v0A1.36,1.36,0,0,0,62,103.52a1.33,1.33,0,0,0,1.26-1.28A1.26,1.26,0,0,0,62,100.93ZM75,72.4a1.26,1.26,0,0,0-1.2-1.32h-.08a1.29,1.29,0,0,0-1.26,1.3h0a1.24,1.24,0,0,0,1.21,1.28s0,0,.06,0A1.22,1.22,0,0,0,75,72.48v-.09Z"></path></g></g></svg>