<svg xmlns="http://www.w3.org/2000/svg" id="Layer_1" data-name="Layer 1" viewBox="0 0 207.23 295.94"><defs><style>.cls-1{fill:#5c5b5b;}</style></defs><path id="Path_1585" data-name="Path 1585" class="cls-1" d="M103.63,29.6a73.79,73.79,0,0,1,74,73.57c0,.89,0,1.78,0,2.67,0,32-25.45,69.11-74,108.33-48.53-39.22-74-76.51-74-108.33A73.79,73.79,0,0,1,101,29.64C101.84,29.61,102.73,29.6,103.63,29.6Zm0-29.59A103.11,103.11,0,0,0,0,102.61c0,1.08,0,2.16,0,3.23Q0,175.09,103.62,251.6,207.27,175.25,207.2,105.84A103.11,103.11,0,0,0,106.85,0c-1.08,0-2.15,0-3.22,0Z"></path><path id="Path_1586" data-name="Path 1586" class="cls-1" d="M103.63,74a29.58,29.58,0,1,0,20.93,8.67A29.58,29.58,0,0,0,103.63,74ZM0,266.35H207.21v29.59H0Z"></path></svg>