<svg xmlns="http://www.w3.org/2000/svg" id="Layer_1" data-name="Layer 1" viewBox="0 0 1132.15 344.62"><defs><style>.cls-1{fill:#ffa412;}.cls-2{fill:#fff;}.cls-3{font-size:14px;font-family:OpenSans-SemiboldItalic, Open Sans;font-weight:600;font-style:italic;}.cls-3,.cls-7{fill:#4d4d4f;}.cls-4,.cls-5,.cls-6{fill:none;stroke:#4d4d4f;stroke-miterlimit:10;}.cls-5{stroke-dasharray:2.04 2.04;}.cls-6{stroke-dasharray:2 2;}.cls-7{font-size:12.72px;font-family:Economica-Bold, Economica;font-weight:700;}</style></defs><path class="cls-1" d="M90.25,199.24,95,190.75h0a24.76,24.76,0,1,0-9.5,0h0Z"></path><circle class="cls-2" cx="90.25" cy="166.1" r="20.27"></circle><path class="cls-1" d="M226.82,133.84,222,142.33h0a24.77,24.77,0,1,0,9.49,0h0Z"></path><circle class="cls-2" cx="226.82" cy="166.98" r="20.27"></circle><path class="cls-1" d="M391.74,199.24l4.78-8.49h0a24.77,24.77,0,1,0-9.49,0h0Z"></path><circle class="cls-2" cx="391.74" cy="166.1" r="20.27"></circle><text class="cls-3" transform="translate(179.14 76.65)">Requirement<tspan x="-6.4" y="20">Gathering with</tspan><tspan x="7.44" y="40">5 pilot CBs</tspan></text><text class="cls-3" transform="translate(356.75 226.56)">BEL Demos<tspan x="-0.11" y="20">Portals, TL,</tspan><tspan x="7.22" y="40">mCollect</tspan></text><path class="cls-1" d="M554.28,133.84l-4.78,8.49h0a24.77,24.77,0,1,0,9.49,0h0Z"></path><circle class="cls-2" cx="554.28" cy="166.98" r="20.27"></circle><path class="cls-1" d="M716.82,199.24l4.78-8.49h0a24.76,24.76,0,1,0-9.49,0h0Z"></path><circle class="cls-2" cx="716.82" cy="166.1" r="20.27"></circle><path class="cls-1" d="M879.36,133.84l-4.78,8.49h0a24.77,24.77,0,1,0,9.49,0h0Z"></path><circle class="cls-2" cx="879.36" cy="166.98" r="20.27"></circle><path class="cls-1" d="M1041.9,199.24l4.78-8.49h0a24.76,24.76,0,1,0-9.5,0h0Z"></path><circle class="cls-2" cx="1041.9" cy="166.1" r="20.27"></circle><text class="cls-3" transform="translate(997.01 241.17)">62 CBs Go-live<tspan x="-13.13" y="20">(Revenue modules</tspan><tspan x="5.83" y="40">for PT, W&amp;S)</tspan></text><text class="cls-3" transform="translate(827.56 97.83)">Launch event by<tspan x="-1.76" y="20">Defence Minister</tspan></text><text class="cls-3" transform="translate(671.93 236.8)">62 CBs Go-live<tspan x="7.61" y="20">(Portals, TL,</tspan><tspan x="-1.61" y="40">mCollect, PGR)</tspan></text><text class="cls-3" transform="translate(520.74 47.65)">5 CBs Pilot<tspan x="12.73" y="20">go-live</tspan><tspan x="6.96" y="40">(Portals,</tspan><tspan x="-23.67" y="60">TL, mCollect, PGR)</tspan></text><text class="cls-3" transform="translate(59.01 226.56)">BEL &amp; NIC<tspan x="4" y="20">finalized</tspan></text><line class="cls-4" x1="125.81" y1="170.46" x2="126.81" y2="170.46"></line><line class="cls-5" x1="128.84" y1="170.46" x2="188.9" y2="170.46"></line><line class="cls-4" x1="189.91" y1="170.46" x2="190.91" y2="170.46"></line><line class="cls-4" x1="260.44" y1="170.46" x2="261.44" y2="170.46"></line><line class="cls-6" x1="263.45" y1="170.46" x2="362.62" y2="170.46"></line><line class="cls-4" x1="363.62" y1="170.46" x2="364.62" y2="170.46"></line><text class="cls-7" transform="translate(82.85 161.8)">Apr<tspan x="-3.03" y="15.27">2020</tspan></text><text class="cls-7" transform="translate(218.71 161.8)">May<tspan x="-2.33" y="15.27">2020</tspan></text><text class="cls-7" transform="translate(385.12 161.8)">Jun<tspan x="-3.82" y="15.27">2020</tspan></text><text class="cls-7" transform="translate(709.23 161.8)">Dec<tspan x="-2.84" y="15.27">2020</tspan></text><text class="cls-7" transform="translate(1033.7 161.8)">Aug<tspan x="-2.23" y="15.27">2021</tspan></text><text class="cls-7" transform="translate(544.64 161.8)">Sept<tspan x="-0.8" y="15.27">2020</tspan></text><text class="cls-7" transform="translate(871.87 161.8)">Feb<tspan x="-2.95" y="15.27">2021</tspan></text><line class="cls-4" x1="418.85" y1="170.46" x2="419.85" y2="170.46"></line><line class="cls-6" x1="421.85" y1="170.46" x2="521.03" y2="170.46"></line><line class="cls-4" x1="522.03" y1="170.46" x2="523.03" y2="170.46"></line><line class="cls-4" x1="583.46" y1="170.46" x2="584.46" y2="170.46"></line><line class="cls-6" x1="586.46" y1="170.46" x2="685.63" y2="170.46"></line><line class="cls-4" x1="686.64" y1="170.46" x2="687.64" y2="170.46"></line><line class="cls-4" x1="745.89" y1="168.29" x2="746.89" y2="168.29"></line><line class="cls-6" x1="748.9" y1="168.29" x2="848.07" y2="168.29"></line><line class="cls-4" x1="849.07" y1="168.29" x2="850.07" y2="168.29"></line><line class="cls-4" x1="908.54" y1="168.29" x2="909.54" y2="168.29"></line><line class="cls-6" x1="911.54" y1="168.29" x2="1010.72" y2="168.29"></line><line class="cls-4" x1="1011.72" y1="168.29" x2="1012.72" y2="168.29"></line></svg>