<svg xmlns="http://www.w3.org/2000/svg" id="Layer_1" data-name="Layer 1" viewBox="0 0 100 100"><defs><style>.cls-1{fill:#fff;}</style></defs><path class="cls-1" d="M57,42.32V39.9c0-.53-.23-.76-.78-.75H52.29c-.27,0-.55,0-.68.26s.07.53.27.72a18.65,18.65,0,0,0,1.37,1.3,2.58,2.58,0,0,1,.93,1.09,2.44,2.44,0,0,1,.18,1.41c-.08.8,0,1.61,0,2.42,0,.25,0,.52.26.65s.5,0,.71-.2a3.5,3.5,0,0,0,1.39-1.44,3.29,3.29,0,0,0,.31-2A5,5,0,0,1,57,42.32ZM26.15,26.84A6.49,6.49,0,0,0,25.38,24a6.74,6.74,0,0,0-2-2.26,7,7,0,0,0-2.81-1.21,7.27,7.27,0,0,0-3.08.07A6.88,6.88,0,0,0,13.77,23,6.4,6.4,0,0,0,12.36,27a6.48,6.48,0,0,0,.19,1.45,6.55,6.55,0,0,0,.51,1.36,33.27,33.27,0,0,0,5.67,7.94c.4.45.71.34,1.06-.05a34.27,34.27,0,0,0,5.42-7.5A8.67,8.67,0,0,0,26.15,26.84Zm12.79,26.9a8.34,8.34,0,0,0,.75,3,32.47,32.47,0,0,0,5.67,7.93c.35.4.65.41,1,0A32,32,0,0,0,52,56.71a6.32,6.32,0,0,0-1.71-7.94,7,7,0,0,0-4.64-1.51A7,7,0,0,0,41,49.2a6.49,6.49,0,0,0-2,4.54ZM75.28,12.31a7.12,7.12,0,0,0-3.82,1.11,6.67,6.67,0,0,0-2.51,3,6.48,6.48,0,0,0-.42,1.49,6.18,6.18,0,0,0,0,1.55A6.58,6.58,0,0,0,68.82,21a28.27,28.27,0,0,0,6.05,8.86c.3.34.59.29.87,0,.42-.47.84-.92,1.25-1.4a25.33,25.33,0,0,0,4.8-7.46,6.32,6.32,0,0,0,.26-3.07,6.07,6.07,0,0,0-.44-1.49A6.61,6.61,0,0,0,78.38,13a7.16,7.16,0,0,0-3.12-.71Zm-28,69.94v4.11c0,.36,0,.72.49.86,1.76.48,2.18.2,2.18-1.52a2.91,2.91,0,0,0,0-.59,5.66,5.66,0,0,1,.33-3.56,6,6,0,0,1,2.4-2.72A3.3,3.3,0,0,0,54,77.35a3.17,3.17,0,0,0,.19-1.92,5.19,5.19,0,0,1,.24-3.16,5.41,5.41,0,0,1,2.05-2.47,5.76,5.76,0,0,0,0-5l-.12-.12c-.95-.91-1.93-1.79-2.83-2.74-.55-.57-.83-.45-1.24.13a42.63,42.63,0,0,1-5.12,6,1.69,1.69,0,0,1-.73.53,1.66,1.66,0,0,1-.91.08,2.18,2.18,0,0,1-1.13-.74,46,46,0,0,1-5.09-6c-.19-.26-.38-.77-.84-.32-1.3,1.21-2.86,2.24-2.39,4.39.21,1,1.67,2.54,2.74,2.54h4.11a1.48,1.48,0,0,1,.63.06,1.36,1.36,0,0,1,.54.33,1.24,1.24,0,0,1,.34.51,1.26,1.26,0,0,1,.08.61,10.42,10.42,0,0,1,0,1.58,4.59,4.59,0,0,0,.23,2.86,4.92,4.92,0,0,0,1.88,2.23,1.72,1.72,0,0,1,.58.73,1.64,1.64,0,0,1,.13.9c-.05,1.31,0,2.6,0,3.88ZM12.4,50a13.75,13.75,0,0,0,0,3.14A33.49,33.49,0,0,0,16.7,68a35.94,35.94,0,0,0,2.11,3.38c.31.45.57.48,1,.08A7.7,7.7,0,0,1,21,70.32,5.18,5.18,0,0,0,23.07,68a5,5,0,0,0,.31-3.06,1.54,1.54,0,0,1,.1-.87,1.7,1.7,0,0,1,.56-.69Q25.51,62,27,60.56a3.22,3.22,0,0,0,0-4c-1.89-1.82-3.74-3.62-5.64-5.39a2.15,2.15,0,0,1-.59-.81,1.94,1.94,0,0,1-.16-1c0-1.14,0-2.29,0-3.44a1.5,1.5,0,0,1,.05-.63,1.44,1.44,0,0,1,.35-.54,1.4,1.4,0,0,1,.55-.33,1.59,1.59,0,0,1,.65-.07c.91,0,1.81,0,2.72,0A1.42,1.42,0,0,0,26.05,44q1.89-1.85,3.83-3.67a1.32,1.32,0,0,0,.48-1.12c0-1.23,0-2.46,0-3.69a2.19,2.19,0,0,1,.17-1,2.11,2.11,0,0,1,.62-.8C32.59,32.35,34,31,35.43,29.61a6.83,6.83,0,0,0,.24-4.95,1.53,1.53,0,0,0-.18-.18l-2.41-2.31a1.07,1.07,0,0,0-.44-.34,1.31,1.31,0,0,0-.55-.13H28.7c-.82,0-1,.31-.62,1a8.93,8.93,0,0,1,1.05,4,8.82,8.82,0,0,1-.86,4,35.57,35.57,0,0,1-7.9,10.6,1.45,1.45,0,0,1-.52.4,1.46,1.46,0,0,1-1.29,0,1.42,1.42,0,0,1-.51-.4c-.86-.84-1.67-1.72-2.48-2.6-.67-.73-.66-.73-1,.15A32.71,32.71,0,0,0,12.39,50ZM76.76,76.55a7.68,7.68,0,0,0,1.56-1.45A35.33,35.33,0,0,0,86.09,62a34.22,34.22,0,0,0,1.42-15,33.94,33.94,0,0,0-6.85-16.94c-.48-.65-.75-.56-1.22,0-.91,1.05-1.86,2.07-2.85,3.07a1.5,1.5,0,0,1-.54.49,1.64,1.64,0,0,1-.72.19,1.63,1.63,0,0,1-.73-.16,1.53,1.53,0,0,1-.57-.47,39.39,39.39,0,0,1-6.82-8.59,10.73,10.73,0,0,1-1.79-5.79c0-.56-.31-.79-.78-1a37.57,37.57,0,0,0-16.32-2.76c-.75,0-1,.28-1,1,0,2.29,0,4.59,0,6.88a1.49,1.49,0,0,0,.13.69,1.42,1.42,0,0,0,.43.57q1.85,1.73,3.64,3.5a1.75,1.75,0,0,0,.63.44,1.64,1.64,0,0,0,.76.12c1.75,0,3.5,0,5.26,0a2.1,2.1,0,0,1,.9.14,2.23,2.23,0,0,1,.74.51Q63,32,66.22,35.08A2,2,0,0,1,67,36.72q0,3.69,0,7.38a1.78,1.78,0,0,1-.13.91,1.93,1.93,0,0,1-.58.72,4.82,4.82,0,0,0-1.88,2.19,4.54,4.54,0,0,0-.22,2.82,1.93,1.93,0,0,1,0,.34,1.4,1.4,0,0,0,.1.78,1.47,1.47,0,0,0,.5.63c1.36,1.27,2.67,2.58,4,3.83a2.66,2.66,0,0,1,.78,1,2.48,2.48,0,0,1,.2,1.23c-.06,1.48,0,3,0,4.45a1.94,1.94,0,0,0,.72,1.7c1.76,1.63,3.45,3.33,5.22,5a2.94,2.94,0,0,1,.89,1.12,2.77,2.77,0,0,1,.21,1.39c-.09,1.41,0,2.82,0,4.39ZM33.36,18.76a3.9,3.9,0,0,1,1.1.65c1.28,1.24,2.56,2.46,3.84,3.68a1.86,1.86,0,0,1,.49.69,1.77,1.77,0,0,1,.13.82c0,1.57,0,3.14,0,4.71a2,2,0,0,1-.17.94,2,2,0,0,1-.59.77c-1.36,1.27-2.66,2.59-4,3.83a2.13,2.13,0,0,0-.69.89,2.08,2.08,0,0,0-.15,1.1c.06,1,0,2.07,0,3.11a2.16,2.16,0,0,1-.79,1.86C31.27,43,30,44.08,28.87,45.32a4.47,4.47,0,0,1-2,1.58,4.73,4.73,0,0,1-2.55.31,1.09,1.09,0,0,0-.36,0c-.25,0-.46.16-.47.41a2.28,2.28,0,0,0,0,1.16,2.5,2.5,0,0,0,.56,1c1.51,1.35,2.86,2.89,4.44,4.16a5.56,5.56,0,0,1,1.63,2.1,5.33,5.33,0,0,1,.42,2.58,4.62,4.62,0,0,1-.38,2.43A4.81,4.81,0,0,1,28.6,63a5,5,0,0,0-2,2.27,4.73,4.73,0,0,0-.3,3,1.82,1.82,0,0,1-.13,1,1.77,1.77,0,0,1-.6.76c-1.29,1.21-2.54,2.47-3.85,3.67-.5.46-.57.77-.08,1.3A38.09,38.09,0,0,0,43.44,86.74c.76.14.93-.1.92-.75q0-3.31,0-6.64a1.21,1.21,0,0,0-.09-.7,1.36,1.36,0,0,0-.46-.55,5,5,0,0,1-2-2.31,4.8,4.8,0,0,1-.27-3v-.09c0-1.35,0-1.49-1.38-1.33A6.19,6.19,0,0,1,36.89,71a5.91,5.91,0,0,1-2.59-2,4.74,4.74,0,0,1-1.22-2.81,6,6,0,0,1,.39-3.51A6.19,6.19,0,0,1,35.82,60c1.17-.79,1.31-1.65.78-3a9.08,9.08,0,0,1-.24-5.62,9.35,9.35,0,0,1,3.13-4.76,10.13,10.13,0,0,1,5.4-2.22,10.34,10.34,0,0,1,5.76,1.12c.24.12.65.45.69-.12a2.49,2.49,0,0,0,0-1.27A2.59,2.59,0,0,0,50.71,43c-2.62-2.46-2.08-1.35-2.12-5,0-1.25.49-1.71,1.81-1.71h7.71c1.32,0,1.81.46,1.81,1.71v7.4a8,8,0,0,1-4.18,4.45h-.18c-.57,0-.63.21-.45.67a9,9,0,0,1-.37,7.34,1,1,0,0,0-.13.75,1.08,1.08,0,0,0,.41.65c1.43,1.32,2.81,2.69,4.22,4a1.92,1.92,0,0,1,.53.7,1.85,1.85,0,0,1,.15.86c0,1.51,0,3,0,4.54a2,2,0,0,1-.16,1.1,2.05,2.05,0,0,1-.72.88,4.36,4.36,0,0,0-1.72,2A4.08,4.08,0,0,0,57.11,76a4.26,4.26,0,0,1-.25,2.59,4.33,4.33,0,0,1-1.74,2,5.19,5.19,0,0,0-1.94,2.24,4.86,4.86,0,0,0-.32,2.89c.18,1.5-.13,1.59,1.56,1.39a37.75,37.75,0,0,0,18.73-7.35,1.39,1.39,0,0,0,.5-.55,1.32,1.32,0,0,0,.13-.73c0-1.87,0-3.75,0-5.63a1.78,1.78,0,0,0-.15-.85,2,2,0,0,0-.54-.69c-1.86-1.74-3.67-3.52-5.53-5.26a2.38,2.38,0,0,1-.64-.84,2.1,2.1,0,0,1-.17-1c0-1.65,0-3.3,0-5a1.56,1.56,0,0,0-.11-.65,1.44,1.44,0,0,0-.41-.54,25.82,25.82,0,0,0-2.65-2.47,6.37,6.37,0,0,1-2.08-2.59A6.12,6.12,0,0,1,61,49.7a5.76,5.76,0,0,1,.44-3,6,6,0,0,1,1.91-2.4,1.22,1.22,0,0,0,.46-.55,1.2,1.2,0,0,0,.09-.7q0-2.68,0-5.37a1.64,1.64,0,0,0-.11-.66,1.49,1.49,0,0,0-.4-.53c-1.72-1.64-3.44-3.28-5.14-4.93a1.61,1.61,0,0,0-.59-.41,1.65,1.65,0,0,0-.73-.11c-1.66,0-3.33,0-5,0a2.7,2.7,0,0,1-1.19-.18,2.57,2.57,0,0,1-1-.69c-1.51-1.51-3.06-3-4.64-4.45a2.42,2.42,0,0,1-.69-.9,2.33,2.33,0,0,1-.19-1.1c0-2.1,0-4.2,0-6.3,0-2.27.38-2.17-2.14-1.67A37.1,37.1,0,0,0,33.36,18.76ZM73.7,9.53h3.16l.92.25a9.77,9.77,0,0,1,5.13,3.1,9.28,9.28,0,0,1,1.89,3.47,8.92,8.92,0,0,1-.29,5.81,17.77,17.77,0,0,1-2.08,3.95,1.07,1.07,0,0,0-.28.76,1,1,0,0,0,.35.73,38,38,0,0,1,6.38,11.77,45.35,45.35,0,0,1,1.81,8.44v6.72c-.25,1.81-.5,3.6-.92,5.37a39,39,0,0,1-16,23A42,42,0,0,1,45.9,90,41.52,41.52,0,0,1,20.83,78.38,38.46,38.46,0,0,1,9.41,54a35.66,35.66,0,0,1,3-17.8,1.46,1.46,0,0,0-.16-1.77A19.1,19.1,0,0,1,10,30.13a8.35,8.35,0,0,1-.47-4.79A9.21,9.21,0,0,1,11.54,21a9.7,9.7,0,0,1,4-2.83,10.21,10.21,0,0,1,9.55,1.21,1,1,0,0,0,.31.21,1,1,0,0,0,.38.07,1,1,0,0,0,.37-.07,1,1,0,0,0,.31-.21,33.48,33.48,0,0,1,4.47-2.65A41.74,41.74,0,0,1,55.4,12.46,41.24,41.24,0,0,1,65.26,15c.48.19.86.28,1.16-.28a9.8,9.8,0,0,1,3-3.4A10.36,10.36,0,0,1,73.7,9.53Z"></path><path class="cls-1" d="M76.56,18.89a1.29,1.29,0,0,0-.23-.69,1.28,1.28,0,0,0-.6-.45,1.34,1.34,0,0,0-1.41.33,1.13,1.13,0,0,0-.26.43A1.29,1.29,0,0,0,74,19a1.22,1.22,0,0,0,.42.85,1.32,1.32,0,0,0,1.8-.07,1.23,1.23,0,0,0,.34-.89Zm3,.09a4,4,0,0,1-.63,2.09,4.22,4.22,0,0,1-1.67,1.49,4.43,4.43,0,0,1-4.38-.26,4.12,4.12,0,0,1-1.46-1.67A3.94,3.94,0,0,1,71,18.47a4,4,0,0,1,.84-2,4.23,4.23,0,0,1,1.82-1.32,4.38,4.38,0,0,1,3.26,0,4.08,4.08,0,0,1,1.37.9,3.94,3.94,0,0,1,.91,1.34A3.85,3.85,0,0,1,79.54,19Z"></path><path class="cls-1" d="M47.13,53.87a1.19,1.19,0,0,0-.21-.68,1.17,1.17,0,0,0-.57-.46,1.22,1.22,0,0,0-.73-.08A1.24,1.24,0,0,0,45,53a1.19,1.19,0,0,0-.36.62,1.09,1.09,0,0,0,.06.71,1.29,1.29,0,0,0,.45.56,1.28,1.28,0,0,0,1.61-.14A1.3,1.3,0,0,0,47.13,53.87ZM45.79,58a4.46,4.46,0,0,1-2.36-.73,4.16,4.16,0,0,1-1.55-1.85,4,4,0,0,1,1-4.45,4.29,4.29,0,0,1,1.4-.87,4.51,4.51,0,0,1,1.63-.28,4.31,4.31,0,0,1,1.63.33,4.11,4.11,0,0,1,1.37.91,4,4,0,0,1,1.17,2.11,3.94,3.94,0,0,1-.27,2.37,4.13,4.13,0,0,1-1.62,1.82A4.37,4.37,0,0,1,45.79,58Z"></path><path class="cls-1" d="M19.21,28.22a1.44,1.44,0,0,0,.91-.36,1.28,1.28,0,0,0,.4-.85,1.21,1.21,0,0,0-.37-.84,1.32,1.32,0,0,0-1.77,0,1.1,1.1,0,0,0-.05,1.69,1.29,1.29,0,0,0,.88.4Zm0,2.86a4.39,4.39,0,0,1-2-.48,4.19,4.19,0,0,1-1.53-1.33,4,4,0,0,1-.7-1.88,3.88,3.88,0,0,1,.3-2,4.1,4.1,0,0,1,.93-1.33,4.25,4.25,0,0,1,1.38-.89,4.47,4.47,0,0,1,3.27,0,4.07,4.07,0,0,1,1.38.88,4.21,4.21,0,0,1,.93,1.33A4,4,0,0,1,23.51,27a3.7,3.7,0,0,1-.31,1.57,4,4,0,0,1-.92,1.34,4.35,4.35,0,0,1-3,1.18Z"></path></svg>