<svg xmlns="http://www.w3.org/2000/svg" xmlns:xlink="http://www.w3.org/1999/xlink" id="Layer_1" data-name="Layer 1" viewBox="0 0 65 65"><defs><style>.cls-1{fill:url(#linear-gradient);}.cls-2{fill:#13191d;}</style><linearGradient id="linear-gradient" x1="259.52" y1="-339.18" x2="320.67" y2="-280.79" gradientTransform="matrix(1, 0, 0, -1, -256, -279.01)" gradientUnits="userSpaceOnUse"><stop offset="0" stop-color="#33acd5"></stop><stop offset="1" stop-color="#8effe7"></stop></linearGradient></defs><rect class="cls-1" width="65" height="65" rx="6"></rect><path class="cls-2" d="M36.27,28.44V27.3c0-.25-.1-.36-.36-.36H34.08c-.13,0-.26,0-.32.13s0,.25.13.34.41.42.63.61a1.2,1.2,0,0,1,.44.51,1.18,1.18,0,0,1,.08.67c0,.38,0,.75,0,1.13,0,.12,0,.25.13.31s.23,0,.32-.09a1.58,1.58,0,0,0,.65-.68,1.47,1.47,0,0,0,.15-.92,2.9,2.9,0,0,1,0-.51ZM21.88,21.15a3.11,3.11,0,0,0-.36-1.34,3.29,3.29,0,0,0-.93-1.07,3.49,3.49,0,0,0-1.31-.57,3.33,3.33,0,0,0-1.44,0,3.17,3.17,0,0,0-1.74,1.11,3,3,0,0,0-.66,1.92,3.17,3.17,0,0,0,.09.68,2.62,2.62,0,0,0,.24.64,15.93,15.93,0,0,0,2.64,3.74c.19.21.34.16.5,0a16.27,16.27,0,0,0,2.53-3.53,4.2,4.2,0,0,0,.44-1.59Zm6,12.67a3.61,3.61,0,0,0,.35,1.4A15.13,15.13,0,0,0,30.84,39c.17.19.3.19.47,0A15.13,15.13,0,0,0,34,35.22a3,3,0,0,0-.8-3.74A3.23,3.23,0,0,0,31,30.76a3.3,3.3,0,0,0-2.21.92,3.1,3.1,0,0,0-.94,2.13Zm17-19.51a3.25,3.25,0,0,0-1.78.52,3.14,3.14,0,0,0-1.18,1.4,2.86,2.86,0,0,0-.19.71,2.48,2.48,0,0,0,0,.72,2.88,2.88,0,0,0,.15.72,13.36,13.36,0,0,0,2.82,4.17c.15.16.28.13.41,0s.4-.43.59-.66a11.76,11.76,0,0,0,2.23-3.51,2.9,2.9,0,0,0,.15-.71,3,3,0,0,0,0-.73,3,3,0,0,0-.21-.71,3.08,3.08,0,0,0-1.51-1.57,3.31,3.31,0,0,0-1.45-.33Zm-13,32.93v1.93c0,.17,0,.34.23.41.82.23,1,.09,1-.72a1.22,1.22,0,0,0,0-.27,2.7,2.7,0,0,1,.16-1.68,2.73,2.73,0,0,1,1.12-1.28,1.51,1.51,0,0,0,.6-.7A1.54,1.54,0,0,0,35,44a2.45,2.45,0,0,1,.11-1.49,2.53,2.53,0,0,1,1-1.16A2.76,2.76,0,0,0,36,39L36,39c-.44-.43-.9-.85-1.32-1.29-.26-.27-.39-.21-.58.06a19,19,0,0,1-2.39,2.84.78.78,0,0,1-.34.25.75.75,0,0,1-.42,0,1,1,0,0,1-.53-.34A21.85,21.85,0,0,1,28,37.68c-.09-.12-.18-.36-.4-.15-.6.57-1.33,1.06-1.11,2.07.1.46.78,1.19,1.27,1.19h1.92a.77.77,0,0,1,.3,0,.82.82,0,0,1,.25.16.56.56,0,0,1,.16.24.54.54,0,0,1,0,.28,3.14,3.14,0,0,1,0,.75,2.31,2.31,0,0,0,.11,1.35,2.37,2.37,0,0,0,.88,1,.82.82,0,0,1,.27.34.76.76,0,0,1,.06.42c0,.62,0,1.23,0,1.83ZM15.46,32.05a6.57,6.57,0,0,0,0,1.47,15.87,15.87,0,0,0,2,7,16.15,16.15,0,0,0,1,1.59c.14.21.27.23.44,0a4.38,4.38,0,0,1,.58-.56,2.46,2.46,0,0,0,1-1.1,2.31,2.31,0,0,0,.14-1.44.82.82,0,0,1,.05-.41.85.85,0,0,1,.26-.33c.46-.43.91-.87,1.36-1.31a1.53,1.53,0,0,0,0-1.87l-2.63-2.54a1,1,0,0,1-.28-.38.89.89,0,0,1-.07-.46c0-.54,0-1.08,0-1.62a.57.57,0,0,1,0-.29.76.76,0,0,1,.16-.26.87.87,0,0,1,.26-.16.8.8,0,0,1,.31,0c.42,0,.84,0,1.27,0a.57.57,0,0,0,.29,0,.62.62,0,0,0,.25-.17l1.79-1.73a.61.61,0,0,0,.18-.24.68.68,0,0,0,0-.28c0-.58,0-1.16,0-1.74a1.09,1.09,0,0,1,.08-.47,1,1,0,0,1,.29-.37l2-1.93a3.28,3.28,0,0,0,.11-2.33.6.6,0,0,0-.08-.08L25.11,19a.53.53,0,0,0-.2-.16.58.58,0,0,0-.26-.06H23.07c-.38,0-.46.15-.29.48A4.24,4.24,0,0,1,22.87,23a16.69,16.69,0,0,1-3.69,5,.72.72,0,0,1-.24.19.75.75,0,0,1-.61,0A.6.6,0,0,1,18.1,28c-.4-.39-.78-.81-1.16-1.22s-.31-.34-.46.07a15.59,15.59,0,0,0-1,5.22Zm30,12.51a3.63,3.63,0,0,0,.72-.69,16.61,16.61,0,0,0,3.63-6.16,16.16,16.16,0,0,0,.66-7.07,16,16,0,0,0-3.19-8c-.23-.3-.35-.26-.57,0-.43.5-.87,1-1.33,1.45a.61.61,0,0,1-.25.23.69.69,0,0,1-.34.09.77.77,0,0,1-.34-.07.75.75,0,0,1-.27-.23,18.46,18.46,0,0,1-3.18-4,5.12,5.12,0,0,1-.83-2.73c0-.26-.15-.37-.37-.45a17.38,17.38,0,0,0-7.61-1.3c-.36,0-.48.13-.48.47q0,1.62,0,3.24a.92.92,0,0,0,.06.33,1.05,1.05,0,0,0,.2.27c.58.54,1.14,1.09,1.71,1.64a.79.79,0,0,0,.64.27c.82,0,1.64,0,2.46,0a1,1,0,0,1,.76.3c1,1,2,1.94,3,2.9a.92.92,0,0,1,.26.35.88.88,0,0,1,.08.42q0,1.74,0,3.48a.76.76,0,0,1-.06.42.85.85,0,0,1-.27.35,2.16,2.16,0,0,0-.87,1,2.1,2.1,0,0,0-.11,1.33.43.43,0,0,1,0,.16.67.67,0,0,0,0,.37.76.76,0,0,0,.23.3c.64.59,1.25,1.21,1.89,1.8a1.23,1.23,0,0,1,.46,1c0,.69,0,1.39,0,2.09a.93.93,0,0,0,.34.8c.82.77,1.61,1.57,2.44,2.33a1.33,1.33,0,0,1,.51,1.18c0,.67,0,1.33,0,2.07ZM25.24,17.35a1.68,1.68,0,0,1,.52.3l1.79,1.74a.9.9,0,0,1,.23.32.82.82,0,0,1,.06.38c0,.74,0,1.48,0,2.22a1,1,0,0,1-.08.44,1,1,0,0,1-.28.37c-.63.6-1.24,1.22-1.88,1.8a1,1,0,0,0-.4.94c0,.49,0,1,0,1.46a1,1,0,0,1-.36.88c-.58.54-1.18,1.07-1.7,1.65a2.14,2.14,0,0,1-.93.75,2.3,2.3,0,0,1-1.19.14h-.16c-.12,0-.22.08-.22.2a1,1,0,0,0,0,.54,1,1,0,0,0,.26.48c.7.64,1.33,1.36,2.07,2a2.63,2.63,0,0,1,.76,1,2.51,2.51,0,0,1,.19,1.21,2.11,2.11,0,0,1-.17,1.14,2.26,2.26,0,0,1-.74.91,2.4,2.4,0,0,0-.95,1.07,2.32,2.32,0,0,0-.14,1.4.83.83,0,0,1-.06.44.77.77,0,0,1-.28.36c-.6.57-1.18,1.17-1.79,1.73-.24.22-.27.36,0,.61A17.74,17.74,0,0,0,30,49.36c.35.06.43,0,.43-.36q0-1.56,0-3.12a.53.53,0,0,0-.05-.33.54.54,0,0,0-.21-.26,2.31,2.31,0,0,1-1.06-2.5v0c0-.64,0-.7-.64-.63A2.84,2.84,0,0,1,25.68,41a2.25,2.25,0,0,1-.57-1.32,2.79,2.79,0,0,1,.19-1.66,2.87,2.87,0,0,1,1.09-1.28c.55-.37.61-.77.36-1.42a4.37,4.37,0,0,1,1.35-4.89A4.71,4.71,0,0,1,33.31,30c.12.06.31.21.32-.06a1.18,1.18,0,0,0,0-.59,1.2,1.2,0,0,0-.29-.53c-1.22-1.16-1-.64-1-2.36,0-.59.23-.8.84-.8h3.6c.62,0,.85.22.85.8V29.9a3.74,3.74,0,0,1-2,2.09h-.08c-.27,0-.3.1-.21.32a4.34,4.34,0,0,1-.18,3.46.47.47,0,0,0-.06.35.46.46,0,0,0,.19.3c.67.63,1.31,1.27,2,1.9a1,1,0,0,1,.25.34.92.92,0,0,1,.07.4c0,.71,0,1.43,0,2.14a1,1,0,0,1-.41.93,2.17,2.17,0,0,0-.81.94,2,2,0,0,0-.1,1.21,1.89,1.89,0,0,1-.11,1.22,2.11,2.11,0,0,1-.81.94,2.38,2.38,0,0,0-.91,1.05,2.35,2.35,0,0,0-.15,1.36c.09.7-.06.75.73.66A17.59,17.59,0,0,0,43.81,46a.6.6,0,0,0,.24-.26.65.65,0,0,0,.06-.34c0-.88,0-1.76,0-2.65a.82.82,0,0,0-.08-.4.78.78,0,0,0-.25-.32c-.86-.82-1.71-1.66-2.58-2.48a1,1,0,0,1-.29-.4,1,1,0,0,1-.09-.48c0-.77,0-1.55,0-2.33a.67.67,0,0,0,0-.31.64.64,0,0,0-.19-.25,12.3,12.3,0,0,0-1.23-1.16,3.05,3.05,0,0,1-1-1.22,3,3,0,0,1-.22-1.52,2.62,2.62,0,0,1,.21-1.41,2.81,2.81,0,0,1,.89-1.13.54.54,0,0,0,.21-.26.53.53,0,0,0,0-.33c0-.84,0-1.69,0-2.53a.67.67,0,0,0,0-.31.72.72,0,0,0-.18-.25c-.81-.77-1.61-1.54-2.4-2.32a.77.77,0,0,0-.28-.19.78.78,0,0,0-.34-.05c-.77,0-1.55,0-2.33,0a1.28,1.28,0,0,1-.55-.09,1.12,1.12,0,0,1-.45-.32c-.71-.72-1.43-1.41-2.17-2.1a1.18,1.18,0,0,1-.32-.42,1,1,0,0,1-.09-.52c0-1,0-2,0-3s.17-1-1-.78a16.91,16.91,0,0,0-4.11,1.4ZM44.07,13h1.47l.43.11a4.62,4.62,0,0,1,2.4,1.47,4.28,4.28,0,0,1,1,3.47,4.69,4.69,0,0,1-.24.89,8.77,8.77,0,0,1-1,1.87.51.51,0,0,0-.13.35.57.57,0,0,0,.16.35,17.94,17.94,0,0,1,3,5.54A22.63,22.63,0,0,1,52,31v3.17c-.12.85-.23,1.69-.43,2.53a18.39,18.39,0,0,1-7.46,10.84,19.49,19.49,0,0,1-13,3.34,19.3,19.3,0,0,1-11.71-5.48,18.15,18.15,0,0,1-5.32-11.48,16.8,16.8,0,0,1,1.41-8.38.72.72,0,0,0,.1-.43.73.73,0,0,0-.18-.4,8.8,8.8,0,0,1-1.08-2,4,4,0,0,1-.22-2.26,4.28,4.28,0,0,1,1-2,4.67,4.67,0,0,1,1.87-1.34,4.74,4.74,0,0,1,2.3-.27,4.64,4.64,0,0,1,2.16.85.42.42,0,0,0,.14.09.39.39,0,0,0,.18,0,.33.33,0,0,0,.17,0,.38.38,0,0,0,.15-.09,15.08,15.08,0,0,1,2.08-1.25,19.35,19.35,0,0,1,11.42-2,19.07,19.07,0,0,1,4.6,1.17c.23.09.4.13.54-.13a4.57,4.57,0,0,1,1.4-1.6,4.83,4.83,0,0,1,2-.82Z"></path><path class="cls-2" d="M45.6,17.49a.4.4,0,0,0-.11-.26.64.64,0,0,0-.28-.16.87.87,0,0,0-.36,0,.76.76,0,0,0-.3.14.45.45,0,0,0-.12.16.25.25,0,0,0,0,.17.44.44,0,0,0,.2.32A.68.68,0,0,0,45,18a.62.62,0,0,0,.41-.14.39.39,0,0,0,.16-.33Zm1.4,0a1.28,1.28,0,0,1-.3.77,1.85,1.85,0,0,1-.78.54,2.59,2.59,0,0,1-1,.17,2.55,2.55,0,0,1-1-.26,1.74,1.74,0,0,1-.69-.62,1.17,1.17,0,0,1-.17-.79,1.33,1.33,0,0,1,.4-.74,2,2,0,0,1,.85-.48,2.58,2.58,0,0,1,1.53,0,2.15,2.15,0,0,1,.64.33,1.52,1.52,0,0,1,.43.49,1.21,1.21,0,0,1,.14.58Z"></path><path class="cls-2" d="M31.94,33.5a.43.43,0,0,0-.07-.25.55.55,0,0,0-.2-.17.44.44,0,0,0-.49.09.4.4,0,0,0-.12.23.44.44,0,0,0,.18.46.41.41,0,0,0,.24.08.48.48,0,0,0,.32-.13.5.5,0,0,0,.14-.31ZM31.47,35a1.44,1.44,0,0,1-.82-.27,1.34,1.34,0,0,1-.54-.68,1.41,1.41,0,0,1-.11-.57,1.39,1.39,0,0,1,.12-.57,1.51,1.51,0,0,1,.33-.49,1.57,1.57,0,0,1,.49-.31,1.46,1.46,0,0,1,.58-.11,1.42,1.42,0,0,1,.57.12,1.58,1.58,0,0,1,.48.33,1.5,1.5,0,0,1,.4.78,1.44,1.44,0,0,1-.09.87,1.55,1.55,0,0,1-.57.67,1.46,1.46,0,0,1-.84.23Z"></path><path class="cls-2" d="M19,21.6a.64.64,0,0,0,.42-.18A.63.63,0,0,0,19.6,21a.62.62,0,0,0-.18-.41.61.61,0,0,0-.82,0,.57.57,0,0,0-.2.4.63.63,0,0,0,.17.43.65.65,0,0,0,.42.19ZM19,23a1.93,1.93,0,0,1-.94-.24,1.87,1.87,0,0,1-.72-.65A1.9,1.9,0,0,1,17,21.2a2.08,2.08,0,0,1,.14-1,1.83,1.83,0,0,1,.44-.65,1.88,1.88,0,0,1,.64-.44,2.05,2.05,0,0,1,1.54,0,2,2,0,0,1,1.08,1.08A2.07,2.07,0,0,1,21,21a2.28,2.28,0,0,1-.14.77,2,2,0,0,1-.44.65,1.89,1.89,0,0,1-.65.43A2,2,0,0,1,19,23Z"></path></svg>