<svg xmlns="http://www.w3.org/2000/svg" id="Layer_1" data-name="Layer 1" viewBox="0 0 684 123"><defs><style>.cls-1{fill:none;stroke:#55cdd5;}.cls-2{fill:#55cdd5;}.cls-3{fill:#13191d;}.cls-4{fill:#fff;}</style></defs><rect class="cls-1" x="0.5" y="0.5" width="683" height="122"></rect><path class="cls-2" d="M41.09,24.31a1.66,1.66,0,0,0-.54-.94,1.6,1.6,0,0,0-1-.37l-.28,0a1.57,1.57,0,0,0-1,.64A1.62,1.62,0,0,0,38,24.86l.13.79L22.46,32.47a1.53,1.53,0,0,0-1.15-.28A1.55,1.55,0,0,0,20,34l.41,2.75A1.53,1.53,0,0,0,22,38h.24a1.54,1.54,0,0,0,1.11-.77h0l2.73,7.85h0a1.74,1.74,0,0,0,.86,1,1.72,1.72,0,0,0,1.3.07,1.69,1.69,0,0,0,1-2.16l-2.16-6.23,13.25,1.77,0,.29a1.58,1.58,0,0,0,1.83,1.3h0a1.6,1.6,0,0,0,1.29-1.84Zm-19,12.78A.61.61,0,0,1,21.6,37a.59.59,0,0,1-.25-.4l-.41-2.75a.6.6,0,0,1,.52-.7h.09a.63.63,0,0,1,.37.12l.1.09,0,0a.58.58,0,0,1,.12.29l.41,2.74a.41.41,0,0,1,0,.11.57.57,0,0,1,0,.13.62.62,0,0,1-.51.47Zm4,.52,2.32,6.68a.75.75,0,0,1-.46,1h0a.71.71,0,0,1-.57,0,.78.78,0,0,1-.39-.43l-2.57-7.4.9.12Zm14.13.94L26.46,36.72l-2.95-.39a.19.19,0,0,0,0-.08h0l-.41-2.74h0a1.14,1.14,0,0,0-.06-.25h0l13.31-5.8,1.32,8.85a.47.47,0,0,0,.46.4h.07a.47.47,0,0,0,.4-.53l-1.36-9.1,1-.44.32,2Zm1.88,1.63a.66.66,0,0,1-.49-.11.65.65,0,0,1-.26-.42l-1.45-9-.79-4.83h0l-.18-1.16a.66.66,0,0,1,.11-.49.64.64,0,0,1,.4-.26h.13a.64.64,0,0,1,.64.53l2.42,15a.66.66,0,0,1-.53.76Z"></path><path class="cls-2" d="M47.4,27.77a.6.6,0,0,0,.32-.1l2.66-1.78a.59.59,0,0,0,.16-.82.59.59,0,0,0-.82-.17l-2.66,1.79a.59.59,0,0,0,.33,1.08Z"></path><path class="cls-2" d="M52.09,34.07,49,33.3a.58.58,0,0,0-.7.43.6.6,0,0,0,.42.72l3.1.77H52a.59.59,0,0,0,.14-1.16Z"></path><path class="cls-2" d="M50.72,30.88a.59.59,0,1,0-.1-1.18l-2.41.22h0a.59.59,0,0,0,0,1.18h.05Z"></path><path class="cls-2" d="M75.54,36.34h3.51a6.38,6.38,0,0,1-1,3.06,5.68,5.68,0,0,1-2.33,2.08,7.93,7.93,0,0,1-3.59.75,7.24,7.24,0,0,1-2.94-.56A6.25,6.25,0,0,1,67,40a7.27,7.27,0,0,1-1.39-2.58,11.08,11.08,0,0,1-.48-3.38V32.88a10.77,10.77,0,0,1,.49-3.38,7.29,7.29,0,0,1,1.43-2.59,6.28,6.28,0,0,1,2.24-1.64,7,7,0,0,1,2.9-.58,7.6,7.6,0,0,1,3.6.78,5.55,5.55,0,0,1,2.29,2.13,7.26,7.26,0,0,1,1,3.09H75.55a4.38,4.38,0,0,0-.4-1.74,2.43,2.43,0,0,0-1.07-1.1,4,4,0,0,0-1.88-.37,3.35,3.35,0,0,0-1.53.33,2.82,2.82,0,0,0-1.1,1,4.94,4.94,0,0,0-.67,1.69,11.72,11.72,0,0,0-.21,2.37v1.21a11.56,11.56,0,0,0,.2,2.33,5.26,5.26,0,0,0,.61,1.69,2.93,2.93,0,0,0,1.07,1,3.61,3.61,0,0,0,1.61.34A4.07,4.07,0,0,0,74,39.1a2.44,2.44,0,0,0,1.09-1A4.06,4.06,0,0,0,75.54,36.34Zm5.06-.55v-.25A8,8,0,0,1,81,33a6,6,0,0,1,1.16-2A5.23,5.23,0,0,1,84,29.58a6.2,6.2,0,0,1,2.55-.49,6.33,6.33,0,0,1,2.57.49,5.19,5.19,0,0,1,1.89,1.35,5.91,5.91,0,0,1,1.17,2,8,8,0,0,1,.4,2.56v.25a8.08,8.08,0,0,1-.4,2.56,6.14,6.14,0,0,1-1.17,2.06,5.33,5.33,0,0,1-1.88,1.34,6.37,6.37,0,0,1-2.55.48,6.51,6.51,0,0,1-2.57-.48,5.46,5.46,0,0,1-1.89-1.34A6.29,6.29,0,0,1,81,38.35,8.08,8.08,0,0,1,80.6,35.79ZM84,35.54v.25a7.78,7.78,0,0,0,.14,1.49,3.76,3.76,0,0,0,.45,1.22,2.24,2.24,0,0,0,.82.8,2.34,2.34,0,0,0,1.23.3,2.27,2.27,0,0,0,1.2-.3,2.14,2.14,0,0,0,.81-.8,4,4,0,0,0,.45-1.22,7,7,0,0,0,.15-1.49v-.25a6.72,6.72,0,0,0-.15-1.45,4,4,0,0,0-.46-1.22,2.18,2.18,0,0,0-.81-.84,2.54,2.54,0,0,0-2.43,0,2.33,2.33,0,0,0-.81.84,3.76,3.76,0,0,0-.45,1.22A7.43,7.43,0,0,0,84,35.54ZM98.07,32V42H94.68V29.32h3.18Zm-.47,3.27h-.94A8.9,8.9,0,0,1,97,32.78a5.91,5.91,0,0,1,1-2,4.49,4.49,0,0,1,1.55-1.29,4.89,4.89,0,0,1,2.15-.45,4.54,4.54,0,0,1,1.55.25,3,3,0,0,1,1.2.79,3.45,3.45,0,0,1,.8,1.38,6.38,6.38,0,0,1,.28,2V42h-3.37V33.91a3,3,0,0,0-.24-1.33,1.34,1.34,0,0,0-.67-.66,2.58,2.58,0,0,0-1-.19,2.2,2.2,0,0,0-1.94,1,3.42,3.42,0,0,0-.47,1.1A6,6,0,0,0,97.6,35.22Zm7.54-.39-1.2.15a8.49,8.49,0,0,1,.3-2.31,5.75,5.75,0,0,1,.93-1.87,4.25,4.25,0,0,1,1.53-1.26,4.74,4.74,0,0,1,2.11-.45,5.18,5.18,0,0,1,1.67.26,3,3,0,0,1,1.27.84,3.49,3.49,0,0,1,.82,1.47,7.27,7.27,0,0,1,.3,2.24V42h-3.39V33.9a3.08,3.08,0,0,0-.23-1.33,1.23,1.23,0,0,0-.66-.65,2.56,2.56,0,0,0-1-.19,2.24,2.24,0,0,0-1.06.25,2.12,2.12,0,0,0-.77.66,3,3,0,0,0-.45,1A4.6,4.6,0,0,0,105.14,34.83Zm16.18,7.4a7.12,7.12,0,0,1-2.65-.46,5.74,5.74,0,0,1-3.24-3.29,6.54,6.54,0,0,1-.43-2.39v-.47a8.11,8.11,0,0,1,.41-2.63,6.14,6.14,0,0,1,1.17-2.08,5.18,5.18,0,0,1,1.88-1.34,6.13,6.13,0,0,1,2.48-.48,6,6,0,0,1,2.39.44,4.68,4.68,0,0,1,1.75,1.27,5.6,5.6,0,0,1,1.08,2,8.31,8.31,0,0,1,.36,2.53v1.4H116.44V34.45h6.76V34.2a3,3,0,0,0-.25-1.26,2.1,2.1,0,0,0-.75-.89,2.33,2.33,0,0,0-1.29-.33,2.12,2.12,0,0,0-1.15.3,2.23,2.23,0,0,0-.79.82,4.51,4.51,0,0,0-.44,1.24,7.41,7.41,0,0,0-.14,1.54v.47a4.53,4.53,0,0,0,.21,1.41,3.33,3.33,0,0,0,.62,1.11,2.71,2.71,0,0,0,1,.73,3.32,3.32,0,0,0,1.33.26,4.2,4.2,0,0,0,1.7-.35,3.87,3.87,0,0,0,1.37-1.09l1.64,1.78a5.14,5.14,0,0,1-1.09,1.1,5.91,5.91,0,0,1-1.64.87A7,7,0,0,1,121.32,42.23Zm18.34-2.63a2.44,2.44,0,0,0,1.1-.24,1.83,1.83,0,0,0,.75-.68,2,2,0,0,0,.29-1H145a4.25,4.25,0,0,1-.72,2.38,5,5,0,0,1-1.88,1.63,5.92,5.92,0,0,1-2.65.58,6.22,6.22,0,0,1-2.58-.49,5.07,5.07,0,0,1-1.82-1.36,5.88,5.88,0,0,1-1.09-2,8.44,8.44,0,0,1-.36-2.5V35.5a8.41,8.41,0,0,1,.36-2.51,5.88,5.88,0,0,1,1.09-2,5,5,0,0,1,1.82-1.37,6.14,6.14,0,0,1,2.55-.49,5.9,5.9,0,0,1,2.73.59,4.48,4.48,0,0,1,1.86,1.72A5,5,0,0,1,145,34H141.8a2.7,2.7,0,0,0-.27-1.15,1.93,1.93,0,0,0-.73-.82,2,2,0,0,0-1.16-.32,2.1,2.1,0,0,0-1.2.32,1.93,1.93,0,0,0-.73.84,4.29,4.29,0,0,0-.36,1.21,10.39,10.39,0,0,0-.1,1.41v.34a10.63,10.63,0,0,0,.1,1.41,3.9,3.9,0,0,0,.35,1.21,2.06,2.06,0,0,0,.74.83A2.14,2.14,0,0,0,139.66,39.6ZM150.23,24V42h-3.38V24Zm-.48,11.22h-.93a8.87,8.87,0,0,1,.35-2.44,6.14,6.14,0,0,1,1-2,4.68,4.68,0,0,1,1.52-1.29,4.28,4.28,0,0,1,2-.45,5.28,5.28,0,0,1,1.7.26,3.27,3.27,0,0,1,1.33.85,4,4,0,0,1,.87,1.51,7.52,7.52,0,0,1,.3,2.27v8h-3.4V34a3,3,0,0,0-.24-1.32,1.35,1.35,0,0,0-.7-.69,2.4,2.4,0,0,0-1.1-.22,2.64,2.64,0,0,0-1.24.27,2.16,2.16,0,0,0-.81.75,3.38,3.38,0,0,0-.44,1.1A6,6,0,0,0,149.75,35.22Zm17.48,3.92V33.49a2.54,2.54,0,0,0-.2-1,1.44,1.44,0,0,0-.62-.69,2,2,0,0,0-1.07-.25,2.24,2.24,0,0,0-1,.2,1.47,1.47,0,0,0-.63.55,1.51,1.51,0,0,0-.22.83h-3.38a3.27,3.27,0,0,1,.38-1.53,3.77,3.77,0,0,1,1.09-1.28,5.41,5.41,0,0,1,1.69-.88,7.42,7.42,0,0,1,2.23-.31,6.6,6.6,0,0,1,2.63.49,4.08,4.08,0,0,1,1.8,1.47,4.28,4.28,0,0,1,.67,2.47v5.42a8.87,8.87,0,0,0,.13,1.71,4.44,4.44,0,0,0,.37,1.15V42h-3.41a4.74,4.74,0,0,1-.37-1.29A10.38,10.38,0,0,1,167.23,39.14Zm.45-4.86,0,1.91h-1.89a4,4,0,0,0-1.16.15,2.23,2.23,0,0,0-.81.43,1.61,1.61,0,0,0-.46.64,2,2,0,0,0-.15.79,1.63,1.63,0,0,0,.2.79,1.44,1.44,0,0,0,.58.54,2,2,0,0,0,.88.19,2.77,2.77,0,0,0,1.32-.31,2.31,2.31,0,0,0,.87-.75,1.6,1.6,0,0,0,.33-.84l.89,1.43a5.93,5.93,0,0,1-.52,1,4.59,4.59,0,0,1-.81,1,4.21,4.21,0,0,1-1.18.73,4.3,4.3,0,0,1-1.64.28,4.89,4.89,0,0,1-2.19-.48,3.89,3.89,0,0,1-1.55-1.34,3.6,3.6,0,0,1-.56-2,4,4,0,0,1,.37-1.77,3.44,3.44,0,0,1,1.1-1.3,5.27,5.27,0,0,1,1.84-.81,10.34,10.34,0,0,1,2.56-.28ZM176.54,32V42h-3.38V29.32h3.16Zm-.5,3.19h-.91a8.33,8.33,0,0,1,.36-2.54,5.73,5.73,0,0,1,1-1.93,4.39,4.39,0,0,1,1.56-1.23,4.69,4.69,0,0,1,2-.43,5,5,0,0,1,1.63.25,3.24,3.24,0,0,1,1.26.82,3.57,3.57,0,0,1,.82,1.49,7.41,7.41,0,0,1,.3,2.26V42h-3.4V33.9a2.92,2.92,0,0,0-.24-1.31,1.31,1.31,0,0,0-.69-.66,2.7,2.7,0,0,0-1.1-.2,2.45,2.45,0,0,0-1.18.27,2.35,2.35,0,0,0-.82.75,3.67,3.67,0,0,0-.48,1.1A5.47,5.47,0,0,0,176,35.22Zm18.67-5.9h3.06V41.58a5.39,5.39,0,0,1-.77,2.94,4.76,4.76,0,0,1-2.14,1.84,7.52,7.52,0,0,1-3.18.63,7.3,7.3,0,0,1-1.69-.21,6.59,6.59,0,0,1-1.69-.66A4.43,4.43,0,0,1,187,45l1.49-2a4.29,4.29,0,0,0,1.36,1.05,3.77,3.77,0,0,0,1.71.39,3.2,3.2,0,0,0,1.55-.34,2.22,2.22,0,0,0,1-1,3.19,3.19,0,0,0,.34-1.54V32.25Zm-8.53,6.49v-.24a9.42,9.42,0,0,1,.35-2.64,6.25,6.25,0,0,1,1-2.05,4.55,4.55,0,0,1,3.76-1.79,4.38,4.38,0,0,1,2.12.46,3.93,3.93,0,0,1,1.41,1.34,7.1,7.1,0,0,1,.86,2,19.09,19.09,0,0,1,.49,2.54V36a15.91,15.91,0,0,1-.53,2.46,7.17,7.17,0,0,1-.93,2,4,4,0,0,1-1.43,1.32,4.09,4.09,0,0,1-2,.46,4.62,4.62,0,0,1-2.12-.48,4.82,4.82,0,0,1-1.61-1.34,6.52,6.52,0,0,1-1-2A9.05,9.05,0,0,1,186.18,35.81Zm3.37-.24v.24a6.83,6.83,0,0,0,.16,1.47,3.76,3.76,0,0,0,.47,1.2,2.13,2.13,0,0,0,2,1.09,2.7,2.7,0,0,0,1.52-.38,2.5,2.5,0,0,0,.88-1.09,5.09,5.09,0,0,0,.34-1.6V35a5.64,5.64,0,0,0-.2-1.32,3.41,3.41,0,0,0-.5-1,2,2,0,0,0-.82-.65,2.72,2.72,0,0,0-1.19-.24A2.18,2.18,0,0,0,191,32a2.41,2.41,0,0,0-.81.81,4.09,4.09,0,0,0-.48,1.22A6.44,6.44,0,0,0,189.55,35.57Zm16.68,6.66a7.15,7.15,0,0,1-2.65-.46,5.89,5.89,0,0,1-2-1.33,5.79,5.79,0,0,1-1.24-2,6.55,6.55,0,0,1-.44-2.39v-.47a8.11,8.11,0,0,1,.41-2.63,6.33,6.33,0,0,1,1.18-2.08,5.14,5.14,0,0,1,1.87-1.34,6.18,6.18,0,0,1,2.49-.48,6,6,0,0,1,2.39.44A4.73,4.73,0,0,1,210,30.8a5.3,5.3,0,0,1,1.08,2,8.31,8.31,0,0,1,.36,2.53v1.4H201.36V34.45h6.76V34.2a3,3,0,0,0-.26-1.26,2,2,0,0,0-.75-.89,2.33,2.33,0,0,0-1.29-.33,2.12,2.12,0,0,0-1.93,1.12,4.21,4.21,0,0,0-.45,1.24,8.16,8.16,0,0,0-.14,1.54v.47a4.53,4.53,0,0,0,.21,1.41,3.51,3.51,0,0,0,.62,1.11,2.75,2.75,0,0,0,1,.73,3.27,3.27,0,0,0,1.32.26,4.17,4.17,0,0,0,1.7-.35,3.79,3.79,0,0,0,1.37-1.09l1.64,1.78a4.91,4.91,0,0,1-1.09,1.1,5.91,5.91,0,0,1-1.64.87A7,7,0,0,1,206.23,42.23Zm19.31-12.91v2.39h-7.38V29.32ZM220,26.19h3.37v12a2,2,0,0,0,.14.84.86.86,0,0,0,.45.41,2.18,2.18,0,0,0,.74.11l.56,0,.43-.07,0,2.48a6.59,6.59,0,0,1-2.06.3,4.83,4.83,0,0,1-1.94-.36,2.71,2.71,0,0,1-1.27-1.19,4.63,4.63,0,0,1-.44-2.16ZM230.76,24V42h-3.38V24Zm-.48,11.22h-.93a8.87,8.87,0,0,1,.35-2.44,6,6,0,0,1,1-2,4.54,4.54,0,0,1,1.51-1.29,4.29,4.29,0,0,1,2-.45,5.37,5.37,0,0,1,1.7.26,3.3,3.3,0,0,1,1.32.85,4,4,0,0,1,.87,1.51,7.52,7.52,0,0,1,.3,2.27v8H235V34a3,3,0,0,0-.24-1.32A1.36,1.36,0,0,0,234,32a2.47,2.47,0,0,0-1.11-.22,2.67,2.67,0,0,0-1.24.27,2.24,2.24,0,0,0-.81.75,3.38,3.38,0,0,0-.44,1.1A6,6,0,0,0,230.28,35.22Zm16.47,7a7.1,7.1,0,0,1-2.64-.46,5.66,5.66,0,0,1-3.24-3.29,6.54,6.54,0,0,1-.43-2.39v-.47a7.85,7.85,0,0,1,.41-2.63A6.14,6.14,0,0,1,242,30.91a5.23,5.23,0,0,1,1.87-1.34,6.21,6.21,0,0,1,2.49-.48,6,6,0,0,1,2.39.44,4.76,4.76,0,0,1,1.75,1.27,5.42,5.42,0,0,1,1.07,2A8,8,0,0,1,252,35.3v1.4H241.88V34.45h6.76V34.2a3,3,0,0,0-.26-1.26,2,2,0,0,0-.75-.89,2.29,2.29,0,0,0-1.29-.33,2.11,2.11,0,0,0-1.14.3,2.15,2.15,0,0,0-.79.82,4.51,4.51,0,0,0-.45,1.24,8.16,8.16,0,0,0-.14,1.54v.47A4.25,4.25,0,0,0,244,37.5a3.16,3.16,0,0,0,.62,1.11,2.71,2.71,0,0,0,1,.73,3.27,3.27,0,0,0,1.32.26,4.17,4.17,0,0,0,1.7-.35A3.82,3.82,0,0,0,250,38.16l1.64,1.78a5.14,5.14,0,0,1-1.09,1.1,6.06,6.06,0,0,1-1.64.87A7.12,7.12,0,0,1,246.75,42.23Zm16.73-3.51,2.63-9.4h2.15L267.57,33l-2.64,9h-1.79Zm-1.34-9.4L264,38.71,264.2,42h-2.11l-3.21-12.68Zm8.53,9.23,1.84-9.23h3.27L272.57,42h-2.1Zm-2.12-9.23,2.63,9.33.36,3.35h-1.81l-2.63-9-.67-3.7Zm8.39,6.47v-.25a7.77,7.77,0,0,1,.4-2.56,5.89,5.89,0,0,1,1.16-2,5.15,5.15,0,0,1,1.88-1.35,6.2,6.2,0,0,1,2.55-.49,6.33,6.33,0,0,1,2.57.49,5.07,5.07,0,0,1,1.88,1.35,5.61,5.61,0,0,1,1.17,2,7.77,7.77,0,0,1,.4,2.56v.25a7.81,7.81,0,0,1-.4,2.56,5.82,5.82,0,0,1-1.17,2.06,5.21,5.21,0,0,1-1.87,1.34,7.07,7.07,0,0,1-5.12,0,5.37,5.37,0,0,1-1.89-1.34,6.12,6.12,0,0,1-1.16-2.06A7.81,7.81,0,0,1,276.94,35.79Zm3.38-.25v.25a7,7,0,0,0,.14,1.49,4,4,0,0,0,.44,1.22,2.32,2.32,0,0,0,.82.8,2.39,2.39,0,0,0,1.23.3,2.34,2.34,0,0,0,1.21-.3,2.14,2.14,0,0,0,.81-.8,4,4,0,0,0,.44-1.22,6.42,6.42,0,0,0,.16-1.49v-.25a6.14,6.14,0,0,0-.16-1.45,3.76,3.76,0,0,0-.45-1.22,2.33,2.33,0,0,0-.81-.84,2.56,2.56,0,0,0-2.44,0,2.33,2.33,0,0,0-.81.84,4,4,0,0,0-.44,1.22A6.73,6.73,0,0,0,280.32,35.54Zm14.08-3.45V42H291V29.32h3.17Zm3.82-2.85-.06,3.13a4.32,4.32,0,0,0-.59-.06,4.8,4.8,0,0,0-.62,0,3.87,3.87,0,0,0-1.25.19,2.16,2.16,0,0,0-.86.53,2.29,2.29,0,0,0-.52.85,4.39,4.39,0,0,0-.19,1.15l-.68-.21a10,10,0,0,1,.25-2.26,6.23,6.23,0,0,1,.71-1.82,3.54,3.54,0,0,1,1.18-1.19,3,3,0,0,1,1.58-.42,3.64,3.64,0,0,1,.57,0A2.14,2.14,0,0,1,298.22,29.24ZM303.38,24V42H300V24Zm10.28,15.23V24h3.39V42H314Zm-8-3.42v-.24a9.83,9.83,0,0,1,.33-2.64,6.17,6.17,0,0,1,1-2.05,4.44,4.44,0,0,1,1.56-1.33,4.64,4.64,0,0,1,2.11-.46,3.89,3.89,0,0,1,1.94.46A4.15,4.15,0,0,1,314,30.89a7.2,7.2,0,0,1,1,2,13.4,13.4,0,0,1,.53,2.54V36a13,13,0,0,1-.53,2.46,7.21,7.21,0,0,1-1,2,4.18,4.18,0,0,1-1.43,1.32,4,4,0,0,1-2,.46,4.31,4.31,0,0,1-3.65-1.82,6.4,6.4,0,0,1-.95-2A9.44,9.44,0,0,1,305.64,35.81Zm3.38-.24v.24a8.53,8.53,0,0,0,.11,1.47,4.58,4.58,0,0,0,.41,1.2,2.26,2.26,0,0,0,.75.81,2.17,2.17,0,0,0,1.14.28,2.46,2.46,0,0,0,1.43-.38,2.51,2.51,0,0,0,.85-1.09,4.38,4.38,0,0,0,.36-1.6V35a6.18,6.18,0,0,0-.21-1.32,3,3,0,0,0-.5-1,2.08,2.08,0,0,0-.79-.65,2.46,2.46,0,0,0-1.12-.24,2,2,0,0,0-1.12.31,2.12,2.12,0,0,0-.76.81,4.37,4.37,0,0,0-.43,1.22A8.77,8.77,0,0,0,309,35.57ZM323.5,24.94l-.39,11.84H320.3l-.4-11.84Zm-3.69,15.51a1.65,1.65,0,0,1,.51-1.24,2,2,0,0,1,1.39-.5,1.9,1.9,0,0,1,1.38.5,1.73,1.73,0,0,1,0,2.47,1.86,1.86,0,0,1-1.38.51,1.94,1.94,0,0,1-1.39-.51A1.64,1.64,0,0,1,319.81,40.45Z"></path><path class="cls-2" d="M658.15,16.14h.74v4.05h-.3a10.12,10.12,0,0,0-3.57.59,7.34,7.34,0,0,0-2.66,1.71,7.54,7.54,0,0,0-1.65,2.63,10.27,10.27,0,0,0-.56,3.47v4.25a10.4,10.4,0,0,0,.26,2.43A5.38,5.38,0,0,0,651.2,37a3.52,3.52,0,0,0,1.23,1,3.57,3.57,0,0,0,1.59.34,3.21,3.21,0,0,0,1.49-.35,3.34,3.34,0,0,0,1.16-1,4.63,4.63,0,0,0,.74-1.51,7.18,7.18,0,0,0,0-3.83,4.35,4.35,0,0,0-.74-1.51,3.29,3.29,0,0,0-1.2-1,3.38,3.38,0,0,0-1.58-.36,3.92,3.92,0,0,0-2.11.57,4.08,4.08,0,0,0-1.4,1.4,3.78,3.78,0,0,0-.55,1.81l-1.53-1a7.68,7.68,0,0,1,.56-2.57,7.16,7.16,0,0,1,1.45-2.14,6.36,6.36,0,0,1,2.23-1.48,7.61,7.61,0,0,1,2.93-.54,6.83,6.83,0,0,1,3.15.68,6.65,6.65,0,0,1,2.29,1.88,8.5,8.5,0,0,1,1.37,2.76,12.09,12.09,0,0,1,.45,3.34,9.63,9.63,0,0,1-.61,3.47,8.22,8.22,0,0,1-1.74,2.79,7.71,7.71,0,0,1-2.71,1.86,9,9,0,0,1-3.55.67,9.14,9.14,0,0,1-3.71-.74,8.35,8.35,0,0,1-2.85-2.11,9.56,9.56,0,0,1-1.84-3.21,12.69,12.69,0,0,1-.63-4.08v-2a17.27,17.27,0,0,1,.89-5.66,13.26,13.26,0,0,1,2.62-4.47,11.7,11.7,0,0,1,4.12-2.93A13.59,13.59,0,0,1,658.15,16.14ZM585,55v-7h.84v7a3.42,3.42,0,0,1-.39,1.7,2.64,2.64,0,0,1-1.07,1.05,3.25,3.25,0,0,1-1.55.36,3.73,3.73,0,0,1-1.57-.32,2.3,2.3,0,0,1-1-1,3.18,3.18,0,0,1-.38-1.62h.84a2.61,2.61,0,0,0,.26,1.21,1.71,1.71,0,0,0,.74.72,2.61,2.61,0,0,0,1.16.24,2.24,2.24,0,0,0,1.1-.27,1.94,1.94,0,0,0,.78-.8A2.74,2.74,0,0,0,585,55Zm2.67-.61v-.23a4.52,4.52,0,0,1,.24-1.49,3.4,3.4,0,0,1,.66-1.18,3,3,0,0,1,1-.77,3.11,3.11,0,0,1,1.35-.28,3.18,3.18,0,0,1,1.36.28,3.07,3.07,0,0,1,1,.77,3.59,3.59,0,0,1,.67,1.18,4.79,4.79,0,0,1,.23,1.49v.23a4.75,4.75,0,0,1-.23,1.49,3.54,3.54,0,0,1-.67,1.17,2.94,2.94,0,0,1-1,.78,3.44,3.44,0,0,1-2.72,0,2.94,2.94,0,0,1-1-.78,3.38,3.38,0,0,1-.67-1.17A4.48,4.48,0,0,1,587.7,54.42Zm.82-.23v.23a4,4,0,0,0,.16,1.15,3.14,3.14,0,0,0,.48,1,2.23,2.23,0,0,0,.78.65,2.31,2.31,0,0,0,1.07.24,2.25,2.25,0,0,0,1.84-.89,2.92,2.92,0,0,0,.47-1,4,4,0,0,0,.17-1.15v-.23a3.88,3.88,0,0,0-.17-1.14,2.71,2.71,0,0,0-.48-1,2.07,2.07,0,0,0-.77-.67,2.41,2.41,0,0,0-2.14,0,2.37,2.37,0,0,0-.78.67,3.09,3.09,0,0,0-.48,1A4.24,4.24,0,0,0,588.52,54.19ZM596,47.5h.82v9.06l0,1.44H596Zm6,6.73v.15a6.08,6.08,0,0,1-.19,1.52,4,4,0,0,1-.56,1.19,2.52,2.52,0,0,1-.89.77,2.41,2.41,0,0,1-1.19.28,3.07,3.07,0,0,1-1.18-.21,2.53,2.53,0,0,1-.87-.59,3.32,3.32,0,0,1-.59-.91,5.05,5.05,0,0,1-.3-1.16V53.45a4.84,4.84,0,0,1,.33-1.22,3.17,3.17,0,0,1,.58-.94,2.29,2.29,0,0,1,.86-.61,3,3,0,0,1,1.15-.21,2.76,2.76,0,0,1,1.21.26,2.5,2.5,0,0,1,.89.76,3.75,3.75,0,0,1,.56,1.19A6.15,6.15,0,0,1,602,54.23Zm-.83.15v-.15A5.68,5.68,0,0,0,601,53a3.22,3.22,0,0,0-.39-1,1.89,1.89,0,0,0-.67-.65,1.94,1.94,0,0,0-1-.24,2.35,2.35,0,0,0-1,.2,2,2,0,0,0-.69.52,2.83,2.83,0,0,0-.42.69,4.38,4.38,0,0,0-.23.73v2.13a3.11,3.11,0,0,0,.4,1,2.19,2.19,0,0,0,.77.74,2.43,2.43,0,0,0,1.19.27,2,2,0,0,0,1-.23,1.89,1.89,0,0,0,.67-.65,2.77,2.77,0,0,0,.39-1A5.08,5.08,0,0,0,601.13,54.38Zm13.6-1.89v1.07a5.91,5.91,0,0,1-.28,1.89,3.85,3.85,0,0,1-.78,1.44,3.45,3.45,0,0,1-1.21.93,4.14,4.14,0,0,1-3.19,0,3.58,3.58,0,0,1-1.22-.93,4.18,4.18,0,0,1-.79-1.44,5.9,5.9,0,0,1-.29-1.89V52.49a6.15,6.15,0,0,1,.28-1.89,4.22,4.22,0,0,1,.79-1.45,3.49,3.49,0,0,1,1.23-.92,3.83,3.83,0,0,1,1.57-.32,3.87,3.87,0,0,1,1.6.32,3.49,3.49,0,0,1,1.23.92,4.21,4.21,0,0,1,.78,1.45A5.87,5.87,0,0,1,614.73,52.49Zm-.84,1.07V52.48a6,6,0,0,0-.2-1.59,3.38,3.38,0,0,0-.6-1.2,2.61,2.61,0,0,0-1-.77,3,3,0,0,0-1.3-.26,2.84,2.84,0,0,0-1.26.26,2.73,2.73,0,0,0-1,.77,3.56,3.56,0,0,0-.6,1.2,5.58,5.58,0,0,0-.2,1.59v1.08a5.7,5.7,0,0,0,.2,1.6,3.53,3.53,0,0,0,.61,1.21,2.64,2.64,0,0,0,1,.76,2.89,2.89,0,0,0,1.27.27,3,3,0,0,0,1.29-.27,2.69,2.69,0,0,0,1-.76,3.69,3.69,0,0,0,.59-1.21A6.09,6.09,0,0,0,613.89,53.56ZM617.47,52v8.81h-.82V50.6h.76Zm5.14,2.2v.15a6.08,6.08,0,0,1-.19,1.52,4,4,0,0,1-.56,1.19,2.41,2.41,0,0,1-.88.77,2.47,2.47,0,0,1-1.2.28,3.14,3.14,0,0,1-1.18-.21,2.69,2.69,0,0,1-.89-.58,3,3,0,0,1-.6-.89,4.71,4.71,0,0,1-.31-1.12V53.45a4.84,4.84,0,0,1,.34-1.22,3.2,3.2,0,0,1,.59-.94,2.45,2.45,0,0,1,.88-.61,3,3,0,0,1,1.16-.21,2.71,2.71,0,0,1,1.2.26,2.5,2.5,0,0,1,.89.76,3.54,3.54,0,0,1,.56,1.19A6.15,6.15,0,0,1,622.61,54.23Zm-.82.15v-.15a5.06,5.06,0,0,0-.14-1.2,2.78,2.78,0,0,0-.4-1,1.92,1.92,0,0,0-1.66-.89,2.39,2.39,0,0,0-1,.2,2,2,0,0,0-.68.52,2.35,2.35,0,0,0-.43.69,3.66,3.66,0,0,0-.24.73v2.19a3.42,3.42,0,0,0,.42,1,2.17,2.17,0,0,0,.77.7,2.39,2.39,0,0,0,1.18.26,2,2,0,0,0,1-.23,2,2,0,0,0,.68-.65,2.92,2.92,0,0,0,.4-1A5.06,5.06,0,0,0,621.79,54.38Zm5.49,3.76a3.18,3.18,0,0,1-2.38-1,3.43,3.43,0,0,1-.69-1.15,4.34,4.34,0,0,1-.24-1.46v-.3a4.4,4.4,0,0,1,.25-1.54,3.6,3.6,0,0,1,.7-1.19,3.32,3.32,0,0,1,1-.75,3,3,0,0,1,1.2-.26,3,3,0,0,1,1.26.25,2.5,2.5,0,0,1,.91.7,3.09,3.09,0,0,1,.57,1.08,4.47,4.47,0,0,1,.19,1.36v.5h-5.6v-.7h4.79v-.1A3,3,0,0,0,629,52.4a2.09,2.09,0,0,0-.69-.89,1.91,1.91,0,0,0-1.17-.34,2.09,2.09,0,0,0-1.7.85,3.32,3.32,0,0,0-.48,1,4.31,4.31,0,0,0-.16,1.23v.3a3.6,3.6,0,0,0,.18,1.15,2.83,2.83,0,0,0,.52.93,2.43,2.43,0,0,0,.8.62,2.36,2.36,0,0,0,1,.23,2.67,2.67,0,0,0,1.16-.24,2.52,2.52,0,0,0,.91-.77l.51.39a3.09,3.09,0,0,1-.6.66,2.81,2.81,0,0,1-.85.48A3.47,3.47,0,0,1,627.28,58.14Zm5.21-6V58h-.82V50.6h.78Zm-.19,1.66-.36-.2a4.09,4.09,0,0,1,.27-1.23,3.51,3.51,0,0,1,.6-1,2.89,2.89,0,0,1,.91-.69,2.81,2.81,0,0,1,1.17-.24,3,3,0,0,1,1,.15,1.76,1.76,0,0,1,.74.48,2,2,0,0,1,.47.84,4.13,4.13,0,0,1,.16,1.25V58h-.82V53.18a2.81,2.81,0,0,0-.21-1.2,1.25,1.25,0,0,0-.6-.62,2.2,2.2,0,0,0-.93-.18,2,2,0,0,0-1,.26,2.46,2.46,0,0,0-.74.66,3.59,3.59,0,0,0-.45.87A3.18,3.18,0,0,0,632.3,53.84Zm8-3.24V58h-.81V50.6Zm-1-2.14a.56.56,0,0,1,.15-.39.55.55,0,0,1,.41-.16.56.56,0,0,1,.41.94.53.53,0,0,1-.41.16.51.51,0,0,1-.41-.16A.56.56,0,0,1,639.32,48.46Zm4,3.72V58h-.81V50.6h.77Zm-.19,1.66-.36-.2a4.09,4.09,0,0,1,.27-1.23,3.32,3.32,0,0,1,.61-1,2.78,2.78,0,0,1,.91-.69,2.74,2.74,0,0,1,1.16-.24,3,3,0,0,1,1,.15,1.76,1.76,0,0,1,.74.48,2,2,0,0,1,.47.84,4.13,4.13,0,0,1,.16,1.25V58h-.82V53.18a2.81,2.81,0,0,0-.21-1.2,1.25,1.25,0,0,0-.6-.62,2.19,2.19,0,0,0-.92-.18,2,2,0,0,0-1,.26,2.42,2.42,0,0,0-.73.66,3.3,3.3,0,0,0-.46.87A3.18,3.18,0,0,0,643.14,53.84Zm11.94-3.24h.76v7.27a3.41,3.41,0,0,1-.37,1.65,2.51,2.51,0,0,1-1,1.06,3.4,3.4,0,0,1-2.51.23,3.26,3.26,0,0,1-.91-.42,2.86,2.86,0,0,1-.73-.7l.46-.5a3,3,0,0,0,1,.8,2.44,2.44,0,0,0,1.1.26A2.3,2.3,0,0,0,654,60a1.84,1.84,0,0,0,.75-.81A2.86,2.86,0,0,0,655,57.9V52.23Zm-5.2,3.78v-.15a5.71,5.71,0,0,1,.2-1.55,3.75,3.75,0,0,1,.56-1.19,2.62,2.62,0,0,1,.9-.76,2.71,2.71,0,0,1,1.2-.26,2.9,2.9,0,0,1,1.14.21,2.29,2.29,0,0,1,.86.61,3,3,0,0,1,.59.94,4.84,4.84,0,0,1,.32,1.22v1.82a4.2,4.2,0,0,1-.3,1.16,3.07,3.07,0,0,1-.58.91,2.53,2.53,0,0,1-.87.59,3.05,3.05,0,0,1-1.17.21,2.43,2.43,0,0,1-1.19-.28,2.65,2.65,0,0,1-.9-.77,4,4,0,0,1-.56-1.19A5.64,5.64,0,0,1,649.88,54.38Zm.82-.15v.15a5.66,5.66,0,0,0,.13,1.2,3,3,0,0,0,.4,1,1.92,1.92,0,0,0,.68.65,2,2,0,0,0,1,.23,2.37,2.37,0,0,0,1.18-.27,2,2,0,0,0,.76-.72,3,3,0,0,0,.41-1V53.32a4.38,4.38,0,0,0-.23-.73,2.32,2.32,0,0,0-.42-.69,1.91,1.91,0,0,0-.69-.52,2.27,2.27,0,0,0-1-.2,1.9,1.9,0,0,0-1,.24,1.84,1.84,0,0,0-.68.65,3,3,0,0,0-.4,1A5.66,5.66,0,0,0,650.7,54.23Zm11.71,1.88a1.29,1.29,0,0,0-.15-.59,1.39,1.39,0,0,0-.58-.54,4.09,4.09,0,0,0-1.26-.42,9.09,9.09,0,0,1-1.1-.31,3.16,3.16,0,0,1-.8-.41,1.59,1.59,0,0,1-.5-.57,1.77,1.77,0,0,1-.17-.79,1.75,1.75,0,0,1,.18-.78,2,2,0,0,1,.51-.64,2.92,2.92,0,0,1,.82-.44,3.73,3.73,0,0,1,1.09-.15,3.39,3.39,0,0,1,1.46.29,2.05,2.05,0,0,1,.94.79,2,2,0,0,1,.33,1.12h-.81a1.31,1.31,0,0,0-.23-.72,1.57,1.57,0,0,0-.65-.56,2.19,2.19,0,0,0-1-.22,2.34,2.34,0,0,0-1,.19,1.36,1.36,0,0,0-.58.49,1.14,1.14,0,0,0-.18.61,1.33,1.33,0,0,0,.08.45,1,1,0,0,0,.28.37,2.34,2.34,0,0,0,.6.32,7.34,7.34,0,0,0,1,.29,6.37,6.37,0,0,1,1.46.49,2.07,2.07,0,0,1,.85.69,2,2,0,0,1,.08,1.84,1.89,1.89,0,0,1-.55.65,2.72,2.72,0,0,1-.87.43,3.84,3.84,0,0,1-1.12.15,3.74,3.74,0,0,1-1.58-.31,2.36,2.36,0,0,1-1-.82,2,2,0,0,1-.33-1.09h.81a1.4,1.4,0,0,0,.37.91,1.73,1.73,0,0,0,.78.47,3.42,3.42,0,0,0,.93.13,2.76,2.76,0,0,0,1.06-.18,1.63,1.63,0,0,0,.64-.49A1.11,1.11,0,0,0,662.41,56.11Z"></path><rect class="cls-2" x="546" y="83" width="118" height="20"></rect><path class="cls-3" d="M571.16,88.47V97H569.4V88.47Zm3.4,3.64v1.37h-3.88V92.11Zm.41-3.64v1.38h-4.29V88.47Zm2.69,2.19V97H576V90.66ZM575.86,89a.8.8,0,0,1,.26-.61,1.11,1.11,0,0,1,1.38,0,.8.8,0,0,1,.26.61.82.82,0,0,1-.26.61,1.11,1.11,0,0,1-1.38,0A.82.82,0,0,1,575.86,89Zm4.85,3v5H579V90.66h1.58Zm-.25,1.6H580a4.19,4.19,0,0,1,.18-1.27,2.75,2.75,0,0,1,.51-1,2.11,2.11,0,0,1,.78-.62,2.25,2.25,0,0,1,1-.22,2.64,2.64,0,0,1,.81.13,1.6,1.6,0,0,1,.63.41,1.8,1.8,0,0,1,.41.75A3.68,3.68,0,0,1,584.5,93v4h-1.7V93a1.5,1.5,0,0,0-.12-.66.66.66,0,0,0-.34-.32,1.29,1.29,0,0,0-.55-.1,1.2,1.2,0,0,0-.59.13,1.27,1.27,0,0,0-.42.38,2,2,0,0,0-.24.55A2.88,2.88,0,0,0,580.46,93.61Zm9.07,2V88h1.7v9H589.7Zm-4-1.71v-.13a4.85,4.85,0,0,1,.16-1.31,3.07,3.07,0,0,1,.48-1,2.22,2.22,0,0,1,.78-.66,2.27,2.27,0,0,1,1.06-.24,1.91,1.91,0,0,1,1,.24,2.08,2.08,0,0,1,.72.67,3.79,3.79,0,0,1,.48,1,6.79,6.79,0,0,1,.26,1.27V94a6.52,6.52,0,0,1-.26,1.23,4,4,0,0,1-.48,1,2.12,2.12,0,0,1-.72.65,2,2,0,0,1-1,.24,2.13,2.13,0,0,1-1.83-.92,3.21,3.21,0,0,1-.48-1A4.65,4.65,0,0,1,585.52,93.91Zm1.69-.13v.13a4.23,4.23,0,0,0,.06.73,2.12,2.12,0,0,0,.2.6,1.15,1.15,0,0,0,.38.41,1.08,1.08,0,0,0,.56.14,1.25,1.25,0,0,0,.72-.2,1.22,1.22,0,0,0,.43-.54,2.19,2.19,0,0,0,.17-.8v-.77a2.69,2.69,0,0,0-.1-.66,1.52,1.52,0,0,0-.25-.51A1.08,1.08,0,0,0,589,92a1.31,1.31,0,0,0-.55-.11,1.05,1.05,0,0,0-.57.15,1.22,1.22,0,0,0-.38.4,2.57,2.57,0,0,0-.21.61A4.38,4.38,0,0,0,587.21,93.78Zm10.2,2.5,1.69-5.62h1.81L598.36,98c-.06.15-.13.33-.22.51a2.6,2.6,0,0,1-.37.52,1.74,1.74,0,0,1-.58.41,2,2,0,0,1-.85.16,2.17,2.17,0,0,1-.4,0l-.36-.08V98.21h.27a1.73,1.73,0,0,0,.55-.08.79.79,0,0,0,.33-.23,1.08,1.08,0,0,0,.21-.4Zm-.7-5.62,1.38,4.59.24,1.79-1.15.12-2.28-6.5Zm4.51,3.24v-.13a3.78,3.78,0,0,1,.2-1.28,2.82,2.82,0,0,1,.58-1,2.53,2.53,0,0,1,.93-.67,3.4,3.4,0,0,1,2.56,0,2.6,2.6,0,0,1,1,.67,2.82,2.82,0,0,1,.58,1,3.78,3.78,0,0,1,.2,1.28v.13a3.86,3.86,0,0,1-.2,1.28,2.86,2.86,0,0,1-.58,1,2.67,2.67,0,0,1-.94.68,3.53,3.53,0,0,1-2.56,0,2.59,2.59,0,0,1-.94-.68,2.86,2.86,0,0,1-.58-1A3.86,3.86,0,0,1,601.22,93.9Zm1.68-.13v.13a4.32,4.32,0,0,0,.07.74,2.21,2.21,0,0,0,.23.61,1.12,1.12,0,0,0,.41.4,1.18,1.18,0,0,0,1.62-.4,1.92,1.92,0,0,0,.22-.61,3.5,3.5,0,0,0,.08-.74v-.13a3.4,3.4,0,0,0-.08-.73,1.6,1.6,0,0,0-.23-.6,1.11,1.11,0,0,0-.4-.43,1.32,1.32,0,0,0-1.22,0,1.19,1.19,0,0,0-.4.43,2,2,0,0,0-.23.6A4.21,4.21,0,0,0,602.9,93.77ZM612,95.48V90.66h1.69V97h-1.59Zm.19-1.3h.5a4.49,4.49,0,0,1-.15,1.18,2.86,2.86,0,0,1-.44.93,2,2,0,0,1-.74.62,2.46,2.46,0,0,1-1,.22,2.86,2.86,0,0,1-.85-.13,1.73,1.73,0,0,1-.67-.42,2,2,0,0,1-.44-.73,3.43,3.43,0,0,1-.15-1.08v-4.1h1.69v4.11a1.29,1.29,0,0,0,.07.47.78.78,0,0,0,.19.32.66.66,0,0,0,.29.17,1.06,1.06,0,0,0,.37.06,1.4,1.4,0,0,0,.82-.21,1.14,1.14,0,0,0,.43-.58A2.61,2.61,0,0,0,612.2,94.18ZM616.67,92v5H615V90.66h1.58Zm1.91-1.42,0,1.56-.29,0H618a2,2,0,0,0-.63.09,1.05,1.05,0,0,0-.69.69,2.43,2.43,0,0,0-.09.58l-.34-.11a5,5,0,0,1,.12-1.13,3,3,0,0,1,.36-.91,1.78,1.78,0,0,1,.59-.6,1.48,1.48,0,0,1,.79-.21,1.33,1.33,0,0,1,.28,0A1.11,1.11,0,0,1,618.58,90.62ZM624.06,92v5h-1.69V90.66H624ZM626,90.62l0,1.56-.3,0h-.31a1.89,1.89,0,0,0-.62.09,1.2,1.2,0,0,0-.44.26,1.09,1.09,0,0,0-.25.43,2,2,0,0,0-.1.58l-.34-.11a4.44,4.44,0,0,1,.13-1.13,3.26,3.26,0,0,1,.35-.91,1.88,1.88,0,0,1,.59-.6,1.48,1.48,0,0,1,.79-.21l.29,0Zm.35,3.28v-.13a4,4,0,0,1,.2-1.28,2.82,2.82,0,0,1,.58-1,2.53,2.53,0,0,1,.93-.67,3.08,3.08,0,0,1,1.28-.25,3.13,3.13,0,0,1,1.29.25,2.65,2.65,0,0,1,.94.67,2.82,2.82,0,0,1,.58,1,3.78,3.78,0,0,1,.2,1.28v.13a3.86,3.86,0,0,1-.2,1.28,2.86,2.86,0,0,1-.58,1,2.67,2.67,0,0,1-.94.68,3.21,3.21,0,0,1-1.28.24,3.25,3.25,0,0,1-1.28-.24,2.59,2.59,0,0,1-.94-.68,2.86,2.86,0,0,1-.58-1A4.13,4.13,0,0,1,626.32,93.9Zm1.69-.13v.13a3.51,3.51,0,0,0,.07.74,1.92,1.92,0,0,0,.22.61,1.12,1.12,0,0,0,.41.4,1.32,1.32,0,0,0,1.22,0,1.1,1.1,0,0,0,.4-.4,1.92,1.92,0,0,0,.22-.61,3.5,3.5,0,0,0,.08-.74v-.13a3.4,3.4,0,0,0-.08-.73,1.78,1.78,0,0,0-.22-.6,1.21,1.21,0,0,0-.41-.43,1.32,1.32,0,0,0-1.22,0,1.19,1.19,0,0,0-.4.43,1.78,1.78,0,0,0-.22.6A3.41,3.41,0,0,0,628,93.77ZM635.14,88v9h-1.69V88Zm4.32,9.12a3.47,3.47,0,0,1-1.33-.24,2.88,2.88,0,0,1-1.62-1.64,3.35,3.35,0,0,1-.21-1.19v-.24a4,4,0,0,1,.2-1.32,3.08,3.08,0,0,1,.59-1,2.56,2.56,0,0,1,.94-.68,3,3,0,0,1,1.24-.24,3,3,0,0,1,1.19.23,2.23,2.23,0,0,1,.88.63,3,3,0,0,1,.54,1,4.19,4.19,0,0,1,.18,1.27v.7h-5V93.23h3.38V93.1a1.54,1.54,0,0,0-.13-.63,1,1,0,0,0-.37-.44,1.18,1.18,0,0,0-.65-.17,1.05,1.05,0,0,0-.57.15,1.13,1.13,0,0,0-.4.41,2.36,2.36,0,0,0-.22.62,3.67,3.67,0,0,0-.07.77v.24a2.28,2.28,0,0,0,.11.7,1.53,1.53,0,0,0,.31.56,1.48,1.48,0,0,0,.49.36,1.53,1.53,0,0,0,.66.13,2,2,0,0,0,.85-.18,1.88,1.88,0,0,0,.69-.54l.82.89a2.86,2.86,0,0,1-.55.55,2.65,2.65,0,0,1-.82.43A3.37,3.37,0,0,1,639.46,97.12Z"></path><path class="cls-4" d="M26.3,79.11V80H20.71v-.78l2.8-3.11c.34-.38.61-.71.8-1a3.36,3.36,0,0,0,.4-.72,2.17,2.17,0,0,0,.11-.66,1.7,1.7,0,0,0-.17-.76,1.29,1.29,0,0,0-.51-.55,1.48,1.48,0,0,0-.81-.21,1.88,1.88,0,0,0-.95.23,1.36,1.36,0,0,0-.56.6,2.21,2.21,0,0,0-.19.91H20.55a2.8,2.8,0,0,1,.32-1.32,2.3,2.3,0,0,1,.93-1,3,3,0,0,1,1.53-.36,3.13,3.13,0,0,1,1.39.29,2.07,2.07,0,0,1,.88.8,2.29,2.29,0,0,1,.31,1.19,2.53,2.53,0,0,1-.13.76,3.46,3.46,0,0,1-.35.76,4.52,4.52,0,0,1-.51.75c-.19.25-.4.49-.61.73L22,79.11Zm6.51-4.06v1.3a7.36,7.36,0,0,1-.18,1.77,3.21,3.21,0,0,1-.54,1.16,2,2,0,0,1-.85.64,3,3,0,0,1-1.12.2,2.88,2.88,0,0,1-.9-.13,2.07,2.07,0,0,1-.75-.39,2.41,2.41,0,0,1-.57-.71,4.07,4.07,0,0,1-.35-1.07,7.11,7.11,0,0,1-.13-1.47v-1.3a7.13,7.13,0,0,1,.19-1.75,3,3,0,0,1,.55-1.14,1.89,1.89,0,0,1,.84-.62,3,3,0,0,1,1.11-.19,3.31,3.31,0,0,1,.92.12,2.21,2.21,0,0,1,.75.38,2.17,2.17,0,0,1,.55.7,3.4,3.4,0,0,1,.36,1A7.71,7.71,0,0,1,32.81,75.05Zm-1.08,1.48V74.87a6,6,0,0,0-.08-1,2.93,2.93,0,0,0-.19-.75,1.37,1.37,0,0,0-.33-.5,1.18,1.18,0,0,0-.45-.28,1.7,1.7,0,0,0-.57-.09,1.48,1.48,0,0,0-.68.14,1.37,1.37,0,0,0-.51.45,2.52,2.52,0,0,0-.3.82,6,6,0,0,0-.11,1.22v1.66a7.39,7.39,0,0,0,.07,1,3.08,3.08,0,0,0,.2.77,1.78,1.78,0,0,0,.33.52,1.11,1.11,0,0,0,.45.3,1.47,1.47,0,0,0,.56.1,1.42,1.42,0,0,0,.7-.16,1.25,1.25,0,0,0,.5-.47,2.3,2.3,0,0,0,.3-.84A6.16,6.16,0,0,0,31.73,76.53Zm8.07,2.58V80H34.21v-.78L37,76.11c.34-.38.61-.71.8-1a3.36,3.36,0,0,0,.4-.72,2.17,2.17,0,0,0,.11-.66,1.7,1.7,0,0,0-.17-.76,1.29,1.29,0,0,0-.51-.55,1.48,1.48,0,0,0-.81-.21,1.88,1.88,0,0,0-.95.23,1.36,1.36,0,0,0-.56.6,2.21,2.21,0,0,0-.19.91H34.05a2.8,2.8,0,0,1,.32-1.32,2.3,2.3,0,0,1,.93-1,3,3,0,0,1,1.53-.36,3.13,3.13,0,0,1,1.39.29,2.07,2.07,0,0,1,.88.8,2.29,2.29,0,0,1,.31,1.19,2.53,2.53,0,0,1-.13.76,3.46,3.46,0,0,1-.35.76,4.52,4.52,0,0,1-.51.75c-.19.25-.4.49-.61.73l-2.29,2.48Zm4.72-7.69V80H43.44V72.78l-2.19.79v-1l3.1-1.17Zm7.89,7.46L54,73.66h.71l-.14,1L53,80h-.69Zm-1.1-5.22,1.39,5.27L52.8,80h-.73l-1.84-6.34Zm5,5.23,1.32-5.23h1.08L56.87,80h-.72Zm-1.4-5.23,1.59,5.13L56.69,80H56l-1.7-5.31-.14-1Zm8.65,5.26V75.65a1.36,1.36,0,0,0-.15-.65,1,1,0,0,0-.44-.43,1.65,1.65,0,0,0-.74-.15,1.62,1.62,0,0,0-.72.14,1.13,1.13,0,0,0-.48.37.75.75,0,0,0-.17.49H59.77a1.44,1.44,0,0,1,.18-.68,2,2,0,0,1,.5-.6,2.56,2.56,0,0,1,.8-.43,3.11,3.11,0,0,1,1-.17,2.92,2.92,0,0,1,1.22.24,1.7,1.7,0,0,1,.83.71,2,2,0,0,1,.31,1.17v3a5.43,5.43,0,0,0,0,.67,3.07,3.07,0,0,0,.17.62V80H63.74a2.1,2.1,0,0,1-.13-.5A4.13,4.13,0,0,1,63.56,78.92Zm.19-2.76v.76H62.67a4.15,4.15,0,0,0-.83.07,2,2,0,0,0-.61.22,1,1,0,0,0-.37.37.94.94,0,0,0-.13.51,1.14,1.14,0,0,0,.13.55,1,1,0,0,0,.41.39,1.51,1.51,0,0,0,.67.14,1.79,1.79,0,0,0,1.48-.73,1,1,0,0,0,.25-.59l.46.52a1.7,1.7,0,0,1-.22.55,2.53,2.53,0,0,1-.49.57,2.4,2.4,0,0,1-.71.45,2.27,2.27,0,0,1-.93.18,2.41,2.41,0,0,1-1.13-.26,1.88,1.88,0,0,1-.75-.67,1.81,1.81,0,0,1-.26-1,2,2,0,0,1,.2-.9,1.69,1.69,0,0,1,.57-.65,2.65,2.65,0,0,1,.9-.4,4.85,4.85,0,0,1,1.18-.13ZM70,78.32a.88.88,0,0,0-.1-.43.87.87,0,0,0-.42-.37,3.06,3.06,0,0,0-.93-.3,7,7,0,0,1-1-.26,3,3,0,0,1-.72-.37,1.37,1.37,0,0,1-.45-.51,1.34,1.34,0,0,1-.16-.68,1.57,1.57,0,0,1,.16-.71,2.12,2.12,0,0,1,.48-.6,2.5,2.5,0,0,1,.74-.4,3,3,0,0,1,1-.15,2.87,2.87,0,0,1,1.3.27,2,2,0,0,1,.83.72,1.81,1.81,0,0,1,.28,1H70a.93.93,0,0,0-.16-.51,1.2,1.2,0,0,0-.45-.41,1.42,1.42,0,0,0-.72-.17,1.66,1.66,0,0,0-.73.14,1,1,0,0,0-.41.35.88.88,0,0,0-.12.44.79.79,0,0,0,.06.32.72.72,0,0,0,.22.25,1.88,1.88,0,0,0,.45.22,6.77,6.77,0,0,0,.73.19,5.61,5.61,0,0,1,1.28.43,1.78,1.78,0,0,1,.75.6,1.46,1.46,0,0,1,.25.87A1.64,1.64,0,0,1,71,79a1.75,1.75,0,0,1-.49.6,2.58,2.58,0,0,1-.78.38,3.45,3.45,0,0,1-1,.14,3.07,3.07,0,0,1-1.42-.3,2.24,2.24,0,0,1-.88-.78,1.8,1.8,0,0,1-.3-1h1.09a1.11,1.11,0,0,0,.26.71,1.32,1.32,0,0,0,.58.37,2.24,2.24,0,0,0,.67.11,1.94,1.94,0,0,0,.74-.12,1.12,1.12,0,0,0,.47-.32A.8.8,0,0,0,70,78.32Zm8.12,1.8A3.29,3.29,0,0,1,77,79.9a2.87,2.87,0,0,1-.92-.64,3,3,0,0,1-.59-1,3.69,3.69,0,0,1-.2-1.23v-.24a3.7,3.7,0,0,1,.23-1.38,3,3,0,0,1,.62-1,2.62,2.62,0,0,1,.89-.64,2.45,2.45,0,0,1,1-.22,2.66,2.66,0,0,1,1.17.24,2.18,2.18,0,0,1,.82.65,3,3,0,0,1,.47,1,4.71,4.71,0,0,1,.15,1.23v.49H75.89v-.89h3.65v-.08a2.55,2.55,0,0,0-.17-.82,1.51,1.51,0,0,0-.47-.66,1.4,1.4,0,0,0-.88-.26,1.55,1.55,0,0,0-.68.16,1.45,1.45,0,0,0-.53.46,2.21,2.21,0,0,0-.35.74,3.91,3.91,0,0,0-.12,1v.24a2.91,2.91,0,0,0,.12.85,2.17,2.17,0,0,0,.37.69,1.68,1.68,0,0,0,.59.47,1.74,1.74,0,0,0,.8.17,1.93,1.93,0,0,0,1-.23,2.46,2.46,0,0,0,.7-.63l.65.52a2.59,2.59,0,0,1-.52.59,2.48,2.48,0,0,1-.78.46A2.91,2.91,0,0,1,78.16,80.12Zm4.46-6.46L84,76l1.41-2.31h1.27l-2.07,3.13L86.76,80H85.5L84,77.62,82.57,80H81.31l2.14-3.21-2.07-3.13Zm7.65,5.57a1.71,1.71,0,0,0,.71-.16,1.54,1.54,0,0,0,.54-.43,1.26,1.26,0,0,0,.24-.64h1a2,2,0,0,1-.38,1,2.65,2.65,0,0,1-2.14,1.08A2.84,2.84,0,0,1,89,79.86a2.3,2.3,0,0,1-.88-.69,3,3,0,0,1-.52-1A4.09,4.09,0,0,1,87.45,77v-.24a4,4,0,0,1,.17-1.21,2.94,2.94,0,0,1,.52-1,2.42,2.42,0,0,1,.88-.7,3,3,0,0,1,1.25-.25,2.71,2.71,0,0,1,1.3.31,2.22,2.22,0,0,1,.87.82,2.4,2.4,0,0,1,.35,1.17h-1a1.56,1.56,0,0,0-.22-.71,1.39,1.39,0,0,0-.52-.5,1.42,1.42,0,0,0-.75-.2,1.63,1.63,0,0,0-.84.2,1.5,1.5,0,0,0-.53.53,2.48,2.48,0,0,0-.29.73,4.47,4.47,0,0,0-.08.82V77a4.47,4.47,0,0,0,.08.82,2.52,2.52,0,0,0,.28.74,1.55,1.55,0,0,0,.53.52A1.7,1.7,0,0,0,90.27,79.23Zm4.92-5.57V80H94.1V73.66ZM94,72a.68.68,0,0,1,.15-.45.73.73,0,0,1,1,0,.64.64,0,0,1,.17.45.67.67,0,0,1-1.13.43A.64.64,0,0,1,94,72Zm5.56,1.68v.83H96.15v-.83Zm-2.27-1.54H98.4v6.31a.92.92,0,0,0,.1.49.41.41,0,0,0,.26.21.93.93,0,0,0,.34.06l.28,0,.23,0V80l-.34.08a3.26,3.26,0,0,1-.5,0A1.77,1.77,0,0,1,98,80a1.18,1.18,0,0,1-.53-.53,2.18,2.18,0,0,1-.2-1ZM102,73.66V80h-1.09V73.66ZM100.86,72a.64.64,0,0,1,.16-.45.62.62,0,0,1,.48-.18.61.61,0,0,1,.47.18.6.6,0,0,1,.17.45.57.57,0,0,1-.17.43.61.61,0,0,1-.47.18.62.62,0,0,1-.48-.18A.6.6,0,0,1,100.86,72Zm4,3v5h-1.09V73.66h1Zm-.26,1.58-.45,0a3.59,3.59,0,0,1,.19-1.2,2.94,2.94,0,0,1,.53-1,2.28,2.28,0,0,1,.81-.63,2.38,2.38,0,0,1,1-.23,2.74,2.74,0,0,1,.84.13,1.58,1.58,0,0,1,.64.4,1.82,1.82,0,0,1,.41.71,3.65,3.65,0,0,1,.14,1.07V80h-1.09V75.83a1.76,1.76,0,0,0-.15-.79.88.88,0,0,0-.43-.44,1.41,1.41,0,0,0-.69-.14,1.55,1.55,0,0,0-.74.17,1.78,1.78,0,0,0-.56.47,2.12,2.12,0,0,0-.37.68A2.37,2.37,0,0,0,104.6,76.59Zm9.91-2.93h1v6.2a2.88,2.88,0,0,1-.34,1.43,2.23,2.23,0,0,1-1,.9,3,3,0,0,1-1.4.31,3.39,3.39,0,0,1-.77-.1,3.17,3.17,0,0,1-.87-.35,2.2,2.2,0,0,1-.71-.65l.57-.64a2.24,2.24,0,0,0,.83.66,2.17,2.17,0,0,0,.87.19,1.91,1.91,0,0,0,.89-.19,1.35,1.35,0,0,0,.58-.58,1.87,1.87,0,0,0,.21-.92V75.05Zm-4.36,3.24v-.12a4.49,4.49,0,0,1,.17-1.32,3.17,3.17,0,0,1,.49-1,2.28,2.28,0,0,1,.8-.65,2.19,2.19,0,0,1,1-.24,2.41,2.41,0,0,1,1,.21,2,2,0,0,1,.76.61,3,3,0,0,1,.5,1,5.62,5.62,0,0,1,.25,1.26v.53a5.11,5.11,0,0,1-.25,1.26,3,3,0,0,1-.5,1,2,2,0,0,1-.76.6,2.46,2.46,0,0,1-1,.21,2.17,2.17,0,0,1-1-.24,2.33,2.33,0,0,1-.79-.68,3,3,0,0,1-.5-1A4.36,4.36,0,0,1,110.15,76.9Zm1.08-.12v.12a4.19,4.19,0,0,0,.09.89,2.54,2.54,0,0,0,.3.73,1.43,1.43,0,0,0,1.28.68,1.61,1.61,0,0,0,.89-.23,1.73,1.73,0,0,0,.56-.61,3.62,3.62,0,0,0,.33-.81V76.14a3.21,3.21,0,0,0-.2-.62,2,2,0,0,0-.34-.54,1.48,1.48,0,0,0-.51-.38,1.62,1.62,0,0,0-.72-.14,1.46,1.46,0,0,0-1.29.69,2.49,2.49,0,0,0-.3.74A4.13,4.13,0,0,0,111.23,76.78ZM121.74,80h-1.09V73a2.36,2.36,0,0,1,.25-1.15,1.67,1.67,0,0,1,.72-.72,2.39,2.39,0,0,1,1.11-.24l.38,0,.37.07-.06.88-.28,0h-.3a1.27,1.27,0,0,0-.6.14,1,1,0,0,0-.38.4,1.57,1.57,0,0,0-.12.65Zm1.34-6.34v.83h-3.43v-.83ZM124,76.9v-.13a4.09,4.09,0,0,1,.2-1.28,3.19,3.19,0,0,1,.58-1,2.56,2.56,0,0,1,.91-.68,3,3,0,0,1,2.39,0,2.6,2.6,0,0,1,.92.68,3.19,3.19,0,0,1,.58,1,4.09,4.09,0,0,1,.19,1.28v.13a4,4,0,0,1-.19,1.27,3.35,3.35,0,0,1-.58,1,2.79,2.79,0,0,1-.91.68,2.86,2.86,0,0,1-1.2.24,2.92,2.92,0,0,1-1.2-.24,2.79,2.79,0,0,1-.91-.68,3.35,3.35,0,0,1-.58-1A4,4,0,0,1,124,76.9Zm1.09-.13v.13a3.27,3.27,0,0,0,.11.9,2.43,2.43,0,0,0,.33.73,1.72,1.72,0,0,0,.57.51,1.57,1.57,0,0,0,.79.19,1.5,1.5,0,0,0,.78-.19,1.45,1.45,0,0,0,.56-.51,2.45,2.45,0,0,0,.34-.73,3.26,3.26,0,0,0,.12-.9v-.13a3.19,3.19,0,0,0-.12-.89,2.4,2.4,0,0,0-.34-.74,1.74,1.74,0,0,0-.56-.52,1.68,1.68,0,0,0-.79-.19,1.61,1.61,0,0,0-.78.19,1.77,1.77,0,0,0-.57.52,2.38,2.38,0,0,0-.33.74A3.19,3.19,0,0,0,125.09,76.77Zm7.13-2.11V80h-1.08V73.66h1.05Zm2-1v1l-.25,0h-.27a1.78,1.78,0,0,0-.67.11,1.37,1.37,0,0,0-.48.33,1.71,1.71,0,0,0-.32.5,3.15,3.15,0,0,0-.15.64l-.3.17a5.17,5.17,0,0,1,.11-1.07,2.86,2.86,0,0,1,.36-.89,1.62,1.62,0,0,1,.61-.61,1.71,1.71,0,0,1,.89-.23l.27,0A1.07,1.07,0,0,1,134.2,73.62Zm6.63,0v.83H137.4v-.83Zm-2.27-1.54h1.09v6.31a.92.92,0,0,0,.1.49.41.41,0,0,0,.26.21.93.93,0,0,0,.34.06l.28,0,.23,0V80l-.34.08a3.26,3.26,0,0,1-.5,0,1.77,1.77,0,0,1-.73-.16,1.18,1.18,0,0,1-.53-.53,2.18,2.18,0,0,1-.2-1ZM143.19,71v9H142.1V71Zm-.26,5.59-.45,0a3.87,3.87,0,0,1,.19-1.2,3.13,3.13,0,0,1,.53-1,2.47,2.47,0,0,1,.81-.63,2.38,2.38,0,0,1,1.05-.23,2.74,2.74,0,0,1,.84.13,1.58,1.58,0,0,1,.64.4,1.71,1.71,0,0,1,.41.71,3.65,3.65,0,0,1,.14,1.07V80H146V75.83a1.76,1.76,0,0,0-.15-.79.86.86,0,0,0-.42-.44,1.73,1.73,0,0,0-1.43,0,1.71,1.71,0,0,0-.57.47,2.12,2.12,0,0,0-.37.68A2.37,2.37,0,0,0,142.93,76.59Zm8.41,3.53a3.29,3.29,0,0,1-1.2-.22,3,3,0,0,1-.92-.64,2.83,2.83,0,0,1-.58-1,3.45,3.45,0,0,1-.21-1.23v-.24a3.91,3.91,0,0,1,.23-1.38,3,3,0,0,1,.62-1,2.62,2.62,0,0,1,.89-.64,2.48,2.48,0,0,1,1-.22,2.67,2.67,0,0,1,1.18.24,2.07,2.07,0,0,1,.81.65,2.84,2.84,0,0,1,.47,1,4.71,4.71,0,0,1,.15,1.23v.49h-4.73v-.89h3.65v-.08a2.87,2.87,0,0,0-.18-.82,1.43,1.43,0,0,0-.47-.66,1.38,1.38,0,0,0-.88-.26,1.58,1.58,0,0,0-.68.16,1.53,1.53,0,0,0-.53.46,2.42,2.42,0,0,0-.35.74,3.91,3.91,0,0,0-.12,1v.24a2.91,2.91,0,0,0,.12.85,2.17,2.17,0,0,0,.37.69,1.82,1.82,0,0,0,.6.47,1.7,1.7,0,0,0,.79.17,2,2,0,0,0,1-.23,2.57,2.57,0,0,0,.69-.63l.66.52a2.86,2.86,0,0,1-.52.59,2.48,2.48,0,0,1-.78.46A3,3,0,0,1,151.34,80.12Zm10.4-1.8a.88.88,0,0,0-.1-.43.87.87,0,0,0-.42-.37,3.06,3.06,0,0,0-.93-.3,6.6,6.6,0,0,1-1-.26,3,3,0,0,1-.72-.37,1.37,1.37,0,0,1-.45-.51,1.34,1.34,0,0,1-.16-.68,1.57,1.57,0,0,1,.16-.71,2.12,2.12,0,0,1,.48-.6,2.38,2.38,0,0,1,.74-.4,3,3,0,0,1,1-.15,2.87,2.87,0,0,1,1.3.27,2,2,0,0,1,.83.72,1.81,1.81,0,0,1,.28,1h-1.08a.93.93,0,0,0-.16-.51,1.2,1.2,0,0,0-.45-.41,1.42,1.42,0,0,0-.72-.17,1.66,1.66,0,0,0-.73.14,1,1,0,0,0-.41.35.88.88,0,0,0-.12.44.79.79,0,0,0,.06.32.72.72,0,0,0,.22.25,1.71,1.71,0,0,0,.45.22,6.77,6.77,0,0,0,.73.19,5.61,5.61,0,0,1,1.28.43,1.78,1.78,0,0,1,.75.6,1.46,1.46,0,0,1,.25.87,1.64,1.64,0,0,1-.18.76,1.68,1.68,0,0,1-.5.6,2.41,2.41,0,0,1-.77.38,3.45,3.45,0,0,1-1,.14,3.07,3.07,0,0,1-1.42-.3,2.17,2.17,0,0,1-.88-.78,1.8,1.8,0,0,1-.3-1h1.09a1.17,1.17,0,0,0,.26.71,1.34,1.34,0,0,0,.57.37,2.35,2.35,0,0,0,.68.11,2,2,0,0,0,.74-.12,1.12,1.12,0,0,0,.47-.32A.8.8,0,0,0,161.74,78.32Zm6.25.6V75.65a1.36,1.36,0,0,0-.15-.65,1,1,0,0,0-.45-.43,1.62,1.62,0,0,0-.74-.15,1.65,1.65,0,0,0-.72.14,1.19,1.19,0,0,0-.48.37.81.81,0,0,0-.17.49H164.2a1.44,1.44,0,0,1,.18-.68,1.86,1.86,0,0,1,.5-.6,2.45,2.45,0,0,1,.8-.43,3.11,3.11,0,0,1,1-.17,2.92,2.92,0,0,1,1.22.24,1.8,1.8,0,0,1,.83.71,2.12,2.12,0,0,1,.3,1.17v3a4.06,4.06,0,0,0,.06.67,2.53,2.53,0,0,0,.17.62V80h-1.13a1.71,1.71,0,0,1-.13-.5A4.13,4.13,0,0,1,168,78.92Zm.19-2.76v.76h-1.1a4.11,4.11,0,0,0-.82.07,1.81,1.81,0,0,0-.61.22,1,1,0,0,0-.51.88,1.15,1.15,0,0,0,.14.55,1,1,0,0,0,.4.39,1.55,1.55,0,0,0,.68.14,1.82,1.82,0,0,0,.88-.21,1.8,1.8,0,0,0,.6-.52,1.2,1.2,0,0,0,.25-.59l.46.52a1.7,1.7,0,0,1-.22.55,3.17,3.17,0,0,1-.49.57,2.69,2.69,0,0,1-.71.45,2.34,2.34,0,0,1-.93.18,2.39,2.39,0,0,1-1.13-.26,1.88,1.88,0,0,1-.75-.67,1.73,1.73,0,0,1-.27-1,2,2,0,0,1,.2-.9,1.81,1.81,0,0,1,.58-.65,2.65,2.65,0,0,1,.9-.4,4.74,4.74,0,0,1,1.18-.13ZM171.86,75v5h-1.08V73.66h1Zm-.25,1.58-.46,0a3.87,3.87,0,0,1,.2-1.2,2.94,2.94,0,0,1,.53-1,2.33,2.33,0,0,1,.8-.63,2.45,2.45,0,0,1,1-.23,2.76,2.76,0,0,1,.85.13,1.48,1.48,0,0,1,.63.4,1.71,1.71,0,0,1,.41.71,3.32,3.32,0,0,1,.15,1.07V80h-1.09V75.83a1.76,1.76,0,0,0-.15-.79.88.88,0,0,0-.43-.44,1.47,1.47,0,0,0-.69-.14,1.52,1.52,0,0,0-.74.17,1.71,1.71,0,0,0-.57.47,2.33,2.33,0,0,0-.37.68A2.64,2.64,0,0,0,171.61,76.59Zm7-2.93V80H177.5V73.66ZM177.42,72a.64.64,0,0,1,.16-.45.62.62,0,0,1,.48-.18.61.61,0,0,1,.47.18.64.64,0,0,1,.17.45.67.67,0,0,1-1.12.43A.6.6,0,0,1,177.42,72ZM183,73.66v.83h-3.42v-.83Zm-2.26-1.54h1.08v6.31a.92.92,0,0,0,.1.49.44.44,0,0,0,.26.21.93.93,0,0,0,.34.06l.28,0,.23,0V80a2.92,2.92,0,0,1-.34.08,3.23,3.23,0,0,1-.49,0,1.82,1.82,0,0,1-.74-.16,1.18,1.18,0,0,1-.53-.53,2.19,2.19,0,0,1-.19-1Zm7.27,6.8V75.65a1.36,1.36,0,0,0-.15-.65,1,1,0,0,0-.44-.43,1.65,1.65,0,0,0-.74-.15,1.62,1.62,0,0,0-.72.14,1.07,1.07,0,0,0-.48.37.75.75,0,0,0-.17.49H184.2a1.44,1.44,0,0,1,.18-.68,2,2,0,0,1,.5-.6,2.56,2.56,0,0,1,.8-.43,3.11,3.11,0,0,1,1-.17,2.92,2.92,0,0,1,1.22.24,1.75,1.75,0,0,1,.83.71,2,2,0,0,1,.31,1.17v3a5.43,5.43,0,0,0,0,.67,3.07,3.07,0,0,0,.17.62V80h-1.13a1.71,1.71,0,0,1-.13-.5A4.13,4.13,0,0,1,188,78.92Zm.19-2.76v.76H187.1a4.15,4.15,0,0,0-.83.07,2,2,0,0,0-.61.22,1,1,0,0,0-.37.37.94.94,0,0,0-.13.51,1.14,1.14,0,0,0,.13.55,1,1,0,0,0,.41.39,1.51,1.51,0,0,0,.67.14,1.79,1.79,0,0,0,1.48-.73,1,1,0,0,0,.25-.59l.46.52a1.5,1.5,0,0,1-.22.55,2.7,2.7,0,0,1-1.2,1,2.3,2.3,0,0,1-.93.18,2.41,2.41,0,0,1-1.13-.26,1.88,1.88,0,0,1-.75-.67,1.81,1.81,0,0,1-.26-1,2,2,0,0,1,.2-.9,1.69,1.69,0,0,1,.57-.65,2.65,2.65,0,0,1,.9-.4,4.85,4.85,0,0,1,1.18-.13Zm5.26-2.5v.83H190v-.83Zm-2.27-1.54h1.08v6.31a1,1,0,0,0,.1.49.47.47,0,0,0,.26.21,1,1,0,0,0,.34.06,1.33,1.33,0,0,0,.28,0l.23,0V80l-.34.08a3.49,3.49,0,0,1-.5,0,1.74,1.74,0,0,1-.73-.16,1.2,1.2,0,0,1-.54-.53,2.19,2.19,0,0,1-.19-1Zm4.72,1.54V80H194.8V73.66ZM194.71,72a.69.69,0,0,1,.16-.45.73.73,0,0,1,1,0A.64.64,0,0,1,196,72a.67.67,0,0,1-1.13.43A.65.65,0,0,1,194.71,72Zm2.63,4.92v-.13a4.09,4.09,0,0,1,.2-1.28,3,3,0,0,1,.57-1,2.65,2.65,0,0,1,.91-.68,2.74,2.74,0,0,1,1.2-.25,2.77,2.77,0,0,1,1.2.25,2.56,2.56,0,0,1,.91.68,2.86,2.86,0,0,1,.58,1,3.82,3.82,0,0,1,.2,1.28v.13a3.72,3.72,0,0,1-.2,1.27,3,3,0,0,1-.58,1,2.69,2.69,0,0,1-.91.68,2.84,2.84,0,0,1-3.31-.68,3.14,3.14,0,0,1-.57-1A4,4,0,0,1,197.34,76.9Zm1.08-.13v.13a3.26,3.26,0,0,0,.12.9,2.21,2.21,0,0,0,.33.73,1.61,1.61,0,0,0,1.36.7A1.53,1.53,0,0,0,201,79a1.6,1.6,0,0,0,.56-.51,2.21,2.21,0,0,0,.33-.73,3.26,3.26,0,0,0,.12-.9v-.13a3.19,3.19,0,0,0-.12-.89,2,2,0,0,0-.34-.74,1.55,1.55,0,0,0-.56-.52,1.61,1.61,0,0,0-.78-.19,1.68,1.68,0,0,0-.79.19,1.74,1.74,0,0,0-.56.52,2.17,2.17,0,0,0-.33.74A3.19,3.19,0,0,0,198.42,76.77ZM205.55,75v5h-1.08V73.66h1Zm-.25,1.58-.45,0a3.59,3.59,0,0,1,.19-1.2,2.94,2.94,0,0,1,.53-1,2.28,2.28,0,0,1,.81-.63,2.37,2.37,0,0,1,1-.23,2.76,2.76,0,0,1,.85.13,1.58,1.58,0,0,1,.64.4,1.82,1.82,0,0,1,.41.71,3.65,3.65,0,0,1,.14,1.07V80h-1.09V75.83a1.76,1.76,0,0,0-.15-.79.88.88,0,0,0-.43-.44,1.41,1.41,0,0,0-.69-.14,1.55,1.55,0,0,0-.74.17,1.59,1.59,0,0,0-.56.47,2.12,2.12,0,0,0-.37.68A2.37,2.37,0,0,0,205.3,76.59Zm9.86-1.67V80h-1.09V73.66h1Zm-.22,1.67-.51,0a4.57,4.57,0,0,1,.17-1.2,2.86,2.86,0,0,1,.49-1,2.16,2.16,0,0,1,.8-.63,2.59,2.59,0,0,1,1.11-.23,2.66,2.66,0,0,1,.82.13,1.83,1.83,0,0,1,.66.39,1.79,1.79,0,0,1,.42.7,3,3,0,0,1,.15,1V80H218V75.83a1.67,1.67,0,0,0-.17-.8.94.94,0,0,0-.47-.43,1.58,1.58,0,0,0-.71-.14,1.67,1.67,0,0,0-.81.17,1.35,1.35,0,0,0-.51.47,2,2,0,0,0-.28.68A3.48,3.48,0,0,0,214.94,76.59ZM219,76l-.72.23a3.1,3.1,0,0,1,.17-1,2.64,2.64,0,0,1,.48-.85,2.31,2.31,0,0,1,.79-.59,2.48,2.48,0,0,1,1.08-.23,2.74,2.74,0,0,1,.9.14,1.63,1.63,0,0,1,1.08,1.12,3.21,3.21,0,0,1,.14,1V80h-1.09V75.82a1.57,1.57,0,0,0-.17-.82.88.88,0,0,0-.47-.42,1.85,1.85,0,0,0-.71-.12,1.54,1.54,0,0,0-.63.12,1.35,1.35,0,0,0-.47.34,1.39,1.39,0,0,0-.28.49A1.57,1.57,0,0,0,219,76Zm6.74-2.33V80h-1.09V73.66ZM224.61,72a.64.64,0,0,1,.16-.45.62.62,0,0,1,.48-.18.61.61,0,0,1,.47.18.6.6,0,0,1,.17.45.57.57,0,0,1-.17.43.61.61,0,0,1-.47.18.62.62,0,0,1-.48-.18A.6.6,0,0,1,224.61,72Zm6.6,6.34a.88.88,0,0,0-.1-.43.87.87,0,0,0-.42-.37,3.14,3.14,0,0,0-.94-.3,6.81,6.81,0,0,1-.95-.26,3,3,0,0,1-.72-.37,1.37,1.37,0,0,1-.45-.51,1.34,1.34,0,0,1-.16-.68,1.57,1.57,0,0,1,.16-.71,2,2,0,0,1,.48-.6,2.28,2.28,0,0,1,.74-.4,3,3,0,0,1,1-.15,2.87,2.87,0,0,1,1.3.27,2.09,2.09,0,0,1,.83.72,1.81,1.81,0,0,1,.28,1h-1.08A.93.93,0,0,0,231,75a1.2,1.2,0,0,0-.45-.41,1.47,1.47,0,0,0-.72-.17,1.66,1.66,0,0,0-.73.14,1,1,0,0,0-.41.35.88.88,0,0,0-.12.44.79.79,0,0,0,.06.32.63.63,0,0,0,.22.25,1.71,1.71,0,0,0,.45.22,6.77,6.77,0,0,0,.73.19,5.78,5.78,0,0,1,1.28.43,1.78,1.78,0,0,1,.75.6,1.54,1.54,0,0,1,.25.87,1.64,1.64,0,0,1-.18.76,1.68,1.68,0,0,1-.5.6,2.41,2.41,0,0,1-.77.38,3.45,3.45,0,0,1-1,.14,3.07,3.07,0,0,1-1.42-.3,2.17,2.17,0,0,1-.88-.78,1.8,1.8,0,0,1-.3-1h1.09a1.11,1.11,0,0,0,.26.71,1.34,1.34,0,0,0,.57.37,2.3,2.3,0,0,0,.68.11,2,2,0,0,0,.74-.12,1,1,0,0,0,.46-.32A.74.74,0,0,0,231.21,78.32Zm6.2,0a.88.88,0,0,0-.1-.43.87.87,0,0,0-.42-.37,3.14,3.14,0,0,0-.94-.3A6.81,6.81,0,0,1,235,77a3,3,0,0,1-.72-.37,1.37,1.37,0,0,1-.45-.51,1.34,1.34,0,0,1-.16-.68,1.57,1.57,0,0,1,.16-.71,2,2,0,0,1,.48-.6,2.28,2.28,0,0,1,.74-.4,3,3,0,0,1,1-.15,2.9,2.9,0,0,1,1.3.27,2,2,0,0,1,.82.72,1.74,1.74,0,0,1,.29,1h-1.08a.93.93,0,0,0-.16-.51,1.2,1.2,0,0,0-.45-.41,1.47,1.47,0,0,0-.72-.17,1.66,1.66,0,0,0-.73.14,1,1,0,0,0-.41.35.88.88,0,0,0-.12.44.79.79,0,0,0,.06.32.63.63,0,0,0,.22.25,1.63,1.63,0,0,0,.44.22c.2.06.44.13.74.19a5.78,5.78,0,0,1,1.28.43,1.78,1.78,0,0,1,.75.6,1.54,1.54,0,0,1,.25.87,1.64,1.64,0,0,1-.18.76,1.68,1.68,0,0,1-.5.6,2.41,2.41,0,0,1-.77.38,3.45,3.45,0,0,1-1,.14,3.07,3.07,0,0,1-1.42-.3,2.17,2.17,0,0,1-.88-.78,1.8,1.8,0,0,1-.3-1h1.09a1.11,1.11,0,0,0,.26.71,1.28,1.28,0,0,0,.57.37,2.3,2.3,0,0,0,.68.11,2,2,0,0,0,.74-.12,1.08,1.08,0,0,0,.46-.32A.74.74,0,0,0,237.41,78.32Zm3.69-4.66V80H240V73.66ZM239.93,72a.68.68,0,0,1,.15-.45.73.73,0,0,1,1,0,.64.64,0,0,1,.17.45.67.67,0,0,1-1.13.43A.64.64,0,0,1,239.93,72Zm2.62,4.92v-.13a4.09,4.09,0,0,1,.2-1.28,3,3,0,0,1,.57-1,2.65,2.65,0,0,1,.91-.68,3,3,0,0,1,2.4,0,2.56,2.56,0,0,1,.91.68,2.86,2.86,0,0,1,.58,1,3.82,3.82,0,0,1,.2,1.28v.13a3.72,3.72,0,0,1-.2,1.27,3,3,0,0,1-.58,1,2.75,2.75,0,0,1-.9.68,2.89,2.89,0,0,1-1.2.24,2.86,2.86,0,0,1-1.2-.24,2.83,2.83,0,0,1-.92-.68,3.14,3.14,0,0,1-.57-1A4,4,0,0,1,242.55,76.9Zm1.09-.13v.13a3.27,3.27,0,0,0,.11.9,2.21,2.21,0,0,0,.33.73,1.55,1.55,0,0,0,.57.51,1.57,1.57,0,0,0,.79.19,1.5,1.5,0,0,0,.78-.19,1.52,1.52,0,0,0,.56-.51,2.21,2.21,0,0,0,.33-.73,3.26,3.26,0,0,0,.12-.9v-.13a3.19,3.19,0,0,0-.12-.89,2,2,0,0,0-.34-.74,1.55,1.55,0,0,0-.56-.52,1.61,1.61,0,0,0-.78-.19,1.68,1.68,0,0,0-.79.19,1.74,1.74,0,0,0-.56.52,2.17,2.17,0,0,0-.33.74A3.19,3.19,0,0,0,243.64,76.77ZM250.77,75v5h-1.09V73.66h1Zm-.26,1.58-.45,0a3.59,3.59,0,0,1,.19-1.2,3.13,3.13,0,0,1,.53-1,2.28,2.28,0,0,1,.81-.63,2.38,2.38,0,0,1,1-.23,2.74,2.74,0,0,1,.84.13,1.58,1.58,0,0,1,.64.4,1.82,1.82,0,0,1,.41.71,3.65,3.65,0,0,1,.14,1.07V80h-1.09V75.83a1.76,1.76,0,0,0-.15-.79.88.88,0,0,0-.43-.44,1.41,1.41,0,0,0-.69-.14,1.55,1.55,0,0,0-.74.17,1.78,1.78,0,0,0-.56.47,2.12,2.12,0,0,0-.37.68A2.37,2.37,0,0,0,250.51,76.59Zm10.39,2.29,1.62-5.22h.72l-.14,1L261.44,80h-.7Zm-1.1-5.22,1.39,5.27.1,1.07h-.73l-1.84-6.34Zm5,5.23,1.32-5.23h1.08L265.36,80h-.72Zm-1.4-5.23L265,78.79l.18,1.21h-.69l-1.7-5.31-.14-1Zm6-2.66v9h-1.09V71Zm-.26,5.59-.45,0a3.87,3.87,0,0,1,.19-1.2,3.13,3.13,0,0,1,.53-1,2.38,2.38,0,0,1,1.86-.86,2.74,2.74,0,0,1,.84.13,1.58,1.58,0,0,1,.64.4,1.71,1.71,0,0,1,.41.71,3.65,3.65,0,0,1,.14,1.07V80h-1.09V75.83a1.76,1.76,0,0,0-.15-.79.86.86,0,0,0-.42-.44,1.47,1.47,0,0,0-.69-.14,1.52,1.52,0,0,0-.74.17,1.71,1.71,0,0,0-.57.47,2.12,2.12,0,0,0-.37.68A2.37,2.37,0,0,0,269.14,76.59Zm8.41,3.53a3.29,3.29,0,0,1-1.2-.22,3,3,0,0,1-.92-.64,2.83,2.83,0,0,1-.58-1,3.45,3.45,0,0,1-.21-1.23v-.24a3.91,3.91,0,0,1,.23-1.38,3,3,0,0,1,.62-1,2.62,2.62,0,0,1,.89-.64,2.48,2.48,0,0,1,1-.22,2.67,2.67,0,0,1,1.18.24,2.07,2.07,0,0,1,.81.65,2.84,2.84,0,0,1,.47,1,4.71,4.71,0,0,1,.15,1.23v.49h-4.73v-.89h3.65v-.08a2.87,2.87,0,0,0-.18-.82,1.43,1.43,0,0,0-.47-.66,1.36,1.36,0,0,0-.88-.26,1.58,1.58,0,0,0-.68.16,1.53,1.53,0,0,0-.53.46,2.2,2.2,0,0,0-.34.74,3.51,3.51,0,0,0-.13,1v.24a2.61,2.61,0,0,0,.13.85,1.84,1.84,0,0,0,.37.69,1.71,1.71,0,0,0,1.38.64,2,2,0,0,0,1-.23,2.57,2.57,0,0,0,.69-.63l.66.52a2.86,2.86,0,0,1-.52.59,2.48,2.48,0,0,1-.78.46A3,3,0,0,1,277.55,80.12Zm4.82-5.46V80h-1.08V73.66h1Zm2-1v1l-.26,0h-.27a1.69,1.69,0,0,0-.66.11,1.32,1.32,0,0,0-.49.33,1.71,1.71,0,0,0-.32.5,2.6,2.6,0,0,0-.14.64l-.31.17a5.17,5.17,0,0,1,.11-1.07,2.86,2.86,0,0,1,.36-.89,1.62,1.62,0,0,1,.61-.61,1.71,1.71,0,0,1,.89-.23l.27,0A1.07,1.07,0,0,1,284.35,73.62Zm3.52,6.5a3.25,3.25,0,0,1-1.2-.22,2.76,2.76,0,0,1-.92-.64,2.85,2.85,0,0,1-.59-1,3.45,3.45,0,0,1-.21-1.23v-.24a3.91,3.91,0,0,1,.23-1.38,3.18,3.18,0,0,1,.62-1,2.66,2.66,0,0,1,.9-.64,2.45,2.45,0,0,1,1-.22,2.66,2.66,0,0,1,1.17.24,2.07,2.07,0,0,1,.81.65,2.84,2.84,0,0,1,.47,1,4.71,4.71,0,0,1,.15,1.23v.49H285.6v-.89h3.65v-.08a2.57,2.57,0,0,0-.18-.82,1.42,1.42,0,0,0-.46-.66,1.4,1.4,0,0,0-.88-.26,1.51,1.51,0,0,0-.68.16,1.48,1.48,0,0,0-.54.46,2.2,2.2,0,0,0-.34.74,3.91,3.91,0,0,0-.12,1v.24a2.91,2.91,0,0,0,.12.85,2,2,0,0,0,.37.69,1.68,1.68,0,0,0,.59.47,1.71,1.71,0,0,0,.8.17,2,2,0,0,0,1-.23,2.6,2.6,0,0,0,.7-.63l.65.52a2.86,2.86,0,0,1-.52.59,2.48,2.48,0,0,1-.78.46A2.91,2.91,0,0,1,287.87,80.12Zm10.44-1.2V75.65a1.36,1.36,0,0,0-.15-.65,1,1,0,0,0-.44-.43,1.65,1.65,0,0,0-.74-.15,1.6,1.6,0,0,0-.72.14,1.07,1.07,0,0,0-.48.37.75.75,0,0,0-.17.49h-1.09a1.44,1.44,0,0,1,.18-.68,2,2,0,0,1,.5-.6,2.56,2.56,0,0,1,.8-.43,3.11,3.11,0,0,1,1-.17,2.92,2.92,0,0,1,1.22.24,1.75,1.75,0,0,1,.83.71,2,2,0,0,1,.31,1.17v3a5.43,5.43,0,0,0,.05.67,3.07,3.07,0,0,0,.17.62V80h-1.13a2.1,2.1,0,0,1-.13-.5A4.13,4.13,0,0,1,298.31,78.92Zm.19-2.76v.76h-1.09a4.15,4.15,0,0,0-.83.07,2,2,0,0,0-.61.22,1,1,0,0,0-.37.37.94.94,0,0,0-.13.51,1.14,1.14,0,0,0,.13.55A1,1,0,0,0,296,79a1.51,1.51,0,0,0,.67.14,1.79,1.79,0,0,0,1.48-.73,1,1,0,0,0,.25-.59l.46.52a1.5,1.5,0,0,1-.22.55,2.53,2.53,0,0,1-.49.57,2.4,2.4,0,0,1-.71.45,2.27,2.27,0,0,1-.93.18,2.41,2.41,0,0,1-1.13-.26,1.88,1.88,0,0,1-.75-.67,1.81,1.81,0,0,1-.26-1,1.87,1.87,0,0,1,.2-.9,1.69,1.69,0,0,1,.57-.65,2.65,2.65,0,0,1,.9-.4,4.85,4.85,0,0,1,1.18-.13ZM304.07,71h1.09v7.77L305.07,80h-1Zm5.38,5.78v.12a4.72,4.72,0,0,1-.17,1.28,3.21,3.21,0,0,1-.48,1,2.27,2.27,0,0,1-.77.68,2.2,2.2,0,0,1-1,.24,2.54,2.54,0,0,1-1.06-.21,2,2,0,0,1-.76-.6,3.17,3.17,0,0,1-.5-1,5.62,5.62,0,0,1-.25-1.26v-.53a5.62,5.62,0,0,1,.25-1.26,3.17,3.17,0,0,1,.5-1,2,2,0,0,1,.76-.61,2.46,2.46,0,0,1,1.05-.21,2.27,2.27,0,0,1,1.06.24,2,2,0,0,1,.77.65,3.16,3.16,0,0,1,.48,1A4.86,4.86,0,0,1,309.45,76.78Zm-1.09.12v-.12a4.13,4.13,0,0,0-.09-.89,2.24,2.24,0,0,0-.28-.74,1.36,1.36,0,0,0-.51-.5,1.46,1.46,0,0,0-.78-.19,1.65,1.65,0,0,0-.72.14,1.45,1.45,0,0,0-.5.38,1.79,1.79,0,0,0-.35.54,2.62,2.62,0,0,0-.19.62v1.41a2.92,2.92,0,0,0,.3.79,2,2,0,0,0,.57.62,1.63,1.63,0,0,0,.9.24,1.49,1.49,0,0,0,.75-.18,1.44,1.44,0,0,0,.51-.5,2.28,2.28,0,0,0,.29-.73A3.62,3.62,0,0,0,308.36,76.9Zm6.34,1.63V73.66h1.09V80h-1Zm.2-1.33h.45a4.82,4.82,0,0,1-.13,1.17,2.59,2.59,0,0,1-.42.92,2,2,0,0,1-.77.62,2.84,2.84,0,0,1-1.15.22A2.63,2.63,0,0,1,312,80a1.76,1.76,0,0,1-.65-.41,1.9,1.9,0,0,1-.43-.74,3.45,3.45,0,0,1-.14-1.08V73.66h1.08v4.1a2.36,2.36,0,0,0,.09.71,1.27,1.27,0,0,0,.27.44.89.89,0,0,0,.37.22,1.31,1.31,0,0,0,.44.07,1.93,1.93,0,0,0,1.09-.27,1.52,1.52,0,0,0,.58-.72A2.71,2.71,0,0,0,314.9,77.2ZM318.52,75v5h-1.08V73.66h1Zm-.25,1.58-.46,0a3.87,3.87,0,0,1,.2-1.2,2.94,2.94,0,0,1,.53-1,2.33,2.33,0,0,1,.8-.63,2.45,2.45,0,0,1,1.05-.23,2.81,2.81,0,0,1,.85.13,1.58,1.58,0,0,1,.64.4,2,2,0,0,1,.41.71,3.65,3.65,0,0,1,.14,1.07V80h-1.09V75.83a1.76,1.76,0,0,0-.15-.79.88.88,0,0,0-.43-.44,1.47,1.47,0,0,0-.69-.14,1.52,1.52,0,0,0-.74.17,1.71,1.71,0,0,0-.57.47,2.33,2.33,0,0,0-.37.68A2.64,2.64,0,0,0,318.27,76.59Zm8.34,2.64a1.65,1.65,0,0,0,.71-.16,1.54,1.54,0,0,0,.54-.43,1.26,1.26,0,0,0,.24-.64h1a2,2,0,0,1-.39,1,2.61,2.61,0,0,1-2.14,1.08,2.88,2.88,0,0,1-1.25-.26,2.37,2.37,0,0,1-.88-.69,3.17,3.17,0,0,1-.52-1,4.44,4.44,0,0,1-.17-1.22v-.24A4.31,4.31,0,0,1,324,75.5a3.12,3.12,0,0,1,.52-1,2.51,2.51,0,0,1,.88-.7,3,3,0,0,1,1.25-.25,2.69,2.69,0,0,1,1.3.31,2.22,2.22,0,0,1,.87.82,2.41,2.41,0,0,1,.36,1.17h-1a1.56,1.56,0,0,0-.22-.71,1.32,1.32,0,0,0-.52-.5,1.4,1.4,0,0,0-.75-.2,1.68,1.68,0,0,0-.84.2,1.5,1.5,0,0,0-.53.53,2.46,2.46,0,0,0-.28.73,3.74,3.74,0,0,0-.08.82V77a3.74,3.74,0,0,0,.08.82,2.26,2.26,0,0,0,.27.74,1.5,1.5,0,0,0,.54.52A1.63,1.63,0,0,0,326.61,79.23ZM331.44,71v9h-1.09V71Zm-.26,5.59-.45,0a3.87,3.87,0,0,1,.19-1.2,3.13,3.13,0,0,1,.53-1,2.47,2.47,0,0,1,.81-.63,2.38,2.38,0,0,1,1.05-.23,2.74,2.74,0,0,1,.84.13,1.58,1.58,0,0,1,.64.4,1.71,1.71,0,0,1,.41.71,3.65,3.65,0,0,1,.14,1.07V80h-1.09V75.83a1.76,1.76,0,0,0-.15-.79.86.86,0,0,0-.42-.44,1.73,1.73,0,0,0-1.43,0,1.71,1.71,0,0,0-.57.47,2.12,2.12,0,0,0-.37.68A2.37,2.37,0,0,0,331.18,76.59Zm8.47.31v-.13a4.09,4.09,0,0,1,.2-1.28,3,3,0,0,1,.58-1,2.62,2.62,0,0,1,.9-.68,2.77,2.77,0,0,1,1.2-.25,2.71,2.71,0,0,1,1.2.25,2.56,2.56,0,0,1,.91.68,3,3,0,0,1,.59,1,4.09,4.09,0,0,1,.19,1.28v.13a4,4,0,0,1-.19,1.27,3.18,3.18,0,0,1-.59,1,2.75,2.75,0,0,1-.9.68,2.86,2.86,0,0,1-1.2.24,2.92,2.92,0,0,1-1.2-.24,2.69,2.69,0,0,1-.91-.68,3.16,3.16,0,0,1-.58-1A4,4,0,0,1,339.65,76.9Zm1.09-.13v.13a3.27,3.27,0,0,0,.11.9,2.21,2.21,0,0,0,.33.73,1.55,1.55,0,0,0,.57.51,1.57,1.57,0,0,0,.79.19,1.5,1.5,0,0,0,.78-.19,1.52,1.52,0,0,0,.56-.51,2.45,2.45,0,0,0,.34-.73,3.27,3.27,0,0,0,.11-.9v-.13a3.19,3.19,0,0,0-.11-.89,2.4,2.4,0,0,0-.34-.74,1.67,1.67,0,0,0-.57-.52,1.61,1.61,0,0,0-.78-.19,1.68,1.68,0,0,0-.79.19,1.74,1.74,0,0,0-.56.52,2.17,2.17,0,0,0-.33.74A3.19,3.19,0,0,0,340.74,76.77ZM348.4,80h-1.08V73a2.48,2.48,0,0,1,.24-1.15,1.67,1.67,0,0,1,.72-.72,2.46,2.46,0,0,1,1.12-.24l.37,0,.38.07-.06.88-.28,0h-.31a1.27,1.27,0,0,0-.6.14.9.9,0,0,0-.37.4,1.42,1.42,0,0,0-.13.65Zm1.35-6.34v.83h-3.44v-.83Zm5.8,6.34h-1.08V73a2.48,2.48,0,0,1,.24-1.15,1.67,1.67,0,0,1,.72-.72,2.39,2.39,0,0,1,1.11-.24l.38,0,.37.07-.05.88-.28,0h-.31a1.27,1.27,0,0,0-.6.14.9.9,0,0,0-.37.4,1.42,1.42,0,0,0-.13.65Zm1.35-6.34v.83h-3.44v-.83Zm.92,3.24v-.13a3.82,3.82,0,0,1,.2-1.28,3,3,0,0,1,.57-1,2.56,2.56,0,0,1,.91-.68,2.7,2.7,0,0,1,1.19-.25,2.79,2.79,0,0,1,1.21.25,2.65,2.65,0,0,1,.91.68,3,3,0,0,1,.58,1,4.09,4.09,0,0,1,.2,1.28v.13a4,4,0,0,1-.2,1.27,3.16,3.16,0,0,1-.58,1,2.69,2.69,0,0,1-.91.68,2.84,2.84,0,0,1-1.19.24,2.94,2.94,0,0,1-1.21-.24,2.79,2.79,0,0,1-.91-.68,3.14,3.14,0,0,1-.57-1A3.72,3.72,0,0,1,357.82,76.9Zm1.08-.13v.13a3.7,3.7,0,0,0,.11.9,2.45,2.45,0,0,0,.34.73,1.6,1.6,0,0,0,.56.51,1.58,1.58,0,0,0,.8.19,1.49,1.49,0,0,0,.77-.19,1.55,1.55,0,0,0,.57-.51,2.21,2.21,0,0,0,.33-.73,3.26,3.26,0,0,0,.12-.9v-.13a3.19,3.19,0,0,0-.12-.89,2.19,2.19,0,0,0-.34-.74,1.56,1.56,0,0,0-1.35-.71,1.67,1.67,0,0,0-.78.19,1.74,1.74,0,0,0-.56.52,2.4,2.4,0,0,0-.34.74A3.62,3.62,0,0,0,358.9,76.77ZM366.12,71v9H365V71ZM369,71v9h-1.1V71Zm3.87,2.66-2.77,3-1.54,1.6-.09-1.15,1.1-1.32,2-2.09Zm-1,6.34-2.26-3,.56-1,3,4Zm5.8-1.68a.89.89,0,0,0-.11-.43.8.8,0,0,0-.41-.37,3.14,3.14,0,0,0-.94-.3,7.38,7.38,0,0,1-1-.26,3,3,0,0,1-.72-.37,1.57,1.57,0,0,1-.45-.51,1.45,1.45,0,0,1-.15-.68,1.57,1.57,0,0,1,.16-.71,1.92,1.92,0,0,1,.47-.6,2.44,2.44,0,0,1,.75-.4,2.93,2.93,0,0,1,1-.15,2.84,2.84,0,0,1,1.3.27,2,2,0,0,1,.83.72,1.82,1.82,0,0,1,.29,1h-1.09a1,1,0,0,0-.15-.51,1.38,1.38,0,0,0-.45-.41,1.49,1.49,0,0,0-.73-.17,1.69,1.69,0,0,0-.73.14.93.93,0,0,0-.4.35.9.9,0,0,0-.13.44.79.79,0,0,0,.06.32.76.76,0,0,0,.23.25,1.63,1.63,0,0,0,.44.22,7.47,7.47,0,0,0,.73.19,5.88,5.88,0,0,1,1.29.43,1.92,1.92,0,0,1,.75.6,1.53,1.53,0,0,1,.24.87,1.76,1.76,0,0,1-.17.76,1.79,1.79,0,0,1-.5.6,2.52,2.52,0,0,1-.77.38,3.47,3.47,0,0,1-1,.14,3.1,3.1,0,0,1-1.42-.3A2.21,2.21,0,0,1,374,79a1.8,1.8,0,0,1-.3-1h1.09a1.06,1.06,0,0,0,.26.71,1.23,1.23,0,0,0,.57.37,2.29,2.29,0,0,0,.67.11,2,2,0,0,0,.75-.12,1.08,1.08,0,0,0,.46-.32A.74.74,0,0,0,377.64,78.32Zm8,.91a1.73,1.73,0,0,0,.72-.16,1.6,1.6,0,0,0,.53-.43,1.17,1.17,0,0,0,.24-.64h1a1.88,1.88,0,0,1-.39,1,2.61,2.61,0,0,1-2.14,1.08,2.88,2.88,0,0,1-1.25-.26,2.37,2.37,0,0,1-.88-.69,3.17,3.17,0,0,1-.52-1,4.44,4.44,0,0,1-.17-1.22v-.24A4.31,4.31,0,0,1,383,75.5a3.12,3.12,0,0,1,.52-1,2.51,2.51,0,0,1,.88-.7,3,3,0,0,1,1.25-.25,2.69,2.69,0,0,1,1.3.31,2.22,2.22,0,0,1,.87.82,2.3,2.3,0,0,1,.36,1.17h-1a1.45,1.45,0,0,0-.22-.71,1.29,1.29,0,0,0-.51-.5,1.46,1.46,0,0,0-.76-.2,1.68,1.68,0,0,0-.84.2,1.5,1.5,0,0,0-.53.53,2.46,2.46,0,0,0-.28.73,3.74,3.74,0,0,0-.08.82V77a3.74,3.74,0,0,0,.08.82,2.26,2.26,0,0,0,.27.74,1.58,1.58,0,0,0,.54.52A1.63,1.63,0,0,0,385.66,79.23Zm7.48-.31V75.65A1.36,1.36,0,0,0,393,75a1,1,0,0,0-.45-.43,1.58,1.58,0,0,0-.73-.15,1.6,1.6,0,0,0-.72.14,1.16,1.16,0,0,0-.49.37.8.8,0,0,0-.16.49h-1.09a1.44,1.44,0,0,1,.18-.68,2,2,0,0,1,.5-.6,2.45,2.45,0,0,1,.8-.43,3.11,3.11,0,0,1,1-.17,2.92,2.92,0,0,1,1.22.24,1.75,1.75,0,0,1,.83.71,2.12,2.12,0,0,1,.31,1.17v3a4,4,0,0,0,0,.67,3.07,3.07,0,0,0,.17.62V80h-1.13a1.71,1.71,0,0,1-.13-.5A4.13,4.13,0,0,1,393.14,78.92Zm.19-2.76v.76h-1.09a4.15,4.15,0,0,0-.83.07,1.9,1.9,0,0,0-.61.22,1,1,0,0,0-.37.37.94.94,0,0,0-.13.51,1.14,1.14,0,0,0,.13.55,1,1,0,0,0,.41.39,1.48,1.48,0,0,0,.67.14,1.79,1.79,0,0,0,1.48-.73,1.11,1.11,0,0,0,.25-.59l.46.52a1.7,1.7,0,0,1-.22.55,2.53,2.53,0,0,1-.49.57,2.69,2.69,0,0,1-.71.45,2.3,2.3,0,0,1-.93.18,2.39,2.39,0,0,1-1.13-.26,1.88,1.88,0,0,1-.75-.67,1.72,1.72,0,0,1-.26-1,1.87,1.87,0,0,1,.2-.9,1.69,1.69,0,0,1,.57-.65,2.65,2.65,0,0,1,.9-.4,4.79,4.79,0,0,1,1.18-.13ZM397,74.92V80h-1.09V73.66h1Zm-.22,1.67-.51,0a4.57,4.57,0,0,1,.17-1.2,2.86,2.86,0,0,1,.49-1,2.16,2.16,0,0,1,.8-.63,2.59,2.59,0,0,1,1.11-.23,2.72,2.72,0,0,1,.83.13,1.62,1.62,0,0,1,1.07,1.09,3,3,0,0,1,.16,1V80h-1.09V75.83a1.56,1.56,0,0,0-.17-.8.94.94,0,0,0-.47-.43,1.58,1.58,0,0,0-.71-.14,1.61,1.61,0,0,0-.8.17,1.31,1.31,0,0,0-.52.47,2,2,0,0,0-.28.68A3.48,3.48,0,0,0,396.79,76.59Zm4.11-.6-.73.23a3.1,3.1,0,0,1,.17-1,2.64,2.64,0,0,1,.48-.85,2.31,2.31,0,0,1,.79-.59,2.48,2.48,0,0,1,1.08-.23,2.74,2.74,0,0,1,.9.14,1.63,1.63,0,0,1,1.08,1.12,3.21,3.21,0,0,1,.14,1V80h-1.09V75.82a1.57,1.57,0,0,0-.17-.82.86.86,0,0,0-.46-.42,1.94,1.94,0,0,0-.72-.12,1.54,1.54,0,0,0-.63.12,1.23,1.23,0,0,0-.46.34,1.28,1.28,0,0,0-.29.49A1.81,1.81,0,0,0,400.9,76Zm8.19,4.13a3.25,3.25,0,0,1-1.2-.22,2.76,2.76,0,0,1-.92-.64,2.85,2.85,0,0,1-.59-1,3.45,3.45,0,0,1-.21-1.23v-.24a3.91,3.91,0,0,1,.23-1.38,3,3,0,0,1,.62-1,2.62,2.62,0,0,1,.89-.64,2.52,2.52,0,0,1,1-.22,2.66,2.66,0,0,1,1.17.24,2.07,2.07,0,0,1,.81.65,2.84,2.84,0,0,1,.47,1,4.71,4.71,0,0,1,.15,1.23v.49h-4.73v-.89h3.65v-.08a2.57,2.57,0,0,0-.18-.82,1.37,1.37,0,0,0-.47-.66,1.35,1.35,0,0,0-.87-.26,1.51,1.51,0,0,0-.68.16,1.48,1.48,0,0,0-.54.46,2.2,2.2,0,0,0-.34.74,3.51,3.51,0,0,0-.13,1v.24a2.61,2.61,0,0,0,.13.85,2,2,0,0,0,.37.69,1.68,1.68,0,0,0,.59.47,1.71,1.71,0,0,0,.8.17,2,2,0,0,0,1-.23,2.57,2.57,0,0,0,.69-.63l.66.52a2.86,2.86,0,0,1-.52.59,2.48,2.48,0,0,1-.78.46A3,3,0,0,1,409.09,80.12Zm9.36-6.46v.83H415v-.83Zm-2.27-1.54h1.09v6.31a1,1,0,0,0,.09.49.47.47,0,0,0,.26.21,1,1,0,0,0,.34.06,1.33,1.33,0,0,0,.28,0l.23,0V80l-.34.08a3.37,3.37,0,0,1-.5,0,1.77,1.77,0,0,1-.73-.16,1.18,1.18,0,0,1-.53-.53,2.18,2.18,0,0,1-.2-1Zm3.14,4.78v-.13a3.82,3.82,0,0,1,.2-1.28,3,3,0,0,1,.57-1,2.56,2.56,0,0,1,.91-.68,2.7,2.7,0,0,1,1.19-.25,2.79,2.79,0,0,1,1.21.25,2.65,2.65,0,0,1,.91.68,3,3,0,0,1,.58,1,4.09,4.09,0,0,1,.2,1.28v.13a4,4,0,0,1-.2,1.27,3.16,3.16,0,0,1-.58,1,2.69,2.69,0,0,1-.91.68,2.84,2.84,0,0,1-1.19.24,2.94,2.94,0,0,1-1.21-.24,2.79,2.79,0,0,1-.91-.68,3.14,3.14,0,0,1-.57-1A3.72,3.72,0,0,1,419.32,76.9Zm1.08-.13v.13a3.7,3.7,0,0,0,.11.9,2.45,2.45,0,0,0,.34.73,1.6,1.6,0,0,0,.56.51,1.58,1.58,0,0,0,.8.19A1.49,1.49,0,0,0,423,79a1.55,1.55,0,0,0,.57-.51,2.21,2.21,0,0,0,.33-.73,3.26,3.26,0,0,0,.12-.9v-.13a3.19,3.19,0,0,0-.12-.89,2.19,2.19,0,0,0-.34-.74,1.56,1.56,0,0,0-1.35-.71,1.67,1.67,0,0,0-.78.19,1.74,1.74,0,0,0-.56.52,2.4,2.4,0,0,0-.34.74A3.62,3.62,0,0,0,420.4,76.77Zm10.15-3.11h1v6.2a2.78,2.78,0,0,1-.34,1.43,2.17,2.17,0,0,1-.95.9,3,3,0,0,1-1.4.31,3.46,3.46,0,0,1-.77-.1,3,3,0,0,1-.86-.35,2.11,2.11,0,0,1-.71-.65l.56-.64a2.26,2.26,0,0,0,.84.66,2.09,2.09,0,0,0,.86.19,1.89,1.89,0,0,0,.89-.19,1.3,1.3,0,0,0,.58-.58,1.77,1.77,0,0,0,.22-.92V75.05Zm-4.36,3.24v-.12a4.86,4.86,0,0,1,.17-1.32,3.19,3.19,0,0,1,.5-1,2.24,2.24,0,0,1,.79-.65,2.21,2.21,0,0,1,1-.24,2.38,2.38,0,0,1,1,.21,2.07,2.07,0,0,1,.77.61,2.94,2.94,0,0,1,.49,1,6.22,6.22,0,0,1,.26,1.26v.53a5.6,5.6,0,0,1-.26,1.26,2.94,2.94,0,0,1-.49,1,2.15,2.15,0,0,1-.77.6,2.46,2.46,0,0,1-1.05.21,2.2,2.2,0,0,1-1-.24,2.33,2.33,0,0,1-.79-.68,3.47,3.47,0,0,1-.5-1A4.72,4.72,0,0,1,426.19,76.9Zm1.08-.12v.12a3.62,3.62,0,0,0,.1.89,2.08,2.08,0,0,0,.3.73,1.46,1.46,0,0,0,.52.5,1.49,1.49,0,0,0,.75.18,1.61,1.61,0,0,0,.89-.23,1.64,1.64,0,0,0,.56-.61,3.62,3.62,0,0,0,.33-.81V76.14a2.64,2.64,0,0,0-.2-.62,2,2,0,0,0-.34-.54,1.48,1.48,0,0,0-.51-.38,1.58,1.58,0,0,0-.71-.14,1.44,1.44,0,0,0-.77.19,1.38,1.38,0,0,0-.52.5,2.06,2.06,0,0,0-.3.74A3.57,3.57,0,0,0,427.27,76.78Zm8.55,3.34a3.34,3.34,0,0,1-1.21-.22,2.82,2.82,0,0,1-.91-.64,2.85,2.85,0,0,1-.59-1,3.45,3.45,0,0,1-.21-1.23v-.24a3.91,3.91,0,0,1,.23-1.38,3,3,0,0,1,.62-1,2.66,2.66,0,0,1,.9-.64,2.45,2.45,0,0,1,1-.22,2.66,2.66,0,0,1,1.17.24,2.07,2.07,0,0,1,.81.65,2.84,2.84,0,0,1,.47,1,4.71,4.71,0,0,1,.15,1.23v.49h-4.73v-.89h3.65v-.08a2.87,2.87,0,0,0-.18-.82,1.37,1.37,0,0,0-.47-.66,1.35,1.35,0,0,0-.87-.26,1.51,1.51,0,0,0-.68.16,1.48,1.48,0,0,0-.54.46,2.2,2.2,0,0,0-.34.74,3.51,3.51,0,0,0-.13,1v.24a2.61,2.61,0,0,0,.13.85,2,2,0,0,0,.37.69,1.68,1.68,0,0,0,.59.47,1.71,1.71,0,0,0,.8.17,2,2,0,0,0,1-.23,2.43,2.43,0,0,0,.69-.63l.66.52a2.86,2.86,0,0,1-.52.59,2.48,2.48,0,0,1-.78.46A2.94,2.94,0,0,1,435.82,80.12Zm6.38-6.46v.83h-3.42v-.83Zm-2.26-1.54H441v6.31a.92.92,0,0,0,.1.49.44.44,0,0,0,.26.21.93.93,0,0,0,.34.06l.28,0,.23,0V80a2.92,2.92,0,0,1-.34.08,3.23,3.23,0,0,1-.49,0,1.82,1.82,0,0,1-.74-.16,1.18,1.18,0,0,1-.53-.53,2.19,2.19,0,0,1-.19-1ZM444.56,71v9h-1.09V71Zm-.26,5.59-.45,0a3.87,3.87,0,0,1,.19-1.2,3.13,3.13,0,0,1,.53-1,2.47,2.47,0,0,1,.81-.63,2.41,2.41,0,0,1,1.05-.23,2.74,2.74,0,0,1,.84.13,1.58,1.58,0,0,1,.64.4,1.71,1.71,0,0,1,.41.71,3.65,3.65,0,0,1,.14,1.07V80h-1.09V75.83a1.76,1.76,0,0,0-.15-.79.86.86,0,0,0-.42-.44,1.48,1.48,0,0,0-.7-.14,1.51,1.51,0,0,0-.73.17,1.71,1.71,0,0,0-.57.47,2.12,2.12,0,0,0-.37.68A2.37,2.37,0,0,0,444.3,76.59Zm8.42,3.53a3.3,3.3,0,0,1-1.21-.22,2.66,2.66,0,0,1-1.5-1.62,3.45,3.45,0,0,1-.21-1.23v-.24a3.91,3.91,0,0,1,.23-1.38,3,3,0,0,1,.62-1,2.62,2.62,0,0,1,.89-.64,2.51,2.51,0,0,1,1-.22,2.67,2.67,0,0,1,1.18.24,2.07,2.07,0,0,1,.81.65,2.84,2.84,0,0,1,.47,1,4.71,4.71,0,0,1,.15,1.23v.49h-4.73v-.89h3.65v-.08a2.87,2.87,0,0,0-.18-.82,1.43,1.43,0,0,0-.47-.66,1.36,1.36,0,0,0-.88-.26,1.5,1.5,0,0,0-.67.16,1.48,1.48,0,0,0-.54.46,2.2,2.2,0,0,0-.34.74,3.51,3.51,0,0,0-.13,1v.24a2.61,2.61,0,0,0,.13.85,1.84,1.84,0,0,0,.37.69,1.71,1.71,0,0,0,1.38.64,2,2,0,0,0,1-.23,2.57,2.57,0,0,0,.69-.63l.66.52a2.86,2.86,0,0,1-.52.59,2.48,2.48,0,0,1-.78.46A3,3,0,0,1,452.72,80.12Zm4.81-5.46V80h-1.08V73.66h1.05Zm2-1v1l-.26,0H459a1.69,1.69,0,0,0-.66.11,1.32,1.32,0,0,0-.49.33,1.71,1.71,0,0,0-.32.5,2.6,2.6,0,0,0-.14.64l-.31.17a5.17,5.17,0,0,1,.11-1.07,2.86,2.86,0,0,1,.36-.89,1.69,1.69,0,0,1,1.5-.84l.27,0A1.07,1.07,0,0,1,459.51,73.62Zm7.72,5.3V75.65a1.36,1.36,0,0,0-.15-.65,1,1,0,0,0-.45-.43,1.62,1.62,0,0,0-.74-.15,1.65,1.65,0,0,0-.72.14,1.19,1.19,0,0,0-.48.37.81.81,0,0,0-.17.49h-1.08a1.55,1.55,0,0,1,.17-.68,2,2,0,0,1,.51-.6,2.4,2.4,0,0,1,.79-.43,3.17,3.17,0,0,1,1-.17,3,3,0,0,1,1.22.24,1.8,1.8,0,0,1,.83.71,2.12,2.12,0,0,1,.3,1.17v3a5.43,5.43,0,0,0,.05.67,3.07,3.07,0,0,0,.17.62V80H467.4a2.15,2.15,0,0,1-.12-.5A3,3,0,0,1,467.23,78.92Zm.19-2.76v.76h-1.1a4,4,0,0,0-.82.07,1.81,1.81,0,0,0-.61.22,1,1,0,0,0-.51.88,1.15,1.15,0,0,0,.14.55,1,1,0,0,0,.4.39,1.51,1.51,0,0,0,.67.14,1.76,1.76,0,0,0,.88-.21,1.74,1.74,0,0,0,.61-.52,1.09,1.09,0,0,0,.24-.59l.47.52a1.54,1.54,0,0,1-.23.55,2.74,2.74,0,0,1-.48.57,2.59,2.59,0,0,1-.72.45,2.25,2.25,0,0,1-.92.18,2.39,2.39,0,0,1-1.13-.26,1.88,1.88,0,0,1-.75-.67,1.73,1.73,0,0,1-.27-1,2,2,0,0,1,.2-.9,1.81,1.81,0,0,1,.58-.65,2.65,2.65,0,0,1,.9-.4,4.74,4.74,0,0,1,1.18-.13ZM471.1,75v5H470V73.66h1Zm-.26,1.58-.45,0a3.87,3.87,0,0,1,.2-1.2,3.11,3.11,0,0,1,.52-1,2.38,2.38,0,0,1,1.86-.86,2.74,2.74,0,0,1,.84.13,1.52,1.52,0,0,1,.64.4,1.71,1.71,0,0,1,.41.71,3.35,3.35,0,0,1,.14,1.07V80h-1.09V75.83a1.93,1.93,0,0,0-.14-.79.88.88,0,0,0-.43-.44,1.47,1.47,0,0,0-.69-.14,1.52,1.52,0,0,0-.74.17,1.71,1.71,0,0,0-.57.47,2.33,2.33,0,0,0-.37.68A2.64,2.64,0,0,0,470.84,76.59Zm9.81,2.18V71h1.09v9h-1Zm-4.27-1.87v-.12a4.48,4.48,0,0,1,.18-1.32,3.2,3.2,0,0,1,.51-1,2.24,2.24,0,0,1,.79-.65,2.2,2.2,0,0,1,1-.24,2.38,2.38,0,0,1,1,.21,2,2,0,0,1,.76.61,3,3,0,0,1,.5,1,5.62,5.62,0,0,1,.25,1.26v.53a5.11,5.11,0,0,1-.25,1.26,3,3,0,0,1-.5,1,2,2,0,0,1-.76.6,2.46,2.46,0,0,1-1.05.21,2.19,2.19,0,0,1-1-.24,2.33,2.33,0,0,1-.79-.68,3.25,3.25,0,0,1-.51-1A4.35,4.35,0,0,1,476.38,76.9Zm1.09-.12v.12a4.19,4.19,0,0,0,.09.89,2.3,2.3,0,0,0,.31.73,1.55,1.55,0,0,0,.52.5,1.5,1.5,0,0,0,.76.18A1.57,1.57,0,0,0,480,79a1.64,1.64,0,0,0,.56-.61,3.62,3.62,0,0,0,.33-.81V76.14a2.64,2.64,0,0,0-.2-.62,2,2,0,0,0-.34-.54,1.48,1.48,0,0,0-.51-.38,1.58,1.58,0,0,0-.71-.14,1.44,1.44,0,0,0-.77.19,1.46,1.46,0,0,0-.52.5,2.26,2.26,0,0,0-.31.74A4.13,4.13,0,0,0,477.47,76.78ZM20.82,89h1.09v7.77L21.82,98h-1Zm5.37,5.78v.12A4.72,4.72,0,0,1,26,96.18a3.21,3.21,0,0,1-.48,1,2.21,2.21,0,0,1-.78.68,2.19,2.19,0,0,1-1,.24,2.47,2.47,0,0,1-1.06-.21,2.15,2.15,0,0,1-.77-.6,3.15,3.15,0,0,1-.49-1,6.22,6.22,0,0,1-.26-1.26v-.53a6.22,6.22,0,0,1,.26-1.26,3.15,3.15,0,0,1,.49-1,2.07,2.07,0,0,1,.77-.61,2.44,2.44,0,0,1,1-.21,2.24,2.24,0,0,1,1.06.24,2.13,2.13,0,0,1,.78.65,3.16,3.16,0,0,1,.48,1A4.87,4.87,0,0,1,26.19,94.78Zm-1.09.12v-.12a4.91,4.91,0,0,0-.08-.89,2.24,2.24,0,0,0-.29-.74,1.33,1.33,0,0,0-.5-.5,1.5,1.5,0,0,0-.78-.19,1.6,1.6,0,0,0-.72.14,1.48,1.48,0,0,0-.51.38,1.77,1.77,0,0,0-.34.54,3.21,3.21,0,0,0-.2.62v1.41a3,3,0,0,0,.31.79,1.78,1.78,0,0,0,.57.62,1.59,1.59,0,0,0,.9.24,1.49,1.49,0,0,0,.75-.18,1.44,1.44,0,0,0,.51-.5,2.28,2.28,0,0,0,.29-.73A4.19,4.19,0,0,0,25.1,94.9Zm2.18,0v-.13a3.82,3.82,0,0,1,.2-1.28,3,3,0,0,1,.57-1,2.56,2.56,0,0,1,.91-.68,3,3,0,0,1,2.39,0,2.6,2.6,0,0,1,.92.68,3,3,0,0,1,.58,1,4.09,4.09,0,0,1,.2,1.28v.13a4,4,0,0,1-.2,1.27,3.16,3.16,0,0,1-.58,1,2.69,2.69,0,0,1-.91.68,2.84,2.84,0,0,1-1.19.24A2.94,2.94,0,0,1,29,97.88a2.79,2.79,0,0,1-.91-.68,3.14,3.14,0,0,1-.57-1A3.72,3.72,0,0,1,27.28,94.9Zm1.08-.13v.13a3.7,3.7,0,0,0,.11.9,2.45,2.45,0,0,0,.34.73A1.68,1.68,0,0,0,31,97a1.6,1.6,0,0,0,.56-.51,2.21,2.21,0,0,0,.33-.73,3.26,3.26,0,0,0,.12-.9v-.13a3.19,3.19,0,0,0-.12-.89,2.19,2.19,0,0,0-.34-.74,1.64,1.64,0,0,0-.56-.52,1.62,1.62,0,0,0-.79-.19,1.67,1.67,0,0,0-.78.19,1.74,1.74,0,0,0-.56.52,2.4,2.4,0,0,0-.34.74A3.62,3.62,0,0,0,28.36,94.77Zm5.76.13v-.13a4.09,4.09,0,0,1,.2-1.28,3,3,0,0,1,.58-1,2.62,2.62,0,0,1,.9-.68,3,3,0,0,1,2.4,0,2.56,2.56,0,0,1,.91.68,2.86,2.86,0,0,1,.58,1,3.82,3.82,0,0,1,.2,1.28v.13a3.72,3.72,0,0,1-.2,1.27,3,3,0,0,1-.58,1,2.75,2.75,0,0,1-.9.68,2.89,2.89,0,0,1-1.2.24,2.86,2.86,0,0,1-1.2-.24,2.69,2.69,0,0,1-.91-.68,3.16,3.16,0,0,1-.58-1A4,4,0,0,1,34.12,94.9Zm1.09-.13v.13a3.27,3.27,0,0,0,.11.9,2.21,2.21,0,0,0,.33.73,1.55,1.55,0,0,0,.57.51,1.57,1.57,0,0,0,.79.19,1.5,1.5,0,0,0,.78-.19,1.52,1.52,0,0,0,.56-.51,2.45,2.45,0,0,0,.34-.73,3.7,3.7,0,0,0,.11-.9v-.13a3.62,3.62,0,0,0-.11-.89,2.4,2.4,0,0,0-.34-.74,1.67,1.67,0,0,0-.57-.52,1.61,1.61,0,0,0-.78-.19,1.68,1.68,0,0,0-.79.19,1.74,1.74,0,0,0-.56.52,2.17,2.17,0,0,0-.33.74A3.19,3.19,0,0,0,35.21,94.77Zm8.7-3.11v.83H40.48v-.83Zm-2.27-1.54h1.08v6.31a1,1,0,0,0,.1.49.47.47,0,0,0,.26.21,1,1,0,0,0,.34.06l.28,0,.23,0V98l-.34.08a3.49,3.49,0,0,1-.5,0,1.74,1.74,0,0,1-.73-.16,1.15,1.15,0,0,1-.54-.53,2.19,2.19,0,0,1-.19-1Zm7.23,6.2a.89.89,0,0,0-.11-.43.8.8,0,0,0-.41-.37,3.14,3.14,0,0,0-.94-.3,6.81,6.81,0,0,1-.95-.26,2.93,2.93,0,0,1-.73-.37,1.57,1.57,0,0,1-.45-.51,1.45,1.45,0,0,1-.16-.68,1.58,1.58,0,0,1,.17-.71,1.92,1.92,0,0,1,.47-.6,2.44,2.44,0,0,1,.75-.4,3,3,0,0,1,1-.15,2.83,2.83,0,0,1,1.29.27,2,2,0,0,1,.83.72,1.82,1.82,0,0,1,.29,1H48.8a1,1,0,0,0-.15-.51,1.28,1.28,0,0,0-.45-.41,1.47,1.47,0,0,0-.72-.17,1.71,1.71,0,0,0-.74.14.93.93,0,0,0-.4.35.9.9,0,0,0-.13.44.79.79,0,0,0,.06.32.76.76,0,0,0,.23.25,1.63,1.63,0,0,0,.44.22,7.47,7.47,0,0,0,.73.19,5.88,5.88,0,0,1,1.29.43,1.92,1.92,0,0,1,.75.6,1.53,1.53,0,0,1,.24.87,1.63,1.63,0,0,1-.17.76,1.79,1.79,0,0,1-.5.6,2.52,2.52,0,0,1-.77.38,3.47,3.47,0,0,1-1,.14,3,3,0,0,1-1.41-.3,2.17,2.17,0,0,1-.88-.78,1.8,1.8,0,0,1-.3-1H46a1.06,1.06,0,0,0,.26.71,1.23,1.23,0,0,0,.57.37,2.29,2.29,0,0,0,.67.11,2,2,0,0,0,.75-.12,1.15,1.15,0,0,0,.46-.32A.74.74,0,0,0,48.87,96.32ZM54,91.66v.83H50.6v-.83Zm-2.27-1.54h1.09v6.31a.92.92,0,0,0,.1.49.41.41,0,0,0,.26.21.88.88,0,0,0,.33.06l.29,0,.22,0V98a2.92,2.92,0,0,1-.34.08,3.37,3.37,0,0,1-.5,0,1.77,1.77,0,0,1-.73-.16,1.18,1.18,0,0,1-.53-.53,2.18,2.18,0,0,1-.2-1Zm4.63,2.54V98H55.3V91.66h1.06Zm2-1v1a1.15,1.15,0,0,0-.26,0h-.27a1.69,1.69,0,0,0-.66.11,1.37,1.37,0,0,0-.48.33,1.53,1.53,0,0,0-.32.5,2.6,2.6,0,0,0-.15.64l-.3.17A5.17,5.17,0,0,1,56,93.27a2.86,2.86,0,0,1,.36-.89,1.62,1.62,0,0,1,.61-.61,1.68,1.68,0,0,1,.89-.23l.27,0A1.07,1.07,0,0,1,58.37,91.62Zm4.5,5.3V93.65a1.36,1.36,0,0,0-.15-.65.94.94,0,0,0-.45-.43,1.58,1.58,0,0,0-.73-.15,1.6,1.6,0,0,0-.72.14,1.07,1.07,0,0,0-.48.37.75.75,0,0,0-.17.49H59.08a1.44,1.44,0,0,1,.18-.68,2,2,0,0,1,.5-.6,2.45,2.45,0,0,1,.8-.43,3.11,3.11,0,0,1,1-.17,2.92,2.92,0,0,1,1.22.24,1.75,1.75,0,0,1,.83.71A2.12,2.12,0,0,1,64,93.66v3a5.43,5.43,0,0,0,.05.67,2.53,2.53,0,0,0,.17.62V98H63.05a1.71,1.71,0,0,1-.13-.5A4.13,4.13,0,0,1,62.87,96.92Zm.19-2.76v.76H62a4.15,4.15,0,0,0-.83.07,2,2,0,0,0-.61.22,1,1,0,0,0-.37.37.94.94,0,0,0-.13.51,1.14,1.14,0,0,0,.13.55,1,1,0,0,0,.41.39,1.48,1.48,0,0,0,.67.14,1.79,1.79,0,0,0,1.48-.73,1.11,1.11,0,0,0,.25-.59l.46.52a1.7,1.7,0,0,1-.22.55,2.53,2.53,0,0,1-.49.57,2.69,2.69,0,0,1-.71.45,2.3,2.3,0,0,1-.93.18A2.41,2.41,0,0,1,60,97.86a1.88,1.88,0,0,1-.75-.67,1.81,1.81,0,0,1-.26-1,1.87,1.87,0,0,1,.2-.9,1.69,1.69,0,0,1,.57-.65,2.65,2.65,0,0,1,.9-.4,4.85,4.85,0,0,1,1.18-.13Zm3.69-1.28v7.56H65.66V91.66h1ZM71,94.78v.12a4.72,4.72,0,0,1-.17,1.28,3.21,3.21,0,0,1-.48,1,2.1,2.1,0,0,1-.77.68,2.19,2.19,0,0,1-1,.24,2.72,2.72,0,0,1-1.07-.2,2.16,2.16,0,0,1-.78-.58,2.94,2.94,0,0,1-.52-.92,5.06,5.06,0,0,1-.26-1.2v-.65a5.59,5.59,0,0,1,.27-1.26,2.79,2.79,0,0,1,.51-1,2.07,2.07,0,0,1,.77-.61,2.54,2.54,0,0,1,1.06-.21,2.27,2.27,0,0,1,1.06.24,2.13,2.13,0,0,1,.78.65,3,3,0,0,1,.47,1A4.86,4.86,0,0,1,71,94.78Zm-1.09.12v-.12a3.57,3.57,0,0,0-.1-.89,2.26,2.26,0,0,0-.31-.74,1.41,1.41,0,0,0-.53-.5,1.47,1.47,0,0,0-.77-.19,1.58,1.58,0,0,0-.71.14A1.48,1.48,0,0,0,67,93a2,2,0,0,0-.35.54,3.19,3.19,0,0,0-.19.62v1.52a3.51,3.51,0,0,0,.33.77,1.73,1.73,0,0,0,.56.58,1.69,1.69,0,0,0,.88.22A1.41,1.41,0,0,0,69,97a1.44,1.44,0,0,0,.53-.51,2.4,2.4,0,0,0,.31-.73A3.71,3.71,0,0,0,69.93,94.9Zm3.55-2v7.56H72.4V91.66h1Zm4.28,1.9v.12a4.72,4.72,0,0,1-.17,1.28,3.21,3.21,0,0,1-.48,1,2.13,2.13,0,0,1-1.82.92,2.71,2.71,0,0,1-1.06-.2,2.28,2.28,0,0,1-.79-.58,3.13,3.13,0,0,1-.51-.92,5.06,5.06,0,0,1-.26-1.2v-.65a5.6,5.6,0,0,1,.26-1.26,3.18,3.18,0,0,1,.51-1,2.18,2.18,0,0,1,.78-.61,2.54,2.54,0,0,1,1.06-.21,2.27,2.27,0,0,1,1.06.24,2.13,2.13,0,0,1,.78.65,3,3,0,0,1,.47,1A4.86,4.86,0,0,1,77.76,94.78Zm-1.09.12v-.12a4.11,4.11,0,0,0-.1-.89,2.26,2.26,0,0,0-.31-.74,1.49,1.49,0,0,0-.53-.5,1.47,1.47,0,0,0-.77-.19,1.58,1.58,0,0,0-.71.14,1.48,1.48,0,0,0-.51.38,2,2,0,0,0-.35.54,2.62,2.62,0,0,0-.19.62v1.52a3.06,3.06,0,0,0,.32.77,1.76,1.76,0,0,0,.57.58,1.69,1.69,0,0,0,.88.22,1.41,1.41,0,0,0,.76-.19,1.52,1.52,0,0,0,.53-.51,2.4,2.4,0,0,0,.31-.73A4.28,4.28,0,0,0,76.67,94.9Zm5.1,3.22a3.29,3.29,0,0,1-1.2-.22,2.87,2.87,0,0,1-.92-.64,3,3,0,0,1-.59-1,3.69,3.69,0,0,1-.2-1.23v-.24a3.7,3.7,0,0,1,.23-1.38,3,3,0,0,1,.62-1,2.62,2.62,0,0,1,.89-.64,2.45,2.45,0,0,1,1-.22,2.66,2.66,0,0,1,1.17.24,2.18,2.18,0,0,1,.82.65,2.82,2.82,0,0,1,.46,1,4.31,4.31,0,0,1,.16,1.23v.49H79.5v-.89h3.65v-.08a2.55,2.55,0,0,0-.17-.82,1.51,1.51,0,0,0-.47-.66,1.4,1.4,0,0,0-.88-.26,1.55,1.55,0,0,0-.68.16,1.37,1.37,0,0,0-.53.46,2.21,2.21,0,0,0-.35.74,3.91,3.91,0,0,0-.12,1v.24a2.91,2.91,0,0,0,.12.85,2.17,2.17,0,0,0,.37.69,1.68,1.68,0,0,0,.59.47,1.74,1.74,0,0,0,.8.17,1.93,1.93,0,0,0,1-.23,2.46,2.46,0,0,0,.7-.63l.65.52a2.59,2.59,0,0,1-.52.59,2.48,2.48,0,0,1-.78.46A2.91,2.91,0,0,1,81.77,98.12Zm7.73-1.35V89h1.09v9h-1ZM85.23,94.9v-.12a4.48,4.48,0,0,1,.18-1.32,3.2,3.2,0,0,1,.51-1,2.24,2.24,0,0,1,.79-.65,2.2,2.2,0,0,1,1-.24,2.38,2.38,0,0,1,1,.21,2,2,0,0,1,.76.61,2.77,2.77,0,0,1,.5,1,5.62,5.62,0,0,1,.25,1.26v.53A5.11,5.11,0,0,1,90,96.36a2.77,2.77,0,0,1-.5,1,2,2,0,0,1-.76.6,2.46,2.46,0,0,1-1,.21,2.19,2.19,0,0,1-1-.24,2.33,2.33,0,0,1-.79-.68,3.25,3.25,0,0,1-.51-1A4.35,4.35,0,0,1,85.23,94.9Zm1.09-.12v.12a3.62,3.62,0,0,0,.1.89,2.08,2.08,0,0,0,.3.73,1.55,1.55,0,0,0,.52.5,1.53,1.53,0,0,0,.76.18,1.57,1.57,0,0,0,.88-.23,1.76,1.76,0,0,0,.57-.61,3.18,3.18,0,0,0,.32-.81V94.14a2.64,2.64,0,0,0-.2-.62,2,2,0,0,0-.34-.54,1.48,1.48,0,0,0-.51-.38,1.58,1.58,0,0,0-.71-.14,1.46,1.46,0,0,0-1.29.69,2.06,2.06,0,0,0-.3.74A3.57,3.57,0,0,0,86.32,94.78Zm11.59-3.12v.83H94.48v-.83Zm-2.27-1.54h1.08v6.31a1,1,0,0,0,.1.49.47.47,0,0,0,.26.21,1,1,0,0,0,.34.06l.28,0,.23,0V98l-.34.08a3.49,3.49,0,0,1-.5,0,1.82,1.82,0,0,1-.74-.16,1.18,1.18,0,0,1-.53-.53,2.19,2.19,0,0,1-.19-1ZM100.26,89v9H99.18V89ZM100,94.59l-.45,0a3.87,3.87,0,0,1,.2-1.2,3.11,3.11,0,0,1,.52-1,2.38,2.38,0,0,1,1.86-.86,2.81,2.81,0,0,1,.85.13,1.48,1.48,0,0,1,.63.4,1.71,1.71,0,0,1,.41.71,3.35,3.35,0,0,1,.14,1.07V98h-1.09V93.83a1.93,1.93,0,0,0-.14-.79.88.88,0,0,0-.43-.44,1.47,1.47,0,0,0-.69-.14,1.52,1.52,0,0,0-.74.17,1.71,1.71,0,0,0-.57.47,2.33,2.33,0,0,0-.37.68A2.64,2.64,0,0,0,100,94.59Zm8.42,3.53a3.29,3.29,0,0,1-1.2-.22,2.76,2.76,0,0,1-.92-.64,2.85,2.85,0,0,1-.59-1,3.45,3.45,0,0,1-.2-1.23v-.24a3.92,3.92,0,0,1,.22-1.38,3,3,0,0,1,.63-1,2.53,2.53,0,0,1,.89-.64,2.45,2.45,0,0,1,1-.22,2.66,2.66,0,0,1,1.17.24,2.07,2.07,0,0,1,.81.65,2.67,2.67,0,0,1,.47,1,4.7,4.7,0,0,1,.16,1.23v.49h-4.74v-.89h3.65v-.08a2.32,2.32,0,0,0-.18-.82,1.42,1.42,0,0,0-.46-.66,1.4,1.4,0,0,0-.88-.26,1.51,1.51,0,0,0-.68.16,1.48,1.48,0,0,0-.54.46,2.41,2.41,0,0,0-.34.74,3.91,3.91,0,0,0-.12,1v.24a2.91,2.91,0,0,0,.12.85,2,2,0,0,0,.37.69,1.68,1.68,0,0,0,.59.47,1.71,1.71,0,0,0,.8.17,2,2,0,0,0,1-.23,2.6,2.6,0,0,0,.7-.63l.65.52a2.59,2.59,0,0,1-.52.59,2.48,2.48,0,0,1-.78.46A2.91,2.91,0,0,1,108.42,98.12Zm10.4-1.8a.89.89,0,0,0-.11-.43.8.8,0,0,0-.41-.37,3.14,3.14,0,0,0-.94-.3,7.38,7.38,0,0,1-1-.26,3,3,0,0,1-.72-.37,1.57,1.57,0,0,1-.45-.51,1.45,1.45,0,0,1-.16-.68,1.58,1.58,0,0,1,.17-.71,1.92,1.92,0,0,1,.47-.6,2.44,2.44,0,0,1,.75-.4,3.24,3.24,0,0,1,2.27.12,2.06,2.06,0,0,1,.82.72,1.82,1.82,0,0,1,.29,1h-1.09a1,1,0,0,0-.15-.51,1.32,1.32,0,0,0-.46-.41,1.42,1.42,0,0,0-.72-.17,1.69,1.69,0,0,0-.73.14.93.93,0,0,0-.4.35.8.8,0,0,0-.13.44.79.79,0,0,0,.06.32.76.76,0,0,0,.23.25,1.63,1.63,0,0,0,.44.22,7.47,7.47,0,0,0,.73.19,5.88,5.88,0,0,1,1.29.43,1.92,1.92,0,0,1,.75.6,1.53,1.53,0,0,1,.24.87,1.76,1.76,0,0,1-.17.76,1.79,1.79,0,0,1-.5.6,2.47,2.47,0,0,1-.78.38,3.4,3.4,0,0,1-1,.14,3,3,0,0,1-1.41-.3,2.17,2.17,0,0,1-.88-.78,1.8,1.8,0,0,1-.3-1H116a1.1,1.1,0,0,0,.25.71,1.32,1.32,0,0,0,.58.37,2.29,2.29,0,0,0,.67.11,2,2,0,0,0,.75-.12,1.15,1.15,0,0,0,.46-.32A.74.74,0,0,0,118.82,96.32Zm6.24.6V93.65a1.36,1.36,0,0,0-.15-.65,1,1,0,0,0-.44-.43,1.65,1.65,0,0,0-.74-.15,1.6,1.6,0,0,0-.72.14,1.07,1.07,0,0,0-.48.37.75.75,0,0,0-.17.49h-1.09a1.44,1.44,0,0,1,.18-.68,2,2,0,0,1,.5-.6,2.56,2.56,0,0,1,.8-.43,3.11,3.11,0,0,1,1-.17,2.92,2.92,0,0,1,1.22.24,1.75,1.75,0,0,1,.83.71,2,2,0,0,1,.31,1.17v3a5.43,5.43,0,0,0,0,.67,3.07,3.07,0,0,0,.17.62V98h-1.13a2.1,2.1,0,0,1-.13-.5A4.13,4.13,0,0,1,125.06,96.92Zm.19-2.76v.76h-1.09a4.15,4.15,0,0,0-.83.07,2,2,0,0,0-.61.22,1,1,0,0,0-.37.37.94.94,0,0,0-.13.51,1.14,1.14,0,0,0,.13.55,1,1,0,0,0,.41.39,1.51,1.51,0,0,0,.67.14,1.79,1.79,0,0,0,1.48-.73,1,1,0,0,0,.25-.59l.46.52a1.5,1.5,0,0,1-.22.55,2.53,2.53,0,0,1-.49.57,2.4,2.4,0,0,1-.71.45,2.27,2.27,0,0,1-.93.18,2.41,2.41,0,0,1-1.13-.26,1.88,1.88,0,0,1-.75-.67,1.81,1.81,0,0,1-.26-1,1.87,1.87,0,0,1,.2-.9,1.69,1.69,0,0,1,.57-.65,2.65,2.65,0,0,1,.9-.4,4.85,4.85,0,0,1,1.18-.13ZM128.94,93v5h-1.09V91.66h1Zm-.26,1.58-.45,0a3.87,3.87,0,0,1,.19-1.2,3.13,3.13,0,0,1,.53-1,2.47,2.47,0,0,1,.81-.63,2.38,2.38,0,0,1,1.05-.23,2.74,2.74,0,0,1,.84.13,1.58,1.58,0,0,1,.64.4,1.71,1.71,0,0,1,.41.71,3.65,3.65,0,0,1,.14,1.07V98h-1.09V93.83a1.76,1.76,0,0,0-.15-.79.86.86,0,0,0-.42-.44,1.73,1.73,0,0,0-1.43,0,1.71,1.71,0,0,0-.57.47,2.12,2.12,0,0,0-.37.68A2.37,2.37,0,0,0,128.68,94.59Zm7-2.93V98h-1.09V91.66ZM134.49,90a.69.69,0,0,1,.16-.45.73.73,0,0,1,1,0,.64.64,0,0,1,.16.45.6.6,0,0,1-.16.43.73.73,0,0,1-1,0A.65.65,0,0,1,134.49,90Zm5.57,1.68v.83h-3.43v-.83Zm-2.27-1.54h1.09v6.31a.92.92,0,0,0,.1.49.42.42,0,0,0,.25.21,1,1,0,0,0,.34.06,1.33,1.33,0,0,0,.28,0l.23,0V98l-.34.08a3.37,3.37,0,0,1-.5,0,1.74,1.74,0,0,1-.73-.16,1.25,1.25,0,0,1-.54-.53,2.33,2.33,0,0,1-.19-1Zm7.28,6.8V93.65a1.36,1.36,0,0,0-.15-.65,1,1,0,0,0-.45-.43,1.91,1.91,0,0,0-1.46,0,1.19,1.19,0,0,0-.48.37.81.81,0,0,0-.17.49h-1.08a1.55,1.55,0,0,1,.17-.68,2,2,0,0,1,.51-.6,2.5,2.5,0,0,1,.79-.43,3.17,3.17,0,0,1,1.05-.17,3,3,0,0,1,1.22.24,1.8,1.8,0,0,1,.83.71,2.12,2.12,0,0,1,.3,1.17v3a5.43,5.43,0,0,0,0,.67,2.52,2.52,0,0,0,.18.62V98h-1.14a2.72,2.72,0,0,1-.13-.5A4,4,0,0,1,145.07,96.92Zm.19-2.76v.76h-1.1a4,4,0,0,0-.82.07,1.81,1.81,0,0,0-.61.22,1,1,0,0,0-.38.37.94.94,0,0,0-.13.51,1.15,1.15,0,0,0,.14.55,1,1,0,0,0,.4.39,1.52,1.52,0,0,0,.68.14,1.83,1.83,0,0,0,1.48-.73,1.09,1.09,0,0,0,.24-.59l.47.52a1.54,1.54,0,0,1-.23.55,2.74,2.74,0,0,1-.48.57,2.59,2.59,0,0,1-.72.45,2.25,2.25,0,0,1-.92.18,2.39,2.39,0,0,1-1.13-.26,1.88,1.88,0,0,1-.75-.67,1.73,1.73,0,0,1-.27-1,2,2,0,0,1,.2-.9,1.81,1.81,0,0,1,.58-.65,2.65,2.65,0,0,1,.9-.4,4.74,4.74,0,0,1,1.18-.13Zm5.25-2.5v.83h-3.43v-.83Zm-2.27-1.54h1.09v6.31a.92.92,0,0,0,.1.49.41.41,0,0,0,.26.21.88.88,0,0,0,.33.06l.29,0,.23,0V98l-.34.08a3.37,3.37,0,0,1-.5,0A1.77,1.77,0,0,1,149,98a1.18,1.18,0,0,1-.53-.53,2.18,2.18,0,0,1-.2-1ZM153,91.66V98h-1.09V91.66ZM151.79,90a.64.64,0,0,1,.16-.45.62.62,0,0,1,.48-.18.6.6,0,0,1,.47.18.6.6,0,0,1,.17.45.57.57,0,0,1-.17.43.6.6,0,0,1-.47.18.62.62,0,0,1-.48-.18A.6.6,0,0,1,151.79,90Zm2.62,4.92v-.13a4.09,4.09,0,0,1,.2-1.28,3.19,3.19,0,0,1,.58-1,2.56,2.56,0,0,1,.91-.68,3,3,0,0,1,2.39,0,2.6,2.6,0,0,1,.92.68,3.19,3.19,0,0,1,.58,1,4.09,4.09,0,0,1,.2,1.28v.13a4,4,0,0,1-.2,1.27,3.35,3.35,0,0,1-.58,1,2.79,2.79,0,0,1-.91.68,2.86,2.86,0,0,1-1.2.24,2.92,2.92,0,0,1-1.2-.24,2.79,2.79,0,0,1-.91-.68,3.35,3.35,0,0,1-.58-1A4,4,0,0,1,154.41,94.9Zm1.09-.13v.13a3.7,3.7,0,0,0,.11.9,2.43,2.43,0,0,0,.33.73,1.72,1.72,0,0,0,.57.51,1.57,1.57,0,0,0,.79.19,1.5,1.5,0,0,0,.78-.19,1.45,1.45,0,0,0,.56-.51,2.45,2.45,0,0,0,.34-.73,3.26,3.26,0,0,0,.12-.9v-.13a3.19,3.19,0,0,0-.12-.89,2.4,2.4,0,0,0-.34-.74,1.74,1.74,0,0,0-.56-.52,1.68,1.68,0,0,0-.79-.19,1.61,1.61,0,0,0-.78.19,1.77,1.77,0,0,0-.57.52,2.38,2.38,0,0,0-.33.74A3.62,3.62,0,0,0,155.5,94.77ZM162.63,93v5h-1.08V91.66h1Zm-.26,1.58-.45,0a3.87,3.87,0,0,1,.19-1.2,3.13,3.13,0,0,1,.53-1,2.47,2.47,0,0,1,.81-.63,2.41,2.41,0,0,1,1.05-.23,2.74,2.74,0,0,1,.84.13,1.58,1.58,0,0,1,.64.4,1.71,1.71,0,0,1,.41.71,3.65,3.65,0,0,1,.14,1.07V98h-1.09V93.83a1.93,1.93,0,0,0-.14-.79.92.92,0,0,0-.43-.44,1.47,1.47,0,0,0-.69-.14,1.52,1.52,0,0,0-.74.17,1.71,1.71,0,0,0-.57.47,2.12,2.12,0,0,0-.37.68A2.37,2.37,0,0,0,162.37,94.59Zm9.86-1.67V98h-1.09V91.66h1ZM172,94.59l-.5,0a4.19,4.19,0,0,1,.17-1.2,3,3,0,0,1,.48-1,2.24,2.24,0,0,1,.8-.63,2.76,2.76,0,0,1,1.94-.1A1.66,1.66,0,0,1,176,92.76a3,3,0,0,1,.15,1V98h-1.08V93.83a1.67,1.67,0,0,0-.17-.8,1,1,0,0,0-.47-.43,1.65,1.65,0,0,0-.72-.14,1.61,1.61,0,0,0-.8.17,1.31,1.31,0,0,0-.52.47,2,2,0,0,0-.28.68A4.12,4.12,0,0,0,172,94.59Zm4.11-.6-.73.23a3.1,3.1,0,0,1,.17-1,2.66,2.66,0,0,1,.49-.85,2.13,2.13,0,0,1,.79-.59,2.44,2.44,0,0,1,1.07-.23,2.74,2.74,0,0,1,.9.14,1.68,1.68,0,0,1,.67.41,1.91,1.91,0,0,1,.42.71,3.51,3.51,0,0,1,.14,1V98H179V93.82a1.67,1.67,0,0,0-.17-.82.91.91,0,0,0-.47-.42,1.94,1.94,0,0,0-.72-.12,1.57,1.57,0,0,0-.63.12,1.32,1.32,0,0,0-.46.34,1.42,1.42,0,0,0-.29.49A1.81,1.81,0,0,0,176.12,94Zm6.74-2.33V98h-1.09V91.66ZM181.68,90a.69.69,0,0,1,.16-.45.73.73,0,0,1,1,0A.64.64,0,0,1,183,90a.67.67,0,0,1-1.13.43A.65.65,0,0,1,181.68,90Zm6.61,6.34a.89.89,0,0,0-.11-.43.84.84,0,0,0-.41-.37,3.14,3.14,0,0,0-.94-.3,7.38,7.38,0,0,1-1-.26,3,3,0,0,1-.72-.37,1.57,1.57,0,0,1-.45-.51,1.45,1.45,0,0,1-.16-.68,1.58,1.58,0,0,1,.17-.71,1.92,1.92,0,0,1,.47-.6,2.44,2.44,0,0,1,.75-.4,3.21,3.21,0,0,1,2.26.12,2,2,0,0,1,.83.72,1.82,1.82,0,0,1,.29,1h-1.09a.93.93,0,0,0-.16-.51,1.2,1.2,0,0,0-.45-.41,1.42,1.42,0,0,0-.72-.17,1.69,1.69,0,0,0-.73.14.93.93,0,0,0-.4.35.8.8,0,0,0-.13.44.79.79,0,0,0,.06.32.72.72,0,0,0,.22.25,1.88,1.88,0,0,0,.45.22,7.47,7.47,0,0,0,.73.19,5.88,5.88,0,0,1,1.29.43,1.81,1.81,0,0,1,.74.6,1.46,1.46,0,0,1,.25.87,1.76,1.76,0,0,1-.17.76,1.79,1.79,0,0,1-.5.6,2.47,2.47,0,0,1-.78.38,3.4,3.4,0,0,1-1,.14,3.07,3.07,0,0,1-1.42-.3,2.24,2.24,0,0,1-.88-.78,1.88,1.88,0,0,1-.29-1h1.09a1.1,1.1,0,0,0,.25.71,1.32,1.32,0,0,0,.58.37,2.29,2.29,0,0,0,.67.11,2,2,0,0,0,.75-.12,1.15,1.15,0,0,0,.46-.32A.81.81,0,0,0,188.29,96.32Zm6.2,0a.89.89,0,0,0-.11-.43.82.82,0,0,0-.42-.37,3,3,0,0,0-.93-.3,7.38,7.38,0,0,1-1-.26,3,3,0,0,1-.72-.37,1.57,1.57,0,0,1-.45-.51,1.45,1.45,0,0,1-.16-.68,1.58,1.58,0,0,1,.17-.71,1.92,1.92,0,0,1,.47-.6,2.5,2.5,0,0,1,.74-.4,3,3,0,0,1,1-.15,2.87,2.87,0,0,1,1.3.27,2,2,0,0,1,.83.72,1.82,1.82,0,0,1,.29,1h-1.09a.93.93,0,0,0-.16-.51,1.2,1.2,0,0,0-.45-.41,1.42,1.42,0,0,0-.72-.17,1.69,1.69,0,0,0-.73.14,1,1,0,0,0-.41.35.88.88,0,0,0-.12.44.79.79,0,0,0,.06.32.72.72,0,0,0,.22.25,1.88,1.88,0,0,0,.45.22,6.77,6.77,0,0,0,.73.19,5.61,5.61,0,0,1,1.28.43,1.78,1.78,0,0,1,.75.6,1.46,1.46,0,0,1,.25.87,1.64,1.64,0,0,1-.18.76,1.75,1.75,0,0,1-.49.6,2.58,2.58,0,0,1-.78.38,3.4,3.4,0,0,1-1,.14,3.07,3.07,0,0,1-1.42-.3,2.24,2.24,0,0,1-.88-.78,1.8,1.8,0,0,1-.3-1h1.09a1.17,1.17,0,0,0,.26.71,1.32,1.32,0,0,0,.58.37,2.24,2.24,0,0,0,.67.11,1.94,1.94,0,0,0,.74-.12,1.12,1.12,0,0,0,.47-.32A.81.81,0,0,0,194.49,96.32Zm3.68-4.66V98h-1.09V91.66ZM197,90a.64.64,0,0,1,.16-.45.62.62,0,0,1,.48-.18.6.6,0,0,1,.47.18.6.6,0,0,1,.17.45.57.57,0,0,1-.17.43.6.6,0,0,1-.47.18.62.62,0,0,1-.48-.18A.6.6,0,0,1,197,90Zm2.62,4.92v-.13a4.09,4.09,0,0,1,.2-1.28,3.19,3.19,0,0,1,.58-1,2.56,2.56,0,0,1,.91-.68,3,3,0,0,1,2.39,0,2.6,2.6,0,0,1,.92.68,3.19,3.19,0,0,1,.58,1,4.09,4.09,0,0,1,.2,1.28v.13a4,4,0,0,1-.2,1.27,3.35,3.35,0,0,1-.58,1,2.79,2.79,0,0,1-.91.68,2.86,2.86,0,0,1-1.2.24,2.92,2.92,0,0,1-1.2-.24,2.79,2.79,0,0,1-.91-.68,3.35,3.35,0,0,1-.58-1A4,4,0,0,1,199.62,94.9Zm1.09-.13v.13a3.7,3.7,0,0,0,.11.9,2.43,2.43,0,0,0,.33.73,1.72,1.72,0,0,0,.57.51,1.57,1.57,0,0,0,.79.19,1.5,1.5,0,0,0,.78-.19,1.55,1.55,0,0,0,.57-.51,2.71,2.71,0,0,0,.33-.73,3.26,3.26,0,0,0,.12-.9v-.13a3.19,3.19,0,0,0-.12-.89,2.4,2.4,0,0,0-.34-.74,1.74,1.74,0,0,0-.56-.52,1.68,1.68,0,0,0-.79-.19,1.61,1.61,0,0,0-.78.19,1.77,1.77,0,0,0-.57.52,2.38,2.38,0,0,0-.33.74A3.62,3.62,0,0,0,200.71,94.77ZM207.84,93v5h-1.08V91.66h1Zm-.26,1.58-.45,0a4.19,4.19,0,0,1,.19-1.2,3.13,3.13,0,0,1,.53-1,2.38,2.38,0,0,1,1.86-.86,2.74,2.74,0,0,1,.84.13,1.52,1.52,0,0,1,.64.4,1.71,1.71,0,0,1,.41.71,3.35,3.35,0,0,1,.14,1.07V98h-1.09V93.83a1.93,1.93,0,0,0-.14-.79.88.88,0,0,0-.43-.44,1.47,1.47,0,0,0-.69-.14,1.52,1.52,0,0,0-.74.17,1.71,1.71,0,0,0-.57.47,2.12,2.12,0,0,0-.37.68A2.37,2.37,0,0,0,207.58,94.59Zm5.83,2.84a.65.65,0,0,1,.17-.47.62.62,0,0,1,.5-.19.63.63,0,0,1,.5.19.65.65,0,0,1,.17.47.62.62,0,0,1-.17.45.63.63,0,0,1-.5.19.62.62,0,0,1-.67-.64Zm3.16,0a.7.7,0,0,1,.17-.47.63.63,0,0,1,.5-.19.62.62,0,0,1,.5.19.66.66,0,0,1,.18.47.63.63,0,0,1-.68.64.63.63,0,0,1-.5-.19A.66.66,0,0,1,216.57,97.43Zm3.16,0a.7.7,0,0,1,.17-.47.66.66,0,0,1,.51-.19.63.63,0,0,1,.5.19.7.7,0,0,1,.17.47.66.66,0,0,1-.17.45.63.63,0,0,1-.5.19.62.62,0,0,1-.68-.64Zm3.17,0a.65.65,0,0,1,.17-.47.63.63,0,0,1,.5-.19.62.62,0,0,1,.5.19.66.66,0,0,1,.18.47.63.63,0,0,1-.68.64.63.63,0,0,1-.5-.19A.62.62,0,0,1,222.9,97.43Zm3.16,0a.7.7,0,0,1,.17-.47.66.66,0,0,1,.51-.19.61.61,0,0,1,.49.19.66.66,0,0,1,.18.47.63.63,0,0,1-.18.45.61.61,0,0,1-.49.19.62.62,0,0,1-.68-.64Z"></path></svg>