<svg xmlns="http://www.w3.org/2000/svg" id="Layer_1" data-name="Layer 1" viewBox="0 0 603 149"><defs><style>.cls-1{fill:#55cdd5;}.cls-2{fill:#fff;}.cls-3{fill:none;stroke:#55cdd5;stroke-linecap:round;stroke-dasharray:1 6;}.cls-4{fill:#272c2e;}</style></defs><circle class="cls-1" cx="196" cy="68" r="4"></circle><circle class="cls-1" cx="408" cy="68" r="4"></circle><path class="cls-2" d="M221.37,61.66a2.92,2.92,0,1,0-2.92-2.92A2.92,2.92,0,0,0,221.37,61.66Z"></path><path class="cls-2" d="M231.89,75.19A2.92,2.92,0,1,0,229,72.27,2.92,2.92,0,0,0,231.89,75.19Z"></path><path class="cls-2" d="M231.89,68.28A2.92,2.92,0,1,0,229,65.36,2.92,2.92,0,0,0,231.89,68.28Z"></path><path class="cls-2" d="M232.1,61.25h-3.9a2.33,2.33,0,0,1-2.32-2.32v-.4a2.32,2.32,0,0,1,2.32-2.32h3.9a2.33,2.33,0,0,1,2.33,2.32v.4A2.33,2.33,0,0,1,232.1,61.25Z"></path><path class="cls-2" d="M225.16,68.28a2.92,2.92,0,1,0-2.92-2.92A2.92,2.92,0,0,0,225.16,68.28Z"></path><path class="cls-2" d="M253.91,74.76H251V66.48a3.75,3.75,0,0,0-.58-2.3,2.15,2.15,0,0,0-1.82-.76,2.78,2.78,0,0,0-2.42,1.07,6.36,6.36,0,0,0-.77,3.58v6.69H242.6V61.34h2.23l.4,1.76h.15A3.7,3.7,0,0,1,247,61.62a5.22,5.22,0,0,1,2.34-.52q3.09,0,4.1,2.11h.19a4.1,4.1,0,0,1,1.67-1.55,5.36,5.36,0,0,1,2.48-.56,4.5,4.5,0,0,1,3.5,1.21,5.38,5.38,0,0,1,1.1,3.7v8.75h-2.85V66.48a3.74,3.74,0,0,0-.59-2.3,2.15,2.15,0,0,0-1.83-.76,2.82,2.82,0,0,0-2.43,1,5.37,5.37,0,0,0-.77,3.19Z"></path><path class="cls-2" d="M273.92,65.14h6.53v8.91a19,19,0,0,1-3.08.74,21.22,21.22,0,0,1-3.19.22A8,8,0,0,1,268,72.62a9.58,9.58,0,0,1-2.19-6.73,9,9,0,0,1,2.46-6.71A9.29,9.29,0,0,1,275,56.76a13.28,13.28,0,0,1,5.27,1.07l-1,2.42a10.31,10.31,0,0,0-4.32-1A5.82,5.82,0,0,0,270.47,61a6.92,6.92,0,0,0-1.65,4.88,7.3,7.3,0,0,0,1.49,5,5.39,5.39,0,0,0,4.28,1.69,14.36,14.36,0,0,0,3-.35V67.62h-3.68Z"></path><path class="cls-2" d="M291.22,61.09a7,7,0,0,1,1.42.12l-.28,2.66a5.24,5.24,0,0,0-1.26-.15,3.62,3.62,0,0,0-2.77,1.12,4.08,4.08,0,0,0-1.06,2.9v7h-2.85V61.34h2.23l.38,2.37h.15a5.44,5.44,0,0,1,1.74-1.91A4.08,4.08,0,0,1,291.22,61.09Z"></path><path class="cls-2" d="M303.53,74.76,303,72.89h-.1a5.52,5.52,0,0,1-2,1.67,6.12,6.12,0,0,1-2.52.44,4.28,4.28,0,0,1-3.09-1.07,4,4,0,0,1-1.11-3,3.54,3.54,0,0,1,1.54-3.13,8.88,8.88,0,0,1,4.7-1.15l2.32-.07v-.72a2.69,2.69,0,0,0-.6-1.92,2.46,2.46,0,0,0-1.86-.64,6.5,6.5,0,0,0-2,.3,13.78,13.78,0,0,0-1.82.72l-.92-2a10.13,10.13,0,0,1,2.39-.87,10.85,10.85,0,0,1,2.45-.3,5.78,5.78,0,0,1,3.87,1.12,4.38,4.38,0,0,1,1.31,3.51v9Zm-4.25-1.94a3.5,3.5,0,0,0,2.49-.87,3.17,3.17,0,0,0,.94-2.43V68.35l-1.72.07a5.93,5.93,0,0,0-2.93.67,2,2,0,0,0-.92,1.84,1.82,1.82,0,0,0,.53,1.39A2.27,2.27,0,0,0,299.28,72.82Z"></path><path class="cls-2" d="M320.87,74.76H318V66.48a3.75,3.75,0,0,0-.58-2.3,2.15,2.15,0,0,0-1.82-.76,2.78,2.78,0,0,0-2.42,1.07,6.36,6.36,0,0,0-.77,3.58v6.69h-2.85V61.34h2.23l.4,1.76h.15A3.7,3.7,0,0,1,314,61.62a5.22,5.22,0,0,1,2.34-.52q3.09,0,4.1,2.11h.19a4.1,4.1,0,0,1,1.67-1.55,5.36,5.36,0,0,1,2.48-.56,4.5,4.5,0,0,1,3.5,1.21,5.38,5.38,0,0,1,1.1,3.7v8.75h-2.85V66.48a3.74,3.74,0,0,0-.59-2.3,2.15,2.15,0,0,0-1.83-.76,2.82,2.82,0,0,0-2.43,1,5.37,5.37,0,0,0-.77,3.19Z"></path><path class="cls-2" d="M343.86,69.94a4.45,4.45,0,0,1-1.71,3.71A7.42,7.42,0,0,1,337.43,75a11.32,11.32,0,0,1-4.93-.93V71.33a13.56,13.56,0,0,0,2.58.9,10.87,10.87,0,0,0,2.54.33,4,4,0,0,0,2.54-.66,2.15,2.15,0,0,0,.82-1.76,2.22,2.22,0,0,0-.75-1.69,11.32,11.32,0,0,0-3.11-1.64,8.14,8.14,0,0,1-3.42-2.25,4.77,4.77,0,0,1-1-3,4.27,4.27,0,0,1,1.58-3.5,6.54,6.54,0,0,1,4.24-1.27,12.33,12.33,0,0,1,5.07,1.12l-.92,2.37a11.19,11.19,0,0,0-4.22-1,3.25,3.25,0,0,0-2.14.61,2,2,0,0,0-.73,1.62,2.29,2.29,0,0,0,.29,1.18,3,3,0,0,0,1,.93,15.7,15.7,0,0,0,2.4,1.15,13.22,13.22,0,0,1,2.87,1.52,4.39,4.39,0,0,1,1.33,1.59A4.89,4.89,0,0,1,343.86,69.94Z"></path><path class="cls-2" d="M352.85,75a6.49,6.49,0,0,1-4.9-1.83,6.94,6.94,0,0,1-1.77-5A7.62,7.62,0,0,1,347.82,63a5.66,5.66,0,0,1,4.5-1.88,5.56,5.56,0,0,1,4.2,1.61,6.17,6.17,0,0,1,1.54,4.44v1.54h-8.95a4.37,4.37,0,0,0,1.06,3,3.67,3.67,0,0,0,2.8,1,10.45,10.45,0,0,0,2.22-.22,11.47,11.47,0,0,0,2.2-.75v2.32a8.57,8.57,0,0,1-2.11.7A11.71,11.71,0,0,1,352.85,75Zm-.52-11.76a2.88,2.88,0,0,0-2.18.86,4.1,4.1,0,0,0-1,2.51h6.09a3.72,3.72,0,0,0-.8-2.52A2.74,2.74,0,0,0,352.33,63.25Z"></path><path class="cls-2" d="M364.37,74.76l-5.1-13.43h3L365,69.14a15.59,15.59,0,0,1,.85,3.18h.1a21.64,21.64,0,0,1,.85-3.18l2.73-7.81h3l-5.12,13.43Z"></path><path class="cls-2" d="M383,74.76l-.57-1.87h-.1a5.52,5.52,0,0,1-2,1.67,6.12,6.12,0,0,1-2.52.44,4.28,4.28,0,0,1-3.09-1.07,4,4,0,0,1-1.11-3,3.54,3.54,0,0,1,1.54-3.13,8.88,8.88,0,0,1,4.7-1.15l2.32-.07v-.72a2.69,2.69,0,0,0-.6-1.92,2.46,2.46,0,0,0-1.86-.64,6.5,6.5,0,0,0-2,.3,13.78,13.78,0,0,0-1.82.72l-.92-2a10.13,10.13,0,0,1,2.39-.87,10.85,10.85,0,0,1,2.45-.3,5.78,5.78,0,0,1,3.87,1.12,4.38,4.38,0,0,1,1.31,3.51v9Zm-4.25-1.94a3.5,3.5,0,0,0,2.49-.87,3.17,3.17,0,0,0,.94-2.43V68.35l-1.72.07a5.93,5.93,0,0,0-2.93.67,2,2,0,0,0-.92,1.84,1.82,1.82,0,0,0,.53,1.39A2.27,2.27,0,0,0,378.77,72.82Z"></path><path class="cls-3" d="M83.5,11c48,0,77.5,58,113,58-43,0-97.4-13.5-113-13.5"></path><path class="cls-3" d="M91,97c40,0,60.5-23,105.5-30-34,0-60.6,70.5-111,70.5"></path><rect class="cls-4" width="99" height="26"></rect><path class="cls-2" d="M25.51,14.34h.72a3.49,3.49,0,0,1-.47,1.49,2.57,2.57,0,0,1-1.06,1,3.45,3.45,0,0,1-1.61.34,3,3,0,0,1-1.32-.28,2.8,2.8,0,0,1-1-.78,3.4,3.4,0,0,1-.65-1.22,4.84,4.84,0,0,1-.23-1.57V12.2a4.84,4.84,0,0,1,.23-1.57,3.65,3.65,0,0,1,.65-1.22,2.91,2.91,0,0,1,1-.78,3.06,3.06,0,0,1,1.34-.28,3.34,3.34,0,0,1,1.57.34,2.45,2.45,0,0,1,1.05.94,3.49,3.49,0,0,1,.47,1.5h-.72A2.88,2.88,0,0,0,25.15,10a1.89,1.89,0,0,0-.78-.73A2.67,2.67,0,0,0,23.14,9a2.43,2.43,0,0,0-1.06.23,2.2,2.2,0,0,0-.8.66,2.9,2.9,0,0,0-.5,1,4.59,4.59,0,0,0-.17,1.32v1.08a4.75,4.75,0,0,0,.16,1.29,3.16,3.16,0,0,0,.48,1,2.3,2.3,0,0,0,.79.67,2.26,2.26,0,0,0,1.05.24,2.89,2.89,0,0,0,1.26-.24,1.73,1.73,0,0,0,.79-.72A3.14,3.14,0,0,0,25.51,14.34Zm1.93-.41v-.19a4,4,0,0,1,.2-1.28,2.86,2.86,0,0,1,.57-1,2.65,2.65,0,0,1,.89-.67,2.95,2.95,0,0,1,2.33,0,2.59,2.59,0,0,1,.9.67,2.86,2.86,0,0,1,.57,1,4,4,0,0,1,.2,1.28v.19a4,4,0,0,1-.2,1.28,2.9,2.9,0,0,1-.57,1,2.65,2.65,0,0,1-.89.67,2.95,2.95,0,0,1-2.33,0,2.59,2.59,0,0,1-.9-.67,2.9,2.9,0,0,1-.57-1A4,4,0,0,1,27.44,13.93Zm.7-.19v.19a3.2,3.2,0,0,0,.14,1,2.68,2.68,0,0,0,.41.83,2,2,0,0,0,.67.56,1.92,1.92,0,0,0,.92.2,1.87,1.87,0,0,0,.9-.2,2,2,0,0,0,.67-.56,2.68,2.68,0,0,0,.41-.83,3.53,3.53,0,0,0,.14-1v-.19a3.46,3.46,0,0,0-.14-1,2.58,2.58,0,0,0-.41-.83,2,2,0,0,0-.67-.57,2.1,2.1,0,0,0-1.83,0,2.15,2.15,0,0,0-.67.57,2.8,2.8,0,0,0-.41.83A3.46,3.46,0,0,0,28.14,13.74ZM35.25,12v5h-.7V10.66h.67Zm-.16,1.43-.31-.18a3.34,3.34,0,0,1,.23-1,2.92,2.92,0,0,1,.52-.87,2.37,2.37,0,0,1,.78-.59,2.33,2.33,0,0,1,1-.21,2.81,2.81,0,0,1,.85.13,1.5,1.5,0,0,1,.63.41,1.8,1.8,0,0,1,.4.72,3.41,3.41,0,0,1,.14,1.08V17h-.7V12.87a2.41,2.41,0,0,0-.18-1,1.07,1.07,0,0,0-.52-.53,1.88,1.88,0,0,0-.79-.16,1.7,1.7,0,0,0-.88.23,2.14,2.14,0,0,0-.64.56,2.94,2.94,0,0,0-.38.75A2.63,2.63,0,0,0,35.09,13.44ZM45,15.38a1.2,1.2,0,0,0-.13-.51,1.26,1.26,0,0,0-.5-.46,3.77,3.77,0,0,0-1.07-.36,8.55,8.55,0,0,1-1-.26,3.17,3.17,0,0,1-.69-.35,1.39,1.39,0,0,1-.42-.49,1.48,1.48,0,0,1-.15-.68,1.53,1.53,0,0,1,.15-.67,1.82,1.82,0,0,1,.45-.55,2.12,2.12,0,0,1,.7-.37,3.24,3.24,0,0,1,2.19.11,1.92,1.92,0,0,1,.8.68,1.7,1.7,0,0,1,.28,1h-.7a1.13,1.13,0,0,0-.19-.63,1.49,1.49,0,0,0-.56-.48,2.39,2.39,0,0,0-1.77,0,1.12,1.12,0,0,0-.5.42,1,1,0,0,0-.15.52,1.12,1.12,0,0,0,.06.38.83.83,0,0,0,.25.32,2,2,0,0,0,.51.28,7.53,7.53,0,0,0,.87.25,5.38,5.38,0,0,1,1.25.41,1.78,1.78,0,0,1,.73.6,1.5,1.5,0,0,1,.23.86,1.58,1.58,0,0,1-.16.72,1.64,1.64,0,0,1-.47.55,2.33,2.33,0,0,1-.74.37,3.59,3.59,0,0,1-1,.13A3.08,3.08,0,0,1,42,16.85a2,2,0,0,1-.84-.7,1.66,1.66,0,0,1-.28-.93h.7a1.16,1.16,0,0,0,.31.78,1.47,1.47,0,0,0,.67.4,3.15,3.15,0,0,0,.8.11,2.35,2.35,0,0,0,.9-.15,1.41,1.41,0,0,0,.55-.42A1,1,0,0,0,45,15.38Zm6.34.16V10.66H52V17h-.68Zm.13-1.18h.37a3.8,3.8,0,0,1-.15,1.1,2.49,2.49,0,0,1-.43.88,1.91,1.91,0,0,1-.78.58,2.8,2.8,0,0,1-1.14.21,2.86,2.86,0,0,1-.85-.13,1.77,1.77,0,0,1-.66-.42,1.94,1.94,0,0,1-.42-.75,3.55,3.55,0,0,1-.15-1.11V10.66h.7v4.07a2.62,2.62,0,0,0,.11.85,1.56,1.56,0,0,0,.31.54,1.12,1.12,0,0,0,.47.29,1.79,1.79,0,0,0,.57.09,2.16,2.16,0,0,0,1.22-.3,1.67,1.67,0,0,0,.64-.78A2.85,2.85,0,0,0,51.42,14.36ZM54.49,12v5h-.7V10.66h.67Zm-.13,1.47L54,13.26a4.44,4.44,0,0,1,.21-1,2.89,2.89,0,0,1,.51-.87,2.23,2.23,0,0,1,.77-.59,2.4,2.4,0,0,1,1-.21,2.79,2.79,0,0,1,.84.13,1.56,1.56,0,0,1,.64.39,1.79,1.79,0,0,1,.42.7,3.35,3.35,0,0,1,.14,1V17h-.7V12.8a2.1,2.1,0,0,0-.19-1,1.18,1.18,0,0,0-.55-.51,2,2,0,0,0-.8-.15,1.77,1.77,0,0,0-.92.23,1.89,1.89,0,0,0-.6.56,2.55,2.55,0,0,0-.34.75A3.44,3.44,0,0,0,54.36,13.44Zm4.22-.55h-.47a2.69,2.69,0,0,1,.21-.89,2.38,2.38,0,0,1,.51-.75,2.33,2.33,0,0,1,.77-.52,2.49,2.49,0,0,1,1-.2,2.66,2.66,0,0,1,.88.14,1.48,1.48,0,0,1,.65.41,1.81,1.81,0,0,1,.41.72,3.68,3.68,0,0,1,.14,1.06V17H62V12.86a2.26,2.26,0,0,0-.2-1,1.09,1.09,0,0,0-.54-.52,2,2,0,0,0-.81-.15,2,2,0,0,0-.8.17,1.81,1.81,0,0,0-.58.42,1.87,1.87,0,0,0-.35.56A1.61,1.61,0,0,0,58.58,12.89Zm8.34,4.23a2.83,2.83,0,0,1-1.14-.23,2.54,2.54,0,0,1-.9-.65,2.78,2.78,0,0,1-.6-1,3.85,3.85,0,0,1-.2-1.25v-.26a3.93,3.93,0,0,1,.21-1.32,3.26,3.26,0,0,1,.6-1,2.68,2.68,0,0,1,.87-.65,2.46,2.46,0,0,1,1-.23,2.59,2.59,0,0,1,1.07.22,2.05,2.05,0,0,1,.79.6,2.6,2.6,0,0,1,.48.92,3.89,3.89,0,0,1,.17,1.17v.43H64.5v-.6h4.1V13.2a2.56,2.56,0,0,0-.22-1,1.78,1.78,0,0,0-.59-.76,1.62,1.62,0,0,0-1-.29,1.86,1.86,0,0,0-.82.18,2,2,0,0,0-.64.54,2.8,2.8,0,0,0-.41.83,3.86,3.86,0,0,0-.14,1.05V14a3.1,3.1,0,0,0,.15,1,2.72,2.72,0,0,0,.45.8,2,2,0,0,0,.69.54,2,2,0,0,0,.88.19,2.29,2.29,0,0,0,1-.21,2.25,2.25,0,0,0,.77-.66l.44.34a2.24,2.24,0,0,1-.51.56,2.16,2.16,0,0,1-.73.41A2.8,2.8,0,0,1,66.92,17.12Zm4.46-5.41V17h-.7V10.66h.68Zm2.24-1.1v.65l-.23,0h-.24a1.73,1.73,0,0,0-.81.17,1.68,1.68,0,0,0-.57.46,2,2,0,0,0-.36.69,3.21,3.21,0,0,0-.14.84l-.26.1a5.26,5.26,0,0,1,.13-1.15,2.81,2.81,0,0,1,.4-.93,1.92,1.92,0,0,1,.67-.63,2,2,0,0,1,1-.23,1.09,1.09,0,0,1,.26,0A.69.69,0,0,1,73.62,10.61Zm4.9,4.77a1.07,1.07,0,0,0-.13-.51,1.19,1.19,0,0,0-.5-.46,3.77,3.77,0,0,0-1.07-.36,8.35,8.35,0,0,1-.94-.26,3.17,3.17,0,0,1-.69-.35,1.43,1.43,0,0,1-.43-.49,1.48,1.48,0,0,1-.15-.68,1.41,1.41,0,0,1,.16-.67,1.65,1.65,0,0,1,.44-.55,2.23,2.23,0,0,1,.7-.37,3,3,0,0,1,.94-.14,3,3,0,0,1,1.25.25,1.86,1.86,0,0,1,.8.68,1.7,1.7,0,0,1,.28,1h-.69a1.14,1.14,0,0,0-.2-.63,1.45,1.45,0,0,0-.55-.48,2,2,0,0,0-.89-.18,2.05,2.05,0,0,0-.89.16,1.17,1.17,0,0,0-.5.42,1,1,0,0,0-.15.52.92.92,0,0,0,.07.38.71.71,0,0,0,.24.32,1.89,1.89,0,0,0,.52.28,7.29,7.29,0,0,0,.86.25,5.48,5.48,0,0,1,1.26.41,1.68,1.68,0,0,1,.72.6,1.5,1.5,0,0,1,.24.86,1.59,1.59,0,0,1-.17.72,1.45,1.45,0,0,1-.47.55,2.23,2.23,0,0,1-.74.37,3.48,3.48,0,0,1-1,.13,3.11,3.11,0,0,1-1.36-.27,2.09,2.09,0,0,1-.84-.7,1.74,1.74,0,0,1-.28-.93h.7a1.21,1.21,0,0,0,.31.78,1.52,1.52,0,0,0,.67.4,3.21,3.21,0,0,0,.8.11,2.35,2.35,0,0,0,.9-.15,1.28,1.28,0,0,0,.55-.42A.9.9,0,0,0,78.52,15.38Z"></path><rect class="cls-4" y="41" width="99" height="26"></rect><path class="cls-2" d="M28.24,54v3a2.18,2.18,0,0,1-.51.48,3.3,3.3,0,0,1-1,.46,4.91,4.91,0,0,1-1.5.2,3.47,3.47,0,0,1-1.38-.27,3.22,3.22,0,0,1-1.09-.78,3.67,3.67,0,0,1-.7-1.24,4.83,4.83,0,0,1-.25-1.62v-1a5.19,5.19,0,0,1,.23-1.58,3.37,3.37,0,0,1,.66-1.21,2.91,2.91,0,0,1,1-.77,3.4,3.4,0,0,1,1.38-.27,3.51,3.51,0,0,1,1.6.33,2.53,2.53,0,0,1,1,.9,3,3,0,0,1,.46,1.29h-.72a2.59,2.59,0,0,0-.34-.94,1.8,1.8,0,0,0-.75-.69A2.56,2.56,0,0,0,25.16,50a2.65,2.65,0,0,0-1.11.23,2.22,2.22,0,0,0-.81.65,3,3,0,0,0-.49,1,4.4,4.4,0,0,0-.17,1.3v1a4.76,4.76,0,0,0,.18,1.36,3.32,3.32,0,0,0,.55,1,2.48,2.48,0,0,0,2,.89,4.35,4.35,0,0,0,1.1-.12,2.92,2.92,0,0,0,.74-.29,1.84,1.84,0,0,0,.4-.33v-2.2H25.23V54Zm4.34,4.17a2.87,2.87,0,0,1-1.14-.23,2.73,2.73,0,0,1-.9-.65,2.92,2.92,0,0,1-.59-1A3.6,3.6,0,0,1,29.74,55v-.26A3.69,3.69,0,0,1,30,53.43a2.92,2.92,0,0,1,.6-1,2.54,2.54,0,0,1,.86-.65,2.5,2.5,0,0,1,1-.23,2.62,2.62,0,0,1,1.07.22,2.1,2.1,0,0,1,.78.6,2.62,2.62,0,0,1,.49.92A3.9,3.9,0,0,1,35,54.45v.43h-4.8v-.6h4.11V54.2a2.56,2.56,0,0,0-.22-1,1.73,1.73,0,0,0-.6-.76,1.59,1.59,0,0,0-1-.29,1.9,1.9,0,0,0-.83.18,2,2,0,0,0-.63.54,2.39,2.39,0,0,0-.41.83,3.51,3.51,0,0,0-.14,1V55a3.1,3.1,0,0,0,.15,1,2.49,2.49,0,0,0,.44.8,2.23,2.23,0,0,0,.69.54,2,2,0,0,0,.88.19,2.26,2.26,0,0,0,1-.21,2.19,2.19,0,0,0,.78-.66l.44.34a2.49,2.49,0,0,1-.52.56,2.07,2.07,0,0,1-.73.41A2.8,2.8,0,0,1,32.58,58.12ZM36,54.93v-.19a4,4,0,0,1,.2-1.28,2.86,2.86,0,0,1,.57-1,2.65,2.65,0,0,1,.89-.67,2.95,2.95,0,0,1,2.33,0,2.59,2.59,0,0,1,.9.67,2.86,2.86,0,0,1,.57,1,4,4,0,0,1,.2,1.28v.19a4,4,0,0,1-.2,1.28,2.9,2.9,0,0,1-.57,1,2.65,2.65,0,0,1-.89.67,2.95,2.95,0,0,1-2.33,0,2.59,2.59,0,0,1-.9-.67,2.9,2.9,0,0,1-.57-1A4,4,0,0,1,36,54.93Zm.7-.19v.19a3.2,3.2,0,0,0,.14,1,2.68,2.68,0,0,0,.41.83,2,2,0,0,0,.67.56,1.91,1.91,0,0,0,.91.2,1.88,1.88,0,0,0,.91-.2,2,2,0,0,0,.67-.56,2.68,2.68,0,0,0,.41-.83,3.53,3.53,0,0,0,.14-1v-.19a3.46,3.46,0,0,0-.14-1,2.58,2.58,0,0,0-.41-.83,2,2,0,0,0-.67-.57,2,2,0,0,0-.92-.21,1.91,1.91,0,0,0-.91.21,2,2,0,0,0-.67.57,2.58,2.58,0,0,0-.41.83A3.46,3.46,0,0,0,36.66,54.74Zm10.58-3.08h.65v6.23a3,3,0,0,1-.31,1.42,2.15,2.15,0,0,1-.89.9,2.61,2.61,0,0,1-1.34.32,2.94,2.94,0,0,1-.81-.12,2.78,2.78,0,0,1-.78-.37,2.32,2.32,0,0,1-.62-.59l.4-.43a2.6,2.6,0,0,0,.82.69,2.17,2.17,0,0,0,1,.22,2,2,0,0,0,1-.24A1.59,1.59,0,0,0,47,59a2.44,2.44,0,0,0,.22-1.09V53.05Zm-4.45,3.23v-.12A5,5,0,0,1,43,53.44a3,3,0,0,1,.48-1,2.18,2.18,0,0,1,.77-.65,2.29,2.29,0,0,1,1-.23,2.52,2.52,0,0,1,1,.18,2.29,2.29,0,0,1,.74.53,2.79,2.79,0,0,1,.5.8,5.19,5.19,0,0,1,.28,1.05v1.56a4.22,4.22,0,0,1-.26,1,2.61,2.61,0,0,1-.5.78,2.17,2.17,0,0,1-.75.51,2.59,2.59,0,0,1-1,.18,2.13,2.13,0,0,1-1-.24,2.11,2.11,0,0,1-.77-.66,3.21,3.21,0,0,1-.48-1A4.89,4.89,0,0,1,42.79,54.89Zm.7-.12v.12a4.24,4.24,0,0,0,.12,1,2.33,2.33,0,0,0,.34.82,1.53,1.53,0,0,0,.58.55,1.56,1.56,0,0,0,.82.2,2,2,0,0,0,1-.23,1.81,1.81,0,0,0,.65-.61,3,3,0,0,0,.35-.85V54a4.15,4.15,0,0,0-.2-.63,2,2,0,0,0-.37-.59,1.52,1.52,0,0,0-.58-.44,1.89,1.89,0,0,0-.86-.17,1.57,1.57,0,0,0-.83.2,1.61,1.61,0,0,0-.58.55,2.38,2.38,0,0,0-.34.83A4.22,4.22,0,0,0,43.49,54.77Zm6.94-2.06V58h-.7V51.66h.68Zm2.24-1.1,0,.65-.23,0h-.24a1.71,1.71,0,0,0-.8.17,1.51,1.51,0,0,0-.57.46,2,2,0,0,0-.36.69,3.21,3.21,0,0,0-.14.84l-.26.1a4.71,4.71,0,0,1,.13-1.15,3,3,0,0,1,.39-.93,1.89,1.89,0,0,1,1.64-.86,1.15,1.15,0,0,1,.26,0A.69.69,0,0,1,52.67,51.61Zm4.72,5.25V53.59a1.61,1.61,0,0,0-.18-.78,1.3,1.3,0,0,0-.56-.5,2,2,0,0,0-.89-.18,2.07,2.07,0,0,0-.88.18,1.42,1.42,0,0,0-.6.46,1,1,0,0,0-.22.64h-.7a1.48,1.48,0,0,1,.17-.7,1.85,1.85,0,0,1,.5-.59,2.28,2.28,0,0,1,.77-.42,3.11,3.11,0,0,1,1-.16,2.94,2.94,0,0,1,1.19.23,1.79,1.79,0,0,1,.82.69,2.11,2.11,0,0,1,.29,1.15v3.06a5.31,5.31,0,0,0,0,.68,2.47,2.47,0,0,0,.14.58V58h-.74a2.87,2.87,0,0,1-.11-.53A4.35,4.35,0,0,1,57.39,56.86Zm.17-2.55v.54H56.19a4.13,4.13,0,0,0-1,.1,2.07,2.07,0,0,0-.71.28,1.27,1.27,0,0,0-.45.44,1.22,1.22,0,0,0,0,1.21,1.34,1.34,0,0,0,.49.45,1.64,1.64,0,0,0,.76.16,2.26,2.26,0,0,0,1-.22,2.24,2.24,0,0,0,.75-.56,2.08,2.08,0,0,0,.39-.77l.3.4a1.94,1.94,0,0,1-.28.61,2.74,2.74,0,0,1-.52.57,2.55,2.55,0,0,1-.76.43,2.78,2.78,0,0,1-1,.17,2.32,2.32,0,0,1-1.08-.24,1.76,1.76,0,0,1-.71-.64,1.7,1.7,0,0,1-.26-.92,1.8,1.8,0,0,1,.2-.84,1.83,1.83,0,0,1,.58-.63,2.7,2.7,0,0,1,.91-.4,5,5,0,0,1,1.21-.14Zm3.1-1.43v7.56H60V51.66h.66Zm4.41,1.89v.12a4.89,4.89,0,0,1-.17,1.31,3.19,3.19,0,0,1-.47,1,2,2,0,0,1-.76.66,2.13,2.13,0,0,1-1,.24,2.73,2.73,0,0,1-1-.18,2.19,2.19,0,0,1-.76-.5,2.67,2.67,0,0,1-.51-.76,3.57,3.57,0,0,1-.27-1V54.1a4.6,4.6,0,0,1,.29-1.05,2.61,2.61,0,0,1,.51-.8,2.22,2.22,0,0,1,.75-.53,2.57,2.57,0,0,1,1-.18,2.26,2.26,0,0,1,1,.23,2.1,2.1,0,0,1,.77.65,2.82,2.82,0,0,1,.47,1A5,5,0,0,1,65.07,54.77Zm-.7.12v-.12a4.22,4.22,0,0,0-.12-1,2.6,2.6,0,0,0-.35-.83,1.69,1.69,0,0,0-.58-.55,1.63,1.63,0,0,0-.84-.2,1.89,1.89,0,0,0-.86.17,1.63,1.63,0,0,0-.59.44,2.26,2.26,0,0,0-.37.59,4.15,4.15,0,0,0-.2.63v1.87a3.07,3.07,0,0,0,.36.83,1.74,1.74,0,0,0,.66.6,2.07,2.07,0,0,0,1,.22,1.57,1.57,0,0,0,.83-.2,1.53,1.53,0,0,0,.58-.55,2.7,2.7,0,0,0,.35-.83A4.24,4.24,0,0,0,64.37,54.89ZM67.32,49v9h-.69V49Zm-.15,5.44-.31-.18a3.64,3.64,0,0,1,.22-1,2.94,2.94,0,0,1,.53-.87,2.44,2.44,0,0,1,.77-.59,2.39,2.39,0,0,1,1-.21,2.76,2.76,0,0,1,.85.13,1.6,1.6,0,0,1,.64.41,1.93,1.93,0,0,1,.4.72,3.73,3.73,0,0,1,.14,1.08V58h-.7V53.87a2.39,2.39,0,0,0-.19-1,1.1,1.1,0,0,0-.51-.53,1.92,1.92,0,0,0-.79-.16,1.73,1.73,0,0,0-.89.23,2,2,0,0,0-.63.56,2.68,2.68,0,0,0-.39.75A2.3,2.3,0,0,0,67.17,54.44Zm7.92,2.93,2-5.71h.75L75.14,59a4.42,4.42,0,0,1-.21.48,2,2,0,0,1-.33.5,1.41,1.41,0,0,1-.5.4,1.51,1.51,0,0,1-.73.16l-.29,0a.89.89,0,0,1-.25-.05v-.59l.18,0h.17a1.35,1.35,0,0,0,.64-.13,1.07,1.07,0,0,0,.44-.38,2.64,2.64,0,0,0,.31-.63Zm-1.84-5.71,2,5.44.19.74-.51.28-2.46-6.46Z"></path><rect class="cls-4" y="82" width="99" height="26"></rect><path class="cls-2" d="M22.86,96.34h.72a3.5,3.5,0,0,1-.48,1.49,2.54,2.54,0,0,1-1.05,1,3.48,3.48,0,0,1-1.61.34,3,3,0,0,1-1.32-.28,2.84,2.84,0,0,1-1-.78,3.56,3.56,0,0,1-.65-1.22,5.13,5.13,0,0,1-.23-1.57V94.2a5.13,5.13,0,0,1,.23-1.57,3.5,3.5,0,0,1,.66-1.22,2.79,2.79,0,0,1,1-.78,3.11,3.11,0,0,1,1.35-.28,3.34,3.34,0,0,1,1.57.34,2.43,2.43,0,0,1,1,.94,3.49,3.49,0,0,1,.48,1.5h-.72A3,3,0,0,0,22.49,92a1.78,1.78,0,0,0-.78-.73A2.59,2.59,0,0,0,20.49,91a2.47,2.47,0,0,0-1.07.23,2.17,2.17,0,0,0-.79.66,3.1,3.1,0,0,0-.51,1A5,5,0,0,0,18,94.19v1.08a4.74,4.74,0,0,0,.17,1.29,3.16,3.16,0,0,0,.48,1,2.18,2.18,0,0,0,.78.67,2.27,2.27,0,0,0,1.06.24,3,3,0,0,0,1.26-.24,1.78,1.78,0,0,0,.79-.72A3.14,3.14,0,0,0,22.86,96.34Zm1.93-.41v-.19A4,4,0,0,1,25,94.46a3.2,3.2,0,0,1,.57-1,2.59,2.59,0,0,1,.9-.67,2.74,2.74,0,0,1,1.16-.24,2.78,2.78,0,0,1,1.17.24,2.65,2.65,0,0,1,.89.67,3,3,0,0,1,.58,1,4,4,0,0,1,.2,1.28v.19a4,4,0,0,1-.2,1.28,3.09,3.09,0,0,1-.58,1,2.46,2.46,0,0,1-.89.67,2.74,2.74,0,0,1-1.16.24,2.7,2.7,0,0,1-1.16-.24,2.59,2.59,0,0,1-.9-.67,3.09,3.09,0,0,1-.58-1A4,4,0,0,1,24.79,95.93Zm.69-.19v.19a3.53,3.53,0,0,0,.14,1,2.92,2.92,0,0,0,.41.83,2.13,2.13,0,0,0,.67.56,2,2,0,0,0,.92.2,1.91,1.91,0,0,0,.91-.2,2.13,2.13,0,0,0,.67-.56,2.66,2.66,0,0,0,.4-.83,3.2,3.2,0,0,0,.14-1v-.19a3.14,3.14,0,0,0-.14-1,2.39,2.39,0,0,0-.41-.83,1.94,1.94,0,0,0-.67-.57,2.08,2.08,0,0,0-1.82,0,1.94,1.94,0,0,0-.67.57,2.58,2.58,0,0,0-.41.83A3.46,3.46,0,0,0,25.48,95.74ZM32.6,94v5h-.7V92.66h.67Zm-.16,1.43-.31-.18a3.34,3.34,0,0,1,.23-1.05,2.72,2.72,0,0,1,.52-.87,2.37,2.37,0,0,1,.78-.59,2.31,2.31,0,0,1,1-.21,2.76,2.76,0,0,1,.85.13,1.6,1.6,0,0,1,.64.41,1.8,1.8,0,0,1,.4.72,3.73,3.73,0,0,1,.14,1.08V99H36V94.87a2.25,2.25,0,0,0-.19-1,1.1,1.1,0,0,0-.51-.53,1.92,1.92,0,0,0-.79-.16,1.73,1.73,0,0,0-.89.23,2,2,0,0,0-.63.56,2.68,2.68,0,0,0-.39.75A2.6,2.6,0,0,0,32.44,95.44ZM39.19,94v5H38.5V92.66h.66ZM39,95.44l-.32-.18A3.64,3.64,0,0,1,39,94.21a3.14,3.14,0,0,1,.52-.87,2.6,2.6,0,0,1,.78-.59,2.36,2.36,0,0,1,1-.21,2.76,2.76,0,0,1,.85.13,1.6,1.6,0,0,1,.64.41,1.93,1.93,0,0,1,.4.72,3.73,3.73,0,0,1,.14,1.08V99h-.71V94.87a2.41,2.41,0,0,0-.18-1,1.1,1.1,0,0,0-.51-.53,2,2,0,0,0-.79-.16,1.73,1.73,0,0,0-.89.23,2,2,0,0,0-.63.56,2.68,2.68,0,0,0-.39.75A2.3,2.3,0,0,0,39,95.44Zm8.5,3.68a2.87,2.87,0,0,1-1.14-.23,2.73,2.73,0,0,1-.9-.65,2.76,2.76,0,0,1-.59-1A3.6,3.6,0,0,1,44.7,96v-.26a3.69,3.69,0,0,1,.22-1.32,2.92,2.92,0,0,1,.6-1,2.54,2.54,0,0,1,.86-.65,2.46,2.46,0,0,1,1-.23,2.63,2.63,0,0,1,1.08.22,2.1,2.1,0,0,1,.78.6,2.62,2.62,0,0,1,.49.92,3.9,3.9,0,0,1,.16,1.17v.43h-4.8v-.6h4.1V95.2a2.56,2.56,0,0,0-.21-1,1.73,1.73,0,0,0-.6-.76,1.62,1.62,0,0,0-1-.29,1.89,1.89,0,0,0-.82.18,1.91,1.91,0,0,0-.63.54,2.59,2.59,0,0,0-.42.83,3.86,3.86,0,0,0-.14,1V96a3.1,3.1,0,0,0,.16,1,2.49,2.49,0,0,0,.44.8,2.23,2.23,0,0,0,.69.54,2,2,0,0,0,.88.19,2.26,2.26,0,0,0,1-.21,2.19,2.19,0,0,0,.78-.66l.44.34a2.49,2.49,0,0,1-.52.56,2.16,2.16,0,0,1-.73.41A2.8,2.8,0,0,1,47.54,99.12Zm6.1-.61a2,2,0,0,0,.83-.16,1.54,1.54,0,0,0,.65-.5,1.44,1.44,0,0,0,.29-.81h.67a2,2,0,0,1-.37,1.08,2.26,2.26,0,0,1-.88.73,2.6,2.6,0,0,1-1.19.27,2.72,2.72,0,0,1-1.17-.24,2.31,2.31,0,0,1-.84-.67,3.12,3.12,0,0,1-.52-1A4.55,4.55,0,0,1,50.94,96v-.24a4.55,4.55,0,0,1,.17-1.25,3,3,0,0,1,.52-1,2.24,2.24,0,0,1,.84-.68,2.72,2.72,0,0,1,1.17-.24,2.58,2.58,0,0,1,1.22.28,2.09,2.09,0,0,1,.86.78,2.29,2.29,0,0,1,.36,1.19h-.67a1.79,1.79,0,0,0-.27-.88,1.62,1.62,0,0,0-.63-.56,1.8,1.8,0,0,0-.87-.2,1.87,1.87,0,0,0-.92.21,1.54,1.54,0,0,0-.62.57,2.34,2.34,0,0,0-.35.82,4.21,4.21,0,0,0-.11,1V96a4.46,4.46,0,0,0,.1,1,2.69,2.69,0,0,0,.35.81,1.78,1.78,0,0,0,.62.57A1.93,1.93,0,0,0,53.64,98.51Zm6.25-5.85v.57H56.71v-.57Zm-2-1.63h.7v6.43a1.61,1.61,0,0,0,.11.66.6.6,0,0,0,.31.3,1.06,1.06,0,0,0,.4.08l.31,0,.26,0L60,99a2.09,2.09,0,0,1-.33.07l-.41,0a1.66,1.66,0,0,1-.72-.15,1.06,1.06,0,0,1-.49-.51,2.52,2.52,0,0,1-.17-1Zm4.26,1.63V99h-.7V92.66Zm-.82-1.83a.49.49,0,0,1,.12-.34.47.47,0,0,1,.35-.14.45.45,0,0,1,.35.14.46.46,0,0,1,.14.34.45.45,0,0,1-.14.33.45.45,0,0,1-.35.13.46.46,0,0,1-.35-.13A.48.48,0,0,1,61.32,90.83Zm2.35,5.1v-.19a3.78,3.78,0,0,1,.2-1.28,2.86,2.86,0,0,1,.57-1,2.55,2.55,0,0,1,.89-.67,2.95,2.95,0,0,1,2.33,0,2.55,2.55,0,0,1,.89.67,2.87,2.87,0,0,1,.58,1,4,4,0,0,1,.2,1.28v.19a4,4,0,0,1-.2,1.28,2.92,2.92,0,0,1-.58,1,2.46,2.46,0,0,1-.89.67,2.7,2.7,0,0,1-1.16.24,2.74,2.74,0,0,1-1.16-.24,2.59,2.59,0,0,1-.9-.67,2.9,2.9,0,0,1-.57-1A3.78,3.78,0,0,1,63.67,95.93Zm.7-.19v.19a3.2,3.2,0,0,0,.14,1,2.68,2.68,0,0,0,.41.83,2.1,2.1,0,0,0,.66.56,2,2,0,0,0,.92.2,1.88,1.88,0,0,0,.91-.2,2,2,0,0,0,.67-.56,2.66,2.66,0,0,0,.4-.83,3.2,3.2,0,0,0,.14-1v-.19a3.14,3.14,0,0,0-.14-1,2.39,2.39,0,0,0-.41-.83,2,2,0,0,0-.66-.57,2,2,0,0,0-.92-.21,1.91,1.91,0,0,0-.91.21,2,2,0,0,0-.67.57,2.58,2.58,0,0,0-.41.83A3.46,3.46,0,0,0,64.37,95.74ZM71.48,94v5h-.7V92.66h.67Zm-.16,1.43L71,95.26a3.34,3.34,0,0,1,.23-1.05,2.92,2.92,0,0,1,.52-.87,2.37,2.37,0,0,1,.78-.59,2.33,2.33,0,0,1,1-.21,2.74,2.74,0,0,1,.84.13,1.54,1.54,0,0,1,.64.41,1.8,1.8,0,0,1,.4.72,3.41,3.41,0,0,1,.14,1.08V99h-.7V94.87a2.41,2.41,0,0,0-.18-1,1.12,1.12,0,0,0-.52-.53,1.88,1.88,0,0,0-.79-.16,1.7,1.7,0,0,0-.88.23,2.14,2.14,0,0,0-.64.56,2.94,2.94,0,0,0-.38.75A2.63,2.63,0,0,0,71.32,95.44Zm9.86,1.94a1.2,1.2,0,0,0-.13-.51,1.33,1.33,0,0,0-.5-.46,3.77,3.77,0,0,0-1.07-.36,8,8,0,0,1-1-.26,3.17,3.17,0,0,1-.69-.35,1.43,1.43,0,0,1-.43-.49,1.62,1.62,0,0,1-.14-.68,1.53,1.53,0,0,1,.15-.67,1.68,1.68,0,0,1,.45-.55,2,2,0,0,1,.7-.37,3,3,0,0,1,.93-.14,2.93,2.93,0,0,1,1.25.25,1.89,1.89,0,0,1,.81.68,1.78,1.78,0,0,1,.28,1h-.7a1.13,1.13,0,0,0-.19-.63,1.49,1.49,0,0,0-.56-.48,2.39,2.39,0,0,0-1.77,0,1.12,1.12,0,0,0-.5.42,1,1,0,0,0-.16.52,1.12,1.12,0,0,0,.07.38.83.83,0,0,0,.25.32,2,2,0,0,0,.51.28,7,7,0,0,0,.87.25,5.38,5.38,0,0,1,1.25.41,1.78,1.78,0,0,1,.73.6,1.57,1.57,0,0,1-.41,2.13,2.18,2.18,0,0,1-.73.37,3.59,3.59,0,0,1-1,.13,3.08,3.08,0,0,1-1.36-.27,2,2,0,0,1-.84-.7,1.66,1.66,0,0,1-.28-.93h.69a1.26,1.26,0,0,0,.31.78,1.56,1.56,0,0,0,.68.4,3.15,3.15,0,0,0,.8.11,2.39,2.39,0,0,0,.9-.15,1.41,1.41,0,0,0,.55-.42A1,1,0,0,0,81.18,97.38Z"></path><rect class="cls-4" y="123" width="99" height="26"></rect><path class="cls-2" d="M34.27,132l-3,8h-.75l3.23-8.53h.52ZM37,140l-3-8,0-.51h.52L37.7,140Zm-.53-3v.62H31.89V137Zm3.08-2.28V140h-.7v-6.34h.68Zm2.24-1.1,0,.65-.22,0h-.24a1.73,1.73,0,0,0-.81.17,1.68,1.68,0,0,0-.57.46,1.89,1.89,0,0,0-.36.69,3.21,3.21,0,0,0-.14.84l-.26.1a5.26,5.26,0,0,1,.13-1.15,3.14,3.14,0,0,1,.39-.93,1.89,1.89,0,0,1,1.64-.86,1.09,1.09,0,0,1,.26,0A.69.69,0,0,1,41.74,133.61Zm1.8,1.1V140h-.7v-6.34h.68Zm2.25-1.1,0,.65-.23,0H45.3a1.69,1.69,0,0,0-.8.17,1.62,1.62,0,0,0-.58.46,2.25,2.25,0,0,0-.36.69,3.69,3.69,0,0,0-.14.84l-.25.1a5.27,5.27,0,0,1,.12-1.15,2.91,2.91,0,0,1,.4-.93,1.92,1.92,0,0,1,.67-.63,2,2,0,0,1,1-.23l.27,0A.77.77,0,0,1,45.79,133.61Zm3.43,6.51a2.8,2.8,0,0,1-1.14-.23,2.67,2.67,0,0,1-.91-.65,2.92,2.92,0,0,1-.59-1,3.85,3.85,0,0,1-.2-1.25v-.26a3.93,3.93,0,0,1,.21-1.32,3.26,3.26,0,0,1,.6-1,2.58,2.58,0,0,1,.87-.65,2.46,2.46,0,0,1,1-.23,2.59,2.59,0,0,1,1.07.22,2.13,2.13,0,0,1,.79.6,2.78,2.78,0,0,1,.48.92,3.89,3.89,0,0,1,.17,1.17v.43H46.8v-.6h4.1v-.08a2.56,2.56,0,0,0-.22-1,1.78,1.78,0,0,0-.59-.76,1.62,1.62,0,0,0-1-.29,1.86,1.86,0,0,0-.82.18,2,2,0,0,0-.64.54,2.8,2.8,0,0,0-.41.83,3.86,3.86,0,0,0-.14,1.05V137a3.1,3.1,0,0,0,.15,1,2.72,2.72,0,0,0,.45.8,2,2,0,0,0,.69.54,2,2,0,0,0,.88.19,2.22,2.22,0,0,0,1-.21,2.19,2.19,0,0,0,.78-.66l.44.34a2.44,2.44,0,0,1-.51.56,2.21,2.21,0,0,1-.74.41A2.71,2.71,0,0,1,49.22,140.12Zm7.62-1.26v-3.27a1.61,1.61,0,0,0-.19-.78,1.34,1.34,0,0,0-.55-.5,2,2,0,0,0-.9-.18,2.07,2.07,0,0,0-.88.18,1.55,1.55,0,0,0-.6.46,1,1,0,0,0-.22.64h-.7a1.6,1.6,0,0,1,.17-.7,2,2,0,0,1,.5-.59,2.38,2.38,0,0,1,.77-.42,3.11,3.11,0,0,1,1-.16,3,3,0,0,1,1.2.23,1.82,1.82,0,0,1,.81.69,2,2,0,0,1,.29,1.14v3.07a5.31,5.31,0,0,0,0,.68,2.43,2.43,0,0,0,.15.58V140H57a4,4,0,0,1-.11-.53C56.85,139.26,56.84,139.05,56.84,138.86Zm.16-2.55v.54H55.63a4,4,0,0,0-1,.1,2.12,2.12,0,0,0-.72.28,1.46,1.46,0,0,0-.45.44,1.14,1.14,0,0,0-.15.58,1.24,1.24,0,0,0,.17.63,1.42,1.42,0,0,0,.49.45,1.67,1.67,0,0,0,.76.16,2.23,2.23,0,0,0,1-.22,2.14,2.14,0,0,0,.75-.56,1.94,1.94,0,0,0,.39-.77l.31.4A2,2,0,0,1,57,139a2.49,2.49,0,0,1-.52.57,2.55,2.55,0,0,1-.76.43,2.76,2.76,0,0,1-1,.17,2.34,2.34,0,0,1-1.09-.24,1.76,1.76,0,0,1-.71-.64,1.84,1.84,0,0,1,0-1.76,1.71,1.71,0,0,1,.57-.63,2.7,2.7,0,0,1,.91-.4,4.57,4.57,0,0,1,1.21-.14Zm3.11-1.6V140h-.7v-6.34h.68Zm2.25-1.1,0,.65-.23,0h-.24a1.69,1.69,0,0,0-.8.17,1.62,1.62,0,0,0-.58.46,2.25,2.25,0,0,0-.36.69,3.69,3.69,0,0,0-.14.84l-.25.1a4.71,4.71,0,0,1,.13-1.15,2.69,2.69,0,0,1,.39-.93,1.92,1.92,0,0,1,.67-.63,2,2,0,0,1,1-.23l.27,0A.77.77,0,0,1,62.36,133.61Zm4.89,4.77a1.07,1.07,0,0,0-.13-.51,1.22,1.22,0,0,0-.49-.46,3.85,3.85,0,0,0-1.08-.36,6.66,6.66,0,0,1-.94-.26,3.17,3.17,0,0,1-.69-.35,1.43,1.43,0,0,1-.43-.49,1.48,1.48,0,0,1-.14-.68,1.53,1.53,0,0,1,.15-.67,1.65,1.65,0,0,1,.44-.55,2.17,2.17,0,0,1,.71-.37,3.21,3.21,0,0,1,2.18.11,1.86,1.86,0,0,1,.8.68,1.71,1.71,0,0,1,.29,1h-.7a1.22,1.22,0,0,0-.19-.63,1.57,1.57,0,0,0-.56-.48,2,2,0,0,0-.89-.18,2.05,2.05,0,0,0-.89.16,1.14,1.14,0,0,0-.49.42.93.93,0,0,0-.16.52.92.92,0,0,0,.07.38.8.8,0,0,0,.24.32,2.06,2.06,0,0,0,.52.28,7,7,0,0,0,.87.25,4.92,4.92,0,0,1,1.25.42,1.69,1.69,0,0,1,.73.59,1.57,1.57,0,0,1-.41,2.13,2.23,2.23,0,0,1-.74.37,3.48,3.48,0,0,1-1,.13,3.11,3.11,0,0,1-1.36-.27,2.06,2.06,0,0,1-.83-.7,1.67,1.67,0,0,1-.29-.93h.7a1.26,1.26,0,0,0,.31.78,1.56,1.56,0,0,0,.68.4,2.74,2.74,0,0,0,.79.11,2.25,2.25,0,0,0,.91-.16,1.31,1.31,0,0,0,.55-.41A1,1,0,0,0,67.25,138.38Z"></path><path class="cls-3" d="M515,39c-37.6,0-55.5,29-108,29,51,0,59.2,31,108,31"></path><rect class="cls-4" x="504" y="16" width="99" height="44"></rect><path class="cls-2" d="M532,24.47h2.77a3.68,3.68,0,0,1,1.54.29,2.19,2.19,0,0,1,1,.85A2.45,2.45,0,0,1,537.7,27a2.39,2.39,0,0,1-1,1.92,2.53,2.53,0,0,1-1,.45l-.25.09h-3v-.61H535a2.22,2.22,0,0,0,1.11-.26,1.68,1.68,0,0,0,.67-.68A1.92,1.92,0,0,0,537,27a2,2,0,0,0-.26-1,1.55,1.55,0,0,0-.73-.65,2.8,2.8,0,0,0-1.19-.23h-2V33H532ZM537.3,33l-2.21-3.81h.77l2.21,3.74V33Zm4.66.12a2.87,2.87,0,0,1-1.14-.23,2.73,2.73,0,0,1-.9-.65,2.76,2.76,0,0,1-.59-1,3.6,3.6,0,0,1-.21-1.25v-.26a3.69,3.69,0,0,1,.22-1.32,2.92,2.92,0,0,1,.6-1,2.54,2.54,0,0,1,.86-.65,2.46,2.46,0,0,1,1-.23,2.63,2.63,0,0,1,1.08.22,2.1,2.1,0,0,1,.78.6,2.62,2.62,0,0,1,.49.92,3.9,3.9,0,0,1,.16,1.17v.43h-4.8v-.6h4.11V29.2a2.75,2.75,0,0,0-.22-1,1.8,1.8,0,0,0-.6-.76,1.62,1.62,0,0,0-1-.29,1.89,1.89,0,0,0-.82.18,1.91,1.91,0,0,0-.63.54,2.39,2.39,0,0,0-.41.83,3.51,3.51,0,0,0-.15,1.05V30a3.1,3.1,0,0,0,.16,1,2.49,2.49,0,0,0,.44.8,2.23,2.23,0,0,0,.69.54,2,2,0,0,0,.88.19,2.26,2.26,0,0,0,1-.21,2.19,2.19,0,0,0,.78-.66l.44.34a2.49,2.49,0,0,1-.52.56A2.16,2.16,0,0,1,543,33,2.8,2.8,0,0,1,542,33.12Zm5.55-.79,2-5.67h.73L547.89,33h-.51Zm-1.84-5.67,2.06,5.68.11.66h-.52L545,26.66Zm8.12,6.46a2.8,2.8,0,0,1-1.14-.23,2.67,2.67,0,0,1-.91-.65,2.92,2.92,0,0,1-.59-1A3.6,3.6,0,0,1,551,30v-.26a3.93,3.93,0,0,1,.21-1.32,3.26,3.26,0,0,1,.6-1,2.49,2.49,0,0,1,.87-.65,2.46,2.46,0,0,1,1-.23,2.59,2.59,0,0,1,1.07.22,2.22,2.22,0,0,1,.79.6,2.78,2.78,0,0,1,.48.92,3.89,3.89,0,0,1,.17,1.17v.43h-4.8v-.6h4.1V29.2a2.56,2.56,0,0,0-.22-1,1.73,1.73,0,0,0-.6-.76,1.57,1.57,0,0,0-1-.29,1.86,1.86,0,0,0-.82.18,2,2,0,0,0-.64.54,2.58,2.58,0,0,0-.41.83,3.86,3.86,0,0,0-.14,1.05V30a3.1,3.1,0,0,0,.15,1,2.51,2.51,0,0,0,.45.8,2,2,0,0,0,.69.54,2,2,0,0,0,.88.19,2.25,2.25,0,0,0,1-.21,2.19,2.19,0,0,0,.78-.66L556,32a2.44,2.44,0,0,1-.51.56,2.21,2.21,0,0,1-.74.41A2.71,2.71,0,0,1,553.79,33.12ZM558.25,28v5h-.7V26.66h.67Zm-.16,1.43-.31-.18a3.34,3.34,0,0,1,.23-1.05,2.92,2.92,0,0,1,.52-.87,2.37,2.37,0,0,1,.78-.59,2.31,2.31,0,0,1,1-.21,2.76,2.76,0,0,1,.85.13,1.6,1.6,0,0,1,.64.41,1.8,1.8,0,0,1,.4.72,3.73,3.73,0,0,1,.14,1.08V33h-.7V28.87a2.41,2.41,0,0,0-.18-1,1.16,1.16,0,0,0-.52-.53,1.92,1.92,0,0,0-.79-.16,1.73,1.73,0,0,0-.89.23,2,2,0,0,0-.63.56,2.68,2.68,0,0,0-.39.75A3,3,0,0,0,558.09,29.44Zm10.12,2.1V26.66h.7V33h-.67Zm.13-1.18h.36a4.19,4.19,0,0,1-.14,1.1,2.35,2.35,0,0,1-.44.88,1.94,1.94,0,0,1-.77.58,2.85,2.85,0,0,1-1.15.21,2.91,2.91,0,0,1-.85-.13,1.66,1.66,0,0,1-.65-.42,1.83,1.83,0,0,1-.43-.75,3.55,3.55,0,0,1-.15-1.11V26.66h.7v4.07a2.92,2.92,0,0,0,.11.85,1.44,1.44,0,0,0,.32.54,1.06,1.06,0,0,0,.47.29,1.69,1.69,0,0,0,.56.09,2.14,2.14,0,0,0,1.22-.3,1.62,1.62,0,0,0,.64-.78A2.86,2.86,0,0,0,568.34,30.36Zm4.85,2.76a2.87,2.87,0,0,1-1.14-.23,2.73,2.73,0,0,1-.9-.65,2.92,2.92,0,0,1-.59-1,3.6,3.6,0,0,1-.21-1.25v-.26a3.69,3.69,0,0,1,.22-1.32,2.92,2.92,0,0,1,.6-1,2.54,2.54,0,0,1,.86-.65,2.49,2.49,0,0,1,1-.23,2.63,2.63,0,0,1,1.08.22,2.1,2.1,0,0,1,.78.6,2.62,2.62,0,0,1,.49.92,3.9,3.9,0,0,1,.16,1.17v.43h-4.8v-.6h4.11V29.2a2.75,2.75,0,0,0-.22-1,1.73,1.73,0,0,0-.6-.76,1.62,1.62,0,0,0-1-.29,1.89,1.89,0,0,0-.82.18,2.05,2.05,0,0,0-.64.54,2.56,2.56,0,0,0-.4.83,3.51,3.51,0,0,0-.15,1.05V30a2.84,2.84,0,0,0,.16,1,2.49,2.49,0,0,0,.44.8,2.23,2.23,0,0,0,.69.54,2,2,0,0,0,.88.19,2.26,2.26,0,0,0,1-.21,2.19,2.19,0,0,0,.78-.66l.44.34a2.49,2.49,0,0,1-.52.56,2.16,2.16,0,0,1-.73.41A2.8,2.8,0,0,1,573.19,33.12ZM531.46,50.51a2,2,0,0,0,.83-.16,1.54,1.54,0,0,0,.65-.5,1.44,1.44,0,0,0,.29-.81h.67a2,2,0,0,1-.37,1.08,2.26,2.26,0,0,1-.88.73,2.6,2.6,0,0,1-1.19.27,2.72,2.72,0,0,1-1.17-.24,2.4,2.4,0,0,1-.84-.67,3.12,3.12,0,0,1-.52-1,4.55,4.55,0,0,1-.17-1.25v-.24a4.55,4.55,0,0,1,.17-1.25,3,3,0,0,1,.52-1,2.32,2.32,0,0,1,.84-.68,2.72,2.72,0,0,1,1.17-.24,2.58,2.58,0,0,1,1.22.28,2.09,2.09,0,0,1,.86.78,2.29,2.29,0,0,1,.36,1.19h-.67a1.79,1.79,0,0,0-.27-.88,1.62,1.62,0,0,0-.63-.56,1.8,1.8,0,0,0-.87-.2,1.87,1.87,0,0,0-.92.21,1.54,1.54,0,0,0-.62.57,2.54,2.54,0,0,0-.35.82,4.21,4.21,0,0,0-.11,1V48a4.46,4.46,0,0,0,.1,1,2.69,2.69,0,0,0,.35.81,1.78,1.78,0,0,0,.62.57A1.93,1.93,0,0,0,531.46,50.51Zm3.47-2.58v-.19a4,4,0,0,1,.19-1.28,3.2,3.2,0,0,1,.57-1,2.59,2.59,0,0,1,.9-.67,2.74,2.74,0,0,1,1.16-.24,2.78,2.78,0,0,1,1.17.24,2.65,2.65,0,0,1,.89.67,3,3,0,0,1,.58,1,4,4,0,0,1,.2,1.28v.19a4,4,0,0,1-.2,1.28,3.09,3.09,0,0,1-.58,1,2.46,2.46,0,0,1-.89.67,2.74,2.74,0,0,1-1.16.24,2.7,2.7,0,0,1-1.16-.24,2.59,2.59,0,0,1-.9-.67,3.09,3.09,0,0,1-.58-1A4,4,0,0,1,534.93,47.93Zm.69-.19v.19a3.53,3.53,0,0,0,.14,1,2.92,2.92,0,0,0,.41.83,2.13,2.13,0,0,0,.67.56,2,2,0,0,0,.92.2,1.91,1.91,0,0,0,.91-.2,2,2,0,0,0,.67-.56,2.66,2.66,0,0,0,.4-.83,3.2,3.2,0,0,0,.14-1v-.19a3.14,3.14,0,0,0-.14-1,2.39,2.39,0,0,0-.41-.83,1.94,1.94,0,0,0-.67-.57,2.08,2.08,0,0,0-1.82,0,1.94,1.94,0,0,0-.67.57,2.58,2.58,0,0,0-.41.83A3.46,3.46,0,0,0,535.62,47.74Zm7.2-5.74v9h-.7V42Zm2.69,0v9h-.69V42Zm4.37,9.12a2.83,2.83,0,0,1-1.14-.23,2.67,2.67,0,0,1-.91-.65,2.92,2.92,0,0,1-.59-1A3.6,3.6,0,0,1,547,48v-.26a3.93,3.93,0,0,1,.21-1.32,3.26,3.26,0,0,1,.6-1,2.58,2.58,0,0,1,.87-.65,2.46,2.46,0,0,1,1-.23,2.59,2.59,0,0,1,1.07.22,2.05,2.05,0,0,1,.79.6,2.78,2.78,0,0,1,.48.92,3.89,3.89,0,0,1,.17,1.17v.43h-4.8v-.6h4.1V47.2a2.56,2.56,0,0,0-.22-1,1.78,1.78,0,0,0-.59-.76,1.62,1.62,0,0,0-1-.29,1.86,1.86,0,0,0-.82.18,2,2,0,0,0-.64.54,2.58,2.58,0,0,0-.41.83,3.86,3.86,0,0,0-.14,1V48a3.1,3.1,0,0,0,.15,1,2.72,2.72,0,0,0,.45.8,2,2,0,0,0,.69.54,2,2,0,0,0,.88.19,2.25,2.25,0,0,0,1-.21,2.19,2.19,0,0,0,.78-.66l.44.34a2.44,2.44,0,0,1-.51.56,2.26,2.26,0,0,1-.73.41A2.8,2.8,0,0,1,549.88,51.12Zm6.1-.61a2.08,2.08,0,0,0,.83-.16,1.6,1.6,0,0,0,.65-.5,1.52,1.52,0,0,0,.29-.81h.67a2.06,2.06,0,0,1-.37,1.08,2.41,2.41,0,0,1-.88.73,2.63,2.63,0,0,1-1.19.27,2.72,2.72,0,0,1-1.17-.24,2.44,2.44,0,0,1-.85-.67,3.1,3.1,0,0,1-.51-1,4.2,4.2,0,0,1-.17-1.25v-.24a4.2,4.2,0,0,1,.17-1.25,3,3,0,0,1,.51-1,2.35,2.35,0,0,1,.85-.68,2.64,2.64,0,0,1,1.16-.24,2.55,2.55,0,0,1,1.22.28,2.18,2.18,0,0,1,.87.78,2.29,2.29,0,0,1,.36,1.19h-.67a1.79,1.79,0,0,0-.27-.88,1.62,1.62,0,0,0-.63-.56,1.87,1.87,0,0,0-.88-.2,1.89,1.89,0,0,0-.92.21,1.61,1.61,0,0,0-.62.57,2.53,2.53,0,0,0-.34.82,3.71,3.71,0,0,0-.12,1V48a4.46,4.46,0,0,0,.11,1,2.46,2.46,0,0,0,.35.81,1.7,1.7,0,0,0,.62.57A1.88,1.88,0,0,0,556,50.51Zm6.24-5.85v.57h-3.17v-.57Zm-2-1.63h.69v6.43a1.44,1.44,0,0,0,.12.66.62.62,0,0,0,.3.3,1.11,1.11,0,0,0,.41.08l.3,0,.27,0,0,.59a2,2,0,0,1-.34.07,2.83,2.83,0,0,1-.41,0,1.58,1.58,0,0,1-.71-.15,1.06,1.06,0,0,1-.49-.51,2.36,2.36,0,0,1-.17-1Zm4.25,1.63V51h-.69V44.66Zm-.82-1.83a.49.49,0,0,1,.13-.34.48.48,0,0,1,.83.34.5.5,0,0,1-.83.33A.49.49,0,0,1,563.65,42.83Zm2.35,5.1v-.19a4,4,0,0,1,.2-1.28,3.2,3.2,0,0,1,.57-1,2.59,2.59,0,0,1,.9-.67,2.74,2.74,0,0,1,1.16-.24,2.7,2.7,0,0,1,1.16.24,2.59,2.59,0,0,1,.9.67,3,3,0,0,1,.58,1,4,4,0,0,1,.19,1.28v.19a4,4,0,0,1-.19,1.28,3.09,3.09,0,0,1-.58,1,2.46,2.46,0,0,1-.89.67,2.74,2.74,0,0,1-1.16.24,2.78,2.78,0,0,1-1.17-.24,2.65,2.65,0,0,1-.89-.67,3.09,3.09,0,0,1-.58-1A4,4,0,0,1,566,47.93Zm.7-.19v.19a3.53,3.53,0,0,0,.14,1,2.92,2.92,0,0,0,.41.83,2,2,0,0,0,.67.56,2,2,0,0,0,.92.2,1.91,1.91,0,0,0,.91-.2,2.13,2.13,0,0,0,.67-.56,2.66,2.66,0,0,0,.4-.83,3.53,3.53,0,0,0,.14-1v-.19a3.46,3.46,0,0,0-.14-1,2.58,2.58,0,0,0-.41-.83,1.94,1.94,0,0,0-.67-.57,1.91,1.91,0,0,0-.91-.21,2,2,0,0,0-.92.21,2,2,0,0,0-.66.57,2.58,2.58,0,0,0-.41.83A3.46,3.46,0,0,0,566.7,47.74ZM573.81,46v5h-.69V44.66h.66Zm-.15,1.43-.31-.18a3.64,3.64,0,0,1,.22-1,2.94,2.94,0,0,1,.53-.87,2.37,2.37,0,0,1,.78-.59,2.31,2.31,0,0,1,1-.21,2.76,2.76,0,0,1,.85.13,1.6,1.6,0,0,1,.64.41,1.93,1.93,0,0,1,.4.72,3.73,3.73,0,0,1,.14,1.08V51h-.7V46.87a2.25,2.25,0,0,0-.19-1,1.1,1.1,0,0,0-.51-.53,1.92,1.92,0,0,0-.79-.16,1.73,1.73,0,0,0-.89.23,2,2,0,0,0-.63.56,2.68,2.68,0,0,0-.39.75A2.3,2.3,0,0,0,573.66,47.44Z"></path><rect class="cls-4" x="504" y="75" width="99" height="44"></rect><path class="cls-2" d="M528.83,91.38V92H524v-.62Zm-4.58-7.91V92h-.72V83.47Zm4,3.82v.62H524v-.62Zm.57-3.82v.62H524v-.62Zm1.67,2.19,1.71,2.56,1.72-2.56h.83l-2.15,3.11L534.82,92H534l-1.81-2.68L530.39,92h-.83l2.24-3.23-2.15-3.11Zm6.27,1.22v7.56H536V85.66h.66Zm4.4,1.89v.12A4.9,4.9,0,0,1,541,90.2a3.21,3.21,0,0,1-.48,1,2,2,0,0,1-.75.66,2.17,2.17,0,0,1-1,.24,2.67,2.67,0,0,1-1-.18,2.23,2.23,0,0,1-.77-.5,2.67,2.67,0,0,1-.51-.76,4,4,0,0,1-.26-1V88.1a4.14,4.14,0,0,1,.29-1,2.61,2.61,0,0,1,.51-.8,2.22,2.22,0,0,1,.75-.53,2.5,2.5,0,0,1,1-.18,2.29,2.29,0,0,1,1,.23,2.07,2.07,0,0,1,.76.65,2.84,2.84,0,0,1,.48,1A5,5,0,0,1,541.14,88.77Zm-.7.12v-.12a4.22,4.22,0,0,0-.12-1,2.59,2.59,0,0,0-.34-.83,1.72,1.72,0,0,0-.59-.55,1.58,1.58,0,0,0-.84-.2,1.91,1.91,0,0,0-.86.17,1.72,1.72,0,0,0-.59.44,2.22,2.22,0,0,0-.36.59,3.27,3.27,0,0,0-.2.63v1.87a2.55,2.55,0,0,0,.36.83,1.79,1.79,0,0,0,.65.6,2.12,2.12,0,0,0,1,.22,1.61,1.61,0,0,0,.84-.2,1.69,1.69,0,0,0,.58-.55,2.68,2.68,0,0,0,.34-.83A4.24,4.24,0,0,0,540.44,88.89Zm4.71,3.23a2.83,2.83,0,0,1-1.14-.23,2.67,2.67,0,0,1-.91-.65,2.92,2.92,0,0,1-.59-1,3.85,3.85,0,0,1-.2-1.25v-.26a3.69,3.69,0,0,1,.22-1.32,3.06,3.06,0,0,1,.59-1,2.68,2.68,0,0,1,.87-.65,2.46,2.46,0,0,1,1-.23,2.59,2.59,0,0,1,1.07.22,2.05,2.05,0,0,1,.79.6,2.6,2.6,0,0,1,.48.92,3.89,3.89,0,0,1,.17,1.17v.43h-4.8v-.6h4.1V88.2a2.56,2.56,0,0,0-.22-1,1.78,1.78,0,0,0-.59-.76,1.62,1.62,0,0,0-1-.29,1.86,1.86,0,0,0-.82.18,2.05,2.05,0,0,0-.64.54,2.8,2.8,0,0,0-.41.83,3.86,3.86,0,0,0-.14,1V89a3.1,3.1,0,0,0,.15,1,2.72,2.72,0,0,0,.45.8,2,2,0,0,0,.69.54,2,2,0,0,0,.88.19,2.08,2.08,0,0,0,1.78-.87l.44.34a2.49,2.49,0,0,1-.52.56,2.16,2.16,0,0,1-.73.41A2.8,2.8,0,0,1,545.15,92.12ZM549.61,87v5h-.7V85.66h.67Zm-.16,1.43-.31-.18a3.34,3.34,0,0,1,.23-1.05,2.92,2.92,0,0,1,.52-.87,2.37,2.37,0,0,1,.78-.59,2.33,2.33,0,0,1,1-.21,2.81,2.81,0,0,1,.85.13,1.5,1.5,0,0,1,.63.41,1.8,1.8,0,0,1,.4.72,3.41,3.41,0,0,1,.14,1.08V92H553V87.87a2.41,2.41,0,0,0-.18-1,1.07,1.07,0,0,0-.52-.53,1.88,1.88,0,0,0-.79-.16,1.7,1.7,0,0,0-.88.23,2.14,2.14,0,0,0-.64.56,2.94,2.94,0,0,0-.38.75A2.63,2.63,0,0,0,549.45,88.44Zm10.18,2.33V83h.7v9h-.65Zm-4.4-1.88v-.12a4.61,4.61,0,0,1,.17-1.33,2.85,2.85,0,0,1,.49-1,2.18,2.18,0,0,1,.77-.65,2.25,2.25,0,0,1,1-.23,2.48,2.48,0,0,1,1,.18,2.18,2.18,0,0,1,.74.53,2.57,2.57,0,0,1,.49.8,4.61,4.61,0,0,1,.28,1v1.56a3.78,3.78,0,0,1-.25,1,2.82,2.82,0,0,1-.5.78,2.17,2.17,0,0,1-.75.51,2.62,2.62,0,0,1-1,.18,2.13,2.13,0,0,1-1-.24,2.08,2.08,0,0,1-.76-.66,3,3,0,0,1-.49-1A4.52,4.52,0,0,1,555.23,88.89Zm.7-.12v.12a4.81,4.81,0,0,0,.11,1,2.77,2.77,0,0,0,.34.82,1.6,1.6,0,0,0,1.41.75,2,2,0,0,0,1-.23,1.93,1.93,0,0,0,.66-.61,2.77,2.77,0,0,0,.35-.85V88a3.27,3.27,0,0,0-.2-.63,2.26,2.26,0,0,0-.37-.59,1.55,1.55,0,0,0-.59-.44,1.84,1.84,0,0,0-.85-.17,1.58,1.58,0,0,0-.84.2,1.72,1.72,0,0,0-.59.55,2.83,2.83,0,0,0-.34.83A4.78,4.78,0,0,0,555.93,88.77Zm7-3.11V92h-.7V85.66Zm-.82-1.83a.49.49,0,0,1,.12-.34.47.47,0,0,1,.35-.14.45.45,0,0,1,.35.14.46.46,0,0,1,.14.34.45.45,0,0,1-.14.33.45.45,0,0,1-.35.13.46.46,0,0,1-.35-.13A.48.48,0,0,1,562.14,83.83Zm5.13,1.83v.57h-3.18v-.57Zm-2-1.63h.7v6.43a1.61,1.61,0,0,0,.11.66.6.6,0,0,0,.31.3,1.06,1.06,0,0,0,.4.08l.31,0,.26,0,0,.59a2.09,2.09,0,0,1-.33.07l-.41,0a1.66,1.66,0,0,1-.72-.15,1,1,0,0,1-.48-.51,2.34,2.34,0,0,1-.18-1Zm7.54,6.51V85.66h.7V92h-.67Zm.13-1.18h.36a3.81,3.81,0,0,1-.14,1.1,2.35,2.35,0,0,1-.44.88,1.87,1.87,0,0,1-.77.58,2.83,2.83,0,0,1-1.14.21A2.86,2.86,0,0,1,570,92a1.63,1.63,0,0,1-.66-.42,2.08,2.08,0,0,1-.43-.75,3.9,3.9,0,0,1-.14-1.11v-4h.69v4.07a2.6,2.6,0,0,0,.12.85,1.42,1.42,0,0,0,.31.54,1.12,1.12,0,0,0,.47.29,1.79,1.79,0,0,0,.57.09,2.16,2.16,0,0,0,1.22-.3,1.67,1.67,0,0,0,.64-.78A3.07,3.07,0,0,0,572.93,89.36Zm3.1-2.65V92h-.69V85.66H576Zm2.25-1.1,0,.65-.23,0h-.24a1.71,1.71,0,0,0-.8.17,1.51,1.51,0,0,0-.57.46,2,2,0,0,0-.36.69,3.21,3.21,0,0,0-.14.84l-.26.1a4.71,4.71,0,0,1,.13-1.15,3,3,0,0,1,.39-.93,1.86,1.86,0,0,1,1.64-.86,1.15,1.15,0,0,1,.26,0A.69.69,0,0,1,578.28,85.61Zm3.43,6.51a2.87,2.87,0,0,1-1.14-.23,2.73,2.73,0,0,1-.9-.65,2.76,2.76,0,0,1-.59-1,3.6,3.6,0,0,1-.21-1.25v-.26a3.69,3.69,0,0,1,.22-1.32,2.92,2.92,0,0,1,.6-1,2.54,2.54,0,0,1,.86-.65,2.46,2.46,0,0,1,1-.23,2.63,2.63,0,0,1,1.08.22,2.1,2.1,0,0,1,.78.6,2.62,2.62,0,0,1,.49.92,3.9,3.9,0,0,1,.16,1.17v.43h-4.8v-.6h4.11V88.2a2.75,2.75,0,0,0-.22-1,1.8,1.8,0,0,0-.6-.76,1.62,1.62,0,0,0-1-.29,1.89,1.89,0,0,0-.82.18,2.05,2.05,0,0,0-.64.54,2.56,2.56,0,0,0-.4.83,3.51,3.51,0,0,0-.15,1V89a2.84,2.84,0,0,0,.16,1,2.49,2.49,0,0,0,.44.8,2.23,2.23,0,0,0,.69.54,2,2,0,0,0,.88.19,2.26,2.26,0,0,0,1-.21,2.19,2.19,0,0,0,.78-.66L584,91a2.49,2.49,0,0,1-.52.56,2.16,2.16,0,0,1-.73.41A2.8,2.8,0,0,1,581.71,92.12ZM535,101.47V110h-.72v-8.53Zm2.92,0v.62h-6.55v-.62Zm1.48,3.24V110h-.7v-6.34h.68Zm2.24-1.1v.65l-.23,0h-.24a1.73,1.73,0,0,0-.81.17,1.68,1.68,0,0,0-.57.46,2.15,2.15,0,0,0-.36.69,3.22,3.22,0,0,0-.14.85l-.26.09a5.26,5.26,0,0,1,.13-1.15,2.81,2.81,0,0,1,.4-.93,1.92,1.92,0,0,1,.67-.63,2,2,0,0,1,1-.23,1.24,1.24,0,0,1,.27,0A.69.69,0,0,1,541.59,103.61Zm4.73,5.25v-3.27a1.61,1.61,0,0,0-.19-.78,1.34,1.34,0,0,0-.55-.5,2,2,0,0,0-.9-.17,2.06,2.06,0,0,0-.88.17,1.55,1.55,0,0,0-.6.46,1,1,0,0,0-.22.64h-.7a1.49,1.49,0,0,1,.18-.7,1.82,1.82,0,0,1,.49-.59,2.38,2.38,0,0,1,.77-.42,3.11,3.11,0,0,1,1-.16,3,3,0,0,1,1.2.23,1.76,1.76,0,0,1,.81.69,2,2,0,0,1,.29,1.15v3.06a5.45,5.45,0,0,0,0,.68,3,3,0,0,0,.15.58V110h-.75a4,4,0,0,1-.11-.53C546.33,109.26,546.32,109.06,546.32,108.86Zm.16-2.55v.54h-1.38a4,4,0,0,0-1,.1,2.12,2.12,0,0,0-.72.28,1.46,1.46,0,0,0-.45.44,1.14,1.14,0,0,0-.15.58,1.24,1.24,0,0,0,.17.63,1.42,1.42,0,0,0,.49.45,1.67,1.67,0,0,0,.76.16,2.2,2.2,0,0,0,1-.22,2.14,2.14,0,0,0,.75-.56,2.08,2.08,0,0,0,.39-.77l.31.4a2,2,0,0,1-.28.6,2.61,2.61,0,0,1-.53.58,2.65,2.65,0,0,1-.76.43,2.76,2.76,0,0,1-1,.17,2.34,2.34,0,0,1-1.09-.24,1.76,1.76,0,0,1-.71-.64,1.84,1.84,0,0,1,0-1.76,1.71,1.71,0,0,1,.57-.63,2.7,2.7,0,0,1,.91-.4,5,5,0,0,1,1.21-.14Zm4.75,3.2a2,2,0,0,0,.83-.16,1.54,1.54,0,0,0,.65-.5A1.44,1.44,0,0,0,553,108h.67a1.92,1.92,0,0,1-.37,1.07,2.27,2.27,0,0,1-.88.74,2.6,2.6,0,0,1-1.19.27,2.72,2.72,0,0,1-1.17-.24,2.31,2.31,0,0,1-.84-.67,3.12,3.12,0,0,1-.52-1,4.55,4.55,0,0,1-.17-1.25v-.24a4.55,4.55,0,0,1,.17-1.25,3,3,0,0,1,.52-1,2.24,2.24,0,0,1,.84-.68,2.88,2.88,0,0,1,2.39,0,2.09,2.09,0,0,1,.86.78,2.29,2.29,0,0,1,.36,1.19H553a1.79,1.79,0,0,0-.27-.88,1.62,1.62,0,0,0-.63-.56,1.8,1.8,0,0,0-.87-.2,1.87,1.87,0,0,0-.92.21,1.54,1.54,0,0,0-.62.57,2.34,2.34,0,0,0-.35.82,4.21,4.21,0,0,0-.11,1V107a4.46,4.46,0,0,0,.1,1,2.69,2.69,0,0,0,.35.81,1.78,1.78,0,0,0,.62.57A2.06,2.06,0,0,0,551.23,109.51Zm4.55-8.51v9h-.7v-9Zm4,2.66-3,2.94-1.26,1.22-.1-.68,1-1.1,2.43-2.38Zm-.61,6.34-2.65-3.29.39-.61L560,110Zm2.59-6.34V110h-.69v-6.34Zm-.82-1.83a.49.49,0,0,1,.13-.34.45.45,0,0,1,.35-.14.47.47,0,0,1,.35.14.46.46,0,0,1,.14.34.45.45,0,0,1-.14.33.46.46,0,0,1-.35.13.45.45,0,0,1-.35-.13A.49.49,0,0,1,560.92,101.83Zm3.44,3.18v5h-.7v-6.34h.67Zm-.16,1.43-.31-.18a3.34,3.34,0,0,1,.23-1.05,2.92,2.92,0,0,1,.52-.87,2.37,2.37,0,0,1,.78-.59,2.31,2.31,0,0,1,1-.21,2.76,2.76,0,0,1,.85.13,1.54,1.54,0,0,1,.64.41,1.8,1.8,0,0,1,.4.72,3.41,3.41,0,0,1,.14,1.08V110h-.7v-4.13a2.41,2.41,0,0,0-.18-1,1.12,1.12,0,0,0-.52-.53,1.92,1.92,0,0,0-.79-.16,1.73,1.73,0,0,0-.89.23,2,2,0,0,0-.63.56,3,3,0,0,0-.53,1.5Zm10.23-2.78h.65v6.23a3,3,0,0,1-.32,1.42,2.12,2.12,0,0,1-.88.9,2.63,2.63,0,0,1-1.34.32,2.94,2.94,0,0,1-.81-.12A2.78,2.78,0,0,1,571,112a2.17,2.17,0,0,1-.62-.59l.39-.43a2.63,2.63,0,0,0,.83.69,2.17,2.17,0,0,0,1,.22,2,2,0,0,0,1-.24,1.51,1.51,0,0,0,.63-.69,2.47,2.47,0,0,0,.23-1.09v-4.85ZM570,106.89v-.12a5,5,0,0,1,.16-1.33,3,3,0,0,1,.49-1,2.1,2.1,0,0,1,.77-.65,2.26,2.26,0,0,1,1-.23,2.47,2.47,0,0,1,1,.18,2.09,2.09,0,0,1,.74.53,2.36,2.36,0,0,1,.5.81,4.38,4.38,0,0,1,.28,1v1.56a3.43,3.43,0,0,1-.26,1,2.58,2.58,0,0,1-.49.78,2.17,2.17,0,0,1-.75.51,2.64,2.64,0,0,1-1,.18,2.09,2.09,0,0,1-1-.24,2,2,0,0,1-.77-.66,3.17,3.17,0,0,1-.49-1A4.77,4.77,0,0,1,570,106.89Zm.7-.12v.12a4.81,4.81,0,0,0,.11,1,2.53,2.53,0,0,0,.34.82,1.6,1.6,0,0,0,1.41.75,2,2,0,0,0,1-.23,1.81,1.81,0,0,0,.65-.61,2.77,2.77,0,0,0,.35-.85V106a3.27,3.27,0,0,0-.2-.63,1.8,1.8,0,0,0-.36-.59,1.55,1.55,0,0,0-.59-.44,1.82,1.82,0,0,0-.85-.17,1.63,1.63,0,0,0-.84.2,1.69,1.69,0,0,0-.58.55,2.59,2.59,0,0,0-.34.83A4.78,4.78,0,0,0,570.68,106.77Z"></path></svg>