<svg xmlns="http://www.w3.org/2000/svg" xmlns:xlink="http://www.w3.org/1999/xlink" id="Layer_1" x="0px" y="0px" viewBox="0 0 46.1 46.1" style="enable-background:new 0 0 46.1 46.1;" xml:space="preserve"><style type="text/css">	.st0{fill:url(#SVGID_1_);}	.st1{fill:#14191D;}</style><linearGradient id="SVGID_1_" gradientUnits="userSpaceOnUse" x1="-7.2177" y1="7.6749" x2="54.379" y2="42.8948" gradientTransform="matrix(1 0 0 -1 0 48)">	<stop offset="0" style="stop-color:#33ACD5"></stop>	<stop offset="1" style="stop-color:#8EFFE7"></stop></linearGradient><path class="st0" d="M4.1,0H42c2.2,0,4.1,1.8,4.1,4.1V42c0,2.2-1.8,4.1-4.1,4.1H4.1C1.8,46.1,0,44.2,0,42V4.1C0,1.8,1.8,0,4.1,0z"></path><path id="Path_1" class="st1" d="M25.9,19.9V19c0-0.2-0.1-0.3-0.3-0.3H24c-0.1,0-0.2,0-0.3,0.1s0,0.2,0.1,0.3s0.4,0.4,0.6,0.5 c0.2,0.1,0.3,0.3,0.4,0.4c0.1,0.2,0.1,0.4,0.1,0.6c0,0.3,0,0.7,0,1c0,0.1,0,0.2,0.1,0.3s0.2,0,0.3-0.1c0.2-0.1,0.4-0.3,0.6-0.6 c0.1-0.2,0.2-0.5,0.1-0.8C25.9,20.3,25.9,20.1,25.9,19.9z M13.3,13.6c0-0.4-0.1-0.8-0.3-1.2c-0.2-0.4-0.5-0.7-0.8-0.9 c-0.4-0.3-0.8-0.4-1.2-0.5c-0.4-0.1-0.8-0.1-1.3,0c-0.6,0.2-1.1,0.5-1.5,1c-0.6,0.8-0.7,1.9-0.2,2.8c0.6,1.2,1.4,2.3,2.3,3.2 c0.2,0.2,0.3,0.1,0.4,0c0.9-0.9,1.6-2,2.2-3.1C13.1,14.6,13.3,14.1,13.3,13.6z M18.5,24.6c0,0.4,0.1,0.8,0.3,1.2 c0.6,1.2,1.4,2.3,2.3,3.2c0.1,0.2,0.3,0.2,0.4,0c0.9-1,1.7-2.1,2.3-3.2c0.2-0.5,0.3-1,0.3-1.6c-0.1-0.7-0.5-1.3-1-1.7 c-1.2-0.9-2.8-0.8-3.8,0.2C18.8,23.2,18.5,23.9,18.5,24.6L18.5,24.6z M33.4,7.7c-0.6,0-1.1,0.2-1.5,0.5c-0.4,0.3-0.8,0.7-1,1.2 c-0.1,0.2-0.1,0.4-0.2,0.6c0,0.2,0,0.4,0,0.6c0,0.2,0.1,0.4,0.1,0.6c0.6,1.4,1.4,2.6,2.5,3.6c0.1,0.1,0.2,0.1,0.3,0s0.3-0.4,0.5-0.6 c0.8-0.9,1.5-1.9,2-3.1c0.1-0.2,0.1-0.4,0.1-0.6c0-0.2,0-0.4,0-0.6c0-0.2-0.1-0.4-0.2-0.6c-0.3-0.6-0.8-1.1-1.4-1.3 C34.2,7.8,33.8,7.7,33.4,7.7L33.4,7.7z M22,36.2v1.7c0,0.2,0,0.3,0.2,0.3c0.7,0.2,0.9,0.1,0.9-0.6v-0.2C23,37,23,36.5,23.2,36 c0.2-0.5,0.6-0.9,1-1.1c0.2-0.1,0.4-0.3,0.5-0.6c0.1-0.2,0.1-0.5,0.1-0.8c-0.1-0.4-0.1-0.9,0.1-1.3c0.2-0.4,0.5-0.8,0.8-1 c0.3-0.6,0.3-1.4,0-2.1l0,0c-0.4-0.4-0.8-0.7-1.1-1.1s-0.3-0.2-0.5,0c-0.6,0.9-1.3,1.7-2.1,2.5c-0.1,0.1-0.2,0.2-0.3,0.2 c-0.1,0-0.2,0-0.4,0c-0.2,0-0.3-0.2-0.5-0.3c-0.8-0.7-1.5-1.6-2.1-2.4c-0.1-0.1-0.2-0.3-0.4-0.1c-0.5,0.5-1.2,0.9-1,1.8 c0.2,0.5,0.6,0.9,1.1,1h1.7c0.2,0,0.3,0,0.5,0.2c0.1,0.1,0.1,0.1,0.1,0.2c0,0.1,0,0.2,0,0.2c0,0.2,0,0.4,0,0.6 c-0.1,0.4,0,0.8,0.1,1.2c0.2,0.4,0.4,0.7,0.8,0.9c0.1,0.1,0.2,0.2,0.2,0.3c0.1,0.1,0.1,0.2,0,0.4c0,0.5,0,1.1,0,1.6L22,36.2z  M7.7,23.1c-0.1,0.4-0.1,0.9,0,1.3c0.1,2.1,0.7,4.2,1.7,6.1c0.3,0.5,0.5,0.9,0.9,1.4c0.1,0.2,0.2,0.2,0.4,0c0.2-0.2,0.3-0.3,0.5-0.5 c0.4-0.2,0.7-0.6,0.8-1c0.2-0.4,0.2-0.8,0.1-1.2c0-0.1,0-0.2,0-0.4c0.1-0.1,0.1-0.2,0.2-0.3l1.2-1.1c0.4-0.5,0.4-1.1,0-1.6 c-0.8-0.7-1.5-1.5-2.3-2.2c-0.2-0.2-0.3-0.4-0.3-0.7c0-0.5,0-0.9,0-1.4c0-0.1,0-0.2,0-0.3c0-0.1,0.1-0.2,0.1-0.2 c0.1-0.1,0.1-0.1,0.2-0.1c0.1,0,0.2,0,0.3,0h1.1c0.1,0,0.2,0,0.3,0c0.1,0,0.2-0.1,0.2-0.1c0.5-0.5,1-1,1.6-1.5 c0.1-0.1,0.1-0.1,0.1-0.2c0-0.1,0-0.2,0-0.2c0-0.5,0-1,0-1.5c0-0.1,0-0.3,0.1-0.4c0.1-0.1,0.1-0.2,0.2-0.3c0.6-0.6,1.2-1.1,1.7-1.7 c0.3-0.6,0.3-1.3,0.1-2L17,12.7l-1-0.9c-0.1-0.1-0.1-0.1-0.2-0.1c-0.1,0-0.2,0-0.2-0.1h-1.2c-0.3,0-0.4,0.1-0.2,0.4 c0.6,1,0.6,2.2,0.1,3.3c-0.8,1.6-1.9,3.1-3.2,4.3c-0.1,0.1-0.1,0.1-0.2,0.2c-0.1,0-0.2,0.1-0.3,0.1c-0.1,0-0.2,0-0.3-0.1 c-0.1,0-0.2-0.1-0.2-0.2c-0.4-0.3-0.7-0.7-1-1.1s-0.3-0.3-0.4,0.1C8,20,7.7,21.6,7.7,23.1L7.7,23.1z M34,33.9 c0.2-0.2,0.5-0.4,0.6-0.6c4.8-5.1,5.2-12.8,1-18.4c-0.2-0.3-0.3-0.2-0.5,0c-0.4,0.4-0.8,0.8-1.2,1.2c-0.1,0.1-0.1,0.1-0.2,0.2 c-0.2,0.1-0.4,0.1-0.6,0c-0.1,0-0.2-0.1-0.2-0.2c-1.1-1-2-2.2-2.8-3.5c-0.5-0.7-0.7-1.5-0.7-2.4c0-0.2-0.1-0.3-0.3-0.4 c-2.1-0.9-4.4-1.3-6.7-1.1c-0.3,0-0.4,0.1-0.4,0.4c0,0.9,0,1.9,0,2.8c0,0.1,0,0.2,0,0.3c0,0.1,0.1,0.2,0.2,0.2l1.5,1.5 c0.1,0.1,0.2,0.1,0.2,0.2c0.1,0,0.2,0.1,0.3,0.1c0.7,0,1.4,0,2.1,0c0.1,0,0.3,0,0.4,0.1c0.1,0,0.2,0.1,0.3,0.2 c0.9,0.9,1.7,1.7,2.6,2.5c0.1,0.1,0.2,0.2,0.2,0.3c0.1,0.1,0.1,0.2,0.1,0.4c0,1,0,2,0,3c0,0.1,0,0.3,0,0.4c-0.1,0.1-0.1,0.2-0.2,0.3 c-0.3,0.2-0.6,0.5-0.8,0.9c-0.2,0.4-0.2,0.8-0.1,1.1c0,0,0,0.1,0,0.1c0,0.1,0,0.2,0,0.3c0,0.1,0.1,0.2,0.2,0.3 c0.6,0.5,1.1,1,1.6,1.6c0.1,0.1,0.2,0.2,0.3,0.4c0.1,0.2,0.1,0.3,0.1,0.5c0,0.6,0,1.2,0,1.8c0,0.1,0,0.3,0.1,0.4 c0,0.1,0.1,0.2,0.2,0.3c0.7,0.7,1.4,1.4,2.1,2c0.2,0.1,0.3,0.3,0.4,0.5c0.1,0.2,0.1,0.4,0.1,0.6C33.9,32.7,33.9,33.2,34,33.9 L34,33.9z M16.2,10.3c0.2,0.1,0.3,0.2,0.5,0.3l1.6,1.5c0.1,0.1,0.2,0.2,0.2,0.3c0,0.1,0.1,0.2,0.1,0.3c0,0.6,0,1.3,0,1.9 c0,0.1,0,0.3-0.1,0.4c-0.1,0.1-0.1,0.2-0.2,0.3c-0.6,0.5-1.1,1-1.6,1.6c-0.1,0.1-0.2,0.2-0.3,0.4c-0.1,0.1-0.1,0.3-0.1,0.5 c0,0.4,0,0.9,0,1.3c0,0.1,0,0.3-0.1,0.4c-0.1,0.1-0.1,0.2-0.3,0.3c-0.5,0.5-1,0.9-1.5,1.4c-0.2,0.3-0.5,0.5-0.8,0.6 c-0.3,0.1-0.7,0.2-1,0.1c0,0-0.1,0-0.1,0c-0.1,0-0.2,0.1-0.2,0.2c-0.1,0.3,0,0.6,0.2,0.9c0.6,0.6,1.2,1.2,1.8,1.7 c0.3,0.2,0.5,0.5,0.7,0.9c0.1,0.3,0.2,0.7,0.2,1.1c0,0.3,0,0.7-0.1,1c-0.1,0.3-0.4,0.6-0.6,0.8c-0.4,0.2-0.7,0.5-0.8,0.9 c-0.2,0.4-0.2,0.8-0.1,1.2c0,0.3-0.1,0.5-0.3,0.7c-0.5,0.5-1,1-1.6,1.5c-0.2,0.2-0.2,0.3,0,0.5c2.3,2.6,5.5,4.3,8.9,4.8 c0.3,0.1,0.4,0,0.4-0.3c0-0.9,0-1.8,0-2.7c0-0.1,0-0.2,0-0.3c0-0.1-0.1-0.2-0.2-0.2c-0.4-0.2-0.7-0.5-0.8-0.9 c-0.2-0.4-0.2-0.8-0.1-1.2l0,0c0-0.5,0-0.6-0.6-0.5c-0.5,0.1-0.9,0-1.3-0.1c-0.4-0.2-0.8-0.4-1-0.8c-0.3-0.3-0.5-0.7-0.5-1.1 c-0.1-0.5,0-1,0.2-1.4c0.2-0.5,0.5-0.8,1-1.1c0.4-0.2,0.6-0.8,0.3-1.2c0,0,0,0,0-0.1c-0.3-0.7-0.3-1.5-0.1-2.3 c0.2-0.8,0.7-1.4,1.3-2c1.3-1,3.1-1.2,4.6-0.4c0.1,0,0.3,0.2,0.3,0c0.1-0.2,0.1-0.4,0-0.5c0-0.2-0.1-0.3-0.2-0.5 c-1.1-1-0.9-0.5-0.9-2c0-0.5,0.2-0.7,0.7-0.7h3.1c0.5,0,0.7,0.2,0.7,0.7v3c-0.3,0.8-1,1.4-1.8,1.7h-0.1c-0.2,0-0.3,0.1-0.2,0.3 c0.4,1,0.3,2.1-0.2,3c0,0.1,0,0.2,0,0.3c0,0.1,0.1,0.2,0.2,0.3c0.6,0.5,1.1,1.1,1.7,1.6c0.1,0.1,0.2,0.2,0.2,0.3 c0,0.1,0.1,0.2,0.1,0.4c0,0.6,0,1.2,0,1.9c0,0.2,0,0.3-0.1,0.5c-0.1,0.1-0.2,0.3-0.3,0.4c-0.3,0.2-0.6,0.5-0.7,0.8 c-0.1,0.3-0.2,0.7-0.1,1c0.1,0.3,0,0.7-0.1,1c-0.1,0.3-0.4,0.6-0.7,0.8c-0.3,0.2-0.6,0.5-0.8,0.9c-0.2,0.4-0.2,0.8-0.1,1.2 c0.1,0.6,0,0.7,0.6,0.6c2.8-0.3,5.4-1.3,7.6-3c0.1-0.1,0.2-0.1,0.2-0.2c0-0.1,0-0.2,0-0.3c0-0.8,0-1.5,0-2.3c0-0.1,0-0.2-0.1-0.4 c-0.1-0.1-0.1-0.2-0.2-0.3c-0.8-0.7-1.5-1.4-2.3-2.1c-0.1-0.1-0.2-0.2-0.3-0.3c-0.1-0.1-0.1-0.3-0.1-0.4c0-0.7,0-1.4,0-2 c0-0.1,0-0.2,0-0.3c0-0.1-0.1-0.2-0.2-0.2c-0.3-0.4-0.7-0.7-1.1-1c-0.4-0.3-0.7-0.6-0.9-1c-0.2-0.4-0.2-0.8-0.2-1.2 c-0.1-0.4,0-0.8,0.2-1.2c0.2-0.4,0.4-0.7,0.8-1c0.1-0.1,0.1-0.1,0.2-0.2c0-0.1,0-0.2,0-0.3c0-0.7,0-1.5,0-2.2c0-0.1,0-0.2,0-0.3 c0-0.1-0.1-0.2-0.2-0.2c-0.7-0.7-1.4-1.3-2.1-2c-0.1-0.1-0.2-0.1-0.2-0.2c-0.1,0-0.2-0.1-0.3-0.1c-0.7,0-1.4,0-2,0 c-0.2,0-0.3,0-0.5-0.1c-0.2-0.1-0.3-0.2-0.4-0.3c-0.6-0.6-1.2-1.2-1.9-1.8c-0.1-0.1-0.2-0.2-0.3-0.4c-0.1-0.1-0.1-0.3-0.1-0.4 c0-0.9,0-1.7,0-2.6s0.1-0.9-0.9-0.7C18.6,9.4,17.4,9.8,16.2,10.3L16.2,10.3z M32.7,6.6H34l0.4,0.1c0.8,0.2,1.5,0.6,2.1,1.3 c0.4,0.4,0.6,0.9,0.8,1.4c0.2,0.8,0.2,1.6-0.1,2.4c-0.2,0.6-0.5,1.1-0.8,1.6c-0.2,0.2-0.2,0.4,0,0.6c0,0,0,0,0,0l0,0 c1.1,1.4,2,3.1,2.6,4.8c0.4,1.1,0.6,2.3,0.7,3.4v2.8c-0.1,0.7-0.2,1.5-0.4,2.2c-0.9,3.8-3.3,7.2-6.5,9.4c-3.3,2.3-7.4,3.3-11.4,2.9 c-3.9-0.4-7.5-2-10.2-4.8c-2.7-2.7-4.4-6.2-4.7-10c-0.2-2.5,0.2-5,1.3-7.2c0.1-0.2,0.1-0.5-0.1-0.7c-0.4-0.5-0.7-1.1-1-1.8 c-0.3-0.6-0.3-1.3-0.2-2c0.1-0.7,0.4-1.3,0.8-1.8c0.9-1,2.3-1.6,3.7-1.3c0.7,0.1,1.3,0.3,1.9,0.7c0.1,0.2,0.4,0.2,0.6,0c0,0,0,0,0,0 c0.6-0.4,1.2-0.8,1.8-1.1c3.1-1.6,6.6-2.2,10-1.7c1.4,0.2,2.7,0.5,4,1c0.2,0.1,0.4,0.1,0.5-0.1c0.3-0.5,0.7-1,1.3-1.4 C31.5,6.9,32.1,6.7,32.7,6.6z"></path><path id="Path_2" class="st1" d="M33.9,10.4c0-0.1,0-0.2-0.1-0.3c-0.1-0.1-0.2-0.1-0.2-0.2c-0.1,0-0.2,0-0.3,0c-0.1,0-0.2,0-0.2,0.1 c0,0.1-0.1,0.1-0.1,0.2c0,0.1,0,0.1,0,0.2c0,0.1,0.1,0.3,0.2,0.3c0.2,0.2,0.5,0.2,0.7,0C33.9,10.6,34,10.5,33.9,10.4L33.9,10.4z  M35.1,10.4c0,0.3-0.1,0.6-0.3,0.9c-0.5,0.8-1.6,1-2.5,0.5c-0.3-0.2-0.5-0.4-0.6-0.7c-0.1-0.3-0.2-0.6-0.1-0.9 c0.1-0.3,0.2-0.6,0.4-0.8c0.2-0.2,0.5-0.4,0.7-0.5c0.4-0.2,0.9-0.2,1.3,0c0.2,0.1,0.4,0.2,0.6,0.4c0.2,0.2,0.3,0.3,0.4,0.6 C35.1,10,35.1,10.2,35.1,10.4L35.1,10.4z"></path><path id="Path_3" class="st1" d="M21.9,24.7c0-0.1,0-0.2-0.1-0.3c-0.1-0.1-0.1-0.2-0.2-0.2c-0.1,0-0.2,0-0.3,0 c-0.1,0-0.2,0.1-0.3,0.1c-0.1,0.1-0.1,0.2-0.1,0.2c0,0.1,0,0.2,0,0.3c0,0.1,0.1,0.2,0.2,0.2c0.1,0.1,0.2,0.1,0.3,0.1 c0.2,0,0.3-0.1,0.4-0.2C21.8,24.9,21.9,24.8,21.9,24.7z M21.3,26.3c-0.4,0-0.7-0.1-1-0.3c-0.7-0.4-0.9-1.3-0.6-2 c0.1-0.2,0.2-0.4,0.4-0.5c0.2-0.2,0.4-0.3,0.6-0.4c0.4-0.2,0.9-0.2,1.3,0c0.2,0.1,0.4,0.2,0.6,0.4c0.2,0.2,0.4,0.5,0.5,0.9 c0.1,0.3,0,0.7-0.1,1c-0.1,0.3-0.4,0.6-0.7,0.8C22,26.3,21.6,26.3,21.3,26.3z"></path><path id="Path_4" class="st1" d="M10.5,14.2c0.3,0,0.5-0.2,0.5-0.5c0-0.1-0.1-0.3-0.1-0.3c-0.2-0.2-0.5-0.2-0.7,0 C10,13.4,10,13.6,10,13.7c0,0.1,0.1,0.3,0.1,0.4C10.2,14.1,10.3,14.2,10.5,14.2L10.5,14.2z M10.5,15.4c-0.3,0-0.6-0.1-0.8-0.2 C9.4,15,9.2,14.8,9,14.6c-0.2-0.2-0.3-0.5-0.3-0.8c0-0.3,0-0.5,0.1-0.8c0.1-0.2,0.2-0.4,0.4-0.5c0.2-0.2,0.3-0.3,0.6-0.4 c0.4-0.2,0.9-0.2,1.3,0c0.2,0.1,0.4,0.2,0.6,0.4c0.2,0.2,0.3,0.3,0.4,0.5c0.1,0.2,0.1,0.4,0.1,0.6c0,0.2,0,0.4-0.1,0.6 c-0.1,0.2-0.2,0.4-0.4,0.6c-0.2,0.2-0.4,0.3-0.6,0.4C10.9,15.3,10.7,15.4,10.5,15.4L10.5,15.4z"></path></svg>