<svg xmlns="http://www.w3.org/2000/svg" xmlns:xlink="http://www.w3.org/1999/xlink" id="Layer_1" x="0px" y="0px" viewBox="0 0 46.1 46.1" style="enable-background:new 0 0 46.1 46.1;" xml:space="preserve"><style type="text/css">	.st0{fill:url(#SVGID_1_);}	.st1{fill:#13191D;}</style><linearGradient id="SVGID_1_" gradientUnits="userSpaceOnUse" x1="-7.2177" y1="7.6749" x2="54.379" y2="42.8948" gradientTransform="matrix(1 0 0 -1 0 48)">	<stop offset="0" style="stop-color:#33ACD5"></stop>	<stop offset="1" style="stop-color:#8EFFE7"></stop></linearGradient><path class="st0" d="M4.1,0H42c2.2,0,4.1,1.8,4.1,4.1V42c0,2.2-1.8,4.1-4.1,4.1H4.1C1.8,46.1,0,44.2,0,42V4.1C0,1.8,1.8,0,4.1,0z"></path><path id="Path_5" class="st1" d="M20.9,33.6v-0.8c0-1.1,0.1-2.3-0.1-3.4c-0.1-0.6-0.4-1.1-0.8-1.5c-0.4-0.4-1-0.7-1.6-0.8l-1.2-0.2 c-1.7-0.2-3.2-0.9-4.4-2.1c-0.4-0.5-1-0.9-1.4-1.3c-0.1-0.1-0.2-0.1-0.3-0.2c-0.1-0.1-0.2-0.1-0.3-0.1c-0.2-0.1-0.5-0.1-0.7,0 c-0.1,0-0.2,0.1-0.3,0.1c-0.1,0.1-0.2,0.1-0.3,0.2C9.2,23.6,9.1,23.8,9,24c-0.1,0.2-0.1,0.5,0,0.7c0.1,0.2,0.2,0.5,0.4,0.6l3.4,3.2 c0.1,0.1,0.2,0.2,0.3,0.3c0.1,0.1,0.1,0.3,0.1,0.4c0,0.2-0.1,0.3-0.2,0.4c-0.1,0.1-0.3,0.2-0.4,0.2c-0.2,0-0.4,0-0.5-0.1 c-0.1-0.1-0.2-0.2-0.3-0.2c-1.1-1-2.3-2.1-3.4-3.1c-0.3-0.3-0.6-0.6-0.8-1c-0.2-0.4-0.2-0.8-0.2-1.2c0-0.4,0.2-0.8,0.4-1.2 c0.2-0.4,0.5-0.7,0.9-0.9c0.1-0.1,0.1-0.1,0.1-0.2c0-0.1,0.1-0.1,0.1-0.2c0-1.8,0-3.7,0-5.5c0-0.1,0-0.2,0-0.3 c0-0.1-0.1-0.2-0.1-0.3c-0.1-0.1-0.1-0.2-0.2-0.3c-0.1-0.1-0.2-0.1-0.3-0.2c-0.1-0.1-0.2-0.1-0.3-0.1c-0.1,0-0.2,0-0.3-0.1 c-0.1,0-0.2,0-0.3,0c-0.1,0-0.2,0.1-0.3,0.1c-0.3,0.1-0.5,0.3-0.7,0.6c-0.1,0.2-0.2,0.5-0.2,0.8v8.8c0,0.4,0,0.8,0.1,1.2 c0.2,1.2,0.7,2.4,1.5,3.3c0.8,1,1.8,1.8,3,2.3c1.2,0.5,2.3,1.1,3.5,1.6c0.2,0.1,0.3,0.2,0.4,0.3c0.1,0.1,0.1,0.3,0.1,0.5 c0,0.9,0,1.9,0,2.8c0,0.3,0.1,0.4,0.4,0.4c1.8,0,3.6,0,5.3,0c0.4,0,0.4-0.1,0.4-0.4C20.9,36.1,20.9,34.8,20.9,33.6z M13.7,39 c-0.2-0.1-0.3-0.2-0.4-0.3c-0.1-0.1-0.1-0.3-0.1-0.5c0-1,0-2,0-3c0-0.1,0-0.2-0.1-0.3c-0.1-0.1-0.2-0.2-0.3-0.2 c-1.1-0.5-2.2-1-3.2-1.5c-1.5-0.7-2.8-1.8-3.7-3.1c-0.9-1.3-1.4-2.9-1.3-4.5c0-3,0-6,0-9C4.5,16,4.7,15.4,5,15 c0.3-0.4,0.8-0.8,1.3-1c0.5-0.2,1.1-0.3,1.7-0.2c0.6,0.1,1.1,0.3,1.5,0.6c0.3,0.2,0.5,0.5,0.7,0.9c0.2,0.3,0.2,0.7,0.2,1 c0,1.7,0,3.4,0,5c0,0.2,0.1,0.4,0.4,0.4c0.7,0.1,1.3,0.4,1.8,0.8c0.4,0.4,0.9,0.8,1.4,1.2c1,1,2.3,1.6,3.6,1.8 c0.4,0.1,0.8,0.1,1.2,0.2c0.8,0.1,1.5,0.4,2.1,0.9c0.6,0.4,1,1,1.3,1.7c0.2,0.4,0.3,0.9,0.3,1.4c0,2.8,0,5.7,0,8.5 c0,0.2,0,0.3-0.1,0.5c-0.1,0.1-0.2,0.3-0.4,0.3L13.7,39z"></path><path id="Path_6" class="st1" d="M41.5,26.4c-0.2,1-0.5,2.1-1,3c-0.1,0.1-0.1,0.2-0.2,0.3c-0.1,0.1-0.2,0.1-0.4,0.1 c-0.1,0-0.3,0-0.4,0c-0.1,0-0.2-0.1-0.3-0.2c-0.1-0.1-0.1-0.2-0.2-0.3c0-0.1,0-0.3,0.1-0.4c0.3-0.5,0.5-1,0.7-1.5 c0.2-0.7,0.3-1.4,0.3-2.1c0-2.9,0-5.9,0-8.8c0-0.4-0.1-0.7-0.3-1c-0.1-0.1-0.3-0.2-0.5-0.3c-0.4-0.1-0.8-0.1-1.2,0 c-0.2,0.1-0.3,0.2-0.5,0.3c-0.1,0.1-0.2,0.3-0.3,0.5c-0.1,0.2-0.1,0.3-0.1,0.5c0,1.4,0,2.8,0,4.3c0,0.2,0,0.4,0,0.6 c0,0.2,0,0.4,0.1,0.6c0.1,0.2,0.2,0.4,0.4,0.5c0.5,0.4,0.9,1.1,0.9,1.8c0.1,0.7-0.2,1.4-0.6,1.9c-0.5,0.6-1.2,1.1-1.8,1.7 s-1.3,1.2-2,1.8c-0.1,0.1-0.2,0.2-0.3,0.2c-0.1,0.1-0.3,0.1-0.4,0.1c-0.1,0-0.3-0.1-0.4-0.1c-0.1-0.1-0.2-0.2-0.2-0.3 c0-0.1,0-0.3,0-0.4c0-0.1,0.1-0.2,0.2-0.3c0.2-0.2,0.4-0.4,0.7-0.6l3-2.8c0.1-0.1,0.2-0.3,0.3-0.4c0.1-0.2,0.1-0.5,0.1-0.8 c-0.1-0.3-0.2-0.5-0.4-0.7c-0.1-0.1-0.3-0.2-0.5-0.3c-0.2-0.1-0.4-0.1-0.5-0.1c-0.4,0-0.7,0.1-1,0.4c-0.5,0.5-1.1,1-1.6,1.5 c-1.2,1.1-2.6,1.8-4.2,2l-1.2,0.2c-0.6,0.1-1.1,0.4-1.6,0.8c-0.2,0.2-0.4,0.4-0.5,0.7c-0.1,0.2-0.2,0.5-0.3,0.8 c-0.1,0.3-0.1,0.7-0.1,1v7c0,0.3,0.1,0.4,0.4,0.4c1.8,0,3.6,0,5.4,0c0.3,0,0.4-0.1,0.4-0.4c0-1,0-1.9,0-2.8c0-0.2,0-0.3,0.1-0.5 c0.1-0.2,0.3-0.4,0.5-0.4c0.8-0.4,1.7-0.8,2.5-1.2c0.1-0.1,0.2-0.1,0.3-0.1c0.1,0,0.2,0,0.3,0c0.1,0,0.2,0.1,0.3,0.1 c0.1,0.1,0.2,0.1,0.2,0.2c0.2,0.4,0,0.8-0.5,1s-1.2,0.6-1.8,0.8c-0.1,0-0.2,0.1-0.3,0.2C33,35,32.9,35.1,33,35.3c0,1,0,2,0,3 c0,0.2,0,0.3-0.1,0.5c-0.1,0.2-0.2,0.3-0.4,0.4h-8.3c-0.2-0.1-0.3-0.2-0.4-0.4c-0.1-0.1-0.1-0.3-0.1-0.5c0-2.8,0-5.6,0-8.4 c0-1,0.4-2,1.1-2.8c0.7-0.8,1.7-1.3,2.8-1.4c1-0.1,2-0.3,2.9-0.7c0.5-0.2,0.9-0.5,1.3-0.8l1.8-1.6c0.5-0.5,1.2-0.8,1.9-0.9 c0.3,0,0.3-0.2,0.3-0.4c0-1.6,0-3.3,0-5c0-0.5,0.1-1.1,0.4-1.5c0.3-0.5,0.8-0.8,1.3-1c0.5-0.2,1.1-0.3,1.7-0.2 c0.6,0.1,1.1,0.3,1.5,0.7c0.4,0.4,0.7,0.9,0.9,1.4L41.5,26.4z"></path><path id="Path_7" class="st1" d="M23,13.7c0.7,0,1.5-0.3,2-0.8c0.5-0.5,0.8-1.1,0.9-1.9c0-0.3-0.1-0.7-0.2-1 c-0.1-0.3-0.4-0.6-0.6-0.9c-0.3-0.3-0.6-0.4-0.9-0.6c-0.7-0.3-1.5-0.3-2.2,0c-0.3,0.1-0.7,0.3-0.9,0.6c-0.3,0.2-0.5,0.5-0.6,0.9 c-0.1,0.3-0.2,0.7-0.2,1c0,0.7,0.3,1.4,0.9,1.9C21.6,13.4,22.3,13.7,23,13.7z M23,23h4.7c0.3,0,0.4-0.1,0.4-0.4c0-0.5,0-1.1,0-1.6 c0-0.3,0-0.7-0.1-1c-0.2-0.6-0.4-1.2-0.9-1.8c-0.4-0.5-1-1-1.6-1.3c-1.7-0.9-3.8-0.8-5.4,0.3c-1,0.6-1.7,1.6-1.9,2.7 C18,20.9,18,21.7,18,22.6c0,0.3,0.1,0.4,0.4,0.4L23,23z M23.9,15c0.9,0.1,1.8,0.4,2.6,0.9c0.9,0.5,1.7,1.2,2.2,2.1 c0.5,0.9,0.8,1.9,0.8,2.9c0,0.9,0,1.8,0,2.7c0,0.1,0,0.2,0,0.3c0,0.1-0.1,0.2-0.2,0.3c-0.1,0.1-0.2,0.1-0.3,0.2c-0.1,0-0.2,0-0.4,0 H17.4c-0.1,0-0.2,0-0.4,0c-0.1,0-0.2-0.1-0.3-0.2c-0.1-0.1-0.1-0.2-0.2-0.3c0-0.1,0-0.2,0-0.3V21c0-1.2,0.4-2.5,1.2-3.4 c0.8-1,1.9-1.8,3.1-2.2c0.4-0.1,0.7-0.2,1.1-0.3l0.3-0.1c-0.6-0.1-1.1-0.3-1.6-0.6c-0.5-0.3-0.9-0.7-1.3-1.2 c-0.3-0.4-0.5-0.9-0.6-1.5c-0.1-0.5-0.1-1.1,0-1.6c0.2-0.9,0.8-1.8,1.6-2.3C21.2,7.3,22.2,7,23.2,7c1,0,2,0.4,2.8,1.1 c1.6,1.3,1.9,3.7,0.6,5.3C25.9,14.2,25,14.8,23.9,15L23.9,15z"></path><path id="Path_8" class="st1" d="M37.7,32.2c-0.1,0-0.3,0-0.4-0.1c-0.1-0.1-0.2-0.2-0.3-0.3c0-0.1,0-0.3,0-0.4 c0-0.1,0.1-0.3,0.2-0.4c0.1-0.1,0.2-0.2,0.4-0.2c0.1,0,0.3,0,0.4,0c0.1,0,0.3,0.1,0.3,0.2c0.1,0.1,0.1,0.2,0.1,0.4 c0,0.1,0,0.2,0,0.3c0,0.1-0.1,0.2-0.2,0.2c-0.1,0.1-0.2,0.1-0.2,0.2C37.9,32.2,37.8,32.2,37.7,32.2z"></path></svg>