<svg xmlns="http://www.w3.org/2000/svg" xmlns:xlink="http://www.w3.org/1999/xlink" id="Layer_1" x="0px" y="0px" viewBox="0 0 46.1 46.1" style="enable-background:new 0 0 46.1 46.1;" xml:space="preserve"><style type="text/css">	.st0{fill:url(#SVGID_1_);}	.st1{fill:#13191D;}</style><linearGradient id="SVGID_1_" gradientUnits="userSpaceOnUse" x1="-7.2177" y1="7.6749" x2="54.379" y2="42.8948" gradientTransform="matrix(1 0 0 -1 0 48)">	<stop offset="0" style="stop-color:#33ACD5"></stop>	<stop offset="1" style="stop-color:#8EFFE7"></stop></linearGradient><path class="st0" d="M4.1,0H42c2.2,0,4.1,1.8,4.1,4.1V42c0,2.2-1.8,4.1-4.1,4.1H4.1C1.8,46.1,0,44.2,0,42V4.1C0,1.8,1.8,0,4.1,0z"></path><path id="Path_9" class="st1" d="M14.8,11.2c0-0.3,0-0.5,0-0.8c-0.1-1.2-1.1-2.1-2.3-2c-0.8,0.1-1.5,0.5-1.8,1.2 c-0.1,0.2-0.2,0.5-0.2,0.8c0,0.5,0,1,0,1.5c0,1.2,0.9,2.2,2.1,2.2s2.2-0.9,2.2-2.1C14.9,11.7,14.8,11.4,14.8,11.2z M25.2,11.2v-0.8 c0-1.1-0.9-2.1-2.1-2.1c-1.1-0.1-2,0.7-2.2,1.8c-0.1,0.6-0.1,1.2,0,1.9c0.1,1.2,1.1,2.1,2.3,2c1-0.1,1.8-0.8,1.9-1.7 C25.2,11.9,25.2,11.6,25.2,11.2L25.2,11.2z M30.3,21.1v-0.8c0-0.3-0.1-0.5-0.2-0.8c-0.5-1.1-1.7-1.6-2.8-1.2 c-0.7,0.3-1.2,0.9-1.3,1.7c-0.1,0.6-0.1,1.2,0,1.7c0.1,1.2,1.1,2.1,2.3,2.1c1,0,1.8-0.8,2-1.8C30.4,21.7,30.4,21.4,30.3,21.1 L30.3,21.1z M15.7,20.9c0,0.4,0,0.7,0,0.9c0.1,1.2,1.1,2.1,2.3,2c1-0.1,1.8-0.8,2-1.7c0.1-0.7,0.2-1.4,0.1-2.1c-0.2-1-1-1.8-2-1.8 c-1,0-1.9,0.6-2.2,1.6c-0.1,0.4-0.1,0.7-0.1,1.1L15.7,20.9z M7,17.1c0.2-0.8,0.5-1.5,1.1-2c0.5-0.5,1.1-0.8,1.8-1 c0.3-0.1,0.3-0.1,0.1-0.3c-0.4-0.4-0.6-1-0.6-1.6c-0.1-1-0.1-2,0.2-2.9c0.6-1.7,2.5-2.6,4.2-2c1.3,0.5,2.2,1.8,2.2,3.2 c0,0.6,0,1.2,0,1.8c-0.1,0.6-0.3,1.1-0.6,1.5c-0.1,0.1-0.1,0.2,0.1,0.2c1.5,0.3,2.6,1.4,2.9,2.8c0,0.2,0.2,0.2,0.3,0.2 c1.2,0.3,2.2,1.3,2.4,2.6c0.2,0.9,0.2,1.8,0,2.7c-0.3,1.5-1.7,2.6-3.2,2.6c-0.8,0-1.7,0-2.5,0c-0.3,0-0.5,0.1-0.8,0.3 c-0.1,0.1-0.2,0.1,0,0.3c1,0.7,1.5,1.8,1.4,3c0,0.3,0,0.6,0,1c0,0.2-0.1,0.5-0.3,0.6c-0.2,0.1-0.5,0.1-0.7-0.1 c-0.1-0.1-0.2-0.3-0.2-0.4c0-0.4,0-0.8,0-1.3c0.1-1.1-0.7-2-1.8-2.2c-0.9-0.1-1.8,0.3-2.2,1.1c-0.1,0.3-0.2,0.5-0.3,0.8 c0,0.6,0,1.2,0,1.8c0.1,1,1,1.9,2,1.9c0.7,0,1.3,0,2,0c1.3,0,2.5,0.6,3.2,1.6c0.1,0.1,0.1,0.2,0.3,0c0.6-0.8,1.4-1.4,2.4-1.6l0.1,0 c-0.4-0.4-0.6-1-0.7-1.5c0-0.2-0.1-0.3-0.1-0.5c-0.1-0.7,0-1.4,0.1-2.1c0.3-1.6,1.8-2.8,3.5-2.7c0.1,0,0.3,0,0.4-0.1 c0.5-0.5,1.1-0.8,1.8-0.9c0.2,0,0.2-0.1,0.1-0.3c-0.5-0.7-0.8-1.6-0.7-2.5c0-0.3,0-0.5,0-0.8c0-1.4,0.9-2.7,2.3-3.1 c0.4-0.1,0.4-0.1,0.2-0.5c-0.4-1-1.3-1.7-2.4-1.6c-1.3,0-2.7,0-4,0c-0.4,0-0.9,0.1-1.3,0.3c-0.3,0.2-0.6,0.2-0.8-0.1c0,0,0,0,0,0 v-0.1c-0.2-0.3,0-0.6,0.3-0.8c0.4-0.2,0.9-0.4,1.3-0.5c-0.7-0.9-1-2-0.8-3.2C19.7,9.9,20,9,20.6,8.2c0.9-1,2.2-1.3,3.5-0.9 c1.2,0.4,2.1,1.5,2.2,2.8c0.1,0.7,0.1,1.3,0,2c0,0.6-0.3,1.1-0.6,1.6c-0.2,0.2-0.2,0.3,0.1,0.4c0.9,0.2,1.7,0.7,2.2,1.5 c0.3,0.4,0.5,0.8,0.6,1.2c0,0.2,0.1,0.3,0.3,0.3c1.5,0.3,2.6,1.7,2.5,3.3c0,0.6,0,1.1,0,1.7c-0.2,1.7-1.6,2.9-3.3,2.9h-2 c-0.4,0-0.9,0.1-1.3,0.3c-0.2,0.1-0.2,0.2,0,0.3c1,0.7,1.5,1.8,1.4,3c0,0.3,0,0.6,0,0.9s-0.3,0.7-0.6,0.6s-0.5-0.2-0.5-0.7 c0-0.5,0-1.1,0-1.6c-0.1-0.5-0.4-1-0.8-1.3c-0.2-0.2-0.4-0.3-0.7-0.4c-1-0.3-2,0.1-2.5,1c-0.2,0.3-0.2,0.6-0.3,0.9 c-0.1,0.6,0,1.2,0,1.8c0,0.2,0.1,0.5,0.2,0.7c0.4,0.6,1.1,1,1.8,1c0.8,0,1.6,0,2.5,0c1,0.1,1.9,0.7,2.5,1.6c0.2,0.2,0.2,0.2,0.4,0 c0.5-0.7,1.3-1.2,2.2-1.4c0.3-0.1,0.3-0.1,0.1-0.4c-0.4-0.5-0.6-1.2-0.6-1.9c-0.1-0.7-0.1-1.3,0-2c0.4-1.8,2.1-3,3.9-2.6 c1.3,0.3,2.4,1.3,2.6,2.7c0.1,0.6,0.1,1.2,0,1.9c0,0.2,0,0.3-0.2,0.4c-0.1,0.1-0.3,0.2-0.4,0.2c-0.3,0-0.6-0.3-0.6-0.6l0,0l0,0 c0-0.4,0-0.9,0-1.3c0-1.2-1-2.2-2.2-2.1c0,0,0,0,0,0c-1,0-1.8,0.7-2.1,1.6c-0.2,0.8-0.2,1.7,0,2.5c0.2,0.9,1.1,1.5,2,1.5 c0.8,0,1.7,0,2.5,0c1.8,0.2,3.2,1.7,3.2,3.6c0,1.1,0,2.1,0,3.2c0,0.3-0.1,0.5-0.3,0.7h-0.3c-0.2-0.1-0.4-0.4-0.3-0.7 c0-0.9,0-1.9,0-2.8c0.1-1.2-0.6-2.3-1.7-2.8c-0.4-0.1-0.7-0.2-1.1-0.2h-3.6c-0.3,0-0.5,0-0.8,0.1c-1.2,0.3-2,1.5-1.9,2.7 c0,1,0,1.9,0,2.8c0,0.3-0.1,0.5-0.3,0.7H28c-0.2-0.1-0.4-0.4-0.3-0.7c0-1,0-1.9,0-2.8c0.1-1.2-0.6-2.2-1.7-2.6 c-0.4-0.1-0.7-0.2-1.1-0.2h-3.7c-0.3,0-0.5,0-0.8,0.1c-1.2,0.3-2,1.5-1.9,2.7c0,1,0,1.9,0,2.8c0,0.3-0.1,0.5-0.3,0.7h-0.4 c-0.2-0.1-0.4-0.4-0.3-0.7c0-1.1,0.1-2.2,0-3.3c-0.1-1.3-1.2-2.3-2.5-2.3c-1.4,0-2.8,0-4.2,0c-1.3,0-2.4,1-2.5,2.3 c-0.1,1.1,0,2.2,0,3.3c0,0.3-0.1,0.5-0.3,0.7c-0.2,0-0.6,0.1-0.7,0s0-0.5,0-0.7v-3.6c0-0.1,0-0.2,0.1-0.2c0.3-1.4,1.4-2.5,2.8-2.8 c0.1,0,0.2,0,0.3-0.1C9.7,31,9.4,30,9.5,29.1c0-0.3,0-0.5,0-0.8c0-1.4,0.9-2.6,2.2-3.1C12.1,25,12.6,25,13,25c0.1,0,0.3,0,0.4-0.1 c0.5-0.5,1.1-0.8,1.8-0.9l0.2-0.1c-0.5-0.6-0.7-1.3-0.8-2c-0.1-0.5,0-0.9,0-1.4c-0.1-1.5,0.9-2.9,2.4-3.3c0.2-0.1,0.2-0.2,0.2-0.4 c-0.4-1-1.3-1.7-2.4-1.7c-1.4,0-2.7,0-4,0c-1.4,0-2.5,1-2.6,2.4c-0.1,1.1,0,2.2,0,3.2c0,0.3-0.1,0.6-0.4,0.7c-0.3,0.1-0.6,0-0.7-0.3 L7,17.1z"></path><path id="Path_10" class="st1" d="M35.5,11.3c0-0.4,0-0.7,0-0.9c-0.1-1.2-1.1-2.1-2.3-2c0,0,0,0,0,0c-1.1,0.1-1.9,0.9-2,2 c0,0.5,0,1.1,0,1.6c0,0.2,0.1,0.5,0.1,0.7c0.3,0.7,0.9,1.2,1.7,1.3c1.1,0.2,2.1-0.5,2.4-1.6C35.5,12.1,35.6,11.7,35.5,11.3z  M33.2,15.1c-0.6,0-1.4,0-2.2,0.1c-0.3,0-0.5,0.1-0.7,0.2c-0.3,0.2-0.6,0.1-0.8-0.2c0,0,0,0,0,0l0,0c-0.1-0.3,0-0.6,0.3-0.7l0,0 c0.3-0.1,0.5-0.2,0.8-0.3c0.2,0,0.2-0.1,0.1-0.2c-0.5-0.6-0.7-1.4-0.7-2.2c0-0.6,0-1.2,0.1-1.8C30.5,8.1,32.3,7,34,7.3 c1.5,0.3,2.6,1.7,2.6,3.3c0,0.6,0,1.2,0,1.8c-0.1,0.5-0.3,1.1-0.6,1.5c-0.1,0.2-0.2,0.2,0.1,0.3c1.7,0.4,3,1.9,2.9,3.7v3 c0,0.3-0.1,0.5-0.4,0.6c-0.3,0.1-0.6,0-0.7-0.3c0-0.1,0-0.2,0-0.2v-2.8c0-0.3,0-0.6-0.1-0.9c-0.3-1.2-1.3-2-2.5-2.1L33.2,15.1z"></path></svg>