<svg xmlns="http://www.w3.org/2000/svg" xmlns:xlink="http://www.w3.org/1999/xlink" id="Layer_1" x="0px" y="0px" viewBox="0 0 46.1 46.1" style="enable-background:new 0 0 46.1 46.1;" xml:space="preserve"><style type="text/css">	.st0{fill:url(#SVGID_1_);}	.st1{fill:#13191D;}</style><linearGradient id="SVGID_1_" gradientUnits="userSpaceOnUse" x1="-7.2177" y1="7.6749" x2="54.379" y2="42.8948" gradientTransform="matrix(1 0 0 -1 0 48)">	<stop offset="0" style="stop-color:#33ACD5"></stop>	<stop offset="1" style="stop-color:#8EFFE7"></stop></linearGradient><path class="st0" d="M4.1,0H42c2.2,0,4.1,1.8,4.1,4.1V42c0,2.2-1.8,4.1-4.1,4.1H4.1C1.8,46.1,0,44.2,0,42V4.1C0,1.8,1.8,0,4.1,0z"></path><path class="st1" d="M6.4,20.6v5.2c0,0.2-0.1,0.4,0.2,0.4s0.3-0.2,0.3-0.4s0.1-0.7,0.1-1c0.3-2.9,0.7-5.9,1-8.8 c0.1-0.8,0.2-0.7-0.6-0.9L7,15.1c-0.5-0.1-0.6-0.1-0.6,0.4V20.6z M39.7,20.6v-5.2c0-0.4,0-0.5-0.5-0.4s-0.7,0.2-1,0.2 s-0.4,0.2-0.4,0.5c0.2,1.7,0.3,3.5,0.4,5.2s0.3,3.4,0.4,5c0,0.1,0,0.1,0,0.2c0,0,0.1,0.1,0.1,0.1c0.1,0.1,0.2,0.1,0.3,0.1 c0.1,0,0.2,0,0.3-0.1c0.1-0.1,0.2-0.1,0.2-0.2c0-0.1,0-0.2,0-0.3v-5.1L39.7,20.6z M23.4,12c-0.3,0-0.6,0-0.9,0.1 c-0.2,0-0.4,0.1-0.6,0.1c-2.3,0.7-4.3,2.3-5.4,4.5c-0.1,0.3-0.2,0.6-0.1,0.9c0.1,0.3,0.3,0.5,0.5,0.7c0.7,0.5,1.6,0.7,2.4,0.6 c0.9-0.2,1.8-0.6,2.5-1.2c0.9-0.8,1.7-1.6,2.4-2.6c0.1-0.1,0.2-0.2,0.3-0.3c0.1-0.1,0.3-0.2,0.4-0.2c0.1,0,0.3,0,0.4,0 c0.1,0,0.3,0.1,0.4,0.2c0.1,0.1,0.2,0.2,0.3,0.3c0.1,0.1,0.1,0.3,0.1,0.4c0,0.1,0,0.3,0,0.4c0,0.1-0.1,0.3-0.2,0.4 c-0.3,0.4-0.6,0.8-0.9,1.1c-0.3,0.3-0.2,0.5,0.1,0.8c2.9,2.7,5.8,5.5,8.8,8.2c0.9,0.9,0.9,0.9,2.2,0.5c0.2,0,0.4-0.2,0.4-0.4 c0,0,0,0,0-0.1c-0.2-1.9-0.3-3.7-0.5-5.6c-0.1-1.5-0.2-2.9-0.4-4.3c-0.1-0.8-0.1-0.8-0.9-1c-2.6-0.7-5.1-1.6-7.6-2.6 C26,12.3,24.7,12,23.4,12z M18.9,20.9c-1.2,0-2.3-0.3-3.2-1c-0.7-0.5-1.2-1.2-1.4-2c-0.2-0.8-0.1-1.6,0.4-2.4 c0.4-0.6,0.8-1.2,1.2-1.8c0.1-0.1,0.4-0.3,0.3-0.4s-0.4-0.1-0.6,0c-1.8,0.3-3.5,0.9-5,1.8c-0.1,0-0.1,0.1-0.2,0.1 c0,0.1,0,0.1-0.1,0.2c-0.2,1.9-0.4,3.8-0.7,5.7c-0.2,1.7-0.4,3.5-0.6,5.2c0,0.1,0,0.3,0,0.4c0.1,0.1,0.2,0.3,0.3,0.4l9.1,6.7 c0.2,0.2,0.5,0.3,0.7,0.3c0.1,0,0.3,0,0.4-0.1c0.1-0.1,0.2-0.1,0.3-0.2c0.2-0.2,0.3-0.4,0.2-0.7c0-0.3-0.2-0.5-0.4-0.7 c-0.6-0.6-1.3-1.2-2-1.8c-0.3-0.3-0.7-0.6-1-0.9c-0.1-0.1-0.2-0.3-0.2-0.5c0-0.2,0-0.4,0.1-0.5c0.1-0.2,0.2-0.3,0.3-0.4 c0.2-0.1,0.3-0.2,0.5-0.2c0.2,0,0.4,0,0.6,0.1c0.2,0.1,0.3,0.2,0.5,0.3l4,3.8c0.1,0.1,0.2,0.2,0.4,0.3c0.2,0.1,0.3,0.2,0.5,0.2 c0.4,0,0.8-0.2,1-0.5c0.1-0.2,0.1-0.3,0.1-0.5c-0.1-0.3-0.2-0.5-0.4-0.7l-4-3.8c-0.1-0.1-0.3-0.3-0.4-0.4c-0.3-0.4-0.2-0.9,0.1-1.2 c0.2-0.2,0.4-0.3,0.6-0.3c0.2,0,0.4,0,0.7,0.1c0.2,0.1,0.4,0.3,0.6,0.5l5.4,5c0.1,0.1,0.3,0.2,0.4,0.4c0.1,0.1,0.3,0.2,0.5,0.2 c0.2,0,0.3,0,0.5-0.1c0.2-0.1,0.3-0.2,0.4-0.3c0.1-0.1,0.1-0.3,0.1-0.5c0-0.2-0.1-0.3-0.1-0.5c-0.1-0.1-0.2-0.3-0.3-0.4l-4.3-4.1 c-0.4-0.4-0.9-0.8-1.3-1.2c-0.1-0.1-0.3-0.3-0.3-0.5c0-0.2,0-0.4,0.1-0.6c0.1-0.2,0.2-0.3,0.3-0.4c0.2-0.1,0.3-0.2,0.5-0.2 c0.2,0,0.4,0,0.6,0.1c0.2,0.1,0.3,0.2,0.5,0.4l6.9,6.5c0.1,0.1,0.3,0.3,0.4,0.4c0.2,0.1,0.4,0.2,0.7,0.2c0.2,0,0.4-0.1,0.6-0.3 c0.2-0.2,0.3-0.4,0.3-0.6c0-0.2-0.1-0.4-0.2-0.6c-0.1-0.1-0.2-0.3-0.3-0.4l-9.2-8.7c-0.2-0.2-0.5-0.3-0.7-0.1c0,0-0.1,0.1-0.1,0.1 C21.7,20.4,20.3,20.9,18.9,20.9L18.9,20.9z M19.9,36.1h-1.4c-0.5-0.1-0.9-0.3-1.3-0.6c-2.7-2-5.4-4-8.1-6c-0.5-0.4-1-0.7-1.6-1 c-0.6-0.2-1.3-0.3-1.9-0.2c-0.6,0.1-1.2-0.2-1.3-0.8c0-0.1,0-0.3,0-0.4V13.8c0-0.2,0-0.4,0.1-0.6c0.1-0.2,0.2-0.3,0.4-0.4 c0.2-0.1,0.4-0.2,0.6-0.2c0.2,0,0.4,0,0.6,0.1c1,0.2,2,0.5,2.9,0.7c0.1,0,0.3,0,0.4,0c0.2,0,0.3-0.1,0.4-0.2c1.3-0.7,2.6-1.3,4-1.7 c1.4-0.4,2.8-0.5,4.3-0.2c0.2,0,0.3,0,0.5,0c0.2,0,0.3-0.1,0.5-0.2c1.4-0.8,3-1.2,4.6-1.1c1.7,0,3.5,0.4,5.1,1.1 c2.3,1,4.7,1.7,7.1,2.4c0.5,0.1,1,0.1,1.5,0c1-0.3,2.1-0.5,3.1-0.8c0.2-0.1,0.3-0.1,0.5-0.1c0.2,0,0.3,0,0.5,0.1 c0.1,0.1,0.3,0.2,0.4,0.3c0.1,0.1,0.2,0.3,0.2,0.4v14c-0.1,0.3-0.3,0.5-0.5,0.7c-0.3,0.2-0.6,0.2-0.9,0.2c-0.5,0-0.9,0-1.4,0 c-0.9,0-1.8,0.1-2.6,0.4c-0.6,0.2-1,0.4-1,1c0,0,0,0.1,0,0.1c-0.1,0.4-0.3,0.8-0.6,1.1c-0.3,0.3-0.6,0.6-1,0.8 c-0.4,0.2-0.8,0.3-1.3,0.3c-0.4,0-0.9,0-1.3-0.2c-0.2-0.1-0.4-0.1-0.5,0.1c-0.4,0.6-1,1.1-1.7,1.4c-0.7,0.2-1.5,0.2-2.2-0.1 c-0.1,0-0.2,0-0.2,0c-0.1,0-0.1,0.1-0.2,0.2c-0.8,1.3-2.5,1.9-4,1.2c-0.2,0-0.3,0-0.4,0.1c-0.2,0.4-0.5,0.7-0.9,0.9 C20.8,35.8,20.3,36,19.9,36.1L19.9,36.1z"></path><path class="st1" d="M6.4,20.6v5.2c0,0.2-0.1,0.4,0.2,0.4s0.3-0.2,0.3-0.4s0.1-0.7,0.1-1c0.3-2.9,0.7-5.9,1-8.8 c0.1-0.8,0.2-0.7-0.6-0.9L7,15.1c-0.5-0.1-0.6-0.1-0.6,0.4V20.6z M39.7,20.6v-5.2c0-0.4,0-0.5-0.5-0.4s-0.7,0.2-1,0.2 s-0.4,0.2-0.4,0.5c0.2,1.7,0.3,3.5,0.4,5.2s0.3,3.4,0.4,5c0,0.1,0,0.1,0,0.2c0,0,0.1,0.1,0.1,0.1c0.1,0.1,0.2,0.1,0.3,0.1 c0.1,0,0.2,0,0.3-0.1c0.1-0.1,0.2-0.1,0.2-0.2c0-0.1,0-0.2,0-0.3v-5.1L39.7,20.6z M23.4,12c-0.3,0-0.6,0-0.9,0.1 c-0.2,0-0.4,0.1-0.6,0.1c-2.3,0.7-4.3,2.3-5.4,4.5c-0.1,0.3-0.2,0.6-0.1,0.9c0.1,0.3,0.3,0.5,0.5,0.7c0.7,0.5,1.6,0.7,2.4,0.6 c0.9-0.2,1.8-0.6,2.5-1.2c0.9-0.8,1.7-1.6,2.4-2.6c0.1-0.1,0.2-0.2,0.3-0.3c0.1-0.1,0.3-0.2,0.4-0.2c0.1,0,0.3,0,0.4,0 c0.1,0,0.3,0.1,0.4,0.2c0.1,0.1,0.2,0.2,0.3,0.3c0.1,0.1,0.1,0.3,0.1,0.4c0,0.1,0,0.3,0,0.4c0,0.1-0.1,0.3-0.2,0.4 c-0.3,0.4-0.6,0.8-0.9,1.1c-0.3,0.3-0.2,0.5,0.1,0.8c2.9,2.7,5.8,5.5,8.8,8.2c0.9,0.9,0.9,0.9,2.2,0.5c0.2,0,0.4-0.2,0.4-0.4 c0,0,0,0,0-0.1c-0.2-1.9-0.3-3.7-0.5-5.6c-0.1-1.5-0.2-2.9-0.4-4.3c-0.1-0.8-0.1-0.8-0.9-1c-2.6-0.7-5.1-1.6-7.6-2.6 C26,12.3,24.7,12,23.4,12z M18.9,20.9c-1.2,0-2.3-0.3-3.2-1c-0.7-0.5-1.2-1.2-1.4-2c-0.2-0.8-0.1-1.6,0.4-2.4 c0.4-0.6,0.8-1.2,1.2-1.8c0.1-0.1,0.4-0.3,0.3-0.4s-0.4-0.1-0.6,0c-1.8,0.3-3.5,0.9-5,1.8c-0.1,0-0.1,0.1-0.2,0.1 c0,0.1,0,0.1-0.1,0.2c-0.2,1.9-0.4,3.8-0.7,5.7c-0.2,1.7-0.4,3.5-0.6,5.2c0,0.1,0,0.3,0,0.4c0.1,0.1,0.2,0.3,0.3,0.4l9.1,6.7 c0.2,0.2,0.5,0.3,0.7,0.3c0.1,0,0.3,0,0.4-0.1c0.1-0.1,0.2-0.1,0.3-0.2c0.2-0.2,0.3-0.4,0.2-0.7c0-0.3-0.2-0.5-0.4-0.7 c-0.6-0.6-1.3-1.2-2-1.8c-0.3-0.3-0.7-0.6-1-0.9c-0.1-0.1-0.2-0.3-0.2-0.5c0-0.2,0-0.4,0.1-0.5c0.1-0.2,0.2-0.3,0.3-0.4 c0.2-0.1,0.3-0.2,0.5-0.2c0.2,0,0.4,0,0.6,0.1c0.2,0.1,0.3,0.2,0.5,0.3l4,3.8c0.1,0.1,0.2,0.2,0.4,0.3c0.2,0.1,0.3,0.2,0.5,0.2 c0.4,0,0.8-0.2,1-0.5c0.1-0.2,0.1-0.3,0.1-0.5c-0.1-0.3-0.2-0.5-0.4-0.7l-4-3.8c-0.1-0.1-0.3-0.3-0.4-0.4c-0.3-0.4-0.2-0.9,0.1-1.2 c0.2-0.2,0.4-0.3,0.6-0.3c0.2,0,0.4,0,0.7,0.1c0.2,0.1,0.4,0.3,0.6,0.5l5.4,5c0.1,0.1,0.3,0.2,0.4,0.4c0.1,0.1,0.3,0.2,0.5,0.2 c0.2,0,0.3,0,0.5-0.1c0.2-0.1,0.3-0.2,0.4-0.3c0.1-0.1,0.1-0.3,0.1-0.5c0-0.2-0.1-0.3-0.1-0.5c-0.1-0.1-0.2-0.3-0.3-0.4l-4.3-4.1 c-0.4-0.4-0.9-0.8-1.3-1.2c-0.1-0.1-0.3-0.3-0.3-0.5c0-0.2,0-0.4,0.1-0.6c0.1-0.2,0.2-0.3,0.3-0.4c0.2-0.1,0.3-0.2,0.5-0.2 c0.2,0,0.4,0,0.6,0.1c0.2,0.1,0.3,0.2,0.5,0.4l6.9,6.5c0.1,0.1,0.3,0.3,0.4,0.4c0.2,0.1,0.4,0.2,0.7,0.2c0.2,0,0.4-0.1,0.6-0.3 c0.2-0.2,0.3-0.4,0.3-0.6c0-0.2-0.1-0.4-0.2-0.6c-0.1-0.1-0.2-0.3-0.3-0.4l-9.2-8.7c-0.2-0.2-0.5-0.3-0.7-0.1c0,0-0.1,0.1-0.1,0.1 C21.7,20.4,20.3,20.9,18.9,20.9L18.9,20.9z M19.9,36.1h-1.4c-0.5-0.1-0.9-0.3-1.3-0.6c-2.7-2-5.4-4-8.1-6c-0.5-0.4-1-0.7-1.6-1 c-0.6-0.2-1.3-0.3-1.9-0.2c-0.6,0.1-1.2-0.2-1.3-0.8c0-0.1,0-0.3,0-0.4V13.8c0-0.2,0-0.4,0.1-0.6c0.1-0.2,0.2-0.3,0.4-0.4 c0.2-0.1,0.4-0.2,0.6-0.2c0.2,0,0.4,0,0.6,0.1c1,0.2,2,0.5,2.9,0.7c0.1,0,0.3,0,0.4,0c0.2,0,0.3-0.1,0.4-0.2c1.3-0.7,2.6-1.3,4-1.7 c1.4-0.4,2.8-0.5,4.3-0.2c0.2,0,0.3,0,0.5,0c0.2,0,0.3-0.1,0.5-0.2c1.4-0.8,3-1.2,4.6-1.1c1.7,0,3.5,0.4,5.1,1.1 c2.3,1,4.7,1.7,7.1,2.4c0.5,0.1,1,0.1,1.5,0c1-0.3,2.1-0.5,3.1-0.8c0.2-0.1,0.3-0.1,0.5-0.1c0.2,0,0.3,0,0.5,0.1 c0.1,0.1,0.3,0.2,0.4,0.3c0.1,0.1,0.2,0.3,0.2,0.4v14c-0.1,0.3-0.3,0.5-0.5,0.7c-0.3,0.2-0.6,0.2-0.9,0.2c-0.5,0-0.9,0-1.4,0 c-0.9,0-1.8,0.1-2.6,0.4c-0.6,0.2-1,0.4-1,1c0,0,0,0.1,0,0.1c-0.1,0.4-0.3,0.8-0.6,1.1c-0.3,0.3-0.6,0.6-1,0.8 c-0.4,0.2-0.8,0.3-1.3,0.3c-0.4,0-0.9,0-1.3-0.2c-0.2-0.1-0.4-0.1-0.5,0.1c-0.4,0.6-1,1.1-1.7,1.4c-0.7,0.2-1.5,0.2-2.2-0.1 c-0.1,0-0.2,0-0.2,0c-0.1,0-0.1,0.1-0.2,0.2c-0.8,1.3-2.5,1.9-4,1.2c-0.2,0-0.3,0-0.4,0.1c-0.2,0.4-0.5,0.7-0.9,0.9 C20.8,35.8,20.3,36,19.9,36.1L19.9,36.1z"></path></svg>