<svg xmlns="http://www.w3.org/2000/svg" xmlns:xlink="http://www.w3.org/1999/xlink" id="Layer_1" x="0px" y="0px" viewBox="0 0 46.1 46.1" style="enable-background:new 0 0 46.1 46.1;" xml:space="preserve"><style type="text/css">	.st0{fill:url(#SVGID_1_);}	.st1{fill:#13191D;}</style><linearGradient id="SVGID_1_" gradientUnits="userSpaceOnUse" x1="-7.2177" y1="7.6749" x2="54.379" y2="42.8948" gradientTransform="matrix(1 0 0 -1 0 48)">	<stop offset="0" style="stop-color:#33ACD5"></stop>	<stop offset="1" style="stop-color:#8EFFE7"></stop></linearGradient><path class="st0" d="M4.1,0H42c2.2,0,4.1,1.8,4.1,4.1V42c0,2.2-1.8,4.1-4.1,4.1H4.1C1.8,46.1,0,44.2,0,42V4.1C0,1.8,1.8,0,4.1,0z"></path><path class="st1" d="M30.4,23.6c-0.2,0-0.4,0.1-0.5,0.2l-3.1,2.6c-0.2,0.1-0.1,0.2,0,0.4c0.3,0.3,0.4,0.7,0.5,1.1 c0,0.1,0,0.1,0.1,0.2s0.1,0,0.2-0.1l1.1-1c0.8-0.6,1.6-1.3,2.4-2c0.1-0.1,0.2-0.3,0.3-0.4c0-0.2,0-0.3,0-0.5 c-0.1-0.2-0.2-0.3-0.3-0.4C30.7,23.6,30.5,23.5,30.4,23.6z M28.5,28.4L28.5,28.4l2.3,0.1c0.1,0,0.2-0.1,0.3-0.1c1-0.8,2-1.7,3-2.5 c0.1-0.1,0.2-0.2,0.2-0.3c0-0.1,0-0.3,0-0.4c0-0.2-0.1-0.3-0.2-0.4c-0.1-0.1-0.2-0.2-0.4-0.3c-0.1,0-0.3,0-0.5,0 c-0.2,0-0.3,0.1-0.4,0.2c-1,0.8-1.9,1.6-2.8,2.4L28.5,28.4L28.5,28.4z M38.6,26.5c-0.2,0.5-0.5,0.9-0.9,1.2 c-2.2,1.8-4.4,3.6-6.5,5.5c-0.9,0.8-2,1.2-3.2,1.3l-0.4,0c-0.1,0-0.1,0-0.2,0c-0.1,0-0.1,0-0.2-0.1c-0.1,0-0.1-0.1-0.1-0.2 c0-0.1-0.1-0.1-0.1-0.2c0-0.1,0-0.1,0-0.2c0-0.1,0-0.1,0.1-0.2c0-0.1,0.1-0.1,0.2-0.1c0.1,0,0.1,0,0.2,0l0.8-0.1 c1.1-0.2,2-0.7,2.8-1.5c2-1.7,4.1-3.5,6.1-5.2c0.2-0.1,0.4-0.3,0.5-0.6c0-0.2,0-0.3,0-0.5c-0.1-0.2-0.2-0.3-0.3-0.4 c-0.2-0.1-0.3-0.1-0.5-0.1c-0.2,0-0.3,0.1-0.5,0.2c-0.4,0.3-0.8,0.7-1.3,1L31.9,29c-0.4,0.3-0.8,0.5-1.3,0.5H27c-0.1,0-0.2,0-0.3,0 c-0.1,0-0.2,0.1-0.2,0.2c-0.2,0.2-0.4,0.4-0.7,0.5c-0.3,0.1-0.5,0.2-0.8,0.1h-4c-0.1,0-0.3,0-0.4-0.1c-0.1,0-0.2-0.1-0.2-0.2 c-0.1-0.1-0.1-0.2-0.1-0.3c0-0.1,0-0.2,0.1-0.3c0.1-0.1,0.1-0.1,0.2-0.2c0.1-0.1,0.3-0.1,0.4-0.1h3.9c0.2,0,0.3,0,0.5,0 c0.2-0.1,0.3-0.1,0.4-0.2c0.1-0.1,0.2-0.2,0.3-0.4c0.1-0.2,0.1-0.3,0.1-0.5c0-0.2,0-0.3-0.1-0.5c-0.1-0.1-0.2-0.3-0.3-0.4 c-0.1-0.1-0.3-0.2-0.4-0.2c-0.2-0.1-0.3-0.1-0.5,0h-6.5c-1,0-1.9,0.2-2.8,0.6l-0.1,0c-0.4,0.2-0.6,0.1-0.8-0.2s0-0.5,0.3-0.7 c0.7-0.3,1.4-0.6,2.2-0.7c0.5-0.1,1.1-0.1,1.6-0.1h5.8c0.1,0,0.2,0,0.3,0c0.5,0.1,0.9-0.1,1.2-0.4c1-0.9,2-1.7,2.9-2.5 c0.2-0.2,0.5-0.4,0.8-0.4c0.3-0.1,0.6-0.1,0.9,0c0.3,0.1,0.6,0.2,0.8,0.4c0.2,0.2,0.4,0.4,0.5,0.7c0.1,0.2,0.2,0.2,0.3,0.1 c0.2-0.2,0.5-0.3,0.8-0.4c0.3-0.1,0.6-0.1,0.9,0c0.3,0.1,0.5,0.2,0.8,0.4c0.2,0.2,0.4,0.4,0.5,0.7c0.1,0.1,0.1,0.2,0.3,0.1 c0.1-0.1,0.2-0.2,0.4-0.2c0.1-0.1,0.3-0.1,0.4-0.1c0.3-0.1,0.6-0.1,0.9,0c0.4,0.1,0.8,0.4,1.1,0.8c0.1,0.1,0.1,0.3,0.2,0.4 c0,0,0,0.1,0,0.1V26.5z"></path><path class="st1" d="M17.1,39.1c-0.3-0.4-0.3-0.5,0-0.9c1-1.2,2-2.4,3-3.5c0.1-0.1,0.1-0.1,0.2-0.2c0.1,0,0.2-0.1,0.3-0.1l4.7-0.6 c0.1,0,0.1,0,0.2,0c0.1,0,0.1,0,0.2,0.1c0.1,0,0.1,0.1,0.1,0.2c0,0.1,0.1,0.1,0.1,0.2c0,0.1,0,0.1,0,0.2c0,0.1-0.1,0.1-0.1,0.2 c0,0.1-0.1,0.1-0.2,0.1c-0.1,0-0.1,0-0.2,0c-1.4,0.2-2.8,0.3-4.2,0.5c-0.1,0-0.2,0-0.3,0.1c-0.1,0.1-0.2,0.1-0.3,0.2l-2.9,3.5H17.1z "></path><path class="st1" d="M21.3,15.8c0-0.2,0-0.4-0.3-0.4c0,0-0.1,0-0.1,0c-0.1,0-0.1,0.1-0.2,0.2c0,0,0,0.1,0,0.1c0,0.3,0.2,0.4,0.4,0.4 S21.4,16,21.3,15.8z M25,16c0.3,0,0.5-0.1,0.5-0.4s-0.1-0.3-0.3-0.3s-0.3,0.2-0.3,0.5S24.8,16.1,25,16z M23.1,22.5h-1 c-0.1,0-0.3,0-0.3,0.2c0,0.4,0,0.7,0,1.1c0,0.1,0,0.1,0,0.2c0,0.1,0.1,0.1,0.1,0.1c0,0,0.1,0.1,0.1,0.1c0.1,0,0.1,0,0.2,0h1.6 c0.1,0,0.1,0,0.2,0c0.1,0,0.1-0.1,0.1-0.1c0,0,0.1-0.1,0.1-0.1c0-0.1,0-0.1,0-0.2v-1c0-0.2-0.1-0.2-0.3-0.2H23.1z M23.1,17h-0.4 c-0.2,0-0.2,0.1-0.2,0.3c0.1,1.3,0.2,2.6,0.2,3.8c0,0.3,0.1,0.4,0.4,0.4s0.4-0.2,0.4-0.5c0.1-1.1,0.1-2.2,0.2-3.4 C23.7,16.9,23.8,17,23.1,17L23.1,17z M21.7,21.1c-0.1-1.1-0.1-2.5-0.2-3.8c0-0.3-0.2-0.3-0.5-0.3c-0.2,0-0.5,0-0.7-0.2 c-0.2-0.1-0.4-0.3-0.5-0.5c-0.2-0.4-0.2-0.8-0.1-1.2c0.1-0.2,0.2-0.4,0.4-0.5c0.2-0.2,0.4-0.3,0.7-0.3c0.3,0,0.5,0,0.8,0.1 c0.2,0.1,0.4,0.3,0.6,0.5c0.1,0.2,0.2,0.5,0.2,0.7c0,0.5,0.1,0.5,0.5,0.5c0.2,0,0.5,0,0.7,0c0.3-0.1,0.1-0.4,0.2-0.7 c0.2-0.7,0.9-1.1,1.6-1c0.7,0.1,1.2,0.8,1.1,1.5c0,0.2-0.1,0.5-0.2,0.7c-0.1,0.2-0.3,0.3-0.6,0.4C25.5,17,25.4,17,25.2,17 c-0.5,0-0.5,0-0.5,0.5c0,1-0.1,2-0.1,3.1c0.2-0.4,0.5-0.7,0.7-1.1c0.7-1.1,1.4-2.2,2.2-3.3c1.6-2.4,1-5.6-1.4-7.2 c-0.6-0.4-1.4-0.7-2.2-0.8c-1.3-0.2-2.6,0-3.7,0.7c-1.1,0.7-1.9,1.8-2.2,3.1c0,0.1,0,0.2-0.1,0.3c0,0.1-0.1,0.2-0.2,0.3 c-0.1,0.1-0.2,0.1-0.4,0.1c-0.1,0-0.1,0-0.2-0.1c-0.1,0-0.1-0.1-0.1-0.2c0-0.1-0.1-0.1-0.1-0.2c0-0.1,0-0.1,0-0.2 c0.2-1.1,0.7-2.2,1.5-3c1.6-1.8,4.2-2.4,6.5-1.6c0.9,0.3,1.7,0.8,2.4,1.4c1.4,1.3,2.1,3.2,1.9,5.2c-0.1,1-0.5,1.9-1,2.7l-2.6,4 c-0.1,0.2-0.2,0.4-0.2,0.6c-0.1,0.9-0.2,1.8-0.2,2.6c0,0.4-0.2,0.7-0.5,0.9c-0.3,0.2-0.6,0.4-1,0.3c-0.5,0-1.1,0-1.6,0 c-0.2,0-0.4,0-0.6-0.1c-0.4-0.1-0.6-0.4-0.8-0.8c-0.1-0.2-0.1-0.4-0.1-0.6v-0.9c0-0.3,0-0.7-0.1-1c0-0.1,0-0.2,0-0.3 c0-0.4-0.1-0.8-0.3-1.1c-0.9-1.4-1.9-2.9-2.8-4.3c-0.3-0.6-0.5-1.2-0.6-1.9c0-0.1,0-0.1,0-0.2c0-0.1,0-0.1,0.1-0.2 c0-0.1,0.1-0.1,0.1-0.1c0.1,0,0.1-0.1,0.2-0.1c0.1,0,0.1,0,0.2,0c0.1,0,0.1,0,0.2,0.1c0.1,0,0.1,0.1,0.1,0.1c0,0,0.1,0.1,0.1,0.2 c0.3,1.2,0.8,2.3,1.6,3.3c0.6,0.9,1.2,1.8,1.8,2.7C21.5,20.3,21.6,20.7,21.7,21.1L21.7,21.1z"></path><path class="st1" d="M14,28.4c0,0.1,0,0.2-0.1,0.2c0,0.1-0.1,0.1-0.1,0.2c-0.7,0.7-1.2,1.4-1.6,2.3c-0.3,0.6-0.7,1.1-1.2,1.6 c-0.8,1-1.7,2.1-2.5,3.1c0,0.1-0.1,0.1-0.2,0.2c-0.1,0.1-0.2,0.2-0.3,0.2c-0.1,0-0.2-0.1-0.3-0.2c-0.1-0.1-0.2-0.2-0.2-0.3 c0-0.1,0-0.3,0.1-0.3c0.3-0.4,0.6-0.7,0.9-1.1l2.5-3.2c0.2-0.2,0.3-0.4,0.4-0.7c0.4-0.9,1-1.7,1.7-2.3c0.1-0.1,0.2-0.1,0.3-0.2 c0.1,0,0.2,0,0.3,0c0.1,0,0.2,0.1,0.2,0.2C14,28.2,14,28.3,14,28.4z"></path><path class="st1" d="M32.3,13.3c0.2,0,0.4,0,0.6,0c0.1,0,0.2,0,0.3,0.1c0.1,0.1,0.1,0.2,0.2,0.3c0,0.1,0,0.1,0,0.2 c0,0.1,0,0.1-0.1,0.2c0,0-0.1,0.1-0.1,0.1L33,14.3c-0.4,0.1-0.9,0.1-1.3,0c-0.1,0-0.1,0-0.2-0.1c-0.1,0-0.1-0.1-0.1-0.1 c0,0-0.1-0.1-0.1-0.2c0-0.1,0-0.1,0-0.2c0-0.1,0.1-0.2,0.1-0.3c0.1-0.1,0.2-0.1,0.3-0.1C31.9,13.3,32.1,13.3,32.3,13.3z"></path><path class="st1" d="M13.9,13.3c0.2,0,0.4,0,0.6,0c0.1,0,0.2,0,0.3,0.1c0.1,0.1,0.1,0.2,0.1,0.3c0,0.1,0,0.1,0,0.2 c0,0.1,0,0.1-0.1,0.2l-0.1,0.1c-0.1,0-0.1,0-0.2,0c-0.4,0.1-0.9,0.1-1.3,0c-0.1,0-0.1,0-0.2,0c-0.1,0-0.1-0.1-0.1-0.1 c0,0-0.1-0.1-0.1-0.1c0-0.1,0-0.1,0-0.2c0-0.1,0.1-0.2,0.1-0.3c0.1-0.1,0.2-0.1,0.3-0.1C13.5,13.3,13.7,13.3,13.9,13.3L13.9,13.3z"></path><path class="st1" d="M31,16.2c0.5,0.1,0.9,0.3,1.3,0.5c0.2,0.1,0.2,0.4,0.1,0.6c0,0.1-0.1,0.2-0.2,0.2c-0.1,0-0.2,0-0.3,0 c-0.4-0.1-0.8-0.3-1.2-0.4c-0.1,0-0.2-0.1-0.2-0.2c0-0.1,0-0.2,0-0.3c0-0.1,0.1-0.2,0.2-0.3C30.8,16.3,30.9,16.2,31,16.2L31,16.2z"></path><path class="st1" d="M32.5,10.5c0,0.1,0,0.2-0.1,0.3c-0.1,0.1-0.1,0.1-0.2,0.2c-0.4,0.1-0.7,0.3-1,0.4c-0.1,0-0.1,0-0.2,0 c-0.1,0-0.1,0-0.2,0c-0.1,0-0.1-0.1-0.2-0.1c0-0.1-0.1-0.1-0.1-0.2c0-0.1,0-0.1,0-0.2c0-0.1,0-0.1,0-0.2c0-0.1,0.1-0.1,0.1-0.2 c0.1,0,0.1-0.1,0.2-0.1c0.3-0.1,0.7-0.3,1-0.4c0.1,0,0.2,0,0.2,0c0.1,0,0.2,0,0.2,0.1c0.1,0,0.1,0.1,0.2,0.2 C32.6,10.3,32.5,10.4,32.5,10.5z"></path><path class="st1" d="M15.6,10.9c0,0.2-0.1,0.3-0.2,0.4c-0.1,0-0.1,0.1-0.2,0.1c-0.1,0-0.2,0-0.2,0c-0.4-0.1-0.7-0.2-1.1-0.4 c-0.1,0-0.1-0.1-0.2-0.1c0,0-0.1-0.1-0.1-0.1c0-0.1,0-0.1,0-0.2c0-0.1,0-0.1,0-0.2c0-0.1,0.1-0.1,0.1-0.2c0-0.1,0.1-0.1,0.1-0.1 c0,0,0.1,0,0.1-0.1h0.2c0.4,0.1,0.8,0.3,1.2,0.4c0.1,0,0.2,0.1,0.2,0.2C15.6,10.7,15.6,10.8,15.6,10.9z"></path><path class="st1" d="M15.6,16.8c0,0.1,0,0.2-0.1,0.2c-0.1,0.1-0.1,0.1-0.2,0.2c-0.4,0.1-0.7,0.3-1.1,0.4c-0.1,0-0.1,0-0.2,0 c-0.1,0-0.1,0-0.2,0c-0.1,0-0.1-0.1-0.2-0.1c0-0.1-0.1-0.1-0.1-0.2c0-0.1,0-0.3,0-0.4c0.1-0.1,0.2-0.2,0.3-0.2 c0.4-0.1,0.7-0.3,1.1-0.4c0.1,0,0.2,0,0.2,0c0.1,0,0.2,0,0.2,0.1c0.1,0,0.1,0.1,0.1,0.2C15.6,16.6,15.6,16.7,15.6,16.8z"></path></svg>