<svg xmlns="http://www.w3.org/2000/svg" xmlns:xlink="http://www.w3.org/1999/xlink" id="Layer_1" x="0px" y="0px" viewBox="0 0 46.1 46.1" style="enable-background:new 0 0 46.1 46.1;" xml:space="preserve"><style type="text/css">	.st0{fill:url(#SVGID_1_);}	.st1{fill:#13191D;}</style><linearGradient id="SVGID_1_" gradientUnits="userSpaceOnUse" x1="-7.2177" y1="7.6749" x2="54.379" y2="42.8948" gradientTransform="matrix(1 0 0 -1 0 48)">	<stop offset="0" style="stop-color:#33ACD5"></stop>	<stop offset="1" style="stop-color:#8EFFE7"></stop></linearGradient><path class="st0" d="M4.1,0H42c2.2,0,4.1,1.8,4.1,4.1V42c0,2.2-1.8,4.1-4.1,4.1H4.1C1.8,46.1,0,44.2,0,42V4.1C0,1.8,1.8,0,4.1,0z"></path><path class="st1" d="M24.5,14.2c0.4,0,0.8,0,1.2-0.1c0.4-0.1,0.7-0.1,1.1-0.2c0.1,0,0.3-0.1,0.3-0.2c0.1-0.1,0.1-0.2,0.1-0.4 c0-0.5-0.3-0.8-0.8-0.6c-0.5,0.1-1.1,0.2-1.7,0.2c-0.8,0-1.6-0.1-2.5-0.2c-0.5-0.1-0.9,0.2-0.8,0.7c0,0.3,0.3,0.4,0.6,0.5 C23,14.2,23.7,14.2,24.5,14.2z M24.5,12c0.8,0,1.5-0.1,2.2-0.3c0.1,0,0.1,0,0.1-0.1c0,0,0.1-0.1,0.1-0.1c0.4-0.7,0.8-1.4,1.1-2.1 c0.1-0.2,0.2-0.5,0.2-0.8c0-0.2,0-0.2-0.2-0.2c-0.3,0.1-0.5,0.1-0.8,0.1c-0.3,0-0.5-0.1-0.8-0.3c-0.1-0.1-0.3-0.1-0.4-0.1 c-0.2,0-0.3,0.1-0.4,0.1c-0.3,0.2-0.6,0.3-0.9,0.3c-0.4,0-0.7-0.1-1-0.3c-0.3-0.2-0.7-0.2-1,0c-0.2,0.1-0.4,0.2-0.6,0.2 c-0.2,0.1-0.4,0.1-0.6,0c-0.5-0.1-0.6-0.1-0.4,0.5C21,9,21,9,21,9c0.4,0.9,0.8,1.8,1.4,2.6c0,0,0.1,0.1,0.1,0.1c0,0,0.1,0,0.1,0.1 C23.2,11.9,23.9,12,24.5,12L24.5,12z M9,31.6v5.3c0,0.4,0.1,0.6,0.6,0.6h1.6c0.5,0,0.6-0.1,0.6-0.6v-5.6c0-0.2,0-0.3,0-0.5 c0-0.1,0.1-0.2,0.2-0.3c0.1-0.1,0.2-0.1,0.3-0.1c0.1,0,0.2,0,0.3,0.1c0.1,0.1,0.1,0.2,0.1,0.3c0,0.1,0,0.2,0,0.3c0,1.5,0,2.9,0,4.3 c0,0.1,0,0.3,0.1,0.4c0.1,0.1,0.2,0.2,0.3,0.2c1.2,0.4,2.4,0.9,3.6,1.4c1,0.4,2.1,0.6,3.2,0.6c1.9,0,3.7,0,5.6,0 c1.1,0,2.1-0.3,3-0.9c1.6-1.1,3.2-2.1,4.8-3.1l3.2-2.1c0.1-0.1,0.2-0.1,0.3-0.2c0.1-0.1,0.1-0.2,0.2-0.3c0.1-0.2,0-0.5-0.1-0.7 c-0.1-0.2-0.2-0.4-0.5-0.5c-0.2-0.1-0.5-0.1-0.7,0c-0.2,0.1-0.4,0.1-0.6,0.2L27.3,34c-0.1,0.1-0.3,0.1-0.4,0.1h-5 c-0.1,0-0.1,0-0.2,0c-0.1,0-0.1-0.1-0.2-0.1c-0.1,0-0.1-0.1-0.1-0.2c0-0.1,0-0.1,0-0.2c0-0.1,0-0.3,0.1-0.4c0.1-0.1,0.2-0.2,0.4-0.2 h4.3c0.1,0,0.3,0,0.3-0.2c0.1-0.3,0.1-0.5,0-0.8c-0.1-0.3-0.2-0.5-0.3-0.8c-0.2-0.2-0.4-0.4-0.6-0.5c-0.2-0.1-0.5-0.2-0.8-0.3 c-1.3-0.2-2.6-0.3-3.9-0.5c-1.2-0.1-2.4-0.4-3.4-1c-0.2-0.1-0.5-0.3-0.7-0.4c-1.1-0.7-2.4-1.1-3.7-1.1c-0.3,0-0.4,0.1-0.3,0.4 s0,0.6,0,0.9c0,0.1-0.1,0.2-0.1,0.3c-0.1,0.1-0.2,0.1-0.3,0.1c-0.1,0-0.2,0-0.3-0.1c-0.1-0.1-0.2-0.2-0.2-0.3c0-0.1,0-0.2,0-0.4 v-2.2c0-0.4-0.1-0.5-0.5-0.5H9.6c-0.5,0-0.6,0.1-0.6,0.6C9,28.1,9,29.9,9,31.6L9,31.6z M8,26c0-0.2,0.1-0.4,0.2-0.6 c0.2-0.3,0.5-0.6,0.8-0.7c0.2,0,0.4,0,0.6,0h1.8c0.2,0,0.3,0,0.5,0.1c0.2,0.1,0.3,0.2,0.4,0.3c0.1,0.1,0.2,0.3,0.3,0.4 c0.1,0.2,0.1,0.3,0.1,0.5c0,0.2,0.1,0.3,0.3,0.3c0.2,0,0.4,0,0.6,0.1c0.2,0,0.3,0,0.3-0.3c0-0.8,0-1.6,0.1-2.4 c0.5-2.3,1.4-4.4,2.9-6.2c1-1.3,2.1-2.4,3.4-3.4l0.2-0.2c0,0,0-0.1,0-0.1c-1.3,0.1-2.6,0.3-3.4,1.6c-0.2,0.3-0.5,0.4-0.7,0.2 s-0.3-0.4-0.1-0.8c0.5-0.7,1.2-1.3,2-1.6c0.6-0.2,1.2-0.3,1.8-0.4h0.2c0.2,0,0.2-0.1,0.1-0.2c-0.2-0.2-0.5-0.4-0.8-0.6 c-0.3-0.1-0.7-0.2-1-0.1c-0.9,0.1-1.8-0.2-2.6-0.7c-0.3-0.1-0.4-0.4-0.3-0.7c0,0,0,0,0-0.1c0-0.1,0.1-0.1,0.1-0.2 c0.1,0,0.1-0.1,0.2-0.1c0.1,0,0.1,0,0.2,0c0.1,0,0.1,0.1,0.2,0.1c0.7,0.4,1.4,0.6,2.2,0.5c0.4,0,0.9,0,1.3,0.1 c0.4,0.2,0.8,0.4,1.1,0.7l0.1,0.1c0.1,0.1,0.1,0.1,0.2,0s0-0.1,0-0.2s-0.2-0.4-0.3-0.6c-0.5-0.8-0.8-1.6-0.9-2.4 c-0.1-0.4,0-0.7,0.2-1.1c0-0.1,0.1-0.2,0.2-0.2c0.1-0.1,0.2-0.1,0.3-0.2c0.1,0,0.2,0,0.3,0c0.1,0,0.2,0,0.3,0.1 c0.2,0.1,0.4,0.2,0.6,0.2c0.2,0,0.4-0.1,0.6-0.2c0.5-0.3,1.1-0.3,1.6,0c0.2,0.1,0.3,0.2,0.5,0.2c0.2,0,0.4-0.1,0.5-0.2 C25.5,7.1,25.8,7,26.1,7c0.3,0,0.6,0.1,0.9,0.3c0.1,0.1,0.3,0.2,0.4,0.2c0.2,0,0.3,0,0.5-0.1c0.1-0.1,0.3-0.2,0.5-0.2 c0.2,0,0.3,0,0.5,0.1c0.1,0.1,0.3,0.2,0.3,0.4c0.1,0.2,0.1,0.3,0.1,0.5c0,0.5-0.1,1-0.3,1.4c-0.3,0.8-0.7,1.5-1.1,2.2 c-0.1,0.1-0.1,0.2,0,0.4c0.2,0.2,0.3,0.4,0.4,0.6c0.1,0.2,0.1,0.5,0,0.7c0,0.2,0.1,0.2,0.2,0.3c0.4,0.4,0.9,0.7,1.3,1.1 s0.3,0.5,0.1,0.8s-0.5,0.2-0.8,0l-1.1-1c-0.1-0.1-0.2-0.2-0.3-0.1c-0.6,0.3-1.3,0.5-2,0.5c-1.2,0.1-2.5,0.1-3.7-0.2 c-0.1,0-0.1,0-0.2-0.1c-0.4-0.3-0.7-0.1-1,0.2c-2,1.6-3.6,3.7-4.8,6c-0.7,1.4-1.1,3-1.1,4.6c0,0.9,0,0.9,0.8,1.2 c0.7,0.3,1.4,0.6,2.1,1c0.9,0.5,1.9,0.9,2.9,1c1.4,0.1,2.9,0.3,4.3,0.5c0.7,0.1,1.3,0.5,1.7,1c0.4,0.5,0.7,1.2,0.7,1.9 c0,0.4,0,0.4,0.3,0.2l4.9-2.2c0.2-0.1,0.3-0.2,0.5-0.4c0.9-1.5,1.3-3.3,1.1-5c-0.3-2.7-1.4-5.3-3.3-7.3c-0.1-0.1-0.2-0.2-0.3-0.3 c-0.1,0-0.1-0.1-0.1-0.2c0-0.1,0-0.1,0-0.2c0-0.1,0-0.1,0-0.2c0-0.1,0.1-0.1,0.1-0.2c0.2-0.2,0.5-0.2,0.7,0.1s0.6,0.7,0.9,1.1 c1.4,1.8,2.4,4,2.8,6.3c0.3,1.7,0.1,3.5-0.5,5.1c-0.1,0.1-0.1,0.2-0.1,0.4l0.6-0.3c0.4-0.2,1-0.3,1.4-0.1c0.5,0.2,0.9,0.5,1.1,0.9 c0.3,0.4,0.3,1,0.2,1.5c-0.1,0.5-0.4,0.9-0.8,1.2l-8.2,5.4c-0.7,0.4-1.4,0.7-2.2,0.9h-8.3c-0.5-0.1-1-0.3-1.5-0.5l-3.9-1.5 c-0.1,0-0.2-0.2-0.3,0.1c0,0.4-0.2,0.7-0.5,0.9c-0.3,0.2-0.6,0.4-1,0.3H9.7c-0.2,0-0.4,0-0.6,0c-0.2,0-0.4-0.1-0.5-0.2 c-0.2-0.1-0.3-0.3-0.4-0.4C8.1,37.6,8,37.4,8,37.2L8,26z"></path><path class="st1" d="M27.1,20.2h-1c0.2,0.3,0.3,0.5,0.3,0.9h1l-0.3,1h-0.7c-0.1,0.5-0.3,0.9-0.6,1.2c-0.4,0.3-0.9,0.5-1.4,0.6 l2.1,2.6v0.1H25l-2.4-2.9v-0.9h1.2c0.2,0,0.5,0,0.7-0.2c0.2-0.1,0.4-0.4,0.4-0.6h-2.5l0.2-1h2.1c-0.1-0.2-0.2-0.4-0.4-0.5 c-0.2-0.1-0.4-0.2-0.6-0.1h-1.3l0.3-1.2h4.6L27.1,20.2z"></path></svg>