<svg xmlns="http://www.w3.org/2000/svg" id="Layer_1" data-name="Layer 1" viewBox="0 0 535.66 123"><defs><style>.cls-1{fill:none;}.cls-1,.cls-3{stroke:#46c2c9;}.cls-2,.cls-3{fill:#46c2c9;}.cls-4{fill:#fff;}</style></defs><rect class="cls-1" x="0.5" y="0.5" width="534.66" height="122"></rect><path class="cls-2" d="M110.66,34.31a2.07,2.07,0,0,0-2-1.71c-.13,0-.25,0-.36,0A2.08,2.08,0,0,0,106.6,35l.17,1L86.42,44.92a2,2,0,0,0-3.18,1.95l.54,3.57a2,2,0,0,0,2,1.72,1.51,1.51,0,0,0,.3,0,2,2,0,0,0,1.45-1h0l3.55,10.2h0a2.2,2.2,0,1,0,4.15-1.45l-2.82-8.1,17.25,2.3.06.37a2.09,2.09,0,0,0,.84,1.34,2.06,2.06,0,0,0,1.54.35h0a2,2,0,0,0,1.33-.85,2,2,0,0,0,.35-1.54ZM85.89,50.94a.81.81,0,0,1-.91-.68l-.53-3.57a.82.82,0,0,1,.14-.61.81.81,0,0,1,.53-.31h.12a.83.83,0,0,1,.48.15.8.8,0,0,1,.13.13s0,0,0,0a.89.89,0,0,1,.17.37L86.57,50v.13a1.09,1.09,0,0,1,0,.18.81.81,0,0,1-.67.61Zm5.2.68,3,8.69a1,1,0,0,1,0,.75.92.92,0,0,1-.56.5h0a1,1,0,0,1-.76,0,1,1,0,0,1-.49-.57l-3.35-9.62,1.17.15Zm18.4,1.22L91.62,50.46l-3.83-.52s0-.07,0-.1h0l-.54-3.57h0a1.76,1.76,0,0,0-.07-.33h0l17.32-7.55,1.73,11.51a.59.59,0,0,0,.59.52h.1a.61.61,0,0,0,.51-.7l-1.77-11.84,1.33-.58.42,2.61ZM111.92,55a.89.89,0,0,1-.63-.15.82.82,0,0,1-.34-.54L109.06,42.6l-1-6.28h0l-.24-1.51a.83.83,0,0,1,.14-.63.85.85,0,0,1,.53-.34l.17,0a.86.86,0,0,1,.83.7L112.61,54a.85.85,0,0,1-.69,1Z"></path><path class="cls-2" d="M118.87,38.81a.83.83,0,0,0,.43-.13l3.45-2.32a.77.77,0,0,0-.86-1.28l-3.45,2.32a.77.77,0,0,0,.43,1.41Z"></path><path class="cls-2" d="M125,47l-4-1a.77.77,0,0,0-.37,1.5l4,1,.19,0a.76.76,0,0,0,.75-.68A.75.75,0,0,0,125,47Z"></path><path class="cls-2" d="M123.2,42.85a.77.77,0,1,0-.14-1.53l-3.13.29h0a.77.77,0,0,0,.06,1.53h.08Z"></path><path class="cls-2" d="M198.47,50.29l3.4-14.35h1.9l.43,2.39L200.58,53h-2Zm-1.74-14.35,2.81,14.35L199.3,53H197l-3.79-17.06Zm10.46,14.29L210,35.94h3.48L209.67,53H207.4Zm-2.36-14.29,3.43,14.41-.1,2.65h-2l-3.64-14.68.47-2.38Zm15.78,17.29a7.12,7.12,0,0,1-2.65-.46,5.8,5.8,0,0,1-2-1.33,5.64,5.64,0,0,1-1.24-2,6.55,6.55,0,0,1-.44-2.39v-.47A8.15,8.15,0,0,1,214.7,44a6.49,6.49,0,0,1,1.17-2.08,5.18,5.18,0,0,1,1.88-1.34,6.13,6.13,0,0,1,2.48-.48,6,6,0,0,1,2.39.44,4.68,4.68,0,0,1,1.75,1.27,5.3,5.3,0,0,1,1.08,2,8.31,8.31,0,0,1,.36,2.53v1.4H215.73V45.45h6.76V45.2a3,3,0,0,0-.25-1.26,2.1,2.1,0,0,0-.75-.89,2.33,2.33,0,0,0-1.29-.33,2.12,2.12,0,0,0-1.15.3,2.23,2.23,0,0,0-.79.82,4.51,4.51,0,0,0-.44,1.24,8.16,8.16,0,0,0-.14,1.54v.47a4.53,4.53,0,0,0,.21,1.41,3.33,3.33,0,0,0,.62,1.11,2.71,2.71,0,0,0,1,.73,3.36,3.36,0,0,0,1.33.26,4.2,4.2,0,0,0,1.7-.35,3.79,3.79,0,0,0,1.37-1.09l1.64,1.78a5.14,5.14,0,0,1-1.09,1.1,5.91,5.91,0,0,1-1.64.87A7,7,0,0,1,220.61,53.23Zm19.94-3.09V44.49a2.38,2.38,0,0,0-.2-1,1.44,1.44,0,0,0-.62-.69,2,2,0,0,0-1.06-.25,2.28,2.28,0,0,0-1,.2,1.47,1.47,0,0,0-.63.55,1.51,1.51,0,0,0-.22.83h-3.38a3.27,3.27,0,0,1,.38-1.53,3.77,3.77,0,0,1,1.09-1.28,5.36,5.36,0,0,1,1.7-.88,7.31,7.31,0,0,1,2.22-.31,6.6,6.6,0,0,1,2.63.49,4,4,0,0,1,1.8,1.47,4.28,4.28,0,0,1,.67,2.47v5.42a8.87,8.87,0,0,0,.13,1.71,4.44,4.44,0,0,0,.38,1.15V53h-3.41a4.72,4.72,0,0,1-.38-1.29A10.38,10.38,0,0,1,240.55,50.14Zm.45-4.86,0,1.91h-1.88a3.94,3.94,0,0,0-1.16.15,2.23,2.23,0,0,0-.81.43,1.64,1.64,0,0,0-.47.64,2,2,0,0,0-.14.79,1.52,1.52,0,0,0,.2.79,1.49,1.49,0,0,0,.57.54,2,2,0,0,0,.88.18,2.74,2.74,0,0,0,1.32-.3,2.31,2.31,0,0,0,.87-.75,1.6,1.6,0,0,0,.33-.84l.89,1.43a5.93,5.93,0,0,1-.52,1,4.54,4.54,0,0,1-.8,1,4.07,4.07,0,0,1-1.19.74,4.3,4.3,0,0,1-1.64.28,5,5,0,0,1-2.19-.48,4,4,0,0,1-1.55-1.34,3.6,3.6,0,0,1-.56-2,4,4,0,0,1,.38-1.77,3.35,3.35,0,0,1,1.1-1.3,5.11,5.11,0,0,1,1.84-.81,10.2,10.2,0,0,1,2.55-.28Zm8.93-2.19V53h-3.38V40.32h3.18Zm3.82-2.85-.06,3.13a4.31,4.31,0,0,0-.6-.06c-.22,0-.43,0-.62,0a3.8,3.8,0,0,0-1.24.19,2.1,2.1,0,0,0-1.38,1.38,4,4,0,0,0-.19,1.15l-.68-.21a9.43,9.43,0,0,1,.25-2.26,6.23,6.23,0,0,1,.71-1.82,3.6,3.6,0,0,1,1.17-1.19,3,3,0,0,1,1.58-.42,3.86,3.86,0,0,1,.58,0A2.45,2.45,0,0,1,253.75,40.24Zm7.19,13a7.1,7.1,0,0,1-2.64-.46,5.66,5.66,0,0,1-3.24-3.29,6.54,6.54,0,0,1-.43-2.39v-.47A7.89,7.89,0,0,1,255,44a6.14,6.14,0,0,1,1.17-2.08,5.23,5.23,0,0,1,1.87-1.34,6.21,6.21,0,0,1,2.49-.48,6,6,0,0,1,2.39.44,4.76,4.76,0,0,1,1.75,1.27,5.42,5.42,0,0,1,1.07,2,8,8,0,0,1,.37,2.53v1.4H256.07V45.45h6.76V45.2a3,3,0,0,0-.26-1.26,2,2,0,0,0-.75-.89,2.29,2.29,0,0,0-1.29-.33,2.11,2.11,0,0,0-1.14.3,2.08,2.08,0,0,0-.79.82,4.51,4.51,0,0,0-.45,1.24,8.16,8.16,0,0,0-.14,1.54v.47a4.25,4.25,0,0,0,.22,1.41,3.16,3.16,0,0,0,.62,1.11,2.71,2.71,0,0,0,1,.73,3.27,3.27,0,0,0,1.32.26,4.17,4.17,0,0,0,1.7-.35,3.82,3.82,0,0,0,1.38-1.09l1.64,1.78a5.14,5.14,0,0,1-1.09,1.1,6.06,6.06,0,0,1-1.64.87A7.12,7.12,0,0,1,260.94,53.23Zm24.7-10.34v2.74h-8.91V42.89Zm-7.87-7V53h-3.51V35.94Zm10.37,0V53h-3.5V35.94Zm6.41,4.38V53h-3.38V40.32ZM291,37a1.59,1.59,0,0,1,.51-1.22,2.22,2.22,0,0,1,2.76,0,1.68,1.68,0,0,1,0,2.43,2.22,2.22,0,0,1-2.76,0A1.59,1.59,0,0,1,291,37Zm9.76,6.07V53h-3.38V40.32h3.18Zm3.82-2.85-.06,3.13a4.48,4.48,0,0,0-.6-.06c-.23,0-.43,0-.62,0a3.8,3.8,0,0,0-1.24.19,2.19,2.19,0,0,0-.87.53,2.15,2.15,0,0,0-.51.85,4,4,0,0,0-.19,1.15l-.68-.21a10,10,0,0,1,.24-2.26,6.53,6.53,0,0,1,.72-1.82,3.6,3.6,0,0,1,1.17-1.19,3,3,0,0,1,1.58-.42,3.86,3.86,0,0,1,.58,0A2.45,2.45,0,0,1,304.54,40.24Zm5.15.08V53h-3.38V40.32ZM306.1,37a1.59,1.59,0,0,1,.51-1.22,2.22,2.22,0,0,1,2.76,0,1.68,1.68,0,0,1,0,2.43,2.22,2.22,0,0,1-2.76,0A1.59,1.59,0,0,1,306.1,37Zm9.69,6V53h-3.38V40.32h3.17Zm-.49,3.18h-.92a8.31,8.31,0,0,1,.36-2.53,6.1,6.1,0,0,1,1-1.93,4.39,4.39,0,0,1,1.56-1.23,4.69,4.69,0,0,1,2-.43,4.94,4.94,0,0,1,1.63.25,3.35,3.35,0,0,1,1.27.82,3.75,3.75,0,0,1,.82,1.49,7.76,7.76,0,0,1,.29,2.26V53H320V44.9a3.08,3.08,0,0,0-.23-1.31,1.38,1.38,0,0,0-.69-.66,2.79,2.79,0,0,0-1.11-.2,2.48,2.48,0,0,0-1.18.27,2.35,2.35,0,0,0-.82.75,3.62,3.62,0,0,0-.48,1.11A5.32,5.32,0,0,0,315.3,46.21ZM334,40.32H337V52.58a5.41,5.41,0,0,1-.77,2.94,4.79,4.79,0,0,1-2.13,1.84,7.6,7.6,0,0,1-3.19.63,7.37,7.37,0,0,1-1.69-.21,6.59,6.59,0,0,1-1.69-.66A4.39,4.39,0,0,1,326.22,56l1.49-2a4.25,4.25,0,0,0,1.35,1.05,3.78,3.78,0,0,0,1.72.39,3.16,3.16,0,0,0,1.54-.34,2.29,2.29,0,0,0,1-1,3.33,3.33,0,0,0,.34-1.54V43.25Zm-8.53,6.49v-.24a9.42,9.42,0,0,1,.35-2.64,6.67,6.67,0,0,1,1-2,4.55,4.55,0,0,1,3.76-1.79,4.42,4.42,0,0,1,2.13.46,3.82,3.82,0,0,1,1.4,1.34,7.1,7.1,0,0,1,.86,2,19.09,19.09,0,0,1,.49,2.54V47a14.82,14.82,0,0,1-.53,2.46,7.45,7.45,0,0,1-.92,2,3.9,3.9,0,0,1-3.45,1.78,4.62,4.62,0,0,1-2.12-.48,4.92,4.92,0,0,1-1.61-1.34,6.74,6.74,0,0,1-1-2A9.05,9.05,0,0,1,325.43,46.81Zm3.38-.24v.24a6.84,6.84,0,0,0,.15,1.47,4,4,0,0,0,.47,1.2,2.41,2.41,0,0,0,.81.81,2.24,2.24,0,0,0,1.16.28,2.69,2.69,0,0,0,1.51-.38,2.5,2.5,0,0,0,.88-1.09,4.77,4.77,0,0,0,.34-1.6V46a5.38,5.38,0,0,0-.2-1.33,3.45,3.45,0,0,0-.49-1,2.1,2.1,0,0,0-.82-.65,2.79,2.79,0,0,0-1.2-.24,2.21,2.21,0,0,0-1.16.31,2.41,2.41,0,0,0-.81.81,4.09,4.09,0,0,0-.48,1.22A6.45,6.45,0,0,0,328.81,46.57Zm14.65-10.63-.39,11.85h-2.81l-.4-11.85Zm-3.7,15.51a1.66,1.66,0,0,1,.52-1.24,2.17,2.17,0,0,1,2.77,0,1.75,1.75,0,0,1,0,2.47,2.14,2.14,0,0,1-2.77,0A1.65,1.65,0,0,1,339.76,51.45Z"></path><path class="cls-2" d="M224.57,62h.12v.72h-.12a4.23,4.23,0,0,0-1.68.31,3.26,3.26,0,0,0-1.24.89,4,4,0,0,0-.76,1.39,6.2,6.2,0,0,0-.26,1.84v1.37a3.67,3.67,0,0,0,.19,1.24,2.64,2.64,0,0,0,.51.92,2.07,2.07,0,0,0,.77.58,2.12,2.12,0,0,0,.94.2,2,2,0,0,0,.89-.2,1.87,1.87,0,0,0,.67-.58,2.67,2.67,0,0,0,.43-.84,3.63,3.63,0,0,0,0-2,2.34,2.34,0,0,0-.4-.84,2,2,0,0,0-.68-.57,2.27,2.27,0,0,0-1-.2,2.36,2.36,0,0,0-1.17.29,2.47,2.47,0,0,0-.9.76,1.85,1.85,0,0,0-.36,1h-.47a3.19,3.19,0,0,1,.29-1.15,2.77,2.77,0,0,1,.65-.89,3,3,0,0,1,.94-.56,3.25,3.25,0,0,1,1.14-.2,2.92,2.92,0,0,1,1.26.26,2.62,2.62,0,0,1,.89.72,3.08,3.08,0,0,1,.54,1,4.18,4.18,0,0,1,.19,1.24,4.14,4.14,0,0,1-.21,1.34,3.15,3.15,0,0,1-.59,1.08,2.67,2.67,0,0,1-.93.73,2.8,2.8,0,0,1-1.22.26,3.11,3.11,0,0,1-1.35-.29,3.26,3.26,0,0,1-1-.79,3.9,3.9,0,0,1-.64-1.17,4.63,4.63,0,0,1-.22-1.41V67.6a8.26,8.26,0,0,1,.3-2.3,5,5,0,0,1,.88-1.78,3.86,3.86,0,0,1,1.48-1.14A5.08,5.08,0,0,1,224.57,62ZM235.77,69v-7h.84v7a3.32,3.32,0,0,1-.4,1.7,2.61,2.61,0,0,1-1.06,1,3.28,3.28,0,0,1-1.55.36,3.7,3.7,0,0,1-1.57-.32,2.3,2.3,0,0,1-1.05-.95,3.18,3.18,0,0,1-.38-1.62h.84a2.74,2.74,0,0,0,.25,1.21,1.79,1.79,0,0,0,.75.72,2.58,2.58,0,0,0,1.16.24,2.18,2.18,0,0,0,1.09-.27,1.94,1.94,0,0,0,.78-.8A2.63,2.63,0,0,0,235.77,69Zm2.67-.61v-.23a4.75,4.75,0,0,1,.23-1.49,3.59,3.59,0,0,1,.67-1.18,3,3,0,0,1,1-.77,3.44,3.44,0,0,1,2.72,0,3,3,0,0,1,1,.77,3.42,3.42,0,0,1,.67,1.18,4.48,4.48,0,0,1,.23,1.49v.23a4.48,4.48,0,0,1-.23,1.49,3.38,3.38,0,0,1-.67,1.17,2.85,2.85,0,0,1-1,.78,3.11,3.11,0,0,1-1.35.28,3.15,3.15,0,0,1-1.36-.28,2.89,2.89,0,0,1-1-.78,3.54,3.54,0,0,1-.67-1.17A4.75,4.75,0,0,1,238.44,68.42Zm.81-.23v.23a4,4,0,0,0,.17,1.15,3.26,3.26,0,0,0,.48,1,2.23,2.23,0,0,0,.78.65,2.48,2.48,0,0,0,2.13,0,2.23,2.23,0,0,0,.78-.65,3,3,0,0,0,.47-1,4,4,0,0,0,.16-1.15v-.23a3.88,3.88,0,0,0-.16-1.14,2.71,2.71,0,0,0-.48-1,2.18,2.18,0,0,0-.78-.67,2.39,2.39,0,0,0-2.13,0,2.18,2.18,0,0,0-.78.67,3.09,3.09,0,0,0-.48,1A4.24,4.24,0,0,0,239.25,68.19Zm7.48-6.69h.82v9.06L247.49,72h-.76Zm6,6.73v.15a5.53,5.53,0,0,1-.19,1.51,3.9,3.9,0,0,1-.55,1.2,2.52,2.52,0,0,1-.89.77,2.47,2.47,0,0,1-1.2.28,3.05,3.05,0,0,1-1.17-.21,2.57,2.57,0,0,1-.88-.59,3.29,3.29,0,0,1-.58-.91,5.05,5.05,0,0,1-.31-1.16V67.45a5.44,5.44,0,0,1,.33-1.22,3.39,3.39,0,0,1,.58-.94,2.37,2.37,0,0,1,.86-.61,3,3,0,0,1,1.16-.21,2.71,2.71,0,0,1,1.2.26,2.44,2.44,0,0,1,.9.76,3.73,3.73,0,0,1,.55,1.19A5.72,5.72,0,0,1,252.69,68.23Zm-.82.15v-.15a5.08,5.08,0,0,0-.13-1.2,2.77,2.77,0,0,0-.39-1,1.74,1.74,0,0,0-.67-.65,1.9,1.9,0,0,0-1-.24,2.39,2.39,0,0,0-1,.2,2,2,0,0,0-.68.52,2.46,2.46,0,0,0-.42.69,4.44,4.44,0,0,0-.24.73v2.13a3.13,3.13,0,0,0,.41,1,2.28,2.28,0,0,0,.77.74,2.39,2.39,0,0,0,1.18.27,1.82,1.82,0,0,0,1.64-.88,3.22,3.22,0,0,0,.39-1A5.66,5.66,0,0,0,251.87,68.38Zm13.59-1.89v1.07a6.21,6.21,0,0,1-.27,1.89,4.16,4.16,0,0,1-.78,1.44,3.48,3.48,0,0,1-1.22.93,3.87,3.87,0,0,1-1.6.32,3.91,3.91,0,0,1-1.58-.32,3.61,3.61,0,0,1-1.23-.93,4.35,4.35,0,0,1-.79-1.44,5.91,5.91,0,0,1-.28-1.89V66.49A6.16,6.16,0,0,1,258,64.6a4.52,4.52,0,0,1,.8-1.45,3.55,3.55,0,0,1,1.22-.92,4.11,4.11,0,0,1,3.18,0,3.55,3.55,0,0,1,1.22.92,4.15,4.15,0,0,1,.79,1.45A6.16,6.16,0,0,1,265.46,66.49Zm-.83,1.07V66.48a5.57,5.57,0,0,0-.21-1.59,3.37,3.37,0,0,0-.59-1.2,2.56,2.56,0,0,0-1-.77,3,3,0,0,0-1.29-.26,2.84,2.84,0,0,0-1.26.26,2.56,2.56,0,0,0-1,.77,3.56,3.56,0,0,0-.6,1.2,5.57,5.57,0,0,0-.21,1.59v1.08a5.69,5.69,0,0,0,.21,1.6,3.53,3.53,0,0,0,.61,1.21,2.69,2.69,0,0,0,.95.76,2.92,2.92,0,0,0,1.27.27,3,3,0,0,0,1.3-.27,2.69,2.69,0,0,0,.95-.76,3.49,3.49,0,0,0,.58-1.21A5.69,5.69,0,0,0,264.63,67.56ZM268.2,66v8.81h-.82V64.6h.77Zm5.15,2.2v.15a5.52,5.52,0,0,1-.2,1.51,3.68,3.68,0,0,1-.55,1.2,2.48,2.48,0,0,1-2.08,1,3.14,3.14,0,0,1-1.18-.21,2.63,2.63,0,0,1-.9-.58,3.07,3.07,0,0,1-.59-.89,4.29,4.29,0,0,1-.31-1.12V67.45a5,5,0,0,1,.34-1.22,3.2,3.2,0,0,1,.59-.94,2.45,2.45,0,0,1,.88-.61,3,3,0,0,1,1.15-.21,2.71,2.71,0,0,1,1.2.26,2.44,2.44,0,0,1,.9.76,3.35,3.35,0,0,1,.55,1.19A5.71,5.71,0,0,1,273.35,68.23Zm-.83.15v-.15a5.08,5.08,0,0,0-.13-1.2,2.79,2.79,0,0,0-.41-1,1.77,1.77,0,0,0-.68-.65,1.9,1.9,0,0,0-1-.24,2.35,2.35,0,0,0-1,.2,2,2,0,0,0-.68.52,2.53,2.53,0,0,0-.44.69,4.38,4.38,0,0,0-.23.73V69.5a3.36,3.36,0,0,0,.42,1,2.13,2.13,0,0,0,.76.7,2.43,2.43,0,0,0,1.19.26,1.91,1.91,0,0,0,1-.23,1.81,1.81,0,0,0,.67-.65,2.93,2.93,0,0,0,.41-1A5.08,5.08,0,0,0,272.52,68.38Zm5.5,3.76a3.18,3.18,0,0,1-2.38-1,3.62,3.62,0,0,1-.7-1.15,4.56,4.56,0,0,1-.23-1.46v-.3a4.4,4.4,0,0,1,.25-1.54,3.46,3.46,0,0,1,.7-1.18,3.09,3.09,0,0,1,1-.76,3.07,3.07,0,0,1,2.45,0,2.45,2.45,0,0,1,.92.7,2.92,2.92,0,0,1,.56,1.08,4.46,4.46,0,0,1,.2,1.36v.5h-5.6v-.7H280v-.1a3,3,0,0,0-.25-1.16,2.19,2.19,0,0,0-.7-.89,1.88,1.88,0,0,0-1.16-.34,2.08,2.08,0,0,0-1,.22,2.33,2.33,0,0,0-.74.63,2.88,2.88,0,0,0-.48,1,4.31,4.31,0,0,0-.16,1.23v.3a3.9,3.9,0,0,0,.17,1.15,3.06,3.06,0,0,0,.52.92,2.47,2.47,0,0,0,.81.63,2.33,2.33,0,0,0,1,.23,2.7,2.7,0,0,0,1.16-.24,2.61,2.61,0,0,0,.91-.77l.51.39a3.09,3.09,0,0,1-.6.66,2.75,2.75,0,0,1-.86.48A3.41,3.41,0,0,1,278,72.14Zm5.2-6V72h-.81V64.6h.78ZM283,67.84l-.36-.2a3.8,3.8,0,0,1,.26-1.23,3.54,3.54,0,0,1,.61-1,2.64,2.64,0,0,1,2.07-.93,3,3,0,0,1,1,.15,1.79,1.79,0,0,1,.75.48,2,2,0,0,1,.46.84,4.1,4.1,0,0,1,.17,1.25V72h-.82V67.18A2.81,2.81,0,0,0,287,66a1.36,1.36,0,0,0-.61-.62,2.16,2.16,0,0,0-.92-.18,2,2,0,0,0-1,.26,2.46,2.46,0,0,0-.74.66,3,3,0,0,0-.45.87A2.85,2.85,0,0,0,283,67.84Zm8-3.24V72h-.82V64.6Zm-1-2.14a.6.6,0,0,1,.14-.39.53.53,0,0,1,.41-.16.51.51,0,0,1,.41.16.56.56,0,0,1,0,.78.51.51,0,0,1-.41.16.53.53,0,0,1-.41-.16A.6.6,0,0,1,290.06,62.46Zm4,3.72V72h-.81V64.6H294Zm-.18,1.66-.36-.2a4.08,4.08,0,0,1,.26-1.23,3.54,3.54,0,0,1,.61-1,2.89,2.89,0,0,1,.91-.69,2.77,2.77,0,0,1,1.16-.24,3.13,3.13,0,0,1,1,.15,1.76,1.76,0,0,1,.74.48,2,2,0,0,1,.47.84,4.47,4.47,0,0,1,.16,1.25V72H298V67.18a2.81,2.81,0,0,0-.21-1.2,1.29,1.29,0,0,0-.6-.62,2.2,2.2,0,0,0-.93-.18,2,2,0,0,0-1,.26,2.46,2.46,0,0,0-.74.66,3.59,3.59,0,0,0-.45.87A3.18,3.18,0,0,0,293.88,67.84Zm11.94-3.24h.75v7.27a3.53,3.53,0,0,1-.36,1.65,2.53,2.53,0,0,1-1,1.06,3.1,3.1,0,0,1-1.56.37,3.38,3.38,0,0,1-1.85-.56,2.7,2.7,0,0,1-.73-.7l.46-.5a3.06,3.06,0,0,0,1,.8,2.45,2.45,0,0,0,1.11.26,2.3,2.3,0,0,0,1.19-.28,1.76,1.76,0,0,0,.74-.81,2.73,2.73,0,0,0,.26-1.26V66.23Zm-5.2,3.78v-.15a5.72,5.72,0,0,1,.19-1.55,3.56,3.56,0,0,1,.57-1.19,2.58,2.58,0,0,1,.89-.76,2.79,2.79,0,0,1,1.21-.26,2.9,2.9,0,0,1,1.14.21,2.37,2.37,0,0,1,.86.61,3,3,0,0,1,.58.94,5.44,5.44,0,0,1,.33,1.22v1.82a4.2,4.2,0,0,1-.3,1.16,3.29,3.29,0,0,1-.58.91,2.48,2.48,0,0,1-.88.59,3,3,0,0,1-1.17.21,2.49,2.49,0,0,1-1.19-.28,2.61,2.61,0,0,1-.89-.77,3.71,3.71,0,0,1-.57-1.2A5.53,5.53,0,0,1,300.62,68.38Zm.82-.15v.15a5.08,5.08,0,0,0,.13,1.2,3,3,0,0,0,.4,1,1.89,1.89,0,0,0,.67.65,2,2,0,0,0,1,.23,2.37,2.37,0,0,0,1.18-.27,2.1,2.1,0,0,0,.76-.72,3.28,3.28,0,0,0,.41-1V67.32a4.38,4.38,0,0,0-.23-.73,2.28,2.28,0,0,0-.43-.69,1.79,1.79,0,0,0-.68-.52,2.31,2.31,0,0,0-1-.2,2,2,0,0,0-1,.24,1.81,1.81,0,0,0-.67.65,3,3,0,0,0-.4,1A5.08,5.08,0,0,0,301.44,68.23Zm11.7,1.88a1.26,1.26,0,0,0-.15-.59,1.33,1.33,0,0,0-.58-.54,4.29,4.29,0,0,0-1.25-.42,8.16,8.16,0,0,1-1.1-.31,3.07,3.07,0,0,1-.81-.41,1.62,1.62,0,0,1-.67-1.36,1.75,1.75,0,0,1,.18-.78,2.12,2.12,0,0,1,.52-.64,2.57,2.57,0,0,1,.82-.44,3.73,3.73,0,0,1,1.09-.15,3.25,3.25,0,0,1,1.46.29,2.16,2.16,0,0,1,.94.79,2,2,0,0,1,.33,1.12h-.82a1.29,1.29,0,0,0-.22-.72,1.64,1.64,0,0,0-.65-.56,2.19,2.19,0,0,0-1-.22,2.34,2.34,0,0,0-1,.19,1.3,1.3,0,0,0-.58.49,1.14,1.14,0,0,0-.18.61,1.33,1.33,0,0,0,.07.45,1.07,1.07,0,0,0,.29.37,2.34,2.34,0,0,0,.6.32,7.15,7.15,0,0,0,1,.29,6.3,6.3,0,0,1,1.47.49,2,2,0,0,1,.84.69,1.73,1.73,0,0,1,.28,1,1.78,1.78,0,0,1-.75,1.49,2.57,2.57,0,0,1-.86.43,3.89,3.89,0,0,1-1.12.15,3.82,3.82,0,0,1-1.59-.31,2.39,2.39,0,0,1-1-.82,2,2,0,0,1-.33-1.09h.81a1.45,1.45,0,0,0,.36.91,1.92,1.92,0,0,0,.79.47,3.31,3.31,0,0,0,.93.13,2.67,2.67,0,0,0,1-.18,1.6,1.6,0,0,0,.65-.49A1.1,1.1,0,0,0,313.14,70.11Z"></path><path class="cls-2" d="M427.32,34.31a2,2,0,0,1,.7-1.22,2.08,2.08,0,0,1,1.33-.49c.12,0,.24,0,.36,0A2.06,2.06,0,0,1,431.38,35l-.17,1,20.35,8.87a2,2,0,0,1,2.81.45,2,2,0,0,1,.37,1.5l-.54,3.57a2,2,0,0,1-.68,1.23,2,2,0,0,1-1.31.5,3,3,0,0,1-.31,0,2,2,0,0,1-1.45-1h0l-3.56,10.2h0a2.2,2.2,0,0,1-4.06.23,2.25,2.25,0,0,1-.09-1.69l2.82-8.1-17.25,2.3-.06.37a2.06,2.06,0,0,1-2.38,1.69h0a2,2,0,0,1-1.33-.84,2.08,2.08,0,0,1-.35-1.55Zm24.77,16.63a.81.81,0,0,0,.91-.68l.54-3.57a.83.83,0,0,0-.15-.61.81.81,0,0,0-.53-.31h-.12a.83.83,0,0,0-.48.15l-.13.13s0,0,0,0a.87.87,0,0,0-.16.37L451.41,50a.57.57,0,0,0,0,.13.54.54,0,0,0,0,.18.81.81,0,0,0,.67.61Zm-5.2.68-3,8.69a1,1,0,0,0,0,.75.92.92,0,0,0,.56.5h0a1,1,0,0,0,.76,0,1,1,0,0,0,.49-.57l3.36-9.62-1.18.15ZM428.5,52.84l17.86-2.38,3.83-.52s0-.07,0-.1h0l.54-3.57h0a1.32,1.32,0,0,1,.08-.33h0L433.5,38.38l-1.72,11.51a.61.61,0,0,1-.6.52h-.09a.61.61,0,0,1-.51-.7l1.76-11.84L431,37.29l-.42,2.61ZM426.06,55a.89.89,0,0,0,.63-.15.82.82,0,0,0,.34-.54l1.89-11.67,1-6.28h0l.24-1.51a.83.83,0,0,0-.14-.63.85.85,0,0,0-.53-.34l-.17,0a.86.86,0,0,0-.83.7L425.37,54a.85.85,0,0,0,.69,1Z"></path><path class="cls-2" d="M419.11,38.81a.83.83,0,0,1-.43-.13l-3.45-2.32a.77.77,0,1,1,.86-1.28l3.46,2.32a.77.77,0,0,1-.43,1.41Z"></path><path class="cls-2" d="M413,47l4-1a.77.77,0,0,1,.37,1.5l-4,1-.19,0A.77.77,0,0,1,413,47Z"></path><path class="cls-2" d="M414.78,42.85a.77.77,0,1,1,.14-1.53l3.14.29h0a.77.77,0,0,1-.07,1.53h-.07Z"></path><rect class="cls-3" x="223.56" y="86.5" width="90.54" height="23.8"></rect><path class="cls-4" d="M235,94.85v8.53h-1.76V94.85Zm3.4,3.65v1.37h-3.88V98.5Zm.41-3.65v1.38h-4.29V94.85ZM241.49,97v6.34H239.8V97Zm-1.8-1.65a.82.82,0,0,1,.26-.61,1.11,1.11,0,0,1,1.38,0,.82.82,0,0,1,.26.61.8.8,0,0,1-.26.61A1.11,1.11,0,0,1,240,96,.8.8,0,0,1,239.69,95.39Zm4.85,3v5h-1.69V97h1.58Zm-.25,1.59h-.45a4.08,4.08,0,0,1,.18-1.26,2.8,2.8,0,0,1,.51-1,2.21,2.21,0,0,1,.78-.62,2.58,2.58,0,0,1,1.83-.08,1.41,1.41,0,0,1,.63.41,1.7,1.7,0,0,1,.41.74,3.73,3.73,0,0,1,.15,1.13v4h-1.7v-4a1.42,1.42,0,0,0-.12-.65.61.61,0,0,0-.34-.33,1.29,1.29,0,0,0-.55-.1,1.2,1.2,0,0,0-.59.14,1.12,1.12,0,0,0-.41.37,1.61,1.61,0,0,0-.24.55A2.48,2.48,0,0,0,244.29,100Zm9.07,2V94.38h1.7v9h-1.53Zm-4-1.71v-.12a4.87,4.87,0,0,1,.16-1.32,3.16,3.16,0,0,1,.48-1,2.46,2.46,0,0,1,.78-.66,2.27,2.27,0,0,1,1.06-.23,1.91,1.91,0,0,1,1,.23,2.18,2.18,0,0,1,.72.67,3.5,3.5,0,0,1,.48,1,6.79,6.79,0,0,1,.26,1.27v.27a6.36,6.36,0,0,1-.26,1.23,3.71,3.71,0,0,1-.48,1,2.26,2.26,0,0,1-.72.66,2.06,2.06,0,0,1-1,.23,2.27,2.27,0,0,1-1.06-.24,2.24,2.24,0,0,1-.77-.67,3.21,3.21,0,0,1-.48-1A4.72,4.72,0,0,1,249.35,100.29Zm1.69-.12v.12a4.15,4.15,0,0,0,.06.73,2.19,2.19,0,0,0,.2.61,1.12,1.12,0,0,0,.38.4,1.08,1.08,0,0,0,.56.14A1.25,1.25,0,0,0,253,102a1.31,1.31,0,0,0,.43-.55,2.13,2.13,0,0,0,.17-.79v-.77a2.54,2.54,0,0,0-.1-.66,1.52,1.52,0,0,0-.25-.51,1.08,1.08,0,0,0-.4-.33,1.18,1.18,0,0,0-.55-.12,1.05,1.05,0,0,0-.57.15,1.25,1.25,0,0,0-.38.41,2.29,2.29,0,0,0-.21.61A4.38,4.38,0,0,0,251,100.17Zm10.2,2.5L262.93,97h1.81l-2.55,7.3a5.23,5.23,0,0,1-.22.51,2.31,2.31,0,0,1-.37.53,2.08,2.08,0,0,1-.58.41,2.15,2.15,0,0,1-.85.15,2.25,2.25,0,0,1-.4,0,2.18,2.18,0,0,1-.36-.08V104.6h.27a1.75,1.75,0,0,0,.55-.07.68.68,0,0,0,.33-.24,1,1,0,0,0,.21-.4Zm-.7-5.63,1.38,4.6.24,1.78-1.15.13L258.73,97Zm4.51,3.24v-.12a3.8,3.8,0,0,1,.2-1.29,2.86,2.86,0,0,1,.58-1,2.55,2.55,0,0,1,.93-.68,3.25,3.25,0,0,1,1.28-.24,3.21,3.21,0,0,1,1.28.24,2.62,2.62,0,0,1,.95.68,2.86,2.86,0,0,1,.58,1,3.8,3.8,0,0,1,.2,1.29v.12a3.78,3.78,0,0,1-.2,1.28,3,3,0,0,1-.58,1,2.65,2.65,0,0,1-.94.67,3.53,3.53,0,0,1-2.56,0,2.56,2.56,0,0,1-.94-.67,3,3,0,0,1-.58-1A3.78,3.78,0,0,1,265.05,100.28Zm1.68-.12v.12a3.5,3.5,0,0,0,.08.74,1.84,1.84,0,0,0,.22.61,1.15,1.15,0,0,0,.41.41,1.4,1.4,0,0,0,1.22,0,1.21,1.21,0,0,0,.4-.41,1.84,1.84,0,0,0,.22-.61,3.5,3.5,0,0,0,.08-.74v-.12a3.4,3.4,0,0,0-.08-.73,1.84,1.84,0,0,0-.22-.61,1.2,1.2,0,0,0-1.63-.42,1.16,1.16,0,0,0-.4.42,1.84,1.84,0,0,0-.22.61A3.4,3.4,0,0,0,266.73,100.16Zm9.11,1.71V97h1.69v6.34h-1.59Zm.19-1.3.5,0a4.38,4.38,0,0,1-.15,1.18,2.81,2.81,0,0,1-.44.94,2,2,0,0,1-.74.61,2.29,2.29,0,0,1-1.05.22,2.57,2.57,0,0,1-.85-.13,1.84,1.84,0,0,1-.67-.41,2.06,2.06,0,0,1-.43-.74,3.15,3.15,0,0,1-.16-1.08V97h1.69v4.11a1.35,1.35,0,0,0,.07.48.81.81,0,0,0,.19.31.79.79,0,0,0,.29.18,1.38,1.38,0,0,0,.37,0,1.4,1.4,0,0,0,.82-.21,1.12,1.12,0,0,0,.43-.57A2.66,2.66,0,0,0,276,100.57Zm4.47-2.14v4.95h-1.68V97h1.58ZM282.41,97l0,1.57-.3,0-.31,0a2,2,0,0,0-.63.09,1.12,1.12,0,0,0-.43.27,1.15,1.15,0,0,0-.26.43,2.27,2.27,0,0,0-.09.57l-.34-.11a5,5,0,0,1,.12-1.13,2.92,2.92,0,0,1,.36-.9,1.78,1.78,0,0,1,.59-.6,1.48,1.48,0,0,1,.79-.21,1.32,1.32,0,0,1,.28,0A1.11,1.11,0,0,1,282.41,97Zm5.48,1.43v4.95H286.2V97h1.59ZM289.8,97l0,1.57-.3,0-.31,0a1.89,1.89,0,0,0-.62.09,1.16,1.16,0,0,0-.44.27,1,1,0,0,0-.25.43,1.88,1.88,0,0,0-.1.57l-.34-.11a4.49,4.49,0,0,1,.13-1.13,3.19,3.19,0,0,1,.35-.9,1.78,1.78,0,0,1,.59-.6,1.48,1.48,0,0,1,.79-.21,1.46,1.46,0,0,1,.29,0Zm.35,3.28v-.12a4.06,4.06,0,0,1,.2-1.29,2.86,2.86,0,0,1,.58-1,2.5,2.5,0,0,1,.94-.68,3.16,3.16,0,0,1,1.27-.24,3.3,3.3,0,0,1,1.29.24,2.59,2.59,0,0,1,.94.68,3,3,0,0,1,.59,1,4.06,4.06,0,0,1,.19,1.29v.12a4,4,0,0,1-.19,1.28,3.18,3.18,0,0,1-.59,1,2.56,2.56,0,0,1-.94.67,3.18,3.18,0,0,1-1.28.24,3.25,3.25,0,0,1-1.28-.24,2.65,2.65,0,0,1-.94-.67,3,3,0,0,1-.58-1A4,4,0,0,1,290.15,100.28Zm1.69-.12v.12a3.51,3.51,0,0,0,.07.74,1.84,1.84,0,0,0,.22.61,1.15,1.15,0,0,0,.41.41,1.4,1.4,0,0,0,1.22,0,1.12,1.12,0,0,0,.4-.41,2.09,2.09,0,0,0,.23-.61,3.51,3.51,0,0,0,.07-.74v-.12a3.41,3.41,0,0,0-.07-.73,2.09,2.09,0,0,0-.23-.61,1.1,1.1,0,0,0-.41-.42,1.24,1.24,0,0,0-1.22,0,1.16,1.16,0,0,0-.4.42,1.84,1.84,0,0,0-.22.61A3.41,3.41,0,0,0,291.84,100.16ZM299,94.38v9h-1.69v-9Zm4.32,9.12a3.67,3.67,0,0,1-1.33-.23,2.76,2.76,0,0,1-1-.67,3,3,0,0,1-.63-1,3.44,3.44,0,0,1-.21-1.2v-.23a4.25,4.25,0,0,1,.2-1.32,3,3,0,0,1,.59-1,2.53,2.53,0,0,1,.94-.67,3,3,0,0,1,1.24-.24,2.94,2.94,0,0,1,1.19.22,2.45,2.45,0,0,1,.88.63,3,3,0,0,1,.54,1,4.17,4.17,0,0,1,.18,1.26v.71h-5V99.61h3.38v-.13a1.45,1.45,0,0,0-.13-.63,1.06,1.06,0,0,0-.37-.44,1.18,1.18,0,0,0-.65-.17,1.05,1.05,0,0,0-.57.15,1.31,1.31,0,0,0-.4.41,2.5,2.5,0,0,0-.22.62,3.77,3.77,0,0,0-.07.78v.23a2.23,2.23,0,0,0,.11.7,1.53,1.53,0,0,0,.31.56,1.25,1.25,0,0,0,.49.36,1.53,1.53,0,0,0,.66.13,2.15,2.15,0,0,0,.85-.17,1.91,1.91,0,0,0,.69-.55l.82.89a2.6,2.6,0,0,1-.55.55,2.89,2.89,0,0,1-.82.44A3.33,3.33,0,0,1,303.29,103.5Z"></path></svg>