<svg xmlns="http://www.w3.org/2000/svg" xmlns:xlink="http://www.w3.org/1999/xlink" id="Layer_1" data-name="Layer 1" viewBox="0 0 74.01 74.01"><defs><style>.cls-1{fill:url(#linear-gradient);}</style><linearGradient id="linear-gradient" x1="-6" y1="-3.16" x2="81.86" y2="80.94" gradientTransform="matrix(1, 0, 0, -1, 0, 75.01)" gradientUnits="userSpaceOnUse"><stop offset="0" stop-color="#32acd5"></stop><stop offset="1" stop-color="#a2d9d3"></stop></linearGradient></defs><path class="cls-1" d="M67.28,0H6.73A6.73,6.73,0,0,0,0,6.73V67.28A6.73,6.73,0,0,0,6.73,74H67.28A6.73,6.73,0,0,0,74,67.28V6.73A6.73,6.73,0,0,0,67.28,0ZM23.39,60.56H13.47V28.62h9.92Zm-5.06-36.5a5.79,5.79,0,1,1,5.78-5.79A5.78,5.78,0,0,1,18.33,24.06Zm42.24,36.5H50.65V45c0-3.71-.07-8.47-5.16-8.47s-6,4-6,8.2v15.8H29.62V28.62h9.52V33h.13a10.45,10.45,0,0,1,9.39-5.16c10.05,0,11.91,6.61,11.91,15.21Z"></path></svg>