<svg xmlns="http://www.w3.org/2000/svg" id="svg2" viewBox="0 0 1602.71 741.71"><defs><style>.cls-1{fill:#1a2325;}</style></defs><g id="layer1"><path id="path2830" class="cls-1" d="M378.21,718.81c-6-2.24-7.68-4.44-6.25-8.19.66-1.74,1.93-3.16,2.82-3.16s4.78,2,8.65,4.55A73.74,73.74,0,0,0,394,717.82l3.48,1.27-4.28.09c-2.36.05-5.81.31-7.68.58a17.4,17.4,0,0,1-7.26-1ZM364.6,707.29a6.07,6.07,0,0,0-4.19-.48c-1.48.47-2.62-.23-3.71-2.27a8.43,8.43,0,0,0-3.45-3.59c-2.37-.82-7.34-8.86-10.1-16.37-1.4-3.79-3.28-6.4-5.51-7.67-3.95-2.25-4.24-3.27-1.18-4.25,3.51-1.11,4.16-7.28,1.21-11.42-1.41-2-2.15-4.3-1.72-5.4.5-1.31-.88-3.6-4.23-7-4.22-4.3-5-5.87-5.19-10.4-.12-2.93-.83-6.07-1.58-7-.95-1.14-1.14-5.23-.63-13.32a73.66,73.66,0,0,0-1.3-21.71c-2.26-11.19-3.42-32.05-2.83-51.08A50.63,50.63,0,0,0,319,533c-1.87-6.7-10.48-15.16-21.13-20.75-7.61-4-8.68-5-11.66-11.18a81.87,81.87,0,0,0-7.65-12.35,41.76,41.76,0,0,1-5.82-10c-2.51-7.76-6.94-15.56-10-17.54a12.1,12.1,0,0,1-4.07-6.09c-1-3.71-.76-4.74,2.45-9.4,3.48-5.06,3.52-5.26,1.17-5.88-5.78-1.51-3.35-9.23,7-22.31,6.89-8.69,8.91-15.31,7-23-.73-2.91-1.38-6-1.45-6.77s-.59-1.48-1.15-1.48-.46-1.06.24-2.37c1.08-2,.8-2.58-1.78-3.75-3.76-1.71-9.43,0-9.46,2.82,0,3.41-1.52,3.66-6.46,1.08-2.65-1.38-5.4-2.5-6.11-2.5s-3.49-1.89-6.17-4.2-5.53-4.72-6.34-5.36a5.59,5.59,0,0,1-1.48-3.89,7.58,7.58,0,0,0-2.31-4.82,16.91,16.91,0,0,1-3.67-6.2c-1-3-1.71-3.74-2.65-2.81-1.94,2-4.82,1.58-11.82-1.51-3.65-1.62-7.46-4.38-9-6.52a21,21,0,0,0-6.17-5.53c-3.2-1.65-4-1.64-8.66.14l-5.13,2-15.75-7.63c-9.7-4.7-17.22-9.18-19.55-11.64-3.61-3.82-3.72-4.24-2.52-9,1.1-4.34.91-5.68-1.48-10.63a53.49,53.49,0,0,0-7.32-10.63c-2.52-2.73-4.29-5.43-3.95-6s-1.42-4.38-3.94-8.47c-2.86-4.65-4.88-9.64-5.38-13.28-.64-4.67-1.39-6.1-3.76-7.18s-3.22-1-4.65,1c-2,2.77-1.45,5.69,3,15.38a59,59,0,0,1,4.18,13,40.36,40.36,0,0,0,3.14,10.27c3,5.8,1,5.7-3.62-.2-2.75-3.47-3.5-5.38-3-7.56s0-3.45-2.85-5.57c-4.35-3.21-5.27-5.28-3.67-8.26.93-1.74.5-3.65-1.86-8.31s-2.9-7-2.31-10.54c1-5.75-1.6-10.95-6.41-12.94-2.78-1.15-3.73-2.44-4.3-5.78-.4-2.36-1.16-6-1.7-8.13s-.52-4.11.09-4.49.21-2-.85-3.6c-1.56-2.38-1.67-3.51-.56-5.93.75-1.65,1-3.53.63-4.18s.6-2.61,2.23-4.34a30,30,0,0,0,4.84-7.69,45.42,45.42,0,0,1,7-10.26,55.08,55.08,0,0,0,8-12.28c2.16-5,3.43-6.55,5.36-6.56,1.39,0,2.45.64,2.36,1.45-.38,3.39,2.3,2.34,5.31-2.07,1.77-2.59,2.72-4.9,2.12-5.11a2.4,2.4,0,0,1-1.1-2.18c0-1-2.44-4.15-5.43-7.05-5-4.82-5.28-5.46-3.63-7.28,1.34-1.48,1.49-2.56.6-4.15-1.56-2.8.91-9.06,3.59-9.09,1.1,0,1.42-.38.74-.88-1.52-1.12-2.22-3.66-2-7.36.34-5.92-.95-8.39-5.35-10.23a43.54,43.54,0,0,1-8-4.65c-2.05-1.56-4.66-2.84-5.79-2.84a91.77,91.77,0,0,1-11.41-2.39c-8.27-2.11-9.73-2.2-12.59-.72-5.94,3.06-12.24,4.3-14.8,2.93-1.93-1-4-.39-11.35,3.44-4.94,2.58-10.84,5.1-13.12,5.59a50.5,50.5,0,0,0-9.67,3.68c-8.63,4.35-21,8.74-24.42,8.66-2.21-.05-.72-1,5.16-3.35,10-4,20.24-9.11,21.19-10.65,1.17-1.89-1.37-2.57-4.42-1.18-2.24,1-3.62.93-6.21-.43l-3.33-1.75L28,111.8c4.1-2.12,5.38-4.51,4.44-8.26s4.12-6.3,14.94-7.93c5.82-.88,10.24-2.34,13.21-4.37,5.25-3.57,4.35-6.27-1.31-3.93-2.68,1.11-4.63,1.12-8.6.06-4.82-1.3-5-1.49-2.83-3.06,3.61-2.64,11.07-4.23,16-3.4a12.49,12.49,0,0,0,8.26-1.19l3.77-2-2.48-2.65a11.57,11.57,0,0,1-2.49-3.33c0-1.1,7.11-3.29,10.67-3.29,1.77,0,6.64-1.28,10.81-2.85s13.79-3.72,21.39-4.77c12.31-1.7,14.91-1.72,24.15-.19,5.69,1,13.53,2.07,17.43,2.5a123,123,0,0,1,15.33,3c10.53,2.89,17.39,2.85,29.15-.15,5.2-1.33,10.45-2.09,11.67-1.71a6.94,6.94,0,0,0,4.62-.57c1.82-1,3.22-.86,5.82.48,2.34,1.21,5.23,1.56,9.16,1.1,4.15-.49,7.78,0,13.09,1.81,4,1.37,8.53,2.48,10,2.48,2.56,0,2.57,0,.33,1.69s-2.2,1.72-.14,2.52c1.19.46,5.3.51,9.13.11,6.94-.73,7-.71,8.93,3l1.95,3.77,2.53-3.17c1.45-1.82,4.9-3.89,8.11-4.85,4.85-1.46,6.32-1.46,11.19,0a26.32,26.32,0,0,0,10.64,1c3.93-.57,5.75-.22,8.31,1.61,3.24,2.3,3.33,2.3,6.19.08A25.64,25.64,0,0,1,328.61,72c5.81-1.62,7.78-5.06,4.29-7.5-2.46-1.73-2.36-1.86,4.12-5,4.84-2.37,7-2.91,8-2s.93,2,0,3.79c-1.65,3.08.4,7.74,3,6.75a5.49,5.49,0,0,1,3.4,0c1.5.57,1.47,1.06-.17,3.56-4.54,6.94,5.64,5,12.53-2.41a10.14,10.14,0,0,1,11.21-2.35c2.63,1,2.39,1.83-2,6.6-5.18,5.69-7.84,6.85-15.63,6.85-3.76,0-8.21.82-10.28,1.89-2.86,1.48-4.26,1.61-6.52.57-4.22-1.92-5.69-.32-2.66,2.9l2.58,2.75-5.15,1.46a52.34,52.34,0,0,1-10.47,1.63c-4.23.14-5.31.6-5.32,2.28,0,1.43-2.07,2.94-6.49,4.75-14.35,5.87-26.52,16.44-22.12,19.21a11.25,11.25,0,0,1,2.92,4.16,6.53,6.53,0,0,0,4.7,3.88,61.2,61.2,0,0,1,10.37,4.14,65.24,65.24,0,0,0,10.63,4.27c5.37,1.17,5.41,1.29,2.91,7.63-2.13,5.42-2.18,6.2-.52,9.4,1,1.92,2.45,3.47,3.25,3.45,3.87-.11,7.5-3.69,9.75-9.6,2.15-5.64,3.13-6.69,9.3-10,9.1-4.86,12.89-9.65,11.88-15-.66-3.51-.32-4.33,2.68-6.46a20.82,20.82,0,0,0,5.56-7.16c2.61-5.79,6.81-7.8,13.88-6.64,6.27,1,13.69,5,14.59,7.83a7,7,0,0,1-.68,4.63c-1.12,2.1-.91,3,1.27,5.3l2.62,2.79,4.27-2.22a72.09,72.09,0,0,0,8.38-5.28l4.1-3.07,1,2.61a7.29,7.29,0,0,1,.33,4.24,5.71,5.71,0,0,0,.6,3.93,4.45,4.45,0,0,1,.16,4.21c-.75,1.33-.25,3.36,1.65,6.71,2.72,4.79,2.72,4.8.33,6.47-3.15,2.21-1.13,4.55,2.33,2.7s7.35-1.6,9.77.59q5.37,4.86-8.89,11.59c-10.34,4.86-14.95,5.82-28.43,5.94-10,.09-11.28.41-21,5.05-5.68,2.72-10.33,5.42-10.33,6,0,2.44,1.79,2.23,8.66-1,4.05-1.92,9.27-3.45,11.75-3.45,4.25,0,4.4.13,3.08,2.61a17.78,17.78,0,0,1-3.68,4.46c-2,1.6-2.1,2.27-.86,5,1.86,4.07,6.7,6,12.49,5.05l4.58-.78-3.52,2.43a24,24,0,0,1-7.09,3.2,47.78,47.78,0,0,0-9,3.49c-3,1.51-6,2.32-6.84,1.81-1.87-1.15.1-2.88,6.17-5.42,5.41-2.26,4.54-4.65-1.28-3.56-2.27.42-9.62,3.19-16.34,6.15-10.48,4.62-12.31,5.84-12.92,8.62-.75,3.42-3.31,5-12.31,7.77a23,23,0,0,0-8.27,4.69,48.2,48.2,0,0,1-7.13,5.68c-2.25,1.42-4.4,3.9-4.78,5.51-.63,2.67-.78,2.73-1.57.68-1.47-3.85-3.7-.09-3.83,6.47-.13,6.72-3.54,11.3-11,14.81-7.66,3.6-18.56,12.1-20.77,16.2-1.95,3.62-2,5-.83,14.34,1.12,8.67,1.06,10.85-.42,13.7-1.1,2.13-2.38,3.15-3.45,2.74-2.54-1-5.64-11.4-4.77-16,.61-3.22.21-4.44-2.19-6.69-1.93-1.81-3.72-2.5-5.23-2-1.27.4-4.84-.36-8-1.7-4.76-2-6.28-2.21-9.69-1.09-2.3.76-4.6,2.57-5.35,4.22-1.11,2.45-1.85,2.76-4.94,2.1a33.35,33.35,0,0,1-6.81-2.41c-4.32-2.21-6.74-2.05-11.6.74-2.26,1.3-6.88,3.79-10.26,5.53-3.89,2-6.56,4.29-7.26,6.2-.6,1.66-2.78,8.15-4.84,14.42l-3.73,11.4,1.91,7.35c3.5,13.52,8.37,17.57,18.53,15.39,7.65-1.64,12.25-5,13.94-10.09,1.07-3.25,2.23-4.32,5.69-5.29,5.22-1.44,7.39-1.5,9.4-.23,1.65,1,1.07,2.78-6.33,18.8-5.08,11-4.71,12,4,10.72,7.93-1.14,15.17-.27,16,1.94.33.86-.21,6.66-1.19,12.89-1.77,11.15-1.75,11.4.79,15.5a18.84,18.84,0,0,0,5.91,5.9c2.92,1.52,3.84,1.51,7.52,0,5.85-2.44,9-2.18,13.09,1.07,3.25,2.6,3.71,2.67,6.26,1a16.43,16.43,0,0,0,4.6-5.47c2.28-4.54,6.12-7.74,9.35-7.77,1.35,0,3.7-1.36,5.22-3,3.1-3.3,8.56-4.37,5.89-1.16-2.24,2.7-3.52,11.37-2.07,14.06,1.2,2.25,1.29,2.24,3.48-.46,1.55-1.92,1.87-3.16,1-4-2-2-1.42-3.71,2.35-6.5,3.92-2.9,7-2.6,10.34,1,2.48,2.65,15.72,6.23,19.51,5.28,5.78-1.45,21.39,8,27.26,16.57,2.79,4.06,11.71,8.15,15.64,7.17,8.07-2,19.14,6.06,21.72,15.87.77,2.93,1.94,5.65,2.58,6.05,1.73,1.08-.85,5.32-6.5,10.69-3.6,3.43-4.46,4.9-3.45,5.92s2.68.12,6.69-3.57c5.82-5.36,7.76-5.91,10.68-3,1.77,1.77,1.72,2.13-.71,4.72-1.45,1.54-3.47,2.84-4.5,2.88s-.64.56,1,1.23c2.31.92,3.51.66,5.9-1.27,6.24-5,7.71-5.28,13.25-2.19,3.6,2,5,3.55,4.86,5.17-.51,4.5.56,5.5,3.68,3.45,2.48-1.62,4.18-1.7,12.49-.56,8.83,1.21,10,1.69,14.22,5.92a25,25,0,0,0,11.13,6.51c6,1.74,6.62,2.27,7.7,6.29,1.57,5.82-.27,12.29-5.24,18.44a60.17,60.17,0,0,0-5.79,8.56,33,33,0,0,1-5,6.87c-2.86,2.86-3,3.58-2.31,10.38,1.4,13.29-5.1,38.08-11.37,43.38-2,1.72-3.79,2.13-7,1.63-2.66-.41-4.63-.15-5.15.69s-3,2.33-5.73,3.52a43.15,43.15,0,0,0-8.89,5.57c-3.82,3.26-3.95,3.62-2.66,7.51,1.48,4.48.48,9.79-2.69,14.32a11.45,11.45,0,0,0-1.87,5.54c0,1.58-1.23,4.52-2.74,6.53s-4.41,6.61-6.45,10.22c-5,8.89-8.06,10.43-15.35,7.82-6.33-2.27-9.71-2.54-9.71-.78,0,.66,1.26,1.78,2.81,2.48s3.94,3.57,5.34,6.36c2.07,4.16,2.29,5.61,1.21,8-1.68,3.68-8.09,6.78-14.05,6.78-5.28,0-6.59,1.29-4.77,4.69,1.13,2.11.37,5.49-1.81,8.09-.18.21-2-.5-4.11-1.58-5-2.57-6.73-.93-4.22,3.93,1,2,3,4,4.32,4.38,2.33.73,2.35.9.46,3-1.1,1.22-1.67,3.06-1.27,4.11s-.53,3.55-2.36,5.95c-3,3.89-3,4.16-1.11,7.06a11,11,0,0,0,3.78,3.71c3.55,1.36,4.14,6,1.43,11.34s-3.13,10.67-1,13.2c1.91,2.31-4.52,6.79-7.41,5.18ZM277.55,195.75c3.16-6.59,9-11.5,13.76-11.5,3.4,0,3.44.55.33,4.51l-2.45,3.12,2.51,2c2,1.64,3.07,1.79,5.38.73a7.26,7.26,0,0,0,3.59-3.59c.54-1.7,1.43-2.1,3.5-1.58s3.13.07,3.93-1.35c2.4-4.29-3.71-9.77-8.21-7.36-3.21,1.72-7.42-1.71-6.52-5.32.33-1.34-.35-3.67-1.53-5.23-2.45-3.22-6.16-3.56-14.29-1.31a35.39,35.39,0,0,1-7.41,1.4c-1.15-.05-1.78.42-1.4,1s.25,1.12-.27,1.13a12.83,12.83,0,0,0-3.9,2.29L261.63,177l3.31,1.25c2.58,1,4.1.84,7-.64,3.37-1.74,4-1.74,7.67,0,2.21,1.06,5.24,1.6,6.77,1.21s3.09-.16,3.49.48-1.26,1.51-3.8,1.94c-6.91,1.17-10.5,4.05-15.52,12.44-4.18,7-4.42,7.85-2.76,9.7s2.09,1.85,4.34.28c1.38-1,3.84-4.53,5.46-7.93ZM299,203c4.2-2.14,4.61-2.68,3.13-4.16s-2.42-1.39-7.24.74c-5.66,2.51-7.46,5.89-3.13,5.89C293.1,205.51,296.35,204.4,299,203ZM320,194.12c2.46-1.72,2.55-2.06.82-3-2.56-1.43-10.15,1-10.15,3.29S316.49,196.54,320,194.12Zm88.7,510a4.74,4.74,0,0,1,1.42-2.36c.78-.78,1-1.41.42-1.41s-1.63.87-2.4,1.93c-1.12,1.53-1.9,1.66-3.68.63-1.27-.74-1.58-1.33-.71-1.35s1.22-.56.82-1.21c-.77-1.25,1.25-1.59,7.08-1.19,5.21.35,5.73,1.11,2.51,3.64-3,2.36-5.46,3-5.46,1.33ZM1395,674.51q-5.07-3.21,21.1-14.17a91.84,91.84,0,0,0,16.5-9.49c7.15-5.4,7.74-5.64,9.16-3.61,2.14,3.06.88,5.29-4.37,7.65a24.23,24.23,0,0,0-7,4.88c-1.35,1.54-3.51,2.81-4.82,2.81s-4.36,1.79-6.79,4c-8.35,7.49-18.92,11-23.77,8Zm-82.66-15.34c-1.22-.78-1.29-1.58-.29-3.45a15.54,15.54,0,0,0,1.3-6.13c0-3.33.27-3.61,2.66-2.77a27.94,27.94,0,0,0,6.79,1.09c2.27.09,4.54.23,5,.33,2,.36-3.28,6.32-8,9.07-5.6,3.29-5.37,3.23-7.53,1.86Zm136.48-10.33c-.41-.41.56-1.78,2.16-3,2.41-1.9,2.69-2.7,1.64-4.67-1.52-2.85.74-5.91,6-8.08,4.06-1.68,5.08-5.1,4-13.34-.75-5.67-.65-6,1.17-4.51,1.44,1.18,1.79,2.68,1.28,5.4-.56,3-.06,4.55,2.43,7.51,2.7,3.2,3.5,3.55,5.59,2.42s2.33-1,1.68.7a13.38,13.38,0,0,0-.77,2.47c0,.26-1.73,1.35-3.84,2.43a65.06,65.06,0,0,0-9.15,6.35c-4.76,3.93-9.65,7.1-11,7.1a2.5,2.5,0,0,1-1.22-.75Zm-124.89-15.25c-2.49-2.65-3-2.75-5.34-1.19-3,2-8.76.83-13.35-2.72-2.45-1.89-2.62-2.5-1.36-4.86a5.37,5.37,0,0,0,.14-5.55,15.5,15.5,0,0,1-1.3-5.17c0-2.86-1.86-3-3.39-.25-.64,1.13-1.49,1.72-1.91,1.31s1-2.7,3-5.07c5.13-5.85,3.13-7.44-3.65-2.89-2.92,1.95-5.5,4.09-5.73,4.74s-1.63-1.36-3.12-4.49a22.26,22.26,0,0,0-6.89-8.45c-3.75-2.48-5-2.68-12.23-2-10.57,1.05-20.77,3.66-27.45,7a46.43,46.43,0,0,1-13.52,3.57,76.8,76.8,0,0,0-15.8,3.74c-6.45,2.43-8.28,2.68-11.55,1.6-4.38-1.44-6.2-4.43-3.37-5.51,1-.4,2.89-3.11,4.14-6,2-4.67,2.12-6.12.93-12.16-1-5-1-9.72-.1-17.41.68-5.81,1-11.7.58-13.1s.21-4.81,1.27-7.6c1.87-4.9,2.33-5.22,15-10.59,7.19-3,14.54-5.53,16.35-5.53,4.88,0,10.92-4.65,14.25-11,2.06-3.9,3.49-5.39,4.73-4.91,3.45,1.34,4.13,1.07,3.86-1.48a2.83,2.83,0,0,1,1.95-3.29c1.21-.39,3.46-2.54,5-4.78a18.75,18.75,0,0,1,7.37-5.92c4.31-1.73,4.74-1.71,7.09.43,4.32,3.93,7.39,5.08,8.86,3.31.71-.86.95-1.9.54-2.31-1.35-1.35,4.83-9.11,7.86-9.86a45.47,45.47,0,0,0,7.41-3c3.82-1.91,5.16-2,9.45-.89,9.23,2.48,9.54,2.88,6.1,8.07-4.42,6.68-3.25,9.29,7.59,16.91,5,3.52,9.72,6.19,10.49,5.94s3.2-3,5.41-6a21.67,21.67,0,0,0,4.65-12c.68-6.92,4-16.54,5.68-16.54.56,0,1.85,2.85,2.86,6.32s3.13,7.54,4.71,9c3.68,3.46,5.83,13.15,4.17,18.87-1.1,3.8-.88,4.4,2.88,8.27,2.23,2.3,5.76,7.9,7.84,12.44a92.23,92.23,0,0,0,8.35,14.3l4.55,6-1.29,9.32a42.43,42.43,0,0,1-5.3,16.41c-4.45,7.88-11.11,15.4-14.62,16.52-1.26.4-4.18,3.36-6.49,6.57s-4.72,5.85-5.36,5.85-3.34,2.76-6,6.13c-4.45,5.63-5.27,6.15-9.9,6.23a14.54,14.54,0,0,0-9.2,3.26l-4.15,3.16-2.72-2.89ZM748,608.76c-2.5-2.51-2.91-3.78-2.36-7.23.53-3.24,0-5.15-2.22-8.45-1.59-2.35-2.9-4.85-2.9-5.56s-2.09-4.08-4.64-7.5c-3.94-5.29-4.76-7.4-5.41-14.09-1.14-11.81-4.91-24.59-10-33.85-2.49-4.55-4.88-10.46-5.32-13.13-.92-5.69,1.39-14.15,6.66-24.41l3.51-6.82-2-5.93c-1.1-3.32-1.64-7.24-1.22-8.91.49-1.95,0-4.28-1.53-6.74a51.82,51.82,0,0,1-4.13-10.25,24,24,0,0,0-7.14-11.69c-7.49-7.34-8.46-10.23-6.14-18.23,4.73-16.26-.38-25.75-12.86-23.88-4.86.73-5.05.64-5.73-2.8-.53-2.63-2-4.18-5.54-6-4.66-2.37-6.65-2.38-12.38,0-1.29.53-6.61,2.36-11.81,4.07-7.81,2.58-10.16,2.91-13.56,1.92-3.22-.93-5.93-.69-12.53,1.12-6.81,1.87-9.28,2.07-13,1.05-7.68-2.12-20.88-14-22.76-20.51-1.45-5-10.49-16.74-13.56-17.58-2-.54-2.2-1-1-1.73s1-1.17-.89-1.66c-3-.78-3.28-3.22-.39-3.24,1.77,0,1.81-.19.29-1.17-1.11-.72-1.24-1.15-.33-1.16s.58-1.47-1-4.2c-2.27-3.84-2.31-4.34-.58-6.26,5.28-5.83,6.44-18.41,2.42-26.33-1.91-3.78-.68-9,3.41-14.43a106.44,106.44,0,0,0,6.69-11.06c3.73-7.06,12.06-16.87,14.31-16.87,2.5,0,10.55-8.65,10.55-11.33,0-6.06,3.62-12.09,9.52-15.88,3.17-2,6.88-5.52,8.26-7.73,2.8-4.54,3.2-4.69,6.46-2.41a21.69,21.69,0,0,0,7.08,2.42c4,.67,5.88.18,11.81-3,10.19-5.46,16.5-6.82,28.17-6.09,7.69.48,11.16.17,14.89-1.32,5.49-2.2,10.24-.9,9,2.45a3.68,3.68,0,0,0,.53,3.31c.85,1,.84,2.49,0,4.76-1.09,2.86-.85,3.71,1.84,6.51a15.51,15.51,0,0,0,6.77,4c9.49,1.89,12.19,3.12,14.15,6.44a8.5,8.5,0,0,0,6.43,4.26,34.43,34.43,0,0,1,7.81,2.59c3.19,1.65,3.6,1.59,6.25-.9,1.79-1.68,2.6-3.46,2.18-4.78a6.75,6.75,0,0,1,.62-4.5c1.83-3.42,7-3.08,15.12,1,8.82,4.42,25.56,7.57,31.49,5.93a14.49,14.49,0,0,1,8.1,0c8.16,2.51,12.34.55,13.45-6.32.37-2.28,1-4.14,1.41-4.14.76,0,1.16-3.43,1.27-10.93,0-2.43.61-4.43,1.28-4.43s.76-.85-.11-2.48c-1.46-2.71-4.4-2.65-11.45.24-3.34,1.38-4.27,1.32-7.27-.45-3.88-2.3-7.87-2.64-9-.78-.85,1.38-6.89.41-10.17-1.63-2.35-1.47-4.55-5.85-4.55-9.06,0-1.23-1.19-3.08-2.66-4.11-2.26-1.59-2.39-2-.88-3a6.59,6.59,0,0,1,4.45-.53c1.88.44,3.61-.3,5.8-2.48a11,11,0,0,1,7.36-3.34,18,18,0,0,0,7.51-2.38c3.9-2.57,12.76-1.86,19.64,1.58,9.27,4.64,17.5,4.37,20.81-.69,1.73-2.63,1.74-3.18.1-5.68-1-1.52-5.79-5-10.64-7.79l-8.83-5,1.65-3.2c.91-1.76,1.36-3.49,1-3.86s-.23-1.36.31-2.21a10.12,10.12,0,0,0,1.2-3.08c.27-1.79-1.64-1.3-11,2.85-5.45,2.42-6.26,3.15-5,4.61a6,6,0,0,0,3.95,1.79c1.94,0,1.48.6-2,2.44-4.23,2.23-4.7,2.26-7.46.46-2.35-1.55-2.66-2.26-1.54-3.61s.94-1.85-.81-2.5a9.14,9.14,0,0,1-3.47-2.52c-3.38-4.51-14.11,7.35-17.23,19.05-1.47,5.49-1.42,5.78,1.34,7.86l2.86,2.16-5.25,1.08a22.89,22.89,0,0,1-8.65.16c-3.45-.95-7.82.47-7.82,2.54,0,.6-.81.79-1.79.41a4,4,0,0,0-3.47.71c-1.43,1.19-1.27,2.17,1.11,6.63,2.57,4.84,2.65,5.5,1,8.72-2,4-3.89,3.73-6.73-1.08-2-3.35-2-3.43.66-3.8,3.3-.47,3.52-2.57.31-3.09-7.32-1.17-11.22-5-11.22-11.08,0-4.73-4.38-9.94-9.7-11.54-2.76-.82-5.77-2.56-6.67-3.86a16,16,0,0,0-5.91-4.13c-2.34-1-5-2.79-5.82-4-1.24-1.76-2.05-2-3.86-1a4.17,4.17,0,0,0-2.29,2.92c0,3.07,15.05,16.94,22.41,20.65,7.8,3.94,9,5.35,3.6,4.16-4.83-1.06-6.15,0-4.5,3.63,1.17,2.55,1,3.32-1.36,5.57l-2.71,2.6.61-3.52c1-5.58-6.38-13.6-12.49-13.6-2.23,0-10.83-8.34-13.09-12.7-2.4-4.66-5.08-5.56-8.88-3-5.71,3.87-10,5.18-14.48,4.43-6-1-9.71,1.07-8.76,4.85.5,2,.22,2.85-.89,2.85-.89,0-3.16,1.33-5,3s-3.84,3-4.34,3c-1.46,0-5.58,7.46-5.59,10.11s-4.62,7.53-9.08,9.82a19.85,19.85,0,0,1-7.34,1.33c-3.6,0-5.08.59-6.06,2.44-1.3,2.42-1.34,2.41-4.36-.62-2.84-2.84-4.48-3.55-10.21-4.43-3-.47-3.52-7.28-1.27-17,1-4.16,1.44-8.81,1-10.34-1.12-4.46,2.39-7.09,8.25-6.19,13.53,2.08,21.45,2.19,23.3.34,2.55-2.55,3.7-11,2.15-15.67-1-3.08-2.41-4.34-6.58-5.93-6.12-2.34-6.25-4.6-.26-4.66a16,16,0,0,0,7.31-2.11c1.74-1.15,3.67-1.77,4.28-1.39,1.67,1,8-2.61,10.09-5.82a9.13,9.13,0,0,1,4.44-3.48c1.43-.36,5.25-3.13,8.5-6.16,4.6-4.29,7-5.63,11-6.1,4.89-.59,9.81-4.61,7.5-6.14-1.44-.95-2.63-6.67-1.83-8.75a11,11,0,0,1,3.71-3.78l3-2-.78,4.86c-.67,4.22-.5,4.81,1.3,4.51a18.6,18.6,0,0,0,4.76-1.82c2.24-1.23,2.79-1.17,3.38.37,1,2.64-1.8,5.74-3.75,4.13-1.07-.89-1.75-.86-2.35.11s-1.1.95-1.81-.2c-.53-.87-1.24-1.3-1.57-1s.61,2.13,2.1,4c2.5,3.14,3,3.29,6.54,2.05,3.06-1.07,4.53-1,7.13.35,2.94,1.52,3.93,1.45,9.58-.7,4.94-1.88,6.89-2.12,9.08-1.12a5.45,5.45,0,0,0,5.38-.07c5.31-2.75,6.78-4.82,6.12-8.62-1-5.63.82-7.47,5.53-5.69,3.21,1.21,4.15,1.16,5.6-.29s1.4-2.1-1.11-4.78-2.59-3.22-1.12-4.21c1-.65,4.55-.88,8-.52,6.28.67,14.09-1.78,12.73-4-1.19-1.93-8.39-2.49-14.49-1.12-5.41,1.21-6.83,1.11-11-.76-6.44-2.9-7.2-6.3-2.78-12.46,5.69-7.92,6.73-10.44,5.11-12.4-2.4-2.88-4.76-1.94-10.24,4.1-2.89,3.19-6.83,6.45-8.76,7.25a12.27,12.27,0,0,0-5.3,4.92c-1.6,3.1-1.6,3.75,0,6.24a9.76,9.76,0,0,0,4.21,3.53c3.62,1.15,2.9,3.31-2.28,6.85-1.59,1.09-3.72,4.18-4.72,6.86a13.37,13.37,0,0,1-6.16,7.37c-4.21,2.43-4.4,2.44-6.72.34a12,12,0,0,1-3.11-5.4,21.08,21.08,0,0,0-3.94-7.11L708,114.28l-4.1,2.5c-2.25,1.38-5.16,2.49-6.46,2.48-3.75,0-8.08-4.09-8.37-7.82a22.81,22.81,0,0,0-1.08-5.39c-1.05-2.65,4.24-7.61,9.73-9.13s16.7-9.36,18.61-13a35.36,35.36,0,0,1,6.39-7.32c2.66-2.39,4.84-4.87,4.84-5.51s2.52-2.07,5.61-3.17,8.27-3.09,11.52-4.43c4-1.65,9-2.52,15.35-2.68,11.15-.28,18.44,1.19,24.45,5,3,1.89,5.4,2.53,7.68,2.07,4.08-.81,25.82,5.93,26.72,8.29s-5.32,4.61-10.68,3.84c-2.46-.36-7.54-1.31-11.29-2.11-5.06-1.08-7.17-1.11-8.16-.13s-.49,1.71,1.9,2.8a12.13,12.13,0,0,1,4.92,4.77c2.4,4.62,10.05,8.39,14,6.89s3.77-1.9-.23-4.07c-3.71-2-2-2.45,2.66-.68,3.71,1.41,7.92-.35,6.94-2.9-.46-1.2.83-2.06,4.47-3,7.8-2,8.37-2.28,7.72-3.86-2.44-6-2.48-5.81,1.08-5.4,1.9.21,3.28,1,3.12,1.83s.84,2,2.2,2.77c2.05,1.09,3.67.7,9.31-2.25,8.26-4.34,14.7-5.75,17.1-3.76,1.34,1.11,3.56,1.12,10,0,4.54-.77,8.77-1.08,9.4-.69a1.41,1.41,0,0,0,1.92-.54c.93-1.51-1.64-4.92-3.05-4.05-1.7,1.05-7.29-.83-6.07-2S910.2,70,912.17,72c1.32,1.33,5.52-.44,5.52-2.32,0-.64-2.34-2.3-5.21-3.69-8.88-4.31-9.45-11.23-1.1-13.32,4.85-1.22,7,.18,13.66,9.14,8.7,11.62,8.48,11,5.64,15-2.11,3-2.24,3.65-.78,4.21,2.77,1.07,8.7-2.65,9.53-6,1-3.9-.84-7.22-5.2-9.47-3.43-1.77-5.91-5-5.91-7.73,0-.93,1.29-1.16,3.84-.69,3.83.7,7-.69,15.67-6.87a16.65,16.65,0,0,1,8.71-2.42c6.86-.16,9.08-1.31,7.1-3.68-.77-.94-1.16-1.94-.86-2.24,1.51-1.51,21-4.23,25.43-3.56,4.31.65,5.65.3,9.19-2.41,2.28-1.74,4.15-3.63,4.15-4.2,0-1.44-10.32-1.32-11.22.14-1.24,2-2.84,1.3-2.39-1,.38-2-.62-2.3-9.22-3-23.49-1.83-25.4-2.26-22.58-5.08,2.47-2.47,8.55-2.43,13.64.11a20.5,20.5,0,0,0,7.67,1.89c2.13,0,4.21.53,4.61,1.18s2.47,1.18,4.6,1.18c5.89,0,17.28,2.55,16.56,3.71-.34.56.76,1,2.45,1a17.75,17.75,0,0,1,6.86,2c2.8,1.51,6.7,2,15,2.08,8.92,0,11.89.5,14.47,2.24,1.79,1.2,3.24,2.53,3.23,2.94s-2.73,2.25-6.06,4.08c-8,4.43-6.32,6.36,3.38,3.84,6.29-1.63,7.73-1.64,12.94-.09,4.27,1.27,6.93,1.43,9.83.6s5.86-.65,10.89.65c5.25,1.36,8,1.5,11.31.58,7.59-2.11,16.94-1.52,22.36,1.42l11,6c6,3.27,6.25,3.31,10.41,1.44,3.48-1.56,5.42-1.69,10.55-.71s6.95.86,9.82-.62,3.27-2.17,2.19-3.46c-2.07-2.5,5.29-3.43,14.33-1.81,4.14.74,9.39,1.48,11.66,1.64a36.86,36.86,0,0,1,9.87,2.88c4.81,2.17,8.45,2.66,22.53,3,13.36.36,17.61.9,20.83,2.62s7,2.18,19.41,2.3c11.41.11,16.52.66,19.91,2.11,5.46,2.35,7.64,1.49,4.67-1.84-2.14-2.4-2.13-2.4,6.12-1.58,13.83,1.37,30.41,4.4,36,6.57a62.37,62.37,0,0,0,12.38,2.92,46.13,46.13,0,0,1,12.6,3.67c4.62,2.34,6.12,2.6,9.09,1.57,4.06-1.42,6.69-.4,12.89,5l3.85,3.35-2.9.73c-2.92.73-10.65-1.19-13.31-3.3a2.47,2.47,0,0,0-2.45-.5c-.56.35-3.32-.16-6.13-1.13-6.6-2.28-9.53-1.42-6.53,1.9,2.06,2.26,2,2.31-1.9,2-7.33-.51-5.31,1.65,5.44,5.84,5.84,2.28,10.88,4.39,11.18,4.69,1.11,1.07-2.54,2.4-5.2,1.89-2.92-.55-10.12,2.58-10.12,4.41,0,.61-1.13,2.16-2.52,3.46-2.32,2.16-2.8,2.21-5.91.6-2.9-1.5-3.83-1.51-6.62-.11a38.09,38.09,0,0,1-6.79,2.49,15.73,15.73,0,0,0-5,2.07c-2.37,2,1.82,7.72,7.72,10.57,3.22,1.56,5.54,3.64,6.24,5.59a47.11,47.11,0,0,0,2.86,6.22c1.57,2.8,1.56,3.2-.13,3.85-1.24.48-1.61,1.43-1.07,2.78a23.64,23.64,0,0,1,1.14,5,20.85,20.85,0,0,0,1.15,4.92c.61,1.4.11,2.19-1.75,2.78-2.07.66-3.47-.13-6.88-3.9a69.1,69.1,0,0,0-8.72-8,59.87,59.87,0,0,1-9.72-10.25c-5.13-6.82-5.24-7.13-3.53-10.42a17,17,0,0,0,1.79-6.11,14.53,14.53,0,0,1,1.67-5.65c1.7-3.08,1-5.54-2.6-9.73-2.4-2.74-6.66-.68-5.58,2.7,1,3.12-2.05,4.13-5.54,1.84a24.06,24.06,0,0,0-7.75-2.59c-4.71-.76-5.06-.61-6.28,2.59a14.24,14.24,0,0,0-.67,6.56c.54,2.71.17,3.27-2.62,3.88-1.9.42-5.15-.07-7.8-1.18-2.91-1.22-5.65-1.58-7.62-1-1.7.48-7.43.91-12.73,1-8.41.08-10,.45-12.58,2.85-1.62,1.51-3.55,5.23-4.31,8.27a33.9,33.9,0,0,1-3.08,8.14c-1.61,2.5-1.46,2.75,3.17,5.11,5,2.56,10.5,3.24,14.65,1.81,3.21-1.11,13,6.51,16,12.49,1.25,2.45,3.31,5,4.59,5.69,4.82,2.59,5.8,19.53,1.77,30.6-2.79,7.67-5.92,10.18-10.51,8.43a29.94,29.94,0,0,0-3.58-1.21c-.22,0-1.53,2.18-2.92,4.84-1.83,3.5-2.18,5.27-1.28,6.35,1.72,2.07.44,4.77-3,6.34-1.59.72-2.89,1.83-2.89,2.46s3.7,3.68,8.22,6.79c5.74,4,8.81,7,10.22,10.12,1.11,2.45,1.8,4.65,1.53,4.89s-2.68,1.54-5.36,2.9l-4.89,2.46-2.94-6.74c-3.29-7.56-6.11-10.59-11.08-11.93-2.5-.67-3.37-1.63-3.37-3.7,0-1.89-1.23-3.5-3.83-5-3.79-2.22-3.87-2.22-7.9.28s-4.09,2.49-5.33.18a10.89,10.89,0,0,1-1.25-4.15,4.09,4.09,0,0,0-2.21-3c-1.8-1-2.94-.38-6.26,3.21a38.73,38.73,0,0,1-6.34,5.69c-2,1.11-2.07,1.59-.72,3.21a31.07,31.07,0,0,0,6.68,4.75c4.45,2.49,5.3,2.64,6.81,1.13s2.59-1.48,6.9-.31l5.18,1.41-2.89,1.93c-5.36,3.58-7,5.46-7.81,8.69-.63,2.65-.25,3.45,2.13,4.54,1.59.72,4,3.61,5.37,6.42s4.08,6,6,7.21c4.32,2.55,5.58,5.27,3.08,6.66-2.33,1.31-1.22,3.25,1.85,3.25,3.68,0,3.7,2.2.15,14.86-4.31,15.34-8.19,20.46-18.36,24.18a52.51,52.51,0,0,1-10.83,2.86c-4.53.25-8,2.16-11.11,6.06L1188.2,318l-1.13-3c-1.48-3.89-4.88-4.87-9.75-2.81-4.46,1.89-7.41,4.9-8.59,8.79-1.07,3.49,2.69,9.62,8.92,14.55,5.12,4.05,10.85,14.21,12.2,21.61,1.17,6.43-.9,10.65-6.47,13.16-2.54,1.15-4.92,3-5.28,4.17-.88,2.76-6.12,6.2-7.08,4.64a4.87,4.87,0,0,1,0-3.36,7.22,7.22,0,0,0,0-4.1c-.58-1.52-1.23-1.66-3.09-.66s-2.69.78-4.26-1.5c-3.85-5.59-15-14.57-18.12-14.57-1.09,0-1.52,1.31-1.33,4.14a42.17,42.17,0,0,1-1,9.85c-1.16,5.12-1,6.06,1.15,9a22.27,22.27,0,0,1,3.2,6.29c.42,1.66,3.83,5.44,7.74,8.58,6.51,5.22,7.2,6.25,9.94,14.92a103.77,103.77,0,0,1,2.94,10.44c0,2-2.47,1.19-7.62-2.51-5.32-3.82-8.72-9.87-11.55-20.56-1.23-4.64-2.58-6.63-6.41-9.44-4.7-3.46-4.84-3.76-4.46-9.48.21-3.25.74-7.85,1.18-10.23.61-3.35.1-5.75-2.25-10.63a73.48,73.48,0,0,1-4.39-11.83c-1.66-6.8-4-7.94-8.16-4-1.72,1.65-3.45,3-3.86,3-1.88,0-4.46-4-3.84-5.95,1.12-3.55-5.8-15.91-9.84-17.58-2.22-.92-4.25-3.15-5.6-6.15-2.36-5.23-5-7.22-7.64-5.78a48.21,48.21,0,0,1-8.52,2.34c-6.83,1.41-9.28,3.48-8.35,7.05.35,1.32-.85,2.59-3.72,4-2.32,1.11-4.82,3.34-5.56,5a7.4,7.4,0,0,1-3.6,3.66c-1.25.4-3.17,2.2-4.27,4a36.28,36.28,0,0,1-7.31,7.37c-4,3.06-5.22,4.77-5,6.93,1.16,12.59-.62,23.13-5,29.39-4.23,6.1-4.53,6.27-8.11,4.64-2-.9-3.18-2.65-3.68-5.33-.41-2.19-2.79-8.37-5.29-13.73-15.1-32.44-17.33-38.63-16-44.49.87-3.95-1.21-9.93-3.23-9.25a2.46,2.46,0,0,0-1.5,2.16c-.1,5.39-6.16,6.22-10.89,1.49l-3.13-3.13,2.69-1c3-1.12,2.76-4.15-.33-3.6-1.09.2-3.6-1-5.57-2.65s-4-3-4.6-3-1.35-1.07-1.76-2.37c-1.09-3.43-7.36-6.42-10.5-5-2.82,1.27-28.46,1-32.75-.34-1.55-.49-4.41-2.71-6.35-4.94-3.53-4-3.58-4.05-8.86-2.62-5,1.35-5.74,1.22-12.48-2.18-5.82-2.94-7.57-4.53-9.37-8.52-2.29-5.09-7.39-8.77-10.49-7.58-1,.37-2.11,2.23-2.53,4.13-.6,2.73,0,4.5,2.91,8.44a35.22,35.22,0,0,1,4.88,9.5c1.44,5.34,4.27,6.92,6.63,3.71,1.42-1.94,1.8-2,2.76-.49a4.35,4.35,0,0,1,.73,2.95c-.65,2,6.16,5.4,9.34,4.6,1.61-.4,5-3.14,7.63-6.08,4.08-4.64,5.51-4.95,4.81-1.06-.47,2.62,1.59,5.69,5,7.46,5.28,2.72,12.62,8.79,12.62,10.42,0,.75-1.38,2.66-3.07,4.23a32.2,32.2,0,0,0-5.4,7.41c-3.11,6.07-12.13,14.94-15.18,14.94-3.53,0-8.78,3-10.87,6.18a17.31,17.31,0,0,1-5.79,4.73c-11.22,5.61-24.74,11.29-28.54,12-4.07.76-4.4.58-6.55-3.67a41.56,41.56,0,0,1-3.15-11c-.63-4.64-1.84-7.6-4.27-10.37-1.87-2.14-3.4-4.4-3.4-5s-2.13-3.34-4.74-6a26.33,26.33,0,0,1-6.65-11.52,35.56,35.56,0,0,0-4.77-10.18c-10.84-13.46-14.05-18.2-15.67-23.16-2.14-6.57-3.95-7.63-4.79-2.8l-.59,3.42-4-5c-6.15-7.78-6.93-4.24-1.15,5.25,2.74,4.49,7.1,12.41,9.69,17.61a115,115,0,0,0,7.47,13.1,14.4,14.4,0,0,1,2.76,7.46c0,4.45,1.33,7.23,6.54,13.69,2.1,2.6,4.17,6.39,4.61,8.43.56,2.61,2.84,5.35,7.74,9.28,7.45,6,12.27,12.21,13.47,17.41a8.33,8.33,0,0,0,4.32,5.07c3.29,1.7,4.45,1.66,14.86-.6,6.21-1.34,12.78-3.22,14.61-4.17l3.33-1.72.79,4.68c.72,4.25-.05,6.29-8.46,22.42-9,17.34-9.46,17.91-18.45,25-5.06,4-10.36,8.88-11.77,10.86s-5.93,7.34-10,11.9c-12,13.32-13.62,25-5.66,40.72,2,4,2.8,7,2.33,8.91-.4,1.59-.15,5.6.56,8.91,1.12,5.21,1,6.6-.94,10.4-2.79,5.47-5,7.43-12.82,11.35-3.41,1.71-6.2,3.61-6.2,4.23s-2.39,3.81-5.32,7.1-5.31,6.52-5.31,7.17a25.85,25.85,0,0,0,2.43,6c4,7.87,1.32,13.57-8.3,17.56-4.06,1.68-5.39,5.11-4.39,11.29.53,3.24.19,4.32-1.64,5.3-1.27.68-3.56,3.21-5.1,5.62-4.84,7.6-18.76,21-25.08,24.24-5.27,2.66-6.62,2.9-10.5,1.83-3.42-.95-6.17-.8-11.9.64-9.29,2.33-8.3,2.43-11.89-1.16ZM903.58,232.05c3-1.58,3.48-2.44,3.48-6.94,0-3.23-.69-5.71-1.85-6.68a19.84,19.84,0,0,1-3.66-5c-1.65-3.19-1.64-3.44.08-2.78,2.27.87,5.43-.17,5.43-1.8,0-.64-1.1-2.71-2.44-4.6-2-2.84-2.83-3.22-4.72-2.2-1.53.81-2.29.82-2.29,0s-2.1-2.28-4.68-3.59c-5.7-2.91-7.73-6.13-5.95-9.45,1.34-2.52,6.15-4.28,8.21-3,2.76,1.71,3.58-.81,1.3-4-5.54-7.78-13.26-7.27-22.82,1.51-6.18,5.67-6.71,7.18-3.22,9,1.3.7,2.36,2.06,2.36,3s2.1,4,4.67,6.82c5.91,6.41,7,9.34,6.27,16.94l-.59,6.11,8.11,4.16c4.46,2.29,8.28,4.19,8.47,4.22a23.14,23.14,0,0,0,3.84-1.74ZM871,562c-3.33-1.89-3.81-2.89-4.68-9.86-.7-5.57-.4-6.78,2.93-12.2s3.63-6.56,2.88-12.54c-1.08-8.64.76-13.17,5.78-14.27,4.72-1,14.95-10.07,17.4-15.37l1.88-4.05,1.3,2.86c3.27,7.18,2.94,10.34-2.76,26.11-3,8.44-6.32,18.53-7.27,22.42-3,12.48-4.76,15.49-9.73,17-5.3,1.58-4.79,1.59-7.73-.08Zm581.8-20.53c-3.77-4.13-6-7.66-6-9.45,0-4,.64-3.62,4,2.2a46.78,46.78,0,0,0,6.54,8.48c2,1.89,3.59,3.87,3.59,4.4,0,2.27-2.52.53-8.15-5.63ZM926,539.75a1.18,1.18,0,1,1,1.18,1.18A1.18,1.18,0,0,1,926,539.75Zm622-2.15a1.49,1.49,0,0,1,.52-2c1.76-1.09,2.38-.22,1.21,1.67-.63,1-1.24,1.14-1.73.35Zm-613.69-1.91c0-.29.53-.85,1.18-1.26s1.18-.16,1.18.53a1.22,1.22,0,0,1-1.18,1.25C934.76,536.21,934.23,536,934.23,535.69Zm583-12c-1.15-3,.31-4.05,3.56-2.57,2.81,1.28,2.88,1.48.92,2.91C1519,526,1518.08,526,1517.21,523.7Zm7.48-5.25c-2.31-1.43-.71-2.57,3-2.12,2.88.36,2.95.49.89,1.76a3.89,3.89,0,0,1-3.85.36Zm-55.14-4.34c-2.43-5.22-1.58-7.23.93-2.2,2.61,5.23,2.66,5.4,1.43,5.39C1471.42,517.3,1470.36,515.86,1469.55,514.11Zm4.52-.84c0-1.24.23-1.94.62-1.55a2.37,2.37,0,0,1,.09,2.27c-.37.94-.65.66-.71-.72Zm96.15-11.34c-1.08-1.74,0-2.64,2.47-2.15,1.84.36,1.86.56.2,1.94-1.33,1.1-2.08,1.16-2.67.21Zm-698-5.88c-.4-.65-.17-1.18.52-1.18a1.22,1.22,0,0,1,1.25,1.18c0,.65-.23,1.18-.52,1.18S872.62,496.7,872.22,496.05ZM1390.71,485c-7.47-2.35-10.86-4.54-13.8-8.91-3.36-5-9.51-8.78-12.65-7.78-1.27.4-3.41,2.59-4.75,4.87-2.29,3.87-2.73,4.08-6.88,3.34a17.47,17.47,0,0,1-7.57-3.71c-2.2-2-3.88-2.69-5.59-2.15a6.26,6.26,0,0,1-4.34-.28c-1.62-.9-1.46-1.33,1.14-3,3-2,3-2,1-6.23-1.62-3.4-3.86-5.17-11.17-8.85-5-2.53-10.71-4.59-12.63-4.59-4.39,0-6.21-4.05-2.9-6.47,2-1.44,1.68-1.8-3.45-4.29-5.46-2.65-5.53-2.76-2.93-4.21a13.55,13.55,0,0,1,5.27-1.53c2.76,0,6.26,3.95,6.26,7.15,0,1.07,1.15,3.4,2.56,5.19,2.51,3.19,2.58,3.21,4.42.9a33.1,33.1,0,0,1,7.33-5.47l5.44-3.12,7.55,3.41c4.15,1.87,10,4.3,13.09,5.4a82.55,82.55,0,0,1,13.56,7.27c8.42,5.52,12.08,10.19,10,12.71-1.71,2.06,5,11.45,12,16.71,7.64,5.79,7.51,6.32-.89,3.67Zm51.4-.09c-.93-1.12-1-1.8-.24-1.8,1.43,0,3.1,2.24,2.28,3.06-.3.3-1.22-.27-2-1.26Zm-198.44-4.81c-1.71-.95-2.21-1.64-1.18-1.66,2.11,0,5.48,1.94,4.69,2.74C1246.87,481.43,1245.29,481,1243.67,480.05Zm20-1.56c3.34-4.7,8.59-6.72,13.43-5.16,3.53,1.13,3.59,1.23.79,1.34-1.66.07-5.54,1.72-8.61,3.66-7,4.45-8.7,4.5-5.61.16ZM1435,480.11c-1.59-1.93-1.21-2.17,1.68-1.06,1,.4,1.87,1.19,1.87,1.77C1438.55,482.46,1436.63,482.07,1435,480.11Zm5.53-1.05a12.46,12.46,0,0,1-.73-4.07c0-1.31.46-1,1.22.88a8.37,8.37,0,0,1,.73,4.07c-.23.68-.77.28-1.22-.88Zm91.32,1.12c0-.29.53-.85,1.18-1.26s1.18-.16,1.18.53a1.22,1.22,0,0,1-1.18,1.25C1532.38,480.7,1531.85,480.46,1531.85,480.18Zm-302.07-5c-.81-.34-1.18-1.11-.81-1.7.9-1.46,8.47-1.38,9.38.1.41.65,0,1.19-.81,1.2a24.73,24.73,0,0,0-3.91.52,7.73,7.73,0,0,1-3.85-.12Zm17.54-.88c-2.15-2.59.32-3.37,5.89-1.88s5.59,1.75-.22,2.8C1250,475.79,1248.31,475.52,1247.32,474.33Zm177.33-.72c-.82-1.31-1-2.36-.33-2.36s1.72,1.06,2.41,2.36.85,2.36.33,2.36S1425.46,474.91,1424.65,473.61Zm7.39-1.19c-3.15-3.49-1.46-4,1.79-.58,1.52,1.62,2.22,3,1.56,3s-2.17-1.07-3.35-2.37Zm-221.44-.2a93.81,93.81,0,0,1-13.23-2.89c-3-1-6.65-1.47-8-1.05-2.7.86-14.2-2.52-14.2-4.17,0-3.78,10.58-4.06,16.21-.44,2.1,1.35,3.76,1.44,8.2.45,4.92-1.11,5.94-1,8.83,1.17,1.8,1.33,3.81,2.41,4.46,2.41,2.34,0,9.43,4,8.83,4.92a2.23,2.23,0,0,1-2,.83l-9.08-1.23Zm212-5.7c-1.18-1.3-1.61-2.36-1-2.36s2.15,1.06,3.32,2.36,1.61,2.37,1,2.37-2.14-1.07-3.32-2.37Zm-7.45-1.49a14.7,14.7,0,0,1-2-5c-.67-3.13-.6-3.27.66-1.17a36.79,36.79,0,0,0,3.11,4.31c1,1.13,1.21,2.24.56,2.64A2,2,0,0,1,1415.15,465Zm-25-3.76-2.94-1.62,4.55-.86a21.42,21.42,0,0,0,8.55-4.36c2.4-2.1,4-2.87,4-1.91,0,2.4-1.48,4.26-5.9,7.51-4.61,3.4-4.39,3.37-8.24,1.24Zm-221.55-4.6c-4.34-2.47-12.17-12-14.72-18a67.7,67.7,0,0,0-7-11.73,83.64,83.64,0,0,1-6.32-9.45,41.38,41.38,0,0,0-6.73-8.27c-5.71-5.48-9.21-11.23-6.82-11.19,3.1.05,11.07,4.49,14.5,8.06,9.43,9.85,11.37,11.61,15.82,14.35s6.34,5.41,6.55,8.86c0,.65,1.26,2.51,2.71,4.13l6.11,6.79a20.19,20.19,0,0,1,4.22,7.31c1.38,6.26-3.67,11.78-8.33,9.12Zm-237.91-.78a1.19,1.19,0,1,1,1.19,1.18A1.19,1.19,0,0,1,930.68,455.89Zm312.39,0a5.13,5.13,0,0,1,0-3.49,7,7,0,0,0-1.09-5.06c-1.64-2.51-1.63-3,.17-5.6,1.09-1.56,2.38-5.74,2.86-9.29.59-4.38,1.77-7.35,3.65-9.24,2.58-2.57,3.23-2.69,9-1.59,5,.94,6.93.83,9.64-.57,4.54-2.35,4.87-2.24,3.36,1.06-1.91,4.2-5.74,5.55-9.77,3.43-7.2-3.77-16.76,1.84-11.72,6.88,1.86,1.85,2.88,2,6.31,1,5.89-1.69,8.21-1.38,4.55.61-4.13,2.24-4.92,4.74-2.79,8.86a17,17,0,0,1,1.77,6.46c0,2.69-.29,2.9-2.37,1.79-1.3-.7-3.17-3.21-4.16-5.59-1.8-4.28-1.83-4.3-4.12-2-2,2-2.14,2.9-1,6.88,1,3.6.92,4.79-.32,5.58-2.08,1.32-3,1.28-3.94-.16Zm162-6.3a17.65,17.65,0,0,0-5.66-5c-2-1-3.38-2.15-3-2.47,1.83-1.84,12.08,6.5,11.21,9.12-.27.81-1.34.09-2.5-1.68Zm-185.47-3.93c-1.78-.93-4.18-1.4-5.33-1-2.94.93-14.61-1.44-15.77-3.21-.92-1.4-3.62-10.06-5.07-16.22a6.9,6.9,0,0,1,.93-5.17c1.35-1.85,2-2,4.19-.84s2.74,1,4-1.72c.77-1.7,3.35-4.09,5.73-5.3a13.08,13.08,0,0,0,5.79-5.76,8.43,8.43,0,0,1,5.5-4.88,17.94,17.94,0,0,0,7.11-5.37c1.69-2.22,3.71-4,4.48-4s3.1,1.75,5.17,3.89l3.78,3.9-3,4.08c-3.44,4.62-3.26,8.6.64,14.08l2.36,3.32-2.94,1.92c-1.62,1.06-2.94,2.58-2.94,3.38,0,2.7-7.55,18.3-9.45,19.48-1.32.83-2.86.67-5.13-.52Zm68.61,0c-2.44-.64-2.78-2.73-.44-2.73a41.5,41.5,0,0,1,5.56.79c3.32.66,3.57.92,1.62,1.69-2.56,1-3.71,1-6.74.25Zm188.09-15.06c0-.29.53-.85,1.18-1.25s1.18-.17,1.18.52a1.22,1.22,0,0,1-1.18,1.25C1476.87,431.09,1476.34,430.86,1476.34,430.57Zm-192.22-3.2c-.95-.95-1-2-.19-3.57.65-1.21.87-2.72.49-3.34-1.07-1.72,1.6-5.9,3.76-5.9,1.74,0,1.73.2-.07,2.19-1.56,1.73-1.74,2.87-.81,5.31,1.87,4.93-.16,8.33-3.18,5.31Zm-593.19-3.89c0-.28.53-.85,1.18-1.25s1.18-.16,1.18.52a1.22,1.22,0,0,1-1.18,1.25C691.46,424,690.93,423.77,690.93,423.48Zm819.07-3c-.4-.65-.17-1.18.52-1.18a1.22,1.22,0,0,1,1.25,1.18c0,.65-.23,1.18-.52,1.18S1510.4,421.11,1510,420.46ZM698,409.31c0-.29.53-.85,1.18-1.25s1.19-.17,1.19.52a1.23,1.23,0,0,1-1.19,1.25C698.54,409.83,698,409.6,698,409.31Zm568.11-17.76c-2.25-5.25-2.55-5.49-6-4.73s-3.58.67-2.28-1.75c1.07-2,2.07-2.4,4.61-1.84s4,0,6.41-2.23c1.75-1.62,3.19-3.9,3.2-5.07,0-3,4.42,7,5.42,12.36.76,4.06.67,4.28-1.18,2.75-2.74-2.27-5.37.09-3.13,2.8.9,1.08,1,1.82.29,1.82a11,11,0,0,0-3.09.71c-1.37.53-2.48-.73-4.23-4.82Zm-215.34,2.09c-1.32-2.14-2.07-11.77-1.12-14.32,1-2.71,1.09-2.68,4.1,1.77,3.6,5.33,4.76,8.75,3.57,10.57s-5.82,3.16-6.55,2Zm263.75-6.11a2.58,2.58,0,0,1,1.18-1.91c.65-.4,1.18-.2,1.18.45a2.58,2.58,0,0,1-1.18,1.91C1315.06,388.38,1314.53,388.18,1314.53,387.53Zm185.43-.14c0-.65.24-1.18.52-1.18s.85.53,1.25,1.18.17,1.18-.52,1.18A1.22,1.22,0,0,1,1500,387.39Zm-268.1-6.82c0-.51,2.37-3.56,5.26-6.79,4.24-4.74,5.27-5.41,5.31-3.45,0,1.34-1.74,4.39-3.94,6.79C1234.76,381.19,1231.86,382.7,1231.86,380.57Zm25.58-3.15a5.14,5.14,0,0,1,.19-3.79c.83-1.48,1.18-1.5,2.35-.09,1,1.25,1,2.15-.2,3.78C1258.32,379.32,1258.17,379.33,1257.44,377.42ZM353,372.81c.72-.87,1-1.93.53-2.36s.33-.77,1.68-.77c1.86,0,2.3.56,1.83,2.36a3.16,3.16,0,0,1-3,2.36c-1.85,0-2.08-.35-1.05-1.59Zm912.37-.31a32.76,32.76,0,0,0-1.27-3.12c-.27-.49,0-.89.63-.89,1.18,0,2.84,4.85,2,5.73C1266.4,374.51,1265.8,373.73,1265.36,372.5Zm-12-3.08a2.58,2.58,0,0,1,2.43-4.29c1.56.35,1.62.84.37,3.15S1254.47,370.72,1253.4,369.42Zm14-4.06c-1.36-1.72-2.27-3.33-2-3.57,1-1,4.28,1.16,6.05,3.85C1274.1,369.79,1270.65,369.55,1267.36,365.36Zm-19.42-4.57a6.32,6.32,0,0,1-1.91-3.27c0-.75,1.17-.19,2.59,1.23s2.29,2.9,1.91,3.27S1249,361.84,1247.94,360.79Zm-927.08-.17a3.22,3.22,0,0,1-.79-2c0-.74.55-.67,1.4.18s1.12,1.67.79,2A1,1,0,0,1,320.86,360.62Zm-6.69-1.57c0-.65.23-1.19.52-1.19s.85.54,1.25,1.19.16,1.18-.52,1.18A1.22,1.22,0,0,1,314.17,359.05Zm55.51-2.37c0-.65.23-1.18.52-1.18s.85.53,1.25,1.18.16,1.18-.52,1.18A1.22,1.22,0,0,1,369.68,356.68Zm890.14-.18a7.93,7.93,0,0,0-5-.5c-2.28.58-3.86-.34-8.14-4.75-6-6.22-7.22-8.85-5.45-12.16a14.89,14.89,0,0,0,1.25-5.88c0-6.41,4.29-6.15,7.44.45,1.74,3.66,1.75,4.44.12,8.36-1.77,4.23-1.73,4.41,1.41,7.7,2.28,2.37,4,3.18,5.78,2.73a4.05,4.05,0,0,1,4,1.17c2.13,2.56,1.2,4.39-1.47,2.88Zm-897.23-7.42c0-.29.53-.85,1.18-1.25s1.18-.17,1.18.52a1.22,1.22,0,0,1-1.18,1.25C363.12,349.6,362.59,349.36,362.59,349.08ZM548,344.87a1.18,1.18,0,1,1,1.18,1.18A1.18,1.18,0,0,1,548,344.87Zm-189-4.58a2.58,2.58,0,0,1,1.18-1.91c.65-.4,1.18-.2,1.18.45a2.58,2.58,0,0,1-1.18,1.91C359.58,341.14,359.05,340.94,359.05,340.29Zm-10-4.85c-.42-.67.06-.87,1.11-.47,2,.79,2.42,1.64.72,1.64A2.51,2.51,0,0,1,349,335.44Zm187.78,0c-.4-.65-.17-1.18.52-1.18a1.22,1.22,0,0,1,1.25,1.18c0,.65-.24,1.19-.52,1.19S537.2,336.07,536.8,335.42Zm-183.07-2.36c-.4-.65-.17-1.18.52-1.18a1.22,1.22,0,0,1,1.25,1.18c0,.65-.23,1.18-.52,1.18S354.13,333.71,353.73,333.06Zm5.32,0c0-.65.23-1.18.52-1.18s.85.53,1.25,1.18.16,1.18-.52,1.18A1.22,1.22,0,0,1,359.05,333.06Zm-81.2-3.14a2.27,2.27,0,0,1-1.48-1.68c0-1.7,5.21-1.26,7.75.65,2.18,1.65,2.11,1.73-1.25,1.68A18.82,18.82,0,0,1,277.85,329.92Zm29.88-.67a8.84,8.84,0,0,0-5.2-.36,12.46,12.46,0,0,1-6.15-.43c-2.55-1-2.32-1.14,1.95-1,6.28.14,7.95-.88,6.35-3.88-1.14-2.13-.8-2.29,4.84-2.29,5.45,0,13.31,2.5,14.64,4.66.89,1.43-14.31,4.52-16.43,3.34Zm22.66.74c-1.4-1.4.34-2.83,3.43-2.83,1.86,0,2.8.55,2.5,1.47C335.77,330.29,331.63,331.24,330.39,330Zm854.48-1.87c-3.13-3.13,0-6.87,5.68-6.87,2.54,0,2.54,0,.36,3.75C1188.38,329.34,1186.87,330.12,1184.87,328.12Zm-844.72-.25c0-.25.8-.77,1.77-1.14s1.77-.17,1.77.46-.8,1.15-1.77,1.15S340.15,328.13,340.15,327.87Zm-51.06-8.46c-.36-.37-2.85-.7-5.54-.73-3.7-.05-4.59-.42-3.68-1.51s-.38-2.47-4.72-5.28c-8.52-5.52-13.27-6.59-19-4.31-5.36,2.15-5.77,2.21-5.77.86,0-2.47,9.4-5.19,16.17-4.68,6.47.49,10.09,1.87,22.8,8.67,10.45,5.59,10.46,5.6,7.09,6.56C292.62,320.08,289.92,320.24,289.09,319.41Zm8.54-10c2.29-1.48,3.54-1.48,3.54,0,0,.65-1.19,1.17-2.65,1.16C296.37,310.59,296.2,310.37,297.63,309.44Zm940.61-2.09a11.87,11.87,0,0,1-2.74-3.58c-1.18-2.25-1.06-3.35.72-6.4,2.76-4.72,4.62-5.31,5.51-1.74.94,3.74-1.77,12.85-3.49,11.72Zm-932.86-1.58c.79-1.27,5.24-1.42,5.24-.17,0,.49-1.32,1-2.94,1.06s-2.65-.31-2.3-.89ZM282,294.39c-1.89-2.17-1.61-5,.48-5,.67,0,.95,1,.62,2.31s0,2.52.75,2.79,1,.83.65,1.24S283,295.53,282,294.39Zm6.86-9.28c-.42-1.09-.5-2.26-.17-2.58s.93.3,1.35,1.4.5,2.26.17,2.58S289.31,286.21,288.89,285.11Zm-7.4-1.06a2.05,2.05,0,0,1,2.25-1.77c2,0,2.05.19.48,1.77a7.88,7.88,0,0,1-2.25,1.77C281.7,285.82,281.49,285,281.49,284.05ZM1272,258.15c0-.92-1.29-3.21-2.86-5.08-3.75-4.45-2.42-7.42,2-4.52,3.19,2.09,4.85,6.36,3.68,9.42C1274,260.29,1272,260.42,1272,258.15Zm-916.51-7.1c0-.29.53-.85,1.18-1.25s1.18-.17,1.18.52a1.22,1.22,0,0,1-1.18,1.25C356,251.57,355.5,251.33,355.5,251.05Zm923.1-1.45c-.77-2,1-3.89,3.75-3.92,1.88,0,1.91,2.62.06,4.47s-2.92,1.78-3.81-.55Zm10.79-4.32c-2.3-3.5-5.53-4-13-1.92-3,.84-5.09.85-6.5,0-1.13-.66-1.44-1.21-.67-1.23s3-1.39,4.94-3c2.52-2.13,4.38-2.79,6.37-2.29s4.4-.49,9.2-4.09c9.34-7,10.18-9.24,6.38-16.74-3.65-7.2-2.63-9.52,2.78-6.32,3.93,2.32,7.64,9,6.56,11.78-.39,1,.19,4.19,1.29,7.05,1.55,4.06,1.69,5.76.66,7.69-1.52,2.83-5.74,4.73-10.54,4.73-2.69,0-3.49.69-4.37,3.75l-1.08,3.76-2.07-3.17Zm-478.47-4c-1.41-1.41-.66-2.67,1.59-2.67a3.93,3.93,0,0,0,3-1.18c1.1-1.78,3-1.42,2.26.43s-5.84,4.45-6.87,3.42Zm-40.27-2-3.54-1.62,4.72-.08c5.88-.1,10.22,1,9.37,2.38-1,1.54-6.48,1.18-10.55-.68Zm-47.71-11.78c-4.73-2.42-5-2.72-2.48-3.37,2.95-.77,9.49.19,9.36,1.38a16.1,16.1,0,0,1-.89,2.69C728.21,229.9,727.63,229.83,722.94,227.43Zm-23.67-12.78c-1-2.93-.95-4.05.38-5.38,2.4-2.4,4.27-.72,4.27,3.86,0,5.4-3,6.37-4.65,1.52Zm-27.7,1c.84-2.18,4.43-2.55,3.71-.38a3.45,3.45,0,0,1-2.46,1.86c-1.37.26-1.75-.18-1.25-1.48Zm617.11-13.48c-2.16-3-2.22-3.6-.62-5.87s1.56-2.91-.06-6c-2.65-5.14-2.28-5.45,2.33-1.93a37.19,37.19,0,0,0,10,4.89c6.64,2,8.25,3.52,4.78,4.62-1.31.42-2.38,1.53-2.38,2.47,0,1.29-.81,1.51-3.25.89-6.23-1.6-8-1.21-7.6,1.67.49,3.52-.3,3.35-3.19-.7Zm-587.52,1.39a2.66,2.66,0,0,1,1-4.37c1.28-.49,1.77.13,1.77,2.24C703.92,204.24,702.76,205.14,701.16,203.54Zm580-24.9a62.66,62.66,0,0,1-5.37-9.16c-2-3.9-7.1-11.06-11.45-15.91-4.86-5.42-7.33-9-6.41-9.32s2.6,1,3.94,2.74c3.25,4.33,7.25,8.09,13.56,12.74,5.24,3.86,7.83,7.43,4.45,6.13-3.89-1.49-2.92,2,2.12,7.73,2.93,3.31,5.34,6.26,5.34,6.56,0,1.44-4.57.32-6.18-1.51Zm-864.27-2.07c0-1,.51-1.77,1.14-1.77s.84.8.47,1.77-.89,1.77-1.15,1.77S416.92,177.54,416.92,176.57Zm-6.17-3.81-4.4-.46,8.28-8.2c4.55-4.51,8.87-8.2,9.6-8.2s.54.87-.55,2.07c-2.46,2.72-.78,5.77,3.71,6.76a7.07,7.07,0,0,1,4.67,3.59c1.22,2.66,1,2.93-3.08,4.07-4.29,1.19-9.42,1.29-18.23.37ZM123,164.29c-4.09-3.83-4.55-5.44-1.84-6.48,2.43-.93,6.92,2.11,8.62,5.84,1.78,3.92,1.75,4.06-.88,4.06C127.63,167.71,125,166.17,123,164.29Zm520.13-6c1.3-.64,3.86-1.7,5.68-2.36,4-1.45,3.36-3-1.73-4-3.49-.7-3.61-.88-1.61-2.34,1.19-.87,1.81-2.14,1.39-2.82s.78-1.79,2.77-2.48,3.54-1.76,3.54-2.4c0-2.73-2.46-7.32-3.83-7.14-3.15.41-4.61-.15-4.1-1.56a5.34,5.34,0,0,0-.54-3.55c-1.52-3,2-9.07,5.22-9.13.49,0,.76.63.6,1.43s.95,1.64,2.47,1.87l2.77.42L653.08,127l-2.65,2.82,3,1.13c3.21,1.22,6.3,5.19,9.44,12.13,1.51,3.33,2.5,4.2,4.26,3.74,3.61-.95,4,1.5.65,3.72-2.29,1.5-2.73,2.35-1.73,3.35s-1,1.68-7.84,2.67c-5.06.73-11.05,1.67-13.32,2.09-3.17.59-3.58.5-1.78-.4Zm-19.91-6.52c-.41-1,.05-3.44,1-5.31,1.11-2.15,1.33-3.67.58-4.13-2-1.27-1.28-2.88,1.73-3.64a9.47,9.47,0,0,0,4.28-2.38c1.57-1.9,8.85-2.25,9.94-.48.4.65-.1,2.36-1.11,3.81a11.83,11.83,0,0,0-1.84,5.76c0,2.64-.81,3.43-5,4.89-2.76,1-5.88,2.11-6.93,2.57A1.78,1.78,0,0,1,623.18,151.76ZM644.87,140c0-.29.53-.85,1.18-1.25s1.18-.17,1.18.52a1.22,1.22,0,0,1-1.18,1.25C645.4,140.55,644.87,140.31,644.87,140Zm-524.16-5.69c-1.16-1.4-1.09-2.05.36-3.25,2.4-2,3.59-.64,2.2,2.49-1,2.16-1.32,2.26-2.56.76Zm-1.85-8.89c-.4-.64.06-1.83,1-2.63,1.92-1.59,2.32-.34.71,2.2C120,126,119.3,126.17,118.86,125.45Zm-76.34-.75c0-.83,3.58-2.28,8.66-3.51,1.93-.47,3.06-.36,2.68.26s-2.14,1.37-3.94,1.74a39.81,39.81,0,0,0-5.33,1.46c-1.14.44-2.07.46-2.07,0Zm701.85-13.28c-2.18-.88-1.79-2.23.69-2.42,1.19-.09,2.16.59,2.16,1.52,0,1.76-.4,1.89-2.85.9Zm-259.54-6c-7.47-4.07-11.05-10.33-8.88-15.56,1-2.48,1.06-4,.12-5.79-2-3.65.59-7.94,7.12-12,3.1-1.91,6.19-4.51,6.87-5.79,1.9-3.53.21-9.59-3.08-11.09-1.67-.76-2.57-2-2.21-2.92.84-2.19-3.09-9.65-7-13.3-2.88-2.7-4.12-3-14-3-13.44-.09-15.94-.83-15.72-4.69.09-1.6.45-2.91.79-2.91s5.12-.56,10.63-1.24a74.54,74.54,0,0,0,21.16-6c12.13-5.18,13.05-5.28,42-4.6A141.92,141.92,0,0,0,551,14.25c10.06-1.69,17.46-2.33,21.45-1.85a34.65,34.65,0,0,0,11.09-.61c6.44-1.73,23.18.36,29.76,3.71,3.89,2,6,2.25,12.52,1.6,7.09-.71,7.62-.62,5.49.95-1.3.95-5.28,2.12-8.86,2.59-7.75,1-14.87,6.55-13,10.07.81,1.53.23,2.83-2.41,5.35-1.91,1.83-3.76,4.21-4.1,5.29-.82,2.59-11.26,7.41-16.44,7.59-5.75.2-6.35,1.43-1.9,3.88a65.06,65.06,0,0,1,6.81,4.38l3,2.27-2.71,1c-2.08.76-3.76.27-7.21-2.12-4.69-3.25-9.73-3.27-7,0,1,1.27.79,1.76-1.17,2.27-4.39,1.15-1.29,3.42,3.55,2.6,3.09-.52,4.82-.25,5.78.92,1.15,1.38-.35,2-9,3.82a111,111,0,0,1-16.82,2.27c-6.64.1-11.42,2-18.46,7.35-2.29,1.75-7.17,3.48-12.87,4.57-11.93,2.28-16,4.92-23.14,15.15-5.77,8.22-9.25,11.28-12.85,11.31-1,0-4.43-1.44-7.68-3.21Zm-83.74-7.9A25,25,0,0,1,394.18,91c-2.47-3.89-4.74-4.38-11.39-2.47-2.25.64-4.78.7-5.79.14-3.5-2,2.82-3.88,9.85-3,5.35.66,6.54.47,7.17-1.15,1.25-3.27,7-5.61,10.18-4.16,2,.9,3.75.87,6.26-.09,3.37-1.28,3.42-1.4,1.21-3a9,9,0,0,0-3.2-1.68c-.49,0-2.29-2.37-4-5.27a26.23,26.23,0,0,0-7.08-7.74c-3.73-2.31-4.22-2.35-7.55-.62-2.92,1.51-4.6,1.61-9.22.58A29.32,29.32,0,0,0,371,62c-3.8.72-10.77-1.15-10.77-2.87,0-3.18,10-10.3,15.94-11.36l4.73-.84-3.38,3.6c-4.66,5-2.91,7.25,2.15,2.81a20.7,20.7,0,0,1,8.24-4.24c3.65-.69,5.21-.24,9.79,2.79,6.09,4,6.56,4.15,10,2.31,2.07-1.11,2.84-.81,5.08,2,1.56,2,5,4.07,8.41,5.14,5.4,1.71,5.77,2.08,5.77,5.8,0,2.79.8,4.55,2.7,5.91,7.92,5.67,7.75,5.43,6,8.18-2.35,3.76-4.2,4-9.41,1.38-3.62-1.85-5.2-2.1-7-1.12C417,82.7,417,83,418.8,86.43c1.47,2.85,1.61,4.29.6,6.48-1.23,2.71-1.43,2.75-4.78,1-6.58-3.41-11-1.16-4.87,2.46,1.92,1.14,3.23,2.51,2.9,3-1.14,1.85-7,.87-11.56-2ZM643.68,99c0-.54.8-1,1.78-1s1.77.44,1.77,1-.8,1-1.77,1S643.68,99.55,643.68,99ZM356.55,92.66c-2.32-1.22-4.13-1.33-7.39-.43-5.55,1.53-7.49.41-4.67-2.7,3.6-4,6-4.76,10.39-3.32,4.88,1.61,7.05,4,5.74,6.34C359.77,94,359.2,94.05,356.55,92.66Zm234.58-.54c-2-1.28-4.43-2.05-5.52-1.7-1.49.47-1.82.06-1.36-1.69.7-2.69,11.08-6.57,14.59-5.45,1.22.38,4.35.07,6.94-.71,4.08-1.22,5.16-1.13,7.92.67l3.19,2.1-2.84,2.21c-2.4,1.87-6.85,3.5-17.61,6.42C595.47,94.24,593.08,93.4,591.13,92.12Zm-320.66-22a48.4,48.4,0,0,1-8.8-3.09l-5.83-2.62,8.2-.59c4.51-.33,8.2-1.12,8.2-1.77s-3.19-1.47-7.09-1.82c-5.15-.46-6.12-.78-3.54-1.18,4.31-.67,4.62-2.53.59-3.55-2.9-.73-2.88-.78,1.2-2.53a31.35,31.35,0,0,1,21.27-1.65c5.48,1.62,6.34,1.62,8.92-.07,1.83-1.2,2.91-1.4,3-.56s.21,1.94.29,2.7c.28,2.55,2.63,2.22,5.44-.77,2.61-2.77,7.12-4.1,7.11-2.09a20.2,20.2,0,0,1-2.34,4.71L304.77,59l3.81,2,3.81,2-6.25,2.85c-5.65,2.58-6.81,2.73-11.87,1.51-4.91-1.17-6.32-1-11.26,1.08-5.59,2.4-6.77,2.55-12.54,1.64Zm47.36-.84c-1.06-1.28-.62-1.91,2.13-3.06a10.68,10.68,0,0,1,6.15-.59c2.56.81,2.5.94-1.39,3-5,2.64-5.21,2.67-6.89.64Zm325.85-5.46c2.29-1.48,3.55-1.48,3.55,0,0,.65-1.2,1.17-2.66,1.16C642.42,64.93,642.25,64.7,643.68,63.78ZM860.41,60.5c-6-2.38-5.91-2.25-4.16-4.37.82-1,1-1.82.47-1.84s0-.84,1.33-1.82,2.37-2.16,2.38-2.62c0-1.75,4.85-6.35,8.25-7.9,2-.89,7-1.89,11.22-2.23s9.88-.95,12.57-1.36c2.86-.44,5.19-.26,5.62.44.84,1.35-.76,1.93-9.92,3.57S873.6,46.55,870,50.83c-3.79,4.51-3.92,7.36-.44,9.79l2.66,1.85-3.54,0a29,29,0,0,1-8.27-1.92ZM241.83,57.08c-1.9-1.91-1.47-2.32,7.67-7.33,10.71-5.86,16.09-6.64,25.69-3.71l5.31,1.62-7.08,1.4c-5.8,1.15-18.08,5.26-27.78,9.29C244.65,58.76,242.94,58.19,241.83,57.08Zm85.33-1.53c0-.63-1.46-2-3.25-3l-3.25-1.86,4.35.68c3.09.49,4.63.2,5.31-1,.82-1.42,8.34-4.27,11.34-4.29.5,0,.09,1.58-.92,3.53-2.37,4.59-13.58,9.49-13.58,5.95Zm18.39-3.45c-1.7-2.74,9.86-7,14.77-5.42,3.58,1.14,1.19,3.09-5.05,4.13a42.28,42.28,0,0,0-7,1.67,2.24,2.24,0,0,1-2.69-.38Zm37.71-8.7c-7.8-.62-14.32-1.26-14.5-1.42-1.05-1,1.58-4.17,4.41-5.35s4.08-1,7.89.94,6.12,2.21,13,1.71c4.65-.33,10-.23,11.81.24l3.34.84-4.13,2.21c-2.28,1.22-4.93,2.16-5.91,2.09L383.26,43.4Zm339.88-4.82c-5.8-3-6.36-4.32-1.8-4.35a10.38,10.38,0,0,0,5-1.29c1.53-1.1,1.51-1.19-.15-.66a3.6,3.6,0,0,1-3.3-.77c-1-1-1.59-1-2.27.08s-1.93,1.14-4.38.41c-6.23-1.87-7.62-2.7-7.62-4.55,0-1.56,1.56-1.71,11.22-1,7.36.52,11.22.38,11.22-.41,0-2.33,3.28-1.18,4.15,1.45l.88,2.66.52-2.66c.29-1.46,1.28-2.66,2.21-2.66a1.58,1.58,0,0,0,1.69-1.41c0-1.11.32-1.11,1.42,0,.82.82,4.78,1.41,9.45,1.41,8.44,0,10.42,1.51,4.79,3.65-2.92,1.12-8,.8-13.59-.84-1.14-.33-2.06-.17-2.06.36,0,1.09,6.64,5.1,8.44,5.1a5.56,5.56,0,0,1,2.83,1.66c1.42,1.42,1.41,1.75-.09,2.32-1,.37-1.74.1-1.74-.61s-1.5-1-4.25-.47c-3,.55-4,.4-3.44-.51a2.93,2.93,0,0,0-.62-3c-1.51-1.83-5.86-2.39-5.86-.76,0,.54-1.73,2.88-3.84,5.21l-3.84,4.25-5-2.55ZM409.83,36c-2.05-1.2-4.94-1.55-9.45-1.14-4.21.39-7.44.06-9.2-1-2.41-1.38-1.82-1.54,5.55-1.48,9.23.08,13.28-1.9,8.28-4-2.37-1-2-1.11,2-.55,5.31.74,7.38-.68,4.48-3.08-3.08-2.57.31-3.36,11.29-2.65q10.19.66,12.81-.74c3.34-1.79,2-4.07-1.79-3.11-2.64.67-21-.42-20.2-1.2.56-.55,26.52-3,43.57-4,8.84-.56,18.67-1.34,21.85-1.73l5.77-.72-9.53,4.58c-8.93,4.29-23.46,8.47-29.42,8.47-1.46,0-5.63,1.6-9.29,3.54s-7.37,3.55-8.26,3.55-4.76,1.59-8.59,3.53-7,3.51-7,3.5-1.32-.81-2.95-1.76Zm-23-10.79c-5.72-1.27-5.93-1.75-1.73-3.93,6.13-3.17,11.94-4,14.57-2,2.09,1.54,2,1.78-2.13,4.2C393.24,25.94,391.5,26.23,386.8,25.19Z"></path></g></svg>