<svg xmlns="http://www.w3.org/2000/svg" xmlns:xlink="http://www.w3.org/1999/xlink" id="Layer_1" data-name="Layer 1" viewBox="0 0 171.53 214.31"><defs><style>.cls-1{fill:none;}.cls-2{fill:#fff;}.cls-3{fill:url(#linear-gradient);}.cls-4{clip-path:url(#clip-path);}.cls-5{fill:#3f3d56;}.cls-6{fill:#e6e6e6;}.cls-7{fill:#44c1c9;}.cls-8{fill:#ccc;}.cls-9{fill:#2f2e41;}.cls-10{fill:#a0616a;}</style><linearGradient id="linear-gradient" x1="-15.64" y1="-31.71" x2="177.51" y2="-31.22" gradientTransform="matrix(1, 0, 0, -1, 0, 170.77)" gradientUnits="userSpaceOnUse"><stop offset="0" stop-color="#33acd5"></stop><stop offset="1" stop-color="#8effe7"></stop></linearGradient><clipPath id="clip-path"><rect class="cls-1" width="155" height="122"></rect></clipPath></defs><path class="cls-2" d="M11.82,171.8a3.13,3.13,0,0,0-.23-1.25,2.47,2.47,0,0,0-.77-1,5.56,5.56,0,0,0-1.43-.82A17.71,17.71,0,0,0,7.16,168a20,20,0,0,1-2.31-.79,7.81,7.81,0,0,1-1.77-1A4,4,0,0,1,2,164.88a3.85,3.85,0,0,1-.39-1.77A3.78,3.78,0,0,1,2,161.32a4.3,4.3,0,0,1,1.19-1.4A5.68,5.68,0,0,1,5,159a8.11,8.11,0,0,1,2.31-.32,6.66,6.66,0,0,1,3.1.68,5.08,5.08,0,0,1,2,1.84,4.7,4.7,0,0,1,.73,2.58H11.72a3.76,3.76,0,0,0-.53-2,3.45,3.45,0,0,0-1.5-1.37,5.08,5.08,0,0,0-2.38-.5,5.72,5.72,0,0,0-2.36.43,3.31,3.31,0,0,0-1.45,1.14A2.7,2.7,0,0,0,3,163.09a2.62,2.62,0,0,0,.24,1.12,2.75,2.75,0,0,0,.76.95,6.34,6.34,0,0,0,1.42.82,16.16,16.16,0,0,0,2.17.72,17.75,17.75,0,0,1,2.41.83,7.21,7.21,0,0,1,1.78,1.05A3.88,3.88,0,0,1,12.9,170a4.24,4.24,0,0,1,.38,1.83,3.9,3.9,0,0,1-.45,1.88,4.07,4.07,0,0,1-1.23,1.39,5.72,5.72,0,0,1-1.86.88,8.59,8.59,0,0,1-2.33.3,8.78,8.78,0,0,1-2.27-.29,6.79,6.79,0,0,1-2.06-.9,4.92,4.92,0,0,1-1.49-1.59A4.75,4.75,0,0,1,1,171.12H2.47a3.53,3.53,0,0,0,.44,1.82,3.64,3.64,0,0,0,1.14,1.2,5.51,5.51,0,0,0,1.6.66,7.48,7.48,0,0,0,1.76.2,6.15,6.15,0,0,0,2.33-.4,3.42,3.42,0,0,0,1.53-1.11A2.68,2.68,0,0,0,11.82,171.8Zm12.37,1.27v-9.75h1.4V176H24.25Zm.26-2.34.72,0a8.16,8.16,0,0,1-.28,2.21,4.89,4.89,0,0,1-.88,1.75,3.87,3.87,0,0,1-1.55,1.16,5.6,5.6,0,0,1-2.28.41,5.41,5.41,0,0,1-1.7-.25,3.27,3.27,0,0,1-1.31-.85,4,4,0,0,1-.86-1.48,7.52,7.52,0,0,1-.29-2.22v-8.11h1.39v8.13a5.45,5.45,0,0,0,.23,1.7,2.75,2.75,0,0,0,.63,1.09,2.34,2.34,0,0,0,.94.59,3.47,3.47,0,0,0,1.13.17,4.38,4.38,0,0,0,2.44-.59,3.31,3.31,0,0,0,1.28-1.57A5.69,5.69,0,0,0,24.45,170.73ZM29.24,158h1.4v15.54L30.55,176H29.24Zm10.23,11.54v.25a9.69,9.69,0,0,1-.33,2.6,6.35,6.35,0,0,1-1,2.05,4.18,4.18,0,0,1-3.57,1.79,5.32,5.32,0,0,1-2-.35,4.34,4.34,0,0,1-1.5-1,5.19,5.19,0,0,1-1-1.56,8,8,0,0,1-.53-2V168.2a9,9,0,0,1,.56-2.09,5.61,5.61,0,0,1,1-1.62,4.15,4.15,0,0,1,1.47-1,5.14,5.14,0,0,1,2-.36,4.6,4.6,0,0,1,2.07.45,4.07,4.07,0,0,1,1.53,1.3,6.2,6.2,0,0,1,1,2A9.93,9.93,0,0,1,39.47,169.54Zm-1.42.25v-.25a9.52,9.52,0,0,0-.21-2.06,4.89,4.89,0,0,0-.67-1.65A3.16,3.16,0,0,0,36,164.71a3.42,3.42,0,0,0-1.68-.39,4,4,0,0,0-1.73.34,3.35,3.35,0,0,0-1.17.88,4.65,4.65,0,0,0-.73,1.18,7.25,7.25,0,0,0-.39,1.26v3.65a5.08,5.08,0,0,0,.69,1.65,3.89,3.89,0,0,0,1.32,1.26,4.12,4.12,0,0,0,2,.46,3.17,3.17,0,0,0,2.8-1.5,5,5,0,0,0,.67-1.65A8.92,8.92,0,0,0,38.05,169.79Zm12.12,3a2.21,2.21,0,0,0-.26-1,2.34,2.34,0,0,0-1-.93,7.54,7.54,0,0,0-2.14-.72,16.89,16.89,0,0,1-1.89-.52,5.93,5.93,0,0,1-1.38-.7,2.88,2.88,0,0,1-.86-1,3,3,0,0,1-.29-1.36,2.85,2.85,0,0,1,.31-1.32,3.36,3.36,0,0,1,.89-1.11,4.79,4.79,0,0,1,1.4-.75,6.4,6.4,0,0,1,1.87-.26,5.63,5.63,0,0,1,2.5.5,3.73,3.73,0,0,1,1.61,1.35,3.46,3.46,0,0,1,.56,1.93H50.1a2.19,2.19,0,0,0-.39-1.24,2.77,2.77,0,0,0-1.11-1,3.87,3.87,0,0,0-1.78-.38,4.05,4.05,0,0,0-1.77.33,2.34,2.34,0,0,0-1,.83,2,2,0,0,0-.3,1.05,2.11,2.11,0,0,0,.13.77,1.51,1.51,0,0,0,.49.63,3.6,3.6,0,0,0,1,.55,14.05,14.05,0,0,0,1.73.51,10.37,10.37,0,0,1,2.51.83A3.52,3.52,0,0,1,51.09,171a3,3,0,0,1,.47,1.72,3.17,3.17,0,0,1-.33,1.44,3.11,3.11,0,0,1-.94,1.11,4.76,4.76,0,0,1-1.48.73,6.72,6.72,0,0,1-1.92.25,6.35,6.35,0,0,1-2.72-.52,4.14,4.14,0,0,1-1.68-1.41,3.45,3.45,0,0,1-.56-1.86h1.39A2.46,2.46,0,0,0,44,174a3,3,0,0,0,1.34.79,5.59,5.59,0,0,0,1.6.24,4.5,4.5,0,0,0,1.8-.32,2.59,2.59,0,0,0,1.1-.83A1.86,1.86,0,0,0,50.17,172.77ZM59.41,175a4.22,4.22,0,0,0,1.67-.33,3.27,3.27,0,0,0,1.29-1,2.91,2.91,0,0,0,.58-1.63h1.34a4,4,0,0,1-.74,2.16,4.64,4.64,0,0,1-1.76,1.48,5.36,5.36,0,0,1-2.38.52,5.44,5.44,0,0,1-2.34-.48,4.79,4.79,0,0,1-1.69-1.33,6.32,6.32,0,0,1-1-2,8.66,8.66,0,0,1-.34-2.49v-.5a8.59,8.59,0,0,1,.34-2.48,6.21,6.21,0,0,1,1-2,4.81,4.81,0,0,1,1.69-1.34,5.36,5.36,0,0,1,2.33-.48,5.25,5.25,0,0,1,2.44.55,4.21,4.21,0,0,1,1.73,1.56,4.61,4.61,0,0,1,.72,2.39H63a3.55,3.55,0,0,0-.54-1.76,3.29,3.29,0,0,0-1.26-1.14,3.91,3.91,0,0,0-1.75-.4,3.76,3.76,0,0,0-1.84.42,3.48,3.48,0,0,0-1.24,1.14,5.37,5.37,0,0,0-.69,1.64,8,8,0,0,0-.22,1.92v.5a8.74,8.74,0,0,0,.21,1.94,5.31,5.31,0,0,0,.69,1.63,3.48,3.48,0,0,0,1.24,1.14A4,4,0,0,0,59.41,175Zm9.1-9.61V176h-1.4V163.32h1.36ZM73,163.23l0,1.29-.46-.06a3.43,3.43,0,0,0-.48,0,3.66,3.66,0,0,0-1.6.34,3.16,3.16,0,0,0-1.15.93,4.31,4.31,0,0,0-.72,1.38,6.94,6.94,0,0,0-.28,1.69l-.51.2a9.39,9.39,0,0,1,.26-2.31,5.79,5.79,0,0,1,.78-1.86,3.87,3.87,0,0,1,1.35-1.26,4,4,0,0,1,1.92-.45,3.08,3.08,0,0,1,.53,0A1.76,1.76,0,0,1,73,163.23Zm3.76.09V176h-1.4V163.32Zm-1.64-3.67a1,1,0,0,1,.24-.67,1,1,0,0,1,.71-.28.93.93,0,0,1,.7.28.92.92,0,0,1,.27.67.94.94,0,0,1-.27.67.93.93,0,0,1-.7.27,1,1,0,0,1-.71-.27A1,1,0,0,1,75.12,159.65ZM80.57,158H82v15.54L81.88,176H80.57ZM90.8,169.54v.25a9.69,9.69,0,0,1-.33,2.6,6.57,6.57,0,0,1-1,2.05,4.18,4.18,0,0,1-3.58,1.79,5.3,5.3,0,0,1-2-.35,4.16,4.16,0,0,1-1.5-1,5.22,5.22,0,0,1-1-1.56,8,8,0,0,1-.52-2V168.2a8.52,8.52,0,0,1,.56-2.09,5.81,5.81,0,0,1,1-1.62,4.27,4.27,0,0,1,1.48-1,5.14,5.14,0,0,1,2-.36,4.56,4.56,0,0,1,2.06.45,4.1,4.1,0,0,1,1.54,1.3,6.41,6.41,0,0,1,1,2A9.93,9.93,0,0,1,90.8,169.54Zm-1.42.25v-.25a9.52,9.52,0,0,0-.21-2.06,4.89,4.89,0,0,0-.67-1.65,3.24,3.24,0,0,0-1.15-1.12,3.43,3.43,0,0,0-1.69-.39,3.94,3.94,0,0,0-1.72.34,3.35,3.35,0,0,0-1.17.88,4.38,4.38,0,0,0-.73,1.18,7.32,7.32,0,0,0-.4,1.26v3.65a5.33,5.33,0,0,0,.7,1.65,3.8,3.8,0,0,0,1.32,1.26,4.09,4.09,0,0,0,2,.46,3.17,3.17,0,0,0,2.8-1.5,5,5,0,0,0,.67-1.65A8.92,8.92,0,0,0,89.38,169.79Zm9.42,6.44a5.4,5.4,0,0,1-4.09-1.74,5.91,5.91,0,0,1-1.18-2,7.26,7.26,0,0,1-.41-2.51v-.5a7.63,7.63,0,0,1,.43-2.65,6.2,6.2,0,0,1,1.2-2,5.26,5.26,0,0,1,1.73-1.29,4.9,4.9,0,0,1,2.06-.45,5.06,5.06,0,0,1,2.15.43,4.15,4.15,0,0,1,1.57,1.21,5.13,5.13,0,0,1,1,1.84,7.76,7.76,0,0,1,.33,2.33v.85H94v-1.19h8.2v-.16a5.12,5.12,0,0,0-.43-2,3.65,3.65,0,0,0-1.19-1.52,3.31,3.31,0,0,0-2-.59,3.63,3.63,0,0,0-1.64.38,3.76,3.76,0,0,0-1.28,1.08,5.09,5.09,0,0,0-.81,1.65,7.27,7.27,0,0,0-.29,2.11v.5a6,6,0,0,0,.31,2,5.15,5.15,0,0,0,.89,1.59,4,4,0,0,0,1.38,1.08,4,4,0,0,0,1.76.39,4.65,4.65,0,0,0,2-.41,4.31,4.31,0,0,0,1.56-1.33l.88.68a5.2,5.2,0,0,1-1,1.13,4.75,4.75,0,0,1-1.47.82A6,6,0,0,1,98.8,176.23ZM117,163.32v1.15h-6.36v-1.15Zm-4-3.26h1.39v12.86a2.85,2.85,0,0,0,.24,1.32,1.18,1.18,0,0,0,.61.6,2.11,2.11,0,0,0,.8.15,5.93,5.93,0,0,0,.61,0l.53-.1.06,1.19a4,4,0,0,1-.67.13,7.52,7.52,0,0,1-.82,0,3.26,3.26,0,0,1-1.43-.29,2.08,2.08,0,0,1-1-1,4.63,4.63,0,0,1-.35-2Zm6,9.8v-.39a7.75,7.75,0,0,1,.4-2.55,5.85,5.85,0,0,1,1.14-2,5.09,5.09,0,0,1,1.79-1.32,5.87,5.87,0,0,1,4.65,0,5.09,5.09,0,0,1,1.79,1.32,5.87,5.87,0,0,1,1.15,2,7.75,7.75,0,0,1,.4,2.55v.39a7.75,7.75,0,0,1-.4,2.55,5.82,5.82,0,0,1-1.15,2,5.14,5.14,0,0,1-1.78,1.34,6.11,6.11,0,0,1-4.65,0,5.27,5.27,0,0,1-1.79-1.34,5.82,5.82,0,0,1-1.15-2A7.75,7.75,0,0,1,118.91,169.86Zm1.39-.39v.39a6.82,6.82,0,0,0,.29,2,5.1,5.1,0,0,0,.82,1.65,3.92,3.92,0,0,0,1.33,1.13,4,4,0,0,0,1.84.41,3.91,3.91,0,0,0,1.82-.41,3.83,3.83,0,0,0,1.33-1.13,5.08,5.08,0,0,0,.81-1.65,6.82,6.82,0,0,0,.28-2v-.39a6.57,6.57,0,0,0-.28-1.95,5.06,5.06,0,0,0-.82-1.66,4.09,4.09,0,0,0-1.33-1.15,4.2,4.2,0,0,0-3.66,0,4.2,4.2,0,0,0-1.33,1.15,5.5,5.5,0,0,0-.83,1.66A7.29,7.29,0,0,0,120.3,169.47Zm17.92.39v-.39a7.75,7.75,0,0,1,.4-2.55,6.18,6.18,0,0,1,1.14-2,5.09,5.09,0,0,1,1.79-1.32,5.87,5.87,0,0,1,4.65,0,5.13,5.13,0,0,1,1.8,1.32,6,6,0,0,1,1.15,2,8,8,0,0,1,.39,2.55v.39a8,8,0,0,1-.39,2.55,6,6,0,0,1-1.15,2,5.27,5.27,0,0,1-1.79,1.34,5.57,5.57,0,0,1-2.31.46,5.72,5.72,0,0,1-2.34-.46,5.37,5.37,0,0,1-1.79-1.34,6,6,0,0,1-1.15-2A7.75,7.75,0,0,1,138.22,169.86Zm1.4-.39v.39a6.82,6.82,0,0,0,.28,2,5.31,5.31,0,0,0,.82,1.65,3.92,3.92,0,0,0,1.33,1.13,4.06,4.06,0,0,0,1.85.41,3.89,3.89,0,0,0,1.81-.41,4,4,0,0,0,1.34-1.13,4.87,4.87,0,0,0,.8-1.65,6.82,6.82,0,0,0,.29-2v-.39a6.57,6.57,0,0,0-.29-1.95,5,5,0,0,0-.81-1.66,4.13,4.13,0,0,0-1.34-1.15,4.2,4.2,0,0,0-3.66,0,4.2,4.2,0,0,0-1.33,1.15,5.26,5.26,0,0,0-.82,1.66A6.91,6.91,0,0,0,139.62,169.47Zm20.95,3.6v-9.75H162V176h-1.35Zm.26-2.34.72,0a8.16,8.16,0,0,1-.28,2.21,4.87,4.87,0,0,1-.87,1.75,3.94,3.94,0,0,1-1.55,1.16,5.68,5.68,0,0,1-2.29.41,5.46,5.46,0,0,1-1.7-.25,3.27,3.27,0,0,1-1.31-.85,3.82,3.82,0,0,1-.85-1.48,7.18,7.18,0,0,1-.3-2.22v-8.11h1.4v8.13a5.48,5.48,0,0,0,.22,1.7,3,3,0,0,0,.63,1.09,2.41,2.41,0,0,0,.94.59,3.49,3.49,0,0,0,1.14.17,4.37,4.37,0,0,0,2.43-.59,3.26,3.26,0,0,0,1.28-1.57A5.69,5.69,0,0,0,160.83,170.73Zm6.21-5.31V176h-1.39V163.32H167Zm4.49-2.19,0,1.29-.45-.06a4,4,0,0,0-2.09.31,3.24,3.24,0,0,0-1.15.93,4.1,4.1,0,0,0-.71,1.38,6.49,6.49,0,0,0-.29,1.69l-.51.2a9.9,9.9,0,0,1,.26-2.31,5.79,5.79,0,0,1,.78-1.86,3.87,3.87,0,0,1,1.35-1.26,4,4,0,0,1,1.92-.45,3.08,3.08,0,0,1,.53,0A1.76,1.76,0,0,1,171.53,163.23Z"></path><path class="cls-3" d="M6.16,200.7V214H1.66V197.09H5.88ZM5.5,205H4.28a10.71,10.71,0,0,1,.49-3.37A7.71,7.71,0,0,1,6.12,199a5.85,5.85,0,0,1,2.08-1.64,6.23,6.23,0,0,1,2.72-.58,6.76,6.76,0,0,1,2.17.34,4.17,4.17,0,0,1,1.69,1.1,5,5,0,0,1,1.1,2,10.16,10.16,0,0,1,.39,3V214H11.73V203.2a4,4,0,0,0-.31-1.75,1.73,1.73,0,0,0-.92-.87A3.57,3.57,0,0,0,9,200.31a3.32,3.32,0,0,0-1.58.36,3.15,3.15,0,0,0-1.09,1,4.68,4.68,0,0,0-.64,1.47A7,7,0,0,0,5.5,205Zm22,9.36a9.57,9.57,0,0,1-3.53-.62,7.59,7.59,0,0,1-4.32-4.38,8.89,8.89,0,0,1-.57-3.19v-.62a11,11,0,0,1,.54-3.52,8.31,8.31,0,0,1,1.57-2.76,6.85,6.85,0,0,1,2.5-1.8,8.14,8.14,0,0,1,3.31-.64,8,8,0,0,1,3.19.6,6.14,6.14,0,0,1,2.32,1.68,7.21,7.21,0,0,1,1.44,2.63,11.1,11.1,0,0,1,.49,3.37v1.88H21v-3h9v-.35a3.89,3.89,0,0,0-.34-1.67,2.7,2.7,0,0,0-1-1.19,3.11,3.11,0,0,0-1.72-.43,2.9,2.9,0,0,0-1.53.39,3,3,0,0,0-1.05,1.09,6.1,6.1,0,0,0-.59,1.66,10.1,10.1,0,0,0-.19,2.06v.62a6.23,6.23,0,0,0,.28,1.88,4.63,4.63,0,0,0,.83,1.48,3.8,3.8,0,0,0,1.31,1,4.37,4.37,0,0,0,1.77.35,5.56,5.56,0,0,0,2.27-.47,5,5,0,0,0,1.82-1.45L34,211.25a6.69,6.69,0,0,1-1.45,1.47,8.1,8.1,0,0,1-2.19,1.16A9.06,9.06,0,0,1,27.47,214.31Zm14.33-4.69,3.51-12.53h2.86L47.25,202l-3.52,12H41.34ZM40,197.09l2.51,12.52.24,4.39H40l-4.28-16.91Zm11.37,12.32,2.45-12.32H58.2L53.92,214h-2.8Zm-2.83-12.32,3.5,12.44.49,4.47H50.14l-3.52-12-.89-4.94Zm21,12.24a1.46,1.46,0,0,0-.28-.88,2.52,2.52,0,0,0-1-.72,10.94,10.94,0,0,0-2.17-.62,17.64,17.64,0,0,1-2.39-.7,8.08,8.08,0,0,1-1.91-1,4.61,4.61,0,0,1-1.25-1.44,4,4,0,0,1-.45-1.92,4.54,4.54,0,0,1,.45-2,5.39,5.39,0,0,1,1.33-1.66A6.19,6.19,0,0,1,64,197.2a9,9,0,0,1,2.84-.42,9.38,9.38,0,0,1,3.78.7,5.64,5.64,0,0,1,2.44,1.94,4.72,4.72,0,0,1,.86,2.78h-4.5a2.53,2.53,0,0,0-.28-1.17,1.9,1.9,0,0,0-.85-.83,3,3,0,0,0-1.47-.31,2.86,2.86,0,0,0-1.29.27,1.94,1.94,0,0,0-.85.68,1.73,1.73,0,0,0-.28.94,1.45,1.45,0,0,0,.16.7,1.66,1.66,0,0,0,.54.55,5.17,5.17,0,0,0,1,.47,14.72,14.72,0,0,0,1.5.38,16.37,16.37,0,0,1,3.27,1,5.75,5.75,0,0,1,2.28,1.62,4.07,4.07,0,0,1,.84,2.68,4.24,4.24,0,0,1-.5,2.06,5,5,0,0,1-1.43,1.64,7.35,7.35,0,0,1-2.25,1.08,10.55,10.55,0,0,1-2.92.37,8.67,8.67,0,0,1-4-.84,6.3,6.3,0,0,1-2.47-2.14,4.93,4.93,0,0,1-.83-2.69h4.26a2.46,2.46,0,0,0,.47,1.48,2.54,2.54,0,0,0,1.14.82,4.7,4.7,0,0,0,1.52.25,3.79,3.79,0,0,0,1.45-.24,2,2,0,0,0,.88-.65A1.58,1.58,0,0,0,69.61,209.33Zm12-19.33v24H77.14V190Zm11.5,24.31a9.63,9.63,0,0,1-3.54-.62A7.8,7.8,0,0,1,87,211.92a7.91,7.91,0,0,1-1.66-2.61,8.9,8.9,0,0,1-.58-3.19v-.62a11,11,0,0,1,.55-3.52,8.47,8.47,0,0,1,1.56-2.76,6.94,6.94,0,0,1,2.5-1.8,8.19,8.19,0,0,1,3.32-.64,8,8,0,0,1,3.18.6,6.1,6.1,0,0,1,2.33,1.68,7.21,7.21,0,0,1,1.44,2.63,11.11,11.11,0,0,1,.48,3.37v1.88H86.66v-3h9v-.35a3.89,3.89,0,0,0-.34-1.67,2.7,2.7,0,0,0-1-1.19,3.11,3.11,0,0,0-1.72-.43,2.88,2.88,0,0,0-1.53.39,3,3,0,0,0-1,1.09,5.79,5.79,0,0,0-.59,1.66,10.1,10.1,0,0,0-.19,2.06v.62a5.93,5.93,0,0,0,.28,1.88,4.44,4.44,0,0,0,.83,1.48,3.71,3.71,0,0,0,1.31,1,4.33,4.33,0,0,0,1.77.35,5.51,5.51,0,0,0,2.26-.47,4.91,4.91,0,0,0,1.83-1.45l2.19,2.37a6.92,6.92,0,0,1-1.45,1.47,8.1,8.1,0,0,1-2.19,1.16A9.1,9.1,0,0,1,93.16,214.31Zm17.78-17.22v3.19h-9.85v-3.19Zm-7.41-4.17H108v16a2.57,2.57,0,0,0,.19,1.12,1.13,1.13,0,0,0,.59.55,3.06,3.06,0,0,0,1,.14q.42,0,.75,0c.23,0,.42-.07.57-.1l0,3.32a9,9,0,0,1-2.73.4,6.52,6.52,0,0,1-2.6-.48,3.63,3.63,0,0,1-1.69-1.6,6,6,0,0,1-.59-2.87Zm18.25,4.17v3.19h-9.84v-3.19Zm-7.4-4.17h4.5v16a2.75,2.75,0,0,0,.18,1.12,1.19,1.19,0,0,0,.6.55,3,3,0,0,0,1,.14q.42,0,.75,0l.58-.1v3.32a8.51,8.51,0,0,1-1.25.29,8.42,8.42,0,0,1-1.48.11,6.47,6.47,0,0,1-2.59-.48,3.63,3.63,0,0,1-1.69-1.6,5.92,5.92,0,0,1-.59-2.87Zm17.74,21.39a9.57,9.57,0,0,1-3.53-.62,7.8,7.8,0,0,1-2.65-1.77,7.91,7.91,0,0,1-1.66-2.61,8.9,8.9,0,0,1-.58-3.19v-.62a10.7,10.7,0,0,1,.55-3.52,8.29,8.29,0,0,1,1.56-2.76,6.94,6.94,0,0,1,2.5-1.8,8.18,8.18,0,0,1,3.31-.64,8,8,0,0,1,3.19.6,6.1,6.1,0,0,1,2.33,1.68,7.21,7.21,0,0,1,1.44,2.63,11.11,11.11,0,0,1,.48,3.37v1.88H125.62v-3h9v-.35a3.89,3.89,0,0,0-.34-1.67,2.77,2.77,0,0,0-1-1.19,3.11,3.11,0,0,0-1.72-.43,2.85,2.85,0,0,0-1.53.39,3,3,0,0,0-1.05,1.09,5.79,5.79,0,0,0-.59,1.66,10.1,10.1,0,0,0-.19,2.06v.62a5.93,5.93,0,0,0,.28,1.88,4.44,4.44,0,0,0,.83,1.48,3.71,3.71,0,0,0,1.31,1,4.33,4.33,0,0,0,1.77.35,5.51,5.51,0,0,0,2.26-.47,4.91,4.91,0,0,0,1.83-1.45l2.19,2.37a6.75,6.75,0,0,1-1.46,1.47,7.89,7.89,0,0,1-2.18,1.16A9.12,9.12,0,0,1,132.12,214.31Zm14-13.53V214h-4.5V197.09h4.24Zm5.1-3.8-.08,4.18a7.16,7.16,0,0,0-.8-.08c-.3,0-.57-.05-.82-.05a5.13,5.13,0,0,0-1.66.25,3.08,3.08,0,0,0-1.16.7,3.12,3.12,0,0,0-.68,1.14,5.45,5.45,0,0,0-.25,1.54l-.91-.28a12.94,12.94,0,0,1,.33-3,8.15,8.15,0,0,1,.95-2.42,4.88,4.88,0,0,1,1.56-1.6,4,4,0,0,1,2.11-.56,5.09,5.09,0,0,1,.77.06A3.66,3.66,0,0,1,151.22,197Z"></path><g class="cls-4"><path class="cls-2" d="M153.54,46.18h0l-24,11.69-32.86,16a1,1,0,0,1-.41.09.9.9,0,0,1-.4-.09l-33.91-16L37.29,46.2l0,0h0a1.35,1.35,0,0,0-1,.49,1.75,1.75,0,0,0-.43,1.18v72.48a1.77,1.77,0,0,0,.43,1.18,1.39,1.39,0,0,0,1,.49H153.54a1.37,1.37,0,0,0,1-.49,1.77,1.77,0,0,0,.43-1.18V47.85a1.75,1.75,0,0,0-.43-1.18A1.34,1.34,0,0,0,153.54,46.18Z"></path><path class="cls-5" d="M154,46.66a.21.21,0,0,1-.12,0L96,.69a.93.93,0,0,0-.6-.21,1,1,0,0,0-.6.21L37.33,46.61a.2.2,0,0,1-.08,0h-.08l-.07,0a.13.13,0,0,1-.06-.07.11.11,0,0,1,0-.08.28.28,0,0,1,0-.09.94.94,0,0,1,0-.09l.06-.07L94.53.3a1.39,1.39,0,0,1,.84-.3,1.33,1.33,0,0,1,.84.3l57.86,45.92a.2.2,0,0,1,.08.12.38.38,0,0,1,0,.15.24.24,0,0,1-.07.12.21.21,0,0,1-.13,0Z"></path><path class="cls-6" d="M40.61,48.28,95.43,2l55.23,49.6L98.25,87,69.8,79.59Z"></path><path class="cls-7" d="M72.21,108.85H45.13a1.06,1.06,0,0,1-.49-.11,1.2,1.2,0,0,1-.41-.31A1.29,1.29,0,0,1,44,108a1.45,1.45,0,0,1-.1-.55,1.49,1.49,0,0,1,.1-.55,1.37,1.37,0,0,1,.27-.47,1.35,1.35,0,0,1,.41-.31,1.21,1.21,0,0,1,.49-.11H72.21a1.16,1.16,0,0,1,.48.11,1.14,1.14,0,0,1,.41.31,1.58,1.58,0,0,1,.28.47,1.71,1.71,0,0,1,.09.55,1.67,1.67,0,0,1-.09.55,1.47,1.47,0,0,1-.28.47,1,1,0,0,1-.41.31A1,1,0,0,1,72.21,108.85Z"></path><path class="cls-7" d="M54.84,102.65H45.13a1.05,1.05,0,0,1-.49-.1,1.38,1.38,0,0,1-.41-.32,1.33,1.33,0,0,1-.27-.46,1.54,1.54,0,0,1-.1-.56,1.62,1.62,0,0,1,.37-1,1.35,1.35,0,0,1,.41-.31,1.21,1.21,0,0,1,.49-.11h9.71a1.21,1.21,0,0,1,.49.11,1.35,1.35,0,0,1,.41.31,1.62,1.62,0,0,1,.37,1,1.54,1.54,0,0,1-.1.56,1.33,1.33,0,0,1-.27.46,1.38,1.38,0,0,1-.41.32A1.05,1.05,0,0,1,54.84,102.65Z"></path><path class="cls-2" d="M96.2,74.07a1.38,1.38,0,0,1-.6-.13L61.79,58v-50a1.77,1.77,0,0,1,.43-1.18,1.39,1.39,0,0,1,1-.49h64.86a1.41,1.41,0,0,1,1,.49,1.81,1.81,0,0,1,.42,1.18V58l-.06,0L96.82,73.93A1.51,1.51,0,0,1,96.2,74.07Z"></path><path class="cls-5" d="M96.2,74.19a1.57,1.57,0,0,1-.64-.14L61.69,58V7.91a1.88,1.88,0,0,1,.46-1.26,1.46,1.46,0,0,1,1.11-.53h64.85a1.46,1.46,0,0,1,1.11.53,1.88,1.88,0,0,1,.46,1.26V58.06L96.86,74A1.52,1.52,0,0,1,96.2,74.19ZM62.11,57.71l33.61,15.9a1.16,1.16,0,0,0,1,0l32.56-15.85V7.91a1.45,1.45,0,0,0-.33-.93,1.11,1.11,0,0,0-.82-.38H63.26a1.11,1.11,0,0,0-.82.38,1.45,1.45,0,0,0-.33.93Z"></path><path class="cls-5" d="M153.54,46.18h0l-24,11.69-32.86,16a1,1,0,0,1-.41.09.9.9,0,0,1-.4-.09l-33.91-16L37.29,46.2l0,0h0a1.35,1.35,0,0,0-1,.49,1.75,1.75,0,0,0-.43,1.18v72.48a1.77,1.77,0,0,0,.43,1.18,1.39,1.39,0,0,0,1,.49H153.54a1.37,1.37,0,0,0,1-.49,1.77,1.77,0,0,0,.43-1.18V47.85a1.75,1.75,0,0,0-.43-1.18A1.34,1.34,0,0,0,153.54,46.18Zm1.05,74.15a1.24,1.24,0,0,1-.31.84,1,1,0,0,1-.74.35H37.21a1,1,0,0,1-.74-.35,1.29,1.29,0,0,1-.3-.84V47.85a1.27,1.27,0,0,1,.29-.83,1,1,0,0,1,.71-.36L61.9,58.35,95.64,74.3a1.34,1.34,0,0,0,1.14,0l32.7-15.92,24.1-11.72a1,1,0,0,1,.71.36,1.28,1.28,0,0,1,.3.83Z"></path><path class="cls-7" d="M90.94,25h-23a1.56,1.56,0,0,1-1.18-.56,2.1,2.1,0,0,1,0-2.7,1.56,1.56,0,0,1,1.18-.56h23a1.56,1.56,0,0,1,1.18.56,2.1,2.1,0,0,1,0,2.7A1.56,1.56,0,0,1,90.94,25Z"></path><path class="cls-7" d="M79,16.84H67.92a1.56,1.56,0,0,1-1.18-.56,2.1,2.1,0,0,1,0-2.7A1.6,1.6,0,0,1,67.92,13H79a1.62,1.62,0,0,1,1.19.56,2.1,2.1,0,0,1,0,2.7A1.58,1.58,0,0,1,79,16.84Z"></path><path class="cls-8" d="M112.9,44H77.75a1.56,1.56,0,0,1-1.18-.56,2.1,2.1,0,0,1,0-2.7,1.59,1.59,0,0,1,1.18-.55H112.9a1.59,1.59,0,0,1,1.18.55,2.1,2.1,0,0,1,0,2.7A1.56,1.56,0,0,1,112.9,44Z"></path><path class="cls-8" d="M112.9,52.84H77.75a1.56,1.56,0,0,1-1.18-.56,2.09,2.09,0,0,1,0-2.69A1.56,1.56,0,0,1,77.75,49H112.9a1.56,1.56,0,0,1,1.18.56,2.09,2.09,0,0,1,0,2.69A1.56,1.56,0,0,1,112.9,52.84Z"></path><path class="cls-9" d="M8.56,55.07A.82.82,0,0,1,8,54.83a1.11,1.11,0,0,1-.33-.62l-.76-4.32A9.86,9.86,0,0,1,8,43.26,7.78,7.78,0,0,1,13,39.5a7,7,0,0,1,5.81,1.31,9,9,0,0,1,3.3,5.61l.76,4.32a1.2,1.2,0,0,1-.14.81.93.93,0,0,1-.6.45l-13.33,3A.62.62,0,0,1,8.56,55.07Z"></path><path class="cls-10" d="M32.24,119.47H29.85L28.71,109h3.53Z"></path><path class="cls-9" d="M28.14,118.69h4.61V122H25.23a3.58,3.58,0,0,1,.85-2.34A2.76,2.76,0,0,1,28.14,118.69Z"></path><path class="cls-10" d="M7.31,119.44l-2.2-1.06,2.55-10.19,3.25,1.57Z"></path><path class="cls-9" d="M3.81,116.9l4.24,2-1.13,3L0,118.66a3.5,3.5,0,0,1,.64-1.07,2.92,2.92,0,0,1,.94-.71,2.75,2.75,0,0,1,1.12-.24A2.55,2.55,0,0,1,3.81,116.9Z"></path><path class="cls-10" d="M14.69,54c2.84,0,5.14-2.62,5.14-5.86s-2.3-5.85-5.14-5.85S9.55,44.9,9.55,48.13,11.86,54,14.69,54Z"></path><path class="cls-5" d="M14.94,74.77l-.06-.19C13.48,69.39,12,64,10.59,58.93l0-.14.09-.1a9.26,9.26,0,0,1,9.8-2.42,8.24,8.24,0,0,1,5.39,8.07A9.47,9.47,0,0,0,27.17,70l.14.23-.21.12a34.81,34.81,0,0,1-12,4.36Z"></path><path class="cls-9" d="M8.74,117.55a.92.92,0,0,1-.53-.16l-2.77-1.82a1.17,1.17,0,0,1-.48-.68A1.34,1.34,0,0,1,5,114l6.17-16.68L15.9,73l8.59-3.56.07,0c9.21,4.83,8.5,39.38,8.27,46.26a1.33,1.33,0,0,1-.29.78,1,1,0,0,1-.67.36l-2.58.39a1,1,0,0,1-.73-.25,1.18,1.18,0,0,1-.4-.74L22.88,89.44a.19.19,0,0,0-.05-.13.2.2,0,0,0-.12-.08.17.17,0,0,0-.12,0,.24.24,0,0,0-.1.1L9.65,116.94a1.22,1.22,0,0,1-.27.36.91.91,0,0,1-.37.21A.84.84,0,0,1,8.74,117.55Z"></path><path class="cls-10" d="M11.83,93a2.35,2.35,0,0,0,.31-.9,2.64,2.64,0,0,0,0-1,2.56,2.56,0,0,0-.4-.85,2,2,0,0,0-.68-.58l.14-5.11-2.71-.85L8.34,91a2.57,2.57,0,0,0,0,1.6,2.17,2.17,0,0,0,.94,1.19,1.74,1.74,0,0,0,1.39.18A2,2,0,0,0,11.83,93Z"></path><path class="cls-7" d="M8.39,87.64H8.23a1,1,0,0,1-.71-.32,1.25,1.25,0,0,1-.32-.78c-.26-3.8-1.06-16.76-.42-23.78a5.57,5.57,0,0,1,.59-1.85,4.6,4.6,0,0,1,1.17-1.44,4,4,0,0,1,1.58-.81,3.7,3.7,0,0,1,1.72,0l.17,0v.19C12,68.08,12,77.27,12,86.16a1.27,1.27,0,0,1-.23.74,1,1,0,0,1-.59.42A11.67,11.67,0,0,1,8.39,87.64Z"></path><path class="cls-7" d="M14.53,98.72a2.63,2.63,0,0,1-1.87-.81,3.46,3.46,0,0,1-.94-2L12,74.55,8.23,63.83a7,7,0,0,1,.76-4,5.7,5.7,0,0,1,2.79-2.64l1-.43a1.51,1.51,0,0,1,.59-.11,1.48,1.48,0,0,1,.58.16,1.65,1.65,0,0,1,.48.4,1.71,1.71,0,0,1,.31.58l3.84,11.8v0c.27,4.69,1.47,28.07-.93,28.77a11.54,11.54,0,0,1-3.09.39Z"></path><path class="cls-10" d="M36.63,85a2,2,0,0,1-.7-.55,2.31,2.31,0,0,1-.43-.84,2.5,2.5,0,0,1,.21-1.88l-2.59-4.17L35,75.14l3.58,6a2.36,2.36,0,0,1,.77,1.34A2.53,2.53,0,0,1,39.1,84,2,2,0,0,1,38,85a1.75,1.75,0,0,1-1.4,0Z"></path><path class="cls-7" d="M34.05,79.63a.89.89,0,0,1-.39-.12,1,1,0,0,1-.29-.31l0,0c-4.28-7.39-8.71-15-13.2-22.64l0-.09.06-.06a4,4,0,0,1,1.37-1,3.42,3.42,0,0,1,1.58-.26,3.5,3.5,0,0,1,1.6.42A4,4,0,0,1,26,56.71c3.92,5.44,9.52,16.73,11.14,20.06a1,1,0,0,1,.09.69,1,1,0,0,1-.34.56,12.87,12.87,0,0,1-2.55,1.55A.85.85,0,0,1,34.05,79.63Z"></path><path class="cls-7" d="M32.61,94C30,94,20.86,73.83,19.05,69.79l0-.05L17,57.38a1.94,1.94,0,0,1,0-.68,2.22,2.22,0,0,1,.24-.62,1.49,1.49,0,0,1,.43-.47,1.36,1.36,0,0,1,.55-.25l1.05-.22a5,5,0,0,1,3.59.64,6,6,0,0,1,2.47,3L28,71.38l8.77,17a3.65,3.65,0,0,1,.12,2.31,3.18,3.18,0,0,1-1.27,1.81A12.3,12.3,0,0,1,32.77,94l-.16,0Z"></path><path class="cls-9" d="M18.68,48.18H8.33V46.75a6.4,6.4,0,0,1,1.53-4.21,4.92,4.92,0,0,1,3.7-1.75h.84a4.92,4.92,0,0,1,3.69,1.75,6.47,6.47,0,0,1,1.54,4.21v.36a1.15,1.15,0,0,1-.28.76A.9.9,0,0,1,18.68,48.18Z"></path></g></svg>