<svg xmlns="http://www.w3.org/2000/svg" id="Layer_1" data-name="Layer 1" viewBox="0 0 100 100"><defs><style>.cls-1{fill:#fff;}</style></defs><path class="cls-1" d="M53.81,27.82a15.74,15.74,0,0,0,3.14-.2c.93-.13,1.84-.38,2.75-.56a1.42,1.42,0,0,0,1.2-1.42c.1-1.26-.72-1.92-2-1.62a22.12,22.12,0,0,1-4.21.59,23.76,23.76,0,0,1-6.17-.6c-1.37-.33-2.15.46-1.94,1.83A1.57,1.57,0,0,0,48,27.15a22.94,22.94,0,0,0,5.83.67Zm-.13-5.68a27.56,27.56,0,0,0,5.64-.78,1,1,0,0,0,.37-.2,1,1,0,0,0,.24-.34,31.34,31.34,0,0,0,2.79-5.32,6.35,6.35,0,0,0,.5-2c0-.43-.13-.59-.54-.42a4,4,0,0,1-2,.27,3.91,3.91,0,0,1-1.89-.79,1.81,1.81,0,0,0-2.19,0,4,4,0,0,1-4.78.06,2.1,2.1,0,0,0-1.28-.41,2.07,2.07,0,0,0-1.25.46,3.55,3.55,0,0,1-1.46.65,3.42,3.42,0,0,1-1.59-.07c-1.32-.34-1.39-.25-1,1.14a2,2,0,0,0,.07.23,28,28,0,0,0,3.21,6.48,1,1,0,0,0,.27.27.77.77,0,0,0,.36.12,30.42,30.42,0,0,0,4.57.61ZM14.61,71.61V84.9c0,1.13.32,1.44,1.41,1.45H20.2c1.3,0,1.5-.21,1.5-1.55V70.64a3.56,3.56,0,0,1,.11-1.17,1.14,1.14,0,0,1,.44-.67,1.21,1.21,0,0,1,.75-.23,1.12,1.12,0,0,1,.74.28,1.15,1.15,0,0,1,.39.71,3.52,3.52,0,0,1,.05.86c0,3.65,0,7.29,0,10.94a1.35,1.35,0,0,0,.2.94,1.24,1.24,0,0,0,.77.54c3.09,1.12,6.17,2.27,9.19,3.54a19.56,19.56,0,0,0,8.15,1.56c4.69-.09,9.38,0,14.07,0a12.75,12.75,0,0,0,7.54-2.27c4-2.69,8-5.3,12.06-7.94q4.05-2.64,8.09-5.31a2.25,2.25,0,0,0,.66-.61,2.48,2.48,0,0,0,.41-.81,2.57,2.57,0,0,0-.15-1.81A2.24,2.24,0,0,0,84,67.93a2.11,2.11,0,0,0-1.67-.06,9,9,0,0,0-1.43.52L61,77.46a2.43,2.43,0,0,1-1.08.33H47.31a1,1,0,0,1-.49-.06,1.16,1.16,0,0,1-.43-.25,1.17,1.17,0,0,1-.3-.4,1.26,1.26,0,0,1-.12-.5,1.33,1.33,0,0,1,.35-.93,1.26,1.26,0,0,1,.89-.41,5.75,5.75,0,0,1,.83,0H58c.38,0,.75.06.83-.54a5.29,5.29,0,0,0,0-2.06A5.12,5.12,0,0,0,58,70.75a4.86,4.86,0,0,0-1.48-1.38,4.73,4.73,0,0,0-1.89-.65c-3.24-.44-6.49-.84-9.73-1.13A19.13,19.13,0,0,1,36.22,65c-.61-.37-1.24-.72-1.86-1.08a19.16,19.16,0,0,0-9.31-2.8c-.68,0-.91.21-.86.9a23,23,0,0,1,0,2.35,1.29,1.29,0,0,1-.34.8,1.23,1.23,0,0,1-.77.38,1.2,1.2,0,0,1-.82-.25,1.18,1.18,0,0,1-.45-.75,4.18,4.18,0,0,1-.08-.93V58.24c0-1-.24-1.26-1.22-1.27h-4.4c-1.25,0-1.47.23-1.47,1.51q0,6.57,0,13.15Zm-2.48-14a3.64,3.64,0,0,1,.44-1.4,3.59,3.59,0,0,1,.94-1.11,3.47,3.47,0,0,1,1.29-.64,3.57,3.57,0,0,1,1.42,0h4.49a3.29,3.29,0,0,1,2.4.91,3.39,3.39,0,0,1,.76,1.1,3.68,3.68,0,0,1,.3,1.31c0,.64.25.81.82.81a9.28,9.28,0,0,1,1.58.14c.58.1.76-.08.73-.69a26.44,26.44,0,0,1,.38-6.09A36.79,36.79,0,0,1,35,36.23a53.65,53.65,0,0,1,8.44-8.6l.53-.44a1,1,0,0,0,.1-.25c-3.37.32-6.55.83-8.67,3.93-.56.82-1.22,1-1.86.59s-.7-1.12-.21-1.93a9.63,9.63,0,0,1,5.1-4,14.29,14.29,0,0,1,4.51-1l.61-.07c.56-.07.49-.31.16-.64a5.43,5.43,0,0,0-2.06-1.38,5.29,5.29,0,0,0-2.43-.3,10.16,10.16,0,0,1-6.92-1.57c-.83-.51-1.07-1.23-.69-1.89a1.49,1.49,0,0,1,.38-.41,1.39,1.39,0,0,1,.51-.2,1.26,1.26,0,0,1,.55,0,1.29,1.29,0,0,1,.48.28A8.25,8.25,0,0,0,39,19.61a7.38,7.38,0,0,1,3.26.38,7.7,7.7,0,0,1,2.81,1.74,1.21,1.21,0,0,1,.16.16c.16.16.33.28.53.09s.07-.34,0-.49c-.27-.48-.56-.94-.81-1.43a18.62,18.62,0,0,1-2.38-6.17,3.83,3.83,0,0,1,.47-2.65,1.93,1.93,0,0,1,.45-.61,1.73,1.73,0,0,1,.64-.38,1.86,1.86,0,0,1,.74-.09,1.8,1.8,0,0,1,.71.23,2.82,2.82,0,0,0,3.07-.17,3.67,3.67,0,0,1,2.08-.57,3.63,3.63,0,0,1,2,.7,2.34,2.34,0,0,0,1.35.46,2.27,2.27,0,0,0,1.35-.44,4,4,0,0,1,4.52,0,2,2,0,0,0,1.09.42,2,2,0,0,0,1.14-.25,2.21,2.21,0,0,1,2.4,0,2.44,2.44,0,0,1,.85.95,2.4,2.4,0,0,1,.23,1.27,7.93,7.93,0,0,1-.57,3.3,29.68,29.68,0,0,1-2.81,5.57c-.22.37-.32.62,0,1a3.76,3.76,0,0,1,.9,1.56A4,4,0,0,1,63.34,26c-.05.39.15.56.4.77,1.09.93,2.2,1.85,3.27,2.8.75.67.86,1.38.36,2s-1.24.56-2-.11c-.93-.81-1.87-1.61-2.81-2.41-.23-.19-.45-.41-.8-.18a10.83,10.83,0,0,1-5,1.34,27.06,27.06,0,0,1-9.36-.57A1.36,1.36,0,0,1,47,29.5c-1-.67-1.77-.23-2.6.5a46,46,0,0,0-12,15.23,27.53,27.53,0,0,0-2.69,11.68c0,2.29,0,2.3,2.1,3a24,24,0,0,1,5.32,2.69A16.13,16.13,0,0,0,44.48,65q5.4.52,10.79,1.29a7.09,7.09,0,0,1,4.32,2.51,7.51,7.51,0,0,1,1.7,4.81c0,1,0,1,.84.6l12.46-5.67a2.3,2.3,0,0,0,1.13-1,20.79,20.79,0,0,0,2.73-12.76,33.11,33.11,0,0,0-8.27-18.36c-.23-.28-.48-.55-.7-.84a1.25,1.25,0,0,1-.3-.42,1.4,1.4,0,0,1,0-1,1.28,1.28,0,0,1,.3-.43c.58-.53,1.24-.47,1.86.25.77.9,1.53,1.82,2.27,2.77a35.47,35.47,0,0,1,7.09,15.9,24.35,24.35,0,0,1-1.19,12.82,1.86,1.86,0,0,0-.24.92c.55-.24,1-.47,1.54-.67a4.72,4.72,0,0,1,3.61-.3,4.94,4.94,0,0,1,2.82,2.36,5.23,5.23,0,0,1,.49,3.72,5.1,5.1,0,0,1-2.12,3L64.87,88.13a16,16,0,0,1-5.57,2.22H38.44a25.19,25.19,0,0,1-3.78-1.12c-3.24-1.27-6.49-2.51-9.76-3.75-.29-.11-.62-.45-.74.26a3.64,3.64,0,0,1-1.23,2.36,3.37,3.37,0,0,1-2.46.82h-4.1a3.55,3.55,0,0,1-1.45,0,3.44,3.44,0,0,1-1.31-.62,3.53,3.53,0,0,1-1-1.09,3.74,3.74,0,0,1-.5-1.4Z"></path><path class="cls-1" d="M60.36,43H57.77a5.4,5.4,0,0,1,.74,2.15H61l-.65,2.53H58.51A4.89,4.89,0,0,1,57,50.71,6.75,6.75,0,0,1,53.6,52.3L59,59v.19H54.9l-6-7.29V49.57h2.94a2.56,2.56,0,0,0,1.78-.41,2.69,2.69,0,0,0,1.1-1.5H48.57l.65-2.53h5.4a2.64,2.64,0,0,0-1.08-1.25A2.53,2.53,0,0,0,52,43.55H48.57l.73-3.13H61Z"></path></svg>