<svg xmlns="http://www.w3.org/2000/svg" id="Layer_1" data-name="Layer 1" viewBox="0 0 159.1 159"><defs><style>.cls-1{fill:#fff;}</style></defs><path class="cls-1" d="M49,33.42l6-1.52.39-1.44a24.39,24.39,0,0,1,2.46-6l.74-1.29-3.16-5.32,5-5,5.33,3.16,1.29-.74a25,25,0,0,1,6-2.47l1.44-.38,1.52-6h7.07l1.53,6,1.44.38a25,25,0,0,1,6,2.47l1.29.74,5.32-3.16,5,5-3.16,5.33.74,1.29a24.79,24.79,0,0,1,2.46,6l.39,1.43,6,1.53v7.07l-6,1.53-.39,1.43a25.06,25.06,0,0,1-2.47,6l-.74,1.29L103.62,56l-5,5L93.3,57.87,92,58.61a24.82,24.82,0,0,1-6,2.47l-1.43.38-1.53,6H76l-1.52-6-1.44-.38a25,25,0,0,1-6-2.47l-1.29-.74L60.48,61l-5-5,3.16-5.33-.74-1.29a24.39,24.39,0,0,1-2.46-6L55.05,42,49,40.5Zm3.73,17.21-3.68,6.2L59.68,67.42l6.2-3.68a30.5,30.5,0,0,0,4.41,1.82l1.78,7H87l1.78-7a29.41,29.41,0,0,0,4.41-1.82l6.2,3.68L110,56.83l-3.69-6.2a29.73,29.73,0,0,0,1.82-4.4l7-1.79v-15l-7-1.78a29.73,29.73,0,0,0-1.82-4.4l3.68-6.2L99.42,6.5l-6.2,3.68a29.73,29.73,0,0,0-4.4-1.82L87,1.36h-15l-1.78,7a29.73,29.73,0,0,0-4.4,1.82L59.68,6.5,49.09,17.09l3.68,6.2A29.73,29.73,0,0,0,51,27.69l-7,1.79v15l7,1.78a29.73,29.73,0,0,0,1.82,4.4"></path><rect class="cls-1" x="0.74" y="153.91" width="5.08" height="5.09"></rect><rect class="cls-1" x="153.28" y="153.91" width="5.09" height="5.09"></rect><path class="cls-1" d="M79.55,26.79A10.17,10.17,0,1,1,69.38,37,10.18,10.18,0,0,1,79.55,26.79m0,25.42A15.26,15.26,0,1,0,64.3,37,15.26,15.26,0,0,0,79.55,52.21"></path><path class="cls-1" d="M21.07,138.66H46.5v15.25H21.07Zm25.43-5.09H21.08V87.81H46.5ZM77,153.91H64.3V126a2.54,2.54,0,0,1,2.54-2.54H77Zm5.09-30.5H92.27A2.54,2.54,0,0,1,94.81,126v28H82.1Zm25.42-40.69v71.19H99.89V126a7.63,7.63,0,0,0-7.62-7.63H66.84A7.64,7.64,0,0,0,59.21,126v28H51.58V82.72ZM138,133.57H112.61V87.81H138Zm0,20.34H112.61V138.66H138Zm5.08-71.19H112.6V77.64H46.5v5.08H16v71.19H10.91V159H148.2v-5.09h-5.09Z"></path><rect class="cls-1" x="56.67" y="87.81" width="5.08" height="5.08"></rect><rect class="cls-1" x="66.84" y="87.81" width="5.09" height="5.08"></rect><rect class="cls-1" x="77.01" y="87.81" width="5.09" height="5.08"></rect><rect class="cls-1" x="87.18" y="87.81" width="5.09" height="5.08"></rect><rect class="cls-1" x="97.35" y="87.81" width="5.09" height="5.08"></rect><rect class="cls-1" x="56.67" y="97.98" width="5.08" height="5.09"></rect><rect class="cls-1" x="66.84" y="97.98" width="5.09" height="5.09"></rect><rect class="cls-1" x="77.01" y="97.98" width="5.09" height="5.09"></rect><rect class="cls-1" x="87.18" y="97.98" width="5.09" height="5.09"></rect><rect class="cls-1" x="97.35" y="97.98" width="5.09" height="5.09"></rect><rect class="cls-1" x="56.67" y="108.15" width="5.08" height="5.08"></rect><rect class="cls-1" x="66.84" y="108.15" width="5.09" height="5.08"></rect><rect class="cls-1" x="77.01" y="108.15" width="5.09" height="5.08"></rect><rect class="cls-1" x="87.18" y="108.15" width="5.09" height="5.08"></rect><rect class="cls-1" x="97.35" y="108.15" width="5.09" height="5.08"></rect><rect class="cls-1" x="117.69" y="92.89" width="5.09" height="5.09"></rect><rect class="cls-1" x="127.86" y="92.89" width="5.08" height="5.09"></rect><rect class="cls-1" x="117.69" y="103.06" width="5.09" height="5.09"></rect><rect class="cls-1" x="127.86" y="103.06" width="5.08" height="5.09"></rect><rect class="cls-1" x="117.69" y="113.23" width="5.09" height="5.09"></rect><rect class="cls-1" x="127.86" y="113.23" width="5.08" height="5.09"></rect><rect class="cls-1" x="117.69" y="123.4" width="5.09" height="5.08"></rect><rect class="cls-1" x="127.86" y="123.4" width="5.08" height="5.08"></rect><rect class="cls-1" x="36.33" y="92.89" width="5.08" height="5.09"></rect><rect class="cls-1" x="26.16" y="92.89" width="5.09" height="5.09"></rect><rect class="cls-1" x="36.33" y="103.06" width="5.08" height="5.09"></rect><rect class="cls-1" x="26.16" y="103.06" width="5.09" height="5.09"></rect><rect class="cls-1" x="36.33" y="113.23" width="5.08" height="5.09"></rect><rect class="cls-1" x="26.16" y="113.23" width="5.09" height="5.09"></rect><rect class="cls-1" x="36.33" y="123.4" width="5.08" height="5.08"></rect><rect class="cls-1" x="26.16" y="123.4" width="5.09" height="5.08"></rect><rect class="cls-1" x="127.86" y="72.56" width="5.08" height="5.08"></rect><polygon class="cls-1" points="138.03 0 117.25 24.25 127.86 24.25 127.86 67.47 132.95 67.47 132.95 19.16 128.3 19.16 138.03 7.82 147.76 19.16 143.11 19.16 143.11 77.64 148.2 77.64 148.2 24.25 158.81 24.25 138.03 0"></polygon><rect class="cls-1" x="26.16" y="72.56" width="5.09" height="5.08"></rect><polygon class="cls-1" points="10.9 77.64 15.99 77.64 15.99 19.16 11.35 19.16 21.08 7.81 30.8 19.16 26.16 19.16 26.16 67.47 31.25 67.47 31.25 24.25 41.86 24.25 21.08 0 0.29 24.25 10.9 24.25 10.9 77.64"></polygon></svg>