<svg xmlns="http://www.w3.org/2000/svg" id="Layer_1" data-name="Layer 1" viewBox="0 0 159.1 159"><defs><style>.cls-1{fill:#fff;}</style></defs><path class="cls-1" d="M36.05,140.46a3.11,3.11,0,1,0,2.19.91,3.13,3.13,0,0,0-2.19-.91"></path><path class="cls-1" d="M36.05,114.77a3.11,3.11,0,0,0-3.11,3.11v13.46a3.11,3.11,0,1,0,6.21,0V117.88a3.1,3.1,0,0,0-3.1-3.11"></path><path class="cls-1" d="M53.45,114.77a3.11,3.11,0,0,0-3.11,3.11v25.68a3.11,3.11,0,1,0,6.21,0V117.88a3.1,3.1,0,0,0-3.1-3.11"></path><path class="cls-1" d="M70.85,114.77a3.11,3.11,0,0,0-3.11,3.11v25.68a3.11,3.11,0,1,0,6.22,0V117.88a3.11,3.11,0,0,0-3.11-3.11"></path><path class="cls-1" d="M88.25,114.77a3.1,3.1,0,0,0-3.1,3.11v25.68a3.11,3.11,0,1,0,6.21,0V117.88a3.11,3.11,0,0,0-3.11-3.11"></path><path class="cls-1" d="M105.65,114.77a3.1,3.1,0,0,0-3.1,3.11v25.68a3.11,3.11,0,1,0,6.21,0V117.88a3.11,3.11,0,0,0-3.11-3.11"></path><path class="cls-1" d="M123.06,114.77a3.1,3.1,0,0,0-2.2,5.3,3.11,3.11,0,0,0,4.4,0,3.11,3.11,0,0,0-2.2-5.3"></path><path class="cls-1" d="M123.06,127.2a3.11,3.11,0,0,0-3.11,3.11v13.26a3.11,3.11,0,0,0,6.21,0V130.31a3.1,3.1,0,0,0-3.1-3.11"></path><path class="cls-1" d="M48.48,84.78a3.11,3.11,0,0,0-3.11,3.11v6.42a3.11,3.11,0,1,0,6.21,0V87.89a3.1,3.1,0,0,0-3.1-3.11"></path><path class="cls-1" d="M60.91,84.78a3.11,3.11,0,0,0-3.11,3.11v6.42a3.11,3.11,0,1,0,6.21,0V87.89a3.1,3.1,0,0,0-3.1-3.11"></path><path class="cls-1" d="M73.34,84.78a3.11,3.11,0,0,0-3.11,3.11v6.42a3.11,3.11,0,1,0,6.21,0V87.89a3.1,3.1,0,0,0-3.1-3.11"></path><path class="cls-1" d="M85.77,84.78a3.11,3.11,0,0,0-3.11,3.11v6.42a3.11,3.11,0,1,0,6.21,0V87.89a3.1,3.1,0,0,0-3.1-3.11"></path><path class="cls-1" d="M98.2,84.78a3.11,3.11,0,0,0-3.11,3.11v6.42a3.11,3.11,0,1,0,6.21,0V87.89a3.1,3.1,0,0,0-3.1-3.11"></path><path class="cls-1" d="M110.63,84.78a3.11,3.11,0,0,0-3.11,3.11v6.42a3.11,3.11,0,1,0,6.21,0V87.89a3.1,3.1,0,0,0-3.1-3.11"></path><path class="cls-1" d="M152.89,152.79h-9.32v-36h9.32ZM21.75,113.63v-6.84h115.6v46H21.75ZM6.21,116.74h9.33v36H6.21ZM39.15,79.45H120v21.12H39.15Zm6.53-22.38h67.74V73.23H45.68Zm8-8.9a25.9,25.9,0,1,1,51.79,0v2.69H53.65ZM156,110.52H143.57v-6.83a3.11,3.11,0,0,0-3.11-3.11h-14.3V79.45h2.18a3.11,3.11,0,0,0,0-6.22h-8.7V57.06a3.11,3.11,0,0,0-.31-6.2h-7.67V48.17a32.16,32.16,0,0,0-29-32V3.11a3.11,3.11,0,0,0-6.22,0V16.2a32.16,32.16,0,0,0-29,32v2.69H39.77a3.11,3.11,0,0,0-.31,6.2V73.23h-8.7a3.11,3.11,0,0,0,0,6.22h2.18v21.13H18.65a3.12,3.12,0,0,0-3.12,3.11v6.83H3.11A3.11,3.11,0,0,0,0,113.63v42.26A3.11,3.11,0,0,0,3.11,159H156a3.1,3.1,0,0,0,3.1-3.11V113.63a3.1,3.1,0,0,0-3.1-3.11"></path></svg>