<svg xmlns="http://www.w3.org/2000/svg" id="Layer_1" data-name="Layer 1" viewBox="0 0 100 100"><defs><style>.cls-1{fill:#fff;}</style></defs><path class="cls-1" d="M44.52,76.75v-2c-.07-2.85.18-5.7-.16-8.55a6.5,6.5,0,0,0-2-3.88,7.59,7.59,0,0,0-4.1-2l-3-.46a18.81,18.81,0,0,1-11.09-5.3c-1.15-1.19-2.45-2.27-3.67-3.38a3.22,3.22,0,0,0-.7-.51A3.39,3.39,0,0,0,19,50.3a3.78,3.78,0,0,0-1.77-.06,3.58,3.58,0,0,0-.84.27,3.69,3.69,0,0,0-.74.46,3.3,3.3,0,0,0-1,1.36,2.94,2.94,0,0,0-.12,1.85,3.11,3.11,0,0,0,1.05,1.6l8.69,8a5.74,5.74,0,0,1,.73.75,1.62,1.62,0,0,1,.33,1.11,1.7,1.7,0,0,1-.48,1.07,2,2,0,0,1-1.14.56A2,2,0,0,1,22.44,67a4.63,4.63,0,0,1-.82-.64q-4.29-3.93-8.55-7.88A6.91,6.91,0,0,1,11.15,56a6.32,6.32,0,0,1-.55-3,6.43,6.43,0,0,1,.93-2.92,7,7,0,0,1,2.22-2.26,1,1,0,0,0,.39-.33.83.83,0,0,0,.15-.48c0-4.61.08-9.22,0-13.84a2.71,2.71,0,0,0-.11-.8,2.92,2.92,0,0,0-.32-.75,3.29,3.29,0,0,0-.52-.66,3.45,3.45,0,0,0-.68-.51,3.77,3.77,0,0,0-.8-.34,3.59,3.59,0,0,0-.87-.14,4.2,4.2,0,0,0-.87.06,4.12,4.12,0,0,0-.84.27,3.59,3.59,0,0,0-1.65,1.4,3.24,3.24,0,0,0-.45,2v22a18,18,0,0,0,.22,2.93A17.51,17.51,0,0,0,11.05,67a19.51,19.51,0,0,0,7.63,5.7c2.95,1.36,5.9,2.73,8.88,4.07a2.31,2.31,0,0,1,1.09.85A2,2,0,0,1,29,78.94c0,2.35,0,4.7,0,7,0,.75.27.94,1,.93,4.48,0,9,0,13.48,0,.89,0,1.06-.29,1.05-1C44.5,82.85,44.52,79.8,44.52,76.75ZM26.36,90.32a2.14,2.14,0,0,1-.92-.89,2,2,0,0,1-.25-1.21c0-2.55,0-5.09,0-7.64a1.22,1.22,0,0,0-.21-.82,1.44,1.44,0,0,0-.71-.52c-2.73-1.22-5.49-2.41-8.15-3.75a22.48,22.48,0,0,1-9.42-7.95A20,20,0,0,1,3.36,56.18c-.13-7.6,0-15.21,0-22.81a6.29,6.29,0,0,1,1.14-3.73,7.2,7.2,0,0,1,3.17-2.55,8,8,0,0,1,4.17-.53,7.69,7.69,0,0,1,3.8,1.66,6,6,0,0,1,1.82,2.13A5.5,5.5,0,0,1,18.05,33q0,6.33,0,12.67c0,.64.13.92.91,1a7.21,7.21,0,0,1,4.45,2.09c1.14,1.05,2.35,2,3.41,3.16A15.54,15.54,0,0,0,36,56.37c1,.17,2.11.27,3.15.45a11.78,11.78,0,0,1,5.18,2.28,10.56,10.56,0,0,1,3.3,4.33,9.49,9.49,0,0,1,.7,3.49c0,7.13,0,14.26,0,21.39a1.94,1.94,0,0,1-.26,1.17,2.27,2.27,0,0,1-.91.85Z"></path><path class="cls-1" d="M96.71,58.6a23.48,23.48,0,0,1-2.65,7.64,1.81,1.81,0,0,1-.61.77,2.1,2.1,0,0,1-.94.38,2.16,2.16,0,0,1-1-.09,1.87,1.87,0,0,1-.81-.57,1.58,1.58,0,0,1-.37-.87,1.66,1.66,0,0,1,.18-.92,30.62,30.62,0,0,0,1.63-3.72A17.31,17.31,0,0,0,93,55.84c0-7.39,0-14.77,0-22.14a3,3,0,0,0-.16-1.36,3.16,3.16,0,0,0-.73-1.18,3.54,3.54,0,0,0-1.2-.81,3.71,3.71,0,0,0-1.44-.3,3.56,3.56,0,0,0-1.45.27,3.4,3.4,0,0,0-1.22.78A3.32,3.32,0,0,0,86,32.26a3.17,3.17,0,0,0-.19,1.36c0,3.57,0,7.16,0,10.74a8.42,8.42,0,0,1,0,1.42A2.5,2.5,0,0,0,86,47.3a2.83,2.83,0,0,0,1.08,1.17,6.52,6.52,0,0,1,2.39,4.44,6.36,6.36,0,0,1-1.57,4.73c-1.39,1.56-3,2.89-4.58,4.32S80,65,78.37,66.54a2.37,2.37,0,0,1-.85.61,2.44,2.44,0,0,1-1.07.18,2,2,0,0,1-1-.36,1.75,1.75,0,0,1-.61-.77,1.52,1.52,0,0,1-.09-.94,1.71,1.71,0,0,1,.45-.86c.53-.54,1.1-1,1.66-1.55l7.66-7.07a3.17,3.17,0,0,0,.77-1.05,3,3,0,0,0,.21-1.88,3.19,3.19,0,0,0-1-1.67,3.84,3.84,0,0,0-1.14-.71,3.79,3.79,0,0,0-3.85.69c-1.34,1.22-2.73,2.4-4,3.69a18.75,18.75,0,0,1-10.67,5c-1,.18-2.09.32-3.14.48a7.56,7.56,0,0,0-4,1.91A7.29,7.29,0,0,0,56.46,64a6.59,6.59,0,0,0-.7,2,16.33,16.33,0,0,0-.19,2.42V85.92c0,.73.16,1,1,1,4.48,0,9,0,13.48,0,.79,0,1.06-.19,1.05-.94,0-2.38,0-4.76,0-7.13a1.84,1.84,0,0,1,.31-1.2,2.14,2.14,0,0,1,1-.8c2.13-1,4.23-2,6.35-2.92a2.09,2.09,0,0,1,1.62-.27,1.91,1.91,0,0,1,.75.35,1.75,1.75,0,0,1,.52.6c.51,1,.06,1.88-1.16,2.47-1.54.72-3.07,1.46-4.65,2.12a1.5,1.5,0,0,0-.81.6,1.26,1.26,0,0,0-.2.94c.05,2.49,0,5,0,7.47a2.09,2.09,0,0,1-.25,1.22,2.28,2.28,0,0,1-.93.89H53a2.32,2.32,0,0,1-.92-.89,2,2,0,0,1-.25-1.21c0-7,0-14,0-21.06a10,10,0,0,1,2.79-7,11.66,11.66,0,0,1,7.1-3.5A27.54,27.54,0,0,0,69,55a10.58,10.58,0,0,0,3.18-2.07c1.46-1.38,3-2.73,4.43-4.09a7.47,7.47,0,0,1,4.79-2.18c.7-.05.66-.44.66-.87,0-4.16,0-8.33,0-12.5a6,6,0,0,1,1.11-3.76,6.86,6.86,0,0,1,3.27-2.46,7.68,7.68,0,0,1,4.24-.53,7.35,7.35,0,0,1,3.8,1.79,7.16,7.16,0,0,1,2.22,3.59Z"></path><path class="cls-1" d="M50,26.46a7.67,7.67,0,0,0,5.07-2,6.52,6.52,0,0,0,2.15-4.66,6.16,6.16,0,0,0-.52-2.57,6.48,6.48,0,0,0-1.55-2.2,7.24,7.24,0,0,0-2.35-1.47,7.84,7.84,0,0,0-2.79-.52,7.76,7.76,0,0,0-2.79.52,7.28,7.28,0,0,0-2.36,1.47,6.48,6.48,0,0,0-1.55,2.2,6,6,0,0,0-.51,2.57A6.49,6.49,0,0,0,45,24.48,7.66,7.66,0,0,0,50,26.46ZM50,50H61.79c.75,0,1-.21,1-.91-.05-1.34,0-2.69,0-4a10.65,10.65,0,0,0-.28-2.45,11.18,11.18,0,0,0-2.16-4.45,12.57,12.57,0,0,0-4-3.26,13.6,13.6,0,0,0-13.7.64,11.64,11.64,0,0,0-4.93,6.89,34.67,34.67,0,0,0-.36,6.6c0,.75.24.95,1,.94L50,50Zm2.22-20.11a17.79,17.79,0,0,1,6.58,2.28,15.48,15.48,0,0,1,5.62,5.39,14,14,0,0,1,2.06,7.23c0,2.25,0,4.47,0,6.71a1.62,1.62,0,0,1-.07.79A1.76,1.76,0,0,1,66,53a2,2,0,0,1-.74.42,2.08,2.08,0,0,1-.86.07H35.71a1.93,1.93,0,0,1-.86-.07,2,2,0,0,1-.74-.42,1.8,1.8,0,0,1-.45-.68,1.67,1.67,0,0,1-.07-.8V44.86a14.36,14.36,0,0,1,3-8.67,16.38,16.38,0,0,1,7.87-5.5A17.21,17.21,0,0,1,47.26,30l.87-.16A12.06,12.06,0,0,1,44,28.29a10.84,10.84,0,0,1-3.16-2.94,9.46,9.46,0,0,1-1.64-3.7,9.2,9.2,0,0,1,.11-4,10.08,10.08,0,0,1,4.05-5.88,11.73,11.73,0,0,1,14.2.59A9.91,9.91,0,0,1,61,18.55a9.7,9.7,0,0,1-2,7.21,11.24,11.24,0,0,1-6.74,4.1Z"></path><path class="cls-1" d="M87,73.25a2,2,0,0,1-1-.3,1.71,1.71,0,0,1-.68-.78,1.54,1.54,0,0,1-.1-1,1.67,1.67,0,0,1,.51-.89,1.91,1.91,0,0,1,1-.46,2,2,0,0,1,1.09.1,1.89,1.89,0,0,1,.84.63,1.69,1.69,0,0,1,.31,1,1.41,1.41,0,0,1-.13.67,1.54,1.54,0,0,1-.41.57,1.89,1.89,0,0,1-.62.38A2,2,0,0,1,87,73.25Z"></path></svg>