<svg xmlns="http://www.w3.org/2000/svg" xmlns:xlink="http://www.w3.org/1999/xlink" id="Layer_1" data-name="Layer 1" viewBox="0 0 74.01 74.01"><defs><style>.cls-1{fill:url(#linear-gradient);}</style><linearGradient id="linear-gradient" x1="2.58" y1="25.41" x2="70.95" y2="64.43" gradientTransform="matrix(1, 0, 0, -1, 0, 75.01)" gradientUnits="userSpaceOnUse"><stop offset="0" stop-color="#31acd5"></stop><stop offset="1" stop-color="#a2d9d2"></stop></linearGradient></defs><path class="cls-1" d="M68.78,17.3a25.81,25.81,0,0,1-7.49,2.05A13.08,13.08,0,0,0,67,12.14a26.06,26.06,0,0,1-8.29,3.16,13,13,0,0,0-22.55,8.92,13.19,13.19,0,0,0,.34,3A37,37,0,0,1,9.65,13.57a13.07,13.07,0,0,0,4,17.41,13,13,0,0,1-5.91-1.64v.17A13,13,0,0,0,18.24,42.29a12.91,12.91,0,0,1-3.43.46,13.32,13.32,0,0,1-2.46-.23,13,13,0,0,0,12.18,9A26.13,26.13,0,0,1,8.34,57.16,26.63,26.63,0,0,1,5.23,57a36.89,36.89,0,0,0,20,5.86c24,0,37.09-19.87,37.09-37.1,0-.56,0-1.12,0-1.68A26.44,26.44,0,0,0,68.78,17.3Z"></path></svg>