<svg xmlns="http://www.w3.org/2000/svg" id="Layer_1" data-name="Layer 1" viewBox="0 0 100 100"><defs><style>.cls-1{fill:#fff;}</style></defs><path class="cls-1" d="M29.31,19.66c0-.68,0-1.37,0-2.05a5.43,5.43,0,0,0-6.49-5,5.43,5.43,0,0,0-2.7,1.41A5.3,5.3,0,0,0,19,15.73a5,5,0,0,0-.47,2q0,1.89,0,3.78A5.39,5.39,0,0,0,22.8,26.6a5.42,5.42,0,0,0,3.06-.25,5.45,5.45,0,0,0,3.46-4.73C29.34,21,29.31,20.3,29.31,19.66Zm26.16.17v-1.9a5.49,5.49,0,0,0-8.88-4.24,5.32,5.32,0,0,0-2,3.29,19.37,19.37,0,0,0-.09,4.69,5.29,5.29,0,0,0,1.51,3.41,5.55,5.55,0,0,0,7.21.57,5.33,5.33,0,0,0,2.09-3.35,17,17,0,0,0,.11-2.47ZM68.41,44.64V42.73a5.61,5.61,0,0,0-.41-2,5.44,5.44,0,0,0-10.42,1.2,20.78,20.78,0,0,0-.1,4.39A5.4,5.4,0,0,0,59,49.89,5.48,5.48,0,0,0,68.34,47a17.5,17.5,0,0,0,.08-2.4Zm-37-.49c0,1,0,1.69,0,2.37a5.41,5.41,0,0,0,1.5,3.37,5.51,5.51,0,0,0,3.31,1.64,5.4,5.4,0,0,0,6-4.24,17.4,17.4,0,0,0,0-5.39,5.36,5.36,0,0,0-1.76-3.21A5.46,5.46,0,0,0,37,37.33a5.6,5.6,0,0,0-5.46,4,12.33,12.33,0,0,0-.16,2.78ZM9.58,34.58a10.34,10.34,0,0,1,2.73-5.06A9.14,9.14,0,0,1,16.8,27c.65-.14.83-.27.36-.86a6.68,6.68,0,0,1-1.51-3.9A17.19,17.19,0,0,1,16.14,15a8.31,8.31,0,0,1,9.3-5.16A8.27,8.27,0,0,1,32.2,18a33.06,33.06,0,0,1-.08,4.56,7.6,7.6,0,0,1-1.61,3.79c-.29.37-.22.52.23.61a9.38,9.38,0,0,1,4.8,2.48,9.27,9.27,0,0,1,2.63,4.7c.12.48.44.51.8.62a7.94,7.94,0,0,1,6,6.48A17.87,17.87,0,0,1,44.94,48a8.24,8.24,0,0,1-4,5.42,8.32,8.32,0,0,1-4,1.06,47.3,47.3,0,0,0-6.3.15,5.46,5.46,0,0,0-1.92.69c-.36.19-.47.36-.06.67a8.29,8.29,0,0,1,3.54,7.55c0,.8,0,1.62,0,2.45a1.38,1.38,0,0,1,0,.57,1.46,1.46,0,0,1-.28.5,1.28,1.28,0,0,1-.45.34,1.18,1.18,0,0,1-.55.14,1.36,1.36,0,0,1-.57-.07,1.28,1.28,0,0,1-.49-.29,1.67,1.67,0,0,1-.33-.47,1.35,1.35,0,0,1-.1-.56c-.09-1.07-.05-2.15-.07-3.22a5.33,5.33,0,0,0-1.26-3.68,5.39,5.39,0,0,0-3.43-1.85,5.48,5.48,0,0,0-4.11,1.11,5.4,5.4,0,0,0-2,3.72c-.07,1.48-.07,3,0,4.48a5.33,5.33,0,0,0,5,4.83c1.69.05,3.37,0,5.05,0a9.68,9.68,0,0,1,8.1,4c.18.24.3.61.65.12a9.4,9.4,0,0,1,2.64-2.58,9.24,9.24,0,0,1,3.43-1.34,3,3,0,0,0,.36-.13,8.4,8.4,0,0,1-1.85-3.8,10.68,10.68,0,0,1-.16-1.25,23.67,23.67,0,0,1,.14-5.32,8.22,8.22,0,0,1,3.11-5,8.32,8.32,0,0,1,5.7-1.65,1.06,1.06,0,0,0,.5-.06,1,1,0,0,0,.42-.28A8.75,8.75,0,0,1,56,51.85c.54-.11.65-.25.27-.73a9.08,9.08,0,0,1-1.67-6.3c0-.66,0-1.31,0-2a8.2,8.2,0,0,1,1.58-4.92,8.34,8.34,0,0,1,4.22-3c1-.31,1-.32.59-1.22a6.43,6.43,0,0,0-6-4c-3.37-.1-6.74,0-10.1,0a6.66,6.66,0,0,0-3.17.86,1.46,1.46,0,0,1-.56.27,1.44,1.44,0,0,1-.62,0,1.35,1.35,0,0,1-.58-.24,1.54,1.54,0,0,1-.43-.45c-.43-.75-.14-1.52.8-2.08a12.06,12.06,0,0,1,3.35-1.19,11.17,11.17,0,0,1-2.07-8,9.14,9.14,0,0,1,2.26-6.53,7.89,7.89,0,0,1,4-2.46,8,8,0,0,1,4.71.26,7.81,7.81,0,0,1,3.9,2.59,7.74,7.74,0,0,1,1.71,4.34,23.22,23.22,0,0,1,0,5,7.92,7.92,0,0,1-1.52,4.07c-.4.54-.47.72.31.89a8.83,8.83,0,0,1,5.68,3.82A8.71,8.71,0,0,1,64.19,34a.83.83,0,0,0,.76.76A8.3,8.3,0,0,1,71.34,43a30,30,0,0,1-.1,4.24,8.34,8.34,0,0,1-8.17,7.21H58a6.64,6.64,0,0,0-3.18.8c-.4.22-.48.4,0,.7a8.6,8.6,0,0,1,3.6,7.55c0,.8,0,1.58,0,2.36,0,1-.65,1.66-1.53,1.63s-1.32-.64-1.35-1.7a25.3,25.3,0,0,0-.13-4.08,5.41,5.41,0,0,0-3.78-4.18,5.64,5.64,0,0,0-2.45-.16,5.49,5.49,0,0,0-3.91,2.76,5.52,5.52,0,0,0-.66,2.35,20.53,20.53,0,0,0,.12,4.7,5,5,0,0,0,.65,1.7,5.34,5.34,0,0,0,2.76,2.28,5.22,5.22,0,0,0,1.79.34c2.08,0,4.16-.13,6.23.12a9.11,9.11,0,0,1,6.43,3.71c.44.59.59.53,1,0A8.8,8.8,0,0,1,69,71.77c.69-.14.72-.32.3-.86a7.31,7.31,0,0,1-1.54-4.69,27.16,27.16,0,0,1,.14-5.1,8.29,8.29,0,0,1,2.91-4.84,8.33,8.33,0,0,1,10.65.13,8.26,8.26,0,0,1,2.8,4.9,26.38,26.38,0,0,1,.12,4.7,1.24,1.24,0,0,1-.08.57,1.37,1.37,0,0,1-.31.48,1.28,1.28,0,0,1-.48.31,1.19,1.19,0,0,1-.56.1A1.42,1.42,0,0,1,82,67a1.38,1.38,0,0,1-.4-1c0-1.09,0-2.2,0-3.3a5.43,5.43,0,0,0-5-5.42,5.39,5.39,0,0,0-3.59,1,5.33,5.33,0,0,0-2.07,3.07,14.6,14.6,0,0,0,0,6.31,5.2,5.2,0,0,0,5,3.85c2.13.06,4.26-.12,6.38.13a9.49,9.49,0,0,1,8.16,8.94c0,2.67,0,5.33,0,8a1.6,1.6,0,0,1-.16,1,1.56,1.56,0,0,1-.69.68H88.48a1.54,1.54,0,0,1-.86-1.63c0-2.36,0-4.72,0-7.07a6.53,6.53,0,0,0-.42-2.83,6.69,6.69,0,0,0-6.81-4.3H71.24a7.19,7.19,0,0,0-2,.27,6.71,6.71,0,0,0-3.59,2.56,6.59,6.59,0,0,0-1.22,4.23q0,3.58,0,7.14a1.59,1.59,0,0,1-.16,1,1.51,1.51,0,0,1-.69.68H62.44a1.52,1.52,0,0,1-.7-.67,1.63,1.63,0,0,1-.16-1q0-3.59,0-7.14a6.57,6.57,0,0,0-.43-2.78,6.75,6.75,0,0,0-1.54-2.36,6.76,6.76,0,0,0-5.19-1.91H45.23a7.53,7.53,0,0,0-2,.27,6.77,6.77,0,0,0-3.6,2.56,6.64,6.64,0,0,0-1.21,4.23q0,3.58,0,7.14a1.59,1.59,0,0,1-.16,1,1.49,1.49,0,0,1-.7.68H36.45a1.56,1.56,0,0,1-.69-.68,1.52,1.52,0,0,1-.17-1c0-2.79.17-5.58-.12-8.38a6.5,6.5,0,0,0-6.25-5.78q-5.23-.07-10.49,0A6.58,6.58,0,0,0,14.5,76.2a6.49,6.49,0,0,0-2,4.11c-.25,2.76-.07,5.55-.11,8.31a1.52,1.52,0,0,1-.17,1,1.56,1.56,0,0,1-.69.68c-.63,0-1.51.25-1.82-.07s-.08-1.2-.08-1.82v-9c.07-.2.14-.4.19-.6a9.41,9.41,0,0,1,7.15-7c.23-.06.47,0,.67-.29a8.92,8.92,0,0,1-1.7-3.15,8.8,8.8,0,0,1-.34-3.57c0-.68,0-1.36,0-2a8.25,8.25,0,0,1,2.68-6.07,8.28,8.28,0,0,1,2.92-1.74,8.41,8.41,0,0,1,3.38-.44,1.11,1.11,0,0,0,.54,0,1.23,1.23,0,0,0,.45-.3A8.9,8.9,0,0,1,30,51.8a5.62,5.62,0,0,0,.58-.19,8.61,8.61,0,0,1-2-4.91c-.11-1.15,0-2.31,0-3.46a8.31,8.31,0,0,1,6.17-8.47c.58-.18.61-.4.42-.89a6.54,6.54,0,0,0-2.38-3.06,6.69,6.69,0,0,0-3.69-1.21c-3.4,0-6.79-.05-10.18,0a6.54,6.54,0,0,0-6.41,6c-.25,2.72-.06,5.45-.1,8.17,0,.78-.16,1.44-1,1.68a1.41,1.41,0,0,1-1.05,0,1.39,1.39,0,0,1-.73-.74Z"></path><path class="cls-1" d="M81.52,20c0-1,0-1.7,0-2.37a5.43,5.43,0,0,0-10.83-.09c-.06,1.36,0,2.73,0,4.09a5.37,5.37,0,0,0,.38,1.81,5.18,5.18,0,0,0,1.67,2.2,5.32,5.32,0,0,0,2.55,1.08,5.5,5.5,0,0,0,3.77-.82,5.43,5.43,0,0,0,2.29-3.09A11.52,11.52,0,0,0,81.52,20ZM75.59,29.6c-1.49.07-3.52-.13-5.54.12a7.25,7.25,0,0,0-1.82.51,1.45,1.45,0,0,1-.57.17,1.48,1.48,0,0,1-.59-.08,1.34,1.34,0,0,1-.5-.3,1.48,1.48,0,0,1-.35-.48,1.66,1.66,0,0,1-.11-.58,1.58,1.58,0,0,1,.13-.57,1.51,1.51,0,0,1,.36-.47,1.44,1.44,0,0,1,.51-.29,8.19,8.19,0,0,1,2.1-.68c.4-.08.56-.19.24-.6a8,8,0,0,1-1.67-5.65A26.59,26.59,0,0,1,68,16.24a8.35,8.35,0,0,1,14.36-3.79A8.24,8.24,0,0,1,84.43,18a29,29,0,0,1-.1,4.47,7.85,7.85,0,0,1-1.52,3.74c-.34.45-.4.65.26.8a9.38,9.38,0,0,1,7.39,9.33V43.9a1.38,1.38,0,0,1-.2,1,1.46,1.46,0,0,1-.75.61,1.47,1.47,0,0,1-.69.07,1.39,1.39,0,0,1-.62-.27,1.41,1.41,0,0,1-.43-.54,1.44,1.44,0,0,1-.11-.68V37a11.44,11.44,0,0,0-.2-2.26,6.71,6.71,0,0,0-3.22-4.33,6.76,6.76,0,0,0-3.19-.85C79.38,29.57,77.75,29.6,75.59,29.6Z"></path></svg>