<svg xmlns="http://www.w3.org/2000/svg" id="Layer_1" data-name="Layer 1" viewBox="0 0 68 68"><defs><style>.cls-1{fill:#4d4d4f;}</style></defs><g id="Page-1"><g id="_019---Connections" data-name="019---Connections"><path id="Shape" class="cls-1" d="M57.43,8.74a9.78,9.78,0,0,0-3.34.58V5.44a4.42,4.42,0,0,0-4.46-4.39H18.37a4.42,4.42,0,0,0-4.46,4.39V9.32A10.12,10.12,0,0,0,2.47,12.74a9.78,9.78,0,0,0,0,11.78,10.12,10.12,0,0,0,11.44,3.42V62.56A4.42,4.42,0,0,0,18.37,67H49.61a4.42,4.42,0,0,0,4.46-4.39V27.94A10.19,10.19,0,0,0,64.8,25.38a9.8,9.8,0,0,0,1.87-10.7A10,10,0,0,0,57.43,8.74ZM42.58,3.26l-1.43,1.5a2.24,2.24,0,0,1-1.62.7h-11a2.3,2.3,0,0,1-1.63-.7l-1.43-1.5ZM16.15,5.44a2.22,2.22,0,0,1,2.24-2.2h4l2.87,3a4.49,4.49,0,0,0,3.25,1.39H39.53a4.51,4.51,0,0,0,3.26-1.39l2.85-3h4a2.22,2.22,0,0,1,2.24,2.2v5A9.77,9.77,0,0,0,48.53,23.2l-6.76,10a13.47,13.47,0,0,0-6.66-2.42V28.44a10,10,0,1,0-2.25,0v2.32a13.23,13.23,0,0,0-6.65,2.42l-6.76-10a9.77,9.77,0,0,0-3.33-12.79ZM27.3,52.65a6.54,6.54,0,0,1,3-5.47,6.77,6.77,0,0,0,7.36,0,6.54,6.54,0,0,1,3,5.47,11.19,11.19,0,0,1-13.38,0ZM34,46.08a4.39,4.39,0,1,1,4.46-4.38A4.42,4.42,0,0,1,34,46.08Zm8.7,4.68a8.71,8.71,0,0,0-3.35-5.11,6.51,6.51,0,0,0-.84-8.84,6.76,6.76,0,0,0-9,0,6.52,6.52,0,0,0-.84,8.84,8.71,8.71,0,0,0-3.35,5.11,10.86,10.86,0,0,1,1.1-14.93,11.28,11.28,0,0,1,15.21,0A10.87,10.87,0,0,1,42.7,50.76ZM40.33,23.1a6.47,6.47,0,0,0-2.54-3.29,4.37,4.37,0,0,0-.89-5.65,4.49,4.49,0,0,0-5.8,0,4.32,4.32,0,0,0-.89,5.65,6.58,6.58,0,0,0-2.54,3.29,7.6,7.6,0,0,1,1.11-10.22,7.92,7.92,0,0,1,10.44,0A7.6,7.6,0,0,1,40.33,23.1Zm-8.57-5.57A2.24,2.24,0,1,1,34,19.73a2.22,2.22,0,0,1-2.24-2.2Zm.11,3.83a4.31,4.31,0,0,0,4.26,0,4.34,4.34,0,0,1,2.3,3.58,7.87,7.87,0,0,1-8.88,0,4.4,4.4,0,0,1,2.32-3.58ZM2.76,18.62A7.7,7.7,0,0,1,8.13,11.3a7.87,7.87,0,0,1,8.74,2.77,7.59,7.59,0,0,1,0,9,6.47,6.47,0,0,0-2.54-3.29,4.37,4.37,0,0,0-.89-5.65,4.51,4.51,0,0,0-5.81,0,4.34,4.34,0,0,0-.89,5.65A6.62,6.62,0,0,0,4.24,23.1,7.48,7.48,0,0,1,2.76,18.62Zm5.57-1.09a2.24,2.24,0,1,1,2.24,2.2A2.22,2.22,0,0,1,8.33,17.53ZM6.12,24.94a4.38,4.38,0,0,1,2.3-3.58,4.31,4.31,0,0,0,4.26,0A4.37,4.37,0,0,1,15,24.94,7.85,7.85,0,0,1,6.12,24.94Zm43.51,39.8H18.37a2.21,2.21,0,0,1-2.23-2.2V60.83a4.4,4.4,0,0,0,2.23.61H49.61a4.51,4.51,0,0,0,2.24-.61v1.71A2.2,2.2,0,0,1,49.63,64.74Zm2.22-7.68a2.22,2.22,0,0,1-2.24,2.2H18.37a2.21,2.21,0,0,1-2.23-2.2V26.83a9.84,9.84,0,0,0,1.95-1.7l6.4,9.46a13,13,0,0,0,0,18.62,13.53,13.53,0,0,0,18.92,0,13,13,0,0,0,0-18.62l6.41-9.46a10.16,10.16,0,0,0,1.94,1.7V57.06ZM53,24.94a4.38,4.38,0,0,1,2.3-3.58,4.31,4.31,0,0,0,4.26,0,4.34,4.34,0,0,1,2.3,3.58A7.84,7.84,0,0,1,53,24.94Zm4.44-5.21a2.2,2.2,0,1,1,2.24-2.2A2.21,2.21,0,0,1,57.43,19.73Zm6.33,3.37a6.4,6.4,0,0,0-2.53-3.29,4.37,4.37,0,0,0-.89-5.65,4.51,4.51,0,0,0-5.81,0,4.34,4.34,0,0,0-.89,5.65A6.64,6.64,0,0,0,51.1,23.1a7.6,7.6,0,0,1,1.12-10.22,7.9,7.9,0,0,1,10.43,0A7.6,7.6,0,0,1,63.76,23.1Z"></path></g></g></svg>