<svg xmlns="http://www.w3.org/2000/svg" id="Layer_1" data-name="Layer 1" viewBox="0 0 300.88 244.74"><defs><style>.cls-1{fill:#f68723;}</style></defs><g id="owi3fn.tif"><path class="cls-1" d="M92.94,100.36a15,15,0,0,1,3.88-7.22,13.29,13.29,0,0,1,6.39-3.56c.93-.21,1.18-.38.52-1.24a9.68,9.68,0,0,1-2.16-5.57c-.17-3.5-.62-7,.7-10.44a11.82,11.82,0,0,1,22.86,4.32,48.76,48.76,0,0,1-.12,6.51,11,11,0,0,1-2.27,5.42c-.42.53-.3.74.31.88a13.34,13.34,0,0,1,10.58,10.28c.18.67.64.72,1.14.87,4.68,1.4,7.75,4.46,8.59,9.27a25.88,25.88,0,0,1-.08,9.61,11.75,11.75,0,0,1-11.38,9.25c-3,.06-6-.25-9,.21a8.37,8.37,0,0,0-2.73,1c-.5.28-.67.52-.09.95a11.91,11.91,0,0,1,5,10.8c-.06,1.16,0,2.32,0,3.48a2,2,0,0,1-1.89,2.21,2,2,0,0,1-2.12-2c-.12-1.52-.07-3.06-.09-4.6a7.63,7.63,0,0,0-6.68-7.9,7.76,7.76,0,0,0-8.76,6.9c-.1,2.13-.1,4.27,0,6.4a7.61,7.61,0,0,0,7.08,6.91c2.4.08,4.79,0,7.19,0a13.76,13.76,0,0,1,11.53,5.68c.26.34.42.88.93.17a13.67,13.67,0,0,1,8.64-5.61,3.72,3.72,0,0,0,.51-.17,11.94,11.94,0,0,1-2.63-5.45,15.05,15.05,0,0,1-.24-1.77,34.46,34.46,0,0,1,.2-7.6,11.78,11.78,0,0,1,12.53-9.58,1.57,1.57,0,0,0,1.31-.48A12.81,12.81,0,0,1,159,125c.77-.15.91-.36.38-1-2.07-2.66-2.54-5.76-2.38-9,.05-.93.05-1.87,0-2.8a11.8,11.8,0,0,1,8.27-11.36c1.38-.44,1.42-.46.84-1.74a9.12,9.12,0,0,0-8.53-5.75c-4.79-.13-9.59,0-14.38,0a9.37,9.37,0,0,0-4.51,1.23c-1.33.73-2.51.49-3.12-.58s-.2-2.18,1.13-3a17.39,17.39,0,0,1,4.75-1.71c-2.87-3.4-3-7.3-2.94-11.4,0-3.55.75-6.71,3.2-9.27a11.24,11.24,0,0,1,12.43-3.15,11.09,11.09,0,0,1,8,9.9,32.86,32.86,0,0,1,.06,7.15,11.53,11.53,0,0,1-2.15,5.82c-.58.77-.68,1,.43,1.28a13.45,13.45,0,0,1,10.12,9.93,1.27,1.27,0,0,0,1.08,1.08,11.87,11.87,0,0,1,9.09,11.77,42.3,42.3,0,0,1-.14,6.06,11.89,11.89,0,0,1-11.62,10.33c-2.4,0-4.8,0-7.19,0a9.71,9.71,0,0,0-4.53,1.16c-.59.32-.67.56-.06,1,3.67,2.66,5.19,6.35,5.11,10.79,0,1.13,0,2.25,0,3.37-.07,1.51-.93,2.38-2.19,2.32s-1.87-.9-1.92-2.42a35.36,35.36,0,0,0-.18-5.82,7.75,7.75,0,0,0-15.37,1.08,29.64,29.64,0,0,0,.16,6.72,7.67,7.67,0,0,0,7.4,6.19c3,.08,5.91-.18,8.86.17a13,13,0,0,1,9.15,5.31c.63.83.85.75,1.44,0a12.93,12.93,0,0,1,7.85-5.06c1-.2,1-.45.43-1.23a10.68,10.68,0,0,1-2.2-6.7c0-2.43-.25-4.88.2-7.29a11.84,11.84,0,0,1,23.3.28,39.7,39.7,0,0,1,.18,6.72,2,2,0,0,1-2.05,2.09,2.05,2.05,0,0,1-2-2.11c-.06-1.57,0-3.14,0-4.72a7.74,7.74,0,0,0-7.13-7.74,7.58,7.58,0,0,0-8.05,5.78,21,21,0,0,0,.05,9,7.41,7.41,0,0,0,7.12,5.51c3,.09,6.06-.17,9.09.18a13.57,13.57,0,0,1,11.62,12.78c0,3.82,0,7.64,0,11.46a2.45,2.45,0,0,1-1.21,2.35h-1.58a2.4,2.4,0,0,1-1.22-2.34c0-3.37.05-6.73,0-10.1-.08-6.33-4-10.19-10.3-10.19-4.34,0-8.68,0-13,0a10,10,0,0,0-2.88.4c-4.24,1.25-6.82,4.87-6.86,9.68,0,3.41,0,6.81,0,10.22a2.4,2.4,0,0,1-1.22,2.34h-1.57a2.4,2.4,0,0,1-1.22-2.34c0-3.41,0-6.81,0-10.22-.06-6.15-4-10.07-10.19-10.07-4.38,0-8.75,0-13.13,0a10,10,0,0,0-2.88.4c-4.24,1.25-6.82,4.87-6.86,9.68,0,3.41,0,6.81,0,10.22a2.4,2.4,0,0,1-1.22,2.34h-1.57a2.44,2.44,0,0,1-1.22-2.34c-.06-4,.24-8-.17-12a9.27,9.27,0,0,0-8.9-8.27q-7.45-.1-14.93,0A9.3,9.3,0,0,0,97,165.67c-.35,4-.09,7.93-.15,11.89a2.44,2.44,0,0,1-1.22,2.34c-.9,0-2.15.35-2.6-.1s-.1-1.69-.1-2.59V164.4c.09-.29.19-.57.27-.86a13.45,13.45,0,0,1,10.17-10c.31-.08.67,0,1-.4-2.45-2.74-3.07-6.06-2.92-9.6,0-1,0-1.95,0-2.92a11.87,11.87,0,0,1,12.79-11.79,1.67,1.67,0,0,0,1.4-.51,12.92,12.92,0,0,1,6.28-3.3c.28-.06.55-.18.84-.27-2.25-3.69-2.51-4.15-2.79-7-.16-1.63,0-3.29-.07-4.93a11.89,11.89,0,0,1,8.79-12.12c.82-.25.86-.57.6-1.27a9.48,9.48,0,0,0-8.65-6.11c-4.83-.05-9.66-.07-14.49,0A9.31,9.31,0,0,0,97,101.82c-.35,3.88-.09,7.78-.14,11.67,0,1.11-.23,2.05-1.39,2.4a2,2,0,0,1-2.53-1.15ZM124,114c0,1.44,0,2.41,0,3.38a7.75,7.75,0,0,0,6.85,7.16c4.19.32,7.82-2.23,8.47-6a24.92,24.92,0,0,0,.06-7.71,7.77,7.77,0,0,0-7.36-6.54,7.94,7.94,0,0,0-7.79,5.76A17.65,17.65,0,0,0,124,114Zm52.68.71c0-1.09,0-1.91,0-2.73a7.75,7.75,0,0,0-15.41-1.18,30.56,30.56,0,0,0-.14,6.27,7.78,7.78,0,0,0,15.44,1.07A21.64,21.64,0,0,0,176.69,114.74ZM158.25,79.28c0-1.06,0-1.88,0-2.7a7.81,7.81,0,0,0-7.39-7.72,7.68,7.68,0,0,0-8,6.36,28.42,28.42,0,0,0-.13,6.71,7.77,7.77,0,0,0,15.38.91A22.37,22.37,0,0,0,158.25,79.28ZM121,79c0-1,0-2,0-2.92a7.72,7.72,0,0,0-15.43.14c0,1.8,0,3.6,0,5.39a7.72,7.72,0,0,0,15.43.2C121.05,80.91,121,80,121,79Z"></path><path class="cls-1" d="M186.91,93.25c-2.13.1-5-.19-7.89.17a11.37,11.37,0,0,0-2.58.73,2,2,0,1,1-1.57-3.72,12,12,0,0,1,3-1c.57-.11.81-.27.36-.86a11.86,11.86,0,0,1-2.43-8.1c.1-2.12-.21-4.27.25-6.38a11.86,11.86,0,0,1,23.45,2.54,43.86,43.86,0,0,1-.14,6.38,11.5,11.5,0,0,1-2.16,5.35c-.49.64-.6.93.37,1.16a13.39,13.39,0,0,1,10.52,13.34c0,3.6,0,7.19,0,10.78a2,2,0,0,1-1.35,2.22,2,2,0,0,1-2.63-2c0-3.33,0-6.67,0-10a15.85,15.85,0,0,0-.3-3.23,9.47,9.47,0,0,0-9.15-7.39C192.29,93.22,190,93.25,186.91,93.25Zm8.43-13.77c0-1.44,0-2.41,0-3.39a7.7,7.7,0,0,0-7.71-7.25,7.6,7.6,0,0,0-7.7,7.11c-.09,2-.08,3.9,0,5.84a7.58,7.58,0,0,0,6.57,7.28,7.75,7.75,0,0,0,8.62-5.59A16.53,16.53,0,0,0,195.34,79.48Z"></path></g></svg>