<svg xmlns="http://www.w3.org/2000/svg" id="Layer_1" data-name="Layer 1" viewBox="0 0 68 68"><defs><style>.cls-1{fill:#4d4d4f;}</style></defs><g id="PkWQxk.tif"><path class="cls-1" d="M28.58,1.09H45.43c.35.36.68.74.44,1.3a1.2,1.2,0,0,1-1.27.67c-.24,0-.48,0-.71,0H30.66c-.34,0-.74-.08-.76.45s.37.5.72.5H55.35c.34,0,.74,0,.73-.48s-.4-.47-.74-.47c-1.4,0-2.79,0-4.18,0-.55,0-1-.13-1.24-.71a1,1,0,0,1,.52-1.26h7c.28.26.62.48.69.9a9.24,9.24,0,0,1,0,3.06.91.91,0,0,1-.6.78c-.75.18-.72.7-.72,1.29q0,19,0,38.07v.45c0,.44.14.56.53.3l1.82-1.22a3.92,3.92,0,0,1,3.18-.62,3.8,3.8,0,0,1,3,2.9,3.91,3.91,0,0,1-1.36,4.1L52,61.85a10.6,10.6,0,0,1-1.83,1.29,14.89,14.89,0,0,1-5.51,1.4c-5,.72-9.92,1.38-14.87,2.17a11.5,11.5,0,0,1-6.53-.63c-3.4-1.42-6.88-2.64-10.32-4-.46-.18-.69-.2-.83.4a3.34,3.34,0,0,1-3.4,2.67c-.66,0-1.33,0-2,0a3.68,3.68,0,0,1-4.08-2.62V59.49c.39-.36.78-.7,1.36-.43s.63.76.62,1.3,0,.82,0,1.22a1.46,1.46,0,0,0,1.56,1.59c.69,0,1.37,0,2.06,0,1.48,0,2-.47,2-2V41.27a4.91,4.91,0,0,0,0-.77,1.29,1.29,0,0,0-1.32-1.17c-1,0-1.93,0-2.89,0a1.23,1.23,0,0,0-1.23.94,2.77,2.77,0,0,0-.1.95c0,4.16,0,8.32,0,12.48,0,.55-.08,1-.65,1.28a1.1,1.1,0,0,1-1.33-.5V39.94a3.45,3.45,0,0,1,3.29-2.69,16.8,16.8,0,0,1,3.4.06A3.37,3.37,0,0,1,12.1,40c.24,1.1.24,1.1,1.39,1.1h.07c1.11,0,1.12,0,1.12-1.14,0-6.45,0-12.9,0-19.35,0-1.61.41-2.78,2.38-2.56.41.05.57-.19.56-.59s0-1,0-1.48a1.56,1.56,0,0,1,1.59-1.73q3.47-.06,6.94,0a1.51,1.51,0,0,1,1.61,1.57,14.25,14.25,0,0,1,.05,1.6c0,.76.54.62,1,.64s.78-.05.78-.64q0-5.37,0-10.74c0-.39-.12-.58-.54-.62a1.26,1.26,0,0,1-1.16-1.19,14.55,14.55,0,0,1-.05-2A2,2,0,0,1,28.58,1.09ZM12.16,51.42c0,2.5,0,5,0,7.52a.89.89,0,0,0,.67,1q6.29,2.36,12.56,4.75a4.4,4.4,0,0,0,2.09.27c1.27-.17,2.54-.37,3.81-.56,4.6-.66,9.19-1.38,13.8-2a10.82,10.82,0,0,0,6.42-2.88c2.64-2.53,5.43-4.91,8.16-7.37,1-.93,2.08-1.85,3.09-2.81a1.94,1.94,0,0,0-.94-3.31,2.23,2.23,0,0,0-1.8.5c-3.9,2.61-7.8,5.21-11.7,7.84a2.75,2.75,0,0,1-1.74.5c-2.8-.14-5.59-.44-8.38-.7l-10-1c-1.21-.12-2.43-.24-3.64-.39a.93.93,0,0,1-.86-1,1,1,0,0,1,1-1,4.35,4.35,0,0,1,.51,0l3.45.34,8.63.86c1.42.14,2.85.29,4.28.41.65.06.77-.1.58-.75A3.54,3.54,0,0,0,39.12,49c-2.58-.35-5.18-.66-7.78-.91a21.9,21.9,0,0,1-9.17-2.67,17.49,17.49,0,0,0-9.1-2.35c-.91,0-.91,0-.91,1Zm30.4-3a6.39,6.39,0,0,1,1.66,2.94c.29,1.29.31,1.23,1.63,1.4a2.69,2.69,0,0,0,2-.55c2-1.38,4-2.75,6.09-4.08a1.43,1.43,0,0,0,.73-1.36q0-19.91,0-39.81c0-1,0-1-1-1H32.56c-1,0-1,0-1,1v38c0,.19,0,.38,0,.58,0,.47.37.45.68.48s.38-.25.39-.51c0-.82,0-1.63,0-2.45,0-1.16.48-1.64,1.65-1.67,1,0,2,0,2.95,0,1.17,0,1.64.5,1.65,1.66s0,2.19,0,3.28c0,.48.32.54.69.57s.4-.3.4-.57c0-1.11,0-2.23,0-3.34s.48-1.55,1.53-1.59,2.19-.05,3.28,0A1.32,1.32,0,0,1,46.24,43c0,1.28,0,2.57,0,3.86,0,1.13-.46,1.58-1.61,1.59ZM16.76,30.65v9.71a3.43,3.43,0,0,0,0,.64c.08.41.44.43.76.44s.29-.3.29-.52c0-.38,0-.77,0-1.15,0-1.18.37-1.55,1.53-1.55,2.83,0,5.66,0,8.49,0,1.94,0,1.65.29,1.7-1.71,0-.58-.18-.79-.78-.79-2.16,0-4.33,0-6.49,0H19.4c-1.13,0-1.55-.44-1.55-1.56,0-.69,0-1.37,0-2.06,0-1.23.37-1.59,1.62-1.6,2.79,0,5.58,0,8.36,0,2,0,1.69.3,1.74-1.74,0-.56-.18-.76-.75-.75-1.63,0-3.25,0-4.88,0H19.31c-1,0-1.45-.45-1.46-1.45,0-.77,0-1.54,0-2.32,0-1,.43-1.41,1.4-1.44.66,0,1.33,0,2,0h7.4c.91,0,.91,0,.92-.88v-1c0-.82,0-.85-.83-.85H17.61c-.81,0-.84,0-.84.84Q16.76,25.76,16.76,30.65Zm8-4.65c1.37,0,2.74,0,4.11,0,.44,0,.75-.06.74-.62s-.31-.57-.72-.57q-4.14,0-8.28,0c-.42,0-.71.06-.71.58s.25.61.68.61C21.94,26,23.33,26,24.72,26Zm-2.09-8c.83,0,1.67,0,2.5,0,.4,0,.6-.17.58-.58,0-.24,0-.47,0-.71a.45.45,0,0,0-.51-.51q-2.53,0-5.07,0c-.34,0-.52.16-.51.51s0,.43,0,.64c0,.47.17.66.64.65C21,18,21.83,18,22.63,18Zm2.09,14.51H20.6c-.38,0-.74,0-.73.55s.33.57.73.57h8.23c.39,0,.73,0,.73-.56s-.34-.56-.73-.56Zm0,7.72H20.54c-.38,0-.68,0-.67.54s.28.56.67.56q4.17,0,8.35,0c.38,0,.67-.07.67-.56s-.28-.55-.67-.54Zm-1.66,3.18c.06.26.22.28.35.35a15,15,0,0,0,4.47,1.72c1.93.39,1.64.65,1.68-1.37,0-.55-.22-.71-.73-.7-1.35,0-2.69,0-4,0Zm13.83,1.63c0-1.6.27-1.5-1.59-1.49-.42,0-.63.17-.62.6s0,1,0,1.47.16.85.8.83C37.06,46.42,36.88,46.6,36.89,45.05Zm7.34,0c0-1.56.27-1.5-1.47-1.5-.46,0-.68.18-.67.65s0,1.07,0,1.6.18.66.65.66C44.43,46.44,44.21,46.59,44.23,45.05Z"></path><path class="cls-1" d="M46.24,12c0,.68,0,1.37,0,2.05a1.28,1.28,0,0,1-1.35,1.39c-1.15,0-2.31,0-3.47,0A1.28,1.28,0,0,1,40,14.09c0-1.45,0-2.91,0-4.36A1.18,1.18,0,0,1,41.3,8.45c1.22-.06,2.44-.07,3.66,0,.88.05,1.26.56,1.28,1.45a.62.62,0,0,1,0,.13V12Zm-2,0c0-1.53.33-1.51-1.55-1.48h-.07a.46.46,0,0,0-.51.52v1.86a.46.46,0,0,0,.46.51C44.06,13.6,44.23,13.47,44.23,12Z"></path><path class="cls-1" d="M46.24,23c0,.7,0,1.41,0,2.12a1.19,1.19,0,0,1-1.14,1.31,20.33,20.33,0,0,1-3.9,0,1.15,1.15,0,0,1-1.13-1.12,29.69,29.69,0,0,1,0-4.62,1.23,1.23,0,0,1,1.35-1.19c1.15,0,2.31,0,3.46,0a1.28,1.28,0,0,1,1.37,1.43C46.25,21.58,46.24,22.26,46.24,23Zm-2,0c0-1.59.26-1.45-1.58-1.45-.37,0-.55.17-.55.54v1.8c0,.37.18.52.55.56,1.5.15,1.58.08,1.58-1.39Z"></path><path class="cls-1" d="M53.59,22.94c0,.71,0,1.41,0,2.12a1.18,1.18,0,0,1-1.12,1.32,20.43,20.43,0,0,1-3.91,0,1.2,1.2,0,0,1-1.14-1.19,29.92,29.92,0,0,1,0-4.54,1.23,1.23,0,0,1,1.34-1.2c1.15,0,2.31,0,3.46,0a1.27,1.27,0,0,1,1.37,1.43c0,.68,0,1.37,0,2.05Zm-4.14-.08c0,.32,0,.64,0,1s0,.46.31.5a5.17,5.17,0,0,0,1.47,0,.38.38,0,0,0,.32-.42c0-.66,0-1.33,0-2a.43.43,0,0,0-.43-.45C49.65,21.23,49.44,21.4,49.45,22.86Z"></path><path class="cls-1" d="M53.59,11.93c0,.69,0,1.37,0,2.06a1.25,1.25,0,0,1-1.32,1.4c-1.18,0-2.36,0-3.53,0a1.22,1.22,0,0,1-1.31-1.22,29.26,29.26,0,0,1,0-4.49,1.2,1.2,0,0,1,1.3-1.24,35.82,35.82,0,0,1,3.59,0c.89.05,1.26.54,1.29,1.44v2Zm-4.15,0c0,1.57,0,1.57,1.56,1.46h.06c.35,0,.5-.19.5-.52V11c0-.3-.15-.45-.46-.5-1.42-.24-1.66-.05-1.66,1.36Z"></path><path class="cls-1" d="M53.59,45c0,.71,0,1.42,0,2.12a1.24,1.24,0,0,1-1.31,1.35c-1.18,0-2.36,0-3.53,0a1.23,1.23,0,0,1-1.32-1.22,29.92,29.92,0,0,1,0-4.54,1.18,1.18,0,0,1,1.15-1.17,19.71,19.71,0,0,1,3.84,0,1.2,1.2,0,0,1,1.17,1.35C53.6,43.58,53.59,44.29,53.59,45Zm-2,.08c0-1.61-.06-1.66-1.59-1.51-.37,0-.54.19-.54.56,0,.56,0,1.11,0,1.67s.2.67.69.67C51.73,46.44,51.56,46.59,51.57,45.07Z"></path><path class="cls-1" d="M38.91,11.93c0,.66,0,1.33,0,2a1.33,1.33,0,0,1-1.41,1.48c-1.13,0-2.27,0-3.4,0A1.33,1.33,0,0,1,32.67,14q0-2.06,0-4.11a1.34,1.34,0,0,1,1.45-1.45c1.11,0,2.23,0,3.34,0a1.37,1.37,0,0,1,1.45,1.52v2Zm-4.22,0c0,.3,0,.6,0,.9s.14.58.49.52c.57-.11,1.25.35,1.7-.33,0-.06,0-.16,0-.25,0-.56,0-1.11,0-1.67s-.2-.63-.65-.65C34.68,10.42,34.68,10.41,34.69,12Z"></path><path class="cls-1" d="M38.9,22.92c0,.69,0,1.37,0,2.06a1.28,1.28,0,0,1-1.32,1.43,35.82,35.82,0,0,1-3.59,0A1.26,1.26,0,0,1,32.68,25c0-1.41,0-2.83,0-4.24a1.29,1.29,0,0,1,1.41-1.34c1.13,0,2.27,0,3.4,0a1.34,1.34,0,0,1,1.42,1.47v2Zm-2,0c0-1.61.2-1.44-1.5-1.45h-.13c-.41,0-.58.17-.58.58s0,1.06,0,1.6.17.73.7.73C37.13,24.35,36.87,24.45,36.89,22.91Z"></path><path class="cls-1" d="M46.24,34c0,.68,0,1.37,0,2.06a1.22,1.22,0,0,1-1.32,1.33q-1.77,0-3.54,0a1.17,1.17,0,0,1-1.31-1.14,26.4,26.4,0,0,1,0-4.62,1.16,1.16,0,0,1,1.3-1.14q1.77,0,3.54,0a1.23,1.23,0,0,1,1.33,1.32C46.26,32.56,46.24,33.29,46.24,34Zm-2-.06c0-1.57.27-1.45-1.57-1.44-.37,0-.56.16-.56.54v1.79a.48.48,0,0,0,.55.55C44.51,35.41,44.2,35.52,44.23,34Z"></path><path class="cls-1" d="M53.59,34c0,.69,0,1.37,0,2.06a1.22,1.22,0,0,1-1.35,1.36c-1.15,0-2.31,0-3.47,0a1.2,1.2,0,0,1-1.35-1.24,29.78,29.78,0,0,1,0-4.43,1.22,1.22,0,0,1,1.35-1.24c1.16,0,2.32,0,3.47,0a1.23,1.23,0,0,1,1.35,1.37C53.6,32.58,53.59,33.28,53.59,34Zm-2-.08h0v-.84c0-.36-.16-.6-.53-.54-.52.09-1.16-.32-1.56.33a.23.23,0,0,0,0,.12v1.93c0,.3.15.45.47.49,1.5.2,1.65.08,1.65-1.43C51.56,34,51.57,33.93,51.57,33.91Z"></path><path class="cls-1" d="M38.91,34c0,.66,0,1.33,0,2a1.28,1.28,0,0,1-1.43,1.43c-1.12,0-2.23,0-3.35,0-.9,0-1.4-.42-1.43-1.29,0-1.44,0-2.88,0-4.31a1.25,1.25,0,0,1,1.43-1.31c1.12,0,2.23,0,3.35,0a1.29,1.29,0,0,1,1.44,1.43C38.92,32.61,38.91,33.3,38.91,34Zm-2,0c0-.32,0-.64,0-1,0-.52-.4-.54-.72-.47-.5.12-1.2-.42-1.47.44a1,1,0,0,0,0,.25c0,.49,0,1,0,1.48s.18.71.71.71C37.1,35.38,36.87,35.54,36.88,34Z"></path></g></svg>