<svg xmlns="http://www.w3.org/2000/svg" id="Layer_1" data-name="Layer 1" viewBox="0 0 68 68"><defs><style>.cls-1{fill:#4d4d4f;}</style></defs><g id="el4iFO.tif"><path class="cls-1" d="M52.64,65.87c-.93-.79-1-1.32-.28-2.34,2.88-4.08,5.74-8.18,8.68-12.22a11.45,11.45,0,0,0,2.26-7c0-5.95,0-11.9,0-17.85a3.75,3.75,0,0,0-.12-1.11,1.58,1.58,0,0,0-3,.11,4.67,4.67,0,0,0-.1,1.12c0,4.85,0,9.7,0,14.55a8.5,8.5,0,0,1-2.35,6c-1.89,2.07-3.82,4.09-5.74,6.13a3.6,3.6,0,0,1-.41.37,1.29,1.29,0,0,1-1.71-.06,1.27,1.27,0,0,1-.12-1.7,11.06,11.06,0,0,1,.9-1c1.63-1.74,3.27-3.48,4.91-5.2a2.24,2.24,0,0,0,.71-1.79,1.82,1.82,0,0,0-2.73-1.51,50.31,50.31,0,0,0-6.11,4.27,15.34,15.34,0,0,0-5,8.65q-1,4.47-1.87,8.94a2.47,2.47,0,0,1-.91,1.7h-1a1.41,1.41,0,0,1-.81-1.64C38.49,60.83,39.14,57.4,40,54a18.06,18.06,0,0,1,7.76-11l3.81-2.57a4.48,4.48,0,0,1,5.7,0,.42.42,0,0,0,.13,0c.18-.22.1-.47.1-.71V26a4.13,4.13,0,0,1,3.76-4.34,4.2,4.2,0,0,1,4.65,3.8c0,.64,0,1.29,0,1.93,0,5.87,0,11.73,0,17.6A11.91,11.91,0,0,1,63.72,52c-3.09,4.4-6.21,8.77-9.31,13.15a2.46,2.46,0,0,1-.77.7Z"></path><path class="cls-1" d="M28.37,65.87a2.49,2.49,0,0,1-.9-1.7c-.65-3.14-1.28-6.29-2-9.42A15.45,15.45,0,0,0,18.8,45.2c-1.3-.89-2.61-1.77-3.91-2.64a1.93,1.93,0,0,0-2.7.14,2.09,2.09,0,0,0,.21,2.86c1.87,2,3.75,4,5.62,6a1.41,1.41,0,0,1,.41,1.53,1.23,1.23,0,0,1-1,.81,1.29,1.29,0,0,1-1.17-.44c-2.2-2.34-4.5-4.59-6.55-7.07a7.63,7.63,0,0,1-1.75-4.94c0-5,0-9.91,0-14.87a5.21,5.21,0,0,0-.1-1.11,1.58,1.58,0,0,0-3.05-.1,3.14,3.14,0,0,0-.12.92V44.62a10.42,10.42,0,0,0,2,6.34c.61.83,1.2,1.68,1.8,2.53a1.57,1.57,0,0,1,.39,1.15,1.26,1.26,0,0,1-.94,1.12,1.2,1.2,0,0,1-1.38-.48c-1.92-2.62-4-5.18-4.42-8.57V24.81a4.77,4.77,0,0,1,1.93-2.59,4.08,4.08,0,0,1,4.31-.09,4,4,0,0,1,2.13,3.61c0,4.6,0,9.2,0,13.8,0,.17,0,.34,0,.5s-.06.32.08.41.25-.09.36-.16a4.48,4.48,0,0,1,2.68-.85,3.83,3.83,0,0,1,2.07.55,61,61,0,0,1,6.24,4.29A18.81,18.81,0,0,1,28.4,55.66c.53,2.76,1.14,5.51,1.72,8.26.22,1,.09,1.39-.75,2Z"></path><path class="cls-1" d="M14.31,65.87a2.13,2.13,0,0,1-.69-.61c-.6-.84-1.22-1.67-1.78-2.54a1.28,1.28,0,0,1,.35-1.81,1.35,1.35,0,0,1,1.78.35c.63.84,1.25,1.7,1.83,2.58s.34,1.33-.49,2Z"></path><path class="cls-1" d="M42.22,41.52c-1.2,0-2.4,0-3.6,0a1.39,1.39,0,0,1-1.43-.9,1.35,1.35,0,0,1,1.33-1.74c1.26-.14,1.26-.14,1.26-1.4,0-.39,0-.79,0-1.18a1.25,1.25,0,0,1,1.28-1.19,1.24,1.24,0,0,1,1.27,1.19c0,.66,0,1.33,0,2,0,.44.16.59.58.58,2.08,0,1.71.27,1.74-1.68a10.85,10.85,0,0,0-.09-2.48,5,5,0,0,0-3.93-4c-.88-.23-1.78-.41-2.66-.64-.42-.12-.63,0-.8.41-.58,1.4-1.22,2.77-1.81,4.16-.27.65-.62,1.22-1.4,1.22s-1.11-.54-1.38-1.17c-.6-1.41-1.24-2.8-1.84-4.22a.58.58,0,0,0-.8-.41c-1.1.3-2.22.52-3.31.87a4.86,4.86,0,0,0-3.35,4.49c0,1,0,1.9,0,2.86,0,.39.15.56.56.56,2.18,0,1.71.28,1.76-1.63,0-.29,0-.58,0-.87a1.28,1.28,0,0,1,2.56,0c0,.67,0,1.33,0,2,0,.37.13.53.51.52a2.72,2.72,0,0,1,1.1.11,1.23,1.23,0,0,1,.91,1.21,1.21,1.21,0,0,1-.87,1.23,2.36,2.36,0,0,1-.79.11H22.31c-1.2,0-1.68-.49-1.69-1.71s0-2.58,0-3.86c0-.5-.16-.65-.65-.64-1.57,0-3.15,0-4.73,0-1.09,0-1.58-.49-1.59-1.6a14,14,0,0,1,.15-3.23,5.87,5.87,0,0,1,4.57-4.57l1.64-.4c.36-.1.45-.3.13-.56A5.89,5.89,0,0,1,18,19.71a22.35,22.35,0,0,1,.12-3.17A5.61,5.61,0,0,1,26.78,13c.37.25.5.21.72-.18a7,7,0,0,1,6.48-4,7,7,0,0,1,6.5,4c.21.39.34.45.73.2a5.32,5.32,0,0,1,5.66-.35,5.37,5.37,0,0,1,3.07,4.9c0,1,0,2,0,3.05A5.46,5.46,0,0,1,48,24.77c-.16.14-.46.23-.4.5s.4.25.62.31c.68.2,1.37.34,2,.56a5.79,5.79,0,0,1,4,5.2c0,.85,0,1.7,0,2.55a1.32,1.32,0,0,1-1.46,1.42c-1.58,0-3.16,0-4.73,0-.59,0-.81.14-.79.76,0,1.28,0,2.57,0,3.86,0,1.08-.51,1.58-1.61,1.59ZM38.68,19.68c0-.27,0-.54,0-.81a.77.77,0,0,0-.45-.81c-.57-.3-1.12-.63-1.67-1a.49.49,0,0,0-.66,0,7.91,7.91,0,0,1-5.37,1.78c-1.36,0-1.29-.28-1.24,1.31a4.7,4.7,0,0,0,6.42,4.32C37.62,23.8,38.68,22.07,38.68,19.68Zm2.59,8.41c.07.06.09.1.13.11a7.77,7.77,0,0,1,5.18,4.22.49.49,0,0,0,.49.31h4.1c.31,0,.44-.13.47-.44A3.36,3.36,0,0,0,49,28.47c-.9-.23-1.81-.44-2.72-.65A1.43,1.43,0,0,1,45,26.53c-.07-.64-.58-.27-.89-.36s-.37.12-.4.38a1.35,1.35,0,0,1-1.1,1.2Zm-14.51,0-1.36-.35a1.36,1.36,0,0,1-1.14-1.22c0-.27-.1-.46-.42-.38s-.8-.24-.86.39c-.08.79-.61,1.12-1.32,1.28s-1.69.39-2.54.6a3.35,3.35,0,0,0-2.81,3.74c0,.44.18.57.6.57,1.24,0,2.49,0,3.73,0a.82.82,0,0,0,.85-.54,7.45,7.45,0,0,1,3.77-3.55C25.71,28.46,26.19,28.32,26.76,28.11Zm11.76-13a4.58,4.58,0,0,0-5.25-3.6,4.68,4.68,0,0,0-4,4.37c0,.29.1.4.39.42a6.16,6.16,0,0,0,5.16-1.77,1.4,1.4,0,0,1,2-.3A10.31,10.31,0,0,0,38.52,15.12Zm2.82,5.16a4.34,4.34,0,0,0,.09,1A3,3,0,0,0,47.28,21c.18-1,.17-1-.85-1a13.18,13.18,0,0,1-4.1-.5C41.34,19.2,41.34,19.2,41.34,20.28Zm-14.72,0V20c0-.84,0-.84-.83-.58a12.39,12.39,0,0,1-3.92.55c-1.31,0-1.5.27-1.05,1.53a2.77,2.77,0,0,0,.4.76,3,3,0,0,0,3.31,1.09A3,3,0,0,0,26.62,20.28Zm19.09-2.94c.33,0,.66,0,1,0s.65-.18.48-.65a3,3,0,0,0-5.28-.81c-.25.33-.28.55.18.74A9,9,0,0,0,45.71,17.34Zm-23.44,0A8.61,8.61,0,0,0,26,16.58c.36-.15.38-.32.17-.6a3,3,0,0,0-2.9-1.31,3,3,0,0,0-2.46,2.11c-.1.37,0,.56.39.56ZM33.89,31.13h.17c.38-.85.76-1.7,1.12-2.55a2.51,2.51,0,0,0,.15-.6c.05-.37,0-.58-.5-.53a13.34,13.34,0,0,1-1.55,0c-.67,0-.85.14-.61.78C33,29.22,33.48,30.17,33.89,31.13Zm4.41-5,2.28-.58c.53-.14.56-.3.16-.69-.1-.1-.22-.18-.31-.29-.23-.29-.4-.26-.61,0A9.09,9.09,0,0,1,38.3,26.11Zm-8.88-.06c-.31-.35-.66-.74-1-1.15-.57-.65-.57-.65-1.22,0-.37.36-.34.53.15.66C28.07,25.72,28.81,25.89,29.42,26.05Z"></path><path class="cls-1" d="M29.78,7a1.26,1.26,0,0,1-1.9,1.23A5.71,5.71,0,0,1,26.1,6.42a1.16,1.16,0,0,1,.17-1.49,1.09,1.09,0,0,1,1.34-.34,5.37,5.37,0,0,1,2.1,2.05A.84.84,0,0,1,29.78,7Z"></path><path class="cls-1" d="M42,5.82c0,.85-1.72,2.6-2.57,2.59a1.24,1.24,0,0,1-1.12-.66,1.18,1.18,0,0,1,0-1.3A6.15,6.15,0,0,1,40,4.75,1.26,1.26,0,0,1,42,5.82Z"></path><path class="cls-1" d="M35.25,4.31a10.28,10.28,0,0,1,0,1.11,1.27,1.27,0,0,1-2.53,0,19.82,19.82,0,0,1,0-2.18A1.22,1.22,0,0,1,34,2.13a1.25,1.25,0,0,1,1.27,1.12A9.35,9.35,0,0,1,35.25,4.31Z"></path><path class="cls-1" d="M32.7,40.15a1.28,1.28,0,1,1,2.55.1,1.28,1.28,0,1,1-2.55-.1Z"></path><path class="cls-1" d="M10.32,57.05a1.34,1.34,0,0,1,1.29,1.33,1.31,1.31,0,0,1-1.32,1.29,1.28,1.28,0,0,1-1.24-1.35A1.3,1.3,0,0,1,10.32,57.05Z"></path></g></svg>