<svg xmlns="http://www.w3.org/2000/svg" id="Layer_1" data-name="Layer 1" viewBox="0 0 68 68"><defs><style>.cls-1{fill:#4d4d4f;}</style></defs><g id="V2UcDA.tif"><path class="cls-1" d="M66.83,17.11a2.45,2.45,0,0,1-2.09,1.47c-.36,0-.71.15-1.07.21-1.2.22-1.56,1.05-.9,2.05.31.46.63.92.92,1.39a2,2,0,0,1-.22,2.54,20.34,20.34,0,0,1-1.54,1.54,2,2,0,0,1-2.54.2L59,26.23c-.91-.61-.91-.61-1.77,0a2.7,2.7,0,0,1-1,.4,12.08,12.08,0,0,1-1.63.33,1.94,1.94,0,0,0-2,1.6,1,1,0,0,0,.1.94c.51.71,1,1.44,1.47,2.18a2.24,2.24,0,0,1-.29,3c-.55.59-1.13,1.16-1.72,1.72a2.24,2.24,0,0,1-3,.28c-.7-.45-1.4-.91-2.07-1.39a1.21,1.21,0,0,0-1.18-.13A1.85,1.85,0,0,0,44.45,37a15.27,15.27,0,0,1-.38,1.88,2.1,2.1,0,0,1-1.9,1.73,12.15,12.15,0,0,1-3.13,0,2.15,2.15,0,0,1-1.94-1.76c-.21-.87-.38-1.75-.54-2.64a1.1,1.1,0,0,0-.67-.82,1.92,1.92,0,0,0-2.48.3,10.14,10.14,0,0,1-1.54,1,2.15,2.15,0,0,1-2.72-.27,24.92,24.92,0,0,1-2-2A2.12,2.12,0,0,1,27,31.74c.47-.75,1-1.5,1.49-2.23a1.06,1.06,0,0,0,.1-1A1.9,1.9,0,0,0,26.63,27,10.21,10.21,0,0,1,25,26.63a2.31,2.31,0,0,1-2-2.32c0-.81,0-1.63,0-2.44a2.33,2.33,0,0,1,2-2.34c.82-.17,1.63-.34,2.45-.48a1,1,0,0,0,.74-.59A1.92,1.92,0,0,0,28,15.93a9.4,9.4,0,0,1-1-1.43,2.2,2.2,0,0,1,.3-3c.56-.59,1.13-1.16,1.72-1.72A2.23,2.23,0,0,1,32,9.5c.77.49,1.53,1,2.28,1.54a.88.88,0,0,0,.82.08,2,2,0,0,0,1.67-2.07,8.88,8.88,0,0,1,.34-1.69A2.22,2.22,0,0,1,39.4,5.54c.4,0,.81,0,1.21,0a2.88,2.88,0,0,0,2.73-1,1.81,1.81,0,0,1,2.46-.22c.57.34,1.1.73,1.66,1.09a1.18,1.18,0,0,0,1.74-.72c.13-.58.21-1.18.34-1.76a2.06,2.06,0,0,1,2.22-1.78q.93,0,1.86,0a1.93,1.93,0,0,1,2,1.55c.16.62.26,1.26.39,1.88a1.17,1.17,0,0,0,1.84.78c.5-.33,1-.67,1.5-1A2,2,0,0,1,62,4.66c.48.45,1,.92,1.4,1.4a2,2,0,0,1,.25,2.59c-.33.54-.71,1.06-1,1.6A1.17,1.17,0,0,0,63.37,12c.5.12,1,.23,1.51.3a2.37,2.37,0,0,1,2,1.46Zm-36-5.56c-.24,0-.35.13-.47.24-.33.33-.65.69-1,1a.55.55,0,0,0-.09.87c.61.87,1.19,1.77,1.78,2.65a1.24,1.24,0,0,1,.12,1.39,12.74,12.74,0,0,0-1,2.53,1.22,1.22,0,0,1-1,.89l-2,.39c-1.88.36-1.87.36-1.8,2.28,0,.4.14.57.53.64,1,.19,2.05.42,3.08.62a1.4,1.4,0,0,1,1.2,1.08,9.13,9.13,0,0,0,.91,2.19A1.41,1.41,0,0,1,31,30c-.35.48-.67,1-1,1.48C28.9,33,28.91,33,30.29,34.34a.6.6,0,0,0,.89.07c.84-.59,1.71-1.13,2.55-1.72a1.38,1.38,0,0,1,1.61-.1,10,10,0,0,0,2.24.94,1.36,1.36,0,0,1,1.05,1.16c.14.73.28,1.46.44,2.19.39,1.76,0,1.42,1.73,1.46.13,0,.26,0,.38,0,.47.06.69-.14.77-.62.18-1,.42-2.09.63-3.14a1.2,1.2,0,0,1,.87-1,13.11,13.11,0,0,0,2.48-1,1.27,1.27,0,0,1,1.44.1c.53.36,1.06.72,1.6,1.06s1,.95,1.51.89.88-.81,1.36-1.2.31-.57.06-.92c-.57-.82-1.1-1.67-1.68-2.5a1.41,1.41,0,0,1-.11-1.67,9,9,0,0,0,.9-2.18A1.42,1.42,0,0,1,52.27,25c.61-.11,1.22-.24,1.82-.37,1.76-.35,1.75-.35,1.72-2.16,0-.46-.14-.7-.63-.78-1-.16-2-.4-3-.58A1.42,1.42,0,0,1,51,20.06a10.19,10.19,0,0,0-.93-2.24,1.34,1.34,0,0,1,.09-1.56l1-1.54c1.05-1.56,1-1.55-.34-2.88a.57.57,0,0,0-.87-.08c-.86.6-1.74,1.17-2.61,1.75a1.29,1.29,0,0,1-1.44.13,12.5,12.5,0,0,0-2.42-1,1.31,1.31,0,0,1-1-1.08c-.12-.63-.24-1.26-.38-1.88-.48-2.11.06-1.73-2.19-1.8-.52,0-.71.21-.8.69-.16.94-.37,1.88-.54,2.82a1.48,1.48,0,0,1-1.15,1.3,9.06,9.06,0,0,0-2.18.91,1.35,1.35,0,0,1-1.56-.08c-.84-.59-1.7-1.15-2.55-1.72ZM52.72,8.76l.7.09a6.34,6.34,0,0,1,5.46,4.07,6.32,6.32,0,0,1-1.12,6.82c-.22.27-.32.44,0,.74a1.58,1.58,0,0,1,.43,1.25,1.63,1.63,0,0,0,1.07,1.86,3.18,3.18,0,0,1,.43.28c1,.62.7.73,1.66-.18.31-.29.28-.5.05-.81-.44-.63-.86-1.27-1.28-1.91A1.22,1.22,0,0,1,60,19.58a8.54,8.54,0,0,0,.76-1.82,1.3,1.3,0,0,1,1.07-1c.72-.14,1.42-.34,2.14-.42s.64-.46.65-.94-.07-.84-.68-.92-1.37-.28-2.07-.4a1.32,1.32,0,0,1-1.12-1A6.94,6.94,0,0,0,60,11.39a1.35,1.35,0,0,1,.1-1.61c.42-.61.83-1.24,1.26-1.85.19-.28.2-.49-.08-.71a3.19,3.19,0,0,1-.45-.45c-.25-.33-.49-.3-.81-.07-.6.44-1.23.84-1.85,1.26a1.29,1.29,0,0,1-1.5.08A7.55,7.55,0,0,0,55,7.3a1.27,1.27,0,0,1-1-1.06c-.14-.76-.35-1.5-.45-2.26s-.5-.53-.9-.53-.81-.08-.9.53-.29,1.46-.44,2.2a1.32,1.32,0,0,1-1,1.12A7.63,7.63,0,0,0,48.51,8,1.29,1.29,0,0,1,47,8c-.6-.42-1.2-.82-1.81-1.21-.2-.13-.39-.41-.67-.14s-.53.41-.43.85c.21.87.36,1.75.55,2.63,0,.2.05.43.28.54.89.38,1.77,1,2.65,0,.16-.19.44-.27.63-.44C49.52,9,51.21,9.06,52.72,8.76Zm1,2.54c1.09,1.64,1.09,2.17,0,3.75a9.91,9.91,0,0,1-.68,1,1.71,1.71,0,0,0-.27,2.22,1.77,1.77,0,0,0,2.27.73A4.31,4.31,0,0,0,57,14.83,4.22,4.22,0,0,0,53.76,11.3Z"></path><path class="cls-1" d="M26.73,66.83a2.14,2.14,0,0,1-.79-1.35,16,16,0,0,0-2.89-5.74l-.34-.38a1.57,1.57,0,0,0-2-.46,64.5,64.5,0,0,1-8,2.39A4.08,4.08,0,0,1,8,59.06a6.39,6.39,0,0,1-.51-4.3c0-.23.1-.46.14-.69a1.25,1.25,0,0,0-.74-1.53,6.05,6.05,0,0,1-.55-.32,1.82,1.82,0,0,1-.94-2.43c.12-.38.11-.64-.24-.87-1.38-.94-1.3-1.76-.59-3.07a11,11,0,0,0,.56-1.08c.34-.82.2-1.19-.56-1.63-.56-.32-1.13-.6-1.68-.94C1,41,.65,39.54,1.93,37.76s2.6-3.49,3.7-5.37c.63-1.07,1.19-2.18,1.76-3.28A.85.85,0,0,0,7.21,28c-.26-.25-.54-.48-.8-.73-1-1-1.76-2.21-1.13-3.61,1.29-2.86,1.86-5.94,3-8.85A17.61,17.61,0,0,1,20.66,3.38a71.92,71.92,0,0,1,12-2.09c1.47-.13,2.94-.1,4.41-.1a2.76,2.76,0,0,1,1.07.17,1.06,1.06,0,0,1,.72,1.16,1.1,1.1,0,0,1-1,1,1.6,1.6,0,0,1-.38,0A53.2,53.2,0,0,0,23.64,5.05,22,22,0,0,0,17.2,7.31c-3.52,2-5.59,5.12-7,8.79a23.19,23.19,0,0,0-.91,3.26,23.61,23.61,0,0,1-1.59,4.25c-.48,1.14-.45,1.21.44,2.05.26.25.54.48.79.75a3.08,3.08,0,0,1,.54,3.66,45.48,45.48,0,0,1-5.31,8.52c-.88,1.14-.85,1.23.4,1.95.48.27,1,.51,1.45.81a3.12,3.12,0,0,1,1.41,3.72,4.77,4.77,0,0,1-.64,1.46c-.29.42-.19.68.21.92a5.61,5.61,0,0,1,.62.47A1.19,1.19,0,0,1,8,49.8c-.23.35-.27.54.16.78a3.37,3.37,0,0,1,1.75,4,5.18,5.18,0,0,0,.07,3.14A1.88,1.88,0,0,0,12.26,59,121,121,0,0,0,24.9,55a27.65,27.65,0,0,0,3.83-1.45,8.4,8.4,0,0,0,1.71-1.12,2.69,2.69,0,0,0,1-1.86c.07-.85.61-1.35,1.29-1.28a1.22,1.22,0,0,1,1,1.49,4.92,4.92,0,0,1-1.88,3.45,14.51,14.51,0,0,1-4.81,2.49c-.76.26-1.53.53-2.3.78-.4.12-.4.28-.15.57a16.58,16.58,0,0,1,3.3,6c.16.52.5.5.9.49,5.89-.16,11.78-.06,17.68-.1,1.83,0,3.67,0,5.51,0,.54,0,.62-.09.33-.59a25,25,0,0,1-2.87-8.57,28.58,28.58,0,0,1-.5-4.13,20.51,20.51,0,0,1,4.31-13.5c.9-1.2,1.82-2.38,2.6-3.65A14.75,14.75,0,0,0,57.7,29.9l.06-.25a1.17,1.17,0,1,1,2.25.61,18.84,18.84,0,0,1-3.35,6.86c-.92,1.25-1.89,2.47-2.71,3.8a18.09,18.09,0,0,0-2.41,12.31,29.74,29.74,0,0,0,2,8,12.22,12.22,0,0,0,1.21,2.18,8.88,8.88,0,0,1,.83,1.51c.4,1,.24,1.43-.7,1.93Z"></path><path class="cls-1" d="M25.72,8.14A1.22,1.22,0,0,1,24.63,9.3c-1.05.25-2.11.52-3.14.85-3.71,1.2-5.86,3.9-7.14,7.42-.3.82-.49,1.68-.71,2.53-.1.37-.25.52-.67.42-2-.48-1.8-.14-1.33-2.07a17.85,17.85,0,0,1,2-4.88,13.31,13.31,0,0,1,8.59-6.1C23,7.3,23.63,7.13,24.32,7A1.17,1.17,0,0,1,25.72,8.14Z"></path><path class="cls-1" d="M12.23,24.16a1.16,1.16,0,1,1-2.32,0A1.2,1.2,0,0,1,11.06,23,1.22,1.22,0,0,1,12.23,24.16Z"></path><path class="cls-1" d="M40.56,15.39A7.65,7.65,0,0,1,48.3,23a7.73,7.73,0,1,1-7.74-7.64ZM46,23.09a5.35,5.35,0,0,0-5.4-5.41,5.42,5.42,0,0,0-5.34,5.37,5.37,5.37,0,1,0,10.74,0Z"></path><path class="cls-1" d="M40.61,24.23a1.15,1.15,0,0,1-1.18-1.1A1.17,1.17,0,0,1,40.6,22a1.14,1.14,0,0,1,0,2.28Z"></path></g></svg>