<svg xmlns="http://www.w3.org/2000/svg" id="Layer_1" data-name="Layer 1" viewBox="0 0 68 68"><defs><style>.cls-1{fill:#4d4d4f;}</style></defs><g id="tfEwyp.tif"><path class="cls-1" d="M6,67.93c-.22-2-.22-2,1.79-2,.69,0,1.38,0,2.06,0s.83-.22.76-.8c0-.22,0-.44,0-.67V11.12c0-1.1,0-1.1,1.08-1.1,1.69,0,1.69,0,1.69-1.67,0-1.21,0-2.43,0-3.64,0-.49.19-.65.66-.67,1.43,0,1.43-.07,1.43,1.35s0,2.65,0,4c0,.49.16.67.65.66,1.79,0,1.53.15,1.54-1.5,0-2.47,0-4.94,0-7.42,0-.91,0-.92.92-.93,1.25,0,1.25,0,1.25,1.26,0,2.58,0,5.16,0,7.75,0,.68.22.86.88.85,4.12,0,8.25,0,12.38,0,1,0,1,0,1,1.08V67.2c0,.25,0,.49,0,.73Zm6.78-28.88V65c0,.88,0,.89.87.89H31c.95,0,.95,0,.95-.94V13.1c0-.92,0-.92-.9-.92H13.72c-1,0-1,0-1,1Z"></path><path class="cls-1" d="M35.64,67.93c-.22-2-.22-2,1.79-2,4.64,0,9.27,0,13.91,0,.63,0,.82-.17.82-.81q0-16.8,0-33.6a1.05,1.05,0,0,0-.7-1.1C46.3,27.94,41.16,25.44,36,23c-.88-.43-.87-.43-.48-1.3.57-1.25.43-1.08,1.54-.54,1.65.79,1.65.8,2.93-.49a8.91,8.91,0,0,0,2-2.12c.41-.86.11-2,.12-3,0-1.67,0-3.35,0-5,0-.58.14-.85.78-.82,1.49,0,1.39-.17,1.39,1.39s0,3,0,4.44c0,.21,0,.42,0,.79a32.33,32.33,0,0,1,2.44-2.41A4,4,0,0,0,48.38,10c-.11-.85,0-1.72,0-2.58,0-.55.21-.74.75-.73,1.64,0,1.4-.11,1.42,1.43V9.93l.21.15a6.51,6.51,0,0,1,.55-.72C52.58,8,53.9,6.74,55.2,5.41c.34-.34.59-.35.93,0,1.25,1.3,1.16.88,0,2.07-.56.59-1.14,1.17-1.72,1.75,0,0,0,.08-.07.16a3.45,3.45,0,0,0,1.53.09c.64,0,.86.23.85.86,0,1.52,0,1.3-1.28,1.31h-3a.94.94,0,0,0-.73.24l-3.69,3.7-.32.34c.15.25.37.15.54.15,1.37,0,2.74,0,4.11,0,.55,0,.8.16.78.75,0,1.59.13,1.43-1.42,1.43-1.88,0-3.75,0-5.63,0a1.52,1.52,0,0,0-1.23.49c-1.18,1.22-2.38,2.43-3.6,3.61-.42.4-.45.6.12.87,4.05,1.92,8.07,3.89,12.12,5.81a1.09,1.09,0,0,1,.72,1.16q0,17.36,0,34.72c0,1,0,1,1,1s2,0,3,0c.48,0,.69.17.67.65s0,.93,0,1.39Z"></path><path class="cls-1" d="M62.13.21c-.38,2.31-.72,4.62-1.16,6.91a67.58,67.58,0,0,1-3.44,12.49,11.05,11.05,0,0,1-6.82,6.67c-.6.21-.86.07-1-.52a1.8,1.8,0,0,0,0-.19c-.3-1.05-.3-1,.74-1.47a8.81,8.81,0,0,0,5-5,59.63,59.63,0,0,0,3-10.54c.38-1.81.67-3.64,1-5.46.07-.41,0-.57-.45-.49A81.42,81.42,0,0,0,43.56,6.44a9.17,9.17,0,0,0-6.16,9.79,7.51,7.51,0,0,0,.51,2.19c.18.44.06.67-.39.85-1.69.67-1.35.77-1.86-.86-1.52-5,.83-11,5.56-13.22A54.38,54.38,0,0,1,52.55,1.64C55.48,1,58.44.51,61.41.08a5.77,5.77,0,0,1,.72,0Z"></path><path class="cls-1" d="M43.85,48.12V33.28c0-1.12,0-1.12,1.15-1.12h3.38c1.18,0,1.18,0,1.18,1.15V57.09c0,2.08,0,4.16,0,6.23,0,.59-.17.83-.8.82-1.36,0-2.73,0-4.1,0-.66,0-.83-.24-.83-.85C43.86,58.23,43.85,53.17,43.85,48.12ZM46,48.05c0,4.39,0,8.78,0,13.17,0,.52.13.76.7.75s.7-.16.7-.69q0-13.17,0-26.34v-.2c0-.31-.17-.41-.46-.43-.82-.07-.92,0-.92.83Z"></path><path class="cls-1" d="M42.3,48.17v15c0,.91,0,.91-.93.91-1.3,0-2.6,0-3.9,0-.73,0-.82-.31-.82-.92q0-13.5,0-27c0-1.12,0-2.25,0-3.38,0-.49.19-.67.66-.66,1.39,0,2.78,0,4.17,0,.63,0,.83.22.83.86C42.29,38.06,42.3,43.12,42.3,48.17Zm-2.17,0c0-4.36,0-8.73,0-13.1,0-.61-.18-.82-.8-.79s-.52.48-.52.85V61.43c0,.36.17.5.52.53.61.06.8-.19.8-.79C40.12,56.84,40.13,52.52,40.13,48.19Z"></path><path class="cls-1" d="M46.15,22C46,23.5,46,23.5,44.73,23.19h-.07c-1.53-.39-1.69-.88-.75-2.17a.44.44,0,0,1,.57-.15,6.37,6.37,0,0,0,.94.29C46,21.25,46.43,21.41,46.15,22Z"></path><path class="cls-1" d="M47.27,22.28c0-1,.18-1.1,1.44-1.18.33,0,1,1.06.87,1.63-.23.78-1.08.61-1.67.66C47,23.48,47.47,22.61,47.27,22.28Z"></path><path class="cls-1" d="M52.77,21a1.46,1.46,0,0,1-.57.61c-1.47,1.09-1.13.89-1.91-.36-.26-.42-.28-.7.19-1,1-.67,1-.7,1.81.16C52.47,20.55,52.71,20.69,52.77,21Z"></path><path class="cls-1" d="M22.33,58.12c-2.39,0-4.77,0-7.15,0-.66,0-.9-.22-.88-.88,0-1.55,0-3.09,0-4.64,0-.6.17-.87.82-.86H29.48c.61,0,.8.21.79.81,0,1.59,0,3.18,0,4.76,0,.63-.21.81-.8.8C27.09,58.1,24.71,58.12,22.33,58.12Zm0-2.16H27c1.34,0,1.15.15,1.21-1.21,0-.69-.21-.85-.87-.84-3.17,0-6.35,0-9.52,0-1.5,0-1.29-.2-1.34,1.35,0,.56.2.71.73.7C18.89,56,20.59,56,22.28,56Z"></path><path class="cls-1" d="M22.33,32.32c-2.41,0-4.81,0-7.22,0-.6,0-.82-.19-.81-.79q0-2.38,0-4.77c0-.57.2-.76.78-.76q7.22,0,14.43,0c.57,0,.77.18.76.76q0,2.41,0,4.83c0,.55-.19.73-.73.73C27.14,32.31,24.73,32.32,22.33,32.32Zm0-2.17h4.9c1,0,1,0,1-1v-.07c0-.87,0-.87-.88-.87H17.63c-1.17,0-1.14,0-1.17,1.19,0,.62.21.79.8.78C18.93,30.13,20.61,30.15,22.28,30.15Z"></path><path class="cls-1" d="M22.23,40.92c-2.36,0-4.72,0-7.08,0-.62,0-.86-.19-.85-.83,0-1.59,0-3.18,0-4.77,0-.53.18-.73.73-.72q7.25,0,14.49,0c.61,0,.75.23.74.79,0,1.56,0,3.13,0,4.7,0,.62-.18.84-.82.84C27,40.91,24.64,40.92,22.23,40.92Zm.13-4.21h-4.7c-1.33,0-1.14-.13-1.2,1.22,0,.7.23.84.87.84,3.18,0,6.35,0,9.52,0,1.5,0,1.29.19,1.34-1.35,0-.58-.22-.7-.74-.7C25.75,36.73,24.05,36.71,22.36,36.71Z"></path><path class="cls-1" d="M22.26,23.71c-2.38,0-4.76,0-7.14,0-.6,0-.83-.17-.82-.78,0-1.59,0-3.18,0-4.77,0-.56.21-.77.78-.76q7.22,0,14.42,0c.57,0,.77.19.76.76q0,2.41,0,4.83c0,.56-.2.73-.73.72C27.11,23.7,24.69,23.71,22.26,23.71Zm.11-4.12c-1.57,0-3.13,0-4.7,0-1.34,0-1.15-.12-1.21,1.21,0,.69.21.85.86.84,3.2,0,6.39,0,9.59,0,1.43,0,1.22.17,1.28-1.27,0-.62-.21-.79-.8-.77C25.72,19.61,24,19.59,22.37,19.59Z"></path><path class="cls-1" d="M22.33,43.23c2.38,0,4.77,0,7.15,0,.61,0,.8.19.79.79q0,2.39,0,4.77c0,.54-.17.75-.72.75H15.05c-.55,0-.75-.22-.74-.75,0-1.61,0-3.22,0-4.84,0-.53.19-.73.74-.72C17.47,43.24,19.9,43.23,22.33,43.23Zm0,4.12H27c1.37,0,1.18.15,1.23-1.25,0-.6-.16-.8-.78-.8-3.22,0-6.44,0-9.65,0-1.45,0-1.26-.21-1.3,1.32,0,.53.15.73.71.72C18.89,47.34,20.61,47.35,22.33,47.35Z"></path><path class="cls-1" d="M27.93,15.58H26.21c-.34,0-.54-.14-.53-.51V15c0-1.88-.12-1.55,1.45-1.57.84,0,1.68,0,2.52,0,.41,0,.58.16.6.58.09,1.59.1,1.59-1.46,1.59h-.86Z"></path><path class="cls-1" d="M20.14,13.43c1.08,0,1.08,0,1.08,1.08s0,1.08-1.09,1.08-1.08,0-1.08-1.09S19.05,13.43,20.14,13.43Z"></path><path class="cls-1" d="M24.53,14.51c0,1.08,0,1.08-1.09,1.08s-1.08,0-1.08-1.1,0-1.07,1.1-1.06S24.53,13.43,24.53,14.51Z"></path></g></svg>