<svg xmlns="http://www.w3.org/2000/svg" id="Layer_1" data-name="Layer 1" viewBox="0 0 68 68"><defs><style>.cls-1{fill:#4d4d4f;}</style></defs><g id="EL1Qji.tif"><path class="cls-1" d="M34.93-.1A4.24,4.24,0,0,1,38.2,3.59a4.13,4.13,0,0,1-2.39,4.34,1.09,1.09,0,0,0-.75,1.2c0,2.59,0,5.19,0,7.78,0,.66.23.87.87.95a14.12,14.12,0,0,1,7.8,3.56c.4.35.63.4,1,0,.74-.79,1.53-1.55,2.3-2.31a1,1,0,0,0,.36-.81c0-1.71,0-3.42,0-5.13,0-.49-.27-.62-.62-.81a3.61,3.61,0,0,1-1.35-5.2,3.67,3.67,0,0,1,5.28-.81,3.62,3.62,0,0,1-.58,6,1.07,1.07,0,0,0-.66,1.13c0,1.31,0,2.62,0,3.93,0,.52.13.76.71.74,1,0,2.08,0,3.12,0a.73.73,0,0,0,.81-.51,4.23,4.23,0,0,1,4.39-2.67,4.28,4.28,0,0,1,.94,8.3A4.2,4.2,0,0,1,54.25,21a1.07,1.07,0,0,0-1.19-.76c-1.22,0-2.44,0-3.66,0a1.1,1.1,0,0,0-.89.35c-.81.82-1.62,1.64-2.45,2.44a.56.56,0,0,0-.06.86,14.7,14.7,0,0,1,2.67,7c0,.39.22.47.56.47h9.51a.69.69,0,0,0,.68-.41,3.61,3.61,0,0,1,3.8-2.1,3.67,3.67,0,0,1,3,3c0,.06,0,.12.07.19v.79A3.62,3.62,0,0,1,63.29,36a3.42,3.42,0,0,1-3.73-1.82,1,1,0,0,0-1-.62c-3,0-6,0-9.05,0-.53,0-.78.1-.85.71a14.58,14.58,0,0,1-2.46,6.53,1.07,1.07,0,0,1-1,.6,1.16,1.16,0,0,1-1-.81,1.22,1.22,0,0,1,.31-1.11,12.8,12.8,0,0,0,2-5.57,12.29,12.29,0,0,0-2.69-9.27,12.47,12.47,0,0,0-17.22-2.38,12.61,12.61,0,0,0-.51,20.07c.16.12.32.24.47.37a1,1,0,0,1,.18,1.53,1,1,0,0,1-1.47.16A13.83,13.83,0,0,1,21.91,41a14,14,0,0,1-2.59-6.76c-.05-.49-.27-.68-.77-.68-3.08,0-6.17,0-9.25,0a.84.84,0,0,0-.82.52,3.54,3.54,0,0,1-4,1.9,3.6,3.6,0,0,1-.39-6.91,3.52,3.52,0,0,1,4.33,1.66,1.11,1.11,0,0,0,1.19.67q4.46,0,8.91,0c.54,0,.75-.19.81-.71A14,14,0,0,1,21.88,24c.29-.41.29-.65-.08-1-.79-.74-1.56-1.52-2.31-2.3a1.34,1.34,0,0,0-1.06-.44c-1.26,0-2.53,0-3.79,0a.76.76,0,0,0-.84.56,4.32,4.32,0,0,1-4,2.65,4.26,4.26,0,0,1-4-2.83,4.33,4.33,0,0,1,1.21-4.73,4.26,4.26,0,0,1,6.63,1.42,1.12,1.12,0,0,0,1.26.77c.95-.05,1.9,0,2.86,0,.43,0,.59-.16.58-.59,0-1.46,0-2.92,0-4.39,0-.49-.29-.63-.63-.82a3.59,3.59,0,0,1,.7-6.61,3.6,3.6,0,0,1,4.31,2,3.56,3.56,0,0,1-1.6,4.62,1,1,0,0,0-.62,1c0,1.6,0,3.2,0,4.79A1.33,1.33,0,0,0,21,19.19c.75.72,1.5,1.45,2.21,2.22.36.39.61.33,1,0a14.88,14.88,0,0,1,7.41-3.53c1.3-.23,1.3-.23,1.3-1.53,0-2.49,0-5,0-7.45,0-.38,0-.66-.46-.84A4.2,4.2,0,0,1,29.7,3.92a4.23,4.23,0,0,1,3-3.91,1.75,1.75,0,0,0,.24-.11ZM9.86,21.31A2.13,2.13,0,0,0,12,19.22,2.06,2.06,0,0,0,9.86,17.1a2,2,0,0,0-2.13,2.12A2.11,2.11,0,0,0,9.86,21.31ZM36.09,4.13a2.11,2.11,0,1,0-4.22-.07,2.11,2.11,0,1,0,4.22.07ZM56,19.21a2.11,2.11,0,1,0,2.07-2.12A2,2,0,0,0,56,19.21ZM18.06,9.14a1.43,1.43,0,1,0,1.41-1.46A1.43,1.43,0,0,0,18.06,9.14ZM61.29,32.46a1.42,1.42,0,0,0,1.38,1.48,1.47,1.47,0,0,0,1.5-1.46,1.41,1.41,0,0,0-1.45-1.41A1.3,1.3,0,0,0,61.29,32.46ZM48.46,7.68A1.56,1.56,0,0,0,47,9.11a1.56,1.56,0,0,0,1.46,1.51,1.54,1.54,0,0,0,1.47-1.43A1.51,1.51,0,0,0,48.46,7.68ZM6.69,32.48a1.33,1.33,0,0,0-1.41-1.41,1.38,1.38,0,0,0-1.45,1.46,1.44,1.44,0,0,0,1.46,1.41A1.41,1.41,0,0,0,6.69,32.48Z"></path><path class="cls-1" d="M30.36,51.08V41.64c0-.36-.2-.49-.47-.63a9.41,9.41,0,0,1-5.36-9,8.11,8.11,0,0,1,.8-3.34c.35-.76.85-1,1.47-.74s.84.83.5,1.61a7.29,7.29,0,0,0,2.58,9,2.9,2.9,0,0,0,.33.2c.25-.15.15-.37.15-.55,0-1.42,0-2.84,0-4.26a3.44,3.44,0,0,1,6.87-.41c.19,1.52,0,3.06.09,4.58,0,.23-.11.55.15.67s.45-.14.64-.27A7.3,7.3,0,0,0,31,25.84l-.37.17a1.07,1.07,0,1,1-.94-1.91,8.83,8.83,0,0,1,6.77-.72,9.32,9.32,0,0,1,7,8.86,9.06,9.06,0,0,1-5.12,8.61,1.53,1.53,0,0,0-1,1.69c.07,1,0,1,1,1h6.92a4.88,4.88,0,0,1,5,5c0,.66,0,1.33,0,2s-.4,1.26-1.05,1.26-1-.45-1-1.21-.06-1.68-.11-2.52a2.63,2.63,0,0,0-1.79-2.27c-.37-.12-.55,0-.54.37s0,1,0,1.53a1,1,0,0,1-1,1.09,1,1,0,0,1-1.14-1,11.83,11.83,0,0,1,0-1.46c0-.41-.13-.62-.57-.62-1.82,0-1.47-.13-1.5,1.4v.4c0,.92-.31,1.31-1,1.32s-1.06-.4-1.07-1.35c0-.42,0-.84,0-1.26s-.13-.51-.47-.5H38.8c-1.47-.07-1.46-.07-1.47,1.38a5.84,5.84,0,0,1-.08.93.94.94,0,0,1-1,.81,1,1,0,0,1-1-.93c0-.22,0-.44,0-.66V34.38a2,2,0,0,0-.2-1.1,1.23,1.23,0,0,0-1.39-.68,1.19,1.19,0,0,0-1,1.15c0,.28,0,.57,0,.86q0,9.18,0,18.37c0,.33,0,.66,0,1a1.06,1.06,0,0,1-.81,1.08,1.11,1.11,0,0,1-1.22-.47q-1.89-2.33-3.8-4.63c-.19-.22-.37-.44-.57-.65a1.39,1.39,0,0,0-1.87-.12,1.27,1.27,0,0,0-.14,1.8c1,1.28,2.09,2.53,3.14,3.79,1.67,2,3.33,4,5,6a1.89,1.89,0,0,1,.49,1.33c0,1.62,0,3.24,0,4.86,0,.79-.35,1.17-1,1.17s-1-.4-1.05-1.18c0-1.37,0-2.75,0-4.12a1.49,1.49,0,0,0-.39-1.08q-3.84-4.56-7.65-9.13a3.45,3.45,0,0,1,1.72-5.78,3.26,3.26,0,0,1,3.42,1.11C28.58,48.91,29.4,49.93,30.36,51.08Z"></path><path class="cls-1" d="M45,64.92c0-.14,0-.27,0-.4a3.59,3.59,0,0,1,1.22-3.36,6.4,6.4,0,0,0,2-4.74c0-.83.43-1.31,1.09-1.31s1.12.53,1.08,1.4a9.5,9.5,0,0,1-2.62,6.24,1.73,1.73,0,0,0-.55,1.41c0,.93,0,1.86,0,2.79,0,.75-.37,1.13-1,1.15a1,1,0,0,1-1.13-1c0-.71,0-1.42,0-2.13Z"></path></g></svg>