<svg xmlns="http://www.w3.org/2000/svg" id="Layer_1" data-name="Layer 1" viewBox="0 0 68 68"><defs><style>.cls-1{fill:#4d4d4f;}</style></defs><g id="_9w9WKy.tif" data-name="9w9WKy.tif"><path class="cls-1" d="M31.35,67.78a6.15,6.15,0,0,1-3.29-4.53.69.69,0,0,0-.33-.53,3,3,0,0,1-1.53-2.93c0-.61.1-1.21-.77-1.38-.38-.07-.52-.51-.5-.91a.9.9,0,0,1,.64-.91c.59-.12.66-.48.63-1a5.77,5.77,0,0,1,0-.72.68.68,0,0,0-.55-.83.93.93,0,0,1-.72-1,1,1,0,0,1,.79-1c.39-.08.46-.3.48-.64a13.18,13.18,0,0,0-4.54-11.11A18.29,18.29,0,0,1,15.81,29a1.1,1.1,0,0,1,.87-1.33c.67-.1,1.15.31,1.26,1.11a15.77,15.77,0,0,0,3.66,8.4c1,1.13,2.1,2.11,3.08,3.24A15.1,15.1,0,0,1,28,46.85a.8.8,0,0,0,.94.73q5,0,10.08,0c.53,0,.78-.15.9-.7a12.35,12.35,0,0,1,.86-2.48,1.09,1.09,0,0,1,1.42-.71,1.07,1.07,0,0,1,.53,1.55,12.83,12.83,0,0,0-1.06,6.17c0,.37,0,.61.5.67a1,1,0,0,1,.86,1,.94.94,0,0,1-.77,1c-.51.1-.63.38-.59.84a5.21,5.21,0,0,1,0,.79c0,.46.09.73.6.82a.93.93,0,0,1,.76,1,.89.89,0,0,1-.81,1c-.53.06-.55.35-.55.76a4.93,4.93,0,0,1-.19,2,2.12,2.12,0,0,1-.89,1.12,1.78,1.78,0,0,0-.86,1.36,6,6,0,0,1-3.11,4H35.7c-.88-.75-.84-1.45.12-2a3.87,3.87,0,0,0,1.71-2c.16-.43.11-.67-.42-.67H30.72c-.49,0-.48.22-.36.58a3.86,3.86,0,0,0,1.67,2c1,.62,1.09,1.26.24,2.1ZM33.85,52h4.21c1.62,0,1.44.25,1.48-1.48,0-.62-.18-.84-.82-.83-2.94,0-5.88,0-8.82,0-1.81,0-1.49-.28-1.55,1.58,0,.6.2.74.76.73C30.69,52,32.27,52,33.85,52ZM34,58.59c-1.65,0-3.3,0-4.94,0-.53,0-.73.18-.66.69a2.25,2.25,0,0,1,0,.26c0,1.26.1,1.37,1.33,1.37H38c1.55,0,1.56,0,1.56-1.58,0-.6-.23-.75-.78-.74C37.16,58.61,35.56,58.59,34,58.59Zm-.11-2.15h4.41c1.27,0,1.27,0,1.27-1.24,0-1,0-1-1-1-2.89,0-5.79,0-8.69,0-1.73,0-1.46-.22-1.51,1.5,0,.58.19.76.76.75C30.69,56.42,32.27,56.44,33.85,56.44Z"></path><path class="cls-1" d="M60.6,27a1.4,1.4,0,0,1-1.48.84c-1.27,0-2.54,0-3.82,0-.82,0-1.31-.41-1.31-1.06s.48-1.07,1.3-1.09c1.3,0,2.59,0,3.88,0a1.33,1.33,0,0,1,1.43.93Z"></path><path class="cls-1" d="M46.67,26.77c0,.49,0,1,0,1.45A1.71,1.71,0,0,1,44.91,30a12.71,12.71,0,0,1-1.38,0c-.42,0-.57.2-.72.52a.6.6,0,0,0,.15.81,14.15,14.15,0,0,1,1,1,1.67,1.67,0,0,1,.08,2.33,29.59,29.59,0,0,1-2.24,2.24,1.61,1.61,0,0,1-2.22,0,13.51,13.51,0,0,1-1.09-1,.64.64,0,0,0-.81-.22.73.73,0,0,0-.53.8c0,.43,0,.87,0,1.31a1.73,1.73,0,0,1-1.63,1.75,13.91,13.91,0,0,1-3.16,0,1.72,1.72,0,0,1-1.58-1.72,12.89,12.89,0,0,1,0-1.39.7.7,0,0,0-.5-.74.64.64,0,0,0-.82.19,14,14,0,0,1-1,1,1.69,1.69,0,0,1-2.44,0c-.68-.65-1.36-1.31-2-2a1.73,1.73,0,0,1,.05-2.53c.29-.3.58-.6.89-.89s.41-.45.23-.84a.74.74,0,0,0-.84-.55A11.63,11.63,0,0,1,23,30a1.68,1.68,0,0,1-1.71-1.72c0-1,0-1.94,0-2.9a1.67,1.67,0,0,1,1.46-1.69,9.75,9.75,0,0,1,1.71-.06.62.62,0,0,0,.65-.43.67.67,0,0,0-.11-.84A12,12,0,0,1,24,21.24,1.69,1.69,0,0,1,24,18.81c.66-.68,1.32-1.35,2-2a1.69,1.69,0,0,1,2.43,0c.34.31.66.64,1,1s.43.41.8.23.58-.34.56-.77a11.63,11.63,0,0,1,0-1.32,1.74,1.74,0,0,1,1.78-1.82c.94,0,1.89,0,2.83,0a1.73,1.73,0,0,1,1.75,1.77,11.63,11.63,0,0,1,0,1.32.73.73,0,0,0,.52.8.67.67,0,0,0,.86-.23c.29-.32.61-.64.93-.93a1.7,1.7,0,0,1,2.48,0c.67.64,1.32,1.29,2,2a1.75,1.75,0,0,1,0,2.54c-.16.18-.36.33-.5.52-.3.38-.93.59-.62,1.3s.84.38,1.3.44.71,0,1,.07a1.68,1.68,0,0,1,1.49,1.73C46.69,25.85,46.67,26.31,46.67,26.77Zm-17,6.3a.78.78,0,0,1,.27.06,24.66,24.66,0,0,0,2.37,1,1,1,0,0,1,.61.94c0,.3,0,.61,0,.92,0,1.61-.3,1.4,1.5,1.43.4,0,.56-.15.55-.55s0-1.1,0-1.65a1.17,1.17,0,0,1,.9-1.22,8.24,8.24,0,0,0,1.76-.72,1.17,1.17,0,0,1,1.55.24l1.17,1.17c.2.2.42.28.61,0,.33-.45,1-.63,1-1.34,0-.1-.16-.19-.25-.29L40.67,32a1.1,1.1,0,0,1-.25-1.43,11,11,0,0,0,.77-1.89,1.13,1.13,0,0,1,1.07-.84,8,8,0,0,1,.85,0c1.51,0,1.42.3,1.41-1.55,0-.36-.15-.52-.52-.52-.55,0-1.09,0-1.64,0a1.13,1.13,0,0,1-1.18-.86,11.5,11.5,0,0,0-.47-1.23c-.66-1.42-.66-1.46.43-2.56s1.12-1.11-.09-2.2c-.25-.22-.42-.25-.66,0-.39.41-.81.81-1.21,1.21a1.13,1.13,0,0,1-1.49.24,8.72,8.72,0,0,0-1.76-.73A1.21,1.21,0,0,1,35,18.4v-.72c0-1.59.31-1.42-1.51-1.44-.39,0-.56.16-.55.55s0,1,0,1.52a1.23,1.23,0,0,1-1,1.32,7.93,7.93,0,0,0-1.7.71,1.17,1.17,0,0,1-1.55-.26l-.46-.46c-1.13-1.13-1.12-1.12-2.19.1-.22.26-.24.43,0,.67.41.39.81.8,1.21,1.21A1.15,1.15,0,0,1,27.55,23a13,13,0,0,0-.78,1.89,1.1,1.1,0,0,1-1.14.82h-.79c-1.51,0-1.54,0-1.4,1.55,0,.35.17.51.53.51h1.58a1.17,1.17,0,0,1,1.21.84,12.57,12.57,0,0,0,.8,1.94,1.08,1.08,0,0,1-.2,1.33l-.56.57c-1.11,1.11-1.1,1.1.09,2.15.27.24.46.27.72,0s.77-.78,1.16-1.16A1.29,1.29,0,0,1,29.69,33.07Z"></path><path class="cls-1" d="M34.22,10.68A16.27,16.27,0,0,0,18.05,24.21c0,.15-.06.3-.09.45-.16.72-.63,1.12-1.22,1a1.08,1.08,0,0,1-.87-1.33,15.15,15.15,0,0,1,1.35-4.8c3-6.41,8-10.25,15.08-11A18.09,18.09,0,0,1,51.92,23.27c1.22,6.53-.68,12.14-5.36,16.83l-1.49,1.5a1.07,1.07,0,1,1-1.58-1.42c.55-.62,1.15-1.2,1.74-1.79a15.74,15.74,0,0,0,4.9-11.9A16.09,16.09,0,0,0,36.46,10.83C35.63,10.71,34.8,10.71,34.22,10.68Z"></path><path class="cls-1" d="M10.67,27.86c-.7,0-1.4,0-2.1,0a1.08,1.08,0,0,1-1.17-1,1,1,0,0,1,1.06-1.11c1.49,0,3,0,4.48,0a1,1,0,0,1,1,1.07,1.07,1.07,0,0,1-1.13,1C12.12,27.88,11.4,27.86,10.67,27.86Z"></path><path class="cls-1" d="M32.9,3.48c0-.68,0-1.36,0-2S33.34.22,34,.22s1.06.46,1.07,1.25c0,1.36,0,2.72,0,4.08A1.08,1.08,0,0,1,34,6.77c-.65,0-1-.46-1.07-1.24S32.9,4.16,32.9,3.48Z"></path><path class="cls-1" d="M48.87,40.64a1.16,1.16,0,0,1,.78.35l3,3a1.23,1.23,0,0,1,.46,1,1,1,0,0,1-.6.87.91.91,0,0,1-1.1-.12c-1.13-1.09-2.25-2.21-3.34-3.34a.89.89,0,0,1-.11-1.1A1.06,1.06,0,0,1,48.87,40.64Z"></path><path class="cls-1" d="M20.16,11.89a1.08,1.08,0,0,1-.6.95,1,1,0,0,1-1.22-.19c-.64-.61-1.25-1.24-1.87-1.86-.44-.43-.89-.85-1.29-1.31A1,1,0,0,1,16.67,8c1,1,2,2,3,3A1.46,1.46,0,0,1,20.16,11.89Z"></path><path class="cls-1" d="M20.16,41.7a1.42,1.42,0,0,1-.45.9c-1,1-1.91,1.92-2.88,2.87a1.09,1.09,0,0,1-1.68.1c-.44-.47-.38-1,.2-1.61,1-1,2-2,3-3a1,1,0,0,1,1.2-.24A1.12,1.12,0,0,1,20.16,41.7Z"></path><path class="cls-1" d="M48.84,13a1,1,0,0,1-.91-.58.87.87,0,0,1,.09-1c1.13-1.17,2.27-2.33,3.45-3.44a.88.88,0,0,1,1.26.1A.94.94,0,0,1,53,9.23a3.54,3.54,0,0,1-.5.6l-2.61,2.61A1.37,1.37,0,0,1,48.84,13Z"></path><path class="cls-1" d="M34,32a5.15,5.15,0,0,1-5.14-5.16,5.18,5.18,0,1,1,10.35,0A5.15,5.15,0,0,1,34,32Zm0-2.15a2.93,2.93,0,0,0,3-3,3,3,0,1,0-6-.09A2.94,2.94,0,0,0,34,29.81Z"></path></g></svg>