<svg xmlns="http://www.w3.org/2000/svg" id="Layer_1" data-name="Layer 1" viewBox="0 0 471.53 170.07"><defs><style>.cls-1{font-size:15px;}.cls-1,.cls-11{fill:#4d4d4f;}.cls-1,.cls-9{font-family:OpenSans-Bold, Open Sans;font-weight:700;}.cls-2,.cls-4{letter-spacing:1.19em;}.cls-3,.cls-4,.cls-6,.cls-7{font-family:OpenSans, Open Sans;font-weight:400;}.cls-5,.cls-6{letter-spacing:0.34em;}.cls-7{letter-spacing:0.34em;}.cls-8{letter-spacing:0.64em;}.cls-10{letter-spacing:0.64em;}.cls-12{fill:#f68723;}</style></defs><text class="cls-1" transform="translate(113.63 62.68)">Enhance<tspan class="cls-2" x="63.61" y="0"> </tspan><tspan class="cls-3" x="85.37" y="0">North-South,</tspan><tspan class="cls-4" x="175.87" y="0"> </tspan><tspan x="197.63" y="0">South-South</tspan><tspan class="cls-2" x="290.01" y="0"> </tspan><tspan x="311.77" y="0">and </tspan><tspan x="0" y="18">international</tspan><tspan class="cls-5" x="99.41" y="18"> </tspan><tspan x="108.47" y="18">cooperation</tspan><tspan class="cls-6" x="199.22" y="18"> </tspan><tspan class="cls-3" x="208.28" y="18">on</tspan><tspan class="cls-7" x="226.55" y="18"> </tspan><tspan class="cls-3" x="235.61" y="18">and</tspan><tspan class="cls-6" x="262.35" y="18"> </tspan><tspan class="cls-3" x="271.42" y="18">access</tspan><tspan class="cls-7" x="316.77" y="18"> </tspan><tspan class="cls-3" x="325.83" y="18">to </tspan><tspan class="cls-3"><tspan x="0" y="36">science,</tspan><tspan class="cls-8" x="54.95" y="36"> </tspan><tspan class="cls-9" x="68.42" y="36">technology</tspan><tspan class="cls-8" x="151.39" y="36"> </tspan><tspan x="164.86" y="36">and</tspan><tspan class="cls-10" x="191.6" y="36"> </tspan><tspan class="cls-9" x="205.08" y="36">innovation</tspan><tspan class="cls-8" x="286.49" y="36" xml:space="preserve">  </tspan><tspan x="313.44" y="36">and </tspan><tspan x="0" y="54">enhance </tspan><tspan class="cls-9" x="63.83" y="54">knowledge sharing</tspan></tspan></text><g id="tfEwyp.tif"><path class="cls-11" d="M17.82,117.28c-.22-2-.22-2,1.79-2,.68,0,1.37,0,2.05,0s.83-.22.77-.81a4.82,4.82,0,0,1,0-.66V60.47c0-1.1,0-1.1,1.08-1.1,1.69,0,1.69,0,1.69-1.67,0-1.21,0-2.43,0-3.64,0-.49.18-.66.66-.67,1.43-.06,1.43-.07,1.43,1.35s0,2.65,0,4c0,.49.17.67.65.66,1.8,0,1.53.15,1.54-1.5,0-2.47,0-4.95,0-7.42,0-.92,0-.93.91-.93,1.25,0,1.25,0,1.25,1.25,0,2.59,0,5.17,0,7.75,0,.69.22.86.87.86,4.13,0,8.26,0,12.38,0,1.06,0,1.06,0,1.06,1.08v56.1c0,.24,0,.49,0,.73Zm6.77-28.89v26c0,.88,0,.88.87.88,5.78,0,11.57,0,17.35,0,.95,0,.95,0,.95-.93V62.45c0-.92,0-.92-.9-.92H25.58c-1,0-1,0-1,1Z"></path><path class="cls-11" d="M47.49,117.28c-.22-2-.22-2,1.79-2,4.64,0,9.28,0,13.91,0,.63,0,.83-.17.83-.82q0-16.78,0-33.59a1.05,1.05,0,0,0-.71-1.1Q55.58,76,47.86,72.31c-.87-.43-.87-.43-.47-1.3.57-1.25.43-1.08,1.54-.55,1.64.8,1.65.81,2.93-.49a9.1,9.1,0,0,0,2-2.11c.4-.86.1-2,.11-3,0-1.68,0-3.36,0-5,0-.58.13-.85.77-.83,1.49.05,1.4-.17,1.4,1.4v4.44c0,.21,0,.42,0,.79a29,29,0,0,1,2.45-2.41,4,4,0,0,0,1.63-4,24.82,24.82,0,0,1,0-2.59c0-.54.21-.73.75-.72,1.63,0,1.39-.11,1.41,1.43,0,.61,0,1.22,0,1.83l.22.16a6.44,6.44,0,0,1,.54-.72c1.3-1.32,2.63-2.62,3.93-4,.34-.35.58-.36.92,0,1.26,1.3,1.16.89,0,2.08-.57.59-1.15,1.16-1.72,1.74a.68.68,0,0,0-.08.17,3.51,3.51,0,0,0,1.54.09c.63,0,.85.22.84.86,0,1.52,0,1.3-1.27,1.31h-3a.94.94,0,0,0-.73.24l-3.7,3.7c-.11.11-.21.22-.31.34.14.25.36.14.54.14,1.37,0,2.74,0,4.1,0,.56,0,.8.16.79.75,0,1.59.13,1.43-1.43,1.43-1.87,0-3.75,0-5.63,0a1.54,1.54,0,0,0-1.22.5c-1.19,1.22-2.39,2.43-3.61,3.61-.42.4-.44.59.13.86,4,1.93,8.07,3.9,12.11,5.82a1.08,1.08,0,0,1,.73,1.15q0,17.37,0,34.72c0,1,0,1,1,1s2,0,3.05,0c.48,0,.7.16.67.65s0,.93,0,1.39Z"></path><path class="cls-11" d="M74,49.56c-.39,2.3-.72,4.62-1.17,6.91A67,67,0,0,1,69.39,69a11.1,11.1,0,0,1-6.82,6.67c-.6.21-.86.07-1-.52a1.06,1.06,0,0,0-.06-.19c-.3-1.06-.29-1,.75-1.47a8.75,8.75,0,0,0,5-5A59.31,59.31,0,0,0,70.36,57.9c.37-1.82.66-3.65,1-5.46.08-.41,0-.57-.44-.49a81.23,81.23,0,0,0-15.51,3.84,9.18,9.18,0,0,0-6.17,9.79,7.39,7.39,0,0,0,.52,2.18c.17.45,0,.68-.4.86-1.68.67-1.35.77-1.85-.87-1.53-5,.82-11,5.55-13.21A54.28,54.28,0,0,1,64.41,51c2.93-.66,5.89-1.13,8.85-1.56a5.93,5.93,0,0,1,.73,0Z"></path><path class="cls-11" d="M55.71,97.47V82.63c0-1.12,0-1.12,1.15-1.12h3.37c1.18,0,1.18,0,1.18,1.15v23.78c0,2.08,0,4.15,0,6.23,0,.58-.16.83-.79.81q-2.06-.06-4.11,0c-.65,0-.82-.23-.82-.84C55.72,107.58,55.71,102.52,55.71,97.47Zm2.16-.08q0,6.6,0,13.18c0,.52.13.76.7.75s.7-.16.7-.69q0-13.17,0-26.34c0-.07,0-.14,0-.2,0-.32-.16-.41-.45-.43-.83-.07-.92,0-.92.83Z"></path><path class="cls-11" d="M54.15,97.52v15c0,.92,0,.92-.92.92-1.31,0-2.61,0-3.91,0-.73,0-.82-.31-.82-.92q0-13.51,0-27c0-1.13,0-2.25,0-3.38,0-.49.19-.67.66-.67,1.39,0,2.78,0,4.17,0,.64,0,.84.22.83.85C54.14,87.41,54.15,92.46,54.15,97.52Zm-2.16,0c0-4.37,0-8.74,0-13.11,0-.6-.19-.81-.8-.78s-.52.48-.52.85q0,13,0,26c0,.11,0,.22,0,.33,0,.36.16.49.52.53.61.06.8-.19.8-.79C52,106.19,52,101.87,52,97.54Z"></path><path class="cls-11" d="M58,71.38c-.11,1.47-.11,1.47-1.43,1.15h-.06c-1.53-.38-1.7-.87-.76-2.16a.44.44,0,0,1,.57-.15,8.6,8.6,0,0,0,1,.29C57.86,70.6,58.29,70.76,58,71.38Z"></path><path class="cls-11" d="M59.13,71.63c0-.95.18-1.11,1.44-1.19.33,0,1,1.06.87,1.64-.23.78-1.09.61-1.68.66C58.82,72.83,59.33,72,59.13,71.63Z"></path><path class="cls-11" d="M64.63,70.33a1.48,1.48,0,0,1-.58.61c-1.47,1.09-1.13.89-1.9-.36-.27-.42-.28-.71.19-1,1-.67,1-.7,1.81.16C64.33,69.9,64.57,70,64.63,70.33Z"></path><path class="cls-11" d="M34.18,107.46c-2.38,0-4.76,0-7.14,0-.66,0-.9-.21-.89-.87,0-1.55,0-3.09,0-4.64,0-.6.16-.87.82-.87q7.17,0,14.36,0c.6,0,.8.21.79.82,0,1.58,0,3.17,0,4.76,0,.62-.22.81-.8.8C38.94,107.45,36.56,107.46,34.18,107.46Zm0-2.15h4.69c1.34,0,1.15.14,1.21-1.21,0-.69-.21-.85-.86-.85-3.18,0-6.35,0-9.52,0-1.5,0-1.3-.2-1.34,1.34,0,.57.2.72.73.71C30.74,105.29,32.44,105.31,34.14,105.31Z"></path><path class="cls-11" d="M34.18,81.67c-2.4,0-4.81,0-7.21,0-.61,0-.82-.19-.81-.8,0-1.58,0-3.17,0-4.76,0-.58.2-.77.77-.76q7.21,0,14.43,0c.57,0,.78.17.76.76,0,1.61,0,3.22,0,4.83,0,.55-.18.73-.72.73C39,81.66,36.59,81.67,34.18,81.67Zm0-2.17H39c1,0,1,0,1-1v-.06c0-.87,0-.88-.89-.88H29.49c-1.18,0-1.14,0-1.18,1.2,0,.62.21.79.8.78C30.79,79.48,32.46,79.5,34.14,79.5Z"></path><path class="cls-11" d="M34.09,90.27c-2.36,0-4.72,0-7.08,0-.63,0-.87-.18-.85-.82,0-1.59,0-3.18,0-4.77,0-.54.19-.73.74-.73q7.25,0,14.49,0c.6,0,.74.23.73.78,0,1.57,0,3.14,0,4.7,0,.63-.19.85-.83.84C38.9,90.25,36.49,90.27,34.09,90.27Zm.12-4.21c-1.56,0-3.13,0-4.69,0-1.33,0-1.15-.14-1.21,1.21,0,.7.24.85.88.84,3.17,0,6.34,0,9.52,0,1.5,0,1.28.18,1.33-1.35,0-.58-.22-.71-.74-.7C37.6,86.07,35.91,86.06,34.21,86.06Z"></path><path class="cls-11" d="M34.12,73.06c-2.38,0-4.77,0-7.15,0-.6,0-.82-.18-.81-.78,0-1.59,0-3.18,0-4.77,0-.57.21-.77.78-.77q7.22,0,14.42,0c.58,0,.78.19.76.77,0,1.61,0,3.22,0,4.83,0,.55-.19.72-.73.72C39,73.05,36.54,73.06,34.12,73.06Zm.1-4.13H29.53c-1.35,0-1.16-.11-1.22,1.21,0,.7.22.85.87.85,3.19,0,6.39,0,9.58,0,1.43,0,1.23.17,1.28-1.27,0-.63-.2-.79-.8-.78C37.57,69,35.9,68.93,34.22,68.93Z"></path><path class="cls-11" d="M34.18,92.57c2.39,0,4.77,0,7.16,0,.61,0,.8.2.79.8,0,1.59,0,3.18,0,4.77,0,.54-.17.75-.72.75q-7.24,0-14.5,0c-.55,0-.74-.22-.74-.75,0-1.61,0-3.23,0-4.84,0-.54.19-.73.74-.73C29.33,92.59,31.76,92.57,34.18,92.57Zm0,4.13h4.63c1.38,0,1.18.15,1.23-1.26,0-.59-.15-.8-.77-.79-3.22,0-6.44,0-9.66,0-1.44,0-1.25-.2-1.29,1.32,0,.54.15.74.71.73C30.74,96.68,32.46,96.7,34.18,96.7Z"></path><path class="cls-11" d="M39.79,64.93H38.07c-.35,0-.55-.15-.54-.51v-.07c0-1.89-.11-1.55,1.46-1.57.84,0,1.67,0,2.51,0,.41,0,.58.16.6.58.09,1.59.1,1.59-1.45,1.59h-.86Z"></path><path class="cls-11" d="M32,62.77c1.08,0,1.08,0,1.08,1.09s0,1.08-1.09,1.08-1.08,0-1.08-1.1S30.91,62.77,32,62.77Z"></path><path class="cls-11" d="M36.39,63.86c0,1.08,0,1.08-1.1,1.08s-1.07,0-1.07-1.1,0-1.07,1.09-1.07S36.39,62.77,36.39,63.86Z"></path></g><rect class="cls-12" x="99.14" y="48.83" width="1.29" height="67.48"></rect></svg>