<svg xmlns="http://www.w3.org/2000/svg" id="Layer_1" data-name="Layer 1" viewBox="0 0 420.44 170.07"><defs><style>.cls-1,.cls-2{fill:none;}.cls-2{fill-rule:evenodd;}.cls-3,.cls-4{fill:#4d4d4f;}.cls-4{font-size:15px;}.cls-4,.cls-9{font-family:OpenSans-Bold, Open Sans;font-weight:700;}.cls-5,.cls-6,.cls-7{font-family:OpenSans, Open Sans;font-weight:400;}.cls-5{letter-spacing:2.1em;}.cls-6{letter-spacing:0em;}.cls-8{letter-spacing:1.86em;}.cls-10{letter-spacing:0.27em;}.cls-11{letter-spacing:0.27em;}.cls-12{fill:#f68723;}</style></defs><polyline class="cls-1" points="92.52 51.51 22.16 51.51 22.16 121.88 92.52 121.88"></polyline><polyline class="cls-1" points="92.52 51.51 22.16 51.51 22.16 121.88 92.52 121.88"></polyline><polyline class="cls-2" points="92.52 51.51 22.16 51.51 22.16 121.88"></polyline><g id="Page-1"><g id="_019---Connections" data-name="019---Connections"><path id="Shape" class="cls-3" d="M82.06,58.65a9.56,9.56,0,0,0-3.3.58V55.36A4.38,4.38,0,0,0,74.37,51H43.61a4.38,4.38,0,0,0-4.38,4.39v3.87a9.88,9.88,0,1,0,0,18.62v34.62a4.39,4.39,0,0,0,4.38,4.39H74.36a4.39,4.39,0,0,0,4.39-4.39V77.85a9.89,9.89,0,1,0,3.31-19.2ZM67.44,53.17,66,54.67a2.19,2.19,0,0,1-1.59.7H53.56a2.27,2.27,0,0,1-1.61-.7l-1.4-1.5Zm-26,2.19a2.19,2.19,0,0,1,2.2-2.2h3.91l2.82,3a4.37,4.37,0,0,0,3.2,1.39H64.44a4.37,4.37,0,0,0,3.2-1.39l2.81-3h3.91a2.2,2.2,0,0,1,2.2,2.2v5a9.86,9.86,0,0,0-3.27,12.78l-6.65,10a13.21,13.21,0,0,0-6.55-2.42V78.35a9.89,9.89,0,1,0-2.22,0v2.32a13,13,0,0,0-6.55,2.42l-6.65-10a9.88,9.88,0,0,0-3.27-12.8Zm11,47.2a6.56,6.56,0,0,1,3-5.47,6.55,6.55,0,0,0,7.25,0,6.56,6.56,0,0,1,3,5.47,10.88,10.88,0,0,1-13.17,0ZM59,96a4.39,4.39,0,1,1,4.39-4.39A4.38,4.38,0,0,1,59,96Zm8.56,4.67a8.71,8.71,0,0,0-3.29-5.11,6.59,6.59,0,1,0-10.53,0,8.71,8.71,0,0,0-3.29,5.11,11,11,0,1,1,17.11,0ZM65.22,73a6.52,6.52,0,0,0-2.49-3.29,4.43,4.43,0,0,0-.88-5.65,4.39,4.39,0,0,0-6.59,5.65A6.7,6.7,0,0,0,52.76,73a7.68,7.68,0,1,1,12.46,0Zm-8.43-5.57a2.2,2.2,0,1,1,2.2,2.2,2.2,2.2,0,0,1-2.2-2.2Zm.11,3.84a4.23,4.23,0,0,0,4.19,0,4.35,4.35,0,0,1,2.27,3.57,7.64,7.64,0,0,1-8.74,0,4.38,4.38,0,0,1,2.28-3.57ZM28.25,68.54A7.68,7.68,0,1,1,42.16,73a6.53,6.53,0,0,0-2.5-3.29,4.39,4.39,0,1,0-7.46,0A6.7,6.7,0,0,0,29.7,73,7.58,7.58,0,0,1,28.25,68.54Zm5.48-1.1a2.2,2.2,0,1,1,2.2,2.2A2.2,2.2,0,0,1,33.73,67.44Zm-2.17,7.41a4.38,4.38,0,0,1,2.26-3.57,4.25,4.25,0,0,0,4.2,0,4.36,4.36,0,0,1,2.26,3.57A7.61,7.61,0,0,1,31.56,74.85Zm42.81,39.81H43.61a2.2,2.2,0,0,1-2.2-2.2v-1.71a4.28,4.28,0,0,0,2.2.6H74.36a4.49,4.49,0,0,0,2.2-.6v1.71A2.19,2.19,0,0,1,74.37,114.66ZM76.56,107a2.2,2.2,0,0,1-2.2,2.2H43.61a2.2,2.2,0,0,1-2.2-2.2V76.75a10,10,0,0,0,1.92-1.7l6.31,9.46a13.18,13.18,0,1,0,18.67,0l6.31-9.46a10.66,10.66,0,0,0,1.91,1.7V107Zm1.12-32.13a4.38,4.38,0,0,1,2.26-3.57,4.25,4.25,0,0,0,4.2,0,4.35,4.35,0,0,1,2.27,3.57A7.63,7.63,0,0,1,77.68,74.85Zm4.38-5.21a2.2,2.2,0,1,1,2.2-2.2A2.21,2.21,0,0,1,82.06,69.64ZM88.28,73a6.52,6.52,0,0,0-2.49-3.29,4.39,4.39,0,1,0-7.47,0A6.69,6.69,0,0,0,75.83,73a7.68,7.68,0,1,1,12.45,0Z"></path></g></g><text class="cls-4" transform="translate(118.1 59.6)">Strengthen<tspan class="cls-5" x="83.87" y="0"> </tspan><tspan class="cls-6" x="119.2" y="0">domestic</tspan><tspan class="cls-5" x="183.21" y="0"> </tspan><tspan class="cls-7" x="218.54" y="0">resource </tspan><tspan class="cls-7"><tspan x="0" y="18">mobilization,</tspan><tspan class="cls-8" x="89.98" y="18"> </tspan><tspan x="121.74" y="18">improve</tspan><tspan class="cls-8" x="179.79" y="18"> </tspan><tspan class="cls-9" x="211.55" y="18">domestic </tspan></tspan><tspan x="0" y="36">capacity</tspan><tspan class="cls-10" x="62.66" y="36"> </tspan><tspan x="70.66" y="36">for</tspan><tspan class="cls-10" x="92.56" y="36"> </tspan><tspan x="100.56" y="36">tax</tspan><tspan class="cls-11" x="124.8" y="36"> </tspan><tspan x="132.8" y="36">and</tspan><tspan class="cls-10" x="161.21" y="36"> </tspan><tspan x="169.21" y="36">other</tspan><tspan class="cls-10" x="210.54" y="36"> </tspan><tspan x="218.53" y="36">revenue </tspan><tspan x="0" y="54">collection</tspan></text><rect class="cls-12" x="102.43" y="51.08" width="1.29" height="67.48"></rect></svg>