<svg xmlns="http://www.w3.org/2000/svg" id="Layer_1" data-name="Layer 1" viewBox="0 0 471.53 170.07"><defs><style>.cls-1{font-size:15px;font-family:OpenSans-Bold, Open Sans;font-weight:700;}.cls-1,.cls-10{fill:#4d4d4f;}.cls-2,.cls-4{letter-spacing:0.05em;}.cls-3{letter-spacing:0em;}.cls-4,.cls-5,.cls-6,.cls-7{font-family:OpenSans, Open Sans;font-weight:400;}.cls-6{letter-spacing:0.05em;}.cls-7{letter-spacing:0em;}.cls-8{letter-spacing:0.08em;}.cls-9{letter-spacing:0.08em;}.cls-11{fill:#f68723;}</style></defs><text class="cls-1" transform="translate(114.47 68.37)">Improve<tspan class="cls-2" x="62.68" y="0"> </tspan><tspan x="67.39" y="0">planning,</tspan><tspan class="cls-2" x="137.49" y="0"> </tspan><tspan class="cls-3" x="142.2" y="0">administration</tspan><tspan class="cls-4" x="254.57" y="0"> </tspan><tspan class="cls-5" x="259.27" y="0">and</tspan><tspan class="cls-6" x="286.01" y="0"> </tspan><tspan class="cls-7" x="290.72" y="0">access </tspan><tspan class="cls-5"><tspan x="0" y="18">to</tspan><tspan class="cls-8" x="14.36" y="18"> </tspan><tspan x="19.43" y="18">urban</tspan><tspan class="cls-9" x="61.5" y="18"> </tspan><tspan x="66.57" y="18">services</tspan><tspan class="cls-8" x="122.29" y="18"> </tspan><tspan x="127.36" y="18">through</tspan><tspan class="cls-8" x="183.68" y="18"> </tspan><tspan x="188.75" y="18">digital</tspan><tspan class="cls-9" x="231.18" y="18"> </tspan><tspan x="236.26" y="18">platforms</tspan><tspan class="cls-8" x="304.26" y="18"> </tspan><tspan x="309.33" y="18">and </tspan><tspan x="0" y="36">tools</tspan></tspan></text><g id="EL1Qji.tif"><path class="cls-10" d="M54.27,50.94a4.25,4.25,0,0,1,3.27,3.69A4.11,4.11,0,0,1,55.14,59a1.11,1.11,0,0,0-.74,1.21c0,2.59,0,5.19,0,7.78,0,.66.22.86.86.94a14.16,14.16,0,0,1,7.8,3.56c.4.36.64.4,1,0,.74-.8,1.52-1.55,2.3-2.31a1.1,1.1,0,0,0,.36-.82c0-1.7,0-3.41,0-5.12,0-.49-.27-.63-.62-.81a3.62,3.62,0,0,1-1.35-5.2,3.67,3.67,0,0,1,5.28-.81,3.61,3.61,0,0,1-.58,6,1.06,1.06,0,0,0-.65,1.14c0,1.3,0,2.61,0,3.92,0,.53.13.77.7.74,1,0,2.09,0,3.13,0a.73.73,0,0,0,.8-.51A4.28,4.28,0,0,1,77.85,66a4.27,4.27,0,1,1-4.26,6.12,1.1,1.1,0,0,0-1.2-.77c-1.22,0-2.44,0-3.66,0a1.16,1.16,0,0,0-.89.35c-.8.83-1.61,1.65-2.44,2.45a.55.55,0,0,0-.07.85A14.59,14.59,0,0,1,68,82c0,.38.23.47.56.47h9.52a.69.69,0,0,0,.68-.41,3.64,3.64,0,0,1,3.8-2.1,3.69,3.69,0,0,1,3,3,.67.67,0,0,0,.07.18V84a3.63,3.63,0,0,1-3.05,3.1,3.42,3.42,0,0,1-3.74-1.81,1,1,0,0,0-1-.63q-4.52,0-9,0c-.52,0-.77.1-.84.7a14.74,14.74,0,0,1-2.46,6.54,1.06,1.06,0,0,1-1,.59,1.12,1.12,0,0,1-1-.81c-.16-.44.09-.77.31-1.1a12.82,12.82,0,0,0,2-5.58,12.24,12.24,0,0,0-2.69-9.26,12.47,12.47,0,0,0-17.21-2.39,12.61,12.61,0,0,0-.51,20.07c.15.13.31.24.46.38a1,1,0,0,1,.19,1.53,1,1,0,0,1-1.48.16A14.7,14.7,0,0,1,38.65,85.3c0-.5-.27-.68-.77-.68H28.63a.82.82,0,0,0-.82.52,3.51,3.51,0,0,1-4,1.89,3.59,3.59,0,0,1-.39-6.9,3.49,3.49,0,0,1,4.32,1.66,1.13,1.13,0,0,0,1.19.67c3,0,6,0,8.92,0,.54,0,.75-.2.8-.71a14,14,0,0,1,2.56-6.7c.29-.41.29-.65-.08-1-.79-.74-1.55-1.51-2.31-2.3a1.33,1.33,0,0,0-1.06-.43c-1.26,0-2.52,0-3.79,0a.76.76,0,0,0-.84.55,4.27,4.27,0,0,1-4,2.65,4.22,4.22,0,0,1-4-2.82A4.26,4.26,0,0,1,33,68.39a1.12,1.12,0,0,0,1.25.77c1,0,1.91,0,2.86,0,.43,0,.59-.16.59-.59,0-1.46,0-2.93,0-4.39,0-.49-.28-.63-.63-.82a3.6,3.6,0,0,1-1.89-3.41,3.54,3.54,0,0,1,2.59-3.2,3.59,3.59,0,0,1,4.31,2,3.55,3.55,0,0,1-1.59,4.62,1,1,0,0,0-.62,1c0,1.59,0,3.19,0,4.79a1.36,1.36,0,0,0,.43,1.06c.76.72,1.51,1.45,2.21,2.21.37.4.61.34,1,0a14.76,14.76,0,0,1,7.41-3.53c1.29-.23,1.29-.24,1.29-1.53,0-2.49,0-5,0-7.46,0-.37,0-.65-.47-.83A4.27,4.27,0,0,1,52,51.05l.24-.11ZM29.2,72.34a2.11,2.11,0,0,0,2.13-2.08,2.14,2.14,0,0,0-4.27,0A2.11,2.11,0,0,0,29.2,72.34ZM55.42,55.16a2.11,2.11,0,1,0-2.18,2.12A2.11,2.11,0,0,0,55.42,55.16Zm19.9,15.08a2.11,2.11,0,1,0,4.21-.07,2.06,2.06,0,0,0-2.15-2A2,2,0,0,0,75.32,70.24ZM37.39,60.17a1.44,1.44,0,1,0,1.42-1.45A1.44,1.44,0,0,0,37.39,60.17ZM80.63,83.49A1.4,1.4,0,0,0,82,85a1.45,1.45,0,0,0,1.49-1.45,1.41,1.41,0,0,0-1.45-1.42A1.31,1.31,0,0,0,80.63,83.49ZM67.79,58.72a1.47,1.47,0,1,0,0,2.94,1.52,1.52,0,0,0,1.47-1.43A1.5,1.5,0,0,0,67.79,58.72ZM26,83.52a1.33,1.33,0,0,0-1.42-1.41,1.38,1.38,0,0,0-1.45,1.46A1.44,1.44,0,0,0,24.63,85,1.4,1.4,0,0,0,26,83.52Z"></path><path class="cls-10" d="M49.69,102.12c0-3.28,0-6.36,0-9.44,0-.36-.2-.5-.48-.64-3.68-1.87-5.35-5-5.36-9a8,8,0,0,1,.81-3.34c.35-.76.84-1,1.46-.74s.84.83.51,1.61a7.31,7.31,0,0,0,2.57,9l.34.2c.24-.15.14-.38.14-.55,0-1.42,0-2.84,0-4.26a3.45,3.45,0,0,1,6.88-.42c.19,1.53,0,3.06.09,4.59,0,.23-.12.55.15.67s.44-.15.63-.28a7.3,7.3,0,0,0-7.17-12.65l-.36.17a1,1,0,0,1-1.46-.46A1,1,0,0,1,49,75.13a8.8,8.8,0,0,1,6.76-.71,9.3,9.3,0,0,1,7,8.86,9.05,9.05,0,0,1-5.12,8.61,1.52,1.52,0,0,0-1,1.69c.06,1,0,1,1,1h6.92a4.88,4.88,0,0,1,5,5c0,.67,0,1.33,0,2s-.41,1.26-1.06,1.26-1-.46-1-1.21-.06-1.69-.11-2.53a2.62,2.62,0,0,0-1.79-2.26c-.38-.12-.55-.05-.55.37s0,1,0,1.53a1,1,0,0,1-1,1.09,1,1,0,0,1-1.15-1,14.26,14.26,0,0,1,0-1.46c0-.41-.13-.62-.57-.62-1.81,0-1.46-.13-1.5,1.4v.4c0,.92-.31,1.31-1,1.31s-1.06-.39-1.06-1.34c0-.43,0-.85,0-1.27s-.13-.5-.47-.5h-.14c-1.46-.08-1.46-.08-1.47,1.38a4.7,4.7,0,0,1-.08.92.91.91,0,0,1-1,.81,1,1,0,0,1-1-.92,5,5,0,0,1,0-.67V85.42a2.08,2.08,0,0,0-.19-1.1,1.24,1.24,0,0,0-1.39-.68,1.18,1.18,0,0,0-1,1.14c0,.29,0,.58,0,.87V104c0,.33,0,.66,0,1A1.06,1.06,0,0,1,51,106.1a1.09,1.09,0,0,1-1.21-.48L46,101a7,7,0,0,0-.57-.65,1.37,1.37,0,0,0-1.86-.12,1.28,1.28,0,0,0-.15,1.8c1,1.28,2.09,2.53,3.15,3.78q2.49,3,5,6a1.89,1.89,0,0,1,.5,1.32c0,1.62,0,3.24,0,4.86,0,.8-.36,1.17-1,1.17s-1-.39-1-1.17c0-1.37,0-2.75,0-4.13a1.55,1.55,0,0,0-.39-1.08q-3.84-4.55-7.65-9.13a3.44,3.44,0,0,1,1.72-5.77A3.29,3.29,0,0,1,47.07,99C47.92,100,48.74,101,49.69,102.12Z"></path><path class="cls-10" d="M64.37,116a2.54,2.54,0,0,0,0-.39,3.63,3.63,0,0,1,1.23-3.37,6.35,6.35,0,0,0,1.94-4.73c0-.84.43-1.32,1.1-1.31s1.12.53,1.07,1.4a9.42,9.42,0,0,1-2.62,6.23,1.83,1.83,0,0,0-.55,1.42c0,.93,0,1.86,0,2.79,0,.74-.36,1.13-1,1.14a1,1,0,0,1-1.12-1c0-.7,0-1.42,0-2.13Z"></path></g><rect class="cls-11" x="102.04" y="51.24" width="1.29" height="67.48"></rect></svg>