<svg xmlns="http://www.w3.org/2000/svg" id="Layer_1" data-name="Layer 1" viewBox="0 0 420.44 170.07"><defs><style>.cls-1{font-size:15px;font-family:OpenSans, Open Sans;}.cls-1,.cls-8{fill:#4d4d4f;}.cls-2,.cls-4{letter-spacing:0.98em;}.cls-3,.cls-4,.cls-5{font-family:OpenSans-Bold, Open Sans;font-weight:700;}.cls-5{letter-spacing:0.98em;}.cls-6{letter-spacing:0.13em;}.cls-7{letter-spacing:0.13em;}.cls-9{fill:#f68723;}</style></defs><text class="cls-1" transform="translate(111.69 59.88)">Meaningful<tspan class="cls-2" x="78.81" y="0"> </tspan><tspan class="cls-3" x="97.34" y="0">public</tspan><tspan class="cls-4" x="143.05" y="0"> </tspan><tspan class="cls-3" x="161.58" y="0">participation</tspan><tspan class="cls-5" x="259.11" y="0"> </tspan><tspan x="277.65" y="0">in </tspan><tspan x="0" y="18">decision</tspan><tspan class="cls-6" x="57.76" y="18"> </tspan><tspan x="63.61" y="18">making,</tspan><tspan class="cls-6" x="118.68" y="18"> </tspan><tspan x="124.53" y="18">planning</tspan><tspan class="cls-7" x="185.49" y="18"> </tspan><tspan x="191.34" y="18">and</tspan><tspan class="cls-6" x="218.08" y="18"> </tspan><tspan x="223.94" y="18">follow</tspan><tspan class="cls-6" x="266.4" y="18"> </tspan><tspan x="272.25" y="18">up </tspan><tspan x="0" y="36">through inclusive platforms.</tspan></text><g id="V2UcDA.tif"><path class="cls-8" d="M83.77,67.42a2.46,2.46,0,0,1-2.1,1.47c-.36,0-.71.15-1.06.21-1.21.22-1.57,1.05-.9,2.05.3.46.63.92.91,1.39a2,2,0,0,1-.22,2.54,20.34,20.34,0,0,1-1.54,1.54,2,2,0,0,1-2.53.2l-.43-.28c-.92-.61-.92-.61-1.78,0a2.57,2.57,0,0,1-1,.4,11.48,11.48,0,0,1-1.63.33,1.93,1.93,0,0,0-2,1.6,1,1,0,0,0,.11.94c.5.71,1,1.44,1.46,2.18a2.23,2.23,0,0,1-.29,3c-.55.59-1.13,1.16-1.72,1.72a2.24,2.24,0,0,1-3,.27c-.7-.44-1.4-.9-2.07-1.39a1.23,1.23,0,0,0-1.18-.12,1.84,1.84,0,0,0-1.46,1.87A12.28,12.28,0,0,1,61,89.19a2.11,2.11,0,0,1-1.9,1.73,12.53,12.53,0,0,1-3.12,0A2.15,2.15,0,0,1,54,89.16c-.21-.88-.38-1.76-.53-2.64a1.13,1.13,0,0,0-.68-.82,1.91,1.91,0,0,0-2.47.3,9.48,9.48,0,0,1-1.55,1,2.12,2.12,0,0,1-2.71-.26,23.47,23.47,0,0,1-2-2,2.12,2.12,0,0,1-.18-2.72c.48-.76,1-1.5,1.49-2.23a1,1,0,0,0,.1-1,1.9,1.9,0,0,0-1.95-1.55,10.66,10.66,0,0,1-1.63-.32,2.31,2.31,0,0,1-2-2.32c0-.81,0-1.63,0-2.44A2.34,2.34,0,0,1,42,69.84c.82-.17,1.63-.34,2.45-.48a1,1,0,0,0,.74-.59,1.92,1.92,0,0,0-.26-2.53,9.4,9.4,0,0,1-1-1.43,2.21,2.21,0,0,1,.3-3c.56-.59,1.14-1.16,1.72-1.72a2.23,2.23,0,0,1,2.93-.31c.78.49,1.53,1,2.28,1.54a.9.9,0,0,0,.83.08,2,2,0,0,0,1.66-2.07,9.14,9.14,0,0,1,.34-1.7,2.22,2.22,0,0,1,2.31-1.81,9.93,9.93,0,0,1,1.22,0,2.86,2.86,0,0,0,2.72-1,1.83,1.83,0,0,1,2.47-.22c.56.34,1.1.73,1.65,1.09A1.19,1.19,0,0,0,66.14,55c.12-.59.21-1.18.33-1.76a2.07,2.07,0,0,1,2.23-1.79h1.85a1.92,1.92,0,0,1,2,1.55c.17.62.26,1.26.39,1.88a1.18,1.18,0,0,0,1.85.78c.5-.33,1-.68,1.49-1A2,2,0,0,1,79,55c.48.46,1,.93,1.4,1.41A2,2,0,0,1,80.63,59c-.34.54-.72,1.06-1.06,1.6a1.17,1.17,0,0,0,.73,1.77c.5.11,1,.23,1.51.3a2.36,2.36,0,0,1,2,1.46Zm-36-5.56a.55.55,0,0,0-.47.24c-.33.33-.64.68-1,1a.55.55,0,0,0-.09.87c.62.87,1.19,1.77,1.79,2.65A1.26,1.26,0,0,1,48.08,68a13.36,13.36,0,0,0-1,2.53,1.21,1.21,0,0,1-1,.89c-.65.12-1.29.26-1.94.39-1.89.36-1.88.35-1.81,2.28,0,.39.14.57.53.64,1,.19,2,.41,3.08.61a1.43,1.43,0,0,1,1.2,1.09A9.56,9.56,0,0,0,48,78.62a1.38,1.38,0,0,1-.11,1.66c-.35.49-.67,1-1,1.49-1.06,1.58-1,1.57.34,2.88a.59.59,0,0,0,.88.07c.84-.59,1.71-1.13,2.55-1.72a1.38,1.38,0,0,1,1.61-.1,10.22,10.22,0,0,0,2.24.94A1.39,1.39,0,0,1,55.57,85c.14.73.27,1.46.43,2.19.39,1.76,0,1.42,1.73,1.46.13,0,.26,0,.38,0,.48.06.69-.14.77-.62.18-1,.42-2.09.63-3.14a1.2,1.2,0,0,1,.87-1,12.84,12.84,0,0,0,2.48-1,1.28,1.28,0,0,1,1.45.1c.53.36,1,.72,1.6,1.06s1,1,1.5.89.88-.81,1.36-1.2.31-.57.07-.92c-.58-.82-1.11-1.68-1.69-2.5A1.45,1.45,0,0,1,67,78.62a8.65,8.65,0,0,0,.9-2.18,1.41,1.41,0,0,1,1.27-1.1c.61-.11,1.21-.25,1.82-.37,1.75-.36,1.74-.36,1.71-2.16,0-.46-.14-.7-.63-.78-1-.17-2-.4-3-.58A1.42,1.42,0,0,1,68,70.37,10.19,10.19,0,0,0,67,68.13a1.34,1.34,0,0,1,.09-1.56c.36-.51.7-1,1-1.54,1-1.56,1-1.56-.33-2.88a.58.58,0,0,0-.88-.08c-.86.6-1.74,1.17-2.61,1.75a1.27,1.27,0,0,1-1.44.12,13.12,13.12,0,0,0-2.42-1,1.31,1.31,0,0,1-1-1.08c-.11-.63-.24-1.26-.38-1.88-.48-2.11.07-1.74-2.18-1.8-.52,0-.72.21-.81.68-.16,1-.37,1.89-.54,2.83A1.44,1.44,0,0,1,54.44,63a9.51,9.51,0,0,0-2.18.92,1.35,1.35,0,0,1-1.56-.08c-.84-.59-1.7-1.15-2.55-1.72Zm21.92-2.79.69.09A6.6,6.6,0,0,1,74.7,70.05c-.23.27-.32.44,0,.74A1.6,1.6,0,0,1,75.07,72a1.65,1.65,0,0,0,1.08,1.87,3.83,3.83,0,0,1,.42.28c1,.61.7.73,1.66-.18.31-.29.28-.5.06-.81-.45-.63-.86-1.28-1.29-1.92a1.22,1.22,0,0,1-.07-1.38,8.66,8.66,0,0,0,.77-1.83,1.27,1.27,0,0,1,1.07-1c.71-.14,1.41-.34,2.13-.42s.64-.46.65-.94-.07-.85-.67-.92-1.38-.29-2.07-.41a1.28,1.28,0,0,1-1.12-1A7,7,0,0,0,77,61.7a1.35,1.35,0,0,1,.1-1.61c.43-.61.83-1.25,1.26-1.85.2-.28.2-.49-.07-.71a2.44,2.44,0,0,1-.45-.46c-.26-.33-.5-.29-.81-.06-.61.43-1.24.84-1.86,1.26a1.29,1.29,0,0,1-1.5.08,7.38,7.38,0,0,0-1.76-.74,1.28,1.28,0,0,1-1-1.07c-.14-.75-.35-1.49-.45-2.25s-.5-.53-.9-.53-.81-.08-.9.53-.29,1.46-.43,2.2a1.36,1.36,0,0,1-1,1.12,7.55,7.55,0,0,0-1.76.74,1.3,1.3,0,0,1-1.5-.1c-.6-.41-1.2-.81-1.81-1.2-.2-.13-.39-.41-.66-.15s-.54.42-.43.86c.2.87.36,1.75.54,2.63,0,.2,0,.43.29.53.88.39,1.76,1,2.64,0,.17-.18.44-.26.63-.43C66.46,59.27,68.14,59.37,69.66,59.07Zm1,2.54c1.1,1.64,1.09,2.16,0,3.75a9.91,9.91,0,0,1-.68,1,1.69,1.69,0,0,0-.26,2.22,1.76,1.76,0,0,0,2.27.73A4.33,4.33,0,0,0,74,65.13,4.24,4.24,0,0,0,70.69,61.61Z"></path><path class="cls-8" d="M43.66,117.14a2.21,2.21,0,0,1-.79-1.35A16.09,16.09,0,0,0,40,110.05c-.11-.13-.23-.25-.35-.38a1.56,1.56,0,0,0-2-.46,63.85,63.85,0,0,1-8,2.39,4.07,4.07,0,0,1-4.75-2.23,6.4,6.4,0,0,1-.52-4.3l.15-.69a1.27,1.27,0,0,0-.75-1.53,6.05,6.05,0,0,1-.55-.32,1.82,1.82,0,0,1-.94-2.43c.12-.39.11-.64-.23-.87-1.39-.94-1.31-1.76-.6-3.07A11,11,0,0,0,22,95.08c.34-.82.21-1.19-.56-1.63-.56-.32-1.13-.61-1.67-.94-1.85-1.16-2.2-2.66-.92-4.44s2.61-3.49,3.71-5.37c.62-1.08,1.18-2.18,1.75-3.28a.84.84,0,0,0-.18-1.14c-.26-.25-.54-.48-.8-.73-1-1-1.76-2.21-1.13-3.61,1.3-2.86,1.86-6,3-8.85a17.61,17.61,0,0,1,12.41-11.4,71.09,71.09,0,0,1,12-2.09c1.47-.14,2.94-.1,4.41-.1a2.76,2.76,0,0,1,1.07.17,1.06,1.06,0,0,1,.72,1.16,1.09,1.09,0,0,1-1,1,1.6,1.6,0,0,1-.38,0,52.83,52.83,0,0,0-13.89,1.49,22,22,0,0,0-6.44,2.26c-3.52,2-5.59,5.11-7,8.79a23.19,23.19,0,0,0-.91,3.26,23.61,23.61,0,0,1-1.59,4.25c-.48,1.14-.45,1.21.44,2,.27.25.55.48.79.75a3.06,3.06,0,0,1,.54,3.66,46,46,0,0,1-5.3,8.52c-.89,1.13-.86,1.23.39,1.95.48.27,1,.51,1.45.81a3.12,3.12,0,0,1,1.41,3.72,4.77,4.77,0,0,1-.64,1.46c-.29.42-.19.68.22.92a4.51,4.51,0,0,1,.61.47c.74.61.83,1.06.31,1.87-.23.36-.27.54.16.79a3.37,3.37,0,0,1,1.75,4,5.18,5.18,0,0,0,.07,3.14,1.88,1.88,0,0,0,2.33,1.26,121,121,0,0,0,12.64-4,29,29,0,0,0,3.83-1.45,8.45,8.45,0,0,0,1.71-1.13,2.66,2.66,0,0,0,1-1.85c.06-.85.6-1.36,1.28-1.29a1.24,1.24,0,0,1,1,1.5,4.92,4.92,0,0,1-1.88,3.45,14.56,14.56,0,0,1-4.8,2.49c-.77.26-1.54.53-2.31.78-.4.12-.39.28-.15.57a16.29,16.29,0,0,1,3.3,6c.16.52.51.5.9.49,5.89-.16,11.79-.06,17.68-.1,1.84,0,3.67,0,5.51,0,.54,0,.62-.09.33-.59a25.23,25.23,0,0,1-2.87-8.57,30.24,30.24,0,0,1-.5-4.13A20.51,20.51,0,0,1,70.24,88c.9-1.2,1.82-2.38,2.61-3.65a14.67,14.67,0,0,0,1.78-4.17A2.17,2.17,0,0,1,74.7,80a1.16,1.16,0,1,1,2.24.61,18.72,18.72,0,0,1-3.35,6.85c-.92,1.26-1.89,2.48-2.71,3.81a18.14,18.14,0,0,0-2.41,12.31,29.74,29.74,0,0,0,2,8,12.88,12.88,0,0,0,1.21,2.18,7.92,7.92,0,0,1,.83,1.51c.4,1,.24,1.43-.7,1.93Z"></path><path class="cls-8" d="M42.65,58.44a1.23,1.23,0,0,1-1.08,1.17c-1.06.25-2.11.52-3.15.85-3.71,1.2-5.86,3.9-7.14,7.42-.29.82-.49,1.68-.71,2.52-.09.38-.25.53-.67.43-2-.48-1.79-.14-1.32-2.07a17.85,17.85,0,0,1,2-4.88,13.29,13.29,0,0,1,8.58-6.1c.68-.18,1.36-.34,2.06-.47A1.16,1.16,0,0,1,42.65,58.44Z"></path><path class="cls-8" d="M29.16,74.47A1.18,1.18,0,0,1,28,75.64a1.17,1.17,0,0,1-1.19-1.16A1.18,1.18,0,0,1,28,73.33,1.21,1.21,0,0,1,29.16,74.47Z"></path><path class="cls-8" d="M57.49,65.7a7.65,7.65,0,0,1,7.74,7.64,7.73,7.73,0,1,1-7.74-7.64Zm5.39,7.7A5.35,5.35,0,0,0,57.48,68a5.4,5.4,0,0,0,.05,10.8A5.34,5.34,0,0,0,62.88,73.4Z"></path><path class="cls-8" d="M57.54,74.54a1.16,1.16,0,0,1-1.18-1.11,1.19,1.19,0,0,1,1.18-1.18,1.17,1.17,0,0,1,1.14,1.14A1.16,1.16,0,0,1,57.54,74.54Z"></path></g><rect class="cls-9" x="96.67" y="54.12" width="1.29" height="67.48"></rect></svg>