<svg xmlns="http://www.w3.org/2000/svg" id="Layer_1" data-name="Layer 1" viewBox="0 0 471.53 170.07"><defs><style>.cls-1{font-size:15px;font-family:OpenSans-Bold, Open Sans;font-weight:700;}.cls-1,.cls-8{fill:#4d4d4f;}.cls-2,.cls-3{letter-spacing:0.13em;}.cls-3,.cls-4,.cls-5{font-family:OpenSans, Open Sans;font-weight:400;}.cls-5{letter-spacing:0.13em;}.cls-6{letter-spacing:0.9em;}.cls-7{letter-spacing:0.9em;}.cls-9{fill:#f68723;}</style></defs><text class="cls-1" transform="translate(113.42 70.29)">Provide<tspan class="cls-2" x="56.98" y="0"> </tspan><tspan x="62.79" y="0">basic</tspan><tspan class="cls-2" x="101.09" y="0"> </tspan><tspan x="106.9" y="0">services</tspan><tspan class="cls-3" x="167.17" y="0"> </tspan><tspan class="cls-4" x="172.98" y="0">to</tspan><tspan class="cls-3" x="187.34" y="0"> </tspan><tspan class="cls-4" x="193.15" y="0">all</tspan><tspan class="cls-3" x="209.08" y="0"> </tspan><tspan class="cls-4" x="214.89" y="0">citizens</tspan><tspan class="cls-5" x="266.71" y="0"> </tspan><tspan class="cls-4" x="272.52" y="0">including </tspan><tspan class="cls-4"><tspan x="0" y="18">access</tspan><tspan class="cls-6" x="45.35" y="18"> </tspan><tspan x="62.73" y="18">to</tspan><tspan class="cls-6" x="77.09" y="18"> </tspan><tspan x="94.47" y="18">housing,</tspan><tspan class="cls-7" x="154" y="18"> </tspan><tspan x="171.38" y="18">safe</tspan><tspan class="cls-6" x="200.38" y="18"> </tspan><tspan x="217.76" y="18">drinking</tspan><tspan class="cls-6" x="275.17" y="18"> </tspan><tspan x="292.55" y="18">water, </tspan><tspan x="0" y="36">sanitation, nutritious food and healthcare. </tspan></tspan></text><g id="el4iFO.tif"><path class="cls-8" d="M72.56,114.14c-.93-.79-1-1.32-.28-2.34,2.88-4.08,5.74-8.18,8.68-12.22a11.45,11.45,0,0,0,2.26-7c0-5.95,0-11.9,0-17.85a3.75,3.75,0,0,0-.12-1.11,1.58,1.58,0,0,0-3,.11,5.21,5.21,0,0,0-.1,1.11c0,4.86,0,9.71,0,14.56a8.5,8.5,0,0,1-2.35,6c-1.89,2.06-3.82,4.09-5.74,6.13a3.6,3.6,0,0,1-.41.37,1.29,1.29,0,0,1-1.71-.07,1.27,1.27,0,0,1-.12-1.7,12.38,12.38,0,0,1,.9-1q2.45-2.61,4.91-5.21a2.21,2.21,0,0,0,.71-1.78,1.82,1.82,0,0,0-2.73-1.51,51.37,51.37,0,0,0-6.11,4.26,15.4,15.4,0,0,0-5,8.66q-1,4.47-1.87,8.94a2.47,2.47,0,0,1-.91,1.7h-1a1.41,1.41,0,0,1-.81-1.64c.72-3.41,1.37-6.83,2.18-10.21a18,18,0,0,1,7.76-11l3.81-2.57a4.48,4.48,0,0,1,5.7,0,.42.42,0,0,0,.14,0c.17-.22.09-.48.09-.71V74.23a4.13,4.13,0,0,1,3.76-4.34,4.19,4.19,0,0,1,4.65,3.8c0,.64,0,1.29,0,1.93,0,5.86,0,11.73,0,17.6a11.93,11.93,0,0,1-2.16,7.07c-3.09,4.39-6.21,8.76-9.31,13.14a2.37,2.37,0,0,1-.77.71Z"></path><path class="cls-8" d="M48.29,114.14a2.49,2.49,0,0,1-.9-1.7c-.65-3.14-1.28-6.29-2-9.42a15.45,15.45,0,0,0-6.67-9.55l-3.91-2.65a2,2,0,0,0-2.7.14,2.1,2.1,0,0,0,.21,2.87l5.62,6a1.41,1.41,0,0,1,.41,1.53,1.23,1.23,0,0,1-1,.81,1.29,1.29,0,0,1-1.17-.44c-2.2-2.34-4.5-4.59-6.55-7.07a7.64,7.64,0,0,1-1.75-5c0-5,0-9.91,0-14.86a5.1,5.1,0,0,0-.1-1.11,1.58,1.58,0,0,0-3-.11,3.21,3.21,0,0,0-.12.93V92.88a10.43,10.43,0,0,0,2,6.35c.61.83,1.21,1.68,1.8,2.53a1.57,1.57,0,0,1,.39,1.15,1.28,1.28,0,0,1-.94,1.12,1.23,1.23,0,0,1-1.38-.48c-1.92-2.62-4-5.18-4.42-8.57V73.08A4.77,4.77,0,0,1,24,70.49a4.08,4.08,0,0,1,4.31-.09A4,4,0,0,1,30.41,74c0,4.6,0,9.2,0,13.8,0,.17,0,.33,0,.5s-.06.32.08.4.25-.08.36-.16a4.54,4.54,0,0,1,2.68-.84,3.91,3.91,0,0,1,2.07.54,61.09,61.09,0,0,1,6.24,4.3,18.73,18.73,0,0,1,6.47,11.38c.53,2.76,1.15,5.51,1.73,8.26.21,1,.08,1.39-.76,2Z"></path><path class="cls-8" d="M34.23,114.14a2.13,2.13,0,0,1-.69-.61c-.6-.84-1.22-1.67-1.78-2.54a1.28,1.28,0,0,1,.35-1.81,1.35,1.35,0,0,1,1.78.34c.63.85,1.25,1.71,1.83,2.59s.34,1.33-.49,2Z"></path><path class="cls-8" d="M62.14,89.78c-1.2,0-2.4,0-3.6,0a1.37,1.37,0,0,1-1.42-.9c-.29-.86.3-1.63,1.32-1.74C59.7,87,59.7,87,59.7,85.74c0-.4,0-.79,0-1.18A1.25,1.25,0,0,1,61,83.37a1.23,1.23,0,0,1,1.27,1.19c0,.66,0,1.33,0,2,0,.44.16.59.59.58,2.07,0,1.7.27,1.73-1.68A10.81,10.81,0,0,0,64.5,83a5,5,0,0,0-3.93-4c-.88-.23-1.78-.41-2.66-.65-.42-.11-.63,0-.8.42-.58,1.4-1.22,2.77-1.81,4.16-.27.65-.62,1.22-1.4,1.22s-1.11-.54-1.38-1.17c-.6-1.41-1.24-2.8-1.84-4.22a.58.58,0,0,0-.8-.41c-1.1.3-2.22.52-3.31.87a4.86,4.86,0,0,0-3.35,4.49c0,1,0,1.9,0,2.86,0,.39.16.56.56.56,2.18,0,1.71.28,1.76-1.63,0-.29,0-.58,0-.87a1.28,1.28,0,0,1,2.56,0c0,.67,0,1.33,0,2,0,.37.13.54.51.53a2.72,2.72,0,0,1,1.1.11,1.28,1.28,0,0,1,0,2.44,2.36,2.36,0,0,1-.79.11H42.23c-1.2,0-1.68-.49-1.69-1.72s0-2.57,0-3.85c0-.5-.16-.65-.65-.64-1.57,0-3.15,0-4.72,0-1.1,0-1.59-.48-1.59-1.6a13.36,13.36,0,0,1,.14-3.22,5.89,5.89,0,0,1,4.58-4.58c.54-.14,1.08-.25,1.63-.39.36-.1.45-.3.13-.56A5.9,5.9,0,0,1,37.92,68a20.89,20.89,0,0,1,.13-3.16,5.6,5.6,0,0,1,8.65-3.54c.37.25.5.21.72-.18a7.3,7.3,0,0,1,13,0c.21.39.34.45.73.19a5.61,5.61,0,0,1,8.73,4.56c0,1,0,2,0,3.05A5.46,5.46,0,0,1,68,73c-.16.15-.47.24-.41.5s.4.26.62.32c.68.2,1.37.34,2,.55a5.82,5.82,0,0,1,4,5.21c0,.85,0,1.7,0,2.55a1.31,1.31,0,0,1-1.46,1.41c-1.58,0-3.16,0-4.73,0-.58,0-.81.14-.79.76,0,1.28,0,2.57,0,3.85,0,1.09-.51,1.59-1.61,1.6S63.31,89.78,62.14,89.78ZM58.6,67.94c0-.26,0-.54,0-.8a.76.76,0,0,0-.45-.81c-.57-.3-1.12-.63-1.67-1a.49.49,0,0,0-.66,0,7.91,7.91,0,0,1-5.37,1.78c-1.36,0-1.29-.29-1.24,1.31a4.69,4.69,0,0,0,6.42,4.31C57.54,72.07,58.6,70.34,58.6,67.94Zm2.59,8.42c.07.06.09.1.13.11a7.77,7.77,0,0,1,5.18,4.22A.49.49,0,0,0,67,81c1.37,0,2.74,0,4.1,0,.31,0,.44-.14.47-.44a3.36,3.36,0,0,0-2.63-3.82c-.9-.23-1.81-.44-2.72-.65a1.45,1.45,0,0,1-1.3-1.3c-.07-.63-.58-.27-.89-.36s-.37.12-.4.38a1.33,1.33,0,0,1-1.1,1.2Zm-14.51,0L45.33,76a1.36,1.36,0,0,1-1.15-1.22c0-.27-.1-.46-.42-.38s-.8-.25-.86.39c-.08.79-.61,1.11-1.32,1.27L39,76.7a3.35,3.35,0,0,0-2.81,3.74c0,.43.18.57.6.57,1.24,0,2.49,0,3.73,0a.82.82,0,0,0,.85-.55,7.45,7.45,0,0,1,3.78-3.54C45.63,76.72,46.11,76.59,46.68,76.38Zm11.76-13a4.57,4.57,0,0,0-5.24-3.6,4.68,4.68,0,0,0-4,4.37c0,.29.11.4.39.41a6.12,6.12,0,0,0,5.16-1.76,1.4,1.4,0,0,1,2-.3A10.78,10.78,0,0,0,58.44,63.39Zm2.82,5.16a4.44,4.44,0,0,0,.09,1,3,3,0,0,0,3.05,2.25,3,3,0,0,0,2.8-2.53c.18-1,.18-1-.85-1a13.22,13.22,0,0,1-4.1-.5C61.26,67.47,61.26,67.47,61.26,68.55Zm-14.72,0V68.3c0-.84,0-.84-.83-.58a12.39,12.39,0,0,1-3.92.55c-1.31,0-1.5.27-1,1.53a2.77,2.77,0,0,0,.4.76,3,3,0,0,0,5.4-2Zm19.09-2.94c.33,0,.66,0,1,0s.65-.18.48-.65a3,3,0,0,0-5.28-.81c-.25.33-.28.54.18.73A8.89,8.89,0,0,0,65.63,65.61Zm-23.44,0a8.76,8.76,0,0,0,3.68-.76c.36-.15.38-.32.17-.61a3,3,0,0,0-2.9-1.31A3.06,3.06,0,0,0,40.68,65c-.1.38,0,.57.39.57S41.82,65.61,42.19,65.61ZM53.81,79.4H54c.38-.85.76-1.7,1.12-2.56a2.32,2.32,0,0,0,.15-.59c0-.38,0-.58-.5-.53a13.34,13.34,0,0,1-1.55,0c-.67,0-.85.13-.61.78C52.94,77.49,53.4,78.44,53.81,79.4Zm4.41-5,2.28-.58c.53-.14.56-.3.16-.69-.1-.1-.22-.18-.31-.29-.23-.29-.4-.26-.61,0A9.09,9.09,0,0,1,58.22,74.38Zm-8.88-.06-1-1.15c-.57-.65-.57-.65-1.22,0-.37.36-.34.53.15.66C48,74,48.73,74.16,49.34,74.32Z"></path><path class="cls-8" d="M49.7,55.24a1.26,1.26,0,0,1-1.9,1.23A5.74,5.74,0,0,1,46,54.68a1.15,1.15,0,0,1,.17-1.48,1.09,1.09,0,0,1,1.34-.34,5.37,5.37,0,0,1,2.1,2A.84.84,0,0,1,49.7,55.24Z"></path><path class="cls-8" d="M61.91,54.09c0,.85-1.72,2.6-2.57,2.59A1.24,1.24,0,0,1,58.22,56a1.18,1.18,0,0,1,0-1.3A6.15,6.15,0,0,1,60,53,1.26,1.26,0,0,1,61.91,54.09Z"></path><path class="cls-8" d="M55.17,52.57a10.44,10.44,0,0,1,0,1.12,1.27,1.27,0,0,1-2.53,0,19.64,19.64,0,0,1,0-2.17,1.22,1.22,0,0,1,1.26-1.13,1.24,1.24,0,0,1,1.27,1.13A9.2,9.2,0,0,1,55.17,52.57Z"></path><path class="cls-8" d="M52.62,88.42a1.28,1.28,0,1,1,2.55.1,1.28,1.28,0,1,1-2.55-.1Z"></path><path class="cls-8" d="M30.24,105.32a1.34,1.34,0,0,1,1.29,1.33,1.32,1.32,0,0,1-1.32,1.29A1.28,1.28,0,0,1,29,106.59,1.3,1.3,0,0,1,30.24,105.32Z"></path></g><rect class="cls-9" x="100.99" y="50.39" width="1.29" height="67.48"></rect></svg>