<svg xmlns="http://www.w3.org/2000/svg" id="Layer_1" data-name="Layer 1" viewBox="0 0 471.53 170.07"><defs><style>.cls-1{font-size:15px;}.cls-1,.cls-16{fill:#4d4d4f;}.cls-1,.cls-10,.cls-9{font-family:OpenSans, Open Sans;}.cls-2,.cls-6{letter-spacing:0.55em;}.cls-3,.cls-7{letter-spacing:0em;}.cls-4{letter-spacing:0.55em;}.cls-5,.cls-6,.cls-7{font-family:OpenSans-Bold, Open Sans;font-weight:700;}.cls-8,.cls-9{letter-spacing:0.2em;}.cls-10,.cls-9{font-weight:400;}.cls-11{letter-spacing:0.05em;}.cls-12{letter-spacing:0.35em;}.cls-13{letter-spacing:0em;}.cls-14{letter-spacing:0.35em;}.cls-15{fill:#f68723;}</style></defs><text class="cls-1" transform="translate(113.34 54.46)">By<tspan class="cls-2" x="17.28" y="0"> </tspan><tspan class="cls-3" x="29.41" y="0">2030,</tspan><tspan class="cls-4" x="67.39" y="0"> </tspan><tspan x="79.52" y="0">achieve</tspan><tspan class="cls-2" x="132.35" y="0"> </tspan><tspan class="cls-3" x="144.48" y="0">access</tspan><tspan class="cls-4" x="189.83" y="0"> </tspan><tspan x="201.96" y="0">to</tspan><tspan class="cls-4" x="216.32" y="0"> </tspan><tspan class="cls-5" x="228.45" y="0">adequate</tspan><tspan class="cls-6" x="299.65" y="0"> </tspan><tspan class="cls-7" x="311.77" y="0">and </tspan><tspan class="cls-5"><tspan x="0" y="18">equitable</tspan><tspan class="cls-8" x="71.29" y="18"> </tspan><tspan x="78.25" y="18">sanitation</tspan><tspan class="cls-8" x="155.01" y="18"> </tspan><tspan x="161.97" y="18">and</tspan><tspan class="cls-8" x="190.38" y="18"> </tspan><tspan x="197.34" y="18">hygiene</tspan><tspan class="cls-9" x="256.37" y="18"> </tspan><tspan class="cls-10" x="263.33" y="18">for</tspan><tspan class="cls-9" x="283.59" y="18"> </tspan><tspan class="cls-10" x="290.55" y="18">all</tspan><tspan class="cls-9" x="306.48" y="18"> </tspan><tspan class="cls-10" x="313.44" y="18">and </tspan></tspan><tspan x="0" y="36">end</tspan><tspan class="cls-11" x="26.81" y="36"> </tspan><tspan x="31.39" y="36">open</tspan><tspan class="cls-11" x="67.27" y="36"> </tspan><tspan x="71.84" y="36">defecation,</tspan><tspan class="cls-11" x="149.46" y="36"> </tspan><tspan x="154.04" y="36">paying</tspan><tspan class="cls-11" x="200.35" y="36"> </tspan><tspan x="204.93" y="36">special</tspan><tspan class="cls-11" x="252.76" y="36"> </tspan><tspan x="257.34" y="36">attention</tspan><tspan class="cls-11" x="321.25" y="36"> </tspan><tspan x="325.83" y="36">to </tspan><tspan x="0" y="54">the</tspan><tspan class="cls-12" x="22.92" y="54"> </tspan><tspan x="32.13" y="54">needs</tspan><tspan class="cls-12" x="74.52" y="54"> </tspan><tspan class="cls-13" x="83.74" y="54">of</tspan><tspan class="cls-12" x="97.88" y="54"> </tspan><tspan x="107.1" y="54">women</tspan><tspan class="cls-12" x="159.4" y="54"> </tspan><tspan x="168.62" y="54">and</tspan><tspan class="cls-12" x="195.36" y="54"> </tspan><tspan x="204.57" y="54">girls</tspan><tspan class="cls-14" x="233.66" y="54"> </tspan><tspan class="cls-3" x="242.88" y="54">and</tspan><tspan class="cls-14" x="269.62" y="54"> </tspan><tspan x="278.83" y="54">those</tspan><tspan class="cls-12" x="317.97" y="54"> </tspan><tspan x="327.18" y="54">in </tspan><tspan x="0" y="72">vulnerable situations</tspan></text><rect class="cls-15" x="98.85" y="47.33" width="1.29" height="77.48"></rect><g id="_9w9WKy.tif" data-name="9w9WKy.tif"><path class="cls-16" d="M42,120.66a6.12,6.12,0,0,1-3.28-4.52.68.68,0,0,0-.34-.53,3,3,0,0,1-1.52-2.93c0-.62.1-1.21-.77-1.38-.38-.07-.53-.51-.51-.92a.9.9,0,0,1,.65-.9c.58-.12.66-.48.63-1a4.45,4.45,0,0,1,0-.73.67.67,0,0,0-.56-.82.94.94,0,0,1-.71-1,1,1,0,0,1,.79-1c.39-.09.45-.3.48-.65a13.16,13.16,0,0,0-4.54-11.1,18.24,18.24,0,0,1-5.85-11.35,1.1,1.1,0,0,1,.86-1.33c.68-.1,1.16.31,1.26,1.11a15.78,15.78,0,0,0,3.66,8.39c1,1.14,2.11,2.12,3.09,3.24a15.21,15.21,0,0,1,3.32,6.44.81.81,0,0,0,.94.74c3.36,0,6.71,0,10.07,0,.54,0,.79-.15.91-.7a11.76,11.76,0,0,1,.86-2.48,1.07,1.07,0,1,1,2,.84,12.83,12.83,0,0,0-1.07,6.17c0,.36,0,.61.51.66a1,1,0,0,1,.86,1,1,1,0,0,1-.78,1c-.51.1-.63.38-.59.84a3.48,3.48,0,0,1,0,.79c0,.46.09.73.61.82a.93.93,0,0,1,.76,1,.91.91,0,0,1-.81,1c-.54.06-.56.35-.56.76a4.92,4.92,0,0,1-.18,2,2.21,2.21,0,0,1-.89,1.12,1.79,1.79,0,0,0-.87,1.36,6,6,0,0,1-3.11,4h-.92c-.87-.74-.84-1.44.13-2a3.94,3.94,0,0,0,1.71-2c.16-.43.11-.66-.43-.66H41.34c-.5,0-.49.22-.36.57a3.79,3.79,0,0,0,1.67,2c1,.62,1.08,1.26.23,2.09Zm2.5-15.73h4.22c1.62,0,1.43.25,1.47-1.48,0-.62-.17-.84-.82-.84-2.94,0-5.88,0-8.81,0-1.81,0-1.5-.28-1.56,1.58,0,.6.21.74.77.73C41.31,104.91,42.89,104.93,44.46,104.93Zm.11,6.55c-1.64,0-3.29,0-4.94,0-.53,0-.72.18-.66.69a2.26,2.26,0,0,1,0,.26c0,1.26.1,1.37,1.34,1.37H48.6c1.54,0,1.55,0,1.56-1.58,0-.6-.23-.75-.78-.74C47.77,111.5,46.17,111.48,44.57,111.48Zm-.11-2.15h4.42c1.27,0,1.27,0,1.26-1.24,0-1,0-1-1-1-2.9,0-5.79,0-8.69,0-1.74,0-1.46-.23-1.52,1.5,0,.58.2.76.76.75C41.3,109.31,42.88,109.33,44.46,109.33Z"></path><path class="cls-16" d="M71.22,79.92a1.4,1.4,0,0,1-1.49.84c-1.27,0-2.54,0-3.81,0-.82,0-1.31-.41-1.32-1.06s.49-1.07,1.31-1.09c1.29,0,2.59,0,3.88,0a1.36,1.36,0,0,1,1.43.93Z"></path><path class="cls-16" d="M57.29,79.66c0,.48,0,1,0,1.45a1.71,1.71,0,0,1-1.76,1.75c-.46,0-.93,0-1.39,0s-.56.19-.72.52a.61.61,0,0,0,.16.81,14.15,14.15,0,0,1,1,1,1.66,1.66,0,0,1,.07,2.33,31.41,31.41,0,0,1-2.23,2.24,1.63,1.63,0,0,1-2.23,0c-.39-.32-.73-.69-1.09-1a.63.63,0,0,0-.81-.22.72.72,0,0,0-.52.79c0,.44,0,.88,0,1.32a1.72,1.72,0,0,1-1.63,1.75,13.83,13.83,0,0,1-3.15,0,1.74,1.74,0,0,1-1.59-1.73q0-.69,0-1.38a.69.69,0,0,0-.51-.74.63.63,0,0,0-.81.19,14.13,14.13,0,0,1-1,1,1.68,1.68,0,0,1-2.43,0c-.69-.65-1.36-1.32-2-2a1.72,1.72,0,0,1,.05-2.53c.28-.3.58-.6.88-.89a.65.65,0,0,0,.24-.85.75.75,0,0,0-.84-.54,11.63,11.63,0,0,1-1.32,0,1.69,1.69,0,0,1-1.72-1.72c0-1,0-1.94,0-2.9a1.68,1.68,0,0,1,1.46-1.69,8.9,8.9,0,0,1,1.71-.06.64.64,0,0,0,.66-.43.68.68,0,0,0-.12-.84c-.36-.35-.72-.7-1-1.09a1.69,1.69,0,0,1,.07-2.43c.65-.68,1.32-1.35,2-2a1.71,1.71,0,0,1,2.44,0c.34.31.66.65,1,1s.42.41.79.23.59-.34.56-.77a11.63,11.63,0,0,1,0-1.32A1.74,1.74,0,0,1,43.19,67c.94,0,1.89,0,2.83,0a1.73,1.73,0,0,1,1.76,1.77,9.69,9.69,0,0,1,0,1.32.74.74,0,0,0,.53.8.66.66,0,0,0,.85-.23,11.78,11.78,0,0,1,.94-.93,1.7,1.7,0,0,1,2.48,0c.67.64,1.32,1.29,2,2a1.75,1.75,0,0,1,0,2.54c-.16.18-.35.33-.5.52-.3.38-.92.59-.62,1.3s.85.38,1.31.44.7,0,1,.07a1.68,1.68,0,0,1,1.49,1.73C57.3,78.74,57.29,79.2,57.29,79.66Zm-17,6.3a.83.83,0,0,1,.27.06,22.13,22.13,0,0,0,2.36,1,1,1,0,0,1,.62,1c0,.3,0,.61,0,.92,0,1.61-.29,1.4,1.51,1.42.4,0,.56-.15.55-.54,0-.55,0-1.1,0-1.65a1.16,1.16,0,0,1,.9-1.22,8.18,8.18,0,0,0,1.76-.73,1.17,1.17,0,0,1,1.55.25c.38.39.78.77,1.16,1.17.2.2.43.28.62,0,.32-.45,1-.63,1-1.34,0-.1-.17-.2-.26-.29-.35-.36-.71-.72-1.07-1.07A1.13,1.13,0,0,1,51,83.45a10.65,10.65,0,0,0,.78-1.88,1.12,1.12,0,0,1,1.06-.84c.28,0,.57,0,.86,0,1.51,0,1.41.31,1.4-1.54,0-.36-.15-.53-.51-.52-.55,0-1.1,0-1.65,0a1.14,1.14,0,0,1-1.18-.86c-.14-.41-.28-.83-.46-1.23-.66-1.42-.66-1.47.43-2.56s1.12-1.11-.1-2.2c-.25-.22-.42-.26-.65,0-.4.41-.81.8-1.21,1.21a1.12,1.12,0,0,1-1.49.23,8.68,8.68,0,0,0-1.76-.72,1.2,1.2,0,0,1-.92-1.22c0-.24,0-.48,0-.72,0-1.59.31-1.42-1.5-1.44-.4,0-.56.16-.55.55s0,1,0,1.52a1.23,1.23,0,0,1-1,1.32,8.12,8.12,0,0,0-1.7.7A1.14,1.14,0,0,1,39.37,73c-.15-.16-.31-.31-.47-.46-1.12-1.13-1.11-1.12-2.19.1-.22.25-.24.43,0,.66.41.4.81.81,1.21,1.22a1.16,1.16,0,0,1,.24,1.44,11.6,11.6,0,0,0-.79,1.89,1.09,1.09,0,0,1-1.13.82h-.79c-1.52,0-1.54,0-1.4,1.54,0,.36.17.52.52.52.53,0,1.06,0,1.59,0a1.18,1.18,0,0,1,1.21.83,12.24,12.24,0,0,0,.79,1.95A1.06,1.06,0,0,1,38,84.82c-.19.19-.37.38-.56.56-1.11,1.12-1.1,1.11.08,2.16.27.24.47.26.72,0s.78-.78,1.17-1.17A1.22,1.22,0,0,1,40.31,86Z"></path><path class="cls-16" d="M44.83,63.57A16.29,16.29,0,0,0,28.66,77.1c0,.15-.06.3-.09.45-.16.72-.63,1.11-1.22,1a1.09,1.09,0,0,1-.87-1.33,15.41,15.41,0,0,1,1.35-4.8c3-6.41,8-10.25,15.09-10.95A18.3,18.3,0,0,1,57.18,93l-1.49,1.49a1.07,1.07,0,1,1-1.59-1.41c.56-.62,1.16-1.21,1.75-1.79a15.81,15.81,0,0,0,4.9-11.9A16.11,16.11,0,0,0,47.07,63.72,17.94,17.94,0,0,0,44.83,63.57Z"></path><path class="cls-16" d="M21.29,80.75c-.7,0-1.41,0-2.11,0a1.08,1.08,0,0,1-1.17-1,1,1,0,0,1,1.07-1.11q2.24-.06,4.47,0a1,1,0,0,1,1,1.07,1.07,1.07,0,0,1-1.13,1C22.74,80.76,22,80.75,21.29,80.75Z"></path><path class="cls-16" d="M43.52,56.37c0-.68,0-1.36,0-2s.44-1.22,1.09-1.22,1,.46,1.06,1.24c0,1.36,0,2.73,0,4.09,0,.77-.43,1.22-1.08,1.21s-1.05-.45-1.07-1.24S43.52,57.05,43.52,56.37Z"></path><path class="cls-16" d="M59.49,93.52a1.21,1.21,0,0,1,.77.36c1,1,2,2,3,3a1.29,1.29,0,0,1,.46,1,1,1,0,0,1-.6.88A.93.93,0,0,1,62,98.57q-1.7-1.65-3.34-3.34a.9.9,0,0,1-.11-1.1A1.12,1.12,0,0,1,59.49,93.52Z"></path><path class="cls-16" d="M30.77,64.78a1.05,1.05,0,0,1-.6.94A1,1,0,0,1,29,65.53c-.64-.6-1.25-1.23-1.88-1.85-.43-.43-.88-.86-1.29-1.31a1.05,1.05,0,0,1,1.5-1.47c1,1,2,2,3,3A1.38,1.38,0,0,1,30.77,64.78Z"></path><path class="cls-16" d="M30.77,94.59a1.37,1.37,0,0,1-.45.9c-1,1-1.91,1.92-2.88,2.87a1.09,1.09,0,0,1-1.67.1c-.44-.47-.39-1,.19-1.61,1-1,2-2,3-3a1,1,0,0,1,1.19-.25A1.11,1.11,0,0,1,30.77,94.59Z"></path><path class="cls-16" d="M59.45,65.84a1,1,0,0,1-.9-.59.84.84,0,0,1,.09-1c1.13-1.17,2.27-2.33,3.45-3.44a.88.88,0,0,1,1.26.1.93.93,0,0,1,.22,1.25,2.8,2.8,0,0,1-.5.6c-.86.87-1.74,1.74-2.61,2.61A1.38,1.38,0,0,1,59.45,65.84Z"></path><path class="cls-16" d="M44.57,84.84a5.14,5.14,0,0,1-5.15-5.15,5.18,5.18,0,1,1,10.35,0A5.13,5.13,0,0,1,44.57,84.84Zm0-2.15a2.92,2.92,0,0,0,3-3,3,3,0,1,0-6-.09A2.92,2.92,0,0,0,44.59,82.69Z"></path></g></svg>