<svg xmlns="http://www.w3.org/2000/svg" id="Layer_1" data-name="Layer 1" viewBox="0 0 471.53 170.07"><defs><style>.cls-1,.cls-2{fill:#4d4d4f;}.cls-2{font-size:15px;}.cls-11,.cls-2{font-family:OpenSans-Bold, Open Sans;font-weight:700;}.cls-3,.cls-6{letter-spacing:0.16em;}.cls-4{letter-spacing:0.16em;}.cls-5,.cls-6{font-family:OpenSans, Open Sans;font-weight:400;}.cls-7{letter-spacing:0.07em;}.cls-8{letter-spacing:0.07em;}.cls-9{letter-spacing:-0.01em;}.cls-10{letter-spacing:-0.01em;}.cls-12{fill:#f68723;}</style></defs><g id="PkWQxk.tif"><path class="cls-1" d="M43.87,51H60.72c.35.36.68.73.44,1.29a1.17,1.17,0,0,1-1.27.67H46c-.34,0-.74-.08-.76.45s.37.49.72.49H70.64c.34,0,.74,0,.73-.48S71,53,70.63,53H66.45c-.55,0-1-.12-1.24-.71A1,1,0,0,1,65.73,51h7a1.61,1.61,0,0,1,.69.89,9.3,9.3,0,0,1,0,3.07.91.91,0,0,1-.6.78c-.75.18-.72.7-.72,1.28q0,19,0,38.08v.45c0,.44.15.56.53.29.6-.41,1.21-.81,1.82-1.21A3.94,3.94,0,0,1,77.6,94a3.78,3.78,0,0,1,3,2.89A3.91,3.91,0,0,1,79.2,101l-12,10.76a11.17,11.17,0,0,1-1.83,1.29,15.29,15.29,0,0,1-5.51,1.4c-5,.72-9.92,1.38-14.87,2.17A11.59,11.59,0,0,1,38.5,116c-3.39-1.43-6.88-2.64-10.32-4-.46-.18-.68-.21-.82.4A3.36,3.36,0,0,1,24,115.13c-.66,0-1.33,0-2,0a3.69,3.69,0,0,1-4.08-2.62v-3.09c.39-.36.78-.71,1.37-.43s.62.76.61,1.3,0,.81,0,1.22a1.46,1.46,0,0,0,1.56,1.58c.69,0,1.38,0,2.06,0,1.48,0,1.95-.48,1.95-2V91.2a5,5,0,0,0,0-.77,1.31,1.31,0,0,0-1.32-1.17c-1,0-1.92,0-2.89,0a1.25,1.25,0,0,0-1.23.95,2.77,2.77,0,0,0-.1,1v12.47c0,.55-.08,1.06-.65,1.28a1.08,1.08,0,0,1-1.33-.5V89.87a3.43,3.43,0,0,1,3.29-2.68,16.11,16.11,0,0,1,3.4.06,3.35,3.35,0,0,1,2.82,2.64c.24,1.09.24,1.09,1.39,1.1h.07C30,91,30,91,30,89.85,30,83.4,30,77,30,70.5c0-1.61.4-2.79,2.37-2.56.41,0,.57-.19.56-.59s0-1,0-1.48a1.55,1.55,0,0,1,1.59-1.73c2.31,0,4.62,0,6.94,0A1.5,1.5,0,0,1,43,65.7a14.43,14.43,0,0,1,0,1.61c0,.76.54.61,1,.64s.78,0,.78-.65c0-3.57,0-7.15,0-10.73,0-.39-.12-.58-.54-.63a1.24,1.24,0,0,1-1.16-1.18,14.7,14.7,0,0,1,0-2A1.93,1.93,0,0,1,43.87,51ZM27.45,101.35c0,2.51,0,5,0,7.53a.89.89,0,0,0,.67,1l12.57,4.74a4.12,4.12,0,0,0,2.08.27c1.27-.16,2.54-.37,3.81-.55,4.6-.67,9.19-1.39,13.8-2a10.72,10.72,0,0,0,6.42-2.87c2.64-2.54,5.43-4.92,8.16-7.37,1-.93,2.08-1.85,3.09-2.81A1.94,1.94,0,0,0,77.1,96a2.31,2.31,0,0,0-1.8.5l-11.7,7.84a2.69,2.69,0,0,1-1.74.5c-2.8-.13-5.59-.43-8.38-.7-3.32-.31-6.65-.65-10-1-1.21-.12-2.43-.24-3.64-.39a.94.94,0,0,1-.86-1,1,1,0,0,1,1-1,2.91,2.91,0,0,1,.51,0l3.45.34,8.63.85c1.42.14,2.85.29,4.28.42.65,0,.77-.11.58-.75a3.52,3.52,0,0,0-3.06-2.74q-3.89-.54-7.79-.91a21.91,21.91,0,0,1-9.17-2.68A17.48,17.48,0,0,0,28.36,93c-.91,0-.91,0-.91.95Zm30.4-2.94a6.25,6.25,0,0,1,1.66,2.94c.3,1.29.31,1.22,1.63,1.4a2.73,2.73,0,0,0,2-.55q3-2.08,6.09-4.08A1.44,1.44,0,0,0,70,96.76q0-19.92,0-39.82c0-1,0-1-1-1H47.85c-1,0-1,0-1,1V95c0,.2,0,.39,0,.58,0,.47.37.46.69.49s.38-.26.38-.52c0-.81,0-1.63,0-2.44,0-1.16.48-1.64,1.65-1.68,1,0,2,0,3,0,1.16,0,1.63.51,1.64,1.67s0,2.18,0,3.28c0,.47.32.53.7.56s.39-.3.39-.56c0-1.12,0-2.23,0-3.35s.47-1.55,1.52-1.59,2.19,0,3.28,0S61.53,92,61.53,93c0,1.29,0,2.58,0,3.86s-.46,1.58-1.61,1.6ZM32.05,80.58q0,4.86,0,9.71a3.37,3.37,0,0,0,0,.64c.08.42.44.44.76.45s.29-.3.29-.52c0-.39,0-.77,0-1.16,0-1.17.37-1.54,1.53-1.55h8.49c2,0,1.65.29,1.7-1.71,0-.59-.18-.8-.78-.79-2.16,0-4.33,0-6.49,0-1,0-1.93,0-2.9,0-1.13,0-1.54-.44-1.55-1.56,0-.68,0-1.37,0-2,0-1.23.37-1.6,1.63-1.6,2.78,0,5.57,0,8.36,0,2,0,1.68.3,1.73-1.75,0-.55-.18-.76-.75-.75-1.62,0-3.25,0-4.88,0H34.6c-1,0-1.45-.45-1.46-1.46q0-1.15,0-2.31c0-1,.43-1.42,1.4-1.44.67,0,1.33,0,2,0h7.39c.91,0,.92,0,.92-.88v-1c0-.82,0-.85-.82-.85H32.9c-.8,0-.84,0-.84.84C32.05,74.06,32.06,77.32,32.05,80.58Zm8-4.65c1.37,0,2.74,0,4.11,0,.44,0,.75-.06.74-.62s-.31-.58-.72-.57H35.86c-.42,0-.71.06-.71.58s.25.61.68.61C37.23,75.92,38.62,75.93,40,75.93Zm-2.09-8h2.5c.41,0,.6-.17.58-.58,0-.24,0-.48,0-.71a.45.45,0,0,0-.51-.52H35.42c-.34,0-.52.16-.51.51s0,.43,0,.65c0,.46.17.66.64.65C36.33,67.93,37.13,67.94,37.92,67.94ZM40,82.46H35.89c-.38,0-.74,0-.73.55s.33.57.73.57h8.23c.39,0,.73,0,.73-.57s-.34-.55-.73-.55Zm0,7.71c-1.4,0-2.79,0-4.18,0-.38,0-.67,0-.67.55s.28.55.67.55h8.35c.38,0,.67-.06.67-.55s-.28-.55-.67-.55C42.79,90.18,41.4,90.17,40,90.17Zm-1.66,3.19c.06.25.23.28.35.35a15.29,15.29,0,0,0,4.47,1.72c1.93.39,1.64.65,1.69-1.37,0-.55-.23-.71-.74-.7-1.34,0-2.69,0-4,0ZM52.18,95c0-1.6.27-1.5-1.59-1.5-.42,0-.63.17-.62.61s0,1,0,1.47.16.85.8.83C52.35,96.36,52.17,96.53,52.18,95Zm7.34,0c0-1.56.27-1.5-1.47-1.5-.46,0-.68.18-.67.65s0,1.07,0,1.6.18.66.65.65C59.72,96.38,59.5,96.53,59.52,95Z"></path><path class="cls-1" d="M61.53,61.88c0,.69,0,1.37,0,2.06a1.28,1.28,0,0,1-1.35,1.39c-1.15,0-2.31,0-3.46,0A1.27,1.27,0,0,1,55.33,64c0-1.45,0-2.91,0-4.36a1.19,1.19,0,0,1,1.26-1.28,34.18,34.18,0,0,1,3.65,0c.88,0,1.26.56,1.29,1.45v2.05Zm-2,0c0-1.53.33-1.51-1.55-1.48h-.06a.48.48,0,0,0-.52.53v1.86a.45.45,0,0,0,.46.5C59.35,63.54,59.52,63.4,59.52,61.91Z"></path><path class="cls-1" d="M61.53,72.88c0,.71,0,1.42,0,2.12a1.2,1.2,0,0,1-1.14,1.32,19.55,19.55,0,0,1-3.9,0,1.15,1.15,0,0,1-1.13-1.12,29.56,29.56,0,0,1,0-4.61,1.24,1.24,0,0,1,1.35-1.2c1.15,0,2.31,0,3.46,0a1.29,1.29,0,0,1,1.37,1.44C61.55,71.51,61.54,72.2,61.53,72.88Zm-2,0c0-1.59.26-1.44-1.58-1.44-.37,0-.55.17-.55.54v1.8c0,.37.18.52.55.56,1.5.14,1.58.08,1.58-1.39Z"></path><path class="cls-1" d="M68.88,72.88c0,.7,0,1.41,0,2.12a1.16,1.16,0,0,1-1.12,1.31,18.83,18.83,0,0,1-3.9,0,1.17,1.17,0,0,1-1.14-1.18,30,30,0,0,1,0-4.55,1.24,1.24,0,0,1,1.34-1.2c1.15,0,2.31,0,3.46,0a1.29,1.29,0,0,1,1.37,1.44c0,.68,0,1.36,0,2Zm-4.14-.08v1c0,.23.05.45.31.49a5.17,5.17,0,0,0,1.47,0,.37.37,0,0,0,.32-.41c0-.67,0-1.33,0-2,0-.28-.15-.41-.43-.46C64.94,71.17,64.73,71.34,64.74,72.8Z"></path><path class="cls-1" d="M68.88,61.87c0,.68,0,1.37,0,2.05a1.28,1.28,0,0,1-1.33,1.41c-1.18,0-2.35,0-3.53,0a1.23,1.23,0,0,1-1.31-1.23,29.13,29.13,0,0,1,0-4.48A1.21,1.21,0,0,1,64,58.38a33.07,33.07,0,0,1,3.59,0c.89,0,1.26.54,1.29,1.44v2Zm-4.15,0c0,1.57,0,1.57,1.56,1.46h.06c.35,0,.5-.18.5-.52V60.94a.47.47,0,0,0-.46-.51c-1.42-.23-1.66,0-1.66,1.37Z"></path><path class="cls-1" d="M68.88,94.93c0,.71,0,1.41,0,2.12a1.24,1.24,0,0,1-1.31,1.34c-1.18,0-2.36,0-3.53,0a1.22,1.22,0,0,1-1.32-1.21,30,30,0,0,1,0-4.55,1.18,1.18,0,0,1,1.15-1.16,19.71,19.71,0,0,1,3.84,0,1.19,1.19,0,0,1,1.17,1.34C68.89,93.52,68.88,94.22,68.88,94.93Zm-2,.07c0-1.61-.06-1.66-1.59-1.51-.37,0-.54.2-.53.57,0,.55,0,1.11,0,1.66s.2.68.69.67C67,96.37,66.85,96.53,66.86,95Z"></path><path class="cls-1" d="M54.2,61.87c0,.66,0,1.32,0,2a1.32,1.32,0,0,1-1.41,1.47c-1.13,0-2.27,0-3.4,0A1.3,1.3,0,0,1,48,63.92q-.06-2.06,0-4.11a1.33,1.33,0,0,1,1.45-1.45q1.66-.07,3.33,0a1.35,1.35,0,0,1,1.45,1.52v2Zm-4.22,0v.9c0,.33.13.59.48.52.57-.1,1.25.35,1.7-.32,0-.06,0-.17,0-.25,0-.56,0-1.12,0-1.67s-.2-.63-.65-.65C50,60.35,50,60.34,50,61.89Z"></path><path class="cls-1" d="M54.2,72.86c0,.68,0,1.37,0,2a1.29,1.29,0,0,1-1.32,1.44,35.62,35.62,0,0,1-3.58,0A1.27,1.27,0,0,1,48,75q-.06-2.11,0-4.23a1.29,1.29,0,0,1,1.41-1.35c1.14,0,2.27,0,3.4,0a1.35,1.35,0,0,1,1.42,1.48v2Zm-2,0c0-1.62.2-1.44-1.5-1.45h-.13c-.41,0-.58.17-.58.57s0,1.07,0,1.6.17.74.7.73C52.42,74.29,52.16,74.38,52.18,72.85Z"></path><path class="cls-1" d="M61.53,84c0,.69,0,1.38,0,2.06a1.23,1.23,0,0,1-1.32,1.34c-1.18,0-2.36,0-3.54,0a1.18,1.18,0,0,1-1.31-1.14,26.4,26.4,0,0,1,0-4.62,1.17,1.17,0,0,1,1.3-1.15q1.77,0,3.54,0a1.23,1.23,0,0,1,1.33,1.33C61.55,82.5,61.53,83.23,61.53,84Zm-2,0c0-1.57.28-1.45-1.57-1.45-.37,0-.56.17-.56.54v1.8c0,.37.18.54.55.54C59.8,85.34,59.49,85.45,59.52,83.9Z"></path><path class="cls-1" d="M68.88,83.93c0,.68,0,1.37,0,2a1.22,1.22,0,0,1-1.35,1.37c-1.15,0-2.31,0-3.47,0a1.21,1.21,0,0,1-1.35-1.24,29.78,29.78,0,0,1,0-4.43,1.21,1.21,0,0,1,1.35-1.24c1.16,0,2.32,0,3.47,0a1.23,1.23,0,0,1,1.35,1.37C68.89,82.51,68.88,83.22,68.88,83.93Zm-2-.09h0V83c0-.37-.16-.61-.53-.54s-1.16-.33-1.56.32a.3.3,0,0,0,0,.13v1.92c0,.31.15.45.47.49,1.5.21,1.65.08,1.65-1.42Z"></path><path class="cls-1" d="M54.2,83.92c0,.67,0,1.33,0,2a1.28,1.28,0,0,1-1.43,1.43c-1.12,0-2.23,0-3.35,0-.89,0-1.4-.42-1.43-1.3,0-1.43,0-2.87,0-4.3,0-.88.54-1.3,1.42-1.31h3.35a1.29,1.29,0,0,1,1.44,1.42C54.21,82.55,54.2,83.24,54.2,83.92Zm-2,0c0-.32,0-.64,0-1,0-.51-.4-.54-.72-.46-.5.11-1.2-.42-1.47.44a1,1,0,0,0,0,.25c0,.49,0,1,0,1.47s.18.72.71.71C52.39,85.32,52.16,85.48,52.18,83.89Z"></path></g><text class="cls-2" transform="translate(113.46 64.06)">Achieve<tspan class="cls-3" x="58.75" y="0"> </tspan><tspan x="65.04" y="0">universal</tspan><tspan class="cls-4" x="134.64" y="0"> </tspan><tspan x="140.93" y="0">health</tspan><tspan class="cls-3" x="189.66" y="0"> </tspan><tspan x="195.95" y="0">coverage,</tspan><tspan class="cls-4" x="267.9" y="0"> </tspan><tspan class="cls-5" x="274.19" y="0">access</tspan><tspan class="cls-6" x="319.54" y="0"> </tspan><tspan class="cls-5" x="325.83" y="0">to </tspan><tspan class="cls-5"><tspan x="0" y="18">quality</tspan><tspan class="cls-7" x="47.18" y="18"> </tspan><tspan x="52.08" y="18">essential</tspan><tspan class="cls-8" x="113.66" y="18"> </tspan><tspan x="118.56" y="18">health-care</tspan><tspan class="cls-7" x="197.67" y="18"> </tspan><tspan x="202.57" y="18">services</tspan><tspan class="cls-8" x="258.29" y="18"> </tspan><tspan x="263.19" y="18">and</tspan><tspan class="cls-7" x="289.93" y="18"> </tspan><tspan x="294.83" y="18">access </tspan><tspan x="0" y="36">to</tspan><tspan class="cls-9" x="14.36" y="36"> </tspan><tspan x="18.05" y="36">safe,</tspan><tspan class="cls-10" x="50.73" y="36"> </tspan><tspan x="54.42" y="36">effective,</tspan><tspan class="cls-9" x="117.26" y="36"> </tspan><tspan x="120.96" y="36">quality</tspan><tspan class="cls-9" x="168.14" y="36"> </tspan><tspan x="171.84" y="36">and</tspan><tspan class="cls-10" x="198.58" y="36"> </tspan><tspan x="202.28" y="36">affordable</tspan><tspan class="cls-9" x="274.91" y="36"> </tspan><tspan x="278.61" y="36">essential </tspan><tspan x="0" y="54">medicines and </tspan><tspan class="cls-11" x="105.6" y="54">vaccines for all</tspan></tspan></text><rect class="cls-12" x="99.79" y="47.45" width="1.29" height="67.48"></rect></svg>