<svg xmlns="http://www.w3.org/2000/svg" id="Layer_1" data-name="Layer 1" viewBox="0 0 300.88 244.74"><defs><style>.cls-1{fill:#4d4d4d;}</style></defs><g id="HOGz7P.tif"><path class="cls-1" d="M92.41,236.25c-2.16-1.26-2.91-3.13-2.87-5.61.1-6.78,0-13.57.08-20.35a3.38,3.38,0,0,0-2.26-3.56c-6.71-3.26-13.46-6.43-20-10-20.22-11.14-31-28.28-31.41-51.45-.32-20.26-.08-40.53-.06-60.8,0-7.78,3.55-13.53,10.58-16.71s13.73-2.1,19.57,3A16.57,16.57,0,0,1,72,83.53q.09,16.88,0,33.76c0,1.7.32,2.46,2.26,2.64a17.73,17.73,0,0,1,10.94,5.55c2.8,2.79,5.77,5.43,8.35,8.41,6,6.89,13.71,10.3,22.45,11.85,2.57.46,5.16.74,7.72,1.22a27.73,27.73,0,0,1,22.53,26.89c.08,19,0,38,.06,57a5.66,5.66,0,0,1-2.87,5.39ZM137,200.09c0-1.79,0-3.58,0-5.36-.18-7.6.44-15.2-.39-22.78a18,18,0,0,0-14.87-15.72L114.24,155c-10.57-1.82-19.92-5.91-27.2-14.13-2.82-3.18-6-6.05-9-9A8.64,8.64,0,0,0,63.68,135a8.39,8.39,0,0,0,2.28,9.2L87.3,165.58a15.33,15.33,0,0,1,1.79,2,4.69,4.69,0,0,1-.38,5.79,4.56,4.56,0,0,1-5.89.82,12,12,0,0,1-2-1.72q-10.53-10.49-21-21c-8.7-8.79-8-20.7,1.66-28.41a2.67,2.67,0,0,0,1.34-2.16c0-12.29.18-24.59-.13-36.88a8.52,8.52,0,0,0-12.29-7.67c-3.87,1.77-5.17,5.12-5.17,9.15,0,19.52,0,39,0,58.57a50.78,50.78,0,0,0,.58,7.79C48.52,169.15,58,181.55,73.6,189.37c7.26,3.63,14.5,7.3,21.8,10.87a5.59,5.59,0,0,1,3.47,5.66c-.11,6.26,0,12.52-.08,18.78,0,2,.65,2.52,2.58,2.5,11-.08,22.06-.1,33.09,0,2.18,0,2.59-.79,2.57-2.73C136.94,216.34,137,208.21,137,200.09Z"></path><path class="cls-1" d="M265.09,151.71a66.48,66.48,0,0,1-6.47,20.34c-.85,1.6-1.89,2.85-3.82,3.06-3.84.42-6.5-3-4.92-6.51a86.28,86.28,0,0,0,4-9.93,49.94,49.94,0,0,0,2-14.33c.1-19.68.05-39.35,0-59,0-4-1.4-7.36-5.31-9-6.14-2.66-12.19,1.68-12.25,8.78-.06,9.54,0,19.08,0,28.62a28.31,28.31,0,0,1,0,3.8c-.42,3.08.69,5.1,3.16,7.16,7.08,5.91,7.85,17.22,2,24.44-3.4,4.16-7.47,7.69-11.23,11.52-4,4.09-8.11,8.12-12.18,12.18-1.29,1.29-2.73,2.39-4.7,2.12a4.44,4.44,0,0,1-3.76-2.8,4.52,4.52,0,0,1,.81-5c1.3-1.44,2.7-2.78,4.07-4.15q9.41-9.42,18.81-18.83a8.66,8.66,0,1,0-12.2-12.3c-3.29,3.24-6.69,6.39-9.79,9.82-7.06,7.79-16.14,11.48-26.19,13.33-2.56.47-5.14.85-7.71,1.28a18,18,0,0,0-14.82,15,45,45,0,0,0-.47,6.46q0,23.37,0,46.73c0,1.94.38,2.76,2.57,2.74,11-.11,22.06-.09,33.09,0,1.93,0,2.61-.5,2.58-2.51-.12-6.33,0-12.67-.07-19a5.3,5.3,0,0,1,3.28-5.32c5.22-2.55,10.39-5.21,15.61-7.77,3.12-1.53,5.85-.8,7.09,1.81s.13,5-2.85,6.57c-3.78,1.93-7.54,3.92-11.41,5.66-2,.87-2.52,2.06-2.48,4.11.12,6.63,0,13.27.08,19.9,0,2.48-.71,4.36-2.88,5.62h-51c-2.17-1.26-2.89-3.14-2.88-5.61.06-18.7,0-37.41.05-56.11,0-14.35,10.09-25.78,24.28-27.9,6.11-.91,12.23-1.89,17.91-4.55a26.32,26.32,0,0,0,7.8-5.51c3.59-3.67,7.27-7.27,10.89-10.91a18.32,18.32,0,0,1,11.76-5.81c1.71-.13,1.61-1.16,1.61-2.31,0-11.1-.05-22.2,0-33.3,0-7.79,3.7-13.49,10.76-16.58s13.86-1.84,19.72,3.35c2.88,2.55,4.4,5.95,5.45,9.58Z"></path><path class="cls-1" d="M156,75.15a42.09,42.09,0,0,1,16.17,6.09c12,8,18.49,19.12,18.83,33.62.14,6,0,11.92,0,17.88,0,3.55-1.68,5.25-5.19,5.25q-35.22,0-70.43,0c-3.52,0-5.18-1.7-5.2-5.24,0-5.89,0-11.77,0-17.66a40.4,40.4,0,0,1,33.55-39.53c.5-.09,1-.2,2.14-.43-7.91-1.88-13.82-5.67-17.95-12a26.21,26.21,0,0,1-3.75-20.54c2.68-12.39,14-22.16,28.88-21.19,12,.79,23,11.14,24.41,23.6C179.06,59.07,170.3,71.67,156,75.15Zm-5.44,53.59c9.61,0,19.21,0,28.82,0,1.85,0,2.48-.56,2.42-2.42-.12-3.57,0-7.15,0-10.72a31.21,31.21,0,0,0-34.65-31c-12.9,1.5-24.13,11.37-26.79,24-1.23,5.82-.68,11.71-.89,17.58-.08,2,.6,2.54,2.54,2.52C131.45,128.69,141,128.74,150.52,128.74Zm0-62.66a18,18,0,0,0,17.7-17.69,17.7,17.7,0,1,0-35.39,0A18,18,0,0,0,150.56,66.08Z"></path><path class="cls-1" d="M241.33,190.76a4.61,4.61,0,1,1,4.66-4.62A4.5,4.5,0,0,1,241.33,190.76Z"></path></g></svg>