<svg xmlns="http://www.w3.org/2000/svg" id="Layer_1" data-name="Layer 1" viewBox="0 0 300.88 244.74"><defs><style>.cls-1{fill:#4d4d4d;}</style></defs><g id="HOGz7P.tif"><path class="cls-1" d="M92.41,236.25c-2.16-1.26-2.91-3.13-2.87-5.61.1-6.78,0-13.57.08-20.35a3.38,3.38,0,0,0-2.26-3.56c-6.71-3.26-13.46-6.43-20-10-20.22-11.14-31-28.28-31.41-51.45-.32-20.26-.08-40.53-.06-60.8,0-7.78,3.55-13.53,10.58-16.71s13.73-2.1,19.57,3A16.57,16.57,0,0,1,72,83.53q.09,16.88,0,33.76c0,1.7.32,2.46,2.26,2.64a17.73,17.73,0,0,1,10.94,5.55c2.8,2.79,5.77,5.43,8.35,8.41,6,6.89,13.71,10.3,22.45,11.85,2.57.46,5.16.74,7.72,1.22a27.73,27.73,0,0,1,22.53,26.89c.08,19,0,38,.06,57a5.66,5.66,0,0,1-2.87,5.39Z"></path><path class="cls-1" d="M137,200.09c0-1.79,0-3.58,0-5.36-.18-7.6.44-15.2-.39-22.78a18,18,0,0,0-14.87-15.72L114.24,155c-10.57-1.82-19.92-5.91-27.2-14.13-2.82-3.18-6-6.05-9-9A8.64,8.64,0,0,0,63.68,135a8.39,8.39,0,0,0,2.28,9.2L87.3,165.58a15.33,15.33,0,0,1,1.79,2,4.69,4.69,0,0,1-.38,5.79,4.56,4.56,0,0,1-5.89.82,12,12,0,0,1-2-1.72q-10.53-10.49-21-21c-8.7-8.79-8-20.7,1.66-28.41a2.67,2.67,0,0,0,1.34-2.16c0-12.29.18-24.59-.13-36.88a8.52,8.52,0,0,0-12.29-7.67c-3.87,1.77-5.17,5.12-5.17,9.15,0,19.52,0,39,0,58.57a50.78,50.78,0,0,0,.58,7.79C48.52,169.15,58,181.55,73.6,189.37c7.26,3.63,14.5,7.3,21.8,10.87a5.59,5.59,0,0,1,3.47,5.66c-.11,6.26,0,12.52-.08,18.78,0,2,.65,2.52,2.58,2.5,11-.08,22.06-.1,33.09,0,2.18,0,2.59-.79,2.57-2.73C136.94,216.34,137,208.21,137,200.09Z"></path><path class="cls-1" d="M166.53,237.19a12.3,12.3,0,0,1-9.06-3.51,12.64,12.64,0,0,1-3.43-9.33c.06-5.88.05-11.89,0-17.7v-6.56c0-.54,0-1.09,0-1.63,0-1.32,0-2.65,0-4,.06-2.52,0-5.06,0-7.74a127.9,127.9,0,0,1,.45-15.89,28.06,28.06,0,0,1,23.15-24.49l3-.5,4.48-.76c9.46-1.63,16.26-5.1,21.42-10.92,2.3-2.59,4.69-4.9,7-7.14.82-.79,1.63-1.57,2.44-2.37a18.39,18.39,0,0,1,12.34-5.51c0-3.3,0-6.61,0-9.91,0-8.35-.06-17,.15-25.53a18.51,18.51,0,0,1,18.48-18.26,19.09,19.09,0,0,1,8,1.75c4.11,1.89,11,6.76,11,18.25v15.24q0,21.67,0,43.35a60.89,60.89,0,0,1-.71,9.34c-3.24,20.39-14.42,35.5-33.23,44.91l-6,3c-4.5,2.25-9.12,4.58-13.74,6.85,0,2.34,0,4.67,0,6.94,0,3.1,0,6.3,0,9.39a11.85,11.85,0,0,1-12.49,12.69h-.15q-8.38-.06-16.77-.06c-5.71,0-11,0-16.15.07Z"></path><path class="cls-1" d="M164,224.46c0,1.94.39,2.75,2.57,2.73,11-.11,22.06-.09,33.09,0,1.92,0,2.61-.49,2.58-2.5-.12-6.26,0-12.52-.08-18.78a5.59,5.59,0,0,1,3.47-5.66c7.29-3.57,14.54-7.24,21.8-10.87,15.62-7.82,25.08-20.22,27.84-37.54a50.78,50.78,0,0,0,.58-7.79q.06-29.29,0-58.57c0-4-1.29-7.38-5.16-9.15A8.52,8.52,0,0,0,238.46,84c-.31,12.29-.1,24.59-.13,36.88a2.67,2.67,0,0,0,1.34,2.16c9.65,7.71,10.36,19.62,1.66,28.41q-10.47,10.56-21,21a12,12,0,0,1-2.05,1.72,4.56,4.56,0,0,1-5.89-.82,4.68,4.68,0,0,1-.38-5.79,14.63,14.63,0,0,1,1.79-2l21.34-21.35a8.41,8.41,0,0,0,2.28-9.2A8.64,8.64,0,0,0,223,131.8c-3,3-6.18,5.85-9,9-7.28,8.22-16.64,12.31-27.21,14.13l-7.48,1.27A17.94,17.94,0,0,0,164.47,172c-.84,7.58-.21,15.18-.39,22.78,0,1.78,0,3.57,0,5.36C164.08,208.21,164.13,216.34,164,224.46Z"></path><path class="cls-1" d="M156,75.15a42.09,42.09,0,0,1,16.17,6.09c12,8,18.49,19.12,18.83,33.62.14,6,0,11.92,0,17.88,0,3.55-1.68,5.25-5.19,5.25q-35.22,0-70.43,0c-3.52,0-5.18-1.7-5.2-5.24,0-5.89,0-11.77,0-17.66a40.4,40.4,0,0,1,33.55-39.53c.5-.09,1-.2,2.14-.43-7.91-1.88-13.82-5.67-17.95-12a26.21,26.21,0,0,1-3.75-20.54c2.68-12.39,14-22.16,28.88-21.19,12,.79,23,11.14,24.41,23.6C179.06,59.07,170.3,71.67,156,75.15Z"></path><path class="cls-1" d="M150.52,128.74c9.61,0,19.21,0,28.82,0,1.85,0,2.48-.56,2.42-2.42-.12-3.57,0-7.15,0-10.72a31.21,31.21,0,0,0-34.65-31c-12.9,1.5-24.13,11.37-26.79,24-1.23,5.82-.68,11.71-.89,17.58-.08,2,.6,2.54,2.54,2.52C131.45,128.69,141,128.74,150.52,128.74Z"></path><path class="cls-1" d="M150.56,66.08a18,18,0,0,0,17.7-17.69,17.7,17.7,0,1,0-35.39,0A18,18,0,0,0,150.56,66.08Z"></path></g></svg>