<svg id="Layer_1" data-name="Layer 1" xmlns="http://www.w3.org/2000/svg" viewBox="0 0 326.08 122.38"><defs><style>.cls-1{fill:#f68723;}.cls-2{fill:#fff;}</style></defs><path class="cls-1" d="M.08,35.23C-.57,18.14,13.74,4.33,27.7,1.34c19.29-4.15,38.8,8.57,42,28,3.38,20.49-9.37,38-29.79,41.05-7.38,1.1-7.85.7-7.75-6.81.07-4.81.37-9.62.43-14.43,0-2.61,1.69-3.24,3.8-3.7,5.84-1.26,8.41-4.41,8.32-10.05a9.49,9.49,0,0,0-7.43-9.32,10,10,0,0,0-11.39,6.38,14.78,14.78,0,0,0-.78,4.81c-.05,12.39-.17,24.77-.18,37.16,0,11.37,5.06,18.46,15.82,22.15a66.29,66.29,0,0,0,21.61,3.36c1.46,0,2.93,0,4.39.06,1.94.08,3,1,3,3-.06,5.68-.08,11.35-.1,17,0,1.77-.87,2.92-2.62,2.83-10.39-.55-20.89.47-31.14-2.11C17,116,4.69,104.65.61,85.23-.53,79.79.33,42,.08,35.23Z"/><path class="cls-2" d="M87.64,122.54c-3.11,0-6.21,0-9.32,0-2.25,0-3.32-1.08-3.32-3.32,0-5.25,0-10.5-.06-15.74,0-2.3,1-3.18,3.2-3.37,6.34-.54,12.74-.54,19-2a60.69,60.69,0,0,0,12.66-4.41c6-2.88,8.82-7.91,9.72-14.27A87.53,87.53,0,0,0,120,67.35c0-10.23.06-20.47,0-30.7,0-6.68-4.34-10.9-10.6-10.71a9.76,9.76,0,0,0-.84,19.43c4.37.51,4.4.54,4.41,4.81,0,5.59,0,11.18,0,16.77,0,2.92-1.06,3.91-3.94,3.77A35.46,35.46,0,0,1,74.82,35.81c0-22,19.67-36.6,36.93-35.22,16.07,1.29,32.62,12.82,33.3,33.87.44,13.75,0,27.5-.14,41.24-.12,13.43-4.32,25.42-14.84,34.46-8.39,7.2-18.43,10.54-29.27,11.85A111.3,111.3,0,0,1,87.64,122.54Z"/><path class="cls-2" d="M226.81,36.86c.31,17.63-13.74,31.57-32.47,33.53-8.25.87-16.21.27-23.53-3.9C159.36,60,153,50.05,152.72,36.92c-.26-13.43,6-23.7,17.73-30.18,16.37-9,36.08-5.93,48.29,7.33C224.4,20.23,227,27.66,226.81,36.86Zm-26.08-.39c0-6.95-4.44-11.95-10.75-12A11.41,11.41,0,0,0,178.64,36c-.06,6.59,5,12,11.22,12S200.7,43.19,200.73,36.47Z"/><path class="cls-2" d="M244.78,3.6c3.36,0,6.73.09,10.08,0,2.85-.11,4.43,1,5.28,3.8,2.55,8.3,5.28,16.55,7.94,24.82a8.66,8.66,0,0,0,.42,1.21c.31.65.23,1.77,1.23,1.71.75,0,.84-1,1-1.64q2.24-6.6,4.42-13.21T279.5,7c.71-2.22,2-3.45,4.52-3.43,7.06.06,14.13,0,21.2,0,3.07,0,3.28.34,2.18,3.08Q295.82,35.57,284.22,64.4c-1.88,4.65-2.51,5-7.5,5s-10,0-15,0c-4.31,0-5-.43-6.55-4.35q-9.9-24.66-19.79-49.32c-1.25-3.11-2.46-6.24-3.76-9.33-.78-1.87-.34-2.77,1.78-2.76,3.8,0,7.59,0,11.38,0Z"/><path class="cls-2" d="M326.08,60.2a9.6,9.6,0,1,1-19.2.08c0-5,4.43-9.43,9.63-9.56A9.56,9.56,0,0,1,326.08,60.2Zm-4.76,0a4.66,4.66,0,0,0-4.85-4.86,4.79,4.79,0,0,0-4.82,5,4.71,4.71,0,0,0,4.93,4.79C319.52,65.13,321.32,63.27,321.32,60.25Z"/><path class="cls-2" d="M156.14,119.25h-4V99.82h11.13v3.37h-7.08v5h6.59v3.37h-6.59Z"/><path class="cls-2" d="M184.66,109.51q0,4.81-2.39,7.41a10.38,10.38,0,0,1-13.72,0q-2.38-2.6-2.39-7.44t2.4-7.41a9,9,0,0,1,6.88-2.56c3,0,5.27.86,6.85,2.58S184.66,106.28,184.66,109.51Zm-14.18,0a8.06,8.06,0,0,0,1.24,4.9,4.31,4.31,0,0,0,3.69,1.65c3.29,0,4.93-2.19,4.93-6.55s-1.63-6.57-4.9-6.57a4.34,4.34,0,0,0-3.71,1.66A8.09,8.09,0,0,0,170.48,109.51Z"/><path class="cls-2" d="M204,99.82v12.57a7.21,7.21,0,0,1-1,3.78,6.29,6.29,0,0,1-2.78,2.48,9.9,9.9,0,0,1-4.31.86,8.25,8.25,0,0,1-5.82-1.92,6.81,6.81,0,0,1-2.07-5.25V99.82h4.11v11.89a5,5,0,0,0,.9,3.3,3.75,3.75,0,0,0,3,1,3.65,3.65,0,0,0,2.93-1.06,5,5,0,0,0,.91-3.31V99.82Z"/><path class="cls-2" d="M224.59,119.25h-5.24l-8.45-14.7h-.12c.17,2.6.26,4.45.26,5.55v9.15h-3.69V99.82h5.2L221,114.37h.09c-.13-2.52-.2-4.31-.2-5.36V99.82h3.71Z"/><path class="cls-2" d="M244,109.35q0,4.8-2.73,7.35t-7.89,2.55h-5.5V99.82H234q4.76,0,7.39,2.51A9.24,9.24,0,0,1,244,109.35Zm-4.28.1q0-6.26-5.53-6.26H232v12.66h1.77Q239.68,115.85,239.69,109.45Z"/><path class="cls-2" d="M259.89,119.25l-1.41-4.63H251.4L250,119.25h-4.44l6.86-19.51h5l6.89,19.51Zm-2.39-8.08c-1.3-4.19-2-6.56-2.2-7.11s-.28-1-.35-1.3c-.3,1.13-1.13,3.93-2.52,8.41Z"/><path class="cls-2" d="M271.55,119.25h-4.12v-16h-5.28V99.82h14.68v3.43h-5.28Z"/><path class="cls-2" d="M279.81,119.25V99.82h4.12v19.43Z"/><path class="cls-2" d="M305.37,109.51q0,4.81-2.39,7.41t-6.86,2.59c-3,0-5.26-.86-6.85-2.59s-2.4-4.21-2.4-7.44.8-5.7,2.4-7.41a9,9,0,0,1,6.88-2.56c3,0,5.27.86,6.85,2.58S305.37,106.28,305.37,109.51Zm-14.18,0a8.06,8.06,0,0,0,1.24,4.9,4.31,4.31,0,0,0,3.69,1.65c3.29,0,4.93-2.19,4.93-6.55s-1.63-6.57-4.9-6.57a4.34,4.34,0,0,0-3.71,1.66A8.09,8.09,0,0,0,291.19,109.51Z"/><path class="cls-2" d="M324.46,119.25h-5.24l-8.45-14.7h-.12c.17,2.6.25,4.45.25,5.55v9.15h-3.68V99.82h5.2l8.44,14.55H321c-.13-2.52-.2-4.31-.2-5.36V99.82h3.71Z"/></svg>