<svg xmlns="http://www.w3.org/2000/svg" id="Layer_1" data-name="Layer 1" viewBox="0 0 1536 786.3"><defs><style>.cls-1{fill:#eeefef;}.cls-2{fill:#009e3c;}.cls-3{fill:#ff6200;}.cls-4{fill:#ff9700;}.cls-5{fill:#00578f;}.cls-6{fill:#0a376c;}.cls-7{font-size:29.27px;}.cls-12,.cls-17,.cls-18,.cls-38,.cls-7{fill:#4d4d4f;}.cls-12,.cls-14,.cls-7{font-family:Economica-Bold, Economica;}.cls-12,.cls-14,.cls-18,.cls-23,.cls-40,.cls-41,.cls-59,.cls-7{font-weight:700;}.cls-8{letter-spacing:-0.03em;}.cls-9{letter-spacing:-0.01em;}.cls-10{letter-spacing:0em;}.cls-11{fill:#00b1de;}.cls-12{font-size:49.28px;}.cls-13{fill:#f68723;}.cls-14{font-size:48.51px;fill:#fff;}.cls-15,.cls-16{fill:none;}.cls-16{fill-rule:evenodd;}.cls-18,.cls-38{font-size:15px;}.cls-18,.cls-23,.cls-40,.cls-41,.cls-59{font-family:OpenSans-Bold, Open Sans;}.cls-19,.cls-20,.cls-21,.cls-28,.cls-34,.cls-35,.cls-38,.cls-46,.cls-47,.cls-51,.cls-53,.cls-54,.cls-62,.cls-63{font-family:OpenSans, Open Sans;}.cls-19,.cls-20,.cls-21,.cls-28,.cls-34,.cls-35,.cls-46,.cls-47,.cls-51,.cls-53,.cls-54,.cls-62,.cls-63{font-weight:400;}.cls-19{letter-spacing:2.1em;}.cls-20{letter-spacing:0em;}.cls-22{letter-spacing:1.86em;}.cls-24{letter-spacing:0.27em;}.cls-25{letter-spacing:0.27em;}.cls-26,.cls-28{letter-spacing:0.16em;}.cls-27{letter-spacing:0.16em;}.cls-29{letter-spacing:0.07em;}.cls-30{letter-spacing:0.07em;}.cls-31{letter-spacing:-0.01em;}.cls-32{letter-spacing:-0.01em;}.cls-33,.cls-34{letter-spacing:0.13em;}.cls-35{letter-spacing:0.13em;}.cls-36{letter-spacing:0.9em;}.cls-37{letter-spacing:0.9em;}.cls-39,.cls-40{letter-spacing:0.98em;}.cls-41{letter-spacing:0.98em;}.cls-42{letter-spacing:0.13em;}.cls-43{letter-spacing:0.13em;}.cls-44,.cls-46{letter-spacing:0.05em;}.cls-45{letter-spacing:0em;}.cls-47{letter-spacing:0.05em;}.cls-48{letter-spacing:0.08em;}.cls-49{letter-spacing:0.08em;}.cls-50,.cls-51{letter-spacing:1.19em;}.cls-52,.cls-53{letter-spacing:0.34em;}.cls-54{letter-spacing:0.34em;}.cls-55{letter-spacing:0.64em;}.cls-56{letter-spacing:0.64em;}.cls-57,.cls-59{letter-spacing:0.17em;}.cls-58{letter-spacing:0.17em;}.cls-60,.cls-62{letter-spacing:0.64em;}.cls-61,.cls-63{letter-spacing:0.64em;}.cls-64{letter-spacing:0.26em;}.cls-65{letter-spacing:0.26em;}</style></defs><rect class="cls-1" x="75.43" y="62.58" width="222.7" height="222.7" rx="9.9"></rect><rect class="cls-2" x="75.43" y="265.01" width="222.7" height="20.27" rx="10.14"></rect><rect class="cls-1" x="307.92" y="62.58" width="222.7" height="222.7" rx="9.9"></rect><rect class="cls-1" x="540.41" y="62.58" width="222.7" height="222.7" rx="9.9"></rect><rect class="cls-3" x="540.41" y="265.01" width="222.7" height="20.27" rx="10.14"></rect><rect class="cls-1" x="772.89" y="62.58" width="222.7" height="222.7" rx="9.9"></rect><rect class="cls-4" x="772.89" y="265.01" width="222.7" height="20.27" rx="10.14"></rect><rect class="cls-1" x="1005.38" y="62.58" width="222.7" height="222.7" rx="9.9"></rect><rect class="cls-5" x="1005.38" y="265.01" width="222.7" height="20.27" rx="10.14"></rect><rect class="cls-1" x="1237.87" y="62.58" width="222.7" height="222.7" rx="9.9"></rect><rect class="cls-6" x="1237.87" y="265.01" width="222.7" height="20.27" rx="10.14"></rect><text class="cls-7" transform="translate(96.82 204.05)">Good Health<tspan x="0" y="35.12">&amp; </tspan><tspan class="cls-8" x="21.69" y="35.12">W</tspan><tspan x="39.34" y="35.12">ellbeing</tspan></text><text class="cls-7" transform="translate(333.5 204.05)">Clean <tspan class="cls-8" x="56.98" y="0">W</tspan><tspan x="74.63" y="0">ater</tspan><tspan x="0" y="35.12">&amp; Sanitation</tspan></text><text class="cls-7" transform="translate(565.9 168.37)">Innovation<tspan x="0" y="35.12">Industry &amp;</tspan><tspan x="0" y="70.24">Infrastructure</tspan></text><text class="cls-7" transform="translate(1260.51 168.37)">Partnerships<tspan x="0" y="35.12">For the</tspan><tspan x="0" y="70.24">Goals</tspan></text><text class="cls-7" transform="translate(802.89 168.37)">Sustainable<tspan x="0" y="35.12">Cities &amp;</tspan><tspan x="0" y="70.24">Communities</tspan></text><text class="cls-7" transform="translate(1032.92 168.37)">Peace Justice<tspan x="0" y="35.12">&amp; St</tspan><tspan class="cls-9" x="42.79" y="35.12">r</tspan><tspan class="cls-10" x="51.01" y="35.12">ong</tspan><tspan x="0" y="70.24">Institutions</tspan></text><rect class="cls-11" x="307.92" y="265.01" width="222.7" height="20.27" rx="10.14"></rect><text class="cls-12" transform="translate(96.82 122.83)">SDG 3</text><text class="cls-12" transform="translate(333.5 122.83)">SDG 6</text><text class="cls-12" transform="translate(565.9 122.83)">SDG 9</text><text class="cls-12" transform="translate(802.89 122.83)">SDG 11</text><text class="cls-12" transform="translate(1032.92 122.83)">SDG 16</text><text class="cls-12" transform="translate(1260.51 122.83)">SDG 17</text><rect class="cls-13" x="75.43" y="300.54" width="1385.14" height="55.6"></rect><text class="cls-14" transform="translate(667.6 342.72)">eGov Missions</text><polyline class="cls-15" points="152.74 416.15 82.37 416.15 82.37 486.52 152.74 486.52"></polyline><polyline class="cls-15" points="152.74 416.15 82.37 416.15 82.37 486.52 152.74 486.52"></polyline><polyline class="cls-16" points="152.74 416.15 82.37 416.15 82.37 486.52"></polyline><g id="Page-1"><g id="_019---Connections" data-name="019---Connections"><path id="Shape" class="cls-17" d="M142.27,423.3a9.79,9.79,0,0,0-3.3.57V420a4.38,4.38,0,0,0-4.38-4.39H103.83A4.39,4.39,0,0,0,99.44,420v3.87a9.89,9.89,0,1,0,0,18.63v34.61a4.38,4.38,0,0,0,4.39,4.39h30.74a4.38,4.38,0,0,0,4.39-4.39V442.5a9.89,9.89,0,1,0,3.31-19.2Zm-14.62-5.49-1.4,1.51a2.18,2.18,0,0,1-1.6.69H113.78a2.22,2.22,0,0,1-1.61-.69l-1.4-1.51Zm-26,2.19a2.2,2.2,0,0,1,2.2-2.2h3.91l2.82,3a4.41,4.41,0,0,0,3.21,1.39h10.87a4.41,4.41,0,0,0,3.21-1.39l2.8-3h3.91a2.2,2.2,0,0,1,2.2,2.2v5a9.85,9.85,0,0,0-3.26,12.78l-6.66,10a13.18,13.18,0,0,0-6.55-2.42V443a9.89,9.89,0,1,0-2.21,0v2.31a13,13,0,0,0-6.55,2.42l-6.66-10A9.86,9.86,0,0,0,101.62,425Zm11,47.21a6.55,6.55,0,0,1,3-5.47,6.57,6.57,0,0,0,7.24,0,6.55,6.55,0,0,1,3,5.47,10.86,10.86,0,0,1-13.16,0Zm6.59-6.57a4.39,4.39,0,1,1,4.39-4.39,4.39,4.39,0,0,1-4.39,4.39Zm8.56,4.67a8.76,8.76,0,0,0-3.3-5.11,6.59,6.59,0,1,0-10.53,0,8.74,8.74,0,0,0-3.29,5.11,11,11,0,1,1,17.12,0Zm-2.33-27.65a6.52,6.52,0,0,0-2.5-3.3,4.39,4.39,0,1,0-7.46,0,6.63,6.63,0,0,0-2.5,3.3,7.68,7.68,0,1,1,12.46,0ZM117,432.09a2.2,2.2,0,1,1,2.2,2.2,2.2,2.2,0,0,1-2.2-2.2Zm.1,3.83a4.2,4.2,0,0,0,4.2,0,4.36,4.36,0,0,1,2.26,3.58,7.64,7.64,0,0,1-8.74,0,4.38,4.38,0,0,1,2.28-3.58Zm-28.65-2.74a7.68,7.68,0,1,1,13.91,4.48,6.5,6.5,0,0,0-2.49-3.3,4.39,4.39,0,1,0-7.47,0,6.67,6.67,0,0,0-2.49,3.3A7.53,7.53,0,0,1,88.46,433.18Zm5.48-1.09a2.21,2.21,0,1,1,2.21,2.2A2.21,2.21,0,0,1,93.94,432.09Zm-2.17,7.41A4.38,4.38,0,0,1,94,435.92a4.2,4.2,0,0,0,4.2,0,4.35,4.35,0,0,1,2.27,3.58A7.63,7.63,0,0,1,91.77,439.5Zm42.82,39.8H103.83a2.2,2.2,0,0,1-2.2-2.2v-1.71a4.29,4.29,0,0,0,2.2.61h30.74a4.36,4.36,0,0,0,2.2-.61v1.71A2.18,2.18,0,0,1,134.59,479.3Zm2.18-7.68a2.19,2.19,0,0,1-2.2,2.2H103.83a2.2,2.2,0,0,1-2.2-2.2V441.39a10.35,10.35,0,0,0,1.92-1.7l6.3,9.46a13.18,13.18,0,1,0,18.67,0l6.31-9.46a10.73,10.73,0,0,0,1.92,1.7v30.23Zm1.12-32.12a4.39,4.39,0,0,1,2.27-3.58,4.18,4.18,0,0,0,4.19,0,4.35,4.35,0,0,1,2.27,3.58A7.63,7.63,0,0,1,137.89,439.5Zm4.38-5.21a2.21,2.21,0,1,1,2.2-2.2A2.2,2.2,0,0,1,142.27,434.29Zm6.23,3.37a6.52,6.52,0,0,0-2.5-3.3,4.39,4.39,0,1,0-7.46,0,6.63,6.63,0,0,0-2.5,3.3,7.68,7.68,0,1,1,12.46,0Z"></path></g></g><text class="cls-18" transform="translate(178.31 424.24)">Strengthen<tspan class="cls-19" x="83.87" y="0"> </tspan><tspan class="cls-20" x="119.2" y="0">domestic</tspan><tspan class="cls-19" x="183.21" y="0"> </tspan><tspan class="cls-21" x="218.54" y="0">resource </tspan><tspan class="cls-21"><tspan x="0" y="18">mobilization,</tspan><tspan class="cls-22" x="89.98" y="18"> </tspan><tspan x="121.74" y="18">improve</tspan><tspan class="cls-22" x="179.79" y="18"> </tspan><tspan class="cls-23" x="211.55" y="18">domestic </tspan></tspan><tspan x="0" y="36">capacity</tspan><tspan class="cls-24" x="62.66" y="36"> </tspan><tspan x="70.66" y="36">for</tspan><tspan class="cls-24" x="92.56" y="36"> </tspan><tspan x="100.56" y="36">tax</tspan><tspan class="cls-25" x="124.8" y="36"> </tspan><tspan x="132.8" y="36">and</tspan><tspan class="cls-24" x="161.21" y="36"> </tspan><tspan x="169.21" y="36">other</tspan><tspan class="cls-24" x="210.54" y="36"> </tspan><tspan x="218.53" y="36">revenue </tspan><tspan x="0" y="54">collection</tspan></text><g id="PkWQxk.tif"><path class="cls-17" d="M556.76,419.3h16.85c.36.36.68.74.44,1.3a1.18,1.18,0,0,1-1.27.67H558.84c-.33,0-.73-.07-.75.46s.36.49.71.49h24.74c.34,0,.73,0,.73-.48s-.41-.47-.75-.47h-4.17c-.55,0-1.05-.13-1.24-.71a1,1,0,0,1,.52-1.26h7c.28.26.61.49.68.9a9,9,0,0,1,0,3.07.92.92,0,0,1-.6.78c-.75.18-.72.7-.72,1.28q0,19,0,38.08c0,.15,0,.3,0,.45,0,.44.14.55.53.29l1.81-1.21a3.94,3.94,0,0,1,3.19-.62,3.78,3.78,0,0,1,3,2.89,3.94,3.94,0,0,1-1.36,4.1l-12,10.75a9.82,9.82,0,0,1-1.84,1.29,14.8,14.8,0,0,1-5.5,1.4c-5,.73-9.93,1.38-14.87,2.18a11.58,11.58,0,0,1-6.53-.64c-3.4-1.42-6.88-2.64-10.32-4-.47-.17-.69-.2-.83.4a3.34,3.34,0,0,1-3.4,2.67c-.67,0-1.33,0-2,0a3.66,3.66,0,0,1-4.07-2.62v-3.08c.39-.36.78-.71,1.36-.44s.63.77.62,1.31,0,.81,0,1.22a1.46,1.46,0,0,0,1.56,1.58c.68,0,1.37,0,2.06,0,1.48,0,1.94-.48,2-2q0-10,0-19.93a4.91,4.91,0,0,0,0-.77,1.29,1.29,0,0,0-1.31-1.17c-1,0-1.93,0-2.89,0a1.25,1.25,0,0,0-1.24.94,3.14,3.14,0,0,0-.1,1q0,6.24,0,12.47c0,.55-.08,1.06-.65,1.28a1.09,1.09,0,0,1-1.33-.5V458.15a3.43,3.43,0,0,1,3.29-2.68,16.11,16.11,0,0,1,3.4,0,3.37,3.37,0,0,1,2.81,2.65c.25,1.09.25,1.09,1.4,1.09h.06c1.12,0,1.12,0,1.12-1.13,0-6.46,0-12.91,0-19.36,0-1.61.4-2.78,2.37-2.55.42,0,.57-.2.56-.6s0-1,0-1.48a1.55,1.55,0,0,1,1.59-1.72q3.48-.07,6.94,0a1.53,1.53,0,0,1,1.62,1.57c.05.53.05,1.07.05,1.61,0,.76.54.61,1,.63s.78,0,.78-.64q0-5.37,0-10.74c0-.38-.13-.58-.54-.62a1.24,1.24,0,0,1-1.16-1.18,16.54,16.54,0,0,1-.06-2A2,2,0,0,1,556.76,419.3Zm-16.41,50.33c0,2.51,0,5,0,7.52a.91.91,0,0,0,.67,1c4.2,1.57,8.38,3.17,12.57,4.75a4.35,4.35,0,0,0,2.08.27c1.28-.17,2.55-.37,3.82-.55,4.59-.67,9.19-1.39,13.79-2a10.75,10.75,0,0,0,6.43-2.87c2.64-2.54,5.43-4.92,8.15-7.37,1-.93,2.08-1.86,3.09-2.82a1.85,1.85,0,0,0,.5-2.06,1.83,1.83,0,0,0-1.43-1.25,2.27,2.27,0,0,0-1.8.5c-3.9,2.62-7.81,5.22-11.7,7.84a2.71,2.71,0,0,1-1.74.5c-2.8-.13-5.59-.43-8.38-.7l-10-1c-1.22-.12-2.43-.23-3.64-.39a.93.93,0,0,1-.87-1,1,1,0,0,1,1-1,3.08,3.08,0,0,1,.52,0l3.45.34,8.62.85c1.43.14,2.86.29,4.28.41.66.06.77-.1.59-.74a3.53,3.53,0,0,0-3.07-2.74c-2.59-.36-5.18-.66-7.78-.92a21.86,21.86,0,0,1-9.17-2.67,17.48,17.48,0,0,0-9.1-2.34c-.91,0-.91,0-.91.94C540.34,464.7,540.35,467.16,540.35,469.63Zm30.39-2.95a6.21,6.21,0,0,1,1.66,2.94c.3,1.3.32,1.23,1.64,1.4a2.66,2.66,0,0,0,2-.55q3-2.07,6.09-4.08a1.43,1.43,0,0,0,.73-1.36q0-19.9,0-39.81c0-1,0-1-1-1H560.75c-1,0-1,0-1,1v38.59c0,.47.37.46.69.49s.38-.26.38-.52c0-.82,0-1.63,0-2.44,0-1.16.48-1.65,1.64-1.68,1,0,2,0,3,0,1.17,0,1.63.51,1.64,1.66s0,2.19,0,3.28c0,.48.32.54.69.57s.39-.3.39-.56c0-1.12,0-2.23,0-3.35s.48-1.55,1.52-1.59,2.19,0,3.28,0,1.42.54,1.43,1.53c0,1.29,0,2.57,0,3.86,0,1.13-.46,1.58-1.61,1.59ZM545,448.86v9.71a3.43,3.43,0,0,0,0,.64c.08.41.43.44.75.44s.29-.3.3-.51c0-.39,0-.78,0-1.16,0-1.18.37-1.55,1.54-1.55h8.48c2,0,1.65.29,1.7-1.71,0-.59-.18-.8-.77-.79-2.17,0-4.33,0-6.5,0-1,0-1.93,0-2.89,0-1.14,0-1.55-.44-1.56-1.56v-2.06c0-1.23.38-1.59,1.63-1.59,2.79,0,5.57,0,8.36,0,2,0,1.69.3,1.73-1.74,0-.56-.18-.76-.74-.75-1.63,0-3.26,0-4.89,0s-3.08,0-4.63,0c-1,0-1.44-.44-1.45-1.45q0-1.15,0-2.31c0-1,.43-1.42,1.4-1.45.66,0,1.33,0,2,0h7.4c.9,0,.91,0,.91-.88q0-.51,0-1c0-.82,0-.85-.82-.85H545.8c-.81,0-.85,0-.85.83Zm7.95-4.65H557c.45,0,.75,0,.74-.61s-.3-.58-.71-.58h-8.29c-.41,0-.7.06-.7.59s.25.61.68.6Zm-2.09-8c.84,0,1.67,0,2.51,0,.4,0,.6-.17.58-.58,0-.23,0-.47,0-.7a.45.45,0,0,0-.51-.52h-5.08a.45.45,0,0,0-.51.51,4.56,4.56,0,0,1,0,.64c0,.47.17.67.64.66C549.23,436.21,550,436.22,550.81,436.22Zm2.09,14.52h-4.11c-.39,0-.74,0-.74.54s.34.57.73.57H557c.39,0,.73,0,.74-.56s-.34-.56-.73-.55Zm0,7.71h-4.17c-.39,0-.68.05-.68.54s.29.56.67.56h8.35c.39,0,.68-.07.68-.55s-.29-.55-.67-.55Zm-1.65,3.19c0,.25.22.27.34.34a15.42,15.42,0,0,0,4.47,1.73c1.94.39,1.65.65,1.69-1.38,0-.54-.23-.7-.73-.7-1.35,0-2.7,0-4,0Zm13.83,1.63c0-1.61.27-1.5-1.59-1.5-.43,0-.63.17-.62.61s0,1,0,1.47.16.84.8.83C565.24,464.63,565.07,464.81,565.08,463.27Zm7.33,0c0-1.56.27-1.5-1.47-1.49-.45,0-.67.17-.66.64s0,1.07,0,1.61.18.65.65.65C572.61,464.65,572.4,464.8,572.41,463.26Z"></path><path class="cls-17" d="M574.43,430.16c0,.69,0,1.37,0,2a1.28,1.28,0,0,1-1.35,1.39c-1.16,0-2.31,0-3.47,0a1.26,1.26,0,0,1-1.38-1.31c-.06-1.45-.05-2.9,0-4.36a1.2,1.2,0,0,1,1.26-1.28,34.18,34.18,0,0,1,3.65,0c.88,0,1.27.55,1.29,1.45v2.05Zm-2,0c0-1.53.33-1.52-1.55-1.48h-.06a.47.47,0,0,0-.51.52c0,.62,0,1.25,0,1.87a.45.45,0,0,0,.46.5C572.24,431.82,572.41,431.68,572.41,430.19Z"></path><path class="cls-17" d="M574.43,441.16c0,.71,0,1.41,0,2.12a1.19,1.19,0,0,1-1.13,1.31,20.43,20.43,0,0,1-3.91,0,1.15,1.15,0,0,1-1.12-1.12,28.39,28.39,0,0,1,0-4.61,1.23,1.23,0,0,1,1.34-1.2c1.16,0,2.31,0,3.47,0a1.29,1.29,0,0,1,1.37,1.44C574.44,439.79,574.43,440.48,574.43,441.16Zm-2,0c0-1.59.26-1.44-1.57-1.44-.37,0-.56.16-.56.54V442c0,.37.19.53.56.56,1.49.15,1.57.09,1.57-1.39Z"></path><path class="cls-17" d="M581.77,441.16c0,.7,0,1.41,0,2.11a1.18,1.18,0,0,1-1.13,1.32,18.83,18.83,0,0,1-3.9,0,1.17,1.17,0,0,1-1.14-1.18,30,30,0,0,1,0-4.55,1.22,1.22,0,0,1,1.33-1.2c1.16,0,2.31,0,3.47,0a1.27,1.27,0,0,1,1.36,1.43c0,.69,0,1.37,0,2.06Zm-4.14-.08v1c0,.22.06.45.32.49a5.17,5.17,0,0,0,1.47,0,.37.37,0,0,0,.32-.42c0-.66,0-1.32,0-2,0-.27-.15-.41-.43-.45C577.84,439.44,577.63,439.62,577.63,441.08Z"></path><path class="cls-17" d="M581.77,430.15c0,.68,0,1.37,0,2.05a1.27,1.27,0,0,1-1.33,1.41c-1.17,0-2.35,0-3.52,0a1.23,1.23,0,0,1-1.32-1.22,29.13,29.13,0,0,1,0-4.48,1.21,1.21,0,0,1,1.29-1.25c1.2,0,2.4-.06,3.59,0,.89.05,1.27.54,1.29,1.44a.62.62,0,0,1,0,.13v1.93Zm-4.14,0c0,1.57,0,1.57,1.55,1.46h.07c.35,0,.5-.18.5-.52v-1.86a.47.47,0,0,0-.46-.51c-1.42-.24-1.66,0-1.66,1.37Z"></path><path class="cls-17" d="M581.77,463.21c0,.7,0,1.41,0,2.11a1.25,1.25,0,0,1-1.32,1.35c-1.17,0-2.35,0-3.53,0a1.21,1.21,0,0,1-1.31-1.21,28.8,28.8,0,0,1,0-4.55,1.17,1.17,0,0,1,1.15-1.17,20.53,20.53,0,0,1,3.84,0,1.2,1.2,0,0,1,1.17,1.35C581.79,461.79,581.77,462.5,581.77,463.21Zm-2,.07c0-1.61-.06-1.66-1.58-1.51-.37,0-.54.2-.54.56,0,.56,0,1.12,0,1.67s.21.68.7.67C579.91,464.65,579.74,464.8,579.75,463.28Z"></path><path class="cls-17" d="M567.09,430.14c0,.67,0,1.33,0,2a1.34,1.34,0,0,1-1.42,1.48c-1.13,0-2.26,0-3.4,0a1.32,1.32,0,0,1-1.41-1.42c0-1.36,0-2.73,0-4.1a1.34,1.34,0,0,1,1.45-1.46c1.11,0,2.23,0,3.34,0a1.35,1.35,0,0,1,1.44,1.52v2Zm-4.22,0v.9c0,.33.14.58.49.52.56-.11,1.24.35,1.69-.32a.55.55,0,0,0,0-.26c0-.55,0-1.11,0-1.66s-.2-.63-.65-.65C562.87,428.63,562.87,428.62,562.87,430.17Z"></path><path class="cls-17" d="M567.09,441.14c0,.68,0,1.37,0,2.05a1.28,1.28,0,0,1-1.32,1.43,35.82,35.82,0,0,1-3.59,0,1.26,1.26,0,0,1-1.31-1.37q-.06-2.12,0-4.23a1.29,1.29,0,0,1,1.41-1.35c1.13,0,2.27,0,3.4,0a1.33,1.33,0,0,1,1.41,1.48v2Zm-2,0c0-1.61.19-1.43-1.5-1.44h-.13c-.41,0-.59.17-.58.57s0,1.07,0,1.6.18.73.71.73C565.31,442.57,565.06,442.66,565.08,441.12Z"></path><path class="cls-17" d="M574.43,452.23c0,.69,0,1.37,0,2.06a1.23,1.23,0,0,1-1.33,1.33c-1.17,0-2.35,0-3.53,0a1.17,1.17,0,0,1-1.31-1.13,26.4,26.4,0,0,1,0-4.62,1.18,1.18,0,0,1,1.31-1.15c1.18,0,2.36,0,3.53,0a1.22,1.22,0,0,1,1.33,1.32C574.45,450.77,574.43,451.5,574.43,452.23Zm-2-.06c0-1.56.28-1.45-1.57-1.44-.37,0-.56.16-.56.54v1.79a.48.48,0,0,0,.55.55C572.7,453.62,572.39,453.73,572.41,452.17Z"></path><path class="cls-17" d="M581.77,452.2c0,.69,0,1.38,0,2.06a1.23,1.23,0,0,1-1.35,1.37c-1.16,0-2.31,0-3.47,0a1.19,1.19,0,0,1-1.35-1.23,29.78,29.78,0,0,1,0-4.43,1.2,1.2,0,0,1,1.35-1.24c1.16,0,2.31,0,3.47,0a1.23,1.23,0,0,1,1.35,1.36C581.79,450.79,581.77,451.5,581.77,452.2Zm-2-.08h0c0-.28,0-.56,0-.83s-.16-.61-.53-.55c-.53.09-1.16-.32-1.57.33,0,0,0,.08,0,.13,0,.64,0,1.28,0,1.92,0,.31.15.45.46.49,1.5.2,1.65.08,1.65-1.43Z"></path><path class="cls-17" d="M567.09,452.2c0,.66,0,1.33,0,2a1.3,1.3,0,0,1-1.44,1.44h-3.34c-.9,0-1.41-.43-1.44-1.3,0-1.43,0-2.87,0-4.31,0-.87.54-1.29,1.43-1.3,1.11,0,2.23,0,3.34,0a1.29,1.29,0,0,1,1.45,1.42C567.11,450.83,567.09,451.51,567.09,452.2Zm-2,0c0-.32,0-.64,0-1,0-.51-.4-.54-.73-.47-.49.12-1.2-.41-1.46.44a.75.75,0,0,0,0,.26c0,.49,0,1,0,1.47s.19.72.72.71C565.28,453.59,565.06,453.75,565.07,452.17Z"></path></g><text class="cls-18" transform="translate(626.36 432.34)">Achieve<tspan class="cls-26" x="58.75" y="0"> </tspan><tspan x="65.04" y="0">universal</tspan><tspan class="cls-27" x="134.64" y="0"> </tspan><tspan x="140.93" y="0">health</tspan><tspan class="cls-26" x="189.66" y="0"> </tspan><tspan x="195.95" y="0">coverage,</tspan><tspan class="cls-27" x="267.9" y="0"> </tspan><tspan class="cls-21" x="274.19" y="0">access</tspan><tspan class="cls-28" x="319.54" y="0"> </tspan><tspan class="cls-21" x="325.83" y="0">to </tspan><tspan class="cls-21"><tspan x="0" y="18">quality</tspan><tspan class="cls-29" x="47.18" y="18"> </tspan><tspan x="52.08" y="18">essential</tspan><tspan class="cls-30" x="113.66" y="18"> </tspan><tspan x="118.56" y="18">health-care</tspan><tspan class="cls-29" x="197.67" y="18"> </tspan><tspan x="202.57" y="18">services</tspan><tspan class="cls-30" x="258.29" y="18"> </tspan><tspan x="263.19" y="18">and</tspan><tspan class="cls-29" x="289.93" y="18"> </tspan><tspan x="294.83" y="18">access </tspan><tspan x="0" y="36">to</tspan><tspan class="cls-31" x="14.36" y="36"> </tspan><tspan x="18.05" y="36">safe,</tspan><tspan class="cls-32" x="50.73" y="36"> </tspan><tspan x="54.42" y="36">effective,</tspan><tspan class="cls-31" x="117.26" y="36"> </tspan><tspan x="120.96" y="36">quality</tspan><tspan class="cls-31" x="168.14" y="36"> </tspan><tspan x="171.84" y="36">and</tspan><tspan class="cls-32" x="198.58" y="36"> </tspan><tspan x="202.28" y="36">affordable</tspan><tspan class="cls-31" x="274.91" y="36"> </tspan><tspan x="278.61" y="36">essential </tspan><tspan x="0" y="54">medicines and </tspan><tspan class="cls-23" x="105.6" y="54">vaccines for all</tspan></tspan></text><text class="cls-18" transform="translate(1124.5 435.63)">Provide<tspan class="cls-33" x="56.98" y="0"> </tspan><tspan x="62.79" y="0">basic</tspan><tspan class="cls-33" x="101.09" y="0"> </tspan><tspan x="106.9" y="0">services</tspan><tspan class="cls-34" x="167.17" y="0"> </tspan><tspan class="cls-21" x="172.98" y="0">to</tspan><tspan class="cls-34" x="187.34" y="0"> </tspan><tspan class="cls-21" x="193.15" y="0">all</tspan><tspan class="cls-34" x="209.08" y="0"> </tspan><tspan class="cls-21" x="214.89" y="0">citizens</tspan><tspan class="cls-35" x="266.71" y="0"> </tspan><tspan class="cls-21" x="272.52" y="0">including </tspan><tspan class="cls-21"><tspan x="0" y="18">access</tspan><tspan class="cls-36" x="45.35" y="18"> </tspan><tspan x="62.73" y="18">to</tspan><tspan class="cls-36" x="77.09" y="18"> </tspan><tspan x="94.47" y="18">housing,</tspan><tspan class="cls-37" x="154" y="18"> </tspan><tspan x="171.38" y="18">safe</tspan><tspan class="cls-36" x="200.38" y="18"> </tspan><tspan x="217.76" y="18">drinking</tspan><tspan class="cls-36" x="275.17" y="18"> </tspan><tspan x="292.55" y="18">water, </tspan><tspan x="0" y="36">sanitation, nutritious food and healthcare. </tspan></tspan></text><g id="el4iFO.tif"><path class="cls-17" d="M1083.63,479.48c-.93-.8-1-1.33-.28-2.35,2.89-4.08,5.74-8.18,8.69-12.21a11.5,11.5,0,0,0,2.26-7c0-5.95,0-11.9,0-17.85a3.74,3.74,0,0,0-.11-1.11,1.58,1.58,0,0,0-3.06.12,5.1,5.1,0,0,0-.1,1.11c0,4.85,0,9.7,0,14.55a8.62,8.62,0,0,1-2.35,6c-1.9,2.06-3.83,4.08-5.75,6.12a3,3,0,0,1-.41.38,1.28,1.28,0,0,1-1.82-1.77,9.67,9.67,0,0,1,.89-1l4.91-5.2a2.28,2.28,0,0,0,.72-1.79,1.82,1.82,0,0,0-2.73-1.51,49.87,49.87,0,0,0-6.11,4.27,15.45,15.45,0,0,0-5,8.65c-.63,3-1.26,6-1.87,8.94a2.46,2.46,0,0,1-.9,1.71h-1a1.44,1.44,0,0,1-.81-1.65c.73-3.4,1.38-6.82,2.19-10.21a18.08,18.08,0,0,1,7.75-11q1.9-1.29,3.82-2.57a4.48,4.48,0,0,1,5.7,0,.42.42,0,0,0,.13,0c.18-.21.09-.47.09-.71,0-4.6,0-9.2,0-13.8a4.12,4.12,0,0,1,3.75-4.35,4.19,4.19,0,0,1,4.65,3.8c0,.64,0,1.29,0,1.93,0,5.87,0,11.74,0,17.6a11.9,11.9,0,0,1-2.17,7.08c-3.08,4.39-6.2,8.76-9.31,13.14a2.38,2.38,0,0,1-.77.71Z"></path><path class="cls-17" d="M1059.37,479.48a2.42,2.42,0,0,1-.9-1.71c-.66-3.14-1.29-6.29-2-9.42a15.51,15.51,0,0,0-6.67-9.55q-2-1.33-3.92-2.64a1.93,1.93,0,0,0-2.69.14,2.07,2.07,0,0,0,.21,2.86l5.62,6a1.39,1.39,0,0,1,.4,1.52,1.23,1.23,0,0,1-1,.81,1.28,1.28,0,0,1-1.18-.44c-2.19-2.34-4.5-4.58-6.55-7.06a7.72,7.72,0,0,1-1.75-5q0-7.44,0-14.87a4.64,4.64,0,0,0-.1-1.11,1.58,1.58,0,0,0-3-.1,3.19,3.19,0,0,0-.12.92c0,6.12,0,12.23,0,18.35a10.42,10.42,0,0,0,2,6.34c.61.84,1.2,1.69,1.8,2.53a1.63,1.63,0,0,1,.39,1.15,1.26,1.26,0,0,1-.95,1.12,1.19,1.19,0,0,1-1.37-.48c-1.93-2.62-4-5.18-4.43-8.57v-21.9a4.8,4.8,0,0,1,1.93-2.58,4.09,4.09,0,0,1,4.31-.1,3.93,3.93,0,0,1,2.13,3.62c0,4.6,0,9.2,0,13.8v.49c0,.14-.06.32.08.41s.25-.08.36-.16a4.44,4.44,0,0,1,2.68-.84,3.83,3.83,0,0,1,2.08.54,59.53,59.53,0,0,1,6.24,4.3,18.74,18.74,0,0,1,6.46,11.37c.53,2.76,1.15,5.51,1.73,8.27a1.48,1.48,0,0,1-.76,2Z"></path><path class="cls-17" d="M1045.31,479.48a2.29,2.29,0,0,1-.7-.61c-.6-.85-1.22-1.68-1.78-2.55a1.29,1.29,0,0,1,.35-1.81,1.35,1.35,0,0,1,1.78.35q1,1.26,1.83,2.58c.5.77.34,1.33-.49,2Z"></path><path class="cls-17" d="M1073.22,455.12c-1.2,0-2.41,0-3.61,0a1.37,1.37,0,0,1-1.42-.9c-.29-.86.3-1.63,1.32-1.74,1.26-.13,1.26-.13,1.26-1.4,0-.39,0-.79,0-1.18a1.27,1.27,0,0,1,2.54,0,18.88,18.88,0,0,1,0,2c0,.44.17.59.59.58,2.07,0,1.71.27,1.73-1.67a10.81,10.81,0,0,0-.09-2.48,5,5,0,0,0-3.93-4c-.88-.24-1.77-.42-2.65-.65a.58.58,0,0,0-.8.41c-.59,1.4-1.22,2.77-1.81,4.17-.28.64-.63,1.21-1.41,1.21s-1.11-.54-1.38-1.17c-.6-1.41-1.24-2.8-1.83-4.21a.58.58,0,0,0-.81-.41c-1.1.3-2.22.52-3.3.86a4.87,4.87,0,0,0-3.36,4.49c0,.95,0,1.91,0,2.86,0,.39.15.57.55.56,2.18,0,1.71.28,1.77-1.63,0-.29,0-.58,0-.87a1.28,1.28,0,0,1,2.55,0c0,.66,0,1.32,0,2,0,.37.14.53.51.52a3.21,3.21,0,0,1,1.11.11,1.24,1.24,0,0,1,.91,1.21,1.22,1.22,0,0,1-.87,1.23,2.42,2.42,0,0,1-.8.11h-6.72c-1.2,0-1.68-.5-1.68-1.72s0-2.57,0-3.86c0-.49-.17-.65-.65-.64-1.58,0-3.15,0-4.73,0-1.1,0-1.59-.49-1.59-1.6a13.42,13.42,0,0,1,.15-3.23,5.85,5.85,0,0,1,4.57-4.57l1.63-.4c.36-.1.45-.3.13-.56a5.89,5.89,0,0,1-2.14-5.24,22.35,22.35,0,0,1,.12-3.17,5.6,5.6,0,0,1,8.65-3.54c.38.26.51.21.72-.18a7.31,7.31,0,0,1,13,0c.21.38.33.44.72.19a5.6,5.6,0,0,1,8.73,4.55c0,1,0,2,0,3.05a5.51,5.51,0,0,1-1.91,4.17c-.16.15-.46.23-.4.5s.39.25.62.31c.67.2,1.37.34,2,.56a5.81,5.81,0,0,1,4,5.21c0,.84,0,1.7,0,2.55a1.32,1.32,0,0,1-1.46,1.41c-1.58,0-3.15,0-4.73,0-.58,0-.8.14-.78.76,0,1.28,0,2.57,0,3.86a1.42,1.42,0,0,1-1.62,1.6Zm-3.55-21.84c0-.27,0-.54,0-.81a.77.77,0,0,0-.46-.8c-.56-.31-1.11-.64-1.66-1a.48.48,0,0,0-.66,0,8,8,0,0,1-5.37,1.77c-1.37,0-1.3-.28-1.24,1.31a4.7,4.7,0,0,0,6.41,4.32C1068.61,437.4,1069.67,435.67,1069.67,433.28Zm2.6,8.41c.06.06.09.1.12.11a7.75,7.75,0,0,1,5.18,4.22.49.49,0,0,0,.49.31h4.11c.31,0,.43-.13.46-.44a3.37,3.37,0,0,0-2.62-3.82c-.91-.23-1.82-.43-2.73-.65a1.44,1.44,0,0,1-1.3-1.29c-.07-.64-.58-.27-.89-.36s-.37.12-.4.38a1.33,1.33,0,0,1-1.09,1.2Zm-14.51,0-1.36-.34a1.38,1.38,0,0,1-1.15-1.23c0-.26-.09-.46-.41-.37s-.8-.25-.87.38c-.08.79-.61,1.12-1.31,1.28-.85.19-1.7.4-2.54.6a3.35,3.35,0,0,0-2.81,3.74c0,.44.18.57.59.57,1.25,0,2.49,0,3.73,0a.82.82,0,0,0,.86-.54,7.39,7.39,0,0,1,3.77-3.54C1056.71,442.06,1057.18,441.92,1057.76,441.71Zm11.76-13a4.6,4.6,0,0,0-5.25-3.61,4.68,4.68,0,0,0-4,4.37c0,.29.11.41.4.42a6.13,6.13,0,0,0,5.15-1.77,1.41,1.41,0,0,1,2.05-.3A11.35,11.35,0,0,0,1069.52,428.73Zm2.82,5.15a3.81,3.81,0,0,0,.08,1,3,3,0,0,0,3,2.26,3,3,0,0,0,2.8-2.54c.18-1,.18-1-.84-1a13.24,13.24,0,0,1-4.11-.5C1072.33,432.8,1072.33,432.8,1072.34,433.88Zm-14.73,0v-.25c0-.84,0-.84-.83-.58a12.33,12.33,0,0,1-3.91.55c-1.31,0-1.51.27-1.06,1.53a3.1,3.1,0,0,0,.41.76,3,3,0,0,0,3.3,1.09A3,3,0,0,0,1057.61,433.88Zm19.09-2.94h1c.48,0,.65-.17.48-.64a2.93,2.93,0,0,0-2.39-2,2.88,2.88,0,0,0-2.88,1.21c-.26.32-.29.54.18.73A8.83,8.83,0,0,0,1076.7,430.94Zm-23.43,0a8.68,8.68,0,0,0,3.68-.76c.35-.15.38-.31.17-.6a3,3,0,0,0-2.91-1.31,3,3,0,0,0-2.46,2.11c-.1.37,0,.56.4.56Zm11.62,13.8.17,0c.37-.85.75-1.7,1.11-2.55a2.51,2.51,0,0,0,.15-.6c.06-.37,0-.58-.49-.53a11.6,11.6,0,0,1-1.56,0c-.67,0-.84.14-.61.78C1064,442.82,1064.47,443.77,1064.89,444.74Zm4.4-5c.85-.21,1.57-.38,2.28-.58.53-.14.56-.29.17-.68-.1-.1-.23-.19-.32-.3-.23-.29-.4-.26-.61,0A8.4,8.4,0,0,1,1069.29,439.71Zm-8.87-.06c-.31-.35-.67-.74-1-1.15-.56-.65-.56-.65-1.21,0-.38.35-.35.52.14.65C1059.06,439.32,1059.8,439.5,1060.42,439.65Z"></path><path class="cls-17" d="M1060.78,420.58a1.27,1.27,0,0,1-1.91,1.22,5.81,5.81,0,0,1-1.78-1.78,1.17,1.17,0,0,1,.17-1.49,1.1,1.1,0,0,1,1.35-.34,5.35,5.35,0,0,1,2.09,2.05A.9.9,0,0,1,1060.78,420.58Z"></path><path class="cls-17" d="M1073,419.43a3.85,3.85,0,0,1-2.56,2.58,1.22,1.22,0,0,1-1.12-.66,1.18,1.18,0,0,1,0-1.3,6.43,6.43,0,0,1,1.71-1.7A1.26,1.26,0,0,1,1073,419.43Z"></path><path class="cls-17" d="M1066.24,417.91c0,.37,0,.75,0,1.12a1.25,1.25,0,0,1-1.27,1.12,1.22,1.22,0,0,1-1.26-1.12,15.86,15.86,0,0,1,0-2.18,1.22,1.22,0,0,1,1.26-1.12,1.25,1.25,0,0,1,1.27,1.12C1066.27,417.2,1066.24,417.56,1066.24,417.91Z"></path><path class="cls-17" d="M1063.69,453.75a1.28,1.28,0,1,1,2.56.11,1.28,1.28,0,1,1-2.56-.11Z"></path><path class="cls-17" d="M1041.31,470.65a1.35,1.35,0,0,1,1.29,1.33,1.31,1.31,0,0,1-1.31,1.29,1.29,1.29,0,0,1-1.25-1.35A1.31,1.31,0,0,1,1041.31,470.65Z"></path></g><text class="cls-38" transform="translate(178.31 537.99)">Meaningful<tspan class="cls-39" x="78.81" y="0"> </tspan><tspan class="cls-23" x="97.34" y="0">public</tspan><tspan class="cls-40" x="143.05" y="0"> </tspan><tspan class="cls-23" x="161.58" y="0">participation</tspan><tspan class="cls-41" x="259.11" y="0"> </tspan><tspan x="277.65" y="0">in </tspan><tspan x="0" y="18">decision</tspan><tspan class="cls-42" x="57.76" y="18"> </tspan><tspan x="63.61" y="18">making,</tspan><tspan class="cls-42" x="118.68" y="18"> </tspan><tspan x="124.53" y="18">planning</tspan><tspan class="cls-43" x="185.49" y="18"> </tspan><tspan x="191.34" y="18">and</tspan><tspan class="cls-42" x="218.08" y="18"> </tspan><tspan x="223.94" y="18">follow</tspan><tspan class="cls-42" x="266.4" y="18"> </tspan><tspan x="272.25" y="18">up </tspan><tspan x="0" y="36">through inclusive platforms.</tspan></text><text class="cls-18" transform="translate(1124.5 549.38)">Improve<tspan class="cls-44" x="62.68" y="0"> </tspan><tspan x="67.39" y="0">planning,</tspan><tspan class="cls-44" x="137.49" y="0"> </tspan><tspan class="cls-45" x="142.2" y="0">administration</tspan><tspan class="cls-46" x="254.57" y="0"> </tspan><tspan class="cls-21" x="259.27" y="0">and</tspan><tspan class="cls-47" x="286.01" y="0"> </tspan><tspan class="cls-20" x="290.72" y="0">access </tspan><tspan class="cls-21"><tspan x="0" y="18">to</tspan><tspan class="cls-48" x="14.36" y="18"> </tspan><tspan x="19.43" y="18">urban</tspan><tspan class="cls-49" x="61.5" y="18"> </tspan><tspan x="66.57" y="18">services</tspan><tspan class="cls-48" x="122.29" y="18"> </tspan><tspan x="127.36" y="18">through</tspan><tspan class="cls-48" x="183.68" y="18"> </tspan><tspan x="188.75" y="18">digital</tspan><tspan class="cls-49" x="231.18" y="18"> </tspan><tspan x="236.26" y="18">platforms</tspan><tspan class="cls-48" x="304.26" y="18"> </tspan><tspan x="309.33" y="18">and </tspan><tspan x="0" y="36">tools</tspan></tspan></text><g id="V2UcDA.tif"><path class="cls-17" d="M150.39,545.54a2.46,2.46,0,0,1-2.1,1.47c-.36,0-.71.15-1.06.21-1.21.22-1.57,1-.9,2,.31.46.63.91.92,1.39a2,2,0,0,1-.23,2.54c-.48.53-1,1-1.53,1.53a2,2,0,0,1-2.54.21l-.43-.28c-.91-.61-.92-.61-1.78,0a2.57,2.57,0,0,1-1,.4,11.45,11.45,0,0,1-1.63.32,2,2,0,0,0-2,1.61,1,1,0,0,0,.11.94c.5.71,1,1.44,1.46,2.18a2.24,2.24,0,0,1-.28,3c-.56.58-1.14,1.16-1.72,1.72a2.24,2.24,0,0,1-3,.27c-.71-.44-1.41-.9-2.08-1.39a1.26,1.26,0,0,0-1.18-.13,1.86,1.86,0,0,0-1.46,1.88,13.58,13.58,0,0,1-.37,1.88,2.11,2.11,0,0,1-1.91,1.72,12.07,12.07,0,0,1-3.12,0,2.15,2.15,0,0,1-1.95-1.77c-.2-.87-.38-1.75-.53-2.63a1.16,1.16,0,0,0-.68-.83,1.92,1.92,0,0,0-2.47.31,9.48,9.48,0,0,1-1.55,1,2.14,2.14,0,0,1-2.71-.26,25,25,0,0,1-2-2,2.12,2.12,0,0,1-.18-2.72c.48-.76,1-1.5,1.49-2.24a1,1,0,0,0,.1-1,1.89,1.89,0,0,0-1.94-1.55,10.21,10.21,0,0,1-1.63-.32,2.31,2.31,0,0,1-2-2.33,21.88,21.88,0,0,1,0-2.43,2.34,2.34,0,0,1,2.06-2.34c.81-.17,1.62-.34,2.44-.48a1,1,0,0,0,.75-.59,1.94,1.94,0,0,0-.26-2.53,8.77,8.77,0,0,1-1-1.43,2.21,2.21,0,0,1,.3-3c.56-.59,1.14-1.16,1.72-1.72a2.23,2.23,0,0,1,2.93-.31c.78.49,1.53,1,2.28,1.54a.9.9,0,0,0,.83.08,2,2,0,0,0,1.66-2.07,9.14,9.14,0,0,1,.34-1.7A2.25,2.25,0,0,1,123,534c.41,0,.82,0,1.22,0a2.86,2.86,0,0,0,2.72-1,1.83,1.83,0,0,1,2.47-.22c.56.34,1.1.73,1.65,1.09a1.19,1.19,0,0,0,1.75-.72c.12-.59.21-1.18.34-1.76a2.05,2.05,0,0,1,2.22-1.79c.62,0,1.24,0,1.85,0a1.92,1.92,0,0,1,2,1.55c.17.62.26,1.25.4,1.88a1.17,1.17,0,0,0,1.84.78c.5-.33,1-.68,1.49-1a2,2,0,0,1,2.69.25c.48.46.95.93,1.4,1.41a2,2,0,0,1,.26,2.58c-.34.55-.71,1.07-1.06,1.61a1.17,1.17,0,0,0,.73,1.77c.5.11,1,.23,1.51.3a2.35,2.35,0,0,1,2,1.46Zm-36-5.56a.52.52,0,0,0-.47.24c-.34.33-.65.68-1,1a.54.54,0,0,0-.09.86c.62.88,1.19,1.78,1.79,2.66a1.24,1.24,0,0,1,.12,1.38,13.11,13.11,0,0,0-1.06,2.54,1.2,1.2,0,0,1-1,.88c-.65.13-1.29.27-1.94.39-1.89.37-1.88.36-1.81,2.29a.56.56,0,0,0,.54.64c1,.19,2,.41,3.07.61a1.45,1.45,0,0,1,1.21,1.09,8.87,8.87,0,0,0,.9,2.18,1.4,1.4,0,0,1-.11,1.67c-.35.49-.67,1-1,1.49-1.05,1.58-1.05,1.57.34,2.88a.59.59,0,0,0,.88.07c.84-.59,1.71-1.13,2.55-1.72a1.38,1.38,0,0,1,1.61-.1,9.73,9.73,0,0,0,2.24.93,1.4,1.4,0,0,1,1.06,1.16c.14.74.27,1.47.43,2.2.4,1.76,0,1.42,1.73,1.46a2.41,2.41,0,0,1,.38,0c.48.05.69-.14.77-.62.18-1,.42-2.09.63-3.14a1.2,1.2,0,0,1,.88-1,13,13,0,0,0,2.47-1,1.28,1.28,0,0,1,1.45.1c.53.36,1.06.72,1.6,1.06s1,1,1.5.89.89-.81,1.36-1.2.31-.57.07-.92c-.58-.82-1.11-1.68-1.69-2.5a1.43,1.43,0,0,1-.1-1.67,9.64,9.64,0,0,0,.9-2.18,1.42,1.42,0,0,1,1.26-1.11c.61-.1,1.21-.24,1.82-.36,1.75-.36,1.74-.36,1.71-2.16,0-.46-.14-.7-.63-.78-1-.17-2-.41-2.95-.58a1.42,1.42,0,0,1-1.2-1.08,10.73,10.73,0,0,0-.94-2.24,1.34,1.34,0,0,1,.09-1.56c.36-.51.7-1,1-1.54,1-1.57,1-1.56-.33-2.88a.58.58,0,0,0-.88-.08c-.86.6-1.74,1.17-2.6,1.75a1.3,1.3,0,0,1-1.45.12,12.47,12.47,0,0,0-2.42-1,1.31,1.31,0,0,1-1-1.08c-.11-.63-.24-1.26-.38-1.88-.48-2.11.07-1.74-2.18-1.8a.69.69,0,0,0-.8.68c-.17.95-.38,1.89-.55,2.83a1.44,1.44,0,0,1-1.15,1.29,9.09,9.09,0,0,0-2.18.92,1.36,1.36,0,0,1-1.56-.09c-.84-.58-1.7-1.14-2.55-1.71Zm21.91-2.79.69.09a6.6,6.6,0,0,1,4.35,10.89c-.23.27-.32.44,0,.74a1.57,1.57,0,0,1,.42,1.24,1.65,1.65,0,0,0,1.08,1.87c.15.07.28.19.43.28,1,.61.69.73,1.66-.18.3-.29.27-.5,0-.81-.45-.63-.86-1.28-1.29-1.92a1.22,1.22,0,0,1-.07-1.38,8.16,8.16,0,0,0,.77-1.83,1.27,1.27,0,0,1,1.07-1c.71-.14,1.41-.34,2.13-.43s.64-.45.65-.93-.07-.85-.67-.92-1.38-.29-2.07-.41a1.29,1.29,0,0,1-1.12-1,7,7,0,0,0-.72-1.71,1.35,1.35,0,0,1,.1-1.61c.43-.62.83-1.25,1.26-1.86a.44.44,0,0,0-.07-.7,2.79,2.79,0,0,1-.45-.46c-.26-.33-.5-.29-.81-.07-.61.44-1.24.85-1.86,1.27a1.31,1.31,0,0,1-1.5.08,7.38,7.38,0,0,0-1.76-.74,1.28,1.28,0,0,1-1-1.07c-.14-.75-.35-1.49-.45-2.25s-.5-.53-.89-.53-.82-.08-.9.53-.3,1.46-.44,2.19a1.33,1.33,0,0,1-1,1.13,7.55,7.55,0,0,0-1.76.74,1.3,1.3,0,0,1-1.5-.1c-.59-.41-1.2-.81-1.81-1.2-.19-.13-.39-.41-.66-.15s-.54.42-.43.86c.2.87.36,1.75.54,2.63,0,.2,0,.43.29.53.88.39,1.76,1,2.64,0,.17-.18.44-.26.63-.43C133.08,537.39,134.76,537.49,136.28,537.19Zm1,2.54c1.1,1.64,1.1,2.16,0,3.75a7.65,7.65,0,0,1-.68,1,1.72,1.72,0,0,0-.26,2.23,1.76,1.76,0,0,0,2.27.73,4.33,4.33,0,0,0,1.91-4.19A4.23,4.23,0,0,0,137.31,539.73Z"></path><path class="cls-17" d="M110.28,595.26a2.21,2.21,0,0,1-.79-1.35,15.77,15.77,0,0,0-2.88-5.74l-.34-.38a1.58,1.58,0,0,0-2-.46,63.85,63.85,0,0,1-8,2.39,4.08,4.08,0,0,1-4.75-2.23,6.42,6.42,0,0,1-.52-4.31c.06-.22.11-.45.15-.68a1.27,1.27,0,0,0-.75-1.53,6.05,6.05,0,0,1-.55-.32,1.83,1.83,0,0,1-.94-2.43c.12-.39.11-.64-.23-.87-1.39-.94-1.3-1.76-.6-3.07.19-.36.41-.7.57-1.08.33-.82.2-1.2-.57-1.63-.56-.32-1.13-.61-1.67-1-1.85-1.15-2.19-2.65-.92-4.43s2.61-3.49,3.71-5.38c.62-1.07,1.18-2.17,1.75-3.27a.85.85,0,0,0-.17-1.14c-.27-.25-.55-.48-.81-.73-1-1-1.76-2.21-1.13-3.61,1.3-2.86,1.86-5.95,3-8.85a17.63,17.63,0,0,1,12.41-11.4,71.09,71.09,0,0,1,12-2.09c1.47-.14,2.94-.1,4.41-.1a2.76,2.76,0,0,1,1.07.17,1.07,1.07,0,0,1,.73,1.16,1.1,1.1,0,0,1-1,1,1.7,1.7,0,0,1-.39,0c-4.71-.29-9.3.55-13.89,1.49a21.93,21.93,0,0,0-6.44,2.25c-3.52,2-5.58,5.12-7,8.8a24.21,24.21,0,0,0-.91,3.26A22.87,22.87,0,0,1,91.28,552c-.48,1.13-.45,1.21.44,2.05a9.33,9.33,0,0,1,.79.75,3.06,3.06,0,0,1,.54,3.66,46,46,0,0,1-5.3,8.52c-.89,1.13-.86,1.23.39,1.94.49.28,1,.52,1.45.82A3.11,3.11,0,0,1,91,573.5a4.77,4.77,0,0,1-.64,1.46c-.29.42-.19.68.22.92a4.51,4.51,0,0,1,.61.47c.74.61.83,1.06.31,1.87-.23.36-.27.54.17.79a3.38,3.38,0,0,1,1.74,4,5.18,5.18,0,0,0,.07,3.14,1.88,1.88,0,0,0,2.33,1.26,121,121,0,0,0,12.64-4,30.46,30.46,0,0,0,3.83-1.45,8.18,8.18,0,0,0,1.71-1.13,2.68,2.68,0,0,0,1-1.85c.06-.86.6-1.36,1.29-1.29s1.11.64,1,1.5a4.92,4.92,0,0,1-1.89,3.44,14.4,14.4,0,0,1-4.8,2.5c-.77.26-1.53.53-2.31.78-.4.12-.39.28-.14.57a16.41,16.41,0,0,1,3.29,6c.16.52.51.5.9.49,5.89-.16,11.79-.06,17.68-.1,1.84,0,3.67,0,5.51,0,.54,0,.63-.09.33-.59a25.45,25.45,0,0,1-2.87-8.57,30.24,30.24,0,0,1-.5-4.13,20.53,20.53,0,0,1,4.31-13.51c.9-1.19,1.82-2.37,2.61-3.64a14.67,14.67,0,0,0,1.78-4.17,2.17,2.17,0,0,1,.07-.24,1.16,1.16,0,1,1,2.24.6,18.53,18.53,0,0,1-3.35,6.86c-.92,1.26-1.89,2.48-2.71,3.81a18.2,18.2,0,0,0-2.41,12.31,30.22,30.22,0,0,0,2,8,13.28,13.28,0,0,0,1.21,2.18,7.63,7.63,0,0,1,.83,1.51c.4,1,.24,1.42-.7,1.93Z"></path><path class="cls-17" d="M109.27,536.56a1.23,1.23,0,0,1-1.08,1.17c-1.06.25-2.11.52-3.15.85-3.71,1.2-5.86,3.9-7.13,7.42-.3.82-.49,1.68-.71,2.52-.1.38-.26.53-.68.43-2-.48-1.79-.14-1.32-2.07a17.72,17.72,0,0,1,2-4.88,13.29,13.29,0,0,1,8.58-6.1c.68-.18,1.37-.35,2.06-.47A1.16,1.16,0,0,1,109.27,536.56Z"></path><path class="cls-17" d="M95.78,552.59a1.19,1.19,0,0,1-1.12,1.17,1.17,1.17,0,0,1-1.19-1.16,1.18,1.18,0,0,1,1.14-1.15A1.21,1.21,0,0,1,95.78,552.59Z"></path><path class="cls-17" d="M124.11,543.82a7.65,7.65,0,0,1,7.74,7.63,7.73,7.73,0,1,1-7.74-7.63Zm5.39,7.7a5.37,5.37,0,1,0-5.35,5.39A5.35,5.35,0,0,0,129.5,551.52Z"></path><path class="cls-17" d="M124.16,552.66a1.16,1.16,0,0,1-1.18-1.11,1.19,1.19,0,0,1,1.18-1.18,1.17,1.17,0,0,1,1.14,1.14A1.16,1.16,0,0,1,124.16,552.66Z"></path></g><text class="cls-18" transform="translate(626.52 546.09)">Enhance<tspan class="cls-50" x="63.61" y="0"> </tspan><tspan class="cls-21" x="85.37" y="0">North-South,</tspan><tspan class="cls-51" x="175.87" y="0"> </tspan><tspan x="197.63" y="0">South-South</tspan><tspan class="cls-50" x="290.01" y="0"> </tspan><tspan x="311.77" y="0">and </tspan><tspan x="0" y="18">international</tspan><tspan class="cls-52" x="99.41" y="18"> </tspan><tspan x="108.47" y="18">cooperation</tspan><tspan class="cls-53" x="199.22" y="18"> </tspan><tspan class="cls-21" x="208.28" y="18">on</tspan><tspan class="cls-54" x="226.55" y="18"> </tspan><tspan class="cls-21" x="235.61" y="18">and</tspan><tspan class="cls-53" x="262.35" y="18"> </tspan><tspan class="cls-21" x="271.42" y="18">access</tspan><tspan class="cls-54" x="316.77" y="18"> </tspan><tspan class="cls-21" x="325.83" y="18">to </tspan><tspan class="cls-21"><tspan x="0" y="36">science,</tspan><tspan class="cls-55" x="54.95" y="36"> </tspan><tspan class="cls-23" x="68.42" y="36">technology</tspan><tspan class="cls-55" x="151.39" y="36"> </tspan><tspan x="164.86" y="36">and</tspan><tspan class="cls-56" x="191.6" y="36"> </tspan><tspan class="cls-23" x="205.08" y="36">innovation</tspan><tspan class="cls-55" x="286.49" y="36" xml:space="preserve">  </tspan><tspan x="313.44" y="36">and </tspan><tspan x="0" y="54">enhance </tspan><tspan class="cls-23" x="63.83" y="54">knowledge sharing</tspan></tspan></text><g id="tfEwyp.tif"><path class="cls-17" d="M530.71,600.69c-.22-2-.22-2,1.79-2,.69,0,1.38,0,2.06,0s.83-.22.76-.81c0-.21,0-.44,0-.66V543.88c0-1.1,0-1.1,1.08-1.1,1.69,0,1.69,0,1.69-1.67,0-1.21,0-2.43,0-3.64,0-.49.19-.66.66-.67,1.43-.06,1.43-.07,1.43,1.35s0,2.65,0,4c0,.49.16.67.65.66,1.79,0,1.53.15,1.54-1.5,0-2.47,0-4.95,0-7.42,0-.92,0-.93.92-.93,1.25,0,1.25,0,1.25,1.25,0,2.59,0,5.17,0,7.75,0,.69.22.86.88.86,4.13,0,8.25,0,12.38,0,1.05,0,1.05,0,1.05,1.08V600c0,.24,0,.49,0,.73Zm6.78-28.89v26c0,.88,0,.88.87.88H555.7c.95,0,.95,0,.95-.93V545.86c0-.92,0-.92-.9-.92H538.47c-1,0-1,0-1,1Z"></path><path class="cls-17" d="M560.39,600.69c-.22-2-.22-2,1.79-2,4.64,0,9.27,0,13.91,0,.63,0,.83-.17.82-.82q0-16.79,0-33.59a1,1,0,0,0-.7-1.1q-7.74-3.7-15.45-7.44c-.88-.43-.87-.43-.48-1.3.57-1.25.43-1.08,1.54-.55,1.65.8,1.65.81,2.93-.49a8.69,8.69,0,0,0,2-2.11c.41-.86.11-2,.12-2.95,0-1.68,0-3.36,0-5,0-.58.14-.85.78-.83,1.49,0,1.39-.17,1.39,1.4s0,3,0,4.44c0,.21,0,.42,0,.79a30.53,30.53,0,0,1,2.44-2.41,4,4,0,0,0,1.64-3.95c-.11-.85,0-1.73,0-2.59,0-.54.21-.73.75-.72,1.64,0,1.4-.12,1.42,1.43v1.83l.21.16a6.51,6.51,0,0,1,.55-.72c1.3-1.32,2.62-2.62,3.92-4,.34-.35.59-.36.93,0,1.25,1.3,1.16.89,0,2.08-.57.59-1.15,1.16-1.73,1.74,0,0,0,.08-.07.17a3.45,3.45,0,0,0,1.53.09c.64,0,.86.22.85.86,0,1.52,0,1.3-1.28,1.31h-3a.94.94,0,0,0-.73.24l-3.69,3.7-.32.34c.15.25.37.14.54.14,1.37,0,2.74,0,4.11,0,.55,0,.8.16.79.75,0,1.59.12,1.43-1.43,1.43-1.88,0-3.75,0-5.63,0a1.56,1.56,0,0,0-1.23.5q-1.77,1.83-3.6,3.61c-.42.4-.45.59.12.86,4.05,1.93,8.07,3.9,12.12,5.82a1.08,1.08,0,0,1,.72,1.15q0,17.37,0,34.72c0,1,0,1,1,1s2,0,3,0c.48,0,.69.16.67.65s0,.93,0,1.39Z"></path><path class="cls-17" d="M586.88,533c-.38,2.3-.72,4.62-1.16,6.91a68.24,68.24,0,0,1-3.43,12.48,11.09,11.09,0,0,1-6.83,6.68c-.6.21-.86.07-1-.52a1.05,1.05,0,0,0,0-.19c-.3-1.06-.3-1.05.74-1.47a8.82,8.82,0,0,0,5-5,59.28,59.28,0,0,0,3-10.53c.38-1.82.67-3.65,1-5.46.07-.41,0-.57-.45-.49a81.42,81.42,0,0,0-15.51,3.84,9.17,9.17,0,0,0-6.16,9.79,7.45,7.45,0,0,0,.51,2.18c.18.45.06.68-.39.86-1.69.67-1.35.77-1.86-.87-1.52-5,.83-11,5.56-13.21a54.38,54.38,0,0,1,11.33-3.55c2.93-.66,5.89-1.13,8.86-1.56a5.77,5.77,0,0,1,.72,0Z"></path><path class="cls-17" d="M568.6,580.88V566c0-1.12,0-1.12,1.15-1.12h3.38c1.18,0,1.18,0,1.18,1.15v23.78c0,2.08,0,4.15,0,6.23,0,.58-.17.83-.8.81-1.36,0-2.73,0-4.1,0-.66,0-.83-.23-.83-.84C568.61,591,568.6,585.93,568.6,580.88Zm2.16-.08c0,4.39,0,8.79,0,13.18,0,.52.13.76.7.75s.7-.16.7-.69q0-13.17,0-26.34v-.2c0-.32-.17-.41-.46-.43-.82-.07-.92,0-.92.83Z"></path><path class="cls-17" d="M567.05,580.93v15c0,.92,0,.92-.93.92-1.3,0-2.6,0-3.9,0-.73,0-.82-.31-.82-.92q0-13.51,0-27c0-1.13,0-2.25,0-3.38,0-.49.19-.67.66-.67,1.39,0,2.78,0,4.17,0,.63,0,.83.22.83.85C567,570.82,567.05,575.87,567.05,580.93Zm-2.17,0c0-4.37,0-8.74,0-13.11,0-.61-.18-.81-.8-.78s-.52.48-.52.85v26.28c0,.36.17.49.52.53.62.06.8-.19.8-.79C564.87,589.6,564.88,585.28,564.88,581Z"></path><path class="cls-17" d="M570.9,554.79c-.11,1.47-.1,1.47-1.42,1.15h-.07c-1.53-.38-1.69-.87-.75-2.16a.44.44,0,0,1,.57-.15,7.84,7.84,0,0,0,.94.29C570.75,554,571.18,554.17,570.9,554.79Z"></path><path class="cls-17" d="M572,555c0-.95.18-1.11,1.44-1.19.33,0,1,1.06.87,1.64-.23.78-1.08.61-1.67.66C571.72,556.23,572.22,555.36,572,555Z"></path><path class="cls-17" d="M577.52,553.74a1.52,1.52,0,0,1-.57.61c-1.47,1.09-1.13.89-1.91-.36-.26-.42-.28-.71.19-1,1-.67,1-.7,1.81.16C577.22,553.3,577.47,553.45,577.52,553.74Z"></path><path class="cls-17" d="M547.08,590.87c-2.39,0-4.77,0-7.15,0-.66,0-.9-.21-.88-.88,0-1.54,0-3.08,0-4.63,0-.6.17-.87.82-.87q7.18,0,14.36,0c.61,0,.8.21.79.82,0,1.58,0,3.17,0,4.76,0,.62-.21.81-.8.8C551.84,590.86,549.46,590.87,547.08,590.87Zm-.05-2.15h4.7c1.34,0,1.15.14,1.21-1.21,0-.69-.21-.85-.87-.85-3.17,0-6.34,0-9.52,0-1.5,0-1.29-.21-1.34,1.34,0,.57.2.72.73.71C543.64,588.7,545.34,588.72,547,588.72Z"></path><path class="cls-17" d="M547.08,565.08c-2.41,0-4.81,0-7.22,0-.6,0-.82-.19-.81-.8,0-1.58,0-3.17,0-4.76,0-.58.2-.77.78-.76h14.43c.57,0,.77.17.76.76q0,2.41,0,4.83c0,.55-.19.73-.73.72C551.89,565.06,549.48,565.08,547.08,565.08Zm0-2.17h4.89c1,0,1,0,1-1v-.06c0-.87,0-.88-.89-.88h-9.66c-1.17,0-1.14,0-1.17,1.19,0,.63.21.8.8.79C543.68,562.89,545.36,562.91,547,562.91Z"></path><path class="cls-17" d="M547,573.68c-2.36,0-4.72,0-7.08,0-.62,0-.86-.18-.85-.82,0-1.59,0-3.18,0-4.77,0-.54.18-.73.73-.73q7.25,0,14.49,0c.61,0,.75.23.74.78,0,1.57,0,3.14,0,4.7,0,.63-.18.85-.82.84C551.79,573.66,549.39,573.68,547,573.68Zm.13-4.21h-4.7c-1.33,0-1.14-.14-1.2,1.21,0,.7.23.85.87.84,3.18,0,6.35,0,9.52,0,1.5,0,1.29.18,1.34-1.35,0-.58-.22-.71-.74-.7C550.5,569.48,548.8,569.47,547.11,569.47Z"></path><path class="cls-17" d="M547,556.47c-2.38,0-4.76,0-7.14,0-.6,0-.83-.18-.82-.78,0-1.59,0-3.18,0-4.77,0-.57.21-.77.78-.77q7.21,0,14.42,0c.57,0,.77.19.76.77q0,2.42,0,4.83c0,.55-.19.72-.73.72C551.86,556.46,549.44,556.47,547,556.47Zm.11-4.13h-4.7c-1.34,0-1.15-.11-1.21,1.21,0,.7.21.85.86.85,3.2,0,6.39,0,9.59,0,1.43,0,1.22.17,1.28-1.27,0-.63-.21-.79-.8-.78C550.47,552.36,548.79,552.34,547.12,552.34Z"></path><path class="cls-17" d="M547.08,576c2.38,0,4.77,0,7.15,0,.61,0,.8.2.79.8q0,2.38,0,4.77c0,.54-.17.75-.72.75q-7.26,0-14.5,0c-.55,0-.75-.22-.74-.75,0-1.61,0-3.23,0-4.84,0-.54.19-.73.74-.73C542.22,576,544.65,576,547.08,576Zm0,4.13h4.63c1.37,0,1.18.15,1.23-1.26,0-.59-.15-.8-.78-.79-3.22,0-6.44,0-9.65,0-1.45,0-1.26-.2-1.3,1.32,0,.54.15.74.71.73C543.64,580.09,545.36,580.11,547.08,580.11Z"></path><path class="cls-17" d="M552.68,548.34H551c-.34,0-.54-.15-.53-.52v-.06c0-1.89-.12-1.55,1.45-1.58.84,0,1.68,0,2.52,0,.41,0,.58.16.6.58.09,1.59.1,1.59-1.46,1.59h-.86Z"></path><path class="cls-17" d="M544.89,546.18c1.08,0,1.08,0,1.08,1.09s0,1.08-1.09,1.08-1.08,0-1.08-1.1S543.8,546.18,544.89,546.18Z"></path><path class="cls-17" d="M549.28,547.27c0,1.08,0,1.08-1.09,1.08s-1.08,0-1.08-1.1,0-1.07,1.1-1.07S549.28,546.18,549.28,547.27Z"></path></g><g id="EL1Qji.tif"><path class="cls-17" d="M1064.29,531.94a4.26,4.26,0,0,1,3.28,3.69,4.14,4.14,0,0,1-2.4,4.34,1.12,1.12,0,0,0-.75,1.2c0,2.6,0,5.19,0,7.79,0,.65.23.86.87.94a14.19,14.19,0,0,1,7.8,3.56c.4.35.64.4,1,0,.73-.8,1.52-1.55,2.3-2.32a1,1,0,0,0,.35-.81c0-1.71,0-3.42,0-5.12,0-.49-.27-.63-.62-.82a3.62,3.62,0,0,1-1.35-5.2,3.67,3.67,0,0,1,5.28-.81,3.62,3.62,0,0,1-.58,6,1.07,1.07,0,0,0-.66,1.13c0,1.31,0,2.62,0,3.93,0,.53.13.76.7.74,1,0,2.09,0,3.13,0a.73.73,0,0,0,.8-.51,4.24,4.24,0,0,1,4.39-2.67,4.28,4.28,0,0,1,.94,8.31,4.21,4.21,0,0,1-5.2-2.2,1.08,1.08,0,0,0-1.19-.76c-1.22,0-2.44,0-3.66,0a1.13,1.13,0,0,0-.89.35c-.8.82-1.61,1.64-2.45,2.44a.56.56,0,0,0-.06.86,14.59,14.59,0,0,1,2.67,7c0,.39.23.48.56.48h9.52a.71.71,0,0,0,.68-.41,3.61,3.61,0,0,1,3.8-2.1,3.68,3.68,0,0,1,3.05,3,1.39,1.39,0,0,0,.06.19v.8a3.62,3.62,0,0,1-3,3.1,3.41,3.41,0,0,1-3.73-1.82,1,1,0,0,0-1-.62c-3,0-6,0-9.05,0-.52,0-.77.1-.85.71a14.47,14.47,0,0,1-2.46,6.53,1,1,0,0,1-1,.6,1.15,1.15,0,0,1-1-.81,1.21,1.21,0,0,1,.3-1.11,12.67,12.67,0,0,0,2-5.57,12.24,12.24,0,0,0-2.69-9.26,12.46,12.46,0,0,0-17.21-2.39,12.6,12.6,0,0,0-.51,20.07l.46.37a1.05,1.05,0,0,1,.19,1.53,1,1,0,0,1-1.48.16,14.63,14.63,0,0,1-5.94-10.15c0-.49-.27-.68-.77-.68q-4.62,0-9.25,0a.84.84,0,0,0-.82.52,3.54,3.54,0,0,1-4,1.9,3.6,3.6,0,0,1-.39-6.91,3.51,3.51,0,0,1,4.33,1.66,1.11,1.11,0,0,0,1.19.67q4.45,0,8.92,0c.54,0,.74-.19.8-.71a14.05,14.05,0,0,1,2.56-6.7c.29-.41.29-.65-.08-1-.79-.74-1.55-1.52-2.31-2.3a1.34,1.34,0,0,0-1.06-.44c-1.26,0-2.53,0-3.79,0a.76.76,0,0,0-.84.56,4.3,4.3,0,0,1-4,2.65,4.25,4.25,0,0,1-4-2.83,4.31,4.31,0,0,1,1.21-4.72,4.26,4.26,0,0,1,6.64,1.41,1.1,1.1,0,0,0,1.25.77c1,0,1.91,0,2.86,0,.43,0,.59-.16.59-.59,0-1.46,0-2.92,0-4.39,0-.48-.29-.63-.63-.81a3.6,3.6,0,0,1-1.89-3.41,3.52,3.52,0,0,1,2.59-3.2,3.58,3.58,0,0,1,2.71,6.6,1,1,0,0,0-.62,1c0,1.6,0,3.2,0,4.79a1.33,1.33,0,0,0,.43,1.06c.75.72,1.5,1.45,2.21,2.22.37.4.61.34,1,0a14.93,14.93,0,0,1,7.41-3.53c1.29-.22,1.29-.23,1.29-1.53V541c0-.38,0-.65-.46-.84a4.17,4.17,0,0,1-2.73-4.15,4.22,4.22,0,0,1,3-3.91l.24-.11Zm-25.06,21.41a2.12,2.12,0,0,0,2.13-2.09,2.14,2.14,0,0,0-4.27,0A2.11,2.11,0,0,0,1039.23,553.35Zm26.22-17.18a2.11,2.11,0,1,0-2.18,2.11A2.11,2.11,0,0,0,1065.45,536.17Zm19.9,15.08a2.11,2.11,0,1,0,4.21-.07,2.06,2.06,0,0,0-2.15-2A2,2,0,0,0,1085.35,551.25Zm-37.93-10.07a1.44,1.44,0,1,0,1.42-1.46A1.43,1.43,0,0,0,1047.42,541.18Zm43.23,23.32A1.42,1.42,0,0,0,1092,566a1.46,1.46,0,0,0,1.49-1.46,1.41,1.41,0,0,0-1.45-1.41A1.31,1.31,0,0,0,1090.65,564.5Zm-12.83-24.77a1.47,1.47,0,1,0,0,2.93,1.52,1.52,0,0,0,1.47-1.43A1.49,1.49,0,0,0,1077.82,539.73Zm-41.76,24.8a1.34,1.34,0,0,0-1.42-1.42,1.39,1.39,0,0,0-1.45,1.46,1.45,1.45,0,0,0,1.47,1.41A1.41,1.41,0,0,0,1036.06,564.53Z"></path><path class="cls-17" d="M1059.72,583.12c0-3.27,0-6.36,0-9.44,0-.35-.2-.49-.48-.63a9.4,9.4,0,0,1-5.36-9,7.94,7.94,0,0,1,.81-3.34c.34-.77.84-1,1.46-.75s.84.84.5,1.61a7.32,7.32,0,0,0,2.58,9,3,3,0,0,0,.34.2c.24-.15.14-.37.14-.55,0-1.42,0-2.84,0-4.26a3.45,3.45,0,0,1,6.88-.41c.19,1.52,0,3.06.09,4.59,0,.23-.12.54.14.66s.45-.14.64-.27a7.3,7.3,0,0,0-7.17-12.65l-.36.17a1.07,1.07,0,1,1-.94-1.91,8.81,8.81,0,0,1,6.76-.72,9.32,9.32,0,0,1,7,8.86,9.06,9.06,0,0,1-5.12,8.61,1.53,1.53,0,0,0-1,1.69c.06,1,0,1,1,1h6.92a4.88,4.88,0,0,1,5,5c0,.66,0,1.33,0,2s-.4,1.27-1.05,1.26-1-.45-1-1.21,0-1.68-.1-2.52a2.65,2.65,0,0,0-1.79-2.27c-.38-.11-.55,0-.55.37s0,1,0,1.53a1,1,0,0,1-1,1.09,1,1,0,0,1-1.14-1,14.18,14.18,0,0,1,0-1.46c0-.41-.13-.61-.57-.61-1.81,0-1.47-.13-1.5,1.39v.4c0,.92-.31,1.31-1,1.32s-1.06-.4-1.06-1.35c0-.42,0-.84,0-1.26s-.13-.51-.46-.5h-.14c-1.46-.07-1.46-.07-1.47,1.38a4.8,4.8,0,0,1-.08.93.92.92,0,0,1-1,.81,1,1,0,0,1-1-.93,4.85,4.85,0,0,1,0-.66V566.42a2.06,2.06,0,0,0-.19-1.09,1.26,1.26,0,0,0-1.39-.69,1.19,1.19,0,0,0-1,1.15c0,.29,0,.57,0,.86V585c0,.33,0,.67,0,1a1,1,0,0,1-.81,1.08,1.1,1.1,0,0,1-1.21-.47L1056,582q-.27-.35-.57-.66a1.39,1.39,0,0,0-1.87-.12,1.27,1.27,0,0,0-.14,1.8c1,1.28,2.09,2.53,3.14,3.79,1.67,2,3.33,4,5,6a1.9,1.9,0,0,1,.5,1.33c0,1.62,0,3.24,0,4.86,0,.79-.36,1.17-1,1.17s-1-.4-1-1.17c0-1.38,0-2.76,0-4.13a1.5,1.5,0,0,0-.38-1.08q-3.84-4.56-7.66-9.13c-1.81-2.18-.93-5.16,1.73-5.77a3.25,3.25,0,0,1,3.42,1.1C1058,581,1058.77,582,1059.72,583.12Z"></path><path class="cls-17" d="M1074.4,597c0-.13,0-.27,0-.4a3.64,3.64,0,0,1,1.22-3.36,6.34,6.34,0,0,0,2-4.74c0-.83.43-1.31,1.1-1.31s1.11.53,1.07,1.4a9.45,9.45,0,0,1-2.62,6.24,1.76,1.76,0,0,0-.55,1.41c0,.93,0,1.86,0,2.79,0,.75-.36,1.13-1,1.15a1,1,0,0,1-1.12-1c0-.71,0-1.42,0-2.13Z"></path></g><rect class="cls-13" x="162.65" y="415.73" width="1.29" height="67.48"></rect><rect class="cls-13" x="612.68" y="415.73" width="1.29" height="67.48"></rect><rect class="cls-13" x="1112.06" y="415.73" width="1.29" height="67.48"></rect><rect class="cls-13" x="1112.06" y="532.24" width="1.29" height="67.48"></rect><rect class="cls-13" x="612.04" y="532.24" width="1.29" height="67.48"></rect><text class="cls-38" transform="translate(623.08 663.38)">By<tspan class="cls-57" x="17.28" y="0"> </tspan><tspan x="23.77" y="0">2030,</tspan><tspan class="cls-57" x="61.76" y="0"> </tspan><tspan x="68.25" y="0">achieve</tspan><tspan class="cls-57" x="121.08" y="0"> </tspan><tspan x="127.58" y="0">access</tspan><tspan class="cls-58" x="172.93" y="0"> </tspan><tspan x="179.42" y="0">to</tspan><tspan class="cls-57" x="193.78" y="0"> </tspan><tspan class="cls-23" x="200.27" y="0">adequate</tspan><tspan class="cls-59" x="271.47" y="0"> </tspan><tspan class="cls-23" x="277.97" y="0">and</tspan><tspan class="cls-59" x="306.38" y="0"> </tspan><tspan class="cls-23" x="312.87" y="0">equitable </tspan><tspan class="cls-23"><tspan x="0" y="18">sanitation</tspan><tspan class="cls-60" x="76.76" y="18"> </tspan><tspan x="90.24" y="18">and</tspan><tspan class="cls-61" x="118.65" y="18"> </tspan><tspan x="132.13" y="18">hygiene</tspan><tspan class="cls-62" x="191.15" y="18"> </tspan><tspan class="cls-21" x="204.63" y="18">for</tspan><tspan class="cls-63" x="224.9" y="18"> </tspan><tspan class="cls-21" x="238.37" y="18">all</tspan><tspan class="cls-62" x="254.3" y="18"> </tspan><tspan class="cls-21" x="267.78" y="18">and</tspan><tspan class="cls-62" x="294.52" y="18"> </tspan><tspan class="cls-21" x="308" y="18">end</tspan><tspan class="cls-62" x="334.81" y="18"> </tspan><tspan class="cls-21" x="348.29" y="18">open </tspan></tspan><tspan x="0" y="36">defecation,</tspan><tspan class="cls-64" x="77.62" y="36"> </tspan><tspan x="85.43" y="36">paying</tspan><tspan class="cls-65" x="131.75" y="36"> </tspan><tspan x="139.56" y="36">special</tspan><tspan class="cls-64" x="187.39" y="36"> </tspan><tspan x="195.2" y="36">attention</tspan><tspan class="cls-64" x="259.12" y="36"> </tspan><tspan x="266.93" y="36">to</tspan><tspan class="cls-64" x="281.28" y="36"> </tspan><tspan x="289.1" y="36">the</tspan><tspan class="cls-65" x="312.01" y="36"> </tspan><tspan x="319.83" y="36">needs</tspan><tspan class="cls-64" x="362.21" y="36"> </tspan><tspan x="370.02" y="36">of </tspan><tspan x="0" y="54">women and girls and those in vulnerable situations</tspan></text><g id="_9w9WKy.tif" data-name="9w9WKy.tif"><path class="cls-17" d="M552.7,719.53a6.1,6.1,0,0,1-3.28-4.52.67.67,0,0,0-.34-.53,3,3,0,0,1-1.52-2.93c0-.62.09-1.21-.78-1.38-.38-.08-.52-.52-.5-.92a.88.88,0,0,1,.65-.9c.58-.13.65-.48.62-1q0-.36,0-.72a.67.67,0,0,0-.55-.82,1,1,0,0,1-.72-1,1,1,0,0,1,.79-1c.4-.08.46-.29.49-.64A13.21,13.21,0,0,0,543,692.1a18.3,18.3,0,0,1-5.86-11.35,1.1,1.1,0,0,1,.87-1.33c.67-.11,1.16.31,1.26,1.11a15.71,15.71,0,0,0,3.66,8.39c1,1.13,2.1,2.12,3.09,3.24a15.13,15.13,0,0,1,3.31,6.44.81.81,0,0,0,.94.74q5,0,10.08,0a.75.75,0,0,0,.9-.69,12.26,12.26,0,0,1,.87-2.49,1.07,1.07,0,1,1,1.94.85,12.79,12.79,0,0,0-1.06,6.16c0,.37,0,.61.5.67a1,1,0,0,1,.09,2c-.51.1-.63.39-.59.84a5.21,5.21,0,0,1,0,.79c0,.46.09.73.6.83a1,1,0,0,1,0,2c-.54.06-.56.35-.56.76a5,5,0,0,1-.19,2,2.17,2.17,0,0,1-.88,1.11,1.8,1.8,0,0,0-.87,1.37,6,6,0,0,1-3.11,4h-.92c-.87-.74-.84-1.44.12-2a3.8,3.8,0,0,0,1.71-2c.16-.43.11-.67-.42-.66q-3.19,0-6.39,0c-.49,0-.48.23-.36.58a3.88,3.88,0,0,0,1.67,2.05c1,.62,1.09,1.26.24,2.09Zm2.5-15.73c1.41,0,2.81,0,4.21,0,1.62,0,1.44.26,1.48-1.47,0-.62-.18-.84-.82-.84-2.94,0-5.88,0-8.82,0-1.8,0-1.49-.28-1.55,1.58,0,.6.21.74.76.73C552,703.78,553.62,703.8,555.2,703.8Zm.11,6.55c-1.65,0-3.29,0-4.94,0-.53,0-.72.18-.66.69a2.25,2.25,0,0,1,0,.26c0,1.26.1,1.36,1.33,1.36h8.29c1.55,0,1.56,0,1.56-1.58,0-.59-.22-.74-.78-.73C558.51,710.37,556.91,710.35,555.31,710.35Zm-.11-2.15h4.41c1.27,0,1.27,0,1.27-1.24,0-1,0-1-1-1h-8.69c-1.74,0-1.47-.23-1.52,1.49,0,.59.2.77.76.76C552,708.18,553.62,708.2,555.2,708.2Z"></path><path class="cls-17" d="M582,678.79a1.41,1.41,0,0,1-1.49.84c-1.27,0-2.54,0-3.81,0-.83,0-1.31-.4-1.32-1.05s.49-1.08,1.31-1.09c1.29,0,2.58,0,3.88,0a1.36,1.36,0,0,1,1.43.93Z"></path><path class="cls-17" d="M568,678.53c0,.48,0,1,0,1.45a1.7,1.7,0,0,1-1.76,1.74,12.71,12.71,0,0,1-1.38,0c-.41,0-.57.2-.72.53a.6.6,0,0,0,.15.81c.36.32.7.67,1,1a1.68,1.68,0,0,1,.07,2.34,29.32,29.32,0,0,1-2.23,2.23,1.62,1.62,0,0,1-2.23,0,13.51,13.51,0,0,1-1.09-1,.66.66,0,0,0-.81-.22.75.75,0,0,0-.53.8,11.63,11.63,0,0,1,0,1.32,1.73,1.73,0,0,1-1.63,1.75,13.28,13.28,0,0,1-3.15,0,1.72,1.72,0,0,1-1.59-1.72q0-.69,0-1.38a.71.71,0,0,0-.51-.75.63.63,0,0,0-.81.2c-.34.34-.67.7-1,1a1.69,1.69,0,0,1-2.43-.05c-.69-.64-1.36-1.31-2-2a1.72,1.72,0,0,1,0-2.53c.29-.31.58-.61.89-.89a.64.64,0,0,0,.23-.85.76.76,0,0,0-.84-.55,9.69,9.69,0,0,1-1.32,0,1.68,1.68,0,0,1-1.71-1.72c0-1,0-1.93,0-2.9a1.68,1.68,0,0,1,1.46-1.69,9.78,9.78,0,0,1,1.71-.06.63.63,0,0,0,.66-.43.67.67,0,0,0-.12-.83c-.36-.35-.73-.71-1.05-1.09a1.69,1.69,0,0,1,.07-2.43c.65-.69,1.32-1.36,2-2a1.7,1.7,0,0,1,2.43,0c.34.31.67.64,1,1s.43.41.8.23.59-.34.56-.78a11.63,11.63,0,0,1,0-1.32,1.74,1.74,0,0,1,1.78-1.81c.94,0,1.89,0,2.83,0a1.73,1.73,0,0,1,1.76,1.77,11.63,11.63,0,0,1,0,1.32.74.74,0,0,0,.52.8.67.67,0,0,0,.86-.24q.45-.48.93-.93a1.71,1.71,0,0,1,2.48,0c.67.63,1.33,1.29,2,2a1.75,1.75,0,0,1,0,2.54c-.16.18-.35.33-.5.52-.3.38-.92.58-.62,1.29s.85.39,1.3.45.71,0,1,.07a1.66,1.66,0,0,1,1.49,1.72C568,677.6,568,678.07,568,678.53Zm-17,6.29a2,2,0,0,1,.27.06,21.2,21.2,0,0,0,2.37,1,1,1,0,0,1,.61.94c0,.31,0,.62,0,.93,0,1.61-.3,1.4,1.51,1.42.39,0,.55-.15.54-.54,0-.55,0-1.1,0-1.65a1.17,1.17,0,0,1,.91-1.22A8.18,8.18,0,0,0,559,685a1.15,1.15,0,0,1,1.54.25l1.17,1.16c.2.21.43.28.61,0,.33-.45,1-.63,1-1.34,0-.1-.16-.2-.25-.29L562,683.76a1.13,1.13,0,0,1-.25-1.44,10.74,10.74,0,0,0,.78-1.89,1.13,1.13,0,0,1,1.06-.84c.28,0,.57,0,.85,0,1.52,0,1.42.3,1.41-1.55,0-.35-.15-.52-.51-.51h-1.65a1.14,1.14,0,0,1-1.18-.86,10.08,10.08,0,0,0-.47-1.23c-.66-1.42-.65-1.47.44-2.56s1.11-1.12-.1-2.2c-.25-.22-.42-.26-.66,0-.39.42-.8.81-1.21,1.22a1.14,1.14,0,0,1-1.49.23,8.27,8.27,0,0,0-1.76-.73,1.19,1.19,0,0,1-.92-1.21v-.73c0-1.59.31-1.42-1.51-1.43-.39,0-.55.15-.54.55s0,1,0,1.51a1.25,1.25,0,0,1-1,1.33,7.9,7.9,0,0,0-1.7.7,1.14,1.14,0,0,1-1.54-.25c-.15-.16-.31-.31-.47-.47-1.12-1.12-1.12-1.12-2.19.11-.22.25-.24.43,0,.66l1.21,1.21a1.15,1.15,0,0,1,.24,1.45,12.84,12.84,0,0,0-.78,1.88,1.09,1.09,0,0,1-1.13.83h-.79c-1.52,0-1.54,0-1.41,1.54,0,.35.18.52.53.52.53,0,1.06,0,1.58,0a1.17,1.17,0,0,1,1.21.83,12.68,12.68,0,0,0,.8,2,1.06,1.06,0,0,1-.2,1.33l-.55.56c-1.11,1.11-1.11,1.1.08,2.16.27.24.47.26.72,0s.77-.78,1.16-1.17A1.29,1.29,0,0,1,551,684.82Z"></path><path class="cls-17" d="M555.57,662.43A16.3,16.3,0,0,0,539.4,676c0,.16-.06.31-.09.46-.16.72-.63,1.11-1.22,1a1.09,1.09,0,0,1-.87-1.33,15.41,15.41,0,0,1,1.35-4.8c3-6.42,8-10.25,15.09-10.95a18.3,18.3,0,0,1,14.25,31.5c-.49.49-1,1-1.48,1.49a1.07,1.07,0,1,1-1.59-1.41c.55-.63,1.15-1.21,1.75-1.8a15.74,15.74,0,0,0,4.89-11.9,16.09,16.09,0,0,0-13.67-15.66C557,662.46,556.15,662.46,555.57,662.43Z"></path><path class="cls-17" d="M532,679.61c-.7,0-1.4,0-2.1,0a1.07,1.07,0,0,1-1.17-1,1,1,0,0,1,1.07-1.11q2.23-.07,4.47,0a1,1,0,0,1,1,1.06,1.08,1.08,0,0,1-1.13,1.05C533.47,679.63,532.75,679.61,532,679.61Z"></path><path class="cls-17" d="M554.25,655.24c0-.68,0-1.36,0-2s.43-1.23,1.08-1.22,1.06.46,1.07,1.24q0,2,0,4.08c0,.78-.44,1.23-1.09,1.22s-1-.45-1.06-1.24S554.25,655.92,554.25,655.24Z"></path><path class="cls-17" d="M570.23,692.39a1.16,1.16,0,0,1,.77.36l3,3a1.23,1.23,0,0,1,.46,1,1,1,0,0,1-.6.88.93.93,0,0,1-1.1-.12c-1.13-1.1-2.25-2.21-3.34-3.34a.9.9,0,0,1-.11-1.11A1.11,1.11,0,0,1,570.23,692.39Z"></path><path class="cls-17" d="M541.51,663.65a1.07,1.07,0,0,1-.6.94,1,1,0,0,1-1.22-.19c-.63-.6-1.25-1.23-1.87-1.85-.43-.44-.88-.86-1.29-1.32a1,1,0,0,1,1.49-1.47c1,1,2,2,3.05,3A1.43,1.43,0,0,1,541.51,663.65Z"></path><path class="cls-17" d="M541.51,693.46a1.35,1.35,0,0,1-.45.89c-1,1-1.91,1.93-2.88,2.88a1.09,1.09,0,0,1-1.67.1c-.45-.48-.39-1,.19-1.62,1-1,2-2,3-3a1,1,0,0,1,1.2-.25A1.12,1.12,0,0,1,541.51,693.46Z"></path><path class="cls-17" d="M570.19,664.71a1.07,1.07,0,0,1-.91-.59.87.87,0,0,1,.1-1c1.13-1.16,2.27-2.32,3.45-3.44a.87.87,0,0,1,1.25.1.94.94,0,0,1,.23,1.25,3.25,3.25,0,0,1-.5.61l-2.61,2.61A1.4,1.4,0,0,1,570.19,664.71Z"></path><path class="cls-17" d="M555.31,683.71a5.14,5.14,0,0,1-5.15-5.15,5.18,5.18,0,1,1,10.35,0A5.14,5.14,0,0,1,555.31,683.71Zm0-2.15a2.92,2.92,0,0,0,3-3,3,3,0,1,0-6-.09A2.93,2.93,0,0,0,555.32,681.56Z"></path></g><rect class="cls-13" x="597.86" y="654.27" width="1.29" height="67.48"></rect><rect class="cls-13" x="163.29" y="532.24" width="1.29" height="67.48"></rect></svg>