<svg xmlns="http://www.w3.org/2000/svg" id="Layer_1" data-name="Layer 1" viewBox="0 0 300.88 244.74"><defs><style>.cls-1{fill:#4d4d4d;}</style></defs><g id="PB3zie.tif"><path class="cls-1" d="M213.22,10.91h8.35l2.45.67a25.82,25.82,0,0,1,17.82,34.2,50.52,50.52,0,0,1-5.52,10.93c-1,1.54-1,2.61.18,4.1a107.3,107.3,0,0,1,16.91,32.52,130.52,130.52,0,0,1,4.79,23.31v18.55c-.68,5-1.33,9.94-2.45,14.84a107.79,107.79,0,0,1-116.13,83.22A105.38,105.38,0,0,1,76.2,204c-20-19.12-31-42.7-33.19-70.24a103.31,103.31,0,0,1,8-49.16,4.52,4.52,0,0,0-.45-4.9A53.58,53.58,0,0,1,44.44,67.8,24.38,24.38,0,0,1,43.2,54.58C47,35.16,68.46,26.6,84.54,38.1c1.37,1,2.29,1.06,3.64,0A87.48,87.48,0,0,1,100,30.77,106.6,106.6,0,0,1,164.78,19a105,105,0,0,1,26.13,6.88c1.27.52,2.27.78,3.07-.78C198,17.23,204.66,12.74,213.22,10.91Zm-106.8,25.5a10.07,10.07,0,0,1,2.92,1.79q5.05,5.11,10.16,10.17a5.36,5.36,0,0,1,1.63,4.16c0,4.33-.07,8.66,0,13a6,6,0,0,1-2,4.73c-3.6,3.51-7.05,7.16-10.71,10.6a6.43,6.43,0,0,0-2.23,5.5c.16,2.85,0,5.72.06,8.58a6.33,6.33,0,0,1-2.09,5.15c-3.29,3.16-6.65,6.27-9.64,9.69-3.25,3.72-6.79,6.23-12,5.21a3.24,3.24,0,0,0-.93,0c-.68.09-1.23.45-1.26,1.15-.09,2.12-.44,4.19,1.48,6,4,3.74,7.57,8,11.76,11.51s5.45,7.54,5.42,12.92c0,5-1,9.06-5.19,12-5,3.58-7.26,8.31-6.16,14.51.34,1.9-.55,3.4-1.92,4.73-3.43,3.35-6.73,6.82-10.2,10.12-1.33,1.27-1.51,2.13-.22,3.59a99.81,99.81,0,0,0,57.8,32.69c2,.37,2.47-.27,2.45-2.09q-.08-9.15,0-18.32a3.84,3.84,0,0,0-1.48-3.45c-5.14-3.62-7-8.55-6-14.65a1,1,0,0,0,0-.24c0-3.75-.05-4.12-3.64-3.67-6.52.83-11.39-1.27-15.52-6.37a13.59,13.59,0,0,1-3.24-7.75c-.77-7.25,1.18-13,7.22-17.22,3.11-2.18,3.48-4.55,2.08-8.36-6.44-17.56,6.22-35,25-34.94a26,26,0,0,1,12.19,3.22c.65.34,1.73,1.26,1.84-.33.16-2.32.38-4.55-1.7-6.6-6.93-6.81-5.51-3.74-5.63-13.82,0-3.45,1.3-4.71,4.8-4.72q10.22,0,20.41,0c3.5,0,4.79,1.28,4.8,4.73,0,6.8,0,13.6,0,20.4,0,3.28-7.79,11.89-11.07,12.29a2.36,2.36,0,0,1-.46,0c-1.52-.09-1.67.59-1.19,1.86,2.63,6.89,1.92,13.67-1,20.28a3,3,0,0,0,.75,3.86c3.78,3.65,7.43,7.43,11.18,11.12a5.6,5.6,0,0,1,1.79,4.33c-.06,4.17-.11,8.35,0,12.52.07,2.27-.47,4.2-2.33,5.49-4.46,3.12-6,7.39-5.12,12.62a12,12,0,0,1-5.25,12.63c-4.94,3.48-6.69,8.14-6,14.16.49,4.13-.34,4.39,4.15,3.84a99.58,99.58,0,0,0,49.57-20.3,4,4,0,0,0,1.69-3.54c-.07-5.18-.09-10.36,0-15.54a5.39,5.39,0,0,0-1.83-4.26c-4.91-4.81-9.72-9.73-14.64-14.54a6.52,6.52,0,0,1-2.15-5.13c.11-4.56,0-9.12.05-13.68a4.14,4.14,0,0,0-1.36-3.28c-2.33-2.26-4.38-4.88-7-6.81-5.48-4.12-6.9-9.35-6.77-16.08.11-6.13,1-11.2,6.22-14.87a3.76,3.76,0,0,0,1.44-3.46q-.08-7.42,0-14.84a4.25,4.25,0,0,0-1.34-3.29q-6.84-6.77-13.6-13.61a4.45,4.45,0,0,0-3.5-1.43c-4.4.06-8.81-.08-13.21.06a7.1,7.1,0,0,1-5.72-2.41q-6-6.26-12.29-12.3a6.92,6.92,0,0,1-2.33-5.52c.11-5.79.08-11.59,0-17.39-.06-6.28,1-6-5.67-4.61A94.28,94.28,0,0,0,106.42,36.41ZM221.28,196a20.51,20.51,0,0,0,4.13-4c19.28-22.37,27.48-48.25,24.33-77.63a97.49,97.49,0,0,0-18.12-46.78c-1.27-1.79-2-1.53-3.23,0-2.41,2.92-4.94,5.74-7.54,8.49-2.32,2.46-4.49,2.5-6.79.14C207.08,69,200.77,61.33,196,52.5c-2.69-5-5-10.15-4.73-16,.06-1.54-.83-2.19-2.06-2.69A97.28,97.28,0,0,0,146,26.21c-2,.12-2.71.77-2.68,2.79.1,6.33.07,12.67,0,19a4.49,4.49,0,0,0,1.47,3.48q4.89,4.77,9.66,9.67a4.66,4.66,0,0,0,3.68,1.54c4.63-.07,9.27,0,13.91,0a5.64,5.64,0,0,1,4.33,1.79q8.47,8.57,17,17A5.87,5.87,0,0,1,195.33,86q-.09,10.2,0,20.4c0,1.83-.39,3.46-1.88,4.5-4.9,3.42-6.49,8.1-5.56,13.83a3.22,3.22,0,0,1,0,.93,4.39,4.39,0,0,0,1.59,3.88c3.61,3.5,7.07,7.14,10.71,10.59a7.46,7.46,0,0,1,2.59,6.12c-.17,4.09,0,8.19-.08,12.28a5.76,5.76,0,0,0,1.9,4.7c4.67,4.51,9.14,9.22,13.84,13.69a8.25,8.25,0,0,1,2.89,6.92C221.12,187.75,221.28,191.66,221.28,196ZM50.88,122.61c-.5,2.81-.05,5.73.08,8.66a97,97,0,0,0,11.32,41.2,103.8,103.8,0,0,0,5.59,9.34c.82,1.23,1.52,1.31,2.51.21a22,22,0,0,1,3.29-3.26c5.14-3.73,7.4-8.58,6.3-14.93a4.8,4.8,0,0,1,1.75-4.32c2.6-2.53,5.16-5.11,7.72-7.69,2.38-2.4,2.41-8.57,0-10.95-5-5-9.92-10-14.93-14.89a6.22,6.22,0,0,1-2-4.94c.11-3.16,0-6.33,0-9.5,0-2.9,1.39-4.27,4.25-4.33,2.4-.06,4.79-.06,7.19,0a3.93,3.93,0,0,0,3.1-1.24q5-5.11,10.15-10.16a3.94,3.94,0,0,0,1.27-3.08c-.05-3.4.06-6.8,0-10.2a6.19,6.19,0,0,1,2.07-4.92c3.82-3.72,7.57-7.51,11.33-11.29,1.74-1.75,2.2-11.75.66-13.66-.15-.18-.31-.34-.48-.51-2.13-2.13-4.26-4.25-6.38-6.39a3.51,3.51,0,0,0-2.62-1.28c-3,0-6,0-9,0-2.15.07-2.57.86-1.62,2.82a25.51,25.51,0,0,1,.49,22.17C88.08,80.78,80.44,90.06,72,98.76c-1.93,2-4.15,1.92-6.12-.08-2.28-2.31-4.42-4.75-6.57-7.18-1.76-2-1.75-2-2.62.42A94.55,94.55,0,0,0,50.88,122.61Zm92.5,89.15v11.35c0,1,0,2,1.29,2.37,4.65,1.35,5.77.56,5.77-4.19a9.71,9.71,0,0,0,0-1.62c-1.27-7.33,1.17-13.09,7.24-17.36a9,9,0,0,0,3.91-9.39c-1-6.35.65-11.59,6.08-15.55,2.19-1.6,1.93-11.93,0-13.94l-.33-.33c-2.51-2.51-5.1-4.95-7.5-7.56-1.45-1.58-2.18-1.24-3.27.37A118.11,118.11,0,0,1,143,172.56a4.62,4.62,0,0,1-4.32,1.68,5.81,5.81,0,0,1-3-2.05,127.54,127.54,0,0,1-13.47-16.49c-.51-.73-1-2.13-2.24-.9-3.44,3.33-7.56,6.2-6.32,12.14.56,2.68,4.42,7,7.23,7,3.63,0,7.26,0,10.89,0,2.74,0,4.1,1.43,4.2,4.16a26.81,26.81,0,0,1,0,4.39c-.79,5.77.57,10.59,5.6,14.06,1.5,1,1.91,2.68,1.87,4.5C143.32,204.65,143.37,208.21,143.38,211.76Zm74-193.21a18.05,18.05,0,0,0-17.09,23.88c3.3,9.45,9.6,17,16,24.47.81.93,1.57.79,2.32-.09,1.1-1.29,2.25-2.55,3.31-3.87,5.08-6.35,10-12.8,12.69-20.62A18.09,18.09,0,0,0,217.33,18.55ZM121.17,133a23.58,23.58,0,0,0,2,8.22c3.66,8.22,9.15,15.19,15,21.92.93,1.08,1.71,1.09,2.65,0,5.82-6.75,11.35-13.69,15-21.93a19.17,19.17,0,0,0,1.75-10.58A18,18,0,0,0,139,115.1C129,115.39,121.14,123.6,121.17,133ZM87.31,58.7c.07-11.36-11.43-20.12-22.88-17.23A18.11,18.11,0,0,0,52.67,67c3.74,8.18,9.16,15.18,15,21.92,1.07,1.25,1.88.94,2.81-.14,5.49-6.41,10.71-13,14.35-20.7A24.9,24.9,0,0,0,87.31,58.7ZM169,101.48c0-2.23,0-4.47,0-6.7,0-1.46-.61-2.1-2.08-2.08-3.46,0-6.93,0-10.39,0-.7,0-1.46,0-1.81.72s.19,1.46.73,2c1.19,1.21,2.32,2.5,3.61,3.58A7.46,7.46,0,0,1,162,105.9c-.2,2.22,0,4.46,0,6.7,0,.69-.06,1.45.71,1.81s1.31-.12,1.86-.57c2.93-2.43,5.38-5.06,4.51-9.36A15.79,15.79,0,0,1,169,101.48Z"></path><path class="cls-1" d="M228.69,37a11.3,11.3,0,1,1-22.6-.29,11.3,11.3,0,0,1,22.6.29Zm-7.91-.24a3.39,3.39,0,1,0-6.77.3,3.39,3.39,0,0,0,6.77-.3Z"></path><path class="cls-1" d="M139.33,144.64a11.3,11.3,0,1,1,11.46-11.13A11.14,11.14,0,0,1,139.33,144.64Zm3.54-11.29a3.39,3.39,0,1,0-3.46,3.37A3.54,3.54,0,0,0,142.87,133.35Z"></path><path class="cls-1" d="M69,70.44a11.3,11.3,0,1,1,11.3-11.3A11.13,11.13,0,0,1,69,70.44Zm-.08-7.92a3.54,3.54,0,0,0,3.46-3.36A3.39,3.39,0,0,0,65.61,59,3.56,3.56,0,0,0,68.92,62.52Z"></path></g></svg>