<svg xmlns="http://www.w3.org/2000/svg" id="Layer_1" data-name="Layer 1" viewBox="0 0 750.22 837.32"><defs><style>.cls-1{fill:#4d4d4d;}</style></defs><path class="cls-1" d="M215.09,20.48c1.63,0,3,1.27,3.95,3.7,2.91,7.61,8.56,13.25,14,19a6.66,6.66,0,0,1,1.65-.21c4.4,0,6.47,4.67,10.15,6.08,3.27,1.25,4.76,3.34,4,7-.88,4.19.95,6.7,4.38,6.7a9.64,9.64,0,0,0,2.83-.48,19.14,19.14,0,0,1,4.88-1.13c2.23,0,2.87,1.72,4.26,6.56a2.6,2.6,0,0,0,2.66,2.16,5.86,5.86,0,0,0,2-.42c7-2.64,14.49-4.27,20.08-9.77a6.08,6.08,0,0,1,7.77-1.22,7,7,0,0,0,3.05.89c1.41,0,2.68-.75,3.71-2.69a3.26,3.26,0,0,1,3-2,7,7,0,0,1,3.17,1c3.07,1.62,5.06,4.89,9.15,4.89a9.28,9.28,0,0,0,2.33-.32,1.74,1.74,0,0,1,.45-.06c4,0,9.54,12.17,8.06,16.72-1.35,4.17-4.75,8-1.67,13,1,1.67-1.17,3.1-3.1,3.1h0c-3.16,0-5.1.55-4.76,4.54.17,1.76-.67,2.94-2.11,2.94a4.13,4.13,0,0,1-2-.63,4.81,4.81,0,0,0-2.15-.72c-1.43,0-1.63,1.61-1.57,3.58a34.23,34.23,0,0,1,0,4.75c-.39,3.57-2,5.42-4.53,5.42a8.74,8.74,0,0,1-3.37-.81,9.55,9.55,0,0,0-3.77-1.07,4.72,4.72,0,0,0-1.69.32c-1.36.55-2.35,1.83-.79,2.86,5.16,3.29,2.05,6.75-.1,9.51-1.53,1.9-1.9,3.32-1.2,5.47.4,1.28,1,1.64,1.65,1.64.81,0,1.74-.54,2.58-.58h.73c5.1,0,7.18,2.44,6.25,7.4a2.44,2.44,0,0,0,1.05,2.85c1.9,1.25,2.15,3.5,3,5.29,1.78,3.85-.7,7.39-4.76,7.93a8,8,0,0,0-5.7,2.85c-1.35,1.84-3.69,3.87-5.4,3.87A1.68,1.68,0,0,1,296,160c-1.9-1.62-4.53-4.58-3.37-8.24a3.82,3.82,0,0,0-.16-1.38c-3.28,1.53-6.18,3-6,7.37.08,2.33,0,3.57,2.74,4.9,3.4,1.66,6.53,4.76,4.59,9.65a3.65,3.65,0,0,0,.4,3.62c1.4,2,1.06,3.86-.65,5.53-3.9,3.8.5,4.66,2.27,6.26a2.92,2.92,0,0,0,1.77,1c1.26,0,1.43-2.21,1.89-3.07.86-1.59,1.59-2.47,2.41-2.47s1.49.65,2.49,2.07a24.46,24.46,0,0,1,3.38,6.66c1,3,2.56,5.27,5.43,5.27a6.9,6.9,0,0,0,2.31-.43,4.71,4.71,0,0,1,1.63-.3c1.82,0,3.26,1.13,4.48,2,3.25,2.39,8.05,3.18,8.72,8.78.13,1.07,3,4.12,6.07,4.12a4.43,4.43,0,0,0,1.08-.13,7.73,7.73,0,0,1,1.9-.28c1.56,0,2.68.73,3.52,2.53s3.12,2,4.62,3.12c1.73,1.26,2.7,2.43.3,4.38-3.45,2.86-7.94,4.7-9.51,9.46a1.08,1.08,0,0,1-.65.64c-7.05,1.47-6.25,7.86-7.87,12.66-1.31,3.81-.65,8.26-3.66,11.61a1.52,1.52,0,0,0,.09,2.15,1.57,1.57,0,0,0,.44.28c2.66.88,4.4,4.16,7.4,4.16a5.17,5.17,0,0,0,2.18-.53,1.49,1.49,0,0,1,.58-.11,1.63,1.63,0,0,1,1.51,1,1.54,1.54,0,0,1,.09.37c.63,3.8,3.81,3.71,6.47,4.43,4.93,1.32,10.18,1.6,12.64,7.82.51,1.3,3.53,5.12,7.23,5.18,2.25,0,3.15,3.69,4.83,3.69a1.35,1.35,0,0,0,.69-.2,5.88,5.88,0,0,1,2.84-.82c2,0,3.62,1.32,5.4,2.23,2.66,1.36,5,3.33,8.12,3.33a7.91,7.91,0,0,0,2.44-.4,2.24,2.24,0,0,1,.7-.12c1.52,0,2.37,1.8,2.86,3.24,1,2.94,2.9,4.19,5.69,4.19.28,0,.57,0,.88,0a11.67,11.67,0,0,1,1.18-.07,9.69,9.69,0,0,1,3.93.83,6.36,6.36,0,0,0,2,.57c.1,0,.16,0,.18-.05a4.84,4.84,0,0,1,4.57-2.71c1.67,0,3.45.52,5.11.52h.42c.46,0,1.15-.13,1.3-.42,1.26-2.54,2.68-3.39,4.18-3.39,2,0,4.05,1.45,6.11,2.44a11.52,11.52,0,0,0,3.55,1.23c3.52.35,5.46,2.22,6.09,5.61s2.41,5.42,5.88,5.92a4,4,0,0,1,2.22.72,10.59,10.59,0,0,0,7.75,3.47,15.54,15.54,0,0,0,5.87-1.32,2.44,2.44,0,0,1,.93-.2c1.54,0,2.26,1.85,2.72,3.11.93,2.52,2.27,3.39,4.25,3.39a11.64,11.64,0,0,0,2.4-.3,22.12,22.12,0,0,1,4.44-.73c1.9,0,3.75.69,5.48,3.16a3.47,3.47,0,0,0,3,1.54c2.09,0,4.56-1.33,6.49-2.42,1.21-.67,2.31-1.41,3.24-1.41s1.62.66,2.16,2.65a2.68,2.68,0,0,0,2.33,2,1.59,1.59,0,0,0,.64-.13,12.8,12.8,0,0,1,4.86-.73c.82,0,1.63,0,2.45,0a11.37,11.37,0,0,0,5.68-1.14,1.19,1.19,0,0,1,.42-.21,1.94,1.94,0,0,1,.34,0c1.15,0,2.45.65,3.6.65s1.91-.51,2.47-2.43a13.91,13.91,0,0,0-1.21-11.47c-4.35-7-2.14-13.85-.19-20.67.59-2,1.71-3.33-.21-5.36s-.79-3.85,1.83-4.31a8.78,8.78,0,0,0,5.09-2.33,6.32,6.32,0,0,1,4.61-2.27,8.69,8.69,0,0,1,5.08,2.09c3.29,2.47,3.6,5.52,2.19,8.9-2.51,6-.69,11.62,1.24,17.3.88,2.59,3.32,3.21,5,4.76a3.92,3.92,0,0,0,2.66,1.32c1.11,0,2.15-.71,3.4-1.7a1.47,1.47,0,0,1,.94-.38c1.14,0,2.07,1.59,2.92,2.28a7.93,7.93,0,0,0,5,2.15,9.36,9.36,0,0,0,5.06-1.86c3-2,7-2.48,10-4.75a1.59,1.59,0,0,1,.9-.28,1.61,1.61,0,0,1,1.28.63,6.09,6.09,0,0,0,5.14,2.5c2.07,0,4.21-.68,6.23-.84,5.38-.41,10.89-.87,16-2.44,2.38-.71,4.47-2.19,7-2.19a7.48,7.48,0,0,1,4.26,1.45c-1.69-4.76-4.25-8.41-1.72-12.59.57-1-.65-2.13-1.62-2.62a24.07,24.07,0,0,0-5.28-2.05c-5.28-1.2-7.41-4-6.66-9.12.17-1.21.76-1.72,1.46-1.72a2.14,2.14,0,0,1,1.23.45,8.86,8.86,0,0,0,5.09,2c2,0,3.86-1,5.66-3.23a1.72,1.72,0,0,1,1.42-.55,10.47,10.47,0,0,1,1.77.24,12,12,0,0,0,2.27.23c3.55,0,5.33-2.06,6.22-6.25.76-3.64,3.73-6,6.94-7.56,2.35-1.12,3.73-2.13,4.07-5,.58-4.83,4.22-6.66,9.19-7.61,4.16-.79,9.07-1.72,10.8-6.87,2-5.87,7.49-8.83,11.08-13.39a1.43,1.43,0,0,1,1.13-.62,3,3,0,0,1,2.08,1.37c3.23,4.32,8.47,3.81,12.83,5.36a3.34,3.34,0,0,0,1.09.19c1.89,0,3.34-1.75,4.07-3.51,2.18-5.22,7.35-6.34,11.6-8.43a3.9,3.9,0,0,1,1.7-.44c2.78,0,4.29,3.83,6.86,5,2,1-.53,3.76-1.9,5.43-.74.88-2.18,1.42-1.71,3.06,1.48-.25,1.77-1.73,2.72-2.48a4.16,4.16,0,0,1,2.5-1,2.91,2.91,0,0,1,2.59,2c1.55,3.36,2.56,6.9,0,10.33a18.68,18.68,0,0,0-1.41,1.9c-.82,1.45-2.73,3-1.37,4.6a1.86,1.86,0,0,0,1.46.73c1.05,0,2.17-.85,3.13-1.51a5.71,5.71,0,0,1,3.18-1.25,4.15,4.15,0,0,1,2.81,1.25,4,4,0,0,0,2.85,1,9.73,9.73,0,0,0,1.57-.14,11,11,0,0,1,1.6-.12,8.75,8.75,0,0,1,8.7,11.22c-.82,2.85-4.23,3.86-6.4,5.71-3.56,3.08-3.46,5.7-.5,8.78a17,17,0,0,1,1.3,1.38c1.62,2.13,4.14,4.57,1.45,7a3.53,3.53,0,0,1-2.39.95c-1.77,0-3.54-1.32-4.7-2.66-1.51-1.75-2.87-2.41-4.34-2.41a11.67,11.67,0,0,0-4.7,1.46c-9.21,4.28-15.07,12-21.34,19.31a6,6,0,0,1-3,2.1c-4.39,1.28-6,4.49-4.22,8.43,3.24,7.07.46,13.69-.78,20.43-.52,2.76-3.2,4.22-5.08,6.12-2.8,2.85-4.66,5.83-.87,9.31,2.28,2.09,1.23,4.49.29,6.59-3.64,8.1-7,16.27-8.56,25.05-.31,1.71-1.09,3.22-2.68,3.22a3.77,3.77,0,0,1-1.63-.43c-2.58-1.25-5.14-2.37-7.72-2.37a9.12,9.12,0,0,0-6.37,2.72c2.09,3.45,2,7.74,1,12.13-.52,2-.07,4,.27,6.09.7,4.16,1.37,8.39-4.75,9.33-2.34.35-2.5,2.68-2.13,4.63.54,2.78.85,5.7,2,8.24,3.24,6.8,1.81,13.1-1.31,19.35-.49,1-1.22,2.39-2.22,2.39a1.41,1.41,0,0,1-.86-.34,5,5,0,0,0-2.85-1.37,4.22,4.22,0,0,0-2.75,1.48,1,1,0,0,1-.66.33c-.79,0-1.21-1.6-1.42-2.85-1.47-8.74.46-18.25-5.71-26-.28-.35-.64-1-.5-1.28,3.65-7.05-4-11.76-3.74-18.15a4.39,4.39,0,0,0-2.85-4.09,5.81,5.81,0,0,0-2.1-.41c-1.35,0-2.54.53-2.66,1.74-.43,4.66-3.67,8.88-1.9,13.9a4.93,4.93,0,0,1-2.75,6.39,4.47,4.47,0,0,1-1.9.46c-1.67,0-3-1.18-3.9-3-.22-.4-.34-1.23-.85-1.23a1.07,1.07,0,0,0-.67.34,4.34,4.34,0,0,1-2.42,1.33c-1.32,0-1.31-2.24-1.61-3.74-.95-4.45-1.07-8.9-3.93-13s1.4-14,6.35-15c3.35-.67,5.39-4,9-4a6.58,6.58,0,0,1,.87.06h.15c.94,0,.93-1.4.93-2.28a3.86,3.86,0,0,1,2.59-4c2.41-1.15,4.19-7.61,3-10s.95-2.5,2.13-3.32c.95-.68,2-2.26.47-2.27-3,0-6.06-1.91-9.11-1.91a6.34,6.34,0,0,0-4.26,1.62,2.08,2.08,0,0,1-1.1.5.41.41,0,0,1-.16,0,26,26,0,0,0-9.79-1.86,35.31,35.31,0,0,0-8.46,1.11,29.48,29.48,0,0,1-7.09.79c-6.23,0-12.48-1.46-18.73-1.5-3,0-3.86-2.2-2.39-4.66,1.26-2.09,1.25-3.74-.21-5.6a4,4,0,0,1-.88-3.59c1.62-4.76-.47-8.56-2.91-12.43-1.45.17-.62,1.11-.54,1.72.36,2.45-.8,4-3,4.75a4.61,4.61,0,0,1-1.54.28,5.09,5.09,0,0,1-3.89-2.18c-2.57-3.08-5.2-6.12-8-9,1.22,3.72,1.22,3.72-3.4,4.21-.25,1.26,2.2,2.76.18,3.62a2,2,0,0,1-.76.16c-1.26,0-2.14-1.43-2.81-2.6-3.32-5.81-3.31-5.81-6.73-6.87,3.9,2.23,3,3.61,0,5.28a10,10,0,0,0-5.35,8c-.25,2.3,0,4.22,2.35,5.7a14.33,14.33,0,0,1,5.32,5.25A2.92,2.92,0,0,0,530.7,341a1.21,1.21,0,0,0,.38-.06,5.22,5.22,0,0,1,1.77-.33c3.13,0,4.71,3.35,7.4,4.3a2.36,2.36,0,0,1,1.46,3,.61.61,0,0,1-.05.12c-.46,1.62-1.31,3-3,3A3.52,3.52,0,0,1,538,351a5.52,5.52,0,0,0-1-.09c-1.74,0-3.35.76-5,1.11a.64.64,0,0,0-.45.15c-3.25,4.15-7.52,7.88-9.42,12.58-1.58,3.9,3.88,8.71,8.53,8.71a6.07,6.07,0,0,0,1.35-.15,3.34,3.34,0,0,1,3.73,1.23c2.2,2.67,1.74,9.82-.78,12.36-2.15,2.17-1.49,6.37,1.71,8.4,2.07,1.32,3.55,2.58,3,5.23-.42,2.2,1,2.71,2.74,3,2,.35,3.36,1.28,2.55,3.55-2.85,8-.66,15.58,2.13,23,1.78,4.76,3.08,9.27,1.44,14.27-.36,1.09.07,2.48.28,3.71.19,1,1.31,2.12-.09,2.85a1.58,1.58,0,0,1-.78.21,3.69,3.69,0,0,1-2.17-1.22c-2-1.82-3.67-2.7-5.53-2.7a10.9,10.9,0,0,0-4.78,1.43,5.83,5.83,0,0,1-2.55.77c-2,0-3.22-2.1-4.33-7-.4.24-1,.37-1.06.67-3.75,9.39-12,11.05-20.63,12.36-3.65.55-5.71,3.87-7.4,6.89-1.61,2.85,1.25,4.13,2.86,5.77,2.18,2.28,1.71,8-.78,10.34-1.76,1.67-5.83,2.44-2.53,6.3.58.68-.51,1.73-1.15,2.41-6.27,6.66-11.84,14.26-22.12,15.1a11.59,11.59,0,0,0-5.21,2.19,7.41,7.41,0,0,1-3.58,1.62c-1.23,0-2-1.1-2-4-2.67.64-3.87,2.56-5.37,4.13-1.22,1.27-1.44,1.55.64,2,1.3.26,1,2.27.31,3.31a11.82,11.82,0,0,1-3.54,3.74,29,29,0,0,0-12.44,13.32c-2.7,5.86-9.15,8.79-10.95,15.22-.36,1.25-2.12,1.19-3.3,1.59-6.22,2.14-11.14,5-12.64,12.55a13.13,13.13,0,0,1-11.12,10.46,8.15,8.15,0,0,0-5.25,2.85,2.38,2.38,0,0,1-.66.68c-7.61,3.8-12.37,9-10.51,18.43.48,2.47-1.74,4.26-4.76,5-4.4,1.07-8.73,2.54-13.18,2.54a17.28,17.28,0,0,1-5.84-1,2.94,2.94,0,0,0-.9-.17c-1.2,0-1.68,1.12-2.25,2.2-2.43,4.62-4.87,9.24-7.42,13.8-1.21,2.16-2.2,3.23-3.3,3.23s-2.13-.91-3.59-2.69a5.21,5.21,0,0,0-4.09-1.55,9.32,9.32,0,0,0-7.95,4.3c-3.36,5.93-8.46,11.5-5.46,19.64,1.54,4.19,2.93,9.59,1.58,13.46-2.08,6,.84,9.95,2.35,14.78.76,2.45,3.54,5.7-.68,8.06a1.12,1.12,0,0,0,.17.78c5.12,5.44.17,11.62,1.26,17.33a.6.6,0,0,1-.07.47c-4.81,5-3.63,13.19-8.56,17.78-5.88,5.45-5.13,12.37-4.47,18.57.48,4.52.87,9,.95,13.55a91.21,91.21,0,0,0,.62,13.32c.49,3-.45,4.86-3.95,4.9a42.43,42.43,0,0,0-6.54,1c-4.35.77-8,2-7.28,7.8.29,2.52-2.09,4.1-3.89,5.71-2.43,2.1-5.1,4.29-3.74,8,1,2.65,3.15,3,5.41,3l1.92,0h.63a5.79,5.79,0,0,1,3.5.8c1.27.87,2,1.82,1.41,3.19a1.3,1.3,0,0,1-1.29.91,4.55,4.55,0,0,1-1.57-.4,18.9,18.9,0,0,0-7-1.29c-7.11,0-13.83,3.53-20.8,4.6-3.8.58-6.65,7.7-5.7,12.48.61,2.85-.34,4.2-2.77,5a29.37,29.37,0,0,0-9.11,5,11.94,11.94,0,0,1-7.42,2.7c-4.46,0-8.61-2.6-12.11-5.13-8-5.83-15.73-12.65-20.08-22-1.9-4.19-3.8-8.56-3.47-13.47a4.72,4.72,0,0,0-.13-2.36c-2.74-5.6-1.9-12.37-5.71-17.6-3.6-5-3.68-11.32-5.23-16.93-1.79-6.49-5.94-11.69-7.95-18.07-1.22-3.89-6.66-7.2-10.36-10.53-.95-.86-2.09-1.47-2.26-2.86-.89-7-5.2-12.77-6.49-19.7-.62-3.34-2.73-6.61-3.53-10.13a13,13,0,0,1-.46-4.2c.43-3.51.35-6.66-2-9.76-3.31-4.39-3.93-10-4.59-15.21-.29-2.28-1.64-3.19-2.55-4.7-6.44-10.78-12.69-21.62-16.63-33.65-1.17-3.57-3.81-6.37-4.9-10.32a99.83,99.83,0,0,1-3.48-19c-.46-5.55-2.38-10.86-2.11-16.49.14-2.78-1.6-5.53-2.72-7.93-2.31-5-1.51-10.72-4.63-15.39-3.32-5,.23-9.31,1.79-13.78.34-1,1.57-1.71.58-3.09-3.29,0-2.11,4.34-5,5.12a9.2,9.2,0,0,1-.38-8.15c2-4.16.86-8-1.08-11.08-2.55-4.05-1.41-7.26.48-10.6,5-8.89,5.7-17.82,2.14-27.59-3.1-8.4-2.59-8.56,2.67-15.48-.95-1.32-2.51-1.08-3.8-1.55s-2.63-.89-2.32-2.52c.72-3.74-1.52-7.28-.61-11,.38-1.56,0-3.08-1.63-3.45a3.07,3.07,0,0,0-.57-.06c-1.6,0-1.64,1.87-1.73,2.92-.38,3.8-1.07,7.69-.43,11.35,1.63,9.3-8.91,19.52-16.87,20.72A14.49,14.49,0,0,0,99.8,477a8.17,8.17,0,0,1-5.47,2.1c-.22,0-.45,0-.67,0-.71,0-1.43-.05-2.13-.05a4.92,4.92,0,0,0-4,1.57,1.94,1.94,0,0,1-1.48.59,8.26,8.26,0,0,1-2.14-.45c-8-2.34-14.2-7.16-19-14-2.18-3.07-5.7-5.29-7.47-8.56-3.51-6.66-9.83-11-13.32-17.46-1.69-3.16-5.91-4.5-6.09-8.75-.07-1.72-1-3.81.83-4.76a2.11,2.11,0,0,1,1-.26c1.23,0,2.07,1.36,2.84,2.3a4.7,4.7,0,0,0,4,2.2,13,13,0,0,0,2.92-.43,111.75,111.75,0,0,0,18.8-6c4.21-1.82,6.93-4.75,9.22-8.65A8.32,8.32,0,0,1,72,418.1c-1.27,0-2.54-.12-3.81-.12h-.53c-2.43.07-4.65.28-6.19,2.65A4.22,4.22,0,0,1,58,422.7a3.74,3.74,0,0,1-2-.6c-9.42-5.87-20.93-8.83-27.06-19.33-.4-.69-1.24-1.28-1.29-2-.32-3.38-1.45-5.45-4.29-5.45a9,9,0,0,0-2.37.38,1.27,1.27,0,0,1-.34.05,2.2,2.2,0,0,1-1.94-2.05c-.34-4,4.75-9.18,8.79-9.18h.21c1.19.05,2.17.1,3,.1,3.73,0,3.9-1,4.55-6.38.2-1.75.74-2.65,1.94-2.65a4.42,4.42,0,0,1,1.41.29c3.12,1.07,6.95-.28,9.51,2.78a1.2,1.2,0,0,0,.73.3.26.26,0,0,0,.14,0,8.13,8.13,0,0,1,4.89-1.69c4.64,0,8.84,4,13.54,4a8.27,8.27,0,0,0,1.31-.11c2-.34,3.66.1,4.05-2.5.33-2.12,1.38-3.11,3.11-3.11a5.92,5.92,0,0,1,1.32.16,3.91,3.91,0,0,0,1.17.18,4,4,0,0,0,1.18-.18,6.85,6.85,0,0,1,3.07-1c1.54,0,2.46,1.23,3,4a3.07,3.07,0,0,0,3.23,2.34,4.46,4.46,0,0,0,3.43-1.58c4.44-5.48,4.76-8,2.1-15.22a5.36,5.36,0,0,1-.21-2.78c.64-3.1-.43-5.45-2.46-7.78-2.85-3.32-5.82-6.65-3.17-11.76.89-1.72-.46-1.92-1.64-1.92l-1,0c-.41,0-.8,0-1.18,0-5.13,0-7.9-3-9.9-7.76a6.2,6.2,0,0,1-.1-5.29,42.36,42.36,0,0,0,2.14-6.78c.64-3,.62-5.24-3.66-5.81-3.62-.47-6.74-3.1-10.46-4.14-3-.83-4-6.2-1.47-9.15a153.66,153.66,0,0,0,10.55-13.58c2.76-4.12,6.45-7.24,9.14-11.24a9,9,0,0,1,5.38-3.64,10.41,10.41,0,0,1,2.73-.46c2.24,0,3.29,1.36,3.83,4.5a11.25,11.25,0,0,0,.51,2.3c.88,2.27-.63,5.58,2.34,6.8a3,3,0,0,0,1.17.27c2.15,0,2.34-3.29,4-3.93,3-1.13,6-2.55,9.19-2.55a10.46,10.46,0,0,1,3.24.51,12.89,12.89,0,0,0,3.85.77c2.54,0,4-1.55,5.66-5.2a10.88,10.88,0,0,1,3.88-4.76c3.11-2.06,5.09-4.4,4.67-8.56-.26-2.64,6.66-7.23,9.27-8.21,4.18-1.54,8.56-3.22,11.25-7.28,2.38-3.65,3.16-8.24,7-11.05,1.46-1.08.89-3.27,1.16-5,.75-4.69,2.55-8.18,7.93-9.28,4.37-.95,9.36-2.11,7.6-8.83-.17-.65.88-1.59,1.22-2.44,1.68-4.15,7.32-5,8.36-9.33,1.18-4.95,5.84-5.37,9.45-8.25-4.37-1.27-4.08-3.57-2.4-6.65.89-1.65.18-3.71-.77-5.44-2.33-4.23-1.43-7.8,2.85-10.06,3.79-2,7.28-5.26,12-5.26a11.32,11.32,0,0,1,1.88.17,2.83,2.83,0,0,0,.41,0,2.68,2.68,0,0,0,2.65-2.28.5.5,0,0,0,0-.12c.32-1.64.27-3.54-1.38-4.2-3.67-1.47-6.66-4.51-10.74-4.9-3.52-.34-4.42-2.33-3.65-5.18.72-2.61-.25-2.79-2.3-2.79H193l-.61,0a14.2,14.2,0,0,1-10.45-4.59,13.45,13.45,0,0,0-6-3.69c-4.64-1.49-6.27-4.67-5.27-9.18a23.53,23.53,0,0,0-.66-13.55,7.18,7.18,0,0,1-.2-4.18c.77-2.7.58-4.9-1.54-6.94s-1.73-4.63-1.68-7.17c0-1.82.51-2.83,2.23-2.83a6.76,6.76,0,0,1,.95.08,12.68,12.68,0,0,0,1.88.18c2,0,3.45-.85,2.87-4.27-.49-3,2.4-3.37,4.49-3.8,3.25-.73,5.48-2.51,6.34-5.71.75-2.83-.58-4.56-3.15-4.56a6.69,6.69,0,0,0-1.06.09,11.14,11.14,0,0,1-1.73.15c-3.32,0-4.45-2-3.44-6.09.33-1.33,1.69-3.24-.25-3.24a6.65,6.65,0,0,0-1.65.27,15.7,15.7,0,0,1-3.79.58c-3,0-4.51-1.66-5.9-5.78-1-2.86-1.74-4.91-4.05-4.91a8.37,8.37,0,0,0-3.3.91,4.92,4.92,0,0,1-2.05.49c-2.78,0-4.49-2.94-5.72-5.6-1.51-3.26-.37-5.62,2.91-6.82,2-.73,2.86-2,3.36-4.08.78-3.5,10.46-11.56,14-11.67h.14c2.57,0,4.5,2,6.79,2.86.65.25,1.36.84,2.05.84a1.22,1.22,0,0,0,1-.5c.74-.86-.06-1.78-.65-2.51-2.14-2.69-.66-3.95,1-3.95a3.55,3.55,0,0,1,1.21.22,8.91,8.91,0,0,0,3.17.61c3.23,0,5.8-1.92,8.62-3.41a12.71,12.71,0,0,1,5.77-1.89c1.82,0,3.58.78,5.22,2.93a2.54,2.54,0,0,0,2.06,1.14,4.6,4.6,0,0,0,2.59-1.06c1.06-1,2.06-2.07,3-3.18a5.7,5.7,0,0,1,3.66-1.8m0-14a18.43,18.43,0,0,0-10,3.07,19.8,19.8,0,0,0-6.53-1.1A25.9,25.9,0,0,0,186.18,12c-.73.39-1.4.77-2,1.11l-.49.28a17.29,17.29,0,0,0-3.93-.45,16.46,16.46,0,0,0-10,3.26h-.76c-1.87.06-7.49.22-16.58,7.81-5.28,4.4-7.89,8.09-9.23,10.76a18.34,18.34,0,0,0-7.33,8.52,18.94,18.94,0,0,0,.6,15.36c4.9,10.58,11.9,13.35,17.29,13.68a18.6,18.6,0,0,0,9.22,8c-.16.25-.32.52-.47.79-5.53,2.19-9.94,7.41-10,15.46,0,.2,0,.4,0,.6-.09,2.61-.27,8.09,3.12,13.35a21.08,21.08,0,0,0,1.13,9.2,9.55,9.55,0,0,1,.26,5.5l0,.17,0,.17c-2.57,11.63,3.31,21.89,14.65,25.54l.19.06h0a28.37,28.37,0,0,0,11.28,7.31,16.73,16.73,0,0,0,1.14,1.93h0a20.16,20.16,0,0,0-7.22,10.29,20.52,20.52,0,0,0,.78,13.74,18.25,18.25,0,0,0-.63,3.18,20.3,20.3,0,0,0-4.69,7.12,24.38,24.38,0,0,0-8.08,9,17.49,17.49,0,0,0-2.29,4.9c-6,2-13.81,7.1-15.87,20h0a35.57,35.57,0,0,0-5,8.38c-.34.74-.72,1.57-1,2a24.89,24.89,0,0,1-4.48,2h-.06c-.18.07-16.79,6.65-18.27,19.3a25.47,25.47,0,0,0-5,5.37,22.91,22.91,0,0,0-2.34-.11,27.07,27.07,0,0,0-6.28.76,17,17,0,0,0-14.76-8.15,23.69,23.69,0,0,0-6.2.9,22.84,22.84,0,0,0-13.43,9.25l0,.07-.05.06a40.12,40.12,0,0,1-3.3,4,65.18,65.18,0,0,0-5.8,7.19A138,138,0,0,1,50.72,292l-.07.08-.07.09a20.78,20.78,0,0,0-3.81,19.36A18,18,0,0,0,59,323.78c.31.1,1.13.5,1.83.85a20.09,20.09,0,0,0,1.27,13.47c3.24,7.48,7.85,11.54,12.34,13.69.17.59.38,1.18.61,1.77A27.8,27.8,0,0,0,79.54,361a19.47,19.47,0,0,0-2.5.63c-.39,0-.78,0-1.17,0a16.78,16.78,0,0,0-11.28,4.16,27.14,27.14,0,0,0-10.73-2.45,21.58,21.58,0,0,0-4,.37A27.24,27.24,0,0,0,43,362.49l-.56,0a17.86,17.86,0,0,0-5.24-.81,15.48,15.48,0,0,0-14.42,9.52,24.26,24.26,0,0,0-11.82,7.25c-4.48,4.88-6.67,10.74-6.18,16.52a16.26,16.26,0,0,0,11.44,14.2,16.4,16.4,0,0,0,1.2,1.61,41,41,0,0,0,8.63,9.9c-1.71,2.82-2.83,6.73-2.07,12.05,0,.05,0,.1,0,.16.46,8.21,5.46,12.81,7.88,15l.35.33a59.09,59.09,0,0,0,8,10.44,34,34,0,0,1,4.76,6l0,.06,0,.07a33.78,33.78,0,0,0,6.64,8.22,22,22,0,0,1,1.73,1.78C60.27,484.53,69.21,491,80,494.16l.13,0a20.06,20.06,0,0,0,5.91,1,16,16,0,0,0,8-2.08h.36a22.15,22.15,0,0,0,14.84-5.69l.08-.07.07-.07a.52.52,0,0,1,.3-.14l.37,0,.36-.06a31.27,31.27,0,0,0,11.39-4.3A17.2,17.2,0,0,1,119.21,493c-4.8,8.53-5,16.68-.54,24.22a23.37,23.37,0,0,0,1,18.4,21.07,21.07,0,0,0,3.6,13.5,24.69,24.69,0,0,1,.7,3.26,40,40,0,0,0,2.93,10.34c.28.59.58,1.19.88,1.81.16.31.36.71.52,1.05a58.65,58.65,0,0,0,1.36,11.71,50.55,50.55,0,0,1,.81,5.11,114.26,114.26,0,0,0,4,21.66,37.08,37.08,0,0,0,4,8.85c.41.72,1,1.7,1.11,2.06,4.35,13.25,11,24.8,17.91,36.45l0,0,0,0c.31.53.63,1,.92,1.4.72,5.53,2,12.48,6.36,18.8,0,.15,0,.33-.06.55l-.05.46,0,.46a26.74,26.74,0,0,0,.86,8.4,43.89,43.89,0,0,0,2.43,7c.34.81.81,1.92.92,2.35a56.69,56.69,0,0,0,4,12.17,30,30,0,0,1,2.32,6.7,17.4,17.4,0,0,0,6.72,11.44l.14.12c1.25,1.12,2.51,2.13,3.73,3.1,1,.76,2.28,1.83,3,2.54a72.51,72.51,0,0,0,4.33,9.48,38.3,38.3,0,0,1,3,6.75c.31,1.12.58,2.54.87,4,.91,4.75,2.15,11.26,6.47,17.3l0,0,0,0a23.18,23.18,0,0,1,1.07,4.28,51.17,51.17,0,0,0,2.06,8.09c-.12,7.85,2.79,14.27,4.75,18.61l0,.05,0,0c6,12.89,16.27,21.45,24.56,27.47,5,3.63,11.85,7.8,20.33,7.8a26,26,0,0,0,15.94-5.59l.12-.09.12-.1a15.46,15.46,0,0,1,4.71-2.58c8.36-2.7,13.13-9.84,12.52-18.28,1.45-.4,2.84-.82,4.15-1.22,3.15-.95,6.12-1.85,8.24-1.85a5.09,5.09,0,0,1,1.9.33,17.85,17.85,0,0,0,6.66,1.36A15.35,15.35,0,0,0,325,793.22c2.81-7,.71-14.35-5.34-19.14a14.07,14.07,0,0,0,.46-1.34c.38,0,.77-.08,1.15-.11a17.8,17.8,0,0,0,13.4-6.17c2.3-2.73,4.8-7.47,3.76-14.6a77.21,77.21,0,0,1-.5-11.07v-.63c-.1-5.39-.57-10.48-1-14.76s-.56-6.26.06-6.83c5.39-5,7.15-11.23,8.32-15.33a28.12,28.12,0,0,1,1.05-3.26l.82-.86.77-1.26a14.57,14.57,0,0,0,2-9.78c.07-.46.22-1.24.34-1.84.6-3,1.6-8,.17-13.46a17,17,0,0,0,.48-3.65,21.14,21.14,0,0,0-2.19-9.39c-.05-.11-.09-.22-.14-.32-.48-1.51-1-2.82-1.46-4-.27-.7-.63-1.6-.8-2.15,2.05-6.27,1.46-13.63-1.8-22.49l0-.06a13.29,13.29,0,0,1,1.18-2.33,15.9,15.9,0,0,0,6.79,1.51c4.43,0,10.72-1.8,15.52-10.39,1.43-2.55,2.83-5.13,4.19-7.69a52.7,52.7,0,0,0,13.87-2.26c.87-.23,1.74-.46,2.62-.67,10.71-2.6,17.1-11.56,15.19-21.29a6,6,0,0,1-.14-1.18,12.39,12.39,0,0,1,3.17-2l.86-.43.8-.55a15.4,15.4,0,0,0,1.94-1.56,27.12,27.12,0,0,0,20.9-21.25,4,4,0,0,1,.16-.58,12.18,12.18,0,0,1,2.84-1.28c8.72-1.9,11.66-7.71,12.65-11.06a26.12,26.12,0,0,1,2.41-2.71,37.78,37.78,0,0,0,7.81-10.59,15,15,0,0,1,6.43-6.88l.59-.32.55-.38a26,26,0,0,0,7.37-7.61,24.09,24.09,0,0,0,6.17-3.15c13.58-1.66,21.59-10.44,27.5-16.91.73-.8,1.47-1.61,2.21-2.4l.08-.08a16.86,16.86,0,0,0,5-10.26A23,23,0,0,0,517.78,473a23.25,23.25,0,0,0-.48-5.26,38.73,38.73,0,0,0,11.46-4.82,16.53,16.53,0,0,0,4.19.53,18,18,0,0,0,6.06-1.07,16.11,16.11,0,0,0,9,2.79,15.67,15.67,0,0,0,7.44-1.89,14.94,14.94,0,0,0,7.32-17.85c1.76-8.84-1.06-16.36-2.49-20.2v-.05c-2.58-6.82-3.12-10.3-2-13.31a16.38,16.38,0,0,0-1.11-14,16.19,16.19,0,0,0-4.53-5,17.78,17.78,0,0,0-2.68-4.47c2.47-7.5,1.55-16.53-3-22.4a17.63,17.63,0,0,0-2-2.18,16.83,16.83,0,0,0,7.41-6,17.58,17.58,0,0,0,10.6,3.44,75.82,75.82,0,0,1,7.67.65,92.7,92.7,0,0,0,11.11.85,43,43,0,0,0,10.44-1.2,21.67,21.67,0,0,1,5.11-.7c.42,0,.83,0,1.24.05l0,0c-6.5,1.84-12.08,7.3-15.11,14.86-3.18,7.92-2.66,15.79,1.42,21.6a16.49,16.49,0,0,1,1,4.23c.18,1,.37,2.2.63,3.43a2.51,2.51,0,0,1,0,.27,21.65,21.65,0,0,0,1.25,5,15.18,15.18,0,0,0,12.73,9.65,17.22,17.22,0,0,0,9.17,2.59,18.4,18.4,0,0,0,7.47-1.61l.93-.43c.65,1.9.83,4.59,1,8.28a80,80,0,0,0,.89,9.51c1.81,10.72,9.33,14.52,15.22,14.52a14.27,14.27,0,0,0,3.74-.49,14.67,14.67,0,0,0,3.38.39c3.61,0,10.33-1.32,14.74-10.13a41.64,41.64,0,0,0,4.44-14.24,31.82,31.82,0,0,0-2.22-15.6,17.59,17.59,0,0,0,2.3-2.6c4.78-6.61,3.56-13.83,2.91-17.71l-.13-.7c0-.23-.08-.51-.12-.75s.05-.25.08-.37c.28,0,.56,0,.85,0,6.86,0,14.61-4.55,16.45-14.72,1.29-7,4-13.79,7.56-21.81a23.51,23.51,0,0,0,2.24-7.84,17.71,17.71,0,0,0-.86-7.28A19.84,19.84,0,0,0,695.75,329c.2-1.06.47-2.24.76-3.48,1.13-4.86,2.57-11.07,1.28-18.09a19.62,19.62,0,0,0,3.05-3.06l1.76-2.08c4.06-4.81,7.66-9.08,11.87-11.86a19.16,19.16,0,0,0,10.62,3.36,17.6,17.6,0,0,0,11.74-4.53,16.77,16.77,0,0,0,5.06-17.77,18.76,18.76,0,0,0-1.56-3.61,18.64,18.64,0,0,0,4.75-8,22.55,22.55,0,0,0-3.61-20,23.27,23.27,0,0,0-17-9.09,30,30,0,0,0-2.61-8.7l0,0,0-.05a18.94,18.94,0,0,0-2.72-4.2,15.13,15.13,0,0,0-6.73-8.69l-.06-.06c-2-2.1-6.53-7-14.22-7a17.68,17.68,0,0,0-7.89,1.89c-.51.25-1.22.55-2,.87-3,1.3-7.91,3.37-11.91,7.73a16.28,16.28,0,0,0-11.6-5,15.38,15.38,0,0,0-12.1,5.91,31.83,31.83,0,0,1-2.87,2.9c-3,2.78-6.9,6.46-9.46,12.07-.41.09-.84.17-1.19.23-12.65,2.43-17.61,9.45-19.51,15.28a25.57,25.57,0,0,0-10,10.53,15.87,15.87,0,0,0-6.61,2.15,15.46,15.46,0,0,0-20.47,12.82h0c-1,6.81.66,12.84,4.46,17.33-1.22.12-2.46.21-3.68.31-1,.07-2,.21-2.79.35a15.62,15.62,0,0,0-17.47,0l-.26.18-.16.12c-.38.2-1.38.57-2.11.85-1.13.42-2.41.9-3.76,1.52a15.38,15.38,0,0,0-8.95-2.86h-.36a3.78,3.78,0,0,1,0-1.93c4-9.61,1.43-19.37-6.7-25.47a22.32,22.32,0,0,0-13.49-4.9,19.66,19.66,0,0,0-13,5,16.74,16.74,0,0,0-12.64,11,15.79,15.79,0,0,0,.26,10.72c-1.61,5.72-3.39,13.27-1.19,21.45a15.63,15.63,0,0,0-8.25-2.36,17.45,17.45,0,0,0-7.88,2,19.86,19.86,0,0,0-10.35-2.85c-.62,0-1.22,0-1.79.07a15.76,15.76,0,0,0-12-5.54,16.36,16.36,0,0,0-5.8,1.07l-.79-.54a18.43,18.43,0,0,0-3.49-1.89,20,20,0,0,0-16-12.61l-.15-.07-1-.51a23.34,23.34,0,0,0-11.2-3.32,17.77,17.77,0,0,0-10.27,3.32l-.74,0a19.35,19.35,0,0,0-7.67,1.55,16.3,16.3,0,0,0-13.59-7.51,15.93,15.93,0,0,0-2.29.16c-.72-.41-1.61-.93-2.61-1.44l-.61-.35a21.64,21.64,0,0,0-10.65-3.4,15.6,15.6,0,0,0-4.54-2.13C363.8,257.16,354.77,255,350.2,254l-.71-.16a15.73,15.73,0,0,0-6.57-5.3,3.17,3.17,0,0,1,.08-.35,39,39,0,0,0,1.24-4.81,14.89,14.89,0,0,0,6.94-7.6c.46-.36,1.19-.87,1.77-1.26,1.11-.78,2.38-1.67,3.71-2.76,5.87-4.81,6.62-10.43,6.54-13.36-.09-3.58-1.46-8.76-7.47-13.14a18.71,18.71,0,0,0-2.53-1.57A17.29,17.29,0,0,0,341.38,197c-3.13-5.33-7.95-7.94-10.44-9.29-.4-.21-.94-.51-1.14-.64l-.13-.09A21.56,21.56,0,0,0,319,182.46a38.22,38.22,0,0,0-3.25-5.43,19.06,19.06,0,0,0-7.4-6.49c0-.08,0-.17,0-.25a27.9,27.9,0,0,0,3.4-3.08,20.13,20.13,0,0,0,13.44-9.8,19.31,19.31,0,0,0,.56-17.43c-.06-.14-.1-.28-.15-.42a24.66,24.66,0,0,0-2.47-5.3,18.78,18.78,0,0,0-3.93-10.76,18.85,18.85,0,0,0,7.24-10.91,16,16,0,0,0,7-7.32,16.92,16.92,0,0,0,7.74-7,15.32,15.32,0,0,0,1.05-12.9,39,39,0,0,0,1.67-4.18c3.17-9.78-2.63-21.49-6.14-26.32-5.24-7.2-11.18-8.72-15.24-8.72l-1,0a29,29,0,0,0-4.41-2.93,20.47,20.47,0,0,0-9.7-2.58,17,17,0,0,0-9.91,3.15,20.07,20.07,0,0,0-17.66,6.1,18.81,18.81,0,0,1-6.08,3.29,16.34,16.34,0,0,0-12.1-6,19.68,19.68,0,0,0-10.82-10.78l-.59-.53a24.68,24.68,0,0,0-10.84-6.32c-3.26-3.54-6-6.83-7.31-10.39l0-.08,0-.08c-3.11-7.85-9.45-12.54-17-12.54Z"></path></svg>