<svg xmlns="http://www.w3.org/2000/svg" id="Layer_1" data-name="Layer 1" viewBox="0 0 768 513.77"><defs><style>.cls-1{font-size:33px;fill:#4d4d4f;}.cls-1,.cls-6,.cls-7,.cls-8{font-family:OpenSans-Bold, Open Sans;font-weight:700;}.cls-2{letter-spacing:0.52em;}.cls-3{letter-spacing:0.52em;}.cls-4{font-family:OpenSans, Open Sans;}.cls-11,.cls-4{font-weight:400;}.cls-5,.cls-7{letter-spacing:0.13em;}.cls-8{letter-spacing:0.13em;}.cls-9{letter-spacing:0.23em;}.cls-10{letter-spacing:0.23em;}.cls-11{font-family:Economica-Regular, Economica;}</style></defs><text class="cls-1" transform="translate(118.82 299.72)">By<tspan class="cls-2" x="40.94" y="0"> </tspan><tspan x="66.74" y="0">Building</tspan><tspan class="cls-2" x="202.03" y="0"> </tspan><tspan x="227.82" y="0">Digital</tspan><tspan class="cls-3" x="335.36" y="0"> </tspan><tspan x="361.16" y="0">Public</tspan><tspan class="cls-2" x="461.56" y="0"> </tspan><tspan x="487.36" y="0">Goods</tspan><tspan class="cls-2" x="589.41" y="0"> </tspan><tspan class="cls-4" x="615.2" y="0">and </tspan><tspan class="cls-4"><tspan x="0" y="39.6">orchestrating</tspan><tspan class="cls-5" x="205.43" y="39.6"> </tspan><tspan class="cls-6" x="218.15" y="39.6">Open</tspan><tspan class="cls-7" x="306.48" y="39.6"> </tspan><tspan class="cls-6" x="319.2" y="39.6">Digital</tspan><tspan class="cls-8" x="426.74" y="39.6"> </tspan><tspan class="cls-6" x="439.46" y="39.6">Ecosystems</tspan><tspan class="cls-7" x="629.55" y="39.6"> </tspan><tspan class="cls-6" x="642.27" y="39.6">in </tspan></tspan><tspan x="0" y="79.2">Multiple Sectors In</tspan></text><text class="cls-1" transform="translate(118.82 138.24)">Catalyze<tspan class="cls-9" x="139.65" y="0"> </tspan><tspan x="155.94" y="0">achievement</tspan><tspan class="cls-9" x="370.28" y="0"> </tspan><tspan x="386.56" y="0">of</tspan><tspan class="cls-9" x="419.77" y="0"> </tspan><tspan x="436.05" y="0">Ease</tspan><tspan class="cls-9" x="510.37" y="0"> </tspan><tspan x="526.65" y="0">of</tspan><tspan class="cls-10" x="559.86" y="0"> </tspan><tspan x="576.14" y="0">Living </tspan><tspan x="0" y="39.6">related SDGs</tspan><tspan class="cls-11" x="210.67" y="39.6"> </tspan><tspan class="cls-4" x="216.93" y="39.6">in the Global South </tspan></text></svg>