<svg xmlns="http://www.w3.org/2000/svg" id="Layer_1" data-name="Layer 1" viewBox="0 0 300.88 244.74"><defs><style>.cls-1{fill:#4d4d4d;}.cls-2{fill:#606060;}</style></defs><g id="slJYpT.tif"><path class="cls-1" d="M131.7,223.56h-8.8a28.64,28.64,0,0,1-8.05-4C97.67,206,80.23,192.71,63.42,178.7c-6.84-5.69-13.63-8.84-22.6-7.87-5.75.62-8.56-2.59-8.57-8.45q0-44.83,0-89.68c0-6.41,3.82-9.3,10-7.75s12.37,3.11,18.52,4.79a6.59,6.59,0,0,0,5.6-.79A105.4,105.4,0,0,1,91.82,57.66c8.87-2.54,17.87-4,27-1.7a7.15,7.15,0,0,0,6.22-1.06,53.46,53.46,0,0,1,29.43-8.35c11.31,0,21.91,3.1,32.27,7.43,14.71,6.15,29.54,12,45,16.05a17.68,17.68,0,0,0,9.65,0c6.55-1.85,13.17-3.42,19.77-5.1,5.31-1.34,8,0,10.25,5.07v95.16c-1.84,4.52-3.73,5.81-8.6,5.84-3,0-6,.16-9,0-5.69-.36-11,.78-16.45,2.5-3.75,1.2-6.42,2.59-6.21,7a2.58,2.58,0,0,1-.21.74,20.07,20.07,0,0,1-26.42,13.4c-1.32-.47-2.37-1-3.53.59-6.82,9.57-14.29,12-25.29,8.47a2.08,2.08,0,0,0-2.8.9c-6.75,9.6-14,12-25.55,8.35-1.06-.33-1.81-.34-2.39.71C142,218.8,137.37,221.89,131.7,223.56ZM125.18,120.4a33.74,33.74,0,0,1-20.48-6.82,23,23,0,0,1-6.47-29.39,92.4,92.4,0,0,1,7.9-11.81c.7-.93,2.31-1.88,1.76-2.89-.64-1.18-2.4-.49-3.6-.32C92.81,70.75,82.5,75.44,72.63,81.26a2.8,2.8,0,0,0-1.33,2.36Q69.25,103,67.14,122.38c-1.27,11.72-2.46,23.45-3.88,35.16-.28,2.35.19,3.85,2.06,5.31q28.82,22.54,57.55,45.22c3.26,2.57,6.85,2.44,9.26-.29,2.25-2.55,2-6.19-.79-9.05-4.09-4.2-8.28-8.3-12.41-12.45a86.46,86.46,0,0,1-6.11-6.31,6.81,6.81,0,0,1,4.48-11.18c2.76-.37,4.76,1.07,6.59,2.91q12.67,12.74,25.4,25.44a22.6,22.6,0,0,0,2.27,2.11,6.09,6.09,0,0,0,7,.57c2.5-1.38,3.25-3.62,3-6.34-.18-2-1.42-3.28-2.71-4.56q-12.83-12.78-25.64-25.56a18.41,18.41,0,0,1-2.52-2.93,6.73,6.73,0,0,1,.76-8.14,6.84,6.84,0,0,1,7.8-1.71,12.76,12.76,0,0,1,3.84,3q17.13,17.08,34.25,34.15a19.09,19.09,0,0,0,2.7,2.39,5.68,5.68,0,0,0,6.35.26,5.94,5.94,0,0,0,3.18-5.52c0-2.38-1.26-4-2.83-5.58Q173,165.5,159.18,151.67c-2.81-2.81-5.66-5.57-8.38-8.45a6.5,6.5,0,0,1-1.55-7.17,6.75,6.75,0,0,1,5.57-4.47c2.83-.42,4.91,1.06,6.82,3q21.83,21.87,43.71,43.7a21,21,0,0,0,2.67,2.42,6.36,6.36,0,0,0,8.07-.68,6.08,6.08,0,0,0,.57-8,20.24,20.24,0,0,0-2.25-2.48q-29.35-29.34-58.69-58.72c-1.83-1.84-3-2-5.05-.32C143.22,116.32,135,120.48,125.18,120.4Zm28.54-60.12c-1.33-.16-3.45.42-5.59.6a20.56,20.56,0,0,0-3.8.73C127.91,66.05,117.9,77.79,110.2,92c-1.89,3.46-.38,8.09,2.83,10.45a19.46,19.46,0,0,0,15.36,3.82c6.16-1.09,11.18-4.36,15.85-8.29,6.06-5.09,10.86-11.29,15.55-17.59,2.61-3.52,6.5-4.19,9.75-1.88s3.83,6.3,1.42,9.84a69.36,69.36,0,0,1-5.78,7.62c-1.85,2-1.5,3.29.33,5.1q27.9,27.71,55.67,55.55c6,6,5.94,5.91,14,3.26,1.84-.6,2.28-1.48,2.13-3.38-1-12.53-1.88-25.07-2.85-37.61-.75-9.78-1.5-19.57-2.39-29.34-.48-5.32-.62-5.27-5.77-6.69-16.59-4.54-32.5-11-48.37-17.5A67.76,67.76,0,0,0,153.72,60.28Zm103.74,58.38c0-11.72,0-23.44,0-35.15,0-3-.34-3.18-3.17-2.52-2.09.5-4.16,1.15-6.27,1.53s-2.59,1.28-2.41,3.35c1,11.75,1.82,23.51,2.71,35.27q1.31,17,2.61,34A1.93,1.93,0,0,0,252,157c3,1.35,5.48-.19,5.48-3.46Q257.48,136.12,257.46,118.66Zm-211.15.07c0,11.8,0,23.6,0,35.4,0,1.22-.33,2.92,1.62,2.92,1.79,0,1.68-1.63,1.8-2.9.22-2.23.42-4.46.66-6.68,2.18-19.92,4.44-39.83,6.49-59.77.53-5.19,1.31-4.41-4-5.78l-3-.8c-3.32-.86-3.59-.67-3.59,2.73Q46.28,101.3,46.31,118.73Z"></path><path class="cls-2" d="M131.7,223.56h-8.8a28.64,28.64,0,0,1-8.05-4C97.67,206,80.23,192.71,63.42,178.7c-6.84-5.69-13.63-8.84-22.6-7.87-5.75.62-8.56-2.59-8.57-8.45q0-44.83,0-89.68c0-6.41,3.82-9.3,10-7.75s12.37,3.11,18.52,4.79a6.59,6.59,0,0,0,5.6-.79A105.4,105.4,0,0,1,91.82,57.66c8.87-2.54,17.87-4,27-1.7a7.15,7.15,0,0,0,6.22-1.06,53.46,53.46,0,0,1,29.43-8.35c11.31,0,21.91,3.1,32.27,7.43,14.71,6.15,29.54,12,45,16.05a17.68,17.68,0,0,0,9.65,0c6.55-1.85,13.17-3.42,19.77-5.1,5.31-1.34,8,0,10.25,5.07v95.16c-1.84,4.52-3.73,5.81-8.6,5.84-3,0-6,.16-9,0-5.69-.36-11,.78-16.45,2.5-3.75,1.2-6.42,2.59-6.21,7a2.58,2.58,0,0,1-.21.74,20.07,20.07,0,0,1-26.42,13.4c-1.32-.47-2.37-1-3.53.59-6.82,9.57-14.29,12-25.29,8.47a2.08,2.08,0,0,0-2.8.9c-6.75,9.6-14,12-25.55,8.35-1.06-.33-1.81-.34-2.39.71C142,218.8,137.37,221.89,131.7,223.56ZM125.18,120.4a33.74,33.74,0,0,1-20.48-6.82,23,23,0,0,1-6.47-29.39,92.4,92.4,0,0,1,7.9-11.81c.7-.93,2.31-1.88,1.76-2.89-.64-1.18-2.4-.49-3.6-.32C92.81,70.75,82.5,75.44,72.63,81.26a2.8,2.8,0,0,0-1.33,2.36Q69.25,103,67.14,122.38c-1.27,11.72-2.46,23.45-3.88,35.16-.28,2.35.19,3.85,2.06,5.31q28.82,22.54,57.55,45.22c3.26,2.57,6.85,2.44,9.26-.29,2.25-2.55,2-6.19-.79-9.05-4.09-4.2-8.28-8.3-12.41-12.45a86.46,86.46,0,0,1-6.11-6.31,6.81,6.81,0,0,1,4.48-11.18c2.76-.37,4.76,1.07,6.59,2.91q12.67,12.74,25.4,25.44a22.6,22.6,0,0,0,2.27,2.11,6.09,6.09,0,0,0,7,.57c2.5-1.38,3.25-3.62,3-6.34-.18-2-1.42-3.28-2.71-4.56q-12.83-12.78-25.64-25.56a18.41,18.41,0,0,1-2.52-2.93,6.73,6.73,0,0,1,.76-8.14,6.84,6.84,0,0,1,7.8-1.71,12.76,12.76,0,0,1,3.84,3q17.13,17.08,34.25,34.15a19.09,19.09,0,0,0,2.7,2.39,5.68,5.68,0,0,0,6.35.26,5.94,5.94,0,0,0,3.18-5.52c0-2.38-1.26-4-2.83-5.58Q173,165.5,159.18,151.67c-2.81-2.81-5.66-5.57-8.38-8.45a6.5,6.5,0,0,1-1.55-7.17,6.75,6.75,0,0,1,5.57-4.47c2.83-.42,4.91,1.06,6.82,3q21.83,21.87,43.71,43.7a21,21,0,0,0,2.67,2.42,6.36,6.36,0,0,0,8.07-.68,6.08,6.08,0,0,0,.57-8,20.24,20.24,0,0,0-2.25-2.48q-29.35-29.34-58.69-58.72c-1.83-1.84-3-2-5.05-.32C143.22,116.32,135,120.48,125.18,120.4Zm28.54-60.12c-1.33-.16-3.45.42-5.59.6a20.56,20.56,0,0,0-3.8.73C127.91,66.05,117.9,77.79,110.2,92c-1.89,3.46-.38,8.09,2.83,10.45a19.46,19.46,0,0,0,15.36,3.82c6.16-1.09,11.18-4.36,15.85-8.29,6.06-5.09,10.86-11.29,15.55-17.59,2.61-3.52,6.5-4.19,9.75-1.88s3.83,6.3,1.42,9.84a69.36,69.36,0,0,1-5.78,7.62c-1.85,2-1.5,3.29.33,5.1q27.9,27.71,55.67,55.55c6,6,5.94,5.91,14,3.26,1.84-.6,2.28-1.48,2.13-3.38-1-12.53-1.88-25.07-2.85-37.61-.75-9.78-1.5-19.57-2.39-29.34-.48-5.32-.62-5.27-5.77-6.69-16.59-4.54-32.5-11-48.37-17.5A67.76,67.76,0,0,0,153.72,60.28Zm103.74,58.38c0-11.72,0-23.44,0-35.15,0-3-.34-3.18-3.17-2.52-2.09.5-4.16,1.15-6.27,1.53s-2.59,1.28-2.41,3.35c1,11.75,1.82,23.51,2.71,35.27q1.31,17,2.61,34A1.93,1.93,0,0,0,252,157c3,1.35,5.48-.19,5.48-3.46Q257.48,136.12,257.46,118.66Zm-211.15.07c0,11.8,0,23.6,0,35.4,0,1.22-.33,2.92,1.62,2.92,1.79,0,1.68-1.63,1.8-2.9.22-2.23.42-4.46.66-6.68,2.18-19.92,4.44-39.83,6.49-59.77.53-5.19,1.31-4.41-4-5.78l-3-.8c-3.32-.86-3.59-.67-3.59,2.73Q46.28,101.3,46.31,118.73Z"></path></g></svg>