<svg xmlns="http://www.w3.org/2000/svg" id="Layer_1" data-name="Layer 1" viewBox="0 0 300.88 244.74"><defs><style>.cls-1{fill:#4d4d4d;}</style></defs><g id="gBTeNf"><path class="cls-1" d="M72.22,163.09c0-7.66-.19-15.33,0-23,.48-16.43-6.51-29-19.51-38.52a133,133,0,0,1-38.39-43.8c-2.18-4-4.13-8.1-3.89-12.87.34-7,3.53-12,10.17-14.23,6.43-2.16,12.53-1.34,16.76,4.56C40.52,39.62,43,44.48,46,48.93,58.75,67.74,74.79,82.31,97.42,88.38c19.18,5.13,38.47,10,56.5,18.61,31.3,15,51.86,38.82,60.09,72.83.73,3,1.71,6,.78,9.21-1.13,3.86-2.27,8.31-6.23,9.63-4.24,1.41-5.21-3.58-7.16-6a70.74,70.74,0,0,0-26.73-20.57c-5.93-2.55-6.9-4.53-2.87-10.26,9-12.76,7.19-27.42-3.5-37.92-9.63-9.46-24.19-10.8-36-3.28a26.84,26.84,0,0,0-11.89,16c-.44,1.6-.37,3.76-2.22,4.29-2.61.74-3.05-2-4.15-3.41-7.09-9.29-12.43-11.6-20.75-8.84-10.33,3.43-14.9,14.55-10.06,25,5.49,11.83,14.21,21.1,24,29.44a43.49,43.49,0,0,1,6.16,5.8c2.5,3.18,4.52,7,2.6,11-1.83,3.83-6,2.54-9.18,2.6-8.8.16-17.6-.14-26.39.11-5.84.16-8.25-2.33-8.17-8.06.14-10.49,0-21,0-31.49Z"></path><path class="cls-1" d="M171.4,202.69c0,9-.17,17.38.06,25.76.15,5.4-2.07,7.84-7.45,7.8-10.76-.09-21.53-.07-32.29,0-5,0-7.08-2.43-7-7.36.12-9.63-.06-19.27,0-28.9.06-9.15-3.53-16.29-10.8-21.93-9-7-16.9-15.08-22.34-25.28-3.14-5.89-4.06-11.58,2.57-15.5s10.71.35,13.65,5.7c8.59,15.67,21.5,24.69,39.17,28.16s34,10.6,46.4,24.74a60.89,60.89,0,0,1,13.1,25.43c1.56,6.06.77,11.8-6.14,13.78-6.72,1.93-9.52-2.74-11.53-8.34C183.73,212.59,180.65,208.35,171.4,202.69Z"></path><path class="cls-1" d="M229,202.59c-10.14,0-10.21-.05-7.12-9.62a21.25,21.25,0,0,0,.61-11.69c-4.83-20.49-13.16-39.16-27.78-54.68-6.15-6.52-5.87-7.49,3-10.19,5.69-1.72,11.4-3.6,17.25-4.55,23.23-3.74,38.37-18.12,50-37.27,3.11-5.12,5.9-10.63,13.16-10.47,9.68.22,15.22,10.24,10.53,20.08a93.85,93.85,0,0,1-30.14,36.26c-12.73,9.14-18.14,21.06-17.58,36.45.42,11.33.11,22.68.07,34C241.07,202.44,240.87,202.61,229,202.59Z"></path><path class="cls-1" d="M76.74,44.85A36.11,36.11,0,0,1,112.89,8.49c19.46,0,36.38,17.07,36.24,36.66C149,65,132.19,81.69,112.6,81.5A36.46,36.46,0,0,1,76.74,44.85Z"></path><path class="cls-1" d="M237.82,76.52c0,16.56-12.55,29.1-29.1,29.08-15.41,0-29.11-13.37-29.25-28.52-.16-15.89,14.08-30.07,30-29.85C224.93,47.44,237.82,60.74,237.82,76.52Z"></path><path class="cls-1" d="M169.5,144.94c.06,11.18-9.69,21.16-21,21.44-10.94.28-21.35-9.74-21.64-20.84-.31-11.44,10-21.95,21.43-21.82C159.56,123.86,169.43,133.75,169.5,144.94Z"></path></g></svg>