<svg xmlns="http://www.w3.org/2000/svg" id="Layer_1" data-name="Layer 1" viewBox="0 0 300.88 244.74"><defs><style>.cls-1{fill:#4d4d4d;}</style></defs><g id="_5DiUQI.tif" data-name="5DiUQI.tif"><path class="cls-1" d="M33.75,145c2.07-7.26,5.07-9.53,12.61-9.53,4.61,0,9.22,0,13.83,0,5.94,0,10.33,4,10.66,9.9.11,1.9.79,2.41,2.53,2.4a27.68,27.68,0,0,1,4.89.42c1.77.3,2.33-.23,2.25-2.07A77.64,77.64,0,0,1,81.7,128c3.43-17.49,11.44-32.78,22.42-46.63a162.26,162.26,0,0,1,26-25.63c.54-.44,1.1-.87,1.64-1.32.1-.09.12-.26.31-.73-10.37.93-20.2,2.46-26.72,11.69-1.71,2.43-3.73,3.09-5.71,1.77s-2.17-3.32-.66-5.77c3.71-6,9.29-9.61,15.71-12a46.75,46.75,0,0,1,13.93-2.93c.63,0,1.24-.14,1.86-.21,1.73-.21,1.51-.91.51-1.88-3.88-3.72-8.45-5.6-13.85-5a33.08,33.08,0,0,1-21.32-4.7c-2.56-1.51-3.31-3.64-2.13-5.61s3.4-2.45,5.92-.88a26.66,26.66,0,0,0,17.09,3.67,23.78,23.78,0,0,1,18.72,6.32,5.79,5.79,0,0,1,.51.48c.49.46,1,.82,1.63.26s.2-1-.07-1.47c-.83-1.41-1.72-2.79-2.51-4.23-3.23-5.81-6.33-11.68-7.32-18.39a11.35,11.35,0,0,1,1.44-7.9c1.87-3,4.7-4.11,7.84-2.54,3.39,1.68,6.23,1.44,9.45-.51,4.15-2.52,8.6-2.12,12.67.4a7.18,7.18,0,0,0,8.31.05c4.62-2.84,9.34-2.72,13.94.12a6.86,6.86,0,0,0,6.88.52c5.79-2.57,10.2.16,10.73,6.56a23.19,23.19,0,0,1-1.76,9.84,85.75,85.75,0,0,1-8.66,16.58c-.69,1.1-1,1.86,0,3a12,12,0,0,1,3.13,10c-.15,1.18.49,1.68,1.23,2.29,3.38,2.77,6.79,5.52,10.11,8.36,2.31,2,2.63,4.1,1.09,5.87s-3.81,1.67-6.18-.33c-2.86-2.42-5.76-4.79-8.66-7.17-.72-.59-1.41-1.24-2.49-.58-4.69,2.85-10,3.54-15.27,4a86.42,86.42,0,0,1-28.85-1.7,4.27,4.27,0,0,1-1.34-.41c-3.15-2-5.44-.68-8,1.48C118.05,75.58,104.84,90,96.15,108.12a81.17,81.17,0,0,0-8.3,34.8c-.06,6.81,0,6.84,6.49,9a74.89,74.89,0,0,1,16.39,8c7,4.39,14.63,6.36,22.78,7.13q16.65,1.58,33.25,3.84c10.65,1.47,18.52,11,18.56,21.8,0,2.94,0,2.93,2.6,1.79q19.19-8.46,38.39-16.88a7.34,7.34,0,0,0,3.51-2.93c7.17-11.69,9.64-24.42,8.39-38-2-21.28-11.88-38.86-25.49-54.72-.71-.83-1.46-1.63-2.15-2.48-1.65-2-1.65-4.17,0-5.63,1.77-1.59,3.81-1.41,5.73.74,2.39,2.68,4.73,5.42,7,8.25,11,14.06,18.89,29.57,21.85,47.35a71.69,71.69,0,0,1-3.67,38.22,5.27,5.27,0,0,0-.72,2.72c1.64-.7,3.17-1.38,4.73-2,8.91-3.51,17.25-.26,20.62,8a15,15,0,0,1-5.82,18.29q-32,20.26-63.94,40.52a51,51,0,0,1-17.16,6.61H114.86a79.14,79.14,0,0,1-11.66-3.35c-10-3.79-20-7.48-30.06-11.18-.89-.33-1.92-1.33-2.29.77-1.1,6.19-5.1,9.48-11.38,9.56-4.22,0-8.43,0-12.65,0-7.72,0-10.67-2.13-13.07-9.4Zm7.64,41.75q0,19.82,0,39.62c0,3.35,1,4.29,4.34,4.3,4.3,0,8.59,0,12.89,0,4,0,4.63-.62,4.63-4.61q0-21.09,0-42.19a10.46,10.46,0,0,1,.33-3.48,3.56,3.56,0,0,1,3.69-2.67,3.5,3.5,0,0,1,3.47,2.94,10.92,10.92,0,0,1,.16,2.56c0,10.86.07,21.73,0,32.58,0,2.37.57,3.58,3,4.42,9.5,3.36,19,6.77,28.32,10.55a62.91,62.91,0,0,0,25.11,4.64c14.45-.26,28.91-.12,43.36-.06a41.1,41.1,0,0,0,23.24-6.77c12.3-8,24.78-15.77,37.18-23.63,8.32-5.27,16.65-10.52,24.94-15.82a7.41,7.41,0,0,0,2.85-9.62c-1.6-3.51-4.71-4.94-8.73-3.89a30.39,30.39,0,0,0-4.4,1.58q-30.67,13.47-61.34,27a8.16,8.16,0,0,1-3.35,1c-13,0-25.94,0-38.91,0a3.83,3.83,0,0,1-4.13-3.61c-.08-2.06,1.47-3.69,3.83-4a22,22,0,0,1,2.57-.07h30.71c1.15,0,2.31.18,2.55-1.59,1.25-9.13-3.95-16.55-12.92-17.75-10-1.33-20-2.51-30-3.39C125.25,173.93,116.2,172,108,167c-1.87-1.13-3.82-2.14-5.72-3.21a61.58,61.58,0,0,0-28.72-8.37c-2.1-.07-2.77.65-2.65,2.68a55,55,0,0,1,0,7,3.71,3.71,0,0,1-7.34.53,13.66,13.66,0,0,1-.24-2.79c0-5.31,0-10.62,0-15.94,0-3-.73-3.75-3.74-3.78-4.53,0-9.06,0-13.59,0-3.84,0-4.52.7-4.52,4.51Q41.39,167.21,41.39,186.79ZM161.82,39.39c6.4,0,11.88-1.26,17.4-2.34a3,3,0,0,0,1.88-1.61,91,91,0,0,0,8.58-15.83,18.55,18.55,0,0,0,1.55-5.86c.06-1.28-.4-1.77-1.66-1.27-4.29,1.73-8.27.9-12-1.53a5.7,5.7,0,0,0-6.77.05,12.65,12.65,0,0,1-14.74.18,6.48,6.48,0,0,0-7.8.15,11.44,11.44,0,0,1-9.39,1.72c-4.07-1-4.3-.74-3.17,3.41.06.23.13.45.2.67,2.2,7,6,13.18,9.92,19.32a2.74,2.74,0,0,0,1.92,1.16A94.63,94.63,0,0,0,161.82,39.39Zm.41,16.91a48.28,48.28,0,0,0,9.68-.59c2.85-.39,5.66-1.09,8.48-1.67a4.28,4.28,0,0,0,3.7-4.21c.29-3.76-2.21-5.72-6.25-4.84a69.8,69.8,0,0,1-13,1.76,74.78,74.78,0,0,1-19-1.78c-4.22-1-6.64,1.36-6,5.45.4,2.51,2.24,3.41,4.41,3.88A74,74,0,0,0,162.23,56.3Z"></path></g><path class="cls-1" d="M182.43,101.48h-8a16.05,16.05,0,0,1,2.3,6.39h7.7l-2,7.54h-5.71a15,15,0,0,1-4.55,9.1q-3.67,3.38-10.57,4.72l16.73,19.83v.54H165.62l-18.53-21.71,0-6.77h9.08q7.08,0,8.88-5.71H146.13l2-7.54h16.66q-1.87-4.64-8.23-4.71H146.13l2.26-9.3h36Z"></path></svg>