<svg xmlns="http://www.w3.org/2000/svg" id="Layer_1" data-name="Layer 1" viewBox="0 0 300.88 244.74"><defs><style>.cls-1{fill:#606060;}</style></defs><path class="cls-1" d="M250.87,147.31c-1.16,3.29-3.41,5.69-6,7.9q-21,17.67-41.92,35.48a35.81,35.81,0,0,1-20.58,8.42c-.87.08-1.73.22-2.6.32-2.15.24-3.81-.86-4.08-2.68-.3-2,.93-3.53,3.2-3.84,1.8-.25,3.6-.42,5.41-.64,7-.87,12.41-4.72,17.6-9.18,13.07-11.23,26.27-22.31,39.4-33.46,1.27-1.08,2.66-2.1,3-3.9a5.44,5.44,0,0,0-2.15-5.87,5.18,5.18,0,0,0-6.38.38c-2.73,2.19-5.38,4.48-8,6.74L208,163.71a12.62,12.62,0,0,1-8.52,3.12c-7.67,0-15.34,0-23,0a4.11,4.11,0,0,0-3.22,1.22,13.7,13.7,0,0,1-9.87,4c-8.68.05-17.36,0-26,0a5,5,0,0,1-2.54-.5,3.16,3.16,0,0,1,.21-5.77,6.76,6.76,0,0,1,2.78-.36q12.53,0,25,0c4.84,0,8.33-3.16,8.33-7.45,0-4.46-3.48-7.65-8.41-7.66-13.87,0-27.73-.07-41.6,0a42.81,42.81,0,0,0-17.78,4l-.73.35c-2.37,1.08-4.11.69-5-1.13s-.2-3.51,2.13-4.68a49,49,0,0,1,14.18-4.48,65.27,65.27,0,0,1,10.26-.68c12.32,0,24.63,0,36.95,0a7.07,7.07,0,0,1,2,0c3.35,1,5.65-.57,8-2.67,6.21-5.47,12.59-10.75,18.9-16.11,6.61-5.61,15.5-3.68,19.13,4.22.58,1.25,1,1.28,2,.52,6.94-4.95,14.67-2.87,18.4,4.93.44.93.76,1.56,1.85.64a12,12,0,0,1,19.1,5.44,3.08,3.08,0,0,0,.28.54Zm-65,12.37.18.43c5,0,10,0,15.07,0a3.14,3.14,0,0,0,2-.89c6.35-5.39,12.71-10.78,19-16.23a4.93,4.93,0,0,0,1.75-4.71c-.75-4.37-5.44-6.08-9-3.17-6.11,5.06-12.13,10.22-18.18,15.35Q191.33,155,185.9,159.68Zm12.16-31.29a4.79,4.79,0,0,0-3.51,1.36c-6.68,5.64-13.33,11.32-20,16.94-1,.81-.93,1.35-.14,2.27a13.05,13.05,0,0,1,3.09,7.1c.06.45-.1,1,.41,1.27s1-.26,1.38-.59c2.47-2.08,4.92-4.18,7.38-6.27,5-4.27,10.07-8.51,15-12.82a5.14,5.14,0,0,0,1.46-6.05A5.21,5.21,0,0,0,198.06,128.39Z"></path><path class="cls-1" d="M112.74,228.9c-2.16-2.57-2.2-3.49,0-6.11,6.33-7.61,12.69-15.19,19-22.8a4.87,4.87,0,0,1,3.26-1.82q15-1.81,30-3.61a3.32,3.32,0,0,1,4,2.79,3.22,3.22,0,0,1-3.11,3.72c-9.08,1.13-18.15,2.26-27.23,3.24a5.44,5.44,0,0,0-3.87,2.17Q125.41,217.72,116,228.9Z"></path><path class="cls-1" d="M142.18,112.85c-.39-7.27-.89-16-1.29-24.72-.1-2.11-1.35-2.1-2.87-2.07a8,8,0,0,1-7.68-4.63,8.71,8.71,0,1,1,16.33-4.64c.15,3.39.38,2.9,3.32,2.92,1.61,0,3.39.36,4.79-.2,1.81-.72.82-2.88,1.22-4.37a8.84,8.84,0,0,1,9.59-6.61c4.7.72,7.75,4.7,7.45,9.71a8.38,8.38,0,0,1-8.29,7.81c-3.27.07-2.92-.12-3.11,3.13-.37,6.57-.82,13.14-.88,19.85,1.51-2.33,3-4.66,4.53-7,4.63-7.18,9.22-14.4,13.87-21.57,13.4-20.65,1.42-48-22.91-51.61-16.33-2.41-33,5.81-37.53,24.55-.14.59-.26,1.19-.44,1.76a3.23,3.23,0,0,1-3.84,2.44,3.29,3.29,0,0,1-2.44-4c1.5-7.26,4.36-13.92,9.63-19.23C133.34,22.54,147.56,19,163.18,23.84c15.78,4.87,25,16.23,27.64,32.61a38.18,38.18,0,0,1-6,27.19Q176.48,96.74,168,109.8a9,9,0,0,0-1.16,3.76,154.31,154.31,0,0,0-1.34,17.18c-.24,4.89-4.25,8.12-9.15,8.19-3.43,0-6.87,0-10.3,0a9,9,0,0,1-9.26-9.34c0-1.88,0-3.77,0-5.65,0-2.14.21-4.29-.93-6.3a3.68,3.68,0,0,1-.25-2.17c.35-2.72-.72-4.88-2.15-7.11-6-9.35-12.28-18.51-17.87-28.11a33.18,33.18,0,0,1-4-12.21,3.17,3.17,0,0,1,2.56-3.74,3,3,0,0,1,3.69,2.34c1.14,8.2,5.88,14.63,10.17,21.3,3.75,5.83,7.42,11.71,11.28,17.48C141.16,108.13,142.66,110.81,142.18,112.85Zm9-26.77c-.8,0-1.61,0-2.42,0-1.29-.07-1.55.56-1.48,1.74.55,8.3,1.09,16.6,1.49,24.91.08,1.75.63,2.23,2.35,2.33,2.46.15,2.55-1.4,2.65-3,.44-7.3.92-14.6,1.24-21.9C155.19,85.6,155.62,86.11,151.16,86.08Zm.15,35.51h-6.44c-.88,0-1.66.08-1.66,1.23,0,2.28-.07,4.56.08,6.84a2.62,2.62,0,0,0,2.92,2.66c3.36,0,6.71,0,10.07,0a2.48,2.48,0,0,0,2.79-2.71c0-2.15,0-4.29,0-6.44,0-1.28-.62-1.61-1.75-1.58C155.34,121.62,153.32,121.59,151.31,121.59ZM163.54,79.7c1.85,0,2.92-.87,2.9-2.41,0-1.33-.62-2.21-2.05-2.16-2,.08-2,1.64-2.21,3C162,79.25,162.46,79.84,163.54,79.7Zm-23.41-1.6c0-1.58-.33-2.89-2.11-2.95a1.91,1.91,0,0,0-2.1,2.17c0,1.68,1.1,2.29,2.65,2.39C139.85,79.79,140.27,79.17,140.13,78.1Z"></path><path class="cls-1" d="M93,159.51a3.92,3.92,0,0,1-1.34,2.73,49.18,49.18,0,0,0-10.38,15c-1.81,3.8-4.87,6.74-7.42,10-5.29,6.79-10.68,13.51-16,20.25a12.08,12.08,0,0,1-1.18,1.38,3.1,3.1,0,0,1-4.37.23,3.15,3.15,0,0,1-.5-4.36c1.79-2.44,3.7-4.79,5.58-7.16q8.15-10.29,16.3-20.54a22.22,22.22,0,0,0,2.68-4.49A49,49,0,0,1,87.3,157.46a3.3,3.3,0,0,1,3.89-.76A3.08,3.08,0,0,1,93,159.51Z"></path><path class="cls-1" d="M210.56,62c1.21,0,2.42-.08,3.63,0a3.06,3.06,0,0,1,3,3,2.94,2.94,0,0,1-2.55,3.37,25.17,25.17,0,0,1-8.44,0A3,3,0,0,1,203.68,65a3,3,0,0,1,3-3C208,61.92,209.28,62,210.56,62Z"></path><path class="cls-1" d="M92.15,62a29.14,29.14,0,0,1,3.62,0,3,3,0,0,1,2.92,3,2.92,2.92,0,0,1-2.61,3.29,27.29,27.29,0,0,1-8.22,0,3,3,0,0,1-2.67-3.27A3.17,3.17,0,0,1,88.32,62c1.27-.1,2.55,0,3.83,0Z"></path><path class="cls-1" d="M202.36,81.08c2.66.88,5.76,1.63,8.44,3.33a2.78,2.78,0,0,1,.85,3.79,2.83,2.83,0,0,1-3.48,1.74,67.8,67.8,0,0,1-7.56-2.79A2.88,2.88,0,0,1,199,83.62,3.47,3.47,0,0,1,202.36,81.08Z"></path><path class="cls-1" d="M212,43.69a3.21,3.21,0,0,1-2,2.91c-2.24.91-4.5,1.79-6.8,2.52a3.19,3.19,0,0,1-4.14-1.88c-.65-1.73.11-3.39,2.06-4.2,2.11-.87,4.24-1.71,6.41-2.39A3.26,3.26,0,0,1,212,43.69Z"></path><path class="cls-1" d="M103.55,46.13a3.18,3.18,0,0,1-4.23,3,60.3,60.3,0,0,1-7-2.59,3.06,3.06,0,0,1-1.71-4,2.91,2.91,0,0,1,3.71-2,70.08,70.08,0,0,1,7.53,2.78A2.87,2.87,0,0,1,103.55,46.13Z"></path><path class="cls-1" d="M103.54,84.6a3,3,0,0,1-1.9,2.65c-2.3.93-4.62,1.85-7,2.61a3.16,3.16,0,0,1-4-2,3.08,3.08,0,0,1,1.82-4c2.29-1,4.62-1.86,7-2.59A3.19,3.19,0,0,1,103.54,84.6Z"></path></svg>