<svg xmlns="http://www.w3.org/2000/svg" id="Layer_1" data-name="Layer 1" viewBox="0 0 300.88 244.74"><defs><style>.cls-1{fill:#606060;}</style></defs><path class="cls-1" d="M268.85,148.16c-1.37,3.89-4,6.72-7.13,9.33q-24.8,20.87-49.47,41.87A42.22,42.22,0,0,1,188,209.29c-1,.09-2,.27-3.07.38-2.54.28-4.5-1-4.82-3.16-.35-2.38,1.1-4.16,3.78-4.54,2.12-.29,4.25-.48,6.38-.75,8.27-1,14.64-5.57,20.77-10.84,15.42-13.24,31-26.32,46.5-39.47,1.5-1.28,3.14-2.48,3.58-4.61a6.47,6.47,0,0,0-2.54-6.93,6.11,6.11,0,0,0-7.53.46c-3.23,2.58-6.35,5.28-9.5,7.95l-23.25,19.74a14.88,14.88,0,0,1-10.05,3.68c-9.05,0-18.11,0-27.16,0a4.84,4.84,0,0,0-3.81,1.44,16.15,16.15,0,0,1-11.64,4.69c-10.25.07-20.5,0-30.74,0a6.09,6.09,0,0,1-3-.59,3.73,3.73,0,0,1,.26-6.81,7.81,7.81,0,0,1,3.28-.43q14.78,0,29.55,0c5.7,0,9.82-3.72,9.82-8.79,0-5.26-4.11-9-9.92-9-16.36,0-32.73-.08-49.09,0a50.55,50.55,0,0,0-21,4.75l-.86.41c-2.8,1.28-4.85.82-5.92-1.33s-.23-4.14,2.51-5.52a57.7,57.7,0,0,1,16.74-5.28,76.69,76.69,0,0,1,12.11-.81c14.53,0,29.07,0,43.6,0a8.57,8.57,0,0,1,2.38,0c3.94,1.21,6.66-.67,9.48-3.15,7.33-6.45,14.86-12.68,22.3-19,7.8-6.62,18.29-4.34,22.58,5,.68,1.48,1.13,1.51,2.38.62,8.2-5.84,17.31-3.39,21.71,5.81.52,1.1.9,1.84,2.19.76a14.12,14.12,0,0,1,22.53,6.42,2.94,2.94,0,0,0,.34.63Zm-76.67,14.6.22.51c5.92,0,11.85,0,17.77,0a3.74,3.74,0,0,0,2.36-1.05c7.49-6.37,15-12.73,22.42-19.16a5.8,5.8,0,0,0,2.07-5.55c-.89-5.16-6.42-7.18-10.57-3.74-7.2,6-14.3,12.06-21.44,18.11Q198.58,157.29,192.18,162.76Zm14.35-36.92a5.69,5.69,0,0,0-4.14,1.6c-7.88,6.66-15.73,13.36-23.63,20-1.15,1-1.1,1.6-.16,2.68a15.55,15.55,0,0,1,3.65,8.39c.06.53-.13,1.21.48,1.49s1.16-.31,1.63-.7c2.91-2.45,5.8-4.93,8.71-7.4,5.92-5,11.88-10,17.76-15.13a6,6,0,0,0,1.71-7.13A6.14,6.14,0,0,0,206.53,125.84Z"></path><path class="cls-1" d="M105.84,244.45c-2.54-3-2.59-4.12,0-7.22q11.19-13.47,22.42-26.9a5.7,5.7,0,0,1,3.85-2.14q17.72-2.15,35.43-4.27c2.51-.3,4.46,1.12,4.71,3.29s-1.1,4.07-3.68,4.39c-10.7,1.33-21.41,2.67-32.13,3.83a6.4,6.4,0,0,0-4.56,2.55c-7.37,8.85-14.8,17.65-22.2,26.47Z"></path><path class="cls-1" d="M140.59,107.51c-.46-8.58-1.05-18.87-1.53-29.17-.11-2.49-1.59-2.49-3.38-2.45a9.46,9.46,0,0,1-9.07-5.47A10.28,10.28,0,1,1,145.89,65c.18,4,.44,3.42,3.91,3.44,1.91,0,4,.44,5.66-.23,2.13-.85,1-3.4,1.44-5.15,1.39-5.11,6.3-8.57,11.32-7.8,5.54.85,9.14,5.54,8.78,11.46a9.88,9.88,0,0,1-9.77,9.21c-3.87.08-3.46-.15-3.67,3.69-.44,7.76-1,15.51-1.05,23.43q2.69-4.12,5.35-8.26c5.46-8.48,10.88-17,16.37-25.45C200,44.92,185.9,12.6,157.2,8.38c-19.28-2.84-38.93,6.86-44.29,29-.17.69-.31,1.4-.53,2.07-.72,2.21-2.55,3.36-4.53,2.88A3.89,3.89,0,0,1,105,37.54c1.76-8.57,5.14-16.43,11.36-22.69,13.81-13.92,30.6-18.07,49-12.38C184,8.22,194.91,21.62,198,41c1.83,11.51-.76,22.25-7,32.07q-9.87,15.47-19.83,30.87a10.87,10.87,0,0,0-1.38,4.44c-1.08,6.73-1.25,13.49-1.58,20.28-.27,5.77-5,9.58-10.79,9.66q-6.08.08-12.16,0c-6.44-.09-10.87-4.59-10.92-11,0-2.22,0-4.45,0-6.67,0-2.53.25-5.06-1.1-7.43a4.4,4.4,0,0,1-.29-2.56c.42-3.21-.85-5.76-2.54-8.39-7.07-11-14.49-21.85-21.08-33.18a39.18,39.18,0,0,1-4.7-14.41,3.76,3.76,0,0,1,3-4.41A3.53,3.53,0,0,1,111.94,53c1.34,9.68,6.94,17.27,12,25.14,4.42,6.88,8.76,13.82,13.3,20.62C139.38,101.93,141.16,105.1,140.59,107.51Zm10.6-31.6c-.95,0-1.91,0-2.86,0-1.52-.08-1.83.67-1.74,2.06.64,9.8,1.27,19.59,1.75,29.39.1,2.07.75,2.64,2.78,2.75,2.9.17,3-1.66,3.12-3.59.52-8.61,1.09-17.23,1.47-25.84C155.94,75.35,156.44,76,151.19,75.91Zm.17,41.91h-7.6c-1,0-2,.1-1.95,1.45,0,2.7-.09,5.39.09,8.08a3.08,3.08,0,0,0,3.45,3.13c4,0,7.92,0,11.88,0,2.13,0,3.25-1.09,3.29-3.2,0-2.53,0-5.07,0-7.6,0-1.5-.72-1.9-2.06-1.87C156.11,117.85,153.74,117.82,151.36,117.82ZM165.8,68.39c2.17,0,3.43-1,3.41-2.85,0-1.57-.72-2.6-2.42-2.54-2.31.08-2.36,1.93-2.6,3.57C164,67.85,164.52,68.55,165.8,68.39Zm-27.63-1.9c0-1.86-.39-3.4-2.49-3.47a2.25,2.25,0,0,0-2.48,2.55c0,2,1.3,2.71,3.12,2.83C137.84,68.5,138.33,67.76,138.17,66.49Z"></path><path class="cls-1" d="M82.59,162.57A4.56,4.56,0,0,1,81,165.78a58.19,58.19,0,0,0-12.25,17.7c-2.13,4.49-5.75,8-8.76,11.83-6.24,8-12.59,15.94-18.9,23.9a14.45,14.45,0,0,1-1.39,1.62,3.66,3.66,0,0,1-5.16.28A3.75,3.75,0,0,1,34,216c2.12-2.87,4.37-5.64,6.59-8.44q9.6-12.13,19.23-24.24a25.61,25.61,0,0,0,3.16-5.3,58.26,58.26,0,0,1,12.89-17.83,3.9,3.9,0,0,1,4.59-.89A3.65,3.65,0,0,1,82.59,162.57Z"></path><path class="cls-1" d="M221.27,47.5c1.43,0,2.87-.09,4.29,0a3.63,3.63,0,0,1,3.59,3.5,3.46,3.46,0,0,1-3,4,30.21,30.21,0,0,1-9.95,0,3.48,3.48,0,0,1-3-4,3.59,3.59,0,0,1,3.58-3.5C218.25,47.4,219.77,47.5,221.27,47.5Z"></path><path class="cls-1" d="M81.55,47.51a33.77,33.77,0,0,1,4.27,0,3.56,3.56,0,0,1,3.46,3.58A3.46,3.46,0,0,1,86.19,55a31.87,31.87,0,0,1-9.7,0,3.51,3.51,0,0,1-3.15-3.85A3.75,3.75,0,0,1,77,47.52c1.5-.12,3,0,4.52,0Z"></path><path class="cls-1" d="M211.6,70c3.14,1,6.8,1.92,10,3.93a3.29,3.29,0,0,1,1,4.47,3.35,3.35,0,0,1-4.11,2,80.77,80.77,0,0,1-8.92-3.29,3.42,3.42,0,0,1-2-4.16A4.1,4.1,0,0,1,211.6,70Z"></path><path class="cls-1" d="M223,25.89a3.75,3.75,0,0,1-2.36,3.44c-2.64,1.07-5.3,2.11-8,3a3.77,3.77,0,0,1-4.89-2.22c-.76-2,.13-4,2.43-4.95,2.49-1,5-2,7.57-2.82C220.51,21.45,222.94,23.14,223,25.89Z"></path><path class="cls-1" d="M95,28.78a3.76,3.76,0,0,1-5,3.55,74,74,0,0,1-8.23-3.06,3.61,3.61,0,0,1-2-4.74,3.45,3.45,0,0,1,4.39-2.32A84,84,0,0,1,93,25.5,3.37,3.37,0,0,1,95,28.78Z"></path><path class="cls-1" d="M95,74.16a3.54,3.54,0,0,1-2.24,3.14c-2.71,1.1-5.45,2.18-8.23,3.08A3.75,3.75,0,0,1,79.73,78a3.64,3.64,0,0,1,2.16-4.68,84,84,0,0,1,8.24-3A3.75,3.75,0,0,1,95,74.16Z"></path></svg>